<?xml version="1.0" encoding="UTF-8"?>
<svg xmlns="http://www.w3.org/2000/svg" xmlns:xlink="http://www.w3.org/1999/xlink" width="394.7844pt" height="140.9539pt" viewBox="0 0 394.7844 140.9539" version="1.2">
<g id="surface1">
<path style=" stroke:none;fill-rule:nonzero;fill:rgb(7.058716%,1.176453%,46.665955%);fill-opacity:1;" d="M 34.4375 86.824219 C 34.429688 86.496094 34.695312 86.222656 35.023438 86.21875 C 35.355469 86.210938 35.625 86.476562 35.628906 86.804688 C 35.820312 98.632812 35.820312 109.84375 35.628906 120.433594 C 35.625 120.761719 35.351562 121.023438 35.023438 121.019531 C 34.691406 121.011719 34.429688 120.738281 34.4375 120.410156 C 34.628906 109.835938 34.628906 98.640625 34.4375 86.824219 "/>
<path style=" stroke:none;fill-rule:nonzero;fill:rgb(7.058716%,1.176453%,46.665955%);fill-opacity:1;" d="M 34.765625 87.351562 C 34.472656 87.203125 34.351562 86.84375 34.5 86.546875 C 34.648438 86.253906 35.003906 86.132812 35.300781 86.28125 C 51.214844 94.242188 51.214844 94.242188 69.8125 103.546875 C 70.109375 103.695312 70.226562 104.054688 70.082031 104.351562 C 69.933594 104.644531 69.574219 104.765625 69.277344 104.617188 C 50.683594 95.3125 50.683594 95.3125 34.765625 87.351562 "/>
<path style=" stroke:none;fill-rule:nonzero;fill:rgb(7.058716%,1.176453%,46.665955%);fill-opacity:1;" d="M 35.289062 120.960938 C 34.992188 121.101562 34.636719 120.976562 34.496094 120.679688 C 34.351562 120.378906 34.480469 120.023438 34.777344 119.882812 C 46.28125 114.390625 57.785156 108.941406 69.292969 103.542969 C 69.589844 103.402344 69.945312 103.53125 70.085938 103.828125 C 70.226562 104.128906 70.097656 104.484375 69.800781 104.625 C 58.296875 110.023438 46.792969 115.46875 35.289062 120.960938 "/>
<path style=" stroke:none;fill-rule:nonzero;fill:rgb(7.058716%,1.176453%,46.665955%);fill-opacity:1;" d="M 76.535156 104.734375 C 76.207031 104.734375 75.9375 104.46875 75.9375 104.140625 C 75.9375 103.808594 76.207031 103.542969 76.535156 103.542969 L 83.523438 103.542969 C 83.851562 103.542969 84.121094 103.808594 84.121094 104.140625 C 84.121094 104.46875 83.851562 104.734375 83.523438 104.734375 Z M 76.535156 104.734375 "/>
<path style=" stroke:none;fill-rule:nonzero;fill:rgb(7.058716%,1.176453%,46.665955%);fill-opacity:1;" d="M 23.644531 104.808594 C 23.3125 104.808594 23.046875 104.539062 23.046875 104.210938 C 23.046875 103.882812 23.3125 103.613281 23.644531 103.613281 L 35.175781 103.613281 C 35.507812 103.613281 35.773438 103.882812 35.773438 104.210938 C 35.773438 104.539062 35.507812 104.808594 35.175781 104.808594 Z M 23.644531 104.808594 "/>
<path style=" stroke:none;fill-rule:nonzero;fill:rgb(7.058716%,1.176453%,46.665955%);fill-opacity:1;" d="M 77.132812 104.191406 C 77.132812 105.699219 76.316406 107.019531 75.101562 107.730469 C 74.496094 108.082031 73.792969 108.285156 73.039062 108.285156 C 71.53125 108.285156 70.214844 107.46875 69.503906 106.253906 C 69.148438 105.648438 68.945312 104.945312 68.945312 104.191406 C 68.945312 102.683594 69.761719 101.367188 70.976562 100.65625 C 71.582031 100.304688 72.289062 100.101562 73.039062 100.101562 C 74.546875 100.101562 75.867188 100.914062 76.578125 102.128906 C 76.929688 102.734375 77.132812 103.441406 77.132812 104.191406 M 75.9375 104.191406 C 75.9375 103.660156 75.796875 103.160156 75.542969 102.734375 C 75.042969 101.871094 74.109375 101.292969 73.039062 101.292969 C 72.507812 101.292969 72.007812 101.4375 71.582031 101.6875 C 70.71875 102.191406 70.140625 103.125 70.140625 104.191406 C 70.140625 104.726562 70.285156 105.222656 70.535156 105.652344 C 71.039062 106.511719 71.972656 107.089844 73.039062 107.089844 C 73.570312 107.089844 74.070312 106.949219 74.5 106.699219 C 75.359375 106.195312 75.9375 105.261719 75.9375 104.191406 "/>
<path style=" stroke:none;fill-rule:nonzero;fill:rgb(7.058716%,1.176453%,46.665955%);fill-opacity:1;" d="M 275.898438 86.824219 C 275.894531 86.496094 276.15625 86.222656 276.488281 86.21875 C 276.816406 86.210938 277.089844 86.476562 277.09375 86.804688 C 277.285156 98.632812 277.285156 109.84375 277.09375 120.433594 C 277.089844 120.761719 276.816406 121.023438 276.488281 121.019531 C 276.15625 121.011719 275.894531 120.738281 275.898438 120.410156 C 276.089844 109.835938 276.089844 98.640625 275.898438 86.824219 "/>
<path style=" stroke:none;fill-rule:nonzero;fill:rgb(7.058716%,1.176453%,46.665955%);fill-opacity:1;" d="M 276.230469 87.351562 C 275.933594 87.203125 275.816406 86.84375 275.964844 86.546875 C 276.109375 86.253906 276.46875 86.132812 276.765625 86.28125 C 292.679688 94.242188 292.679688 94.242188 311.277344 103.546875 C 311.574219 103.695312 311.691406 104.054688 311.542969 104.351562 C 311.398438 104.644531 311.039062 104.765625 310.742188 104.617188 C 292.144531 95.3125 292.144531 95.3125 276.230469 87.351562 "/>
<path style=" stroke:none;fill-rule:nonzero;fill:rgb(7.058716%,1.176453%,46.665955%);fill-opacity:1;" d="M 276.753906 120.960938 C 276.457031 121.101562 276.101562 120.976562 275.957031 120.679688 C 275.816406 120.378906 275.941406 120.023438 276.242188 119.882812 C 287.746094 114.390625 299.25 108.941406 310.757812 103.542969 C 311.054688 103.402344 311.410156 103.53125 311.550781 103.828125 C 311.691406 104.128906 311.5625 104.484375 311.265625 104.625 C 299.761719 110.023438 288.257812 115.46875 276.753906 120.960938 "/>
<path style=" stroke:none;fill-rule:nonzero;fill:rgb(7.058716%,1.176453%,46.665955%);fill-opacity:1;" d="M 318 104.734375 C 317.667969 104.734375 317.402344 104.46875 317.402344 104.140625 C 317.402344 103.808594 317.667969 103.542969 318 103.542969 L 324.984375 103.542969 C 325.316406 103.542969 325.582031 103.808594 325.582031 104.140625 C 325.582031 104.46875 325.316406 104.734375 324.984375 104.734375 Z M 318 104.734375 "/>
<path style=" stroke:none;fill-rule:nonzero;fill:rgb(7.058716%,1.176453%,46.665955%);fill-opacity:1;" d="M 265.105469 104.808594 C 264.777344 104.808594 264.511719 104.539062 264.511719 104.210938 C 264.511719 103.882812 264.777344 103.613281 265.105469 103.613281 L 276.640625 103.613281 C 276.96875 103.613281 277.238281 103.882812 277.238281 104.210938 C 277.238281 104.539062 276.96875 104.808594 276.640625 104.808594 Z M 265.105469 104.808594 "/>
<path style=" stroke:none;fill-rule:nonzero;fill:rgb(7.058716%,1.176453%,46.665955%);fill-opacity:1;" d="M 318.597656 104.191406 C 318.597656 105.699219 317.78125 107.019531 316.566406 107.730469 C 315.960938 108.082031 315.257812 108.285156 314.503906 108.285156 C 312.996094 108.285156 311.675781 107.46875 310.96875 106.253906 C 310.613281 105.648438 310.410156 104.945312 310.410156 104.191406 C 310.410156 102.683594 311.226562 101.367188 312.441406 100.65625 C 313.046875 100.304688 313.753906 100.101562 314.503906 100.101562 C 316.011719 100.101562 317.332031 100.914062 318.039062 102.128906 C 318.394531 102.734375 318.597656 103.441406 318.597656 104.191406 M 317.402344 104.191406 C 317.402344 103.660156 317.257812 103.160156 317.007812 102.734375 C 316.507812 101.871094 315.574219 101.292969 314.503906 101.292969 C 313.972656 101.292969 313.472656 101.4375 313.042969 101.6875 C 312.183594 102.191406 311.605469 103.125 311.605469 104.191406 C 311.605469 104.726562 311.75 105.222656 312 105.652344 C 312.503906 106.511719 313.433594 107.089844 314.503906 107.089844 C 315.035156 107.089844 315.535156 106.949219 315.964844 106.699219 C 316.824219 106.195312 317.402344 105.261719 317.402344 104.191406 "/>
<path style=" stroke:none;fill-rule:nonzero;fill:rgb(92.941284%,21.176147%,14.117432%);fill-opacity:1;" d="M 83.523438 104.734375 C 83.191406 104.734375 82.925781 104.46875 82.925781 104.140625 C 82.925781 103.808594 83.191406 103.542969 83.523438 103.542969 L 265.105469 103.542969 C 265.4375 103.542969 265.703125 103.808594 265.703125 104.140625 C 265.703125 104.46875 265.4375 104.734375 265.105469 104.734375 Z M 83.523438 104.734375 "/>
<path style=" stroke:none;fill-rule:nonzero;fill:rgb(7.058716%,1.176453%,46.665955%);fill-opacity:1;" d="M 182.722656 3.421875 C 182.71875 3.089844 182.980469 2.820312 183.3125 2.8125 C 183.640625 2.808594 183.914062 3.070312 183.917969 3.402344 C 184.109375 15.230469 184.109375 26.4375 183.917969 37.027344 C 183.914062 37.355469 183.640625 37.621094 183.308594 37.613281 C 182.980469 37.609375 182.71875 37.335938 182.722656 37.003906 C 182.914062 26.429688 182.914062 15.234375 182.722656 3.421875 "/>
<path style=" stroke:none;fill-rule:nonzero;fill:rgb(7.058716%,1.176453%,46.665955%);fill-opacity:1;" d="M 183.054688 3.945312 C 182.757812 3.796875 182.640625 3.4375 182.785156 3.144531 C 182.933594 2.847656 183.292969 2.730469 183.589844 2.875 C 199.503906 10.839844 199.503906 10.839844 218.101562 20.144531 C 218.394531 20.292969 218.515625 20.652344 218.367188 20.945312 C 218.21875 21.242188 217.863281 21.359375 217.566406 21.210938 C 198.96875 11.90625 198.96875 11.90625 183.054688 3.945312 "/>
<path style=" stroke:none;fill-rule:nonzero;fill:rgb(7.058716%,1.176453%,46.665955%);fill-opacity:1;" d="M 183.578125 37.554688 C 183.28125 37.699219 182.925781 37.570312 182.78125 37.273438 C 182.640625 36.976562 182.765625 36.621094 183.0625 36.476562 C 194.570312 30.984375 206.074219 25.539062 217.578125 20.136719 C 217.878906 19.996094 218.234375 20.125 218.375 20.425781 C 218.515625 20.722656 218.386719 21.078125 218.085938 21.21875 C 206.585938 26.617188 195.082031 32.0625 183.578125 37.554688 "/>
<path style=" stroke:none;fill-rule:nonzero;fill:rgb(7.058716%,1.176453%,46.665955%);fill-opacity:1;" d="M 224.824219 21.332031 C 224.492188 21.332031 224.226562 21.0625 224.226562 20.734375 C 224.226562 20.402344 224.492188 20.136719 224.824219 20.136719 L 231.808594 20.136719 C 232.140625 20.136719 232.40625 20.402344 232.40625 20.734375 C 232.40625 21.0625 232.140625 21.332031 231.808594 21.332031 Z M 224.824219 21.332031 "/>
<path style=" stroke:none;fill-rule:nonzero;fill:rgb(7.058716%,1.176453%,46.665955%);fill-opacity:1;" d="M 171.929688 21.402344 C 171.601562 21.402344 171.332031 21.136719 171.332031 20.804688 C 171.332031 20.476562 171.601562 20.207031 171.929688 20.207031 L 183.464844 20.207031 C 183.792969 20.207031 184.0625 20.476562 184.0625 20.804688 C 184.0625 21.136719 183.792969 21.402344 183.464844 21.402344 Z M 171.929688 21.402344 "/>
<path style=" stroke:none;fill-rule:nonzero;fill:rgb(7.058716%,1.176453%,46.665955%);fill-opacity:1;" d="M 225.421875 20.789062 C 225.421875 22.296875 224.605469 23.613281 223.390625 24.324219 C 222.785156 24.679688 222.078125 24.878906 221.328125 24.878906 C 219.820312 24.878906 218.5 24.066406 217.792969 22.851562 C 217.4375 22.246094 217.234375 21.539062 217.234375 20.789062 C 217.234375 19.28125 218.050781 17.960938 219.265625 17.25 C 219.871094 16.898438 220.574219 16.695312 221.328125 16.695312 C 222.835938 16.695312 224.152344 17.511719 224.863281 18.726562 C 225.21875 19.332031 225.421875 20.035156 225.421875 20.789062 M 224.226562 20.789062 C 224.226562 20.253906 224.082031 19.757812 223.832031 19.328125 C 223.328125 18.46875 222.394531 17.890625 221.328125 17.890625 C 220.796875 17.890625 220.296875 18.03125 219.867188 18.285156 C 219.007812 18.785156 218.429688 19.71875 218.429688 20.789062 C 218.429688 21.320312 218.574219 21.820312 218.824219 22.246094 C 219.324219 23.109375 220.257812 23.6875 221.328125 23.6875 C 221.859375 23.6875 222.359375 23.542969 222.789062 23.292969 C 223.648438 22.789062 224.226562 21.855469 224.226562 20.789062 "/>
<path style=" stroke:none;fill-rule:nonzero;fill:rgb(92.941284%,21.176147%,14.117432%);fill-opacity:1;" d="M 231.425781 21.332031 C 231.097656 21.332031 230.832031 21.0625 230.832031 20.734375 C 230.832031 20.402344 231.097656 20.136719 231.425781 20.136719 L 243.082031 20.136719 C 243.410156 20.136719 243.679688 20.402344 243.679688 20.734375 C 243.679688 21.0625 243.410156 21.332031 243.082031 21.332031 Z M 231.425781 21.332031 "/>
<path style=" stroke:none;fill-rule:nonzero;fill:rgb(92.941284%,21.176147%,14.117432%);fill-opacity:1;" d="M 242.484375 20.734375 C 242.484375 20.402344 242.75 20.136719 243.082031 20.136719 C 243.410156 20.136719 243.679688 20.402344 243.679688 20.734375 L 243.679688 94.015625 C 243.679688 94.347656 243.410156 94.613281 243.082031 94.613281 C 242.75 94.613281 242.484375 94.347656 242.484375 94.015625 Z M 242.484375 20.734375 "/>
<path style=" stroke:none;fill-rule:nonzero;fill:rgb(92.941284%,21.176147%,14.117432%);fill-opacity:1;" d="M 243.082031 94.613281 C 242.75 94.613281 242.484375 94.347656 242.484375 94.015625 C 242.484375 93.6875 242.75 93.417969 243.082031 93.417969 L 263.425781 93.417969 C 263.757812 93.417969 264.023438 93.6875 264.023438 94.015625 C 264.023438 94.347656 263.757812 94.613281 263.425781 94.613281 Z M 243.082031 94.613281 "/>
<path style=" stroke:none;fill-rule:nonzero;fill:rgb(92.941284%,21.176147%,14.117432%);fill-opacity:1;" d="M 264.023438 94.015625 C 264.023438 94.347656 263.757812 94.613281 263.425781 94.613281 C 263.097656 94.613281 262.828125 94.347656 262.828125 94.015625 L 262.828125 21.050781 C 262.828125 20.71875 263.097656 20.453125 263.425781 20.453125 C 263.757812 20.453125 264.023438 20.71875 264.023438 21.050781 Z M 264.023438 94.015625 "/>
<path style=" stroke:none;fill-rule:nonzero;fill:rgb(92.941284%,21.176147%,14.117432%);fill-opacity:1;" d="M 263.425781 21.644531 C 263.097656 21.644531 262.828125 21.378906 262.828125 21.050781 C 262.828125 20.71875 263.097656 20.453125 263.425781 20.453125 L 312.777344 20.453125 C 313.105469 20.453125 313.375 20.71875 313.375 21.050781 C 313.375 21.378906 313.105469 21.644531 312.777344 21.644531 Z M 263.425781 21.644531 "/>
<path style=" stroke:none;fill-rule:nonzero;fill:rgb(7.058716%,1.176453%,46.665955%);fill-opacity:1;" d="M 11.265625 101.210938 C 11.050781 101.460938 10.671875 101.488281 10.421875 101.273438 C 10.171875 101.058594 10.144531 100.683594 10.359375 100.433594 C 10.660156 100.078125 10.910156 99.796875 11.054688 99.511719 C 11.179688 99.277344 11.242188 99.097656 11.242188 99.054688 C 11.242188 99.046875 11.242188 99.027344 11.207031 98.988281 C 11.164062 98.9375 11.089844 98.882812 10.988281 98.84375 C 10.71875 98.746094 10.039062 98.859375 9.292969 99.292969 C 8.507812 99.75 7.691406 100.484375 7.046875 101.390625 C 6.171875 102.625 5.609375 104.464844 5.433594 106.394531 C 5.339844 107.445312 5.285156 108.453125 5.460938 109.265625 C 5.652344 110.132812 6.234375 110.78125 7.03125 111.222656 C 7.84375 111.671875 8.859375 111.894531 9.824219 111.894531 C 11.179688 111.898438 12.65625 111.222656 13.949219 110.171875 C 15.253906 109.109375 16.347656 107.695312 16.972656 106.265625 C 17.464844 105.136719 17.515625 103.984375 17.234375 102.980469 C 16.957031 101.988281 16.351562 101.132812 15.550781 100.585938 C 14.46875 99.851562 12.957031 99.632812 11.695312 99.996094 C 10.457031 100.355469 9.480469 101.269531 9.296875 102.75 C 9.257812 103.078125 8.960938 103.308594 8.632812 103.269531 C 8.304688 103.230469 8.074219 102.929688 8.113281 102.605469 C 8.351562 100.652344 9.753906 99.3125 11.363281 98.847656 C 12.976562 98.382812 14.820312 98.644531 16.222656 99.601562 C 17.265625 100.308594 18.035156 101.402344 18.386719 102.660156 C 18.738281 103.921875 18.667969 105.367188 18.066406 106.742188 C 17.355469 108.371094 16.15625 109.914062 14.703125 111.097656 C 13.257812 112.277344 11.550781 113.09375 9.824219 113.089844 C 8.675781 113.089844 7.476562 112.835938 6.453125 112.269531 C 5.425781 111.703125 4.570312 110.765625 4.296875 109.519531 C 4.066406 108.480469 4.144531 107.371094 4.242188 106.285156 C 4.433594 104.191406 5.027344 102.171875 6.074219 100.699219 C 6.816406 99.648438 7.746094 98.8125 8.691406 98.261719 C 9.609375 97.726562 10.5625 97.414062 11.402344 97.722656 C 11.675781 97.824219 11.921875 97.988281 12.113281 98.210938 C 12.304688 98.433594 12.441406 98.738281 12.4375 99.066406 C 12.429688 99.492188 12.253906 99.800781 12.117188 100.0625 C 11.878906 100.519531 11.5625 100.863281 11.265625 101.210938 "/>
<path style=" stroke:none;fill-rule:nonzero;fill:rgb(0%,45.097351%,23.136902%);fill-opacity:1;" d="M 121.078125 32.476562 C 121.515625 32.503906 121.847656 32.882812 121.816406 33.324219 C 121.789062 33.761719 121.410156 34.09375 120.96875 34.0625 C 120.59375 34.039062 120.257812 33.992188 119.929688 33.75 C 119.761719 33.628906 119.585938 33.414062 119.527344 33.148438 C 119.46875 32.886719 119.527344 32.640625 119.617188 32.460938 C 119.9375 31.804688 120.511719 31.589844 121.1875 31.355469 C 122.59375 30.867188 124.542969 30.789062 126.792969 30.765625 C 129.109375 30.738281 131.652344 30.800781 134.113281 30.757812 C 137.507812 30.703125 140.539062 30.410156 142.738281 30.324219 C 143.695312 30.289062 144.433594 30.25 145.101562 30.332031 C 145.46875 30.375 145.796875 30.421875 146.042969 30.464844 C 146.304688 30.507812 146.511719 30.667969 146.625 30.808594 C 146.734375 30.949219 146.789062 31.074219 146.820312 31.183594 C 146.851562 31.28125 146.867188 31.367188 146.875 31.449219 C 146.882812 31.53125 146.964844 31.527344 146.820312 31.886719 L 145.34375 31.296875 C 145.394531 31.164062 145.296875 31.644531 145.292969 31.585938 C 145.289062 31.503906 145.308594 31.6875 145.308594 31.6875 C 145.304688 31.683594 145.296875 31.65625 145.285156 31.625 C 145.242188 31.519531 145.167969 31.355469 145.101562 31.152344 C 144.882812 30.46875 144.777344 29.589844 144.601562 28.449219 C 144.296875 26.46875 143.980469 23.332031 143.609375 20.503906 C 143.113281 16.6875 142.320312 14.535156 142.1875 12.578125 C 142.09375 11.203125 142.292969 9.867188 142.355469 8.609375 C 142.386719 8.019531 142.4375 7.507812 142.371094 7.171875 C 142.355469 7.085938 142.167969 6.855469 141.90625 6.488281 C 141.734375 6.246094 141.585938 5.988281 141.503906 5.679688 C 141.460938 5.519531 141.433594 5.34375 141.464844 5.132812 C 141.496094 4.921875 141.605469 4.675781 141.785156 4.5 C 142.210938 4.097656 142.585938 4.1875 142.84375 4.207031 C 143.101562 4.230469 143.324219 4.269531 143.492188 4.285156 C 144.1875 4.351562 144.980469 4.433594 146.078125 4.492188 C 148.273438 4.617188 151.367188 4.5 154.066406 4.492188 C 156.300781 4.488281 157.800781 4.492188 159.015625 4.492188 C 159.660156 4.492188 160.363281 4.433594 161.019531 4.496094 C 161.550781 4.542969 162.339844 4.832031 163.335938 5.863281 C 163.640625 6.179688 163.628906 6.683594 163.3125 6.988281 C 162.996094 7.292969 162.492188 7.285156 162.1875 6.96875 C 161.726562 6.488281 161.433594 6.257812 161.277344 6.171875 C 161.152344 6.105469 161.109375 6.101562 160.875 6.082031 C 160.410156 6.039062 159.726562 6.085938 159.015625 6.085938 C 157.796875 6.085938 156.300781 6.082031 154.070312 6.085938 C 151.40625 6.089844 148.308594 6.214844 145.988281 6.085938 C 144.859375 6.019531 144.035156 5.9375 143.335938 5.871094 C 143.09375 5.847656 142.875 5.808594 142.722656 5.796875 C 142.660156 5.792969 142.636719 5.792969 142.625 5.792969 C 142.617188 5.796875 142.746094 5.757812 142.703125 5.773438 C 142.65625 5.789062 142.953125 5.589844 142.882812 5.65625 C 142.796875 5.738281 143.054688 5.277344 143.042969 5.359375 C 143.03125 5.433594 143.042969 5.265625 143.042969 5.269531 C 143.050781 5.304688 143.109375 5.429688 143.207031 5.566406 C 143.363281 5.789062 143.796875 6.167969 143.933594 6.859375 C 144.070312 7.539062 143.972656 8.164062 143.949219 8.6875 C 143.882812 10.03125 143.695312 11.3125 143.777344 12.46875 C 143.828125 13.265625 144.046875 14.207031 144.3125 15.421875 C 144.597656 16.703125 144.925781 18.28125 145.191406 20.296875 C 145.5625 23.152344 145.882812 26.300781 146.175781 28.207031 C 146.351562 29.355469 146.476562 30.21875 146.621094 30.664062 C 146.652344 30.769531 146.707031 30.894531 146.761719 31.035156 C 146.820312 31.179688 147.050781 31.316406 146.820312 31.886719 C 146.65625 32.296875 146.195312 32.492188 145.785156 32.332031 C 145.378906 32.167969 145.179688 31.707031 145.339844 31.296875 C 145.382812 31.191406 145.289062 31.523438 145.292969 31.488281 C 145.304688 31.386719 145.292969 31.628906 145.289062 31.613281 C 145.289062 31.601562 145.308594 31.679688 145.300781 31.660156 C 145.289062 31.628906 145.433594 31.871094 145.378906 31.800781 C 145.355469 31.773438 145.597656 31.984375 145.53125 31.941406 C 145.460938 31.894531 145.882812 32.050781 145.785156 32.039062 C 145.5625 32 145.25 31.953125 144.90625 31.914062 C 144.433594 31.855469 143.753906 31.878906 142.800781 31.917969 C 140.671875 32 137.601562 32.292969 134.140625 32.351562 C 129.125 32.433594 123.933594 32.085938 121.710938 32.859375 C 121.464844 32.945312 121.265625 33.039062 121.136719 33.121094 C 121.078125 33.160156 121.035156 33.191406 121.019531 33.210938 C 121.003906 33.222656 121.074219 33.105469 121.046875 33.160156 C 121.03125 33.195312 121.097656 32.960938 121.089844 33.023438 C 121.078125 33.085938 121.0625 32.710938 121.082031 32.792969 C 121.101562 32.878906 120.945312 32.523438 120.984375 32.582031 C 121.023438 32.636719 120.847656 32.449219 120.875 32.46875 C 120.929688 32.507812 120.808594 32.433594 120.84375 32.441406 C 120.882812 32.453125 120.964844 32.46875 121.078125 32.476562 "/>
<path style=" stroke:none;fill-rule:nonzero;fill:rgb(0%,45.097351%,23.136902%);fill-opacity:1;" d="M 325.59375 118.503906 C 325.152344 118.511719 324.789062 118.160156 324.78125 117.722656 C 324.773438 117.28125 325.121094 116.917969 325.5625 116.910156 C 326.671875 116.890625 327.460938 116.933594 328.570312 116.910156 C 330.730469 116.863281 334.269531 116.589844 337.566406 116.222656 C 339.785156 115.976562 341.667969 115.675781 343.054688 115.574219 C 343.566406 115.535156 343.976562 115.554688 344.3125 115.574219 C 344.726562 115.59375 345.027344 115.632812 345.132812 115.625 C 345.15625 115.621094 345.023438 115.6875 345.035156 115.671875 C 345.042969 115.664062 345.0625 115.636719 345.089844 115.527344 C 345.300781 114.691406 345.078125 112.914062 344.9375 110.472656 C 344.796875 108.066406 344.519531 105.121094 344.085938 101.925781 C 343.742188 99.40625 343.371094 96.820312 343.097656 94.859375 C 342.9375 93.707031 342.777344 92.878906 342.671875 92.316406 C 342.632812 92.101562 342.496094 91.84375 342.597656 91.394531 C 342.699219 90.945312 342.914062 90.441406 343.339844 90.039062 C 343.941406 89.464844 344.746094 89.390625 345.488281 89.402344 C 346.238281 89.414062 346.992188 89.53125 347.679688 89.617188 C 348.238281 89.683594 348.894531 89.699219 349.566406 89.742188 C 349.921875 89.761719 350.257812 89.796875 350.570312 89.824219 C 350.84375 89.847656 351.15625 89.820312 351.527344 89.875 C 351.714844 89.90625 351.910156 89.933594 352.140625 90.054688 C 352.394531 90.191406 352.667969 90.527344 352.714844 90.867188 C 352.78125 91.375 352.558594 91.570312 352.453125 91.722656 C 352.355469 91.863281 352.273438 91.972656 352.238281 92.039062 C 351.855469 92.722656 351.835938 94.378906 351.640625 96.878906 C 351.410156 99.839844 351.167969 103.375 351.300781 105.992188 C 351.425781 108.4375 352.101562 109.957031 352.207031 111.851562 C 352.292969 113.460938 351.761719 114.878906 351.640625 115.941406 C 351.605469 116.226562 351.632812 116.429688 351.675781 116.535156 C 351.714844 116.628906 351.75 116.675781 351.914062 116.742188 C 352.347656 116.914062 353.386719 116.878906 354.902344 116.738281 C 356.757812 116.566406 359.46875 116.308594 362.398438 116.089844 C 364.175781 115.957031 365.917969 115.871094 367.464844 115.832031 C 369.503906 115.773438 371.015625 115.800781 372.527344 115.832031 C 376.015625 115.898438 379.664062 115.976562 382.664062 115.828125 C 384.101562 115.757812 385.339844 115.632812 386.238281 115.429688 C 386.664062 115.335938 386.992188 115.222656 387.195312 115.117188 C 387.371094 115.023438 387.335938 115.097656 387.359375 115.03125 C 387.5 114.617188 387.953125 114.390625 388.367188 114.53125 C 388.785156 114.671875 389.007812 115.125 388.867188 115.542969 C 388.703125 116.023438 388.324219 116.324219 387.9375 116.527344 C 387.550781 116.734375 387.097656 116.871094 386.589844 116.984375 C 385.535156 117.222656 384.226562 117.34375 382.742188 117.417969 C 379.660156 117.570312 375.988281 117.488281 372.496094 117.421875 C 370.988281 117.394531 369.515625 117.367188 367.507812 117.421875 C 365.988281 117.464844 364.265625 117.546875 362.519531 117.679688 C 359.609375 117.894531 356.90625 118.152344 355.050781 118.324219 C 353.511719 118.464844 352.332031 118.621094 351.328125 118.222656 C 350.820312 118.023438 350.40625 117.621094 350.210938 117.15625 C 350.015625 116.699219 350.003906 116.21875 350.058594 115.757812 C 350.210938 114.4375 350.683594 113.144531 350.617188 111.9375 C 350.53125 110.375 349.847656 108.75 349.710938 106.074219 C 349.566406 103.300781 349.820312 99.734375 350.054688 96.753906 C 350.246094 94.3125 350.113281 92.578125 350.84375 91.265625 C 350.960938 91.058594 351.078125 90.910156 351.140625 90.820312 C 351.167969 90.777344 351.164062 90.792969 351.171875 90.773438 C 351.179688 90.761719 351.132812 90.90625 351.144531 90.859375 C 351.15625 90.808594 351.148438 91.167969 351.136719 91.074219 C 351.125 91.003906 351.296875 91.402344 351.238281 91.324219 C 351.183594 91.25 351.429688 91.480469 351.394531 91.464844 C 351.351562 91.4375 351.40625 91.46875 351.292969 91.453125 C 351.15625 91.433594 350.835938 91.441406 350.441406 91.410156 C 350.105469 91.382812 349.78125 91.351562 349.46875 91.332031 C 348.835938 91.289062 348.152344 91.277344 347.488281 91.195312 C 346.777344 91.109375 346.0625 91.003906 345.46875 90.996094 C 344.902344 90.988281 344.535156 91.101562 344.4375 91.195312 C 344.296875 91.328125 344.199219 91.527344 344.152344 91.746094 C 344.136719 91.804688 344.152344 91.632812 344.160156 91.667969 C 344.171875 91.722656 344.207031 91.847656 344.238281 92.019531 C 344.34375 92.578125 344.511719 93.445312 344.675781 94.640625 C 344.949219 96.59375 345.320312 99.183594 345.664062 101.710938 C 346.105469 104.949219 346.382812 107.929688 346.527344 110.378906 C 346.664062 112.769531 346.980469 114.53125 346.636719 115.914062 C 346.5625 116.207031 346.4375 116.5 346.214844 116.746094 C 345.988281 116.992188 345.652344 117.167969 345.304688 117.207031 C 344.875 117.253906 344.546875 117.179688 344.230469 117.164062 C 343.90625 117.148438 343.582031 117.132812 343.171875 117.164062 C 341.898438 117.257812 339.996094 117.554688 337.742188 117.804688 C 334.40625 118.175781 330.851562 118.453125 328.605469 118.503906 C 327.441406 118.527344 326.648438 118.484375 325.59375 118.503906 "/>
<path style=" stroke:none;fill-rule:nonzero;fill:rgb(92.941284%,21.176147%,14.117432%);fill-opacity:1;" d="M 86.539062 77.535156 C 86.515625 77.863281 86.230469 78.109375 85.902344 78.085938 C 85.574219 78.0625 85.324219 77.773438 85.347656 77.445312 C 85.382812 77.003906 85.480469 76.503906 85.640625 76.023438 C 85.800781 75.550781 85.972656 75.078125 86.445312 74.785156 C 86.742188 74.605469 87.148438 74.691406 87.355469 74.839844 C 87.554688 74.984375 87.683594 75.15625 87.804688 75.351562 C 88.0625 75.75 88.296875 76.277344 88.558594 76.917969 C 89.097656 78.265625 89.6875 80.015625 90.335938 81.859375 C 90.976562 83.683594 91.746094 85.425781 92.34375 86.8125 C 92.652344 87.53125 92.890625 88.109375 93.0625 88.46875 C 93.117188 88.585938 93.15625 88.679688 93.183594 88.734375 C 93.191406 88.761719 93.195312 88.769531 93.199219 88.773438 C 93.199219 88.777344 93.167969 88.726562 93.179688 88.742188 C 93.195312 88.761719 93.066406 88.625 93.105469 88.660156 C 93.15625 88.707031 92.800781 88.515625 92.902344 88.546875 C 93.003906 88.578125 92.46875 88.578125 92.570312 88.546875 C 92.679688 88.511719 92.308594 88.707031 92.351562 88.671875 C 92.386719 88.636719 92.277344 88.757812 92.289062 88.742188 C 92.320312 88.695312 92.28125 88.75 92.3125 88.671875 C 92.511719 88.207031 92.832031 87.464844 93.210938 86.527344 C 93.605469 85.546875 94.046875 84.394531 94.453125 83.164062 C 95.429688 80.195312 95.839844 76.890625 95.921875 74.195312 C 95.980469 72.300781 95.769531 70.542969 95.949219 69.246094 C 95.996094 68.9375 96.0625 68.644531 96.199219 68.375 C 96.339844 68.105469 96.582031 67.847656 96.902344 67.730469 C 97.226562 67.617188 97.570312 67.648438 97.894531 67.753906 C 98.230469 67.859375 98.570312 68.039062 98.953125 68.289062 C 99.226562 68.46875 99.304688 68.839844 99.125 69.117188 C 98.945312 69.390625 98.574219 69.46875 98.296875 69.289062 C 97.976562 69.078125 97.71875 68.949219 97.535156 68.890625 C 97.375 68.839844 97.308594 68.855469 97.304688 68.859375 C 97.300781 68.859375 97.300781 68.847656 97.261719 68.921875 C 97.214844 69.011719 97.167969 69.183594 97.132812 69.414062 C 96.988281 70.449219 97.179688 72.246094 97.117188 74.230469 C 97.03125 77.023438 96.613281 80.417969 95.585938 83.535156 C 95.167969 84.800781 94.722656 85.976562 94.320312 86.972656 C 93.933594 87.929688 93.605469 88.683594 93.414062 89.136719 C 93.375 89.234375 93.347656 89.316406 93.261719 89.433594 C 93.214844 89.496094 93.152344 89.617188 92.914062 89.691406 C 92.6875 89.757812 92.417969 89.652344 92.308594 89.550781 C 91.980469 89.261719 92.070312 89.164062 91.984375 88.984375 C 91.785156 88.566406 91.550781 87.992188 91.246094 87.285156 C 90.652344 85.902344 89.867188 84.132812 89.207031 82.257812 C 88.558594 80.40625 87.972656 78.660156 87.449219 77.367188 C 87.203125 76.757812 86.976562 76.273438 86.800781 75.992188 C 86.71875 75.867188 86.667969 75.816406 86.660156 75.808594 C 86.648438 75.800781 86.882812 75.871094 86.800781 75.859375 C 86.714844 75.847656 87.140625 75.761719 87.070312 75.804688 C 87.066406 75.808594 86.890625 76.046875 86.773438 76.40625 C 86.648438 76.777344 86.566406 77.207031 86.539062 77.535156 "/>
<path style=" stroke:none;fill-rule:nonzero;fill:rgb(92.941284%,21.176147%,14.117432%);fill-opacity:1;" d="M 100.816406 85.550781 C 100.929688 85.863281 100.773438 86.203125 100.460938 86.316406 C 100.152344 86.429688 99.808594 86.273438 99.695312 85.960938 C 99.503906 85.441406 99.527344 84.867188 99.824219 84.464844 C 100.113281 84.070312 100.542969 83.890625 100.96875 83.773438 C 101.835938 83.539062 102.835938 83.539062 103.667969 83.4375 C 104.402344 83.347656 105.03125 83.0625 105.410156 82.726562 C 105.609375 82.546875 105.738281 82.355469 105.800781 82.175781 C 105.859375 82 105.863281 81.832031 105.796875 81.644531 C 105.691406 81.347656 105.324219 81.003906 104.832031 80.835938 C 104.332031 80.660156 103.75 80.667969 103.25 80.9375 C 102.769531 81.199219 102.265625 81.929688 101.9375 82.882812 C 101.601562 83.863281 101.449219 85.023438 101.546875 86.089844 C 101.667969 87.441406 102.371094 88.550781 103.347656 89.332031 C 104.332031 90.117188 105.582031 90.570312 106.734375 90.632812 C 107.636719 90.679688 108.441406 90.546875 109.023438 90.320312 C 109.355469 90.191406 109.578125 90.089844 109.628906 90.035156 C 109.660156 90.003906 109.601562 90.089844 109.605469 90.050781 C 109.613281 90 109.605469 89.898438 109.578125 89.765625 C 109.519531 89.488281 109.382812 89.128906 109.246094 88.761719 C 108.648438 87.179688 108.074219 85.210938 108.769531 83.308594 C 109.195312 82.140625 110.140625 81.261719 111.160156 80.703125 C 112.167969 80.152344 113.257812 79.875 114.1875 80.089844 C 114.511719 80.164062 114.710938 80.484375 114.636719 80.804688 C 114.5625 81.128906 114.242188 81.328125 113.921875 81.253906 C 113.425781 81.140625 112.546875 81.308594 111.734375 81.75 C 110.910156 82.203125 110.191406 82.902344 109.890625 83.71875 C 109.359375 85.171875 109.800781 86.847656 110.363281 88.339844 C 110.5 88.707031 110.660156 89.105469 110.746094 89.519531 C 110.789062 89.726562 110.820312 89.941406 110.796875 90.167969 C 110.773438 90.402344 110.683594 90.667969 110.480469 90.871094 C 110.15625 91.207031 109.773438 91.308594 109.457031 91.433594 C 108.6875 91.734375 107.730469 91.878906 106.671875 91.824219 C 105.257812 91.75 103.792969 91.214844 102.605469 90.269531 C 101.410156 89.316406 100.507812 87.902344 100.355469 86.195312 C 100.246094 84.945312 100.417969 83.640625 100.808594 82.496094 C 101.195312 81.371094 101.78125 80.375 102.679688 79.890625 C 103.507812 79.441406 104.445312 79.4375 105.222656 79.703125 C 105.992188 79.972656 106.660156 80.503906 106.925781 81.25 C 107.078125 81.683594 107.070312 82.144531 106.933594 82.554688 C 106.792969 82.964844 106.53125 83.324219 106.203125 83.621094 C 105.605469 84.152344 104.761719 84.507812 103.8125 84.625 C 102.902344 84.734375 101.925781 84.753906 101.28125 84.925781 C 100.992188 85.007812 100.828125 85.117188 100.785156 85.171875 C 100.753906 85.214844 100.71875 85.277344 100.816406 85.550781 "/>
<path style=" stroke:none;fill-rule:nonzero;fill:rgb(92.941284%,21.176147%,14.117432%);fill-opacity:1;" d="M 114.992188 83.910156 C 115.082031 83.59375 115.414062 83.410156 115.730469 83.503906 C 116.046875 83.59375 116.230469 83.925781 116.136719 84.242188 C 116.128906 84.28125 116.199219 84.730469 116.441406 85.261719 C 116.691406 85.8125 117.066406 86.378906 117.460938 86.730469 C 117.835938 87.058594 118.359375 87.152344 118.96875 87.027344 C 119.777344 86.859375 120.761719 85.953125 121.367188 84.933594 C 121.664062 84.4375 121.8125 83.855469 121.953125 83.390625 C 122.011719 83.191406 122.035156 83.019531 122.046875 82.90625 C 122.050781 82.855469 122.054688 82.820312 122.054688 82.792969 C 122.054688 82.78125 122.054688 82.78125 122.058594 82.730469 C 122.101562 82.40625 122.402344 82.175781 122.730469 82.214844 C 123.054688 82.257812 123.285156 82.558594 123.246094 82.886719 C 123.238281 82.929688 123.246094 82.847656 123.246094 82.855469 C 123.246094 82.878906 123.242188 82.941406 123.234375 83.019531 C 123.21875 83.191406 123.183594 83.441406 123.097656 83.730469 C 122.96875 84.167969 122.796875 84.867188 122.394531 85.546875 C 121.667969 86.765625 120.558594 87.921875 119.210938 88.199219 C 118.335938 88.375 117.375 88.246094 116.671875 87.625 C 116.09375 87.117188 115.660156 86.429688 115.355469 85.757812 C 115.054688 85.105469 114.8125 84.53125 114.992188 83.910156 M 122.0625 82.910156 C 122.007812 82.582031 122.226562 82.273438 122.554688 82.21875 C 122.878906 82.164062 123.1875 82.382812 123.242188 82.707031 C 123.253906 82.773438 123.25 82.769531 123.25 82.78125 C 123.292969 83.300781 123.265625 84.105469 123.332031 85.019531 C 123.457031 86.773438 124.316406 89.035156 124.78125 91.234375 C 125.027344 92.394531 125.242188 93.503906 125.144531 94.550781 C 125.023438 95.785156 124.269531 96.785156 123.296875 97.390625 C 122.320312 97.996094 121.125 98.269531 119.949219 98.21875 C 118.777344 98.164062 117.609375 97.777344 116.761719 96.96875 C 115.910156 96.160156 115.433594 94.882812 115.617188 93.386719 C 115.65625 93.058594 115.953125 92.828125 116.28125 92.867188 C 116.609375 92.90625 116.84375 93.203125 116.800781 93.53125 C 116.660156 94.710938 117 95.546875 117.585938 96.105469 C 118.175781 96.667969 119.0625 96.980469 120.003906 97.023438 C 120.953125 97.066406 121.925781 96.835938 122.667969 96.375 C 123.390625 95.925781 123.875 95.269531 123.953125 94.4375 C 124.03125 93.628906 123.851562 92.617188 123.613281 91.480469 C 123.171875 89.398438 122.285156 87.128906 122.140625 85.105469 C 122.070312 84.128906 122.09375 83.261719 122.058594 82.882812 C 122.058594 82.871094 122.074219 82.96875 122.0625 82.910156 "/>
<path style=" stroke:none;fill-rule:nonzero;fill:rgb(92.941284%,21.176147%,14.117432%);fill-opacity:1;" d="M 130.707031 68.425781 C 131.03125 68.363281 131.34375 68.570312 131.410156 68.894531 C 131.472656 69.21875 131.265625 69.535156 130.941406 69.597656 C 130.882812 69.609375 130.882812 69.617188 130.867188 69.636719 C 130.84375 69.660156 130.808594 69.734375 130.785156 69.871094 C 130.734375 70.179688 130.78125 70.699219 130.914062 71.335938 C 131.195312 72.691406 131.804688 74.453125 132.417969 76.355469 C 133.296875 79.082031 133.921875 81.785156 134.367188 83.769531 C 134.625 84.925781 134.726562 85.84375 134.917969 86.203125 C 134.988281 86.335938 134.996094 86.332031 135.105469 86.335938 C 135.246094 86.339844 135.519531 86.261719 135.855469 86.066406 C 136.589844 85.640625 137.5 84.792969 138.40625 83.734375 C 138.621094 83.484375 139 83.457031 139.25 83.671875 C 139.5 83.886719 139.527344 84.261719 139.3125 84.511719 C 138.351562 85.632812 137.386719 86.558594 136.457031 87.097656 C 136.007812 87.359375 135.554688 87.542969 135.078125 87.53125 C 134.59375 87.519531 134.101562 87.214844 133.863281 86.765625 C 133.46875 86.027344 133.441406 85.109375 133.203125 84.03125 C 132.761719 82.054688 132.140625 79.386719 131.28125 76.722656 C 130.671875 74.832031 130.050781 73.050781 129.746094 71.578125 C 129.597656 70.871094 129.515625 70.242188 129.605469 69.679688 C 129.652344 69.402344 129.746094 69.125 129.929688 68.890625 C 130.121094 68.65625 130.40625 68.488281 130.707031 68.425781 "/>
<path style=" stroke:none;fill-rule:nonzero;fill:rgb(92.941284%,21.176147%,14.117432%);fill-opacity:1;" d="M 140.410156 82.582031 C 140.425781 82.253906 140.703125 82 141.03125 82.011719 C 141.363281 82.027344 141.617188 82.308594 141.601562 82.636719 C 141.558594 83.675781 140.773438 85 140.652344 86.035156 C 140.605469 86.445312 140.644531 86.65625 140.652344 86.667969 C 140.683594 86.707031 140.902344 86.824219 141.253906 86.851562 C 141.625 86.878906 142.074219 86.835938 142.488281 86.726562 C 143.222656 86.539062 143.9375 85.886719 144.257812 85.234375 C 144.390625 84.957031 144.371094 84.65625 144.1875 84.292969 C 143.992188 83.90625 143.613281 83.488281 143.121094 83.121094 C 142.117188 82.371094 140.734375 81.890625 139.703125 82.003906 C 139.375 82.042969 139.078125 81.804688 139.042969 81.476562 C 139.003906 81.148438 139.242188 80.855469 139.570312 80.816406 C 141.03125 80.65625 142.621094 81.257812 143.835938 82.164062 C 144.4375 82.613281 144.945312 83.144531 145.253906 83.753906 C 145.5625 84.363281 145.648438 85.109375 145.328125 85.761719 C 144.855469 86.726562 143.933594 87.589844 142.789062 87.882812 C 142.253906 88.023438 141.691406 88.085938 141.15625 88.039062 C 140.628906 88 140.089844 87.867188 139.726562 87.425781 C 139.324219 86.929688 139.414062 86.355469 139.464844 85.898438 C 139.625 84.523438 140.390625 82.996094 140.410156 82.582031 "/>
<path style=" stroke:none;fill-rule:nonzero;fill:rgb(92.941284%,21.176147%,14.117432%);fill-opacity:1;" d="M 148.960938 79.476562 C 149.246094 79.308594 149.613281 79.40625 149.78125 79.691406 C 149.945312 79.972656 149.851562 80.339844 149.566406 80.507812 C 149.496094 80.550781 149.324219 80.8125 149.226562 81.269531 C 149.128906 81.753906 149.09375 82.359375 149.085938 82.96875 C 149.082031 83.390625 149.078125 83.792969 149.085938 84.191406 C 149.097656 84.742188 149.054688 85.191406 149.089844 85.292969 C 149.113281 85.351562 149.003906 85.1875 149.011719 85.191406 C 149.011719 85.191406 149.054688 85.207031 149.128906 85.210938 C 149.285156 85.214844 149.515625 85.164062 149.695312 85.058594 C 150.207031 84.773438 150.824219 83.417969 151.539062 82.179688 C 151.839844 81.65625 152.183594 81.203125 152.480469 80.800781 C 152.78125 80.394531 153.082031 80.023438 153.382812 79.722656 C 153.675781 79.433594 153.945312 79.132812 154.464844 79.136719 C 154.636719 79.136719 154.8125 79.207031 154.929688 79.304688 C 155.042969 79.402344 155.113281 79.507812 155.160156 79.605469 C 155.25 79.789062 155.28125 79.972656 155.296875 80.167969 C 155.332031 80.558594 155.289062 81.011719 155.171875 81.503906 C 154.929688 82.53125 155.09375 83.703125 155.644531 84.511719 C 156.179688 85.304688 157.101562 85.789062 158.492188 85.554688 C 158.816406 85.5 159.125 85.71875 159.179688 86.042969 C 159.234375 86.371094 159.015625 86.675781 158.691406 86.734375 C 156.914062 87.035156 155.429688 86.324219 154.65625 85.179688 C 153.882812 84.042969 153.695312 82.558594 154.011719 81.226562 C 154.101562 80.84375 154.128906 80.492188 154.109375 80.269531 C 154.097656 80.171875 154.09375 80.144531 154.085938 80.128906 C 154.074219 80.105469 154.210938 80.261719 154.160156 80.21875 C 154.105469 80.175781 154.570312 80.332031 154.460938 80.332031 C 154.40625 80.332031 154.539062 80.320312 154.535156 80.320312 C 154.523438 80.324219 154.382812 80.414062 154.222656 80.574219 C 153.988281 80.800781 153.71875 81.132812 153.441406 81.507812 C 153.144531 81.914062 152.832031 82.328125 152.570312 82.78125 C 151.910156 83.921875 151.441406 85.445312 150.285156 86.101562 C 149.90625 86.3125 149.492188 86.417969 149.082031 86.402344 C 148.878906 86.394531 148.671875 86.359375 148.46875 86.253906 C 148.261719 86.152344 148.0625 85.960938 147.96875 85.703125 C 147.757812 85.125 147.902344 84.621094 147.890625 84.21875 C 147.882812 83.792969 147.886719 83.378906 147.890625 82.957031 C 147.898438 82.308594 147.929688 81.636719 148.058594 81.023438 C 148.1875 80.417969 148.398438 79.808594 148.960938 79.476562 "/>
<path style=" stroke:none;fill-rule:nonzero;fill:rgb(92.941284%,21.176147%,14.117432%);fill-opacity:1;" d="M 164.941406 82.8125 C 164.953125 83.140625 164.691406 83.417969 164.363281 83.429688 C 164.035156 83.441406 163.757812 83.183594 163.746094 82.851562 C 163.742188 82.761719 163.675781 82.652344 163.511719 82.5625 C 163.335938 82.464844 163.09375 82.433594 162.890625 82.5 C 162.789062 82.53125 162.558594 82.75 162.359375 83.136719 C 162.152344 83.542969 161.984375 84.0625 161.875 84.550781 C 161.71875 85.222656 161.675781 85.800781 161.808594 86.136719 C 161.863281 86.285156 162.144531 86.480469 162.660156 86.644531 C 163.210938 86.820312 163.902344 86.945312 164.582031 87.175781 C 165.457031 87.46875 166.304688 88.019531 166.976562 88.9375 C 168 90.328125 168.566406 92.363281 168.8125 94.335938 C 168.933594 95.304688 169.082031 96.277344 168.882812 97.203125 C 168.65625 98.253906 167.875 99.015625 166.960938 99.363281 C 166.039062 99.710938 164.976562 99.710938 163.976562 99.425781 C 162.972656 99.132812 162.019531 98.535156 161.394531 97.628906 C 160.761719 96.710938 160.496094 95.457031 160.796875 94.070312 C 160.867188 93.75 161.1875 93.546875 161.507812 93.617188 C 161.832031 93.6875 162.035156 94.003906 161.964844 94.328125 C 161.722656 95.429688 161.929688 96.300781 162.378906 96.949219 C 162.824219 97.59375 163.53125 98.050781 164.308594 98.277344 C 165.082031 98.5 165.902344 98.484375 166.539062 98.246094 C 167.152344 98.011719 167.578125 97.589844 167.714844 96.949219 C 167.851562 96.320312 167.746094 95.449219 167.625 94.484375 C 167.398438 92.652344 166.835938 90.757812 166.015625 89.644531 C 165.484375 88.921875 164.882812 88.535156 164.203125 88.308594 C 163.625 88.113281 162.941406 87.988281 162.300781 87.785156 C 161.660156 87.578125 160.96875 87.277344 160.695312 86.570312 C 160.40625 85.832031 160.535156 85.039062 160.707031 84.285156 C 160.835938 83.722656 161.023438 83.125 161.296875 82.59375 C 161.566406 82.066406 161.925781 81.550781 162.53125 81.359375 C 163.066406 81.191406 163.628906 81.265625 164.082031 81.511719 C 164.535156 81.757812 164.921875 82.226562 164.941406 82.8125 "/>
<path style=" stroke:none;fill-rule:nonzero;fill:rgb(92.941284%,21.176147%,14.117432%);fill-opacity:1;" d="M 179.839844 77.585938 C 180.117188 77.761719 180.199219 78.132812 180.023438 78.410156 C 179.847656 78.6875 179.476562 78.769531 179.199219 78.59375 C 179.167969 78.574219 179.144531 78.5625 179.140625 78.558594 C 179.140625 78.558594 179.289062 78.585938 179.226562 78.582031 C 179.1875 78.574219 179.429688 78.5625 179.371094 78.574219 C 179.3125 78.585938 179.617188 78.464844 179.558594 78.5 C 179.492188 78.542969 179.742188 78.304688 179.707031 78.355469 C 179.675781 78.402344 179.777344 78.203125 179.765625 78.234375 C 179.75 78.292969 179.785156 78.144531 179.785156 78.148438 C 179.785156 78.167969 179.804688 78.324219 179.84375 78.539062 C 180.167969 80.226562 180.464844 83.710938 180.882812 86.257812 C 181.035156 87.171875 181.179688 87.851562 181.238281 87.921875 C 181.265625 87.960938 180.9375 87.800781 181.023438 87.8125 C 181.0625 87.816406 180.925781 87.816406 180.941406 87.8125 C 180.953125 87.8125 180.925781 87.816406 180.9375 87.8125 C 180.996094 87.785156 181.167969 87.648438 181.359375 87.425781 C 181.773438 86.945312 182.265625 86.175781 182.730469 85.300781 C 183.316406 84.191406 183.875 82.980469 184.246094 81.980469 C 184.40625 81.550781 184.453125 81.164062 184.527344 80.847656 C 184.5625 80.683594 184.5625 80.570312 184.726562 80.363281 C 184.773438 80.300781 184.878906 80.179688 185.09375 80.136719 C 185.253906 80.0625 185.636719 80.261719 185.730469 80.40625 C 185.886719 80.609375 185.835938 80.699219 185.835938 80.78125 C 185.855469 81.414062 185.652344 82.199219 185.574219 83.050781 C 185.484375 84.03125 185.429688 85.003906 185.601562 85.753906 C 185.765625 86.472656 186.378906 86.992188 187.082031 87.203125 C 187.675781 87.378906 188.375 87.308594 188.929688 86.972656 C 189.390625 86.691406 189.773438 86.03125 190.007812 85.152344 C 190.253906 84.246094 190.347656 83.171875 190.355469 82.136719 C 190.363281 80.894531 190.183594 79.640625 189.984375 78.640625 C 189.902344 78.25 189.808594 77.917969 189.730469 77.660156 C 189.660156 77.417969 189.535156 77.433594 189.578125 76.964844 C 189.589844 76.867188 189.617188 76.640625 189.886719 76.488281 C 190.09375 76.375 190.304688 76.414062 190.40625 76.457031 C 190.65625 76.554688 190.648438 76.625 190.6875 76.671875 C 190.75 76.746094 190.808594 76.828125 190.890625 76.941406 C 191.066406 77.191406 191.324219 77.566406 191.699219 78.09375 C 191.890625 78.363281 191.828125 78.734375 191.558594 78.925781 C 191.292969 79.117188 190.917969 79.054688 190.726562 78.789062 C 190.34375 78.253906 190.082031 77.867188 189.914062 77.632812 C 189.839844 77.527344 189.785156 77.453125 189.773438 77.441406 C 189.769531 77.4375 189.796875 77.464844 189.785156 77.453125 C 189.773438 77.441406 189.878906 77.527344 189.84375 77.503906 C 189.816406 77.480469 190.0625 77.601562 189.988281 77.574219 C 189.925781 77.554688 190.355469 77.59375 190.246094 77.605469 C 190.15625 77.613281 190.589844 77.453125 190.507812 77.507812 C 190.449219 77.546875 190.6875 77.324219 190.652344 77.371094 C 190.601562 77.441406 190.761719 77.140625 190.746094 77.191406 C 190.730469 77.238281 190.769531 77.050781 190.769531 77.078125 C 190.761719 77.152344 190.761719 76.941406 190.765625 76.957031 C 190.769531 76.996094 190.988281 77.585938 191.152344 78.40625 C 191.367188 79.460938 191.558594 80.789062 191.550781 82.144531 C 191.539062 83.25 191.445312 84.410156 191.160156 85.464844 C 190.882812 86.503906 190.410156 87.472656 189.546875 87.996094 C 188.6875 88.511719 187.652344 88.621094 186.742188 88.347656 C 185.703125 88.039062 184.710938 87.226562 184.4375 86.019531 C 184.210938 85.03125 184.289062 83.957031 184.382812 82.941406 C 184.472656 82.003906 184.652344 81.140625 184.644531 80.820312 C 184.644531 80.816406 184.65625 80.898438 184.648438 80.867188 C 184.644531 80.851562 184.683594 80.976562 184.671875 80.941406 C 184.65625 80.90625 184.796875 81.152344 184.75 81.089844 C 184.703125 81.015625 184.847656 81.191406 184.808594 81.152344 C 184.746094 81.09375 185.214844 81.332031 185.089844 81.304688 C 184.964844 81.277344 185.523438 81.238281 185.433594 81.277344 C 185.226562 81.328125 185.621094 81.15625 185.566406 81.199219 C 185.515625 81.238281 185.695312 81.0625 185.671875 81.089844 C 185.628906 81.148438 185.71875 81.015625 185.710938 81.027344 C 185.699219 81.054688 185.707031 81.042969 185.691406 81.109375 C 185.640625 81.332031 185.578125 81.828125 185.367188 82.394531 C 184.96875 83.464844 184.394531 84.710938 183.785156 85.859375 C 183.292969 86.789062 182.777344 87.617188 182.261719 88.210938 C 182.011719 88.496094 181.773438 88.734375 181.464844 88.886719 C 181.304688 88.964844 181.109375 89.023438 180.886719 88.996094 C 180.65625 88.972656 180.433594 88.832031 180.300781 88.664062 C 179.839844 88.078125 179.851562 87.34375 179.707031 86.453125 C 179.273438 83.835938 178.96875 80.3125 178.671875 78.765625 C 178.613281 78.460938 178.503906 78.265625 178.628906 77.867188 C 178.667969 77.753906 178.746094 77.601562 178.914062 77.496094 C 179.0625 77.398438 179.238281 77.378906 179.367188 77.394531 C 179.59375 77.421875 179.710938 77.503906 179.839844 77.585938 "/>
<path style=" stroke:none;fill-rule:nonzero;fill:rgb(92.941284%,21.176147%,14.117432%);fill-opacity:1;" d="M 195.898438 82.375 C 195.695312 82.113281 195.742188 81.738281 196.003906 81.539062 C 196.265625 81.335938 196.640625 81.382812 196.84375 81.644531 C 197.101562 81.980469 197.023438 82.101562 197.054688 82.328125 C 197.167969 83.085938 197.28125 84.320312 197.550781 85.507812 C 197.726562 86.289062 197.972656 86.992188 198.261719 87.394531 C 198.394531 87.574219 198.519531 87.671875 198.621094 87.707031 C 198.714844 87.738281 198.820312 87.746094 199.011719 87.664062 C 199.316406 87.53125 199.667969 87.671875 199.796875 87.972656 C 199.929688 88.277344 199.789062 88.628906 199.488281 88.757812 C 199.070312 88.9375 198.609375 88.972656 198.214844 88.828125 C 197.828125 88.691406 197.527344 88.410156 197.296875 88.097656 C 196.835938 87.460938 196.582031 86.628906 196.386719 85.773438 C 196.191406 84.917969 196.074219 84.054688 195.984375 83.347656 C 195.941406 83.011719 195.90625 82.71875 195.875 82.507812 C 195.859375 82.40625 195.84375 82.328125 195.835938 82.28125 C 195.832031 82.261719 195.832031 82.261719 195.828125 82.253906 C 195.828125 82.25 195.851562 82.304688 195.84375 82.285156 C 195.832031 82.269531 195.929688 82.414062 195.898438 82.375 "/>
<path style=" stroke:none;fill-rule:nonzero;fill:rgb(92.941284%,21.176147%,14.117432%);fill-opacity:1;" d="M 196.582031 77.046875 C 196.898438 77.144531 197.078125 77.476562 196.984375 77.792969 C 196.886719 78.109375 196.554688 78.285156 196.238281 78.191406 C 195.808594 78.0625 195.449219 77.894531 195.175781 77.648438 C 194.898438 77.402344 194.691406 77.007812 194.757812 76.605469 C 194.820312 76.207031 195.09375 75.910156 195.414062 75.703125 C 195.734375 75.496094 196.132812 75.34375 196.617188 75.230469 C 196.9375 75.152344 197.257812 75.351562 197.335938 75.675781 C 197.410156 75.996094 197.210938 76.316406 196.890625 76.394531 C 196.503906 76.484375 196.226562 76.601562 196.066406 76.703125 C 195.925781 76.796875 195.945312 76.742188 195.9375 76.792969 C 195.929688 76.824219 195.921875 76.703125 195.929688 76.714844 C 195.929688 76.722656 195.933594 76.726562 195.96875 76.757812 C 196.058594 76.835938 196.265625 76.953125 196.582031 77.046875 "/>
<path style=" stroke:none;fill-rule:nonzero;fill:rgb(92.941284%,21.176147%,14.117432%);fill-opacity:1;" d="M 204.90625 80.429688 C 205.234375 80.46875 205.46875 80.765625 205.433594 81.09375 C 205.394531 81.421875 205.097656 81.65625 204.773438 81.617188 C 204.664062 81.605469 204.667969 81.613281 204.636719 81.644531 C 204.59375 81.6875 204.519531 81.816406 204.46875 82.027344 C 204.351562 82.492188 204.351562 83.210938 204.398438 83.957031 C 204.449219 84.710938 204.492188 85.421875 204.636719 85.933594 C 204.722656 86.226562 204.824219 86.480469 204.921875 86.632812 C 205.011719 86.773438 204.945312 86.753906 205 86.761719 C 205.101562 86.78125 204.773438 86.773438 204.832031 86.765625 C 204.921875 86.75 204.589844 86.867188 204.636719 86.839844 C 204.675781 86.8125 204.535156 86.921875 204.550781 86.90625 C 204.589844 86.867188 204.484375 86.988281 204.488281 86.984375 C 204.492188 86.972656 204.519531 86.902344 204.546875 86.8125 C 204.597656 86.617188 204.644531 86.355469 204.667969 86.128906 C 204.75 85.359375 204.757812 84.28125 204.714844 83.28125 C 204.691406 82.710938 204.71875 82.203125 204.714844 81.757812 C 204.710938 81.371094 204.730469 81.042969 204.71875 80.84375 C 204.710938 80.769531 204.683594 80.707031 204.664062 80.679688 C 204.65625 80.675781 204.746094 80.742188 204.699219 80.710938 C 204.644531 80.667969 204.945312 80.800781 204.855469 80.78125 C 204.824219 80.769531 205.117188 80.785156 205.027344 80.792969 C 204.984375 80.796875 205.25 80.734375 205.191406 80.757812 C 205.128906 80.78125 205.417969 80.605469 205.363281 80.652344 C 205.285156 80.714844 205.492188 80.480469 205.46875 80.527344 C 205.429688 80.589844 205.527344 80.355469 205.519531 80.386719 C 205.515625 80.410156 205.523438 80.34375 205.523438 80.347656 C 205.523438 80.351562 205.53125 80.40625 205.546875 80.484375 C 205.578125 80.640625 205.644531 80.855469 205.707031 81.046875 C 205.875 81.546875 206.730469 82.203125 207.921875 82.636719 C 209.152344 83.085938 210.628906 83.3125 211.929688 83.222656 C 213.605469 83.105469 215.0625 82.316406 215.945312 81.492188 C 216.3125 81.148438 216.554688 80.816406 216.664062 80.542969 C 216.75 80.328125 216.765625 80.152344 216.761719 80.148438 C 216.753906 80.109375 216.875 80.339844 216.835938 80.292969 C 216.792969 80.242188 217 80.402344 216.960938 80.386719 C 216.902344 80.363281 217.011719 80.394531 216.949219 80.40625 C 216.804688 80.429688 216.515625 80.539062 216.210938 80.734375 C 215.5625 81.144531 214.878906 81.847656 214.597656 82.644531 C 214.378906 83.261719 214.285156 83.859375 214.40625 84.417969 C 214.511719 84.898438 214.769531 85.375 215.214844 85.785156 C 216.074219 86.578125 217.777344 86.996094 219.378906 87.132812 C 220.164062 87.199219 220.898438 87.203125 221.480469 87.167969 C 221.753906 87.148438 221.988281 87.121094 222.152344 87.09375 C 222.230469 87.078125 222.292969 87.066406 222.324219 87.054688 C 222.335938 87.050781 222.335938 87.050781 222.339844 87.050781 C 222.347656 87.046875 222.234375 87.121094 222.273438 87.089844 C 222.535156 86.890625 222.910156 86.941406 223.109375 87.203125 C 223.308594 87.464844 223.261719 87.839844 223 88.039062 C 222.550781 88.382812 222.164062 88.320312 221.554688 88.359375 C 220.910156 88.398438 220.125 88.394531 219.277344 88.324219 C 217.546875 88.175781 215.628906 87.796875 214.40625 86.664062 C 213.785156 86.09375 213.398438 85.390625 213.238281 84.675781 C 213.050781 83.828125 213.207031 82.992188 213.472656 82.246094 C 213.875 81.113281 214.734375 80.253906 215.570312 79.726562 C 215.976562 79.46875 216.371094 79.285156 216.769531 79.222656 C 216.96875 79.195312 217.183594 79.1875 217.414062 79.28125 C 217.65625 79.378906 217.878906 79.640625 217.933594 79.90625 C 218.019531 80.316406 217.902344 80.667969 217.769531 80.988281 C 217.574219 81.484375 217.214844 81.9375 216.761719 82.363281 C 215.6875 83.371094 214.007812 84.277344 212.011719 84.414062 C 210.515625 84.519531 208.90625 84.265625 207.511719 83.761719 C 206.148438 83.265625 204.949219 82.550781 204.574219 81.425781 C 204.503906 81.210938 204.425781 80.96875 204.375 80.726562 C 204.351562 80.605469 204.332031 80.488281 204.332031 80.347656 C 204.332031 80.203125 204.316406 79.960938 204.597656 79.738281 C 204.796875 79.558594 205.050781 79.597656 205.144531 79.621094 C 205.257812 79.648438 205.339844 79.695312 205.40625 79.75 C 205.5 79.8125 205.570312 79.898438 205.640625 79.992188 C 205.777344 80.1875 205.886719 80.445312 205.910156 80.757812 C 205.929688 81.082031 205.90625 81.410156 205.910156 81.746094 C 205.914062 82.238281 205.886719 82.726562 205.910156 83.230469 C 205.953125 84.277344 205.945312 85.386719 205.859375 86.25 C 205.828125 86.542969 205.773438 86.851562 205.695312 87.128906 C 205.660156 87.261719 205.621094 87.386719 205.554688 87.519531 C 205.523438 87.582031 205.488281 87.65625 205.402344 87.742188 C 205.308594 87.835938 205.113281 88 204.808594 87.941406 C 204.398438 87.886719 204.105469 87.578125 203.914062 87.273438 C 203.722656 86.972656 203.59375 86.625 203.488281 86.261719 C 203.289062 85.5625 203.253906 84.789062 203.207031 84.03125 C 203.15625 83.234375 203.136719 82.4375 203.308594 81.742188 C 203.394531 81.398438 203.527344 81.058594 203.796875 80.792969 C 204.074219 80.523438 204.5 80.386719 204.90625 80.429688 "/>
</g>
</svg>
