<?xml version="1.0" encoding="UTF-8" standalone="no"?>
<!DOCTYPE svg PUBLIC "-//W3C//DTD SVG 1.1//EN"
 "http://www.w3.org/Graphics/SVG/1.1/DTD/svg11.dtd">
<!-- Generated by graphviz version 7.1.0 (20230121.1956)
 -->
<!-- Title: G Pages: 1 -->
<svg width="1989pt" height="364pt"
 viewBox="0.00 0.00 1988.55 363.65" xmlns="http://www.w3.org/2000/svg" xmlns:xlink="http://www.w3.org/1999/xlink">
<g id="graph0" class="graph" transform="scale(1 1) rotate(0) translate(4 359.65)">
<title>G</title>
<polygon fill="white" stroke="none" points="-4,4 -4,-359.65 1984.55,-359.65 1984.55,4 -4,4"/>
<!-- I -->
<g id="node1" class="node">
<title>I</title>
<polygon fill="none" stroke="blue" points="92.13,-183.7 97.29,-184.06 102.39,-184.61 107.42,-185.33 112.35,-186.23 117.18,-187.31 121.86,-188.56 126.4,-189.97 130.77,-191.55 134.95,-193.3 138.93,-195.19 142.7,-197.24 146.24,-199.43 149.54,-201.76 152.6,-204.22 155.4,-206.81 157.94,-209.51 160.21,-212.33 162.2,-215.25 163.92,-218.27 165.37,-221.37 166.54,-224.55 167.44,-227.8 168.06,-231.11 168.42,-234.47 168.52,-237.88 168.36,-241.32 167.95,-244.78 167.3,-248.26 166.42,-251.74 165.33,-255.22 164.01,-258.68 162.5,-262.12 160.8,-265.53 158.92,-268.89 156.88,-272.2 154.68,-275.45 152.33,-278.63 149.85,-281.73 147.25,-284.75 144.54,-287.67 141.73,-290.49 138.83,-293.19 135.84,-295.78 132.79,-298.24 129.67,-300.57 126.49,-302.76 123.27,-304.81 120,-306.7 116.69,-308.45 113.36,-310.03 110,-311.44 106.62,-312.69 103.22,-313.77 99.8,-314.67 96.38,-315.39 92.94,-315.94 89.5,-316.3 86.06,-316.48 82.62,-316.48 79.17,-316.3 75.73,-315.94 72.3,-315.39 68.88,-314.67 65.46,-313.77 62.06,-312.69 58.68,-311.44 55.32,-310.03 51.98,-308.45 48.68,-306.7 45.41,-304.81 42.19,-302.76 39.01,-300.57 35.89,-298.24 32.83,-295.78 29.85,-293.19 26.95,-290.49 24.14,-287.67 21.43,-284.75 18.83,-281.73 16.35,-278.63 14,-275.45 11.8,-272.2 9.75,-268.89 7.88,-265.53 6.17,-262.12 4.66,-258.68 3.35,-255.22 2.25,-251.74 1.37,-248.26 0.73,-244.78 0.32,-241.32 0.16,-237.88 0.26,-234.47 0.62,-231.11 1.24,-227.8 2.14,-224.55 3.31,-221.37 4.75,-218.27 6.48,-215.25 8.47,-212.33 10.74,-209.51 13.28,-206.81 16.08,-204.22 19.13,-201.76 22.44,-199.43 25.98,-197.24 29.75,-195.19 33.73,-193.3 37.91,-191.55 42.28,-189.97 46.81,-188.56 51.5,-187.31 56.32,-186.23 61.26,-185.33 66.29,-184.61 71.39,-184.06 76.55,-183.7 81.74,-183.52 86.94,-183.52 92.13,-183.7"/>
<text text-anchor="middle" x="84.34" y="-245" font-family="Helvetica,sans-Serif" font-size="20.00">Idea</text>
</g>
<!-- D -->
<g id="node2" class="node">
<title>D</title>
<polygon fill="none" stroke="blue" points="930.18,-332 725.18,-332 725.18,-216 930.18,-216 930.18,-332"/>
<text text-anchor="middle" x="827.68" y="-280" font-family="Helvetica,sans-Serif" font-size="20.00">Digital Design </text>
<text text-anchor="middle" x="827.68" y="-258" font-family="Helvetica,sans-Serif" font-size="20.00"> SystemVerilog</text>
</g>
<!-- I&#45;&gt;D -->
<g id="edge9" class="edge">
<title>I&#45;&gt;D</title>
<path fill="none" stroke="black" d="M153.84,-276.92C266.41,-317.47 497.17,-385.03 688.68,-341 697.16,-339.05 705.73,-336.5 714.23,-333.55"/>
<polygon fill="black" stroke="black" points="715.34,-336.87 723.51,-330.12 712.92,-330.3 715.34,-336.87"/>
</g>
<!-- AD -->
<g id="node6" class="node">
<title>AD</title>
<polygon fill="none" stroke="red" points="412.68,-265 204.68,-265 204.68,-149 412.68,-149 412.68,-265"/>
<text text-anchor="middle" x="308.68" y="-213" font-family="Helvetica,sans-Serif" font-size="20.00">Analog Design </text>
<text text-anchor="middle" x="308.68" y="-191" font-family="Helvetica,sans-Serif" font-size="20.00">Xschem</text>
</g>
<!-- I&#45;&gt;AD -->
<g id="edge8" class="edge">
<title>I&#45;&gt;AD</title>
<path fill="none" stroke="black" d="M168.76,-233.87C176.73,-232.33 184.89,-230.75 193.08,-229.16"/>
<polygon fill="black" stroke="black" points="193.61,-232.63 202.76,-227.29 192.28,-225.75 193.61,-232.63"/>
</g>
<!-- S -->
<g id="node3" class="node">
<title>S</title>
<polygon fill="none" stroke="blue" points="1300.68,-332 966.68,-332 966.68,-216 1300.68,-216 1300.68,-332"/>
<text text-anchor="middle" x="1133.68" y="-280" font-family="Helvetica,sans-Serif" font-size="20.00">Digital Simulation </text>
<text text-anchor="middle" x="1133.68" y="-258" font-family="Helvetica,sans-Serif" font-size="20.00"> iverilog/vpp/verilator/gtkwave</text>
</g>
<!-- D&#45;&gt;S -->
<g id="edge1" class="edge">
<title>D&#45;&gt;S</title>
<path fill="none" stroke="black" d="M930.33,-267.59C938.34,-267.48 946.56,-267.39 954.88,-267.34"/>
<polygon fill="black" stroke="black" points="954.8,-270.84 964.78,-267.28 954.76,-263.84 954.8,-270.84"/>
</g>
<!-- S&#45;&gt;D -->
<g id="edge5" class="edge">
<title>S&#45;&gt;D</title>
<path fill="none" stroke="black" d="M966.3,-280.72C957.99,-280.69 949.74,-280.63 941.65,-280.55"/>
<polygon fill="black" stroke="black" points="941.88,-277.05 931.84,-280.43 941.8,-284.05 941.88,-277.05"/>
</g>
<!-- PNR -->
<g id="node4" class="node">
<title>PNR</title>
<polygon fill="none" stroke="blue" points="1727.68,-332 1531.68,-332 1531.68,-216 1727.68,-216 1727.68,-332"/>
<text text-anchor="middle" x="1629.68" y="-280" font-family="Helvetica,sans-Serif" font-size="20.00">RTL to GDSII </text>
<text text-anchor="middle" x="1629.68" y="-258" font-family="Helvetica,sans-Serif" font-size="20.00">OpenRoad</text>
</g>
<!-- S&#45;&gt;PNR -->
<g id="edge2" class="edge">
<title>S&#45;&gt;PNR</title>
<path fill="none" stroke="black" d="M1300.89,-267.58C1373.18,-266.97 1455.86,-267.21 1520.09,-268.3"/>
<polygon fill="black" stroke="black" points="1519.87,-271.79 1529.94,-268.48 1520,-264.8 1519.87,-271.79"/>
</g>
<!-- PNR&#45;&gt;S -->
<g id="edge4" class="edge">
<title>PNR&#45;&gt;S</title>
<path fill="none" stroke="black" d="M1531.45,-279.5C1469.02,-280.7 1386.09,-281.04 1312.2,-280.51"/>
<polygon fill="black" stroke="black" points="1312.43,-277.01 1302.4,-280.43 1312.38,-284.01 1312.43,-277.01"/>
</g>
<!-- TO -->
<g id="node5" class="node">
<title>TO</title>
<polygon fill="none" stroke="blue" points="1882.14,-207.7 1888.78,-208.06 1895.35,-208.61 1901.83,-209.33 1908.18,-210.23 1914.39,-211.31 1920.42,-212.56 1926.26,-213.97 1931.88,-215.55 1937.27,-217.3 1942.39,-219.19 1947.24,-221.24 1951.8,-223.43 1956.06,-225.76 1959.99,-228.22 1963.6,-230.81 1966.86,-233.51 1969.78,-236.33 1972.36,-239.25 1974.57,-242.27 1976.43,-245.37 1977.94,-248.55 1979.09,-251.8 1979.9,-255.11 1980.36,-258.47 1980.48,-261.88 1980.28,-265.32 1979.75,-268.78 1978.92,-272.26 1977.79,-275.74 1976.38,-279.22 1974.69,-282.68 1972.74,-286.12 1970.55,-289.53 1968.13,-292.89 1965.5,-296.2 1962.67,-299.45 1959.65,-302.63 1956.46,-305.73 1953.11,-308.75 1949.62,-311.67 1946,-314.49 1942.26,-317.19 1938.42,-319.78 1934.48,-322.24 1930.47,-324.57 1926.38,-326.76 1922.23,-328.81 1918.02,-330.7 1913.77,-332.45 1909.47,-334.03 1905.15,-335.44 1900.79,-336.69 1896.42,-337.77 1892.02,-338.67 1887.61,-339.39 1883.19,-339.94 1878.76,-340.3 1874.33,-340.48 1869.9,-340.48 1865.46,-340.3 1861.04,-339.94 1856.62,-339.39 1852.21,-338.67 1847.81,-337.77 1843.43,-336.69 1839.08,-335.44 1834.75,-334.03 1830.46,-332.45 1826.21,-330.7 1822,-328.81 1817.85,-326.76 1813.76,-324.57 1809.74,-322.24 1805.81,-319.78 1801.96,-317.19 1798.23,-314.49 1794.61,-311.67 1791.12,-308.75 1787.77,-305.73 1784.58,-302.63 1781.56,-299.45 1778.73,-296.2 1776.09,-292.89 1773.67,-289.53 1771.48,-286.12 1769.54,-282.68 1767.85,-279.22 1766.43,-275.74 1765.3,-272.26 1764.47,-268.78 1763.95,-265.32 1763.74,-261.88 1763.87,-258.47 1764.33,-255.11 1765.13,-251.8 1766.29,-248.55 1767.79,-245.37 1769.65,-242.27 1771.87,-239.25 1774.44,-236.33 1777.36,-233.51 1780.63,-230.81 1784.23,-228.22 1788.17,-225.76 1792.42,-223.43 1796.98,-221.24 1801.83,-219.19 1806.96,-217.3 1812.34,-215.55 1817.96,-213.97 1823.8,-212.56 1829.84,-211.31 1836.05,-210.23 1842.4,-209.33 1848.87,-208.61 1855.45,-208.06 1862.08,-207.7 1868.77,-207.52 1875.46,-207.52 1882.14,-207.7"/>
<text text-anchor="middle" x="1872.11" y="-269" font-family="Helvetica,sans-Serif" font-size="20.00">Tapeout</text>
</g>
<!-- PNR&#45;&gt;TO -->
<g id="edge3" class="edge">
<title>PNR&#45;&gt;TO</title>
<path fill="none" stroke="black" d="M1728.13,-274C1736.72,-274 1745.48,-274 1754.22,-274"/>
<polygon fill="black" stroke="black" points="1754.16,-277.5 1764.16,-274 1754.16,-270.5 1754.16,-277.5"/>
</g>
<!-- ASV -->
<g id="node7" class="node">
<title>ASV</title>
<polygon fill="none" stroke="blue" points="669.18,-332 468.18,-332 468.18,-216 669.18,-216 669.18,-332"/>
<text text-anchor="middle" x="568.68" y="-280" font-family="Helvetica,sans-Serif" font-size="20.00">Analog Model </text>
<text text-anchor="middle" x="568.68" y="-258" font-family="Helvetica,sans-Serif" font-size="20.00">SystemVerilog</text>
</g>
<!-- AD&#45;&gt;ASV -->
<g id="edge6" class="edge">
<title>AD&#45;&gt;ASV</title>
<path fill="none" stroke="black" d="M413.13,-233.87C427.54,-237.61 442.39,-241.47 456.93,-245.24"/>
<polygon fill="black" stroke="black" points="455.95,-248.6 466.51,-247.73 457.71,-241.83 455.95,-248.6"/>
</g>
<!-- AS -->
<g id="node8" class="node">
<title>AS</title>
<polygon fill="none" stroke="red" points="688.68,-198 448.68,-198 448.68,-82 688.68,-82 688.68,-198"/>
<text text-anchor="middle" x="568.68" y="-146" font-family="Helvetica,sans-Serif" font-size="20.00">Analog Simulation </text>
<text text-anchor="middle" x="568.68" y="-124" font-family="Helvetica,sans-Serif" font-size="20.00">ngspice</text>
</g>
<!-- AD&#45;&gt;AS -->
<g id="edge10" class="edge">
<title>AD&#45;&gt;AS</title>
<path fill="none" stroke="black" d="M413.13,-173.5C421.13,-171.35 429.27,-169.2 437.41,-167.08"/>
<polygon fill="black" stroke="black" points="438.23,-170.48 447.04,-164.59 436.48,-163.7 438.23,-170.48"/>
</g>
<!-- ASV&#45;&gt;D -->
<g id="edge7" class="edge">
<title>ASV&#45;&gt;D</title>
<path fill="none" stroke="black" d="M669.41,-274C683.91,-274 698.93,-274 713.68,-274"/>
<polygon fill="black" stroke="black" points="713.37,-277.5 723.37,-274 713.37,-270.5 713.37,-277.5"/>
</g>
<!-- AS&#45;&gt;AD -->
<g id="edge18" class="edge">
<title>AS&#45;&gt;AD</title>
<path fill="none" stroke="black" d="M448.5,-177.68C440.38,-179.82 432.21,-181.93 424.11,-183.99"/>
<polygon fill="black" stroke="black" points="423.44,-180.55 414.6,-186.4 425.15,-187.34 423.44,-180.55"/>
</g>
<!-- AL -->
<g id="node9" class="node">
<title>AL</title>
<polygon fill="none" stroke="red" points="930.68,-198 724.68,-198 724.68,-82 930.68,-82 930.68,-198"/>
<text text-anchor="middle" x="827.68" y="-146" font-family="Helvetica,sans-Serif" font-size="20.00">Analog Layout </text>
<text text-anchor="middle" x="827.68" y="-124" font-family="Helvetica,sans-Serif" font-size="20.00">Magic</text>
</g>
<!-- AS&#45;&gt;AL -->
<g id="edge11" class="edge">
<title>AS&#45;&gt;AL</title>
<path fill="none" stroke="black" d="M689.15,-133.26C697.08,-133.24 705.05,-133.25 712.94,-133.29"/>
<polygon fill="black" stroke="black" points="712.91,-136.79 722.93,-133.37 712.96,-129.79 712.91,-136.79"/>
</g>
<!-- AL&#45;&gt;AS -->
<g id="edge17" class="edge">
<title>AL&#45;&gt;AS</title>
<path fill="none" stroke="black" d="M724.45,-146.62C716.56,-146.7 708.54,-146.74 700.5,-146.75"/>
<polygon fill="black" stroke="black" points="700.67,-143.25 690.66,-146.74 700.66,-150.25 700.67,-143.25"/>
</g>
<!-- AV -->
<g id="node10" class="node">
<title>AV</title>
<polygon fill="none" stroke="red" points="1200.68,-198 1066.68,-198 1066.68,-82 1200.68,-82 1200.68,-198"/>
<text text-anchor="middle" x="1133.68" y="-146" font-family="Helvetica,sans-Serif" font-size="20.00">LVS</text>
<text text-anchor="middle" x="1133.68" y="-124" font-family="Helvetica,sans-Serif" font-size="20.00">netgen</text>
</g>
<!-- AL&#45;&gt;AV -->
<g id="edge12" class="edge">
<title>AL&#45;&gt;AV</title>
<path fill="none" stroke="black" d="M931.17,-140C971.63,-140 1017.34,-140 1054.99,-140"/>
<polygon fill="black" stroke="black" points="1054.89,-143.5 1064.89,-140 1054.89,-136.5 1054.89,-143.5"/>
</g>
<!-- LPE -->
<g id="node11" class="node">
<title>LPE</title>
<polygon fill="none" stroke="red" points="1495.68,-116 1336.68,-116 1336.68,0 1495.68,0 1495.68,-116"/>
<text text-anchor="middle" x="1416.18" y="-64" font-family="Helvetica,sans-Serif" font-size="20.00">Parasitics</text>
<text text-anchor="middle" x="1416.18" y="-42" font-family="Helvetica,sans-Serif" font-size="20.00">Magic</text>
</g>
<!-- AV&#45;&gt;LPE -->
<g id="edge15" class="edge">
<title>AV&#45;&gt;LPE</title>
<path fill="none" stroke="black" d="M1201.15,-120.57C1238.25,-109.72 1284.98,-96.06 1325.3,-84.27"/>
<polygon fill="black" stroke="black" points="1326.15,-87.67 1334.77,-81.51 1324.19,-80.95 1326.15,-87.67"/>
</g>
<!-- AGDS -->
<g id="node12" class="node">
<title>AGDS</title>
<polygon fill="none" stroke="blue" points="1479.68,-234 1352.68,-234 1352.68,-140 1479.68,-140 1479.68,-234"/>
<text text-anchor="middle" x="1416.18" y="-182" font-family="Helvetica,sans-Serif" font-size="20.00">GDSII</text>
</g>
<!-- AV&#45;&gt;AGDS -->
<g id="edge13" class="edge">
<title>AV&#45;&gt;AGDS</title>
<path fill="none" stroke="black" d="M1201.15,-151.14C1243.33,-158.21 1297.95,-167.36 1341.45,-174.65"/>
<polygon fill="black" stroke="black" points="1340.61,-178.05 1351.05,-176.26 1341.77,-171.15 1340.61,-178.05"/>
</g>
<!-- LPE&#45;&gt;AS -->
<g id="edge16" class="edge">
<title>LPE&#45;&gt;AS</title>
<path fill="none" stroke="black" d="M1336.36,-50C1206.92,-39 941.99,-25.58 724.68,-73 716.51,-74.78 708.24,-77 700,-79.53"/>
<polygon fill="black" stroke="black" points="699.05,-76.16 690.61,-82.56 701.21,-82.82 699.05,-76.16"/>
</g>
<!-- AGDS&#45;&gt;PNR -->
<g id="edge14" class="edge">
<title>AGDS&#45;&gt;PNR</title>
<path fill="none" stroke="black" d="M1480.06,-212.87C1493.09,-218.23 1507.17,-224.02 1521.29,-229.83"/>
<polygon fill="black" stroke="black" points="1519.58,-232.91 1530.16,-233.47 1522.24,-226.43 1519.58,-232.91"/>
</g>
</g>
</svg>
