<?xml version="1.0" encoding="UTF-8"?>
<svg xmlns="http://www.w3.org/2000/svg" xmlns:xlink="http://www.w3.org/1999/xlink" width="301.4879pt" height="278.48631pt" viewBox="0 0 301.4879 278.48631" version="1.2">
<g id="surface1">
<path style=" stroke:none;fill-rule:nonzero;fill:rgb(7.058716%,1.176453%,46.665955%);fill-opacity:1;" d="M 173.171875 142.226562 C 173.167969 141.898438 173.429688 141.625 173.757812 141.621094 C 174.085938 141.617188 174.359375 141.878906 174.363281 142.207031 C 174.554688 154.019531 174.554688 165.214844 174.363281 175.789062 C 174.359375 176.121094 174.085938 176.382812 173.757812 176.375 C 173.425781 176.371094 173.164062 176.097656 173.171875 175.769531 C 173.363281 165.207031 173.363281 154.027344 173.171875 142.226562 "/>
<path style=" stroke:none;fill-rule:nonzero;fill:rgb(7.058716%,1.176453%,46.665955%);fill-opacity:1;" d="M 173.78125 142.8125 C 173.453125 142.820312 173.179688 142.558594 173.171875 142.230469 C 173.164062 141.902344 173.425781 141.628906 173.753906 141.621094 C 194.871094 141.15625 206.640625 147.042969 208.824219 159.359375 C 208.878906 159.683594 208.664062 159.992188 208.339844 160.050781 C 208.015625 160.109375 207.707031 159.890625 207.648438 159.566406 C 205.589844 147.96875 194.378906 142.359375 173.78125 142.8125 "/>
<path style=" stroke:none;fill-rule:nonzero;fill:rgb(7.058716%,1.176453%,46.665955%);fill-opacity:1;" d="M 173.714844 176.375 C 173.386719 176.34375 173.144531 176.054688 173.171875 175.726562 C 173.203125 175.398438 173.492188 175.15625 173.820312 175.183594 C 193.621094 176.933594 204.816406 171.632812 207.65625 159.328125 C 207.726562 159.007812 208.046875 158.808594 208.371094 158.882812 C 208.691406 158.957031 208.890625 159.277344 208.816406 159.597656 C 205.820312 172.589844 194.039062 178.167969 173.714844 176.375 "/>
<path style=" stroke:none;fill-rule:nonzero;fill:rgb(7.058716%,1.176453%,46.665955%);fill-opacity:1;" d="M 215.214844 160.074219 C 214.882812 160.074219 214.617188 159.804688 214.617188 159.476562 C 214.617188 159.148438 214.882812 158.878906 215.214844 158.878906 L 222.195312 158.878906 C 222.523438 158.878906 222.789062 159.148438 222.789062 159.476562 C 222.789062 159.804688 222.523438 160.074219 222.195312 160.074219 Z M 215.214844 160.074219 "/>
<path style=" stroke:none;fill-rule:nonzero;fill:rgb(7.058716%,1.176453%,46.665955%);fill-opacity:1;" d="M 162.390625 151.351562 C 162.0625 151.351562 161.796875 151.085938 161.796875 150.757812 C 161.796875 150.425781 162.0625 150.160156 162.390625 150.160156 L 173.910156 150.160156 C 174.242188 150.160156 174.507812 150.425781 174.507812 150.757812 C 174.507812 151.085938 174.242188 151.351562 173.910156 151.351562 Z M 162.390625 151.351562 "/>
<path style=" stroke:none;fill-rule:nonzero;fill:rgb(7.058716%,1.176453%,46.665955%);fill-opacity:1;" d="M 161.75 168.703125 C 161.421875 168.703125 161.152344 168.4375 161.152344 168.105469 C 161.152344 167.777344 161.421875 167.511719 161.75 167.511719 L 173.871094 167.511719 C 174.203125 167.511719 174.46875 167.777344 174.46875 168.105469 C 174.46875 168.4375 174.203125 168.703125 173.871094 168.703125 Z M 161.75 168.703125 "/>
<path style=" stroke:none;fill-rule:nonzero;fill:rgb(7.058716%,1.176453%,46.665955%);fill-opacity:1;" d="M 215.8125 159.597656 C 215.8125 161.105469 214.996094 162.421875 213.785156 163.128906 C 213.179688 163.484375 212.476562 163.6875 211.722656 163.6875 C 210.21875 163.6875 208.902344 162.871094 208.191406 161.65625 C 207.839844 161.050781 207.636719 160.347656 207.636719 159.597656 C 207.636719 158.089844 208.453125 156.773438 209.664062 156.066406 C 210.269531 155.714844 210.972656 155.511719 211.722656 155.511719 C 213.230469 155.511719 214.546875 156.324219 215.253906 157.539062 C 215.609375 158.144531 215.8125 158.847656 215.8125 159.597656 M 214.617188 159.597656 C 214.617188 159.066406 214.476562 158.570312 214.226562 158.140625 C 213.722656 157.28125 212.792969 156.703125 211.722656 156.703125 C 211.191406 156.703125 210.695312 156.847656 210.265625 157.097656 C 209.40625 157.597656 208.828125 158.53125 208.828125 159.597656 C 208.828125 160.128906 208.972656 160.628906 209.222656 161.054688 C 209.726562 161.914062 210.65625 162.492188 211.722656 162.492188 C 212.253906 162.492188 212.753906 162.347656 213.183594 162.097656 C 214.042969 161.597656 214.617188 160.664062 214.617188 159.597656 "/>
<path style=" stroke:none;fill-rule:nonzero;fill:rgb(7.058716%,1.176453%,46.665955%);fill-opacity:1;" d="M 173.171875 208.128906 C 173.167969 207.800781 173.429688 207.527344 173.757812 207.523438 C 174.085938 207.519531 174.359375 207.78125 174.363281 208.109375 C 174.554688 219.921875 174.554688 231.117188 174.363281 241.691406 C 174.359375 242.023438 174.085938 242.285156 173.757812 242.277344 C 173.425781 242.273438 173.164062 242 173.171875 241.671875 C 173.363281 231.109375 173.363281 219.929688 173.171875 208.128906 "/>
<path style=" stroke:none;fill-rule:nonzero;fill:rgb(7.058716%,1.176453%,46.665955%);fill-opacity:1;" d="M 173.78125 208.714844 C 173.453125 208.722656 173.179688 208.460938 173.171875 208.132812 C 173.164062 207.804688 173.425781 207.53125 173.753906 207.523438 C 194.871094 207.058594 206.640625 212.945312 208.824219 225.261719 C 208.878906 225.585938 208.664062 225.894531 208.339844 225.953125 C 208.015625 226.011719 207.707031 225.792969 207.648438 225.46875 C 205.589844 213.871094 194.378906 208.261719 173.78125 208.714844 "/>
<path style=" stroke:none;fill-rule:nonzero;fill:rgb(7.058716%,1.176453%,46.665955%);fill-opacity:1;" d="M 173.714844 242.277344 C 173.386719 242.246094 173.144531 241.957031 173.171875 241.628906 C 173.203125 241.300781 173.492188 241.058594 173.820312 241.085938 C 193.621094 242.835938 204.816406 237.535156 207.65625 225.230469 C 207.726562 224.910156 208.046875 224.710938 208.371094 224.785156 C 208.691406 224.859375 208.890625 225.179688 208.816406 225.5 C 205.820312 238.492188 194.039062 244.070312 173.714844 242.277344 "/>
<path style=" stroke:none;fill-rule:nonzero;fill:rgb(7.058716%,1.176453%,46.665955%);fill-opacity:1;" d="M 215.214844 225.976562 C 214.882812 225.976562 214.617188 225.707031 214.617188 225.378906 C 214.617188 225.050781 214.882812 224.78125 215.214844 224.78125 L 222.195312 224.78125 C 222.523438 224.78125 222.789062 225.050781 222.789062 225.378906 C 222.789062 225.707031 222.523438 225.976562 222.195312 225.976562 Z M 215.214844 225.976562 "/>
<path style=" stroke:none;fill-rule:nonzero;fill:rgb(7.058716%,1.176453%,46.665955%);fill-opacity:1;" d="M 162.390625 217.253906 C 162.0625 217.253906 161.796875 216.988281 161.796875 216.660156 C 161.796875 216.328125 162.0625 216.0625 162.390625 216.0625 L 173.910156 216.0625 C 174.242188 216.0625 174.507812 216.328125 174.507812 216.660156 C 174.507812 216.988281 174.242188 217.253906 173.910156 217.253906 Z M 162.390625 217.253906 "/>
<path style=" stroke:none;fill-rule:nonzero;fill:rgb(7.058716%,1.176453%,46.665955%);fill-opacity:1;" d="M 161.75 234.605469 C 161.421875 234.605469 161.152344 234.339844 161.152344 234.007812 C 161.152344 233.679688 161.421875 233.414062 161.75 233.414062 L 173.871094 233.414062 C 174.203125 233.414062 174.46875 233.679688 174.46875 234.007812 C 174.46875 234.339844 174.203125 234.605469 173.871094 234.605469 Z M 161.75 234.605469 "/>
<path style=" stroke:none;fill-rule:nonzero;fill:rgb(7.058716%,1.176453%,46.665955%);fill-opacity:1;" d="M 215.8125 225.5 C 215.8125 227.007812 214.996094 228.324219 213.785156 229.03125 C 213.179688 229.386719 212.476562 229.589844 211.722656 229.589844 C 210.21875 229.589844 208.902344 228.773438 208.191406 227.558594 C 207.839844 226.953125 207.636719 226.25 207.636719 225.5 C 207.636719 223.992188 208.453125 222.675781 209.664062 221.96875 C 210.269531 221.617188 210.972656 221.414062 211.722656 221.414062 C 213.230469 221.414062 214.546875 222.226562 215.253906 223.441406 C 215.609375 224.046875 215.8125 224.75 215.8125 225.5 M 214.617188 225.5 C 214.617188 224.96875 214.476562 224.472656 214.226562 224.042969 C 213.722656 223.183594 212.792969 222.605469 211.722656 222.605469 C 211.191406 222.605469 210.695312 222.75 210.265625 223 C 209.40625 223.5 208.828125 224.433594 208.828125 225.5 C 208.828125 226.03125 208.972656 226.53125 209.222656 226.957031 C 209.726562 227.816406 210.65625 228.394531 211.722656 228.394531 C 212.253906 228.394531 212.753906 228.25 213.183594 228 C 214.042969 227.5 214.617188 226.566406 214.617188 225.5 "/>
<path style=" stroke:none;fill-rule:nonzero;fill:rgb(7.058716%,1.176453%,46.665955%);fill-opacity:1;" d="M 162.390625 150.160156 C 162.722656 150.160156 162.988281 150.425781 162.988281 150.757812 C 162.988281 151.085938 162.722656 151.351562 162.390625 151.351562 L 132.25 151.351562 C 131.921875 151.351562 131.652344 151.085938 131.652344 150.757812 C 131.652344 150.425781 131.921875 150.160156 132.25 150.160156 Z M 162.390625 150.160156 "/>
<path style=" stroke:none;fill-rule:nonzero;fill:rgb(7.058716%,1.176453%,46.665955%);fill-opacity:1;" d="M 162.628906 233.414062 C 162.960938 233.414062 163.226562 233.679688 163.226562 234.007812 C 163.226562 234.339844 162.960938 234.605469 162.628906 234.605469 L 132.601562 234.605469 C 132.273438 234.605469 132.007812 234.339844 132.007812 234.007812 C 132.007812 233.679688 132.273438 233.414062 132.601562 233.414062 Z M 162.628906 233.414062 "/>
<path style=" stroke:none;fill-rule:nonzero;fill:rgb(7.058716%,1.176453%,46.665955%);fill-opacity:1;" d="M 222.195312 160.074219 C 221.863281 160.074219 221.597656 159.804688 221.597656 159.476562 C 221.597656 159.148438 221.863281 158.878906 222.195312 158.878906 L 272.492188 158.878906 C 272.824219 158.878906 273.089844 159.148438 273.089844 159.476562 C 273.089844 159.804688 272.824219 160.074219 272.492188 160.074219 Z M 222.195312 160.074219 "/>
<path style=" stroke:none;fill-rule:nonzero;fill:rgb(7.058716%,1.176453%,46.665955%);fill-opacity:1;" d="M 236.296875 159.476562 C 236.296875 159.148438 236.566406 158.878906 236.894531 158.878906 C 237.222656 158.878906 237.492188 159.148438 237.492188 159.476562 L 237.492188 179.449219 C 237.492188 179.777344 237.222656 180.046875 236.894531 180.046875 C 236.566406 180.046875 236.296875 179.777344 236.296875 179.449219 Z M 236.296875 159.476562 "/>
<path style=" stroke:none;fill-rule:nonzero;fill:rgb(7.058716%,1.176453%,46.665955%);fill-opacity:1;" d="M 236.757812 178.867188 C 237.078125 178.792969 237.398438 178.992188 237.476562 179.3125 C 237.550781 179.632812 237.351562 179.953125 237.03125 180.03125 L 156.71875 198.941406 C 156.398438 199.015625 156.078125 198.816406 156.003906 198.496094 C 155.925781 198.175781 156.125 197.855469 156.445312 197.777344 Z M 236.757812 178.867188 "/>
<path style=" stroke:none;fill-rule:nonzero;fill:rgb(7.058716%,1.176453%,46.665955%);fill-opacity:1;" d="M 155.988281 198.359375 C 155.988281 198.03125 156.253906 197.761719 156.582031 197.761719 C 156.914062 197.761719 157.179688 198.03125 157.179688 198.359375 L 157.179688 216.585938 C 157.179688 216.914062 156.914062 217.179688 156.582031 217.179688 C 156.253906 217.179688 155.988281 216.914062 155.988281 216.585938 Z M 155.988281 198.359375 "/>
<path style=" stroke:none;fill-rule:nonzero;fill:rgb(7.058716%,1.176453%,46.665955%);fill-opacity:1;" d="M 156.582031 217.179688 C 156.253906 217.179688 155.988281 216.914062 155.988281 216.585938 C 155.988281 216.253906 156.253906 215.988281 156.582031 215.988281 L 164.929688 215.988281 C 165.261719 215.988281 165.527344 216.253906 165.527344 216.585938 C 165.527344 216.914062 165.261719 217.179688 164.929688 217.179688 Z M 156.582031 217.179688 "/>
<path style=" stroke:none;fill-rule:nonzero;fill:rgb(7.058716%,1.176453%,46.665955%);fill-opacity:1;" d="M 161.152344 168.105469 C 161.152344 167.777344 161.421875 167.511719 161.75 167.511719 C 162.078125 167.511719 162.347656 167.777344 162.347656 168.105469 L 162.347656 179.890625 C 162.347656 180.222656 162.078125 180.488281 161.75 180.488281 C 161.421875 180.488281 161.152344 180.222656 161.152344 179.890625 Z M 161.152344 168.105469 "/>
<path style=" stroke:none;fill-rule:nonzero;fill:rgb(7.058716%,1.176453%,46.665955%);fill-opacity:1;" d="M 161.511719 180.4375 C 161.210938 180.308594 161.070312 179.957031 161.203125 179.652344 C 161.335938 179.351562 161.6875 179.214844 161.988281 179.34375 L 236.128906 211.636719 C 236.433594 211.769531 236.570312 212.121094 236.4375 212.421875 C 236.308594 212.726562 235.957031 212.863281 235.652344 212.730469 Z M 161.511719 180.4375 "/>
<path style=" stroke:none;fill-rule:nonzero;fill:rgb(7.058716%,1.176453%,46.665955%);fill-opacity:1;" d="M 235.296875 212.183594 C 235.296875 211.855469 235.5625 211.589844 235.890625 211.589844 C 236.222656 211.589844 236.488281 211.855469 236.488281 212.183594 L 236.488281 226.476562 C 236.488281 226.808594 236.222656 227.074219 235.890625 227.074219 C 235.5625 227.074219 235.296875 226.808594 235.296875 226.476562 Z M 235.296875 212.183594 "/>
<path style=" stroke:none;fill-rule:nonzero;fill:rgb(7.058716%,1.176453%,46.665955%);fill-opacity:1;" d="M 235.9375 225.882812 C 236.265625 225.90625 236.511719 226.195312 236.488281 226.523438 C 236.464844 226.851562 236.175781 227.097656 235.847656 227.074219 L 220.925781 225.972656 C 220.597656 225.949219 220.351562 225.664062 220.375 225.335938 C 220.398438 225.007812 220.6875 224.761719 221.015625 224.785156 Z M 235.9375 225.882812 "/>
<path style=" stroke:none;fill-rule:nonzero;fill:rgb(7.058716%,1.176453%,46.665955%);fill-opacity:1;" d="M 235.890625 227.074219 C 235.5625 227.074219 235.296875 226.808594 235.296875 226.476562 C 235.296875 226.148438 235.5625 225.882812 235.890625 225.882812 L 277.273438 225.882812 C 277.605469 225.882812 277.871094 226.148438 277.871094 226.476562 C 277.871094 226.808594 277.605469 227.074219 277.273438 227.074219 Z M 235.890625 227.074219 "/>
<path style=" stroke:none;fill-rule:nonzero;fill:rgb(92.941284%,21.176147%,14.117432%);fill-opacity:1;" d="M 286.40625 156.261719 C 286.136719 156.449219 285.765625 156.386719 285.574219 156.117188 C 285.386719 155.851562 285.449219 155.476562 285.71875 155.289062 C 285.808594 155.222656 285.886719 155.128906 285.921875 155.066406 C 285.9375 155.039062 285.933594 155.058594 285.9375 155.042969 C 285.9375 155.027344 285.9375 155.140625 285.933594 155.109375 C 285.933594 155.070312 286 155.296875 285.972656 155.246094 C 285.941406 155.179688 286.175781 155.460938 286.121094 155.421875 C 286.070312 155.382812 286.292969 155.503906 286.257812 155.492188 C 286.191406 155.472656 286.34375 155.503906 286.339844 155.503906 C 286.304688 155.507812 286.195312 155.535156 286.054688 155.589844 C 285.75 155.707031 285.339844 155.933594 284.9375 156.230469 C 284.191406 156.785156 283.417969 157.6875 283.046875 158.597656 C 282.871094 159.03125 282.832031 159.480469 282.894531 159.824219 C 282.941406 160.074219 283.019531 160.21875 283.132812 160.316406 C 283.5 160.613281 284.75 160.671875 286.046875 160.410156 C 286.960938 160.222656 287.902344 159.832031 288.734375 159.425781 C 290.167969 158.722656 290.898438 158.027344 291.066406 157.484375 C 291.148438 157.207031 291.164062 156.960938 291.0625 156.601562 C 290.753906 155.527344 289.691406 153.902344 288.5625 152.980469 C 288.207031 152.6875 287.847656 152.523438 287.523438 152.472656 C 287.207031 152.421875 286.90625 152.472656 286.628906 152.625 C 286.039062 152.949219 285.472656 153.824219 285.253906 155.285156 C 285.203125 155.609375 284.898438 155.835938 284.574219 155.785156 C 284.25 155.738281 284.023438 155.433594 284.074219 155.109375 C 284.328125 153.40625 285.023438 152.148438 286.050781 151.582031 C 286.558594 151.300781 287.144531 151.203125 287.710938 151.292969 C 288.277344 151.382812 288.824219 151.652344 289.320312 152.054688 C 290.675781 153.164062 291.804688 154.863281 292.210938 156.273438 C 292.371094 156.835938 292.347656 157.371094 292.207031 157.832031 C 291.882812 158.898438 290.828125 159.726562 289.261719 160.496094 C 288.375 160.929688 287.351562 161.363281 286.285156 161.578125 C 284.847656 161.871094 283.34375 162.03125 282.378906 161.238281 C 281.988281 160.917969 281.800781 160.464844 281.722656 160.042969 C 281.613281 159.449219 281.683594 158.785156 281.941406 158.148438 C 282.421875 156.976562 283.308594 155.953125 284.226562 155.273438 C 284.710938 154.917969 285.191406 154.644531 285.621094 154.476562 C 285.828125 154.394531 286.023438 154.335938 286.230469 154.316406 C 286.339844 154.308594 286.460938 154.308594 286.601562 154.347656 C 286.75 154.394531 286.941406 154.511719 287.039062 154.710938 C 287.140625 154.910156 287.136719 155.101562 287.109375 155.253906 C 287.085938 155.402344 287.03125 155.53125 286.964844 155.644531 C 286.832031 155.882812 286.648438 156.089844 286.40625 156.261719 "/>
<path style=" stroke:none;fill-rule:nonzero;fill:rgb(92.941284%,21.176147%,14.117432%);fill-opacity:1;" d="M 287.070312 158.824219 C 286.773438 158.972656 286.417969 158.855469 286.265625 158.5625 C 286.117188 158.269531 286.234375 157.910156 286.53125 157.761719 C 286.746094 157.652344 286.976562 157.582031 287.226562 157.585938 C 287.472656 157.59375 287.710938 157.6875 287.890625 157.824219 C 288.242188 158.085938 288.402344 158.460938 288.527344 158.839844 C 289.226562 160.890625 290.769531 164.078125 292.070312 164.75 C 292.363281 164.902344 292.476562 165.261719 292.324219 165.554688 C 292.175781 165.847656 291.8125 165.960938 291.523438 165.8125 C 290.496094 165.28125 289.71875 164.132812 289.023438 162.878906 C 288.320312 161.621094 287.757812 160.28125 287.398438 159.222656 C 287.308594 158.949219 287.195312 158.792969 287.167969 158.773438 C 287.164062 158.769531 287.203125 158.78125 287.195312 158.78125 C 287.191406 158.777344 287.15625 158.78125 287.070312 158.824219 "/>
<path style=" stroke:none;fill-rule:nonzero;fill:rgb(92.941284%,21.176147%,14.117432%);fill-opacity:1;" d="M 289.007812 218.382812 C 289.109375 218.695312 288.933594 219.03125 288.617188 219.128906 C 288.304688 219.226562 287.96875 219.050781 287.871094 218.738281 C 287.765625 218.398438 287.898438 218.285156 287.945312 218.210938 C 287.988281 218.148438 288.019531 218.113281 288.046875 218.085938 C 288.101562 218.03125 288.152344 217.984375 288.210938 217.933594 C 288.324219 217.835938 288.457031 217.734375 288.585938 217.625 C 288.683594 217.542969 288.773438 217.433594 288.800781 217.386719 C 288.804688 217.375 288.800781 217.386719 288.804688 217.378906 C 288.808594 217.371094 288.78125 217.5 288.785156 217.453125 C 288.792969 217.40625 288.859375 217.789062 288.820312 217.6875 C 288.777344 217.585938 289.105469 217.984375 289.027344 217.933594 C 289.011719 217.925781 289.175781 217.992188 289.152344 217.988281 C 289.089844 217.972656 289.199219 217.988281 289.144531 218 C 289.054688 218.019531 288.914062 218.070312 288.746094 218.152344 C 288.394531 218.316406 287.957031 218.585938 287.527344 218.90625 C 287.121094 219.210938 286.707031 219.609375 286.316406 220.097656 C 285.898438 220.628906 285.507812 221.242188 285.210938 221.925781 C 284.910156 222.609375 284.773438 223.441406 284.699219 224.25 C 284.613281 225.25 284.738281 226.160156 285.03125 226.730469 C 285.183594 227.027344 285.460938 227.210938 285.878906 227.308594 C 286.316406 227.414062 286.871094 227.398438 287.433594 227.292969 C 287.976562 227.191406 288.558594 226.953125 289.117188 226.664062 C 289.820312 226.296875 290.449219 225.847656 290.917969 225.367188 C 291.53125 224.738281 291.824219 224.042969 291.917969 223.324219 C 291.988281 222.792969 292.019531 222.3125 291.90625 221.859375 C 291.75 221.242188 291.261719 220.558594 290.738281 219.960938 C 290.191406 219.335938 289.609375 218.941406 289.210938 218.835938 C 289.03125 218.789062 288.921875 218.804688 288.875 218.824219 C 288.832031 218.84375 288.789062 218.875 288.738281 219.019531 C 288.632812 219.332031 288.292969 219.496094 287.980469 219.390625 C 287.667969 219.285156 287.503906 218.945312 287.609375 218.632812 C 287.746094 218.242188 288.023438 217.898438 288.386719 217.738281 C 288.75 217.574219 289.148438 217.585938 289.515625 217.683594 C 290.261719 217.882812 290.980469 218.421875 291.636719 219.175781 C 292.214844 219.835938 292.824219 220.628906 293.0625 221.566406 C 293.234375 222.25 293.175781 222.898438 293.101562 223.480469 C 292.976562 224.421875 292.566406 225.386719 291.773438 226.203125 C 291.195312 226.792969 290.46875 227.304688 289.667969 227.722656 C 289.042969 228.046875 288.363281 228.332031 287.652344 228.464844 C 286.972656 228.59375 286.265625 228.625 285.605469 228.472656 C 284.949219 228.316406 284.308594 227.933594 283.972656 227.277344 C 283.527344 226.414062 283.410156 225.304688 283.511719 224.144531 C 283.589844 223.269531 283.734375 222.320312 284.117188 221.445312 C 284.460938 220.65625 284.90625 219.957031 285.386719 219.355469 C 285.835938 218.792969 286.320312 218.320312 286.8125 217.953125 C 287.296875 217.589844 287.789062 217.28125 288.238281 217.070312 C 288.457031 216.96875 288.664062 216.886719 288.878906 216.835938 C 289.085938 216.789062 289.328125 216.742188 289.625 216.902344 C 289.761719 216.984375 289.871094 217.105469 289.925781 217.242188 C 289.980469 217.375 289.984375 217.5 289.972656 217.59375 C 289.949219 217.773438 289.890625 217.886719 289.828125 217.992188 C 289.707031 218.199219 289.542969 218.375 289.351562 218.539062 C 289.210938 218.65625 289.078125 218.761719 288.984375 218.84375 C 288.945312 218.875 288.914062 218.90625 288.910156 218.910156 C 288.910156 218.910156 288.976562 218.8125 288.949219 218.859375 C 288.933594 218.882812 289.027344 218.671875 289.007812 218.734375 C 288.996094 218.769531 289.039062 218.546875 289.035156 218.601562 C 289.03125 218.664062 288.984375 218.292969 289.007812 218.382812 "/>
<path style=" stroke:none;fill-rule:nonzero;fill:rgb(92.941284%,21.176147%,14.117432%);fill-opacity:1;" d="M 288.523438 222.621094 C 288.8125 222.460938 289.175781 222.566406 289.335938 222.855469 C 289.492188 223.144531 289.386719 223.507812 289.097656 223.664062 C 288.539062 223.972656 288.273438 224.113281 288.226562 224.234375 C 288.15625 224.417969 288.121094 224.636719 288.238281 224.988281 C 288.496094 225.757812 289.6875 226.957031 290.882812 227.945312 C 291.566406 228.511719 292.273438 228.941406 292.824219 229.367188 C 293.097656 229.578125 293.339844 229.785156 293.515625 230.078125 C 293.695312 230.382812 293.726562 230.863281 293.519531 231.203125 C 293.351562 231.488281 292.984375 231.578125 292.703125 231.40625 C 292.421875 231.238281 292.328125 230.871094 292.5 230.589844 C 292.5 230.585938 292.507812 230.714844 292.488281 230.683594 C 292.453125 230.625 292.316406 230.480469 292.097656 230.3125 C 291.621094 229.945312 290.878906 229.492188 290.121094 228.867188 C 288.867188 227.828125 287.539062 226.65625 287.105469 225.367188 C 286.902344 224.761719 286.957031 224.203125 287.117188 223.796875 C 287.390625 223.109375 288.019531 222.898438 288.523438 222.621094 "/>
<path style=" stroke:none;fill-rule:nonzero;fill:rgb(92.941284%,21.176147%,14.117432%);fill-opacity:1;" d="M 282.835938 213.382812 C 282.773438 213.0625 282.984375 212.746094 283.308594 212.683594 C 283.632812 212.621094 283.945312 212.832031 284.007812 213.15625 C 284.085938 213.566406 284.195312 213.75 284.375 213.871094 C 284.574219 214.007812 284.984375 214.117188 285.648438 214.15625 C 286.261719 214.191406 286.984375 214.214844 287.84375 214.15625 C 289.339844 214.054688 291.109375 213.761719 292.582031 213.476562 C 293.292969 213.339844 293.902344 213.210938 294.34375 213.105469 C 294.550781 213.058594 294.710938 213.015625 294.8125 212.988281 C 294.851562 212.976562 294.851562 212.980469 294.863281 212.972656 C 294.871094 212.972656 294.808594 213 294.828125 212.988281 C 294.847656 212.980469 294.703125 213.074219 294.746094 213.042969 C 294.761719 213.027344 294.660156 213.121094 294.683594 213.097656 C 294.707031 213.074219 294.582031 213.234375 294.609375 213.191406 C 294.632812 213.152344 294.515625 213.417969 294.535156 213.351562 C 294.554688 213.289062 294.523438 213.648438 294.515625 213.566406 C 294.507812 213.496094 294.601562 213.832031 294.570312 213.773438 C 294.519531 213.667969 294.8125 214.035156 294.753906 213.992188 C 294.671875 213.929688 294.980469 214.097656 294.9375 214.085938 C 294.898438 214.074219 295.046875 214.105469 295.027344 214.101562 C 294.699219 214.058594 294.46875 213.761719 294.511719 213.433594 C 294.554688 213.109375 294.851562 212.878906 295.179688 212.917969 C 295.238281 212.925781 295.347656 212.890625 295.550781 213.113281 C 295.757812 213.34375 295.65625 213.792969 295.558594 213.90625 C 295.320312 214.179688 295.308594 214.082031 295.265625 214.097656 C 295.226562 214.109375 295.183594 214.125 295.136719 214.136719 C 295.007812 214.175781 294.832031 214.21875 294.617188 214.269531 C 294.15625 214.375 293.53125 214.511719 292.808594 214.648438 C 291.304688 214.941406 289.507812 215.238281 287.925781 215.347656 C 286.996094 215.410156 286.214844 215.382812 285.582031 215.347656 C 284.816406 215.304688 284.191406 215.191406 283.703125 214.859375 C 283.214844 214.523438 282.949219 213.972656 282.835938 213.382812 "/>
<path style=" stroke:none;fill-rule:nonzero;fill:rgb(7.058716%,1.176453%,46.665955%);fill-opacity:1;" d="M 83.226562 133.507812 C 83.222656 133.179688 83.484375 132.90625 83.8125 132.902344 C 84.144531 132.894531 84.414062 133.160156 84.421875 133.488281 C 84.613281 145.300781 84.613281 156.496094 84.421875 167.070312 C 84.414062 167.398438 84.144531 167.664062 83.8125 167.65625 C 83.484375 167.648438 83.222656 167.378906 83.226562 167.050781 C 83.417969 156.488281 83.417969 145.308594 83.226562 133.507812 "/>
<path style=" stroke:none;fill-rule:nonzero;fill:rgb(7.058716%,1.176453%,46.665955%);fill-opacity:1;" d="M 83.835938 134.09375 C 83.507812 134.101562 83.234375 133.839844 83.226562 133.511719 C 83.21875 133.179688 83.480469 132.910156 83.8125 132.902344 C 104.925781 132.433594 116.695312 138.324219 118.878906 150.636719 C 118.9375 150.964844 118.71875 151.273438 118.394531 151.332031 C 118.070312 151.386719 117.761719 151.171875 117.703125 150.847656 C 115.648438 139.25 104.4375 133.640625 83.835938 134.09375 "/>
<path style=" stroke:none;fill-rule:nonzero;fill:rgb(7.058716%,1.176453%,46.665955%);fill-opacity:1;" d="M 83.773438 167.652344 C 83.445312 167.625 83.199219 167.335938 83.230469 167.007812 C 83.257812 166.679688 83.546875 166.4375 83.875 166.464844 C 103.675781 168.214844 114.875 162.910156 117.710938 150.609375 C 117.785156 150.289062 118.105469 150.085938 118.425781 150.160156 C 118.746094 150.234375 118.945312 150.554688 118.875 150.875 C 115.878906 163.871094 104.097656 169.449219 83.773438 167.652344 "/>
<path style=" stroke:none;fill-rule:nonzero;fill:rgb(7.058716%,1.176453%,46.665955%);fill-opacity:1;" d="M 125.269531 151.351562 C 124.941406 151.351562 124.671875 151.085938 124.671875 150.757812 C 124.671875 150.425781 124.941406 150.160156 125.269531 150.160156 L 132.25 150.160156 C 132.578125 150.160156 132.847656 150.425781 132.847656 150.757812 C 132.847656 151.085938 132.578125 151.351562 132.25 151.351562 Z M 125.269531 151.351562 "/>
<path style=" stroke:none;fill-rule:nonzero;fill:rgb(7.058716%,1.176453%,46.665955%);fill-opacity:1;" d="M 72.449219 142.632812 C 72.121094 142.632812 71.851562 142.367188 71.851562 142.035156 C 71.851562 141.707031 72.121094 141.441406 72.449219 141.441406 L 83.96875 141.441406 C 84.296875 141.441406 84.5625 141.707031 84.5625 142.035156 C 84.5625 142.367188 84.296875 142.632812 83.96875 142.632812 Z M 72.449219 142.632812 "/>
<path style=" stroke:none;fill-rule:nonzero;fill:rgb(7.058716%,1.176453%,46.665955%);fill-opacity:1;" d="M 71.808594 159.984375 C 71.476562 159.984375 71.210938 159.714844 71.210938 159.386719 C 71.210938 159.058594 71.476562 158.789062 71.808594 158.789062 L 83.929688 158.789062 C 84.257812 158.789062 84.523438 159.058594 84.523438 159.386719 C 84.523438 159.714844 84.257812 159.984375 83.929688 159.984375 Z M 71.808594 159.984375 "/>
<path style=" stroke:none;fill-rule:nonzero;fill:rgb(7.058716%,1.176453%,46.665955%);fill-opacity:1;" d="M 125.867188 150.878906 C 125.867188 152.382812 125.054688 153.699219 123.839844 154.410156 C 123.234375 154.761719 122.53125 154.964844 121.78125 154.964844 C 120.273438 154.964844 118.957031 154.152344 118.25 152.9375 C 117.894531 152.332031 117.691406 151.628906 117.691406 150.878906 C 117.691406 149.371094 118.507812 148.054688 119.722656 147.347656 C 120.324219 146.992188 121.03125 146.789062 121.78125 146.789062 C 123.285156 146.789062 124.601562 147.605469 125.3125 148.820312 C 125.664062 149.421875 125.867188 150.128906 125.867188 150.878906 M 124.675781 150.878906 C 124.675781 150.347656 124.53125 149.847656 124.28125 149.421875 C 123.78125 148.5625 122.847656 147.984375 121.78125 147.984375 C 121.25 147.984375 120.75 148.125 120.324219 148.375 C 119.464844 148.878906 118.886719 149.8125 118.886719 150.878906 C 118.886719 151.410156 119.027344 151.90625 119.277344 152.335938 C 119.78125 153.195312 120.714844 153.773438 121.78125 153.773438 C 122.3125 153.773438 122.808594 153.628906 123.238281 153.378906 C 124.097656 152.878906 124.675781 151.945312 124.675781 150.878906 "/>
<path style=" stroke:none;fill-rule:nonzero;fill:rgb(7.058716%,1.176453%,46.665955%);fill-opacity:1;" d="M 83.582031 216.757812 C 83.574219 216.429688 83.835938 216.160156 84.167969 216.152344 C 84.496094 216.148438 84.769531 216.410156 84.773438 216.738281 C 84.964844 228.550781 84.964844 239.746094 84.773438 250.324219 C 84.765625 250.652344 84.496094 250.914062 84.167969 250.90625 C 83.835938 250.902344 83.574219 250.628906 83.582031 250.300781 C 83.769531 239.738281 83.769531 228.558594 83.582031 216.757812 "/>
<path style=" stroke:none;fill-rule:nonzero;fill:rgb(7.058716%,1.176453%,46.665955%);fill-opacity:1;" d="M 84.191406 217.347656 C 83.859375 217.351562 83.585938 217.09375 83.582031 216.761719 C 83.574219 216.433594 83.835938 216.160156 84.164062 216.152344 C 105.28125 215.6875 117.046875 221.574219 119.230469 233.890625 C 119.289062 234.214844 119.074219 234.523438 118.75 234.582031 C 118.425781 234.640625 118.113281 234.421875 118.058594 234.097656 C 116 222.5 104.789062 216.890625 84.191406 217.347656 "/>
<path style=" stroke:none;fill-rule:nonzero;fill:rgb(7.058716%,1.176453%,46.665955%);fill-opacity:1;" d="M 84.125 250.90625 C 83.796875 250.875 83.554688 250.585938 83.582031 250.257812 C 83.613281 249.929688 83.902344 249.6875 84.230469 249.71875 C 104.027344 251.464844 115.226562 246.164062 118.0625 233.859375 C 118.136719 233.539062 118.457031 233.339844 118.777344 233.414062 C 119.101562 233.488281 119.300781 233.808594 119.226562 234.128906 C 116.230469 247.121094 104.449219 252.699219 84.125 250.90625 "/>
<path style=" stroke:none;fill-rule:nonzero;fill:rgb(7.058716%,1.176453%,46.665955%);fill-opacity:1;" d="M 125.621094 234.605469 C 125.292969 234.605469 125.027344 234.339844 125.027344 234.007812 C 125.027344 233.679688 125.292969 233.414062 125.621094 233.414062 L 132.601562 233.414062 C 132.933594 233.414062 133.199219 233.679688 133.199219 234.007812 C 133.199219 234.339844 132.933594 234.605469 132.601562 234.605469 Z M 125.621094 234.605469 "/>
<path style=" stroke:none;fill-rule:nonzero;fill:rgb(7.058716%,1.176453%,46.665955%);fill-opacity:1;" d="M 72.800781 225.886719 C 72.472656 225.886719 72.203125 225.617188 72.203125 225.289062 C 72.203125 224.960938 72.472656 224.691406 72.800781 224.691406 L 84.320312 224.691406 C 84.648438 224.691406 84.917969 224.960938 84.917969 225.289062 C 84.917969 225.617188 84.648438 225.886719 84.320312 225.886719 Z M 72.800781 225.886719 "/>
<path style=" stroke:none;fill-rule:nonzero;fill:rgb(7.058716%,1.176453%,46.665955%);fill-opacity:1;" d="M 72.160156 243.234375 C 71.828125 243.234375 71.5625 242.96875 71.5625 242.636719 C 71.5625 242.308594 71.828125 242.042969 72.160156 242.042969 L 84.28125 242.042969 C 84.609375 242.042969 84.878906 242.308594 84.878906 242.636719 C 84.878906 242.96875 84.609375 243.234375 84.28125 243.234375 Z M 72.160156 243.234375 "/>
<path style=" stroke:none;fill-rule:nonzero;fill:rgb(7.058716%,1.176453%,46.665955%);fill-opacity:1;" d="M 126.222656 234.128906 C 126.222656 235.636719 125.40625 236.953125 124.191406 237.660156 C 123.585938 238.015625 122.882812 238.21875 122.132812 238.21875 C 120.625 238.21875 119.308594 237.402344 118.601562 236.191406 C 118.25 235.585938 118.046875 234.882812 118.046875 234.128906 C 118.046875 232.625 118.859375 231.308594 120.074219 230.597656 C 120.679688 230.246094 121.382812 230.042969 122.132812 230.042969 C 123.640625 230.042969 124.957031 230.855469 125.664062 232.070312 C 126.019531 232.675781 126.222656 233.378906 126.222656 234.128906 M 125.027344 234.128906 C 125.027344 233.597656 124.882812 233.101562 124.632812 232.671875 C 124.132812 231.8125 123.199219 231.234375 122.132812 231.234375 C 121.601562 231.234375 121.105469 231.378906 120.675781 231.628906 C 119.816406 232.128906 119.238281 233.0625 119.238281 234.128906 C 119.238281 234.660156 119.382812 235.160156 119.632812 235.585938 C 120.132812 236.445312 121.066406 237.023438 122.132812 237.023438 C 122.664062 237.023438 123.164062 236.882812 123.589844 236.632812 C 124.449219 236.128906 125.027344 235.195312 125.027344 234.128906 "/>
<path style=" stroke:none;fill-rule:nonzero;fill:rgb(7.058716%,1.176453%,46.665955%);fill-opacity:1;" d="M 73.058594 141.441406 C 73.390625 141.441406 73.65625 141.707031 73.65625 142.035156 C 73.65625 142.367188 73.390625 142.632812 73.058594 142.632812 L 27.003906 142.632812 C 26.675781 142.632812 26.40625 142.367188 26.40625 142.035156 C 26.40625 141.707031 26.675781 141.441406 27.003906 141.441406 Z M 73.058594 141.441406 "/>
<path style=" stroke:none;fill-rule:nonzero;fill:rgb(7.058716%,1.176453%,46.665955%);fill-opacity:1;" d="M 73.554688 242.042969 C 73.882812 242.042969 74.152344 242.308594 74.152344 242.636719 C 74.152344 242.96875 73.882812 243.234375 73.554688 243.234375 L 28.476562 243.234375 C 28.148438 243.234375 27.878906 242.96875 27.878906 242.636719 C 27.878906 242.308594 28.148438 242.042969 28.476562 242.042969 Z M 73.554688 242.042969 "/>
<path style=" stroke:none;fill-rule:nonzero;fill:rgb(7.058716%,1.176453%,46.665955%);fill-opacity:1;" d="M 72.035156 158.789062 C 72.363281 158.789062 72.632812 159.058594 72.632812 159.386719 C 72.632812 159.714844 72.363281 159.984375 72.035156 159.984375 L 51.453125 159.984375 C 51.125 159.984375 50.855469 159.714844 50.855469 159.386719 C 50.855469 159.058594 51.125 158.789062 51.453125 158.789062 Z M 72.035156 158.789062 "/>
<path style=" stroke:none;fill-rule:nonzero;fill:rgb(7.058716%,1.176453%,46.665955%);fill-opacity:1;" d="M 50.855469 159.386719 C 50.855469 159.058594 51.125 158.789062 51.453125 158.789062 C 51.78125 158.789062 52.050781 159.058594 52.050781 159.386719 L 52.050781 242.636719 C 52.050781 242.96875 51.78125 243.234375 51.453125 243.234375 C 51.125 243.234375 50.855469 242.96875 50.855469 242.636719 Z M 50.855469 159.386719 "/>
<path style=" stroke:none;fill-rule:nonzero;fill:rgb(7.058716%,1.176453%,46.665955%);fill-opacity:1;" d="M 73.398438 225.289062 C 73.398438 225.617188 73.132812 225.886719 72.800781 225.886719 C 72.472656 225.886719 72.203125 225.617188 72.203125 225.289062 L 72.203125 200.148438 C 72.203125 199.820312 72.472656 199.554688 72.800781 199.554688 C 73.132812 199.554688 73.398438 199.820312 73.398438 200.148438 Z M 73.398438 225.289062 "/>
<path style=" stroke:none;fill-rule:nonzero;fill:rgb(7.058716%,1.176453%,46.665955%);fill-opacity:1;" d="M 72.800781 200.746094 C 72.472656 200.746094 72.203125 200.480469 72.203125 200.148438 C 72.203125 199.820312 72.472656 199.554688 72.800781 199.554688 L 129.492188 199.554688 C 129.820312 199.554688 130.089844 199.820312 130.089844 200.148438 C 130.089844 200.480469 129.820312 200.746094 129.492188 200.746094 Z M 72.800781 200.746094 "/>
<path style=" stroke:none;fill-rule:nonzero;fill:rgb(7.058716%,1.176453%,46.665955%);fill-opacity:1;" d="M 129.492188 200.746094 C 129.164062 200.746094 128.894531 200.480469 128.894531 200.148438 C 128.894531 199.820312 129.164062 199.554688 129.492188 199.554688 L 133.683594 199.554688 C 134.011719 199.554688 134.277344 199.820312 134.277344 200.148438 C 134.277344 200.480469 134.011719 200.746094 133.683594 200.746094 Z M 129.492188 200.746094 "/>
<path style=" stroke:none;fill-rule:nonzero;fill:rgb(7.058716%,1.176453%,46.665955%);fill-opacity:1;" d="M 134.277344 200.132812 C 134.289062 200.460938 134.027344 200.738281 133.699219 200.746094 C 133.371094 200.753906 133.09375 200.496094 133.085938 200.167969 L 131.652344 150.773438 C 131.644531 150.445312 131.902344 150.171875 132.234375 150.160156 C 132.5625 150.152344 132.835938 150.410156 132.847656 150.738281 Z M 134.277344 200.132812 "/>
<path style=" stroke:none;fill-rule:nonzero;fill:rgb(92.941284%,21.176147%,14.117432%);fill-opacity:1;" d="M 6.761719 136.460938 C 6.867188 136.773438 6.695312 137.109375 6.382812 137.214844 C 6.070312 137.320312 5.734375 137.148438 5.628906 136.835938 C 5.589844 136.714844 5.574219 136.671875 5.5625 136.652344 C 5.5625 136.644531 5.644531 136.773438 5.609375 136.722656 C 5.597656 136.710938 5.671875 136.800781 5.652344 136.777344 C 5.636719 136.761719 5.75 136.859375 5.71875 136.839844 C 5.671875 136.800781 6.085938 136.976562 5.960938 136.949219 C 5.898438 136.9375 6.261719 136.941406 6.183594 136.953125 C 6.101562 136.96875 6.46875 136.828125 6.402344 136.871094 C 6.292969 136.9375 6.636719 136.597656 6.601562 136.660156 C 6.546875 136.757812 6.675781 136.429688 6.667969 136.46875 C 6.660156 136.519531 6.675781 136.355469 6.675781 136.375 C 6.675781 136.390625 6.675781 136.339844 6.675781 136.34375 C 6.675781 136.351562 6.71875 136.578125 6.777344 136.835938 C 7.039062 137.988281 7.386719 140.097656 7.394531 141.96875 C 7.398438 142.722656 7.332031 143.390625 7.144531 143.945312 C 7.074219 144.160156 6.984375 144.367188 6.863281 144.550781 C 6.734375 144.742188 6.550781 144.9375 6.277344 145.027344 C 6.0625 145.101562 5.832031 145.082031 5.648438 145.007812 C 5.476562 144.945312 5.335938 144.84375 5.214844 144.726562 C 4.972656 144.496094 4.789062 144.195312 4.667969 143.847656 C 4.304688 142.839844 4.496094 141.539062 4.890625 140.125 C 5.292969 138.675781 5.941406 137.15625 6.753906 135.804688 C 7.480469 134.59375 8.390625 133.605469 9.332031 133.011719 C 10.160156 132.492188 11.089844 132.367188 11.90625 132.605469 C 12.722656 132.84375 13.4375 133.390625 14.046875 134.085938 C 14.742188 134.871094 15.285156 135.894531 15.507812 137.117188 C 15.621094 137.757812 15.660156 138.453125 15.585938 139.171875 C 15.300781 141.9375 13.070312 144.546875 10.953125 146.3125 C 9.171875 147.796875 7.273438 148.445312 5.773438 148.5625 C 5.347656 148.59375 4.871094 148.746094 4.300781 148.566406 C 3.816406 148.410156 3.433594 148.066406 3.175781 147.652344 C 2.917969 147.242188 2.773438 146.757812 2.738281 146.25 C 2.671875 145.222656 3.089844 144.066406 4.09375 143.339844 C 4.359375 143.144531 4.730469 143.203125 4.925781 143.46875 C 5.121094 143.734375 5.0625 144.109375 4.792969 144.304688 C 4.144531 144.777344 3.886719 145.507812 3.929688 146.171875 C 3.949219 146.496094 4.046875 146.796875 4.1875 147.019531 C 4.320312 147.234375 4.488281 147.371094 4.667969 147.429688 C 4.804688 147.472656 5.15625 147.414062 5.679688 147.371094 C 6.925781 147.273438 8.601562 146.71875 10.1875 145.398438 C 12.15625 143.753906 14.171875 141.253906 14.398438 139.050781 C 14.460938 138.449219 14.429688 137.867188 14.332031 137.328125 C 14.152344 136.328125 13.714844 135.511719 13.152344 134.875 C 12.644531 134.300781 12.097656 133.902344 11.574219 133.75 C 11.0625 133.605469 10.542969 133.660156 9.96875 134.019531 C 9.238281 134.480469 8.417969 135.347656 7.773438 136.421875 C 6.265625 138.9375 5.351562 142.222656 5.789062 143.445312 C 5.859375 143.640625 5.964844 143.792969 6.035156 143.863281 C 6.070312 143.894531 6.050781 143.886719 6.070312 143.894531 C 6.105469 143.90625 5.820312 143.921875 5.894531 143.898438 C 5.960938 143.875 5.835938 143.941406 5.871094 143.890625 C 5.910156 143.828125 5.964844 143.714844 6.015625 143.5625 C 6.136719 143.203125 6.203125 142.644531 6.199219 141.972656 C 6.195312 140.246094 5.855469 138.160156 5.613281 137.101562 C 5.550781 136.832031 5.503906 136.640625 5.488281 136.457031 C 5.484375 136.429688 5.480469 136.398438 5.484375 136.347656 C 5.488281 136.285156 5.363281 136.117188 5.761719 135.863281 C 5.992188 135.714844 6.304688 135.796875 6.417969 135.871094 C 6.675781 136.042969 6.617188 136.09375 6.636719 136.132812 C 6.6875 136.234375 6.714844 136.320312 6.761719 136.460938 "/>
<path style=" stroke:none;fill-rule:nonzero;fill:rgb(92.941284%,21.176147%,14.117432%);fill-opacity:1;" d="M 15.144531 235.960938 C 15.082031 236.285156 14.765625 236.496094 14.441406 236.429688 C 14.121094 236.363281 13.910156 236.050781 13.976562 235.726562 C 14.0625 235.300781 14.058594 234.9375 13.972656 234.699219 C 13.890625 234.46875 13.757812 234.3125 13.433594 234.195312 C 12.882812 233.992188 12.144531 233.859375 11.164062 234.074219 C 10.265625 234.265625 9.195312 234.75 8.058594 235.519531 C 6.828125 236.355469 5.578125 237.519531 4.550781 238.765625 C 3.738281 239.75 3.117188 240.8125 2.765625 241.765625 C 2.480469 242.53125 2.53125 243.226562 2.789062 243.84375 C 3.046875 244.46875 3.527344 245.03125 4.101562 245.476562 C 5.519531 246.582031 7.476562 247.09375 9.332031 247.03125 C 11.167969 246.964844 12.855469 246.335938 13.757812 245.300781 C 13.976562 245.050781 14.351562 245.027344 14.601562 245.242188 C 14.847656 245.460938 14.875 245.835938 14.660156 246.085938 C 13.457031 247.464844 11.453125 248.152344 9.375 248.222656 C 7.273438 248.292969 5.054688 247.734375 3.367188 246.417969 C 2.667969 245.871094 2.042969 245.164062 1.6875 244.304688 C 1.324219 243.4375 1.261719 242.394531 1.644531 241.351562 C 2.054688 240.246094 2.742188 239.085938 3.632812 238.003906 C 4.730469 236.675781 6.042969 235.445312 7.390625 234.535156 C 8.625 233.695312 9.820312 233.140625 10.910156 232.90625 C 12.125 232.644531 13.125 232.808594 13.847656 233.078125 C 14.453125 233.300781 14.90625 233.761719 15.097656 234.300781 C 15.285156 234.832031 15.257812 235.402344 15.144531 235.960938 "/>
<path style=" stroke:none;fill-rule:nonzero;fill:rgb(100%,100%,100%);fill-opacity:1;" d="M 123.097656 81.886719 L 171.542969 81.886719 L 171.542969 9.765625 L 123.097656 9.765625 Z M 123.097656 81.886719 "/>
<path style=" stroke:none;fill-rule:nonzero;fill:rgb(7.058716%,1.176453%,46.665955%);fill-opacity:1;" d="M 123.695312 10.359375 L 123.695312 81.289062 L 170.949219 81.289062 L 170.949219 10.359375 Z M 123.097656 9.167969 L 171.542969 9.167969 C 171.875 9.167969 172.140625 9.433594 172.140625 9.765625 L 172.140625 81.886719 C 172.140625 82.214844 171.875 82.484375 171.542969 82.484375 L 123.097656 82.484375 C 122.769531 82.484375 122.5 82.214844 122.5 81.886719 L 122.5 9.765625 C 122.5 9.433594 122.769531 9.167969 123.097656 9.167969 "/>
<path style=" stroke:none;fill-rule:nonzero;fill:rgb(7.058716%,1.176453%,46.665955%);fill-opacity:1;" d="M 129.027344 82.128906 C 128.894531 82.429688 128.542969 82.566406 128.238281 82.433594 C 127.9375 82.300781 127.800781 81.949219 127.933594 81.648438 L 132.121094 72.132812 C 132.253906 71.832031 132.605469 71.695312 132.90625 71.824219 C 133.207031 71.957031 133.34375 72.3125 133.210938 72.613281 Z M 129.027344 82.128906 "/>
<path style=" stroke:none;fill-rule:nonzero;fill:rgb(7.058716%,1.176453%,46.665955%);fill-opacity:1;" d="M 132.160156 72.6875 C 131.984375 72.40625 132.074219 72.039062 132.351562 71.863281 C 132.632812 71.691406 133 71.777344 133.175781 72.058594 L 139.054688 81.574219 C 139.226562 81.855469 139.140625 82.222656 138.859375 82.394531 C 138.578125 82.566406 138.210938 82.480469 138.039062 82.199219 Z M 132.160156 72.6875 "/>
<path style=" stroke:none;fill-rule:nonzero;fill:rgb(7.058716%,1.176453%,46.665955%);fill-opacity:1;" d="M 123.097656 20.035156 C 123.425781 20.035156 123.695312 20.300781 123.695312 20.628906 C 123.695312 20.960938 123.425781 21.226562 123.097656 21.226562 L 107.457031 21.226562 C 107.125 21.226562 106.859375 20.960938 106.859375 20.628906 C 106.859375 20.300781 107.125 20.035156 107.457031 20.035156 Z M 123.097656 20.035156 "/>
<path style=" stroke:none;fill-rule:nonzero;fill:rgb(7.058716%,1.176453%,46.665955%);fill-opacity:1;" d="M 187.1875 20.035156 C 187.515625 20.035156 187.785156 20.300781 187.785156 20.628906 C 187.785156 20.960938 187.515625 21.226562 187.1875 21.226562 L 171.542969 21.226562 C 171.214844 21.226562 170.949219 20.960938 170.949219 20.628906 C 170.949219 20.300781 171.214844 20.035156 171.542969 20.035156 Z M 187.1875 20.035156 "/>
<path style=" stroke:none;fill-rule:nonzero;fill:rgb(7.058716%,1.176453%,46.665955%);fill-opacity:1;" d="M 187.1875 65.703125 C 187.515625 65.703125 187.785156 65.96875 187.785156 66.300781 C 187.785156 66.628906 187.515625 66.898438 187.1875 66.898438 L 171.542969 66.898438 C 171.214844 66.898438 170.949219 66.628906 170.949219 66.300781 C 170.949219 65.96875 171.214844 65.703125 171.542969 65.703125 Z M 187.1875 65.703125 "/>
<path style=" stroke:none;fill-rule:nonzero;fill:rgb(7.058716%,1.176453%,46.665955%);fill-opacity:1;" d="M 133.539062 95.949219 C 133.539062 96.277344 133.269531 96.546875 132.941406 96.546875 C 132.613281 96.546875 132.34375 96.277344 132.34375 95.949219 L 132.34375 81.886719 C 132.34375 81.558594 132.613281 81.289062 132.941406 81.289062 C 133.269531 81.289062 133.539062 81.558594 133.539062 81.886719 Z M 133.539062 95.949219 "/>
<path style=" stroke:none;fill-rule:nonzero;fill:rgb(7.058716%,1.176453%,46.665955%);fill-opacity:1;" d="M 129.085938 17.230469 C 129.136719 17.554688 128.914062 17.859375 128.589844 17.910156 C 128.261719 17.960938 127.957031 17.738281 127.90625 17.410156 C 127.902344 17.382812 127.984375 17.59375 127.953125 17.535156 C 127.933594 17.503906 128.074219 17.683594 128.035156 17.644531 C 127.992188 17.601562 128.328125 17.800781 128.234375 17.769531 C 128.152344 17.738281 128.589844 17.785156 128.5 17.796875 C 128.414062 17.808594 128.78125 17.6875 128.726562 17.722656 C 128.667969 17.753906 128.875 17.59375 128.847656 17.621094 C 128.820312 17.652344 128.921875 17.523438 128.90625 17.546875 C 128.859375 17.625 128.96875 17.402344 128.964844 17.421875 C 128.949219 17.472656 128.96875 17.375 128.96875 17.398438 C 128.972656 17.429688 128.976562 17.480469 128.976562 17.539062 C 128.984375 17.675781 129.003906 17.832031 129.019531 18.046875 C 129.042969 18.300781 129.054688 18.59375 129.058594 18.929688 C 129.0625 19.191406 129.058594 19.457031 129.058594 19.710938 C 129.058594 19.925781 129.050781 20.113281 129.058594 20.265625 C 129.066406 20.472656 129.117188 20.660156 129.175781 20.921875 C 129.210938 21.078125 129.242188 21.246094 129.269531 21.425781 C 129.355469 22.023438 129.335938 22.664062 129.335938 23.199219 C 129.34375 24.253906 129.390625 24.722656 129.496094 25.304688 C 129.550781 25.628906 129.335938 25.9375 129.011719 25.996094 C 128.683594 26.050781 128.375 25.835938 128.320312 25.511719 C 128.210938 24.886719 128.152344 24.300781 128.144531 23.207031 C 128.140625 22.652344 128.15625 22.046875 128.089844 21.597656 C 128.066406 21.453125 128.039062 21.316406 128.011719 21.175781 C 127.960938 20.953125 127.878906 20.671875 127.867188 20.308594 C 127.859375 20.101562 127.867188 19.902344 127.867188 19.710938 C 127.867188 19.449219 127.867188 19.1875 127.867188 18.945312 C 127.863281 18.625 127.851562 18.355469 127.832031 18.152344 C 127.816406 17.949219 127.796875 17.78125 127.785156 17.605469 C 127.78125 17.507812 127.746094 17.386719 127.800781 17.148438 C 127.816406 17.082031 127.835938 17.007812 127.902344 16.898438 C 127.941406 16.84375 127.996094 16.765625 128.117188 16.695312 C 128.242188 16.617188 128.464844 16.582031 128.636719 16.644531 C 128.84375 16.71875 128.933594 16.847656 128.992188 16.949219 C 129.046875 17.046875 129.074219 17.140625 129.085938 17.230469 "/>
<path style=" stroke:none;fill-rule:nonzero;fill:rgb(7.058716%,1.176453%,46.665955%);fill-opacity:1;" d="M 128.925781 16.992188 C 129.113281 17.265625 129.042969 17.636719 128.773438 17.824219 C 128.5 18.007812 128.128906 17.9375 127.945312 17.667969 C 127.734375 17.359375 127.675781 17.003906 127.722656 16.679688 C 127.75 16.503906 127.816406 16.355469 127.878906 16.242188 C 127.941406 16.132812 128.03125 15.980469 128.171875 15.820312 C 128.203125 15.785156 128.242188 15.742188 128.289062 15.6875 C 128.449219 15.507812 128.628906 15.398438 128.777344 15.3125 C 129.109375 15.125 129.503906 14.984375 129.921875 14.890625 C 130.25 14.816406 130.558594 14.800781 130.84375 14.792969 C 131.007812 14.785156 131.171875 14.78125 131.339844 14.78125 C 131.632812 14.777344 131.957031 14.765625 132.273438 14.78125 C 132.921875 14.8125 133.476562 15.039062 133.847656 15.429688 C 134.15625 15.753906 134.378906 16.148438 134.617188 16.496094 C 134.773438 16.730469 134.949219 16.976562 135.125 17.257812 C 135.234375 17.429688 135.34375 17.617188 135.464844 17.824219 C 135.625 18.113281 135.789062 18.429688 135.953125 18.738281 C 136.273438 19.339844 136.601562 19.914062 136.800781 20.558594 C 136.917969 20.9375 136.988281 21.320312 137.03125 21.6875 C 137.078125 22.074219 137.136719 22.472656 137.070312 22.90625 C 136.988281 23.46875 136.683594 23.929688 136.34375 24.332031 C 136.179688 24.527344 135.992188 24.730469 135.769531 24.933594 C 135.492188 25.183594 135.179688 25.417969 134.855469 25.617188 C 134.386719 25.90625 133.910156 26.097656 133.425781 26.207031 C 133.03125 26.296875 132.65625 26.320312 132.320312 26.359375 C 132.132812 26.378906 131.945312 26.410156 131.773438 26.441406 C 131.523438 26.484375 131.339844 26.53125 131.144531 26.578125 C 131.019531 26.605469 130.894531 26.625 130.769531 26.644531 C 130.390625 26.699219 130.003906 26.6875 129.679688 26.652344 C 129.523438 26.636719 129.386719 26.617188 129.261719 26.585938 C 129.199219 26.570312 129.140625 26.554688 129.042969 26.507812 C 128.988281 26.476562 128.90625 26.449219 128.804688 26.296875 C 128.6875 26.125 128.710938 25.710938 128.859375 25.546875 C 129.082031 25.304688 129.457031 25.285156 129.703125 25.507812 C 129.945312 25.730469 129.960938 26.109375 129.742188 26.351562 C 129.707031 26.386719 129.867188 26.144531 129.839844 26.203125 C 129.8125 26.261719 129.898438 25.953125 129.890625 26.019531 C 129.878906 26.136719 129.796875 25.625 129.835938 25.707031 C 129.863281 25.761719 129.722656 25.539062 129.75 25.570312 C 129.789062 25.617188 129.625 25.464844 129.648438 25.480469 C 129.675781 25.5 129.578125 25.4375 129.589844 25.445312 C 129.648438 25.476562 129.535156 25.421875 129.550781 25.425781 C 129.59375 25.4375 129.6875 25.453125 129.804688 25.464844 C 130.054688 25.492188 130.367188 25.5 130.59375 25.464844 C 130.703125 25.449219 130.796875 25.433594 130.882812 25.414062 C 131.058594 25.375 131.273438 25.316406 131.5625 25.265625 C 131.75 25.234375 131.960938 25.199219 132.1875 25.171875 C 132.550781 25.132812 132.886719 25.109375 133.160156 25.046875 C 133.523438 24.964844 133.863281 24.828125 134.230469 24.601562 C 134.488281 24.441406 134.75 24.246094 134.972656 24.046875 C 135.140625 23.894531 135.289062 23.730469 135.433594 23.5625 C 135.695312 23.25 135.855469 22.964844 135.890625 22.730469 C 135.921875 22.515625 135.890625 22.210938 135.847656 21.828125 C 135.808594 21.515625 135.75 21.203125 135.660156 20.910156 C 135.511719 20.425781 135.222656 19.90625 134.898438 19.296875 C 134.730469 18.980469 134.570312 18.667969 134.425781 18.410156 C 134.316406 18.21875 134.214844 18.046875 134.117188 17.890625 C 133.960938 17.644531 133.796875 17.410156 133.628906 17.167969 C 133.371094 16.789062 133.152344 16.429688 132.984375 16.25 C 132.796875 16.058594 132.679688 15.996094 132.214844 15.972656 C 131.96875 15.960938 131.660156 15.972656 131.347656 15.972656 C 131.191406 15.976562 131.035156 15.976562 130.882812 15.984375 C 130.625 15.992188 130.394531 16.007812 130.183594 16.054688 C 129.871094 16.125 129.566406 16.238281 129.367188 16.351562 C 129.257812 16.414062 129.207031 16.453125 129.175781 16.484375 C 129.148438 16.515625 129.109375 16.5625 129.0625 16.613281 C 129.003906 16.683594 128.96875 16.738281 128.921875 16.824219 C 128.898438 16.863281 128.902344 16.847656 128.902344 16.859375 C 128.894531 16.90625 128.910156 16.964844 128.925781 16.992188 "/>
<path style=" stroke:none;fill-rule:nonzero;fill:rgb(7.058716%,1.176453%,46.665955%);fill-opacity:1;" d="M 163.074219 17.523438 C 163.125 17.847656 162.898438 18.152344 162.574219 18.199219 C 162.246094 18.246094 161.945312 18.023438 161.894531 17.695312 C 161.847656 17.382812 161.933594 17.269531 161.945312 17.21875 C 161.953125 17.1875 161.957031 17.382812 161.949219 17.332031 C 161.9375 17.277344 162.144531 17.621094 162.066406 17.542969 C 162.019531 17.5 162.246094 17.660156 162.203125 17.640625 C 162.140625 17.613281 162.371094 17.683594 162.339844 17.679688 C 162.3125 17.675781 162.398438 17.679688 162.390625 17.679688 C 162.378906 17.683594 162.375 17.683594 162.347656 17.695312 C 162.292969 17.714844 162.160156 17.792969 161.96875 17.921875 C 161.808594 18.027344 161.648438 18.121094 161.488281 18.226562 C 161.3125 18.347656 161.128906 18.46875 160.9375 18.617188 C 160.675781 18.816406 160.40625 19.054688 160.175781 19.308594 C 159.925781 19.578125 159.730469 19.902344 159.582031 20.246094 C 159.488281 20.46875 159.414062 20.703125 159.363281 20.9375 C 159.324219 21.136719 159.308594 21.34375 159.296875 21.5625 C 159.289062 21.847656 159.273438 22.089844 159.296875 22.304688 C 159.308594 22.410156 159.339844 22.554688 159.378906 22.726562 C 159.421875 22.914062 159.453125 23.082031 159.492188 23.226562 C 159.542969 23.425781 159.582031 23.601562 159.621094 23.722656 C 159.675781 23.867188 159.753906 23.972656 159.871094 24.066406 C 159.988281 24.160156 160.257812 24.257812 160.589844 24.339844 C 160.8125 24.390625 161.039062 24.4375 161.277344 24.480469 C 161.746094 24.566406 162.183594 24.644531 162.609375 24.671875 C 162.902344 24.6875 163.167969 24.703125 163.402344 24.675781 C 163.578125 24.652344 163.78125 24.589844 163.992188 24.503906 C 164.296875 24.378906 164.535156 24.21875 164.753906 23.992188 C 164.917969 23.816406 165.082031 23.59375 165.234375 23.339844 C 165.367188 23.121094 165.488281 22.902344 165.578125 22.679688 C 165.65625 22.488281 165.707031 22.253906 165.75 21.988281 C 165.792969 21.714844 165.816406 21.40625 165.832031 21.097656 C 165.84375 20.804688 165.855469 20.519531 165.855469 20.246094 C 165.859375 19.957031 165.871094 19.707031 165.859375 19.5 C 165.847656 19.332031 165.824219 19.175781 165.789062 19.035156 C 165.757812 18.921875 165.707031 18.804688 165.636719 18.683594 C 165.507812 18.453125 165.253906 18.230469 164.949219 18.019531 C 164.554688 17.746094 164.175781 17.527344 163.832031 17.398438 C 163.519531 17.28125 163.277344 17.242188 163.035156 17.300781 C 162.785156 17.359375 162.457031 17.550781 162.054688 17.996094 C 161.832031 18.238281 161.453125 18.253906 161.210938 18.035156 C 160.96875 17.8125 160.949219 17.433594 161.171875 17.191406 C 161.683594 16.628906 162.214844 16.269531 162.761719 16.140625 C 163.296875 16.011719 163.8125 16.117188 164.25 16.277344 C 164.734375 16.460938 165.1875 16.734375 165.628906 17.039062 C 166 17.296875 166.402344 17.613281 166.675781 18.09375 C 166.78125 18.28125 166.882812 18.496094 166.945312 18.738281 C 167 18.960938 167.03125 19.191406 167.046875 19.414062 C 167.070312 19.71875 167.050781 19.996094 167.050781 20.257812 C 167.046875 20.546875 167.039062 20.847656 167.023438 21.15625 C 167.007812 21.484375 166.984375 21.832031 166.929688 22.175781 C 166.878906 22.488281 166.8125 22.808594 166.683594 23.125 C 166.558594 23.4375 166.402344 23.710938 166.257812 23.957031 C 166.066406 24.269531 165.855469 24.558594 165.621094 24.808594 C 165.285156 25.160156 164.886719 25.429688 164.4375 25.609375 C 164.179688 25.714844 163.878906 25.820312 163.546875 25.859375 C 163.175781 25.902344 162.839844 25.878906 162.539062 25.863281 C 162.023438 25.832031 161.535156 25.742188 161.058594 25.652344 C 160.816406 25.609375 160.566406 25.558594 160.308594 25.496094 C 159.925781 25.40625 159.5 25.296875 159.125 24.996094 C 158.855469 24.78125 158.628906 24.484375 158.5 24.121094 C 158.421875 23.898438 158.378906 23.695312 158.335938 23.527344 C 158.285156 23.328125 158.25 23.144531 158.21875 22.996094 C 158.179688 22.828125 158.128906 22.640625 158.109375 22.421875 C 158.074219 22.09375 158.09375 21.792969 158.105469 21.515625 C 158.117188 21.265625 158.132812 20.988281 158.199219 20.6875 C 158.261719 20.390625 158.355469 20.078125 158.488281 19.769531 C 158.679688 19.328125 158.941406 18.890625 159.292969 18.503906 C 159.585938 18.183594 159.90625 17.90625 160.207031 17.671875 C 160.4375 17.496094 160.648438 17.355469 160.828125 17.234375 C 161.023438 17.105469 161.191406 17.007812 161.308594 16.929688 C 161.507812 16.792969 161.691406 16.667969 161.925781 16.578125 C 162.027344 16.539062 162.140625 16.507812 162.28125 16.492188 C 162.429688 16.480469 162.667969 16.460938 162.90625 16.695312 C 163.148438 16.9375 163.164062 17.226562 163.113281 17.457031 C 163.101562 17.53125 163.085938 17.582031 163.082031 17.605469 C 163.078125 17.617188 163.078125 17.601562 163.078125 17.609375 C 163.078125 17.625 163.070312 17.472656 163.074219 17.523438 "/>
<path style=" stroke:none;fill-rule:nonzero;fill:rgb(7.058716%,1.176453%,46.665955%);fill-opacity:1;" d="M 163.863281 22.847656 C 163.820312 23.171875 163.519531 23.402344 163.191406 23.355469 C 162.863281 23.3125 162.636719 23.011719 162.679688 22.683594 C 162.6875 22.621094 162.675781 22.6875 162.667969 22.582031 C 162.65625 22.402344 162.707031 22.222656 162.820312 22.070312 C 162.9375 21.917969 163.144531 21.789062 163.386719 21.792969 C 163.613281 21.792969 163.738281 21.890625 163.816406 21.953125 C 163.890625 22.011719 163.9375 22.066406 163.980469 22.117188 C 164.058594 22.210938 164.121094 22.304688 164.179688 22.382812 C 164.535156 22.859375 165.191406 23.582031 165.84375 24.3125 C 166.265625 24.785156 166.652344 25.203125 167.011719 25.527344 C 167.183594 25.683594 167.347656 25.816406 167.496094 25.921875 C 167.585938 25.992188 167.667969 26.046875 167.734375 26.082031 C 167.777344 26.109375 167.847656 26.117188 168.027344 26.195312 C 168.234375 26.285156 168.527344 26.621094 168.558594 26.933594 C 168.589844 27.261719 168.351562 27.554688 168.023438 27.585938 C 167.695312 27.617188 167.402344 27.378906 167.371094 27.050781 C 167.367188 27.023438 167.574219 27.300781 167.550781 27.289062 C 167.535156 27.285156 167.351562 27.242188 167.132812 27.113281 C 167.011719 27.046875 166.902344 26.96875 166.792969 26.886719 C 166.605469 26.75 166.410156 26.59375 166.210938 26.410156 C 165.796875 26.039062 165.386719 25.59375 164.953125 25.105469 C 164.304688 24.378906 163.640625 23.65625 163.222656 23.097656 C 163.152344 23 163.09375 22.917969 163.0625 22.878906 C 163.046875 22.863281 163.09375 22.902344 163.070312 22.882812 C 163.054688 22.871094 163.199219 22.957031 163.15625 22.9375 C 163.105469 22.914062 163.464844 22.984375 163.371094 22.984375 C 163.28125 22.984375 163.683594 22.890625 163.613281 22.925781 C 163.546875 22.960938 163.804688 22.746094 163.769531 22.792969 C 163.699219 22.886719 163.855469 22.425781 163.859375 22.511719 C 163.863281 22.546875 163.890625 22.652344 163.863281 22.847656 "/>
<path style=" stroke:none;fill-rule:nonzero;fill:rgb(7.058716%,1.176453%,46.665955%);fill-opacity:1;" d="M 166.09375 62.722656 C 166.128906 63.046875 165.894531 63.34375 165.566406 63.378906 C 165.238281 63.417969 164.945312 63.179688 164.910156 62.851562 C 164.894531 62.730469 164.890625 62.613281 164.886719 62.503906 C 164.882812 62.398438 164.890625 62.335938 164.890625 62.324219 C 164.890625 62.324219 164.902344 62.402344 164.894531 62.371094 C 164.886719 62.335938 164.996094 62.578125 164.957031 62.519531 C 164.902344 62.4375 165.164062 62.703125 165.121094 62.675781 C 165.0625 62.644531 165.199219 62.710938 165.199219 62.710938 C 165.191406 62.710938 165.167969 62.707031 165.128906 62.695312 C 165.074219 62.683594 165.03125 62.675781 164.976562 62.671875 C 164.746094 62.660156 164.546875 62.640625 164.277344 62.707031 C 163.964844 62.789062 163.527344 63.003906 163.078125 63.289062 C 162.699219 63.53125 162.324219 63.824219 162 64.136719 C 161.820312 64.3125 161.65625 64.5 161.515625 64.691406 C 161.324219 64.949219 161.1875 65.1875 161.117188 65.382812 C 161.042969 65.589844 161.042969 65.792969 161.089844 66.023438 C 161.125 66.199219 161.191406 66.386719 161.292969 66.601562 C 161.414062 66.855469 161.542969 67.109375 161.679688 67.335938 C 161.851562 67.625 162.03125 67.882812 162.199219 68.058594 C 162.289062 68.15625 162.394531 68.230469 162.535156 68.3125 C 162.738281 68.429688 162.886719 68.515625 163.035156 68.558594 C 163.21875 68.609375 163.4375 68.640625 163.703125 68.625 C 163.90625 68.613281 164.09375 68.601562 164.277344 68.558594 C 164.578125 68.492188 164.976562 68.292969 165.410156 68.050781 C 165.613281 67.9375 165.804688 67.839844 165.972656 67.738281 C 166.203125 67.597656 166.421875 67.4375 166.625 67.269531 C 166.882812 67.058594 167.089844 66.851562 167.222656 66.660156 C 167.335938 66.503906 167.398438 66.324219 167.441406 66.121094 C 167.492188 65.871094 167.503906 65.628906 167.46875 65.347656 C 167.441406 65.132812 167.371094 64.890625 167.273438 64.644531 C 167.152344 64.34375 166.992188 64.058594 166.820312 63.820312 C 166.488281 63.367188 166.050781 63.128906 165.636719 63.070312 C 165.230469 63.011719 164.847656 63.125 164.589844 63.371094 C 164.347656 63.59375 163.972656 63.582031 163.746094 63.34375 C 163.519531 63.101562 163.53125 62.726562 163.773438 62.5 C 164.3125 61.992188 165.074219 61.785156 165.804688 61.886719 C 166.539062 61.992188 167.269531 62.417969 167.78125 63.117188 C 168.019531 63.441406 168.222656 63.808594 168.378906 64.199219 C 168.503906 64.511719 168.605469 64.847656 168.652344 65.195312 C 168.703125 65.601562 168.6875 65.992188 168.609375 66.363281 C 168.546875 66.675781 168.429688 67.023438 168.195312 67.351562 C 167.976562 67.660156 167.699219 67.933594 167.382812 68.191406 C 167.148438 68.382812 166.882812 68.582031 166.585938 68.757812 C 166.378906 68.882812 166.175781 68.988281 165.992188 69.09375 C 165.535156 69.347656 165.0625 69.605469 164.539062 69.722656 C 164.246094 69.789062 163.984375 69.804688 163.769531 69.816406 C 163.378906 69.835938 163.019531 69.792969 162.707031 69.707031 C 162.378906 69.613281 162.132812 69.457031 161.933594 69.339844 C 161.753906 69.234375 161.527344 69.09375 161.324219 68.871094 C 161.074219 68.601562 160.859375 68.285156 160.65625 67.953125 C 160.484375 67.667969 160.34375 67.378906 160.21875 67.113281 C 160.085938 66.839844 159.980469 66.558594 159.917969 66.253906 C 159.84375 65.875 159.832031 65.429688 159.992188 64.984375 C 160.121094 64.628906 160.320312 64.300781 160.558594 63.980469 C 160.734375 63.742188 160.9375 63.503906 161.171875 63.277344 C 161.558594 62.90625 161.992188 62.566406 162.4375 62.28125 C 162.949219 61.957031 163.464844 61.683594 163.984375 61.550781 C 164.449219 61.433594 164.839844 61.46875 165.046875 61.484375 C 165.1875 61.492188 165.300781 61.511719 165.382812 61.53125 C 165.449219 61.546875 165.6875 61.460938 165.953125 61.863281 C 166.191406 62.226562 166.078125 62.445312 166.078125 62.457031 C 166.082031 62.566406 166.085938 62.660156 166.09375 62.722656 "/>
<path style=" stroke:none;fill-rule:nonzero;fill:rgb(7.058716%,1.176453%,46.665955%);fill-opacity:1;" d="M 165.492188 66.417969 C 165.523438 66.746094 165.289062 67.039062 164.960938 67.074219 C 164.632812 67.105469 164.339844 66.871094 164.304688 66.542969 C 164.296875 66.457031 164.183594 66.335938 164.445312 66.027344 C 164.597656 65.839844 164.945312 65.785156 165.109375 65.839844 C 165.25 65.886719 165.304688 65.945312 165.347656 65.984375 C 165.488281 66.117188 165.527344 66.203125 165.601562 66.316406 C 165.730469 66.519531 165.925781 66.8125 166.125 67.132812 C 166.429688 67.609375 166.722656 68.109375 166.992188 68.542969 C 167.140625 68.773438 167.269531 68.96875 167.382812 69.109375 C 167.472656 69.214844 167.558594 69.292969 167.617188 69.335938 C 167.652344 69.359375 167.710938 69.371094 167.878906 69.398438 C 167.972656 69.417969 168.105469 69.433594 168.269531 69.53125 C 168.445312 69.632812 168.601562 69.84375 168.65625 70.046875 C 168.738281 70.363281 168.550781 70.691406 168.230469 70.773438 C 167.914062 70.859375 167.585938 70.667969 167.503906 70.351562 C 167.488281 70.296875 167.738281 70.601562 167.667969 70.5625 C 167.609375 70.527344 167.730469 70.585938 167.679688 70.578125 C 167.546875 70.554688 167.238281 70.527344 166.933594 70.3125 C 166.761719 70.191406 166.609375 70.042969 166.464844 69.871094 C 166.289062 69.65625 166.136719 69.421875 165.984375 69.175781 C 165.699219 68.722656 165.40625 68.226562 165.117188 67.769531 C 164.921875 67.460938 164.734375 67.175781 164.597656 66.957031 C 164.566406 66.910156 164.539062 66.871094 164.523438 66.847656 C 164.507812 66.828125 164.574219 66.894531 164.535156 66.855469 C 164.523438 66.847656 164.617188 66.917969 164.589844 66.902344 C 164.5625 66.882812 164.792969 66.992188 164.726562 66.96875 C 164.65625 66.945312 165.164062 66.960938 165.035156 66.988281 C 164.96875 67 165.28125 66.875 165.222656 66.910156 C 165.167969 66.945312 165.394531 66.746094 165.359375 66.789062 C 165.292969 66.871094 165.484375 66.535156 165.472656 66.585938 C 165.449219 66.65625 165.492188 66.425781 165.492188 66.449219 C 165.492188 66.472656 165.492188 66.414062 165.492188 66.417969 "/>
<path style=" stroke:none;fill-rule:nonzero;fill:rgb(7.058716%,1.176453%,46.665955%);fill-opacity:1;" d="M 161.066406 59.863281 C 161.234375 60.148438 161.144531 60.515625 160.859375 60.683594 C 160.578125 60.851562 160.210938 60.761719 160.042969 60.476562 C 160.011719 60.425781 159.941406 60.335938 159.902344 60.144531 C 159.855469 59.933594 159.972656 59.539062 160.214844 59.382812 C 160.542969 59.167969 160.714844 59.234375 160.921875 59.222656 C 161.078125 59.214844 161.285156 59.203125 161.539062 59.199219 C 161.816406 59.191406 162.136719 59.191406 162.492188 59.1875 C 162.984375 59.183594 163.53125 59.183594 164.097656 59.171875 C 164.386719 59.164062 164.691406 59.148438 164.992188 59.136719 C 165.417969 59.117188 165.828125 59.09375 166.214844 59.074219 C 166.613281 59.058594 166.976562 59.054688 167.277344 59.050781 C 167.710938 59.042969 167.992188 59.03125 168.285156 59.113281 C 168.449219 59.160156 168.625 59.269531 168.730469 59.441406 C 168.835938 59.613281 168.855469 59.808594 168.816406 59.972656 C 168.726562 60.363281 168.5 60.40625 168.402344 60.453125 C 168.101562 60.585938 167.75 60.453125 167.613281 60.152344 C 167.476562 59.851562 167.613281 59.5 167.910156 59.363281 C 167.925781 59.359375 167.789062 59.449219 167.832031 59.414062 C 167.855469 59.394531 167.714844 59.546875 167.746094 59.503906 C 167.78125 59.457031 167.636719 59.789062 167.65625 59.703125 C 167.667969 59.644531 167.65625 59.945312 167.648438 59.882812 C 167.636719 59.816406 167.75 60.128906 167.714844 60.070312 C 167.679688 60.011719 167.890625 60.238281 167.84375 60.207031 C 167.800781 60.175781 167.988281 60.269531 167.960938 60.261719 C 167.957031 60.261719 167.699219 60.238281 167.289062 60.242188 C 166.992188 60.246094 166.644531 60.25 166.269531 60.269531 C 165.890625 60.285156 165.476562 60.308594 165.046875 60.328125 C 164.746094 60.339844 164.4375 60.359375 164.125 60.363281 C 163.542969 60.375 162.988281 60.378906 162.5 60.378906 C 162.140625 60.382812 161.828125 60.382812 161.566406 60.390625 C 161.335938 60.394531 161.148438 60.40625 160.988281 60.414062 C 160.886719 60.421875 160.804688 60.425781 160.765625 60.429688 C 160.75 60.433594 160.769531 60.429688 160.757812 60.433594 C 160.742188 60.4375 160.917969 60.347656 160.863281 60.382812 C 160.800781 60.421875 161.085938 60.035156 161.046875 60.144531 C 161.011719 60.25 161.054688 59.839844 161.066406 59.890625 C 161.074219 59.9375 161.042969 59.824219 161.046875 59.828125 C 161.046875 59.828125 161.054688 59.84375 161.066406 59.863281 M 168.238281 60.5 C 167.914062 60.542969 167.613281 60.316406 167.566406 59.988281 C 167.519531 59.664062 167.75 59.363281 168.074219 59.316406 C 168.21875 59.296875 167.929688 59.363281 167.988281 59.339844 C 168.292969 59.222656 168.640625 59.378906 168.757812 59.683594 C 168.875 59.992188 168.722656 60.339844 168.414062 60.457031 C 168.363281 60.476562 168.308594 60.488281 168.261719 60.496094 C 168.238281 60.5 168.21875 60.5 168.207031 60.503906 C 168.195312 60.503906 168.296875 60.492188 168.238281 60.5 "/>
</g>
</svg>
