<?xml version="1.0" encoding="UTF-8"?>
<svg xmlns="http://www.w3.org/2000/svg" xmlns:xlink="http://www.w3.org/1999/xlink" width="134.5835pt" height="167.3922pt" viewBox="0 0 134.5835 167.3922" version="1.2">
<g id="surface1">
<path style=" stroke:none;fill-rule:nonzero;fill:rgb(7.058716%,1.176453%,46.665955%);fill-opacity:1;" d="M 54.214844 95.570312 C 54.523438 95.570312 54.773438 95.820312 54.773438 96.128906 C 54.773438 96.4375 54.523438 96.691406 54.214844 96.691406 L 40.71875 96.691406 C 40.40625 96.691406 40.15625 96.4375 40.15625 96.128906 C 40.15625 95.820312 40.40625 95.570312 40.71875 95.570312 Z M 54.214844 95.570312 "/>
<path style=" stroke:none;fill-rule:nonzero;fill:rgb(7.058716%,1.176453%,46.665955%);fill-opacity:1;" d="M 40.15625 96.128906 C 40.15625 95.820312 40.40625 95.570312 40.71875 95.570312 C 41.027344 95.570312 41.277344 95.820312 41.277344 96.128906 L 41.277344 119.488281 C 41.277344 119.796875 41.027344 120.046875 40.71875 120.046875 C 40.40625 120.046875 40.15625 119.796875 40.15625 119.488281 Z M 40.15625 96.128906 "/>
<path style=" stroke:none;fill-rule:nonzero;fill:rgb(7.058716%,1.176453%,46.665955%);fill-opacity:1;" d="M 40.71875 120.046875 C 40.40625 120.046875 40.15625 119.796875 40.15625 119.488281 C 40.15625 119.179688 40.40625 118.929688 40.71875 118.929688 L 54.214844 118.929688 C 54.523438 118.929688 54.773438 119.179688 54.773438 119.488281 C 54.773438 119.796875 54.523438 120.046875 54.214844 120.046875 Z M 40.71875 120.046875 "/>
<path style=" stroke:none;fill-rule:nonzero;fill:rgb(7.058716%,1.176453%,46.665955%);fill-opacity:1;" d="M 53.652344 119.488281 C 53.652344 119.179688 53.902344 118.929688 54.214844 118.929688 C 54.523438 118.929688 54.773438 119.179688 54.773438 119.488281 L 54.773438 139.570312 C 54.773438 139.878906 54.523438 140.132812 54.214844 140.132812 C 53.902344 140.132812 53.652344 139.878906 53.652344 139.570312 Z M 53.652344 119.488281 "/>
<path style=" stroke:none;fill-rule:nonzero;fill:rgb(7.058716%,1.176453%,46.665955%);fill-opacity:1;" d="M 36.726562 97.054688 C 36.726562 96.746094 36.976562 96.496094 37.285156 96.496094 C 37.59375 96.496094 37.84375 96.746094 37.84375 97.054688 L 37.84375 118.5625 C 37.84375 118.871094 37.59375 119.121094 37.285156 119.121094 C 36.976562 119.121094 36.726562 118.871094 36.726562 118.5625 Z M 36.726562 97.054688 "/>
<path style=" stroke:none;fill-rule:nonzero;fill:rgb(7.058716%,1.176453%,46.665955%);fill-opacity:1;" d="M 18.824219 108.367188 C 18.515625 108.367188 18.265625 108.117188 18.265625 107.808594 C 18.265625 107.5 18.515625 107.25 18.824219 107.25 L 37.285156 107.25 C 37.59375 107.25 37.84375 107.5 37.84375 107.808594 C 37.84375 108.117188 37.59375 108.367188 37.285156 108.367188 Z M 18.824219 108.367188 "/>
<path style=" stroke:none;fill-rule:nonzero;fill:rgb(7.058716%,1.176453%,46.665955%);fill-opacity:1;" d="M 53.652344 76.046875 C 53.652344 75.738281 53.902344 75.484375 54.214844 75.484375 C 54.523438 75.484375 54.773438 75.738281 54.773438 76.046875 L 54.773438 96.128906 C 54.773438 96.4375 54.523438 96.691406 54.214844 96.691406 C 53.902344 96.691406 53.652344 96.4375 53.652344 96.128906 Z M 53.652344 76.046875 "/>
<path style=" stroke:none;fill-rule:nonzero;fill:rgb(7.058716%,1.176453%,46.665955%);fill-opacity:1;" d="M 49.003906 116.007812 C 49.003906 115.695312 49.253906 115.445312 49.5625 115.445312 C 49.871094 115.445312 50.125 115.695312 50.125 116.007812 L 50.125 122.96875 C 50.125 123.28125 49.871094 123.53125 49.5625 123.53125 C 49.253906 123.53125 49.003906 123.28125 49.003906 122.96875 Z M 49.003906 116.007812 "/>
<path style=" stroke:none;fill-rule:nonzero;fill:rgb(7.058716%,1.176453%,46.665955%);fill-opacity:1;" d="M 49.226562 116.453125 C 48.980469 116.269531 48.929688 115.917969 49.113281 115.671875 C 49.300781 115.421875 49.652344 115.371094 49.898438 115.558594 L 54.550781 119.039062 C 54.796875 119.226562 54.847656 119.578125 54.660156 119.824219 C 54.476562 120.070312 54.125 120.121094 53.878906 119.9375 Z M 49.226562 116.453125 "/>
<path style=" stroke:none;fill-rule:nonzero;fill:rgb(7.058716%,1.176453%,46.665955%);fill-opacity:1;" d="M 49.898438 123.417969 C 49.652344 123.605469 49.300781 123.554688 49.113281 123.304688 C 48.929688 123.058594 48.980469 122.707031 49.226562 122.523438 L 53.878906 119.039062 C 54.125 118.855469 54.476562 118.90625 54.660156 119.152344 C 54.847656 119.398438 54.796875 119.75 54.550781 119.9375 Z M 49.898438 123.417969 "/>
<path style=" stroke:none;fill-rule:nonzero;fill:rgb(7.058716%,1.176453%,46.665955%);fill-opacity:1;" d="M 50.59375 117.191406 C 50.898438 117.25 51.09375 117.546875 51.035156 117.851562 C 50.972656 118.152344 50.679688 118.351562 50.375 118.289062 C 49.902344 118.195312 49.96875 118.019531 49.9375 117.980469 C 49.890625 117.917969 49.863281 117.867188 49.851562 117.84375 C 49.84375 117.832031 49.847656 117.839844 49.84375 117.832031 C 49.839844 117.828125 49.910156 117.921875 49.882812 117.890625 C 49.683594 117.652344 49.714844 117.300781 49.949219 117.101562 C 50.1875 116.898438 50.539062 116.929688 50.742188 117.164062 C 50.871094 117.320312 50.785156 117.242188 50.820312 117.289062 C 50.839844 117.316406 50.84375 117.320312 50.847656 117.324219 C 50.851562 117.332031 50.773438 117.261719 50.804688 117.285156 C 50.820312 117.296875 50.703125 117.222656 50.734375 117.242188 C 50.769531 117.257812 50.535156 117.179688 50.59375 117.191406 M 49.792969 117.316406 C 49.914062 117.03125 50.246094 116.898438 50.527344 117.019531 C 50.8125 117.140625 50.945312 117.46875 50.824219 117.753906 C 50.824219 117.757812 50.828125 117.746094 50.828125 117.746094 C 50.824219 117.753906 50.832031 117.738281 50.832031 117.742188 C 50.828125 117.742188 50.832031 117.71875 50.832031 117.730469 C 50.828125 117.789062 50.824219 117.84375 50.824219 117.886719 C 50.820312 118.132812 50.820312 118.40625 50.824219 118.738281 C 50.828125 119.03125 50.824219 119.355469 50.824219 119.6875 C 50.824219 119.90625 50.824219 120.125 50.824219 120.316406 C 50.824219 120.453125 50.824219 120.574219 50.824219 120.679688 C 50.824219 120.820312 50.828125 120.921875 50.835938 120.988281 C 50.835938 121.003906 50.851562 121.054688 50.875 121.132812 C 50.890625 121.1875 50.902344 121.230469 50.90625 121.246094 C 50.90625 121.25 50.890625 121.207031 50.898438 121.226562 C 50.902344 121.238281 50.859375 121.152344 50.875 121.175781 C 50.886719 121.199219 50.75 121.027344 50.792969 121.070312 C 50.828125 121.105469 50.585938 120.933594 50.648438 120.964844 C 50.925781 121.105469 51.039062 121.441406 50.898438 121.71875 C 50.761719 121.996094 50.425781 122.105469 50.148438 121.96875 C 50.082031 121.9375 50.035156 121.894531 49.996094 121.859375 C 49.691406 121.550781 49.816406 121.511719 49.800781 121.453125 C 49.78125 121.390625 49.742188 121.28125 49.722656 121.136719 C 49.703125 120.96875 49.703125 120.824219 49.703125 120.6875 C 49.703125 120.574219 49.703125 120.453125 49.703125 120.316406 C 49.703125 120.125 49.703125 119.90625 49.703125 119.6875 C 49.703125 119.351562 49.707031 119.027344 49.703125 118.746094 C 49.703125 118.414062 49.699219 118.132812 49.703125 117.871094 C 49.707031 117.789062 49.710938 117.722656 49.710938 117.671875 C 49.71875 117.566406 49.738281 117.480469 49.757812 117.414062 C 49.765625 117.382812 49.777344 117.355469 49.785156 117.335938 C 49.789062 117.328125 49.792969 117.320312 49.792969 117.316406 M 50.566406 122.003906 C 50.269531 122.09375 49.957031 121.925781 49.867188 121.628906 C 49.78125 121.332031 49.949219 121.019531 50.246094 120.929688 C 50.308594 120.914062 50.0625 121.023438 50.101562 121 C 50.136719 120.976562 49.996094 121.089844 50.015625 121.066406 C 50.0625 121.019531 49.921875 121.195312 49.9375 121.171875 C 49.949219 121.152344 49.914062 121.222656 49.917969 121.214844 C 49.929688 121.179688 49.914062 121.207031 49.933594 121.132812 C 50.003906 120.847656 50.101562 120.519531 50.148438 120.109375 C 50.191406 119.761719 50.171875 119.300781 50.1875 118.816406 C 50.195312 118.570312 50.210938 118.328125 50.253906 118.101562 C 50.28125 117.9375 50.332031 117.804688 50.375 117.703125 C 50.40625 117.628906 50.449219 117.554688 50.515625 117.476562 C 50.550781 117.4375 50.597656 117.390625 50.675781 117.34375 C 50.757812 117.296875 50.898438 117.234375 51.089844 117.273438 C 51.390625 117.335938 51.589844 117.632812 51.527344 117.933594 C 51.464844 118.238281 51.171875 118.433594 50.867188 118.371094 C 50.777344 118.355469 51.167969 118.351562 51.105469 118.367188 C 51.042969 118.382812 51.277344 118.289062 51.242188 118.3125 C 51.179688 118.347656 51.375 118.195312 51.355469 118.21875 C 51.320312 118.257812 51.402344 118.144531 51.402344 118.152344 C 51.386719 118.1875 51.367188 118.242188 51.355469 118.300781 C 51.332031 118.441406 51.3125 118.640625 51.308594 118.851562 C 51.292969 119.285156 51.316406 119.765625 51.261719 120.238281 C 51.203125 120.753906 51.082031 121.15625 51.019531 121.402344 C 51.011719 121.445312 51.003906 121.511719 50.953125 121.632812 C 50.933594 121.6875 50.917969 121.75 50.8125 121.859375 C 50.765625 121.90625 50.691406 121.96875 50.566406 122.003906 M 50.5 118.113281 C 50.34375 117.84375 50.433594 117.503906 50.699219 117.34375 C 50.964844 117.1875 51.308594 117.277344 51.46875 117.542969 C 51.46875 117.546875 51.472656 117.550781 51.472656 117.554688 C 51.515625 117.636719 51.527344 117.6875 51.539062 117.730469 C 51.550781 117.804688 51.550781 117.847656 51.550781 117.890625 C 51.550781 117.96875 51.542969 118.035156 51.53125 118.105469 C 51.523438 118.148438 51.535156 118.015625 51.535156 118.027344 C 51.535156 118.042969 51.554688 118.078125 51.574219 118.214844 C 51.589844 118.324219 51.597656 118.429688 51.609375 118.546875 C 51.621094 118.691406 51.628906 118.847656 51.636719 119.023438 C 51.648438 119.316406 51.648438 119.632812 51.652344 119.910156 C 51.65625 120.046875 51.664062 120.171875 51.667969 120.289062 C 51.671875 120.382812 51.675781 120.457031 51.675781 120.460938 C 51.675781 120.496094 51.675781 120.480469 51.675781 120.5 C 51.679688 120.507812 51.667969 120.445312 51.671875 120.464844 C 51.675781 120.484375 51.621094 120.328125 51.640625 120.371094 C 51.765625 120.65625 51.632812 120.984375 51.351562 121.109375 C 51.066406 121.234375 50.738281 121.105469 50.613281 120.820312 C 50.574219 120.726562 50.570312 120.6875 50.566406 120.65625 C 50.5625 120.605469 50.558594 120.582031 50.558594 120.5625 C 50.550781 120.472656 50.550781 120.410156 50.550781 120.339844 C 50.542969 120.230469 50.535156 120.09375 50.53125 119.929688 C 50.527344 119.644531 50.527344 119.328125 50.515625 119.070312 C 50.507812 118.898438 50.503906 118.753906 50.492188 118.640625 C 50.484375 118.535156 50.476562 118.457031 50.464844 118.367188 C 50.460938 118.359375 50.378906 118.242188 50.425781 117.9375 C 50.429688 117.902344 50.429688 117.882812 50.429688 117.878906 C 50.429688 117.875 50.449219 118.003906 50.4375 117.953125 C 50.433594 117.921875 50.535156 118.175781 50.496094 118.101562 C 50.492188 118.097656 50.503906 118.117188 50.5 118.113281 M 51.21875 121.15625 C 50.914062 121.203125 50.625 120.992188 50.578125 120.6875 C 50.53125 120.382812 50.742188 120.09375 51.046875 120.046875 C 51.160156 120.03125 50.75 120.191406 50.800781 120.152344 C 50.851562 120.113281 50.6875 120.269531 50.707031 120.246094 C 50.742188 120.199219 50.648438 120.335938 50.65625 120.324219 C 50.664062 120.308594 50.652344 120.328125 50.660156 120.304688 C 50.679688 120.25 50.710938 120.15625 50.75 120.050781 C 50.839844 119.816406 50.953125 119.582031 51.042969 119.363281 C 51.164062 119.078125 51.257812 118.8125 51.296875 118.609375 C 51.308594 118.550781 51.3125 118.472656 51.3125 118.363281 C 51.3125 118.273438 51.3125 118.191406 51.3125 118.117188 C 51.308594 117.996094 51.3125 117.890625 51.3125 117.847656 C 51.3125 117.84375 51.3125 117.839844 51.3125 117.835938 C 51.316406 117.527344 51.574219 117.28125 51.882812 117.285156 C 52.191406 117.289062 52.4375 117.546875 52.433594 117.855469 C 52.433594 117.859375 52.433594 117.847656 52.433594 117.847656 C 52.433594 117.90625 52.429688 117.996094 52.433594 118.101562 C 52.433594 118.1875 52.433594 118.277344 52.433594 118.371094 C 52.429688 118.480469 52.433594 118.640625 52.398438 118.824219 C 52.332031 119.152344 52.210938 119.476562 52.078125 119.796875 C 51.972656 120.050781 51.859375 120.28125 51.796875 120.445312 C 51.773438 120.511719 51.75 120.585938 51.722656 120.667969 C 51.707031 120.710938 51.695312 120.75 51.664062 120.8125 C 51.648438 120.84375 51.632812 120.882812 51.585938 120.9375 C 51.539062 121 51.445312 121.121094 51.21875 121.15625 M 51.316406 117.894531 C 51.289062 117.585938 51.515625 117.3125 51.824219 117.289062 C 52.132812 117.261719 52.40625 117.488281 52.429688 117.796875 C 52.433594 117.816406 52.433594 117.824219 52.433594 117.835938 C 52.433594 117.859375 52.433594 117.894531 52.4375 117.933594 C 52.4375 118.023438 52.4375 118.140625 52.433594 118.28125 C 52.414062 118.703125 52.339844 119.164062 52.289062 119.535156 C 52.273438 119.65625 52.257812 119.761719 52.25 119.851562 C 52.242188 119.9375 52.230469 119.871094 52.238281 119.925781 C 52.25 119.992188 52.246094 120.011719 52.246094 120.023438 C 52.25 120.03125 52.210938 119.886719 52.226562 119.9375 C 52.246094 119.992188 52.011719 119.648438 52.089844 119.722656 C 52.152344 119.78125 51.835938 119.59375 51.894531 119.613281 C 51.953125 119.628906 51.710938 119.597656 51.75 119.597656 C 51.824219 119.589844 51.558594 119.664062 51.59375 119.640625 C 51.652344 119.609375 51.453125 119.765625 51.476562 119.738281 C 51.507812 119.703125 51.4375 119.792969 51.441406 119.789062 C 51.445312 119.785156 51.453125 119.761719 51.476562 119.722656 C 51.570312 119.574219 51.675781 119.382812 51.742188 119.207031 C 51.789062 119.082031 51.832031 118.976562 51.863281 118.894531 C 51.902344 118.777344 51.929688 118.664062 51.988281 118.527344 C 51.988281 118.519531 51.9375 118.554688 52.066406 118.339844 C 52.222656 118.074219 52.570312 117.988281 52.832031 118.148438 C 53.097656 118.308594 53.183594 118.652344 53.027344 118.917969 C 52.992188 118.972656 53.070312 118.820312 53.066406 118.828125 C 53.0625 118.839844 53.054688 118.878906 53.023438 118.960938 C 53.015625 118.972656 52.972656 119.113281 52.917969 119.269531 C 52.875 119.394531 52.828125 119.5 52.792969 119.59375 C 52.6875 119.882812 52.546875 120.128906 52.433594 120.3125 C 52.421875 120.328125 52.445312 120.441406 52.164062 120.605469 C 52.0625 120.664062 51.953125 120.707031 51.816406 120.714844 C 51.679688 120.722656 51.488281 120.691406 51.328125 120.542969 C 51.148438 120.375 51.140625 120.210938 51.132812 120.144531 C 51.128906 120.089844 51.132812 120.109375 51.128906 120.09375 C 51.105469 119.929688 51.125 119.828125 51.132812 119.742188 C 51.144531 119.628906 51.160156 119.507812 51.179688 119.378906 C 51.230469 119 51.300781 118.558594 51.3125 118.238281 C 51.316406 118.125 51.316406 118.023438 51.316406 117.953125 C 51.316406 117.921875 51.3125 117.894531 51.3125 117.886719 C 51.3125 117.882812 51.316406 117.90625 51.316406 117.894531 M 52.011719 118.796875 C 51.921875 118.5 52.089844 118.1875 52.382812 118.097656 C 52.679688 118.007812 52.992188 118.171875 53.082031 118.46875 C 53.097656 118.519531 53.101562 118.546875 53.105469 118.578125 C 53.113281 118.636719 53.117188 118.691406 53.113281 118.753906 C 53.113281 118.757812 53.117188 118.835938 53.113281 118.9375 C 53.109375 119.027344 53.113281 119.136719 53.113281 119.253906 C 53.113281 119.296875 53.113281 119.335938 53.113281 119.378906 C 53.113281 119.480469 53.105469 119.492188 53.109375 119.523438 C 53.117188 119.589844 53.117188 119.636719 53.117188 119.652344 C 53.117188 119.65625 53.109375 119.59375 53.113281 119.621094 C 53.117188 119.636719 53.089844 119.515625 53.097656 119.546875 C 53.109375 119.585938 52.996094 119.34375 53.035156 119.402344 C 53.203125 119.664062 53.125 120.011719 52.863281 120.175781 C 52.601562 120.34375 52.253906 120.265625 52.089844 120.003906 C 51.824219 119.589844 51.996094 119.65625 51.996094 119.640625 C 51.980469 119.507812 51.992188 119.441406 51.992188 119.378906 C 51.992188 119.335938 51.992188 119.296875 51.992188 119.253906 C 51.992188 119.148438 51.988281 119.035156 51.992188 118.910156 C 51.992188 118.859375 51.988281 118.800781 51.992188 118.699219 C 51.992188 118.695312 52 118.746094 51.996094 118.722656 C 51.992188 118.710938 52.023438 118.835938 52.011719 118.796875 M 52.984375 120.074219 C 52.777344 120.304688 52.421875 120.324219 52.191406 120.117188 C 51.960938 119.914062 51.941406 119.558594 52.148438 119.328125 C 52.152344 119.320312 52.160156 119.3125 52.171875 119.300781 C 52.191406 119.277344 52.210938 119.246094 52.21875 119.234375 C 52.285156 119.128906 52.296875 119.136719 52.320312 119.082031 C 52.335938 119.050781 52.347656 119.027344 52.347656 119.023438 C 52.347656 119.023438 52.335938 119.054688 52.339844 119.042969 C 52.347656 119.023438 52.300781 119.214844 52.3125 119.152344 C 52.355469 118.84375 52.644531 118.636719 52.949219 118.683594 C 53.253906 118.730469 53.464844 119.015625 53.417969 119.320312 C 53.382812 119.566406 53.34375 119.535156 53.34375 119.539062 C 53.269531 119.703125 53.210938 119.761719 53.167969 119.828125 C 53.125 119.898438 53.082031 119.953125 53.046875 119.996094 C 53.03125 120.019531 53.015625 120.035156 53.003906 120.050781 C 52.996094 120.058594 52.992188 120.066406 52.984375 120.074219 M 52.523438 118.792969 C 52.773438 118.609375 53.125 118.660156 53.308594 118.910156 C 53.492188 119.160156 53.4375 119.511719 53.191406 119.695312 C 53.167969 119.710938 53.160156 119.714844 53.15625 119.71875 C 53.148438 119.722656 53.144531 119.726562 53.140625 119.730469 C 53.089844 119.777344 53.039062 119.820312 52.976562 119.859375 C 52.941406 119.878906 52.902344 119.902344 52.835938 119.925781 C 52.761719 119.949219 52.609375 120.035156 52.34375 119.867188 C 52.082031 119.703125 52.003906 119.355469 52.167969 119.09375 C 52.335938 118.832031 52.679688 118.753906 52.941406 118.917969 C 53.011719 118.960938 52.695312 118.832031 52.753906 118.84375 C 52.832031 118.859375 52.53125 118.84375 52.574219 118.839844 C 52.613281 118.832031 52.460938 118.867188 52.484375 118.859375 C 52.535156 118.84375 52.382812 118.910156 52.394531 118.898438 C 52.417969 118.886719 52.351562 118.933594 52.359375 118.925781 C 52.417969 118.871094 52.46875 118.832031 52.503906 118.808594 C 52.519531 118.796875 52.523438 118.792969 52.523438 118.792969 "/>
<path style=" stroke:none;fill-rule:nonzero;fill:rgb(7.058716%,1.176453%,46.665955%);fill-opacity:1;" d="M 53.746094 21.023438 C 53.746094 20.714844 53.996094 20.464844 54.304688 20.464844 C 54.613281 20.464844 54.867188 20.714844 54.867188 21.023438 L 54.867188 37.09375 C 54.867188 37.402344 54.613281 37.652344 54.304688 37.652344 C 53.996094 37.652344 53.746094 37.402344 53.746094 37.09375 Z M 53.746094 21.023438 "/>
<path style=" stroke:none;fill-rule:nonzero;fill:rgb(7.058716%,1.176453%,46.665955%);fill-opacity:1;" d="M 69.304688 51.300781 C 69.304688 56.742188 66.359375 61.5 61.976562 64.058594 C 59.789062 65.335938 57.25 66.066406 54.535156 66.066406 C 49.09375 66.066406 44.335938 63.121094 41.773438 58.738281 C 40.5 56.554688 39.765625 54.011719 39.765625 51.300781 C 39.765625 45.855469 42.710938 41.101562 47.097656 38.539062 C 49.28125 37.261719 51.824219 36.53125 54.535156 36.53125 C 59.980469 36.53125 64.734375 39.476562 67.296875 43.859375 C 68.574219 46.042969 69.304688 48.585938 69.304688 51.300781 M 68.183594 51.300781 C 68.183594 48.792969 67.507812 46.445312 66.328125 44.425781 C 63.960938 40.375 59.566406 37.652344 54.535156 37.652344 C 52.03125 37.652344 49.679688 38.328125 47.660156 39.507812 C 43.609375 41.875 40.886719 46.269531 40.886719 51.300781 C 40.886719 53.804688 41.5625 56.15625 42.742188 58.171875 C 45.109375 62.226562 49.503906 64.949219 54.535156 64.949219 C 57.042969 64.949219 59.390625 64.273438 61.410156 63.09375 C 65.460938 60.726562 68.183594 56.332031 68.183594 51.300781 "/>
<path style=" stroke:none;fill-rule:nonzero;fill:rgb(7.058716%,1.176453%,46.665955%);fill-opacity:1;" d="M 53.652344 65.503906 C 53.652344 65.195312 53.902344 64.945312 54.214844 64.945312 C 54.523438 64.945312 54.773438 65.195312 54.773438 65.503906 L 54.773438 85.667969 C 54.773438 85.976562 54.523438 86.230469 54.214844 86.230469 C 53.902344 86.230469 53.652344 85.976562 53.652344 85.667969 Z M 53.652344 65.503906 "/>
<path style=" stroke:none;fill-rule:nonzero;fill:rgb(7.058716%,1.176453%,46.665955%);fill-opacity:1;" d="M 54.160156 40.628906 C 54.160156 40.320312 54.410156 40.066406 54.71875 40.066406 C 55.027344 40.066406 55.28125 40.320312 55.28125 40.628906 L 55.28125 61.96875 C 55.28125 62.28125 55.027344 62.53125 54.71875 62.53125 C 54.410156 62.53125 54.160156 62.28125 54.160156 61.96875 Z M 54.160156 40.628906 "/>
<path style=" stroke:none;fill-rule:nonzero;fill:rgb(7.058716%,1.176453%,46.665955%);fill-opacity:1;" d="M 54.53125 60.878906 L 56.945312 58.015625 L 52.109375 58.140625 Z M 54.121094 62.105469 L 50.472656 57.980469 C 50.160156 57.625 50.402344 57.0625 50.878906 57.050781 L 58.164062 56.863281 C 58.648438 56.851562 58.917969 57.417969 58.605469 57.785156 L 54.96875 62.097656 C 54.75 62.355469 54.347656 62.363281 54.121094 62.105469 "/>
<path style=" stroke:none;fill-rule:nonzero;fill:rgb(7.058716%,1.176453%,46.665955%);fill-opacity:1;" d="M 54.019531 60.382812 C 53.722656 60.472656 53.410156 60.304688 53.320312 60.011719 C 53.230469 59.714844 53.398438 59.402344 53.695312 59.3125 C 53.699219 59.308594 53.683594 59.316406 53.6875 59.3125 C 53.691406 59.3125 53.640625 59.335938 53.660156 59.328125 C 53.703125 59.304688 53.496094 59.492188 53.535156 59.4375 C 53.578125 59.382812 53.445312 59.796875 53.449219 59.691406 C 53.453125 59.574219 53.539062 60.007812 53.507812 59.949219 C 53.480469 59.898438 53.59375 60.058594 53.578125 60.042969 C 53.550781 60.015625 53.601562 60.066406 53.585938 60.054688 C 53.546875 60.027344 53.460938 59.976562 53.363281 59.914062 C 53.210938 59.8125 53.046875 59.695312 52.875 59.570312 C 52.734375 59.46875 52.609375 59.367188 52.492188 59.273438 C 52.273438 59.089844 52.09375 58.914062 52.046875 58.878906 C 51.929688 58.777344 51.9375 58.757812 51.910156 58.71875 C 51.722656 58.472656 51.769531 58.121094 52.015625 57.933594 C 52.261719 57.746094 52.613281 57.792969 52.800781 58.039062 C 52.804688 58.042969 52.84375 58.089844 52.894531 58.152344 C 52.960938 58.230469 53.023438 58.316406 53.097656 58.40625 C 53.3125 58.660156 53.574219 58.945312 53.84375 59.207031 C 53.960938 59.316406 54.085938 59.425781 54.203125 59.523438 C 54.320312 59.621094 54.433594 59.703125 54.484375 59.738281 C 54.519531 59.757812 54.546875 59.777344 54.558594 59.785156 C 54.5625 59.789062 54.546875 59.777344 54.554688 59.785156 C 54.566406 59.789062 54.355469 59.71875 54.441406 59.742188 L 54.167969 60.828125 C 53.800781 60.734375 53.882812 60.65625 53.863281 60.632812 C 53.8125 60.574219 53.796875 60.550781 53.773438 60.527344 C 53.691406 60.445312 53.585938 60.339844 53.472656 60.226562 C 53.320312 60.074219 53.179688 59.914062 53.039062 59.757812 C 52.859375 59.566406 52.660156 59.359375 52.476562 59.160156 C 52.382812 59.058594 52.292969 58.960938 52.214844 58.871094 C 52.152344 58.800781 52.105469 58.75 52.046875 58.644531 C 52.03125 58.613281 52.007812 58.578125 51.984375 58.480469 C 51.984375 58.476562 51.984375 58.472656 51.980469 58.464844 C 51.925781 58.160156 52.125 57.867188 52.429688 57.808594 C 52.730469 57.753906 53.023438 57.953125 53.082031 58.257812 C 53.082031 58.261719 53.078125 58.238281 53.078125 58.242188 C 53.101562 58.332031 53.019531 58.085938 53.03125 58.105469 C 53.058594 58.160156 53.023438 58.09375 53.058594 58.132812 C 53.121094 58.203125 53.207031 58.300781 53.300781 58.402344 C 53.472656 58.585938 53.671875 58.792969 53.863281 59 C 54.015625 59.167969 54.148438 59.316406 54.265625 59.4375 C 54.378906 59.550781 54.484375 59.65625 54.558594 59.730469 C 54.621094 59.789062 54.667969 59.84375 54.695312 59.882812 C 54.710938 59.898438 54.710938 59.902344 54.714844 59.90625 C 54.71875 59.910156 54.664062 59.855469 54.6875 59.875 C 54.699219 59.886719 54.597656 59.804688 54.628906 59.828125 C 54.644531 59.839844 54.535156 59.773438 54.566406 59.789062 C 54.59375 59.804688 54.386719 59.726562 54.441406 59.742188 C 54.742188 59.816406 54.921875 60.121094 54.847656 60.417969 C 54.773438 60.71875 54.46875 60.902344 54.167969 60.828125 C 53.875 60.753906 53.929688 60.714844 53.878906 60.679688 C 53.761719 60.605469 53.632812 60.507812 53.488281 60.386719 C 53.351562 60.273438 53.210938 60.148438 53.070312 60.015625 C 52.765625 59.722656 52.476562 59.414062 52.238281 59.121094 C 52.144531 59.011719 52.070312 58.917969 52.03125 58.867188 C 51.980469 58.808594 51.949219 58.769531 51.910156 58.71875 L 52.800781 58.039062 C 52.835938 58.082031 52.832031 58.082031 52.835938 58.085938 C 52.839844 58.097656 52.75 58.003906 52.78125 58.03125 C 52.886719 58.121094 53.027344 58.257812 53.207031 58.40625 C 53.316406 58.5 53.425781 58.589844 53.53125 58.664062 C 53.695312 58.78125 53.851562 58.890625 53.980469 58.976562 C 54.050781 59.023438 54.132812 59.070312 54.222656 59.132812 C 54.269531 59.167969 54.324219 59.203125 54.386719 59.269531 C 54.453125 59.339844 54.578125 59.472656 54.570312 59.726562 C 54.558594 60.027344 54.378906 60.207031 54.210938 60.300781 C 54.152344 60.335938 54.105469 60.355469 54.066406 60.367188 C 54.046875 60.375 54.03125 60.378906 54.019531 60.382812 M 52.394531 58.898438 C 52.09375 58.816406 51.917969 58.511719 51.996094 58.210938 C 52.078125 57.910156 52.382812 57.734375 52.683594 57.8125 C 52.746094 57.832031 52.78125 57.847656 52.808594 57.863281 C 52.855469 57.886719 52.878906 57.90625 52.902344 57.925781 C 53.042969 58.035156 53.148438 58.148438 53.28125 58.28125 C 53.558594 58.554688 53.875 58.878906 54.179688 59.152344 C 54.292969 59.253906 54.40625 59.351562 54.507812 59.429688 C 54.613281 59.507812 54.675781 59.542969 54.6875 59.546875 C 54.707031 59.550781 54.558594 59.527344 54.597656 59.53125 C 54.640625 59.53125 54.378906 59.574219 54.441406 59.554688 C 54.503906 59.53125 54.207031 59.710938 54.261719 59.664062 C 54.3125 59.613281 54.132812 59.875 54.152344 59.824219 C 54.183594 59.746094 54.125 60.015625 54.125 59.984375 C 54.121094 59.941406 54.128906 60.027344 54.125 60.015625 C 54.121094 60 54.109375 59.972656 54.09375 59.9375 C 54.054688 59.867188 53.9375 59.71875 53.796875 59.554688 C 53.726562 59.476562 53.667969 59.402344 53.613281 59.339844 C 53.550781 59.269531 53.492188 59.207031 53.460938 59.171875 C 53.421875 59.132812 53.414062 59.125 53.402344 59.117188 C 53.394531 59.113281 53.457031 59.152344 53.4375 59.140625 C 53.414062 59.125 53.632812 59.210938 53.5625 59.191406 C 53.507812 59.175781 53.910156 59.179688 53.804688 59.199219 C 53.5 59.257812 53.207031 59.058594 53.148438 58.757812 C 53.085938 58.453125 53.285156 58.160156 53.589844 58.097656 C 53.703125 58.078125 53.789062 58.09375 53.847656 58.109375 C 53.996094 58.148438 54.039062 58.195312 54.078125 58.222656 C 54.152344 58.28125 54.195312 58.324219 54.246094 58.371094 C 54.320312 58.449219 54.386719 58.527344 54.453125 58.601562 C 54.523438 58.679688 54.585938 58.757812 54.648438 58.828125 C 54.785156 58.988281 54.960938 59.171875 55.089844 59.429688 C 55.1875 59.621094 55.359375 59.816406 55.195312 60.234375 C 55.132812 60.394531 54.976562 60.554688 54.792969 60.617188 C 54.617188 60.675781 54.457031 60.652344 54.335938 60.609375 C 54.140625 60.546875 53.988281 60.445312 53.824219 60.316406 C 53.699219 60.21875 53.5625 60.105469 53.425781 59.984375 C 53.085938 59.675781 52.761719 59.339844 52.496094 59.082031 C 52.355469 58.941406 52.226562 58.820312 52.222656 58.816406 C 52.214844 58.8125 52.320312 58.875 52.28125 58.851562 C 52.257812 58.839844 52.449219 58.914062 52.394531 58.898438 M 53.238281 58.320312 C 53.425781 58.070312 53.773438 58.019531 54.023438 58.203125 C 54.273438 58.386719 54.324219 58.738281 54.140625 58.984375 C 54.085938 59.0625 54.246094 58.722656 54.234375 58.78125 C 54.214844 58.871094 54.234375 58.566406 54.238281 58.601562 C 54.246094 58.640625 54.226562 58.554688 54.230469 58.566406 C 54.238281 58.578125 54.25 58.605469 54.269531 58.636719 C 54.324219 58.734375 54.410156 58.867188 54.5 59.011719 C 54.59375 59.160156 54.710938 59.320312 54.828125 59.480469 C 54.964844 59.664062 55.089844 59.8125 55.167969 59.882812 C 55.207031 59.921875 55.203125 59.921875 55.21875 59.929688 C 55.230469 59.9375 55.058594 59.882812 55.117188 59.894531 C 55.152344 59.902344 54.941406 59.890625 54.992188 59.886719 C 55.046875 59.882812 54.757812 59.960938 54.816406 59.929688 C 54.917969 59.882812 54.5625 60.175781 54.601562 60.113281 C 54.640625 60.054688 54.527344 60.285156 54.539062 60.25 C 54.554688 60.191406 54.523438 60.34375 54.523438 60.335938 C 54.523438 60.332031 54.519531 60.300781 54.515625 60.257812 C 54.503906 60.191406 54.355469 59.871094 54.167969 59.59375 C 54.082031 59.460938 53.980469 59.332031 53.890625 59.222656 C 53.832031 59.148438 53.78125 59.085938 53.746094 59.046875 C 53.734375 59.03125 53.730469 59.027344 53.726562 59.023438 C 53.722656 59.019531 53.832031 59.105469 53.78125 59.070312 C 53.53125 58.890625 53.476562 58.539062 53.65625 58.289062 C 53.839844 58.039062 54.191406 57.980469 54.441406 58.164062 C 54.496094 58.203125 54.507812 58.21875 54.519531 58.234375 C 54.546875 58.261719 54.570312 58.285156 54.59375 58.3125 C 54.644531 58.371094 54.703125 58.441406 54.769531 58.523438 C 54.863281 58.644531 54.984375 58.796875 55.097656 58.96875 C 55.324219 59.304688 55.558594 59.65625 55.625 60.09375 C 55.632812 60.167969 55.644531 60.246094 55.644531 60.351562 C 55.644531 60.40625 55.640625 60.46875 55.613281 60.5625 C 55.585938 60.664062 55.511719 60.84375 55.289062 60.949219 C 55.140625 61.015625 54.996094 61.011719 54.894531 60.992188 C 54.796875 60.972656 54.726562 60.9375 54.667969 60.90625 C 54.558594 60.84375 54.476562 60.773438 54.398438 60.699219 C 54.234375 60.546875 54.085938 60.359375 53.929688 60.148438 C 53.804688 59.984375 53.671875 59.800781 53.546875 59.601562 C 53.464844 59.46875 53.375 59.332031 53.296875 59.191406 C 53.21875 59.054688 53.046875 58.957031 53.140625 58.535156 C 53.15625 58.476562 53.183594 58.398438 53.238281 58.320312 M 53.554688 58.707031 C 53.503906 58.402344 53.710938 58.113281 54.015625 58.0625 C 54.324219 58.015625 54.609375 58.222656 54.660156 58.527344 C 54.675781 58.617188 54.605469 58.367188 54.617188 58.386719 C 54.648438 58.449219 54.71875 58.519531 54.894531 58.726562 C 55.011719 58.871094 55.144531 59.019531 55.261719 59.140625 C 55.339844 59.222656 55.402344 59.289062 55.433594 59.320312 C 55.445312 59.328125 55.390625 59.292969 55.421875 59.3125 C 55.4375 59.320312 55.289062 59.257812 55.332031 59.269531 C 55.382812 59.289062 55.035156 59.257812 55.125 59.25 C 55.355469 59.226562 55.460938 59.3125 55.496094 59.332031 C 55.507812 59.335938 55.453125 59.3125 55.480469 59.324219 C 55.496094 59.328125 55.378906 59.285156 55.410156 59.296875 C 55.445312 59.308594 55.199219 59.269531 55.261719 59.273438 C 55.574219 59.277344 55.816406 59.535156 55.8125 59.84375 C 55.804688 60.152344 55.546875 60.398438 55.238281 60.390625 C 54.984375 60.386719 54.945312 60.308594 54.945312 60.308594 C 54.941406 60.304688 55.050781 60.351562 55.011719 60.335938 C 54.960938 60.320312 55.347656 60.351562 55.242188 60.363281 C 55.035156 60.386719 54.910156 60.3125 54.832031 60.265625 C 54.761719 60.222656 54.714844 60.179688 54.671875 60.140625 C 54.589844 60.066406 54.523438 59.992188 54.453125 59.914062 C 54.316406 59.773438 54.167969 59.609375 54.03125 59.445312 C 53.929688 59.320312 53.839844 59.214844 53.765625 59.121094 C 53.695312 59.027344 53.609375 59.046875 53.554688 58.707031 M 55.804688 59.917969 C 55.753906 60.222656 55.464844 60.429688 55.15625 60.375 C 54.851562 60.320312 54.648438 60.03125 54.703125 59.726562 C 54.703125 59.722656 54.699219 59.738281 54.699219 59.734375 C 54.703125 59.714844 54.699219 59.761719 54.699219 59.761719 C 54.699219 59.757812 54.699219 59.75 54.699219 59.746094 C 54.695312 59.699219 54.707031 59.804688 54.703125 59.792969 C 54.683594 59.742188 54.605469 59.59375 54.523438 59.441406 C 54.460938 59.332031 54.398438 59.226562 54.34375 59.136719 C 54.304688 59.074219 54.269531 59.015625 54.246094 58.972656 C 54.234375 58.953125 54.222656 58.9375 54.210938 58.910156 C 54.207031 58.90625 54.203125 58.898438 54.203125 58.894531 C 54.066406 58.617188 54.183594 58.28125 54.460938 58.148438 C 54.742188 58.011719 55.078125 58.128906 55.210938 58.40625 C 55.214844 58.410156 55.207031 58.394531 55.207031 58.398438 C 55.214844 58.410156 55.207031 58.394531 55.214844 58.410156 C 55.234375 58.441406 55.265625 58.496094 55.300781 58.558594 C 55.355469 58.648438 55.425781 58.761719 55.5 58.894531 C 55.617188 59.101562 55.796875 59.273438 55.816406 59.6875 C 55.820312 59.734375 55.820312 59.777344 55.816406 59.820312 C 55.816406 59.84375 55.816406 59.867188 55.808594 59.90625 C 55.808594 59.910156 55.808594 59.914062 55.804688 59.917969 M 54.269531 59 C 54.078125 58.757812 54.117188 58.40625 54.359375 58.210938 C 54.597656 58.019531 54.953125 58.058594 55.144531 58.300781 C 55.230469 58.402344 55.265625 58.472656 55.371094 58.636719 C 55.472656 58.785156 55.601562 58.964844 55.714844 59.121094 C 55.804688 59.238281 55.839844 59.28125 55.863281 59.300781 C 55.890625 59.320312 55.601562 59.199219 55.695312 59.222656 C 55.746094 59.234375 55.433594 59.222656 55.507812 59.214844 C 55.582031 59.203125 55.222656 59.335938 55.289062 59.296875 C 55.351562 59.253906 55.113281 59.476562 55.144531 59.429688 C 55.175781 59.386719 55.074219 59.574219 55.085938 59.542969 C 55.109375 59.488281 55.0625 59.664062 55.0625 59.648438 C 55.066406 59.613281 55.066406 59.539062 55.054688 59.46875 C 55.050781 59.414062 54.996094 59.277344 54.945312 59.085938 C 54.925781 59.003906 54.90625 58.921875 54.902344 58.808594 C 54.902344 58.746094 54.902344 58.667969 54.945312 58.558594 C 54.988281 58.4375 55.125 58.257812 55.320312 58.199219 C 55.578125 58.117188 55.726562 58.210938 55.804688 58.253906 C 55.875 58.292969 55.910156 58.328125 55.945312 58.355469 C 56.003906 58.410156 56.046875 58.449219 56.066406 58.46875 C 56.164062 58.554688 56.253906 58.636719 56.289062 58.660156 C 56.3125 58.675781 56.128906 58.597656 56.183594 58.609375 C 56.242188 58.628906 55.863281 58.628906 55.953125 58.609375 C 56.042969 58.585938 55.667969 58.796875 55.722656 58.742188 C 55.773438 58.6875 55.621094 58.917969 55.636719 58.882812 C 55.648438 58.84375 55.625 58.929688 55.625 58.921875 C 55.628906 58.878906 55.613281 58.726562 55.605469 58.550781 C 55.597656 58.421875 55.59375 58.292969 55.59375 58.175781 C 55.59375 58.054688 55.507812 57.898438 55.726562 57.578125 C 55.851562 57.398438 56.035156 57.335938 56.152344 57.320312 C 56.253906 57.304688 56.324219 57.3125 56.378906 57.320312 C 56.484375 57.339844 56.554688 57.363281 56.589844 57.371094 C 56.71875 57.410156 56.796875 57.46875 56.824219 57.488281 C 56.828125 57.488281 56.816406 57.480469 56.824219 57.484375 C 56.832031 57.492188 56.726562 57.4375 56.761719 57.453125 C 57.042969 57.585938 57.164062 57.917969 57.035156 58.199219 C 56.902344 58.476562 56.570312 58.601562 56.289062 58.46875 C 56.210938 58.433594 56.195312 58.414062 56.183594 58.40625 C 56.179688 58.402344 56.214844 58.425781 56.203125 58.417969 C 56.183594 58.40625 56.316406 58.460938 56.28125 58.449219 C 56.234375 58.4375 56.21875 58.429688 56.207031 58.429688 C 56.199219 58.429688 56.375 58.417969 56.308594 58.429688 C 56.273438 58.433594 56.519531 58.351562 56.457031 58.378906 C 56.394531 58.414062 56.703125 58.132812 56.652344 58.210938 C 56.609375 58.269531 56.71875 58.050781 56.710938 58.078125 C 56.695312 58.140625 56.714844 58.082031 56.714844 58.1875 C 56.714844 58.273438 56.714844 58.378906 56.722656 58.488281 C 56.734375 58.671875 56.820312 58.890625 56.691406 59.253906 C 56.632812 59.421875 56.46875 59.636719 56.21875 59.695312 C 55.972656 59.757812 55.769531 59.667969 55.640625 59.574219 C 55.507812 59.480469 55.410156 59.382812 55.324219 59.308594 C 55.265625 59.253906 55.222656 59.214844 55.210938 59.203125 C 55.207031 59.199219 55.289062 59.25 55.25 59.230469 C 55.226562 59.214844 55.429688 59.289062 55.367188 59.273438 C 55.335938 59.265625 55.535156 59.292969 55.488281 59.292969 C 55.4375 59.289062 55.714844 59.246094 55.65625 59.265625 C 55.566406 59.292969 55.949219 59.054688 55.890625 59.117188 C 55.832031 59.179688 56.011719 58.898438 55.996094 58.949219 C 55.960938 59.035156 56.023438 58.761719 56.023438 58.789062 C 56.023438 58.824219 56.023438 58.769531 56.03125 58.804688 C 56.050781 58.882812 56.136719 59.066406 56.167969 59.328125 C 56.1875 59.480469 56.1875 59.617188 56.179688 59.738281 C 56.175781 59.789062 56.167969 59.855469 56.136719 59.933594 C 56.105469 60.023438 56.039062 60.144531 55.898438 60.234375 C 55.753906 60.328125 55.5625 60.34375 55.4375 60.3125 C 55.320312 60.285156 55.246094 60.238281 55.195312 60.199219 C 55.03125 60.078125 54.9375 59.949219 54.816406 59.789062 C 54.691406 59.621094 54.554688 59.429688 54.4375 59.253906 C 54.324219 59.085938 54.300781 59.039062 54.269531 59 M 56.941406 58.351562 C 56.726562 58.574219 56.371094 58.578125 56.148438 58.363281 C 55.925781 58.144531 55.921875 57.792969 56.140625 57.570312 C 56.199219 57.507812 56 57.808594 56.023438 57.753906 C 56.050781 57.679688 55.988281 57.941406 55.988281 57.910156 C 55.992188 57.882812 55.992188 57.964844 55.988281 57.957031 C 55.988281 57.949219 55.984375 57.9375 55.980469 57.871094 C 55.980469 57.859375 55.976562 57.863281 55.972656 57.804688 C 55.96875 57.773438 55.960938 57.726562 55.976562 57.625 C 55.984375 57.597656 55.988281 57.570312 56 57.535156 C 56.101562 57.242188 56.421875 57.085938 56.714844 57.1875 C 57.003906 57.285156 57.160156 57.605469 57.0625 57.898438 C 57.050781 57.929688 57.085938 57.792969 57.082031 57.816406 C 57.074219 57.859375 57.089844 57.707031 57.089844 57.726562 C 57.089844 57.742188 57.085938 57.691406 57.089844 57.695312 C 57.089844 57.703125 57.09375 57.734375 57.097656 57.804688 C 57.101562 57.832031 57.101562 57.804688 57.105469 57.859375 C 57.113281 57.925781 57.191406 58.09375 56.941406 58.351562 M 56.683594 58.25 C 56.386719 58.328125 56.078125 58.152344 56 57.851562 C 55.917969 57.554688 56.097656 57.246094 56.394531 57.164062 C 56.628906 57.101562 56.773438 57.183594 56.851562 57.230469 C 56.921875 57.269531 56.960938 57.308594 56.996094 57.339844 C 57.0625 57.402344 57.105469 57.457031 57.148438 57.511719 C 57.234375 57.621094 57.308594 57.726562 57.34375 57.769531 C 57.347656 57.777344 57.3125 57.742188 57.332031 57.761719 C 57.335938 57.761719 57.324219 57.753906 57.328125 57.757812 C 57.5625 57.960938 57.585938 58.3125 57.382812 58.546875 C 57.183594 58.78125 56.828125 58.804688 56.59375 58.601562 C 56.589844 58.601562 56.589844 58.597656 56.585938 58.597656 C 56.539062 58.554688 56.503906 58.515625 56.464844 58.464844 C 56.394531 58.375 56.328125 58.28125 56.269531 58.207031 C 56.242188 58.171875 56.230469 58.15625 56.226562 58.152344 C 56.21875 58.148438 56.335938 58.226562 56.289062 58.199219 C 56.261719 58.183594 56.472656 58.265625 56.414062 58.25 C 56.347656 58.234375 56.796875 58.21875 56.683594 58.25 M 57.375 57.800781 C 57.585938 58.027344 57.570312 58.382812 57.34375 58.589844 C 57.113281 58.800781 56.761719 58.785156 56.550781 58.558594 C 56.546875 58.554688 56.5625 58.570312 56.558594 58.566406 C 56.507812 58.511719 56.445312 58.449219 56.378906 58.382812 C 56.328125 58.339844 56.25 58.277344 56.167969 58.214844 C 56.089844 58.160156 56.082031 58.152344 56.058594 58.144531 C 56.011719 58.128906 56.351562 58.109375 56.277344 58.136719 C 56.207031 58.160156 56.390625 58.0625 56.386719 58.070312 C 56.34375 58.117188 56.367188 58.144531 56.253906 58.324219 C 56.15625 58.488281 56.039062 58.609375 55.933594 58.710938 C 55.6875 58.941406 55.410156 59.027344 55.199219 59.074219 C 54.953125 59.128906 54.746094 59.113281 54.613281 59.101562 C 54.546875 59.097656 54.507812 59.089844 54.503906 59.089844 C 54.5 59.089844 54.636719 59.074219 54.59375 59.082031 C 54.5 59.101562 54.847656 58.949219 54.800781 58.984375 C 54.738281 59.03125 54.921875 58.855469 54.90625 58.878906 C 54.894531 58.894531 54.921875 58.855469 54.917969 58.855469 C 54.910156 58.871094 54.882812 58.945312 54.765625 59.042969 C 54.511719 59.257812 54.332031 59.207031 54.226562 59.203125 C 54.214844 59.199219 54.121094 59.226562 53.925781 59.226562 C 53.878906 59.226562 53.789062 59.242188 53.640625 59.234375 C 53.621094 59.234375 53.425781 59.277344 53.167969 59.121094 C 52.78125 58.890625 52.789062 58.640625 52.753906 58.578125 C 52.746094 58.5625 52.722656 58.535156 52.671875 58.476562 C 52.636719 58.433594 52.609375 58.398438 52.601562 58.390625 C 52.601562 58.390625 52.644531 58.429688 52.625 58.414062 C 52.613281 58.402344 52.699219 58.472656 52.675781 58.453125 C 52.648438 58.433594 52.855469 58.535156 52.796875 58.515625 C 52.503906 58.414062 52.351562 58.09375 52.453125 57.800781 C 52.554688 57.507812 52.875 57.355469 53.167969 57.457031 C 53.589844 57.605469 53.492188 57.707031 53.519531 57.742188 C 53.558594 57.785156 53.652344 57.882812 53.734375 58.035156 C 53.785156 58.125 53.816406 58.195312 53.835938 58.230469 C 53.84375 58.246094 53.832031 58.230469 53.839844 58.238281 C 53.847656 58.253906 53.6875 58.128906 53.746094 58.160156 C 53.8125 58.199219 53.589844 58.109375 53.601562 58.113281 C 53.609375 58.113281 53.632812 58.109375 53.703125 58.113281 C 53.710938 58.117188 53.789062 58.109375 53.914062 58.105469 C 53.949219 58.105469 54.066406 58.070312 54.285156 58.082031 C 54.296875 58.082031 54.234375 58.089844 54.265625 58.085938 C 54.28125 58.082031 54.144531 58.121094 54.183594 58.105469 C 54.222656 58.089844 53.988281 58.234375 54.042969 58.1875 C 54.089844 58.148438 53.949219 58.292969 53.960938 58.277344 C 53.972656 58.261719 53.953125 58.292969 53.957031 58.28125 C 53.976562 58.25 53.972656 58.074219 54.34375 57.988281 C 54.546875 57.941406 54.664062 57.980469 54.707031 57.984375 C 54.800781 57.992188 54.890625 57.996094 54.957031 57.980469 C 55.066406 57.953125 55.140625 57.917969 55.160156 57.898438 C 55.222656 57.839844 55.273438 57.777344 55.296875 57.742188 C 55.335938 57.675781 55.363281 57.535156 55.546875 57.328125 C 55.628906 57.234375 55.738281 57.136719 55.894531 57.082031 C 56.050781 57.023438 56.234375 57.027344 56.378906 57.070312 C 56.570312 57.125 56.703125 57.21875 56.832031 57.3125 C 56.929688 57.382812 57.039062 57.464844 57.148438 57.570312 C 57.242188 57.660156 57.320312 57.742188 57.359375 57.78125 C 57.363281 57.785156 57.371094 57.792969 57.375 57.800781 M 52.429688 58.070312 C 52.386719 57.765625 52.597656 57.480469 52.90625 57.4375 C 53.210938 57.394531 53.496094 57.605469 53.539062 57.914062 C 53.542969 57.9375 53.542969 57.953125 53.542969 57.96875 C 53.546875 58 53.546875 58.027344 53.546875 58.058594 C 53.542969 58.117188 53.546875 58.183594 53.507812 58.304688 C 53.414062 58.597656 53.097656 58.761719 52.800781 58.667969 C 52.507812 58.574219 52.34375 58.257812 52.4375 57.960938 C 52.460938 57.894531 52.425781 58.027344 52.425781 58.027344 C 52.425781 58.027344 52.425781 58.050781 52.425781 58.039062 C 52.425781 58.03125 52.433594 58.089844 52.429688 58.070312 M 52.800781 57.601562 C 53.09375 57.511719 53.410156 57.675781 53.5 57.972656 C 53.59375 58.269531 53.425781 58.582031 53.128906 58.675781 C 53.085938 58.6875 53.074219 58.6875 53.074219 58.6875 C 53.070312 58.691406 53.164062 58.660156 53.128906 58.671875 C 53.089844 58.6875 53.371094 58.496094 53.300781 58.566406 C 53.222656 58.636719 53.449219 58.308594 53.429688 58.363281 C 53.414062 58.414062 53.457031 58.234375 53.453125 58.257812 C 53.453125 58.292969 53.457031 58.21875 53.457031 58.234375 C 53.460938 58.273438 53.445312 58.191406 53.453125 58.199219 C 53.472656 58.25 53.5625 58.382812 53.660156 58.507812 C 53.714844 58.582031 53.765625 58.632812 53.777344 58.644531 C 53.796875 58.664062 53.589844 58.566406 53.660156 58.585938 C 53.695312 58.59375 53.441406 58.578125 53.507812 58.570312 C 53.578125 58.566406 53.160156 58.742188 53.25 58.671875 C 53.328125 58.613281 53.0625 58.925781 53.09375 58.863281 C 53.121094 58.808594 53.042969 59.035156 53.050781 59 C 53.058594 58.9375 53.046875 59.121094 53.046875 59.105469 C 53.042969 59.085938 53.046875 59.105469 53.039062 59.082031 C 53.027344 59.039062 53.003906 59.03125 52.976562 58.996094 C 52.785156 58.753906 52.828125 58.402344 53.070312 58.210938 C 53.3125 58.019531 53.664062 58.058594 53.855469 58.300781 C 53.890625 58.347656 54.042969 58.496094 54.121094 58.796875 C 54.136719 58.84375 54.152344 58.902344 54.160156 58.988281 C 54.164062 59.035156 54.171875 59.09375 54.15625 59.179688 C 54.140625 59.277344 54.097656 59.4375 53.925781 59.566406 C 53.710938 59.730469 53.503906 59.703125 53.363281 59.664062 C 53.226562 59.628906 53.117188 59.5625 53.027344 59.476562 C 52.921875 59.382812 52.851562 59.292969 52.78125 59.203125 C 52.617188 58.996094 52.386719 58.789062 52.339844 58.34375 C 52.335938 58.296875 52.332031 58.242188 52.339844 58.15625 C 52.347656 58.066406 52.359375 57.910156 52.53125 57.75 C 52.683594 57.605469 52.789062 57.605469 52.824219 57.597656 C 52.835938 57.59375 52.761719 57.613281 52.800781 57.601562 M 52.96875 58.984375 C 52.785156 58.734375 52.839844 58.386719 53.089844 58.203125 C 53.339844 58.019531 53.691406 58.074219 53.871094 58.324219 C 53.878906 58.332031 53.886719 58.34375 53.894531 58.355469 C 53.914062 58.382812 53.941406 58.421875 53.972656 58.472656 C 53.988281 58.5 54.109375 58.605469 54.152344 58.871094 C 54.191406 59.109375 54.113281 59.21875 54.089844 59.265625 C 54.070312 59.304688 54.109375 59.175781 54.09375 59.242188 C 54.078125 59.300781 54.101562 59.054688 54.105469 59.09375 C 54.109375 59.144531 54.074219 58.984375 54.082031 58.996094 C 54.085938 59.007812 54.078125 58.988281 54.082031 59 C 54.101562 59.03125 54.152344 59.09375 54.214844 59.183594 C 54.265625 59.261719 54.308594 59.324219 54.320312 59.335938 C 54.351562 59.371094 54.371094 59.394531 54.378906 59.402344 C 54.382812 59.40625 54.351562 59.378906 54.363281 59.390625 C 54.382812 59.402344 54.183594 59.300781 54.25 59.328125 C 54.539062 59.4375 54.683594 59.761719 54.570312 60.050781 C 54.460938 60.339844 54.136719 60.484375 53.847656 60.371094 C 53.542969 60.253906 53.542969 60.148438 53.484375 60.082031 C 53.394531 59.980469 53.335938 59.886719 53.28125 59.804688 C 53.253906 59.765625 53.195312 59.691406 53.128906 59.589844 C 53.0625 59.476562 52.925781 59.304688 53.003906 58.976562 C 53.035156 58.859375 53.066406 58.808594 53.074219 58.796875 C 53.074219 58.796875 53.046875 58.875 53.058594 58.839844 C 53.066406 58.800781 53.0625 59.15625 53.046875 59.054688 C 53.039062 59.007812 53.085938 59.160156 53.082031 59.148438 C 53.078125 59.144531 53.070312 59.140625 53.027344 59.074219 C 53.003906 59.035156 52.984375 59.011719 52.976562 58.996094 C 52.972656 58.992188 52.96875 58.988281 52.96875 58.984375 M 54.601562 59.9375 C 54.550781 60.242188 54.265625 60.449219 53.957031 60.398438 C 53.652344 60.347656 53.445312 60.058594 53.496094 59.753906 C 53.503906 59.726562 53.492188 59.8125 53.492188 59.804688 C 53.492188 59.785156 53.492188 59.824219 53.492188 59.824219 C 53.492188 59.816406 53.492188 59.796875 53.488281 59.773438 C 53.484375 59.71875 53.476562 59.65625 53.472656 59.628906 C 53.460938 59.566406 53.441406 59.5 53.453125 59.363281 C 53.460938 59.28125 53.472656 59.144531 53.613281 58.992188 C 53.769531 58.828125 54.042969 58.792969 54.179688 58.828125 C 54.675781 58.945312 54.679688 59.179688 54.785156 59.300781 C 54.859375 59.382812 54.917969 59.464844 54.972656 59.542969 C 54.988281 59.570312 55.019531 59.601562 55.070312 59.695312 L 54.097656 60.25 C 54.074219 60.203125 54.195312 60.371094 54.171875 60.351562 C 54.140625 60.316406 54.246094 60.410156 54.238281 60.402344 C 54.222656 60.394531 54.195312 60.390625 54.101562 60.316406 C 54.070312 60.292969 54.042969 60.269531 54.023438 60.253906 C 54.011719 60.246094 54.003906 60.238281 54 60.234375 C 53.761719 60.035156 53.734375 59.679688 53.933594 59.445312 C 54.132812 59.207031 54.484375 59.175781 54.722656 59.378906 C 54.726562 59.378906 54.730469 59.386719 54.738281 59.390625 C 54.753906 59.402344 54.773438 59.417969 54.789062 59.429688 C 54.828125 59.460938 54.855469 59.320312 55.070312 59.695312 C 55.226562 59.960938 55.132812 60.304688 54.863281 60.457031 C 54.59375 60.613281 54.253906 60.519531 54.097656 60.25 C 54.085938 60.230469 54.078125 60.226562 54.03125 60.152344 C 54.015625 60.128906 53.984375 60.085938 53.941406 60.039062 C 53.882812 59.96875 53.828125 59.90625 53.792969 59.871094 C 53.78125 59.855469 53.785156 59.859375 53.777344 59.855469 C 53.773438 59.851562 53.832031 59.886719 53.8125 59.878906 C 53.792969 59.867188 53.96875 59.929688 53.917969 59.917969 C 53.863281 59.902344 54.25 59.898438 54.152344 59.917969 C 54.050781 59.941406 54.5 59.6875 54.429688 59.761719 C 54.363281 59.832031 54.566406 59.511719 54.546875 59.566406 C 54.53125 59.617188 54.574219 59.429688 54.570312 59.457031 C 54.566406 59.5 54.570312 59.394531 54.570312 59.398438 C 54.570312 59.398438 54.574219 59.410156 54.574219 59.425781 C 54.59375 59.527344 54.601562 59.617188 54.605469 59.699219 C 54.609375 59.738281 54.613281 59.777344 54.613281 59.8125 C 54.613281 59.828125 54.613281 59.847656 54.609375 59.878906 C 54.609375 59.890625 54.609375 59.910156 54.601562 59.9375 M 54.722656 59.378906 C 54.957031 59.582031 54.980469 59.933594 54.777344 60.167969 C 54.574219 60.402344 54.21875 60.425781 53.984375 60.222656 C 53.957031 60.195312 54.066406 60.277344 54.050781 60.269531 C 54.039062 60.261719 54.066406 60.277344 54.054688 60.273438 C 53.78125 60.128906 53.671875 59.789062 53.816406 59.515625 C 53.960938 59.242188 54.296875 59.132812 54.574219 59.277344 C 54.578125 59.28125 54.640625 59.304688 54.722656 59.378906 M 53.757812 59.75 C 53.777344 59.4375 54.046875 59.207031 54.355469 59.226562 C 54.664062 59.25 54.894531 59.515625 54.875 59.824219 C 54.871094 59.878906 54.863281 59.910156 54.859375 59.9375 C 54.84375 59.992188 54.84375 60.027344 54.785156 60.132812 C 54.632812 60.402344 54.289062 60.496094 54.019531 60.34375 C 53.75 60.191406 53.65625 59.851562 53.808594 59.582031 C 53.835938 59.535156 53.769531 59.667969 53.773438 59.65625 C 53.777344 59.644531 53.765625 59.691406 53.765625 59.683594 C 53.769531 59.671875 53.753906 59.789062 53.757812 59.75 M 54.523438 59.347656 C 54.804688 59.476562 54.929688 59.808594 54.800781 60.089844 C 54.671875 60.371094 54.339844 60.496094 54.058594 60.367188 C 54.039062 60.359375 54.027344 60.351562 54.015625 60.34375 C 53.976562 60.320312 53.957031 60.308594 53.9375 60.292969 C 53.902344 60.265625 53.871094 60.238281 53.835938 60.207031 C 53.765625 60.144531 53.6875 60.0625 53.613281 59.953125 C 53.578125 59.910156 53.65625 59.972656 53.605469 59.933594 C 53.589844 59.917969 53.714844 60 53.679688 59.980469 C 53.644531 59.960938 53.898438 60.035156 53.832031 60.027344 C 53.769531 60.019531 54.109375 59.988281 54.042969 60.007812 C 53.976562 60.03125 54.238281 59.894531 54.199219 59.925781 C 54.152344 59.964844 54.300781 59.816406 54.285156 59.835938 C 54.25 59.886719 54.304688 59.8125 54.277344 59.863281 C 54.136719 60.140625 53.800781 60.25 53.523438 60.109375 C 53.25 59.972656 53.136719 59.632812 53.277344 59.359375 C 53.304688 59.308594 53.289062 59.21875 53.503906 59.050781 C 53.617188 58.957031 53.808594 58.894531 53.976562 58.914062 C 54.136719 58.9375 54.242188 59.007812 54.3125 59.0625 C 54.433594 59.164062 54.480469 59.242188 54.523438 59.300781 C 54.546875 59.332031 54.578125 59.367188 54.601562 59.386719 C 54.609375 59.394531 54.601562 59.390625 54.609375 59.394531 C 54.613281 59.398438 54.53125 59.347656 54.5625 59.367188 C 54.574219 59.371094 54.507812 59.339844 54.523438 59.347656 "/>
<path style=" stroke:none;fill-rule:nonzero;fill:rgb(7.058716%,1.176453%,46.665955%);fill-opacity:1;" d="M 53.652344 135.683594 C 53.652344 135.371094 53.902344 135.121094 54.214844 135.121094 C 54.523438 135.121094 54.773438 135.371094 54.773438 135.683594 L 54.773438 145.964844 C 54.773438 146.277344 54.523438 146.527344 54.214844 146.527344 C 53.902344 146.527344 53.652344 146.277344 53.652344 145.964844 Z M 53.652344 135.683594 "/>
<path style=" stroke:none;fill-rule:nonzero;fill:rgb(7.058716%,1.176453%,46.665955%);fill-opacity:1;" d="M 46.214844 147.21875 C 45.90625 147.21875 45.65625 146.96875 45.65625 146.65625 C 45.65625 146.347656 45.90625 146.097656 46.214844 146.097656 L 62.210938 146.097656 C 62.519531 146.097656 62.769531 146.347656 62.769531 146.65625 C 62.769531 146.96875 62.519531 147.21875 62.210938 147.21875 Z M 46.214844 147.21875 "/>
<path style=" stroke:none;fill-rule:nonzero;fill:rgb(7.058716%,1.176453%,46.665955%);fill-opacity:1;" d="M 48.980469 150.886719 C 48.671875 150.886719 48.417969 150.636719 48.417969 150.324219 C 48.417969 150.015625 48.671875 149.765625 48.980469 149.765625 L 59.71875 149.765625 C 60.027344 149.765625 60.28125 150.015625 60.28125 150.324219 C 60.28125 150.636719 60.027344 150.886719 59.71875 150.886719 Z M 48.980469 150.886719 "/>
<path style=" stroke:none;fill-rule:nonzero;fill:rgb(7.058716%,1.176453%,46.665955%);fill-opacity:1;" d="M 52.054688 154.328125 C 51.746094 154.328125 51.496094 154.074219 51.496094 153.765625 C 51.496094 153.457031 51.746094 153.207031 52.054688 153.207031 L 56.644531 153.207031 C 56.953125 153.207031 57.203125 153.457031 57.203125 153.765625 C 57.203125 154.074219 56.953125 154.328125 56.644531 154.328125 Z M 52.054688 154.328125 "/>
<path style=" stroke:none;fill-rule:nonzero;fill:rgb(7.058716%,1.176453%,46.665955%);fill-opacity:1;" d="M 18.308594 135.683594 C 18.308594 135.371094 18.558594 135.121094 18.867188 135.121094 C 19.179688 135.121094 19.429688 135.371094 19.429688 135.683594 L 19.429688 145.964844 C 19.429688 146.277344 19.179688 146.527344 18.867188 146.527344 C 18.558594 146.527344 18.308594 146.277344 18.308594 145.964844 Z M 18.308594 135.683594 "/>
<path style=" stroke:none;fill-rule:nonzero;fill:rgb(7.058716%,1.176453%,46.665955%);fill-opacity:1;" d="M 10.871094 147.21875 C 10.5625 147.21875 10.3125 146.96875 10.3125 146.65625 C 10.3125 146.347656 10.5625 146.097656 10.871094 146.097656 L 26.867188 146.097656 C 27.175781 146.097656 27.425781 146.347656 27.425781 146.65625 C 27.425781 146.96875 27.175781 147.21875 26.867188 147.21875 Z M 10.871094 147.21875 "/>
<path style=" stroke:none;fill-rule:nonzero;fill:rgb(7.058716%,1.176453%,46.665955%);fill-opacity:1;" d="M 13.636719 150.886719 C 13.324219 150.886719 13.074219 150.636719 13.074219 150.324219 C 13.074219 150.015625 13.324219 149.765625 13.636719 149.765625 L 24.375 149.765625 C 24.683594 149.765625 24.933594 150.015625 24.933594 150.324219 C 24.933594 150.636719 24.683594 150.886719 24.375 150.886719 Z M 13.636719 150.886719 "/>
<path style=" stroke:none;fill-rule:nonzero;fill:rgb(7.058716%,1.176453%,46.665955%);fill-opacity:1;" d="M 16.710938 154.328125 C 16.402344 154.328125 16.152344 154.074219 16.152344 153.765625 C 16.152344 153.457031 16.402344 153.207031 16.710938 153.207031 L 21.296875 153.207031 C 21.609375 153.207031 21.859375 153.457031 21.859375 153.765625 C 21.859375 154.074219 21.609375 154.328125 21.296875 154.328125 Z M 16.710938 154.328125 "/>
<path style=" stroke:none;fill-rule:nonzero;fill:rgb(7.058716%,1.176453%,46.665955%);fill-opacity:1;" d="M 18.324219 107.808594 C 18.324219 107.507812 18.566406 107.261719 18.867188 107.261719 C 19.171875 107.261719 19.414062 107.507812 19.414062 107.808594 L 19.414062 137.269531 C 19.414062 137.570312 19.171875 137.816406 18.867188 137.816406 C 18.566406 137.816406 18.324219 137.570312 18.324219 137.269531 Z M 18.324219 107.808594 "/>
<path style=" stroke:none;fill-rule:nonzero;fill:rgb(92.941284%,21.176147%,14.117432%);fill-opacity:1;" d="M 84.628906 42.949219 C 84.574219 43.398438 84.167969 43.71875 83.71875 43.667969 C 83.269531 43.617188 82.949219 43.210938 83 42.761719 L 82.957031 42.1875 L 82.96875 41.578125 C 83.085938 40.898438 83.527344 40.558594 83.824219 40.277344 C 84.007812 40.105469 84.222656 39.894531 84.53125 39.722656 C 84.722656 39.613281 85.058594 39.375 85.570312 39.410156 C 86.054688 39.4375 86.542969 39.710938 86.878906 40.132812 C 87.621094 41.0625 87.753906 42.441406 87.960938 44.078125 C 88.066406 44.929688 88.167969 45.871094 88.195312 46.871094 C 88.230469 48.148438 88.15625 49.480469 87.859375 50.726562 C 87.605469 51.785156 87.058594 52.628906 86.640625 53.300781 C 86.140625 54.101562 85.738281 54.742188 85.21875 55.167969 C 84.828125 55.488281 84.359375 55.621094 83.878906 55.402344 C 83.398438 55.1875 83.339844 54.707031 83.359375 54.484375 C 83.378906 54.179688 83.484375 53.96875 83.652344 53.761719 C 83.824219 53.542969 84.128906 53.292969 84.570312 53.292969 C 85.046875 53.289062 85.242188 53.511719 85.394531 53.640625 L 85.730469 53.945312 L 86.679688 54.683594 C 87.019531 54.898438 87.480469 55.082031 87.992188 55.207031 C 88.3125 55.285156 88.734375 55.289062 89.175781 55.269531 C 89.699219 55.246094 90.15625 55.164062 90.457031 55.039062 C 90.617188 54.972656 90.761719 54.8125 90.902344 54.59375 L 91.28125 53.621094 C 91.460938 53.203125 91.941406 53.011719 92.355469 53.191406 C 92.773438 53.367188 92.964844 53.851562 92.785156 54.265625 C 92.648438 54.589844 92.597656 54.988281 92.277344 55.480469 C 92.066406 55.8125 91.710938 56.292969 91.082031 56.554688 C 90.527344 56.78125 89.902344 56.878906 89.246094 56.90625 C 88.757812 56.925781 88.191406 56.945312 87.601562 56.800781 C 86.953125 56.640625 86.332031 56.40625 85.796875 56.0625 L 84.679688 55.203125 L 84.332031 54.890625 L 84.304688 54.867188 L 84.382812 54.898438 C 84.339844 54.886719 84.65625 54.929688 84.574219 54.929688 C 84.5 54.929688 84.828125 54.867188 84.773438 54.890625 C 84.683594 54.925781 84.953125 54.761719 84.929688 54.785156 C 84.898438 54.820312 84.996094 54.617188 84.980469 54.679688 C 84.972656 54.71875 84.957031 54.324219 84.980469 54.449219 C 84.996094 54.523438 84.808594 54.082031 84.875 54.1875 C 84.945312 54.292969 84.410156 53.847656 84.550781 53.910156 C 84.632812 53.945312 84.324219 53.859375 84.371094 53.863281 C 84.433594 53.867188 84.199219 53.886719 84.230469 53.875 L 84.179688 53.898438 C 84.359375 53.753906 84.78125 53.191406 85.25 52.433594 C 85.664062 51.773438 86.089844 51.082031 86.265625 50.34375 C 86.515625 49.292969 86.589844 48.09375 86.558594 46.914062 C 86.535156 46 86.4375 45.109375 86.335938 44.28125 C 86.136719 42.703125 85.839844 41.457031 85.597656 41.15625 L 85.46875 41.042969 L 85.535156 41.039062 L 85.339844 41.144531 L 84.941406 41.476562 L 84.582031 41.863281 L 84.589844 42.089844 C 84.605469 42.335938 84.671875 42.574219 84.628906 42.949219 "/>
<path style=" stroke:none;fill-rule:nonzero;fill:rgb(92.941284%,21.176147%,14.117432%);fill-opacity:1;" d="M 96.503906 51.269531 C 96.949219 51.363281 97.230469 51.800781 97.132812 52.242188 C 97.039062 52.683594 96.601562 52.964844 96.160156 52.871094 C 96.054688 52.847656 96.605469 52.84375 96.496094 52.867188 C 96.390625 52.890625 96.824219 52.710938 96.757812 52.753906 C 96.636719 52.839844 96.992188 52.496094 96.964844 52.542969 C 96.914062 52.621094 97.003906 52.453125 97 52.472656 C 96.914062 52.796875 96.855469 54.058594 96.925781 55.226562 L 97.105469 56.722656 L 97.210938 57.074219 C 97.21875 57.089844 97.144531 57 97.179688 57.039062 C 97.203125 57.0625 97.027344 56.921875 97.078125 56.953125 C 97.128906 56.988281 96.796875 56.851562 96.875 56.871094 C 97.316406 56.96875 97.59375 57.410156 97.496094 57.851562 C 97.394531 58.292969 96.957031 58.570312 96.515625 58.46875 C 95.972656 58.34375 95.808594 57.960938 95.695312 57.699219 C 95.308594 56.789062 95.265625 55.515625 95.253906 54.265625 L 95.320312 52.613281 L 95.433594 51.992188 L 95.601562 51.632812 C 95.722656 51.464844 96.082031 51.179688 96.503906 51.269531 "/>
<path style=" stroke:none;fill-rule:nonzero;fill:rgb(92.941284%,21.176147%,14.117432%);fill-opacity:1;" d="M 105.585938 37.738281 C 105.597656 38.191406 105.238281 38.566406 104.789062 38.582031 C 104.335938 38.59375 103.957031 38.234375 103.945312 37.785156 C 103.945312 37.710938 104.003906 38.011719 103.984375 37.964844 C 103.957031 37.902344 104.058594 38.082031 104.046875 38.066406 C 103.96875 38.023438 104.460938 38.070312 104.414062 38.097656 L 104.199219 38.351562 L 103.824219 39.015625 L 103.332031 40.269531 L 102.808594 42.203125 C 102.542969 43.460938 102.4375 44.890625 102.464844 46.074219 C 102.496094 47.496094 102.992188 48.203125 103.632812 48.679688 C 104.296875 49.175781 105.128906 49.433594 105.917969 49.507812 L 106.972656 49.535156 C 107.6875 49.417969 107.734375 48.945312 107.507812 48.535156 C 107.34375 48.246094 106.8125 47.847656 106.0625 47.726562 C 104.96875 47.542969 103.683594 48.058594 103.550781 48.949219 C 103.484375 49.398438 103.070312 49.707031 102.621094 49.640625 C 102.175781 49.574219 101.867188 49.15625 101.933594 48.710938 C 102.089844 47.648438 102.84375 46.859375 103.683594 46.460938 C 104.523438 46.066406 105.464844 45.964844 106.332031 46.109375 C 107.488281 46.300781 108.453125 46.878906 108.933594 47.734375 C 109.285156 48.355469 109.355469 49.117188 109.074219 49.789062 C 108.785156 50.46875 108.09375 51.011719 107.238281 51.152344 C 106.71875 51.238281 106.230469 51.183594 105.765625 51.140625 C 104.730469 51.042969 103.613281 50.707031 102.65625 49.996094 C 101.679688 49.269531 100.867188 47.964844 100.824219 46.113281 C 100.792969 44.800781 100.90625 43.273438 101.203125 41.867188 L 101.773438 39.761719 L 102.339844 38.320312 L 102.847656 37.429688 C 103.0625 37.113281 103.292969 36.835938 103.644531 36.648438 C 104.007812 36.457031 104.558594 36.457031 104.925781 36.691406 C 105.21875 36.875 105.570312 37.171875 105.585938 37.738281 "/>
<path style=" stroke:none;fill-rule:nonzero;fill:rgb(92.941284%,21.176147%,14.117432%);fill-opacity:1;" d="M 112.746094 37.546875 C 113.128906 37.789062 113.246094 38.292969 113.007812 38.675781 C 112.769531 39.0625 112.265625 39.179688 111.878906 38.941406 C 111.84375 38.917969 112.03125 38.964844 111.933594 38.945312 C 111.890625 38.941406 112.191406 38.9375 112.113281 38.949219 C 112.042969 38.957031 112.429688 38.828125 112.351562 38.871094 C 112.203125 38.949219 112.699219 38.4375 112.652344 38.546875 C 112.617188 38.621094 112.703125 38.335938 112.699219 38.375 L 112.730469 38.441406 L 113.507812 40.035156 L 114.667969 42.726562 L 115.578125 44.953125 L 116.070312 46.238281 L 116.382812 47.210938 L 116.527344 47.808594 C 116.539062 47.855469 116.496094 47.765625 116.523438 47.816406 C 116.539062 47.851562 116.347656 47.597656 116.414062 47.664062 C 116.484375 47.734375 115.949219 47.433594 116.089844 47.472656 C 116.207031 47.507812 115.679688 47.480469 115.765625 47.460938 C 115.835938 47.445312 115.574219 47.535156 115.609375 47.515625 C 115.664062 47.488281 115.53125 47.570312 115.53125 47.566406 L 115.714844 47.289062 C 115.925781 46.894531 116.109375 45.839844 116.214844 44.472656 L 116.292969 41.757812 L 116.191406 38.511719 L 115.980469 36.957031 L 115.964844 36.890625 L 115.996094 36.945312 C 115.980469 36.921875 116.140625 37.113281 116.085938 37.054688 C 116.0625 37.035156 116.230469 37.175781 116.183594 37.140625 C 116.140625 37.109375 116.480469 37.289062 116.382812 37.25 C 116.292969 37.21875 116.945312 37.273438 116.777344 37.296875 C 116.625 37.316406 117.332031 36.988281 117.214844 37.09375 C 117.113281 37.183594 117.453125 36.738281 117.414062 36.824219 C 117.351562 36.957031 117.488281 36.457031 117.484375 36.523438 C 117.480469 36.617188 117.464844 36.304688 117.472656 36.34375 L 117.453125 36.265625 C 117.476562 36.339844 117.421875 36.183594 117.425781 36.191406 L 118.378906 37.691406 L 120.445312 40.917969 C 121.09375 41.871094 121.832031 42.886719 122.578125 43.816406 C 123.484375 44.941406 124.414062 45.847656 125.121094 46.433594 L 125.8125 46.949219 L 126.050781 47.0625 L 126.074219 47.070312 C 126.085938 47.070312 125.929688 47.078125 125.980469 47.070312 C 126.054688 47.0625 125.679688 47.203125 125.753906 47.15625 C 125.867188 47.082031 125.445312 47.644531 125.492188 47.496094 C 125.519531 47.417969 125.472656 47.828125 125.464844 47.742188 C 125.457031 47.65625 125.570312 48.058594 125.535156 47.984375 C 125.480469 47.878906 125.738281 48.226562 125.695312 48.191406 C 125.632812 48.136719 125.773438 48.242188 125.757812 48.234375 L 125.050781 48.007812 C 124.621094 47.863281 124.394531 47.398438 124.539062 46.96875 C 124.683594 46.539062 125.148438 46.3125 125.578125 46.457031 L 126.195312 46.652344 C 126.40625 46.722656 126.714844 46.699219 126.992188 47.238281 C 127.308594 47.859375 126.796875 48.613281 126.199219 48.695312 C 125.695312 48.761719 125.347656 48.578125 124.976562 48.355469 L 124.074219 47.695312 C 123.277344 47.03125 122.285156 46.0625 121.300781 44.839844 C 120.519531 43.871094 119.761719 42.824219 119.089844 41.84375 L 116.984375 38.550781 L 116.308594 37.492188 C 116.128906 37.214844 116 37.121094 115.886719 36.734375 C 115.867188 36.675781 115.808594 36.625 115.863281 36.335938 C 115.890625 36.179688 116.023438 35.847656 116.386719 35.714844 C 116.722656 35.59375 116.964844 35.707031 117.082031 35.773438 C 117.636719 36.097656 117.429688 36.148438 117.46875 36.246094 L 117.578125 36.59375 C 117.660156 36.957031 117.765625 37.554688 117.824219 38.398438 L 117.929688 41.761719 L 117.847656 44.597656 C 117.738281 46.035156 117.621094 47.195312 117.164062 48.054688 L 116.738281 48.675781 C 116.5625 48.867188 116.265625 49.222656 115.652344 49.050781 C 115.3125 48.957031 115.136719 48.703125 115.058594 48.546875 C 114.863281 48.15625 114.886719 47.941406 114.808594 47.667969 L 114.53125 46.796875 L 114.058594 45.558594 L 113.15625 43.355469 L 112.035156 40.753906 C 111.695312 40.054688 111.347656 39.507812 111.167969 38.933594 C 111.058594 38.585938 110.847656 38.171875 111.304688 37.644531 C 111.550781 37.359375 111.964844 37.289062 112.210938 37.332031 Z M 112.746094 37.546875 "/>
<path style=" stroke:none;fill-rule:nonzero;fill:rgb(92.941284%,21.176147%,14.117432%);fill-opacity:1;" d="M 117.515625 45.953125 C 117.910156 46.175781 118.046875 46.675781 117.824219 47.070312 C 117.601562 47.464844 117.101562 47.601562 116.707031 47.378906 C 116.320312 47.15625 115.964844 46.898438 115.792969 46.417969 C 115.609375 45.914062 115.890625 45.269531 116.277344 44.988281 C 117.191406 44.332031 118.59375 44.175781 120.128906 43.964844 C 121.667969 43.753906 123.167969 43.632812 124.011719 43.574219 C 124.464844 43.542969 124.855469 43.886719 124.882812 44.335938 C 124.914062 44.789062 124.574219 45.179688 124.121094 45.210938 C 122.34375 45.328125 117.96875 45.789062 117.234375 46.320312 L 117.257812 46.292969 C 117.222656 46.335938 117.363281 45.945312 117.355469 46.050781 C 117.347656 46.132812 117.308594 45.804688 117.328125 45.851562 C 117.351562 45.914062 117.289062 45.789062 117.316406 45.8125 Z M 117.515625 45.953125 "/>
</g>
</svg>
