<?xml version="1.0" encoding="utf-8" standalone="no"?>
<!DOCTYPE svg PUBLIC "-//W3C//DTD SVG 1.1//EN"
  "http://www.w3.org/Graphics/SVG/1.1/DTD/svg11.dtd">
<svg xmlns:xlink="http://www.w3.org/1999/xlink" width="460.8pt" height="345.6pt" viewBox="0 0 460.8 345.6" xmlns="http://www.w3.org/2000/svg" version="1.1">
 <metadata>
  <rdf:RDF xmlns:dc="http://purl.org/dc/elements/1.1/" xmlns:cc="http://creativecommons.org/ns#" xmlns:rdf="http://www.w3.org/1999/02/22-rdf-syntax-ns#">
   <cc:Work>
    <dc:type rdf:resource="http://purl.org/dc/dcmitype/StillImage"/>
    <dc:date>2023-03-09T09:32:59.826460</dc:date>
    <dc:format>image/svg+xml</dc:format>
    <dc:creator>
     <cc:Agent>
      <dc:title>Matplotlib v3.5.3, https://matplotlib.org/</dc:title>
     </cc:Agent>
    </dc:creator>
   </cc:Work>
  </rdf:RDF>
 </metadata>
 <defs>
  <style type="text/css">*{stroke-linejoin: round; stroke-linecap: butt}</style>
 </defs>
 <g id="figure_1">
  <g id="patch_1">
   <path d="M 0 345.6 
L 460.8 345.6 
L 460.8 0 
L 0 0 
z
" style="fill: #ffffff"/>
  </g>
  <g id="axes_1">
   <g id="patch_2">
    <path d="M 42.01 303.64 
L 218.453512 303.64 
L 218.453512 10.8 
L 42.01 10.8 
z
" style="fill: #ffffff"/>
   </g>
   <g id="matplotlib.axis_1">
    <g id="xtick_1">
     <g id="line2d_1">
      <defs>
       <path id="m0699e2405b" d="M 0 0 
L 0 3.5 
" style="stroke: #000000; stroke-width: 0.8"/>
      </defs>
      <g>
       <use xlink:href="#m0699e2405b" x="50.03016" y="303.64" style="stroke: #000000; stroke-width: 0.8"/>
      </g>
     </g>
     <g id="text_1">
      <!-- 0.0 -->
      <g transform="translate(42.078597 318.238437)scale(0.1 -0.1)">
       <defs>
        <path id="DejaVuSans-30" d="M 2034 4250 
Q 1547 4250 1301 3770 
Q 1056 3291 1056 2328 
Q 1056 1369 1301 889 
Q 1547 409 2034 409 
Q 2525 409 2770 889 
Q 3016 1369 3016 2328 
Q 3016 3291 2770 3770 
Q 2525 4250 2034 4250 
z
M 2034 4750 
Q 2819 4750 3233 4129 
Q 3647 3509 3647 2328 
Q 3647 1150 3233 529 
Q 2819 -91 2034 -91 
Q 1250 -91 836 529 
Q 422 1150 422 2328 
Q 422 3509 836 4129 
Q 1250 4750 2034 4750 
z
" transform="scale(0.015625)"/>
        <path id="DejaVuSans-2e" d="M 684 794 
L 1344 794 
L 1344 0 
L 684 0 
L 684 794 
z
" transform="scale(0.015625)"/>
       </defs>
       <use xlink:href="#DejaVuSans-30"/>
       <use xlink:href="#DejaVuSans-2e" x="63.623047"/>
       <use xlink:href="#DejaVuSans-30" x="95.410156"/>
      </g>
     </g>
    </g>
    <g id="xtick_2">
     <g id="line2d_2">
      <g>
       <use xlink:href="#m0699e2405b" x="90.130958" y="303.64" style="stroke: #000000; stroke-width: 0.8"/>
      </g>
     </g>
     <g id="text_2">
      <!-- 2.5 -->
      <g transform="translate(82.179395 318.238437)scale(0.1 -0.1)">
       <defs>
        <path id="DejaVuSans-32" d="M 1228 531 
L 3431 531 
L 3431 0 
L 469 0 
L 469 531 
Q 828 903 1448 1529 
Q 2069 2156 2228 2338 
Q 2531 2678 2651 2914 
Q 2772 3150 2772 3378 
Q 2772 3750 2511 3984 
Q 2250 4219 1831 4219 
Q 1534 4219 1204 4116 
Q 875 4013 500 3803 
L 500 4441 
Q 881 4594 1212 4672 
Q 1544 4750 1819 4750 
Q 2544 4750 2975 4387 
Q 3406 4025 3406 3419 
Q 3406 3131 3298 2873 
Q 3191 2616 2906 2266 
Q 2828 2175 2409 1742 
Q 1991 1309 1228 531 
z
" transform="scale(0.015625)"/>
        <path id="DejaVuSans-35" d="M 691 4666 
L 3169 4666 
L 3169 4134 
L 1269 4134 
L 1269 2991 
Q 1406 3038 1543 3061 
Q 1681 3084 1819 3084 
Q 2600 3084 3056 2656 
Q 3513 2228 3513 1497 
Q 3513 744 3044 326 
Q 2575 -91 1722 -91 
Q 1428 -91 1123 -41 
Q 819 9 494 109 
L 494 744 
Q 775 591 1075 516 
Q 1375 441 1709 441 
Q 2250 441 2565 725 
Q 2881 1009 2881 1497 
Q 2881 1984 2565 2268 
Q 2250 2553 1709 2553 
Q 1456 2553 1204 2497 
Q 953 2441 691 2322 
L 691 4666 
z
" transform="scale(0.015625)"/>
       </defs>
       <use xlink:href="#DejaVuSans-32"/>
       <use xlink:href="#DejaVuSans-2e" x="63.623047"/>
       <use xlink:href="#DejaVuSans-35" x="95.410156"/>
      </g>
     </g>
    </g>
    <g id="xtick_3">
     <g id="line2d_3">
      <g>
       <use xlink:href="#m0699e2405b" x="130.231756" y="303.64" style="stroke: #000000; stroke-width: 0.8"/>
      </g>
     </g>
     <g id="text_3">
      <!-- 5.0 -->
      <g transform="translate(122.280194 318.238437)scale(0.1 -0.1)">
       <use xlink:href="#DejaVuSans-35"/>
       <use xlink:href="#DejaVuSans-2e" x="63.623047"/>
       <use xlink:href="#DejaVuSans-30" x="95.410156"/>
      </g>
     </g>
    </g>
    <g id="xtick_4">
     <g id="line2d_4">
      <g>
       <use xlink:href="#m0699e2405b" x="170.332554" y="303.64" style="stroke: #000000; stroke-width: 0.8"/>
      </g>
     </g>
     <g id="text_4">
      <!-- 7.5 -->
      <g transform="translate(162.380992 318.238437)scale(0.1 -0.1)">
       <defs>
        <path id="DejaVuSans-37" d="M 525 4666 
L 3525 4666 
L 3525 4397 
L 1831 0 
L 1172 0 
L 2766 4134 
L 525 4134 
L 525 4666 
z
" transform="scale(0.015625)"/>
       </defs>
       <use xlink:href="#DejaVuSans-37"/>
       <use xlink:href="#DejaVuSans-2e" x="63.623047"/>
       <use xlink:href="#DejaVuSans-35" x="95.410156"/>
      </g>
     </g>
    </g>
    <g id="xtick_5">
     <g id="line2d_5">
      <g>
       <use xlink:href="#m0699e2405b" x="210.433353" y="303.64" style="stroke: #000000; stroke-width: 0.8"/>
      </g>
     </g>
     <g id="text_5">
      <!-- 10.0 -->
      <g transform="translate(199.30054 318.238437)scale(0.1 -0.1)">
       <defs>
        <path id="DejaVuSans-31" d="M 794 531 
L 1825 531 
L 1825 4091 
L 703 3866 
L 703 4441 
L 1819 4666 
L 2450 4666 
L 2450 531 
L 3481 531 
L 3481 0 
L 794 0 
L 794 531 
z
" transform="scale(0.015625)"/>
       </defs>
       <use xlink:href="#DejaVuSans-31"/>
       <use xlink:href="#DejaVuSans-30" x="63.623047"/>
       <use xlink:href="#DejaVuSans-2e" x="127.246094"/>
       <use xlink:href="#DejaVuSans-30" x="159.033203"/>
      </g>
     </g>
    </g>
    <g id="text_6">
     <!-- Time [us] -->
     <g transform="translate(106.7341 331.916562)scale(0.1 -0.1)">
      <defs>
       <path id="DejaVuSans-54" d="M -19 4666 
L 3928 4666 
L 3928 4134 
L 2272 4134 
L 2272 0 
L 1638 0 
L 1638 4134 
L -19 4134 
L -19 4666 
z
" transform="scale(0.015625)"/>
       <path id="DejaVuSans-69" d="M 603 3500 
L 1178 3500 
L 1178 0 
L 603 0 
L 603 3500 
z
M 603 4863 
L 1178 4863 
L 1178 4134 
L 603 4134 
L 603 4863 
z
" transform="scale(0.015625)"/>
       <path id="DejaVuSans-6d" d="M 3328 2828 
Q 3544 3216 3844 3400 
Q 4144 3584 4550 3584 
Q 5097 3584 5394 3201 
Q 5691 2819 5691 2113 
L 5691 0 
L 5113 0 
L 5113 2094 
Q 5113 2597 4934 2840 
Q 4756 3084 4391 3084 
Q 3944 3084 3684 2787 
Q 3425 2491 3425 1978 
L 3425 0 
L 2847 0 
L 2847 2094 
Q 2847 2600 2669 2842 
Q 2491 3084 2119 3084 
Q 1678 3084 1418 2786 
Q 1159 2488 1159 1978 
L 1159 0 
L 581 0 
L 581 3500 
L 1159 3500 
L 1159 2956 
Q 1356 3278 1631 3431 
Q 1906 3584 2284 3584 
Q 2666 3584 2933 3390 
Q 3200 3197 3328 2828 
z
" transform="scale(0.015625)"/>
       <path id="DejaVuSans-65" d="M 3597 1894 
L 3597 1613 
L 953 1613 
Q 991 1019 1311 708 
Q 1631 397 2203 397 
Q 2534 397 2845 478 
Q 3156 559 3463 722 
L 3463 178 
Q 3153 47 2828 -22 
Q 2503 -91 2169 -91 
Q 1331 -91 842 396 
Q 353 884 353 1716 
Q 353 2575 817 3079 
Q 1281 3584 2069 3584 
Q 2775 3584 3186 3129 
Q 3597 2675 3597 1894 
z
M 3022 2063 
Q 3016 2534 2758 2815 
Q 2500 3097 2075 3097 
Q 1594 3097 1305 2825 
Q 1016 2553 972 2059 
L 3022 2063 
z
" transform="scale(0.015625)"/>
       <path id="DejaVuSans-20" transform="scale(0.015625)"/>
       <path id="DejaVuSans-5b" d="M 550 4863 
L 1875 4863 
L 1875 4416 
L 1125 4416 
L 1125 -397 
L 1875 -397 
L 1875 -844 
L 550 -844 
L 550 4863 
z
" transform="scale(0.015625)"/>
       <path id="DejaVuSans-75" d="M 544 1381 
L 544 3500 
L 1119 3500 
L 1119 1403 
Q 1119 906 1312 657 
Q 1506 409 1894 409 
Q 2359 409 2629 706 
Q 2900 1003 2900 1516 
L 2900 3500 
L 3475 3500 
L 3475 0 
L 2900 0 
L 2900 538 
Q 2691 219 2414 64 
Q 2138 -91 1772 -91 
Q 1169 -91 856 284 
Q 544 659 544 1381 
z
M 1991 3584 
L 1991 3584 
z
" transform="scale(0.015625)"/>
       <path id="DejaVuSans-73" d="M 2834 3397 
L 2834 2853 
Q 2591 2978 2328 3040 
Q 2066 3103 1784 3103 
Q 1356 3103 1142 2972 
Q 928 2841 928 2578 
Q 928 2378 1081 2264 
Q 1234 2150 1697 2047 
L 1894 2003 
Q 2506 1872 2764 1633 
Q 3022 1394 3022 966 
Q 3022 478 2636 193 
Q 2250 -91 1575 -91 
Q 1294 -91 989 -36 
Q 684 19 347 128 
L 347 722 
Q 666 556 975 473 
Q 1284 391 1588 391 
Q 1994 391 2212 530 
Q 2431 669 2431 922 
Q 2431 1156 2273 1281 
Q 2116 1406 1581 1522 
L 1381 1569 
Q 847 1681 609 1914 
Q 372 2147 372 2553 
Q 372 3047 722 3315 
Q 1072 3584 1716 3584 
Q 2034 3584 2315 3537 
Q 2597 3491 2834 3397 
z
" transform="scale(0.015625)"/>
       <path id="DejaVuSans-5d" d="M 1947 4863 
L 1947 -844 
L 622 -844 
L 622 -397 
L 1369 -397 
L 1369 4416 
L 622 4416 
L 622 4863 
L 1947 4863 
z
" transform="scale(0.015625)"/>
      </defs>
      <use xlink:href="#DejaVuSans-54"/>
      <use xlink:href="#DejaVuSans-69" x="57.958984"/>
      <use xlink:href="#DejaVuSans-6d" x="85.742188"/>
      <use xlink:href="#DejaVuSans-65" x="183.154297"/>
      <use xlink:href="#DejaVuSans-20" x="244.677734"/>
      <use xlink:href="#DejaVuSans-5b" x="276.464844"/>
      <use xlink:href="#DejaVuSans-75" x="315.478516"/>
      <use xlink:href="#DejaVuSans-73" x="378.857422"/>
      <use xlink:href="#DejaVuSans-5d" x="430.957031"/>
     </g>
    </g>
   </g>
   <g id="matplotlib.axis_2">
    <g id="ytick_1">
     <g id="line2d_6">
      <defs>
       <path id="m96cde1263d" d="M 0 0 
L -3.5 0 
" style="stroke: #000000; stroke-width: 0.8"/>
      </defs>
      <g>
       <use xlink:href="#m96cde1263d" x="42.01" y="281.060821" style="stroke: #000000; stroke-width: 0.8"/>
      </g>
     </g>
     <g id="text_7">
      <!-- −0.1 -->
      <g transform="translate(10.727187 284.86004)scale(0.1 -0.1)">
       <defs>
        <path id="DejaVuSans-2212" d="M 678 2272 
L 4684 2272 
L 4684 1741 
L 678 1741 
L 678 2272 
z
" transform="scale(0.015625)"/>
       </defs>
       <use xlink:href="#DejaVuSans-2212"/>
       <use xlink:href="#DejaVuSans-30" x="83.789062"/>
       <use xlink:href="#DejaVuSans-2e" x="147.412109"/>
       <use xlink:href="#DejaVuSans-31" x="179.199219"/>
      </g>
     </g>
    </g>
    <g id="ytick_2">
     <g id="line2d_7">
      <g>
       <use xlink:href="#m96cde1263d" x="42.01" y="243.399847" style="stroke: #000000; stroke-width: 0.8"/>
      </g>
     </g>
     <g id="text_8">
      <!-- 0.0 -->
      <g transform="translate(19.106875 247.199065)scale(0.1 -0.1)">
       <use xlink:href="#DejaVuSans-30"/>
       <use xlink:href="#DejaVuSans-2e" x="63.623047"/>
       <use xlink:href="#DejaVuSans-30" x="95.410156"/>
      </g>
     </g>
    </g>
    <g id="ytick_3">
     <g id="line2d_8">
      <g>
       <use xlink:href="#m96cde1263d" x="42.01" y="205.738873" style="stroke: #000000; stroke-width: 0.8"/>
      </g>
     </g>
     <g id="text_9">
      <!-- 0.1 -->
      <g transform="translate(19.106875 209.538091)scale(0.1 -0.1)">
       <use xlink:href="#DejaVuSans-30"/>
       <use xlink:href="#DejaVuSans-2e" x="63.623047"/>
       <use xlink:href="#DejaVuSans-31" x="95.410156"/>
      </g>
     </g>
    </g>
    <g id="ytick_4">
     <g id="line2d_9">
      <g>
       <use xlink:href="#m96cde1263d" x="42.01" y="168.077898" style="stroke: #000000; stroke-width: 0.8"/>
      </g>
     </g>
     <g id="text_10">
      <!-- 0.2 -->
      <g transform="translate(19.106875 171.877117)scale(0.1 -0.1)">
       <use xlink:href="#DejaVuSans-30"/>
       <use xlink:href="#DejaVuSans-2e" x="63.623047"/>
       <use xlink:href="#DejaVuSans-32" x="95.410156"/>
      </g>
     </g>
    </g>
    <g id="ytick_5">
     <g id="line2d_10">
      <g>
       <use xlink:href="#m96cde1263d" x="42.01" y="130.416924" style="stroke: #000000; stroke-width: 0.8"/>
      </g>
     </g>
     <g id="text_11">
      <!-- 0.3 -->
      <g transform="translate(19.106875 134.216143)scale(0.1 -0.1)">
       <defs>
        <path id="DejaVuSans-33" d="M 2597 2516 
Q 3050 2419 3304 2112 
Q 3559 1806 3559 1356 
Q 3559 666 3084 287 
Q 2609 -91 1734 -91 
Q 1441 -91 1130 -33 
Q 819 25 488 141 
L 488 750 
Q 750 597 1062 519 
Q 1375 441 1716 441 
Q 2309 441 2620 675 
Q 2931 909 2931 1356 
Q 2931 1769 2642 2001 
Q 2353 2234 1838 2234 
L 1294 2234 
L 1294 2753 
L 1863 2753 
Q 2328 2753 2575 2939 
Q 2822 3125 2822 3475 
Q 2822 3834 2567 4026 
Q 2313 4219 1838 4219 
Q 1578 4219 1281 4162 
Q 984 4106 628 3988 
L 628 4550 
Q 988 4650 1302 4700 
Q 1616 4750 1894 4750 
Q 2613 4750 3031 4423 
Q 3450 4097 3450 3541 
Q 3450 3153 3228 2886 
Q 3006 2619 2597 2516 
z
" transform="scale(0.015625)"/>
       </defs>
       <use xlink:href="#DejaVuSans-30"/>
       <use xlink:href="#DejaVuSans-2e" x="63.623047"/>
       <use xlink:href="#DejaVuSans-33" x="95.410156"/>
      </g>
     </g>
    </g>
    <g id="ytick_6">
     <g id="line2d_11">
      <g>
       <use xlink:href="#m96cde1263d" x="42.01" y="92.75595" style="stroke: #000000; stroke-width: 0.8"/>
      </g>
     </g>
     <g id="text_12">
      <!-- 0.4 -->
      <g transform="translate(19.106875 96.555169)scale(0.1 -0.1)">
       <defs>
        <path id="DejaVuSans-34" d="M 2419 4116 
L 825 1625 
L 2419 1625 
L 2419 4116 
z
M 2253 4666 
L 3047 4666 
L 3047 1625 
L 3713 1625 
L 3713 1100 
L 3047 1100 
L 3047 0 
L 2419 0 
L 2419 1100 
L 313 1100 
L 313 1709 
L 2253 4666 
z
" transform="scale(0.015625)"/>
       </defs>
       <use xlink:href="#DejaVuSans-30"/>
       <use xlink:href="#DejaVuSans-2e" x="63.623047"/>
       <use xlink:href="#DejaVuSans-34" x="95.410156"/>
      </g>
     </g>
    </g>
    <g id="ytick_7">
     <g id="line2d_12">
      <g>
       <use xlink:href="#m96cde1263d" x="42.01" y="55.094976" style="stroke: #000000; stroke-width: 0.8"/>
      </g>
     </g>
     <g id="text_13">
      <!-- 0.5 -->
      <g transform="translate(19.106875 58.894195)scale(0.1 -0.1)">
       <use xlink:href="#DejaVuSans-30"/>
       <use xlink:href="#DejaVuSans-2e" x="63.623047"/>
       <use xlink:href="#DejaVuSans-35" x="95.410156"/>
      </g>
     </g>
    </g>
    <g id="ytick_8">
     <g id="line2d_13">
      <g>
       <use xlink:href="#m96cde1263d" x="42.01" y="17.434002" style="stroke: #000000; stroke-width: 0.8"/>
      </g>
     </g>
     <g id="text_14">
      <!-- 0.6 -->
      <g transform="translate(19.106875 21.233221)scale(0.1 -0.1)">
       <defs>
        <path id="DejaVuSans-36" d="M 2113 2584 
Q 1688 2584 1439 2293 
Q 1191 2003 1191 1497 
Q 1191 994 1439 701 
Q 1688 409 2113 409 
Q 2538 409 2786 701 
Q 3034 994 3034 1497 
Q 3034 2003 2786 2293 
Q 2538 2584 2113 2584 
z
M 3366 4563 
L 3366 3988 
Q 3128 4100 2886 4159 
Q 2644 4219 2406 4219 
Q 1781 4219 1451 3797 
Q 1122 3375 1075 2522 
Q 1259 2794 1537 2939 
Q 1816 3084 2150 3084 
Q 2853 3084 3261 2657 
Q 3669 2231 3669 1497 
Q 3669 778 3244 343 
Q 2819 -91 2113 -91 
Q 1303 -91 875 529 
Q 447 1150 447 2328 
Q 447 3434 972 4092 
Q 1497 4750 2381 4750 
Q 2619 4750 2861 4703 
Q 3103 4656 3366 4563 
z
" transform="scale(0.015625)"/>
       </defs>
       <use xlink:href="#DejaVuSans-30"/>
       <use xlink:href="#DejaVuSans-2e" x="63.623047"/>
       <use xlink:href="#DejaVuSans-36" x="95.410156"/>
      </g>
     </g>
    </g>
   </g>
   <g id="line2d_14">
    <path d="M 50.03016 243.399847 
L 50.142751 233.088091 
L 50.431571 206.615429 
L 50.534372 206.854094 
L 51.630912 209.396575 
L 51.635807 209.17803 
L 52.037219 173.102778 
L 52.135124 173.558788 
L 53.236559 178.6732 
L 53.241454 178.465975 
L 53.642866 143.316932 
L 53.735876 143.964134 
L 54.842206 151.626293 
L 54.851997 151.004168 
L 55.243618 117.601557 
L 55.336628 118.455104 
L 56.442959 128.54445 
L 56.452749 127.943568 
L 56.849266 94.982736 
L 56.93738 95.983209 
L 58.048606 108.503228 
L 58.063292 107.518185 
L 58.454913 75.797522 
L 58.543028 76.982424 
L 59.654253 91.789673 
L 59.668939 90.834364 
L 60.055665 60.285902 
L 60.138885 61.568942 
L 61.255005 78.597576 
L 61.269691 77.670086 
L 61.661313 47.473873 
L 61.744532 48.914356 
L 62.860653 68.008015 
L 62.880234 66.730387 
L 63.26696 37.614072 
L 63.345284 39.109182 
L 64.4663 60.231732 
L 64.485881 58.987231 
L 64.867712 30.877471 
L 64.946036 32.500443 
L 66.067052 55.401641 
L 66.086633 54.187349 
L 66.473359 26.309888 
L 66.551684 28.053107 
L 67.6727 52.622538 
L 67.697176 51.082798 
L 68.079007 24.110909 
L 68.152436 25.848717 
L 69.278347 52.059361 
L 69.302823 50.55181 
L 69.679759 24.413495 
L 69.753188 26.243492 
L 70.879099 53.813981 
L 70.903575 52.334873 
L 71.285406 26.296502 
L 71.358835 28.211174 
L 72.484746 57.026564 
L 72.509223 55.573408 
L 72.891054 29.933799 
L 72.964483 31.923845 
L 74.090394 61.842372 
L 74.11487 60.412107 
L 74.491806 35.446234 
L 74.560339 37.363942 
L 75.691146 68.356734 
L 75.715622 66.945791 
L 76.097453 41.952947 
L 76.165987 43.924225 
L 77.296793 75.751086 
L 77.32127 74.357166 
L 77.7031 49.62432 
L 77.771634 51.641159 
L 78.902441 84.171891 
L 78.931812 82.470615 
L 79.303853 58.589216 
L 79.372386 60.642357 
L 80.503193 93.726588 
L 80.532564 92.038562 
L 80.9095 68.00931 
L 80.978034 70.093053 
L 82.10884 103.639069 
L 82.138212 101.961969 
L 82.515147 78.06824 
L 82.583681 80.175691 
L 83.714488 114.072371 
L 83.743859 112.403378 
L 84.115899 88.917169 
L 84.184433 91.04035 
L 85.31524 125.15893 
L 85.344611 123.494775 
L 85.721547 99.758701 
L 85.79008 101.893143 
L 86.920887 136.162692 
L 86.945363 134.816524 
L 87.327194 110.801102 
L 87.395728 112.941271 
L 88.526534 147.273379 
L 88.551011 145.927915 
L 88.927946 122.226703 
L 88.99648 124.36607 
L 90.127286 158.656039 
L 90.151763 157.309076 
L 90.533594 133.274679 
L 90.602127 135.410149 
L 91.732934 169.609801 
L 91.75741 168.260357 
L 92.139241 144.184456 
L 92.207775 146.311929 
L 93.338581 180.356504 
L 93.363058 179.003236 
L 93.744888 154.865227 
L 93.813422 156.98107 
L 94.939333 190.671401 
L 94.96381 189.313324 
L 95.34564 165.098162 
L 95.414174 167.199738 
L 96.544981 200.779215 
L 96.569457 199.41512 
L 96.951288 175.104253 
L 97.019822 177.188293 
L 98.150628 210.463508 
L 98.175104 209.09253 
L 98.556935 184.672756 
L 98.625469 186.736948 
L 99.75138 219.534333 
L 99.775856 218.155955 
L 100.157687 193.619481 
L 100.226221 195.662484 
L 101.357028 228.238317 
L 101.381504 226.851763 
L 101.763335 202.186747 
L 101.831868 204.206487 
L 102.962675 236.390817 
L 102.987151 234.99564 
L 103.368982 210.195384 
L 103.437516 212.190709 
L 104.563427 243.833781 
L 104.587903 242.429863 
L 104.969734 217.492761 
L 105.038268 219.463429 
L 106.169074 250.829014 
L 106.188655 249.744371 
L 106.575381 224.33583 
L 106.643915 226.280776 
L 107.774722 257.220242 
L 107.794303 256.128199 
L 108.181029 230.573427 
L 108.249563 232.492446 
L 109.375474 262.876686 
L 109.395055 261.777404 
L 109.781781 236.079757 
L 109.850315 237.973479 
L 110.981121 268.069187 
L 111.000702 266.96257 
L 111.387428 241.120321 
L 111.460857 243.12161 
L 112.586769 272.665101 
L 112.60635 271.551279 
L 112.993076 245.567154 
L 113.066505 247.541596 
L 114.187521 276.555404 
L 114.207102 275.434726 
L 114.593828 249.315726 
L 114.667257 251.264676 
L 115.793168 280.014711 
L 115.812749 278.887249 
L 116.199475 252.634919 
L 116.272904 254.558695 
L 117.398815 282.928684 
L 117.418396 281.794715 
L 117.805123 255.414614 
L 117.878552 257.314293 
L 118.999568 285.204279 
L 119.019149 284.064274 
L 119.405875 257.565781 
L 119.479304 259.443158 
L 120.605215 287.115704 
L 120.624796 285.969844 
L 121.011522 259.356591 
L 121.084951 261.212371 
L 122.210862 288.561565 
L 122.230443 287.410213 
L 122.617169 260.689431 
L 122.690598 262.524996 
L 123.811614 289.459287 
L 123.831195 288.302979 
L 124.217921 261.485299 
L 124.29135 263.302674 
L 125.417262 290.079602 
L 125.436843 288.918575 
L 125.823569 262.008681 
L 125.896998 263.808761 
L 127.022909 290.329091 
L 127.04249 289.163744 
L 127.429216 262.169546 
L 127.502645 263.953835 
L 128.623661 290.130758 
L 128.643242 288.961646 
L 129.029968 261.894094 
L 129.103397 263.664671 
L 130.229309 289.749855 
L 130.24889 288.577226 
L 130.635616 261.44121 
L 130.709045 263.199 
L 131.834956 289.096637 
L 131.854537 287.920888 
L 132.241263 260.724209 
L 132.314692 262.470692 
L 133.435708 288.095636 
L 133.455289 286.917302 
L 133.842015 259.670518 
L 133.915444 261.407691 
L 135.041355 287.005562 
L 135.060936 285.824869 
L 135.447663 258.532428 
L 135.521092 260.261129 
L 136.647003 285.736877 
L 136.666584 284.554188 
L 137.05331 257.223211 
L 137.126739 258.944784 
L 138.247755 284.212519 
L 138.267336 283.028326 
L 138.654062 255.668478 
L 138.727491 257.384748 
L 139.853402 282.684373 
L 139.872983 281.498858 
L 140.259709 254.113702 
L 140.333138 255.825337 
L 141.45905 281.060525 
L 141.473735 280.227985 
L 141.865357 252.4696 
L 141.938786 254.17774 
L 143.059802 279.260129 
L 143.079383 278.073022 
L 143.466109 250.657856 
L 143.539538 252.364099 
L 144.665449 277.528565 
L 144.68503 276.341003 
L 145.071756 248.917485 
L 145.15008 250.735652 
L 146.271096 275.76981 
L 146.290678 274.582039 
L 146.677404 247.154987 
L 146.755728 248.972572 
L 147.871849 273.897904 
L 147.89143 272.71029 
L 148.278156 245.286855 
L 148.351585 246.991902 
L 149.477496 272.152462 
L 149.497077 270.965066 
L 149.883803 243.546415 
L 149.957232 245.252471 
L 151.083143 270.432384 
L 151.102724 269.245387 
L 151.48945 241.835039 
L 151.562879 243.542761 
L 152.683895 268.646008 
L 152.703476 267.459708 
L 153.090203 240.063499 
L 153.163632 241.773983 
L 154.289543 267.028173 
L 154.309124 265.84257 
L 154.69585 238.460434 
L 154.769279 240.173657 
L 155.89519 265.47238 
L 155.914771 264.287592 
L 156.301497 236.921817 
L 156.374926 238.638203 
L 157.495942 263.88127 
L 157.515523 262.697533 
L 157.902249 235.352742 
L 157.975678 237.073158 
L 159.10159 262.486006 
L 159.121171 261.303263 
L 159.507897 233.97827 
L 159.581326 235.702482 
L 160.707237 261.174872 
L 160.726818 259.993185 
L 161.113544 232.689187 
L 161.186973 234.417412 
L 162.307989 259.845247 
L 162.32757 258.6648 
L 162.714296 231.38538 
L 162.787725 233.118292 
L 163.913636 258.725726 
L 163.933218 257.546412 
L 164.319944 230.289431 
L 164.393373 232.026615 
L 165.519284 257.699903 
L 165.538865 256.521739 
L 165.925591 229.287494 
L 165.99902 231.028999 
L 167.120036 256.660636 
L 167.139617 255.483763 
L 167.526343 228.275005 
L 167.599772 230.021347 
L 168.725683 255.83496 
L 168.745264 254.659233 
L 169.13199 227.473067 
L 169.205419 229.22369 
L 170.331331 255.102542 
L 170.350912 253.927942 
L 170.737638 226.763975 
L 170.811067 228.518799 
L 171.932083 254.352607 
L 171.951664 253.179243 
L 172.33839 226.039612 
L 172.411819 227.799039 
L 173.53773 253.811505 
L 173.557311 252.639204 
L 173.944037 225.520462 
L 174.017466 227.283832 
L 175.143377 253.355836 
L 175.162959 252.184555 
L 175.549685 225.085829 
L 175.623114 226.852974 
L 176.74413 252.872138 
L 176.763711 251.701965 
L 177.150437 224.624986 
L 177.223866 226.396233 
L 178.349777 252.586772 
L 178.369358 251.417515 
L 178.756084 224.35848 
L 178.829513 226.133102 
L 179.955424 252.374153 
L 179.975005 251.205752 
L 180.361731 224.163499 
L 180.43516 225.941276 
L 181.556176 252.11903 
L 181.575758 250.951563 
L 181.962484 223.927605 
L 182.035913 225.708822 
L 183.161824 252.048296 
L 183.181405 250.881562 
L 183.568131 223.871908 
L 183.64156 225.655806 
L 184.767471 252.034995 
L 184.787052 250.868928 
L 185.173778 223.872294 
L 185.247207 225.658628 
L 186.368223 251.962901 
L 186.387804 250.797576 
L 186.77453 223.815409 
L 186.847959 225.604455 
L 187.973871 252.059779 
L 187.993452 250.89499 
L 188.380178 223.923256 
L 188.453607 225.714248 
L 189.579518 252.198014 
L 189.599099 251.033697 
L 189.985825 224.071118 
L 190.059254 225.863814 
L 191.18027 252.26108 
L 191.199851 251.09731 
L 191.586577 224.14539 
L 191.660006 225.940077 
L 192.785917 252.477797 
L 192.805499 251.314374 
L 193.192225 224.369141 
L 193.265654 226.165065 
L 194.391565 252.720473 
L 194.411146 251.557336 
L 194.797872 224.617618 
L 194.871301 226.414558 
L 195.992317 252.872801 
L 196.011898 251.710034 
L 196.398624 224.777473 
L 196.472053 226.575742 
L 197.597964 253.164716 
L 197.617545 252.002123 
L 198.004271 225.072888 
L 198.0777 226.87176 
L 199.203612 253.46888 
L 199.223193 252.306411 
L 199.609919 225.379495 
L 199.683348 227.178782 
L 200.804364 253.669579 
L 200.823945 252.507326 
L 201.210671 225.584564 
L 201.2841 227.384614 
L 202.410011 253.997814 
L 202.429592 252.835592 
L 202.816318 225.913337 
L 202.889747 227.713461 
L 204.015659 254.3269 
L 204.03524 253.164669 
L 204.421966 226.242115 
L 204.495395 228.042162 
L 205.616411 254.541941 
L 205.635992 253.379803 
L 206.022718 226.459001 
L 206.096147 228.259361 
L 207.222058 254.874893 
L 207.241639 253.712673 
L 207.628365 226.790178 
L 207.701794 228.5902 
L 208.827705 255.199888 
L 208.847286 254.037556 
L 209.234012 227.112776 
L 209.307441 228.912349 
L 210.428457 255.402956 
L 210.433353 255.284716 
" clip-path="url(#p7d4dff335c)" style="fill: none; stroke: #1f77b4; stroke-width: 1.5; stroke-linecap: square"/>
   </g>
   <g id="line2d_15">
    <path d="M 50.03016 243.399847 
L 210.433353 243.399847 
L 210.433353 243.399847 
" clip-path="url(#p7d4dff335c)" style="fill: none; stroke: #ff7f0e; stroke-width: 1.5; stroke-linecap: square"/>
   </g>
   <g id="patch_3">
    <path d="M 42.01 303.64 
L 42.01 10.8 
" style="fill: none; stroke: #000000; stroke-width: 0.8; stroke-linejoin: miter; stroke-linecap: square"/>
   </g>
   <g id="patch_4">
    <path d="M 218.453512 303.64 
L 218.453512 10.8 
" style="fill: none; stroke: #000000; stroke-width: 0.8; stroke-linejoin: miter; stroke-linecap: square"/>
   </g>
   <g id="patch_5">
    <path d="M 42.01 303.64 
L 218.453512 303.64 
" style="fill: none; stroke: #000000; stroke-width: 0.8; stroke-linejoin: miter; stroke-linecap: square"/>
   </g>
   <g id="patch_6">
    <path d="M 42.01 10.8 
L 218.453512 10.8 
" style="fill: none; stroke: #000000; stroke-width: 0.8; stroke-linejoin: miter; stroke-linecap: square"/>
   </g>
   <g id="legend_1">
    <g id="patch_7">
     <path d="M 170.384762 48.15625 
L 211.453512 48.15625 
Q 213.453512 48.15625 213.453512 46.15625 
L 213.453512 17.8 
Q 213.453512 15.8 211.453512 15.8 
L 170.384762 15.8 
Q 168.384762 15.8 168.384762 17.8 
L 168.384762 46.15625 
Q 168.384762 48.15625 170.384762 48.15625 
z
" style="fill: #ffffff; opacity: 0.8; stroke: #cccccc; stroke-linejoin: miter"/>
    </g>
    <g id="line2d_16">
     <path d="M 172.384762 23.898438 
L 182.384762 23.898438 
L 192.384762 23.898438 
" style="fill: none; stroke: #1f77b4; stroke-width: 1.5; stroke-linecap: square"/>
    </g>
    <g id="text_15">
     <!-- Ix -->
     <g transform="translate(200.384762 27.398438)scale(0.1 -0.1)">
      <defs>
       <path id="DejaVuSans-49" d="M 628 4666 
L 1259 4666 
L 1259 0 
L 628 0 
L 628 4666 
z
" transform="scale(0.015625)"/>
       <path id="DejaVuSans-78" d="M 3513 3500 
L 2247 1797 
L 3578 0 
L 2900 0 
L 1881 1375 
L 863 0 
L 184 0 
L 1544 1831 
L 300 3500 
L 978 3500 
L 1906 2253 
L 2834 3500 
L 3513 3500 
z
" transform="scale(0.015625)"/>
      </defs>
      <use xlink:href="#DejaVuSans-49"/>
      <use xlink:href="#DejaVuSans-78" x="29.492188"/>
     </g>
    </g>
    <g id="line2d_17">
     <path d="M 172.384762 38.576563 
L 182.384762 38.576563 
L 192.384762 38.576563 
" style="fill: none; stroke: #ff7f0e; stroke-width: 1.5; stroke-linecap: square"/>
    </g>
    <g id="text_16">
     <!-- Io -->
     <g transform="translate(200.384762 42.076563)scale(0.1 -0.1)">
      <defs>
       <path id="DejaVuSans-6f" d="M 1959 3097 
Q 1497 3097 1228 2736 
Q 959 2375 959 1747 
Q 959 1119 1226 758 
Q 1494 397 1959 397 
Q 2419 397 2687 759 
Q 2956 1122 2956 1747 
Q 2956 2369 2687 2733 
Q 2419 3097 1959 3097 
z
M 1959 3584 
Q 2709 3584 3137 3096 
Q 3566 2609 3566 1747 
Q 3566 888 3137 398 
Q 2709 -91 1959 -91 
Q 1206 -91 779 398 
Q 353 888 353 1747 
Q 353 2609 779 3096 
Q 1206 3584 1959 3584 
z
" transform="scale(0.015625)"/>
      </defs>
      <use xlink:href="#DejaVuSans-49"/>
      <use xlink:href="#DejaVuSans-6f" x="29.492188"/>
     </g>
    </g>
   </g>
  </g>
  <g id="axes_2">
   <g id="patch_8">
    <path d="M 269.865 303.64 
L 446.308512 303.64 
L 446.308512 10.8 
L 269.865 10.8 
z
" style="fill: #ffffff"/>
   </g>
   <g id="matplotlib.axis_3">
    <g id="xtick_6">
     <g id="line2d_18">
      <g>
       <use xlink:href="#m0699e2405b" x="277.88516" y="303.64" style="stroke: #000000; stroke-width: 0.8"/>
      </g>
     </g>
     <g id="text_17">
      <!-- 0.0 -->
      <g transform="translate(269.933597 318.238437)scale(0.1 -0.1)">
       <use xlink:href="#DejaVuSans-30"/>
       <use xlink:href="#DejaVuSans-2e" x="63.623047"/>
       <use xlink:href="#DejaVuSans-30" x="95.410156"/>
      </g>
     </g>
    </g>
    <g id="xtick_7">
     <g id="line2d_19">
      <g>
       <use xlink:href="#m0699e2405b" x="317.985958" y="303.64" style="stroke: #000000; stroke-width: 0.8"/>
      </g>
     </g>
     <g id="text_18">
      <!-- 2.5 -->
      <g transform="translate(310.034395 318.238437)scale(0.1 -0.1)">
       <use xlink:href="#DejaVuSans-32"/>
       <use xlink:href="#DejaVuSans-2e" x="63.623047"/>
       <use xlink:href="#DejaVuSans-35" x="95.410156"/>
      </g>
     </g>
    </g>
    <g id="xtick_8">
     <g id="line2d_20">
      <g>
       <use xlink:href="#m0699e2405b" x="358.086756" y="303.64" style="stroke: #000000; stroke-width: 0.8"/>
      </g>
     </g>
     <g id="text_19">
      <!-- 5.0 -->
      <g transform="translate(350.135194 318.238437)scale(0.1 -0.1)">
       <use xlink:href="#DejaVuSans-35"/>
       <use xlink:href="#DejaVuSans-2e" x="63.623047"/>
       <use xlink:href="#DejaVuSans-30" x="95.410156"/>
      </g>
     </g>
    </g>
    <g id="xtick_9">
     <g id="line2d_21">
      <g>
       <use xlink:href="#m0699e2405b" x="398.187554" y="303.64" style="stroke: #000000; stroke-width: 0.8"/>
      </g>
     </g>
     <g id="text_20">
      <!-- 7.5 -->
      <g transform="translate(390.235992 318.238437)scale(0.1 -0.1)">
       <use xlink:href="#DejaVuSans-37"/>
       <use xlink:href="#DejaVuSans-2e" x="63.623047"/>
       <use xlink:href="#DejaVuSans-35" x="95.410156"/>
      </g>
     </g>
    </g>
    <g id="xtick_10">
     <g id="line2d_22">
      <g>
       <use xlink:href="#m0699e2405b" x="438.288353" y="303.64" style="stroke: #000000; stroke-width: 0.8"/>
      </g>
     </g>
     <g id="text_21">
      <!-- 10.0 -->
      <g transform="translate(427.15554 318.238437)scale(0.1 -0.1)">
       <use xlink:href="#DejaVuSans-31"/>
       <use xlink:href="#DejaVuSans-30" x="63.623047"/>
       <use xlink:href="#DejaVuSans-2e" x="127.246094"/>
       <use xlink:href="#DejaVuSans-30" x="159.033203"/>
      </g>
     </g>
    </g>
    <g id="text_22">
     <!-- Time [us] -->
     <g transform="translate(334.5891 331.916562)scale(0.1 -0.1)">
      <use xlink:href="#DejaVuSans-54"/>
      <use xlink:href="#DejaVuSans-69" x="57.958984"/>
      <use xlink:href="#DejaVuSans-6d" x="85.742188"/>
      <use xlink:href="#DejaVuSans-65" x="183.154297"/>
      <use xlink:href="#DejaVuSans-20" x="244.677734"/>
      <use xlink:href="#DejaVuSans-5b" x="276.464844"/>
      <use xlink:href="#DejaVuSans-75" x="315.478516"/>
      <use xlink:href="#DejaVuSans-73" x="378.857422"/>
      <use xlink:href="#DejaVuSans-5d" x="430.957031"/>
     </g>
    </g>
   </g>
   <g id="matplotlib.axis_4">
    <g id="ytick_9">
     <g id="line2d_23">
      <g>
       <use xlink:href="#m96cde1263d" x="269.865" y="290.329091" style="stroke: #000000; stroke-width: 0.8"/>
      </g>
     </g>
     <g id="text_23">
      <!-- 0.0 -->
      <g transform="translate(246.961875 294.12831)scale(0.1 -0.1)">
       <use xlink:href="#DejaVuSans-30"/>
       <use xlink:href="#DejaVuSans-2e" x="63.623047"/>
       <use xlink:href="#DejaVuSans-30" x="95.410156"/>
      </g>
     </g>
    </g>
    <g id="ytick_10">
     <g id="line2d_24">
      <g>
       <use xlink:href="#m96cde1263d" x="269.865" y="244.481429" style="stroke: #000000; stroke-width: 0.8"/>
      </g>
     </g>
     <g id="text_24">
      <!-- 0.2 -->
      <g transform="translate(246.961875 248.280648)scale(0.1 -0.1)">
       <use xlink:href="#DejaVuSans-30"/>
       <use xlink:href="#DejaVuSans-2e" x="63.623047"/>
       <use xlink:href="#DejaVuSans-32" x="95.410156"/>
      </g>
     </g>
    </g>
    <g id="ytick_11">
     <g id="line2d_25">
      <g>
       <use xlink:href="#m96cde1263d" x="269.865" y="198.633767" style="stroke: #000000; stroke-width: 0.8"/>
      </g>
     </g>
     <g id="text_25">
      <!-- 0.4 -->
      <g transform="translate(246.961875 202.432986)scale(0.1 -0.1)">
       <use xlink:href="#DejaVuSans-30"/>
       <use xlink:href="#DejaVuSans-2e" x="63.623047"/>
       <use xlink:href="#DejaVuSans-34" x="95.410156"/>
      </g>
     </g>
    </g>
    <g id="ytick_12">
     <g id="line2d_26">
      <g>
       <use xlink:href="#m96cde1263d" x="269.865" y="152.786105" style="stroke: #000000; stroke-width: 0.8"/>
      </g>
     </g>
     <g id="text_26">
      <!-- 0.6 -->
      <g transform="translate(246.961875 156.585324)scale(0.1 -0.1)">
       <use xlink:href="#DejaVuSans-30"/>
       <use xlink:href="#DejaVuSans-2e" x="63.623047"/>
       <use xlink:href="#DejaVuSans-36" x="95.410156"/>
      </g>
     </g>
    </g>
    <g id="ytick_13">
     <g id="line2d_27">
      <g>
       <use xlink:href="#m96cde1263d" x="269.865" y="106.938443" style="stroke: #000000; stroke-width: 0.8"/>
      </g>
     </g>
     <g id="text_27">
      <!-- 0.8 -->
      <g transform="translate(246.961875 110.737662)scale(0.1 -0.1)">
       <defs>
        <path id="DejaVuSans-38" d="M 2034 2216 
Q 1584 2216 1326 1975 
Q 1069 1734 1069 1313 
Q 1069 891 1326 650 
Q 1584 409 2034 409 
Q 2484 409 2743 651 
Q 3003 894 3003 1313 
Q 3003 1734 2745 1975 
Q 2488 2216 2034 2216 
z
M 1403 2484 
Q 997 2584 770 2862 
Q 544 3141 544 3541 
Q 544 4100 942 4425 
Q 1341 4750 2034 4750 
Q 2731 4750 3128 4425 
Q 3525 4100 3525 3541 
Q 3525 3141 3298 2862 
Q 3072 2584 2669 2484 
Q 3125 2378 3379 2068 
Q 3634 1759 3634 1313 
Q 3634 634 3220 271 
Q 2806 -91 2034 -91 
Q 1263 -91 848 271 
Q 434 634 434 1313 
Q 434 1759 690 2068 
Q 947 2378 1403 2484 
z
M 1172 3481 
Q 1172 3119 1398 2916 
Q 1625 2713 2034 2713 
Q 2441 2713 2670 2916 
Q 2900 3119 2900 3481 
Q 2900 3844 2670 4047 
Q 2441 4250 2034 4250 
Q 1625 4250 1398 4047 
Q 1172 3844 1172 3481 
z
" transform="scale(0.015625)"/>
       </defs>
       <use xlink:href="#DejaVuSans-30"/>
       <use xlink:href="#DejaVuSans-2e" x="63.623047"/>
       <use xlink:href="#DejaVuSans-38" x="95.410156"/>
      </g>
     </g>
    </g>
    <g id="ytick_14">
     <g id="line2d_28">
      <g>
       <use xlink:href="#m96cde1263d" x="269.865" y="61.090781" style="stroke: #000000; stroke-width: 0.8"/>
      </g>
     </g>
     <g id="text_28">
      <!-- 1.0 -->
      <g transform="translate(246.961875 64.89)scale(0.1 -0.1)">
       <use xlink:href="#DejaVuSans-31"/>
       <use xlink:href="#DejaVuSans-2e" x="63.623047"/>
       <use xlink:href="#DejaVuSans-30" x="95.410156"/>
      </g>
     </g>
    </g>
    <g id="ytick_15">
     <g id="line2d_29">
      <g>
       <use xlink:href="#m96cde1263d" x="269.865" y="15.243119" style="stroke: #000000; stroke-width: 0.8"/>
      </g>
     </g>
     <g id="text_29">
      <!-- 1.2 -->
      <g transform="translate(246.961875 19.042338)scale(0.1 -0.1)">
       <use xlink:href="#DejaVuSans-31"/>
       <use xlink:href="#DejaVuSans-2e" x="63.623047"/>
       <use xlink:href="#DejaVuSans-32" x="95.410156"/>
      </g>
     </g>
    </g>
    <g id="text_30">
     <!-- vo -->
     <g transform="translate(240.882187 163.23875)rotate(-90)scale(0.1 -0.1)">
      <defs>
       <path id="DejaVuSans-76" d="M 191 3500 
L 800 3500 
L 1894 563 
L 2988 3500 
L 3597 3500 
L 2284 0 
L 1503 0 
L 191 3500 
z
" transform="scale(0.015625)"/>
      </defs>
      <use xlink:href="#DejaVuSans-76"/>
      <use xlink:href="#DejaVuSans-6f" x="59.179688"/>
     </g>
    </g>
   </g>
   <g id="line2d_30">
    <path d="M 277.88516 290.329091 
L 278.134818 290.220708 
L 278.501963 289.749118 
L 279.877533 287.670541 
L 281.669201 282.640569 
L 283.539192 275.194166 
L 285.223164 266.892456 
L 287.063784 256.327428 
L 288.669431 246.059581 
L 290.730339 231.9207 
L 291.714287 224.580076 
L 295.850787 193.223192 
L 298.685146 171.132149 
L 300.716682 155.619086 
L 302.268481 144.041169 
L 304.334284 128.976922 
L 306.424563 114.679628 
L 310.003002 92.501503 
L 314.589867 68.353703 
L 318.138935 53.664556 
L 320.782379 44.57659 
L 322.843286 39.035626 
L 323.337708 37.728736 
L 324.101369 35.914143 
L 327.224549 30.085568 
L 329.25119 27.59974 
L 329.579173 27.248079 
L 330.293881 26.384285 
L 330.81278 26.101554 
L 331.121181 25.906738 
L 332.041491 25.123346 
L 333.172298 24.582426 
L 333.66672 24.411933 
L 334.660459 24.218718 
L 335.14509 24.111385 
L 335.610141 24.236605 
L 335.952809 24.286003 
L 336.736052 24.169946 
L 337.210893 24.39906 
L 337.563352 24.52041 
L 338.302537 24.550949 
L 338.792064 24.869941 
L 339.193476 25.083573 
L 339.82986 25.207835 
L 340.334073 25.591263 
L 340.838285 25.945859 
L 341.322917 26.099932 
L 341.832024 26.512561 
L 342.512466 27.072989 
L 342.997098 27.329727 
L 343.535577 27.88314 
L 344.069161 28.391482 
L 344.558688 28.688246 
L 345.111853 29.301368 
L 345.699285 29.920088 
L 346.203497 30.292808 
L 346.781139 31.016103 
L 347.27556 31.568728 
L 347.789563 31.979304 
L 348.376995 32.751942 
L 348.890998 33.361124 
L 349.419687 33.826293 
L 350.0267 34.679324 
L 350.486855 35.236048 
L 351.020439 35.727248 
L 351.637243 36.619795 
L 352.082712 37.171123 
L 352.621191 37.680453 
L 353.24289 38.595299 
L 353.693255 39.159844 
L 354.236629 39.686896 
L 354.863223 40.623424 
L 355.294007 41.162083 
L 355.842277 41.694735 
L 356.473766 42.639394 
L 356.889864 43.153437 
L 357.438133 43.67685 
L 358.069623 44.608435 
L 358.495511 45.133031 
L 359.043781 45.646022 
L 359.67527 46.563238 
L 360.101158 47.076772 
L 360.649428 47.573961 
L 361.276022 48.462644 
L 361.697015 48.956549 
L 362.24039 49.423334 
L 362.862089 50.271269 
L 363.302663 50.77939 
L 363.841142 51.21693 
L 364.457945 52.025514 
L 364.90831 52.527525 
L 365.441894 52.93292 
L 366.048907 53.691711 
L 366.504167 54.179914 
L 367.037751 54.551185 
L 367.634973 55.256309 
L 368.109814 55.746079 
L 368.638503 56.081305 
L 369.225935 56.734303 
L 369.715461 57.214678 
L 370.239255 57.512774 
L 370.821792 58.119611 
L 371.311318 58.571354 
L 371.844902 58.838281 
L 372.417648 59.39516 
L 372.916966 59.826569 
L 373.445654 60.054918 
L 374.00861 60.560205 
L 374.517718 60.974161 
L 375.065988 61.176735 
L 375.619153 61.640711 
L 376.113575 62.007567 
L 376.681425 62.179818 
L 377.229695 62.606677 
L 377.709431 62.935285 
L 378.32134 63.087738 
L 378.864714 63.489656 
L 379.300393 63.75855 
L 379.98573 63.899565 
L 380.529105 64.293318 
L 380.876669 64.473584 
L 381.689283 64.617932 
L 382.785823 65.063735 
L 383.29493 65.185838 
L 384.386575 65.56727 
L 384.890787 65.655981 
L 385.992222 65.973152 
L 386.50133 66.036155 
L 387.588079 66.295041 
L 388.097187 66.327663 
L 388.655247 66.602615 
L 388.953858 66.610216 
L 389.511919 66.514275 
L 390.021026 66.661896 
L 390.520344 66.794843 
L 391.235052 66.668034 
L 391.749055 66.847235 
L 392.081933 66.910119 
L 393.031615 66.77289 
L 393.858915 66.870791 
L 394.382709 66.74906 
L 394.891816 66.859396 
L 395.303019 66.920504 
L 396.174376 66.707816 
L 397.138744 66.720479 
L 397.662537 66.597609 
L 398.171645 66.707027 
L 398.489837 66.726199 
L 399.498262 66.468778 
L 400.222761 66.484106 
L 400.761241 66.274239 
L 401.270348 66.310747 
L 401.735399 66.332574 
L 402.533327 66.038673 
L 403.052225 66.138605 
L 403.341046 66.095766 
L 404.138975 65.789223 
L 404.662768 65.88164 
L 404.951589 65.826041 
L 405.700565 65.514413 
L 406.204777 65.580719 
L 406.503388 65.567174 
L 407.536289 65.221477 
L 408.241208 65.18493 
L 408.789478 64.933746 
L 409.298585 64.940109 
L 409.74895 64.933098 
L 410.571355 64.589287 
L 411.114729 64.669661 
L 411.40355 64.578998 
L 412.010563 64.287099 
L 412.519671 64.295702 
L 412.955349 64.287842 
L 413.80223 63.939302 
L 414.820446 63.788276 
L 415.349135 63.615041 
L 415.858242 63.681358 
L 416.151958 63.64138 
L 417.042897 63.2891 
L 417.987683 63.173378 
L 418.521267 62.984077 
L 419.02548 63.038458 
L 419.333881 63.024945 
L 420.356992 62.674208 
L 421.081491 62.635146 
L 421.624866 62.395603 
L 422.129078 62.410748 
L 422.589233 62.413003 
L 423.377371 62.096829 
L 423.886479 62.181657 
L 424.180195 62.143262 
L 425.017286 61.825676 
L 426.079558 61.706629 
L 426.603352 61.573957 
L 427.12225 61.676764 
L 427.415966 61.625869 
L 428.13557 61.343321 
L 428.634887 61.418093 
L 428.96287 61.424707 
L 429.951714 61.128792 
L 430.730061 61.12061 
L 431.263646 60.926566 
L 431.762963 60.977084 
L 432.208432 61.006753 
L 433.016151 60.737427 
L 433.535049 60.861295 
L 433.828765 60.822398 
L 434.543474 60.569602 
L 435.042791 60.66289 
L 435.390355 60.684796 
L 436.320456 60.43037 
L 437.201604 60.436138 
L 437.725397 60.292853 
L 438.224714 60.385397 
L 438.288353 60.412877 
L 438.288353 60.412877 
" clip-path="url(#p96cc8a21c1)" style="fill: none; stroke: #1f77b4; stroke-width: 1.5; stroke-linecap: square"/>
   </g>
   <g id="patch_9">
    <path d="M 269.865 303.64 
L 269.865 10.8 
" style="fill: none; stroke: #000000; stroke-width: 0.8; stroke-linejoin: miter; stroke-linecap: square"/>
   </g>
   <g id="patch_10">
    <path d="M 446.308512 303.64 
L 446.308512 10.8 
" style="fill: none; stroke: #000000; stroke-width: 0.8; stroke-linejoin: miter; stroke-linecap: square"/>
   </g>
   <g id="patch_11">
    <path d="M 269.865 303.64 
L 446.308512 303.64 
" style="fill: none; stroke: #000000; stroke-width: 0.8; stroke-linejoin: miter; stroke-linecap: square"/>
   </g>
   <g id="patch_12">
    <path d="M 269.865 10.8 
L 446.308512 10.8 
" style="fill: none; stroke: #000000; stroke-width: 0.8; stroke-linejoin: miter; stroke-linecap: square"/>
   </g>
  </g>
 </g>
 <defs>
  <clipPath id="p7d4dff335c">
   <rect x="42.01" y="10.8" width="176.443512" height="292.84"/>
  </clipPath>
  <clipPath id="p96cc8a21c1">
   <rect x="269.865" y="10.8" width="176.443512" height="292.84"/>
  </clipPath>
 </defs>
</svg>
