<?xml version="1.0" encoding="utf-8" standalone="no"?>
<!DOCTYPE svg PUBLIC "-//W3C//DTD SVG 1.1//EN"
  "http://www.w3.org/Graphics/SVG/1.1/DTD/svg11.dtd">
<svg xmlns:xlink="http://www.w3.org/1999/xlink" width="460.8pt" height="345.6pt" viewBox="0 0 460.8 345.6" xmlns="http://www.w3.org/2000/svg" version="1.1">
 <metadata>
  <rdf:RDF xmlns:dc="http://purl.org/dc/elements/1.1/" xmlns:cc="http://creativecommons.org/ns#" xmlns:rdf="http://www.w3.org/1999/02/22-rdf-syntax-ns#">
   <cc:Work>
    <dc:type rdf:resource="http://purl.org/dc/dcmitype/StillImage"/>
    <dc:date>2023-02-24T18:44:21.510929</dc:date>
    <dc:format>image/svg+xml</dc:format>
    <dc:creator>
     <cc:Agent>
      <dc:title>Matplotlib v3.5.3, https://matplotlib.org/</dc:title>
     </cc:Agent>
    </dc:creator>
   </cc:Work>
  </rdf:RDF>
 </metadata>
 <defs>
  <style type="text/css">*{stroke-linejoin: round; stroke-linecap: butt}</style>
 </defs>
 <g id="figure_1">
  <g id="patch_1">
   <path d="M 0 345.6 
L 460.8 345.6 
L 460.8 0 
L 0 0 
z
" style="fill: #ffffff"/>
  </g>
  <g id="axes_1">
   <g id="patch_2">
    <path d="M 39.94 303.64 
L 209.498512 303.64 
L 209.498512 10.8 
L 39.94 10.8 
z
" style="fill: #ffffff"/>
   </g>
   <g id="matplotlib.axis_1">
    <g id="xtick_1">
     <g id="line2d_1">
      <defs>
       <path id="m5389572d7f" d="M 0 0 
L 0 3.5 
" style="stroke: #000000; stroke-width: 0.8"/>
      </defs>
      <g>
       <use xlink:href="#m5389572d7f" x="47.647205" y="303.64" style="stroke: #000000; stroke-width: 0.8"/>
      </g>
     </g>
     <g id="text_1">
      <!-- 0 -->
      <g transform="translate(44.465955 318.238437)scale(0.1 -0.1)">
       <defs>
        <path id="DejaVuSans-30" d="M 2034 4250 
Q 1547 4250 1301 3770 
Q 1056 3291 1056 2328 
Q 1056 1369 1301 889 
Q 1547 409 2034 409 
Q 2525 409 2770 889 
Q 3016 1369 3016 2328 
Q 3016 3291 2770 3770 
Q 2525 4250 2034 4250 
z
M 2034 4750 
Q 2819 4750 3233 4129 
Q 3647 3509 3647 2328 
Q 3647 1150 3233 529 
Q 2819 -91 2034 -91 
Q 1250 -91 836 529 
Q 422 1150 422 2328 
Q 422 3509 836 4129 
Q 1250 4750 2034 4750 
z
" transform="scale(0.015625)"/>
       </defs>
       <use xlink:href="#DejaVuSans-30"/>
      </g>
     </g>
    </g>
    <g id="xtick_2">
     <g id="line2d_2">
      <g>
       <use xlink:href="#m5389572d7f" x="86.183231" y="303.64" style="stroke: #000000; stroke-width: 0.8"/>
      </g>
     </g>
     <g id="text_2">
      <!-- 2500 -->
      <g transform="translate(73.458231 318.238437)scale(0.1 -0.1)">
       <defs>
        <path id="DejaVuSans-32" d="M 1228 531 
L 3431 531 
L 3431 0 
L 469 0 
L 469 531 
Q 828 903 1448 1529 
Q 2069 2156 2228 2338 
Q 2531 2678 2651 2914 
Q 2772 3150 2772 3378 
Q 2772 3750 2511 3984 
Q 2250 4219 1831 4219 
Q 1534 4219 1204 4116 
Q 875 4013 500 3803 
L 500 4441 
Q 881 4594 1212 4672 
Q 1544 4750 1819 4750 
Q 2544 4750 2975 4387 
Q 3406 4025 3406 3419 
Q 3406 3131 3298 2873 
Q 3191 2616 2906 2266 
Q 2828 2175 2409 1742 
Q 1991 1309 1228 531 
z
" transform="scale(0.015625)"/>
        <path id="DejaVuSans-35" d="M 691 4666 
L 3169 4666 
L 3169 4134 
L 1269 4134 
L 1269 2991 
Q 1406 3038 1543 3061 
Q 1681 3084 1819 3084 
Q 2600 3084 3056 2656 
Q 3513 2228 3513 1497 
Q 3513 744 3044 326 
Q 2575 -91 1722 -91 
Q 1428 -91 1123 -41 
Q 819 9 494 109 
L 494 744 
Q 775 591 1075 516 
Q 1375 441 1709 441 
Q 2250 441 2565 725 
Q 2881 1009 2881 1497 
Q 2881 1984 2565 2268 
Q 2250 2553 1709 2553 
Q 1456 2553 1204 2497 
Q 953 2441 691 2322 
L 691 4666 
z
" transform="scale(0.015625)"/>
       </defs>
       <use xlink:href="#DejaVuSans-32"/>
       <use xlink:href="#DejaVuSans-35" x="63.623047"/>
       <use xlink:href="#DejaVuSans-30" x="127.246094"/>
       <use xlink:href="#DejaVuSans-30" x="190.869141"/>
      </g>
     </g>
    </g>
    <g id="xtick_3">
     <g id="line2d_3">
      <g>
       <use xlink:href="#m5389572d7f" x="124.719256" y="303.64" style="stroke: #000000; stroke-width: 0.8"/>
      </g>
     </g>
     <g id="text_3">
      <!-- 5000 -->
      <g transform="translate(111.994256 318.238437)scale(0.1 -0.1)">
       <use xlink:href="#DejaVuSans-35"/>
       <use xlink:href="#DejaVuSans-30" x="63.623047"/>
       <use xlink:href="#DejaVuSans-30" x="127.246094"/>
       <use xlink:href="#DejaVuSans-30" x="190.869141"/>
      </g>
     </g>
    </g>
    <g id="xtick_4">
     <g id="line2d_4">
      <g>
       <use xlink:href="#m5389572d7f" x="163.255282" y="303.64" style="stroke: #000000; stroke-width: 0.8"/>
      </g>
     </g>
     <g id="text_4">
      <!-- 7500 -->
      <g transform="translate(150.530282 318.238437)scale(0.1 -0.1)">
       <defs>
        <path id="DejaVuSans-37" d="M 525 4666 
L 3525 4666 
L 3525 4397 
L 1831 0 
L 1172 0 
L 2766 4134 
L 525 4134 
L 525 4666 
z
" transform="scale(0.015625)"/>
       </defs>
       <use xlink:href="#DejaVuSans-37"/>
       <use xlink:href="#DejaVuSans-35" x="63.623047"/>
       <use xlink:href="#DejaVuSans-30" x="127.246094"/>
       <use xlink:href="#DejaVuSans-30" x="190.869141"/>
      </g>
     </g>
    </g>
    <g id="xtick_5">
     <g id="line2d_5">
      <g>
       <use xlink:href="#m5389572d7f" x="201.791307" y="303.64" style="stroke: #000000; stroke-width: 0.8"/>
      </g>
     </g>
     <g id="text_5">
      <!-- 10000 -->
      <g transform="translate(185.885057 318.238437)scale(0.1 -0.1)">
       <defs>
        <path id="DejaVuSans-31" d="M 794 531 
L 1825 531 
L 1825 4091 
L 703 3866 
L 703 4441 
L 1819 4666 
L 2450 4666 
L 2450 531 
L 3481 531 
L 3481 0 
L 794 0 
L 794 531 
z
" transform="scale(0.015625)"/>
       </defs>
       <use xlink:href="#DejaVuSans-31"/>
       <use xlink:href="#DejaVuSans-30" x="63.623047"/>
       <use xlink:href="#DejaVuSans-30" x="127.246094"/>
       <use xlink:href="#DejaVuSans-30" x="190.869141"/>
       <use xlink:href="#DejaVuSans-30" x="254.492188"/>
      </g>
     </g>
    </g>
    <g id="text_6">
     <!-- Time [us] -->
     <g transform="translate(101.2216 331.916562)scale(0.1 -0.1)">
      <defs>
       <path id="DejaVuSans-54" d="M -19 4666 
L 3928 4666 
L 3928 4134 
L 2272 4134 
L 2272 0 
L 1638 0 
L 1638 4134 
L -19 4134 
L -19 4666 
z
" transform="scale(0.015625)"/>
       <path id="DejaVuSans-69" d="M 603 3500 
L 1178 3500 
L 1178 0 
L 603 0 
L 603 3500 
z
M 603 4863 
L 1178 4863 
L 1178 4134 
L 603 4134 
L 603 4863 
z
" transform="scale(0.015625)"/>
       <path id="DejaVuSans-6d" d="M 3328 2828 
Q 3544 3216 3844 3400 
Q 4144 3584 4550 3584 
Q 5097 3584 5394 3201 
Q 5691 2819 5691 2113 
L 5691 0 
L 5113 0 
L 5113 2094 
Q 5113 2597 4934 2840 
Q 4756 3084 4391 3084 
Q 3944 3084 3684 2787 
Q 3425 2491 3425 1978 
L 3425 0 
L 2847 0 
L 2847 2094 
Q 2847 2600 2669 2842 
Q 2491 3084 2119 3084 
Q 1678 3084 1418 2786 
Q 1159 2488 1159 1978 
L 1159 0 
L 581 0 
L 581 3500 
L 1159 3500 
L 1159 2956 
Q 1356 3278 1631 3431 
Q 1906 3584 2284 3584 
Q 2666 3584 2933 3390 
Q 3200 3197 3328 2828 
z
" transform="scale(0.015625)"/>
       <path id="DejaVuSans-65" d="M 3597 1894 
L 3597 1613 
L 953 1613 
Q 991 1019 1311 708 
Q 1631 397 2203 397 
Q 2534 397 2845 478 
Q 3156 559 3463 722 
L 3463 178 
Q 3153 47 2828 -22 
Q 2503 -91 2169 -91 
Q 1331 -91 842 396 
Q 353 884 353 1716 
Q 353 2575 817 3079 
Q 1281 3584 2069 3584 
Q 2775 3584 3186 3129 
Q 3597 2675 3597 1894 
z
M 3022 2063 
Q 3016 2534 2758 2815 
Q 2500 3097 2075 3097 
Q 1594 3097 1305 2825 
Q 1016 2553 972 2059 
L 3022 2063 
z
" transform="scale(0.015625)"/>
       <path id="DejaVuSans-20" transform="scale(0.015625)"/>
       <path id="DejaVuSans-5b" d="M 550 4863 
L 1875 4863 
L 1875 4416 
L 1125 4416 
L 1125 -397 
L 1875 -397 
L 1875 -844 
L 550 -844 
L 550 4863 
z
" transform="scale(0.015625)"/>
       <path id="DejaVuSans-75" d="M 544 1381 
L 544 3500 
L 1119 3500 
L 1119 1403 
Q 1119 906 1312 657 
Q 1506 409 1894 409 
Q 2359 409 2629 706 
Q 2900 1003 2900 1516 
L 2900 3500 
L 3475 3500 
L 3475 0 
L 2900 0 
L 2900 538 
Q 2691 219 2414 64 
Q 2138 -91 1772 -91 
Q 1169 -91 856 284 
Q 544 659 544 1381 
z
M 1991 3584 
L 1991 3584 
z
" transform="scale(0.015625)"/>
       <path id="DejaVuSans-73" d="M 2834 3397 
L 2834 2853 
Q 2591 2978 2328 3040 
Q 2066 3103 1784 3103 
Q 1356 3103 1142 2972 
Q 928 2841 928 2578 
Q 928 2378 1081 2264 
Q 1234 2150 1697 2047 
L 1894 2003 
Q 2506 1872 2764 1633 
Q 3022 1394 3022 966 
Q 3022 478 2636 193 
Q 2250 -91 1575 -91 
Q 1294 -91 989 -36 
Q 684 19 347 128 
L 347 722 
Q 666 556 975 473 
Q 1284 391 1588 391 
Q 1994 391 2212 530 
Q 2431 669 2431 922 
Q 2431 1156 2273 1281 
Q 2116 1406 1581 1522 
L 1381 1569 
Q 847 1681 609 1914 
Q 372 2147 372 2553 
Q 372 3047 722 3315 
Q 1072 3584 1716 3584 
Q 2034 3584 2315 3537 
Q 2597 3491 2834 3397 
z
" transform="scale(0.015625)"/>
       <path id="DejaVuSans-5d" d="M 1947 4863 
L 1947 -844 
L 622 -844 
L 622 -397 
L 1369 -397 
L 1369 4416 
L 622 4416 
L 622 4863 
L 1947 4863 
z
" transform="scale(0.015625)"/>
      </defs>
      <use xlink:href="#DejaVuSans-54"/>
      <use xlink:href="#DejaVuSans-69" x="57.958984"/>
      <use xlink:href="#DejaVuSans-6d" x="85.742188"/>
      <use xlink:href="#DejaVuSans-65" x="183.154297"/>
      <use xlink:href="#DejaVuSans-20" x="244.677734"/>
      <use xlink:href="#DejaVuSans-5b" x="276.464844"/>
      <use xlink:href="#DejaVuSans-75" x="315.478516"/>
      <use xlink:href="#DejaVuSans-73" x="378.857422"/>
      <use xlink:href="#DejaVuSans-5d" x="430.957031"/>
     </g>
    </g>
   </g>
   <g id="matplotlib.axis_2">
    <g id="ytick_1">
     <g id="line2d_6">
      <defs>
       <path id="m207db92206" d="M 0 0 
L -3.5 0 
" style="stroke: #000000; stroke-width: 0.8"/>
      </defs>
      <g>
       <use xlink:href="#m207db92206" x="39.94" y="252.808586" style="stroke: #000000; stroke-width: 0.8"/>
      </g>
     </g>
     <g id="text_7">
      <!-- 0.00 -->
      <g transform="translate(10.674375 256.607805)scale(0.1 -0.1)">
       <defs>
        <path id="DejaVuSans-2e" d="M 684 794 
L 1344 794 
L 1344 0 
L 684 0 
L 684 794 
z
" transform="scale(0.015625)"/>
       </defs>
       <use xlink:href="#DejaVuSans-30"/>
       <use xlink:href="#DejaVuSans-2e" x="63.623047"/>
       <use xlink:href="#DejaVuSans-30" x="95.410156"/>
       <use xlink:href="#DejaVuSans-30" x="159.033203"/>
      </g>
     </g>
    </g>
    <g id="ytick_2">
     <g id="line2d_7">
      <g>
       <use xlink:href="#m207db92206" x="39.94" y="195.118862" style="stroke: #000000; stroke-width: 0.8"/>
      </g>
     </g>
     <g id="text_8">
      <!-- 0.02 -->
      <g transform="translate(10.674375 198.918081)scale(0.1 -0.1)">
       <use xlink:href="#DejaVuSans-30"/>
       <use xlink:href="#DejaVuSans-2e" x="63.623047"/>
       <use xlink:href="#DejaVuSans-30" x="95.410156"/>
       <use xlink:href="#DejaVuSans-32" x="159.033203"/>
      </g>
     </g>
    </g>
    <g id="ytick_3">
     <g id="line2d_8">
      <g>
       <use xlink:href="#m207db92206" x="39.94" y="137.429138" style="stroke: #000000; stroke-width: 0.8"/>
      </g>
     </g>
     <g id="text_9">
      <!-- 0.04 -->
      <g transform="translate(10.674375 141.228357)scale(0.1 -0.1)">
       <defs>
        <path id="DejaVuSans-34" d="M 2419 4116 
L 825 1625 
L 2419 1625 
L 2419 4116 
z
M 2253 4666 
L 3047 4666 
L 3047 1625 
L 3713 1625 
L 3713 1100 
L 3047 1100 
L 3047 0 
L 2419 0 
L 2419 1100 
L 313 1100 
L 313 1709 
L 2253 4666 
z
" transform="scale(0.015625)"/>
       </defs>
       <use xlink:href="#DejaVuSans-30"/>
       <use xlink:href="#DejaVuSans-2e" x="63.623047"/>
       <use xlink:href="#DejaVuSans-30" x="95.410156"/>
       <use xlink:href="#DejaVuSans-34" x="159.033203"/>
      </g>
     </g>
    </g>
    <g id="ytick_4">
     <g id="line2d_9">
      <g>
       <use xlink:href="#m207db92206" x="39.94" y="79.739415" style="stroke: #000000; stroke-width: 0.8"/>
      </g>
     </g>
     <g id="text_10">
      <!-- 0.06 -->
      <g transform="translate(10.674375 83.538634)scale(0.1 -0.1)">
       <defs>
        <path id="DejaVuSans-36" d="M 2113 2584 
Q 1688 2584 1439 2293 
Q 1191 2003 1191 1497 
Q 1191 994 1439 701 
Q 1688 409 2113 409 
Q 2538 409 2786 701 
Q 3034 994 3034 1497 
Q 3034 2003 2786 2293 
Q 2538 2584 2113 2584 
z
M 3366 4563 
L 3366 3988 
Q 3128 4100 2886 4159 
Q 2644 4219 2406 4219 
Q 1781 4219 1451 3797 
Q 1122 3375 1075 2522 
Q 1259 2794 1537 2939 
Q 1816 3084 2150 3084 
Q 2853 3084 3261 2657 
Q 3669 2231 3669 1497 
Q 3669 778 3244 343 
Q 2819 -91 2113 -91 
Q 1303 -91 875 529 
Q 447 1150 447 2328 
Q 447 3434 972 4092 
Q 1497 4750 2381 4750 
Q 2619 4750 2861 4703 
Q 3103 4656 3366 4563 
z
" transform="scale(0.015625)"/>
       </defs>
       <use xlink:href="#DejaVuSans-30"/>
       <use xlink:href="#DejaVuSans-2e" x="63.623047"/>
       <use xlink:href="#DejaVuSans-30" x="95.410156"/>
       <use xlink:href="#DejaVuSans-36" x="159.033203"/>
      </g>
     </g>
    </g>
    <g id="ytick_5">
     <g id="line2d_10">
      <g>
       <use xlink:href="#m207db92206" x="39.94" y="22.049691" style="stroke: #000000; stroke-width: 0.8"/>
      </g>
     </g>
     <g id="text_11">
      <!-- 0.08 -->
      <g transform="translate(10.674375 25.84891)scale(0.1 -0.1)">
       <defs>
        <path id="DejaVuSans-38" d="M 2034 2216 
Q 1584 2216 1326 1975 
Q 1069 1734 1069 1313 
Q 1069 891 1326 650 
Q 1584 409 2034 409 
Q 2484 409 2743 651 
Q 3003 894 3003 1313 
Q 3003 1734 2745 1975 
Q 2488 2216 2034 2216 
z
M 1403 2484 
Q 997 2584 770 2862 
Q 544 3141 544 3541 
Q 544 4100 942 4425 
Q 1341 4750 2034 4750 
Q 2731 4750 3128 4425 
Q 3525 4100 3525 3541 
Q 3525 3141 3298 2862 
Q 3072 2584 2669 2484 
Q 3125 2378 3379 2068 
Q 3634 1759 3634 1313 
Q 3634 634 3220 271 
Q 2806 -91 2034 -91 
Q 1263 -91 848 271 
Q 434 634 434 1313 
Q 434 1759 690 2068 
Q 947 2378 1403 2484 
z
M 1172 3481 
Q 1172 3119 1398 2916 
Q 1625 2713 2034 2713 
Q 2441 2713 2670 2916 
Q 2900 3119 2900 3481 
Q 2900 3844 2670 4047 
Q 2441 4250 2034 4250 
Q 1625 4250 1398 4047 
Q 1172 3844 1172 3481 
z
" transform="scale(0.015625)"/>
       </defs>
       <use xlink:href="#DejaVuSans-30"/>
       <use xlink:href="#DejaVuSans-2e" x="63.623047"/>
       <use xlink:href="#DejaVuSans-30" x="95.410156"/>
       <use xlink:href="#DejaVuSans-38" x="159.033203"/>
      </g>
     </g>
    </g>
   </g>
   <g id="line2d_11">
    <path d="M 47.647205 252.808586 
L 47.647793 252.808586 
L 47.656025 24.110909 
L 47.663082 285.348448 
L 47.75834 252.808586 
L 48.069988 252.808586 
L 48.07822 26.92434 
L 48.085277 290.322487 
L 48.180535 252.808586 
L 48.632719 252.808586 
L 48.640951 26.926512 
L 48.648007 290.326327 
L 48.743266 252.808586 
L 49.196037 252.808586 
L 49.20427 26.917821 
L 49.211326 290.310961 
L 49.306584 252.808586 
L 49.758768 252.808586 
L 49.767 26.920603 
L 49.774057 290.315881 
L 49.869315 252.808586 
L 50.321499 252.808586 
L 50.329731 26.923125 
L 50.336787 290.320339 
L 50.432046 252.808586 
L 50.884229 252.808586 
L 50.892462 26.925411 
L 50.899518 290.32438 
L 50.994776 252.808586 
L 51.44696 252.808586 
L 51.455192 26.927482 
L 51.462249 290.328042 
L 51.557507 252.808586 
L 52.010279 252.808586 
L 52.018511 26.9187 
L 52.025567 290.312516 
L 52.120826 252.808586 
L 52.57301 252.808586 
L 52.581242 26.9214 
L 52.588298 290.31729 
L 52.683556 252.808586 
L 53.13574 252.808586 
L 53.143972 26.923848 
L 53.151029 290.321616 
L 53.246287 252.808586 
L 53.698471 252.808586 
L 53.706703 26.926065 
L 53.713759 290.325537 
L 53.809018 252.808586 
L 54.261202 252.808586 
L 54.269434 26.928075 
L 54.27649 290.329091 
L 54.371748 252.808586 
L 54.82452 252.808586 
L 54.832752 26.919238 
L 54.839809 290.313466 
L 54.935067 252.808586 
L 55.387251 252.808586 
L 55.395483 26.921888 
L 55.402539 290.318151 
L 55.497798 252.808586 
L 55.949982 252.808586 
L 55.958214 26.924289 
L 55.96527 290.322397 
L 56.060528 252.808586 
L 56.512712 252.808586 
L 56.520944 26.926466 
L 56.528001 290.326245 
L 56.623259 252.808586 
L 57.076031 252.808586 
L 57.084263 26.917779 
L 57.091319 290.310887 
L 57.186578 252.808586 
L 57.638762 252.808586 
L 57.646994 26.920565 
L 57.65405 290.315813 
L 57.749308 252.808586 
L 58.201492 252.808586 
L 58.209724 26.923091 
L 58.216781 290.320278 
L 58.312039 252.808586 
L 58.764223 252.808586 
L 58.772455 26.92538 
L 58.779511 290.324325 
L 58.87477 252.808586 
L 59.326954 252.808586 
L 59.335186 26.927454 
L 59.342242 290.327992 
L 59.4375 252.808586 
L 59.890272 252.808586 
L 59.898504 26.918674 
L 59.905561 290.31247 
L 60.000819 252.808586 
L 60.453003 252.808586 
L 60.461235 26.921377 
L 60.468291 290.317248 
L 60.56355 252.808586 
L 61.015734 252.808586 
L 61.023966 26.923826 
L 61.031022 290.321579 
L 61.12628 252.808586 
L 61.578464 252.808586 
L 61.586696 26.926046 
L 61.593753 290.325503 
L 61.689011 252.808586 
L 62.141195 252.808586 
L 62.149427 26.928058 
L 62.156483 290.32906 
L 62.251742 252.808586 
L 62.704514 252.808586 
L 62.712746 26.919222 
L 62.719802 290.313438 
L 62.81506 252.808586 
L 63.267244 252.808586 
L 63.275477 26.921873 
L 63.282533 290.318126 
L 63.377791 252.808586 
L 63.829975 252.808586 
L 63.838207 26.924276 
L 63.845263 290.322374 
L 63.940522 252.808586 
L 64.392706 252.808586 
L 64.400938 26.926454 
L 64.407994 290.326224 
L 64.503253 252.808586 
L 64.956024 252.808586 
L 64.964257 26.917768 
L 64.971313 290.310868 
L 65.066571 252.808586 
L 65.518755 252.808586 
L 65.526987 26.920556 
L 65.534043 290.315796 
L 65.629302 252.808586 
L 66.081486 252.808586 
L 66.089718 26.923082 
L 66.096774 290.320263 
L 66.192033 252.808586 
L 66.644216 252.808586 
L 66.652449 26.925372 
L 66.659505 290.324311 
L 66.754763 252.808586 
L 67.206947 252.808586 
L 67.215179 26.927447 
L 67.222235 290.327979 
L 67.317494 252.808586 
L 67.770266 252.808586 
L 67.778498 26.918668 
L 67.785554 290.312459 
L 67.880813 252.808586 
L 68.332996 252.808586 
L 68.341229 26.921371 
L 68.348285 290.317238 
L 68.443543 252.808586 
L 68.895727 252.808586 
L 68.903959 26.923821 
L 68.911015 290.321569 
L 69.006274 252.808586 
L 69.458458 252.808586 
L 69.46669 26.926041 
L 69.473746 290.325495 
L 69.569005 252.808586 
L 70.021188 252.808586 
L 70.029421 26.928054 
L 70.036477 290.329053 
L 70.131735 252.808586 
L 70.584507 252.808586 
L 70.592739 26.919218 
L 70.599795 290.313431 
L 70.695054 252.808586 
L 71.147238 252.808586 
L 71.15547 26.92187 
L 71.162526 290.31812 
L 71.257785 252.808586 
L 71.709968 252.808586 
L 71.718201 26.924273 
L 71.725257 290.322368 
L 71.820515 252.808586 
L 72.272699 252.808586 
L 72.280931 26.926451 
L 72.287987 290.326219 
L 72.383246 252.808586 
L 72.836018 252.808586 
L 72.84425 26.917765 
L 72.851306 290.310863 
L 72.946565 252.808586 
L 73.398748 252.808586 
L 73.406981 26.920553 
L 73.414037 290.315792 
L 73.509295 252.808586 
L 73.961479 252.808586 
L 73.969711 26.92308 
L 73.976767 290.320259 
L 74.072026 252.808586 
L 74.52421 252.808586 
L 74.532442 26.92537 
L 74.539498 290.324307 
L 74.634757 252.808586 
L 75.08694 252.808586 
L 75.095173 26.927445 
L 75.102229 290.327976 
L 75.197487 252.808586 
L 75.650259 252.808586 
L 75.658491 26.918666 
L 75.665547 290.312456 
L 75.760806 252.808586 
L 76.21299 252.808586 
L 76.221222 26.92137 
L 76.228278 290.317235 
L 76.323537 252.808586 
L 76.77572 252.808586 
L 76.783953 26.92382 
L 76.791009 290.321567 
L 76.886267 252.808586 
L 77.338451 252.808586 
L 77.346683 26.92604 
L 77.353739 290.325493 
L 77.448998 252.808586 
L 77.901182 252.808586 
L 77.909414 26.928053 
L 77.91647 290.329051 
L 78.011729 252.808586 
L 78.4645 252.808586 
L 78.472733 26.919217 
L 78.479789 290.31343 
L 78.575047 252.808586 
L 79.027231 252.808586 
L 79.035463 26.921869 
L 79.04252 290.318118 
L 79.137778 252.808586 
L 79.589962 252.808586 
L 79.598194 26.924272 
L 79.60525 290.322367 
L 79.700509 252.808586 
L 80.152692 252.808586 
L 80.160925 26.92645 
L 80.167981 290.326218 
L 80.263239 252.808586 
L 80.716011 252.808586 
L 80.724243 26.917765 
L 80.7313 290.310862 
L 80.826558 252.808586 
L 81.278742 252.808586 
L 81.286974 26.920553 
L 81.29403 290.315791 
L 81.389289 252.808586 
L 81.841472 252.808586 
L 81.849705 26.923079 
L 81.856761 290.320258 
L 81.952019 252.808586 
L 82.404203 252.808586 
L 82.412435 26.925369 
L 82.419492 290.324306 
L 82.51475 252.808586 
L 82.966934 252.808586 
L 82.975166 26.927445 
L 82.982222 290.327975 
L 83.077481 252.808586 
L 83.530252 252.808586 
L 83.538485 26.918666 
L 83.545541 290.312455 
L 83.640799 252.808586 
L 84.092983 252.808586 
L 84.101215 26.921369 
L 84.108272 290.317235 
L 84.20353 252.808586 
L 84.655714 252.808586 
L 84.663946 26.923819 
L 84.671002 290.321567 
L 84.766261 252.808586 
L 85.218445 252.808586 
L 85.226677 26.92604 
L 85.233733 290.325492 
L 85.328991 252.808586 
L 85.781175 252.808586 
L 85.789407 26.928052 
L 85.796464 290.32905 
L 85.891722 252.808586 
L 86.344494 252.808586 
L 86.352726 26.919217 
L 86.359782 290.313429 
L 86.455041 252.808586 
L 86.907225 252.808586 
L 86.915457 26.921869 
L 86.922513 290.318118 
L 87.017771 252.808586 
L 87.469955 252.808586 
L 87.478187 26.924272 
L 87.485244 290.322367 
L 87.580502 252.808586 
L 88.032686 252.808586 
L 88.040918 26.92645 
L 88.047974 290.326217 
L 88.143233 252.808586 
L 88.596005 252.808586 
L 88.604237 26.917765 
L 88.611293 290.310862 
L 88.706551 252.808586 
L 89.158735 252.808586 
L 89.166967 26.920553 
L 89.174024 290.315791 
L 89.269282 252.808586 
L 89.721466 252.808586 
L 89.729698 26.923079 
L 89.736754 290.320258 
L 89.832013 252.808586 
L 90.284197 252.808586 
L 90.292429 26.925369 
L 90.299485 290.324306 
L 90.394743 252.808586 
L 90.846927 252.808586 
L 90.855159 26.927444 
L 90.862216 290.327975 
L 90.957474 252.808586 
L 91.410246 252.808586 
L 91.418478 26.918666 
L 91.425534 290.312455 
L 91.520793 252.808586 
L 91.972977 252.808586 
L 91.981209 26.921369 
L 91.988265 290.317235 
L 92.083523 252.808586 
L 92.535707 252.808586 
L 92.543939 26.923819 
L 92.550996 290.321566 
L 92.646254 252.808586 
L 93.098438 252.808586 
L 93.10667 26.92604 
L 93.113726 290.325492 
L 93.208985 252.808586 
L 93.661169 252.808586 
L 93.669401 26.928052 
L 93.676457 290.32905 
L 93.771715 252.808586 
L 94.224487 252.808586 
L 94.232719 26.919217 
L 94.239776 290.313429 
L 94.335034 252.808586 
L 94.787218 252.808586 
L 94.79545 26.921869 
L 94.802506 290.318117 
L 94.897765 252.808586 
L 95.349949 252.808586 
L 95.358181 26.924272 
L 95.365237 290.322366 
L 95.460495 252.808586 
L 95.912679 252.808586 
L 95.920911 26.92645 
L 95.927968 290.326217 
L 96.023226 252.808586 
L 96.475998 252.808586 
L 96.48423 26.917765 
L 96.491286 290.310862 
L 96.586545 252.808586 
L 97.038729 252.808586 
L 97.046961 26.920553 
L 97.054017 290.315791 
L 97.149276 252.808586 
L 97.601459 252.808586 
L 97.609692 26.923079 
L 97.616748 290.320258 
L 97.712006 252.808586 
L 98.16419 252.808586 
L 98.172422 26.925369 
L 98.179478 290.324306 
L 98.274737 252.808586 
L 98.726921 252.808586 
L 98.735153 26.927444 
L 98.742209 290.327975 
L 98.837468 252.808586 
L 99.290239 252.808586 
L 99.298472 26.918666 
L 99.305528 290.312455 
L 99.400786 252.808586 
L 99.85297 252.808586 
L 99.861202 26.921369 
L 99.868258 290.317235 
L 99.963517 252.808586 
L 100.415701 252.808586 
L 100.423933 26.923819 
L 100.430989 290.321566 
L 100.526248 252.808586 
L 100.978431 252.808586 
L 100.986664 26.92604 
L 100.99372 290.325492 
L 101.088978 252.808586 
L 101.541162 252.808586 
L 101.549394 26.928052 
L 101.55645 290.32905 
L 101.651709 252.808586 
L 102.104481 252.808586 
L 102.112713 26.919217 
L 102.119769 290.313429 
L 102.215028 252.808586 
L 102.667211 252.808586 
L 102.675444 26.921869 
L 102.6825 290.318117 
L 102.777758 252.808586 
L 103.229942 252.808586 
L 103.238174 26.924272 
L 103.24523 290.322366 
L 103.340489 252.808586 
L 103.792673 252.808586 
L 103.800905 26.92645 
L 103.807961 290.326217 
L 103.90322 252.808586 
L 104.355991 252.808586 
L 104.364224 26.917765 
L 104.37128 290.310862 
L 104.466538 252.808586 
L 104.918722 252.808586 
L 104.926954 26.920553 
L 104.93401 290.315791 
L 105.029269 252.808586 
L 105.481453 252.808586 
L 105.489685 26.923079 
L 105.496741 290.320258 
L 105.592 252.808586 
L 106.044183 252.808586 
L 106.052416 26.925369 
L 106.059472 290.324306 
L 106.15473 252.808586 
L 106.606914 252.808586 
L 106.615146 26.927444 
L 106.622202 290.327975 
L 106.717461 252.808586 
L 107.170233 252.808586 
L 107.178465 26.918666 
L 107.185521 290.312455 
L 107.28078 252.808586 
L 107.732963 252.808586 
L 107.741196 26.921369 
L 107.748252 290.317235 
L 107.84351 252.808586 
L 108.295694 252.808586 
L 108.303926 26.923819 
L 108.310982 290.321566 
L 108.406241 252.808586 
L 108.858425 252.808586 
L 108.866657 26.92604 
L 108.873713 290.325492 
L 108.968972 252.808586 
L 109.421155 252.808586 
L 109.429388 26.928052 
L 109.436444 290.32905 
L 109.531702 252.808586 
L 109.984474 252.808586 
L 109.992706 26.919217 
L 109.999762 290.313429 
L 110.095021 252.808586 
L 110.547205 252.808586 
L 110.555437 26.921869 
L 110.562493 290.318117 
L 110.657752 252.808586 
L 111.109935 252.808586 
L 111.118168 26.924272 
L 111.125224 290.322366 
L 111.220482 252.808586 
L 111.672666 252.808586 
L 111.680898 26.92645 
L 111.687955 290.326217 
L 111.783213 252.808586 
L 112.235985 252.808586 
L 112.244217 26.917765 
L 112.251273 290.310862 
L 112.346532 252.808586 
L 112.798715 252.808586 
L 112.806948 26.920553 
L 112.814004 290.315791 
L 112.909262 252.808586 
L 113.361446 252.808586 
L 113.369678 26.923079 
L 113.376735 290.320258 
L 113.471993 252.808586 
L 113.924177 252.808586 
L 113.932409 26.925369 
L 113.939465 290.324306 
L 114.034724 252.808586 
L 114.486907 252.808586 
L 114.49514 26.927444 
L 114.502196 290.327975 
L 114.597454 252.808586 
L 115.050226 252.808586 
L 115.058458 26.918666 
L 115.065515 290.312455 
L 115.160773 252.808586 
L 115.612957 252.808586 
L 115.621189 26.921369 
L 115.628245 290.317235 
L 115.723504 252.808586 
L 116.175687 252.808586 
L 116.18392 26.923819 
L 116.190976 290.321566 
L 116.286234 252.808586 
L 116.738418 252.808586 
L 116.74665 26.92604 
L 116.753707 290.325492 
L 116.848965 252.808586 
L 117.301149 252.808586 
L 117.309381 26.928052 
L 117.316437 290.32905 
L 117.411696 252.808586 
L 117.864468 252.808586 
L 117.8727 26.919217 
L 117.879756 290.313429 
L 117.975014 252.808586 
L 118.427198 252.808586 
L 118.43543 26.921869 
L 118.442487 290.318117 
L 118.537745 252.808586 
L 118.989929 252.808586 
L 118.998161 26.924272 
L 119.005217 290.322366 
L 119.100476 252.808586 
L 119.55266 252.808586 
L 119.560892 26.92645 
L 119.567948 290.326217 
L 119.663206 252.808586 
L 120.115978 252.808586 
L 120.12421 26.917765 
L 120.131267 290.310862 
L 120.226525 252.808586 
L 120.678709 252.808586 
L 120.686941 26.920553 
L 120.693997 290.315791 
L 120.789256 252.808586 
L 121.24144 252.808586 
L 121.249672 26.923079 
L 121.256728 290.320258 
L 121.351986 252.808586 
L 121.80417 252.808586 
L 121.812402 26.925369 
L 121.819459 290.324306 
L 121.914717 252.808586 
L 122.366901 252.808586 
L 122.375133 26.927444 
L 122.382189 290.327975 
L 122.477448 252.808586 
L 122.93022 252.808586 
L 122.938452 26.918666 
L 122.945508 290.312455 
L 123.040766 252.808586 
L 123.49295 252.808586 
L 123.501182 26.921369 
L 123.508239 290.317235 
L 123.603497 252.808586 
L 124.055681 252.808586 
L 124.063913 26.923819 
L 124.070969 290.321566 
L 124.166228 252.808586 
L 124.618412 252.808586 
L 124.626644 26.92604 
L 124.6337 290.325492 
L 124.728958 252.808586 
L 125.181142 252.808586 
L 125.189374 26.928052 
L 125.196431 290.32905 
L 125.291689 252.808586 
L 125.744461 252.808586 
L 125.752693 26.919217 
L 125.759749 290.313429 
L 125.855008 252.808586 
L 126.307192 252.808586 
L 126.315424 26.921869 
L 126.32248 290.318117 
L 126.417738 252.808586 
L 126.869922 252.808586 
L 126.878154 26.924272 
L 126.885211 290.322366 
L 126.980469 252.808586 
L 127.432653 252.808586 
L 127.440885 26.92645 
L 127.447941 290.326217 
L 127.5432 252.808586 
L 127.995972 252.808586 
L 128.004204 26.917765 
L 128.01126 290.310862 
L 128.106518 252.808586 
L 128.558702 252.808586 
L 128.566934 26.920553 
L 128.573991 290.315791 
L 128.669249 252.808586 
L 129.121433 252.808586 
L 129.129665 26.923079 
L 129.136721 290.320258 
L 129.23198 252.808586 
L 129.684164 252.808586 
L 129.692396 26.925369 
L 129.699452 290.324306 
L 129.794711 252.808586 
L 130.246894 252.808586 
L 130.255127 26.927444 
L 130.262183 290.327975 
L 130.357441 252.808586 
L 130.810213 252.808586 
L 130.818445 26.918666 
L 130.825501 290.312455 
L 130.92076 252.808586 
L 131.372944 252.808586 
L 131.381176 26.921369 
L 131.388232 290.317235 
L 131.483491 252.808586 
L 131.935674 252.808586 
L 131.943907 26.923819 
L 131.950963 290.321566 
L 132.046221 252.808586 
L 132.498405 252.808586 
L 132.506637 26.92604 
L 132.513693 290.325492 
L 132.608952 252.808586 
L 133.061136 252.808586 
L 133.069368 26.928052 
L 133.076424 290.32905 
L 133.171683 252.808586 
L 133.624454 252.808586 
L 133.632687 26.919217 
L 133.639743 290.313429 
L 133.735001 252.808586 
L 134.187185 252.808586 
L 134.195417 26.921869 
L 134.202473 290.318117 
L 134.297732 252.808586 
L 134.749916 252.808586 
L 134.758148 26.924272 
L 134.765204 290.322366 
L 134.860463 252.808586 
L 135.312646 252.808586 
L 135.320879 26.92645 
L 135.327935 290.326217 
L 135.423193 252.808586 
L 135.875965 252.808586 
L 135.884197 26.917765 
L 135.891253 290.310862 
L 135.986512 252.808586 
L 136.438696 252.808586 
L 136.446928 26.920553 
L 136.453984 290.315791 
L 136.549243 252.808586 
L 137.001426 252.808586 
L 137.009659 26.923079 
L 137.016715 290.320258 
L 137.111973 252.808586 
L 137.564157 252.808586 
L 137.572389 26.925369 
L 137.579445 290.324306 
L 137.674704 252.808586 
L 138.126888 252.808586 
L 138.13512 26.927444 
L 138.142176 290.327975 
L 138.237435 252.808586 
L 138.690206 252.808586 
L 138.698439 26.918666 
L 138.705495 290.312455 
L 138.800753 252.808586 
L 139.252937 252.808586 
L 139.261169 26.921369 
L 139.268225 290.317235 
L 139.363484 252.808586 
L 139.815668 252.808586 
L 139.8239 26.923819 
L 139.830956 290.321566 
L 139.926215 252.808586 
L 140.378398 252.808586 
L 140.386631 26.92604 
L 140.393687 290.325492 
L 140.488945 252.808586 
L 140.941129 252.808586 
L 140.949361 26.928052 
L 140.956417 290.32905 
L 141.051676 252.808586 
L 141.504448 252.808586 
L 141.51268 26.919217 
L 141.519736 290.313429 
L 141.614995 252.808586 
L 142.067178 252.808586 
L 142.075411 26.921869 
L 142.082467 290.318117 
L 142.177725 252.808586 
L 142.629909 252.808586 
L 142.638141 26.924272 
L 142.645197 290.322366 
L 142.740456 252.808586 
L 143.19264 252.808586 
L 143.200872 26.92645 
L 143.207928 290.326217 
L 143.303187 252.808586 
L 143.755958 252.808586 
L 143.764191 26.917765 
L 143.771247 290.310862 
L 143.866505 252.808586 
L 144.318689 252.808586 
L 144.326921 26.920553 
L 144.333978 290.315791 
L 144.429236 252.808586 
L 144.88142 252.808586 
L 144.889652 26.923079 
L 144.896708 290.320258 
L 144.991967 252.808586 
L 145.44415 252.808586 
L 145.452383 26.925369 
L 145.459439 290.324306 
L 145.554697 252.808586 
L 146.006881 252.808586 
L 146.015113 26.927444 
L 146.02217 290.327975 
L 146.117428 252.808586 
L 146.5702 252.808586 
L 146.578432 26.918666 
L 146.585488 290.312455 
L 146.680747 252.808586 
L 147.13293 252.808586 
L 147.141163 26.921369 
L 147.148219 290.317235 
L 147.243477 252.808586 
L 147.695661 252.808586 
L 147.703893 26.923819 
L 147.71095 290.321566 
L 147.806208 252.808586 
L 148.258392 252.808586 
L 148.266624 26.92604 
L 148.27368 290.325492 
L 148.368939 252.808586 
L 148.821122 252.808586 
L 148.829355 26.928052 
L 148.836411 290.32905 
L 148.931669 252.808586 
L 149.384441 252.808586 
L 149.392673 26.919217 
L 149.39973 290.313429 
L 149.494988 252.808586 
L 149.947172 252.808586 
L 149.955404 26.921869 
L 149.96246 290.318117 
L 150.057719 252.808586 
L 150.509903 252.808586 
L 150.518135 26.924272 
L 150.525191 290.322366 
L 150.620449 252.808586 
L 151.072633 252.808586 
L 151.080865 26.92645 
L 151.087922 290.326217 
L 151.18318 252.808586 
L 151.635952 252.808586 
L 151.644184 26.917765 
L 151.65124 290.310862 
L 151.746499 252.808586 
L 152.198683 252.808586 
L 152.206915 26.920553 
L 152.213971 290.315791 
L 152.309229 252.808586 
L 152.761413 252.808586 
L 152.769645 26.923079 
L 152.776702 290.320258 
L 152.87196 252.808586 
L 153.324144 252.808586 
L 153.332376 26.925369 
L 153.339432 290.324306 
L 153.434691 252.808586 
L 153.886875 252.808586 
L 153.895107 26.927444 
L 153.902163 290.327975 
L 153.997421 252.808586 
L 154.450193 252.808586 
L 154.458425 26.918666 
L 154.465482 290.312455 
L 154.56074 252.808586 
L 155.012924 252.808586 
L 155.021156 26.921369 
L 155.028212 290.317235 
L 155.123471 252.808586 
L 155.575655 252.808586 
L 155.583887 26.923819 
L 155.590943 290.321566 
L 155.686201 252.808586 
L 156.138385 252.808586 
L 156.146617 26.92604 
L 156.153674 290.325492 
L 156.248932 252.808586 
L 156.701116 252.808586 
L 156.709348 26.928052 
L 156.716404 290.32905 
L 156.811663 252.808586 
L 157.264435 252.808586 
L 157.272667 26.919217 
L 157.279723 290.313429 
L 157.374981 252.808586 
L 157.827165 252.808586 
L 157.835397 26.921869 
L 157.842454 290.318117 
L 157.937712 252.808586 
L 158.389896 252.808586 
L 158.398128 26.924272 
L 158.405184 290.322366 
L 158.500443 252.808586 
L 158.952627 252.808586 
L 158.960859 26.92645 
L 158.967915 290.326217 
L 159.063173 252.808586 
L 159.515945 252.808586 
L 159.524177 26.917765 
L 159.531234 290.310862 
L 159.626492 252.808586 
L 160.078676 252.808586 
L 160.086908 26.920553 
L 160.093964 290.315791 
L 160.189223 252.808586 
L 160.641407 252.808586 
L 160.649639 26.923079 
L 160.656695 290.320258 
L 160.751953 252.808586 
L 161.204137 252.808586 
L 161.212369 26.925369 
L 161.219426 290.324306 
L 161.314684 252.808586 
L 161.766868 252.808586 
L 161.7751 26.927444 
L 161.782156 290.327975 
L 161.877415 252.808586 
L 162.330187 252.808586 
L 162.338419 26.918666 
L 162.345475 290.312455 
L 162.440734 252.808586 
L 162.892917 252.808586 
L 162.90115 26.921369 
L 162.908206 290.317235 
L 163.003464 252.808586 
L 163.455648 252.808586 
L 163.46388 26.923819 
L 163.470936 290.321566 
L 163.566195 252.808586 
L 164.018379 252.808586 
L 164.026611 26.92604 
L 164.033667 290.325492 
L 164.128926 252.808586 
L 164.581109 252.808586 
L 164.589342 26.928052 
L 164.596398 290.32905 
L 164.691656 252.808586 
L 165.144428 252.808586 
L 165.15266 26.919217 
L 165.159716 290.313429 
L 165.254975 252.808586 
L 165.707159 252.808586 
L 165.715391 26.921869 
L 165.722447 290.318117 
L 165.817706 252.808586 
L 166.269889 252.808586 
L 166.278122 26.924272 
L 166.285178 290.322366 
L 166.380436 252.808586 
L 166.83262 252.808586 
L 166.840852 26.92645 
L 166.847908 290.326217 
L 166.943167 252.808586 
L 167.395939 252.808586 
L 167.404171 26.917765 
L 167.411227 290.310862 
L 167.506486 252.808586 
L 167.958669 252.808586 
L 167.966902 26.920553 
L 167.973958 290.315791 
L 168.069216 252.808586 
L 168.5214 252.808586 
L 168.529632 26.923079 
L 168.536688 290.320258 
L 168.631947 252.808586 
L 169.084131 252.808586 
L 169.092363 26.925369 
L 169.099419 290.324306 
L 169.194678 252.808586 
L 169.646861 252.808586 
L 169.655094 26.927444 
L 169.66215 290.327975 
L 169.757408 252.808586 
L 170.21018 252.808586 
L 170.218412 26.918666 
L 170.225468 290.312455 
L 170.320727 252.808586 
L 170.772911 252.808586 
L 170.781143 26.921369 
L 170.788199 290.317235 
L 170.883458 252.808586 
L 171.335641 252.808586 
L 171.343874 26.923819 
L 171.35093 290.321566 
L 171.446188 252.808586 
L 171.898372 252.808586 
L 171.906604 26.92604 
L 171.91366 290.325492 
L 172.008919 252.808586 
L 172.461103 252.808586 
L 172.469335 26.928052 
L 172.476391 290.32905 
L 172.57165 252.808586 
L 173.024421 252.808586 
L 173.032654 26.919217 
L 173.03971 290.313429 
L 173.134968 252.808586 
L 173.587152 252.808586 
L 173.595384 26.921869 
L 173.60244 290.318117 
L 173.697699 252.808586 
L 174.149883 252.808586 
L 174.158115 26.924272 
L 174.165171 290.322366 
L 174.26043 252.808586 
L 174.712613 252.808586 
L 174.720846 26.92645 
L 174.727902 290.326217 
L 174.82316 252.808586 
L 175.275932 252.808586 
L 175.284164 26.917765 
L 175.29122 290.310862 
L 175.386479 252.808586 
L 175.838663 252.808586 
L 175.846895 26.920553 
L 175.853951 290.315791 
L 175.94921 252.808586 
L 176.401393 252.808586 
L 176.409626 26.923079 
L 176.416682 290.320258 
L 176.51194 252.808586 
L 176.964124 252.808586 
L 176.972356 26.925369 
L 176.979412 290.324306 
L 177.074671 252.808586 
L 177.526855 252.808586 
L 177.535087 26.927444 
L 177.542143 290.327975 
L 177.637402 252.808586 
L 178.090173 252.808586 
L 178.098406 26.918666 
L 178.105462 290.312455 
L 178.20072 252.808586 
L 178.652904 252.808586 
L 178.661136 26.921369 
L 178.668193 290.317235 
L 178.763451 252.808586 
L 179.215635 252.808586 
L 179.223867 26.923819 
L 179.230923 290.321566 
L 179.326182 252.808586 
L 179.778365 252.808586 
L 179.786598 26.92604 
L 179.793654 290.325492 
L 179.888912 252.808586 
L 180.341096 252.808586 
L 180.349328 26.928052 
L 180.356385 290.32905 
L 180.451643 252.808586 
L 180.904415 252.808586 
L 180.912647 26.919217 
L 180.919703 290.313429 
L 181.014962 252.808586 
L 181.467145 252.808586 
L 181.475378 26.921869 
L 181.482434 290.318117 
L 181.577692 252.808586 
L 182.029876 252.808586 
L 182.038108 26.924272 
L 182.045165 290.322366 
L 182.140423 252.808586 
L 182.592607 252.808586 
L 182.600839 26.92645 
L 182.607895 290.326217 
L 182.703154 252.808586 
L 183.155926 252.808586 
L 183.164158 26.917765 
L 183.171214 290.310862 
L 183.266472 252.808586 
L 183.718656 252.808586 
L 183.726888 26.920553 
L 183.733945 290.315791 
L 183.829203 252.808586 
L 184.281387 252.808586 
L 184.289619 26.923079 
L 184.296675 290.320258 
L 184.391934 252.808586 
L 184.844118 252.808586 
L 184.85235 26.925369 
L 184.859406 290.324306 
L 184.954664 252.808586 
L 185.406848 252.808586 
L 185.41508 26.927444 
L 185.422137 290.327975 
L 185.517395 252.808586 
L 185.970167 252.808586 
L 185.978399 26.918666 
L 185.985455 290.312455 
L 186.080714 252.808586 
L 186.532898 252.808586 
L 186.54113 26.921369 
L 186.548186 290.317235 
L 186.643444 252.808586 
L 187.095628 252.808586 
L 187.10386 26.923819 
L 187.110917 290.321566 
L 187.206175 252.808586 
L 187.658359 252.808586 
L 187.666591 26.92604 
L 187.673647 290.325492 
L 187.768906 252.808586 
L 188.22109 252.808586 
L 188.229322 26.928052 
L 188.236378 290.32905 
L 188.331636 252.808586 
L 188.784408 252.808586 
L 188.79264 26.919217 
L 188.799697 290.313429 
L 188.894955 252.808586 
L 189.347139 252.808586 
L 189.355371 26.921869 
L 189.362427 290.318117 
L 189.457686 252.808586 
L 189.90987 252.808586 
L 189.918102 26.924272 
L 189.925158 290.322366 
L 190.020416 252.808586 
L 190.4726 252.808586 
L 190.480832 26.92645 
L 190.487889 290.326217 
L 190.583147 252.808586 
L 191.035919 252.808586 
L 191.044151 26.917765 
L 191.051207 290.310862 
L 191.146466 252.808586 
L 191.59865 252.808586 
L 191.606882 26.920553 
L 191.613938 290.315791 
L 191.709196 252.808586 
L 192.16138 252.808586 
L 192.169612 26.923079 
L 192.176669 290.320258 
L 192.271927 252.808586 
L 192.724111 252.808586 
L 192.732343 26.925369 
L 192.739399 290.324306 
L 192.834658 252.808586 
L 193.286842 252.808586 
L 193.295074 26.927444 
L 193.30213 290.327975 
L 193.397388 252.808586 
L 193.85016 252.808586 
L 193.858392 26.918666 
L 193.865449 290.312455 
L 193.960707 252.808586 
L 194.412891 252.808586 
L 194.421123 26.921369 
L 194.428179 290.317235 
L 194.523438 252.808586 
L 194.975622 252.808586 
L 194.983854 26.923819 
L 194.99091 290.321566 
L 195.086169 252.808586 
L 195.538352 252.808586 
L 195.546585 26.92604 
L 195.553641 290.325492 
L 195.648899 252.808586 
L 196.101083 252.808586 
L 196.109315 26.928052 
L 196.116371 290.32905 
L 196.21163 252.808586 
L 196.664402 252.808586 
L 196.672634 26.919217 
L 196.67969 290.313429 
L 196.774949 252.808586 
L 197.227132 252.808586 
L 197.235365 26.921869 
L 197.242421 290.318117 
L 197.337679 252.808586 
L 197.789863 252.808586 
L 197.798095 26.924272 
L 197.805151 290.322366 
L 197.90041 252.808586 
L 198.352594 252.808586 
L 198.360826 26.92645 
L 198.367882 290.326217 
L 198.463141 252.808586 
L 198.915912 252.808586 
L 198.924145 26.917765 
L 198.931201 290.310862 
L 199.026459 252.808586 
L 199.478643 252.808586 
L 199.486875 26.920553 
L 199.493931 290.315791 
L 199.58919 252.808586 
L 200.041374 252.808586 
L 200.049606 26.923079 
L 200.056662 290.320258 
L 200.151921 252.808586 
L 200.604104 252.808586 
L 200.612337 26.925369 
L 200.619393 290.324306 
L 200.714651 252.808586 
L 201.166835 252.808586 
L 201.175067 26.927444 
L 201.182123 290.327975 
L 201.277382 252.808586 
L 201.730154 252.808586 
L 201.738386 26.918666 
L 201.745442 290.312455 
L 201.791307 252.808586 
" clip-path="url(#p602477e76c)" style="fill: none; stroke: #1f77b4; stroke-width: 1.5; stroke-linecap: square"/>
   </g>
   <g id="line2d_12">
    <path d="M 47.647205 252.808586 
L 47.75834 249.952945 
L 201.791307 249.952945 
L 201.791307 249.952945 
" clip-path="url(#p602477e76c)" style="fill: none; stroke: #ff7f0e; stroke-width: 1.5; stroke-linecap: square"/>
   </g>
   <g id="patch_3">
    <path d="M 39.94 303.64 
L 39.94 10.8 
" style="fill: none; stroke: #000000; stroke-width: 0.8; stroke-linejoin: miter; stroke-linecap: square"/>
   </g>
   <g id="patch_4">
    <path d="M 209.498512 303.64 
L 209.498512 10.8 
" style="fill: none; stroke: #000000; stroke-width: 0.8; stroke-linejoin: miter; stroke-linecap: square"/>
   </g>
   <g id="patch_5">
    <path d="M 39.94 303.64 
L 209.498512 303.64 
" style="fill: none; stroke: #000000; stroke-width: 0.8; stroke-linejoin: miter; stroke-linecap: square"/>
   </g>
   <g id="patch_6">
    <path d="M 39.94 10.8 
L 209.498512 10.8 
" style="fill: none; stroke: #000000; stroke-width: 0.8; stroke-linejoin: miter; stroke-linecap: square"/>
   </g>
   <g id="legend_1">
    <g id="patch_7">
     <path d="M 161.429762 173.398125 
L 202.498512 173.398125 
Q 204.498512 173.398125 204.498512 171.398125 
L 204.498512 143.041875 
Q 204.498512 141.041875 202.498512 141.041875 
L 161.429762 141.041875 
Q 159.429762 141.041875 159.429762 143.041875 
L 159.429762 171.398125 
Q 159.429762 173.398125 161.429762 173.398125 
z
" style="fill: #ffffff; opacity: 0.8; stroke: #cccccc; stroke-linejoin: miter"/>
    </g>
    <g id="line2d_13">
     <path d="M 163.429762 149.140313 
L 173.429762 149.140313 
L 183.429762 149.140313 
" style="fill: none; stroke: #1f77b4; stroke-width: 1.5; stroke-linecap: square"/>
    </g>
    <g id="text_12">
     <!-- Ix -->
     <g transform="translate(191.429762 152.640313)scale(0.1 -0.1)">
      <defs>
       <path id="DejaVuSans-49" d="M 628 4666 
L 1259 4666 
L 1259 0 
L 628 0 
L 628 4666 
z
" transform="scale(0.015625)"/>
       <path id="DejaVuSans-78" d="M 3513 3500 
L 2247 1797 
L 3578 0 
L 2900 0 
L 1881 1375 
L 863 0 
L 184 0 
L 1544 1831 
L 300 3500 
L 978 3500 
L 1906 2253 
L 2834 3500 
L 3513 3500 
z
" transform="scale(0.015625)"/>
      </defs>
      <use xlink:href="#DejaVuSans-49"/>
      <use xlink:href="#DejaVuSans-78" x="29.492188"/>
     </g>
    </g>
    <g id="line2d_14">
     <path d="M 163.429762 163.818438 
L 173.429762 163.818438 
L 183.429762 163.818438 
" style="fill: none; stroke: #ff7f0e; stroke-width: 1.5; stroke-linecap: square"/>
    </g>
    <g id="text_13">
     <!-- Io -->
     <g transform="translate(191.429762 167.318438)scale(0.1 -0.1)">
      <defs>
       <path id="DejaVuSans-6f" d="M 1959 3097 
Q 1497 3097 1228 2736 
Q 959 2375 959 1747 
Q 959 1119 1226 758 
Q 1494 397 1959 397 
Q 2419 397 2687 759 
Q 2956 1122 2956 1747 
Q 2956 2369 2687 2733 
Q 2419 3097 1959 3097 
z
M 1959 3584 
Q 2709 3584 3137 3096 
Q 3566 2609 3566 1747 
Q 3566 888 3137 398 
Q 2709 -91 1959 -91 
Q 1206 -91 779 398 
Q 353 888 353 1747 
Q 353 2609 779 3096 
Q 1206 3584 1959 3584 
z
" transform="scale(0.015625)"/>
      </defs>
      <use xlink:href="#DejaVuSans-49"/>
      <use xlink:href="#DejaVuSans-6f" x="29.492188"/>
     </g>
    </g>
   </g>
  </g>
  <g id="axes_2">
   <g id="patch_8">
    <path d="M 272.025 303.64 
L 441.583512 303.64 
L 441.583512 10.8 
L 272.025 10.8 
z
" style="fill: #ffffff"/>
   </g>
   <g id="matplotlib.axis_3">
    <g id="xtick_6">
     <g id="line2d_15">
      <g>
       <use xlink:href="#m5389572d7f" x="279.732205" y="303.64" style="stroke: #000000; stroke-width: 0.8"/>
      </g>
     </g>
     <g id="text_14">
      <!-- 0 -->
      <g transform="translate(276.550955 318.238437)scale(0.1 -0.1)">
       <use xlink:href="#DejaVuSans-30"/>
      </g>
     </g>
    </g>
    <g id="xtick_7">
     <g id="line2d_16">
      <g>
       <use xlink:href="#m5389572d7f" x="318.268231" y="303.64" style="stroke: #000000; stroke-width: 0.8"/>
      </g>
     </g>
     <g id="text_15">
      <!-- 2500 -->
      <g transform="translate(305.543231 318.238437)scale(0.1 -0.1)">
       <use xlink:href="#DejaVuSans-32"/>
       <use xlink:href="#DejaVuSans-35" x="63.623047"/>
       <use xlink:href="#DejaVuSans-30" x="127.246094"/>
       <use xlink:href="#DejaVuSans-30" x="190.869141"/>
      </g>
     </g>
    </g>
    <g id="xtick_8">
     <g id="line2d_17">
      <g>
       <use xlink:href="#m5389572d7f" x="356.804256" y="303.64" style="stroke: #000000; stroke-width: 0.8"/>
      </g>
     </g>
     <g id="text_16">
      <!-- 5000 -->
      <g transform="translate(344.079256 318.238437)scale(0.1 -0.1)">
       <use xlink:href="#DejaVuSans-35"/>
       <use xlink:href="#DejaVuSans-30" x="63.623047"/>
       <use xlink:href="#DejaVuSans-30" x="127.246094"/>
       <use xlink:href="#DejaVuSans-30" x="190.869141"/>
      </g>
     </g>
    </g>
    <g id="xtick_9">
     <g id="line2d_18">
      <g>
       <use xlink:href="#m5389572d7f" x="395.340282" y="303.64" style="stroke: #000000; stroke-width: 0.8"/>
      </g>
     </g>
     <g id="text_17">
      <!-- 7500 -->
      <g transform="translate(382.615282 318.238437)scale(0.1 -0.1)">
       <use xlink:href="#DejaVuSans-37"/>
       <use xlink:href="#DejaVuSans-35" x="63.623047"/>
       <use xlink:href="#DejaVuSans-30" x="127.246094"/>
       <use xlink:href="#DejaVuSans-30" x="190.869141"/>
      </g>
     </g>
    </g>
    <g id="xtick_10">
     <g id="line2d_19">
      <g>
       <use xlink:href="#m5389572d7f" x="433.876307" y="303.64" style="stroke: #000000; stroke-width: 0.8"/>
      </g>
     </g>
     <g id="text_18">
      <!-- 10000 -->
      <g transform="translate(417.970057 318.238437)scale(0.1 -0.1)">
       <use xlink:href="#DejaVuSans-31"/>
       <use xlink:href="#DejaVuSans-30" x="63.623047"/>
       <use xlink:href="#DejaVuSans-30" x="127.246094"/>
       <use xlink:href="#DejaVuSans-30" x="190.869141"/>
       <use xlink:href="#DejaVuSans-30" x="254.492188"/>
      </g>
     </g>
    </g>
    <g id="text_19">
     <!-- Time [us] -->
     <g transform="translate(333.3066 331.916562)scale(0.1 -0.1)">
      <use xlink:href="#DejaVuSans-54"/>
      <use xlink:href="#DejaVuSans-69" x="57.958984"/>
      <use xlink:href="#DejaVuSans-6d" x="85.742188"/>
      <use xlink:href="#DejaVuSans-65" x="183.154297"/>
      <use xlink:href="#DejaVuSans-20" x="244.677734"/>
      <use xlink:href="#DejaVuSans-5b" x="276.464844"/>
      <use xlink:href="#DejaVuSans-75" x="315.478516"/>
      <use xlink:href="#DejaVuSans-73" x="378.857422"/>
      <use xlink:href="#DejaVuSans-5d" x="430.957031"/>
     </g>
    </g>
   </g>
   <g id="matplotlib.axis_4">
    <g id="ytick_6">
     <g id="line2d_20">
      <g>
       <use xlink:href="#m207db92206" x="272.025" y="290.220307" style="stroke: #000000; stroke-width: 0.8"/>
      </g>
     </g>
     <g id="text_20">
      <!-- 0.99 -->
      <g transform="translate(242.759375 294.019526)scale(0.1 -0.1)">
       <defs>
        <path id="DejaVuSans-39" d="M 703 97 
L 703 672 
Q 941 559 1184 500 
Q 1428 441 1663 441 
Q 2288 441 2617 861 
Q 2947 1281 2994 2138 
Q 2813 1869 2534 1725 
Q 2256 1581 1919 1581 
Q 1219 1581 811 2004 
Q 403 2428 403 3163 
Q 403 3881 828 4315 
Q 1253 4750 1959 4750 
Q 2769 4750 3195 4129 
Q 3622 3509 3622 2328 
Q 3622 1225 3098 567 
Q 2575 -91 1691 -91 
Q 1453 -91 1209 -44 
Q 966 3 703 97 
z
M 1959 2075 
Q 2384 2075 2632 2365 
Q 2881 2656 2881 3163 
Q 2881 3666 2632 3958 
Q 2384 4250 1959 4250 
Q 1534 4250 1286 3958 
Q 1038 3666 1038 3163 
Q 1038 2656 1286 2365 
Q 1534 2075 1959 2075 
z
" transform="scale(0.015625)"/>
       </defs>
       <use xlink:href="#DejaVuSans-30"/>
       <use xlink:href="#DejaVuSans-2e" x="63.623047"/>
       <use xlink:href="#DejaVuSans-39" x="95.410156"/>
       <use xlink:href="#DejaVuSans-39" x="159.033203"/>
      </g>
     </g>
    </g>
    <g id="ytick_7">
     <g id="line2d_21">
      <g>
       <use xlink:href="#m207db92206" x="272.025" y="232.610492" style="stroke: #000000; stroke-width: 0.8"/>
      </g>
     </g>
     <g id="text_21">
      <!-- 1.00 -->
      <g transform="translate(242.759375 236.409711)scale(0.1 -0.1)">
       <use xlink:href="#DejaVuSans-31"/>
       <use xlink:href="#DejaVuSans-2e" x="63.623047"/>
       <use xlink:href="#DejaVuSans-30" x="95.410156"/>
       <use xlink:href="#DejaVuSans-30" x="159.033203"/>
      </g>
     </g>
    </g>
    <g id="ytick_8">
     <g id="line2d_22">
      <g>
       <use xlink:href="#m207db92206" x="272.025" y="175.000677" style="stroke: #000000; stroke-width: 0.8"/>
      </g>
     </g>
     <g id="text_22">
      <!-- 1.01 -->
      <g transform="translate(242.759375 178.799896)scale(0.1 -0.1)">
       <use xlink:href="#DejaVuSans-31"/>
       <use xlink:href="#DejaVuSans-2e" x="63.623047"/>
       <use xlink:href="#DejaVuSans-30" x="95.410156"/>
       <use xlink:href="#DejaVuSans-31" x="159.033203"/>
      </g>
     </g>
    </g>
    <g id="ytick_9">
     <g id="line2d_23">
      <g>
       <use xlink:href="#m207db92206" x="272.025" y="117.390862" style="stroke: #000000; stroke-width: 0.8"/>
      </g>
     </g>
     <g id="text_23">
      <!-- 1.02 -->
      <g transform="translate(242.759375 121.190081)scale(0.1 -0.1)">
       <use xlink:href="#DejaVuSans-31"/>
       <use xlink:href="#DejaVuSans-2e" x="63.623047"/>
       <use xlink:href="#DejaVuSans-30" x="95.410156"/>
       <use xlink:href="#DejaVuSans-32" x="159.033203"/>
      </g>
     </g>
    </g>
    <g id="ytick_10">
     <g id="line2d_24">
      <g>
       <use xlink:href="#m207db92206" x="272.025" y="59.781047" style="stroke: #000000; stroke-width: 0.8"/>
      </g>
     </g>
     <g id="text_24">
      <!-- 1.03 -->
      <g transform="translate(242.759375 63.580266)scale(0.1 -0.1)">
       <defs>
        <path id="DejaVuSans-33" d="M 2597 2516 
Q 3050 2419 3304 2112 
Q 3559 1806 3559 1356 
Q 3559 666 3084 287 
Q 2609 -91 1734 -91 
Q 1441 -91 1130 -33 
Q 819 25 488 141 
L 488 750 
Q 750 597 1062 519 
Q 1375 441 1716 441 
Q 2309 441 2620 675 
Q 2931 909 2931 1356 
Q 2931 1769 2642 2001 
Q 2353 2234 1838 2234 
L 1294 2234 
L 1294 2753 
L 1863 2753 
Q 2328 2753 2575 2939 
Q 2822 3125 2822 3475 
Q 2822 3834 2567 4026 
Q 2313 4219 1838 4219 
Q 1578 4219 1281 4162 
Q 984 4106 628 3988 
L 628 4550 
Q 988 4650 1302 4700 
Q 1616 4750 1894 4750 
Q 2613 4750 3031 4423 
Q 3450 4097 3450 3541 
Q 3450 3153 3228 2886 
Q 3006 2619 2597 2516 
z
" transform="scale(0.015625)"/>
       </defs>
       <use xlink:href="#DejaVuSans-31"/>
       <use xlink:href="#DejaVuSans-2e" x="63.623047"/>
       <use xlink:href="#DejaVuSans-30" x="95.410156"/>
       <use xlink:href="#DejaVuSans-33" x="159.033203"/>
      </g>
     </g>
    </g>
    <g id="text_25">
     <!-- vo -->
     <g transform="translate(236.679687 163.23875)rotate(-90)scale(0.1 -0.1)">
      <defs>
       <path id="DejaVuSans-76" d="M 191 3500 
L 800 3500 
L 1894 563 
L 2988 3500 
L 3597 3500 
L 2284 0 
L 1503 0 
L 191 3500 
z
" transform="scale(0.015625)"/>
      </defs>
      <use xlink:href="#DejaVuSans-76"/>
      <use xlink:href="#DejaVuSans-6f" x="59.179688"/>
     </g>
    </g>
   </g>
   <g id="line2d_25">
    <path d="M 279.732205 290.220307 
L 279.732793 290.329091 
L 279.736321 271.095828 
L 279.746905 77.272261 
L 279.85804 123.033356 
L 280.154988 232.904789 
L 280.159692 197.256448 
L 280.1691 24.181395 
L 280.277883 70.120202 
L 280.717719 232.860463 
L 280.722423 197.212481 
L 280.731831 24.140414 
L 280.840614 70.080029 
L 281.281037 233.037858 
L 281.285742 197.388437 
L 281.29515 24.304422 
L 281.403933 70.2408 
L 281.843768 232.981061 
L 281.848472 197.332101 
L 281.857881 24.251911 
L 281.966663 70.189326 
L 282.406499 232.929587 
L 282.411203 197.281045 
L 282.420611 24.204322 
L 282.529394 70.142676 
L 282.969229 232.882937 
L 282.973934 197.234773 
L 282.983342 24.161192 
L 283.092125 70.100397 
L 283.53196 232.840659 
L 283.536664 197.192837 
L 283.546073 24.122104 
L 283.654855 70.062081 
L 284.095279 233.019909 
L 284.099983 197.370634 
L 284.109391 24.287828 
L 284.218174 70.224533 
L 284.65801 232.964795 
L 284.662714 197.315967 
L 284.672122 24.236872 
L 284.780905 70.174584 
L 285.22074 232.914845 
L 285.225444 197.266422 
L 285.234853 24.190692 
L 285.343635 70.129315 
L 285.783471 232.869576 
L 285.788175 197.221521 
L 285.797583 24.14884 
L 285.906366 70.088289 
L 286.346202 232.82855 
L 286.350906 197.180827 
L 286.360314 24.110909 
L 286.469097 70.051107 
L 286.90952 233.008935 
L 286.914224 197.359749 
L 286.923633 24.277682 
L 287.032415 70.214588 
L 287.472251 232.954849 
L 287.476955 197.306102 
L 287.486363 24.227677 
L 287.595146 70.16557 
L 288.034982 232.905832 
L 288.039686 197.257482 
L 288.049094 24.182359 
L 288.157877 70.121146 
L 288.597712 232.861408 
L 288.602416 197.213418 
L 288.611825 24.141287 
L 288.720607 70.080886 
L 289.161031 233.038714 
L 289.165735 197.389286 
L 289.175143 24.305213 
L 289.283926 70.241576 
L 289.723762 232.981837 
L 289.728466 197.332871 
L 289.737874 24.252629 
L 289.846657 70.190029 
L 290.286492 232.93029 
L 290.291196 197.281742 
L 290.300605 24.204972 
L 290.409387 70.143313 
L 290.849223 232.883574 
L 290.853927 197.235405 
L 290.863335 24.161781 
L 290.972118 70.100975 
L 291.411954 232.841236 
L 291.416658 197.19341 
L 291.426066 24.122638 
L 291.534849 70.062604 
L 291.975272 233.020433 
L 291.979976 197.371153 
L 291.989385 24.288312 
L 292.098167 70.225008 
L 292.538003 232.965269 
L 292.542707 197.316437 
L 292.552115 24.237311 
L 292.660898 70.175014 
L 293.100734 232.915275 
L 293.105438 197.266849 
L 293.114846 24.19109 
L 293.223629 70.129705 
L 293.663464 232.869966 
L 293.668168 197.221907 
L 293.677577 24.1492 
L 293.786359 70.088642 
L 294.226195 232.828903 
L 294.230899 197.181177 
L 294.240307 24.111236 
L 294.34909 70.051427 
L 294.789514 233.009255 
L 294.794218 197.360067 
L 294.803626 24.277978 
L 294.912409 70.214878 
L 295.352244 232.955139 
L 295.356948 197.30639 
L 295.366357 24.227946 
L 295.475139 70.165833 
L 295.914975 232.906095 
L 295.919679 197.257743 
L 295.929087 24.182602 
L 296.03787 70.121385 
L 296.477706 232.861646 
L 296.48241 197.213654 
L 296.491818 24.141507 
L 296.600601 70.081101 
L 297.041024 233.03893 
L 297.045728 197.3895 
L 297.055137 24.305413 
L 297.16392 70.241772 
L 297.603755 232.982033 
L 297.608459 197.333065 
L 297.617867 24.25281 
L 297.72665 70.190207 
L 298.166486 232.930468 
L 298.17119 197.281918 
L 298.180598 24.205136 
L 298.289381 70.143474 
L 298.729216 232.883735 
L 298.73392 197.235564 
L 298.743329 24.16193 
L 298.852112 70.101121 
L 299.291947 232.841382 
L 299.296651 197.193555 
L 299.306059 24.122773 
L 299.414842 70.062736 
L 299.855266 233.020565 
L 299.85997 197.371284 
L 299.869378 24.288434 
L 299.978161 70.225128 
L 300.417996 232.965389 
L 300.4227 197.316556 
L 300.432109 24.237422 
L 300.540892 70.175122 
L 300.980727 232.915383 
L 300.985431 197.266956 
L 300.994839 24.19119 
L 301.103622 70.129803 
L 301.543458 232.870064 
L 301.548162 197.222005 
L 301.55757 24.149291 
L 301.666353 70.088731 
L 302.106188 232.828992 
L 302.110892 197.181266 
L 302.120301 24.111318 
L 302.229084 70.051508 
L 302.669507 233.009336 
L 302.674211 197.360147 
L 302.683619 24.278053 
L 302.792402 70.214951 
L 303.232238 232.955212 
L 303.236942 197.306462 
L 303.24635 24.228013 
L 303.355133 70.1659 
L 303.794968 232.906161 
L 303.799672 197.257808 
L 303.809081 24.182663 
L 303.917864 70.121445 
L 304.357699 232.861706 
L 304.362403 197.213714 
L 304.371811 24.141563 
L 304.480594 70.081156 
L 304.921018 233.038984 
L 304.925722 197.389554 
L 304.93513 24.305463 
L 305.043913 70.241821 
L 305.483748 232.982082 
L 305.488453 197.333114 
L 305.497861 24.252855 
L 305.606644 70.190251 
L 306.046479 232.930512 
L 306.051183 197.281962 
L 306.060591 24.205177 
L 306.169374 70.143514 
L 306.60921 232.883775 
L 306.613914 197.235605 
L 306.623322 24.161967 
L 306.732105 70.101157 
L 307.17194 232.841418 
L 307.176645 197.193591 
L 307.186053 24.122806 
L 307.294836 70.06277 
L 307.735259 233.020598 
L 307.739963 197.371317 
L 307.749371 24.288465 
L 307.858154 70.225158 
L 308.29799 232.965419 
L 308.302694 197.316586 
L 308.312102 24.237449 
L 308.420885 70.17515 
L 308.86072 232.915411 
L 308.865425 197.266983 
L 308.874833 24.191215 
L 308.983616 70.129828 
L 309.423451 232.870089 
L 309.428155 197.222029 
L 309.437563 24.149313 
L 309.546346 70.088753 
L 309.986182 232.829015 
L 309.990886 197.181288 
L 310.000294 24.111339 
L 310.109077 70.051528 
L 310.5495 233.009357 
L 310.554205 197.360167 
L 310.563613 24.278071 
L 310.672396 70.21497 
L 311.112231 232.955231 
L 311.116935 197.30648 
L 311.126343 24.22803 
L 311.235126 70.165916 
L 311.674962 232.906178 
L 311.679666 197.257825 
L 311.689074 24.182679 
L 311.797857 70.12146 
L 312.237692 232.861721 
L 312.242397 197.213729 
L 312.251805 24.141577 
L 312.360588 70.08117 
L 312.801011 233.038998 
L 312.805715 197.389568 
L 312.815124 24.305476 
L 312.923906 70.241833 
L 313.363742 232.982095 
L 313.368446 197.333126 
L 313.377854 24.252867 
L 313.486637 70.190263 
L 313.926472 232.930524 
L 313.931177 197.281974 
L 313.940585 24.205188 
L 314.049368 70.143525 
L 314.489203 232.883786 
L 314.493907 197.235615 
L 314.503316 24.161977 
L 314.612098 70.101167 
L 315.051934 232.841428 
L 315.056638 197.1936 
L 315.066046 24.122815 
L 315.174829 70.062778 
L 315.615252 233.020606 
L 315.619957 197.371326 
L 315.629365 24.288472 
L 315.738148 70.225165 
L 316.177983 232.965426 
L 316.182687 197.316593 
L 316.192096 24.237456 
L 316.300878 70.175156 
L 316.740714 232.915418 
L 316.745418 197.26699 
L 316.754826 24.191221 
L 316.863609 70.129834 
L 317.303445 232.870095 
L 317.308149 197.222035 
L 317.317557 24.149319 
L 317.42634 70.088759 
L 317.866175 232.82902 
L 317.870879 197.181294 
L 317.880288 24.111344 
L 317.98907 70.051533 
L 318.429494 233.009362 
L 318.434198 197.360172 
L 318.443606 24.278076 
L 318.552389 70.214974 
L 318.992225 232.955236 
L 318.996929 197.306485 
L 319.006337 24.228035 
L 319.11512 70.165921 
L 319.554955 232.906182 
L 319.559659 197.257829 
L 319.569068 24.182682 
L 319.67785 70.121464 
L 320.117686 232.861725 
L 320.12239 197.213733 
L 320.131798 24.141581 
L 320.240581 70.081173 
L 320.681005 233.039001 
L 320.685709 197.389572 
L 320.695117 24.305479 
L 320.8039 70.241837 
L 321.243735 232.982098 
L 321.248439 197.333129 
L 321.257848 24.25287 
L 321.36663 70.190265 
L 321.806466 232.930527 
L 321.81117 197.281976 
L 321.820578 24.20519 
L 321.929361 70.143527 
L 322.369197 232.883788 
L 322.373901 197.235617 
L 322.383309 24.161979 
L 322.492092 70.101169 
L 322.931927 232.84143 
L 322.936631 197.193603 
L 322.94604 24.122817 
L 323.054822 70.06278 
L 323.495246 233.020609 
L 323.49995 197.371328 
L 323.509358 24.288474 
L 323.618141 70.225167 
L 324.057977 232.965428 
L 324.062681 197.316595 
L 324.072089 24.237458 
L 324.180872 70.175158 
L 324.620707 232.915419 
L 324.625411 197.266992 
L 324.63482 24.191223 
L 324.743602 70.129836 
L 325.183438 232.870097 
L 325.188142 197.222037 
L 325.19755 24.149321 
L 325.306333 70.08876 
L 325.746169 232.829022 
L 325.750873 197.181295 
L 325.760281 24.111345 
L 325.869064 70.051535 
L 326.309487 233.009363 
L 326.314191 197.360173 
L 326.3236 24.278077 
L 326.432382 70.214976 
L 326.872218 232.955237 
L 326.876922 197.306486 
L 326.88633 24.228036 
L 326.995113 70.165922 
L 327.434949 232.906183 
L 327.439653 197.25783 
L 327.449061 24.182683 
L 327.557844 70.121465 
L 327.997679 232.861726 
L 328.002383 197.213734 
L 328.011792 24.141581 
L 328.120574 70.081174 
L 328.560998 233.039002 
L 328.565702 197.389572 
L 328.57511 24.30548 
L 328.683893 70.241837 
L 329.123729 232.982098 
L 329.128433 197.33313 
L 329.137841 24.25287 
L 329.246624 70.190266 
L 329.686459 232.930527 
L 329.691163 197.281977 
L 329.700572 24.205191 
L 329.809355 70.143528 
L 330.24919 232.883789 
L 330.253894 197.235618 
L 330.263302 24.16198 
L 330.372085 70.101169 
L 330.811921 232.841431 
L 330.816625 197.193603 
L 330.826033 24.122818 
L 330.934816 70.062781 
L 331.375239 233.020609 
L 331.379943 197.371328 
L 331.389352 24.288475 
L 331.498135 70.225168 
L 331.93797 232.965429 
L 331.942674 197.316596 
L 331.952082 24.237459 
L 332.060865 70.175159 
L 332.500701 232.91542 
L 332.505405 197.266992 
L 332.514813 24.191223 
L 332.623596 70.129836 
L 333.063431 232.870097 
L 333.068135 197.222037 
L 333.077544 24.149321 
L 333.186327 70.088761 
L 333.626162 232.829022 
L 333.630866 197.181295 
L 333.640274 24.111346 
L 333.749057 70.051535 
L 334.189481 233.009363 
L 334.194185 197.360174 
L 334.203593 24.278078 
L 334.312376 70.214976 
L 334.752211 232.955237 
L 334.756915 197.306486 
L 334.766324 24.228036 
L 334.875107 70.165922 
L 335.314942 232.906183 
L 335.319646 197.25783 
L 335.329054 24.182684 
L 335.437837 70.121465 
L 335.877673 232.861726 
L 335.882377 197.213734 
L 335.891785 24.141582 
L 336.000568 70.081174 
L 336.440991 233.039003 
L 336.445695 197.389573 
L 336.455104 24.30548 
L 336.563887 70.241838 
L 337.003722 232.982099 
L 337.008426 197.33313 
L 337.017834 24.252871 
L 337.126617 70.190266 
L 337.566453 232.930527 
L 337.571157 197.281977 
L 337.580565 24.205191 
L 337.689348 70.143528 
L 338.129183 232.883789 
L 338.133888 197.235618 
L 338.143296 24.16198 
L 338.252079 70.10117 
L 338.691914 232.841431 
L 338.696618 197.193603 
L 338.706026 24.122818 
L 338.814809 70.062781 
L 339.255233 233.020609 
L 339.259937 197.371328 
L 339.269345 24.288475 
L 339.378128 70.225168 
L 339.817963 232.965429 
L 339.822668 197.316596 
L 339.832076 24.237459 
L 339.940859 70.175159 
L 340.380694 232.91542 
L 340.385398 197.266992 
L 340.394806 24.191224 
L 340.503589 70.129836 
L 340.943425 232.870097 
L 340.948129 197.222037 
L 340.957537 24.149321 
L 341.06632 70.088761 
L 341.506155 232.829022 
L 341.51086 197.181295 
L 341.520268 24.111346 
L 341.629051 70.051535 
L 342.069474 233.009363 
L 342.074178 197.360174 
L 342.083586 24.278078 
L 342.192369 70.214976 
L 342.632205 232.955237 
L 342.636909 197.306487 
L 342.646317 24.228036 
L 342.7551 70.165922 
L 343.194935 232.906183 
L 343.19964 197.25783 
L 343.209048 24.182684 
L 343.317831 70.121465 
L 343.757666 232.861726 
L 343.76237 197.213734 
L 343.771778 24.141582 
L 343.880561 70.081174 
L 344.320985 233.039003 
L 344.325689 197.389573 
L 344.335097 24.30548 
L 344.44388 70.241838 
L 344.883715 232.982099 
L 344.88842 197.33313 
L 344.897828 24.252871 
L 345.006611 70.190266 
L 345.446446 232.930527 
L 345.45115 197.281977 
L 345.460558 24.205191 
L 345.569341 70.143528 
L 346.009177 232.883789 
L 346.013881 197.235618 
L 346.023289 24.16198 
L 346.132072 70.10117 
L 346.571907 232.841431 
L 346.576612 197.193603 
L 346.58602 24.122818 
L 346.694803 70.062781 
L 347.135226 233.020609 
L 347.13993 197.371328 
L 347.149339 24.288475 
L 347.258121 70.225168 
L 347.697957 232.965429 
L 347.702661 197.316596 
L 347.712069 24.237459 
L 347.820852 70.175159 
L 348.260687 232.91542 
L 348.265392 197.266992 
L 348.2748 24.191224 
L 348.383583 70.129836 
L 348.823418 232.870097 
L 348.828122 197.222037 
L 348.837531 24.149321 
L 348.946313 70.088761 
L 349.386149 232.829022 
L 349.390853 197.181295 
L 349.400261 24.111346 
L 349.509044 70.051535 
L 349.949468 233.009363 
L 349.954172 197.360174 
L 349.96358 24.278078 
L 350.072363 70.214976 
L 350.512198 232.955237 
L 350.516902 197.306487 
L 350.526311 24.228036 
L 350.635093 70.165922 
L 351.074929 232.906183 
L 351.079633 197.257831 
L 351.089041 24.182684 
L 351.197824 70.121465 
L 351.63766 232.861726 
L 351.642364 197.213734 
L 351.651772 24.141582 
L 351.760555 70.081174 
L 352.200978 233.039003 
L 352.205682 197.389573 
L 352.215091 24.30548 
L 352.323873 70.241838 
L 352.763709 232.982099 
L 352.768413 197.33313 
L 352.777821 24.252871 
L 352.886604 70.190266 
L 353.32644 232.930527 
L 353.331144 197.281977 
L 353.340552 24.205191 
L 353.449335 70.143528 
L 353.88917 232.883789 
L 353.893874 197.235618 
L 353.903283 24.16198 
L 354.012065 70.10117 
L 354.451901 232.841431 
L 354.456605 197.193603 
L 354.466013 24.122818 
L 354.574796 70.062781 
L 355.01522 233.020609 
L 355.019924 197.371328 
L 355.029332 24.288475 
L 355.138115 70.225168 
L 355.57795 232.965429 
L 355.582654 197.316596 
L 355.592063 24.237459 
L 355.700845 70.175159 
L 356.140681 232.91542 
L 356.145385 197.266992 
L 356.154793 24.191224 
L 356.263576 70.129836 
L 356.703412 232.870097 
L 356.708116 197.222037 
L 356.717524 24.149321 
L 356.826307 70.088761 
L 357.266142 232.829022 
L 357.270846 197.181295 
L 357.280255 24.111346 
L 357.389037 70.051535 
L 357.829461 233.009363 
L 357.834165 197.360174 
L 357.843573 24.278078 
L 357.952356 70.214976 
L 358.392192 232.955237 
L 358.396896 197.306487 
L 358.406304 24.228036 
L 358.515087 70.165922 
L 358.954922 232.906183 
L 358.959626 197.257831 
L 358.969035 24.182684 
L 359.077817 70.121465 
L 359.517653 232.861726 
L 359.522357 197.213734 
L 359.531765 24.141582 
L 359.640548 70.081174 
L 360.080972 233.039003 
L 360.085676 197.389573 
L 360.095084 24.30548 
L 360.203867 70.241838 
L 360.643702 232.982099 
L 360.648406 197.33313 
L 360.657815 24.252871 
L 360.766597 70.190266 
L 361.206433 232.930528 
L 361.211137 197.281977 
L 361.220545 24.205191 
L 361.329328 70.143528 
L 361.769164 232.883789 
L 361.773868 197.235618 
L 361.783276 24.16198 
L 361.892059 70.10117 
L 362.331894 232.841431 
L 362.336598 197.193603 
L 362.346007 24.122818 
L 362.454789 70.062781 
L 362.895213 233.020609 
L 362.899917 197.371328 
L 362.909325 24.288475 
L 363.018108 70.225168 
L 363.457944 232.965429 
L 363.462648 197.316596 
L 363.472056 24.237459 
L 363.580839 70.175159 
L 364.020674 232.91542 
L 364.025378 197.266992 
L 364.034787 24.191224 
L 364.14357 70.129836 
L 364.583405 232.870097 
L 364.588109 197.222037 
L 364.597517 24.149321 
L 364.7063 70.088761 
L 365.146136 232.829022 
L 365.15084 197.181295 
L 365.160248 24.111346 
L 365.269031 70.051535 
L 365.709454 233.009363 
L 365.714158 197.360174 
L 365.723567 24.278078 
L 365.83235 70.214976 
L 366.272185 232.955237 
L 366.276889 197.306487 
L 366.286297 24.228036 
L 366.39508 70.165922 
L 366.834916 232.906183 
L 366.83962 197.257831 
L 366.849028 24.182684 
L 366.957811 70.121465 
L 367.397646 232.861726 
L 367.40235 197.213734 
L 367.411759 24.141582 
L 367.520542 70.081174 
L 367.960965 233.039003 
L 367.965669 197.389573 
L 367.975077 24.30548 
L 368.08386 70.241838 
L 368.523696 232.982099 
L 368.5284 197.33313 
L 368.537808 24.252871 
L 368.646591 70.190266 
L 369.086426 232.930528 
L 369.09113 197.281977 
L 369.100539 24.205191 
L 369.209322 70.143528 
L 369.649157 232.883789 
L 369.653861 197.235618 
L 369.663269 24.16198 
L 369.772052 70.10117 
L 370.211888 232.841431 
L 370.216592 197.193603 
L 370.226 24.122818 
L 370.334783 70.062781 
L 370.775206 233.020609 
L 370.779911 197.371328 
L 370.789319 24.288475 
L 370.898102 70.225168 
L 371.337937 232.965429 
L 371.342641 197.316596 
L 371.352049 24.237459 
L 371.460832 70.175159 
L 371.900668 232.91542 
L 371.905372 197.266992 
L 371.91478 24.191224 
L 372.023563 70.129836 
L 372.463398 232.870097 
L 372.468103 197.222037 
L 372.477511 24.149321 
L 372.586294 70.088761 
L 373.026129 232.829022 
L 373.030833 197.181295 
L 373.040241 24.111346 
L 373.149024 70.051535 
L 373.589448 233.009363 
L 373.594152 197.360174 
L 373.60356 24.278078 
L 373.712343 70.214976 
L 374.152178 232.955237 
L 374.156883 197.306487 
L 374.166291 24.228036 
L 374.275074 70.165922 
L 374.714909 232.906183 
L 374.719613 197.257831 
L 374.729021 24.182684 
L 374.837804 70.121465 
L 375.27764 232.861726 
L 375.282344 197.213734 
L 375.291752 24.141582 
L 375.400535 70.081174 
L 375.840958 233.039003 
L 375.845663 197.389573 
L 375.855071 24.30548 
L 375.963854 70.241838 
L 376.403689 232.982099 
L 376.408393 197.33313 
L 376.417801 24.252871 
L 376.526584 70.190266 
L 376.96642 232.930528 
L 376.971124 197.281977 
L 376.980532 24.205191 
L 377.089315 70.143528 
L 377.52915 232.883789 
L 377.533855 197.235618 
L 377.543263 24.16198 
L 377.652046 70.10117 
L 378.091881 232.841431 
L 378.096585 197.193603 
L 378.105993 24.122818 
L 378.214776 70.062781 
L 378.6552 233.020609 
L 378.659904 197.371328 
L 378.669312 24.288475 
L 378.778095 70.225168 
L 379.21793 232.965429 
L 379.222635 197.316596 
L 379.232043 24.237459 
L 379.340826 70.175159 
L 379.780661 232.91542 
L 379.785365 197.266992 
L 379.794774 24.191224 
L 379.903556 70.129836 
L 380.343392 232.870097 
L 380.348096 197.222037 
L 380.357504 24.149321 
L 380.466287 70.088761 
L 380.906122 232.829022 
L 380.910827 197.181295 
L 380.920235 24.111346 
L 381.029018 70.051535 
L 381.469441 233.009363 
L 381.474145 197.360174 
L 381.483554 24.278078 
L 381.592336 70.214976 
L 382.032172 232.955237 
L 382.036876 197.306487 
L 382.046284 24.228036 
L 382.155067 70.165922 
L 382.594903 232.906183 
L 382.599607 197.257831 
L 382.609015 24.182684 
L 382.717798 70.121465 
L 383.157633 232.861726 
L 383.162337 197.213734 
L 383.171746 24.141582 
L 383.280528 70.081174 
L 383.720952 233.039003 
L 383.725656 197.389573 
L 383.735064 24.30548 
L 383.843847 70.241838 
L 384.283683 232.982099 
L 384.288387 197.33313 
L 384.297795 24.252871 
L 384.406578 70.190266 
L 384.846413 232.930528 
L 384.851117 197.281977 
L 384.860526 24.205191 
L 384.969308 70.143528 
L 385.409144 232.883789 
L 385.413848 197.235618 
L 385.423256 24.16198 
L 385.532039 70.10117 
L 385.971875 232.841431 
L 385.976579 197.193603 
L 385.985987 24.122818 
L 386.09477 70.062781 
L 386.535193 233.020609 
L 386.539897 197.371328 
L 386.549306 24.288475 
L 386.658088 70.225168 
L 387.097924 232.965429 
L 387.102628 197.316596 
L 387.112036 24.237459 
L 387.220819 70.175159 
L 387.660655 232.91542 
L 387.665359 197.266992 
L 387.674767 24.191224 
L 387.78355 70.129836 
L 388.223385 232.870097 
L 388.228089 197.222037 
L 388.237498 24.149321 
L 388.34628 70.088761 
L 388.786116 232.829022 
L 388.79082 197.181295 
L 388.800228 24.111346 
L 388.909011 70.051535 
L 389.349435 233.009363 
L 389.354139 197.360174 
L 389.363547 24.278078 
L 389.47233 70.214976 
L 389.912165 232.955237 
L 389.916869 197.306487 
L 389.926278 24.228036 
L 390.03506 70.165922 
L 390.474896 232.906183 
L 390.4796 197.257831 
L 390.489008 24.182684 
L 390.597791 70.121465 
L 391.037627 232.861726 
L 391.042331 197.213734 
L 391.051739 24.141582 
L 391.160522 70.081174 
L 391.600945 233.039003 
L 391.605649 197.389573 
L 391.615058 24.30548 
L 391.72384 70.241838 
L 392.163676 232.982099 
L 392.16838 197.33313 
L 392.177788 24.252871 
L 392.286571 70.190266 
L 392.726407 232.930528 
L 392.731111 197.281977 
L 392.740519 24.205191 
L 392.849302 70.143528 
L 393.289137 232.883789 
L 393.293841 197.235618 
L 393.30325 24.16198 
L 393.412032 70.10117 
L 393.851868 232.841431 
L 393.856572 197.193603 
L 393.86598 24.122818 
L 393.974763 70.062781 
L 394.415187 233.020609 
L 394.419891 197.371328 
L 394.429299 24.288475 
L 394.538082 70.225168 
L 394.977917 232.965429 
L 394.982621 197.316596 
L 394.99203 24.237459 
L 395.100813 70.175159 
L 395.540648 232.91542 
L 395.545352 197.266992 
L 395.55476 24.191224 
L 395.663543 70.129836 
L 396.103379 232.870097 
L 396.108083 197.222037 
L 396.117491 24.149321 
L 396.226274 70.088761 
L 396.666109 232.829022 
L 396.670813 197.181295 
L 396.680222 24.111346 
L 396.789005 70.051535 
L 397.229428 233.009363 
L 397.234132 197.360174 
L 397.24354 24.278078 
L 397.352323 70.214976 
L 397.792159 232.955237 
L 397.796863 197.306487 
L 397.806271 24.228036 
L 397.915054 70.165922 
L 398.354889 232.906183 
L 398.359593 197.257831 
L 398.369002 24.182684 
L 398.477785 70.121465 
L 398.91762 232.861726 
L 398.922324 197.213734 
L 398.931732 24.141582 
L 399.040515 70.081174 
L 399.480939 233.039003 
L 399.485643 197.389573 
L 399.495051 24.30548 
L 399.603834 70.241838 
L 400.043669 232.982099 
L 400.048373 197.33313 
L 400.057782 24.252871 
L 400.166565 70.190266 
L 400.6064 232.930528 
L 400.611104 197.281977 
L 400.620512 24.205191 
L 400.729295 70.143528 
L 401.169131 232.883789 
L 401.173835 197.235618 
L 401.183243 24.16198 
L 401.292026 70.10117 
L 401.731861 232.841431 
L 401.736565 197.193603 
L 401.745974 24.122818 
L 401.854757 70.062781 
L 402.29518 233.020609 
L 402.299884 197.371328 
L 402.309292 24.288475 
L 402.418075 70.225168 
L 402.857911 232.965429 
L 402.862615 197.316596 
L 402.872023 24.237459 
L 402.980806 70.175159 
L 403.420641 232.91542 
L 403.425346 197.266992 
L 403.434754 24.191224 
L 403.543537 70.129836 
L 403.983372 232.870097 
L 403.988076 197.222037 
L 403.997484 24.149321 
L 404.106267 70.088761 
L 404.546103 232.829022 
L 404.550807 197.181295 
L 404.560215 24.111346 
L 404.668998 70.051535 
L 405.109421 233.009363 
L 405.114126 197.360174 
L 405.123534 24.278078 
L 405.232317 70.214976 
L 405.672152 232.955237 
L 405.676856 197.306487 
L 405.686264 24.228036 
L 405.795047 70.165922 
L 406.234883 232.906183 
L 406.239587 197.257831 
L 406.248995 24.182684 
L 406.357778 70.121465 
L 406.797613 232.861726 
L 406.802318 197.213734 
L 406.811726 24.141582 
L 406.920509 70.081174 
L 407.360932 233.039003 
L 407.365636 197.389573 
L 407.375044 24.30548 
L 407.483827 70.241838 
L 407.923663 232.982099 
L 407.928367 197.33313 
L 407.937775 24.252871 
L 408.046558 70.190266 
L 408.486393 232.930528 
L 408.491098 197.281977 
L 408.500506 24.205191 
L 408.609289 70.143528 
L 409.049124 232.883789 
L 409.053828 197.235618 
L 409.063236 24.16198 
L 409.172019 70.10117 
L 409.611855 232.841431 
L 409.616559 197.193603 
L 409.625967 24.122818 
L 409.73475 70.062781 
L 410.175173 233.020609 
L 410.179878 197.371328 
L 410.189286 24.288475 
L 410.298069 70.225168 
L 410.737904 232.965429 
L 410.742608 197.316596 
L 410.752016 24.237459 
L 410.860799 70.175159 
L 411.300635 232.91542 
L 411.305339 197.266992 
L 411.314747 24.191224 
L 411.42353 70.129836 
L 411.863365 232.870097 
L 411.86807 197.222037 
L 411.877478 24.149321 
L 411.986261 70.088761 
L 412.426096 232.829022 
L 412.4308 197.181295 
L 412.440208 24.111346 
L 412.548991 70.051535 
L 412.989415 233.009363 
L 412.994119 197.360174 
L 413.003527 24.278078 
L 413.11231 70.214976 
L 413.552145 232.955237 
L 413.55685 197.306487 
L 413.566258 24.228036 
L 413.675041 70.165922 
L 414.114876 232.906183 
L 414.11958 197.257831 
L 414.128989 24.182684 
L 414.237771 70.121465 
L 414.677607 232.861726 
L 414.682311 197.213734 
L 414.691719 24.141582 
L 414.800502 70.081174 
L 415.240926 233.039003 
L 415.24563 197.389573 
L 415.255038 24.30548 
L 415.363821 70.241838 
L 415.803656 232.982099 
L 415.80836 197.33313 
L 415.817769 24.252871 
L 415.926551 70.190266 
L 416.366387 232.930528 
L 416.371091 197.281977 
L 416.380499 24.205191 
L 416.489282 70.143528 
L 416.929118 232.883789 
L 416.933822 197.235618 
L 416.94323 24.16198 
L 417.052013 70.10117 
L 417.491848 232.841431 
L 417.496552 197.193603 
L 417.505961 24.122818 
L 417.614743 70.062781 
L 418.055167 233.020609 
L 418.059871 197.371328 
L 418.069279 24.288475 
L 418.178062 70.225168 
L 418.617898 232.965429 
L 418.622602 197.316596 
L 418.63201 24.237459 
L 418.740793 70.175159 
L 419.180628 232.91542 
L 419.185332 197.266992 
L 419.194741 24.191224 
L 419.303523 70.129836 
L 419.743359 232.870097 
L 419.748063 197.222037 
L 419.757471 24.149321 
L 419.866254 70.088761 
L 420.30609 232.829022 
L 420.310794 197.181295 
L 420.320202 24.111346 
L 420.428985 70.051535 
L 420.869408 233.009363 
L 420.874112 197.360174 
L 420.883521 24.278078 
L 420.992303 70.214976 
L 421.432139 232.955237 
L 421.436843 197.306487 
L 421.446251 24.228036 
L 421.555034 70.165922 
L 421.99487 232.906183 
L 421.999574 197.257831 
L 422.008982 24.182684 
L 422.117765 70.121465 
L 422.5576 232.861726 
L 422.562304 197.213734 
L 422.571713 24.141582 
L 422.680495 70.081174 
L 423.120919 233.039003 
L 423.125623 197.389573 
L 423.135031 24.30548 
L 423.243814 70.241838 
L 423.68365 232.982099 
L 423.688354 197.33313 
L 423.697762 24.252871 
L 423.806545 70.190266 
L 424.24638 232.930528 
L 424.251084 197.281977 
L 424.260493 24.205191 
L 424.369275 70.143528 
L 424.809111 232.883789 
L 424.813815 197.235618 
L 424.823223 24.16198 
L 424.932006 70.10117 
L 425.371842 232.841431 
L 425.376546 197.193603 
L 425.385954 24.122818 
L 425.494737 70.062781 
L 425.93516 233.020609 
L 425.939864 197.371328 
L 425.949273 24.288475 
L 426.058055 70.225168 
L 426.497891 232.965429 
L 426.502595 197.316596 
L 426.512003 24.237459 
L 426.620786 70.175159 
L 427.060622 232.91542 
L 427.065326 197.266992 
L 427.074734 24.191224 
L 427.183517 70.129836 
L 427.623352 232.870097 
L 427.628056 197.222037 
L 427.637465 24.149321 
L 427.746247 70.088761 
L 428.186083 232.829022 
L 428.190787 197.181295 
L 428.200195 24.111346 
L 428.308978 70.051535 
L 428.749402 233.009363 
L 428.754106 197.360174 
L 428.763514 24.278078 
L 428.872297 70.214976 
L 429.312132 232.955237 
L 429.316836 197.306487 
L 429.326245 24.228036 
L 429.435028 70.165922 
L 429.874863 232.906183 
L 429.879567 197.257831 
L 429.888975 24.182684 
L 429.997758 70.121465 
L 430.437594 232.861726 
L 430.442298 197.213734 
L 430.451706 24.141582 
L 430.560489 70.081174 
L 431.000912 233.039003 
L 431.005616 197.389573 
L 431.015025 24.30548 
L 431.123808 70.241838 
L 431.563643 232.982099 
L 431.568347 197.33313 
L 431.577755 24.252871 
L 431.686538 70.190266 
L 432.126374 232.930528 
L 432.131078 197.281977 
L 432.140486 24.205191 
L 432.249269 70.143528 
L 432.689104 232.883789 
L 432.693808 197.235618 
L 432.703217 24.16198 
L 432.812 70.10117 
L 433.251835 232.841431 
L 433.256539 197.193603 
L 433.265947 24.122818 
L 433.37473 70.062781 
L 433.815154 233.020609 
L 433.819858 197.371328 
L 433.829266 24.288475 
L 433.876307 47.380612 
" clip-path="url(#pa1d2b1618e)" style="fill: none; stroke: #1f77b4; stroke-width: 1.5; stroke-linecap: square"/>
   </g>
   <g id="patch_9">
    <path d="M 272.025 303.64 
L 272.025 10.8 
" style="fill: none; stroke: #000000; stroke-width: 0.8; stroke-linejoin: miter; stroke-linecap: square"/>
   </g>
   <g id="patch_10">
    <path d="M 441.583512 303.64 
L 441.583512 10.8 
" style="fill: none; stroke: #000000; stroke-width: 0.8; stroke-linejoin: miter; stroke-linecap: square"/>
   </g>
   <g id="patch_11">
    <path d="M 272.025 303.64 
L 441.583512 303.64 
" style="fill: none; stroke: #000000; stroke-width: 0.8; stroke-linejoin: miter; stroke-linecap: square"/>
   </g>
   <g id="patch_12">
    <path d="M 272.025 10.8 
L 441.583512 10.8 
" style="fill: none; stroke: #000000; stroke-width: 0.8; stroke-linejoin: miter; stroke-linecap: square"/>
   </g>
  </g>
 </g>
 <defs>
  <clipPath id="p602477e76c">
   <rect x="39.94" y="10.8" width="169.558512" height="292.84"/>
  </clipPath>
  <clipPath id="pa1d2b1618e">
   <rect x="272.025" y="10.8" width="169.558512" height="292.84"/>
  </clipPath>
 </defs>
</svg>
