<?xml version="1.0" encoding="utf-8" standalone="no"?>
<!DOCTYPE svg PUBLIC "-//W3C//DTD SVG 1.1//EN"
  "http://www.w3.org/Graphics/SVG/1.1/DTD/svg11.dtd">
<svg xmlns:xlink="http://www.w3.org/1999/xlink" width="460.8pt" height="345.6pt" viewBox="0 0 460.8 345.6" xmlns="http://www.w3.org/2000/svg" version="1.1">
 <metadata>
  <rdf:RDF xmlns:dc="http://purl.org/dc/elements/1.1/" xmlns:cc="http://creativecommons.org/ns#" xmlns:rdf="http://www.w3.org/1999/02/22-rdf-syntax-ns#">
   <cc:Work>
    <dc:type rdf:resource="http://purl.org/dc/dcmitype/StillImage"/>
    <dc:date>2023-08-27T20:26:30.622075</dc:date>
    <dc:format>image/svg+xml</dc:format>
    <dc:creator>
     <cc:Agent>
      <dc:title>Matplotlib v3.5.3, https://matplotlib.org/</dc:title>
     </cc:Agent>
    </dc:creator>
   </cc:Work>
  </rdf:RDF>
 </metadata>
 <defs>
  <style type="text/css">*{stroke-linejoin: round; stroke-linecap: butt}</style>
 </defs>
 <g id="figure_1">
  <g id="patch_1">
   <path d="M 0 345.6 
L 460.8 345.6 
L 460.8 0 
L 0 0 
z
" style="fill: #ffffff"/>
  </g>
  <g id="axes_1">
   <g id="patch_2">
    <path d="M 45.94399 131.447142 
L 457.79976 131.447142 
L 457.79976 3.893771 
L 45.94399 3.893771 
z
" style="fill: #ffffff"/>
   </g>
   <g id="matplotlib.axis_1">
    <g id="xtick_1">
     <g id="line2d_1">
      <path d="M 64.664707 131.447142 
L 64.664707 3.893771 
" clip-path="url(#p8f03fba6cd)" style="fill: none; stroke: #b0b0b0; stroke-width: 0.8; stroke-linecap: square"/>
     </g>
     <g id="line2d_2">
      <defs>
       <path id="m92e720d8c9" d="M 0 0 
L 0 3.5 
" style="stroke: #000000; stroke-width: 0.8"/>
      </defs>
      <g>
       <use xlink:href="#m92e720d8c9" x="64.664707" y="131.447142" style="stroke: #000000; stroke-width: 0.8"/>
      </g>
     </g>
    </g>
    <g id="xtick_2">
     <g id="line2d_3">
      <path d="M 139.547574 131.447142 
L 139.547574 3.893771 
" clip-path="url(#p8f03fba6cd)" style="fill: none; stroke: #b0b0b0; stroke-width: 0.8; stroke-linecap: square"/>
     </g>
     <g id="line2d_4">
      <g>
       <use xlink:href="#m92e720d8c9" x="139.547574" y="131.447142" style="stroke: #000000; stroke-width: 0.8"/>
      </g>
     </g>
    </g>
    <g id="xtick_3">
     <g id="line2d_5">
      <path d="M 214.430441 131.447142 
L 214.430441 3.893771 
" clip-path="url(#p8f03fba6cd)" style="fill: none; stroke: #b0b0b0; stroke-width: 0.8; stroke-linecap: square"/>
     </g>
     <g id="line2d_6">
      <g>
       <use xlink:href="#m92e720d8c9" x="214.430441" y="131.447142" style="stroke: #000000; stroke-width: 0.8"/>
      </g>
     </g>
    </g>
    <g id="xtick_4">
     <g id="line2d_7">
      <path d="M 289.313309 131.447142 
L 289.313309 3.893771 
" clip-path="url(#p8f03fba6cd)" style="fill: none; stroke: #b0b0b0; stroke-width: 0.8; stroke-linecap: square"/>
     </g>
     <g id="line2d_8">
      <g>
       <use xlink:href="#m92e720d8c9" x="289.313309" y="131.447142" style="stroke: #000000; stroke-width: 0.8"/>
      </g>
     </g>
    </g>
    <g id="xtick_5">
     <g id="line2d_9">
      <path d="M 364.196176 131.447142 
L 364.196176 3.893771 
" clip-path="url(#p8f03fba6cd)" style="fill: none; stroke: #b0b0b0; stroke-width: 0.8; stroke-linecap: square"/>
     </g>
     <g id="line2d_10">
      <g>
       <use xlink:href="#m92e720d8c9" x="364.196176" y="131.447142" style="stroke: #000000; stroke-width: 0.8"/>
      </g>
     </g>
    </g>
    <g id="xtick_6">
     <g id="line2d_11">
      <path d="M 439.079043 131.447142 
L 439.079043 3.893771 
" clip-path="url(#p8f03fba6cd)" style="fill: none; stroke: #b0b0b0; stroke-width: 0.8; stroke-linecap: square"/>
     </g>
     <g id="line2d_12">
      <g>
       <use xlink:href="#m92e720d8c9" x="439.079043" y="131.447142" style="stroke: #000000; stroke-width: 0.8"/>
      </g>
     </g>
    </g>
   </g>
   <g id="matplotlib.axis_2">
    <g id="ytick_1">
     <g id="line2d_13">
      <path d="M 45.94399 106.934717 
L 457.79976 106.934717 
" clip-path="url(#p8f03fba6cd)" style="fill: none; stroke: #b0b0b0; stroke-width: 0.8; stroke-linecap: square"/>
     </g>
     <g id="line2d_14">
      <defs>
       <path id="mf46ce8c2bd" d="M 0 0 
L -3.5 0 
" style="stroke: #000000; stroke-width: 0.8"/>
      </defs>
      <g>
       <use xlink:href="#mf46ce8c2bd" x="45.94399" y="106.934717" style="stroke: #000000; stroke-width: 0.8"/>
      </g>
     </g>
     <g id="text_1">
      <!-- 0.0 -->
      <g transform="translate(23.040865 110.733935)scale(0.1 -0.1)">
       <defs>
        <path id="DejaVuSans-30" d="M 2034 4250 
Q 1547 4250 1301 3770 
Q 1056 3291 1056 2328 
Q 1056 1369 1301 889 
Q 1547 409 2034 409 
Q 2525 409 2770 889 
Q 3016 1369 3016 2328 
Q 3016 3291 2770 3770 
Q 2525 4250 2034 4250 
z
M 2034 4750 
Q 2819 4750 3233 4129 
Q 3647 3509 3647 2328 
Q 3647 1150 3233 529 
Q 2819 -91 2034 -91 
Q 1250 -91 836 529 
Q 422 1150 422 2328 
Q 422 3509 836 4129 
Q 1250 4750 2034 4750 
z
" transform="scale(0.015625)"/>
        <path id="DejaVuSans-2e" d="M 684 794 
L 1344 794 
L 1344 0 
L 684 0 
L 684 794 
z
" transform="scale(0.015625)"/>
       </defs>
       <use xlink:href="#DejaVuSans-30"/>
       <use xlink:href="#DejaVuSans-2e" x="63.623047"/>
       <use xlink:href="#DejaVuSans-30" x="95.410156"/>
      </g>
     </g>
    </g>
    <g id="ytick_2">
     <g id="line2d_15">
      <path d="M 45.94399 73.558942 
L 457.79976 73.558942 
" clip-path="url(#p8f03fba6cd)" style="fill: none; stroke: #b0b0b0; stroke-width: 0.8; stroke-linecap: square"/>
     </g>
     <g id="line2d_16">
      <g>
       <use xlink:href="#mf46ce8c2bd" x="45.94399" y="73.558942" style="stroke: #000000; stroke-width: 0.8"/>
      </g>
     </g>
     <g id="text_2">
      <!-- 0.2 -->
      <g transform="translate(23.040865 77.358161)scale(0.1 -0.1)">
       <defs>
        <path id="DejaVuSans-32" d="M 1228 531 
L 3431 531 
L 3431 0 
L 469 0 
L 469 531 
Q 828 903 1448 1529 
Q 2069 2156 2228 2338 
Q 2531 2678 2651 2914 
Q 2772 3150 2772 3378 
Q 2772 3750 2511 3984 
Q 2250 4219 1831 4219 
Q 1534 4219 1204 4116 
Q 875 4013 500 3803 
L 500 4441 
Q 881 4594 1212 4672 
Q 1544 4750 1819 4750 
Q 2544 4750 2975 4387 
Q 3406 4025 3406 3419 
Q 3406 3131 3298 2873 
Q 3191 2616 2906 2266 
Q 2828 2175 2409 1742 
Q 1991 1309 1228 531 
z
" transform="scale(0.015625)"/>
       </defs>
       <use xlink:href="#DejaVuSans-30"/>
       <use xlink:href="#DejaVuSans-2e" x="63.623047"/>
       <use xlink:href="#DejaVuSans-32" x="95.410156"/>
      </g>
     </g>
    </g>
    <g id="ytick_3">
     <g id="line2d_17">
      <path d="M 45.94399 40.183168 
L 457.79976 40.183168 
" clip-path="url(#p8f03fba6cd)" style="fill: none; stroke: #b0b0b0; stroke-width: 0.8; stroke-linecap: square"/>
     </g>
     <g id="line2d_18">
      <g>
       <use xlink:href="#mf46ce8c2bd" x="45.94399" y="40.183168" style="stroke: #000000; stroke-width: 0.8"/>
      </g>
     </g>
     <g id="text_3">
      <!-- 0.4 -->
      <g transform="translate(23.040865 43.982386)scale(0.1 -0.1)">
       <defs>
        <path id="DejaVuSans-34" d="M 2419 4116 
L 825 1625 
L 2419 1625 
L 2419 4116 
z
M 2253 4666 
L 3047 4666 
L 3047 1625 
L 3713 1625 
L 3713 1100 
L 3047 1100 
L 3047 0 
L 2419 0 
L 2419 1100 
L 313 1100 
L 313 1709 
L 2253 4666 
z
" transform="scale(0.015625)"/>
       </defs>
       <use xlink:href="#DejaVuSans-30"/>
       <use xlink:href="#DejaVuSans-2e" x="63.623047"/>
       <use xlink:href="#DejaVuSans-34" x="95.410156"/>
      </g>
     </g>
    </g>
    <g id="ytick_4">
     <g id="line2d_19">
      <path d="M 45.94399 6.807393 
L 457.79976 6.807393 
" clip-path="url(#p8f03fba6cd)" style="fill: none; stroke: #b0b0b0; stroke-width: 0.8; stroke-linecap: square"/>
     </g>
     <g id="line2d_20">
      <g>
       <use xlink:href="#mf46ce8c2bd" x="45.94399" y="6.807393" style="stroke: #000000; stroke-width: 0.8"/>
      </g>
     </g>
     <g id="text_4">
      <!-- 0.6 -->
      <g transform="translate(23.040865 10.606612)scale(0.1 -0.1)">
       <defs>
        <path id="DejaVuSans-36" d="M 2113 2584 
Q 1688 2584 1439 2293 
Q 1191 2003 1191 1497 
Q 1191 994 1439 701 
Q 1688 409 2113 409 
Q 2538 409 2786 701 
Q 3034 994 3034 1497 
Q 3034 2003 2786 2293 
Q 2538 2584 2113 2584 
z
M 3366 4563 
L 3366 3988 
Q 3128 4100 2886 4159 
Q 2644 4219 2406 4219 
Q 1781 4219 1451 3797 
Q 1122 3375 1075 2522 
Q 1259 2794 1537 2939 
Q 1816 3084 2150 3084 
Q 2853 3084 3261 2657 
Q 3669 2231 3669 1497 
Q 3669 778 3244 343 
Q 2819 -91 2113 -91 
Q 1303 -91 875 529 
Q 447 1150 447 2328 
Q 447 3434 972 4092 
Q 1497 4750 2381 4750 
Q 2619 4750 2861 4703 
Q 3103 4656 3366 4563 
z
" transform="scale(0.015625)"/>
       </defs>
       <use xlink:href="#DejaVuSans-30"/>
       <use xlink:href="#DejaVuSans-2e" x="63.623047"/>
       <use xlink:href="#DejaVuSans-36" x="95.410156"/>
      </g>
     </g>
    </g>
   </g>
   <g id="line2d_21">
    <path d="M 64.664707 106.934717 
L 64.778972 105.001671 
L 65.601685 90.635239 
L 65.693098 90.675518 
L 68.401194 91.86757 
L 68.412621 91.770731 
L 69.349599 75.78547 
L 69.429585 75.856188 
L 72.149109 78.253626 
L 72.160535 78.161802 
L 73.097514 62.586881 
L 73.1775 62.692538 
L 75.897023 66.268357 
L 75.908449 66.181442 
L 76.834001 51.191475 
L 76.913987 51.330822 
L 79.63351 56.039302 
L 79.644937 55.95709 
L 80.581915 41.167334 
L 80.661901 41.339735 
L 83.381424 47.156413 
L 83.392851 47.07879 
L 84.329829 32.663387 
L 84.398389 32.838396 
L 87.129338 39.746434 
L 87.140765 39.673199 
L 88.066317 25.785532 
L 88.134876 25.986164 
L 90.865826 33.894787 
L 90.877253 33.825655 
L 91.814231 20.101681 
L 91.882791 20.326915 
L 94.61374 29.193786 
L 94.625167 29.128572 
L 95.562145 15.723326 
L 95.630705 15.971678 
L 98.361654 25.736377 
L 98.373081 25.674825 
L 99.298633 12.725827 
L 99.367192 12.995389 
L 102.098142 23.581092 
L 102.109568 23.522876 
L 103.046547 10.685897 
L 103.115106 10.975397 
L 105.846056 22.330797 
L 105.868909 22.118756 
L 106.794461 9.691652 
L 106.851594 9.948152 
L 109.59397 22.058304 
L 109.616823 21.851944 
L 110.530949 9.801787 
L 110.588081 10.07186 
L 113.330458 22.808591 
L 113.353311 22.607248 
L 114.278863 10.607755 
L 114.335996 10.890288 
L 117.078372 24.200309 
L 117.101225 24.003541 
L 118.026777 12.186501 
L 118.08391 12.480117 
L 120.826286 26.29779 
L 120.849139 26.105053 
L 121.763264 14.591603 
L 121.820397 14.89469 
L 124.562774 29.143368 
L 124.5742 29.099625 
L 125.511179 17.432492 
L 125.568311 17.744004 
L 128.310688 32.374114 
L 128.322114 32.331867 
L 129.259093 20.784826 
L 129.316226 21.103495 
L 132.058602 36.055147 
L 132.070028 36.014151 
L 132.99558 24.70599 
L 133.052713 25.030353 
L 135.795089 40.234422 
L 135.806516 40.194393 
L 136.743494 28.824389 
L 136.800627 29.153547 
L 139.543003 44.567937 
L 139.55443 44.528704 
L 140.491409 33.221794 
L 140.548541 33.554659 
L 143.290918 49.128389 
L 143.302344 49.089745 
L 144.227896 37.965694 
L 144.285029 38.301007 
L 147.027405 53.975014 
L 147.038832 53.936719 
L 147.97581 42.702723 
L 148.032943 43.039782 
L 150.775319 58.781645 
L 150.786746 58.743569 
L 151.723724 47.525757 
L 151.780857 47.86369 
L 154.523233 63.632978 
L 154.53466 63.594958 
L 155.460212 52.516249 
L 155.517345 52.854031 
L 158.259721 68.602836 
L 158.271148 68.564678 
L 159.208126 57.337098 
L 159.265259 57.674244 
L 162.007635 73.380689 
L 162.019062 73.342307 
L 162.95604 62.095101 
L 163.013173 62.43097 
L 165.755549 78.065562 
L 165.766976 78.026839 
L 166.703954 66.750529 
L 166.761087 67.084551 
L 169.492037 82.558617 
L 169.503463 82.519467 
L 170.440442 71.207166 
L 170.497575 71.538932 
L 173.239951 86.95947 
L 173.251378 86.919787 
L 174.188356 75.562973 
L 174.245489 75.891973 
L 176.987865 91.172961 
L 176.999292 91.13267 
L 177.93627 79.725313 
L 177.993403 80.051187 
L 180.724353 95.115655 
L 180.735779 95.074712 
L 181.672758 83.613298 
L 181.729891 83.935839 
L 184.472267 98.896849 
L 184.483693 98.855187 
L 185.420672 87.33431 
L 185.477805 87.653198 
L 188.220181 102.435425 
L 188.231607 102.393004 
L 189.168586 90.809651 
L 189.225719 91.124709 
L 191.956668 105.661998 
L 191.968095 105.61881 
L 192.905074 93.97233 
L 192.962206 94.283526 
L 195.704583 108.692547 
L 195.761715 108.065374 
L 196.652988 96.93617 
L 196.710121 97.24334 
L 199.452497 111.458419 
L 199.50963 110.827196 
L 200.400902 99.634773 
L 200.458035 99.937889 
L 203.188984 113.902191 
L 203.246117 113.267011 
L 204.137389 102.012909 
L 204.194522 102.312075 
L 206.936898 116.143787 
L 206.994031 115.504601 
L 207.885304 104.188134 
L 207.942436 104.48331 
L 210.684813 118.124888 
L 210.741945 117.481772 
L 211.633218 106.104187 
L 211.69035 106.395458 
L 214.4213 119.79755 
L 214.478433 119.1507 
L 215.369705 107.715105 
L 215.426838 108.002673 
L 218.169214 121.28332 
L 218.226347 120.632779 
L 219.117619 109.139886 
L 219.174752 109.4238 
L 221.917128 122.531829 
L 221.974261 121.877751 
L 222.865533 110.330021 
L 222.922666 110.610441 
L 225.653616 123.50205 
L 225.710749 122.844698 
L 226.602021 111.246244 
L 226.67058 111.578825 
L 229.40153 124.315303 
L 229.458663 123.654777 
L 230.349935 112.0072 
L 230.418495 112.336032 
L 233.149444 124.926795 
L 233.218004 124.110344 
L 234.097849 112.569756 
L 234.166409 112.895084 
L 236.885932 125.299978 
L 236.954491 124.480316 
L 237.834337 112.898934 
L 237.902896 113.221117 
L 240.633846 125.554603 
L 240.702405 124.731885 
L 241.582251 113.111719 
L 241.65081 113.430912 
L 244.38176 125.649261 
L 244.450319 124.823752 
L 245.330165 113.168189 
L 245.398725 113.484658 
L 248.118248 125.549738 
L 248.186807 124.721803 
L 249.066653 113.035536 
L 249.135212 113.349646 
L 251.866162 125.373343 
L 251.934721 124.543144 
L 252.814567 112.828247 
L 252.883126 113.140159 
L 255.614076 125.080172 
L 255.682635 124.247969 
L 256.562481 112.507766 
L 256.63104 112.817738 
L 259.350563 124.636575 
L 259.419123 123.80272 
L 260.298969 112.041717 
L 260.367528 112.3501 
L 263.098478 124.156968 
L 263.167037 123.321607 
L 264.046883 111.541673 
L 264.115442 111.848611 
L 266.846392 123.601443 
L 266.914951 122.764813 
L 267.794797 110.968965 
L 267.863356 111.274692 
L 270.582879 122.935567 
L 270.651439 122.09799 
L 271.531284 110.290339 
L 271.599844 110.595174 
L 274.330793 122.270751 
L 274.399353 121.432343 
L 275.279198 109.614367 
L 275.347758 109.918424 
L 278.078707 121.565973 
L 278.147267 120.726935 
L 279.027113 108.90119 
L 279.095672 109.204665 
L 281.815195 120.785081 
L 281.883754 119.945695 
L 282.7636 108.115773 
L 282.83216 108.418945 
L 285.563109 120.036633 
L 285.631669 119.196977 
L 286.511514 107.363859 
L 286.580074 107.666803 
L 289.311023 119.277758 
L 289.379583 118.437991 
L 290.259428 106.603693 
L 290.327988 106.906564 
L 293.047511 118.470028 
L 293.11607 117.630387 
L 293.995916 105.797933 
L 294.064475 106.100964 
L 296.795425 117.719484 
L 296.863984 116.880006 
L 297.74383 105.049839 
L 297.81239 105.353064 
L 300.543339 116.981006 
L 300.611899 116.141806 
L 301.491744 104.315387 
L 301.560304 104.618917 
L 304.279827 116.213655 
L 304.348386 115.374927 
L 305.228232 103.554717 
L 305.296791 103.858743 
L 308.027741 115.5214 
L 308.0963 114.68314 
L 308.976146 102.869057 
L 309.044705 103.17357 
L 311.775655 114.856753 
L 311.844214 114.019035 
L 312.72406 102.212016 
L 312.792619 102.517088 
L 315.512143 114.176285 
L 315.580702 113.339262 
L 316.460548 101.541256 
L 316.529107 101.847037 
L 319.260057 113.582382 
L 319.328616 112.746013 
L 320.208462 100.956463 
L 320.277021 101.262908 
L 323.007971 113.025283 
L 323.07653 112.189606 
L 323.956376 100.408989 
L 324.024935 100.716134 
L 326.744458 112.459283 
L 326.813018 111.624417 
L 327.692863 99.854243 
L 327.761423 100.162205 
L 330.492372 111.985666 
L 330.560932 111.151537 
L 331.440778 99.39085 
L 331.509337 99.699552 
L 334.240287 111.552647 
L 334.308846 110.719265 
L 335.188692 98.968164 
L 335.257251 99.277614 
L 337.976774 111.112576 
L 338.045334 110.280032 
L 338.925179 98.539681 
L 338.993739 98.849968 
L 341.724688 110.76608 
L 341.793248 109.934276 
L 342.673093 98.203403 
L 342.741653 98.514427 
L 345.472602 110.459692 
L 345.541162 109.628614 
L 346.421008 97.907033 
L 346.489567 98.218778 
L 349.20909 110.144212 
L 349.277649 109.313932 
L 350.157495 97.602552 
L 350.226055 97.91509 
L 352.957004 109.91999 
L 353.025564 109.090392 
L 353.905409 97.387714 
L 353.973969 97.700926 
L 356.704918 109.732258 
L 356.773478 108.903312 
L 357.653323 97.208954 
L 357.721883 97.52281 
L 360.441406 109.530681 
L 360.509965 108.702446 
L 361.389811 97.017153 
L 361.45837 97.331711 
L 364.18932 109.415634 
L 364.257879 108.587981 
L 365.137725 96.910109 
L 365.206284 97.22524 
L 367.937234 109.33143 
L 368.005794 108.504322 
L 368.885639 96.833372 
L 368.954199 97.149038 
L 371.673722 109.226995 
L 371.742281 108.400483 
L 372.622127 96.737115 
L 372.690686 97.053367 
L 375.421636 109.202947 
L 375.490195 108.376898 
L 376.370041 96.719395 
L 376.4386 97.036098 
L 379.16955 109.203039 
L 379.238109 108.377409 
L 380.117955 96.725227 
L 380.186514 97.042339 
L 382.906037 109.175803 
L 382.974597 108.350643 
L 383.854443 96.704419 
L 383.923002 97.021991 
L 386.653952 109.222246 
L 386.722511 108.397421 
L 387.602357 96.755426 
L 387.670916 97.073322 
L 390.401866 109.285865 
L 390.470425 108.461333 
L 391.350271 96.82303 
L 391.41883 97.141208 
L 394.138353 109.315088 
L 394.206913 108.490901 
L 395.086758 96.856956 
L 395.155318 97.175469 
L 397.886267 109.411387 
L 397.954827 108.587412 
L 398.834673 96.956127 
L 398.903232 97.274842 
L 401.634182 109.518248 
L 401.702741 108.694447 
L 402.582587 97.065332 
L 402.651146 97.384211 
L 405.370669 109.584218 
L 405.439229 108.760647 
L 406.319074 97.134431 
L 406.387634 97.453532 
L 409.118583 109.71125 
L 409.187143 108.887781 
L 410.066988 97.262828 
L 410.135548 97.582023 
L 412.866497 109.843004 
L 412.935057 109.019605 
L 413.814903 97.395499 
L 413.883462 97.714756 
L 416.602985 109.928297 
L 416.671544 109.105032 
L 417.55139 97.482583 
L 417.619949 97.801966 
L 420.350899 110.069546 
L 420.419458 109.246292 
L 421.299304 97.623944 
L 421.367864 97.943331 
L 424.098813 110.210703 
L 424.167373 109.387434 
L 425.047218 97.764858 
L 425.115778 98.084224 
L 427.835301 110.300948 
L 427.90386 109.477735 
L 428.783706 97.855834 
L 428.852265 98.17525 
L 431.583215 110.443108 
L 431.651774 109.619835 
L 432.53162 97.997138 
L 432.600179 98.316489 
L 435.331129 110.581494 
L 435.399688 109.758142 
L 436.279534 98.13441 
L 436.348094 98.453678 
L 439.067617 110.665691 
L 439.079043 110.61328 
L 439.079043 110.61328 
" clip-path="url(#p8f03fba6cd)" style="fill: none; stroke: #1f77b4; stroke-width: 1.5; stroke-linecap: square"/>
   </g>
   <g id="line2d_22">
    <path d="M 64.664707 106.934717 
L 77.942378 106.823698 
L 99.138661 106.408511 
L 143.188078 105.443392 
L 173.251378 105.09746 
L 210.136337 105.029682 
L 353.87113 105.318697 
L 428.349496 105.280563 
L 439.079043 105.27744 
L 439.079043 105.27744 
" clip-path="url(#p8f03fba6cd)" style="fill: none; stroke: #ff7f0e; stroke-width: 1.5; stroke-linecap: square"/>
   </g>
   <g id="patch_3">
    <path d="M 45.94399 131.447142 
L 45.94399 3.893771 
" style="fill: none; stroke: #000000; stroke-width: 0.8; stroke-linejoin: miter; stroke-linecap: square"/>
   </g>
   <g id="patch_4">
    <path d="M 457.79976 131.447142 
L 457.79976 3.893771 
" style="fill: none; stroke: #000000; stroke-width: 0.8; stroke-linejoin: miter; stroke-linecap: square"/>
   </g>
   <g id="patch_5">
    <path d="M 45.94399 131.447142 
L 457.79976 131.447142 
" style="fill: none; stroke: #000000; stroke-width: 0.8; stroke-linejoin: miter; stroke-linecap: square"/>
   </g>
   <g id="patch_6">
    <path d="M 45.94399 3.893771 
L 457.79976 3.893771 
" style="fill: none; stroke: #000000; stroke-width: 0.8; stroke-linejoin: miter; stroke-linecap: square"/>
   </g>
   <g id="legend_1">
    <g id="patch_7">
     <path d="M 409.73101 41.250021 
L 450.79976 41.250021 
Q 452.79976 41.250021 452.79976 39.250021 
L 452.79976 10.893771 
Q 452.79976 8.893771 450.79976 8.893771 
L 409.73101 8.893771 
Q 407.73101 8.893771 407.73101 10.893771 
L 407.73101 39.250021 
Q 407.73101 41.250021 409.73101 41.250021 
z
" style="fill: #ffffff; opacity: 0.8; stroke: #cccccc; stroke-linejoin: miter"/>
    </g>
    <g id="line2d_23">
     <path d="M 411.73101 16.992209 
L 421.73101 16.992209 
L 431.73101 16.992209 
" style="fill: none; stroke: #1f77b4; stroke-width: 1.5; stroke-linecap: square"/>
    </g>
    <g id="text_5">
     <!-- Ix -->
     <g transform="translate(439.73101 20.492209)scale(0.1 -0.1)">
      <defs>
       <path id="DejaVuSans-49" d="M 628 4666 
L 1259 4666 
L 1259 0 
L 628 0 
L 628 4666 
z
" transform="scale(0.015625)"/>
       <path id="DejaVuSans-78" d="M 3513 3500 
L 2247 1797 
L 3578 0 
L 2900 0 
L 1881 1375 
L 863 0 
L 184 0 
L 1544 1831 
L 300 3500 
L 978 3500 
L 1906 2253 
L 2834 3500 
L 3513 3500 
z
" transform="scale(0.015625)"/>
      </defs>
      <use xlink:href="#DejaVuSans-49"/>
      <use xlink:href="#DejaVuSans-78" x="29.492188"/>
     </g>
    </g>
    <g id="line2d_24">
     <path d="M 411.73101 31.670334 
L 421.73101 31.670334 
L 431.73101 31.670334 
" style="fill: none; stroke: #ff7f0e; stroke-width: 1.5; stroke-linecap: square"/>
    </g>
    <g id="text_6">
     <!-- Io -->
     <g transform="translate(439.73101 35.170334)scale(0.1 -0.1)">
      <defs>
       <path id="DejaVuSans-6f" d="M 1959 3097 
Q 1497 3097 1228 2736 
Q 959 2375 959 1747 
Q 959 1119 1226 758 
Q 1494 397 1959 397 
Q 2419 397 2687 759 
Q 2956 1122 2956 1747 
Q 2956 2369 2687 2733 
Q 2419 3097 1959 3097 
z
M 1959 3584 
Q 2709 3584 3137 3096 
Q 3566 2609 3566 1747 
Q 3566 888 3137 398 
Q 2709 -91 1959 -91 
Q 1206 -91 779 398 
Q 353 888 353 1747 
Q 353 2609 779 3096 
Q 1206 3584 1959 3584 
z
" transform="scale(0.015625)"/>
      </defs>
      <use xlink:href="#DejaVuSans-49"/>
      <use xlink:href="#DejaVuSans-6f" x="29.492188"/>
     </g>
    </g>
   </g>
  </g>
  <g id="axes_2">
   <g id="patch_8">
    <path d="M 45.94399 268.500992 
L 457.79976 268.500992 
L 457.79976 140.947622 
L 45.94399 140.947622 
z
" style="fill: #ffffff"/>
   </g>
   <g id="matplotlib.axis_3">
    <g id="xtick_7">
     <g id="line2d_25">
      <path d="M 64.664707 268.500992 
L 64.664707 140.947622 
" clip-path="url(#p759907a305)" style="fill: none; stroke: #b0b0b0; stroke-width: 0.8; stroke-linecap: square"/>
     </g>
     <g id="line2d_26">
      <g>
       <use xlink:href="#m92e720d8c9" x="64.664707" y="268.500992" style="stroke: #000000; stroke-width: 0.8"/>
      </g>
     </g>
    </g>
    <g id="xtick_8">
     <g id="line2d_27">
      <path d="M 139.547574 268.500992 
L 139.547574 140.947622 
" clip-path="url(#p759907a305)" style="fill: none; stroke: #b0b0b0; stroke-width: 0.8; stroke-linecap: square"/>
     </g>
     <g id="line2d_28">
      <g>
       <use xlink:href="#m92e720d8c9" x="139.547574" y="268.500992" style="stroke: #000000; stroke-width: 0.8"/>
      </g>
     </g>
    </g>
    <g id="xtick_9">
     <g id="line2d_29">
      <path d="M 214.430441 268.500992 
L 214.430441 140.947622 
" clip-path="url(#p759907a305)" style="fill: none; stroke: #b0b0b0; stroke-width: 0.8; stroke-linecap: square"/>
     </g>
     <g id="line2d_30">
      <g>
       <use xlink:href="#m92e720d8c9" x="214.430441" y="268.500992" style="stroke: #000000; stroke-width: 0.8"/>
      </g>
     </g>
    </g>
    <g id="xtick_10">
     <g id="line2d_31">
      <path d="M 289.313309 268.500992 
L 289.313309 140.947622 
" clip-path="url(#p759907a305)" style="fill: none; stroke: #b0b0b0; stroke-width: 0.8; stroke-linecap: square"/>
     </g>
     <g id="line2d_32">
      <g>
       <use xlink:href="#m92e720d8c9" x="289.313309" y="268.500992" style="stroke: #000000; stroke-width: 0.8"/>
      </g>
     </g>
    </g>
    <g id="xtick_11">
     <g id="line2d_33">
      <path d="M 364.196176 268.500992 
L 364.196176 140.947622 
" clip-path="url(#p759907a305)" style="fill: none; stroke: #b0b0b0; stroke-width: 0.8; stroke-linecap: square"/>
     </g>
     <g id="line2d_34">
      <g>
       <use xlink:href="#m92e720d8c9" x="364.196176" y="268.500992" style="stroke: #000000; stroke-width: 0.8"/>
      </g>
     </g>
    </g>
    <g id="xtick_12">
     <g id="line2d_35">
      <path d="M 439.079043 268.500992 
L 439.079043 140.947622 
" clip-path="url(#p759907a305)" style="fill: none; stroke: #b0b0b0; stroke-width: 0.8; stroke-linecap: square"/>
     </g>
     <g id="line2d_36">
      <g>
       <use xlink:href="#m92e720d8c9" x="439.079043" y="268.500992" style="stroke: #000000; stroke-width: 0.8"/>
      </g>
     </g>
    </g>
   </g>
   <g id="matplotlib.axis_4">
    <g id="ytick_5">
     <g id="line2d_37">
      <path d="M 45.94399 262.703111 
L 457.79976 262.703111 
" clip-path="url(#p759907a305)" style="fill: none; stroke: #b0b0b0; stroke-width: 0.8; stroke-linecap: square"/>
     </g>
     <g id="line2d_38">
      <g>
       <use xlink:href="#mf46ce8c2bd" x="45.94399" y="262.703111" style="stroke: #000000; stroke-width: 0.8"/>
      </g>
     </g>
     <g id="text_7">
      <!-- 0.00 -->
      <g transform="translate(16.678365 266.50233)scale(0.1 -0.1)">
       <use xlink:href="#DejaVuSans-30"/>
       <use xlink:href="#DejaVuSans-2e" x="63.623047"/>
       <use xlink:href="#DejaVuSans-30" x="95.410156"/>
       <use xlink:href="#DejaVuSans-30" x="159.033203"/>
      </g>
     </g>
    </g>
    <g id="ytick_6">
     <g id="line2d_39">
      <path d="M 45.94399 237.449451 
L 457.79976 237.449451 
" clip-path="url(#p759907a305)" style="fill: none; stroke: #b0b0b0; stroke-width: 0.8; stroke-linecap: square"/>
     </g>
     <g id="line2d_40">
      <g>
       <use xlink:href="#mf46ce8c2bd" x="45.94399" y="237.449451" style="stroke: #000000; stroke-width: 0.8"/>
      </g>
     </g>
     <g id="text_8">
      <!-- 0.25 -->
      <g transform="translate(16.678365 241.24867)scale(0.1 -0.1)">
       <defs>
        <path id="DejaVuSans-35" d="M 691 4666 
L 3169 4666 
L 3169 4134 
L 1269 4134 
L 1269 2991 
Q 1406 3038 1543 3061 
Q 1681 3084 1819 3084 
Q 2600 3084 3056 2656 
Q 3513 2228 3513 1497 
Q 3513 744 3044 326 
Q 2575 -91 1722 -91 
Q 1428 -91 1123 -41 
Q 819 9 494 109 
L 494 744 
Q 775 591 1075 516 
Q 1375 441 1709 441 
Q 2250 441 2565 725 
Q 2881 1009 2881 1497 
Q 2881 1984 2565 2268 
Q 2250 2553 1709 2553 
Q 1456 2553 1204 2497 
Q 953 2441 691 2322 
L 691 4666 
z
" transform="scale(0.015625)"/>
       </defs>
       <use xlink:href="#DejaVuSans-30"/>
       <use xlink:href="#DejaVuSans-2e" x="63.623047"/>
       <use xlink:href="#DejaVuSans-32" x="95.410156"/>
       <use xlink:href="#DejaVuSans-35" x="159.033203"/>
      </g>
     </g>
    </g>
    <g id="ytick_7">
     <g id="line2d_41">
      <path d="M 45.94399 212.195791 
L 457.79976 212.195791 
" clip-path="url(#p759907a305)" style="fill: none; stroke: #b0b0b0; stroke-width: 0.8; stroke-linecap: square"/>
     </g>
     <g id="line2d_42">
      <g>
       <use xlink:href="#mf46ce8c2bd" x="45.94399" y="212.195791" style="stroke: #000000; stroke-width: 0.8"/>
      </g>
     </g>
     <g id="text_9">
      <!-- 0.50 -->
      <g transform="translate(16.678365 215.995009)scale(0.1 -0.1)">
       <use xlink:href="#DejaVuSans-30"/>
       <use xlink:href="#DejaVuSans-2e" x="63.623047"/>
       <use xlink:href="#DejaVuSans-35" x="95.410156"/>
       <use xlink:href="#DejaVuSans-30" x="159.033203"/>
      </g>
     </g>
    </g>
    <g id="ytick_8">
     <g id="line2d_43">
      <path d="M 45.94399 186.94213 
L 457.79976 186.94213 
" clip-path="url(#p759907a305)" style="fill: none; stroke: #b0b0b0; stroke-width: 0.8; stroke-linecap: square"/>
     </g>
     <g id="line2d_44">
      <g>
       <use xlink:href="#mf46ce8c2bd" x="45.94399" y="186.94213" style="stroke: #000000; stroke-width: 0.8"/>
      </g>
     </g>
     <g id="text_10">
      <!-- 0.75 -->
      <g transform="translate(16.678365 190.741349)scale(0.1 -0.1)">
       <defs>
        <path id="DejaVuSans-37" d="M 525 4666 
L 3525 4666 
L 3525 4397 
L 1831 0 
L 1172 0 
L 2766 4134 
L 525 4134 
L 525 4666 
z
" transform="scale(0.015625)"/>
       </defs>
       <use xlink:href="#DejaVuSans-30"/>
       <use xlink:href="#DejaVuSans-2e" x="63.623047"/>
       <use xlink:href="#DejaVuSans-37" x="95.410156"/>
       <use xlink:href="#DejaVuSans-35" x="159.033203"/>
      </g>
     </g>
    </g>
    <g id="ytick_9">
     <g id="line2d_45">
      <path d="M 45.94399 161.68847 
L 457.79976 161.68847 
" clip-path="url(#p759907a305)" style="fill: none; stroke: #b0b0b0; stroke-width: 0.8; stroke-linecap: square"/>
     </g>
     <g id="line2d_46">
      <g>
       <use xlink:href="#mf46ce8c2bd" x="45.94399" y="161.68847" style="stroke: #000000; stroke-width: 0.8"/>
      </g>
     </g>
     <g id="text_11">
      <!-- 1.00 -->
      <g transform="translate(16.678365 165.487689)scale(0.1 -0.1)">
       <defs>
        <path id="DejaVuSans-31" d="M 794 531 
L 1825 531 
L 1825 4091 
L 703 3866 
L 703 4441 
L 1819 4666 
L 2450 4666 
L 2450 531 
L 3481 531 
L 3481 0 
L 794 0 
L 794 531 
z
" transform="scale(0.015625)"/>
       </defs>
       <use xlink:href="#DejaVuSans-31"/>
       <use xlink:href="#DejaVuSans-2e" x="63.623047"/>
       <use xlink:href="#DejaVuSans-30" x="95.410156"/>
       <use xlink:href="#DejaVuSans-30" x="159.033203"/>
      </g>
     </g>
    </g>
    <g id="text_12">
     <!-- vo -->
     <g transform="translate(10.598677 210.743057)rotate(-90)scale(0.1 -0.1)">
      <defs>
       <path id="DejaVuSans-76" d="M 191 3500 
L 800 3500 
L 1894 563 
L 2988 3500 
L 3597 3500 
L 2284 0 
L 1503 0 
L 191 3500 
z
" transform="scale(0.015625)"/>
      </defs>
      <use xlink:href="#DejaVuSans-76"/>
      <use xlink:href="#DejaVuSans-6f" x="59.179688"/>
     </g>
    </g>
   </g>
   <g id="line2d_47">
    <path d="M 64.664707 262.703111 
L 65.544553 262.593819 
L 69.303893 261.537864 
L 73.383178 259.399183 
L 77.611008 256.262328 
L 81.438908 252.756031 
L 85.586752 248.322179 
L 89.357519 243.836176 
L 93.676762 238.277924 
L 96.636243 234.252333 
L 106.725902 219.89575 
L 109.342586 216.047058 
L 111.285102 213.183181 
L 113.707534 209.751415 
L 124.151417 195.051248 
L 126.825234 191.467707 
L 131.247315 185.845446 
L 138.651731 177.167919 
L 144.94777 170.627626 
L 146.798874 168.893822 
L 148.569992 167.241447 
L 150.386816 165.657801 
L 152.626423 163.753828 
L 154.397541 162.397093 
L 155.860142 161.263019 
L 157.608407 159.982419 
L 164.829997 155.414544 
L 169.572023 153.068365 
L 170.726106 152.51192 
L 172.371532 151.778895 
L 177.387795 150.040854 
L 183.192491 148.390081 
L 187.443174 147.611941 
L 195.418918 146.865587 
L 196.938652 146.811172 
L 198.561224 146.751386 
L 206.891192 147.126448 
L 208.010996 147.211953 
L 209.656421 147.318023 
L 218.340613 148.570759 
L 219.460416 148.711409 
L 221.151548 148.981665 
L 223.779659 149.460707 
L 225.493644 149.841321 
L 226.77342 150.094528 
L 228.475978 150.398664 
L 234.269248 151.695275 
L 235.994659 152.038139 
L 238.976994 152.707653 
L 240.770965 153.200596 
L 241.856489 153.412784 
L 243.604753 153.7867 
L 246.095745 154.362653 
L 247.866863 154.805232 
L 249.272331 155.130071 
L 251.032022 155.49313 
L 253.648706 156.083528 
L 255.442677 156.528089 
L 256.722453 156.81039 
L 258.493571 157.153033 
L 261.144535 157.717889 
L 262.938506 158.137786 
L 264.195428 158.39533 
L 265.966546 158.706853 
L 268.651789 159.232679 
L 270.457187 159.623448 
L 271.656977 159.843801 
L 273.439521 160.117566 
L 276.136191 160.586603 
L 277.941589 160.936016 
L 279.152805 161.132108 
L 280.935349 161.364682 
L 283.586313 161.762011 
L 285.391711 162.062313 
L 286.648633 162.236342 
L 288.431178 162.42531 
L 291.070715 162.756318 
L 292.876112 163.010444 
L 294.133035 163.152331 
L 295.915579 163.295803 
L 298.555116 163.559819 
L 300.349088 163.766502 
L 301.64029 163.881916 
L 303.422834 163.983976 
L 305.993812 164.179529 
L 307.787783 164.337552 
L 309.147544 164.428679 
L 310.918662 164.490987 
L 313.501067 164.630137 
L 315.295038 164.75118 
L 316.62052 164.810407 
L 318.391638 164.833671 
L 321.019748 164.92015 
L 322.802293 165.008617 
L 324.104921 165.0428 
L 325.876039 165.032714 
L 328.515576 165.071431 
L 330.298121 165.130577 
L 331.589323 165.141964 
L 333.360441 165.103359 
L 336.045684 165.102794 
L 337.828229 165.141733 
L 339.050872 165.133643 
L 340.810563 165.068183 
L 343.644352 165.029299 
L 345.41547 165.060741 
L 346.51242 165.036856 
L 348.272111 164.949728 
L 351.220166 164.878647 
L 352.991284 164.905363 
L 354.008248 164.864154 
L 355.76794 164.764373 
L 358.738847 164.673102 
L 360.521392 164.692715 
L 361.549783 164.635616 
L 363.298048 164.533166 
L 366.097557 164.434888 
L 367.868675 164.431303 
L 368.977052 164.388791 
L 370.725317 164.273029 
L 373.799063 164.153722 
L 375.604461 164.171467 
L 376.689985 164.086339 
L 378.43825 163.996944 
L 380.757843 163.914552 
L 382.517534 163.866417 
L 384.12868 163.813548 
L 385.876945 163.718468 
L 388.32223 163.630625 
L 390.070495 163.593628 
L 391.578802 163.547 
L 393.327067 163.449848 
L 395.886618 163.359932 
L 397.634883 163.336397 
L 399.017498 163.294779 
L 400.754336 163.195825 
L 403.553845 163.103685 
L 405.313536 163.10868 
L 406.410487 163.07079 
L 408.147325 162.965457 
L 411.472456 162.864837 
L 424.430184 162.648153 
L 425.721386 162.548031 
L 427.469651 162.535201 
L 429.046517 162.512399 
L 430.783355 162.449529 
L 433.308627 162.408244 
L 435.056891 162.415021 
L 436.485212 162.39921 
L 438.222051 162.336878 
L 439.079043 162.386325 
L 439.079043 162.386325 
" clip-path="url(#p759907a305)" style="fill: none; stroke: #1f77b4; stroke-width: 1.5; stroke-linecap: square"/>
   </g>
   <g id="patch_9">
    <path d="M 45.94399 268.500992 
L 45.94399 140.947622 
" style="fill: none; stroke: #000000; stroke-width: 0.8; stroke-linejoin: miter; stroke-linecap: square"/>
   </g>
   <g id="patch_10">
    <path d="M 457.79976 268.500992 
L 457.79976 140.947622 
" style="fill: none; stroke: #000000; stroke-width: 0.8; stroke-linejoin: miter; stroke-linecap: square"/>
   </g>
   <g id="patch_11">
    <path d="M 45.94399 268.500992 
L 457.79976 268.500992 
" style="fill: none; stroke: #000000; stroke-width: 0.8; stroke-linejoin: miter; stroke-linecap: square"/>
   </g>
   <g id="patch_12">
    <path d="M 45.94399 140.947622 
L 457.79976 140.947622 
" style="fill: none; stroke: #000000; stroke-width: 0.8; stroke-linejoin: miter; stroke-linecap: square"/>
   </g>
  </g>
  <g id="axes_3">
   <g id="patch_13">
    <path d="M 45.94399 312.24351 
L 457.79976 312.24351 
L 457.79976 280.355167 
L 45.94399 280.355167 
z
" style="fill: #ffffff"/>
   </g>
   <g id="matplotlib.axis_5">
    <g id="xtick_13">
     <g id="line2d_48">
      <g>
       <use xlink:href="#m92e720d8c9" x="64.664707" y="312.24351" style="stroke: #000000; stroke-width: 0.8"/>
      </g>
     </g>
     <g id="text_13">
      <!-- 0 -->
      <g transform="translate(61.483457 326.841947)scale(0.1 -0.1)">
       <use xlink:href="#DejaVuSans-30"/>
      </g>
     </g>
    </g>
    <g id="xtick_14">
     <g id="line2d_49">
      <g>
       <use xlink:href="#m92e720d8c9" x="139.547574" y="312.24351" style="stroke: #000000; stroke-width: 0.8"/>
      </g>
     </g>
     <g id="text_14">
      <!-- 2 -->
      <g transform="translate(136.366324 326.841947)scale(0.1 -0.1)">
       <use xlink:href="#DejaVuSans-32"/>
      </g>
     </g>
    </g>
    <g id="xtick_15">
     <g id="line2d_50">
      <g>
       <use xlink:href="#m92e720d8c9" x="214.430441" y="312.24351" style="stroke: #000000; stroke-width: 0.8"/>
      </g>
     </g>
     <g id="text_15">
      <!-- 4 -->
      <g transform="translate(211.249191 326.841947)scale(0.1 -0.1)">
       <use xlink:href="#DejaVuSans-34"/>
      </g>
     </g>
    </g>
    <g id="xtick_16">
     <g id="line2d_51">
      <g>
       <use xlink:href="#m92e720d8c9" x="289.313309" y="312.24351" style="stroke: #000000; stroke-width: 0.8"/>
      </g>
     </g>
     <g id="text_16">
      <!-- 6 -->
      <g transform="translate(286.132059 326.841947)scale(0.1 -0.1)">
       <use xlink:href="#DejaVuSans-36"/>
      </g>
     </g>
    </g>
    <g id="xtick_17">
     <g id="line2d_52">
      <g>
       <use xlink:href="#m92e720d8c9" x="364.196176" y="312.24351" style="stroke: #000000; stroke-width: 0.8"/>
      </g>
     </g>
     <g id="text_17">
      <!-- 8 -->
      <g transform="translate(361.014926 326.841947)scale(0.1 -0.1)">
       <defs>
        <path id="DejaVuSans-38" d="M 2034 2216 
Q 1584 2216 1326 1975 
Q 1069 1734 1069 1313 
Q 1069 891 1326 650 
Q 1584 409 2034 409 
Q 2484 409 2743 651 
Q 3003 894 3003 1313 
Q 3003 1734 2745 1975 
Q 2488 2216 2034 2216 
z
M 1403 2484 
Q 997 2584 770 2862 
Q 544 3141 544 3541 
Q 544 4100 942 4425 
Q 1341 4750 2034 4750 
Q 2731 4750 3128 4425 
Q 3525 4100 3525 3541 
Q 3525 3141 3298 2862 
Q 3072 2584 2669 2484 
Q 3125 2378 3379 2068 
Q 3634 1759 3634 1313 
Q 3634 634 3220 271 
Q 2806 -91 2034 -91 
Q 1263 -91 848 271 
Q 434 634 434 1313 
Q 434 1759 690 2068 
Q 947 2378 1403 2484 
z
M 1172 3481 
Q 1172 3119 1398 2916 
Q 1625 2713 2034 2713 
Q 2441 2713 2670 2916 
Q 2900 3119 2900 3481 
Q 2900 3844 2670 4047 
Q 2441 4250 2034 4250 
Q 1625 4250 1398 4047 
Q 1172 3844 1172 3481 
z
" transform="scale(0.015625)"/>
       </defs>
       <use xlink:href="#DejaVuSans-38"/>
      </g>
     </g>
    </g>
    <g id="xtick_18">
     <g id="line2d_53">
      <g>
       <use xlink:href="#m92e720d8c9" x="439.079043" y="312.24351" style="stroke: #000000; stroke-width: 0.8"/>
      </g>
     </g>
     <g id="text_18">
      <!-- 10 -->
      <g transform="translate(432.716543 326.841947)scale(0.1 -0.1)">
       <use xlink:href="#DejaVuSans-31"/>
       <use xlink:href="#DejaVuSans-30" x="63.623047"/>
      </g>
     </g>
    </g>
    <g id="text_19">
     <!-- Time [us] -->
     <g transform="translate(228.374219 340.520072)scale(0.1 -0.1)">
      <defs>
       <path id="DejaVuSans-54" d="M -19 4666 
L 3928 4666 
L 3928 4134 
L 2272 4134 
L 2272 0 
L 1638 0 
L 1638 4134 
L -19 4134 
L -19 4666 
z
" transform="scale(0.015625)"/>
       <path id="DejaVuSans-69" d="M 603 3500 
L 1178 3500 
L 1178 0 
L 603 0 
L 603 3500 
z
M 603 4863 
L 1178 4863 
L 1178 4134 
L 603 4134 
L 603 4863 
z
" transform="scale(0.015625)"/>
       <path id="DejaVuSans-6d" d="M 3328 2828 
Q 3544 3216 3844 3400 
Q 4144 3584 4550 3584 
Q 5097 3584 5394 3201 
Q 5691 2819 5691 2113 
L 5691 0 
L 5113 0 
L 5113 2094 
Q 5113 2597 4934 2840 
Q 4756 3084 4391 3084 
Q 3944 3084 3684 2787 
Q 3425 2491 3425 1978 
L 3425 0 
L 2847 0 
L 2847 2094 
Q 2847 2600 2669 2842 
Q 2491 3084 2119 3084 
Q 1678 3084 1418 2786 
Q 1159 2488 1159 1978 
L 1159 0 
L 581 0 
L 581 3500 
L 1159 3500 
L 1159 2956 
Q 1356 3278 1631 3431 
Q 1906 3584 2284 3584 
Q 2666 3584 2933 3390 
Q 3200 3197 3328 2828 
z
" transform="scale(0.015625)"/>
       <path id="DejaVuSans-65" d="M 3597 1894 
L 3597 1613 
L 953 1613 
Q 991 1019 1311 708 
Q 1631 397 2203 397 
Q 2534 397 2845 478 
Q 3156 559 3463 722 
L 3463 178 
Q 3153 47 2828 -22 
Q 2503 -91 2169 -91 
Q 1331 -91 842 396 
Q 353 884 353 1716 
Q 353 2575 817 3079 
Q 1281 3584 2069 3584 
Q 2775 3584 3186 3129 
Q 3597 2675 3597 1894 
z
M 3022 2063 
Q 3016 2534 2758 2815 
Q 2500 3097 2075 3097 
Q 1594 3097 1305 2825 
Q 1016 2553 972 2059 
L 3022 2063 
z
" transform="scale(0.015625)"/>
       <path id="DejaVuSans-20" transform="scale(0.015625)"/>
       <path id="DejaVuSans-5b" d="M 550 4863 
L 1875 4863 
L 1875 4416 
L 1125 4416 
L 1125 -397 
L 1875 -397 
L 1875 -844 
L 550 -844 
L 550 4863 
z
" transform="scale(0.015625)"/>
       <path id="DejaVuSans-75" d="M 544 1381 
L 544 3500 
L 1119 3500 
L 1119 1403 
Q 1119 906 1312 657 
Q 1506 409 1894 409 
Q 2359 409 2629 706 
Q 2900 1003 2900 1516 
L 2900 3500 
L 3475 3500 
L 3475 0 
L 2900 0 
L 2900 538 
Q 2691 219 2414 64 
Q 2138 -91 1772 -91 
Q 1169 -91 856 284 
Q 544 659 544 1381 
z
M 1991 3584 
L 1991 3584 
z
" transform="scale(0.015625)"/>
       <path id="DejaVuSans-73" d="M 2834 3397 
L 2834 2853 
Q 2591 2978 2328 3040 
Q 2066 3103 1784 3103 
Q 1356 3103 1142 2972 
Q 928 2841 928 2578 
Q 928 2378 1081 2264 
Q 1234 2150 1697 2047 
L 1894 2003 
Q 2506 1872 2764 1633 
Q 3022 1394 3022 966 
Q 3022 478 2636 193 
Q 2250 -91 1575 -91 
Q 1294 -91 989 -36 
Q 684 19 347 128 
L 347 722 
Q 666 556 975 473 
Q 1284 391 1588 391 
Q 1994 391 2212 530 
Q 2431 669 2431 922 
Q 2431 1156 2273 1281 
Q 2116 1406 1581 1522 
L 1381 1569 
Q 847 1681 609 1914 
Q 372 2147 372 2553 
Q 372 3047 722 3315 
Q 1072 3584 1716 3584 
Q 2034 3584 2315 3537 
Q 2597 3491 2834 3397 
z
" transform="scale(0.015625)"/>
       <path id="DejaVuSans-5d" d="M 1947 4863 
L 1947 -844 
L 622 -844 
L 622 -397 
L 1369 -397 
L 1369 4416 
L 622 4416 
L 622 4863 
L 1947 4863 
z
" transform="scale(0.015625)"/>
      </defs>
      <use xlink:href="#DejaVuSans-54"/>
      <use xlink:href="#DejaVuSans-69" x="57.958984"/>
      <use xlink:href="#DejaVuSans-6d" x="85.742188"/>
      <use xlink:href="#DejaVuSans-65" x="183.154297"/>
      <use xlink:href="#DejaVuSans-20" x="244.677734"/>
      <use xlink:href="#DejaVuSans-5b" x="276.464844"/>
      <use xlink:href="#DejaVuSans-75" x="315.478516"/>
      <use xlink:href="#DejaVuSans-73" x="378.857422"/>
      <use xlink:href="#DejaVuSans-5d" x="430.957031"/>
     </g>
    </g>
   </g>
   <g id="matplotlib.axis_6">
    <g id="ytick_10">
     <g id="line2d_54">
      <g>
       <use xlink:href="#mf46ce8c2bd" x="45.94399" y="310.79404" style="stroke: #000000; stroke-width: 0.8"/>
      </g>
     </g>
     <g id="text_20">
      <!-- 0 -->
      <g transform="translate(32.58149 314.593259)scale(0.1 -0.1)">
       <use xlink:href="#DejaVuSans-30"/>
      </g>
     </g>
    </g>
    <g id="ytick_11">
     <g id="line2d_55">
      <g>
       <use xlink:href="#mf46ce8c2bd" x="45.94399" y="281.804638" style="stroke: #000000; stroke-width: 0.8"/>
      </g>
     </g>
     <g id="text_21">
      <!-- 1 -->
      <g transform="translate(32.58149 285.603856)scale(0.1 -0.1)">
       <use xlink:href="#DejaVuSans-31"/>
      </g>
     </g>
    </g>
    <g id="text_22">
     <!-- A -->
     <g transform="translate(26.501803 299.719651)rotate(-90)scale(0.1 -0.1)">
      <defs>
       <path id="DejaVuSans-41" d="M 2188 4044 
L 1331 1722 
L 3047 1722 
L 2188 4044 
z
M 1831 4666 
L 2547 4666 
L 4325 0 
L 3669 0 
L 3244 1197 
L 1141 1197 
L 716 0 
L 50 0 
L 1831 4666 
z
" transform="scale(0.015625)"/>
      </defs>
      <use xlink:href="#DejaVuSans-41"/>
     </g>
    </g>
   </g>
   <g id="line2d_56">
    <path d="M 64.664707 310.79404 
L 64.778972 281.804638 
L 65.590259 281.804638 
L 65.704524 310.79404 
L 68.401194 310.79404 
L 68.51546 281.804638 
L 69.338173 281.804638 
L 69.452439 310.79404 
L 72.149109 310.79404 
L 72.263374 281.804638 
L 73.086087 281.804638 
L 73.200353 310.79404 
L 75.897023 310.79404 
L 76.011288 281.804638 
L 76.822575 281.804638 
L 76.93684 310.79404 
L 79.63351 310.79404 
L 79.747776 281.804638 
L 80.570489 281.804638 
L 80.684754 310.79404 
L 83.381424 310.79404 
L 83.49569 281.804638 
L 84.318403 281.804638 
L 84.432669 310.79404 
L 87.129338 310.79404 
L 87.243604 281.804638 
L 88.05489 281.804638 
L 88.169156 310.79404 
L 90.865826 310.79404 
L 90.980092 281.804638 
L 91.802805 281.804638 
L 91.91707 310.79404 
L 94.61374 310.79404 
L 94.728006 281.804638 
L 95.550719 281.804638 
L 95.664984 310.79404 
L 98.361654 310.79404 
L 98.47592 281.804638 
L 99.287206 281.804638 
L 99.401472 310.79404 
L 102.098142 310.79404 
L 102.212408 281.804638 
L 103.03512 281.804638 
L 103.149386 310.79404 
L 105.846056 310.79404 
L 105.960322 281.804638 
L 106.783035 281.804638 
L 106.8973 310.79404 
L 109.59397 310.79404 
L 109.708236 281.804638 
L 110.519522 281.804638 
L 110.633788 310.79404 
L 113.330458 310.79404 
L 113.444723 281.804638 
L 114.267436 281.804638 
L 114.381702 310.79404 
L 117.078372 310.79404 
L 117.192637 281.804638 
L 118.01535 281.804638 
L 118.129616 310.79404 
L 120.826286 310.79404 
L 120.940552 281.804638 
L 121.751838 281.804638 
L 121.866104 310.79404 
L 124.562774 310.79404 
L 124.677039 281.804638 
L 125.499752 281.804638 
L 125.614018 310.79404 
L 128.310688 310.79404 
L 128.424953 281.804638 
L 129.247666 281.804638 
L 129.361932 310.79404 
L 132.058602 310.79404 
L 132.172867 281.804638 
L 132.984154 281.804638 
L 133.098419 310.79404 
L 135.795089 310.79404 
L 135.909355 281.804638 
L 136.732068 281.804638 
L 136.846334 310.79404 
L 139.543003 310.79404 
L 139.657269 281.804638 
L 140.479982 281.804638 
L 140.594248 310.79404 
L 143.290918 310.79404 
L 143.405183 281.804638 
L 144.21647 281.804638 
L 144.330735 310.79404 
L 147.027405 310.79404 
L 147.141671 281.804638 
L 147.964384 281.804638 
L 148.078649 310.79404 
L 150.775319 310.79404 
L 150.889585 281.804638 
L 151.712298 281.804638 
L 151.826563 310.79404 
L 154.523233 310.79404 
L 154.637499 281.804638 
L 155.448785 281.804638 
L 155.563051 310.79404 
L 158.259721 310.79404 
L 158.373987 281.804638 
L 159.1967 281.804638 
L 159.310965 310.79404 
L 162.007635 310.79404 
L 162.121901 281.804638 
L 162.944614 281.804638 
L 163.058879 310.79404 
L 165.755549 310.79404 
L 165.869815 281.804638 
L 166.692528 281.804638 
L 166.806793 310.79404 
L 169.492037 310.79404 
L 169.606302 281.804638 
L 170.429015 281.804638 
L 170.543281 310.79404 
L 173.239951 310.79404 
L 173.354217 281.804638 
L 174.176929 281.804638 
L 174.291195 310.79404 
L 176.987865 310.79404 
L 177.102131 281.804638 
L 177.924844 281.804638 
L 178.039109 310.79404 
L 180.724353 310.79404 
L 180.838618 281.804638 
L 181.661331 281.804638 
L 181.775597 310.79404 
L 184.472267 310.79404 
L 184.586532 281.804638 
L 185.409245 281.804638 
L 185.523511 310.79404 
L 188.220181 310.79404 
L 188.334447 281.804638 
L 189.157159 281.804638 
L 189.271425 310.79404 
L 191.956668 310.79404 
L 192.070934 281.804638 
L 192.893647 281.804638 
L 193.007913 310.79404 
L 195.704583 310.79404 
L 195.818848 281.804638 
L 196.641561 281.804638 
L 196.755827 310.79404 
L 199.452497 310.79404 
L 199.566762 281.804638 
L 200.389475 281.804638 
L 200.503741 310.79404 
L 203.188984 310.79404 
L 203.30325 281.804638 
L 204.125963 281.804638 
L 204.240228 310.79404 
L 206.936898 310.79404 
L 207.051164 281.804638 
L 207.873877 281.804638 
L 207.988143 310.79404 
L 210.684813 310.79404 
L 210.799078 281.804638 
L 211.621791 281.804638 
L 211.736057 310.79404 
L 214.4213 310.79404 
L 214.535566 281.804638 
L 215.358279 281.804638 
L 215.472544 310.79404 
L 218.169214 310.79404 
L 218.28348 281.804638 
L 219.106193 281.804638 
L 219.220458 310.79404 
L 221.917128 310.79404 
L 222.031394 281.804638 
L 222.854107 281.804638 
L 222.968373 310.79404 
L 225.653616 310.79404 
L 225.767882 281.804638 
L 226.590594 281.804638 
L 226.70486 310.79404 
L 229.40153 310.79404 
L 229.515796 281.804638 
L 230.338509 281.804638 
L 230.452774 310.79404 
L 233.149444 310.79404 
L 233.26371 281.804638 
L 234.086423 281.804638 
L 234.200688 310.79404 
L 236.885932 310.79404 
L 237.000197 281.804638 
L 237.82291 281.804638 
L 237.937176 310.79404 
L 240.633846 310.79404 
L 240.748112 281.804638 
L 241.570824 281.804638 
L 241.68509 310.79404 
L 244.38176 310.79404 
L 244.496026 281.804638 
L 245.318739 281.804638 
L 245.433004 310.79404 
L 248.118248 310.79404 
L 248.232513 281.804638 
L 249.055226 281.804638 
L 249.169492 310.79404 
L 251.866162 310.79404 
L 251.980427 281.804638 
L 252.80314 281.804638 
L 252.917406 310.79404 
L 255.614076 310.79404 
L 255.728342 281.804638 
L 256.551054 281.804638 
L 256.66532 310.79404 
L 259.350563 310.79404 
L 259.464829 281.804638 
L 260.287542 281.804638 
L 260.401808 310.79404 
L 263.098478 310.79404 
L 263.212743 281.804638 
L 264.035456 281.804638 
L 264.149722 310.79404 
L 266.846392 310.79404 
L 266.960657 281.804638 
L 267.78337 281.804638 
L 267.897636 310.79404 
L 270.582879 310.79404 
L 270.697145 281.804638 
L 271.519858 281.804638 
L 271.634123 310.79404 
L 274.330793 310.79404 
L 274.445059 281.804638 
L 275.267772 281.804638 
L 275.382038 310.79404 
L 278.078707 310.79404 
L 278.192973 281.804638 
L 279.015686 281.804638 
L 279.129952 310.79404 
L 281.815195 310.79404 
L 281.929461 281.804638 
L 282.752174 281.804638 
L 282.866439 310.79404 
L 285.563109 310.79404 
L 285.677375 281.804638 
L 286.500088 281.804638 
L 286.614353 310.79404 
L 289.311023 310.79404 
L 289.425289 281.804638 
L 290.248002 281.804638 
L 290.362268 310.79404 
L 293.047511 310.79404 
L 293.161777 281.804638 
L 293.984489 281.804638 
L 294.098755 310.79404 
L 296.795425 310.79404 
L 296.909691 281.804638 
L 297.732404 281.804638 
L 297.846669 310.79404 
L 300.543339 310.79404 
L 300.657605 281.804638 
L 301.480318 281.804638 
L 301.594583 310.79404 
L 304.279827 310.79404 
L 304.394092 281.804638 
L 305.216805 281.804638 
L 305.331071 310.79404 
L 308.027741 310.79404 
L 308.142007 281.804638 
L 308.964719 281.804638 
L 309.078985 310.79404 
L 311.775655 310.79404 
L 311.889921 281.804638 
L 312.712634 281.804638 
L 312.826899 310.79404 
L 315.512143 310.79404 
L 315.626408 281.804638 
L 316.449121 281.804638 
L 316.563387 310.79404 
L 319.260057 310.79404 
L 319.374322 281.804638 
L 320.197035 281.804638 
L 320.311301 310.79404 
L 323.007971 310.79404 
L 323.122236 281.804638 
L 323.944949 281.804638 
L 324.059215 310.79404 
L 326.744458 310.79404 
L 326.858724 281.804638 
L 327.681437 281.804638 
L 327.795703 310.79404 
L 330.492372 310.79404 
L 330.606638 281.804638 
L 331.429351 281.804638 
L 331.543617 310.79404 
L 334.240287 310.79404 
L 334.354552 281.804638 
L 335.177265 281.804638 
L 335.291531 310.79404 
L 337.976774 310.79404 
L 338.09104 281.804638 
L 338.913753 281.804638 
L 339.028018 310.79404 
L 341.724688 310.79404 
L 341.838954 281.804638 
L 342.661667 281.804638 
L 342.775933 310.79404 
L 345.472602 310.79404 
L 345.586868 281.804638 
L 346.409581 281.804638 
L 346.523847 310.79404 
L 349.20909 310.79404 
L 349.323356 281.804638 
L 350.146069 281.804638 
L 350.260334 310.79404 
L 352.957004 310.79404 
L 353.07127 281.804638 
L 353.893983 281.804638 
L 354.008248 310.79404 
L 356.704918 310.79404 
L 356.819184 281.804638 
L 357.641897 281.804638 
L 357.756162 310.79404 
L 360.441406 310.79404 
L 360.555672 281.804638 
L 361.378384 281.804638 
L 361.49265 310.79404 
L 364.18932 310.79404 
L 364.303586 281.804638 
L 365.126299 281.804638 
L 365.240564 310.79404 
L 367.937234 310.79404 
L 368.0515 281.804638 
L 368.874213 281.804638 
L 368.988478 310.79404 
L 371.673722 310.79404 
L 371.787987 281.804638 
L 372.6107 281.804638 
L 372.724966 310.79404 
L 375.421636 310.79404 
L 375.535901 281.804638 
L 376.358614 281.804638 
L 376.47288 310.79404 
L 379.16955 310.79404 
L 379.283816 281.804638 
L 380.106528 281.804638 
L 380.220794 310.79404 
L 382.906037 310.79404 
L 383.020303 281.804638 
L 383.843016 281.804638 
L 383.957282 310.79404 
L 386.653952 310.79404 
L 386.768217 281.804638 
L 387.59093 281.804638 
L 387.705196 310.79404 
L 390.401866 310.79404 
L 390.516131 281.804638 
L 391.338844 281.804638 
L 391.45311 310.79404 
L 394.138353 310.79404 
L 394.252619 281.804638 
L 395.075332 281.804638 
L 395.189598 310.79404 
L 397.886267 310.79404 
L 398.000533 281.804638 
L 398.823246 281.804638 
L 398.937512 310.79404 
L 401.634182 310.79404 
L 401.748447 281.804638 
L 402.57116 281.804638 
L 402.685426 310.79404 
L 405.370669 310.79404 
L 405.484935 281.804638 
L 406.307648 281.804638 
L 406.421913 310.79404 
L 409.118583 310.79404 
L 409.232849 281.804638 
L 410.055562 281.804638 
L 410.169827 310.79404 
L 412.866497 310.79404 
L 412.980763 281.804638 
L 413.803476 281.804638 
L 413.917742 310.79404 
L 416.602985 310.79404 
L 416.717251 281.804638 
L 417.539963 281.804638 
L 417.654229 310.79404 
L 420.350899 310.79404 
L 420.465165 281.804638 
L 421.287878 281.804638 
L 421.402143 310.79404 
L 424.098813 310.79404 
L 424.213079 281.804638 
L 425.035792 281.804638 
L 425.150057 310.79404 
L 427.835301 310.79404 
L 427.949566 281.804638 
L 428.772279 281.804638 
L 428.886545 310.79404 
L 431.583215 310.79404 
L 431.697481 281.804638 
L 432.520193 281.804638 
L 432.634459 310.79404 
L 435.331129 310.79404 
L 435.445395 281.804638 
L 436.268108 281.804638 
L 436.382373 310.79404 
L 439.067617 310.79404 
L 439.079043 281.804638 
L 439.079043 281.804638 
" clip-path="url(#p31b6371a54)" style="fill: none; stroke: #1f77b4; stroke-width: 1.5; stroke-linecap: square"/>
   </g>
   <g id="patch_14">
    <path d="M 45.94399 312.24351 
L 45.94399 280.355167 
" style="fill: none; stroke: #000000; stroke-width: 0.8; stroke-linejoin: miter; stroke-linecap: square"/>
   </g>
   <g id="patch_15">
    <path d="M 457.79976 312.24351 
L 457.79976 280.355167 
" style="fill: none; stroke: #000000; stroke-width: 0.8; stroke-linejoin: miter; stroke-linecap: square"/>
   </g>
   <g id="patch_16">
    <path d="M 45.94399 312.24351 
L 457.79976 312.24351 
" style="fill: none; stroke: #000000; stroke-width: 0.8; stroke-linejoin: miter; stroke-linecap: square"/>
   </g>
   <g id="patch_17">
    <path d="M 45.94399 280.355167 
L 457.79976 280.355167 
" style="fill: none; stroke: #000000; stroke-width: 0.8; stroke-linejoin: miter; stroke-linecap: square"/>
   </g>
  </g>
 </g>
 <defs>
  <clipPath id="p8f03fba6cd">
   <rect x="45.94399" y="3.893771" width="411.85577" height="127.55337"/>
  </clipPath>
  <clipPath id="p759907a305">
   <rect x="45.94399" y="140.947622" width="411.85577" height="127.55337"/>
  </clipPath>
  <clipPath id="p31b6371a54">
   <rect x="45.94399" y="280.355167" width="411.85577" height="31.888343"/>
  </clipPath>
 </defs>
</svg>
