<?xml version="1.0" encoding="UTF-8"?>
<svg xmlns="http://www.w3.org/2000/svg" xmlns:xlink="http://www.w3.org/1999/xlink" width="348.2309pt" height="162.6318pt" viewBox="0 0 348.2309 162.6318" version="1.2">
<g id="surface1">
<path style=" stroke:none;fill-rule:nonzero;fill:rgb(7.058716%,1.176453%,46.665955%);fill-opacity:1;" d="M 79.332031 104.648438 C 79.332031 104.179688 79.714844 103.796875 80.183594 103.796875 C 80.65625 103.796875 81.039062 104.179688 81.039062 104.648438 L 81.039062 118.777344 C 81.039062 119.246094 80.65625 119.628906 80.183594 119.628906 C 79.714844 119.628906 79.332031 119.246094 79.332031 118.777344 Z M 79.332031 104.648438 "/>
<path style=" stroke:none;fill-rule:nonzero;fill:rgb(7.058716%,1.176453%,46.665955%);fill-opacity:1;" d="M 73.0625 112.566406 C 72.589844 112.566406 72.207031 112.183594 72.207031 111.710938 C 72.207031 111.242188 72.589844 110.859375 73.0625 110.859375 L 87.308594 110.859375 C 87.777344 110.859375 88.160156 111.242188 88.160156 111.710938 C 88.160156 112.183594 87.777344 112.566406 87.308594 112.566406 Z M 73.0625 112.566406 "/>
<path style=" stroke:none;fill-rule:nonzero;fill:rgb(7.058716%,1.176453%,46.665955%);fill-opacity:1;" d="M 91.894531 111.710938 C 91.894531 116.027344 89.558594 119.800781 86.082031 121.832031 C 84.351562 122.84375 82.335938 123.421875 80.183594 123.421875 C 75.867188 123.421875 72.097656 121.089844 70.066406 117.613281 C 69.054688 115.878906 68.472656 113.863281 68.472656 111.710938 C 68.472656 107.394531 70.808594 103.625 74.285156 101.59375 C 76.015625 100.582031 78.03125 100 80.183594 100 C 84.5 100 88.273438 102.335938 90.304688 105.8125 C 91.316406 107.546875 91.894531 109.5625 91.894531 111.710938 M 90.351562 111.710938 C 90.351562 109.84375 89.847656 108.09375 88.96875 106.589844 C 87.207031 103.574219 83.933594 101.542969 80.183594 101.542969 C 78.316406 101.542969 76.566406 102.046875 75.0625 102.925781 C 72.046875 104.691406 70.015625 107.964844 70.015625 111.710938 C 70.015625 113.578125 70.519531 115.328125 71.398438 116.832031 C 73.160156 119.851562 76.4375 121.878906 80.183594 121.878906 C 82.050781 121.878906 83.800781 121.375 85.304688 120.496094 C 88.324219 118.734375 90.351562 115.460938 90.351562 111.710938 "/>
<path style=" stroke:none;fill-rule:nonzero;fill:rgb(7.058716%,1.176453%,46.665955%);fill-opacity:1;" d="M 29.203125 112.128906 C 28.777344 112.128906 28.429688 111.785156 28.429688 111.359375 C 28.429688 110.933594 28.777344 110.585938 29.203125 110.585938 L 69.246094 110.585938 C 69.671875 110.585938 70.015625 110.933594 70.015625 111.359375 C 70.015625 111.785156 69.671875 112.128906 69.246094 112.128906 Z M 29.203125 112.128906 "/>
<path style=" stroke:none;fill-rule:nonzero;fill:rgb(7.058716%,1.176453%,46.665955%);fill-opacity:1;" d="M 92.800781 112.484375 C 92.375 112.484375 92.027344 112.136719 92.027344 111.710938 C 92.027344 111.285156 92.375 110.941406 92.800781 110.941406 L 118.863281 110.941406 C 119.289062 110.941406 119.636719 111.285156 119.636719 111.710938 C 119.636719 112.136719 119.289062 112.484375 118.863281 112.484375 Z M 92.800781 112.484375 "/>
<path style=" stroke:none;fill-rule:nonzero;fill:rgb(7.058716%,1.176453%,46.665955%);fill-opacity:1;" d="M 119.636719 93.160156 L 119.636719 130.421875 L 156.898438 130.421875 L 156.898438 93.160156 Z M 118.863281 91.617188 L 157.667969 91.617188 C 158.09375 91.617188 158.441406 91.964844 158.441406 92.390625 L 158.441406 131.195312 C 158.441406 131.621094 158.09375 131.964844 157.667969 131.964844 L 118.863281 131.964844 C 118.4375 131.964844 118.09375 131.621094 118.09375 131.195312 L 118.09375 92.390625 C 118.09375 91.964844 118.4375 91.617188 118.863281 91.617188 "/>
<path style=" stroke:none;fill-rule:nonzero;fill:rgb(7.058716%,1.176453%,46.665955%);fill-opacity:1;" d="M 157.667969 111.335938 C 157.242188 111.335938 156.898438 110.988281 156.898438 110.5625 C 156.898438 110.136719 157.242188 109.792969 157.667969 109.792969 L 192.714844 109.792969 C 193.140625 109.792969 193.484375 110.136719 193.484375 110.5625 C 193.484375 110.988281 193.140625 111.335938 192.714844 111.335938 Z M 157.667969 111.335938 "/>
<path style=" stroke:none;fill-rule:nonzero;fill:rgb(7.058716%,1.176453%,46.665955%);fill-opacity:1;" d="M 273.554688 110.5625 C 273.554688 110.988281 273.210938 111.335938 272.785156 111.335938 C 272.359375 111.335938 272.011719 110.988281 272.011719 110.5625 L 272.011719 57.613281 C 272.011719 57.1875 272.359375 56.839844 272.785156 56.839844 C 273.210938 56.839844 273.554688 57.1875 273.554688 57.613281 Z M 273.554688 110.5625 "/>
<path style=" stroke:none;fill-rule:nonzero;fill:rgb(7.058716%,1.176453%,46.665955%);fill-opacity:1;" d="M 192.714844 56.839844 C 193.140625 56.839844 193.484375 57.1875 193.484375 57.613281 C 193.484375 58.039062 193.140625 58.382812 192.714844 58.382812 L 79.699219 58.382812 C 79.273438 58.382812 78.929688 58.039062 78.929688 57.613281 C 78.929688 57.1875 79.273438 56.839844 79.699219 56.839844 Z M 192.714844 56.839844 "/>
<path style=" stroke:none;fill-rule:nonzero;fill:rgb(7.058716%,1.176453%,46.665955%);fill-opacity:1;" d="M 78.929688 57.402344 C 78.929688 56.976562 79.273438 56.632812 79.699219 56.632812 C 80.128906 56.632812 80.472656 56.976562 80.472656 57.402344 L 80.472656 100.777344 C 80.472656 101.203125 80.128906 101.550781 79.699219 101.550781 C 79.273438 101.550781 78.929688 101.203125 78.929688 100.777344 Z M 78.929688 57.402344 "/>
<path style=" stroke:none;fill-rule:nonzero;fill:rgb(7.058716%,1.176453%,46.665955%);fill-opacity:1;" d="M 62.070312 106.5625 C 62.070312 106.136719 62.414062 105.792969 62.839844 105.792969 C 63.265625 105.792969 63.613281 106.136719 63.613281 106.5625 L 63.613281 116.152344 C 63.613281 116.578125 63.265625 116.925781 62.839844 116.925781 C 62.414062 116.925781 62.070312 116.578125 62.070312 116.152344 Z M 62.070312 106.5625 "/>
<path style=" stroke:none;fill-rule:nonzero;fill:rgb(7.058716%,1.176453%,46.665955%);fill-opacity:1;" d="M 62.378906 107.179688 C 62.039062 106.925781 61.96875 106.441406 62.222656 106.101562 C 62.480469 105.757812 62.960938 105.691406 63.304688 105.945312 L 69.707031 110.742188 C 70.050781 110.996094 70.117188 111.480469 69.863281 111.820312 C 69.609375 112.160156 69.125 112.230469 68.78125 111.976562 Z M 62.378906 107.179688 "/>
<path style=" stroke:none;fill-rule:nonzero;fill:rgb(7.058716%,1.176453%,46.665955%);fill-opacity:1;" d="M 64.277344 108.199219 C 64.695312 108.289062 64.957031 108.703125 64.863281 109.117188 C 64.773438 109.535156 64.363281 109.796875 63.945312 109.707031 C 63.320312 109.566406 63.402344 109.339844 63.351562 109.273438 C 63.292969 109.199219 63.257812 109.128906 63.238281 109.09375 C 63.222656 109.066406 63.335938 109.21875 63.273438 109.144531 C 63.007812 108.8125 63.054688 108.328125 63.386719 108.058594 C 63.71875 107.789062 64.203125 107.839844 64.472656 108.171875 C 64.632812 108.367188 64.519531 108.261719 64.566406 108.324219 C 64.601562 108.367188 64.605469 108.371094 64.613281 108.378906 C 64.617188 108.386719 64.511719 108.296875 64.550781 108.324219 C 64.574219 108.34375 64.417969 108.242188 64.460938 108.265625 C 64.503906 108.289062 64.199219 108.179688 64.277344 108.199219 M 63.15625 108.371094 C 63.320312 107.976562 63.773438 107.789062 64.167969 107.953125 C 64.558594 108.117188 64.746094 108.570312 64.582031 108.964844 C 64.578125 108.972656 64.582031 108.964844 64.574219 108.984375 C 64.582031 108.960938 64.585938 108.949219 64.585938 108.949219 C 64.585938 108.949219 64.589844 108.921875 64.589844 108.9375 C 64.585938 109.015625 64.578125 109.089844 64.578125 109.152344 C 64.574219 109.492188 64.574219 109.871094 64.578125 110.324219 C 64.582031 110.726562 64.578125 111.179688 64.578125 111.632812 C 64.578125 111.9375 64.578125 112.234375 64.578125 112.496094 C 64.578125 112.6875 64.578125 112.855469 64.578125 113 C 64.578125 113.191406 64.582031 113.332031 64.59375 113.421875 C 64.597656 113.445312 64.617188 113.515625 64.648438 113.625 C 64.667969 113.695312 64.683594 113.753906 64.691406 113.777344 C 64.691406 113.78125 64.667969 113.722656 64.679688 113.75 C 64.6875 113.765625 64.625 113.644531 64.644531 113.679688 C 64.664062 113.714844 64.476562 113.476562 64.535156 113.535156 C 64.574219 113.574219 64.210938 113.332031 64.328125 113.390625 C 64.710938 113.574219 64.875 114.035156 64.6875 114.421875 C 64.503906 114.804688 64.042969 114.964844 63.65625 114.777344 C 63.535156 114.71875 63.476562 114.660156 63.4375 114.621094 C 63.015625 114.195312 63.191406 114.144531 63.167969 114.0625 C 63.140625 113.976562 63.089844 113.828125 63.0625 113.625 C 63.03125 113.398438 63.035156 113.199219 63.035156 113.011719 C 63.035156 112.851562 63.035156 112.683594 63.035156 112.496094 C 63.035156 112.234375 63.035156 111.9375 63.035156 111.632812 C 63.035156 111.171875 63.039062 110.722656 63.035156 110.335938 C 63.03125 109.878906 63.03125 109.488281 63.035156 109.132812 C 63.035156 109.019531 63.042969 108.925781 63.046875 108.855469 C 63.054688 108.710938 63.082031 108.59375 63.109375 108.503906 C 63.121094 108.460938 63.132812 108.425781 63.148438 108.394531 C 63.164062 108.355469 63.152344 108.382812 63.15625 108.371094 M 64.210938 114.828125 C 63.800781 114.941406 63.375 114.703125 63.261719 114.292969 C 63.144531 113.882812 63.382812 113.457031 63.792969 113.339844 C 63.878906 113.316406 63.554688 113.453125 63.601562 113.425781 C 63.644531 113.398438 63.488281 113.511719 63.507812 113.492188 C 63.539062 113.457031 63.335938 113.714844 63.351562 113.6875 C 63.367188 113.660156 63.324219 113.738281 63.328125 113.734375 C 63.351562 113.675781 63.328125 113.726562 63.351562 113.621094 C 63.449219 113.230469 63.585938 112.78125 63.648438 112.214844 C 63.703125 111.738281 63.679688 111.097656 63.699219 110.433594 C 63.710938 110.089844 63.734375 109.757812 63.792969 109.445312 C 63.832031 109.222656 63.898438 109.039062 63.960938 108.898438 C 64.003906 108.800781 64.050781 108.699219 64.160156 108.582031 C 64.207031 108.53125 64.257812 108.484375 64.324219 108.4375 C 64.53125 108.320312 64.726562 108.269531 64.925781 108.304688 C 65.34375 108.382812 65.625 108.78125 65.550781 109.203125 C 65.472656 109.621094 65.074219 109.902344 64.652344 109.824219 C 64.5625 109.808594 65.007812 109.808594 64.921875 109.824219 C 64.839844 109.839844 65.195312 109.714844 65.136719 109.746094 C 65.152344 109.742188 65.324219 109.59375 65.300781 109.621094 C 65.238281 109.691406 65.375 109.515625 65.371094 109.519531 C 65.351562 109.566406 65.324219 109.640625 65.3125 109.722656 C 65.277344 109.917969 65.253906 110.1875 65.242188 110.484375 C 65.222656 111.078125 65.257812 111.742188 65.183594 112.390625 C 65.101562 113.097656 64.933594 113.65625 64.851562 113.996094 C 64.835938 114.050781 64.828125 114.144531 64.757812 114.316406 C 64.730469 114.378906 64.71875 114.460938 64.558594 114.621094 C 64.46875 114.707031 64.386719 114.777344 64.210938 114.828125 M 64.132812 109.460938 C 63.917969 109.09375 64.039062 108.621094 64.40625 108.40625 C 64.777344 108.191406 65.25 108.316406 65.464844 108.683594 C 65.527344 108.792969 65.550781 108.886719 65.5625 108.953125 C 65.582031 109.046875 65.578125 109.101562 65.578125 109.15625 C 65.578125 109.261719 65.566406 109.355469 65.550781 109.453125 C 65.542969 109.515625 65.554688 109.328125 65.554688 109.34375 C 65.558594 109.367188 65.585938 109.417969 65.609375 109.605469 C 65.628906 109.753906 65.644531 109.898438 65.660156 110.0625 C 65.675781 110.257812 65.6875 110.476562 65.695312 110.722656 C 65.710938 111.117188 65.710938 111.558594 65.71875 111.9375 C 65.722656 112.128906 65.734375 112.300781 65.742188 112.460938 C 65.746094 112.59375 65.75 112.691406 65.75 112.695312 C 65.753906 112.746094 65.75 112.722656 65.753906 112.75 C 65.753906 112.753906 65.742188 112.691406 65.746094 112.710938 C 65.75 112.734375 65.667969 112.496094 65.699219 112.574219 C 65.871094 112.960938 65.695312 113.417969 65.304688 113.589844 C 64.917969 113.761719 64.460938 113.585938 64.289062 113.195312 C 64.21875 113.039062 64.230469 113.003906 64.226562 112.96875 C 64.214844 112.898438 64.214844 112.867188 64.210938 112.835938 C 64.199219 112.710938 64.203125 112.625 64.199219 112.527344 C 64.191406 112.382812 64.179688 112.191406 64.175781 111.96875 C 64.167969 111.570312 64.167969 111.136719 64.152344 110.78125 C 64.144531 110.546875 64.132812 110.347656 64.121094 110.191406 C 64.109375 110.046875 64.097656 109.9375 64.082031 109.816406 C 64.078125 109.804688 63.960938 109.644531 64.027344 109.21875 C 64.035156 109.175781 64.035156 109.148438 64.035156 109.144531 C 64.035156 109.132812 64.070312 109.347656 64.050781 109.253906 C 64.035156 109.179688 64.179688 109.546875 64.125 109.453125 C 64.128906 109.453125 64.132812 109.464844 64.132812 109.460938 M 65.003906 113.664062 C 64.578125 113.664062 64.234375 113.316406 64.234375 112.890625 C 64.234375 112.464844 64.578125 112.121094 65.003906 112.121094 C 65.121094 112.121094 64.625 112.214844 64.703125 112.179688 C 64.8125 112.132812 64.441406 112.367188 64.484375 112.324219 C 64.523438 112.289062 64.394531 112.429688 64.410156 112.410156 C 64.511719 112.292969 64.351562 112.5 64.363281 112.480469 C 64.375 112.460938 64.347656 112.503906 64.347656 112.503906 C 64.367188 112.46875 64.34375 112.519531 64.355469 112.484375 C 64.378906 112.40625 64.417969 112.277344 64.476562 112.128906 C 64.597656 111.808594 64.753906 111.488281 64.878906 111.1875 C 65.046875 110.796875 65.175781 110.425781 65.230469 110.148438 C 65.246094 110.066406 65.25 109.960938 65.25 109.804688 C 65.25 109.683594 65.25 109.570312 65.25 109.472656 C 65.246094 109.300781 65.25 109.15625 65.25 109.101562 C 65.25 109.09375 65.25 109.089844 65.25 109.082031 C 65.257812 108.65625 65.609375 108.316406 66.035156 108.324219 C 66.460938 108.332031 66.800781 108.683594 66.792969 109.109375 C 66.792969 109.113281 66.792969 109.097656 66.792969 109.101562 C 66.792969 109.183594 66.789062 109.304688 66.792969 109.449219 C 66.792969 109.570312 66.792969 109.691406 66.792969 109.816406 C 66.792969 109.972656 66.792969 110.1875 66.742188 110.445312 C 66.65625 110.894531 66.488281 111.34375 66.304688 111.785156 C 66.15625 112.132812 66.003906 112.449219 65.917969 112.675781 C 65.886719 112.765625 65.851562 112.871094 65.8125 112.984375 C 65.796875 113.039062 65.777344 113.097656 65.734375 113.1875 C 65.71875 113.214844 65.714844 113.265625 65.59375 113.398438 C 65.578125 113.417969 65.472656 113.664062 65.003906 113.664062 M 65.253906 109.164062 C 65.214844 108.738281 65.53125 108.363281 65.957031 108.328125 C 66.378906 108.292969 66.753906 108.605469 66.789062 109.03125 C 66.792969 109.058594 66.792969 109.066406 66.792969 109.078125 C 66.796875 109.117188 66.796875 109.160156 66.796875 109.21875 C 66.800781 109.339844 66.800781 109.503906 66.792969 109.695312 C 66.769531 110.277344 66.664062 110.910156 66.59375 111.421875 C 66.570312 111.589844 66.550781 111.738281 66.539062 111.859375 C 66.527344 111.976562 66.511719 111.882812 66.523438 111.957031 C 66.539062 112.054688 66.535156 112.078125 66.539062 112.09375 C 66.539062 112.109375 66.488281 111.90625 66.511719 111.976562 C 66.535156 112.050781 66.21875 111.582031 66.324219 111.683594 C 66.417969 111.773438 65.964844 111.503906 66.054688 111.527344 C 66.136719 111.550781 65.796875 111.511719 65.851562 111.507812 C 65.949219 111.5 65.589844 111.597656 65.640625 111.566406 C 65.71875 111.523438 65.445312 111.742188 65.476562 111.703125 C 65.519531 111.65625 65.425781 111.777344 65.425781 111.773438 C 65.429688 111.765625 65.445312 111.734375 65.476562 111.683594 C 65.605469 111.476562 65.75 111.214844 65.839844 110.972656 C 65.902344 110.796875 65.964844 110.652344 66.007812 110.539062 C 66.066406 110.378906 66.101562 110.21875 66.179688 110.035156 C 66.183594 110.023438 66.121094 110.0625 66.28125 109.785156 C 66.496094 109.417969 66.964844 109.292969 67.335938 109.507812 C 67.703125 109.71875 67.828125 110.191406 67.617188 110.5625 C 67.574219 110.632812 67.671875 110.4375 67.667969 110.449219 C 67.664062 110.464844 67.648438 110.519531 67.605469 110.628906 C 67.59375 110.648438 67.539062 110.84375 67.460938 111.058594 C 67.398438 111.226562 67.335938 111.371094 67.289062 111.503906 C 67.144531 111.902344 66.949219 112.242188 66.792969 112.492188 C 66.78125 112.511719 66.808594 112.671875 66.425781 112.898438 C 66.285156 112.980469 66.132812 113.035156 65.949219 113.046875 C 65.757812 113.058594 65.484375 113.019531 65.261719 112.800781 C 65.023438 112.578125 65.015625 112.351562 65.003906 112.261719 C 64.996094 112.1875 65.003906 112.21875 65 112.195312 C 64.964844 111.964844 64.992188 111.828125 65.003906 111.707031 C 65.019531 111.550781 65.042969 111.382812 65.066406 111.210938 C 65.140625 110.6875 65.234375 110.078125 65.25 109.632812 C 65.257812 109.480469 65.257812 109.339844 65.253906 109.242188 C 65.253906 109.199219 65.253906 109.164062 65.253906 109.152344 C 65.253906 109.148438 65.253906 109.179688 65.253906 109.164062 M 66.210938 110.390625 C 66.09375 109.980469 66.332031 109.554688 66.738281 109.4375 C 67.148438 109.320312 67.578125 109.558594 67.695312 109.96875 C 67.710938 110.023438 67.71875 110.070312 67.722656 110.109375 C 67.730469 110.183594 67.734375 110.261719 67.730469 110.347656 C 67.730469 110.351562 67.734375 110.460938 67.730469 110.597656 C 67.726562 110.722656 67.730469 110.871094 67.730469 111.039062 C 67.730469 111.09375 67.730469 111.148438 67.730469 111.203125 C 67.730469 111.347656 67.722656 111.363281 67.726562 111.40625 C 67.734375 111.496094 67.734375 111.5625 67.734375 111.585938 C 67.734375 111.589844 67.726562 111.503906 67.730469 111.542969 C 67.734375 111.566406 67.699219 111.398438 67.710938 111.445312 C 67.726562 111.492188 67.578125 111.171875 67.628906 111.25 C 67.851562 111.613281 67.742188 112.089844 67.378906 112.3125 C 67.015625 112.539062 66.539062 112.425781 66.316406 112.0625 C 65.964844 111.5 66.195312 111.589844 66.191406 111.566406 C 66.171875 111.386719 66.1875 111.292969 66.1875 111.203125 C 66.1875 111.152344 66.1875 111.09375 66.1875 111.035156 C 66.1875 110.890625 66.183594 110.734375 66.1875 110.5625 C 66.1875 110.496094 66.179688 110.410156 66.1875 110.269531 C 66.1875 110.265625 66.195312 110.347656 66.191406 110.308594 C 66.1875 110.28125 66.222656 110.433594 66.210938 110.390625 M 67.578125 112.132812 C 67.3125 112.464844 66.828125 112.519531 66.492188 112.253906 C 66.160156 111.988281 66.109375 111.5 66.375 111.167969 C 66.394531 111.144531 66.402344 111.136719 66.40625 111.132812 C 66.410156 111.128906 66.414062 111.121094 66.433594 111.097656 C 66.460938 111.0625 66.488281 111.023438 66.496094 111.011719 C 66.589844 110.863281 66.605469 110.875 66.636719 110.796875 C 66.660156 110.753906 66.675781 110.722656 66.679688 110.714844 C 66.679688 110.714844 66.660156 110.753906 66.667969 110.738281 C 66.675781 110.714844 66.613281 110.976562 66.625 110.886719 C 66.695312 110.464844 67.089844 110.179688 67.511719 110.25 C 67.933594 110.316406 68.21875 110.714844 68.148438 111.136719 C 68.09375 111.472656 68.050781 111.421875 68.046875 111.429688 C 67.945312 111.652344 67.863281 111.738281 67.808594 111.824219 C 67.746094 111.925781 67.6875 112 67.640625 112.058594 C 67.621094 112.082031 67.605469 112.105469 67.574219 112.140625 C 67.570312 112.144531 67.589844 112.121094 67.578125 112.132812 M 66.9375 110.386719 C 67.285156 110.144531 67.765625 110.230469 68.011719 110.578125 C 68.253906 110.929688 68.167969 111.410156 67.816406 111.652344 C 67.8125 111.660156 67.804688 111.664062 67.792969 111.671875 C 67.8125 111.660156 67.785156 111.675781 67.761719 111.691406 C 67.78125 111.679688 67.773438 111.6875 67.769531 111.691406 C 67.695312 111.757812 67.632812 111.8125 67.535156 111.871094 C 67.5 111.898438 67.425781 111.929688 67.394531 111.941406 C 67.195312 112 67.003906 112.082031 66.683594 111.886719 C 66.320312 111.667969 66.203125 111.191406 66.421875 110.828125 C 66.644531 110.464844 67.117188 110.34375 67.480469 110.566406 C 67.5625 110.617188 67.1875 110.460938 67.253906 110.476562 C 67.351562 110.496094 66.976562 110.464844 67.03125 110.460938 C 67.085938 110.453125 66.875 110.488281 66.90625 110.480469 C 66.832031 110.503906 66.652344 110.609375 66.703125 110.574219 C 66.792969 110.519531 66.699219 110.582031 66.703125 110.578125 C 66.769531 110.511719 66.839844 110.457031 66.878906 110.429688 C 66.921875 110.398438 66.855469 110.449219 66.886719 110.421875 C 66.964844 110.367188 66.929688 110.390625 66.9375 110.386719 "/>
<path style=" stroke:none;fill-rule:nonzero;fill:rgb(7.058716%,1.176453%,46.665955%);fill-opacity:1;" d="M 63.304688 116.769531 C 62.960938 117.027344 62.480469 116.957031 62.222656 116.617188 C 61.96875 116.273438 62.039062 115.789062 62.378906 115.535156 L 68.78125 110.742188 C 69.125 110.484375 69.609375 110.554688 69.863281 110.894531 C 70.117188 111.238281 70.050781 111.71875 69.707031 111.976562 Z M 63.304688 116.769531 "/>
<path style=" stroke:none;fill-rule:nonzero;fill:rgb(7.058716%,1.176453%,46.665955%);fill-opacity:1;" d="M 84.980469 92.390625 C 85.40625 92.390625 85.75 92.734375 85.75 93.160156 C 85.75 93.585938 85.40625 93.933594 84.980469 93.933594 L 75.390625 93.933594 C 74.964844 93.933594 74.617188 93.585938 74.617188 93.160156 C 74.617188 92.734375 74.964844 92.390625 75.390625 92.390625 Z M 84.980469 92.390625 "/>
<path style=" stroke:none;fill-rule:nonzero;fill:rgb(7.058716%,1.176453%,46.665955%);fill-opacity:1;" d="M 84.363281 92.699219 C 84.617188 92.355469 85.101562 92.289062 85.441406 92.542969 C 85.785156 92.796875 85.851562 93.28125 85.597656 93.625 L 80.800781 100.027344 C 80.546875 100.367188 80.0625 100.4375 79.722656 100.183594 C 79.378906 99.925781 79.3125 99.441406 79.566406 99.101562 Z M 84.363281 92.699219 "/>
<path style=" stroke:none;fill-rule:nonzero;fill:rgb(7.058716%,1.176453%,46.665955%);fill-opacity:1;" d="M 83.34375 94.597656 C 83.253906 95.015625 82.839844 95.277344 82.425781 95.183594 C 82.007812 95.09375 81.746094 94.679688 81.835938 94.265625 C 81.976562 93.640625 82.203125 93.722656 82.269531 93.671875 C 82.34375 93.609375 82.414062 93.574219 82.449219 93.554688 C 82.476562 93.539062 82.324219 93.65625 82.398438 93.59375 C 82.730469 93.324219 83.214844 93.375 83.484375 93.707031 C 83.753906 94.035156 83.703125 94.523438 83.371094 94.792969 C 83.171875 94.953125 83.28125 94.839844 83.21875 94.886719 C 83.175781 94.921875 83.171875 94.921875 83.164062 94.929688 C 83.15625 94.9375 83.246094 94.832031 83.21875 94.871094 C 83.199219 94.894531 83.300781 94.738281 83.277344 94.78125 C 83.253906 94.824219 83.363281 94.519531 83.34375 94.597656 M 83.171875 93.476562 C 83.566406 93.640625 83.753906 94.09375 83.589844 94.484375 C 83.425781 94.878906 82.972656 95.066406 82.578125 94.902344 C 82.570312 94.898438 82.578125 94.902344 82.558594 94.890625 C 82.582031 94.902344 82.589844 94.90625 82.589844 94.90625 C 82.589844 94.90625 82.621094 94.910156 82.605469 94.90625 C 82.527344 94.902344 82.453125 94.898438 82.390625 94.898438 C 82.050781 94.894531 81.671875 94.894531 81.21875 94.898438 C 80.816406 94.902344 80.363281 94.898438 79.910156 94.898438 C 79.605469 94.898438 79.308594 94.898438 79.046875 94.898438 C 78.855469 94.898438 78.6875 94.898438 78.542969 94.898438 C 78.347656 94.898438 78.210938 94.902344 78.121094 94.914062 C 78.097656 94.914062 78.027344 94.9375 77.917969 94.96875 C 77.847656 94.988281 77.789062 95.003906 77.765625 95.011719 C 77.757812 95.011719 77.820312 94.988281 77.792969 95 C 77.773438 95.007812 77.894531 94.945312 77.863281 94.964844 C 77.828125 94.984375 78.066406 94.796875 78.007812 94.855469 C 77.96875 94.894531 78.210938 94.53125 78.152344 94.648438 C 77.96875 95.03125 77.507812 95.191406 77.121094 95.007812 C 76.738281 94.820312 76.578125 94.359375 76.761719 93.976562 C 76.824219 93.855469 76.882812 93.792969 76.921875 93.753906 C 77.347656 93.335938 77.398438 93.511719 77.476562 93.488281 C 77.566406 93.460938 77.714844 93.410156 77.917969 93.382812 C 78.144531 93.351562 78.34375 93.355469 78.53125 93.355469 C 78.691406 93.355469 78.859375 93.355469 79.046875 93.355469 C 79.308594 93.355469 79.605469 93.355469 79.910156 93.355469 C 80.371094 93.355469 80.816406 93.359375 81.207031 93.355469 C 81.664062 93.351562 82.054688 93.351562 82.410156 93.355469 C 82.523438 93.355469 82.617188 93.363281 82.6875 93.367188 C 82.832031 93.375 82.949219 93.402344 83.039062 93.429688 C 83.082031 93.441406 83.117188 93.453125 83.148438 93.464844 C 83.1875 93.484375 83.160156 93.472656 83.171875 93.476562 M 76.714844 94.53125 C 76.601562 94.121094 76.839844 93.695312 77.25 93.578125 C 77.660156 93.464844 78.085938 93.703125 78.199219 94.113281 C 78.226562 94.199219 78.089844 93.875 78.117188 93.921875 C 78.140625 93.960938 78.03125 93.808594 78.050781 93.828125 C 78.082031 93.859375 77.828125 93.652344 77.855469 93.671875 C 77.882812 93.683594 77.804688 93.644531 77.808594 93.648438 C 77.867188 93.671875 77.816406 93.644531 77.921875 93.671875 C 78.3125 93.769531 78.761719 93.90625 79.328125 93.96875 C 79.804688 94.023438 80.445312 94 81.109375 94.019531 C 81.449219 94.03125 81.785156 94.054688 82.09375 94.113281 C 82.320312 94.152344 82.503906 94.214844 82.644531 94.28125 C 82.742188 94.324219 82.84375 94.371094 82.960938 94.480469 C 83.011719 94.523438 83.058594 94.574219 83.105469 94.644531 C 83.222656 94.847656 83.269531 95.046875 83.234375 95.246094 C 83.160156 95.664062 82.761719 95.945312 82.339844 95.867188 C 81.921875 95.792969 81.640625 95.394531 81.714844 94.972656 C 81.734375 94.882812 81.734375 95.324219 81.71875 95.242188 C 81.703125 95.160156 81.828125 95.515625 81.796875 95.457031 C 81.800781 95.46875 81.945312 95.644531 81.921875 95.621094 C 81.851562 95.558594 82.027344 95.695312 82.019531 95.691406 C 81.976562 95.671875 81.898438 95.644531 81.820312 95.628906 C 81.625 95.59375 81.351562 95.574219 81.058594 95.5625 C 80.464844 95.542969 79.800781 95.578125 79.152344 95.503906 C 78.441406 95.421875 77.886719 95.253906 77.546875 95.167969 C 77.492188 95.15625 77.398438 95.148438 77.226562 95.078125 C 77.160156 95.050781 77.082031 95.039062 76.917969 94.878906 C 76.835938 94.785156 76.765625 94.707031 76.714844 94.53125 M 82.078125 94.453125 C 82.449219 94.234375 82.921875 94.359375 83.136719 94.726562 C 83.351562 95.09375 83.226562 95.566406 82.859375 95.785156 C 82.75 95.847656 82.65625 95.871094 82.589844 95.882812 C 82.496094 95.902344 82.441406 95.898438 82.386719 95.898438 C 82.28125 95.898438 82.1875 95.886719 82.089844 95.871094 C 82.027344 95.863281 82.214844 95.875 82.199219 95.875 C 82.175781 95.878906 82.125 95.902344 81.933594 95.929688 C 81.789062 95.949219 81.644531 95.964844 81.476562 95.980469 C 81.28125 95.996094 81.066406 96.003906 80.820312 96.015625 C 80.425781 96.03125 79.984375 96.03125 79.605469 96.039062 C 79.414062 96.042969 79.242188 96.054688 79.082031 96.058594 C 78.949219 96.066406 78.851562 96.066406 78.847656 96.070312 C 78.796875 96.074219 78.820312 96.070312 78.792969 96.074219 C 78.785156 96.074219 78.851562 96.0625 78.832031 96.066406 C 78.804688 96.070312 79.046875 95.988281 78.96875 96.019531 C 78.578125 96.191406 78.125 96.015625 77.953125 95.625 C 77.78125 95.234375 77.957031 94.78125 78.347656 94.609375 C 78.5 94.539062 78.539062 94.550781 78.574219 94.542969 C 78.644531 94.535156 78.675781 94.535156 78.707031 94.53125 C 78.828125 94.519531 78.917969 94.523438 79.011719 94.519531 C 79.160156 94.511719 79.351562 94.5 79.574219 94.496094 C 79.96875 94.488281 80.40625 94.488281 80.757812 94.472656 C 80.996094 94.464844 81.195312 94.453125 81.351562 94.441406 C 81.496094 94.429688 81.605469 94.417969 81.726562 94.402344 C 81.738281 94.398438 81.898438 94.28125 82.324219 94.347656 C 82.367188 94.351562 82.394531 94.355469 82.398438 94.355469 C 82.40625 94.355469 82.195312 94.390625 82.289062 94.367188 C 82.363281 94.355469 81.996094 94.5 82.089844 94.445312 C 82.089844 94.445312 82.078125 94.453125 82.078125 94.453125 M 77.878906 95.324219 C 77.878906 94.898438 78.226562 94.550781 78.652344 94.550781 C 79.078125 94.550781 79.421875 94.898438 79.421875 95.324219 C 79.421875 95.441406 79.328125 94.941406 79.359375 95.023438 C 79.410156 95.132812 79.175781 94.761719 79.21875 94.804688 C 79.253906 94.84375 79.113281 94.714844 79.132812 94.726562 C 79.25 94.828125 79.042969 94.667969 79.0625 94.683594 C 79.082031 94.691406 79.039062 94.667969 79.039062 94.667969 C 79.070312 94.683594 79.023438 94.664062 79.058594 94.675781 C 79.136719 94.699219 79.265625 94.738281 79.410156 94.792969 C 79.734375 94.917969 80.054688 95.074219 80.355469 95.199219 C 80.746094 95.363281 81.117188 95.496094 81.394531 95.550781 C 81.476562 95.566406 81.582031 95.566406 81.734375 95.570312 C 81.859375 95.570312 81.972656 95.570312 82.070312 95.570312 C 82.242188 95.566406 82.386719 95.570312 82.441406 95.570312 C 82.445312 95.570312 82.453125 95.570312 82.460938 95.570312 C 82.886719 95.578125 83.226562 95.925781 83.21875 96.355469 C 83.210938 96.78125 82.859375 97.121094 82.433594 97.113281 C 82.429688 97.113281 82.445312 97.113281 82.441406 97.113281 C 82.359375 97.113281 82.238281 97.109375 82.09375 97.113281 C 81.972656 97.113281 81.847656 97.113281 81.722656 97.113281 C 81.570312 97.109375 81.355469 97.113281 81.097656 97.0625 C 80.648438 96.976562 80.199219 96.808594 79.757812 96.621094 C 79.410156 96.476562 79.09375 96.324219 78.867188 96.238281 C 78.777344 96.207031 78.671875 96.171875 78.558594 96.132812 C 78.503906 96.113281 78.445312 96.097656 78.355469 96.050781 C 78.328125 96.039062 78.277344 96.035156 78.144531 95.910156 C 78.125 95.898438 77.878906 95.792969 77.878906 95.324219 M 82.378906 95.574219 C 82.804688 95.535156 83.179688 95.851562 83.214844 96.273438 C 83.25 96.699219 82.9375 97.074219 82.511719 97.109375 C 82.484375 97.113281 82.476562 97.113281 82.464844 97.113281 C 82.425781 97.113281 82.382812 97.117188 82.324219 97.117188 C 82.203125 97.121094 82.039062 97.121094 81.847656 97.113281 C 81.265625 97.089844 80.628906 96.984375 80.121094 96.914062 C 79.953125 96.890625 79.804688 96.871094 79.683594 96.859375 C 79.5625 96.847656 79.660156 96.832031 79.585938 96.84375 C 79.488281 96.859375 79.464844 96.855469 79.449219 96.859375 C 79.433594 96.859375 79.632812 96.808594 79.566406 96.832031 C 79.492188 96.855469 79.960938 96.535156 79.859375 96.644531 C 79.769531 96.738281 80.039062 96.285156 80.011719 96.371094 C 79.988281 96.457031 80.03125 96.117188 80.035156 96.171875 C 80.042969 96.269531 79.945312 95.910156 79.972656 95.960938 C 80.019531 96.035156 79.800781 95.765625 79.839844 95.796875 C 79.886719 95.839844 79.765625 95.746094 79.769531 95.746094 C 79.777344 95.75 79.808594 95.765625 79.859375 95.796875 C 80.066406 95.925781 80.328125 96.070312 80.570312 96.160156 C 80.746094 96.222656 80.890625 96.285156 81.003906 96.328125 C 81.164062 96.382812 81.320312 96.421875 81.507812 96.5 C 81.519531 96.503906 81.476562 96.4375 81.753906 96.601562 C 82.125 96.8125 82.25 97.285156 82.035156 97.65625 C 81.824219 98.023438 81.351562 98.148438 80.980469 97.933594 C 80.910156 97.894531 81.105469 97.992188 81.09375 97.988281 C 81.078125 97.980469 81.023438 97.96875 80.910156 97.921875 C 80.890625 97.914062 80.699219 97.855469 80.484375 97.78125 C 80.316406 97.71875 80.171875 97.65625 80.039062 97.609375 C 79.640625 97.460938 79.300781 97.269531 79.046875 97.109375 C 79.03125 97.097656 78.871094 97.125 78.644531 96.746094 C 78.5625 96.605469 78.507812 96.453125 78.496094 96.269531 C 78.484375 96.078125 78.523438 95.804688 78.742188 95.582031 C 78.964844 95.34375 79.191406 95.332031 79.28125 95.324219 C 79.355469 95.316406 79.324219 95.320312 79.347656 95.320312 C 79.578125 95.28125 79.714844 95.3125 79.835938 95.324219 C 79.992188 95.339844 80.15625 95.359375 80.332031 95.386719 C 80.855469 95.457031 81.464844 95.550781 81.910156 95.570312 C 82.0625 95.574219 82.203125 95.574219 82.300781 95.574219 C 82.34375 95.574219 82.378906 95.574219 82.390625 95.570312 C 82.394531 95.570312 82.359375 95.574219 82.378906 95.574219 M 81.152344 96.527344 C 81.5625 96.414062 81.988281 96.648438 82.105469 97.058594 C 82.222656 97.46875 81.984375 97.894531 81.574219 98.011719 C 81.519531 98.027344 81.472656 98.035156 81.433594 98.042969 C 81.359375 98.050781 81.28125 98.054688 81.195312 98.050781 C 81.191406 98.050781 81.082031 98.054688 80.941406 98.050781 C 80.816406 98.046875 80.671875 98.050781 80.503906 98.050781 C 80.449219 98.050781 80.394531 98.050781 80.335938 98.050781 C 80.195312 98.050781 80.179688 98.042969 80.136719 98.046875 C 80.042969 98.054688 79.976562 98.054688 79.957031 98.054688 C 79.953125 98.054688 80.039062 98.046875 80 98.050781 C 79.976562 98.054688 80.144531 98.019531 80.097656 98.03125 C 80.050781 98.046875 80.371094 97.898438 80.292969 97.949219 C 79.929688 98.171875 79.453125 98.058594 79.230469 97.699219 C 79.003906 97.335938 79.117188 96.859375 79.480469 96.636719 C 80.042969 96.285156 79.953125 96.511719 79.976562 96.511719 C 80.15625 96.492188 80.25 96.507812 80.335938 96.507812 C 80.390625 96.507812 80.449219 96.507812 80.507812 96.507812 C 80.648438 96.507812 80.808594 96.503906 80.980469 96.507812 C 81.046875 96.507812 81.132812 96.5 81.273438 96.507812 C 81.277344 96.507812 81.195312 96.515625 81.234375 96.511719 C 81.261719 96.507812 81.109375 96.542969 81.152344 96.527344 M 79.40625 97.898438 C 79.074219 97.632812 79.023438 97.144531 79.289062 96.8125 C 79.554688 96.480469 80.042969 96.429688 80.375 96.695312 C 80.398438 96.714844 80.40625 96.71875 80.410156 96.726562 C 80.414062 96.730469 80.421875 96.734375 80.445312 96.753906 C 80.476562 96.78125 80.519531 96.808594 80.53125 96.816406 C 80.679688 96.90625 80.667969 96.921875 80.742188 96.957031 C 80.789062 96.976562 80.820312 96.992188 80.828125 96.996094 C 80.828125 97 80.785156 96.980469 80.804688 96.988281 C 80.828125 96.996094 80.5625 96.929688 80.65625 96.945312 C 81.074219 97.015625 81.359375 97.410156 81.292969 97.832031 C 81.222656 98.253906 80.828125 98.539062 80.40625 98.46875 C 80.066406 98.414062 80.121094 98.371094 80.113281 98.367188 C 79.890625 98.265625 79.804688 98.183594 79.714844 98.128906 C 79.617188 98.066406 79.542969 98.007812 79.484375 97.960938 C 79.460938 97.941406 79.4375 97.921875 79.402344 97.894531 C 79.394531 97.886719 79.421875 97.910156 79.40625 97.898438 M 81.15625 97.257812 C 81.398438 97.605469 81.3125 98.085938 80.960938 98.332031 C 80.613281 98.574219 80.132812 98.488281 79.886719 98.136719 C 79.882812 98.128906 79.878906 98.121094 79.871094 98.113281 C 79.882812 98.132812 79.863281 98.105469 79.851562 98.082031 C 79.863281 98.101562 79.855469 98.09375 79.851562 98.089844 C 79.78125 98.015625 79.730469 97.953125 79.671875 97.855469 C 79.644531 97.820312 79.613281 97.746094 79.601562 97.710938 C 79.539062 97.515625 79.460938 97.324219 79.65625 97.003906 C 79.875 96.640625 80.351562 96.523438 80.714844 96.742188 C 81.078125 96.960938 81.195312 97.4375 80.976562 97.800781 C 80.925781 97.882812 81.082031 97.507812 81.066406 97.574219 C 81.046875 97.667969 81.078125 97.296875 81.082031 97.351562 C 81.085938 97.40625 81.050781 97.191406 81.0625 97.226562 C 81.035156 97.148438 80.933594 96.972656 80.96875 97.023438 C 81.023438 97.109375 80.960938 97.015625 80.964844 97.019531 C 81.03125 97.089844 81.085938 97.160156 81.113281 97.195312 C 81.144531 97.242188 81.09375 97.175781 81.121094 97.207031 C 81.171875 97.28125 81.152344 97.25 81.15625 97.257812 "/>
<path style=" stroke:none;fill-rule:nonzero;fill:rgb(7.058716%,1.176453%,46.665955%);fill-opacity:1;" d="M 74.773438 93.625 C 74.515625 93.28125 74.585938 92.796875 74.925781 92.542969 C 75.269531 92.289062 75.75 92.355469 76.007812 92.699219 L 80.800781 99.101562 C 81.058594 99.441406 80.988281 99.925781 80.648438 100.183594 C 80.304688 100.4375 79.820312 100.367188 79.566406 100.027344 Z M 74.773438 93.625 "/>
<path style=" stroke:none;fill-rule:nonzero;fill:rgb(92.941284%,21.176147%,14.117432%);fill-opacity:1;" d="M 128.136719 104.929688 C 128.320312 105.3125 128.152344 105.773438 127.769531 105.953125 C 127.382812 106.136719 126.921875 105.972656 126.742188 105.585938 C 126.730469 105.558594 126.914062 105.773438 126.847656 105.71875 C 126.785156 105.664062 127.339844 105.867188 127.1875 105.859375 C 127.121094 105.851562 127.464844 105.820312 127.386719 105.839844 C 127.3125 105.859375 127.664062 105.691406 127.601562 105.738281 C 127.550781 105.777344 127.785156 105.539062 127.753906 105.585938 C 127.722656 105.628906 127.820312 105.449219 127.8125 105.476562 C 127.792969 105.523438 127.828125 105.410156 127.828125 105.417969 C 127.828125 105.433594 127.828125 105.46875 127.828125 105.519531 C 127.839844 105.757812 127.914062 106.179688 128.019531 106.691406 C 128.257812 107.828125 128.558594 109.339844 128.632812 110.902344 C 128.660156 111.496094 128.679688 112.09375 128.632812 112.675781 C 128.53125 113.890625 128.070312 114.800781 127.667969 115.332031 C 127.570312 115.457031 127.484375 115.558594 127.378906 115.652344 C 127.316406 115.707031 127.257812 115.757812 127.121094 115.820312 C 127.042969 115.855469 126.929688 115.90625 126.726562 115.890625 C 126.503906 115.871094 126.195312 115.679688 126.085938 115.449219 C 125.890625 115.050781 126.023438 114.898438 126.058594 114.800781 C 126.09375 114.707031 126.128906 114.644531 126.167969 114.578125 C 126.242188 114.449219 126.339844 114.3125 126.46875 114.148438 C 126.734375 113.816406 127.21875 113.757812 127.554688 114.023438 C 127.886719 114.285156 127.945312 114.773438 127.679688 115.105469 C 127.582031 115.230469 127.519531 115.320312 127.5 115.359375 C 127.492188 115.371094 127.527344 115.289062 127.511719 115.328125 C 127.5 115.355469 127.550781 115.121094 127.542969 115.195312 C 127.539062 115.234375 127.539062 114.972656 127.546875 115.039062 C 127.550781 115.109375 127.421875 114.671875 127.472656 114.777344 C 127.527344 114.882812 127.082031 114.390625 127.203125 114.472656 C 127.308594 114.539062 126.792969 114.339844 126.890625 114.355469 C 126.96875 114.363281 126.632812 114.363281 126.6875 114.355469 C 126.777344 114.34375 126.457031 114.425781 126.496094 114.410156 C 126.554688 114.382812 126.371094 114.480469 126.390625 114.46875 C 126.410156 114.457031 126.355469 114.496094 126.363281 114.492188 C 126.363281 114.488281 126.390625 114.460938 126.4375 114.398438 C 126.667969 114.09375 127.019531 113.425781 127.09375 112.550781 C 127.132812 112.082031 127.117188 111.542969 127.089844 110.976562 C 127.023438 109.558594 126.742188 108.121094 126.511719 107.007812 C 126.398438 106.46875 126.304688 106.003906 126.289062 105.59375 C 126.277344 105.390625 126.273438 105.1875 126.367188 104.929688 C 126.421875 104.789062 126.515625 104.625 126.691406 104.496094 C 126.878906 104.359375 127.121094 104.300781 127.316406 104.320312 C 127.527344 104.335938 127.714844 104.429688 127.847656 104.542969 C 127.988281 104.664062 128.074219 104.796875 128.136719 104.929688 "/>
<path style=" stroke:none;fill-rule:nonzero;fill:rgb(92.941284%,21.176147%,14.117432%);fill-opacity:1;" d="M 128.414062 113.238281 C 128.140625 113.5625 127.652344 113.605469 127.328125 113.332031 C 127 113.058594 126.957031 112.574219 127.230469 112.246094 C 127.882812 111.46875 128.882812 111.261719 129.804688 111.011719 C 130.710938 110.765625 131.550781 110.511719 131.71875 110.367188 C 132.046875 110.09375 132.53125 110.136719 132.804688 110.460938 C 133.082031 110.789062 133.039062 111.273438 132.714844 111.546875 C 132.019531 112.132812 131.09375 112.261719 130.207031 112.503906 C 129.332031 112.738281 128.570312 113.050781 128.414062 113.238281 "/>
<path style=" stroke:none;fill-rule:nonzero;fill:rgb(92.941284%,21.176147%,14.117432%);fill-opacity:1;" d="M 131.09375 104.257812 C 131.421875 103.988281 131.910156 104.035156 132.179688 104.367188 C 132.445312 104.699219 132.398438 105.183594 132.066406 105.453125 C 131.851562 105.628906 131.914062 105.503906 131.921875 105.832031 C 131.933594 106.203125 131.917969 106.605469 131.964844 107.09375 C 132.035156 107.808594 132.21875 108.75 132.324219 109.78125 C 132.414062 110.640625 132.390625 111.484375 132.390625 112.253906 C 132.394531 113.007812 132.410156 113.71875 132.390625 114.355469 C 132.363281 115.300781 132.25 115.992188 132.257812 116.191406 C 132.257812 116.207031 132.253906 116.183594 132.257812 116.195312 C 132.257812 116.210938 132.203125 116.058594 132.226562 116.101562 C 132.246094 116.152344 132.035156 115.871094 132.097656 115.929688 C 132.160156 115.988281 131.800781 115.773438 131.875 115.796875 C 131.945312 115.820312 131.691406 115.769531 131.722656 115.769531 C 131.796875 115.769531 131.726562 115.769531 131.871094 115.710938 C 132.269531 115.558594 132.714844 115.753906 132.871094 116.148438 C 133.027344 116.546875 132.832031 116.992188 132.433594 117.148438 C 132.136719 117.265625 131.851562 117.414062 131.394531 117.261719 C 131.140625 117.179688 130.921875 116.957031 130.824219 116.753906 C 130.734375 116.558594 130.71875 116.398438 130.714844 116.253906 C 130.691406 115.710938 130.820312 115.148438 130.847656 114.304688 C 130.867188 113.730469 130.847656 113.027344 130.847656 112.253906 C 130.847656 111.46875 130.863281 110.675781 130.789062 109.9375 C 130.691406 108.988281 130.507812 108.066406 130.429688 107.242188 C 130.371094 106.652344 130.386719 106.179688 130.378906 105.871094 C 130.363281 105.324219 130.609375 104.648438 131.09375 104.257812 "/>
<path style=" stroke:none;fill-rule:nonzero;fill:rgb(92.941284%,21.176147%,14.117432%);fill-opacity:1;" d="M 139.507812 105.890625 C 139.757812 106.238281 139.675781 106.722656 139.328125 106.96875 C 138.980469 107.214844 138.5 107.132812 138.25 106.785156 C 138.230469 106.753906 138.59375 106.863281 138.503906 106.878906 C 138.441406 106.890625 138.507812 106.867188 138.390625 107.03125 C 138.257812 107.226562 138.082031 107.679688 137.902344 108.308594 C 137.785156 108.71875 137.660156 109.164062 137.558594 109.65625 C 137.402344 110.40625 137.28125 111.269531 137.207031 112.089844 C 137.136719 112.859375 137.101562 113.546875 137.164062 114.070312 C 137.261719 114.890625 137.582031 115.210938 137.996094 115.378906 C 138.429688 115.554688 139.050781 115.53125 139.597656 115.371094 C 140.007812 115.253906 140.433594 115.488281 140.554688 115.898438 C 140.671875 116.308594 140.4375 116.734375 140.027344 116.855469 C 139.238281 117.082031 138.300781 117.164062 137.417969 116.808594 C 136.519531 116.449219 135.78125 115.515625 135.628906 114.253906 C 135.542969 113.53125 135.597656 112.757812 135.667969 111.949219 C 135.746094 111.074219 135.875 110.164062 136.046875 109.339844 C 136.164062 108.785156 136.300781 108.300781 136.417969 107.886719 C 136.613281 107.203125 136.792969 106.625 137.125 106.152344 C 137.402344 105.753906 137.777344 105.4375 138.25 105.355469 C 138.730469 105.277344 139.246094 105.523438 139.507812 105.890625 "/>
<path style=" stroke:none;fill-rule:nonzero;fill:rgb(92.941284%,21.176147%,14.117432%);fill-opacity:1;" d="M 145.390625 108.578125 C 145.722656 108.84375 145.777344 109.332031 145.507812 109.664062 C 145.242188 109.996094 144.757812 110.046875 144.425781 109.78125 C 144.246094 109.636719 144.214844 109.621094 144.066406 109.644531 C 143.855469 109.675781 143.425781 109.90625 143.160156 110.246094 C 143.007812 110.4375 142.914062 110.660156 142.898438 110.859375 C 142.878906 111.078125 142.953125 111.332031 143.292969 111.613281 C 143.574219 111.839844 144.238281 112.046875 144.925781 112.285156 C 145.515625 112.488281 146.070312 112.652344 146.539062 112.859375 C 146.882812 113.011719 147.246094 113.136719 147.460938 113.640625 C 147.625 114.019531 147.496094 114.402344 147.351562 114.613281 C 147.214844 114.816406 147.050781 114.953125 146.878906 115.0625 C 146.269531 115.457031 145.640625 115.425781 145.097656 115.480469 C 144.363281 115.554688 143.628906 115.613281 142.953125 115.421875 C 142.609375 115.324219 142.214844 115.128906 141.996094 114.707031 C 141.777344 114.277344 141.859375 113.78125 142.042969 113.386719 C 142.226562 113 142.683594 112.835938 143.070312 113.015625 C 143.457031 113.195312 143.621094 113.65625 143.441406 114.042969 C 143.40625 114.113281 143.40625 114.132812 143.402344 114.140625 C 143.402344 114.160156 143.34375 113.945312 143.371094 114.003906 C 143.398438 114.058594 143.285156 113.902344 143.292969 113.90625 C 143.296875 113.910156 143.316406 113.921875 143.371094 113.9375 C 143.652344 114.015625 144.277344 114.011719 144.941406 113.945312 C 145.5 113.886719 146.007812 113.789062 146.042969 113.765625 C 146.082031 113.738281 146.046875 113.789062 146.070312 113.753906 C 146.089844 113.726562 145.992188 113.996094 146.007812 113.910156 C 146.027344 113.820312 146.097656 114.371094 146.046875 114.253906 C 146.019531 114.1875 146.140625 114.394531 146.125 114.375 C 146.089844 114.339844 146.074219 114.34375 145.917969 114.273438 C 145.582031 114.125 145.039062 113.953125 144.425781 113.746094 C 143.789062 113.527344 142.980469 113.351562 142.316406 112.808594 C 141.644531 112.257812 141.292969 111.464844 141.359375 110.71875 C 141.410156 110.175781 141.632812 109.691406 141.945312 109.296875 C 142.449219 108.652344 143.125 108.226562 143.839844 108.117188 C 144.449219 108.027344 145.023438 108.28125 145.390625 108.578125 "/>
<path style=" stroke:none;fill-rule:nonzero;fill:rgb(92.941284%,21.176147%,14.117432%);fill-opacity:1;" d="M 148.21875 103.488281 C 148.445312 103.847656 148.339844 104.324219 147.976562 104.554688 C 147.617188 104.78125 147.140625 104.671875 146.914062 104.3125 C 146.804688 104.144531 146.734375 103.957031 146.710938 103.746094 C 146.6875 103.523438 146.714844 103.238281 146.925781 102.984375 C 147.089844 102.789062 147.339844 102.691406 147.535156 102.679688 C 147.691406 102.664062 147.8125 102.691406 147.917969 102.722656 C 148.125 102.785156 148.285156 102.878906 148.453125 102.992188 C 148.796875 103.222656 149.171875 103.554688 149.574219 103.992188 C 150.324219 104.808594 151.195312 105.921875 151.867188 107.292969 C 152.265625 108.113281 152.589844 109.015625 152.78125 109.984375 C 152.988281 111.039062 152.96875 112.136719 152.875 113.210938 C 152.789062 114.140625 152.597656 114.984375 152.351562 115.71875 C 152.042969 116.636719 151.621094 117.351562 151.1875 117.914062 C 150.582031 118.703125 150.011719 119.296875 149.550781 119.753906 C 149.164062 120.136719 148.945312 120.570312 148.421875 121.046875 C 148.109375 121.335938 147.621094 121.3125 147.332031 121 C 147.042969 120.683594 147.066406 120.195312 147.378906 119.910156 C 147.699219 119.617188 147.925781 119.191406 148.464844 118.660156 C 148.898438 118.226562 149.414062 117.691406 149.964844 116.972656 C 150.3125 116.523438 150.636719 115.972656 150.886719 115.226562 C 151.097656 114.601562 151.265625 113.875 151.335938 113.074219 C 151.425781 112.082031 151.433594 111.125 151.265625 110.28125 C 151.105469 109.457031 150.828125 108.683594 150.480469 107.96875 C 149.894531 106.777344 149.117188 105.773438 148.441406 105.039062 C 148.101562 104.671875 147.796875 104.410156 147.59375 104.277344 C 147.507812 104.21875 147.496094 104.207031 147.472656 104.203125 C 147.457031 104.195312 147.769531 104.207031 147.65625 104.214844 C 147.574219 104.222656 147.957031 104.117188 147.871094 104.15625 C 147.785156 104.199219 148.179688 103.890625 148.113281 103.972656 C 148.039062 104.058594 148.25 103.660156 148.234375 103.730469 C 148.21875 103.796875 148.242188 103.546875 148.246094 103.582031 C 148.25 103.644531 148.210938 103.480469 148.21875 103.488281 "/>
<path style=" stroke:none;fill-rule:nonzero;fill:rgb(7.058716%,1.176453%,46.665955%);fill-opacity:1;" d="M 85.480469 87.652344 C 85.894531 87.742188 86.160156 88.152344 86.074219 88.566406 C 85.984375 88.984375 85.574219 89.25 85.15625 89.160156 C 84.863281 89.097656 84.636719 88.980469 84.382812 88.789062 C 84.246094 88.6875 84.0625 88.574219 83.933594 88.234375 C 83.851562 88.011719 83.878906 87.765625 83.949219 87.597656 C 84.015625 87.4375 84.101562 87.339844 84.183594 87.261719 C 84.332031 87.117188 84.488281 87.039062 84.652344 86.980469 C 85.265625 86.761719 85.851562 86.871094 86.570312 86.945312 C 87.308594 87.019531 88.140625 87.128906 88.964844 87.167969 C 89.789062 87.210938 90.542969 87.207031 91.121094 87.191406 C 91.445312 87.183594 91.71875 87.152344 91.792969 87.136719 C 91.804688 87.136719 91.648438 87.195312 91.722656 87.164062 C 91.722656 87.164062 91.5625 87.253906 91.605469 87.226562 C 91.640625 87.203125 91.414062 87.410156 91.46875 87.347656 C 91.515625 87.296875 91.285156 87.679688 91.328125 87.574219 C 91.363281 87.492188 91.273438 87.976562 91.273438 87.867188 C 91.273438 87.703125 91.480469 88.398438 91.410156 88.292969 C 91.339844 88.195312 91.65625 88.523438 91.601562 88.484375 C 91.519531 88.429688 91.820312 88.59375 91.78125 88.578125 C 91.71875 88.554688 91.910156 88.609375 91.894531 88.605469 C 91.851562 88.601562 91.898438 88.605469 91.835938 88.605469 C 91.410156 88.605469 91.066406 88.261719 91.066406 87.835938 C 91.066406 87.410156 91.410156 87.0625 91.835938 87.0625 C 91.984375 87.0625 91.96875 86.859375 92.484375 87.21875 C 92.574219 87.28125 92.71875 87.40625 92.789062 87.644531 C 92.894531 88.019531 92.675781 88.332031 92.5625 88.4375 C 92.460938 88.523438 92.402344 88.546875 92.359375 88.570312 C 92.226562 88.625 92.167969 88.636719 92.105469 88.648438 C 91.863281 88.699219 91.550781 88.726562 91.15625 88.734375 C 90.554688 88.75 89.765625 88.753906 88.886719 88.710938 C 87.097656 88.621094 85.328125 88.378906 85.171875 88.433594 C 85.164062 88.433594 85.304688 88.324219 85.25 88.378906 C 85.210938 88.414062 85.417969 88.089844 85.371094 88.195312 C 85.351562 88.246094 85.425781 87.882812 85.421875 87.96875 C 85.417969 88.058594 85.347656 87.605469 85.378906 87.695312 C 85.417969 87.796875 85.277344 87.523438 85.289062 87.539062 C 85.296875 87.546875 85.292969 87.539062 85.316406 87.558594 C 85.378906 87.605469 85.425781 87.640625 85.480469 87.652344 "/>
<path style=" stroke:none;fill-rule:nonzero;fill:rgb(7.058716%,1.176453%,46.665955%);fill-opacity:1;" d="M 193.484375 93.160156 L 193.484375 130.421875 L 230.746094 130.421875 L 230.746094 93.160156 Z M 192.714844 91.617188 L 231.519531 91.617188 C 231.945312 91.617188 232.289062 91.964844 232.289062 92.390625 L 232.289062 131.195312 C 232.289062 131.621094 231.945312 131.964844 231.519531 131.964844 L 192.714844 131.964844 C 192.285156 131.964844 191.941406 131.621094 191.941406 131.195312 L 191.941406 92.390625 C 191.941406 91.964844 192.285156 91.617188 192.714844 91.617188 "/>
<path style=" stroke:none;fill-rule:nonzero;fill:rgb(7.058716%,1.176453%,46.665955%);fill-opacity:1;" d="M 193.484375 38.980469 L 193.484375 76.242188 L 230.746094 76.242188 L 230.746094 38.980469 Z M 192.714844 37.4375 L 231.519531 37.4375 C 231.945312 37.4375 232.289062 37.785156 232.289062 38.210938 L 232.289062 77.015625 C 232.289062 77.441406 231.945312 77.785156 231.519531 77.785156 L 192.714844 77.785156 C 192.285156 77.785156 191.941406 77.441406 191.941406 77.015625 L 191.941406 38.210938 C 191.941406 37.785156 192.285156 37.4375 192.714844 37.4375 "/>
<path style=" stroke:none;fill-rule:nonzero;fill:rgb(7.058716%,1.176453%,46.665955%);fill-opacity:1;" d="M 272.785156 109.792969 C 273.210938 109.792969 273.554688 110.136719 273.554688 110.5625 C 273.554688 110.988281 273.210938 111.335938 272.785156 111.335938 L 232.773438 111.335938 C 232.347656 111.335938 232.003906 110.988281 232.003906 110.5625 C 232.003906 110.136719 232.347656 109.792969 232.773438 109.792969 Z M 272.785156 109.792969 "/>
<path style=" stroke:none;fill-rule:nonzero;fill:rgb(7.058716%,1.176453%,46.665955%);fill-opacity:1;" d="M 272.785156 56.839844 C 273.210938 56.839844 273.554688 57.1875 273.554688 57.613281 C 273.554688 58.039062 273.210938 58.382812 272.785156 58.382812 L 232.773438 58.382812 C 232.347656 58.382812 232.003906 58.039062 232.003906 57.613281 C 232.003906 57.1875 232.347656 56.839844 232.773438 56.839844 Z M 272.785156 56.839844 "/>
<path style=" stroke:none;fill-rule:nonzero;fill:rgb(7.058716%,1.176453%,46.665955%);fill-opacity:1;" d="M 272.785156 111.335938 C 272.359375 111.335938 272.011719 110.988281 272.011719 110.5625 C 272.011719 110.136719 272.359375 109.792969 272.785156 109.792969 L 325.402344 109.792969 C 325.828125 109.792969 326.171875 110.136719 326.171875 110.5625 C 326.171875 110.988281 325.828125 111.335938 325.402344 111.335938 Z M 272.785156 111.335938 "/>
<path style=" stroke:none;fill-rule:nonzero;fill:rgb(7.058716%,1.176453%,46.665955%);fill-opacity:1;" d="M 201.480469 112.53125 C 201.886719 112.667969 202.105469 113.105469 201.96875 113.507812 C 201.832031 113.914062 201.394531 114.132812 200.992188 113.996094 C 200.277344 113.757812 199.707031 113.191406 199.453125 112.492188 C 199.195312 111.785156 199.242188 110.945312 199.578125 110.136719 C 200.105469 108.859375 201.183594 107.753906 202.128906 106.828125 C 203.097656 105.878906 204.105469 105.097656 205.320312 104.824219 C 206.269531 104.609375 207.171875 104.867188 207.914062 105.246094 C 208.304688 105.445312 208.808594 105.632812 209.324219 106.042969 C 210.035156 106.609375 210.6875 107.515625 211.21875 108.417969 C 212.136719 109.972656 212.519531 111.773438 213.058594 113.671875 C 213.34375 114.679688 213.605469 115.519531 214.007812 116.207031 C 214.367188 116.828125 214.78125 117.320312 215.222656 117.636719 C 215.648438 117.941406 216.089844 118.089844 216.578125 118.066406 C 217.375 118.023438 218.199219 117.402344 219.238281 116.054688 C 220.246094 114.746094 221.152344 112.707031 221.492188 110.949219 C 221.753906 109.601562 221.789062 108.359375 221.9375 107.257812 C 222.007812 106.742188 221.996094 106.214844 222.1875 105.652344 C 222.386719 105.0625 222.972656 104.507812 223.726562 104.339844 C 224.144531 104.25 224.554688 104.511719 224.648438 104.929688 C 224.738281 105.34375 224.476562 105.757812 224.058594 105.847656 C 223.703125 105.925781 223.714844 105.957031 223.648438 106.144531 C 223.570312 106.378906 223.550781 106.855469 223.46875 107.464844 C 223.332031 108.453125 223.296875 109.757812 223.007812 111.242188 C 222.613281 113.269531 221.652344 115.445312 220.460938 116.996094 C 219.316406 118.484375 218.121094 119.53125 216.660156 119.605469 C 215.800781 119.648438 214.984375 119.367188 214.320312 118.890625 C 213.65625 118.410156 213.113281 117.742188 212.671875 116.980469 C 212.15625 116.09375 211.867188 115.128906 211.574219 114.089844 C 211.027344 112.15625 210.644531 110.476562 209.890625 109.203125 C 209.425781 108.417969 208.785156 107.585938 208.363281 107.25 C 208.050781 107 207.6875 106.859375 207.214844 106.621094 C 206.664062 106.339844 206.152344 106.214844 205.664062 106.328125 C 204.871094 106.507812 204.085938 107.074219 203.207031 107.933594 C 202.308594 108.808594 201.367188 109.847656 201.003906 110.726562 C 200.789062 111.238281 200.792969 111.664062 200.902344 111.964844 C 201.003906 112.246094 201.199219 112.4375 201.480469 112.53125 "/>
<path style=" stroke:none;fill-rule:nonzero;fill:rgb(7.058716%,1.176453%,46.665955%);fill-opacity:1;" d="M 202.269531 50.152344 C 202.6875 50.234375 202.957031 50.640625 202.875 51.058594 C 202.789062 51.476562 202.382812 51.746094 201.964844 51.664062 C 201.785156 51.628906 201.585938 51.582031 201.371094 51.457031 C 201.160156 51.332031 201.058594 51.171875 201.003906 51.085938 C 200.980469 51.042969 200.964844 51.019531 200.960938 51.011719 C 200.960938 51.007812 201.035156 51.105469 201 51.0625 C 200.75 50.757812 200.796875 50.519531 200.800781 50.421875 C 200.804688 50.375 200.804688 50.375 200.804688 50.363281 C 200.804688 50.355469 200.808594 50.460938 200.808594 50.425781 C 200.804688 50.386719 200.886719 50.707031 200.851562 50.617188 C 200.695312 50.21875 200.894531 49.773438 201.289062 49.617188 C 201.6875 49.464844 202.132812 49.65625 202.289062 50.050781 C 202.429688 50.410156 202.304688 50.601562 202.257812 50.691406 C 202.21875 50.769531 202.191406 50.804688 202.167969 50.832031 C 202.128906 50.882812 202.101562 50.90625 202.082031 50.929688 C 202.039062 50.976562 202 51.011719 201.960938 51.050781 C 201.886719 51.125 201.816406 51.207031 201.808594 51.226562 C 201.773438 51.285156 201.84375 51.035156 201.847656 51.074219 C 201.851562 51.117188 201.699219 50.808594 201.769531 50.894531 C 201.847656 50.992188 201.441406 50.679688 201.515625 50.707031 C 201.582031 50.734375 201.355469 50.675781 201.382812 50.675781 C 201.417969 50.679688 201.367188 50.675781 201.414062 50.667969 C 201.519531 50.640625 201.683594 50.578125 201.800781 50.515625 C 201.890625 50.464844 201.894531 50.484375 201.921875 50.429688 C 201.949219 50.375 201.882812 50.75 201.878906 50.65625 C 201.875 50.5625 202.042969 51.035156 201.980469 50.945312 C 201.917969 50.859375 202.28125 51.152344 202.203125 51.125 C 202.136719 51.09375 202.382812 51.148438 202.355469 51.152344 C 202.34375 51.152344 202.15625 51.222656 201.960938 51.355469 C 201.957031 51.359375 201.96875 51.320312 201.957031 51.347656 C 201.808594 51.746094 201.363281 51.949219 200.964844 51.796875 C 200.566406 51.648438 200.363281 51.203125 200.515625 50.804688 C 200.621094 50.523438 200.808594 50.273438 201.089844 50.082031 C 201.398438 49.871094 201.753906 49.640625 202.265625 49.609375 C 202.597656 49.589844 202.996094 49.71875 203.230469 50.039062 C 203.460938 50.359375 203.460938 50.789062 203.3125 51.097656 C 203.140625 51.460938 202.863281 51.695312 202.53125 51.871094 C 202.304688 51.996094 202.046875 52.101562 201.765625 52.167969 C 201.625 52.203125 201.472656 52.230469 201.289062 52.21875 C 201.089844 52.207031 200.796875 52.144531 200.570312 51.867188 C 200.394531 51.652344 200.324219 51.417969 200.308594 51.179688 C 200.289062 50.941406 200.335938 50.6875 200.476562 50.445312 C 200.609375 50.222656 200.753906 50.074219 200.863281 49.964844 C 200.917969 49.910156 200.960938 49.871094 200.976562 49.851562 C 200.980469 49.847656 200.925781 49.914062 200.953125 49.882812 C 200.96875 49.859375 200.84375 50.070312 200.878906 49.996094 C 200.898438 49.957031 200.796875 50.273438 200.816406 50.183594 C 200.824219 50.136719 200.800781 50.4375 200.800781 50.363281 C 200.796875 50.289062 200.890625 50.710938 200.851562 50.621094 L 202.289062 50.054688 C 202.433594 50.421875 202.34375 50.472656 202.34375 50.480469 C 202.34375 50.484375 202.328125 50.339844 202.335938 50.398438 C 202.34375 50.429688 202.28125 50.21875 202.300781 50.269531 C 202.324219 50.324219 202.144531 50.023438 202.195312 50.089844 C 202.304688 50.222656 202.324219 50.285156 202.328125 50.289062 C 202.328125 50.292969 202.261719 50.210938 202.289062 50.238281 C 202.316406 50.273438 202.082031 50.085938 202.148438 50.125 C 202.183594 50.144531 202.164062 50.128906 202.269531 50.152344 "/>
<path style=" stroke:none;fill-rule:nonzero;fill:rgb(7.058716%,1.176453%,46.665955%);fill-opacity:1;" d="M 198.597656 56.089844 C 199.023438 56.101562 199.359375 56.453125 199.351562 56.878906 C 199.339844 57.304688 198.988281 57.644531 198.5625 57.632812 C 198.429688 57.628906 198.316406 57.617188 198.199219 57.59375 C 198.152344 57.585938 198.105469 57.578125 198.011719 57.542969 C 197.964844 57.527344 197.910156 57.507812 197.820312 57.441406 C 197.472656 57.1875 197.398438 56.707031 197.648438 56.363281 C 197.902344 56.019531 198.382812 55.941406 198.726562 56.195312 C 198.816406 56.257812 198.53125 56.089844 198.5625 56.101562 C 198.625 56.125 198.476562 56.078125 198.480469 56.078125 C 198.511719 56.082031 198.582031 56.089844 198.597656 56.089844 M 198.84375 57.328125 C 198.554688 57.644531 198.066406 57.667969 197.753906 57.382812 C 197.4375 57.09375 197.414062 56.605469 197.699219 56.289062 C 198.023438 55.933594 198.109375 56.050781 198.175781 56.039062 C 198.234375 56.027344 198.28125 56.023438 198.328125 56.019531 C 198.945312 55.976562 199.921875 56.0625 201.089844 56.019531 C 202.40625 55.96875 203.910156 55.714844 205.191406 55.480469 C 206.277344 55.277344 207.082031 55.035156 207.710938 54.980469 C 207.867188 54.964844 208.027344 54.945312 208.277344 55.027344 C 208.554688 55.121094 208.90625 55.59375 208.871094 55.941406 C 208.8125 56.523438 208.535156 56.671875 208.242188 56.984375 C 207.949219 57.292969 207.460938 57.304688 207.152344 57.015625 C 206.839844 56.722656 206.828125 56.234375 207.121094 55.921875 C 207.242188 55.792969 207.324219 55.695312 207.367188 55.640625 C 207.382812 55.617188 207.375 55.632812 207.378906 55.617188 C 207.390625 55.597656 207.324219 55.894531 207.335938 55.789062 C 207.339844 55.734375 207.367188 56.078125 207.347656 55.996094 C 207.320312 55.871094 207.636719 56.433594 207.546875 56.34375 C 207.457031 56.261719 207.839844 56.511719 207.78125 56.488281 C 207.710938 56.464844 207.902344 56.515625 207.894531 56.511719 C 207.890625 56.511719 207.882812 56.511719 207.851562 56.515625 C 207.511719 56.546875 206.621094 56.785156 205.46875 56.996094 C 204.167969 57.238281 202.609375 57.507812 201.148438 57.5625 C 199.890625 57.609375 198.796875 57.535156 198.441406 57.558594 C 198.421875 57.5625 198.453125 57.554688 198.433594 57.558594 C 198.417969 57.5625 198.5625 57.523438 198.515625 57.539062 C 198.492188 57.546875 198.671875 57.46875 198.625 57.496094 C 198.570312 57.523438 198.933594 57.226562 198.84375 57.328125 "/>
<path style=" stroke:none;fill-rule:nonzero;fill:rgb(7.058716%,1.176453%,46.665955%);fill-opacity:1;" d="M 203.15625 61.730469 C 203.503906 61.976562 203.589844 62.457031 203.34375 62.804688 C 203.097656 63.15625 202.617188 63.238281 202.269531 62.992188 C 202.242188 62.972656 202.566406 63.058594 202.46875 63.054688 C 202.367188 63.050781 202.777344 62.957031 202.722656 62.992188 C 202.667969 63.023438 202.804688 62.917969 202.800781 62.925781 C 202.796875 62.933594 202.796875 62.929688 202.792969 62.941406 C 202.777344 62.984375 202.769531 62.765625 202.789062 62.816406 C 202.792969 62.820312 202.722656 62.726562 202.753906 62.761719 C 202.789062 62.800781 202.566406 62.644531 202.613281 62.664062 C 202.648438 62.675781 202.734375 62.671875 202.902344 62.644531 C 202.960938 62.636719 203.007812 62.550781 203.078125 62.433594 C 203.089844 62.414062 203.023438 62.621094 203.035156 62.554688 C 203.046875 62.484375 203.128906 63 203.074219 62.867188 C 203.042969 62.800781 203.257812 63.121094 203.199219 63.0625 C 203.144531 63.003906 203.453125 63.226562 203.386719 63.195312 C 203.265625 63.140625 203.71875 63.238281 203.664062 63.246094 C 203.664062 63.246094 203.558594 63.285156 203.527344 63.308594 C 203.519531 63.316406 203.617188 63.148438 203.578125 63.230469 C 203.558594 63.273438 203.632812 62.933594 203.628906 63.023438 C 203.625 63.117188 203.519531 62.65625 203.5625 62.738281 C 203.761719 63.117188 203.613281 63.582031 203.234375 63.78125 C 202.859375 63.976562 202.390625 63.828125 202.195312 63.453125 C 202.042969 63.15625 202.078125 62.792969 202.1875 62.566406 C 202.289062 62.351562 202.425781 62.214844 202.5625 62.105469 C 202.828125 61.894531 203.121094 61.757812 203.472656 61.710938 C 203.640625 61.691406 203.835938 61.703125 204.03125 61.792969 C 204.234375 61.886719 204.414062 62.070312 204.496094 62.273438 C 204.660156 62.664062 204.542969 63 204.394531 63.238281 C 204.195312 63.566406 203.855469 64.054688 203.144531 64.167969 C 202.839844 64.21875 202.476562 64.265625 202.054688 64.101562 C 201.683594 63.957031 201.449219 63.621094 201.351562 63.375 C 201.226562 63.054688 201.230469 62.710938 201.351562 62.390625 C 201.449219 62.132812 201.605469 61.863281 201.925781 61.671875 C 202.265625 61.464844 202.816406 61.492188 203.15625 61.730469 "/>
<path style=" stroke:none;fill-rule:nonzero;fill:rgb(7.058716%,1.176453%,46.665955%);fill-opacity:1;" d="M 213.085938 61.34375 C 213.097656 61.769531 212.757812 62.125 212.332031 62.132812 C 211.90625 62.144531 211.554688 61.804688 211.542969 61.378906 C 211.53125 60.902344 211.472656 60.257812 211.785156 59.457031 C 211.988281 58.933594 212.308594 58.433594 212.644531 57.839844 C 213.097656 57.03125 213.628906 56.082031 214.054688 55.078125 C 214.414062 54.238281 214.648438 53.328125 214.820312 52.566406 C 214.898438 52.214844 214.941406 51.898438 214.964844 51.65625 C 214.984375 51.433594 214.953125 51.453125 215 51.160156 L 216.523438 51.421875 C 216.507812 51.503906 216.53125 51.359375 216.53125 51.382812 C 216.527344 51.476562 216.527344 51.699219 216.535156 52.011719 C 216.546875 52.800781 216.75 54.261719 217.085938 55.625 C 217.535156 57.464844 218.394531 58.851562 218.890625 59.101562 C 219.035156 59.175781 219.089844 59.175781 219.28125 59.035156 C 219.503906 58.871094 219.789062 58.488281 220.015625 57.929688 C 220.203125 57.464844 220.363281 56.898438 220.46875 56.253906 C 220.679688 54.984375 220.675781 53.363281 220.695312 51.925781 C 220.707031 50.65625 220.652344 49.75 220.894531 49.03125 C 220.957031 48.84375 221.050781 48.613281 221.324219 48.425781 C 221.609375 48.230469 222.035156 48.25 222.273438 48.359375 C 222.71875 48.5625 222.925781 48.882812 223.214844 49.292969 C 223.460938 49.640625 223.378906 50.121094 223.03125 50.367188 C 222.683594 50.613281 222.203125 50.53125 221.957031 50.183594 C 221.835938 50.011719 221.734375 49.886719 221.660156 49.808594 C 221.597656 49.742188 221.699219 49.792969 221.628906 49.761719 C 221.585938 49.742188 221.96875 49.804688 221.859375 49.808594 C 221.746094 49.808594 222.28125 49.640625 222.191406 49.703125 C 222.109375 49.761719 222.363281 49.515625 222.34375 49.550781 C 222.324219 49.582031 222.363281 49.511719 222.359375 49.523438 C 222.292969 49.722656 222.253906 50.675781 222.238281 51.941406 C 222.222656 53.375 222.234375 55.046875 221.992188 56.507812 C 221.867188 57.253906 221.679688 57.925781 221.445312 58.507812 C 221.144531 59.25 220.75 59.871094 220.199219 60.277344 C 219.648438 60.683594 218.839844 60.808594 218.191406 60.476562 C 216.867188 59.804688 216.089844 58.058594 215.585938 55.992188 C 215.226562 54.523438 215.003906 53.027344 214.992188 52.035156 C 214.984375 51.613281 214.949219 51.476562 215 51.160156 C 215.074219 50.742188 215.472656 50.457031 215.890625 50.53125 C 216.3125 50.601562 216.59375 51 216.523438 51.417969 C 216.511719 51.492188 216.53125 51.347656 216.53125 51.347656 C 216.523438 51.460938 216.507812 52.105469 216.324219 52.910156 C 216.144531 53.710938 215.894531 54.703125 215.476562 55.683594 C 215.007812 56.78125 214.449219 57.777344 213.988281 58.597656 C 213.640625 59.21875 213.347656 59.699219 213.222656 60.019531 C 213.023438 60.535156 213.074219 60.789062 213.085938 61.34375 "/>
<path style=" stroke:none;fill-rule:nonzero;fill:rgb(0%,45.097351%,23.136902%);fill-opacity:1;" d="M 306.339844 85.699219 C 306.464844 86.25 306.117188 86.804688 305.5625 86.929688 C 305.007812 87.054688 304.457031 86.707031 304.332031 86.152344 C 304.179688 85.484375 304.433594 85.070312 304.652344 84.660156 C 304.871094 84.242188 305.160156 83.816406 305.492188 83.351562 C 306.175781 82.402344 307.015625 81.34375 307.773438 80.265625 C 308.710938 78.945312 309.40625 77.625 309.824219 76.226562 C 310.191406 74.988281 310.222656 73.535156 310.230469 72.226562 C 310.238281 71.558594 310.25 70.980469 310.234375 70.59375 C 310.226562 70.40625 310.265625 70.488281 310.226562 70.398438 C 310.214844 70.371094 310.335938 70.578125 310.296875 70.523438 C 310.257812 70.46875 310.550781 70.753906 310.472656 70.699219 C 310.316406 70.585938 311.117188 70.847656 310.980469 70.851562 C 310.859375 70.859375 311.140625 70.820312 311.125 70.824219 C 311.03125 70.875 310.679688 71.164062 310.304688 71.574219 C 309.625 72.3125 308.785156 73.378906 307.890625 75.019531 C 307.402344 75.910156 306.890625 76.890625 306.445312 78.058594 C 305.988281 79.265625 305.613281 80.710938 305.285156 82.328125 C 304.851562 84.484375 304.621094 86.886719 304.433594 89.078125 C 304.332031 90.296875 304.273438 91.433594 304.226562 92.453125 C 304.128906 94.613281 304.101562 96.121094 304.105469 97.164062 C 304.109375 97.574219 304.105469 97.894531 304.105469 98.152344 C 304.113281 98.582031 304.269531 98.703125 304.101562 99.386719 C 304.066406 99.53125 304.03125 100.003906 303.320312 100.167969 C 302.601562 100.328125 302.34375 99.890625 302.25 99.769531 C 302.101562 99.570312 302.089844 99.492188 302.054688 99.394531 C 301.976562 99.199219 301.890625 98.945312 301.769531 98.570312 C 301.59375 98.03125 301.886719 97.449219 302.425781 97.273438 C 302.96875 97.097656 303.546875 97.390625 303.726562 97.933594 C 303.84375 98.292969 303.925781 98.535156 303.964844 98.640625 C 303.972656 98.65625 303.972656 98.652344 303.976562 98.660156 C 303.980469 98.671875 303.832031 98.449219 303.894531 98.53125 C 303.933594 98.582031 303.542969 98.226562 303.671875 98.316406 C 303.726562 98.355469 303.375 98.171875 303.464844 98.207031 C 303.542969 98.238281 303.070312 98.128906 303.179688 98.136719 C 303.375 98.15625 302.417969 98.359375 302.589844 98.265625 C 302.710938 98.195312 302.25 98.566406 302.3125 98.492188 C 302.402344 98.386719 302.121094 98.820312 302.152344 98.753906 C 302.175781 98.691406 302.09375 98.9375 302.101562 98.902344 C 302.125 98.800781 302.078125 99.0625 302.082031 99.046875 C 302.082031 99.046875 302.054688 98.632812 302.050781 98.171875 C 302.046875 97.878906 302.050781 97.5625 302.050781 97.171875 C 302.046875 96.089844 302.070312 94.550781 302.171875 92.359375 C 302.214844 91.328125 302.277344 90.164062 302.382812 88.90625 C 302.570312 86.691406 302.808594 84.21875 303.269531 81.921875 C 303.609375 80.234375 304.007812 78.6875 304.523438 77.328125 C 305.015625 76.027344 305.582031 74.953125 306.082031 74.035156 C 307.0625 72.242188 308.015625 71.023438 308.789062 70.179688 C 309.382812 69.535156 309.804688 68.851562 310.875 68.796875 C 311.125 68.785156 311.4375 68.855469 311.675781 69.027344 C 311.910156 69.199219 312.042969 69.414062 312.121094 69.597656 C 312.265625 69.9375 312.277344 70.214844 312.289062 70.503906 C 312.308594 71.003906 312.292969 71.589844 312.289062 72.242188 C 312.28125 73.578125 312.269531 75.214844 311.796875 76.8125 C 311.304688 78.46875 310.488281 79.996094 309.457031 81.453125 C 308.65625 82.585938 307.804688 83.65625 307.164062 84.550781 C 306.859375 84.976562 306.613281 85.351562 306.46875 85.625 C 306.402344 85.75 306.363281 85.847656 306.351562 85.886719 C 306.347656 85.898438 306.355469 85.84375 306.351562 85.871094 C 306.347656 85.902344 306.320312 85.613281 306.339844 85.699219 "/>
<path style=" stroke:none;fill-rule:nonzero;fill:rgb(0%,45.097351%,23.136902%);fill-opacity:1;" d="M 299.003906 92.15625 C 299.574219 92.171875 300.023438 92.644531 300.007812 93.210938 C 299.996094 93.777344 299.523438 94.230469 298.957031 94.214844 C 298.605469 94.207031 298.300781 94.210938 298.207031 94.214844 C 298.1875 94.214844 298.195312 94.230469 298.023438 94.207031 C 297.460938 94.128906 297.070312 93.609375 297.148438 93.042969 C 297.226562 92.480469 297.746094 92.089844 298.308594 92.167969 C 298.402344 92.179688 298.148438 92.15625 298.167969 92.15625 C 298.1875 92.15625 298.121094 92.160156 298.128906 92.160156 C 298.289062 92.152344 298.609375 92.148438 299.003906 92.15625 M 298.519531 94.152344 C 297.984375 94.347656 297.394531 94.070312 297.199219 93.539062 C 297.003906 93.003906 297.28125 92.414062 297.816406 92.21875 C 298.320312 92.035156 298.066406 92.160156 298.113281 92.15625 C 298.160156 92.148438 298.226562 92.140625 298.308594 92.132812 C 298.5 92.109375 298.773438 92.078125 299.109375 92.035156 C 299.824219 91.949219 300.773438 91.828125 301.828125 91.675781 C 303.996094 91.359375 306.425781 90.949219 307.972656 90.453125 C 308.511719 90.28125 309.089844 90.582031 309.265625 91.121094 C 309.4375 91.664062 309.136719 92.242188 308.597656 92.414062 C 306.804688 92.988281 304.335938 93.390625 302.125 93.710938 C 301.050781 93.867188 300.085938 93.988281 299.359375 94.078125 C 299.019531 94.121094 298.742188 94.152344 298.546875 94.175781 C 298.46875 94.1875 298.40625 94.191406 298.363281 94.199219 C 298.34375 94.199219 298.328125 94.203125 298.320312 94.203125 C 298.320312 94.203125 298.335938 94.203125 298.328125 94.203125 C 298.324219 94.203125 298.371094 94.195312 298.355469 94.199219 C 298.335938 94.199219 298.660156 94.101562 298.519531 94.152344 "/>
<path style=" stroke:none;fill-rule:nonzero;fill:rgb(0%,45.097351%,23.136902%);fill-opacity:1;" d="M 314.347656 90.171875 C 314.847656 89.898438 315.472656 90.082031 315.746094 90.578125 C 316.019531 91.078125 315.835938 91.703125 315.339844 91.976562 C 314.777344 92.28125 314.386719 92.453125 314.046875 92.75 C 313.804688 92.964844 313.535156 93.289062 313.257812 93.75 C 312.851562 94.421875 312.476562 95.320312 312.261719 96.203125 C 312.136719 96.695312 312.109375 97.21875 312.140625 97.671875 C 312.167969 98.117188 312.335938 98.332031 312.6875 98.507812 C 313.101562 98.714844 313.855469 98.796875 314.703125 98.679688 C 315.53125 98.566406 316.460938 98.203125 317.292969 97.699219 C 318.371094 97.050781 319.160156 96.089844 319.492188 95.292969 C 319.597656 95.042969 319.628906 94.796875 319.601562 94.558594 C 319.578125 94.296875 319.527344 94.140625 319.410156 93.988281 C 318.988281 93.429688 317.695312 92.796875 316.289062 92.648438 C 314.882812 92.503906 313.511719 92.828125 312.804688 93.605469 C 312.425781 94.027344 311.773438 94.058594 311.351562 93.675781 C 310.929688 93.296875 310.898438 92.644531 311.28125 92.222656 C 312.601562 90.765625 314.660156 90.410156 316.503906 90.601562 C 318.332031 90.796875 320.078125 91.457031 321.054688 92.746094 C 321.445312 93.265625 321.601562 93.855469 321.648438 94.347656 C 321.707031 94.910156 321.632812 95.511719 321.394531 96.082031 C 320.867188 97.351562 319.808594 98.585938 318.359375 99.460938 C 317.320312 100.089844 316.164062 100.554688 314.984375 100.71875 C 313.863281 100.871094 312.734375 100.835938 311.765625 100.347656 C 310.855469 99.890625 310.160156 98.929688 310.085938 97.8125 C 310.042969 97.167969 310.082031 96.445312 310.261719 95.710938 C 310.53125 94.617188 310.96875 93.5625 311.492188 92.6875 C 311.859375 92.082031 312.253906 91.585938 312.691406 91.203125 C 313.289062 90.679688 313.875 90.429688 314.347656 90.171875 "/>
<path style=" stroke:none;fill-rule:nonzero;fill:rgb(0%,45.097351%,23.136902%);fill-opacity:1;" d="M 30.660156 89.257812 C 30.699219 89.824219 30.273438 90.316406 29.707031 90.355469 C 29.140625 90.398438 28.648438 89.96875 28.605469 89.402344 C 28.554688 88.6875 28.964844 87.960938 29.40625 87.585938 C 29.835938 87.222656 30.285156 86.96875 30.804688 86.5625 C 31.355469 86.128906 32.023438 85.472656 32.742188 84.644531 C 33.515625 83.746094 34.296875 82.6875 34.867188 81.613281 C 35.386719 80.625 35.648438 79.546875 35.714844 78.554688 C 35.785156 77.496094 35.410156 76.425781 34.9375 75.566406 C 34.578125 74.910156 34.183594 74.480469 33.90625 74.292969 C 33.847656 74.253906 34.039062 74.273438 33.964844 74.28125 C 33.894531 74.289062 34.050781 74.242188 33.992188 74.296875 C 33.835938 74.449219 33.550781 74.9375 33.316406 75.636719 C 33.140625 76.160156 32.984375 76.761719 32.839844 77.453125 C 32.652344 78.355469 32.449219 79.335938 32.3125 80.527344 C 32.167969 81.78125 32.089844 83.296875 32.050781 85.070312 C 32.015625 86.601562 32.039062 88.300781 32.050781 90.046875 C 32.0625 91.746094 32.074219 93.46875 32.050781 95.160156 C 32.03125 96.496094 31.992188 97.800781 31.929688 98.996094 C 31.871094 100.128906 31.71875 101.109375 31.621094 101.90625 C 31.5 102.882812 31.457031 103.628906 31.414062 104.210938 C 31.386719 104.550781 31.367188 104.804688 31.363281 104.953125 C 31.363281 105.015625 31.359375 105.007812 31.363281 105.027344 C 31.363281 105.042969 31.328125 104.890625 31.339844 104.9375 C 31.359375 104.988281 31.183594 104.648438 31.242188 104.730469 C 31.558594 105.203125 31.433594 105.84375 30.964844 106.160156 C 30.492188 106.476562 29.851562 106.355469 29.535156 105.882812 C 28.976562 105.054688 29.3125 104.703125 29.363281 104.050781 C 29.402344 103.503906 29.449219 102.699219 29.578125 101.652344 C 29.683594 100.820312 29.820312 99.90625 29.875 98.890625 C 29.933594 97.726562 29.972656 96.445312 29.992188 95.128906 C 30.019531 93.46875 30.003906 91.761719 29.992188 90.058594 C 29.984375 88.324219 29.957031 86.605469 29.992188 85.023438 C 30.035156 83.214844 30.109375 81.644531 30.269531 80.289062 C 30.417969 79.003906 30.636719 77.945312 30.828125 77.03125 C 30.984375 76.28125 31.160156 75.601562 31.367188 74.980469 C 31.65625 74.117188 31.988281 73.367188 32.570312 72.808594 C 32.867188 72.527344 33.265625 72.289062 33.738281 72.234375 C 34.214844 72.183594 34.691406 72.339844 35.0625 72.589844 C 35.703125 73.027344 36.261719 73.703125 36.742188 74.574219 C 37.335938 75.65625 37.875 77.085938 37.769531 78.691406 C 37.683594 79.941406 37.363281 81.296875 36.6875 82.574219 C 36.019531 83.835938 35.152344 85.003906 34.296875 85.992188 C 33.515625 86.890625 32.773438 87.632812 32.074219 88.183594 C 31.457031 88.667969 30.960938 88.96875 30.742188 89.152344 C 30.574219 89.292969 30.652344 89.140625 30.660156 89.257812 M 31.21875 105.914062 C 30.882812 106.375 30.238281 106.472656 29.78125 106.136719 C 29.320312 105.796875 29.222656 105.152344 29.558594 104.695312 C 29.589844 104.65625 29.519531 104.757812 29.523438 104.75 C 29.53125 104.734375 29.519531 104.757812 29.523438 104.75 C 29.53125 104.738281 29.546875 104.707031 29.570312 104.660156 C 29.621094 104.554688 29.695312 104.386719 29.777344 104.152344 C 29.964844 103.617188 30.550781 103.335938 31.089844 103.523438 C 31.625 103.710938 31.90625 104.296875 31.71875 104.832031 C 31.609375 105.140625 31.507812 105.382812 31.421875 105.558594 C 31.378906 105.644531 31.34375 105.710938 31.3125 105.765625 C 31.296875 105.792969 31.285156 105.816406 31.265625 105.84375 C 31.257812 105.855469 31.25 105.871094 31.21875 105.914062 "/>
<path style=" stroke:none;fill-rule:nonzero;fill:rgb(0%,45.097351%,23.136902%);fill-opacity:1;" d="M 26.5625 95.921875 C 27.082031 96.15625 27.3125 96.761719 27.082031 97.28125 C 26.847656 97.800781 26.242188 98.035156 25.722656 97.800781 C 25.652344 97.769531 25.570312 97.75 25.398438 97.59375 C 25.242188 97.453125 24.878906 96.902344 25.167969 96.34375 C 25.542969 95.613281 25.867188 95.796875 25.984375 95.78125 C 26.085938 95.765625 26.152344 95.765625 26.21875 95.765625 C 26.449219 95.765625 26.710938 95.785156 27.050781 95.808594 C 27.777344 95.859375 28.765625 95.925781 29.851562 95.929688 C 32.074219 95.9375 34.488281 95.570312 35.34375 94.695312 C 35.738281 94.289062 36.390625 94.28125 36.796875 94.679688 C 37.203125 95.074219 37.210938 95.726562 36.816406 96.132812 C 35.113281 97.875 32.25 97.996094 29.847656 97.988281 C 28.679688 97.984375 27.640625 97.914062 26.910156 97.863281 C 26.574219 97.839844 26.316406 97.824219 26.222656 97.824219 C 26.207031 97.824219 26.277344 97.816406 26.242188 97.820312 C 26.210938 97.824219 26.628906 97.699219 26.480469 97.757812 C 26.417969 97.785156 26.835938 97.527344 26.730469 97.613281 C 26.636719 97.691406 27.101562 97.046875 27.023438 97.230469 C 26.953125 97.394531 27.082031 96.523438 27.101562 96.695312 C 27.121094 96.839844 26.941406 96.25 26.988281 96.339844 C 27.066406 96.484375 26.714844 96.011719 26.773438 96.0625 C 26.851562 96.132812 26.582031 95.929688 26.613281 95.949219 C 26.644531 95.964844 26.554688 95.917969 26.5625 95.921875 "/>
<path style=" stroke:none;fill-rule:nonzero;fill:rgb(0%,45.097351%,23.136902%);fill-opacity:1;" d="M 42.554688 94.230469 C 43.046875 94.515625 43.214844 95.144531 42.929688 95.636719 C 42.644531 96.128906 42.011719 96.292969 41.523438 96.007812 C 41.480469 95.984375 41.617188 96.019531 41.550781 96.007812 C 41.464844 95.992188 42.105469 95.875 41.957031 95.949219 C 41.882812 95.984375 42.171875 95.785156 42.128906 95.824219 C 42.074219 95.878906 42.203125 95.734375 42.199219 95.738281 C 42.195312 95.746094 42.179688 95.789062 42.160156 95.863281 C 41.925781 96.730469 41.777344 98.726562 41.714844 100.316406 C 41.679688 101.101562 41.722656 101.640625 41.757812 101.726562 C 41.761719 101.734375 41.59375 101.597656 41.640625 101.621094 C 41.671875 101.636719 41.691406 101.640625 41.90625 101.625 C 42.472656 101.585938 42.964844 102.015625 43.003906 102.582031 C 43.042969 103.148438 42.613281 103.640625 42.046875 103.675781 C 41.613281 103.707031 41.175781 103.675781 40.761719 103.480469 C 40.34375 103.28125 40.011719 102.894531 39.855469 102.511719 C 39.550781 101.769531 39.625 101.058594 39.65625 100.234375 C 39.722656 98.582031 39.828125 96.613281 40.171875 95.328125 C 40.289062 94.890625 40.480469 94.378906 41.054688 94.097656 C 41.351562 93.953125 41.683594 93.9375 41.945312 93.988281 C 42.191406 94.035156 42.386719 94.128906 42.554688 94.230469 "/>
<path style=" stroke:none;fill-rule:nonzero;fill:rgb(0%,45.097351%,23.136902%);fill-opacity:1;" d="M 43.003906 87.894531 C 42.964844 88.460938 42.472656 88.890625 41.90625 88.851562 C 41.339844 88.8125 40.910156 88.324219 40.949219 87.757812 C 40.980469 87.269531 40.863281 86.84375 40.804688 86.292969 C 40.773438 86.003906 40.753906 85.640625 40.90625 85.242188 C 41.058594 84.835938 41.398438 84.488281 41.769531 84.277344 C 42.261719 83.992188 42.890625 84.164062 43.171875 84.660156 C 43.453125 85.152344 43.285156 85.78125 42.789062 86.0625 C 42.726562 86.097656 42.859375 85.898438 42.828125 85.972656 C 42.804688 86.035156 42.835938 85.929688 42.851562 86.066406 C 42.886719 86.398438 43.058594 87.050781 43.003906 87.894531 "/>
<path style=" stroke:none;fill-rule:nonzero;fill:rgb(0%,45.097351%,23.136902%);fill-opacity:1;" d="M 47.539062 91.648438 C 48.105469 91.664062 48.554688 92.132812 48.542969 92.703125 C 48.527344 93.269531 48.054688 93.71875 47.488281 93.707031 C 47.347656 93.703125 48.082031 93.492188 47.949219 93.578125 C 47.816406 93.660156 48.226562 93.273438 48.191406 93.335938 C 48.128906 93.4375 48.226562 93.25 48.210938 93.34375 C 48.175781 93.578125 48.167969 94.050781 48.183594 94.667969 C 48.210938 95.90625 48.300781 97.523438 48.363281 98.929688 C 48.394531 99.636719 48.390625 100.238281 48.417969 100.617188 C 48.425781 100.707031 48.4375 100.777344 48.445312 100.808594 C 48.453125 100.835938 48.367188 100.675781 48.410156 100.746094 C 48.4375 100.789062 48.199219 100.519531 48.269531 100.582031 C 48.347656 100.648438 47.8125 100.363281 47.945312 100.402344 C 48.082031 100.445312 47.425781 100.40625 47.542969 100.382812 C 47.65625 100.359375 47.238281 100.507812 47.292969 100.476562 C 47.410156 100.40625 48.386719 98.363281 49.253906 96.417969 C 49.675781 95.472656 50.066406 94.597656 50.425781 93.917969 C 50.601562 93.582031 50.761719 93.289062 50.988281 93.015625 C 51.105469 92.871094 51.242188 92.714844 51.515625 92.582031 C 51.8125 92.441406 52.347656 92.433594 52.6875 92.660156 C 53.296875 93.0625 53.253906 93.480469 53.296875 93.75 C 53.339844 94.011719 53.359375 94.246094 53.382812 94.4375 C 53.472656 95.089844 53.558594 95.886719 53.628906 96.679688 C 53.789062 98.46875 54.25 100.097656 54.320312 100.210938 C 54.617188 100.691406 54.46875 101.328125 53.988281 101.625 C 53.503906 101.925781 52.871094 101.777344 52.570312 101.292969 C 51.988281 100.355469 51.753906 98.832031 51.578125 96.863281 C 51.511719 96.09375 51.429688 95.324219 51.34375 94.714844 C 51.308594 94.453125 51.289062 94.222656 51.269531 94.085938 C 51.257812 94.027344 51.269531 94.058594 51.257812 94.027344 C 51.25 94.007812 51.359375 94.203125 51.320312 94.144531 C 51.277344 94.082031 51.667969 94.449219 51.550781 94.371094 C 51.429688 94.292969 52.183594 94.523438 52.015625 94.519531 C 51.847656 94.515625 52.496094 94.394531 52.40625 94.4375 C 52.324219 94.476562 52.578125 94.320312 52.554688 94.339844 C 52.535156 94.359375 52.578125 94.320312 52.574219 94.328125 C 52.527344 94.378906 52.398438 94.589844 52.246094 94.875 C 51.9375 95.464844 51.550781 96.316406 51.132812 97.257812 C 50.710938 98.207031 50.277344 99.230469 49.84375 100.125 C 49.417969 100.996094 49.175781 101.75 48.339844 102.246094 C 48.109375 102.382812 47.734375 102.488281 47.367188 102.378906 C 47.003906 102.269531 46.773438 102.019531 46.652344 101.816406 C 46.425781 101.4375 46.394531 101.117188 46.367188 100.773438 C 46.328125 100.253906 46.335938 99.667969 46.308594 99.019531 C 46.246094 97.632812 46.152344 96.007812 46.125 94.714844 C 46.109375 94.058594 46.105469 93.519531 46.175781 93.039062 C 46.210938 92.800781 46.257812 92.554688 46.425781 92.273438 C 46.609375 91.972656 47.078125 91.636719 47.539062 91.648438 "/>
</g>
</svg>
