<?xml version="1.0" encoding="UTF-8"?>
<svg xmlns="http://www.w3.org/2000/svg" xmlns:xlink="http://www.w3.org/1999/xlink" width="137.5881pt" height="135.55992pt" viewBox="0 0 137.5881 135.55992" version="1.2">
<g id="surface1">
<path style=" stroke:none;fill-rule:nonzero;fill:rgb(7.058716%,1.176453%,46.665955%);fill-opacity:1;" d="M 25.074219 101.273438 C 25.074219 101.601562 24.808594 101.867188 24.480469 101.867188 C 24.148438 101.867188 23.882812 101.601562 23.882812 101.273438 L 23.882812 84.191406 C 23.882812 83.859375 24.148438 83.59375 24.480469 83.59375 C 24.808594 83.59375 25.074219 83.859375 25.074219 84.191406 Z M 25.074219 101.273438 "/>
<path style=" stroke:none;fill-rule:nonzero;fill:rgb(7.058716%,1.176453%,46.665955%);fill-opacity:1;" d="M 8.53125 69.085938 C 8.53125 63.296875 11.664062 58.242188 16.324219 55.519531 C 18.648438 54.164062 21.351562 53.386719 24.234375 53.386719 C 30.019531 53.386719 35.078125 56.515625 37.800781 61.175781 C 39.15625 63.5 39.933594 66.203125 39.933594 69.085938 C 39.933594 74.875 36.804688 79.929688 32.144531 82.652344 C 29.820312 84.007812 27.117188 84.789062 24.234375 84.789062 C 18.445312 84.789062 13.390625 81.65625 10.667969 76.996094 C 9.3125 74.671875 8.53125 71.96875 8.53125 69.085938 M 9.722656 69.085938 C 9.722656 71.75 10.441406 74.25 11.695312 76.394531 C 14.210938 80.703125 18.886719 83.597656 24.234375 83.597656 C 26.898438 83.597656 29.394531 82.878906 31.542969 81.625 C 35.847656 79.105469 38.742188 74.433594 38.742188 69.085938 C 38.742188 66.421875 38.027344 63.925781 36.773438 61.777344 C 34.253906 57.46875 29.582031 54.578125 24.234375 54.578125 C 21.570312 54.578125 19.070312 55.292969 16.925781 56.546875 C 12.617188 59.066406 9.722656 63.738281 9.722656 69.085938 "/>
<path style=" stroke:none;fill-rule:nonzero;fill:rgb(7.058716%,1.176453%,46.665955%);fill-opacity:1;" d="M 25.171875 53.984375 C 25.171875 54.3125 24.90625 54.582031 24.578125 54.582031 C 24.25 54.582031 23.980469 54.3125 23.980469 53.984375 L 23.980469 32.546875 C 23.980469 32.21875 24.25 31.953125 24.578125 31.953125 C 24.90625 31.953125 25.171875 32.21875 25.171875 32.546875 Z M 25.171875 53.984375 "/>
<path style=" stroke:none;fill-rule:nonzero;fill:rgb(7.058716%,1.176453%,46.665955%);fill-opacity:1;" d="M 24.632812 80.429688 C 24.632812 80.761719 24.367188 81.027344 24.039062 81.027344 C 23.710938 81.027344 23.441406 80.761719 23.441406 80.429688 L 23.441406 57.742188 C 23.441406 57.410156 23.710938 57.144531 24.039062 57.144531 C 24.367188 57.144531 24.632812 57.410156 24.632812 57.742188 Z M 24.632812 80.429688 "/>
<path style=" stroke:none;fill-rule:nonzero;fill:rgb(7.058716%,1.176453%,46.665955%);fill-opacity:1;" d="M 24.238281 58.902344 L 21.671875 61.945312 L 26.8125 61.8125 Z M 24.675781 57.597656 L 28.550781 61.980469 C 28.886719 62.359375 28.628906 62.957031 28.121094 62.972656 L 20.378906 63.171875 C 19.863281 63.183594 19.574219 62.582031 19.90625 62.191406 L 23.773438 57.609375 C 24.007812 57.332031 24.433594 57.324219 24.675781 57.597656 "/>
<path style=" stroke:none;fill-rule:nonzero;fill:rgb(7.058716%,1.176453%,46.665955%);fill-opacity:1;" d="M 24.78125 59.429688 C 25.097656 59.332031 25.429688 59.511719 25.527344 59.824219 C 25.621094 60.140625 25.441406 60.472656 25.128906 60.570312 C 25.125 60.570312 25.140625 60.566406 25.136719 60.566406 C 25.132812 60.566406 25.183594 60.539062 25.167969 60.550781 C 25.121094 60.578125 25.339844 60.375 25.296875 60.433594 C 25.253906 60.492188 25.394531 60.050781 25.390625 60.164062 C 25.386719 60.285156 25.292969 59.828125 25.324219 59.890625 C 25.355469 59.945312 25.238281 59.773438 25.253906 59.789062 C 25.28125 59.816406 25.226562 59.765625 25.246094 59.777344 C 25.285156 59.804688 25.375 59.859375 25.480469 59.929688 C 25.640625 60.035156 25.820312 60.160156 26 60.289062 C 26.148438 60.398438 26.285156 60.511719 26.40625 60.609375 C 26.640625 60.800781 26.832031 60.988281 26.878906 61.03125 C 27.003906 61.136719 26.996094 61.15625 27.027344 61.199219 C 27.222656 61.460938 27.175781 61.832031 26.910156 62.03125 C 26.648438 62.230469 26.277344 62.179688 26.078125 61.917969 C 26.074219 61.914062 26.035156 61.867188 25.976562 61.796875 C 25.910156 61.71875 25.839844 61.625 25.761719 61.53125 C 25.535156 61.257812 25.257812 60.957031 24.96875 60.679688 C 24.84375 60.5625 24.714844 60.445312 24.589844 60.34375 C 24.464844 60.238281 24.34375 60.152344 24.289062 60.113281 C 24.253906 60.089844 24.222656 60.074219 24.210938 60.0625 C 24.207031 60.0625 24.222656 60.070312 24.214844 60.066406 C 24.203125 60.058594 24.425781 60.132812 24.335938 60.113281 L 24.625 58.957031 C 25.015625 59.054688 24.925781 59.136719 24.949219 59.164062 C 25 59.222656 25.019531 59.25 25.046875 59.273438 C 25.132812 59.359375 25.242188 59.472656 25.363281 59.59375 C 25.523438 59.753906 25.675781 59.925781 25.828125 60.09375 C 26.015625 60.300781 26.230469 60.515625 26.421875 60.726562 C 26.523438 60.835938 26.621094 60.941406 26.703125 61.035156 C 26.769531 61.113281 26.816406 61.164062 26.878906 61.277344 C 26.898438 61.308594 26.921875 61.347656 26.945312 61.453125 C 26.945312 61.457031 26.949219 61.460938 26.949219 61.46875 C 27.011719 61.789062 26.796875 62.101562 26.476562 62.164062 C 26.152344 62.226562 25.839844 62.011719 25.777344 61.691406 C 25.777344 61.683594 25.78125 61.710938 25.78125 61.703125 C 25.761719 61.609375 25.847656 61.871094 25.835938 61.847656 C 25.804688 61.792969 25.84375 61.863281 25.804688 61.820312 C 25.738281 61.746094 25.648438 61.644531 25.546875 61.535156 C 25.367188 61.339844 25.152344 61.121094 24.949219 60.898438 C 24.789062 60.722656 24.644531 60.5625 24.519531 60.433594 C 24.398438 60.3125 24.289062 60.203125 24.210938 60.125 C 24.144531 60.058594 24.09375 60 24.0625 59.960938 C 24.050781 59.945312 24.046875 59.941406 24.042969 59.9375 C 24.039062 59.933594 24.097656 59.988281 24.074219 59.96875 C 24.0625 59.957031 24.167969 60.042969 24.136719 60.019531 C 24.117188 60.007812 24.234375 60.078125 24.203125 60.0625 C 24.171875 60.046875 24.394531 60.125 24.335938 60.113281 C 24.015625 60.03125 23.820312 59.707031 23.902344 59.390625 C 23.980469 59.070312 24.304688 58.875 24.625 58.957031 C 24.9375 59.035156 24.878906 59.078125 24.933594 59.113281 C 25.058594 59.191406 25.195312 59.296875 25.347656 59.425781 C 25.492188 59.546875 25.644531 59.675781 25.792969 59.820312 C 26.117188 60.128906 26.421875 60.460938 26.679688 60.769531 C 26.773438 60.886719 26.851562 60.988281 26.894531 61.039062 C 26.949219 61.105469 26.984375 61.144531 27.027344 61.199219 L 26.078125 61.917969 C 26.042969 61.875 26.046875 61.875 26.042969 61.867188 C 26.035156 61.859375 26.132812 61.960938 26.097656 61.929688 C 25.984375 61.832031 25.839844 61.6875 25.648438 61.53125 C 25.53125 61.433594 25.414062 61.335938 25.300781 61.253906 C 25.128906 61.132812 24.960938 61.015625 24.824219 60.921875 C 24.75 60.875 24.660156 60.824219 24.566406 60.757812 C 24.515625 60.722656 24.460938 60.683594 24.394531 60.613281 C 24.320312 60.539062 24.191406 60.398438 24.199219 60.125 C 24.210938 59.808594 24.402344 59.613281 24.578125 59.515625 C 24.644531 59.480469 24.695312 59.457031 24.734375 59.445312 C 24.753906 59.4375 24.769531 59.433594 24.78125 59.429688 M 26.511719 61.007812 C 26.828125 61.09375 27.019531 61.421875 26.933594 61.738281 C 26.847656 62.054688 26.523438 62.246094 26.203125 62.160156 C 26.140625 62.140625 26.101562 62.125 26.074219 62.109375 C 26.023438 62.082031 25.996094 62.058594 25.972656 62.042969 C 25.820312 61.925781 25.710938 61.804688 25.566406 61.660156 C 25.273438 61.375 24.9375 61.027344 24.613281 60.734375 C 24.496094 60.628906 24.371094 60.527344 24.265625 60.445312 C 24.152344 60.359375 24.085938 60.320312 24.074219 60.320312 C 24.054688 60.3125 24.210938 60.335938 24.167969 60.335938 C 24.121094 60.332031 24.402344 60.289062 24.335938 60.3125 C 24.269531 60.332031 24.582031 60.140625 24.527344 60.195312 C 24.472656 60.246094 24.664062 59.96875 24.640625 60.023438 C 24.609375 60.105469 24.671875 59.820312 24.671875 59.855469 C 24.671875 59.894531 24.664062 59.808594 24.671875 59.820312 C 24.675781 59.835938 24.6875 59.867188 24.707031 59.902344 C 24.746094 59.976562 24.871094 60.132812 25.019531 60.308594 C 25.09375 60.394531 25.15625 60.472656 25.214844 60.539062 C 25.285156 60.613281 25.34375 60.679688 25.378906 60.714844 C 25.417969 60.757812 25.425781 60.765625 25.441406 60.773438 C 25.445312 60.78125 25.382812 60.738281 25.402344 60.75 C 25.425781 60.765625 25.195312 60.675781 25.269531 60.695312 C 25.328125 60.710938 24.898438 60.710938 25.011719 60.6875 C 25.335938 60.625 25.648438 60.835938 25.710938 61.15625 C 25.773438 61.480469 25.5625 61.792969 25.242188 61.855469 C 25.121094 61.878906 25.03125 61.863281 24.964844 61.847656 C 24.808594 61.804688 24.761719 61.757812 24.71875 61.722656 C 24.640625 61.664062 24.59375 61.617188 24.542969 61.566406 C 24.460938 61.484375 24.390625 61.402344 24.320312 61.324219 C 24.246094 61.238281 24.179688 61.15625 24.117188 61.082031 C 23.96875 60.910156 23.785156 60.714844 23.644531 60.441406 C 23.539062 60.238281 23.359375 60.03125 23.53125 59.585938 C 23.601562 59.417969 23.765625 59.246094 23.960938 59.179688 C 24.148438 59.117188 24.316406 59.144531 24.449219 59.1875 C 24.65625 59.257812 24.816406 59.363281 24.992188 59.5 C 25.125 59.601562 25.269531 59.722656 25.414062 59.851562 C 25.773438 60.179688 26.121094 60.535156 26.402344 60.8125 C 26.554688 60.960938 26.6875 61.089844 26.691406 61.09375 C 26.699219 61.101562 26.589844 61.035156 26.628906 61.054688 C 26.65625 61.066406 26.449219 60.992188 26.511719 61.007812 M 25.613281 61.621094 C 25.417969 61.886719 25.042969 61.941406 24.777344 61.746094 C 24.515625 61.550781 24.457031 61.179688 24.652344 60.914062 C 24.714844 60.832031 24.539062 61.191406 24.554688 61.132812 C 24.574219 61.035156 24.554688 61.359375 24.550781 61.324219 C 24.539062 61.28125 24.5625 61.371094 24.558594 61.363281 C 24.550781 61.347656 24.535156 61.320312 24.515625 61.285156 C 24.457031 61.183594 24.367188 61.042969 24.269531 60.886719 C 24.175781 60.730469 24.050781 60.558594 23.921875 60.390625 C 23.777344 60.195312 23.644531 60.035156 23.5625 59.960938 C 23.523438 59.921875 23.527344 59.921875 23.507812 59.910156 C 23.496094 59.902344 23.675781 59.960938 23.613281 59.949219 C 23.578125 59.941406 23.800781 59.953125 23.746094 59.957031 C 23.691406 59.960938 24 59.878906 23.933594 59.910156 C 23.828125 59.957031 24.207031 59.648438 24.164062 59.714844 C 24.121094 59.777344 24.242188 59.535156 24.230469 59.570312 C 24.214844 59.632812 24.246094 59.472656 24.246094 59.480469 C 24.246094 59.484375 24.25 59.515625 24.257812 59.5625 C 24.265625 59.632812 24.425781 59.972656 24.625 60.265625 C 24.71875 60.40625 24.824219 60.546875 24.917969 60.664062 C 24.980469 60.742188 25.035156 60.804688 25.070312 60.847656 C 25.089844 60.867188 25.089844 60.871094 25.09375 60.875 C 25.101562 60.878906 24.984375 60.785156 25.035156 60.824219 C 25.300781 61.015625 25.359375 61.390625 25.167969 61.65625 C 24.976562 61.921875 24.601562 61.980469 24.335938 61.789062 C 24.277344 61.746094 24.265625 61.730469 24.25 61.714844 C 24.21875 61.683594 24.199219 61.660156 24.171875 61.628906 C 24.121094 61.570312 24.058594 61.492188 23.988281 61.40625 C 23.882812 61.277344 23.757812 61.113281 23.636719 60.933594 C 23.394531 60.574219 23.144531 60.203125 23.078125 59.734375 C 23.066406 59.65625 23.054688 59.574219 23.054688 59.460938 C 23.058594 59.402344 23.058594 59.335938 23.085938 59.238281 C 23.117188 59.128906 23.195312 58.9375 23.433594 58.828125 C 23.589844 58.753906 23.746094 58.757812 23.855469 58.78125 C 23.957031 58.804688 24.03125 58.839844 24.09375 58.871094 C 24.210938 58.9375 24.296875 59.011719 24.378906 59.09375 C 24.554688 59.253906 24.710938 59.453125 24.878906 59.675781 C 25.011719 59.851562 25.15625 60.050781 25.285156 60.261719 C 25.371094 60.402344 25.46875 60.546875 25.550781 60.695312 C 25.636719 60.84375 25.816406 60.941406 25.714844 61.390625 C 25.703125 61.457031 25.671875 61.539062 25.613281 61.621094 M 25.277344 61.210938 C 25.332031 61.535156 25.109375 61.839844 24.785156 61.894531 C 24.460938 61.949219 24.15625 61.726562 24.101562 61.402344 C 24.085938 61.308594 24.160156 61.570312 24.148438 61.550781 C 24.117188 61.484375 24.039062 61.410156 23.855469 61.1875 C 23.726562 61.035156 23.585938 60.878906 23.464844 60.75 C 23.378906 60.664062 23.3125 60.589844 23.28125 60.558594 C 23.265625 60.546875 23.324219 60.585938 23.292969 60.566406 C 23.277344 60.558594 23.433594 60.625 23.386719 60.609375 C 23.335938 60.59375 23.703125 60.625 23.609375 60.632812 C 23.363281 60.660156 23.253906 60.570312 23.214844 60.546875 C 23.203125 60.539062 23.257812 60.570312 23.230469 60.554688 C 23.214844 60.546875 23.339844 60.59375 23.304688 60.585938 C 23.265625 60.574219 23.527344 60.613281 23.460938 60.609375 C 23.132812 60.601562 22.871094 60.332031 22.878906 60 C 22.886719 59.671875 23.15625 59.410156 23.488281 59.417969 C 23.757812 59.425781 23.796875 59.507812 23.800781 59.511719 C 23.804688 59.511719 23.683594 59.460938 23.730469 59.476562 C 23.78125 59.496094 23.371094 59.460938 23.484375 59.449219 C 23.703125 59.425781 23.835938 59.503906 23.917969 59.554688 C 23.996094 59.601562 24.042969 59.644531 24.089844 59.6875 C 24.175781 59.765625 24.246094 59.847656 24.324219 59.925781 C 24.46875 60.074219 24.625 60.25 24.769531 60.425781 C 24.878906 60.558594 24.972656 60.671875 25.050781 60.773438 C 25.128906 60.871094 25.21875 60.847656 25.277344 61.210938 M 22.882812 59.921875 C 22.941406 59.597656 23.25 59.382812 23.574219 59.4375 C 23.898438 59.496094 24.113281 59.804688 24.058594 60.128906 C 24.054688 60.132812 24.058594 60.113281 24.058594 60.117188 C 24.054688 60.140625 24.0625 60.089844 24.0625 60.089844 C 24.0625 60.09375 24.0625 60.101562 24.0625 60.105469 C 24.066406 60.15625 24.050781 60.046875 24.054688 60.054688 C 24.074219 60.109375 24.15625 60.269531 24.25 60.429688 C 24.3125 60.546875 24.378906 60.65625 24.4375 60.753906 C 24.480469 60.820312 24.515625 60.878906 24.542969 60.925781 C 24.554688 60.949219 24.566406 60.964844 24.582031 60.996094 C 24.582031 61 24.585938 61.003906 24.589844 61.011719 C 24.730469 61.308594 24.609375 61.664062 24.3125 61.804688 C 24.015625 61.949219 23.660156 61.824219 23.515625 61.53125 C 23.515625 61.527344 23.523438 61.542969 23.519531 61.539062 C 23.515625 61.523438 23.523438 61.542969 23.511719 61.527344 C 23.492188 61.492188 23.460938 61.4375 23.417969 61.371094 C 23.363281 61.273438 23.285156 61.152344 23.210938 61.011719 C 23.085938 60.792969 22.894531 60.605469 22.871094 60.167969 C 22.871094 60.117188 22.871094 60.074219 22.871094 60.027344 C 22.875 60 22.875 59.976562 22.882812 59.9375 C 22.882812 59.933594 22.882812 59.925781 22.882812 59.921875 M 24.515625 60.898438 C 24.722656 61.15625 24.679688 61.53125 24.421875 61.738281 C 24.167969 61.941406 23.792969 61.902344 23.585938 61.644531 C 23.496094 61.535156 23.460938 61.460938 23.34375 61.285156 C 23.242188 61.128906 23.101562 60.9375 22.980469 60.769531 C 22.886719 60.644531 22.847656 60.601562 22.824219 60.582031 C 22.792969 60.558594 23.101562 60.683594 23 60.660156 C 22.945312 60.648438 23.28125 60.660156 23.203125 60.671875 C 23.121094 60.683594 23.503906 60.539062 23.433594 60.585938 C 23.367188 60.628906 23.621094 60.390625 23.585938 60.441406 C 23.554688 60.484375 23.660156 60.289062 23.648438 60.320312 C 23.625 60.382812 23.675781 60.195312 23.675781 60.210938 C 23.671875 60.25 23.671875 60.324219 23.679688 60.402344 C 23.6875 60.460938 23.746094 60.605469 23.796875 60.808594 C 23.820312 60.894531 23.839844 60.980469 23.84375 61.101562 C 23.84375 61.167969 23.84375 61.25 23.800781 61.367188 C 23.753906 61.5 23.609375 61.6875 23.398438 61.753906 C 23.128906 61.835938 22.96875 61.738281 22.886719 61.691406 C 22.8125 61.648438 22.773438 61.613281 22.738281 61.585938 C 22.671875 61.527344 22.628906 61.484375 22.605469 61.464844 C 22.503906 61.375 22.40625 61.285156 22.367188 61.257812 C 22.347656 61.242188 22.542969 61.328125 22.484375 61.3125 C 22.421875 61.292969 22.824219 61.292969 22.726562 61.316406 C 22.632812 61.339844 23.027344 61.113281 22.972656 61.175781 C 22.917969 61.234375 23.078125 60.984375 23.066406 61.023438 C 23.050781 61.0625 23.078125 60.972656 23.078125 60.984375 C 23.074219 61.03125 23.089844 61.191406 23.097656 61.375 C 23.105469 61.515625 23.109375 61.652344 23.109375 61.773438 C 23.109375 61.902344 23.199219 62.070312 22.96875 62.410156 C 22.835938 62.601562 22.636719 62.667969 22.519531 62.6875 C 22.40625 62.703125 22.332031 62.691406 22.273438 62.683594 C 22.160156 62.664062 22.089844 62.640625 22.050781 62.628906 C 21.914062 62.589844 21.832031 62.527344 21.800781 62.507812 C 21.796875 62.503906 21.808594 62.511719 21.800781 62.507812 C 21.792969 62.503906 21.902344 62.5625 21.867188 62.542969 C 21.566406 62.40625 21.4375 62.050781 21.578125 61.75 C 21.71875 61.453125 22.070312 61.324219 22.371094 61.464844 C 22.453125 61.503906 22.472656 61.523438 22.480469 61.527344 C 22.488281 61.53125 22.449219 61.511719 22.464844 61.519531 C 22.480469 61.527344 22.339844 61.472656 22.378906 61.484375 C 22.429688 61.5 22.445312 61.503906 22.457031 61.503906 C 22.464844 61.507812 22.277344 61.515625 22.347656 61.507812 C 22.386719 61.5 22.125 61.589844 22.191406 61.558594 C 22.257812 61.523438 21.929688 61.820312 21.984375 61.738281 C 22.027344 61.675781 21.914062 61.90625 21.921875 61.878906 C 21.9375 61.816406 21.917969 61.875 21.917969 61.761719 C 21.917969 61.671875 21.914062 61.558594 21.910156 61.445312 C 21.898438 61.25 21.804688 61.015625 21.941406 60.628906 C 22.003906 60.449219 22.179688 60.222656 22.445312 60.160156 C 22.707031 60.09375 22.921875 60.191406 23.058594 60.289062 C 23.199219 60.386719 23.308594 60.492188 23.398438 60.574219 C 23.460938 60.628906 23.503906 60.671875 23.515625 60.683594 C 23.519531 60.6875 23.433594 60.632812 23.476562 60.65625 C 23.5 60.671875 23.285156 60.589844 23.351562 60.605469 C 23.382812 60.613281 23.171875 60.589844 23.222656 60.589844 C 23.277344 60.589844 22.980469 60.636719 23.042969 60.617188 C 23.136719 60.585938 22.734375 60.839844 22.796875 60.773438 C 22.855469 60.707031 22.664062 61.003906 22.683594 60.953125 C 22.71875 60.859375 22.652344 61.152344 22.652344 61.125 C 22.652344 61.085938 22.65625 61.144531 22.644531 61.105469 C 22.625 61.023438 22.535156 60.828125 22.5 60.550781 C 22.476562 60.386719 22.476562 60.242188 22.488281 60.117188 C 22.492188 60.058594 22.5 59.992188 22.53125 59.90625 C 22.566406 59.8125 22.636719 59.683594 22.785156 59.585938 C 22.941406 59.484375 23.144531 59.46875 23.277344 59.503906 C 23.402344 59.53125 23.476562 59.582031 23.535156 59.625 C 23.707031 59.753906 23.808594 59.890625 23.933594 60.058594 C 24.070312 60.238281 24.214844 60.445312 24.335938 60.628906 C 24.457031 60.808594 24.484375 60.859375 24.515625 60.898438 M 21.675781 61.589844 C 21.90625 61.351562 22.285156 61.347656 22.519531 61.578125 C 22.753906 61.808594 22.757812 62.183594 22.53125 62.417969 C 22.464844 62.488281 22.675781 62.167969 22.65625 62.222656 C 22.625 62.304688 22.691406 62.023438 22.6875 62.058594 C 22.6875 62.089844 22.6875 62 22.6875 62.007812 C 22.6875 62.015625 22.695312 62.027344 22.699219 62.101562 C 22.699219 62.113281 22.699219 62.109375 22.707031 62.167969 C 22.710938 62.203125 22.71875 62.253906 22.699219 62.359375 C 22.695312 62.386719 22.6875 62.421875 22.675781 62.457031 C 22.570312 62.769531 22.230469 62.933594 21.917969 62.828125 C 21.609375 62.722656 21.441406 62.382812 21.550781 62.070312 C 21.5625 62.039062 21.523438 62.179688 21.527344 62.15625 C 21.535156 62.109375 21.519531 62.273438 21.519531 62.253906 C 21.519531 62.234375 21.519531 62.289062 21.519531 62.285156 C 21.519531 62.277344 21.511719 62.246094 21.507812 62.167969 C 21.507812 62.140625 21.507812 62.171875 21.5 62.113281 C 21.496094 62.042969 21.410156 61.863281 21.675781 61.589844 M 21.949219 61.699219 C 22.265625 61.613281 22.59375 61.800781 22.679688 62.121094 C 22.765625 62.4375 22.574219 62.765625 22.257812 62.847656 C 22.007812 62.917969 21.855469 62.828125 21.773438 62.78125 C 21.695312 62.738281 21.65625 62.699219 21.617188 62.664062 C 21.550781 62.597656 21.5 62.539062 21.457031 62.480469 C 21.363281 62.367188 21.285156 62.253906 21.25 62.207031 C 21.242188 62.199219 21.28125 62.238281 21.261719 62.214844 C 21.257812 62.214844 21.269531 62.222656 21.265625 62.222656 C 21.015625 62.003906 20.992188 61.628906 21.207031 61.382812 C 21.421875 61.132812 21.796875 61.105469 22.046875 61.320312 C 22.050781 61.324219 22.050781 61.328125 22.054688 61.328125 C 22.101562 61.371094 22.140625 61.414062 22.183594 61.46875 C 22.257812 61.5625 22.328125 61.664062 22.390625 61.742188 C 22.417969 61.777344 22.433594 61.796875 22.4375 61.800781 C 22.445312 61.804688 22.320312 61.722656 22.371094 61.75 C 22.398438 61.765625 22.175781 61.679688 22.238281 61.695312 C 22.308594 61.714844 21.832031 61.730469 21.949219 61.699219 M 21.214844 62.175781 C 20.992188 61.933594 21.007812 61.554688 21.25 61.332031 C 21.492188 61.109375 21.871094 61.128906 22.09375 61.371094 C 22.097656 61.375 22.078125 61.355469 22.082031 61.359375 C 22.140625 61.417969 22.203125 61.484375 22.277344 61.554688 C 22.328125 61.601562 22.410156 61.667969 22.5 61.734375 C 22.582031 61.792969 22.589844 61.800781 22.613281 61.808594 C 22.664062 61.824219 22.304688 61.847656 22.382812 61.820312 C 22.457031 61.792969 22.261719 61.894531 22.265625 61.890625 C 22.3125 61.835938 22.289062 61.808594 22.40625 61.617188 C 22.511719 61.445312 22.636719 61.316406 22.75 61.207031 C 23.007812 60.960938 23.304688 60.871094 23.527344 60.820312 C 23.789062 60.761719 24.011719 60.777344 24.152344 60.789062 C 24.21875 60.796875 24.265625 60.804688 24.269531 60.804688 C 24.273438 60.804688 24.128906 60.820312 24.171875 60.8125 C 24.273438 60.789062 23.902344 60.953125 23.953125 60.917969 C 24.019531 60.863281 23.824219 61.050781 23.839844 61.03125 C 23.855469 61.011719 23.824219 61.054688 23.828125 61.050781 C 23.835938 61.035156 23.863281 60.957031 23.992188 60.851562 C 24.257812 60.625 24.449219 60.679688 24.5625 60.683594 C 24.578125 60.6875 24.675781 60.660156 24.882812 60.65625 C 24.933594 60.65625 25.027344 60.640625 25.183594 60.652344 C 25.207031 60.652344 25.414062 60.605469 25.6875 60.769531 C 26.097656 61.015625 26.09375 61.28125 26.128906 61.347656 C 26.136719 61.363281 26.160156 61.394531 26.214844 61.457031 C 26.253906 61.503906 26.28125 61.539062 26.289062 61.546875 C 26.292969 61.546875 26.246094 61.503906 26.265625 61.523438 C 26.277344 61.535156 26.183594 61.460938 26.210938 61.480469 C 26.242188 61.5 26.023438 61.394531 26.082031 61.414062 C 26.394531 61.523438 26.558594 61.863281 26.449219 62.171875 C 26.339844 62.484375 26 62.648438 25.691406 62.539062 C 25.242188 62.382812 25.34375 62.273438 25.316406 62.238281 C 25.273438 62.191406 25.175781 62.085938 25.085938 61.925781 C 25.03125 61.828125 25 61.753906 24.980469 61.714844 C 24.972656 61.699219 24.984375 61.71875 24.976562 61.707031 C 24.964844 61.691406 25.132812 61.828125 25.074219 61.789062 C 25.003906 61.75 25.242188 61.84375 25.226562 61.84375 C 25.21875 61.84375 25.195312 61.84375 25.117188 61.839844 C 25.109375 61.839844 25.03125 61.847656 24.894531 61.847656 C 24.859375 61.851562 24.734375 61.886719 24.5 61.875 C 24.488281 61.875 24.554688 61.867188 24.523438 61.871094 C 24.503906 61.875 24.648438 61.835938 24.609375 61.851562 C 24.566406 61.863281 24.8125 61.714844 24.757812 61.761719 C 24.710938 61.804688 24.855469 61.652344 24.84375 61.667969 C 24.835938 61.683594 24.855469 61.652344 24.847656 61.664062 C 24.828125 61.695312 24.835938 61.882812 24.4375 61.972656 C 24.222656 62.023438 24.097656 61.980469 24.054688 61.976562 C 23.949219 61.96875 23.859375 61.96875 23.789062 61.984375 C 23.667969 62.011719 23.589844 62.050781 23.570312 62.070312 C 23.503906 62.132812 23.449219 62.195312 23.425781 62.238281 C 23.382812 62.304688 23.355469 62.457031 23.160156 62.679688 C 23.074219 62.777344 22.953125 62.878906 22.789062 62.9375 C 22.621094 63 22.429688 62.996094 22.273438 62.949219 C 22.070312 62.890625 21.929688 62.792969 21.792969 62.691406 C 21.691406 62.617188 21.574219 62.53125 21.457031 62.421875 C 21.355469 62.324219 21.273438 62.234375 21.234375 62.195312 C 21.226562 62.1875 21.222656 62.183594 21.214844 62.175781 M 26.472656 61.886719 C 26.519531 62.210938 26.292969 62.515625 25.96875 62.558594 C 25.640625 62.605469 25.339844 62.378906 25.292969 62.054688 C 25.289062 62.03125 25.289062 62.011719 25.289062 61.996094 C 25.285156 61.960938 25.285156 61.933594 25.289062 61.902344 C 25.289062 61.835938 25.289062 61.765625 25.328125 61.636719 C 25.429688 61.324219 25.765625 61.152344 26.078125 61.253906 C 26.390625 61.351562 26.5625 61.6875 26.464844 62.003906 C 26.4375 62.074219 26.476562 61.933594 26.476562 61.933594 C 26.476562 61.933594 26.476562 61.910156 26.476562 61.921875 C 26.476562 61.929688 26.472656 61.867188 26.472656 61.886719 M 26.078125 62.382812 C 25.765625 62.480469 25.433594 62.304688 25.335938 61.992188 C 25.238281 61.675781 25.414062 61.34375 25.726562 61.246094 C 25.777344 61.230469 25.789062 61.230469 25.789062 61.230469 C 25.792969 61.230469 25.695312 61.261719 25.730469 61.25 C 25.769531 61.234375 25.472656 61.433594 25.550781 61.363281 C 25.628906 61.285156 25.386719 61.636719 25.410156 61.578125 C 25.425781 61.523438 25.382812 61.710938 25.382812 61.6875 C 25.386719 61.652344 25.382812 61.726562 25.382812 61.714844 C 25.378906 61.671875 25.390625 61.761719 25.386719 61.75 C 25.367188 61.699219 25.269531 61.554688 25.167969 61.421875 C 25.105469 61.34375 25.054688 61.289062 25.039062 61.277344 C 25.019531 61.257812 25.238281 61.359375 25.167969 61.339844 C 25.128906 61.332031 25.398438 61.347656 25.328125 61.355469 C 25.253906 61.359375 25.699219 61.175781 25.601562 61.25 C 25.515625 61.3125 25.796875 60.980469 25.769531 61.042969 C 25.738281 61.105469 25.820312 60.859375 25.8125 60.898438 C 25.804688 60.964844 25.816406 60.773438 25.820312 60.789062 C 25.820312 60.808594 25.820312 60.785156 25.824219 60.8125 C 25.839844 60.859375 25.863281 60.867188 25.890625 60.902344 C 26.09375 61.160156 26.050781 61.535156 25.792969 61.738281 C 25.535156 61.941406 25.160156 61.898438 24.957031 61.640625 C 24.917969 61.59375 24.757812 61.4375 24.671875 61.117188 C 24.660156 61.066406 24.644531 61.003906 24.632812 60.910156 C 24.628906 60.859375 24.621094 60.800781 24.636719 60.707031 C 24.65625 60.605469 24.699219 60.433594 24.882812 60.296875 C 25.109375 60.125 25.332031 60.152344 25.480469 60.191406 C 25.625 60.230469 25.742188 60.304688 25.839844 60.394531 C 25.949219 60.492188 26.027344 60.589844 26.101562 60.683594 C 26.273438 60.902344 26.519531 61.125 26.566406 61.597656 C 26.574219 61.648438 26.578125 61.707031 26.570312 61.792969 C 26.5625 61.890625 26.546875 62.058594 26.367188 62.226562 C 26.203125 62.382812 26.089844 62.382812 26.054688 62.390625 C 26.039062 62.394531 26.117188 62.371094 26.078125 62.382812 M 25.898438 60.914062 C 26.09375 61.179688 26.039062 61.550781 25.773438 61.746094 C 25.507812 61.941406 25.132812 61.882812 24.9375 61.617188 C 24.933594 61.609375 24.925781 61.597656 24.914062 61.585938 C 24.894531 61.554688 24.867188 61.515625 24.832031 61.460938 C 24.816406 61.433594 24.6875 61.320312 24.644531 61.035156 C 24.601562 60.78125 24.683594 60.667969 24.707031 60.617188 C 24.726562 60.574219 24.6875 60.710938 24.703125 60.640625 C 24.71875 60.582031 24.699219 60.84375 24.691406 60.800781 C 24.6875 60.742188 24.722656 60.917969 24.71875 60.902344 C 24.714844 60.890625 24.722656 60.910156 24.714844 60.902344 C 24.695312 60.867188 24.640625 60.796875 24.578125 60.703125 C 24.523438 60.621094 24.476562 60.554688 24.464844 60.542969 C 24.433594 60.503906 24.40625 60.480469 24.398438 60.472656 C 24.398438 60.46875 24.429688 60.496094 24.417969 60.484375 C 24.398438 60.472656 24.609375 60.578125 24.539062 60.550781 C 24.230469 60.433594 24.078125 60.089844 24.195312 59.78125 C 24.3125 59.476562 24.660156 59.320312 24.964844 59.441406 C 25.289062 59.566406 25.289062 59.675781 25.355469 59.75 C 25.449219 59.855469 25.511719 59.957031 25.570312 60.042969 C 25.597656 60.085938 25.660156 60.164062 25.730469 60.273438 C 25.800781 60.394531 25.945312 60.578125 25.863281 60.925781 C 25.832031 61.050781 25.796875 61.105469 25.789062 61.117188 C 25.789062 61.117188 25.816406 61.03125 25.808594 61.070312 C 25.792969 61.109375 25.800781 60.734375 25.820312 60.84375 C 25.828125 60.890625 25.773438 60.726562 25.78125 60.742188 C 25.785156 60.746094 25.792969 60.75 25.839844 60.820312 C 25.863281 60.859375 25.882812 60.886719 25.890625 60.902344 C 25.898438 60.910156 25.898438 60.914062 25.898438 60.914062 M 24.164062 59.902344 C 24.214844 59.578125 24.523438 59.359375 24.847656 59.410156 C 25.171875 59.464844 25.390625 59.773438 25.339844 60.097656 C 25.332031 60.125 25.34375 60.035156 25.34375 60.046875 C 25.34375 60.066406 25.34375 60.023438 25.34375 60.023438 C 25.34375 60.03125 25.347656 60.054688 25.347656 60.078125 C 25.351562 60.132812 25.359375 60.203125 25.363281 60.230469 C 25.375 60.296875 25.398438 60.367188 25.386719 60.515625 C 25.378906 60.601562 25.367188 60.746094 25.214844 60.90625 C 25.050781 61.082031 24.761719 61.117188 24.613281 61.082031 C 24.085938 60.957031 24.078125 60.707031 23.96875 60.582031 C 23.890625 60.492188 23.824219 60.40625 23.769531 60.320312 C 23.753906 60.292969 23.71875 60.257812 23.664062 60.160156 L 24.699219 59.570312 C 24.726562 59.617188 24.597656 59.441406 24.621094 59.464844 C 24.65625 59.5 24.542969 59.398438 24.550781 59.40625 C 24.566406 59.417969 24.597656 59.421875 24.699219 59.5 C 24.730469 59.527344 24.757812 59.550781 24.78125 59.566406 C 24.789062 59.574219 24.796875 59.582031 24.804688 59.589844 C 25.054688 59.800781 25.085938 60.175781 24.875 60.429688 C 24.664062 60.679688 24.285156 60.710938 24.035156 60.5 C 24.03125 60.496094 24.027344 60.488281 24.019531 60.484375 C 24.003906 60.472656 23.984375 60.453125 23.964844 60.441406 C 23.921875 60.410156 23.894531 60.558594 23.664062 60.160156 C 23.5 59.875 23.601562 59.511719 23.886719 59.347656 C 24.171875 59.183594 24.535156 59.285156 24.699219 59.570312 C 24.710938 59.59375 24.722656 59.597656 24.769531 59.671875 C 24.785156 59.699219 24.824219 59.746094 24.867188 59.796875 C 24.929688 59.867188 24.984375 59.933594 25.023438 59.972656 C 25.039062 59.988281 25.03125 59.984375 25.039062 59.992188 C 25.046875 59.996094 24.980469 59.953125 25.003906 59.964844 C 25.027344 59.980469 24.839844 59.910156 24.890625 59.925781 C 24.953125 59.9375 24.539062 59.945312 24.644531 59.921875 C 24.75 59.898438 24.273438 60.167969 24.347656 60.089844 C 24.417969 60.011719 24.203125 60.355469 24.222656 60.296875 C 24.238281 60.246094 24.195312 60.441406 24.199219 60.414062 C 24.203125 60.367188 24.199219 60.480469 24.199219 60.476562 C 24.199219 60.476562 24.195312 60.464844 24.191406 60.445312 C 24.171875 60.339844 24.164062 60.242188 24.160156 60.15625 C 24.15625 60.113281 24.152344 60.074219 24.152344 60.035156 C 24.152344 60.015625 24.152344 60 24.15625 59.964844 C 24.15625 59.949219 24.15625 59.933594 24.164062 59.902344 M 24.035156 60.5 C 23.789062 60.28125 23.761719 59.90625 23.980469 59.65625 C 24.195312 59.410156 24.570312 59.382812 24.820312 59.601562 C 24.851562 59.628906 24.734375 59.539062 24.75 59.550781 C 24.761719 59.558594 24.734375 59.542969 24.746094 59.546875 C 25.039062 59.699219 25.152344 60.058594 25 60.351562 C 24.847656 60.644531 24.488281 60.757812 24.195312 60.605469 C 24.1875 60.601562 24.121094 60.574219 24.035156 60.5 M 25.0625 60.105469 C 25.039062 60.433594 24.753906 60.679688 24.425781 60.65625 C 24.097656 60.636719 23.851562 60.351562 23.875 60.023438 C 23.878906 59.964844 23.886719 59.933594 23.890625 59.902344 C 23.90625 59.84375 23.90625 59.808594 23.96875 59.695312 C 24.132812 59.410156 24.496094 59.308594 24.78125 59.46875 C 25.070312 59.632812 25.171875 59.996094 25.007812 60.28125 C 24.980469 60.332031 25.046875 60.191406 25.042969 60.203125 C 25.039062 60.214844 25.054688 60.164062 25.050781 60.175781 C 25.050781 60.183594 25.066406 60.058594 25.0625 60.105469 M 24.246094 60.53125 C 23.945312 60.394531 23.816406 60.039062 23.953125 59.742188 C 24.089844 59.441406 24.441406 59.308594 24.742188 59.445312 C 24.761719 59.457031 24.777344 59.464844 24.789062 59.472656 C 24.832031 59.496094 24.851562 59.511719 24.871094 59.523438 C 24.910156 59.554688 24.941406 59.582031 24.976562 59.613281 C 25.050781 59.683594 25.132812 59.773438 25.214844 59.886719 C 25.25 59.933594 25.167969 59.863281 25.222656 59.90625 C 25.238281 59.921875 25.105469 59.839844 25.144531 59.855469 C 25.183594 59.875 24.914062 59.800781 24.980469 59.808594 C 25.050781 59.816406 24.6875 59.847656 24.757812 59.828125 C 24.828125 59.804688 24.550781 59.945312 24.589844 59.914062 C 24.640625 59.875 24.484375 60.03125 24.5 60.007812 C 24.535156 59.957031 24.480469 60.035156 24.507812 59.980469 C 24.65625 59.6875 25.015625 59.570312 25.308594 59.71875 C 25.601562 59.867188 25.71875 60.226562 25.570312 60.519531 C 25.542969 60.574219 25.558594 60.664062 25.332031 60.847656 C 25.210938 60.941406 25.007812 61.011719 24.828125 60.988281 C 24.65625 60.96875 24.546875 60.894531 24.472656 60.832031 C 24.339844 60.726562 24.292969 60.640625 24.25 60.582031 C 24.222656 60.546875 24.1875 60.507812 24.167969 60.488281 C 24.15625 60.476562 24.164062 60.484375 24.15625 60.480469 C 24.152344 60.476562 24.238281 60.527344 24.203125 60.507812 C 24.195312 60.503906 24.265625 60.539062 24.246094 60.53125 "/>
<path style=" stroke:none;fill-rule:nonzero;fill:rgb(7.058716%,1.176453%,46.665955%);fill-opacity:1;" d="M 79.429688 101.273438 C 79.429688 101.601562 79.164062 101.867188 78.835938 101.867188 C 78.503906 101.867188 78.238281 101.601562 78.238281 101.273438 L 78.238281 85.539062 C 78.238281 85.210938 78.503906 84.941406 78.835938 84.941406 C 79.164062 84.941406 79.429688 85.210938 79.429688 85.539062 Z M 79.429688 101.273438 "/>
<path style=" stroke:none;fill-rule:nonzero;fill:rgb(7.058716%,1.176453%,46.665955%);fill-opacity:1;" d="M 79.429688 65.625 C 79.429688 65.957031 79.164062 66.222656 78.832031 66.222656 C 78.503906 66.222656 78.238281 65.957031 78.238281 65.625 L 78.238281 48.925781 C 78.238281 48.597656 78.503906 48.328125 78.832031 48.328125 C 79.164062 48.328125 79.429688 48.597656 79.429688 48.925781 Z M 79.429688 65.625 "/>
<path style=" stroke:none;fill-rule:nonzero;fill:rgb(7.058716%,1.176453%,46.665955%);fill-opacity:1;" d="M 88.164062 84.941406 C 88.496094 84.941406 88.761719 85.210938 88.761719 85.539062 C 88.761719 85.867188 88.496094 86.132812 88.164062 86.132812 L 69.503906 86.132812 C 69.171875 86.132812 68.90625 85.867188 68.90625 85.539062 C 68.90625 85.210938 69.171875 84.941406 69.503906 84.941406 Z M 88.164062 84.941406 "/>
<path style=" stroke:none;fill-rule:nonzero;fill:rgb(7.058716%,1.176453%,46.665955%);fill-opacity:1;" d="M 78.835938 84.136719 L 87.230469 66.222656 L 70.441406 66.222656 Z M 78.292969 85.792969 L 68.964844 65.878906 C 68.777344 65.484375 69.066406 65.03125 69.503906 65.03125 L 88.164062 65.03125 C 88.601562 65.03125 88.890625 65.484375 88.707031 65.878906 L 79.375 85.792969 C 79.160156 86.25 78.507812 86.25 78.292969 85.792969 "/>
<path style=" stroke:none;fill-rule:nonzero;fill:rgb(7.058716%,1.176453%,46.665955%);fill-opacity:1;" d="M 23.882812 101.273438 C 23.882812 100.945312 24.148438 100.675781 24.480469 100.675781 C 24.808594 100.675781 25.074219 100.945312 25.074219 101.273438 L 25.074219 112.207031 C 25.074219 112.535156 24.808594 112.800781 24.480469 112.800781 C 24.148438 112.800781 23.882812 112.535156 23.882812 112.207031 Z M 23.882812 101.273438 "/>
<path style=" stroke:none;fill-rule:nonzero;fill:rgb(7.058716%,1.176453%,46.665955%);fill-opacity:1;" d="M 15.976562 113.535156 C 15.648438 113.535156 15.382812 113.269531 15.382812 112.941406 C 15.382812 112.613281 15.648438 112.34375 15.976562 112.34375 L 32.980469 112.34375 C 33.308594 112.34375 33.578125 112.613281 33.578125 112.941406 C 33.578125 113.269531 33.308594 113.535156 32.980469 113.535156 Z M 15.976562 113.535156 "/>
<path style=" stroke:none;fill-rule:nonzero;fill:rgb(7.058716%,1.176453%,46.665955%);fill-opacity:1;" d="M 18.914062 117.4375 C 18.585938 117.4375 18.320312 117.167969 18.320312 116.839844 C 18.320312 116.511719 18.585938 116.246094 18.914062 116.246094 L 30.332031 116.246094 C 30.664062 116.246094 30.929688 116.511719 30.929688 116.839844 C 30.929688 117.167969 30.664062 117.4375 30.332031 117.4375 Z M 18.914062 117.4375 "/>
<path style=" stroke:none;fill-rule:nonzero;fill:rgb(7.058716%,1.176453%,46.665955%);fill-opacity:1;" d="M 22.1875 121.09375 C 21.855469 121.09375 21.589844 120.828125 21.589844 120.496094 C 21.589844 120.167969 21.855469 119.902344 22.1875 119.902344 L 27.0625 119.902344 C 27.390625 119.902344 27.660156 120.167969 27.660156 120.496094 C 27.660156 120.828125 27.390625 121.09375 27.0625 121.09375 Z M 22.1875 121.09375 "/>
<path style=" stroke:none;fill-rule:nonzero;fill:rgb(7.058716%,1.176453%,46.665955%);fill-opacity:1;" d="M 78.238281 101.273438 C 78.238281 100.945312 78.503906 100.675781 78.835938 100.675781 C 79.164062 100.675781 79.429688 100.945312 79.429688 101.273438 L 79.429688 112.207031 C 79.429688 112.535156 79.164062 112.800781 78.835938 112.800781 C 78.503906 112.800781 78.238281 112.535156 78.238281 112.207031 Z M 78.238281 101.273438 "/>
<path style=" stroke:none;fill-rule:nonzero;fill:rgb(7.058716%,1.176453%,46.665955%);fill-opacity:1;" d="M 70.332031 113.535156 C 70.003906 113.535156 69.738281 113.269531 69.738281 112.941406 C 69.738281 112.613281 70.003906 112.34375 70.332031 112.34375 L 87.335938 112.34375 C 87.664062 112.34375 87.929688 112.613281 87.929688 112.941406 C 87.929688 113.269531 87.664062 113.535156 87.335938 113.535156 Z M 70.332031 113.535156 "/>
<path style=" stroke:none;fill-rule:nonzero;fill:rgb(7.058716%,1.176453%,46.665955%);fill-opacity:1;" d="M 73.269531 117.4375 C 72.941406 117.4375 72.675781 117.167969 72.675781 116.839844 C 72.675781 116.511719 72.941406 116.246094 73.269531 116.246094 L 84.6875 116.246094 C 85.015625 116.246094 85.285156 116.511719 85.285156 116.839844 C 85.285156 117.167969 85.015625 117.4375 84.6875 117.4375 Z M 73.269531 117.4375 "/>
<path style=" stroke:none;fill-rule:nonzero;fill:rgb(7.058716%,1.176453%,46.665955%);fill-opacity:1;" d="M 76.539062 121.09375 C 76.210938 121.09375 75.945312 120.828125 75.945312 120.496094 C 75.945312 120.167969 76.210938 119.902344 76.539062 119.902344 L 81.417969 119.902344 C 81.746094 119.902344 82.011719 120.167969 82.011719 120.496094 C 82.011719 120.828125 81.746094 121.09375 81.417969 121.09375 Z M 76.539062 121.09375 "/>
<path style=" stroke:none;fill-rule:nonzero;fill:rgb(7.058716%,1.176453%,46.665955%);fill-opacity:1;" d="M 79.429688 50.480469 C 79.429688 50.808594 79.164062 51.074219 78.832031 51.074219 C 78.503906 51.074219 78.238281 50.808594 78.238281 50.480469 L 78.238281 32.242188 C 78.238281 31.914062 78.503906 31.644531 78.832031 31.644531 C 79.164062 31.644531 79.429688 31.914062 79.429688 32.242188 Z M 79.429688 50.480469 "/>
<path style=" stroke:none;fill-rule:nonzero;fill:rgb(7.058716%,1.176453%,46.665955%);fill-opacity:1;" d="M 24.578125 32.546875 C 24.25 32.546875 23.980469 32.28125 23.980469 31.953125 C 23.980469 31.621094 24.25 31.355469 24.578125 31.355469 L 78.832031 31.355469 C 79.164062 31.355469 79.429688 31.621094 79.429688 31.953125 C 79.429688 32.28125 79.164062 32.546875 78.832031 32.546875 Z M 24.578125 32.546875 "/>
<path style=" stroke:none;fill-rule:nonzero;fill:rgb(7.058716%,1.176453%,46.665955%);fill-opacity:1;" d="M 78.832031 32.835938 C 78.503906 32.835938 78.238281 32.570312 78.238281 32.242188 C 78.238281 31.914062 78.503906 31.644531 78.832031 31.644531 L 113.375 31.644531 C 113.703125 31.644531 113.96875 31.914062 113.96875 32.242188 C 113.96875 32.570312 113.703125 32.835938 113.375 32.835938 Z M 78.832031 32.835938 "/>
<path style=" stroke:none;fill-rule:nonzero;fill:rgb(92.941284%,21.176147%,14.117432%);fill-opacity:1;" d="M 96.886719 24.949219 C 97.085938 25.210938 97.039062 25.585938 96.777344 25.785156 C 96.515625 25.984375 96.140625 25.9375 95.941406 25.675781 C 95.800781 25.496094 95.683594 25.492188 95.554688 25.113281 C 95.507812 24.972656 95.519531 24.714844 95.652344 24.542969 C 95.777344 24.382812 95.910156 24.347656 95.984375 24.328125 C 96.128906 24.292969 96.191406 24.304688 96.246094 24.308594 C 96.351562 24.320312 96.441406 24.339844 96.539062 24.359375 C 96.691406 24.390625 97.0625 24.417969 97.582031 24.453125 C 97.90625 24.472656 98.324219 24.480469 98.851562 24.484375 C 99.75 24.496094 100.894531 24.496094 102.15625 24.484375 C 103.011719 24.476562 103.898438 24.46875 104.765625 24.453125 C 105.421875 24.4375 106.066406 24.417969 106.671875 24.390625 C 107.613281 24.355469 108.4375 24.296875 109.15625 24.238281 C 109.546875 24.203125 109.898438 24.167969 110.242188 24.128906 C 110.875 24.058594 111.476562 23.992188 112 23.941406 C 112.320312 23.910156 112.605469 23.894531 112.847656 23.882812 C 113.0625 23.871094 113.238281 23.875 113.359375 23.878906 C 113.472656 23.882812 113.582031 23.878906 113.703125 23.878906 C 113.820312 23.878906 113.929688 23.882812 114 23.886719 C 114.035156 23.886719 114.050781 23.886719 114.054688 23.886719 C 114.066406 23.886719 113.902344 23.914062 113.96875 23.898438 C 113.988281 23.894531 113.929688 23.90625 113.945312 23.902344 C 114.261719 23.820312 114.589844 24.007812 114.675781 24.324219 C 114.757812 24.640625 114.570312 24.96875 114.253906 25.054688 C 114.238281 25.058594 114.226562 25.0625 114.214844 25.0625 C 114.148438 25.078125 114.125 25.074219 114.097656 25.078125 C 114.050781 25.078125 114.019531 25.078125 113.980469 25.078125 C 113.894531 25.074219 113.796875 25.070312 113.695312 25.070312 C 113.609375 25.070312 113.484375 25.074219 113.324219 25.070312 C 113.191406 25.066406 113.070312 25.0625 112.910156 25.070312 C 112.679688 25.082031 112.410156 25.101562 112.113281 25.128906 C 111.605469 25.175781 111.007812 25.242188 110.371094 25.3125 C 110.027344 25.351562 109.664062 25.390625 109.257812 25.425781 C 108.523438 25.488281 107.679688 25.542969 106.722656 25.582031 C 106.109375 25.609375 105.457031 25.628906 104.789062 25.640625 C 103.914062 25.660156 103.023438 25.667969 102.164062 25.675781 C 100.898438 25.6875 99.746094 25.6875 98.839844 25.675781 C 98.304688 25.671875 97.875 25.664062 97.507812 25.640625 C 96.984375 25.609375 96.605469 25.589844 96.289062 25.523438 C 96.210938 25.507812 96.148438 25.496094 96.140625 25.496094 C 96.144531 25.496094 96.1875 25.496094 96.167969 25.496094 C 96.148438 25.496094 96.339844 25.464844 96.28125 25.480469 C 96.253906 25.488281 96.457031 25.40625 96.40625 25.433594 C 96.351562 25.460938 96.648438 25.203125 96.589844 25.28125 C 96.527344 25.359375 96.722656 24.882812 96.710938 24.984375 C 96.699219 25.085938 96.660156 24.667969 96.683594 24.734375 C 96.699219 24.777344 96.640625 24.640625 96.648438 24.65625 C 96.675781 24.703125 96.738281 24.757812 96.886719 24.949219 M 114.464844 24.003906 C 114.726562 24.207031 114.773438 24.578125 114.570312 24.839844 C 114.371094 25.101562 113.996094 25.148438 113.738281 24.949219 C 113.648438 24.878906 113.957031 25.050781 113.921875 25.042969 C 113.867188 25.027344 113.984375 25.054688 113.976562 25.054688 C 113.933594 25.050781 113.789062 25.046875 113.613281 25.015625 C 113.011719 24.910156 112.804688 24.507812 112.605469 24.335938 C 112.355469 24.113281 112.136719 23.921875 111.933594 23.75 C 111.851562 23.679688 111.773438 23.617188 111.703125 23.566406 C 111.578125 23.480469 111.597656 23.472656 111.546875 23.453125 C 111.480469 23.429688 111.8125 23.464844 111.75 23.472656 C 111.6875 23.484375 111.925781 23.402344 111.890625 23.425781 C 111.832031 23.460938 111.996094 23.304688 111.984375 23.328125 C 111.972656 23.351562 112.015625 24.425781 112.222656 25.492188 C 112.339844 26.089844 112.503906 26.648438 112.65625 26.964844 C 112.691406 27.039062 112.722656 27.089844 112.738281 27.109375 C 112.75 27.125 112.644531 27.054688 112.691406 27.082031 C 112.742188 27.105469 112.464844 27.042969 112.519531 27.042969 C 112.570312 27.039062 112.417969 27.066406 112.429688 27.0625 C 112.433594 27.058594 112.480469 27.023438 112.554688 26.941406 C 112.71875 26.753906 112.914062 26.433594 113.101562 26.078125 C 113.472656 25.363281 113.777344 24.558594 113.789062 24.507812 C 113.875 24.191406 114.203125 24 114.519531 24.085938 C 114.835938 24.171875 115.027344 24.5 114.941406 24.816406 C 114.855469 25.128906 114.570312 25.835938 114.15625 26.628906 C 113.949219 27.03125 113.722656 27.414062 113.453125 27.726562 C 113.316406 27.878906 113.167969 28.023438 112.960938 28.128906 C 112.746094 28.234375 112.40625 28.277344 112.132812 28.132812 C 111.824219 27.96875 111.695312 27.714844 111.582031 27.480469 C 111.355469 27.003906 111.183594 26.382812 111.054688 25.71875 C 110.839844 24.621094 110.503906 23.628906 110.917969 22.796875 C 110.992188 22.644531 111.101562 22.507812 111.269531 22.40625 C 111.441406 22.300781 111.707031 22.246094 111.949219 22.332031 C 112.1875 22.417969 112.296875 22.53125 112.382812 22.589844 C 112.5 22.671875 112.605469 22.757812 112.703125 22.839844 C 112.917969 23.019531 113.140625 23.214844 113.394531 23.441406 C 113.535156 23.566406 113.652344 23.6875 113.75 23.769531 C 113.792969 23.808594 113.832031 23.835938 113.851562 23.847656 C 113.867188 23.859375 113.773438 23.835938 113.816406 23.84375 C 113.878906 23.851562 113.9375 23.855469 114.003906 23.859375 C 114.074219 23.863281 114.132812 23.746094 114.464844 24.003906 "/>
<path style=" stroke:none;fill-rule:nonzero;fill:rgb(92.941284%,21.176147%,14.117432%);fill-opacity:1;" d="M 107.292969 7.230469 C 107.472656 7.507812 107.390625 7.878906 107.113281 8.054688 C 106.835938 8.230469 106.464844 8.148438 106.289062 7.871094 C 106.277344 7.855469 106.375 7.976562 106.34375 7.945312 C 106.316406 7.914062 106.589844 8.117188 106.503906 8.070312 C 106.214844 7.914062 106.105469 7.554688 106.265625 7.265625 C 106.421875 6.976562 106.78125 6.867188 107.070312 7.023438 C 107.234375 7.113281 107.265625 7.1875 107.292969 7.230469 M 106.324219 7.171875 C 106.535156 6.917969 106.910156 6.878906 107.164062 7.089844 C 107.417969 7.296875 107.453125 7.671875 107.246094 7.925781 C 107.199219 7.980469 107.347656 7.75 107.332031 7.789062 C 107.316406 7.824219 107.363281 7.683594 107.359375 7.703125 C 107.339844 7.773438 107.378906 7.574219 107.375 7.589844 C 107.375 7.605469 107.375 7.566406 107.378906 7.570312 C 107.378906 7.574219 107.382812 7.625 107.386719 7.691406 C 107.402344 7.835938 107.429688 8.046875 107.460938 8.285156 C 107.515625 8.757812 107.558594 9.289062 107.585938 9.8125 C 107.699219 11.882812 107.355469 13.757812 107.539062 14.457031 C 107.621094 14.777344 107.429688 15.101562 107.113281 15.1875 C 106.796875 15.269531 106.46875 15.078125 106.386719 14.761719 C 106.058594 13.515625 106.5 11.78125 106.398438 9.878906 C 106.371094 9.375 106.328125 8.863281 106.277344 8.425781 C 106.25 8.191406 106.222656 7.980469 106.203125 7.820312 C 106.195312 7.742188 106.1875 7.679688 106.1875 7.609375 C 106.183594 7.570312 106.167969 7.542969 106.207031 7.402344 C 106.21875 7.351562 106.234375 7.28125 106.324219 7.171875 "/>
<path style=" stroke:none;fill-rule:nonzero;fill:rgb(92.941284%,21.176147%,14.117432%);fill-opacity:1;" d="M 104.722656 15.378906 C 104.742188 15.707031 104.492188 15.992188 104.164062 16.011719 C 103.835938 16.03125 103.554688 15.785156 103.535156 15.457031 C 103.523438 15.273438 103.574219 14.988281 103.789062 14.804688 C 103.996094 14.625 104.214844 14.617188 104.359375 14.621094 C 104.632812 14.628906 104.851562 14.699219 105.105469 14.753906 C 105.46875 14.832031 106.007812 14.875 106.644531 14.867188 C 107.425781 14.859375 108.304688 14.707031 109.042969 14.515625 C 109.398438 14.421875 109.710938 14.324219 109.9375 14.234375 C 110.046875 14.191406 110.132812 14.152344 110.1875 14.125 C 110.210938 14.109375 110.226562 14.101562 110.226562 14.101562 C 110.226562 14.101562 110.128906 14.210938 110.167969 14.160156 C 110.371094 13.902344 110.746094 13.863281 111.003906 14.070312 C 111.261719 14.273438 111.300781 14.648438 111.097656 14.90625 C 110.855469 15.203125 110.648438 15.234375 110.371094 15.34375 C 110.085938 15.457031 109.734375 15.566406 109.34375 15.667969 C 108.53125 15.878906 107.578125 16.050781 106.65625 16.058594 C 105.957031 16.066406 105.351562 16.023438 104.855469 15.921875 C 104.578125 15.859375 104.359375 15.8125 104.324219 15.8125 C 104.324219 15.8125 104.417969 15.796875 104.378906 15.804688 C 104.335938 15.816406 104.632812 15.648438 104.5625 15.707031 C 104.492188 15.769531 104.726562 15.425781 104.707031 15.492188 C 104.6875 15.554688 104.722656 15.367188 104.722656 15.378906 "/>
<path style=" stroke:none;fill-rule:nonzero;fill:rgb(92.941284%,21.176147%,14.117432%);fill-opacity:1;" d="M 103.480469 6.632812 C 103.5 6.960938 103.25 7.242188 102.921875 7.261719 C 102.59375 7.28125 102.3125 7.03125 102.292969 6.703125 C 102.28125 6.527344 102.257812 6.359375 102.257812 6.160156 C 102.253906 5.957031 102.292969 5.644531 102.539062 5.410156 C 102.890625 5.078125 103.261719 5.097656 103.628906 5.09375 C 104 5.085938 104.417969 5.113281 104.871094 5.125 C 105.339844 5.136719 105.871094 5.125 106.417969 5.125 C 108.800781 5.121094 110.867188 4.859375 112.140625 5.007812 C 112.464844 5.042969 112.703125 5.339844 112.664062 5.664062 C 112.625 5.992188 112.332031 6.226562 112.003906 6.191406 C 111.015625 6.078125 108.871094 6.3125 106.417969 6.316406 C 105.886719 6.316406 105.347656 6.328125 104.839844 6.316406 C 104.363281 6.304688 103.953125 6.277344 103.648438 6.285156 C 103.507812 6.285156 103.398438 6.296875 103.335938 6.308594 C 103.308594 6.316406 103.300781 6.316406 103.296875 6.320312 C 103.292969 6.320312 103.390625 6.246094 103.359375 6.273438 C 103.3125 6.320312 103.453125 6.105469 103.445312 6.136719 C 103.4375 6.164062 103.449219 6.121094 103.449219 6.15625 C 103.449219 6.238281 103.46875 6.410156 103.480469 6.632812 "/>
<path style=" stroke:none;fill-rule:nonzero;fill:rgb(92.941284%,21.176147%,14.117432%);fill-opacity:1;" d="M 115.425781 11.488281 C 115.410156 11.816406 115.132812 12.070312 114.804688 12.058594 C 114.476562 12.042969 114.21875 11.765625 114.234375 11.4375 C 114.238281 11.363281 114.238281 11.238281 114.234375 11.136719 C 114.230469 11.0625 114.230469 11.003906 114.230469 10.988281 C 114.230469 10.984375 114.230469 11.007812 114.230469 11 C 114.230469 10.992188 114.238281 11.046875 114.234375 11.03125 C 114.234375 11.011719 114.28125 11.179688 114.261719 11.128906 C 114.148438 10.816406 114.308594 10.476562 114.617188 10.363281 C 114.925781 10.25 115.269531 10.410156 115.382812 10.71875 C 115.449219 10.902344 115.417969 10.894531 115.417969 10.925781 C 115.421875 10.980469 115.421875 11.035156 115.425781 11.101562 C 115.429688 11.226562 115.429688 11.363281 115.425781 11.488281 M 114.253906 10.730469 C 114.363281 10.417969 114.703125 10.253906 115.015625 10.363281 C 115.324219 10.472656 115.488281 10.8125 115.378906 11.125 C 115.371094 11.148438 115.394531 11.070312 115.390625 11.078125 C 115.386719 11.097656 115.375 11.332031 115.34375 11.625 C 115.292969 12.039062 115.207031 12.582031 114.996094 13.265625 C 114.863281 13.699219 114.6875 14.171875 114.476562 14.660156 C 114.300781 15.0625 114.09375 15.4375 113.914062 15.773438 C 113.609375 16.347656 113.316406 16.8125 113.277344 16.941406 C 113.265625 16.972656 113.261719 16.664062 113.28125 16.757812 C 113.300781 16.851562 113.0625 16.449219 113.128906 16.507812 C 113.191406 16.558594 112.976562 16.429688 112.996094 16.433594 C 113.015625 16.441406 112.984375 16.433594 113.007812 16.433594 C 113.203125 16.433594 113.714844 16.316406 114.296875 16.1875 C 115.09375 16.007812 115.953125 15.871094 116.75 15.785156 C 117.5625 15.699219 118.265625 15.699219 118.820312 15.777344 C 119.085938 15.8125 119.3125 15.863281 119.53125 15.96875 C 119.640625 16.019531 119.757812 16.089844 119.867188 16.226562 C 119.980469 16.371094 120.058594 16.625 120.007812 16.84375 C 119.929688 17.164062 119.605469 17.359375 119.285156 17.28125 C 118.964844 17.203125 118.769531 16.882812 118.847656 16.5625 C 118.867188 16.488281 118.871094 16.875 118.851562 16.796875 C 118.832031 16.722656 118.964844 17.007812 118.933594 16.96875 C 118.90625 16.933594 119.015625 17.042969 119 17.03125 C 118.988281 17.023438 119.015625 17.042969 119.011719 17.039062 C 118.980469 17.023438 118.84375 16.984375 118.652344 16.957031 C 118.234375 16.898438 117.609375 16.890625 116.875 16.96875 C 116.125 17.050781 115.300781 17.179688 114.558594 17.347656 C 113.992188 17.476562 113.484375 17.628906 112.996094 17.625 C 112.808594 17.625 112.589844 17.609375 112.367188 17.421875 C 112.25 17.324219 112.152344 17.167969 112.117188 17.011719 C 112.082031 16.851562 112.101562 16.710938 112.136719 16.59375 C 112.28125 16.125 112.589844 15.730469 112.863281 15.214844 C 113.046875 14.867188 113.238281 14.519531 113.382812 14.1875 C 113.578125 13.734375 113.738281 13.300781 113.859375 12.914062 C 114.042969 12.3125 114.117188 11.855469 114.160156 11.488281 C 114.183594 11.253906 114.171875 11.050781 114.238281 10.785156 C 114.242188 10.773438 114.246094 10.753906 114.253906 10.730469 "/>
</g>
</svg>
