<?xml version="1.0" encoding="UTF-8"?>
<svg xmlns="http://www.w3.org/2000/svg" xmlns:xlink="http://www.w3.org/1999/xlink" width="187.5995pt" height="148.882pt" viewBox="0 0 187.5995 148.882" version="1.2">
<g id="surface1">
<path style=" stroke:none;fill-rule:nonzero;fill:rgb(7.058716%,1.176453%,46.665955%);fill-opacity:1;" d="M 93.863281 40.445312 C 93.535156 40.445312 93.265625 40.179688 93.265625 39.847656 C 93.265625 39.519531 93.535156 39.253906 93.863281 39.253906 L 109.613281 39.253906 C 109.945312 39.253906 110.210938 39.519531 110.210938 39.847656 C 110.210938 40.179688 109.945312 40.445312 109.613281 40.445312 Z M 93.863281 40.445312 "/>
<path style=" stroke:none;fill-rule:nonzero;fill:rgb(7.058716%,1.176453%,46.665955%);fill-opacity:1;" d="M 145.324219 38.886719 C 144.996094 38.886719 144.730469 38.617188 144.730469 38.289062 C 144.730469 37.960938 144.996094 37.691406 145.324219 37.691406 L 162.046875 37.691406 C 162.375 37.691406 162.640625 37.960938 162.640625 38.289062 C 162.640625 38.617188 162.375 38.886719 162.046875 38.886719 Z M 145.324219 38.886719 "/>
<path style=" stroke:none;fill-rule:nonzero;fill:rgb(7.058716%,1.176453%,46.665955%);fill-opacity:1;" d="M 109.132812 40.003906 C 108.9375 39.738281 108.996094 39.363281 109.261719 39.167969 C 109.527344 38.972656 109.898438 39.03125 110.09375 39.292969 L 114.050781 44.664062 C 114.246094 44.929688 114.191406 45.300781 113.925781 45.496094 C 113.660156 45.691406 113.289062 45.636719 113.09375 45.371094 Z M 109.132812 40.003906 "/>
<path style=" stroke:none;fill-rule:nonzero;fill:rgb(7.058716%,1.176453%,46.665955%);fill-opacity:1;" d="M 114.082031 45.324219 C 113.914062 45.609375 113.546875 45.699219 113.265625 45.527344 C 112.984375 45.359375 112.890625 44.992188 113.0625 44.710938 L 119.289062 34.371094 C 119.460938 34.089844 119.828125 34 120.109375 34.167969 C 120.390625 34.339844 120.480469 34.707031 120.3125 34.988281 Z M 114.082031 45.324219 "/>
<path style=" stroke:none;fill-rule:nonzero;fill:rgb(7.058716%,1.176453%,46.665955%);fill-opacity:1;" d="M 119.320312 35.035156 C 119.125 34.769531 119.183594 34.394531 119.449219 34.199219 C 119.710938 34.003906 120.085938 34.0625 120.28125 34.328125 L 127.902344 44.664062 C 128.097656 44.929688 128.039062 45.300781 127.777344 45.496094 C 127.511719 45.691406 127.136719 45.636719 126.941406 45.371094 Z M 119.320312 35.035156 "/>
<path style=" stroke:none;fill-rule:nonzero;fill:rgb(7.058716%,1.176453%,46.665955%);fill-opacity:1;" d="M 127.933594 45.324219 C 127.761719 45.609375 127.394531 45.699219 127.113281 45.527344 C 126.832031 45.359375 126.742188 44.992188 126.910156 44.710938 L 133.140625 34.371094 C 133.308594 34.089844 133.675781 34 133.957031 34.167969 C 134.242188 34.339844 134.332031 34.707031 134.160156 34.988281 Z M 127.933594 45.324219 "/>
<path style=" stroke:none;fill-rule:nonzero;fill:rgb(7.058716%,1.176453%,46.665955%);fill-opacity:1;" d="M 133.171875 35.035156 C 132.976562 34.769531 133.03125 34.394531 133.296875 34.199219 C 133.5625 34.003906 133.933594 34.0625 134.128906 34.328125 L 141.75 44.664062 C 141.945312 44.929688 141.890625 45.300781 141.625 45.496094 C 141.359375 45.691406 140.988281 45.636719 140.792969 45.371094 Z M 133.171875 35.035156 "/>
<path style=" stroke:none;fill-rule:nonzero;fill:rgb(7.058716%,1.176453%,46.665955%);fill-opacity:1;" d="M 141.78125 45.324219 C 141.613281 45.609375 141.246094 45.699219 140.964844 45.527344 C 140.679688 45.359375 140.589844 44.992188 140.761719 44.710938 L 144.816406 37.980469 C 144.984375 37.699219 145.351562 37.609375 145.632812 37.777344 C 145.914062 37.949219 146.007812 38.316406 145.835938 38.597656 Z M 141.78125 45.324219 "/>
<path style=" stroke:none;fill-rule:nonzero;fill:rgb(7.058716%,1.176453%,46.665955%);fill-opacity:1;" d="M 92.671875 39.847656 C 92.671875 39.519531 92.9375 39.253906 93.265625 39.253906 C 93.59375 39.253906 93.863281 39.519531 93.863281 39.847656 L 93.863281 56.953125 C 93.863281 57.28125 93.59375 57.546875 93.265625 57.546875 C 92.9375 57.546875 92.671875 57.28125 92.671875 56.953125 Z M 92.671875 39.847656 "/>
<path style=" stroke:none;fill-rule:nonzero;fill:rgb(7.058716%,1.176453%,46.665955%);fill-opacity:1;" d="M 109.230469 72.070312 C 109.230469 77.867188 106.097656 82.925781 101.429688 85.652344 C 99.105469 87.011719 96.398438 87.789062 93.511719 87.789062 C 87.71875 87.789062 82.65625 84.65625 79.929688 79.988281 C 78.570312 77.664062 77.792969 74.960938 77.792969 72.070312 C 77.792969 66.277344 80.929688 61.214844 85.59375 58.492188 C 87.917969 57.132812 90.625 56.351562 93.511719 56.351562 C 99.304688 56.351562 104.367188 59.488281 107.09375 64.152344 C 108.453125 66.480469 109.230469 69.183594 109.230469 72.070312 M 108.039062 72.070312 C 108.039062 69.402344 107.320312 66.902344 106.0625 64.753906 C 103.542969 60.441406 98.867188 57.546875 93.511719 57.546875 C 90.84375 57.546875 88.34375 58.265625 86.195312 59.519531 C 81.882812 62.039062 78.984375 66.71875 78.984375 72.070312 C 78.984375 74.738281 79.707031 77.238281 80.960938 79.386719 C 83.480469 83.699219 88.15625 86.597656 93.511719 86.597656 C 96.179688 86.597656 98.679688 85.878906 100.828125 84.625 C 105.140625 82.105469 108.039062 77.425781 108.039062 72.070312 "/>
<path style=" stroke:none;fill-rule:nonzero;fill:rgb(7.058716%,1.176453%,46.665955%);fill-opacity:1;" d="M 92.570312 87.191406 C 92.570312 86.859375 92.839844 86.59375 93.167969 86.59375 C 93.496094 86.59375 93.765625 86.859375 93.765625 87.191406 L 93.765625 108.652344 C 93.765625 108.980469 93.496094 109.246094 93.167969 109.246094 C 92.839844 109.246094 92.570312 108.980469 92.570312 108.652344 Z M 92.570312 87.191406 "/>
<path style=" stroke:none;fill-rule:nonzero;fill:rgb(7.058716%,1.176453%,46.665955%);fill-opacity:1;" d="M 92.570312 61.296875 C 92.570312 60.96875 92.839844 60.699219 93.167969 60.699219 C 93.496094 60.699219 93.765625 60.96875 93.765625 61.296875 L 93.765625 71.175781 C 93.765625 71.507812 93.496094 71.773438 93.167969 71.773438 C 92.839844 71.773438 92.570312 71.507812 92.570312 71.175781 Z M 92.570312 61.296875 "/>
<path style=" stroke:none;fill-rule:nonzero;fill:rgb(7.058716%,1.176453%,46.665955%);fill-opacity:1;" d="M 88.1875 66.832031 C 87.855469 66.832031 87.589844 66.566406 87.589844 66.238281 C 87.589844 65.90625 87.855469 65.640625 88.1875 65.640625 L 98.148438 65.640625 C 98.480469 65.640625 98.746094 65.90625 98.746094 66.238281 C 98.746094 66.566406 98.480469 66.832031 98.148438 66.832031 Z M 88.1875 66.832031 "/>
<path style=" stroke:none;fill-rule:nonzero;fill:rgb(7.058716%,1.176453%,46.665955%);fill-opacity:1;" d="M 88.53125 82.738281 C 88.199219 82.738281 87.933594 82.472656 87.933594 82.144531 C 87.933594 81.8125 88.199219 81.546875 88.53125 81.546875 L 98.492188 81.546875 C 98.824219 81.546875 99.089844 81.8125 99.089844 82.144531 C 99.089844 82.472656 98.824219 82.738281 98.492188 82.738281 Z M 88.53125 82.738281 "/>
<path style=" stroke:none;fill-rule:nonzero;fill:rgb(7.058716%,1.176453%,46.665955%);fill-opacity:1;" d="M 92.570312 109.3125 C 92.570312 108.980469 92.839844 108.714844 93.167969 108.714844 C 93.496094 108.714844 93.765625 108.980469 93.765625 109.3125 L 93.765625 120.257812 C 93.765625 120.585938 93.496094 120.851562 93.167969 120.851562 C 92.839844 120.851562 92.570312 120.585938 92.570312 120.257812 Z M 92.570312 109.3125 "/>
<path style=" stroke:none;fill-rule:nonzero;fill:rgb(7.058716%,1.176453%,46.665955%);fill-opacity:1;" d="M 84.65625 121.589844 C 84.328125 121.589844 84.0625 121.320312 84.0625 120.992188 C 84.0625 120.664062 84.328125 120.394531 84.65625 120.394531 L 101.679688 120.394531 C 102.007812 120.394531 102.277344 120.664062 102.277344 120.992188 C 102.277344 121.320312 102.007812 121.589844 101.679688 121.589844 Z M 84.65625 121.589844 "/>
<path style=" stroke:none;fill-rule:nonzero;fill:rgb(7.058716%,1.176453%,46.665955%);fill-opacity:1;" d="M 87.597656 125.492188 C 87.269531 125.492188 87 125.226562 87 124.894531 C 87 124.566406 87.269531 124.300781 87.597656 124.300781 L 99.027344 124.300781 C 99.359375 124.300781 99.625 124.566406 99.625 124.894531 C 99.625 125.226562 99.359375 125.492188 99.027344 125.492188 Z M 87.597656 125.492188 "/>
<path style=" stroke:none;fill-rule:nonzero;fill:rgb(7.058716%,1.176453%,46.665955%);fill-opacity:1;" d="M 90.871094 129.152344 C 90.542969 129.152344 90.277344 128.886719 90.277344 128.558594 C 90.277344 128.226562 90.542969 127.960938 90.871094 127.960938 L 95.753906 127.960938 C 96.082031 127.960938 96.351562 128.226562 96.351562 128.558594 C 96.351562 128.886719 96.082031 129.152344 95.753906 129.152344 Z M 90.871094 129.152344 "/>
<path style=" stroke:none;fill-rule:nonzero;fill:rgb(92.941284%,21.176147%,14.117432%);fill-opacity:1;" d="M 132.085938 11.988281 C 131.757812 11.96875 131.503906 11.6875 131.523438 11.359375 C 131.542969 11.03125 131.824219 10.777344 132.152344 10.796875 C 132.269531 10.804688 132.402344 10.800781 132.59375 10.925781 C 132.699219 10.996094 132.820312 11.132812 132.867188 11.300781 C 132.914062 11.46875 132.878906 11.621094 132.839844 11.71875 C 132.707031 12.054688 132.546875 12.105469 132.386719 12.230469 C 132.105469 12.453125 131.59375 12.882812 130.761719 13.511719 C 130.324219 13.84375 129.804688 14.253906 129.195312 14.710938 C 128.53125 15.207031 127.800781 15.753906 127.058594 16.289062 C 125.835938 17.171875 124.625 17.933594 123.824219 18.5 C 123.523438 18.710938 123.324219 18.871094 123.253906 18.945312 C 123.242188 18.957031 123.246094 18.949219 123.242188 18.957031 C 123.234375 18.96875 123.300781 18.808594 123.285156 18.863281 C 123.265625 18.925781 123.261719 18.5 123.289062 18.601562 C 123.316406 18.707031 123.09375 18.308594 123.148438 18.359375 C 123.191406 18.398438 123.027344 18.28125 123.046875 18.289062 C 123.117188 18.324219 123.320312 18.308594 123.707031 18.347656 C 124.65625 18.445312 125.683594 18.851562 126.578125 19.195312 C 127.59375 19.585938 128.355469 20.085938 128.90625 20.269531 C 129.15625 20.351562 129.324219 20.363281 129.464844 20.320312 C 129.609375 20.277344 129.796875 20.15625 130.027344 19.855469 C 130.230469 19.59375 130.601562 19.546875 130.863281 19.746094 C 131.125 19.945312 131.175781 20.320312 130.972656 20.582031 C 130.636719 21.019531 130.246094 21.335938 129.800781 21.464844 C 129.363281 21.59375 128.921875 21.53125 128.53125 21.398438 C 127.753906 21.140625 127.035156 20.648438 126.152344 20.308594 C 125.269531 19.96875 124.289062 19.605469 123.585938 19.535156 C 123.398438 19.515625 123.207031 19.507812 123.015625 19.484375 C 122.824219 19.464844 122.609375 19.488281 122.332031 19.230469 C 122.160156 19.070312 122.078125 18.722656 122.144531 18.511719 C 122.203125 18.316406 122.300781 18.214844 122.394531 18.117188 C 122.574219 17.929688 122.8125 17.753906 123.136719 17.523438 C 123.980469 16.929688 125.171875 16.175781 126.359375 15.320312 C 127.09375 14.792969 127.816406 14.253906 128.480469 13.757812 C 129.074219 13.308594 129.589844 12.902344 130.042969 12.5625 C 130.855469 11.949219 131.335938 11.539062 131.652344 11.289062 C 131.714844 11.242188 131.761719 11.203125 131.785156 11.179688 C 131.792969 11.171875 131.78125 11.1875 131.789062 11.179688 C 131.796875 11.167969 131.707031 11.335938 131.734375 11.277344 C 131.746094 11.242188 131.691406 11.464844 131.699219 11.40625 C 131.707031 11.351562 131.734375 11.683594 131.714844 11.609375 C 131.695312 11.535156 131.855469 11.863281 131.8125 11.808594 C 131.773438 11.753906 131.976562 11.949219 131.9375 11.921875 C 131.867188 11.875 132.101562 11.988281 132.078125 11.984375 C 132.0625 11.980469 132.097656 11.988281 132.085938 11.988281 "/>
<path style=" stroke:none;fill-rule:nonzero;fill:rgb(92.941284%,21.176147%,14.117432%);fill-opacity:1;" d="M 141.335938 8.582031 C 141.488281 8.871094 141.378906 9.234375 141.089844 9.390625 C 140.800781 9.546875 140.4375 9.4375 140.28125 9.144531 C 140.273438 9.125 140.335938 9.195312 140.304688 9.164062 C 140.285156 9.144531 140.441406 9.257812 140.398438 9.234375 C 140.347656 9.207031 140.660156 9.292969 140.585938 9.289062 C 140.511719 9.28125 140.859375 9.238281 140.796875 9.257812 C 140.738281 9.28125 140.960938 9.164062 140.929688 9.1875 C 140.878906 9.230469 140.992188 9.121094 140.992188 9.121094 C 140.960938 9.171875 140.859375 9.480469 140.78125 9.886719 C 140.710938 10.242188 140.632812 10.652344 140.566406 11.132812 C 140.382812 12.46875 140.222656 14.179688 140.128906 15.667969 C 140.019531 17.445312 140.117188 18.585938 140.132812 18.613281 C 140.144531 18.628906 139.980469 18.488281 140.035156 18.523438 C 140.09375 18.558594 139.789062 18.46875 139.84375 18.46875 C 139.894531 18.46875 139.765625 18.480469 139.765625 18.480469 C 139.769531 18.480469 139.792969 18.46875 139.828125 18.445312 C 140 18.324219 140.316406 17.996094 140.714844 17.511719 C 140.925781 17.257812 141.300781 17.222656 141.554688 17.433594 C 141.808594 17.640625 141.84375 18.015625 141.636719 18.269531 C 141.210938 18.785156 140.871094 19.167969 140.511719 19.421875 C 140.335938 19.542969 140.132812 19.660156 139.855469 19.664062 C 139.5625 19.664062 139.265625 19.46875 139.128906 19.257812 C 138.875 18.859375 138.867188 18.429688 138.855469 17.863281 C 138.847656 17.265625 138.882812 16.515625 138.941406 15.59375 C 139.035156 14.078125 139.195312 12.347656 139.386719 10.96875 C 139.457031 10.457031 139.539062 10.019531 139.609375 9.660156 C 139.699219 9.203125 139.773438 8.835938 139.964844 8.515625 C 140.011719 8.433594 140.074219 8.34375 140.179688 8.257812 C 140.292969 8.167969 140.480469 8.082031 140.6875 8.097656 C 140.886719 8.117188 141.042969 8.21875 141.136719 8.3125 C 141.230469 8.402344 141.285156 8.492188 141.335938 8.582031 "/>
<path style=" stroke:none;fill-rule:nonzero;fill:rgb(92.941284%,21.176147%,14.117432%);fill-opacity:1;" d="M 145.507812 14.175781 C 145.210938 14.027344 145.09375 13.671875 145.242188 13.375 C 145.394531 13.082031 145.75 12.964844 146.046875 13.113281 C 146.339844 13.261719 146.574219 13.546875 146.667969 13.863281 C 146.765625 14.175781 146.75 14.503906 146.679688 14.847656 C 146.597656 15.265625 146.398438 15.574219 146.257812 15.917969 C 145.964844 16.605469 145.726562 17.5 145.582031 18.269531 C 145.480469 18.796875 145.5 19.179688 145.558594 19.300781 C 145.558594 19.304688 145.554688 19.308594 145.632812 19.335938 C 145.726562 19.371094 145.886719 19.390625 146.082031 19.375 C 146.707031 19.335938 147.707031 18.824219 148.484375 18.1875 C 148.828125 17.902344 149.105469 17.523438 149.335938 17.15625 C 149.605469 16.722656 149.65625 16.359375 149.597656 15.96875 C 149.46875 15.125 148.796875 14.175781 148.066406 13.710938 C 147.71875 13.492188 147.394531 13.40625 147.167969 13.441406 C 146.957031 13.46875 146.765625 13.582031 146.582031 13.960938 C 146.4375 14.257812 146.082031 14.378906 145.785156 14.234375 C 145.488281 14.089844 145.367188 13.734375 145.507812 13.4375 C 145.828125 12.785156 146.390625 12.34375 147 12.257812 C 147.601562 12.171875 148.191406 12.378906 148.703125 12.703125 C 149.738281 13.359375 150.585938 14.519531 150.777344 15.789062 C 150.871094 16.417969 150.757812 17.125 150.347656 17.785156 C 150.082031 18.210938 149.738281 18.699219 149.242188 19.109375 C 148.332031 19.855469 147.230469 20.496094 146.160156 20.566406 C 145.847656 20.585938 145.539062 20.566406 145.242188 20.464844 C 144.941406 20.359375 144.636719 20.144531 144.480469 19.8125 C 144.21875 19.269531 144.292969 18.671875 144.410156 18.046875 C 144.566406 17.210938 144.816406 16.257812 145.15625 15.453125 C 145.328125 15.046875 145.484375 14.746094 145.511719 14.609375 C 145.554688 14.402344 145.542969 14.261719 145.527344 14.210938 C 145.515625 14.167969 145.527344 14.1875 145.507812 14.175781 "/>
<path style=" stroke:none;fill-rule:nonzero;fill:rgb(92.941284%,21.176147%,14.117432%);fill-opacity:1;" d="M 155.277344 21.394531 C 155.535156 21.597656 155.578125 21.972656 155.375 22.234375 C 155.171875 22.492188 154.796875 22.535156 154.539062 22.332031 C 154.457031 22.269531 154.273438 22.113281 154.300781 21.792969 C 154.324219 21.46875 154.554688 21.335938 154.652344 21.289062 C 154.816406 21.207031 154.890625 21.21875 154.96875 21.210938 C 155.132812 21.195312 155.320312 21.191406 155.550781 21.191406 C 156.035156 21.191406 156.660156 21.207031 157.324219 21.195312 C 158.171875 21.179688 159.074219 21.082031 159.847656 20.980469 C 160.378906 20.910156 160.8125 20.84375 161.113281 20.769531 C 161.253906 20.738281 161.355469 20.703125 161.414062 20.671875 C 161.460938 20.652344 161.390625 20.730469 161.421875 20.6875 C 161.464844 20.625 161.351562 20.914062 161.355469 20.867188 C 161.359375 20.828125 161.359375 20.921875 161.355469 20.914062 C 161.347656 20.886719 161.3125 20.792969 161.253906 20.671875 C 161.144531 20.441406 161.015625 20.175781 160.898438 19.890625 C 160.710938 19.449219 160.617188 18.980469 160.515625 18.414062 C 160.289062 17.171875 160.058594 15.425781 159.894531 13.777344 C 159.820312 13.03125 159.765625 12.367188 159.75 11.851562 C 159.742188 11.644531 159.660156 11.457031 159.78125 11.101562 C 159.859375 10.863281 160.074219 10.667969 160.277344 10.589844 C 160.472656 10.515625 160.644531 10.511719 160.808594 10.523438 C 161.128906 10.546875 161.441406 10.640625 161.777344 10.75 C 163.0625 11.175781 165.066406 11.84375 166.46875 13.109375 C 167.058594 13.640625 167.449219 14.289062 167.589844 14.980469 C 167.734375 15.707031 167.535156 16.46875 167.109375 17.128906 C 166.707031 17.757812 166.101562 18.183594 165.613281 18.578125 C 164.847656 19.195312 164.222656 19.675781 164.058594 19.90625 C 164.019531 19.960938 164.042969 19.859375 164.035156 19.917969 C 164.027344 19.988281 163.941406 19.667969 163.96875 19.699219 C 163.984375 19.714844 164.921875 20.003906 166.003906 20.140625 C 166.660156 20.226562 167.367188 20.28125 168.011719 20.3125 C 168.851562 20.355469 169.496094 20.386719 169.941406 20.359375 C 170.339844 20.332031 170.503906 20.257812 170.542969 20.214844 C 170.773438 19.980469 171.152344 19.976562 171.386719 20.207031 C 171.621094 20.441406 171.625 20.816406 171.394531 21.050781 C 171.039062 21.414062 170.542969 21.515625 170.011719 21.546875 C 169.460938 21.582031 168.796875 21.546875 167.949219 21.503906 C 167.285156 21.46875 166.550781 21.417969 165.847656 21.324219 C 164.734375 21.179688 163.714844 21.195312 163.085938 20.5 C 162.917969 20.3125 162.820312 20.023438 162.851562 19.773438 C 162.878906 19.535156 162.984375 19.355469 163.089844 19.207031 C 163.472656 18.679688 164.113281 18.253906 164.863281 17.648438 C 165.367188 17.242188 165.871094 16.851562 166.105469 16.484375 C 166.402344 16.027344 166.496094 15.59375 166.417969 15.214844 C 166.335938 14.800781 166.097656 14.378906 165.671875 13.996094 C 164.53125 12.96875 162.652344 12.296875 161.402344 11.882812 C 161.109375 11.789062 160.855469 11.722656 160.722656 11.714844 C 160.667969 11.710938 160.75 11.683594 160.703125 11.703125 C 160.671875 11.714844 160.859375 11.585938 160.816406 11.628906 C 160.773438 11.671875 160.925781 11.4375 160.910156 11.484375 C 160.886719 11.550781 160.921875 11.425781 160.921875 11.484375 C 160.925781 11.558594 160.9375 11.671875 160.941406 11.816406 C 160.957031 12.277344 161.007812 12.925781 161.082031 13.660156 C 161.242188 15.28125 161.472656 17.007812 161.6875 18.199219 C 161.789062 18.746094 161.871094 19.132812 161.996094 19.425781 C 162.105469 19.683594 162.222656 19.9375 162.328125 20.15625 C 162.394531 20.292969 162.464844 20.433594 162.511719 20.617188 C 162.5625 20.808594 162.582031 21.109375 162.398438 21.371094 C 162.140625 21.738281 161.777344 21.835938 161.398438 21.929688 C 161.007812 22.023438 160.546875 22.089844 160.003906 22.160156 C 159.210938 22.265625 158.265625 22.371094 157.34375 22.386719 C 156.65625 22.398438 156.015625 22.386719 155.550781 22.386719 C 155.332031 22.386719 155.160156 22.390625 155.085938 22.394531 C 155.070312 22.398438 155.074219 22.398438 155.070312 22.398438 C 155.058594 22.398438 155.234375 22.332031 155.167969 22.363281 C 155.128906 22.382812 155.390625 22.183594 155.324219 22.25 C 155.273438 22.304688 155.5 21.898438 155.46875 22.007812 C 155.441406 22.089844 155.46875 21.667969 155.480469 21.75 C 155.5 21.867188 155.332031 21.4375 155.371094 21.492188 C 155.410156 21.542969 155.25 21.375 155.277344 21.394531 "/>
<path style=" stroke:none;fill-rule:nonzero;fill:rgb(92.941284%,21.176147%,14.117432%);fill-opacity:1;" d="M 14.316406 58.859375 C 14.320312 59.1875 14.054688 59.457031 13.722656 59.457031 C 13.394531 59.460938 13.125 59.195312 13.125 58.863281 C 13.125 58.75 13.117188 58.640625 13.113281 58.535156 C 13.105469 58.421875 13.101562 58.320312 13.101562 58.25 C 13.101562 58.214844 13.101562 58.191406 13.101562 58.175781 C 13.09375 57.84375 13.351562 57.570312 13.683594 57.5625 C 14.011719 57.554688 14.285156 57.816406 14.292969 58.144531 C 14.292969 58.152344 14.292969 58.15625 14.292969 58.160156 C 14.292969 58.179688 14.292969 58.199219 14.292969 58.230469 C 14.292969 58.289062 14.296875 58.371094 14.300781 58.464844 C 14.308594 58.578125 14.316406 58.710938 14.316406 58.859375 M 13.101562 58.128906 C 13.117188 57.800781 13.394531 57.546875 13.726562 57.5625 C 14.054688 57.578125 14.308594 57.859375 14.292969 58.1875 C 14.289062 58.214844 14.292969 58.316406 14.292969 58.441406 C 14.292969 58.640625 14.273438 58.886719 14.253906 59.191406 C 14.234375 59.503906 14.191406 59.851562 14.15625 60.273438 C 14.109375 60.863281 14.0625 61.601562 14.003906 62.453125 C 13.957031 63.050781 13.902344 63.667969 13.855469 64.242188 C 13.789062 65.082031 13.746094 65.777344 13.738281 66.226562 C 13.734375 66.359375 13.738281 66.449219 13.742188 66.472656 C 13.742188 66.480469 13.714844 66.390625 13.730469 66.425781 C 13.746094 66.472656 13.5 66.15625 13.585938 66.230469 C 13.675781 66.304688 13.726562 66.375 13.757812 66.414062 C 13.769531 66.433594 13.769531 66.433594 13.773438 66.4375 C 13.777344 66.441406 13.691406 66.359375 13.722656 66.386719 C 14.054688 66.675781 13.992188 66.957031 13.988281 67.039062 L 12.796875 67.027344 C 12.800781 66.71875 12.828125 66.84375 12.828125 66.832031 C 12.871094 66.503906 13.171875 66.277344 13.5 66.320312 C 13.824219 66.367188 14.054688 66.667969 14.011719 66.992188 C 14 67.054688 13.988281 67.109375 13.980469 67.140625 C 13.976562 67.15625 13.976562 67.15625 13.976562 67.160156 C 13.972656 67.164062 13.984375 67.117188 13.980469 67.132812 C 13.976562 67.152344 13.992188 66.992188 13.988281 67.039062 C 13.988281 67.367188 13.71875 67.632812 13.386719 67.628906 C 13.058594 67.628906 12.792969 67.359375 12.796875 67.027344 C 12.796875 67.019531 12.808594 67.09375 12.800781 67.058594 C 12.796875 67.039062 12.851562 67.1875 12.832031 67.148438 C 12.8125 67.105469 13.003906 67.339844 12.945312 67.292969 C 12.84375 67.203125 12.8125 67.144531 12.792969 67.121094 C 12.78125 67.105469 12.84375 67.164062 12.816406 67.140625 C 12.59375 66.953125 12.574219 66.753906 12.558594 66.617188 C 12.542969 66.484375 12.542969 66.359375 12.546875 66.203125 C 12.554688 65.707031 12.597656 65 12.667969 64.148438 C 12.710938 63.566406 12.769531 62.949219 12.8125 62.367188 C 12.875 61.523438 12.917969 60.785156 12.96875 60.175781 C 13.003906 59.730469 13.046875 59.382812 13.0625 59.113281 C 13.085938 58.8125 13.097656 58.574219 13.097656 58.433594 C 13.101562 58.332031 13.09375 58.242188 13.101562 58.128906 "/>
<path style=" stroke:none;fill-rule:nonzero;fill:rgb(92.941284%,21.176147%,14.117432%);fill-opacity:1;" d="M 18.792969 62.539062 C 19.105469 62.640625 19.28125 62.972656 19.183594 63.289062 C 19.082031 63.601562 18.746094 63.777344 18.433594 63.679688 C 18.3125 63.640625 18.148438 63.605469 18 63.5625 C 17.976562 63.554688 17.960938 63.554688 17.898438 63.53125 C 17.878906 63.523438 17.851562 63.511719 17.804688 63.484375 C 17.523438 63.320312 17.425781 62.953125 17.59375 62.667969 C 17.761719 62.386719 18.128906 62.289062 18.410156 62.457031 C 18.453125 62.480469 18.320312 62.414062 18.332031 62.417969 C 18.367188 62.433594 18.3125 62.410156 18.335938 62.417969 C 18.394531 62.4375 18.59375 62.476562 18.792969 62.539062 M 18.410156 63.476562 C 18.125 63.644531 17.761719 63.550781 17.59375 63.265625 C 17.425781 62.984375 17.519531 62.617188 17.804688 62.449219 C 18.105469 62.273438 18.21875 62.335938 18.375 62.328125 C 18.535156 62.320312 18.710938 62.320312 18.894531 62.308594 C 19.425781 62.28125 20.09375 62.222656 20.765625 62.1875 C 21.679688 62.136719 22.464844 62.152344 22.9375 61.964844 C 23.246094 61.84375 23.59375 61.996094 23.710938 62.300781 C 23.832031 62.609375 23.683594 62.953125 23.375 63.074219 C 22.566406 63.394531 21.691406 63.332031 20.828125 63.378906 C 20.179688 63.414062 19.515625 63.46875 18.957031 63.5 C 18.746094 63.511719 18.558594 63.515625 18.421875 63.519531 C 18.359375 63.523438 18.3125 63.527344 18.289062 63.527344 C 18.28125 63.53125 18.308594 63.523438 18.296875 63.527344 C 18.277344 63.53125 18.472656 63.441406 18.410156 63.476562 "/>
<path style=" stroke:none;fill-rule:nonzero;fill:rgb(92.941284%,21.176147%,14.117432%);fill-opacity:1;" d="M 26.671875 58.644531 C 26.613281 58.96875 26.300781 59.179688 25.980469 59.121094 C 25.65625 59.0625 25.441406 58.75 25.5 58.429688 C 25.5 58.425781 25.5 58.484375 25.496094 58.460938 C 25.496094 58.4375 25.566406 58.710938 25.53125 58.617188 C 25.53125 58.617188 25.554688 58.664062 25.542969 58.644531 C 25.53125 58.625 25.695312 58.832031 25.632812 58.769531 C 25.597656 58.730469 25.867188 58.921875 25.792969 58.882812 C 25.710938 58.84375 26.199219 58.933594 26.089844 58.941406 C 25.984375 58.949219 26.4375 58.804688 26.367188 58.847656 C 26.304688 58.890625 26.527344 58.699219 26.5 58.734375 C 26.441406 58.804688 26.613281 58.5 26.597656 58.550781 C 26.578125 58.613281 26.617188 58.414062 26.617188 58.433594 C 26.617188 58.445312 26.617188 58.417969 26.617188 58.429688 C 26.621094 58.460938 26.632812 58.539062 26.632812 58.644531 C 26.636719 58.832031 26.652344 59.136719 26.632812 59.484375 C 26.613281 59.882812 26.511719 60.238281 26.457031 60.539062 C 26.40625 60.800781 26.363281 61.035156 26.355469 61.183594 C 26.351562 61.285156 26.34375 61.351562 26.34375 61.375 C 26.34375 61.382812 26.335938 61.332031 26.339844 61.355469 C 26.34375 61.382812 26.28125 61.195312 26.304688 61.242188 C 26.339844 61.316406 26.140625 61.066406 26.175781 61.09375 C 26.210938 61.117188 26.113281 61.058594 26.121094 61.058594 C 26.121094 61.058594 26.167969 61.074219 26.242188 61.085938 C 26.511719 61.128906 27.03125 61.113281 27.617188 61.113281 C 27.964844 61.113281 28.335938 61.105469 28.707031 61.128906 C 29.082031 61.152344 29.433594 61.21875 29.742188 61.328125 C 30.199219 61.488281 30.535156 61.824219 30.710938 62.191406 C 30.902344 62.59375 30.90625 63.039062 30.816406 63.449219 C 30.695312 63.96875 30.394531 64.453125 29.964844 64.875 C 29.152344 65.675781 27.976562 66.210938 26.988281 66.621094 C 26.6875 66.746094 26.402344 66.863281 26.121094 66.953125 C 25.914062 67.015625 25.714844 67.082031 25.503906 67.125 C 25.285156 67.167969 25.003906 67.195312 24.71875 67.03125 C 24.496094 66.90625 24.363281 66.679688 24.300781 66.488281 C 24.238281 66.296875 24.214844 66.101562 24.191406 65.859375 C 24.160156 65.53125 24.398438 65.242188 24.726562 65.210938 C 25.054688 65.175781 25.347656 65.417969 25.378906 65.746094 C 25.398438 65.945312 25.421875 66.078125 25.4375 66.121094 C 25.441406 66.132812 25.402344 66.070312 25.421875 66.097656 C 25.441406 66.128906 25.261719 65.96875 25.308594 65.996094 C 25.359375 66.023438 25.199219 65.960938 25.210938 65.960938 C 25.210938 65.960938 25.230469 65.960938 25.277344 65.953125 C 25.382812 65.933594 25.550781 65.878906 25.761719 65.8125 C 25.980469 65.746094 26.238281 65.640625 26.535156 65.519531 C 27.460938 65.132812 28.539062 64.605469 29.128906 64.023438 C 29.425781 63.730469 29.59375 63.429688 29.652344 63.183594 C 29.699219 62.972656 29.679688 62.800781 29.632812 62.703125 C 29.582031 62.589844 29.503906 62.507812 29.351562 62.453125 C 29.15625 62.386719 28.90625 62.335938 28.628906 62.316406 C 28.324219 62.300781 27.976562 62.304688 27.617188 62.304688 C 27.054688 62.308594 26.519531 62.335938 26.054688 62.261719 C 25.945312 62.246094 25.828125 62.226562 25.695312 62.175781 C 25.558594 62.121094 25.363281 62.019531 25.242188 61.789062 C 25.058594 61.433594 25.160156 61.222656 25.164062 61.125 C 25.179688 60.851562 25.234375 60.585938 25.28125 60.320312 C 25.347656 59.964844 25.429688 59.652344 25.441406 59.417969 C 25.457031 59.144531 25.445312 58.882812 25.441406 58.660156 C 25.441406 58.648438 25.4375 58.601562 25.429688 58.523438 C 25.421875 58.433594 25.328125 58.277344 25.578125 57.976562 C 25.640625 57.898438 25.777344 57.769531 26.003906 57.753906 C 26.238281 57.734375 26.410156 57.855469 26.488281 57.9375 C 26.617188 58.070312 26.621094 58.132812 26.640625 58.183594 C 26.726562 58.398438 26.695312 58.511719 26.671875 58.644531 "/>
<path style=" stroke:none;fill-rule:nonzero;fill:rgb(92.941284%,21.176147%,14.117432%);fill-opacity:1;" d="M 27.308594 57.65625 C 27.332031 57.984375 27.089844 58.269531 26.761719 58.296875 C 26.429688 58.324219 26.144531 58.078125 26.117188 57.75 C 26.074219 57.199219 26.078125 56.667969 26.4375 56.242188 C 26.652344 55.988281 26.976562 55.875 27.261719 55.84375 C 27.699219 55.789062 28.246094 55.820312 28.886719 55.945312 C 29.242188 56.011719 29.585938 56.117188 29.917969 56.210938 C 30.449219 56.363281 30.988281 56.507812 31.484375 56.664062 C 31.757812 56.75 32.027344 56.839844 32.320312 56.949219 C 32.628906 57.0625 32.785156 57.40625 32.671875 57.714844 C 32.558594 58.023438 32.21875 58.179688 31.90625 58.066406 C 31.632812 57.964844 31.382812 57.878906 31.125 57.800781 C 30.667969 57.65625 30.132812 57.515625 29.585938 57.355469 C 29.253906 57.261719 28.941406 57.167969 28.664062 57.117188 C 28.117188 57.011719 27.671875 56.996094 27.398438 57.027344 C 27.285156 57.039062 27.378906 56.976562 27.347656 57.011719 C 27.34375 57.015625 27.273438 57.230469 27.308594 57.65625 "/>
<path style=" stroke:none;fill-rule:nonzero;fill:rgb(92.941284%,21.176147%,14.117432%);fill-opacity:1;" d="M 36.128906 59.222656 C 36.441406 59.320312 36.613281 59.65625 36.515625 59.972656 C 36.414062 60.285156 36.078125 60.457031 35.765625 60.359375 C 35.53125 60.28125 35.605469 60.246094 35.539062 60.261719 C 35.46875 60.277344 35.664062 60.207031 35.65625 60.210938 C 35.65625 60.210938 35.636719 60.230469 35.601562 60.269531 C 35.503906 60.375 35.398438 60.484375 35.28125 60.65625 C 35.011719 61.050781 34.6875 61.535156 34.464844 62.210938 C 34.257812 62.84375 34.179688 63.65625 34.167969 64.382812 C 34.164062 64.769531 34.207031 65.105469 34.28125 65.347656 C 34.347656 65.570312 34.414062 65.648438 34.429688 65.65625 C 34.703125 65.828125 34.875 65.894531 35.167969 65.875 C 35.597656 65.839844 36.054688 65.777344 36.507812 65.582031 C 36.890625 65.414062 37.300781 65.15625 37.699219 64.839844 C 38.199219 64.445312 38.65625 63.964844 39 63.472656 C 39.253906 63.109375 39.425781 62.753906 39.511719 62.386719 C 39.628906 61.886719 39.601562 61.339844 39.402344 60.824219 C 39.292969 60.53125 39.039062 60.207031 38.753906 59.878906 C 38.222656 59.273438 37.597656 58.898438 37.152344 58.859375 C 36.945312 58.84375 36.78125 58.882812 36.625 58.996094 C 36.457031 59.117188 36.277344 59.351562 36.132812 59.742188 C 36.019531 60.050781 35.675781 60.210938 35.367188 60.097656 C 35.058594 59.980469 34.898438 59.636719 35.015625 59.328125 C 35.21875 58.773438 35.523438 58.324219 35.921875 58.035156 C 36.316406 57.746094 36.796875 57.632812 37.253906 57.671875 C 38.160156 57.75 38.980469 58.332031 39.652344 59.09375 C 39.964844 59.453125 40.3125 59.867188 40.515625 60.398438 C 40.800781 61.140625 40.839844 61.933594 40.671875 62.65625 C 40.546875 63.203125 40.296875 63.695312 39.980469 64.148438 C 39.5625 64.753906 39.027344 65.3125 38.4375 65.777344 C 37.976562 66.140625 37.492188 66.457031 36.976562 66.675781 C 36.351562 66.945312 35.746094 67.027344 35.257812 67.0625 C 34.683594 67.105469 34.1875 66.910156 33.800781 66.671875 C 33.433594 66.445312 33.253906 66.078125 33.140625 65.691406 C 33.019531 65.300781 32.972656 64.855469 32.976562 64.371094 C 32.988281 63.566406 33.0625 62.65625 33.332031 61.835938 C 33.609375 60.992188 34.019531 60.390625 34.296875 59.984375 C 34.464844 59.742188 34.621094 59.570312 34.726562 59.457031 C 34.84375 59.332031 34.980469 59.167969 35.265625 59.101562 C 35.746094 58.988281 36.085938 59.210938 36.128906 59.222656 "/>
<path style=" stroke:none;fill-rule:nonzero;fill:rgb(92.941284%,21.176147%,14.117432%);fill-opacity:1;" d="M 49.175781 59.96875 C 49.289062 60.277344 49.132812 60.621094 48.824219 60.734375 C 48.515625 60.847656 48.171875 60.691406 48.058594 60.382812 C 48.03125 60.3125 48.113281 60.421875 48.054688 60.375 C 48.015625 60.347656 48.289062 60.480469 48.214844 60.457031 C 48.140625 60.433594 48.578125 60.457031 48.484375 60.472656 C 48.390625 60.492188 48.773438 60.324219 48.71875 60.367188 C 48.660156 60.410156 48.855469 60.214844 48.832031 60.25 C 48.789062 60.3125 48.886719 60.128906 48.882812 60.140625 C 48.882812 60.148438 48.886719 60.136719 48.882812 60.15625 C 48.871094 60.257812 48.871094 60.546875 48.863281 60.914062 C 48.855469 61.144531 48.84375 61.394531 48.824219 61.675781 C 48.785156 62.324219 48.707031 63.070312 48.640625 63.679688 C 48.617188 63.933594 48.582031 64.148438 48.558594 64.3125 C 48.550781 64.390625 48.542969 64.453125 48.539062 64.492188 C 48.535156 64.511719 48.535156 64.523438 48.535156 64.523438 C 48.535156 64.523438 48.523438 64.421875 48.53125 64.464844 C 48.542969 64.554688 48.539062 64.625 48.535156 64.660156 C 48.535156 64.671875 48.535156 64.65625 48.535156 64.667969 C 48.535156 64.679688 48.519531 64.5 48.53125 64.558594 L 47.351562 64.753906 C 47.28125 64.328125 47.417969 64.351562 47.449219 64.296875 C 47.480469 64.242188 47.511719 64.191406 47.542969 64.136719 C 47.613281 64.027344 47.691406 63.898438 47.757812 63.761719 C 48 63.273438 48.335938 62.652344 48.636719 61.984375 C 48.988281 61.210938 49.273438 60.375 49.5625 59.699219 C 49.6875 59.402344 49.820312 59.160156 49.929688 58.972656 C 49.996094 58.859375 50.050781 58.757812 50.117188 58.65625 C 50.148438 58.605469 50.183594 58.554688 50.246094 58.488281 C 50.3125 58.417969 50.425781 58.296875 50.683594 58.277344 C 50.890625 58.261719 51.09375 58.378906 51.1875 58.480469 C 51.269531 58.574219 51.300781 58.648438 51.320312 58.707031 C 51.359375 58.8125 51.367188 58.886719 51.371094 58.960938 C 51.386719 59.109375 51.382812 59.261719 51.367188 59.433594 C 51.332031 59.941406 51.261719 60.65625 51.144531 61.359375 C 51.082031 61.730469 51.007812 62.058594 50.980469 62.269531 C 50.960938 62.414062 50.9375 62.523438 50.9375 62.554688 C 50.933594 62.5625 50.914062 62.398438 50.929688 62.472656 C 50.9375 62.511719 50.824219 62.242188 50.863281 62.308594 C 50.90625 62.375 50.609375 62.082031 50.683594 62.128906 C 50.753906 62.171875 50.449219 62.0625 50.496094 62.066406 C 50.535156 62.070312 50.421875 62.070312 50.429688 62.070312 C 50.429688 62.070312 50.476562 62.054688 50.550781 62.007812 C 50.675781 61.933594 50.917969 61.691406 51.199219 61.417969 C 51.542969 61.074219 51.90625 60.707031 52.222656 60.355469 C 52.523438 60.023438 52.769531 59.714844 52.949219 59.480469 C 53.035156 59.371094 53.082031 59.285156 53.117188 59.222656 C 53.132812 59.195312 53.136719 59.179688 53.175781 59.117188 C 53.1875 59.097656 53.203125 59.070312 53.257812 59.011719 C 53.488281 58.777344 53.867188 58.773438 54.101562 59.003906 C 54.339844 59.234375 54.339844 59.609375 54.109375 59.847656 C 54.054688 59.902344 54.191406 59.742188 54.183594 59.753906 C 54.160156 59.789062 54.1875 59.753906 54.164062 59.792969 C 54.113281 59.886719 54.027344 60.03125 53.902344 60.199219 C 53.703125 60.460938 53.433594 60.792969 53.109375 61.15625 C 52.769531 61.53125 52.390625 61.914062 52.035156 62.265625 C 51.769531 62.527344 51.515625 62.820312 51.167969 63.03125 C 51.019531 63.121094 50.875 63.191406 50.707031 63.230469 C 50.53125 63.269531 50.300781 63.289062 50.070312 63.148438 C 49.882812 63.039062 49.785156 62.832031 49.757812 62.699219 C 49.734375 62.574219 49.742188 62.496094 49.75 62.429688 C 49.761719 62.304688 49.785156 62.214844 49.796875 62.117188 C 49.835938 61.808594 49.914062 61.488281 49.96875 61.164062 C 50.074219 60.515625 50.144531 59.824219 50.179688 59.347656 C 50.1875 59.21875 50.1875 59.113281 50.183594 59.066406 C 50.183594 59.050781 50.21875 59.164062 50.199219 59.109375 C 50.191406 59.09375 50.242188 59.199219 50.226562 59.171875 C 50.210938 59.144531 50.339844 59.320312 50.300781 59.28125 C 50.261719 59.234375 50.5625 59.453125 50.480469 59.414062 C 50.398438 59.371094 50.867188 59.460938 50.769531 59.464844 C 50.652344 59.476562 51.074219 59.351562 51.019531 59.382812 C 50.972656 59.414062 51.121094 59.300781 51.105469 59.316406 C 51.082031 59.339844 51.125 59.292969 51.113281 59.308594 C 51.085938 59.355469 51.03125 59.449219 50.964844 59.566406 C 50.867188 59.730469 50.761719 59.933594 50.660156 60.167969 C 50.394531 60.789062 50.101562 61.636719 49.726562 62.476562 C 49.402344 63.191406 49.054688 63.832031 48.824219 64.292969 C 48.730469 64.484375 48.632812 64.644531 48.558594 64.761719 C 48.527344 64.816406 48.5 64.859375 48.492188 64.878906 C 48.488281 64.882812 48.507812 64.835938 48.5 64.859375 C 48.492188 64.871094 48.53125 64.75 48.523438 64.785156 C 48.515625 64.808594 48.539062 64.667969 48.535156 64.703125 C 48.53125 64.742188 48.519531 64.5 48.53125 64.558594 C 48.582031 64.882812 48.363281 65.191406 48.039062 65.246094 C 47.714844 65.300781 47.40625 65.078125 47.351562 64.753906 C 47.328125 64.617188 47.347656 64.578125 47.347656 64.570312 C 47.347656 64.570312 47.359375 64.703125 47.351562 64.652344 C 47.28125 64.210938 47.410156 64 47.457031 63.554688 C 47.519531 62.945312 47.597656 62.214844 47.632812 61.601562 C 47.652344 61.328125 47.664062 61.085938 47.671875 60.882812 C 47.679688 60.539062 47.664062 60.269531 47.699219 60.003906 C 47.714844 59.878906 47.722656 59.753906 47.847656 59.574219 C 47.914062 59.476562 48.050781 59.339844 48.261719 59.300781 C 48.472656 59.261719 48.664062 59.34375 48.769531 59.421875 C 48.996094 59.59375 49.085938 59.726562 49.175781 59.96875 M 53.101562 59.535156 C 53.042969 59.210938 53.261719 58.902344 53.585938 58.84375 C 53.910156 58.785156 54.21875 59 54.277344 59.324219 C 54.292969 59.425781 54.285156 59.453125 54.285156 59.480469 C 54.269531 59.714844 54.214844 59.796875 54.203125 59.863281 C 54.164062 60.042969 54.144531 60.445312 54.128906 60.917969 C 54.105469 61.683594 54.199219 62.660156 54.386719 63.226562 C 54.425781 63.355469 54.472656 63.449219 54.496094 63.484375 C 54.507812 63.5 54.476562 63.472656 54.492188 63.484375 C 54.511719 63.5 54.296875 63.40625 54.363281 63.421875 C 54.429688 63.4375 54.109375 63.445312 54.160156 63.429688 C 54.210938 63.414062 54.089844 63.464844 54.09375 63.464844 C 54.105469 63.453125 54.175781 63.371094 54.257812 63.210938 C 54.410156 62.917969 54.769531 62.804688 55.0625 62.957031 C 55.355469 63.109375 55.46875 63.46875 55.316406 63.761719 C 55.191406 64 55.0625 64.199219 54.878906 64.359375 C 54.691406 64.523438 54.378906 64.652344 54.082031 64.582031 C 53.789062 64.511719 53.617188 64.316406 53.503906 64.144531 C 53.390625 63.976562 53.316406 63.792969 53.253906 63.597656 C 52.992188 62.804688 52.90625 61.769531 52.9375 60.878906 C 52.953125 60.398438 52.960938 59.980469 53.035156 59.621094 C 53.050781 59.53125 53.074219 59.460938 53.085938 59.414062 C 53.097656 59.375 53.089844 59.449219 53.09375 59.402344 C 53.09375 59.394531 53.09375 59.453125 53.09375 59.4375 C 53.09375 59.417969 53.109375 59.585938 53.101562 59.535156 "/>
<path style=" stroke:none;fill-rule:nonzero;fill:rgb(92.941284%,21.176147%,14.117432%);fill-opacity:1;" d="M 55.535156 55.300781 C 55.671875 55.003906 56.027344 54.871094 56.328125 55.011719 C 56.625 55.148438 56.753906 55.503906 56.617188 55.800781 C 56.617188 55.804688 56.589844 55.898438 56.621094 56.175781 C 56.667969 56.621094 56.804688 57.304688 56.996094 58.175781 C 57.121094 58.75 57.257812 59.355469 57.402344 59.933594 C 57.585938 60.671875 57.800781 61.351562 57.988281 61.890625 C 58.167969 62.40625 58.320312 62.664062 58.355469 62.703125 C 58.433594 62.785156 58.371094 62.75 58.429688 62.789062 C 58.449219 62.800781 58.296875 62.730469 58.339844 62.746094 C 58.40625 62.769531 57.996094 62.742188 58.085938 62.722656 C 58.171875 62.707031 57.871094 62.824219 57.90625 62.800781 C 57.96875 62.753906 57.816406 62.894531 57.820312 62.886719 C 57.828125 62.875 57.890625 62.695312 57.980469 62.46875 C 58.238281 61.816406 58.644531 61.019531 58.925781 60.015625 C 59.050781 59.578125 59.152344 59.082031 59.25 58.554688 C 59.386719 57.84375 59.480469 57.054688 59.597656 56.261719 C 59.675781 55.738281 59.78125 55.28125 59.855469 54.90625 C 59.984375 54.253906 60.035156 53.808594 60.128906 53.457031 C 60.175781 53.28125 60.222656 53.078125 60.457031 52.886719 C 60.578125 52.789062 60.753906 52.726562 60.90625 52.722656 C 61.050781 52.714844 61.164062 52.75 61.257812 52.785156 C 61.566406 52.90625 61.71875 53.25 61.597656 53.558594 C 61.480469 53.867188 61.132812 54.019531 60.828125 53.898438 C 60.824219 53.898438 61.015625 53.910156 60.941406 53.914062 C 60.859375 53.914062 61.277344 53.757812 61.207031 53.8125 C 61.144531 53.867188 61.304688 53.695312 61.300781 53.703125 C 61.296875 53.710938 61.292969 53.722656 61.28125 53.765625 C 61.226562 53.976562 61.160156 54.453125 61.023438 55.136719 C 60.945312 55.535156 60.847656 55.964844 60.777344 56.4375 C 60.664062 57.207031 60.570312 58.011719 60.421875 58.777344 C 60.320312 59.320312 60.214844 59.84375 60.074219 60.335938 C 59.761719 61.460938 59.316406 62.335938 59.089844 62.90625 C 59 63.136719 59.050781 63.4375 58.613281 63.761719 C 58.398438 63.917969 57.953125 63.90625 57.765625 63.78125 C 57.601562 63.667969 57.542969 63.582031 57.484375 63.515625 C 57.226562 63.238281 57.066406 62.863281 56.863281 62.28125 C 56.664062 61.71875 56.441406 61.003906 56.246094 60.226562 C 56.09375 59.625 55.957031 59.007812 55.832031 58.433594 C 55.636719 57.546875 55.492188 56.839844 55.433594 56.304688 C 55.394531 55.929688 55.394531 55.605469 55.535156 55.300781 "/>
<path style=" stroke:none;fill-rule:nonzero;fill:rgb(92.941284%,21.176147%,14.117432%);fill-opacity:1;" d="M 67.550781 52.398438 C 67.882812 52.402344 68.144531 52.675781 68.136719 53.007812 C 68.128906 53.335938 67.855469 53.597656 67.527344 53.589844 C 67.511719 53.589844 67.707031 53.515625 67.671875 53.542969 C 67.644531 53.5625 67.667969 53.542969 67.617188 53.625 C 67.453125 53.867188 67.222656 54.238281 66.914062 54.78125 C 66.640625 55.265625 66.3125 55.816406 65.964844 56.445312 C 65.476562 57.320312 64.957031 58.332031 64.417969 59.367188 C 64.035156 60.097656 63.65625 60.84375 63.257812 61.601562 C 62.851562 62.378906 62.417969 63.140625 62 63.902344 C 61.417969 64.960938 60.835938 66.007812 60.328125 66.964844 C 60.1875 67.230469 60.054688 67.496094 59.925781 67.757812 C 59.589844 68.425781 59.324219 68.988281 59.167969 69.355469 C 58.972656 69.820312 58.785156 70.171875 58.671875 70.425781 C 58.46875 70.882812 58.355469 71.179688 58.339844 71.277344 C 58.332031 71.316406 58.328125 71.34375 58.328125 71.347656 C 58.328125 71.351562 58.328125 71.320312 58.328125 71.335938 C 58.328125 71.347656 58.300781 71.214844 58.3125 71.253906 C 58.324219 71.296875 58.164062 71.003906 58.21875 71.074219 C 58.28125 71.152344 57.835938 70.859375 57.945312 70.890625 C 58.054688 70.925781 57.613281 70.898438 57.675781 70.882812 C 57.738281 70.867188 57.539062 70.9375 57.558594 70.925781 C 57.621094 70.890625 57.574219 70.914062 57.671875 70.792969 C 57.785156 70.664062 57.933594 70.464844 58.117188 70.195312 C 58.304688 69.925781 58.675781 69.855469 58.949219 70.042969 C 59.21875 70.230469 59.285156 70.601562 59.101562 70.875 C 58.710938 71.4375 58.519531 71.757812 58.144531 71.964844 C 58.039062 72.027344 57.859375 72.109375 57.609375 72.035156 C 57.347656 71.957031 57.207031 71.722656 57.164062 71.578125 C 57.09375 71.332031 57.140625 71.195312 57.167969 71.050781 C 57.226562 70.738281 57.367188 70.417969 57.582031 69.941406 C 57.71875 69.632812 57.894531 69.308594 58.070312 68.886719 C 58.246094 68.480469 58.515625 67.90625 58.859375 67.222656 C 58.988281 66.96875 59.125 66.691406 59.273438 66.40625 C 59.789062 65.433594 60.371094 64.382812 60.953125 63.328125 C 61.378906 62.558594 61.804688 61.800781 62.203125 61.046875 C 62.59375 60.300781 62.972656 59.550781 63.359375 58.8125 C 63.898438 57.78125 64.421875 56.765625 64.921875 55.863281 C 65.28125 55.222656 65.613281 54.664062 65.875 54.195312 C 66.195312 53.628906 66.441406 53.234375 66.621094 52.964844 C 66.714844 52.824219 66.8125 52.691406 66.972656 52.574219 C 67.140625 52.453125 67.371094 52.394531 67.550781 52.398438 "/>
<path style=" stroke:none;fill-rule:nonzero;fill:rgb(92.941284%,21.176147%,14.117432%);fill-opacity:1;" d="M 66.019531 61.109375 C 66.320312 61.25 66.449219 61.605469 66.308594 61.902344 C 66.171875 62.199219 65.816406 62.332031 65.515625 62.191406 C 65.503906 62.183594 65.535156 62.195312 65.519531 62.191406 C 65.496094 62.183594 65.730469 62.191406 65.65625 62.199219 C 65.578125 62.207031 66.007812 62.023438 65.925781 62.089844 C 65.847656 62.152344 66.089844 61.851562 66.070312 61.902344 C 66.050781 61.945312 66.089844 61.824219 66.089844 61.832031 C 66.089844 61.835938 66.089844 61.953125 66.097656 62.121094 C 66.113281 62.378906 66.121094 62.699219 66.136719 63.101562 C 66.148438 63.546875 66.167969 64.085938 66.160156 64.703125 C 66.148438 65.34375 66.125 66.050781 66.035156 66.769531 C 65.988281 67.15625 65.910156 67.523438 65.828125 67.859375 C 65.695312 68.421875 65.566406 68.878906 65.4375 69.242188 C 65.355469 69.476562 65.28125 69.648438 65.222656 69.777344 C 65.1875 69.851562 65.15625 69.910156 65.105469 69.980469 C 65.078125 70.011719 65.074219 70.054688 64.914062 70.148438 C 64.628906 70.316406 64.265625 70.21875 64.097656 69.933594 C 63.933594 69.652344 64.027344 69.285156 64.3125 69.121094 C 64.398438 69.070312 64.164062 69.242188 64.183594 69.21875 C 64.203125 69.203125 64.144531 69.269531 64.152344 69.261719 C 64.175781 69.230469 64.136719 69.285156 64.144531 69.265625 C 64.179688 69.191406 64.242188 69.046875 64.316406 68.839844 C 64.421875 68.539062 64.542969 68.117188 64.667969 67.585938 C 64.742188 67.273438 64.8125 66.945312 64.851562 66.621094 C 64.933594 65.972656 64.957031 65.304688 64.964844 64.683594 C 64.976562 64.101562 64.957031 63.585938 64.945312 63.140625 C 64.929688 62.738281 64.921875 62.421875 64.90625 62.191406 C 64.894531 61.949219 64.835938 61.765625 64.96875 61.445312 C 65.042969 61.261719 65.304688 61.035156 65.546875 61.011719 C 65.773438 60.992188 65.90625 61.054688 66.019531 61.109375 M 65.183594 69.792969 C 65.09375 70.109375 64.765625 70.292969 64.449219 70.203125 C 64.128906 70.113281 63.945312 69.78125 64.039062 69.464844 C 64.164062 69.027344 64.285156 69.0625 64.386719 68.917969 C 64.519531 68.722656 64.695312 68.457031 64.929688 68.121094 C 65.113281 67.851562 65.339844 67.535156 65.621094 67.144531 C 65.910156 66.742188 66.257812 66.253906 66.703125 65.671875 C 67.085938 65.171875 67.523438 64.644531 67.964844 64.089844 C 68.578125 63.324219 69.214844 62.53125 69.753906 61.773438 C 70.007812 61.421875 70.226562 61.113281 70.378906 60.878906 C 70.96875 59.964844 71.230469 59.457031 71.386719 59.207031 C 71.429688 59.140625 71.359375 58.96875 71.835938 58.886719 C 72.132812 58.835938 72.460938 59.144531 72.511719 59.296875 C 72.554688 59.425781 72.546875 59.488281 72.542969 59.539062 C 72.535156 59.71875 72.492188 59.832031 72.441406 60 C 72.328125 60.355469 72.125 60.847656 71.816406 61.441406 C 71.667969 61.734375 71.308594 61.847656 71.015625 61.695312 C 70.722656 61.546875 70.605469 61.183594 70.757812 60.894531 C 71.039062 60.351562 71.21875 59.90625 71.304688 59.632812 C 71.34375 59.511719 71.347656 59.546875 71.351562 59.484375 C 71.351562 59.46875 71.355469 59.566406 71.351562 59.539062 C 71.351562 59.519531 71.375 59.664062 71.367188 59.625 C 71.359375 59.597656 71.425781 59.78125 71.40625 59.738281 C 71.390625 59.703125 71.515625 59.898438 71.480469 59.855469 C 71.425781 59.789062 71.835938 60.074219 71.726562 60.03125 C 71.621094 59.992188 72.125 60.046875 72.035156 60.0625 C 71.96875 60.074219 72.234375 59.992188 72.191406 60.011719 C 72.125 60.042969 72.347656 59.902344 72.320312 59.925781 C 72.285156 59.957031 72.394531 59.84375 72.382812 59.859375 C 72.375 59.871094 72.398438 59.835938 72.398438 59.839844 C 72.304688 59.992188 71.992188 60.578125 71.378906 61.527344 C 71.203125 61.796875 70.980469 62.113281 70.726562 62.46875 C 70.160156 63.261719 69.507812 64.066406 68.898438 64.835938 C 68.449219 65.398438 68.011719 65.921875 67.652344 66.394531 C 67.21875 66.960938 66.878906 67.4375 66.589844 67.839844 C 66.308594 68.226562 66.089844 68.539062 65.910156 68.800781 C 65.683594 69.125 65.511719 69.382812 65.367188 69.597656 C 65.292969 69.703125 65.222656 69.792969 65.175781 69.855469 C 65.152344 69.882812 65.136719 69.902344 65.132812 69.90625 C 65.132812 69.910156 65.152344 69.878906 65.144531 69.890625 C 65.136719 69.90625 65.199219 69.734375 65.183594 69.792969 "/>
<path style=" stroke:none;fill-rule:nonzero;fill:rgb(92.941284%,21.176147%,14.117432%);fill-opacity:1;" d="M 68.578125 64.859375 C 68.859375 64.6875 69.226562 64.773438 69.398438 65.054688 C 69.570312 65.335938 69.484375 65.703125 69.203125 65.875 C 69.191406 65.882812 69.214844 65.839844 69.191406 65.933594 C 69.183594 65.964844 69.175781 66.085938 69.183594 66.257812 C 69.195312 66.539062 69.226562 66.863281 69.292969 67.175781 C 69.335938 67.382812 69.429688 67.617188 69.527344 67.859375 C 69.710938 68.3125 69.933594 68.640625 70.125 68.914062 C 70.320312 69.191406 70.53125 69.492188 70.636719 69.917969 C 70.71875 70.238281 70.523438 70.5625 70.203125 70.640625 C 69.882812 70.722656 69.558594 70.527344 69.480469 70.207031 C 69.425781 69.984375 69.34375 69.875 69.148438 69.601562 C 68.945312 69.308594 68.65625 68.886719 68.421875 68.308594 C 68.320312 68.058594 68.199219 67.761719 68.125 67.425781 C 68.039062 67.019531 68.007812 66.632812 67.992188 66.3125 C 67.980469 66.097656 67.976562 65.882812 68.035156 65.648438 C 68.113281 65.320312 68.316406 65.019531 68.578125 64.859375 "/>
</g>
</svg>
