<?xml version="1.0" encoding="UTF-8"?>
<svg xmlns="http://www.w3.org/2000/svg" xmlns:xlink="http://www.w3.org/1999/xlink" width="88.0298pt" height="224.382pt" viewBox="0 0 88.0298 224.382" version="1.2">
<g id="surface1">
<path style=" stroke:none;fill-rule:nonzero;fill:rgb(7.058716%,1.176453%,46.665955%);fill-opacity:1;" d="M 33.359375 106.367188 C 33.359375 106.042969 33.617188 105.785156 33.941406 105.785156 C 34.261719 105.785156 34.523438 106.042969 34.523438 106.367188 L 34.523438 128.597656 C 34.523438 128.917969 34.261719 129.179688 33.941406 129.179688 C 33.617188 129.179688 33.359375 128.917969 33.359375 128.597656 Z M 33.359375 106.367188 "/>
<path style=" stroke:none;fill-rule:nonzero;fill:rgb(7.058716%,1.176453%,46.665955%);fill-opacity:1;" d="M 33.359375 151.941406 C 33.359375 151.617188 33.617188 151.355469 33.941406 151.355469 C 34.261719 151.355469 34.523438 151.617188 34.523438 151.941406 L 34.523438 174.167969 C 34.523438 174.492188 34.261719 174.753906 33.941406 174.753906 C 33.617188 174.753906 33.359375 174.492188 33.359375 174.167969 Z M 33.359375 151.941406 "/>
<path style=" stroke:none;fill-rule:nonzero;fill:rgb(7.058716%,1.176453%,46.665955%);fill-opacity:1;" d="M 33.605469 129.074219 C 33.34375 128.890625 33.277344 128.527344 33.460938 128.261719 C 33.644531 128 34.007812 127.933594 34.273438 128.117188 L 49.023438 138.394531 C 49.289062 138.578125 49.351562 138.941406 49.167969 139.207031 C 48.984375 139.472656 48.621094 139.535156 48.355469 139.351562 Z M 33.605469 129.074219 "/>
<path style=" stroke:none;fill-rule:nonzero;fill:rgb(7.058716%,1.176453%,46.665955%);fill-opacity:1;" d="M 48.304688 138.4375 C 48.546875 138.222656 48.914062 138.246094 49.125 138.488281 C 49.339844 138.726562 49.316406 139.097656 49.078125 139.308594 L 34.328125 152.375 C 34.085938 152.589844 33.71875 152.566406 33.503906 152.324219 C 33.289062 152.085938 33.3125 151.714844 33.554688 151.503906 Z M 48.304688 138.4375 "/>
<path style=" stroke:none;fill-rule:nonzero;fill:rgb(7.058716%,1.176453%,46.665955%);fill-opacity:1;" d="M 48.109375 127.550781 C 48.109375 127.226562 48.367188 126.964844 48.691406 126.964844 C 49.011719 126.964844 49.273438 127.226562 49.273438 127.550781 L 49.273438 152.273438 C 49.273438 152.59375 49.011719 152.855469 48.691406 152.855469 C 48.367188 152.855469 48.109375 152.59375 48.109375 152.273438 Z M 48.109375 127.550781 "/>
<path style=" stroke:none;fill-rule:nonzero;fill:rgb(7.058716%,1.176453%,46.665955%);fill-opacity:1;" d="M 48.691406 139.457031 C 48.367188 139.457031 48.109375 139.195312 48.109375 138.875 C 48.109375 138.550781 48.367188 138.289062 48.691406 138.289062 L 63.078125 138.289062 C 63.398438 138.289062 63.660156 138.550781 63.660156 138.875 C 63.660156 139.195312 63.398438 139.457031 63.078125 139.457031 Z M 48.691406 139.457031 "/>
<path style=" stroke:none;fill-rule:nonzero;fill:rgb(7.058716%,1.176453%,46.665955%);fill-opacity:1;" d="M 40.933594 150.449219 C 41.144531 150.691406 41.117188 151.058594 40.875 151.269531 C 40.628906 151.480469 40.261719 151.453125 40.050781 151.210938 L 35.320312 145.726562 C 35.109375 145.480469 35.136719 145.113281 35.378906 144.902344 C 35.625 144.695312 35.992188 144.71875 36.203125 144.964844 Z M 40.933594 150.449219 "/>
<path style=" stroke:none;fill-rule:nonzero;fill:rgb(7.058716%,1.176453%,46.665955%);fill-opacity:1;" d="M 40.453125 150.246094 C 40.773438 150.226562 41.050781 150.46875 41.074219 150.789062 C 41.097656 151.109375 40.855469 151.386719 40.535156 151.410156 L 34.503906 151.828125 C 34.183594 151.851562 33.90625 151.609375 33.882812 151.289062 C 33.863281 150.964844 34.105469 150.6875 34.425781 150.664062 Z M 40.453125 150.246094 "/>
<path style=" stroke:none;fill-rule:nonzero;fill:rgb(7.058716%,1.176453%,46.665955%);fill-opacity:1;" d="M 35.792969 147.789062 C 35.75 147.699219 35.710938 147.621094 35.675781 147.554688 C 35.65625 147.515625 35.617188 147.457031 35.570312 147.324219 C 35.554688 147.273438 35.519531 147.222656 35.535156 147.050781 C 35.546875 146.957031 35.554688 146.878906 35.632812 146.761719 C 35.664062 146.710938 35.703125 146.667969 35.75 146.632812 C 35.8125 146.578125 35.886719 146.539062 35.972656 146.515625 C 36.070312 146.488281 36.136719 146.496094 36.175781 146.5 C 36.625 146.535156 36.550781 146.652344 36.605469 146.683594 C 36.664062 146.722656 36.765625 146.78125 36.878906 146.882812 C 37.011719 147 37.105469 147.113281 37.199219 147.222656 C 37.28125 147.3125 37.363281 147.40625 37.453125 147.515625 C 37.585938 147.664062 37.730469 147.835938 37.878906 148.007812 C 38.109375 148.273438 38.328125 148.53125 38.519531 148.75 C 38.75 149.011719 38.941406 149.230469 39.113281 149.4375 C 39.167969 149.503906 39.210938 149.5625 39.246094 149.601562 C 39.3125 149.691406 39.355469 149.769531 39.382812 149.835938 C 39.421875 149.933594 39.421875 149.933594 39.421875 149.933594 C 39.453125 150.027344 39.460938 150.125 39.445312 150.226562 C 39.386719 150.542969 39.085938 150.753906 38.769531 150.699219 C 38.585938 150.664062 38.6875 150.667969 38.632812 150.65625 C 38.582031 150.738281 38.515625 150.804688 38.4375 150.851562 C 38.347656 150.902344 38.253906 150.929688 38.160156 150.933594 C 38.109375 150.933594 38.054688 150.929688 38.003906 150.917969 C 38.007812 151.007812 37.992188 151.09375 37.957031 151.175781 C 37.921875 151.257812 37.867188 151.332031 37.796875 151.390625 C 37.566406 151.582031 37.230469 151.570312 37.015625 151.359375 C 36.96875 151.3125 36.945312 151.289062 36.917969 151.257812 C 36.890625 151.226562 36.855469 151.1875 36.820312 151.144531 C 36.734375 151.25 36.613281 151.328125 36.46875 151.355469 C 36.296875 151.390625 36.125 151.34375 36 151.242188 C 35.90625 151.164062 35.871094 151.125 35.835938 151.078125 C 35.59375 151.140625 35.332031 151.042969 35.191406 150.820312 C 35.058594 150.597656 35.109375 150.605469 35.105469 150.601562 C 35.054688 150.425781 35.058594 150.335938 35.046875 150.257812 C 35.035156 150.167969 35.03125 150.097656 35.027344 150.039062 C 35.027344 149.957031 35.027344 149.980469 35.027344 149.96875 C 35.027344 149.875 35.035156 149.820312 35.054688 149.765625 C 35.097656 149.621094 35.195312 149.507812 35.316406 149.4375 C 35.304688 149.363281 35.207031 149.285156 35.316406 148.96875 C 35.355469 148.851562 35.414062 148.746094 35.515625 148.648438 C 35.539062 148.625 35.570312 148.597656 35.601562 148.574219 C 35.589844 148.542969 35.578125 148.507812 35.566406 148.457031 C 35.558594 148.4375 35.539062 148.40625 35.542969 148.269531 C 35.539062 148.25 35.480469 148.058594 35.792969 147.789062 "/>
<path style=" stroke:none;fill-rule:nonzero;fill:rgb(7.058716%,1.176453%,46.665955%);fill-opacity:1;" d="M 35.191406 145.21875 C 35.261719 144.90625 35.570312 144.707031 35.886719 144.777344 C 36.199219 144.84375 36.398438 145.15625 36.332031 145.46875 L 35.035156 151.371094 C 34.964844 151.6875 34.65625 151.886719 34.339844 151.816406 C 34.027344 151.746094 33.828125 151.4375 33.894531 151.121094 Z M 35.191406 145.21875 "/>
<path style=" stroke:none;fill-rule:nonzero;fill:rgb(7.058716%,1.176453%,46.665955%);fill-opacity:1;" d="M 33.453125 43.441406 C 33.453125 43.121094 33.714844 42.859375 34.035156 42.859375 C 34.359375 42.859375 34.621094 43.121094 34.621094 43.441406 L 34.621094 60.15625 C 34.621094 60.480469 34.359375 60.742188 34.035156 60.742188 C 33.714844 60.742188 33.453125 60.480469 33.453125 60.15625 Z M 33.453125 43.441406 "/>
<path style=" stroke:none;fill-rule:nonzero;fill:rgb(7.058716%,1.176453%,46.665955%);fill-opacity:1;" d="M 49.636719 74.933594 C 49.636719 80.597656 46.574219 85.542969 42.015625 88.207031 C 39.742188 89.535156 37.097656 90.296875 34.277344 90.296875 C 28.613281 90.296875 23.667969 87.234375 21.003906 82.671875 C 19.675781 80.402344 18.914062 77.757812 18.914062 74.933594 C 18.914062 69.273438 21.976562 64.324219 26.539062 61.660156 C 28.808594 60.335938 31.453125 59.574219 34.277344 59.574219 C 39.9375 59.574219 44.886719 62.636719 47.550781 67.195312 C 48.878906 69.46875 49.636719 72.113281 49.636719 74.933594 M 48.472656 74.933594 C 48.472656 72.328125 47.769531 69.882812 46.542969 67.785156 C 44.082031 63.570312 39.507812 60.738281 34.277344 60.738281 C 31.667969 60.738281 29.226562 61.441406 27.125 62.667969 C 22.910156 65.128906 20.082031 69.703125 20.082031 74.933594 C 20.082031 77.542969 20.78125 79.984375 22.007812 82.085938 C 24.472656 86.300781 29.042969 89.132812 34.277344 89.132812 C 36.882812 89.132812 39.328125 88.429688 41.425781 87.203125 C 45.640625 84.738281 48.472656 80.167969 48.472656 74.933594 "/>
<path style=" stroke:none;fill-rule:nonzero;fill:rgb(7.058716%,1.176453%,46.665955%);fill-opacity:1;" d="M 33.359375 89.710938 C 33.359375 89.390625 33.617188 89.128906 33.941406 89.128906 C 34.261719 89.128906 34.523438 89.390625 34.523438 89.710938 L 34.523438 110.683594 C 34.523438 111.007812 34.261719 111.269531 33.941406 111.269531 C 33.617188 111.269531 33.359375 111.007812 33.359375 110.683594 Z M 33.359375 89.710938 "/>
<path style=" stroke:none;fill-rule:nonzero;fill:rgb(7.058716%,1.176453%,46.665955%);fill-opacity:1;" d="M 33.882812 63.835938 C 33.882812 63.511719 34.144531 63.253906 34.46875 63.253906 C 34.789062 63.253906 35.050781 63.511719 35.050781 63.835938 L 35.050781 86.035156 C 35.050781 86.355469 34.789062 86.617188 34.46875 86.617188 C 34.144531 86.617188 33.882812 86.355469 33.882812 86.035156 Z M 33.882812 63.835938 "/>
<path style=" stroke:none;fill-rule:nonzero;fill:rgb(7.058716%,1.176453%,46.665955%);fill-opacity:1;" d="M 34.273438 84.898438 L 36.78125 81.921875 L 31.753906 82.050781 Z M 33.84375 86.175781 L 30.050781 81.886719 C 29.722656 81.515625 29.976562 80.929688 30.472656 80.917969 L 38.050781 80.722656 C 38.554688 80.710938 38.835938 81.296875 38.511719 81.683594 L 34.726562 86.164062 C 34.5 86.4375 34.082031 86.441406 33.84375 86.175781 "/>
<path style=" stroke:none;fill-rule:nonzero;fill:rgb(7.058716%,1.176453%,46.665955%);fill-opacity:1;" d="M 33.738281 84.382812 C 33.429688 84.476562 33.105469 84.304688 33.011719 83.996094 C 32.917969 83.6875 33.09375 83.363281 33.402344 83.269531 C 33.40625 83.269531 33.390625 83.273438 33.394531 83.273438 C 33.398438 83.269531 33.347656 83.296875 33.363281 83.285156 C 33.410156 83.261719 33.195312 83.457031 33.234375 83.402344 C 33.277344 83.339844 33.140625 83.773438 33.144531 83.664062 C 33.148438 83.542969 33.238281 83.992188 33.207031 83.933594 C 33.179688 83.878906 33.292969 84.046875 33.277344 84.03125 C 33.25 84.003906 33.304688 84.054688 33.289062 84.042969 C 33.246094 84.015625 33.160156 83.964844 33.058594 83.894531 C 32.898438 83.792969 32.726562 83.667969 32.546875 83.539062 C 32.402344 83.433594 32.269531 83.328125 32.152344 83.230469 C 31.921875 83.039062 31.734375 82.859375 31.6875 82.816406 C 31.566406 82.710938 31.574219 82.691406 31.546875 82.652344 C 31.351562 82.398438 31.398438 82.03125 31.65625 81.835938 C 31.914062 81.640625 32.277344 81.691406 32.472656 81.949219 C 32.476562 81.953125 32.515625 81.996094 32.570312 82.066406 C 32.636719 82.144531 32.703125 82.234375 32.78125 82.328125 C 33 82.59375 33.273438 82.890625 33.558594 83.160156 C 33.679688 83.273438 33.804688 83.386719 33.929688 83.492188 C 34.050781 83.589844 34.167969 83.675781 34.222656 83.714844 C 34.257812 83.734375 34.285156 83.753906 34.300781 83.761719 C 34.304688 83.765625 34.285156 83.753906 34.296875 83.761719 C 34.308594 83.765625 34.089844 83.695312 34.175781 83.714844 L 33.894531 84.847656 C 33.511719 84.75 33.597656 84.667969 33.578125 84.644531 C 33.527344 84.585938 33.507812 84.558594 33.484375 84.535156 C 33.398438 84.449219 33.289062 84.339844 33.167969 84.222656 C 33.011719 84.0625 32.867188 83.898438 32.71875 83.734375 C 32.53125 83.53125 32.324219 83.320312 32.136719 83.113281 C 32.035156 83.003906 31.941406 82.902344 31.863281 82.8125 C 31.796875 82.738281 31.75 82.6875 31.6875 82.578125 C 31.671875 82.542969 31.644531 82.507812 31.621094 82.40625 C 31.621094 82.398438 31.621094 82.394531 31.621094 82.390625 C 31.558594 82.074219 31.765625 81.769531 32.082031 81.707031 C 32.398438 81.648438 32.703125 81.855469 32.765625 82.171875 C 32.765625 82.175781 32.761719 82.152344 32.761719 82.15625 C 32.78125 82.25 32.699219 81.996094 32.710938 82.015625 C 32.738281 82.070312 32.703125 82 32.738281 82.042969 C 32.804688 82.117188 32.894531 82.214844 32.992188 82.324219 C 33.167969 82.515625 33.378906 82.730469 33.578125 82.945312 C 33.734375 83.117188 33.875 83.277344 33.996094 83.398438 C 34.113281 83.519531 34.222656 83.625 34.300781 83.703125 C 34.363281 83.765625 34.410156 83.824219 34.441406 83.863281 C 34.457031 83.878906 34.460938 83.882812 34.460938 83.886719 C 34.464844 83.890625 34.410156 83.835938 34.433594 83.855469 C 34.445312 83.867188 34.34375 83.785156 34.371094 83.804688 C 34.390625 83.816406 34.277344 83.75 34.304688 83.765625 C 34.335938 83.78125 34.121094 83.699219 34.175781 83.714844 C 34.488281 83.792969 34.679688 84.109375 34.601562 84.421875 C 34.523438 84.734375 34.207031 84.925781 33.894531 84.847656 C 33.589844 84.769531 33.644531 84.726562 33.59375 84.691406 C 33.472656 84.613281 33.335938 84.511719 33.183594 84.386719 C 33.042969 84.269531 32.898438 84.140625 32.75 84 C 32.433594 83.699219 32.136719 83.375 31.882812 83.074219 C 31.789062 82.957031 31.714844 82.859375 31.671875 82.808594 C 31.621094 82.746094 31.585938 82.707031 31.546875 82.652344 L 32.472656 81.949219 C 32.507812 81.992188 32.503906 81.992188 32.507812 81.996094 C 32.511719 82.003906 32.417969 81.90625 32.449219 81.9375 C 32.5625 82.03125 32.707031 82.175781 32.890625 82.328125 C 33.007812 82.421875 33.121094 82.515625 33.234375 82.597656 C 33.402344 82.71875 33.5625 82.832031 33.699219 82.921875 C 33.773438 82.96875 33.859375 83.019531 33.953125 83.085938 C 34 83.117188 34.054688 83.15625 34.121094 83.226562 C 34.191406 83.300781 34.320312 83.433594 34.3125 83.703125 C 34.300781 84.015625 34.109375 84.203125 33.9375 84.300781 C 33.875 84.335938 33.828125 84.355469 33.789062 84.367188 C 33.769531 84.375 33.753906 84.378906 33.738281 84.382812 M 32.046875 82.839844 C 31.738281 82.753906 31.550781 82.433594 31.636719 82.125 C 31.71875 81.8125 32.039062 81.628906 32.347656 81.710938 C 32.414062 81.730469 32.449219 81.746094 32.476562 81.761719 C 32.527344 81.789062 32.554688 81.808594 32.578125 81.828125 C 32.726562 81.941406 32.832031 82.058594 32.972656 82.199219 C 33.257812 82.480469 33.589844 82.816406 33.90625 83.105469 C 34.023438 83.210938 34.140625 83.308594 34.246094 83.390625 C 34.355469 83.476562 34.421875 83.511719 34.433594 83.511719 C 34.453125 83.519531 34.300781 83.496094 34.34375 83.496094 C 34.386719 83.5 34.113281 83.542969 34.175781 83.519531 C 34.242188 83.5 33.9375 83.6875 33.988281 83.632812 C 34.042969 83.582031 33.855469 83.855469 33.878906 83.800781 C 33.910156 83.722656 33.847656 84 33.847656 83.96875 C 33.847656 83.925781 33.855469 84.011719 33.851562 84 C 33.84375 83.984375 33.832031 83.957031 33.816406 83.921875 C 33.777344 83.847656 33.652344 83.695312 33.507812 83.523438 C 33.433594 83.441406 33.371094 83.363281 33.316406 83.300781 C 33.25 83.222656 33.191406 83.160156 33.15625 83.125 C 33.117188 83.085938 33.109375 83.078125 33.097656 83.066406 C 33.089844 83.0625 33.152344 83.101562 33.132812 83.089844 C 33.109375 83.078125 33.335938 83.164062 33.261719 83.144531 C 33.207031 83.128906 33.628906 83.128906 33.515625 83.152344 C 33.199219 83.214844 32.894531 83.007812 32.832031 82.691406 C 32.769531 82.375 32.976562 82.070312 33.292969 82.007812 C 33.410156 81.984375 33.496094 82 33.558594 82.015625 C 33.714844 82.058594 33.757812 82.105469 33.800781 82.136719 C 33.878906 82.195312 33.921875 82.242188 33.972656 82.292969 C 34.054688 82.371094 34.121094 82.453125 34.191406 82.53125 C 34.265625 82.613281 34.328125 82.691406 34.390625 82.765625 C 34.535156 82.933594 34.71875 83.125 34.855469 83.390625 C 34.957031 83.59375 35.132812 83.796875 34.960938 84.230469 C 34.898438 84.394531 34.734375 84.5625 34.542969 84.625 C 34.363281 84.6875 34.195312 84.664062 34.066406 84.621094 C 33.863281 84.554688 33.707031 84.445312 33.535156 84.316406 C 33.40625 84.214844 33.261719 84.097656 33.121094 83.96875 C 32.769531 83.648438 32.429688 83.300781 32.15625 83.03125 C 32.007812 82.882812 31.875 82.757812 31.871094 82.753906 C 31.863281 82.75 31.972656 82.8125 31.933594 82.792969 C 31.910156 82.78125 32.109375 82.855469 32.046875 82.839844 M 32.929688 82.238281 C 33.121094 81.980469 33.484375 81.925781 33.742188 82.117188 C 34.003906 82.308594 34.058594 82.671875 33.867188 82.929688 C 33.808594 83.007812 33.976562 82.660156 33.964844 82.71875 C 33.941406 82.8125 33.960938 82.496094 33.96875 82.527344 C 33.976562 82.574219 33.953125 82.480469 33.960938 82.492188 C 33.964844 82.507812 33.980469 82.535156 34 82.570312 C 34.054688 82.667969 34.144531 82.804688 34.242188 82.957031 C 34.335938 83.113281 34.457031 83.28125 34.582031 83.445312 C 34.722656 83.636719 34.851562 83.789062 34.933594 83.863281 C 34.972656 83.902344 34.96875 83.902344 34.984375 83.910156 C 35 83.917969 34.820312 83.863281 34.882812 83.875 C 34.917969 83.882812 34.699219 83.871094 34.753906 83.867188 C 34.808594 83.863281 34.507812 83.945312 34.570312 83.914062 C 34.675781 83.867188 34.304688 84.167969 34.347656 84.105469 C 34.386719 84.042969 34.269531 84.28125 34.277344 84.246094 C 34.296875 84.183594 34.261719 84.34375 34.261719 84.335938 C 34.261719 84.332031 34.261719 84.300781 34.253906 84.253906 C 34.242188 84.183594 34.089844 83.851562 33.894531 83.5625 C 33.800781 83.425781 33.699219 83.292969 33.605469 83.175781 C 33.546875 83.101562 33.492188 83.035156 33.457031 82.996094 C 33.441406 82.976562 33.4375 82.972656 33.433594 82.96875 C 33.429688 82.964844 33.542969 83.054688 33.492188 83.019531 C 33.230469 82.828125 33.171875 82.464844 33.363281 82.203125 C 33.550781 81.945312 33.917969 81.886719 34.175781 82.074219 C 34.234375 82.117188 34.246094 82.132812 34.261719 82.148438 C 34.289062 82.175781 34.3125 82.203125 34.335938 82.230469 C 34.386719 82.289062 34.449219 82.363281 34.515625 82.449219 C 34.617188 82.578125 34.742188 82.734375 34.863281 82.914062 C 35.097656 83.261719 35.339844 83.625 35.40625 84.085938 C 35.417969 84.160156 35.429688 84.242188 35.429688 84.351562 C 35.429688 84.40625 35.425781 84.472656 35.398438 84.570312 C 35.367188 84.675781 35.292969 84.863281 35.058594 84.972656 C 34.90625 85.042969 34.753906 85.039062 34.648438 85.015625 C 34.546875 84.996094 34.476562 84.960938 34.414062 84.929688 C 34.300781 84.863281 34.214844 84.792969 34.132812 84.714844 C 33.964844 84.554688 33.808594 84.359375 33.644531 84.140625 C 33.515625 83.96875 33.375 83.777344 33.25 83.570312 C 33.164062 83.433594 33.070312 83.289062 32.988281 83.144531 C 32.902344 83 32.726562 82.902344 32.824219 82.464844 C 32.839844 82.398438 32.867188 82.320312 32.929688 82.238281 M 33.253906 82.640625 C 33.203125 82.324219 33.417969 82.023438 33.738281 81.972656 C 34.054688 81.917969 34.355469 82.136719 34.40625 82.453125 C 34.421875 82.546875 34.351562 82.289062 34.359375 82.308594 C 34.390625 82.371094 34.46875 82.445312 34.648438 82.660156 C 34.773438 82.8125 34.910156 82.964844 35.03125 83.089844 C 35.113281 83.175781 35.179688 83.246094 35.210938 83.277344 C 35.222656 83.289062 35.167969 83.25 35.195312 83.269531 C 35.214844 83.28125 35.058594 83.210938 35.105469 83.226562 C 35.15625 83.242188 34.796875 83.214844 34.886719 83.207031 C 35.128906 83.179688 35.238281 83.269531 35.273438 83.289062 C 35.285156 83.296875 35.230469 83.269531 35.257812 83.28125 C 35.273438 83.289062 35.152344 83.242188 35.1875 83.253906 C 35.222656 83.265625 34.964844 83.226562 35.03125 83.226562 C 35.355469 83.234375 35.609375 83.5 35.601562 83.824219 C 35.597656 84.144531 35.328125 84.402344 35.007812 84.394531 C 34.742188 84.386719 34.703125 84.304688 34.703125 84.304688 C 34.695312 84.300781 34.8125 84.351562 34.769531 84.335938 C 34.71875 84.316406 35.121094 84.351562 35.011719 84.363281 C 34.796875 84.386719 34.667969 84.3125 34.585938 84.261719 C 34.511719 84.214844 34.460938 84.171875 34.417969 84.132812 C 34.332031 84.054688 34.261719 83.976562 34.1875 83.898438 C 34.046875 83.75 33.894531 83.582031 33.75 83.40625 C 33.644531 83.277344 33.550781 83.167969 33.476562 83.070312 C 33.402344 82.972656 33.3125 82.996094 33.253906 82.640625 M 35.597656 83.902344 C 35.542969 84.21875 35.242188 84.429688 34.921875 84.375 C 34.605469 84.320312 34.394531 84.019531 34.449219 83.699219 C 34.449219 83.695312 34.449219 83.714844 34.449219 83.710938 C 34.453125 83.6875 34.445312 83.738281 34.445312 83.738281 C 34.445312 83.734375 34.445312 83.726562 34.445312 83.722656 C 34.441406 83.671875 34.453125 83.78125 34.449219 83.769531 C 34.433594 83.714844 34.351562 83.5625 34.261719 83.402344 C 34.199219 83.292969 34.132812 83.183594 34.074219 83.089844 C 34.035156 83.019531 34 82.964844 33.972656 82.917969 C 33.960938 82.894531 33.953125 82.878906 33.9375 82.851562 C 33.933594 82.847656 33.933594 82.839844 33.929688 82.835938 C 33.789062 82.546875 33.910156 82.199219 34.199219 82.058594 C 34.488281 81.917969 34.839844 82.039062 34.980469 82.328125 C 34.980469 82.332031 34.972656 82.316406 34.972656 82.320312 C 34.980469 82.332031 34.972656 82.316406 34.980469 82.332031 C 35 82.363281 35.035156 82.417969 35.074219 82.484375 C 35.128906 82.578125 35.203125 82.699219 35.277344 82.835938 C 35.398438 83.050781 35.585938 83.230469 35.609375 83.660156 C 35.613281 83.710938 35.609375 83.753906 35.609375 83.800781 C 35.609375 83.824219 35.605469 83.847656 35.601562 83.886719 C 35.601562 83.890625 35.597656 83.894531 35.597656 83.902344 M 34 82.945312 C 33.800781 82.695312 33.839844 82.328125 34.089844 82.125 C 34.34375 81.925781 34.707031 81.964844 34.910156 82.214844 C 34.996094 82.324219 35.035156 82.394531 35.144531 82.566406 C 35.25 82.71875 35.382812 82.910156 35.503906 83.070312 C 35.59375 83.191406 35.632812 83.238281 35.65625 83.257812 C 35.683594 83.277344 35.382812 83.15625 35.484375 83.179688 C 35.535156 83.191406 35.210938 83.179688 35.285156 83.167969 C 35.363281 83.15625 34.992188 83.296875 35.058594 83.253906 C 35.125 83.210938 34.878906 83.441406 34.910156 83.394531 C 34.941406 83.347656 34.835938 83.542969 34.847656 83.511719 C 34.871094 83.453125 34.824219 83.636719 34.824219 83.617188 C 34.828125 83.582031 34.828125 83.507812 34.816406 83.433594 C 34.808594 83.375 34.753906 83.234375 34.703125 83.035156 C 34.679688 82.949219 34.660156 82.867188 34.65625 82.746094 C 34.65625 82.683594 34.65625 82.601562 34.699219 82.484375 C 34.746094 82.359375 34.886719 82.175781 35.09375 82.109375 C 35.359375 82.027344 35.515625 82.125 35.59375 82.167969 C 35.667969 82.210938 35.707031 82.246094 35.742188 82.273438 C 35.804688 82.328125 35.847656 82.371094 35.867188 82.394531 C 35.96875 82.480469 36.0625 82.566406 36.101562 82.59375 C 36.125 82.609375 35.933594 82.523438 35.988281 82.539062 C 36.050781 82.558594 35.65625 82.558594 35.75 82.539062 C 35.84375 82.515625 35.457031 82.734375 35.511719 82.675781 C 35.566406 82.617188 35.40625 82.859375 35.417969 82.824219 C 35.433594 82.785156 35.40625 82.871094 35.40625 82.863281 C 35.410156 82.816406 35.398438 82.660156 35.386719 82.476562 C 35.378906 82.34375 35.375 82.210938 35.378906 82.089844 C 35.378906 81.964844 35.289062 81.796875 35.515625 81.46875 C 35.644531 81.277344 35.835938 81.214844 35.957031 81.195312 C 36.0625 81.179688 36.136719 81.191406 36.195312 81.199219 C 36.304688 81.21875 36.375 81.242188 36.410156 81.253906 C 36.542969 81.289062 36.628906 81.351562 36.65625 81.371094 C 36.660156 81.375 36.648438 81.367188 36.65625 81.371094 C 36.664062 81.375 36.554688 81.320312 36.59375 81.335938 C 36.886719 81.472656 37.011719 81.820312 36.875 82.109375 C 36.738281 82.402344 36.390625 82.527344 36.101562 82.394531 C 36.019531 82.355469 36 82.335938 35.992188 82.328125 C 35.984375 82.324219 36.023438 82.347656 36.007812 82.339844 C 35.992188 82.328125 36.128906 82.382812 36.089844 82.371094 C 36.042969 82.359375 36.027344 82.351562 36.015625 82.351562 C 36.007812 82.351562 36.191406 82.339844 36.121094 82.351562 C 36.082031 82.355469 36.339844 82.269531 36.277344 82.300781 C 36.207031 82.335938 36.53125 82.042969 36.476562 82.125 C 36.433594 82.1875 36.546875 81.957031 36.539062 81.988281 C 36.523438 82.050781 36.542969 81.992188 36.542969 82.101562 C 36.542969 82.191406 36.542969 82.296875 36.550781 82.410156 C 36.5625 82.605469 36.652344 82.832031 36.519531 83.210938 C 36.457031 83.386719 36.285156 83.605469 36.027344 83.671875 C 35.769531 83.730469 35.558594 83.636719 35.425781 83.542969 C 35.289062 83.445312 35.183594 83.34375 35.09375 83.265625 C 35.035156 83.210938 34.992188 83.167969 34.976562 83.15625 C 34.972656 83.152344 35.058594 83.207031 35.019531 83.183594 C 34.996094 83.167969 35.203125 83.246094 35.140625 83.230469 C 35.109375 83.222656 35.316406 83.25 35.265625 83.25 C 35.214844 83.246094 35.503906 83.203125 35.441406 83.222656 C 35.347656 83.25 35.746094 83.003906 35.683594 83.070312 C 35.625 83.132812 35.8125 82.839844 35.792969 82.890625 C 35.757812 82.984375 35.824219 82.699219 35.824219 82.722656 C 35.824219 82.765625 35.820312 82.707031 35.832031 82.742188 C 35.851562 82.820312 35.941406 83.015625 35.972656 83.285156 C 35.992188 83.445312 35.996094 83.585938 35.984375 83.710938 C 35.980469 83.769531 35.972656 83.832031 35.941406 83.917969 C 35.90625 84.007812 35.839844 84.132812 35.695312 84.230469 C 35.542969 84.328125 35.34375 84.34375 35.210938 84.3125 C 35.089844 84.28125 35.015625 84.234375 34.960938 84.191406 C 34.792969 84.066406 34.691406 83.933594 34.570312 83.765625 C 34.4375 83.589844 34.292969 83.390625 34.175781 83.210938 C 34.058594 83.035156 34.035156 82.984375 34 82.945312 M 36.777344 82.269531 C 36.554688 82.5 36.183594 82.507812 35.953125 82.28125 C 35.722656 82.058594 35.71875 81.6875 35.945312 81.457031 C 36.007812 81.390625 35.800781 81.703125 35.820312 81.648438 C 35.851562 81.570312 35.785156 81.84375 35.789062 81.8125 C 35.789062 81.78125 35.789062 81.867188 35.789062 81.863281 C 35.789062 81.851562 35.78125 81.84375 35.777344 81.769531 C 35.777344 81.757812 35.777344 81.761719 35.769531 81.703125 C 35.765625 81.667969 35.757812 81.621094 35.777344 81.515625 C 35.78125 81.488281 35.789062 81.457031 35.800781 81.421875 C 35.90625 81.117188 36.238281 80.953125 36.539062 81.058594 C 36.84375 81.164062 37.007812 81.492188 36.902344 81.796875 C 36.890625 81.832031 36.929688 81.691406 36.925781 81.714844 C 36.917969 81.761719 36.933594 81.601562 36.933594 81.621094 C 36.933594 81.636719 36.929688 81.585938 36.929688 81.589844 C 36.933594 81.597656 36.9375 81.628906 36.941406 81.703125 C 36.945312 81.730469 36.945312 81.699219 36.949219 81.757812 C 36.957031 81.828125 37.039062 82.003906 36.777344 82.269531 M 36.511719 82.164062 C 36.199219 82.246094 35.882812 82.0625 35.796875 81.75 C 35.714844 81.441406 35.898438 81.121094 36.210938 81.039062 C 36.453125 80.972656 36.605469 81.058594 36.683594 81.105469 C 36.757812 81.148438 36.800781 81.183594 36.835938 81.21875 C 36.902344 81.28125 36.949219 81.339844 36.996094 81.398438 C 37.082031 81.507812 37.160156 81.621094 37.195312 81.664062 C 37.203125 81.671875 37.164062 81.636719 37.1875 81.65625 C 37.1875 81.65625 37.179688 81.648438 37.179688 81.652344 C 37.421875 81.863281 37.449219 82.230469 37.238281 82.472656 C 37.027344 82.71875 36.660156 82.742188 36.417969 82.53125 C 36.414062 82.53125 36.410156 82.527344 36.410156 82.523438 C 36.359375 82.484375 36.324219 82.441406 36.28125 82.386719 C 36.210938 82.296875 36.140625 82.195312 36.082031 82.121094 C 36.054688 82.085938 36.035156 82.066406 36.03125 82.0625 C 36.027344 82.058594 36.148438 82.140625 36.097656 82.113281 C 36.070312 82.097656 36.292969 82.179688 36.230469 82.164062 C 36.160156 82.148438 36.628906 82.132812 36.511719 82.164062 M 37.230469 81.695312 C 37.449219 81.933594 37.433594 82.300781 37.195312 82.519531 C 36.957031 82.738281 36.589844 82.722656 36.371094 82.484375 C 36.367188 82.480469 36.382812 82.496094 36.382812 82.496094 C 36.324219 82.4375 36.261719 82.371094 36.191406 82.304688 C 36.140625 82.257812 36.058594 82.191406 35.972656 82.128906 C 35.894531 82.070312 35.886719 82.0625 35.863281 82.054688 C 35.8125 82.039062 36.164062 82.015625 36.089844 82.046875 C 36.015625 82.074219 36.207031 81.96875 36.199219 81.976562 C 36.15625 82.027344 36.179688 82.054688 36.0625 82.242188 C 35.960938 82.410156 35.839844 82.539062 35.730469 82.644531 C 35.476562 82.886719 35.1875 82.972656 34.96875 83.019531 C 34.710938 83.078125 34.492188 83.0625 34.355469 83.050781 C 34.289062 83.046875 34.246094 83.039062 34.242188 83.039062 C 34.238281 83.039062 34.378906 83.019531 34.335938 83.03125 C 34.238281 83.050781 34.601562 82.890625 34.554688 82.929688 C 34.488281 82.980469 34.675781 82.796875 34.660156 82.816406 C 34.648438 82.835938 34.675781 82.792969 34.675781 82.796875 C 34.664062 82.8125 34.636719 82.886719 34.515625 82.992188 C 34.25 83.214844 34.0625 83.160156 33.953125 83.15625 C 33.941406 83.152344 33.84375 83.179688 33.640625 83.179688 C 33.59375 83.183594 33.5 83.195312 33.347656 83.1875 C 33.324219 83.1875 33.121094 83.230469 32.855469 83.070312 C 32.453125 82.832031 32.457031 82.570312 32.421875 82.503906 C 32.414062 82.488281 32.390625 82.460938 32.339844 82.398438 C 32.300781 82.355469 32.273438 82.320312 32.265625 82.3125 C 32.261719 82.308594 32.308594 82.351562 32.289062 82.332031 C 32.277344 82.324219 32.367188 82.394531 32.339844 82.375 C 32.3125 82.359375 32.527344 82.460938 32.46875 82.441406 C 32.164062 82.335938 32.003906 82.003906 32.109375 81.699219 C 32.214844 81.394531 32.546875 81.234375 32.851562 81.339844 C 33.292969 81.492188 33.1875 81.601562 33.21875 81.636719 C 33.257812 81.683594 33.355469 81.785156 33.441406 81.941406 C 33.496094 82.035156 33.527344 82.109375 33.546875 82.144531 C 33.554688 82.160156 33.542969 82.144531 33.550781 82.15625 C 33.5625 82.167969 33.394531 82.039062 33.453125 82.074219 C 33.523438 82.113281 33.292969 82.019531 33.304688 82.023438 C 33.3125 82.023438 33.335938 82.019531 33.410156 82.023438 C 33.417969 82.023438 33.496094 82.015625 33.628906 82.015625 C 33.667969 82.015625 33.789062 81.980469 34.015625 81.992188 C 34.027344 81.992188 33.960938 81.996094 33.992188 81.992188 C 34.011719 81.992188 33.871094 82.03125 33.910156 82.015625 C 33.949219 82 33.707031 82.148438 33.761719 82.101562 C 33.8125 82.0625 33.667969 82.210938 33.679688 82.191406 C 33.6875 82.175781 33.667969 82.207031 33.675781 82.195312 C 33.695312 82.164062 33.6875 81.984375 34.078125 81.894531 C 34.285156 81.847656 34.410156 81.886719 34.453125 81.890625 C 34.554688 81.898438 34.644531 81.898438 34.714844 81.882812 C 34.828125 81.859375 34.90625 81.820312 34.925781 81.800781 C 34.992188 81.738281 35.042969 81.675781 35.066406 81.636719 C 35.109375 81.570312 35.136719 81.421875 35.328125 81.203125 C 35.410156 81.109375 35.527344 81.007812 35.6875 80.949219 C 35.851562 80.890625 36.042969 80.894531 36.191406 80.9375 C 36.394531 80.996094 36.53125 81.09375 36.664062 81.191406 C 36.765625 81.265625 36.878906 81.351562 36.992188 81.457031 C 37.09375 81.550781 37.171875 81.636719 37.210938 81.675781 C 37.21875 81.683594 37.222656 81.6875 37.230469 81.695312 M 32.085938 81.980469 C 32.039062 81.660156 32.261719 81.367188 32.578125 81.320312 C 32.898438 81.273438 33.195312 81.496094 33.238281 81.816406 C 33.242188 81.839844 33.242188 81.855469 33.246094 81.871094 C 33.246094 81.90625 33.246094 81.933594 33.246094 81.964844 C 33.246094 82.027344 33.246094 82.097656 33.207031 82.222656 C 33.105469 82.527344 32.777344 82.699219 32.472656 82.597656 C 32.167969 82.5 31.996094 82.171875 32.09375 81.867188 C 32.117188 81.792969 32.082031 81.933594 32.082031 81.933594 C 32.082031 81.933594 32.082031 81.957031 32.082031 81.945312 C 32.082031 81.9375 32.085938 81.996094 32.085938 81.980469 M 32.46875 81.492188 C 32.777344 81.398438 33.105469 81.570312 33.199219 81.878906 C 33.292969 82.183594 33.121094 82.511719 32.816406 82.605469 C 32.769531 82.621094 32.757812 82.621094 32.757812 82.621094 C 32.75 82.621094 32.847656 82.589844 32.8125 82.605469 C 32.773438 82.617188 33.0625 82.421875 32.988281 82.492188 C 32.910156 82.566406 33.148438 82.226562 33.128906 82.28125 C 33.109375 82.335938 33.152344 82.148438 33.152344 82.171875 C 33.148438 82.210938 33.152344 82.132812 33.152344 82.148438 C 33.15625 82.1875 33.144531 82.101562 33.148438 82.113281 C 33.167969 82.164062 33.261719 82.304688 33.363281 82.433594 C 33.425781 82.507812 33.472656 82.566406 33.488281 82.578125 C 33.507812 82.59375 33.292969 82.492188 33.363281 82.511719 C 33.402344 82.523438 33.136719 82.503906 33.207031 82.5 C 33.28125 82.492188 32.84375 82.675781 32.941406 82.605469 C 33.023438 82.542969 32.746094 82.867188 32.777344 82.804688 C 32.804688 82.746094 32.726562 82.980469 32.730469 82.945312 C 32.742188 82.882812 32.726562 83.070312 32.726562 83.054688 C 32.722656 83.035156 32.726562 83.054688 32.71875 83.027344 C 32.707031 82.984375 32.683594 82.976562 32.65625 82.941406 C 32.457031 82.691406 32.496094 82.324219 32.75 82.125 C 33.003906 81.925781 33.367188 81.964844 33.570312 82.21875 C 33.605469 82.265625 33.765625 82.421875 33.847656 82.730469 C 33.859375 82.78125 33.875 82.84375 33.886719 82.933594 C 33.890625 82.984375 33.894531 83.042969 33.882812 83.132812 C 33.863281 83.234375 33.820312 83.398438 33.644531 83.535156 C 33.417969 83.703125 33.203125 83.675781 33.054688 83.636719 C 32.914062 83.597656 32.800781 83.527344 32.703125 83.441406 C 32.597656 83.34375 32.523438 83.25 32.449219 83.15625 C 32.28125 82.941406 32.039062 82.722656 31.992188 82.261719 C 31.988281 82.214844 31.984375 82.15625 31.992188 82.070312 C 32 81.976562 32.011719 81.8125 32.191406 81.644531 C 32.351562 81.492188 32.460938 81.492188 32.496094 81.484375 C 32.507812 81.480469 32.433594 81.503906 32.46875 81.492188 M 32.644531 82.929688 C 32.457031 82.671875 32.511719 82.304688 32.773438 82.117188 C 33.03125 81.925781 33.394531 81.980469 33.585938 82.242188 C 33.59375 82.25 33.601562 82.261719 33.609375 82.273438 C 33.628906 82.304688 33.65625 82.34375 33.691406 82.394531 C 33.707031 82.425781 33.832031 82.535156 33.875 82.8125 C 33.917969 83.058594 33.835938 83.171875 33.8125 83.222656 C 33.792969 83.265625 33.832031 83.128906 33.816406 83.195312 C 33.800781 83.257812 33.824219 83 33.828125 83.042969 C 33.832031 83.097656 33.796875 82.925781 33.804688 82.941406 C 33.808594 82.953125 33.800781 82.933594 33.804688 82.945312 C 33.824219 82.976562 33.878906 83.042969 33.941406 83.136719 C 33.996094 83.21875 34.039062 83.28125 34.050781 83.296875 C 34.082031 83.332031 34.105469 83.355469 34.113281 83.363281 C 34.117188 83.367188 34.082031 83.339844 34.097656 83.351562 C 34.117188 83.363281 33.910156 83.257812 33.980469 83.285156 C 34.28125 83.402344 34.429688 83.738281 34.3125 84.039062 C 34.199219 84.339844 33.859375 84.488281 33.558594 84.371094 C 33.242188 84.25 33.246094 84.140625 33.179688 84.070312 C 33.085938 83.964844 33.027344 83.867188 32.96875 83.785156 C 32.941406 83.742188 32.882812 83.664062 32.8125 83.558594 C 32.742188 83.441406 32.601562 83.261719 32.683594 82.921875 C 32.714844 82.796875 32.75 82.746094 32.753906 82.734375 C 32.753906 82.730469 32.726562 82.816406 32.738281 82.78125 C 32.75 82.738281 32.742188 83.105469 32.726562 83 C 32.71875 82.953125 32.769531 83.113281 32.761719 83.101562 C 32.757812 83.09375 32.75 83.089844 32.707031 83.023438 C 32.683594 82.980469 32.664062 82.957031 32.652344 82.941406 C 32.648438 82.933594 32.648438 82.933594 32.644531 82.929688 M 34.347656 83.921875 C 34.292969 84.238281 33.992188 84.453125 33.675781 84.402344 C 33.359375 84.347656 33.144531 84.046875 33.195312 83.730469 C 33.199219 83.703125 33.191406 83.789062 33.191406 83.78125 C 33.191406 83.761719 33.191406 83.804688 33.191406 83.800781 C 33.1875 83.796875 33.1875 83.773438 33.1875 83.746094 C 33.183594 83.695312 33.175781 83.628906 33.171875 83.601562 C 33.160156 83.535156 33.136719 83.46875 33.152344 83.320312 C 33.15625 83.238281 33.167969 83.097656 33.316406 82.9375 C 33.480469 82.769531 33.761719 82.730469 33.90625 82.765625 C 34.417969 82.890625 34.425781 83.132812 34.535156 83.257812 C 34.609375 83.34375 34.675781 83.425781 34.730469 83.511719 C 34.746094 83.539062 34.777344 83.574219 34.832031 83.667969 L 33.820312 84.246094 C 33.792969 84.199219 33.921875 84.371094 33.898438 84.347656 C 33.863281 84.3125 33.972656 84.410156 33.964844 84.40625 C 33.949219 84.394531 33.921875 84.390625 33.824219 84.3125 C 33.792969 84.289062 33.765625 84.265625 33.742188 84.25 C 33.734375 84.238281 33.722656 84.234375 33.71875 84.226562 C 33.472656 84.019531 33.441406 83.652344 33.648438 83.40625 C 33.855469 83.160156 34.222656 83.128906 34.46875 83.335938 C 34.476562 83.339844 34.480469 83.347656 34.488281 83.351562 C 34.503906 83.363281 34.523438 83.378906 34.539062 83.394531 C 34.582031 83.425781 34.609375 83.277344 34.832031 83.667969 C 34.992188 83.945312 34.898438 84.300781 34.617188 84.460938 C 34.339844 84.621094 33.980469 84.527344 33.820312 84.246094 C 33.808594 84.222656 33.800781 84.21875 33.75 84.144531 C 33.734375 84.121094 33.699219 84.074219 33.660156 84.023438 C 33.59375 83.953125 33.542969 83.890625 33.503906 83.851562 C 33.488281 83.835938 33.496094 83.839844 33.488281 83.835938 C 33.480469 83.832031 33.542969 83.867188 33.523438 83.859375 C 33.5 83.84375 33.683594 83.910156 33.632812 83.898438 C 33.574219 83.886719 33.976562 83.878906 33.875 83.902344 C 33.769531 83.925781 34.238281 83.660156 34.164062 83.738281 C 34.097656 83.8125 34.304688 83.480469 34.289062 83.535156 C 34.269531 83.585938 34.3125 83.394531 34.3125 83.421875 C 34.308594 83.464844 34.3125 83.355469 34.3125 83.359375 C 34.3125 83.359375 34.3125 83.371094 34.316406 83.390625 C 34.335938 83.492188 34.34375 83.589844 34.351562 83.671875 C 34.351562 83.714844 34.355469 83.753906 34.355469 83.789062 C 34.355469 83.808594 34.355469 83.828125 34.351562 83.859375 C 34.351562 83.875 34.351562 83.890625 34.347656 83.921875 M 34.46875 83.335938 C 34.714844 83.550781 34.738281 83.917969 34.527344 84.160156 C 34.316406 84.402344 33.945312 84.425781 33.703125 84.214844 C 33.675781 84.191406 33.789062 84.273438 33.773438 84.265625 C 33.761719 84.257812 33.789062 84.273438 33.777344 84.269531 C 33.492188 84.121094 33.378906 83.765625 33.527344 83.480469 C 33.675781 83.195312 34.027344 83.085938 34.3125 83.234375 C 34.320312 83.238281 34.386719 83.261719 34.46875 83.335938 M 33.464844 83.722656 C 33.488281 83.402344 33.765625 83.160156 34.085938 83.183594 C 34.410156 83.203125 34.652344 83.480469 34.628906 83.804688 C 34.625 83.859375 34.617188 83.890625 34.609375 83.921875 C 34.597656 83.976562 34.597656 84.011719 34.535156 84.121094 C 34.375 84.402344 34.019531 84.503906 33.738281 84.34375 C 33.460938 84.1875 33.359375 83.832031 33.519531 83.550781 C 33.546875 83.5 33.480469 83.640625 33.484375 83.628906 C 33.488281 83.617188 33.472656 83.664062 33.476562 83.65625 C 33.476562 83.644531 33.464844 83.765625 33.464844 83.722656 M 34.265625 83.304688 C 34.558594 83.4375 34.6875 83.785156 34.550781 84.078125 C 34.417969 84.371094 34.074219 84.5 33.78125 84.367188 C 33.761719 84.355469 33.746094 84.347656 33.734375 84.34375 C 33.691406 84.320312 33.671875 84.304688 33.652344 84.289062 C 33.617188 84.261719 33.585938 84.234375 33.550781 84.203125 C 33.476562 84.132812 33.394531 84.046875 33.316406 83.9375 C 33.28125 83.890625 33.363281 83.957031 33.308594 83.914062 C 33.292969 83.902344 33.421875 83.984375 33.386719 83.964844 C 33.347656 83.945312 33.613281 84.023438 33.546875 84.011719 C 33.476562 84.003906 33.832031 83.972656 33.761719 83.996094 C 33.691406 84.015625 33.96875 83.878906 33.925781 83.910156 C 33.878906 83.949219 34.03125 83.796875 34.015625 83.816406 C 33.980469 83.867188 34.035156 83.792969 34.007812 83.84375 C 33.863281 84.132812 33.511719 84.246094 33.222656 84.101562 C 32.9375 83.957031 32.824219 83.605469 32.96875 83.316406 C 32.996094 83.265625 32.980469 83.171875 33.203125 82.996094 C 33.320312 82.902344 33.519531 82.835938 33.695312 82.855469 C 33.863281 82.878906 33.972656 82.953125 34.042969 83.007812 C 34.171875 83.113281 34.21875 83.195312 34.261719 83.257812 C 34.285156 83.292969 34.320312 83.328125 34.34375 83.347656 C 34.351562 83.355469 34.34375 83.351562 34.351562 83.355469 C 34.355469 83.359375 34.273438 83.308594 34.304688 83.328125 C 34.316406 83.332031 34.246094 83.296875 34.265625 83.304688 "/>
<path style=" stroke:none;fill-rule:nonzero;fill:rgb(7.058716%,1.176453%,46.665955%);fill-opacity:1;" d="M 42.136719 38.214844 C 42.121094 38.535156 41.84375 38.78125 41.523438 38.765625 C 41.203125 38.746094 40.957031 38.472656 40.972656 38.152344 C 40.976562 38.09375 40.972656 38.070312 40.972656 38.066406 C 40.972656 38.0625 40.996094 38.140625 40.984375 38.113281 C 40.976562 38.082031 41.101562 38.296875 41.058594 38.242188 C 41.011719 38.183594 41.351562 38.433594 41.265625 38.394531 C 41.175781 38.359375 41.574219 38.425781 41.507812 38.433594 C 41.449219 38.4375 41.664062 38.386719 41.636719 38.398438 C 41.609375 38.410156 41.691406 38.371094 41.683594 38.375 C 41.683594 38.375 41.441406 38.621094 41.167969 38.929688 C 40.710938 39.445312 40.050781 39.882812 39.261719 40.449219 C 38.238281 41.183594 36.933594 42.011719 35.453125 42.878906 C 34.558594 43.402344 33.621094 43.90625 32.71875 44.386719 C 32.027344 44.757812 31.351562 45.089844 30.761719 45.398438 C 29.703125 45.957031 28.941406 46.480469 28.414062 46.871094 C 28.210938 47.019531 28.082031 47.140625 27.964844 47.25 C 27.757812 47.445312 27.5625 47.570312 27.5 47.617188 L 26.789062 46.695312 C 27.101562 46.457031 27.011719 46.585938 27.085938 46.550781 C 27.375 46.414062 27.722656 46.539062 27.859375 46.828125 C 28 47.117188 27.875 47.464844 27.582031 47.605469 C 27.511719 47.640625 27.449219 47.664062 27.40625 47.679688 C 27.386719 47.6875 27.375 47.691406 27.375 47.691406 C 27.371094 47.691406 27.410156 47.675781 27.394531 47.683594 C 27.378906 47.691406 27.550781 47.582031 27.496094 47.621094 C 27.238281 47.816406 26.871094 47.765625 26.679688 47.511719 C 26.484375 47.257812 26.53125 46.894531 26.785156 46.699219 C 26.921875 46.589844 27.042969 46.515625 27.164062 46.402344 C 27.289062 46.285156 27.46875 46.117188 27.722656 45.929688 C 28.277344 45.523438 29.09375 44.957031 30.21875 44.367188 C 30.828125 44.046875 31.496094 43.71875 32.171875 43.355469 C 33.070312 42.878906 33.996094 42.382812 34.863281 41.875 C 36.320312 41.019531 37.601562 40.207031 38.582031 39.5 C 39.378906 38.933594 39.992188 38.5 40.296875 38.15625 C 40.566406 37.851562 40.746094 37.597656 41.042969 37.402344 C 41.121094 37.351562 41.226562 37.289062 41.390625 37.273438 C 41.578125 37.253906 41.84375 37.359375 41.96875 37.515625 C 42.195312 37.796875 42.148438 38.003906 42.136719 38.214844 "/>
<path style=" stroke:none;fill-rule:nonzero;fill:rgb(7.058716%,1.176453%,46.665955%);fill-opacity:1;" d="M 33.359375 173.765625 C 33.359375 173.445312 33.617188 173.183594 33.941406 173.183594 C 34.261719 173.183594 34.523438 173.445312 34.523438 173.765625 L 34.523438 184.464844 C 34.523438 184.785156 34.261719 185.046875 33.941406 185.046875 C 33.617188 185.046875 33.359375 184.785156 33.359375 184.464844 Z M 33.359375 173.765625 "/>
<path style=" stroke:none;fill-rule:nonzero;fill:rgb(7.058716%,1.176453%,46.665955%);fill-opacity:1;" d="M 25.621094 185.765625 C 25.300781 185.765625 25.039062 185.503906 25.039062 185.183594 C 25.039062 184.859375 25.300781 184.597656 25.621094 184.597656 L 42.257812 184.597656 C 42.582031 184.597656 42.839844 184.859375 42.839844 185.183594 C 42.839844 185.503906 42.582031 185.765625 42.257812 185.765625 Z M 25.621094 185.765625 "/>
<path style=" stroke:none;fill-rule:nonzero;fill:rgb(7.058716%,1.176453%,46.665955%);fill-opacity:1;" d="M 28.496094 189.582031 C 28.175781 189.582031 27.914062 189.320312 27.914062 188.996094 C 27.914062 188.675781 28.175781 188.414062 28.496094 188.414062 L 39.667969 188.414062 C 39.988281 188.414062 40.25 188.675781 40.25 188.996094 C 40.25 189.320312 39.988281 189.582031 39.667969 189.582031 Z M 28.496094 189.582031 "/>
<path style=" stroke:none;fill-rule:nonzero;fill:rgb(7.058716%,1.176453%,46.665955%);fill-opacity:1;" d="M 31.695312 193.160156 C 31.375 193.160156 31.113281 192.898438 31.113281 192.574219 C 31.113281 192.253906 31.375 191.992188 31.695312 191.992188 L 36.46875 191.992188 C 36.789062 191.992188 37.050781 192.253906 37.050781 192.574219 C 37.050781 192.898438 36.789062 193.160156 36.46875 193.160156 Z M 31.695312 193.160156 "/>
<path style=" stroke:none;fill-rule:nonzero;fill:rgb(7.058716%,1.176453%,46.665955%);fill-opacity:1;" d="M 33.941406 113.421875 C 33.617188 113.421875 33.359375 113.160156 33.359375 112.835938 C 33.359375 112.515625 33.617188 112.253906 33.941406 112.253906 L 63.53125 112.253906 C 63.855469 112.253906 64.113281 112.515625 64.113281 112.835938 C 64.113281 113.160156 63.855469 113.421875 63.53125 113.421875 Z M 33.941406 113.421875 "/>
<path style=" stroke:none;fill-rule:nonzero;fill:rgb(7.058716%,1.176453%,46.665955%);fill-opacity:1;" d="M 62.949219 112.835938 C 62.949219 112.515625 63.210938 112.253906 63.53125 112.253906 C 63.855469 112.253906 64.113281 112.515625 64.113281 112.835938 L 64.113281 139.070312 C 64.113281 139.394531 63.855469 139.652344 63.53125 139.652344 C 63.210938 139.652344 62.949219 139.394531 62.949219 139.070312 Z M 62.949219 112.835938 "/>
</g>
</svg>
