<?xml version="1.0" encoding="UTF-8"?>
<svg xmlns="http://www.w3.org/2000/svg" xmlns:xlink="http://www.w3.org/1999/xlink" width="180.27488pt" height="312.8869pt" viewBox="0 0 180.27488 312.8869" version="1.2">
<g id="surface1">
<path style=" stroke:none;fill-rule:nonzero;fill:rgb(7.058716%,1.176453%,46.665955%);fill-opacity:1;" d="M 29.511719 147.472656 C 29.511719 147.046875 29.855469 146.699219 30.28125 146.699219 C 30.707031 146.699219 31.050781 147.046875 31.050781 147.472656 L 31.050781 182.871094 C 31.050781 183.296875 30.707031 183.640625 30.28125 183.640625 C 29.855469 183.640625 29.511719 183.296875 29.511719 182.871094 Z M 29.511719 147.472656 "/>
<path style=" stroke:none;fill-rule:nonzero;fill:rgb(7.058716%,1.176453%,46.665955%);fill-opacity:1;" d="M 104.816406 144.546875 C 104.816406 144.121094 105.164062 143.777344 105.589844 143.777344 C 106.015625 143.777344 106.359375 144.121094 106.359375 144.546875 L 106.359375 160.050781 C 106.359375 160.472656 106.015625 160.820312 105.589844 160.820312 C 105.164062 160.820312 104.816406 160.472656 104.816406 160.050781 Z M 104.816406 144.546875 "/>
<path style=" stroke:none;fill-rule:nonzero;fill:rgb(7.058716%,1.176453%,46.665955%);fill-opacity:1;" d="M 104.816406 195.195312 C 104.816406 194.769531 105.164062 194.421875 105.589844 194.421875 C 106.015625 194.421875 106.359375 194.769531 106.359375 195.195312 L 106.359375 211.648438 C 106.359375 212.074219 106.015625 212.417969 105.589844 212.417969 C 105.164062 212.417969 104.816406 212.074219 104.816406 211.648438 Z M 104.816406 195.195312 "/>
<path style=" stroke:none;fill-rule:nonzero;fill:rgb(7.058716%,1.176453%,46.665955%);fill-opacity:1;" d="M 105.328125 159.429688 C 105.671875 159.175781 106.152344 159.25 106.40625 159.589844 C 106.660156 159.933594 106.585938 160.417969 106.242188 160.667969 L 100.957031 164.5625 C 100.617188 164.816406 100.132812 164.742188 99.882812 164.402344 C 99.628906 164.058594 99.703125 163.578125 100.042969 163.324219 Z M 105.328125 159.429688 "/>
<path style=" stroke:none;fill-rule:nonzero;fill:rgb(7.058716%,1.176453%,46.665955%);fill-opacity:1;" d="M 100.105469 164.605469 C 99.738281 164.382812 99.621094 163.910156 99.84375 163.546875 C 100.0625 163.183594 100.535156 163.066406 100.898438 163.285156 L 111.074219 169.414062 C 111.4375 169.632812 111.554688 170.109375 111.335938 170.472656 C 111.117188 170.835938 110.640625 170.953125 110.277344 170.734375 Z M 100.105469 164.605469 "/>
<path style=" stroke:none;fill-rule:nonzero;fill:rgb(7.058716%,1.176453%,46.665955%);fill-opacity:1;" d="M 110.21875 169.453125 C 110.5625 169.203125 111.042969 169.273438 111.296875 169.617188 C 111.546875 169.960938 111.476562 170.441406 111.132812 170.695312 L 100.957031 178.195312 C 100.617188 178.445312 100.132812 178.375 99.882812 178.03125 C 99.628906 177.6875 99.703125 177.207031 100.042969 176.953125 Z M 110.21875 169.453125 "/>
<path style=" stroke:none;fill-rule:nonzero;fill:rgb(7.058716%,1.176453%,46.665955%);fill-opacity:1;" d="M 100.105469 178.234375 C 99.738281 178.015625 99.621094 177.539062 99.84375 177.175781 C 100.0625 176.8125 100.535156 176.695312 100.898438 176.914062 L 111.074219 183.042969 C 111.4375 183.265625 111.554688 183.738281 111.335938 184.101562 C 111.117188 184.464844 110.640625 184.582031 110.277344 184.363281 Z M 100.105469 178.234375 "/>
<path style=" stroke:none;fill-rule:nonzero;fill:rgb(7.058716%,1.176453%,46.665955%);fill-opacity:1;" d="M 110.21875 183.085938 C 110.5625 182.832031 111.042969 182.90625 111.296875 183.246094 C 111.546875 183.589844 111.476562 184.070312 111.132812 184.324219 L 100.957031 191.824219 C 100.617188 192.078125 100.132812 192.003906 99.882812 191.660156 C 99.628906 191.320312 99.703125 190.835938 100.042969 190.582031 Z M 110.21875 183.085938 "/>
<path style=" stroke:none;fill-rule:nonzero;fill:rgb(7.058716%,1.176453%,46.665955%);fill-opacity:1;" d="M 100.027344 191.808594 C 99.691406 191.546875 99.632812 191.0625 99.894531 190.726562 C 100.160156 190.394531 100.640625 190.335938 100.976562 190.597656 L 106.0625 194.585938 C 106.398438 194.851562 106.457031 195.335938 106.195312 195.667969 C 105.933594 196.003906 105.449219 196.0625 105.113281 195.800781 Z M 100.027344 191.808594 "/>
<path style=" stroke:none;fill-rule:nonzero;fill:rgb(7.058716%,1.176453%,46.665955%);fill-opacity:1;" d="M 106.359375 259.996094 C 106.359375 260.421875 106.015625 260.765625 105.589844 260.765625 C 105.164062 260.765625 104.816406 260.421875 104.816406 259.996094 L 104.816406 244.492188 C 104.816406 244.066406 105.164062 243.722656 105.589844 243.722656 C 106.015625 243.722656 106.359375 244.066406 106.359375 244.492188 Z M 106.359375 259.996094 "/>
<path style=" stroke:none;fill-rule:nonzero;fill:rgb(7.058716%,1.176453%,46.665955%);fill-opacity:1;" d="M 106.359375 224.875 C 106.359375 225.300781 106.015625 225.644531 105.589844 225.644531 C 105.164062 225.644531 104.816406 225.300781 104.816406 224.875 L 104.816406 208.421875 C 104.816406 207.996094 105.164062 207.648438 105.589844 207.648438 C 106.015625 207.648438 106.359375 207.996094 106.359375 208.421875 Z M 106.359375 224.875 "/>
<path style=" stroke:none;fill-rule:nonzero;fill:rgb(7.058716%,1.176453%,46.665955%);fill-opacity:1;" d="M 114.78125 243.722656 C 115.207031 243.722656 115.550781 244.066406 115.550781 244.492188 C 115.550781 244.917969 115.207031 245.265625 114.78125 245.265625 L 96.394531 245.265625 C 95.96875 245.265625 95.625 244.917969 95.625 244.492188 C 95.625 244.066406 95.96875 243.722656 96.394531 243.722656 Z M 114.78125 243.722656 "/>
<path style=" stroke:none;fill-rule:nonzero;fill:rgb(7.058716%,1.176453%,46.665955%);fill-opacity:1;" d="M 105.589844 242.679688 L 113.570312 225.644531 L 97.605469 225.644531 Z M 104.890625 244.820312 L 95.695312 225.203125 C 95.457031 224.691406 95.832031 224.105469 96.394531 224.105469 L 114.78125 224.105469 C 115.347656 224.105469 115.71875 224.691406 115.480469 225.203125 L 106.285156 244.820312 C 106.007812 245.410156 105.167969 245.410156 104.890625 244.820312 "/>
<path style=" stroke:none;fill-rule:nonzero;fill:rgb(7.058716%,1.176453%,46.665955%);fill-opacity:1;" d="M 31.050781 259.996094 C 31.050781 260.421875 30.707031 260.765625 30.28125 260.765625 C 29.855469 260.765625 29.511719 260.421875 29.511719 259.996094 L 29.511719 244.492188 C 29.511719 244.066406 29.855469 243.722656 30.28125 243.722656 C 30.707031 243.722656 31.050781 244.066406 31.050781 244.492188 Z M 31.050781 259.996094 "/>
<path style=" stroke:none;fill-rule:nonzero;fill:rgb(7.058716%,1.176453%,46.665955%);fill-opacity:1;" d="M 31.050781 224.875 C 31.050781 225.300781 30.707031 225.644531 30.28125 225.644531 C 29.855469 225.644531 29.511719 225.300781 29.511719 224.875 L 29.511719 208.421875 C 29.511719 207.996094 29.855469 207.648438 30.28125 207.648438 C 30.707031 207.648438 31.050781 207.996094 31.050781 208.421875 Z M 31.050781 224.875 "/>
<path style=" stroke:none;fill-rule:nonzero;fill:rgb(7.058716%,1.176453%,46.665955%);fill-opacity:1;" d="M 39.472656 243.722656 C 39.898438 243.722656 40.246094 244.066406 40.246094 244.492188 C 40.246094 244.917969 39.898438 245.265625 39.472656 245.265625 L 21.085938 245.265625 C 20.660156 245.265625 20.316406 244.917969 20.316406 244.492188 C 20.316406 244.066406 20.660156 243.722656 21.085938 243.722656 Z M 39.472656 243.722656 "/>
<path style=" stroke:none;fill-rule:nonzero;fill:rgb(7.058716%,1.176453%,46.665955%);fill-opacity:1;" d="M 30.28125 242.679688 L 38.261719 225.644531 L 22.296875 225.644531 Z M 29.582031 244.820312 L 20.390625 225.203125 C 20.148438 224.691406 20.523438 224.105469 21.085938 224.105469 L 39.472656 224.105469 C 40.039062 224.105469 40.410156 224.691406 40.171875 225.203125 L 30.976562 244.820312 C 30.699219 245.410156 29.859375 245.410156 29.582031 244.820312 "/>
<path style=" stroke:none;fill-rule:nonzero;fill:rgb(7.058716%,1.176453%,46.665955%);fill-opacity:1;" d="M 29.511719 259.027344 C 29.511719 258.601562 29.855469 258.253906 30.28125 258.253906 C 30.707031 258.253906 31.050781 258.601562 31.050781 259.027344 L 31.050781 269.796875 C 31.050781 270.222656 30.707031 270.566406 30.28125 270.566406 C 29.855469 270.566406 29.511719 270.222656 29.511719 269.796875 Z M 29.511719 259.027344 "/>
<path style=" stroke:none;fill-rule:nonzero;fill:rgb(7.058716%,1.176453%,46.665955%);fill-opacity:1;" d="M 21.90625 271.292969 C 21.480469 271.292969 21.132812 270.945312 21.132812 270.519531 C 21.132812 270.097656 21.480469 269.75 21.90625 269.75 L 38.65625 269.75 C 39.082031 269.75 39.425781 270.097656 39.425781 270.519531 C 39.425781 270.945312 39.082031 271.292969 38.65625 271.292969 Z M 21.90625 271.292969 "/>
<path style=" stroke:none;fill-rule:nonzero;fill:rgb(7.058716%,1.176453%,46.665955%);fill-opacity:1;" d="M 24.796875 275.132812 C 24.371094 275.132812 24.027344 274.789062 24.027344 274.363281 C 24.027344 273.9375 24.371094 273.59375 24.796875 273.59375 L 36.046875 273.59375 C 36.472656 273.59375 36.816406 273.9375 36.816406 274.363281 C 36.816406 274.789062 36.472656 275.132812 36.046875 275.132812 Z M 24.796875 275.132812 "/>
<path style=" stroke:none;fill-rule:nonzero;fill:rgb(7.058716%,1.176453%,46.665955%);fill-opacity:1;" d="M 28.019531 278.738281 C 27.59375 278.738281 27.25 278.390625 27.25 277.964844 C 27.25 277.542969 27.59375 277.195312 28.019531 277.195312 L 32.824219 277.195312 C 33.25 277.195312 33.597656 277.542969 33.597656 277.964844 C 33.597656 278.390625 33.25 278.738281 32.824219 278.738281 Z M 28.019531 278.738281 "/>
<path style=" stroke:none;fill-rule:nonzero;fill:rgb(7.058716%,1.176453%,46.665955%);fill-opacity:1;" d="M 104.816406 259.027344 C 104.816406 258.601562 105.164062 258.253906 105.589844 258.253906 C 106.015625 258.253906 106.359375 258.601562 106.359375 259.027344 L 106.359375 269.796875 C 106.359375 270.222656 106.015625 270.566406 105.589844 270.566406 C 105.164062 270.566406 104.816406 270.222656 104.816406 269.796875 Z M 104.816406 259.027344 "/>
<path style=" stroke:none;fill-rule:nonzero;fill:rgb(7.058716%,1.176453%,46.665955%);fill-opacity:1;" d="M 97.210938 271.292969 C 96.785156 271.292969 96.441406 270.945312 96.441406 270.519531 C 96.441406 270.097656 96.785156 269.75 97.210938 269.75 L 113.964844 269.75 C 114.390625 269.75 114.734375 270.097656 114.734375 270.519531 C 114.734375 270.945312 114.390625 271.292969 113.964844 271.292969 Z M 97.210938 271.292969 "/>
<path style=" stroke:none;fill-rule:nonzero;fill:rgb(7.058716%,1.176453%,46.665955%);fill-opacity:1;" d="M 100.105469 275.132812 C 99.679688 275.132812 99.335938 274.789062 99.335938 274.363281 C 99.335938 273.9375 99.679688 273.59375 100.105469 273.59375 L 111.355469 273.59375 C 111.78125 273.59375 112.125 273.9375 112.125 274.363281 C 112.125 274.789062 111.78125 275.132812 111.355469 275.132812 Z M 100.105469 275.132812 "/>
<path style=" stroke:none;fill-rule:nonzero;fill:rgb(7.058716%,1.176453%,46.665955%);fill-opacity:1;" d="M 103.328125 278.738281 C 102.902344 278.738281 102.558594 278.390625 102.558594 277.964844 C 102.558594 277.542969 102.902344 277.195312 103.328125 277.195312 L 108.132812 277.195312 C 108.558594 277.195312 108.902344 277.542969 108.902344 277.964844 C 108.902344 278.390625 108.558594 278.738281 108.132812 278.738281 Z M 103.328125 278.738281 "/>
<path style=" stroke:none;fill-rule:nonzero;fill:rgb(7.058716%,1.176453%,46.665955%);fill-opacity:1;" d="M 29.511719 182.871094 C 29.511719 182.445312 29.855469 182.101562 30.28125 182.101562 C 30.707031 182.101562 31.050781 182.445312 31.050781 182.871094 L 31.050781 211.371094 C 31.050781 211.796875 30.707031 212.140625 30.28125 212.140625 C 29.855469 212.140625 29.511719 211.796875 29.511719 211.371094 Z M 29.511719 182.871094 "/>
<path style=" stroke:none;fill-rule:nonzero;fill:rgb(7.058716%,1.176453%,46.665955%);fill-opacity:1;" d="M 30.28125 147.59375 C 29.855469 147.59375 29.511719 147.25 29.511719 146.824219 C 29.511719 146.398438 29.855469 146.054688 30.28125 146.054688 L 58.515625 146.054688 C 58.941406 146.054688 59.289062 146.398438 59.289062 146.824219 C 59.289062 147.25 58.941406 147.59375 58.515625 147.59375 Z M 30.28125 147.59375 "/>
<path style=" stroke:none;fill-rule:nonzero;fill:rgb(7.058716%,1.176453%,46.665955%);fill-opacity:1;" d="M 78.238281 147.59375 C 77.8125 147.59375 77.46875 147.25 77.46875 146.824219 C 77.46875 146.398438 77.8125 146.054688 78.238281 146.054688 L 105.589844 146.054688 C 106.015625 146.054688 106.359375 146.398438 106.359375 146.824219 C 106.359375 147.25 106.015625 147.59375 105.589844 147.59375 Z M 78.238281 147.59375 "/>
<path style=" stroke:none;fill-rule:nonzero;fill:rgb(7.058716%,1.176453%,46.665955%);fill-opacity:1;" d="M 105.589844 56.324219 C 106.015625 56.324219 106.359375 56.671875 106.359375 57.097656 C 106.359375 57.519531 106.015625 57.867188 105.589844 57.867188 L 91.453125 57.867188 C 91.027344 57.867188 90.683594 57.519531 90.683594 57.097656 C 90.683594 56.671875 91.027344 56.324219 91.453125 56.324219 Z M 105.589844 56.324219 "/>
<path style=" stroke:none;fill-rule:nonzero;fill:rgb(7.058716%,1.176453%,46.665955%);fill-opacity:1;" d="M 90.683594 57.097656 C 90.683594 56.671875 91.027344 56.324219 91.453125 56.324219 C 91.878906 56.324219 92.222656 56.671875 92.222656 57.097656 L 92.222656 81.5625 C 92.222656 81.988281 91.878906 82.332031 91.453125 82.332031 C 91.027344 82.332031 90.683594 81.988281 90.683594 81.5625 Z M 90.683594 57.097656 "/>
<path style=" stroke:none;fill-rule:nonzero;fill:rgb(7.058716%,1.176453%,46.665955%);fill-opacity:1;" d="M 91.453125 82.332031 C 91.027344 82.332031 90.683594 81.988281 90.683594 81.5625 C 90.683594 81.136719 91.027344 80.792969 91.453125 80.792969 L 105.589844 80.792969 C 106.015625 80.792969 106.359375 81.136719 106.359375 81.5625 C 106.359375 81.988281 106.015625 82.332031 105.589844 82.332031 Z M 91.453125 82.332031 "/>
<path style=" stroke:none;fill-rule:nonzero;fill:rgb(7.058716%,1.176453%,46.665955%);fill-opacity:1;" d="M 104.816406 81.5625 C 104.816406 81.136719 105.164062 80.792969 105.589844 80.792969 C 106.015625 80.792969 106.359375 81.136719 106.359375 81.5625 L 106.359375 102.597656 C 106.359375 103.023438 106.015625 103.367188 105.589844 103.367188 C 105.164062 103.367188 104.816406 103.023438 104.816406 102.597656 Z M 104.816406 81.5625 "/>
<path style=" stroke:none;fill-rule:nonzero;fill:rgb(7.058716%,1.176453%,46.665955%);fill-opacity:1;" d="M 87.085938 58.066406 C 87.085938 57.640625 87.433594 57.296875 87.859375 57.296875 C 88.28125 57.296875 88.628906 57.640625 88.628906 58.066406 L 88.628906 80.59375 C 88.628906 81.019531 88.28125 81.363281 87.859375 81.363281 C 87.433594 81.363281 87.085938 81.019531 87.085938 80.59375 Z M 87.085938 58.066406 "/>
<path style=" stroke:none;fill-rule:nonzero;fill:rgb(7.058716%,1.176453%,46.665955%);fill-opacity:1;" d="M 68.519531 70.101562 C 68.097656 70.101562 67.75 69.753906 67.75 69.328125 C 67.75 68.902344 68.097656 68.558594 68.519531 68.558594 L 87.859375 68.558594 C 88.28125 68.558594 88.628906 68.902344 88.628906 69.328125 C 88.628906 69.753906 88.28125 70.101562 87.859375 70.101562 Z M 68.519531 70.101562 "/>
<path style=" stroke:none;fill-rule:nonzero;fill:rgb(7.058716%,1.176453%,46.665955%);fill-opacity:1;" d="M 104.816406 36.0625 C 104.816406 35.636719 105.164062 35.289062 105.589844 35.289062 C 106.015625 35.289062 106.359375 35.636719 106.359375 36.0625 L 106.359375 57.097656 C 106.359375 57.519531 106.015625 57.867188 105.589844 57.867188 C 105.164062 57.867188 104.816406 57.519531 104.816406 57.097656 Z M 104.816406 36.0625 "/>
<path style=" stroke:none;fill-rule:nonzero;fill:rgb(7.058716%,1.176453%,46.665955%);fill-opacity:1;" d="M 98.703125 60.742188 C 98.703125 61.167969 98.359375 61.511719 97.933594 61.511719 C 97.507812 61.511719 97.164062 61.167969 97.164062 60.742188 L 97.164062 53.449219 C 97.164062 53.023438 97.507812 52.679688 97.933594 52.679688 C 98.359375 52.679688 98.703125 53.023438 98.703125 53.449219 Z M 98.703125 60.742188 "/>
<path style=" stroke:none;fill-rule:nonzero;fill:rgb(7.058716%,1.176453%,46.665955%);fill-opacity:1;" d="M 98.394531 60.125 C 98.734375 60.382812 98.804688 60.863281 98.550781 61.203125 C 98.296875 61.546875 97.8125 61.613281 97.472656 61.359375 L 92.601562 57.710938 C 92.261719 57.457031 92.191406 56.976562 92.445312 56.632812 C 92.703125 56.292969 93.183594 56.222656 93.523438 56.480469 Z M 98.394531 60.125 "/>
<path style=" stroke:none;fill-rule:nonzero;fill:rgb(7.058716%,1.176453%,46.665955%);fill-opacity:1;" d="M 96.195312 55.160156 C 96.207031 55.117188 96.21875 55.078125 96.226562 55.042969 C 96.234375 55.003906 96.238281 54.925781 96.304688 54.769531 C 96.328125 54.710938 96.335938 54.636719 96.496094 54.476562 C 96.585938 54.394531 96.664062 54.324219 96.839844 54.277344 C 96.914062 54.253906 96.992188 54.246094 97.070312 54.246094 C 97.175781 54.25 97.285156 54.273438 97.390625 54.324219 C 97.511719 54.382812 97.570312 54.441406 97.609375 54.480469 C 98.023438 54.898438 97.84375 54.925781 97.859375 54.980469 C 97.878906 55.046875 97.921875 55.164062 97.945312 55.339844 C 97.96875 55.53125 97.964844 55.6875 97.96875 55.832031 C 97.96875 55.953125 97.96875 56.082031 97.96875 56.226562 C 97.96875 56.425781 97.96875 56.652344 97.96875 56.878906 C 97.96875 57.234375 97.964844 57.574219 97.96875 57.867188 C 97.96875 58.214844 97.972656 58.511719 97.96875 58.785156 C 97.964844 58.878906 97.960938 58.953125 97.957031 59.003906 C 97.953125 59.132812 97.925781 59.234375 97.902344 59.3125 C 97.878906 59.386719 97.871094 59.410156 97.863281 59.429688 C 97.8125 59.550781 97.738281 59.65625 97.632812 59.742188 C 97.300781 60.011719 96.816406 59.960938 96.550781 59.628906 C 96.453125 59.609375 96.386719 59.605469 96.316406 59.59375 C 96.183594 59.570312 96.070312 59.515625 95.972656 59.4375 C 95.929688 59.46875 95.882812 59.496094 95.832031 59.515625 C 95.734375 59.558594 95.628906 59.582031 95.519531 59.578125 C 95.128906 59.578125 94.792969 59.273438 94.757812 58.875 C 94.441406 58.75 94.160156 58.535156 94.070312 58.214844 C 94.054688 58.164062 94.046875 58.117188 94.042969 58.078125 C 93.800781 57.835938 93.671875 57.546875 93.71875 57.246094 C 93.773438 56.914062 93.808594 56.984375 93.8125 56.980469 C 93.902344 56.773438 93.96875 56.714844 94.003906 56.65625 C 94.058594 56.570312 94.105469 56.507812 94.144531 56.460938 C 94.203125 56.390625 94.179688 56.417969 94.191406 56.402344 C 94.269531 56.3125 94.324219 56.265625 94.390625 56.226562 C 94.515625 56.148438 94.652344 56.109375 94.789062 56.109375 C 94.800781 56.0625 94.808594 55.949219 95.125 55.761719 C 95.25 55.6875 95.382812 55.636719 95.566406 55.621094 C 95.582031 55.59375 95.585938 55.546875 95.703125 55.417969 C 95.714844 55.398438 95.808594 55.1875 96.195312 55.160156 "/>
<path style=" stroke:none;fill-rule:nonzero;fill:rgb(7.058716%,1.176453%,46.665955%);fill-opacity:1;" d="M 97.472656 52.832031 C 97.8125 52.578125 98.296875 52.648438 98.550781 52.988281 C 98.804688 53.328125 98.734375 53.8125 98.394531 54.066406 L 93.523438 57.710938 C 93.183594 57.96875 92.703125 57.898438 92.445312 57.558594 C 92.191406 57.21875 92.261719 56.734375 92.601562 56.480469 Z M 97.472656 52.832031 "/>
<path style=" stroke:none;fill-rule:nonzero;fill:rgb(7.058716%,1.176453%,46.665955%);fill-opacity:1;" d="M 30.28125 82.332031 C 29.855469 82.332031 29.511719 81.988281 29.511719 81.5625 C 29.511719 81.136719 29.855469 80.792969 30.28125 80.792969 L 44.417969 80.792969 C 44.839844 80.792969 45.1875 81.136719 45.1875 81.5625 C 45.1875 81.988281 44.839844 82.332031 44.417969 82.332031 Z M 30.28125 82.332031 "/>
<path style=" stroke:none;fill-rule:nonzero;fill:rgb(7.058716%,1.176453%,46.665955%);fill-opacity:1;" d="M 45.1875 81.5625 C 45.1875 81.988281 44.839844 82.332031 44.417969 82.332031 C 43.992188 82.332031 43.644531 81.988281 43.644531 81.5625 L 43.644531 57.097656 C 43.644531 56.671875 43.992188 56.324219 44.417969 56.324219 C 44.839844 56.324219 45.1875 56.671875 45.1875 57.097656 Z M 45.1875 81.5625 "/>
<path style=" stroke:none;fill-rule:nonzero;fill:rgb(7.058716%,1.176453%,46.665955%);fill-opacity:1;" d="M 44.417969 56.324219 C 44.839844 56.324219 45.1875 56.671875 45.1875 57.097656 C 45.1875 57.519531 44.839844 57.867188 44.417969 57.867188 L 30.28125 57.867188 C 29.855469 57.867188 29.511719 57.519531 29.511719 57.097656 C 29.511719 56.671875 29.855469 56.324219 30.28125 56.324219 Z M 44.417969 56.324219 "/>
<path style=" stroke:none;fill-rule:nonzero;fill:rgb(7.058716%,1.176453%,46.665955%);fill-opacity:1;" d="M 31.050781 57.097656 C 31.050781 57.519531 30.707031 57.867188 30.28125 57.867188 C 29.855469 57.867188 29.511719 57.519531 29.511719 57.097656 L 29.511719 36.0625 C 29.511719 35.636719 29.855469 35.289062 30.28125 35.289062 C 30.707031 35.289062 31.050781 35.636719 31.050781 36.0625 Z M 31.050781 57.097656 "/>
<path style=" stroke:none;fill-rule:nonzero;fill:rgb(7.058716%,1.176453%,46.665955%);fill-opacity:1;" d="M 48.78125 80.59375 C 48.78125 81.019531 48.4375 81.363281 48.011719 81.363281 C 47.585938 81.363281 47.242188 81.019531 47.242188 80.59375 L 47.242188 58.066406 C 47.242188 57.640625 47.585938 57.296875 48.011719 57.296875 C 48.4375 57.296875 48.78125 57.640625 48.78125 58.066406 Z M 48.78125 80.59375 "/>
<path style=" stroke:none;fill-rule:nonzero;fill:rgb(7.058716%,1.176453%,46.665955%);fill-opacity:1;" d="M 67.347656 68.558594 C 67.773438 68.558594 68.117188 68.902344 68.117188 69.328125 C 68.117188 69.753906 67.773438 70.101562 67.347656 70.101562 L 48.011719 70.101562 C 47.585938 70.101562 47.242188 69.753906 47.242188 69.328125 C 47.242188 68.902344 47.585938 68.558594 48.011719 68.558594 Z M 67.347656 68.558594 "/>
<path style=" stroke:none;fill-rule:nonzero;fill:rgb(7.058716%,1.176453%,46.665955%);fill-opacity:1;" d="M 31.050781 102.597656 C 31.050781 103.023438 30.707031 103.367188 30.28125 103.367188 C 29.855469 103.367188 29.511719 103.023438 29.511719 102.597656 L 29.511719 81.5625 C 29.511719 81.136719 29.855469 80.792969 30.28125 80.792969 C 30.707031 80.792969 31.050781 81.136719 31.050781 81.5625 Z M 31.050781 102.597656 "/>
<path style=" stroke:none;fill-rule:nonzero;fill:rgb(7.058716%,1.176453%,46.665955%);fill-opacity:1;" d="M 38.1875 53.449219 C 38.1875 53.023438 38.53125 52.679688 38.957031 52.679688 C 39.382812 52.679688 39.730469 53.023438 39.730469 53.449219 L 39.730469 60.742188 C 39.730469 61.167969 39.382812 61.511719 38.957031 61.511719 C 38.53125 61.511719 38.1875 61.167969 38.1875 60.742188 Z M 38.1875 53.449219 "/>
<path style=" stroke:none;fill-rule:nonzero;fill:rgb(7.058716%,1.176453%,46.665955%);fill-opacity:1;" d="M 38.496094 54.066406 C 38.15625 53.8125 38.085938 53.328125 38.34375 52.988281 C 38.597656 52.648438 39.078125 52.578125 39.421875 52.832031 L 44.289062 56.480469 C 44.632812 56.734375 44.699219 57.21875 44.445312 57.558594 C 44.191406 57.898438 43.707031 57.96875 43.367188 57.710938 Z M 38.496094 54.066406 "/>
<path style=" stroke:none;fill-rule:nonzero;fill:rgb(7.058716%,1.176453%,46.665955%);fill-opacity:1;" d="M 40.691406 59.015625 C 40.683594 59.054688 40.671875 59.09375 40.664062 59.128906 C 40.652344 59.167969 40.648438 59.242188 40.585938 59.402344 C 40.5625 59.457031 40.550781 59.535156 40.394531 59.691406 C 40.304688 59.773438 40.222656 59.847656 40.050781 59.894531 C 39.972656 59.917969 39.894531 59.925781 39.820312 59.925781 C 39.710938 59.921875 39.601562 59.898438 39.5 59.847656 C 39.375 59.789062 39.316406 59.726562 39.277344 59.6875 C 38.867188 59.273438 39.046875 59.242188 39.03125 59.191406 C 39.011719 59.125 38.96875 59.003906 38.945312 58.828125 C 38.917969 58.640625 38.921875 58.480469 38.921875 58.335938 C 38.921875 58.214844 38.921875 58.089844 38.921875 57.945312 C 38.921875 57.746094 38.921875 57.519531 38.921875 57.289062 C 38.921875 56.9375 38.925781 56.597656 38.921875 56.304688 C 38.917969 55.957031 38.917969 55.660156 38.921875 55.382812 C 38.921875 55.292969 38.929688 55.21875 38.929688 55.167969 C 38.9375 55.035156 38.960938 54.933594 38.984375 54.855469 C 39.011719 54.78125 39.019531 54.761719 39.027344 54.738281 C 39.074219 54.621094 39.152344 54.511719 39.257812 54.429688 C 39.585938 54.160156 40.070312 54.210938 40.339844 54.539062 C 40.4375 54.566406 40.507812 54.566406 40.578125 54.578125 C 40.710938 54.601562 40.828125 54.65625 40.921875 54.734375 C 40.976562 54.710938 41.027344 54.679688 41.082031 54.65625 C 41.175781 54.617188 41.28125 54.59375 41.394531 54.59375 C 41.785156 54.597656 42.117188 54.898438 42.152344 55.300781 C 42.15625 55.351562 42.15625 55.386719 42.160156 55.417969 C 42.265625 55.425781 42.375 55.460938 42.476562 55.519531 C 42.550781 55.5625 42.613281 55.613281 42.667969 55.675781 C 42.746094 55.757812 42.804688 55.863281 42.835938 55.980469 C 42.851562 56.035156 42.859375 56.078125 42.863281 56.117188 C 43.105469 56.359375 43.238281 56.648438 43.1875 56.949219 C 43.132812 57.28125 43.097656 57.210938 43.097656 57.214844 C 43.003906 57.421875 42.941406 57.480469 42.902344 57.539062 C 42.851562 57.625 42.800781 57.6875 42.761719 57.734375 C 42.703125 57.808594 42.730469 57.777344 42.714844 57.792969 C 42.636719 57.882812 42.582031 57.929688 42.515625 57.96875 C 42.390625 58.046875 42.253906 58.085938 42.117188 58.085938 C 42.105469 58.140625 42.0625 58.25 41.785156 58.414062 C 41.65625 58.488281 41.519531 58.539062 41.324219 58.554688 C 41.3125 58.578125 41.308594 58.625 41.191406 58.757812 C 41.179688 58.773438 41.085938 58.988281 40.691406 59.015625 "/>
<path style=" stroke:none;fill-rule:nonzero;fill:rgb(7.058716%,1.176453%,46.665955%);fill-opacity:1;" d="M 39.421875 61.359375 C 39.078125 61.613281 38.597656 61.546875 38.34375 61.203125 C 38.085938 60.863281 38.15625 60.382812 38.496094 60.125 L 43.367188 56.480469 C 43.707031 56.222656 44.191406 56.292969 44.445312 56.632812 C 44.699219 56.976562 44.632812 57.457031 44.289062 57.710938 Z M 39.421875 61.359375 "/>
<path style=" stroke:none;fill-rule:nonzero;fill:rgb(7.058716%,1.176453%,46.665955%);fill-opacity:1;" d="M 25.550781 39.351562 C 25.519531 39.777344 25.148438 40.09375 24.726562 40.066406 C 24.300781 40.035156 23.980469 39.667969 24.011719 39.242188 C 24.019531 39.167969 24.023438 39.449219 24.019531 39.410156 C 24.007812 39.34375 24.054688 39.550781 24.046875 39.527344 C 24.019531 39.445312 24.015625 39.476562 23.964844 39.3125 C 23.792969 38.773438 24 38.453125 24.136719 38.195312 C 24.542969 37.433594 25.242188 37.300781 25.886719 36.945312 C 26.875 36.398438 28.324219 35.53125 29.710938 34.761719 C 30.734375 34.191406 31.574219 33.730469 32.128906 33.40625 C 32.789062 33.023438 33.335938 32.652344 34.230469 32.699219 C 34.65625 32.71875 34.984375 33.078125 34.960938 33.503906 C 34.941406 33.929688 34.578125 34.257812 34.152344 34.238281 C 33.578125 34.207031 33.660156 34.296875 32.90625 34.738281 C 32.320312 35.078125 31.476562 35.539062 30.457031 36.105469 C 29.101562 36.859375 27.660156 37.726562 26.628906 38.292969 C 25.882812 38.707031 25.5 38.914062 25.496094 38.921875 C 25.472656 38.964844 25.457031 39.007812 25.453125 39.023438 C 25.449219 39.027344 25.457031 38.972656 25.453125 39 C 25.453125 39.027344 25.410156 38.78125 25.433594 38.851562 C 25.4375 38.859375 25.441406 38.878906 25.457031 38.910156 C 25.472656 38.945312 25.585938 38.851562 25.550781 39.351562 "/>
<path style=" stroke:none;fill-rule:nonzero;fill:rgb(7.058716%,1.176453%,46.665955%);fill-opacity:1;" d="M 101.789062 37.386719 C 102.214844 37.351562 102.585938 37.664062 102.625 38.089844 C 102.660156 38.511719 102.347656 38.886719 101.921875 38.921875 C 101.769531 38.9375 101.625 38.9375 101.457031 38.90625 C 101.285156 38.867188 101.039062 38.785156 100.859375 38.515625 C 100.675781 38.238281 100.710938 37.882812 100.796875 37.683594 C 100.875 37.503906 100.976562 37.398438 101.074219 37.308594 C 101.523438 36.910156 101.898438 36.90625 102.414062 36.6875 C 102.632812 36.597656 102.894531 36.472656 103.195312 36.324219 C 103.828125 36.011719 104.574219 35.582031 105.316406 35.15625 C 106.03125 34.742188 106.699219 34.347656 107.289062 34.019531 C 107.945312 33.660156 108.472656 33.429688 108.851562 33.257812 C 109.019531 33.179688 109.148438 33.128906 109.230469 33.089844 C 109.28125 33.066406 109.351562 33.007812 109.511719 32.90625 C 109.535156 32.890625 109.53125 32.816406 109.855469 32.714844 C 109.984375 32.675781 110.128906 32.648438 110.316406 32.667969 C 110.511719 32.6875 110.808594 32.792969 110.992188 33.074219 C 111.175781 33.355469 111.148438 33.667969 111.089844 33.871094 C 111.03125 34.070312 110.9375 34.226562 110.820312 34.386719 C 110.574219 34.730469 110.09375 34.8125 109.746094 34.566406 C 109.402344 34.320312 109.320312 33.839844 109.566406 33.492188 C 109.617188 33.421875 109.597656 33.476562 109.613281 33.429688 C 109.621094 33.402344 109.597656 33.679688 109.59375 33.597656 C 109.589844 33.507812 109.765625 34.015625 109.699219 33.910156 C 109.628906 33.800781 110.039062 34.183594 109.953125 34.140625 C 109.871094 34.097656 110.207031 34.207031 110.15625 34.199219 C 110.066406 34.191406 110.328125 34.183594 110.304688 34.191406 C 110.246094 34.207031 110.464844 34.113281 110.4375 34.132812 C 110.371094 34.171875 110.457031 34.128906 110.34375 34.203125 C 110.296875 34.230469 110.136719 34.367188 109.886719 34.484375 C 109.746094 34.550781 109.621094 34.597656 109.492188 34.65625 C 109.097656 34.835938 108.625 35.042969 108.035156 35.371094 C 107.472656 35.679688 106.8125 36.074219 106.082031 36.492188 C 105.339844 36.917969 104.574219 37.359375 103.875 37.707031 C 103.570312 37.855469 103.285156 37.996094 103.011719 38.109375 C 102.710938 38.234375 102.457031 38.328125 102.273438 38.398438 C 102.1875 38.433594 102.121094 38.460938 102.085938 38.480469 C 102.050781 38.496094 102.148438 38.417969 102.101562 38.460938 C 102.09375 38.464844 102.152344 38.398438 102.136719 38.421875 C 102.117188 38.445312 102.230469 38.25 102.207031 38.304688 C 102.179688 38.367188 102.257812 37.921875 102.257812 38.039062 C 102.261719 38.160156 102.070312 37.550781 102.144531 37.664062 C 102.214844 37.773438 101.839844 37.410156 101.910156 37.449219 C 101.976562 37.484375 101.742188 37.390625 101.769531 37.394531 C 101.816406 37.40625 101.738281 37.394531 101.789062 37.386719 "/>
<path style=" stroke:none;fill-rule:nonzero;fill:rgb(7.058716%,1.176453%,46.665955%);fill-opacity:1;" d="M 29.511719 101.453125 C 29.511719 101.027344 29.855469 100.683594 30.28125 100.683594 C 30.707031 100.683594 31.050781 101.027344 31.050781 101.453125 L 31.050781 147.472656 C 31.050781 147.894531 30.707031 148.242188 30.28125 148.242188 C 29.855469 148.242188 29.511719 147.894531 29.511719 147.472656 Z M 29.511719 101.453125 "/>
<path style=" stroke:none;fill-rule:nonzero;fill:rgb(7.058716%,1.176453%,46.665955%);fill-opacity:1;" d="M 104.816406 101.453125 C 104.816406 101.027344 105.164062 100.683594 105.589844 100.683594 C 106.015625 100.683594 106.359375 101.027344 106.359375 101.453125 L 106.359375 147.472656 C 106.359375 147.894531 106.015625 148.242188 105.589844 148.242188 C 105.164062 148.242188 104.816406 147.894531 104.816406 147.472656 Z M 104.816406 101.453125 "/>
<path style=" stroke:none;fill-rule:nonzero;fill:rgb(7.058716%,1.176453%,46.665955%);fill-opacity:1;" d="M 49.929688 126.5 L 86.960938 126.5 L 68.382812 91.351562 Z M 47.976562 126.914062 L 67.695312 89.34375 C 67.984375 88.792969 68.769531 88.792969 69.058594 89.339844 L 88.921875 126.910156 C 89.191406 127.425781 88.820312 128.042969 88.242188 128.042969 L 48.65625 128.042969 C 48.078125 128.042969 47.707031 127.425781 47.976562 126.914062 "/>
<path style=" stroke:none;fill-rule:nonzero;fill:rgb(7.058716%,1.176453%,46.665955%);fill-opacity:1;" d="M 55.601562 121.476562 C 55.332031 121.476562 55.113281 121.261719 55.113281 120.992188 C 55.113281 120.726562 55.332031 120.507812 55.601562 120.507812 L 61.714844 120.507812 C 61.984375 120.507812 62.199219 120.726562 62.199219 120.992188 C 62.199219 121.261719 61.984375 121.476562 61.714844 121.476562 Z M 55.601562 121.476562 "/>
<path style=" stroke:none;fill-rule:nonzero;fill:rgb(7.058716%,1.176453%,46.665955%);fill-opacity:1;" d="M 59.140625 124.078125 C 59.140625 124.34375 58.925781 124.5625 58.65625 124.5625 C 58.390625 124.5625 58.171875 124.34375 58.171875 124.078125 L 58.171875 117.910156 C 58.171875 117.640625 58.390625 117.425781 58.65625 117.425781 C 58.925781 117.425781 59.140625 117.640625 59.140625 117.910156 Z M 59.140625 124.078125 "/>
<path style=" stroke:none;fill-rule:nonzero;fill:rgb(7.058716%,1.176453%,46.665955%);fill-opacity:1;" d="M 78.644531 124.078125 C 78.644531 124.34375 78.429688 124.5625 78.160156 124.5625 C 77.894531 124.5625 77.675781 124.34375 77.675781 124.078125 L 77.675781 117.910156 C 77.675781 117.640625 77.894531 117.425781 78.160156 117.425781 C 78.429688 117.425781 78.644531 117.640625 78.644531 117.910156 Z M 78.644531 124.078125 "/>
<path style=" stroke:none;fill-rule:nonzero;fill:rgb(7.058716%,1.176453%,46.665955%);fill-opacity:1;" d="M 69.148438 89.699219 C 69.148438 90.125 68.804688 90.46875 68.378906 90.46875 C 67.953125 90.46875 67.609375 90.125 67.609375 89.699219 L 67.609375 69.976562 C 67.609375 69.550781 67.953125 69.203125 68.378906 69.203125 C 68.804688 69.203125 69.148438 69.550781 69.148438 69.976562 Z M 69.148438 89.699219 "/>
<path style=" stroke:none;fill-rule:nonzero;fill:rgb(7.058716%,1.176453%,46.665955%);fill-opacity:1;" d="M 57.746094 127.101562 C 57.746094 126.675781 58.089844 126.328125 58.515625 126.328125 C 58.941406 126.328125 59.289062 126.675781 59.289062 127.101562 L 59.289062 146.824219 C 59.289062 147.25 58.941406 147.59375 58.515625 147.59375 C 58.089844 147.59375 57.746094 147.25 57.746094 146.824219 Z M 57.746094 127.101562 "/>
<path style=" stroke:none;fill-rule:nonzero;fill:rgb(7.058716%,1.176453%,46.665955%);fill-opacity:1;" d="M 77.46875 127.101562 C 77.46875 126.675781 77.8125 126.328125 78.238281 126.328125 C 78.664062 126.328125 79.007812 126.675781 79.007812 127.101562 L 79.007812 146.824219 C 79.007812 147.25 78.664062 147.59375 78.238281 147.59375 C 77.8125 147.59375 77.46875 147.25 77.46875 146.824219 Z M 77.46875 127.101562 "/>
<path style=" stroke:none;fill-rule:nonzero;fill:rgb(0%,45.097351%,23.136902%);fill-opacity:1;" d="M 55.246094 230.417969 C 55.582031 230.878906 55.476562 231.519531 55.019531 231.851562 C 54.558594 232.1875 53.917969 232.082031 53.582031 231.625 C 53.554688 231.582031 53.777344 231.828125 53.71875 231.769531 C 53.652344 231.710938 54.113281 231.996094 53.992188 231.945312 C 53.867188 231.890625 54.578125 232.015625 54.425781 232.019531 C 54.269531 232.027344 54.933594 231.859375 54.828125 231.914062 C 54.722656 231.96875 55.117188 231.695312 55.0625 231.75 C 54.984375 231.824219 55.238281 231.523438 55.210938 231.566406 C 55.183594 231.609375 55.269531 231.453125 55.257812 231.472656 C 55.226562 231.554688 55.269531 231.449219 55.257812 231.539062 C 55.210938 231.820312 55.191406 232.265625 55.195312 232.863281 C 55.203125 233.898438 55.199219 235.417969 55.195312 236.945312 C 55.191406 238.046875 55.199219 238.972656 55.148438 239.722656 C 55.125 240.082031 55.09375 240.398438 55.007812 240.710938 C 54.960938 240.871094 54.90625 241.039062 54.789062 241.222656 C 54.664062 241.417969 54.4375 241.652344 54.101562 241.753906 C 53.5625 241.921875 52.984375 241.621094 52.816406 241.078125 C 52.648438 240.539062 52.953125 239.960938 53.492188 239.792969 C 53.613281 239.757812 53.125 240.019531 53.195312 239.957031 C 53.265625 239.898438 53.03125 240.15625 53.058594 240.113281 C 53.101562 240.046875 53.019531 240.195312 53.027344 240.167969 C 53.046875 240.089844 53.078125 239.875 53.097656 239.585938 C 53.140625 238.957031 53.136719 238.042969 53.140625 236.941406 C 53.144531 235.414062 53.148438 233.898438 53.140625 232.878906 C 53.136719 232.230469 53.148438 231.691406 53.230469 231.203125 C 53.257812 231.039062 53.277344 230.882812 53.375 230.65625 C 53.433594 230.523438 53.476562 230.296875 53.902344 230.082031 C 54.140625 229.960938 54.519531 229.9375 54.789062 230.050781 C 55.039062 230.15625 55.167969 230.308594 55.246094 230.417969 "/>
<path style=" stroke:none;fill-rule:nonzero;fill:rgb(0%,45.097351%,23.136902%);fill-opacity:1;" d="M 63.566406 231.132812 C 63.644531 231.695312 63.25 232.210938 62.6875 232.289062 C 62.125 232.363281 61.609375 231.96875 61.53125 231.410156 C 61.488281 231.09375 61.523438 231 61.523438 230.855469 C 61.523438 230.847656 61.515625 230.796875 61.507812 230.761719 C 61.503906 230.746094 61.507812 230.757812 61.503906 230.75 C 61.5 230.742188 61.539062 230.820312 61.527344 230.792969 C 61.511719 230.765625 61.691406 231.007812 61.628906 230.9375 L 63.1875 229.601562 C 63.480469 229.949219 63.429688 230.136719 63.433594 230.242188 C 63.441406 230.332031 63.4375 230.394531 63.433594 230.449219 C 63.425781 230.554688 63.414062 230.648438 63.402344 230.742188 C 63.378906 230.929688 63.355469 231.125 63.351562 231.242188 C 63.347656 231.480469 63.351562 231.664062 63.429688 232.058594 C 63.542969 232.613281 63.183594 233.15625 62.625 233.265625 C 62.070312 233.378906 61.527344 233.019531 61.417969 232.460938 C 61.308594 231.925781 61.292969 231.515625 61.296875 231.207031 C 61.304688 230.921875 61.339844 230.675781 61.363281 230.484375 C 61.375 230.394531 61.382812 230.328125 61.382812 230.304688 C 61.382812 230.296875 61.386719 230.414062 61.386719 230.359375 C 61.382812 230.328125 61.429688 230.597656 61.410156 230.519531 C 61.398438 230.476562 61.492188 230.742188 61.464844 230.679688 C 61.433594 230.609375 61.6875 231.007812 61.613281 230.917969 C 61.25 230.484375 61.304688 229.835938 61.742188 229.472656 C 62.167969 229.113281 62.804688 229.164062 63.171875 229.582031 C 63.648438 230.125 63.578125 230.363281 63.578125 230.851562 C 63.578125 230.957031 63.574219 231.050781 63.574219 231.121094 C 63.574219 231.183594 63.554688 231.03125 63.566406 231.132812 "/>
<path style=" stroke:none;fill-rule:nonzero;fill:rgb(0%,45.097351%,23.136902%);fill-opacity:1;" d="M 61.597656 237.738281 C 61.542969 237.175781 61.953125 236.671875 62.519531 236.617188 C 63.082031 236.558594 63.585938 236.972656 63.640625 237.535156 C 63.71875 238.320312 63.375 238.820312 63.199219 239.242188 C 63.054688 239.589844 62.941406 239.960938 62.9375 240.078125 C 62.9375 240.097656 62.921875 240.023438 62.933594 240.058594 C 62.941406 240.097656 62.78125 239.796875 62.839844 239.871094 C 62.898438 239.945312 62.5625 239.671875 62.628906 239.699219 C 62.6875 239.726562 62.535156 239.671875 62.546875 239.675781 C 63.113281 239.703125 63.550781 240.183594 63.523438 240.75 C 63.496094 241.316406 63.015625 241.753906 62.449219 241.726562 C 62.015625 241.707031 61.511719 241.515625 61.210938 241.125 C 60.917969 240.742188 60.871094 240.324219 60.886719 239.992188 C 60.910156 239.367188 61.132812 238.867188 61.300781 238.453125 C 61.527344 237.914062 61.597656 237.75 61.597656 237.738281 "/>
<path style=" stroke:none;fill-rule:nonzero;fill:rgb(0%,45.097351%,23.136902%);fill-opacity:1;" d="M 69.289062 239.054688 C 69.855469 239.046875 70.320312 239.503906 70.328125 240.070312 C 70.332031 240.636719 69.878906 241.101562 69.308594 241.109375 C 69.074219 241.109375 68.796875 241.070312 68.523438 240.910156 C 68.246094 240.75 68.027344 240.460938 67.929688 240.175781 C 67.75 239.628906 67.882812 239.1875 68.050781 238.769531 C 68.453125 237.746094 69.265625 236.710938 69.949219 235.445312 C 70.335938 234.726562 70.6875 233.96875 70.9375 233.238281 C 71.300781 232.164062 71.316406 230.988281 71.28125 230.097656 C 71.265625 229.71875 71.226562 229.433594 71.199219 229.3125 C 71.191406 229.269531 71.183594 229.242188 71.183594 229.234375 C 71.179688 229.226562 71.261719 229.414062 71.21875 229.328125 C 71.203125 229.292969 71.300781 229.464844 71.269531 229.421875 C 71.242188 229.375 71.496094 229.679688 71.421875 229.605469 C 71.378906 229.5625 71.695312 229.800781 71.609375 229.75 C 71.515625 229.691406 72.167969 229.902344 72 229.882812 C 71.4375 229.8125 71.039062 229.296875 71.109375 228.734375 C 71.179688 228.171875 71.691406 227.773438 72.253906 227.84375 C 72.589844 227.886719 72.757812 228.039062 72.851562 228.128906 C 73.007812 228.28125 73.046875 228.382812 73.078125 228.453125 C 73.179688 228.667969 73.183594 228.753906 73.210938 228.882812 C 73.269531 229.164062 73.316406 229.539062 73.332031 230.019531 C 73.371094 231.007812 73.378906 232.433594 72.882812 233.894531 C 72.585938 234.769531 72.1875 235.625 71.757812 236.421875 C 70.996094 237.824219 70.179688 238.964844 69.960938 239.519531 C 69.921875 239.617188 69.910156 239.683594 69.90625 239.695312 C 69.90625 239.699219 69.839844 239.40625 69.878906 239.523438 C 69.921875 239.652344 69.417969 239.054688 69.5625 239.140625 C 69.636719 239.179688 69.328125 239.054688 69.375 239.066406 C 69.421875 239.074219 69.277344 239.054688 69.289062 239.054688 M 71.875 227.867188 C 72.425781 227.726562 72.984375 228.0625 73.121094 228.613281 C 73.261719 229.160156 72.925781 229.71875 72.375 229.859375 C 72.316406 229.875 72.605469 229.773438 72.550781 229.796875 C 72.308594 229.878906 72.796875 229.644531 72.714844 229.703125 C 72.601562 229.785156 73.003906 229.398438 72.953125 229.46875 C 72.90625 229.53125 73.070312 229.257812 73.046875 229.304688 C 72.984375 229.4375 73.113281 229.101562 73.105469 229.136719 C 73.074219 229.265625 73.109375 229.144531 73.113281 229.304688 C 73.117188 229.480469 73.128906 229.703125 73.132812 229.949219 C 73.152344 231.125 73.039062 232.421875 73.199219 233.789062 C 73.347656 235.03125 73.703125 236.453125 74.128906 237.417969 C 74.269531 237.730469 74.394531 237.933594 74.445312 237.984375 C 74.492188 238.03125 74.394531 237.945312 74.398438 237.945312 C 74.492188 237.9375 74.148438 238.039062 74.183594 238.015625 C 74.210938 237.996094 74.171875 238.03125 74.199219 237.988281 C 74.273438 237.894531 74.382812 237.683594 74.492188 237.425781 C 74.789062 236.738281 75.066406 236 75.320312 234.929688 C 75.445312 234.402344 75.578125 233.792969 75.703125 233.089844 C 75.886719 232.039062 76.023438 230.773438 76.21875 229.574219 C 76.410156 228.414062 76.660156 227.445312 76.9375 226.726562 C 77.109375 226.289062 77.296875 225.953125 77.597656 225.675781 C 77.773438 225.511719 78.132812 225.246094 78.664062 225.367188 C 78.921875 225.421875 79.144531 225.582031 79.277344 225.738281 C 79.402344 225.886719 79.460938 226.019531 79.503906 226.136719 C 79.785156 226.917969 79.589844 227.496094 79.59375 227.578125 C 79.613281 228.144531 79.167969 228.621094 78.601562 228.640625 C 78.035156 228.660156 77.558594 228.21875 77.539062 227.652344 C 77.523438 227.171875 77.628906 226.988281 77.570312 226.832031 C 77.554688 226.785156 77.804688 227.175781 77.710938 227.066406 C 77.660156 227.011719 78 227.300781 77.914062 227.242188 C 77.824219 227.1875 78.320312 227.394531 78.214844 227.371094 C 78.101562 227.34375 78.640625 227.371094 78.542969 227.382812 C 78.398438 227.402344 78.933594 227.238281 78.863281 227.277344 C 78.796875 227.316406 79.015625 227.160156 78.992188 227.183594 C 78.9375 227.234375 78.9375 227.25 78.855469 227.46875 C 78.648438 227.996094 78.417969 228.863281 78.246094 229.910156 C 78.0625 231.03125 77.925781 232.300781 77.726562 233.449219 C 77.59375 234.195312 77.453125 234.847656 77.320312 235.402344 C 77.035156 236.601562 76.703125 237.484375 76.378906 238.238281 C 76.242188 238.554688 76.089844 238.894531 75.84375 239.222656 C 75.59375 239.558594 75.164062 239.949219 74.546875 239.996094 C 74.046875 240.03125 73.441406 239.898438 72.976562 239.417969 C 72.617188 239.054688 72.429688 238.648438 72.253906 238.25 C 71.707031 237.015625 71.332031 235.46875 71.160156 234.027344 C 70.972656 232.425781 71.097656 231.011719 71.078125 229.980469 C 71.074219 229.566406 70.96875 229.238281 71.109375 228.660156 C 71.121094 228.605469 71.140625 228.53125 71.195312 228.414062 C 71.242188 228.308594 71.375 228.019531 71.828125 227.878906 C 71.753906 227.902344 71.8125 227.882812 71.875 227.867188 "/>
<path style=" stroke:none;fill-rule:nonzero;fill:rgb(0%,45.097351%,23.136902%);fill-opacity:1;" d="M 54.589844 231.734375 C 54.03125 231.839844 53.492188 231.476562 53.382812 230.921875 C 53.277344 230.363281 53.640625 229.824219 54.195312 229.71875 C 54.339844 229.6875 53.722656 229.992188 53.816406 229.90625 C 53.902344 229.828125 53.644531 230.148438 53.664062 230.101562 C 53.695312 230.035156 53.648438 230.144531 53.65625 230.066406 C 53.679688 229.882812 53.671875 229.550781 53.660156 229.207031 C 53.648438 228.90625 53.660156 228.648438 53.660156 228.429688 C 53.660156 228.1875 53.660156 227.960938 53.660156 227.746094 C 53.660156 227.554688 53.667969 227.394531 53.667969 227.296875 C 53.667969 227.253906 53.671875 227.273438 53.667969 227.253906 C 53.667969 227.238281 53.703125 227.410156 53.6875 227.351562 C 53.671875 227.289062 53.925781 227.78125 53.828125 227.648438 C 53.5 227.1875 53.605469 226.546875 54.066406 226.214844 C 54.527344 225.882812 55.167969 225.992188 55.5 226.453125 C 55.890625 227 55.722656 227.152344 55.722656 227.3125 C 55.71875 227.46875 55.714844 227.609375 55.714844 227.738281 C 55.714844 227.964844 55.714844 228.191406 55.714844 228.429688 C 55.714844 228.691406 55.707031 228.921875 55.714844 229.132812 C 55.726562 229.488281 55.746094 229.886719 55.699219 230.300781 C 55.675781 230.511719 55.640625 230.738281 55.511719 231 C 55.375 231.28125 55.050781 231.644531 54.589844 231.734375 M 54.527344 226.03125 C 55.089844 225.957031 55.605469 226.351562 55.679688 226.914062 C 55.753906 227.476562 55.355469 227.992188 54.792969 228.066406 C 54.660156 228.085938 55.128906 227.964844 55.070312 227.992188 C 55.015625 228.015625 55.21875 227.910156 55.191406 227.925781 C 55.109375 227.976562 55.34375 227.808594 55.324219 227.828125 C 55.304688 227.84375 55.355469 227.800781 55.351562 227.800781 C 55.328125 227.824219 55.371094 227.78125 55.359375 227.796875 C 55.328125 227.835938 55.277344 227.90625 55.238281 227.964844 C 55.050781 228.265625 54.808594 228.632812 54.492188 229.078125 C 54.027344 229.734375 53.394531 230.53125 52.84375 231.3125 C 52.285156 232.113281 51.929688 232.769531 51.695312 233.25 C 51.613281 233.414062 51.546875 233.558594 51.476562 233.707031 C 51.375 233.925781 51.269531 234.132812 51.246094 234.1875 C 51.246094 234.1875 51.257812 234.164062 51.25 234.175781 C 51.246094 234.1875 51.308594 233.96875 51.289062 234.054688 C 51.285156 234.074219 51.316406 233.808594 51.3125 233.886719 C 51.308594 233.929688 51.300781 233.652344 51.308594 233.722656 C 51.316406 233.796875 51.175781 233.300781 51.230469 233.425781 C 51.453125 233.945312 51.214844 234.550781 50.691406 234.773438 C 50.171875 234.996094 49.566406 234.757812 49.34375 234.234375 C 49.144531 233.777344 49.265625 233.679688 49.285156 233.605469 C 49.328125 233.417969 49.347656 233.402344 49.363281 233.363281 C 49.4375 233.199219 49.53125 233.019531 49.617188 232.832031 C 49.6875 232.679688 49.761719 232.523438 49.847656 232.347656 C 50.117188 231.796875 50.53125 231.035156 51.160156 230.136719 C 51.753906 229.289062 52.402344 228.472656 52.816406 227.890625 C 53.113281 227.46875 53.335938 227.136719 53.496094 226.875 C 53.585938 226.738281 53.671875 226.617188 53.757812 226.507812 C 53.800781 226.457031 53.84375 226.40625 53.90625 226.34375 C 53.929688 226.316406 53.953125 226.277344 54.113281 226.175781 C 54.179688 226.136719 54.265625 226.0625 54.527344 226.03125 M 50.4375 234.847656 C 49.875 234.929688 49.355469 234.539062 49.273438 233.980469 C 49.191406 233.417969 49.578125 232.898438 50.140625 232.816406 C 50.3125 232.789062 49.71875 232.972656 49.792969 232.929688 C 49.894531 232.875 49.574219 233.09375 49.609375 233.0625 C 49.644531 233.03125 49.527344 233.144531 49.542969 233.128906 C 49.648438 233.019531 49.488281 233.191406 49.496094 233.179688 C 49.511719 233.164062 49.535156 233.128906 49.566406 233.078125 C 49.875 232.601562 50.511719 232.46875 50.988281 232.777344 C 51.460938 233.089844 51.597656 233.726562 51.285156 234.199219 C 51.210938 234.316406 51.21875 234.351562 51.03125 234.542969 C 51 234.578125 51.046875 234.757812 50.4375 234.847656 "/>
<path style=" stroke:none;fill-rule:nonzero;fill:rgb(92.941284%,21.176147%,14.117432%);fill-opacity:1;" d="M 121.21875 54.5625 C 121.21875 54.238281 121.480469 53.976562 121.804688 53.976562 C 122.128906 53.976562 122.394531 54.238281 122.394531 54.5625 L 122.394531 76.917969 C 122.394531 77.242188 122.128906 77.503906 121.804688 77.503906 C 121.480469 77.503906 121.21875 77.242188 121.21875 76.917969 Z M 121.21875 54.5625 "/>
<path style=" stroke:none;fill-rule:nonzero;fill:rgb(92.941284%,21.176147%,14.117432%);fill-opacity:1;" d="M 121.609375 75.773438 L 124.136719 72.777344 L 119.074219 72.90625 Z M 121.179688 77.058594 L 117.359375 72.742188 C 117.027344 72.367188 117.285156 71.777344 117.785156 71.765625 L 125.414062 71.570312 C 125.921875 71.554688 126.203125 72.148438 125.878906 72.535156 L 122.066406 77.050781 C 121.835938 77.324219 121.417969 77.328125 121.179688 77.058594 "/>
<path style=" stroke:none;fill-rule:nonzero;fill:rgb(92.941284%,21.176147%,14.117432%);fill-opacity:1;" d="M 121.074219 75.257812 C 120.761719 75.351562 120.433594 75.175781 120.339844 74.863281 C 120.246094 74.554688 120.421875 74.226562 120.734375 74.132812 C 120.738281 74.132812 120.722656 74.136719 120.722656 74.136719 C 120.730469 74.132812 120.675781 74.160156 120.695312 74.148438 C 120.738281 74.125 120.523438 74.320312 120.566406 74.265625 C 120.609375 74.207031 120.472656 74.640625 120.476562 74.527344 C 120.480469 74.410156 120.570312 74.859375 120.539062 74.800781 C 120.507812 74.746094 120.625 74.917969 120.609375 74.898438 C 120.582031 74.871094 120.632812 74.921875 120.617188 74.910156 C 120.578125 74.882812 120.488281 74.832031 120.386719 74.761719 C 120.226562 74.660156 120.050781 74.535156 119.875 74.40625 C 119.726562 74.300781 119.59375 74.191406 119.476562 74.089844 C 119.246094 73.902344 119.054688 73.71875 119.007812 73.675781 C 118.886719 73.570312 118.894531 73.550781 118.863281 73.511719 C 118.667969 73.253906 118.71875 72.886719 118.976562 72.691406 C 119.234375 72.492188 119.601562 72.542969 119.796875 72.800781 C 119.800781 72.804688 119.839844 72.851562 119.894531 72.921875 C 119.960938 73 120.03125 73.089844 120.109375 73.183594 C 120.332031 73.453125 120.605469 73.75 120.890625 74.023438 C 121.011719 74.140625 121.140625 74.25 121.265625 74.355469 C 121.386719 74.457031 121.503906 74.542969 121.558594 74.578125 C 121.59375 74.601562 121.625 74.621094 121.636719 74.628906 C 121.640625 74.632812 121.625 74.621094 121.632812 74.628906 C 121.644531 74.632812 121.425781 74.558594 121.515625 74.582031 L 121.230469 75.71875 C 120.84375 75.625 120.929688 75.542969 120.910156 75.515625 C 120.859375 75.457031 120.839844 75.433594 120.8125 75.40625 C 120.726562 75.320312 120.617188 75.210938 120.5 75.089844 C 120.34375 74.933594 120.195312 74.765625 120.042969 74.601562 C 119.855469 74.398438 119.648438 74.183594 119.457031 73.976562 C 119.359375 73.867188 119.261719 73.765625 119.183594 73.671875 C 119.117188 73.597656 119.066406 73.546875 119.007812 73.433594 C 118.988281 73.402344 118.964844 73.363281 118.941406 73.261719 C 118.941406 73.257812 118.941406 73.253906 118.9375 73.246094 C 118.878906 72.929688 119.085938 72.621094 119.40625 72.5625 C 119.722656 72.5 120.03125 72.710938 120.09375 73.027344 C 120.09375 73.03125 120.085938 73.007812 120.089844 73.011719 C 120.109375 73.109375 120.023438 72.851562 120.035156 72.871094 C 120.066406 72.925781 120.027344 72.855469 120.066406 72.898438 C 120.132812 72.972656 120.222656 73.070312 120.320312 73.179688 C 120.5 73.375 120.707031 73.589844 120.910156 73.808594 C 121.066406 73.980469 121.207031 74.140625 121.332031 74.265625 C 121.449219 74.382812 121.558594 74.492188 121.636719 74.570312 C 121.703125 74.632812 121.75 74.691406 121.78125 74.730469 C 121.796875 74.746094 121.796875 74.75 121.800781 74.753906 C 121.804688 74.757812 121.75 74.703125 121.769531 74.722656 C 121.78125 74.734375 121.679688 74.652344 121.710938 74.671875 C 121.726562 74.683594 121.613281 74.617188 121.644531 74.632812 C 121.675781 74.648438 121.457031 74.566406 121.515625 74.582031 C 121.828125 74.660156 122.019531 74.980469 121.941406 75.292969 C 121.863281 75.609375 121.542969 75.800781 121.230469 75.71875 C 120.921875 75.644531 120.980469 75.601562 120.925781 75.566406 C 120.804688 75.488281 120.667969 75.382812 120.515625 75.257812 C 120.375 75.140625 120.222656 75.011719 120.078125 74.871094 C 119.757812 74.566406 119.457031 74.238281 119.207031 73.933594 C 119.109375 73.820312 119.03125 73.71875 118.992188 73.667969 C 118.9375 73.605469 118.902344 73.566406 118.863281 73.511719 L 119.796875 72.800781 C 119.832031 72.84375 119.828125 72.847656 119.832031 72.851562 C 119.839844 72.859375 119.742188 72.761719 119.777344 72.789062 C 119.886719 72.886719 120.03125 73.03125 120.21875 73.183594 C 120.335938 73.28125 120.453125 73.375 120.5625 73.457031 C 120.730469 73.578125 120.894531 73.691406 121.03125 73.785156 C 121.105469 73.832031 121.191406 73.882812 121.285156 73.945312 C 121.335938 73.980469 121.390625 74.019531 121.457031 74.085938 C 121.527344 74.164062 121.65625 74.300781 121.648438 74.570312 C 121.636719 74.882812 121.449219 75.070312 121.273438 75.171875 C 121.210938 75.207031 121.160156 75.226562 121.121094 75.238281 C 121.101562 75.246094 121.085938 75.25 121.074219 75.257812 M 119.371094 73.699219 C 119.054688 73.613281 118.871094 73.292969 118.953125 72.980469 C 119.039062 72.667969 119.359375 72.480469 119.671875 72.5625 C 119.738281 72.582031 119.773438 72.601562 119.800781 72.617188 C 119.851562 72.640625 119.878906 72.664062 119.902344 72.679688 C 120.050781 72.792969 120.160156 72.914062 120.300781 73.054688 C 120.589844 73.339844 120.921875 73.679688 121.238281 73.96875 C 121.355469 74.074219 121.476562 74.171875 121.582031 74.253906 C 121.695312 74.339844 121.761719 74.375 121.773438 74.378906 C 121.792969 74.386719 121.636719 74.359375 121.679688 74.363281 C 121.726562 74.363281 121.449219 74.40625 121.511719 74.386719 C 121.578125 74.363281 121.269531 74.554688 121.324219 74.5 C 121.378906 74.449219 121.191406 74.722656 121.214844 74.667969 C 121.242188 74.589844 121.183594 74.871094 121.183594 74.835938 C 121.179688 74.792969 121.1875 74.882812 121.183594 74.867188 C 121.179688 74.851562 121.167969 74.824219 121.148438 74.789062 C 121.109375 74.714844 120.984375 74.558594 120.839844 74.390625 C 120.765625 74.304688 120.703125 74.226562 120.644531 74.164062 C 120.578125 74.085938 120.523438 74.023438 120.484375 73.988281 C 120.445312 73.949219 120.4375 73.9375 120.425781 73.929688 C 120.417969 73.925781 120.484375 73.964844 120.460938 73.953125 C 120.4375 73.9375 120.667969 74.027344 120.59375 74.007812 C 120.535156 73.992188 120.960938 73.992188 120.847656 74.015625 C 120.527344 74.078125 120.21875 73.871094 120.160156 73.550781 C 120.097656 73.234375 120.304688 72.925781 120.621094 72.863281 C 120.738281 72.839844 120.828125 72.855469 120.894531 72.871094 C 121.050781 72.914062 121.09375 72.960938 121.136719 72.992188 C 121.210938 73.050781 121.257812 73.101562 121.308594 73.148438 C 121.390625 73.226562 121.460938 73.308594 121.527344 73.386719 C 121.601562 73.472656 121.667969 73.550781 121.730469 73.625 C 121.875 73.792969 122.058594 73.984375 122.195312 74.257812 C 122.296875 74.457031 122.476562 74.664062 122.304688 75.097656 C 122.238281 75.265625 122.074219 75.4375 121.882812 75.5 C 121.699219 75.5625 121.53125 75.535156 121.402344 75.492188 C 121.199219 75.425781 121.042969 75.320312 120.867188 75.1875 C 120.734375 75.082031 120.59375 74.964844 120.453125 74.835938 C 120.097656 74.515625 119.753906 74.164062 119.476562 73.890625 C 119.328125 73.746094 119.195312 73.617188 119.191406 73.613281 C 119.183594 73.609375 119.292969 73.675781 119.253906 73.652344 C 119.230469 73.640625 119.429688 73.714844 119.371094 73.699219 M 120.257812 73.09375 C 120.449219 72.832031 120.816406 72.777344 121.078125 72.972656 C 121.335938 73.164062 121.394531 73.53125 121.199219 73.792969 C 121.140625 73.871094 121.3125 73.519531 121.296875 73.578125 C 121.277344 73.671875 121.296875 73.351562 121.304688 73.386719 C 121.3125 73.429688 121.289062 73.339844 121.296875 73.351562 C 121.300781 73.367188 121.316406 73.394531 121.335938 73.425781 C 121.390625 73.527344 121.484375 73.667969 121.578125 73.820312 C 121.671875 73.972656 121.796875 74.144531 121.917969 74.308594 C 122.0625 74.5 122.191406 74.65625 122.273438 74.730469 C 122.316406 74.769531 122.3125 74.769531 122.328125 74.78125 C 122.339844 74.785156 122.160156 74.730469 122.222656 74.742188 C 122.257812 74.75 122.039062 74.738281 122.09375 74.734375 C 122.148438 74.730469 121.84375 74.8125 121.910156 74.78125 C 122.015625 74.734375 121.640625 75.039062 121.683594 74.972656 C 121.722656 74.914062 121.605469 75.152344 121.617188 75.117188 C 121.632812 75.054688 121.601562 75.210938 121.601562 75.207031 C 121.601562 75.203125 121.597656 75.167969 121.589844 75.125 C 121.582031 75.054688 121.425781 74.71875 121.230469 74.429688 C 121.136719 74.289062 121.03125 74.15625 120.9375 74.039062 C 120.878906 73.960938 120.824219 73.898438 120.789062 73.855469 C 120.773438 73.839844 120.769531 73.835938 120.765625 73.832031 C 120.761719 73.828125 120.875 73.917969 120.824219 73.878906 C 120.5625 73.691406 120.503906 73.324219 120.695312 73.0625 C 120.882812 72.796875 121.25 72.738281 121.511719 72.929688 C 121.570312 72.972656 121.582031 72.988281 121.597656 73.003906 C 121.628906 73.03125 121.648438 73.058594 121.675781 73.085938 C 121.726562 73.144531 121.789062 73.21875 121.855469 73.308594 C 121.957031 73.433594 122.082031 73.59375 122.203125 73.773438 C 122.441406 74.125 122.683594 74.492188 122.753906 74.953125 C 122.765625 75.027344 122.777344 75.113281 122.773438 75.222656 C 122.773438 75.28125 122.773438 75.347656 122.742188 75.441406 C 122.710938 75.550781 122.636719 75.738281 122.402344 75.847656 C 122.25 75.917969 122.09375 75.914062 121.988281 75.894531 C 121.886719 75.871094 121.8125 75.835938 121.753906 75.804688 C 121.636719 75.738281 121.554688 75.664062 121.46875 75.585938 C 121.300781 75.425781 121.144531 75.230469 120.976562 75.011719 C 120.847656 74.835938 120.707031 74.644531 120.578125 74.4375 C 120.492188 74.296875 120.398438 74.152344 120.316406 74.007812 C 120.230469 73.863281 120.054688 73.761719 120.152344 73.320312 C 120.167969 73.257812 120.195312 73.175781 120.257812 73.09375 M 120.585938 73.5 C 120.535156 73.179688 120.75 72.878906 121.070312 72.824219 C 121.390625 72.773438 121.691406 72.992188 121.746094 73.3125 C 121.757812 73.402344 121.6875 73.144531 121.699219 73.164062 C 121.730469 73.230469 121.804688 73.304688 121.988281 73.519531 C 122.113281 73.671875 122.25 73.828125 122.375 73.953125 C 122.457031 74.039062 122.519531 74.109375 122.554688 74.140625 C 122.566406 74.152344 122.511719 74.113281 122.539062 74.132812 C 122.558594 74.144531 122.402344 74.074219 122.449219 74.089844 C 122.5 74.105469 122.136719 74.078125 122.230469 74.066406 C 122.472656 74.042969 122.582031 74.132812 122.617188 74.152344 C 122.628906 74.160156 122.574219 74.132812 122.601562 74.144531 C 122.617188 74.152344 122.496094 74.105469 122.53125 74.117188 C 122.566406 74.128906 122.308594 74.089844 122.375 74.089844 C 122.699219 74.097656 122.957031 74.367188 122.949219 74.691406 C 122.941406 75.015625 122.675781 75.273438 122.351562 75.265625 C 122.082031 75.257812 122.042969 75.175781 122.042969 75.175781 C 122.039062 75.171875 122.15625 75.222656 122.109375 75.207031 C 122.058594 75.1875 122.464844 75.222656 122.355469 75.234375 C 122.136719 75.257812 122.007812 75.183594 121.925781 75.132812 C 121.847656 75.085938 121.800781 75.042969 121.757812 75 C 121.671875 74.921875 121.601562 74.84375 121.523438 74.765625 C 121.382812 74.617188 121.230469 74.445312 121.085938 74.269531 C 120.976562 74.144531 120.882812 74.03125 120.808594 73.929688 C 120.734375 73.835938 120.644531 73.855469 120.585938 73.5 M 122.945312 74.769531 C 122.886719 75.089844 122.585938 75.300781 122.265625 75.246094 C 121.945312 75.191406 121.730469 74.886719 121.789062 74.566406 C 121.789062 74.5625 121.785156 74.582031 121.785156 74.578125 C 121.789062 74.554688 121.785156 74.605469 121.785156 74.605469 C 121.785156 74.601562 121.785156 74.59375 121.785156 74.589844 C 121.78125 74.535156 121.792969 74.648438 121.789062 74.636719 C 121.769531 74.582031 121.6875 74.429688 121.597656 74.265625 C 121.535156 74.15625 121.46875 74.046875 121.410156 73.949219 C 121.371094 73.882812 121.335938 73.824219 121.308594 73.777344 C 121.296875 73.757812 121.289062 73.742188 121.273438 73.710938 C 121.269531 73.707031 121.265625 73.703125 121.265625 73.695312 C 121.125 73.40625 121.246094 73.054688 121.535156 72.914062 C 121.828125 72.769531 122.179688 72.894531 122.320312 73.183594 C 122.324219 73.1875 122.316406 73.171875 122.316406 73.175781 C 122.324219 73.191406 122.316406 73.171875 122.324219 73.1875 C 122.34375 73.222656 122.375 73.277344 122.417969 73.34375 C 122.472656 73.4375 122.546875 73.558594 122.625 73.695312 C 122.746094 73.910156 122.933594 74.09375 122.957031 74.527344 C 122.957031 74.578125 122.957031 74.621094 122.957031 74.667969 C 122.953125 74.691406 122.953125 74.714844 122.945312 74.753906 C 122.945312 74.757812 122.945312 74.765625 122.945312 74.769531 M 121.335938 73.804688 C 121.132812 73.554688 121.175781 73.183594 121.425781 72.980469 C 121.679688 72.777344 122.050781 72.820312 122.253906 73.070312 C 122.339844 73.179688 122.375 73.253906 122.488281 73.425781 C 122.59375 73.578125 122.726562 73.769531 122.851562 73.933594 C 122.941406 74.054688 122.976562 74.101562 123.003906 74.121094 C 123.03125 74.140625 122.730469 74.015625 122.828125 74.039062 C 122.882812 74.054688 122.554688 74.042969 122.628906 74.03125 C 122.707031 74.019531 122.332031 74.160156 122.402344 74.117188 C 122.46875 74.074219 122.21875 74.304688 122.253906 74.257812 C 122.285156 74.214844 122.179688 74.40625 122.191406 74.375 C 122.210938 74.316406 122.164062 74.5 122.164062 74.484375 C 122.167969 74.449219 122.167969 74.371094 122.160156 74.296875 C 122.152344 74.238281 122.09375 74.09375 122.042969 73.898438 C 122.019531 73.8125 122 73.726562 122 73.605469 C 121.996094 73.542969 121.996094 73.460938 122.039062 73.34375 C 122.085938 73.214844 122.230469 73.03125 122.4375 72.964844 C 122.703125 72.882812 122.859375 72.980469 122.941406 73.023438 C 123.015625 73.066406 123.054688 73.101562 123.089844 73.132812 C 123.152344 73.1875 123.195312 73.230469 123.21875 73.25 C 123.316406 73.339844 123.414062 73.425781 123.453125 73.453125 C 123.472656 73.46875 123.28125 73.382812 123.339844 73.398438 C 123.398438 73.417969 123.003906 73.417969 123.097656 73.394531 C 123.191406 73.371094 122.800781 73.59375 122.859375 73.535156 C 122.910156 73.476562 122.75 73.722656 122.765625 73.683594 C 122.777344 73.644531 122.753906 73.730469 122.753906 73.722656 C 122.757812 73.675781 122.742188 73.519531 122.730469 73.335938 C 122.722656 73.199219 122.722656 73.066406 122.722656 72.945312 C 122.722656 72.816406 122.632812 72.652344 122.859375 72.316406 C 122.988281 72.128906 123.1875 72.0625 123.304688 72.046875 C 123.414062 72.03125 123.488281 72.039062 123.546875 72.050781 C 123.65625 72.066406 123.726562 72.089844 123.765625 72.101562 C 123.898438 72.140625 123.980469 72.203125 124.011719 72.222656 C 124.015625 72.226562 124.003906 72.214844 124.007812 72.222656 C 124.019531 72.226562 123.910156 72.167969 123.945312 72.1875 C 124.242188 72.324219 124.367188 72.671875 124.230469 72.964844 C 124.09375 73.261719 123.746094 73.386719 123.449219 73.25 C 123.367188 73.210938 123.351562 73.191406 123.339844 73.1875 C 123.335938 73.183594 123.375 73.203125 123.359375 73.195312 C 123.339844 73.1875 123.476562 73.242188 123.441406 73.230469 C 123.390625 73.214844 123.375 73.210938 123.367188 73.207031 C 123.355469 73.207031 123.539062 73.199219 123.472656 73.207031 C 123.433594 73.214844 123.691406 73.125 123.628906 73.15625 C 123.558594 73.191406 123.886719 72.898438 123.828125 72.980469 C 123.785156 73.042969 123.898438 72.8125 123.890625 72.84375 C 123.878906 72.90625 123.898438 72.847656 123.894531 72.957031 C 123.894531 73.046875 123.898438 73.15625 123.90625 73.269531 C 123.914062 73.460938 124.007812 73.691406 123.871094 74.074219 C 123.808594 74.25 123.636719 74.472656 123.375 74.535156 C 123.121094 74.597656 122.90625 74.503906 122.769531 74.410156 C 122.632812 74.308594 122.527344 74.207031 122.4375 74.128906 C 122.378906 74.074219 122.335938 74.03125 122.320312 74.019531 C 122.316406 74.015625 122.402344 74.070312 122.363281 74.046875 C 122.335938 74.03125 122.546875 74.109375 122.484375 74.09375 C 122.449219 74.085938 122.660156 74.113281 122.609375 74.113281 C 122.558594 74.109375 122.851562 74.066406 122.785156 74.085938 C 122.695312 74.113281 123.09375 73.863281 123.03125 73.929688 C 122.972656 73.996094 123.160156 73.703125 123.140625 73.753906 C 123.105469 73.84375 123.171875 73.558594 123.171875 73.585938 C 123.171875 73.625 123.171875 73.566406 123.179688 73.601562 C 123.199219 73.683594 123.289062 73.875 123.324219 74.148438 C 123.34375 74.308594 123.34375 74.453125 123.335938 74.578125 C 123.332031 74.636719 123.320312 74.699219 123.289062 74.785156 C 123.257812 74.878906 123.1875 75.003906 123.042969 75.101562 C 122.890625 75.199219 122.6875 75.214844 122.554688 75.183594 C 122.433594 75.152344 122.359375 75.105469 122.304688 75.0625 C 122.132812 74.933594 122.03125 74.800781 121.910156 74.632812 C 121.777344 74.457031 121.632812 74.253906 121.511719 74.074219 C 121.394531 73.894531 121.367188 73.847656 121.335938 73.804688 M 124.132812 73.128906 C 123.90625 73.359375 123.535156 73.363281 123.304688 73.136719 C 123.070312 72.910156 123.066406 72.539062 123.292969 72.308594 C 123.355469 72.242188 123.148438 72.558594 123.167969 72.5 C 123.199219 72.421875 123.132812 72.695312 123.136719 72.664062 C 123.136719 72.632812 123.136719 72.722656 123.136719 72.714844 C 123.136719 72.703125 123.132812 72.695312 123.125 72.621094 C 123.125 72.613281 123.125 72.613281 123.117188 72.554688 C 123.113281 72.519531 123.105469 72.472656 123.125 72.367188 C 123.128906 72.339844 123.136719 72.308594 123.148438 72.269531 C 123.253906 71.964844 123.585938 71.800781 123.894531 71.90625 C 124.199219 72.011719 124.363281 72.34375 124.257812 72.652344 C 124.246094 72.683594 124.285156 72.542969 124.28125 72.566406 C 124.273438 72.613281 124.289062 72.453125 124.289062 72.472656 C 124.289062 72.488281 124.285156 72.4375 124.285156 72.441406 C 124.289062 72.449219 124.292969 72.480469 124.300781 72.554688 C 124.300781 72.582031 124.300781 72.550781 124.304688 72.613281 C 124.3125 72.679688 124.398438 72.859375 124.132812 73.128906 M 123.863281 73.019531 C 123.550781 73.101562 123.230469 72.917969 123.144531 72.605469 C 123.0625 72.289062 123.246094 71.96875 123.5625 71.886719 C 123.804688 71.820312 123.957031 71.90625 124.039062 71.953125 C 124.113281 71.996094 124.15625 72.035156 124.191406 72.066406 C 124.257812 72.132812 124.304688 72.191406 124.351562 72.246094 C 124.441406 72.359375 124.519531 72.472656 124.554688 72.519531 C 124.558594 72.523438 124.523438 72.488281 124.542969 72.507812 C 124.542969 72.507812 124.535156 72.503906 124.539062 72.503906 C 124.78125 72.714844 124.808594 73.085938 124.597656 73.332031 C 124.386719 73.578125 124.015625 73.601562 123.769531 73.390625 C 123.765625 73.386719 123.761719 73.386719 123.761719 73.382812 C 123.714844 73.339844 123.675781 73.300781 123.632812 73.246094 C 123.558594 73.152344 123.492188 73.050781 123.429688 72.976562 C 123.402344 72.941406 123.386719 72.921875 123.382812 72.917969 C 123.378906 72.914062 123.5 72.996094 123.449219 72.96875 C 123.421875 72.953125 123.644531 73.035156 123.578125 73.019531 C 123.511719 73.003906 123.980469 72.988281 123.863281 73.019531 M 124.589844 72.550781 C 124.808594 72.789062 124.792969 73.160156 124.554688 73.378906 C 124.316406 73.597656 123.945312 73.582031 123.722656 73.34375 C 123.71875 73.339844 123.738281 73.355469 123.734375 73.355469 C 123.675781 73.296875 123.613281 73.230469 123.542969 73.160156 C 123.492188 73.113281 123.410156 73.046875 123.324219 72.984375 C 123.242188 72.925781 123.234375 72.917969 123.210938 72.910156 C 123.160156 72.894531 123.515625 72.871094 123.4375 72.902344 C 123.363281 72.925781 123.554688 72.824219 123.550781 72.832031 C 123.507812 72.882812 123.53125 72.910156 123.414062 73.101562 C 123.308594 73.269531 123.1875 73.398438 123.078125 73.503906 C 122.820312 73.746094 122.53125 73.832031 122.308594 73.882812 C 122.050781 73.941406 121.832031 73.925781 121.695312 73.914062 C 121.628906 73.90625 121.582031 73.902344 121.578125 73.898438 C 121.574219 73.898438 121.71875 73.882812 121.671875 73.890625 C 121.578125 73.914062 121.941406 73.753906 121.890625 73.789062 C 121.824219 73.839844 122.015625 73.65625 122 73.679688 C 121.988281 73.695312 122.015625 73.652344 122.015625 73.65625 C 122.003906 73.671875 121.976562 73.75 121.855469 73.851562 C 121.589844 74.078125 121.398438 74.023438 121.289062 74.015625 C 121.277344 74.015625 121.179688 74.042969 120.972656 74.042969 C 120.925781 74.042969 120.832031 74.058594 120.675781 74.050781 C 120.652344 74.050781 120.449219 74.09375 120.179688 73.933594 C 119.777344 73.691406 119.785156 73.429688 119.746094 73.363281 C 119.738281 73.347656 119.714844 73.320312 119.664062 73.257812 C 119.625 73.210938 119.597656 73.179688 119.589844 73.167969 C 119.585938 73.167969 119.632812 73.210938 119.609375 73.191406 C 119.597656 73.179688 119.691406 73.253906 119.664062 73.234375 C 119.636719 73.214844 119.851562 73.320312 119.792969 73.296875 C 119.488281 73.191406 119.324219 72.855469 119.433594 72.550781 C 119.539062 72.246094 119.875 72.082031 120.179688 72.191406 C 120.621094 72.34375 120.519531 72.453125 120.550781 72.488281 C 120.589844 72.535156 120.6875 72.636719 120.773438 72.792969 C 120.828125 72.890625 120.859375 72.964844 120.878906 73 C 120.886719 73.015625 120.875 73 120.882812 73.011719 C 120.894531 73.023438 120.726562 72.890625 120.785156 72.929688 C 120.855469 72.96875 120.621094 72.875 120.636719 72.875 C 120.640625 72.878906 120.667969 72.875 120.742188 72.878906 C 120.75 72.878906 120.828125 72.871094 120.960938 72.871094 C 121 72.871094 121.121094 72.832031 121.351562 72.84375 C 121.363281 72.847656 121.296875 72.851562 121.328125 72.847656 C 121.347656 72.84375 121.207031 72.882812 121.242188 72.871094 C 121.285156 72.855469 121.042969 73.003906 121.097656 72.957031 C 121.144531 72.914062 121 73.066406 121.011719 73.046875 C 121.023438 73.035156 121.003906 73.0625 121.007812 73.054688 C 121.027344 73.023438 121.023438 72.835938 121.414062 72.746094 C 121.625 72.699219 121.75 72.738281 121.792969 72.742188 C 121.894531 72.753906 121.984375 72.753906 122.054688 72.738281 C 122.171875 72.710938 122.25 72.671875 122.269531 72.652344 C 122.335938 72.589844 122.386719 72.527344 122.410156 72.488281 C 122.453125 72.421875 122.480469 72.273438 122.671875 72.054688 C 122.757812 71.957031 122.875 71.855469 123.035156 71.796875 C 123.199219 71.738281 123.394531 71.738281 123.542969 71.785156 C 123.746094 71.84375 123.886719 71.941406 124.019531 72.039062 C 124.121094 72.113281 124.234375 72.199219 124.347656 72.308594 C 124.449219 72.402344 124.53125 72.488281 124.570312 72.53125 C 124.574219 72.535156 124.582031 72.542969 124.589844 72.550781 M 119.40625 72.832031 C 119.359375 72.511719 119.585938 72.214844 119.90625 72.167969 C 120.226562 72.125 120.523438 72.347656 120.570312 72.667969 C 120.574219 72.691406 120.574219 72.710938 120.574219 72.722656 C 120.578125 72.757812 120.578125 72.789062 120.578125 72.820312 C 120.574219 72.882812 120.574219 72.953125 120.535156 73.078125 C 120.4375 73.386719 120.105469 73.558594 119.796875 73.457031 C 119.488281 73.359375 119.320312 73.027344 119.417969 72.71875 C 119.441406 72.648438 119.402344 72.785156 119.402344 72.785156 C 119.402344 72.785156 119.402344 72.8125 119.402344 72.800781 C 119.402344 72.792969 119.410156 72.851562 119.40625 72.832031 M 119.796875 72.34375 C 120.105469 72.246094 120.433594 72.421875 120.527344 72.730469 C 120.625 73.039062 120.453125 73.371094 120.140625 73.464844 C 120.09375 73.480469 120.082031 73.480469 120.082031 73.480469 C 120.078125 73.480469 120.175781 73.449219 120.140625 73.460938 C 120.101562 73.476562 120.394531 73.28125 120.320312 73.351562 C 120.238281 73.425781 120.476562 73.082031 120.457031 73.136719 C 120.4375 73.191406 120.484375 73.003906 120.480469 73.027344 C 120.476562 73.066406 120.480469 72.988281 120.484375 73.003906 C 120.488281 73.046875 120.472656 72.957031 120.476562 72.96875 C 120.5 73.019531 120.59375 73.160156 120.695312 73.289062 C 120.753906 73.367188 120.804688 73.421875 120.820312 73.433594 C 120.839844 73.453125 120.625 73.351562 120.695312 73.371094 C 120.734375 73.382812 120.46875 73.363281 120.535156 73.359375 C 120.609375 73.351562 120.171875 73.535156 120.269531 73.460938 C 120.351562 73.402344 120.070312 73.726562 120.101562 73.664062 C 120.132812 73.605469 120.050781 73.84375 120.058594 73.808594 C 120.066406 73.742188 120.054688 73.929688 120.054688 73.917969 C 120.050781 73.894531 120.050781 73.917969 120.046875 73.890625 C 120.035156 73.847656 120.007812 73.839844 119.980469 73.804688 C 119.78125 73.550781 119.824219 73.179688 120.078125 72.980469 C 120.332031 72.777344 120.699219 72.820312 120.902344 73.074219 C 120.9375 73.121094 121.097656 73.277344 121.179688 73.59375 C 121.195312 73.640625 121.210938 73.703125 121.21875 73.792969 C 121.226562 73.84375 121.230469 73.90625 121.214844 73.996094 C 121.199219 74.097656 121.152344 74.265625 120.976562 74.398438 C 120.75 74.570312 120.53125 74.542969 120.382812 74.503906 C 120.242188 74.464844 120.128906 74.394531 120.03125 74.304688 C 119.921875 74.207031 119.847656 74.109375 119.773438 74.019531 C 119.601562 73.800781 119.359375 73.582031 119.316406 73.121094 C 119.308594 73.070312 119.304688 73.011719 119.3125 72.925781 C 119.320312 72.828125 119.335938 72.664062 119.511719 72.496094 C 119.675781 72.34375 119.785156 72.34375 119.820312 72.335938 C 119.832031 72.332031 119.757812 72.355469 119.796875 72.34375 M 119.972656 73.792969 C 119.78125 73.53125 119.835938 73.164062 120.097656 72.972656 C 120.359375 72.78125 120.726562 72.835938 120.917969 73.097656 C 120.925781 73.105469 120.933594 73.117188 120.941406 73.132812 C 120.964844 73.160156 120.988281 73.199219 121.023438 73.253906 C 121.042969 73.28125 121.164062 73.394531 121.210938 73.671875 C 121.25 73.921875 121.171875 74.035156 121.144531 74.085938 C 121.128906 74.128906 121.167969 73.992188 121.148438 74.058594 C 121.136719 74.121094 121.15625 73.863281 121.160156 73.902344 C 121.167969 73.960938 121.132812 73.789062 121.136719 73.800781 C 121.140625 73.8125 121.132812 73.792969 121.140625 73.804688 C 121.160156 73.839844 121.210938 73.90625 121.277344 74 C 121.328125 74.082031 121.375 74.144531 121.386719 74.160156 C 121.417969 74.195312 121.441406 74.21875 121.449219 74.226562 C 121.453125 74.230469 121.417969 74.203125 121.433594 74.214844 C 121.453125 74.226562 121.246094 74.121094 121.316406 74.148438 C 121.617188 74.265625 121.769531 74.605469 121.652344 74.90625 C 121.535156 75.210938 121.195312 75.359375 120.890625 75.242188 C 120.574219 75.121094 120.574219 75.011719 120.511719 74.9375 C 120.417969 74.832031 120.355469 74.734375 120.296875 74.648438 C 120.269531 74.609375 120.207031 74.53125 120.140625 74.421875 C 120.066406 74.304688 119.925781 74.125 120.011719 73.78125 C 120.039062 73.660156 120.074219 73.605469 120.082031 73.59375 C 120.082031 73.59375 120.054688 73.675781 120.0625 73.640625 C 120.078125 73.597656 120.070312 73.96875 120.050781 73.863281 C 120.042969 73.8125 120.097656 73.976562 120.089844 73.960938 C 120.085938 73.957031 120.078125 73.953125 120.035156 73.882812 C 120.007812 73.84375 119.992188 73.816406 119.980469 73.804688 C 119.976562 73.796875 119.972656 73.792969 119.972656 73.792969 M 121.683594 74.789062 C 121.628906 75.109375 121.328125 75.324219 121.007812 75.273438 C 120.6875 75.21875 120.472656 74.917969 120.527344 74.597656 C 120.53125 74.570312 120.519531 74.65625 120.519531 74.648438 C 120.523438 74.628906 120.519531 74.671875 120.519531 74.667969 C 120.519531 74.660156 120.519531 74.640625 120.515625 74.613281 C 120.511719 74.5625 120.507812 74.492188 120.5 74.464844 C 120.488281 74.398438 120.46875 74.332031 120.480469 74.183594 C 120.488281 74.101562 120.5 73.960938 120.648438 73.800781 C 120.808594 73.628906 121.09375 73.589844 121.242188 73.625 C 121.757812 73.75 121.765625 73.996094 121.875 74.121094 C 121.949219 74.207031 122.015625 74.292969 122.070312 74.378906 C 122.085938 74.402344 122.121094 74.4375 122.175781 74.53125 L 121.15625 75.117188 C 121.128906 75.070312 121.253906 75.242188 121.234375 75.21875 C 121.199219 75.183594 121.308594 75.285156 121.300781 75.277344 C 121.285156 75.265625 121.257812 75.261719 121.15625 75.183594 C 121.125 75.160156 121.097656 75.136719 121.078125 75.117188 C 121.066406 75.109375 121.058594 75.101562 121.050781 75.097656 C 120.804688 74.890625 120.773438 74.519531 120.980469 74.269531 C 121.191406 74.023438 121.5625 73.992188 121.808594 74.203125 C 121.8125 74.203125 121.820312 74.210938 121.828125 74.214844 C 121.839844 74.226562 121.859375 74.242188 121.878906 74.257812 C 121.917969 74.289062 121.949219 74.140625 122.175781 74.53125 C 122.335938 74.8125 122.238281 75.171875 121.957031 75.335938 C 121.675781 75.496094 121.316406 75.398438 121.15625 75.117188 C 121.144531 75.09375 121.132812 75.089844 121.085938 75.015625 C 121.070312 74.988281 121.035156 74.941406 120.992188 74.894531 C 120.929688 74.820312 120.875 74.757812 120.835938 74.71875 C 120.820312 74.703125 120.828125 74.707031 120.820312 74.703125 C 120.8125 74.699219 120.878906 74.738281 120.855469 74.726562 C 120.832031 74.714844 121.019531 74.78125 120.964844 74.765625 C 120.90625 74.753906 121.3125 74.746094 121.210938 74.769531 C 121.105469 74.792969 121.574219 74.527344 121.503906 74.605469 C 121.433594 74.679688 121.644531 74.34375 121.625 74.398438 C 121.609375 74.453125 121.652344 74.257812 121.648438 74.285156 C 121.644531 74.332031 121.648438 74.21875 121.648438 74.222656 C 121.648438 74.222656 121.652344 74.234375 121.65625 74.253906 C 121.675781 74.359375 121.683594 74.453125 121.6875 74.539062 C 121.691406 74.582031 121.691406 74.617188 121.691406 74.65625 C 121.691406 74.675781 121.695312 74.695312 121.691406 74.726562 C 121.691406 74.742188 121.6875 74.757812 121.683594 74.789062 M 121.808594 74.203125 C 122.054688 74.414062 122.078125 74.785156 121.867188 75.03125 C 121.652344 75.273438 121.28125 75.300781 121.039062 75.085938 C 121.007812 75.058594 121.121094 75.144531 121.105469 75.136719 C 121.09375 75.128906 121.121094 75.144531 121.109375 75.136719 C 120.824219 74.988281 120.710938 74.632812 120.859375 74.347656 C 121.011719 74.058594 121.363281 73.949219 121.652344 74.097656 C 121.660156 74.101562 121.722656 74.125 121.808594 74.203125 M 120.796875 74.589844 C 120.820312 74.265625 121.101562 74.023438 121.421875 74.042969 C 121.746094 74.066406 121.992188 74.347656 121.96875 74.671875 C 121.964844 74.726562 121.957031 74.757812 121.949219 74.789062 C 121.9375 74.847656 121.9375 74.882812 121.875 74.992188 C 121.714844 75.273438 121.355469 75.375 121.074219 75.214844 C 120.792969 75.054688 120.691406 74.699219 120.851562 74.414062 C 120.878906 74.367188 120.8125 74.503906 120.816406 74.492188 C 120.820312 74.480469 120.804688 74.53125 120.808594 74.519531 C 120.808594 74.507812 120.792969 74.632812 120.796875 74.589844 M 121.601562 74.167969 C 121.894531 74.304688 122.027344 74.652344 121.890625 74.945312 C 121.757812 75.242188 121.410156 75.371094 121.113281 75.238281 C 121.09375 75.226562 121.078125 75.21875 121.066406 75.214844 C 121.027344 75.191406 121.007812 75.175781 120.988281 75.160156 C 120.949219 75.132812 120.917969 75.105469 120.882812 75.070312 C 120.808594 75.003906 120.726562 74.917969 120.644531 74.804688 C 120.613281 74.757812 120.691406 74.828125 120.640625 74.785156 C 120.621094 74.769531 120.753906 74.851562 120.71875 74.832031 C 120.679688 74.8125 120.945312 74.890625 120.878906 74.882812 C 120.808594 74.875 121.167969 74.84375 121.097656 74.863281 C 121.027344 74.882812 121.300781 74.746094 121.261719 74.777344 C 121.214844 74.816406 121.367188 74.664062 121.351562 74.683594 C 121.316406 74.734375 121.371094 74.660156 121.34375 74.710938 C 121.195312 75 120.84375 75.117188 120.554688 74.96875 C 120.265625 74.824219 120.148438 74.46875 120.296875 74.179688 C 120.324219 74.128906 120.308594 74.035156 120.53125 73.859375 C 120.652344 73.761719 120.851562 73.695312 121.027344 73.71875 C 121.195312 73.738281 121.304688 73.8125 121.378906 73.871094 C 121.507812 73.976562 121.554688 74.058594 121.597656 74.121094 C 121.625 74.15625 121.65625 74.191406 121.679688 74.210938 C 121.691406 74.222656 121.679688 74.214844 121.6875 74.21875 C 121.695312 74.222656 121.609375 74.171875 121.644531 74.191406 C 121.652344 74.195312 121.582031 74.160156 121.601562 74.167969 "/>
<path style=" stroke:none;fill-rule:nonzero;fill:rgb(0%,45.097351%,23.136902%);fill-opacity:1;" d="M 121.773438 177.378906 C 121.890625 177.121094 122.195312 177.007812 122.453125 177.125 C 122.710938 177.242188 122.824219 177.546875 122.707031 177.804688 C 122.585938 178.070312 122.550781 178.367188 122.566406 178.984375 C 122.601562 180.058594 122.816406 181.652344 122.988281 183.179688 C 123.105469 184.261719 123.179688 185.210938 123.207031 185.949219 C 123.21875 186.289062 123.214844 186.570312 123.207031 186.785156 C 123.199219 186.945312 123.289062 187.007812 123.066406 187.304688 C 122.996094 187.40625 122.648438 187.582031 122.410156 187.460938 C 122.226562 187.367188 122.183594 187.25 122.15625 187.183594 C 122.113281 187.082031 122.109375 187.023438 122.101562 186.953125 C 122.039062 186.441406 122.160156 185.746094 122.097656 184.777344 C 122 183.195312 121.332031 180.804688 121.226562 178.46875 C 121.171875 177.285156 121.328125 176.207031 121.726562 175.363281 C 122.058594 174.65625 122.640625 174.199219 123.222656 173.902344 C 124.082031 173.46875 125.066406 173.21875 125.953125 173.324219 C 126.445312 173.382812 126.90625 173.628906 127.199219 174.019531 C 127.5 174.410156 127.648438 174.914062 127.722656 175.492188 C 127.792969 176.078125 127.839844 176.785156 127.753906 177.597656 C 127.660156 178.433594 127.410156 179.324219 127.089844 180.277344 C 126.746094 181.304688 126.34375 182.417969 125.820312 183.445312 C 125.414062 184.25 124.902344 184.941406 124.4375 185.519531 C 123.871094 186.230469 123.28125 186.683594 122.785156 186.929688 C 122.578125 187.035156 122.359375 187.097656 122.128906 187.082031 C 121.898438 187.0625 121.667969 186.941406 121.527344 186.773438 C 121.253906 186.445312 121.25 186.050781 121.3125 185.6875 C 121.460938 184.835938 122.050781 184.089844 122.71875 183.632812 C 123.101562 183.371094 123.570312 183.226562 124.042969 183.28125 C 124.414062 183.324219 124.753906 183.527344 125.058594 183.820312 C 125.679688 184.421875 126.300781 185.324219 126.996094 186.140625 C 127.898438 187.199219 128.808594 187.882812 129.527344 188.0625 C 129.859375 188.144531 130.136719 188.125 130.378906 188.007812 C 130.628906 187.886719 130.878906 187.644531 131.097656 187.234375 C 131.230469 186.984375 131.539062 186.890625 131.792969 187.023438 C 132.042969 187.15625 132.136719 187.46875 132.003906 187.71875 C 131.707031 188.273438 131.308594 188.699219 130.828125 188.933594 C 130.347656 189.164062 129.800781 189.1875 129.277344 189.058594 C 128.21875 188.796875 127.195312 187.960938 126.210938 186.804688 C 125.484375 185.949219 124.847656 185.046875 124.34375 184.558594 C 124.140625 184.359375 124.027344 184.3125 123.929688 184.300781 C 123.738281 184.28125 123.503906 184.34375 123.296875 184.480469 C 122.859375 184.785156 122.40625 185.402344 122.324219 185.867188 C 122.292969 186.042969 122.289062 186.078125 122.316406 186.113281 C 122.339844 186.140625 122.183594 186.054688 122.210938 186.058594 C 122.222656 186.058594 122.238281 186.058594 122.328125 186.011719 C 122.671875 185.839844 123.15625 185.480469 123.636719 184.878906 C 124.078125 184.328125 124.546875 183.691406 124.90625 182.980469 C 125.390625 182.023438 125.78125 180.957031 126.117188 179.949219 C 126.421875 179.03125 126.652344 178.203125 126.730469 177.484375 C 126.808594 176.777344 126.769531 176.15625 126.703125 175.617188 C 126.644531 175.152344 126.527344 174.828125 126.382812 174.640625 C 126.25 174.464844 126.09375 174.375 125.832031 174.34375 C 125.230469 174.273438 124.390625 174.460938 123.6875 174.820312 C 123.238281 175.046875 122.867188 175.351562 122.65625 175.800781 C 122.355469 176.4375 122.203125 177.363281 122.25 178.421875 C 122.351562 180.609375 123.011719 182.953125 123.125 184.710938 C 123.191406 185.773438 123.097656 186.621094 123.121094 186.828125 C 123.121094 186.839844 123.121094 186.839844 123.125 186.839844 C 123.125 186.847656 123.089844 186.75 123.105469 186.785156 C 123.117188 186.8125 123.023438 186.652344 123.054688 186.695312 C 123.085938 186.738281 122.789062 186.5 122.878906 186.546875 C 122.933594 186.574219 122.597656 186.488281 122.675781 186.492188 C 122.734375 186.496094 122.449219 186.527344 122.503906 186.511719 C 122.582031 186.488281 122.277344 186.644531 122.320312 186.609375 C 122.359375 186.574219 122.214844 186.730469 122.234375 186.703125 C 122.277344 186.648438 122.179688 186.804688 122.191406 186.78125 C 122.203125 186.75 122.167969 186.847656 122.171875 186.839844 C 122.171875 186.828125 122.175781 186.808594 122.179688 186.738281 C 122.1875 186.554688 122.191406 186.300781 122.179688 185.984375 C 122.15625 185.28125 122.082031 184.355469 121.964844 183.292969 C 121.796875 181.777344 121.578125 180.183594 121.542969 179.015625 C 121.519531 178.335938 121.566406 177.832031 121.773438 177.378906 "/>
<path style=" stroke:none;fill-rule:nonzero;fill:rgb(0%,45.097351%,23.136902%);fill-opacity:1;" d="M 133.503906 184.105469 C 133.546875 183.828125 133.8125 183.636719 134.089844 183.679688 C 134.371094 183.726562 134.5625 183.988281 134.515625 184.269531 C 134.472656 184.535156 134.539062 184.992188 134.675781 185.710938 C 134.964844 187.222656 135.253906 189.378906 135.53125 191.308594 C 135.664062 192.25 135.785156 193.089844 135.890625 193.714844 C 135.941406 194.007812 135.988281 194.242188 136.023438 194.386719 C 136.039062 194.453125 136.046875 194.476562 136.050781 194.484375 C 136.054688 194.492188 136.027344 194.441406 136.035156 194.457031 C 136.042969 194.46875 135.976562 194.375 135.996094 194.402344 C 136.011719 194.417969 135.894531 194.308594 135.925781 194.332031 C 135.953125 194.351562 135.785156 194.253906 135.828125 194.273438 C 135.894531 194.300781 135.484375 194.234375 135.578125 194.230469 C 135.671875 194.222656 135.277344 194.355469 135.339844 194.3125 C 135.574219 194.152344 135.894531 194.214844 136.050781 194.449219 C 136.210938 194.683594 136.148438 195.003906 135.914062 195.164062 C 135.703125 195.308594 135.339844 195.195312 135.238281 195.09375 C 135.011719 194.863281 135.0625 194.773438 135.027344 194.636719 C 134.980469 194.441406 134.933594 194.191406 134.878906 193.886719 C 134.769531 193.242188 134.648438 192.394531 134.511719 191.457031 C 134.238281 189.523438 133.945312 187.367188 133.667969 185.902344 C 133.527344 185.167969 133.417969 184.625 133.503906 184.105469 "/>
</g>
</svg>
