<?xml version="1.0" encoding="UTF-8"?>
<svg xmlns="http://www.w3.org/2000/svg" xmlns:xlink="http://www.w3.org/1999/xlink" width="152.27884pt" height="136.3638pt" viewBox="0 0 152.27884 136.3638" version="1.2">
<g id="surface1">
<path style=" stroke:none;fill-rule:nonzero;fill:rgb(7.058716%,1.176453%,46.665955%);fill-opacity:1;" d="M 107.898438 36.046875 C 107.898438 35.722656 108.160156 35.460938 108.484375 35.460938 C 108.808594 35.460938 109.070312 35.722656 109.070312 36.046875 L 109.070312 52.863281 C 109.070312 53.1875 108.808594 53.453125 108.484375 53.453125 C 108.160156 53.453125 107.898438 53.1875 107.898438 52.863281 Z M 107.898438 36.046875 "/>
<path style=" stroke:none;fill-rule:nonzero;fill:rgb(7.058716%,1.176453%,46.665955%);fill-opacity:1;" d="M 124.183594 67.734375 C 124.183594 73.433594 121.101562 78.410156 116.511719 81.089844 C 114.226562 82.425781 111.566406 83.191406 108.726562 83.191406 C 103.027344 83.191406 98.050781 80.109375 95.367188 75.523438 C 94.03125 73.234375 93.265625 70.574219 93.265625 67.734375 C 93.265625 62.035156 96.351562 57.058594 100.9375 54.378906 C 103.226562 53.042969 105.886719 52.277344 108.726562 52.277344 C 114.421875 52.277344 119.402344 55.359375 122.082031 59.949219 C 123.417969 62.234375 124.183594 64.894531 124.183594 67.734375 M 123.011719 67.734375 C 123.011719 65.109375 122.304688 62.652344 121.070312 60.539062 C 118.589844 56.296875 113.992188 53.449219 108.726562 53.449219 C 106.101562 53.449219 103.644531 54.15625 101.53125 55.390625 C 97.289062 57.867188 94.441406 62.46875 94.441406 67.734375 C 94.441406 70.359375 95.148438 72.816406 96.382812 74.929688 C 98.859375 79.171875 103.460938 82.019531 108.726562 82.019531 C 111.347656 82.019531 113.808594 81.3125 115.921875 80.078125 C 120.160156 77.601562 123.011719 73 123.011719 67.734375 "/>
<path style=" stroke:none;fill-rule:nonzero;fill:rgb(7.058716%,1.176453%,46.665955%);fill-opacity:1;" d="M 107.800781 82.601562 C 107.800781 82.277344 108.0625 82.015625 108.386719 82.015625 C 108.710938 82.015625 108.972656 82.277344 108.972656 82.601562 L 108.972656 103.707031 C 108.972656 104.03125 108.710938 104.292969 108.386719 104.292969 C 108.0625 104.292969 107.800781 104.03125 107.800781 103.707031 Z M 107.800781 82.601562 "/>
<path style=" stroke:none;fill-rule:nonzero;fill:rgb(7.058716%,1.176453%,46.665955%);fill-opacity:1;" d="M 108.332031 56.566406 C 108.332031 56.242188 108.59375 55.980469 108.917969 55.980469 C 109.242188 55.980469 109.503906 56.242188 109.503906 56.566406 L 109.503906 78.902344 C 109.503906 79.226562 109.242188 79.492188 108.917969 79.492188 C 108.59375 79.492188 108.332031 79.226562 108.332031 78.902344 Z M 108.332031 56.566406 "/>
<path style=" stroke:none;fill-rule:nonzero;fill:rgb(7.058716%,1.176453%,46.665955%);fill-opacity:1;" d="M 108.71875 77.761719 L 111.246094 74.765625 L 106.1875 74.894531 Z M 108.292969 79.046875 L 104.472656 74.730469 C 104.144531 74.355469 104.398438 73.765625 104.898438 73.753906 L 112.523438 73.558594 C 113.027344 73.546875 113.3125 74.136719 112.984375 74.523438 L 109.179688 79.035156 C 108.949219 79.308594 108.527344 79.3125 108.292969 79.046875 "/>
<path style=" stroke:none;fill-rule:nonzero;fill:rgb(7.058716%,1.176453%,46.665955%);fill-opacity:1;" d="M 108.183594 77.242188 C 107.875 77.335938 107.546875 77.160156 107.453125 76.851562 C 107.359375 76.542969 107.535156 76.214844 107.84375 76.121094 C 107.847656 76.121094 107.835938 76.125 107.835938 76.125 C 107.839844 76.121094 107.789062 76.148438 107.808594 76.136719 C 107.851562 76.113281 107.636719 76.308594 107.675781 76.253906 C 107.722656 76.195312 107.582031 76.628906 107.585938 76.515625 C 107.589844 76.398438 107.683594 76.847656 107.648438 76.789062 C 107.621094 76.734375 107.738281 76.90625 107.722656 76.886719 C 107.695312 76.859375 107.746094 76.910156 107.730469 76.898438 C 107.691406 76.871094 107.601562 76.820312 107.5 76.75 C 107.339844 76.644531 107.164062 76.523438 106.988281 76.394531 C 106.839844 76.289062 106.707031 76.179688 106.585938 76.078125 C 106.359375 75.890625 106.167969 75.707031 106.121094 75.667969 C 106 75.558594 106.007812 75.539062 105.976562 75.5 C 105.78125 75.242188 105.832031 74.875 106.089844 74.679688 C 106.347656 74.484375 106.714844 74.53125 106.910156 74.789062 C 106.914062 74.796875 106.953125 74.839844 107.007812 74.910156 C 107.074219 74.988281 107.144531 75.082031 107.222656 75.175781 C 107.441406 75.441406 107.71875 75.738281 108.003906 76.011719 C 108.125 76.128906 108.253906 76.238281 108.375 76.34375 C 108.5 76.445312 108.617188 76.53125 108.671875 76.566406 C 108.707031 76.589844 108.734375 76.609375 108.75 76.617188 C 108.753906 76.621094 108.734375 76.609375 108.746094 76.613281 C 108.757812 76.621094 108.539062 76.546875 108.625 76.570312 L 108.339844 77.707031 C 107.957031 77.609375 108.042969 77.53125 108.019531 77.503906 C 107.96875 77.445312 107.953125 77.417969 107.925781 77.394531 C 107.839844 77.308594 107.730469 77.199219 107.613281 77.078125 C 107.453125 76.921875 107.308594 76.753906 107.15625 76.589844 C 106.96875 76.386719 106.761719 76.171875 106.570312 75.964844 C 106.472656 75.855469 106.375 75.753906 106.296875 75.660156 C 106.230469 75.585938 106.179688 75.535156 106.121094 75.421875 C 106.101562 75.390625 106.078125 75.355469 106.054688 75.25 C 106.054688 75.246094 106.054688 75.242188 106.050781 75.234375 C 105.992188 74.917969 106.199219 74.609375 106.519531 74.550781 C 106.835938 74.488281 107.144531 74.699219 107.203125 75.015625 C 107.207031 75.023438 107.199219 74.996094 107.203125 75 C 107.222656 75.097656 107.136719 74.839844 107.148438 74.859375 C 107.179688 74.914062 107.140625 74.84375 107.179688 74.886719 C 107.242188 74.960938 107.335938 75.0625 107.433594 75.167969 C 107.613281 75.363281 107.820312 75.578125 108.019531 75.796875 C 108.179688 75.96875 108.320312 76.128906 108.445312 76.253906 C 108.5625 76.371094 108.671875 76.480469 108.75 76.558594 C 108.8125 76.621094 108.863281 76.679688 108.894531 76.71875 C 108.90625 76.734375 108.910156 76.738281 108.914062 76.742188 C 108.914062 76.746094 108.859375 76.691406 108.882812 76.710938 C 108.894531 76.722656 108.792969 76.636719 108.824219 76.660156 C 108.839844 76.671875 108.726562 76.605469 108.753906 76.621094 C 108.785156 76.636719 108.566406 76.554688 108.625 76.570312 C 108.941406 76.648438 109.132812 76.96875 109.050781 77.28125 C 108.972656 77.59375 108.65625 77.785156 108.339844 77.707031 C 108.035156 77.628906 108.089844 77.589844 108.035156 77.554688 C 107.914062 77.476562 107.777344 77.371094 107.628906 77.246094 C 107.484375 77.128906 107.335938 76.996094 107.191406 76.859375 C 106.871094 76.550781 106.570312 76.226562 106.320312 75.921875 C 106.222656 75.808594 106.148438 75.707031 106.105469 75.65625 C 106.050781 75.59375 106.015625 75.554688 105.976562 75.5 L 106.910156 74.789062 C 106.945312 74.835938 106.941406 74.835938 106.945312 74.839844 C 106.953125 74.847656 106.855469 74.75 106.890625 74.777344 C 107 74.875 107.144531 75.019531 107.332031 75.175781 C 107.449219 75.269531 107.5625 75.363281 107.675781 75.445312 C 107.84375 75.566406 108.007812 75.683594 108.144531 75.773438 C 108.21875 75.820312 108.304688 75.871094 108.398438 75.933594 C 108.449219 75.96875 108.503906 76.007812 108.566406 76.074219 C 108.640625 76.152344 108.769531 76.289062 108.761719 76.558594 C 108.75 76.871094 108.558594 77.058594 108.386719 77.160156 C 108.324219 77.191406 108.273438 77.214844 108.234375 77.226562 C 108.214844 77.234375 108.199219 77.238281 108.183594 77.242188 M 106.484375 75.6875 C 106.167969 75.601562 105.984375 75.28125 106.066406 74.96875 C 106.152344 74.65625 106.472656 74.46875 106.785156 74.554688 C 106.851562 74.570312 106.886719 74.589844 106.914062 74.605469 C 106.964844 74.632812 106.992188 74.652344 107.015625 74.667969 C 107.164062 74.785156 107.269531 74.902344 107.414062 75.042969 C 107.703125 75.328125 108.03125 75.667969 108.351562 75.957031 C 108.46875 76.0625 108.589844 76.160156 108.695312 76.242188 C 108.804688 76.328125 108.871094 76.363281 108.882812 76.367188 C 108.902344 76.375 108.75 76.347656 108.792969 76.351562 C 108.835938 76.351562 108.5625 76.394531 108.625 76.375 C 108.691406 76.351562 108.382812 76.539062 108.4375 76.488281 C 108.492188 76.4375 108.304688 76.710938 108.324219 76.65625 C 108.355469 76.578125 108.296875 76.855469 108.292969 76.824219 C 108.292969 76.78125 108.300781 76.867188 108.296875 76.855469 C 108.289062 76.839844 108.277344 76.8125 108.261719 76.777344 C 108.222656 76.703125 108.097656 76.546875 107.953125 76.378906 C 107.878906 76.292969 107.816406 76.214844 107.757812 76.152344 C 107.691406 76.074219 107.632812 76.011719 107.597656 75.976562 C 107.558594 75.9375 107.550781 75.925781 107.539062 75.917969 C 107.53125 75.914062 107.59375 75.953125 107.574219 75.941406 C 107.550781 75.925781 107.777344 76.015625 107.707031 75.996094 C 107.648438 75.980469 108.070312 75.980469 107.957031 76.003906 C 107.640625 76.066406 107.332031 75.859375 107.269531 75.539062 C 107.210938 75.222656 107.417969 74.914062 107.734375 74.851562 C 107.851562 74.828125 107.941406 74.84375 108.003906 74.863281 C 108.160156 74.902344 108.203125 74.949219 108.246094 74.984375 C 108.324219 75.042969 108.371094 75.089844 108.417969 75.136719 C 108.5 75.21875 108.570312 75.296875 108.640625 75.375 C 108.714844 75.460938 108.777344 75.539062 108.839844 75.613281 C 108.988281 75.78125 109.167969 75.972656 109.304688 76.246094 C 109.410156 76.445312 109.589844 76.652344 109.417969 77.085938 C 109.351562 77.253906 109.183594 77.421875 108.996094 77.488281 C 108.8125 77.546875 108.644531 77.523438 108.515625 77.480469 C 108.3125 77.414062 108.152344 77.304688 107.980469 77.171875 C 107.847656 77.070312 107.707031 76.953125 107.5625 76.824219 C 107.210938 76.503906 106.867188 76.152344 106.589844 75.878906 C 106.441406 75.734375 106.308594 75.605469 106.304688 75.601562 C 106.296875 75.597656 106.40625 75.664062 106.367188 75.640625 C 106.34375 75.628906 106.542969 75.703125 106.484375 75.6875 M 107.367188 75.082031 C 107.5625 74.824219 107.929688 74.765625 108.1875 74.960938 C 108.449219 75.152344 108.503906 75.519531 108.3125 75.78125 C 108.253906 75.859375 108.421875 75.507812 108.410156 75.566406 C 108.390625 75.660156 108.410156 75.339844 108.414062 75.375 C 108.421875 75.417969 108.402344 75.328125 108.40625 75.339844 C 108.414062 75.355469 108.425781 75.382812 108.445312 75.417969 C 108.503906 75.515625 108.59375 75.65625 108.6875 75.808594 C 108.785156 75.960938 108.90625 76.132812 109.03125 76.296875 C 109.175781 76.488281 109.304688 76.644531 109.386719 76.71875 C 109.425781 76.757812 109.421875 76.757812 109.4375 76.765625 C 109.453125 76.773438 109.273438 76.71875 109.335938 76.730469 C 109.371094 76.738281 109.152344 76.726562 109.203125 76.722656 C 109.261719 76.71875 108.957031 76.800781 109.019531 76.769531 C 109.125 76.71875 108.753906 77.023438 108.796875 76.960938 C 108.835938 76.902344 108.71875 77.136719 108.726562 77.101562 C 108.746094 77.042969 108.710938 77.199219 108.710938 77.195312 C 108.710938 77.191406 108.710938 77.15625 108.703125 77.109375 C 108.691406 77.039062 108.535156 76.707031 108.34375 76.417969 C 108.25 76.277344 108.144531 76.144531 108.050781 76.027344 C 107.988281 75.949219 107.9375 75.886719 107.902344 75.84375 C 107.882812 75.828125 107.882812 75.824219 107.878906 75.820312 C 107.875 75.816406 107.988281 75.90625 107.9375 75.867188 C 107.675781 75.679688 107.617188 75.3125 107.804688 75.050781 C 107.996094 74.789062 108.363281 74.730469 108.625 74.917969 C 108.679688 74.960938 108.695312 74.976562 108.710938 74.992188 C 108.738281 75.023438 108.761719 75.046875 108.785156 75.074219 C 108.835938 75.132812 108.898438 75.210938 108.96875 75.296875 C 109.070312 75.421875 109.195312 75.582031 109.316406 75.761719 C 109.550781 76.113281 109.796875 76.480469 109.863281 76.941406 C 109.875 77.015625 109.886719 77.101562 109.886719 77.210938 C 109.882812 77.265625 109.882812 77.332031 109.855469 77.429688 C 109.824219 77.535156 109.746094 77.726562 109.515625 77.832031 C 109.359375 77.90625 109.207031 77.902344 109.097656 77.878906 C 108.996094 77.859375 108.925781 77.824219 108.863281 77.789062 C 108.75 77.726562 108.664062 77.652344 108.582031 77.574219 C 108.410156 77.414062 108.253906 77.21875 108.089844 77 C 107.960938 76.824219 107.820312 76.632812 107.691406 76.425781 C 107.605469 76.285156 107.511719 76.140625 107.429688 75.996094 C 107.34375 75.851562 107.167969 75.75 107.265625 75.308594 C 107.28125 75.246094 107.308594 75.164062 107.367188 75.082031 M 107.699219 75.488281 C 107.644531 75.167969 107.863281 74.867188 108.183594 74.816406 C 108.503906 74.761719 108.804688 74.980469 108.855469 75.300781 C 108.871094 75.390625 108.800781 75.132812 108.808594 75.152344 C 108.839844 75.21875 108.917969 75.292969 109.097656 75.511719 C 109.222656 75.660156 109.363281 75.816406 109.484375 75.941406 C 109.566406 76.027344 109.632812 76.097656 109.664062 76.128906 C 109.675781 76.140625 109.621094 76.101562 109.652344 76.121094 C 109.667969 76.132812 109.511719 76.0625 109.558594 76.078125 C 109.609375 76.09375 109.246094 76.066406 109.339844 76.054688 C 109.582031 76.03125 109.691406 76.121094 109.726562 76.140625 C 109.742188 76.148438 109.6875 76.121094 109.714844 76.132812 C 109.726562 76.140625 109.605469 76.09375 109.640625 76.105469 C 109.675781 76.117188 109.417969 76.078125 109.488281 76.078125 C 109.808594 76.085938 110.066406 76.355469 110.058594 76.679688 C 110.054688 77.003906 109.785156 77.257812 109.460938 77.253906 C 109.195312 77.246094 109.15625 77.164062 109.152344 77.164062 C 109.148438 77.160156 109.265625 77.210938 109.222656 77.195312 C 109.171875 77.175781 109.578125 77.210938 109.464844 77.222656 C 109.25 77.246094 109.117188 77.171875 109.035156 77.121094 C 108.960938 77.074219 108.910156 77.03125 108.867188 76.988281 C 108.78125 76.910156 108.710938 76.832031 108.636719 76.753906 C 108.496094 76.605469 108.339844 76.433594 108.195312 76.257812 C 108.089844 76.128906 107.996094 76.019531 107.921875 75.917969 C 107.847656 75.824219 107.757812 75.84375 107.699219 75.488281 M 110.054688 76.757812 C 110 77.078125 109.695312 77.289062 109.375 77.234375 C 109.058594 77.179688 108.84375 76.875 108.898438 76.554688 C 108.898438 76.550781 108.898438 76.570312 108.898438 76.566406 C 108.902344 76.542969 108.894531 76.59375 108.894531 76.59375 C 108.894531 76.589844 108.894531 76.578125 108.894531 76.578125 C 108.890625 76.523438 108.90625 76.636719 108.902344 76.625 C 108.882812 76.570312 108.800781 76.414062 108.710938 76.253906 C 108.648438 76.144531 108.582031 76.035156 108.523438 75.9375 C 108.484375 75.871094 108.449219 75.8125 108.421875 75.765625 C 108.410156 75.746094 108.398438 75.730469 108.382812 75.699219 C 108.382812 75.695312 108.378906 75.691406 108.375 75.683594 C 108.234375 75.394531 108.355469 75.042969 108.648438 74.902344 C 108.941406 74.761719 109.289062 74.882812 109.433594 75.175781 C 109.433594 75.179688 109.425781 75.164062 109.425781 75.164062 C 109.433594 75.179688 109.425781 75.164062 109.433594 75.175781 C 109.453125 75.210938 109.488281 75.265625 109.527344 75.332031 C 109.585938 75.425781 109.660156 75.546875 109.734375 75.683594 C 109.855469 75.902344 110.042969 76.082031 110.066406 76.511719 C 110.070312 76.566406 110.070312 76.609375 110.066406 76.65625 C 110.066406 76.679688 110.0625 76.703125 110.058594 76.742188 C 110.058594 76.746094 110.054688 76.75 110.054688 76.757812 M 108.449219 75.792969 C 108.246094 75.542969 108.285156 75.171875 108.539062 74.96875 C 108.792969 74.769531 109.160156 74.808594 109.363281 75.0625 C 109.449219 75.171875 109.488281 75.242188 109.601562 75.414062 C 109.703125 75.570312 109.839844 75.757812 109.960938 75.921875 C 110.050781 76.042969 110.089844 76.089844 110.113281 76.109375 C 110.144531 76.128906 109.839844 76.003906 109.9375 76.027344 C 109.992188 76.042969 109.664062 76.03125 109.742188 76.019531 C 109.820312 76.007812 109.445312 76.148438 109.511719 76.105469 C 109.578125 76.0625 109.332031 76.292969 109.363281 76.246094 C 109.394531 76.203125 109.289062 76.394531 109.300781 76.363281 C 109.324219 76.304688 109.273438 76.488281 109.277344 76.472656 C 109.277344 76.4375 109.28125 76.359375 109.269531 76.285156 C 109.261719 76.226562 109.207031 76.082031 109.15625 75.886719 C 109.132812 75.800781 109.113281 75.714844 109.109375 75.59375 C 109.109375 75.53125 109.109375 75.449219 109.152344 75.332031 C 109.199219 75.207031 109.339844 75.019531 109.546875 74.953125 C 109.8125 74.871094 109.972656 74.96875 110.050781 75.015625 C 110.125 75.054688 110.164062 75.089844 110.199219 75.121094 C 110.261719 75.175781 110.304688 75.21875 110.328125 75.238281 C 110.429688 75.328125 110.523438 75.414062 110.5625 75.441406 C 110.582031 75.457031 110.390625 75.371094 110.449219 75.386719 C 110.507812 75.40625 110.113281 75.40625 110.207031 75.382812 C 110.300781 75.363281 109.910156 75.582031 109.96875 75.523438 C 110.023438 75.464844 109.863281 75.710938 109.875 75.671875 C 109.890625 75.632812 109.863281 75.71875 109.863281 75.710938 C 109.867188 75.667969 109.855469 75.507812 109.84375 75.324219 C 109.835938 75.1875 109.832031 75.054688 109.832031 74.933594 C 109.835938 74.804688 109.742188 74.640625 109.96875 74.308594 C 110.101562 74.117188 110.296875 74.050781 110.414062 74.035156 C 110.523438 74.019531 110.597656 74.03125 110.65625 74.039062 C 110.765625 74.054688 110.839844 74.082031 110.875 74.089844 C 111.007812 74.128906 111.09375 74.191406 111.121094 74.210938 C 111.125 74.214844 111.113281 74.207031 111.121094 74.210938 C 111.128906 74.214844 111.019531 74.160156 111.058594 74.175781 C 111.351562 74.3125 111.476562 74.660156 111.339844 74.957031 C 111.203125 75.25 110.855469 75.375 110.5625 75.238281 C 110.480469 75.199219 110.460938 75.179688 110.453125 75.175781 C 110.445312 75.171875 110.484375 75.195312 110.46875 75.183594 C 110.449219 75.175781 110.589844 75.230469 110.550781 75.21875 C 110.5 75.203125 110.484375 75.199219 110.476562 75.199219 C 110.464844 75.195312 110.652344 75.1875 110.582031 75.195312 C 110.542969 75.203125 110.800781 75.113281 110.738281 75.148438 C 110.667969 75.179688 110.996094 74.886719 110.9375 74.96875 C 110.898438 75.03125 111.007812 74.800781 111.003906 74.832031 C 110.988281 74.894531 111.007812 74.835938 111.003906 74.945312 C 111.003906 75.035156 111.007812 75.144531 111.015625 75.257812 C 111.027344 75.453125 111.117188 75.679688 110.980469 76.0625 C 110.921875 76.238281 110.746094 76.460938 110.484375 76.523438 C 110.230469 76.585938 110.015625 76.492188 109.882812 76.398438 C 109.742188 76.296875 109.636719 76.195312 109.550781 76.117188 C 109.488281 76.0625 109.445312 76.019531 109.429688 76.007812 C 109.425781 76.003906 109.511719 76.058594 109.472656 76.035156 C 109.449219 76.019531 109.660156 76.097656 109.597656 76.082031 C 109.5625 76.074219 109.769531 76.101562 109.722656 76.101562 C 109.667969 76.097656 109.960938 76.054688 109.898438 76.074219 C 109.804688 76.101562 110.203125 75.851562 110.140625 75.917969 C 110.082031 75.984375 110.269531 75.691406 110.25 75.742188 C 110.21875 75.832031 110.28125 75.546875 110.28125 75.574219 C 110.28125 75.613281 110.28125 75.554688 110.289062 75.589844 C 110.3125 75.671875 110.398438 75.863281 110.433594 76.136719 C 110.453125 76.296875 110.457031 76.441406 110.445312 76.566406 C 110.441406 76.621094 110.433594 76.6875 110.402344 76.773438 C 110.367188 76.863281 110.300781 76.992188 110.152344 77.085938 C 110 77.1875 109.796875 77.203125 109.667969 77.171875 C 109.542969 77.140625 109.46875 77.089844 109.414062 77.050781 C 109.246094 76.921875 109.144531 76.789062 109.019531 76.621094 C 108.886719 76.445312 108.742188 76.242188 108.625 76.0625 C 108.503906 75.882812 108.480469 75.835938 108.449219 75.792969 M 111.242188 75.117188 C 111.015625 75.347656 110.644531 75.351562 110.414062 75.128906 C 110.183594 74.902344 110.175781 74.53125 110.402344 74.296875 C 110.46875 74.230469 110.257812 74.546875 110.28125 74.488281 C 110.308594 74.410156 110.246094 74.6875 110.246094 74.652344 C 110.246094 74.625 110.246094 74.710938 110.246094 74.703125 C 110.246094 74.695312 110.242188 74.683594 110.238281 74.609375 C 110.238281 74.601562 110.234375 74.605469 110.230469 74.542969 C 110.226562 74.507812 110.214844 74.460938 110.234375 74.355469 C 110.238281 74.328125 110.246094 74.296875 110.257812 74.261719 C 110.363281 73.953125 110.699219 73.792969 111.003906 73.894531 C 111.308594 74 111.472656 74.335938 111.367188 74.640625 C 111.359375 74.675781 111.394531 74.53125 111.390625 74.554688 C 111.382812 74.601562 111.398438 74.441406 111.398438 74.460938 C 111.398438 74.480469 111.394531 74.425781 111.398438 74.429688 C 111.398438 74.4375 111.40625 74.46875 111.410156 74.546875 C 111.410156 74.570312 111.410156 74.542969 111.414062 74.601562 C 111.421875 74.671875 111.507812 74.847656 111.242188 75.117188 M 110.976562 75.007812 C 110.660156 75.089844 110.339844 74.90625 110.257812 74.59375 C 110.171875 74.28125 110.359375 73.957031 110.671875 73.875 C 110.917969 73.808594 111.066406 73.894531 111.148438 73.941406 C 111.222656 73.984375 111.265625 74.023438 111.300781 74.058594 C 111.367188 74.121094 111.414062 74.179688 111.460938 74.238281 C 111.550781 74.351562 111.628906 74.464844 111.664062 74.507812 C 111.667969 74.515625 111.632812 74.476562 111.652344 74.496094 C 111.652344 74.5 111.644531 74.492188 111.648438 74.492188 C 111.890625 74.707031 111.917969 75.074219 111.707031 75.320312 C 111.496094 75.566406 111.125 75.59375 110.878906 75.378906 C 110.875 75.378906 110.875 75.375 110.871094 75.371094 C 110.824219 75.328125 110.785156 75.289062 110.742188 75.234375 C 110.671875 75.140625 110.601562 75.042969 110.539062 74.964844 C 110.511719 74.929688 110.496094 74.910156 110.492188 74.90625 C 110.488281 74.902344 110.609375 74.984375 110.558594 74.957031 C 110.53125 74.941406 110.753906 75.027344 110.691406 75.007812 C 110.621094 74.992188 111.089844 74.976562 110.976562 75.007812 M 111.699219 74.539062 C 111.917969 74.777344 111.902344 75.148438 111.664062 75.367188 C 111.425781 75.585938 111.054688 75.570312 110.835938 75.332031 C 110.828125 75.328125 110.847656 75.34375 110.84375 75.34375 C 110.789062 75.285156 110.722656 75.21875 110.652344 75.148438 C 110.601562 75.101562 110.519531 75.039062 110.433594 74.972656 C 110.351562 74.914062 110.34375 74.90625 110.320312 74.898438 C 110.269531 74.882812 110.625 74.859375 110.546875 74.890625 C 110.472656 74.917969 110.667969 74.8125 110.660156 74.820312 C 110.617188 74.871094 110.640625 74.898438 110.523438 75.089844 C 110.421875 75.257812 110.300781 75.386719 110.1875 75.492188 C 109.933594 75.734375 109.640625 75.820312 109.421875 75.871094 C 109.164062 75.929688 108.945312 75.914062 108.804688 75.902344 C 108.738281 75.894531 108.695312 75.890625 108.691406 75.890625 C 108.6875 75.886719 108.828125 75.871094 108.785156 75.878906 C 108.6875 75.902344 109.050781 75.742188 109.003906 75.777344 C 108.9375 75.828125 109.128906 75.644531 109.113281 75.667969 C 109.097656 75.683594 109.128906 75.640625 109.125 75.644531 C 109.117188 75.660156 109.089844 75.738281 108.964844 75.839844 C 108.699219 76.066406 108.511719 76.011719 108.402344 76.003906 C 108.386719 76.003906 108.289062 76.03125 108.085938 76.03125 C 108.035156 76.03125 107.941406 76.046875 107.789062 76.039062 C 107.765625 76.039062 107.5625 76.082031 107.292969 75.921875 C 106.890625 75.679688 106.894531 75.417969 106.859375 75.351562 C 106.851562 75.335938 106.828125 75.308594 106.773438 75.246094 C 106.734375 75.199219 106.710938 75.167969 106.703125 75.15625 C 106.699219 75.15625 106.742188 75.199219 106.722656 75.179688 C 106.710938 75.167969 106.804688 75.242188 106.777344 75.222656 C 106.75 75.203125 106.964844 75.308594 106.90625 75.285156 C 106.601562 75.179688 106.4375 74.847656 106.546875 74.539062 C 106.652344 74.234375 106.984375 74.074219 107.292969 74.179688 C 107.734375 74.332031 107.632812 74.441406 107.660156 74.476562 C 107.703125 74.523438 107.800781 74.625 107.886719 74.785156 C 107.941406 74.878906 107.972656 74.953125 107.992188 74.992188 C 108 75.007812 107.988281 74.988281 107.996094 75 C 108.003906 75.015625 107.839844 74.882812 107.898438 74.917969 C 107.96875 74.957031 107.734375 74.863281 107.75 74.867188 C 107.753906 74.867188 107.78125 74.863281 107.855469 74.867188 C 107.863281 74.867188 107.941406 74.859375 108.074219 74.859375 C 108.113281 74.859375 108.234375 74.820312 108.460938 74.835938 C 108.476562 74.835938 108.410156 74.839844 108.441406 74.835938 C 108.460938 74.835938 108.316406 74.875 108.355469 74.859375 C 108.398438 74.84375 108.152344 74.992188 108.207031 74.945312 C 108.257812 74.90625 108.113281 75.054688 108.125 75.035156 C 108.132812 75.023438 108.113281 75.054688 108.121094 75.042969 C 108.140625 75.011719 108.132812 74.824219 108.523438 74.738281 C 108.734375 74.6875 108.859375 74.730469 108.902344 74.734375 C 109.003906 74.742188 109.09375 74.742188 109.164062 74.726562 C 109.28125 74.699219 109.359375 74.660156 109.378906 74.640625 C 109.445312 74.578125 109.5 74.515625 109.523438 74.476562 C 109.5625 74.410156 109.589844 74.261719 109.78125 74.042969 C 109.867188 73.945312 109.984375 73.847656 110.148438 73.789062 C 110.3125 73.726562 110.503906 73.730469 110.652344 73.773438 C 110.855469 73.835938 110.996094 73.929688 111.128906 74.03125 C 111.230469 74.105469 111.34375 74.191406 111.457031 74.296875 C 111.558594 74.390625 111.640625 74.480469 111.679688 74.519531 C 111.683594 74.523438 111.691406 74.53125 111.699219 74.539062 M 106.519531 74.824219 C 106.472656 74.503906 106.699219 74.207031 107.019531 74.160156 C 107.339844 74.113281 107.636719 74.335938 107.679688 74.65625 C 107.683594 74.683594 107.6875 74.699219 107.6875 74.714844 C 107.6875 74.75 107.6875 74.777344 107.6875 74.808594 C 107.6875 74.871094 107.6875 74.941406 107.648438 75.066406 C 107.550781 75.375 107.21875 75.546875 106.910156 75.445312 C 106.601562 75.347656 106.433594 75.019531 106.53125 74.710938 C 106.554688 74.636719 106.515625 74.777344 106.515625 74.773438 C 106.515625 74.773438 106.515625 74.800781 106.515625 74.789062 C 106.515625 74.78125 106.523438 74.839844 106.519531 74.824219 M 106.90625 74.332031 C 107.21875 74.238281 107.546875 74.410156 107.640625 74.71875 C 107.738281 75.03125 107.5625 75.359375 107.253906 75.453125 C 107.207031 75.46875 107.195312 75.46875 107.195312 75.46875 C 107.191406 75.46875 107.289062 75.4375 107.253906 75.453125 C 107.214844 75.464844 107.503906 75.269531 107.429688 75.339844 C 107.351562 75.414062 107.589844 75.070312 107.570312 75.128906 C 107.550781 75.179688 107.59375 74.996094 107.59375 75.015625 C 107.589844 75.054688 107.59375 74.980469 107.59375 74.992188 C 107.597656 75.035156 107.585938 74.945312 107.589844 74.957031 C 107.613281 75.007812 107.707031 75.148438 107.808594 75.28125 C 107.867188 75.355469 107.917969 75.414062 107.929688 75.421875 C 107.949219 75.441406 107.738281 75.339844 107.808594 75.359375 C 107.847656 75.371094 107.582031 75.351562 107.648438 75.347656 C 107.722656 75.339844 107.285156 75.523438 107.382812 75.453125 C 107.460938 75.390625 107.183594 75.714844 107.214844 75.652344 C 107.242188 75.59375 107.164062 75.832031 107.167969 75.796875 C 107.179688 75.730469 107.167969 75.917969 107.164062 75.90625 C 107.164062 75.882812 107.164062 75.90625 107.15625 75.878906 C 107.144531 75.835938 107.121094 75.828125 107.09375 75.792969 C 106.894531 75.539062 106.9375 75.167969 107.191406 74.96875 C 107.441406 74.765625 107.8125 74.808594 108.011719 75.0625 C 108.050781 75.109375 108.210938 75.265625 108.292969 75.582031 C 108.304688 75.628906 108.324219 75.691406 108.332031 75.78125 C 108.335938 75.832031 108.34375 75.894531 108.328125 75.984375 C 108.3125 76.085938 108.265625 76.253906 108.089844 76.386719 C 107.863281 76.558594 107.644531 76.53125 107.496094 76.492188 C 107.355469 76.453125 107.242188 76.382812 107.144531 76.292969 C 107.035156 76.195312 106.960938 76.097656 106.886719 76.007812 C 106.714844 75.789062 106.472656 75.574219 106.429688 75.109375 C 106.421875 75.058594 106.417969 75 106.425781 74.914062 C 106.433594 74.820312 106.449219 74.652344 106.625 74.484375 C 106.789062 74.332031 106.898438 74.332031 106.933594 74.324219 C 106.945312 74.324219 106.871094 74.34375 106.90625 74.332031 M 107.085938 75.78125 C 106.894531 75.519531 106.949219 75.152344 107.210938 74.960938 C 107.472656 74.769531 107.839844 74.824219 108.03125 75.085938 C 108.039062 75.09375 108.046875 75.105469 108.054688 75.121094 C 108.074219 75.148438 108.101562 75.1875 108.136719 75.242188 C 108.152344 75.269531 108.277344 75.382812 108.324219 75.660156 C 108.363281 75.910156 108.28125 76.023438 108.257812 76.074219 C 108.238281 76.117188 108.277344 75.980469 108.261719 76.046875 C 108.246094 76.109375 108.269531 75.851562 108.273438 75.890625 C 108.28125 75.949219 108.242188 75.777344 108.25 75.789062 C 108.253906 75.800781 108.246094 75.785156 108.25 75.792969 C 108.273438 75.828125 108.324219 75.894531 108.386719 75.988281 C 108.441406 76.070312 108.484375 76.132812 108.5 76.148438 C 108.53125 76.183594 108.554688 76.207031 108.5625 76.214844 C 108.5625 76.21875 108.53125 76.191406 108.546875 76.203125 C 108.5625 76.214844 108.355469 76.109375 108.425781 76.136719 C 108.730469 76.253906 108.878906 76.59375 108.761719 76.894531 C 108.644531 77.195312 108.308594 77.347656 108.003906 77.230469 C 107.6875 77.109375 107.6875 77 107.621094 76.925781 C 107.527344 76.820312 107.46875 76.722656 107.410156 76.636719 C 107.382812 76.597656 107.320312 76.519531 107.253906 76.410156 C 107.179688 76.292969 107.039062 76.113281 107.121094 75.769531 C 107.152344 75.648438 107.1875 75.59375 107.195312 75.582031 C 107.195312 75.582031 107.167969 75.664062 107.175781 75.628906 C 107.1875 75.585938 107.183594 75.957031 107.164062 75.851562 C 107.15625 75.800781 107.210938 75.964844 107.203125 75.949219 C 107.199219 75.945312 107.191406 75.941406 107.144531 75.871094 C 107.121094 75.832031 107.101562 75.804688 107.09375 75.792969 C 107.089844 75.785156 107.085938 75.78125 107.085938 75.78125 M 108.796875 76.777344 C 108.742188 77.097656 108.441406 77.3125 108.121094 77.257812 C 107.800781 77.207031 107.585938 76.902344 107.636719 76.585938 C 107.644531 76.554688 107.632812 76.644531 107.632812 76.636719 C 107.632812 76.613281 107.632812 76.660156 107.632812 76.65625 C 107.632812 76.648438 107.628906 76.628906 107.628906 76.601562 C 107.625 76.546875 107.617188 76.480469 107.613281 76.453125 C 107.601562 76.386719 107.578125 76.320312 107.59375 76.171875 C 107.597656 76.089844 107.609375 75.949219 107.761719 75.789062 C 107.921875 75.617188 108.207031 75.578125 108.355469 75.613281 C 108.871094 75.738281 108.878906 75.984375 108.984375 76.109375 C 109.0625 76.195312 109.128906 76.28125 109.183594 76.363281 C 109.199219 76.390625 109.230469 76.425781 109.285156 76.519531 L 108.269531 77.105469 C 108.242188 77.054688 108.367188 77.230469 108.34375 77.207031 C 108.308594 77.171875 108.421875 77.269531 108.410156 77.265625 C 108.398438 77.253906 108.367188 77.25 108.269531 77.171875 C 108.238281 77.148438 108.210938 77.125 108.1875 77.105469 C 108.179688 77.097656 108.167969 77.089844 108.164062 77.085938 C 107.917969 76.875 107.886719 76.507812 108.09375 76.257812 C 108.304688 76.011719 108.671875 75.980469 108.921875 76.191406 C 108.925781 76.191406 108.929688 76.199219 108.9375 76.203125 C 108.953125 76.214844 108.972656 76.230469 108.988281 76.246094 C 109.03125 76.277344 109.0625 76.128906 109.285156 76.519531 C 109.445312 76.800781 109.347656 77.160156 109.070312 77.320312 C 108.789062 77.484375 108.429688 77.386719 108.269531 77.105469 C 108.253906 77.082031 108.246094 77.078125 108.199219 77.003906 C 108.179688 76.976562 108.144531 76.929688 108.101562 76.882812 C 108.039062 76.808594 107.984375 76.746094 107.949219 76.707031 C 107.933594 76.691406 107.941406 76.695312 107.933594 76.691406 C 107.925781 76.683594 107.988281 76.722656 107.96875 76.714844 C 107.945312 76.699219 108.128906 76.765625 108.078125 76.753906 C 108.019531 76.742188 108.425781 76.734375 108.324219 76.757812 C 108.21875 76.78125 108.6875 76.515625 108.613281 76.59375 C 108.542969 76.667969 108.753906 76.332031 108.738281 76.386719 C 108.71875 76.4375 108.761719 76.246094 108.761719 76.273438 C 108.757812 76.320312 108.761719 76.207031 108.761719 76.210938 C 108.761719 76.210938 108.761719 76.222656 108.765625 76.242188 C 108.785156 76.347656 108.792969 76.441406 108.800781 76.527344 C 108.800781 76.570312 108.804688 76.605469 108.804688 76.644531 C 108.804688 76.664062 108.804688 76.683594 108.804688 76.714844 C 108.800781 76.730469 108.800781 76.746094 108.796875 76.777344 M 108.921875 76.191406 C 109.164062 76.402344 109.191406 76.773438 108.976562 77.015625 C 108.765625 77.261719 108.394531 77.285156 108.148438 77.074219 C 108.121094 77.046875 108.234375 77.132812 108.21875 77.125 C 108.207031 77.117188 108.234375 77.132812 108.222656 77.125 C 107.933594 76.976562 107.824219 76.621094 107.972656 76.335938 C 108.121094 76.046875 108.476562 75.9375 108.761719 76.085938 C 108.769531 76.089844 108.835938 76.113281 108.921875 76.191406 M 107.910156 76.578125 C 107.933594 76.253906 108.210938 76.011719 108.535156 76.03125 C 108.859375 76.054688 109.101562 76.335938 109.082031 76.65625 C 109.078125 76.714844 109.070312 76.746094 109.0625 76.777344 C 109.046875 76.832031 109.046875 76.867188 108.984375 76.980469 C 108.824219 77.261719 108.46875 77.363281 108.1875 77.203125 C 107.902344 77.042969 107.804688 76.6875 107.964844 76.402344 C 107.992188 76.355469 107.921875 76.492188 107.929688 76.480469 C 107.929688 76.46875 107.917969 76.519531 107.917969 76.507812 C 107.921875 76.496094 107.90625 76.621094 107.910156 76.578125 M 108.714844 76.15625 C 109.007812 76.292969 109.136719 76.640625 109.003906 76.933594 C 108.867188 77.230469 108.519531 77.359375 108.226562 77.226562 C 108.207031 77.214844 108.191406 77.207031 108.179688 77.199219 C 108.136719 77.179688 108.117188 77.164062 108.097656 77.148438 C 108.0625 77.121094 108.027344 77.09375 107.992188 77.058594 C 107.921875 76.992188 107.839844 76.90625 107.757812 76.792969 C 107.722656 76.746094 107.804688 76.8125 107.75 76.769531 C 107.734375 76.757812 107.867188 76.839844 107.832031 76.820312 C 107.789062 76.800781 108.058594 76.878906 107.988281 76.871094 C 107.921875 76.859375 108.277344 76.828125 108.207031 76.851562 C 108.140625 76.871094 108.414062 76.734375 108.375 76.765625 C 108.324219 76.804688 108.480469 76.652344 108.464844 76.671875 C 108.425781 76.722656 108.480469 76.648438 108.457031 76.699219 C 108.308594 76.988281 107.957031 77.105469 107.667969 76.957031 C 107.378906 76.8125 107.261719 76.457031 107.410156 76.167969 C 107.4375 76.117188 107.417969 76.023438 107.644531 75.847656 C 107.765625 75.75 107.964844 75.683594 108.140625 75.707031 C 108.308594 75.726562 108.417969 75.800781 108.488281 75.859375 C 108.621094 75.964844 108.667969 76.046875 108.710938 76.109375 C 108.734375 76.144531 108.769531 76.179688 108.792969 76.199219 C 108.800781 76.210938 108.792969 76.203125 108.800781 76.207031 C 108.804688 76.210938 108.722656 76.160156 108.753906 76.179688 C 108.765625 76.183594 108.695312 76.148438 108.714844 76.15625 "/>
<path style=" stroke:none;fill-rule:nonzero;fill:rgb(7.058716%,1.176453%,46.665955%);fill-opacity:1;" d="M 26.453125 36.046875 C 26.453125 35.722656 26.714844 35.460938 27.039062 35.460938 C 27.363281 35.460938 27.625 35.722656 27.625 36.046875 L 27.625 52.863281 C 27.625 53.1875 27.363281 53.453125 27.039062 53.453125 C 26.714844 53.453125 26.453125 53.1875 26.453125 52.863281 Z M 26.453125 36.046875 "/>
<path style=" stroke:none;fill-rule:nonzero;fill:rgb(7.058716%,1.176453%,46.665955%);fill-opacity:1;" d="M 42.738281 67.734375 C 42.738281 73.433594 39.65625 78.410156 35.070312 81.089844 C 32.78125 82.425781 30.121094 83.191406 27.28125 83.191406 C 21.585938 83.191406 16.605469 80.109375 13.925781 75.523438 C 12.589844 73.234375 11.824219 70.574219 11.824219 67.734375 C 11.824219 62.035156 14.90625 57.058594 19.496094 54.378906 C 21.78125 53.042969 24.441406 52.277344 27.28125 52.277344 C 32.980469 52.277344 37.957031 55.359375 40.636719 59.949219 C 41.972656 62.234375 42.738281 64.894531 42.738281 67.734375 M 41.566406 67.734375 C 41.566406 65.109375 40.859375 62.652344 39.625 60.539062 C 37.148438 56.296875 32.546875 53.449219 27.28125 53.449219 C 24.660156 53.449219 22.199219 54.15625 20.085938 55.390625 C 15.847656 57.867188 12.996094 62.46875 12.996094 67.734375 C 12.996094 70.359375 13.703125 72.816406 14.9375 74.929688 C 17.414062 79.171875 22.015625 82.019531 27.28125 82.019531 C 29.90625 82.019531 32.363281 81.3125 34.476562 80.078125 C 38.71875 77.601562 41.566406 73 41.566406 67.734375 "/>
<path style=" stroke:none;fill-rule:nonzero;fill:rgb(7.058716%,1.176453%,46.665955%);fill-opacity:1;" d="M 26.355469 82.601562 C 26.355469 82.277344 26.621094 82.015625 26.945312 82.015625 C 27.269531 82.015625 27.53125 82.277344 27.53125 82.601562 L 27.53125 103.707031 C 27.53125 104.03125 27.269531 104.292969 26.945312 104.292969 C 26.621094 104.292969 26.355469 104.03125 26.355469 103.707031 Z M 26.355469 82.601562 "/>
<path style=" stroke:none;fill-rule:nonzero;fill:rgb(7.058716%,1.176453%,46.665955%);fill-opacity:1;" d="M 26.355469 57.136719 C 26.355469 56.8125 26.621094 56.550781 26.945312 56.550781 C 27.269531 56.550781 27.53125 56.8125 27.53125 57.136719 L 27.53125 66.855469 C 27.53125 67.179688 27.269531 67.441406 26.945312 67.441406 C 26.621094 67.441406 26.355469 67.179688 26.355469 66.855469 Z M 26.355469 57.136719 "/>
<path style=" stroke:none;fill-rule:nonzero;fill:rgb(7.058716%,1.176453%,46.665955%);fill-opacity:1;" d="M 22.042969 62.582031 C 21.71875 62.582031 21.457031 62.320312 21.457031 61.996094 C 21.457031 61.671875 21.71875 61.410156 22.042969 61.410156 L 31.84375 61.410156 C 32.167969 61.410156 32.429688 61.671875 32.429688 61.996094 C 32.429688 62.320312 32.167969 62.582031 31.84375 62.582031 Z M 22.042969 62.582031 "/>
<path style=" stroke:none;fill-rule:nonzero;fill:rgb(7.058716%,1.176453%,46.665955%);fill-opacity:1;" d="M 22.382812 78.226562 C 22.058594 78.226562 21.796875 77.960938 21.796875 77.640625 C 21.796875 77.316406 22.058594 77.050781 22.382812 77.050781 L 32.179688 77.050781 C 32.503906 77.050781 32.769531 77.316406 32.769531 77.640625 C 32.769531 77.960938 32.503906 78.226562 32.179688 78.226562 Z M 22.382812 78.226562 "/>
</g>
</svg>
