<?xml version="1.0" encoding="UTF-8"?>
<svg xmlns="http://www.w3.org/2000/svg" xmlns:xlink="http://www.w3.org/1999/xlink" width="325.2518pt" height="198.7253pt" viewBox="0 0 325.2518 198.7253" version="1.2">
<g id="surface1">
<path style=" stroke:none;fill-rule:nonzero;fill:rgb(7.058716%,1.176453%,46.665955%);fill-opacity:1;" d="M 61.039062 118.355469 C 60.707031 118.355469 60.441406 118.085938 60.441406 117.757812 C 60.441406 117.429688 60.707031 117.160156 61.039062 117.160156 L 76.785156 117.160156 C 77.117188 117.160156 77.382812 117.429688 77.382812 117.757812 C 77.382812 118.085938 77.117188 118.355469 76.785156 118.355469 Z M 61.039062 118.355469 "/>
<path style=" stroke:none;fill-rule:nonzero;fill:rgb(7.058716%,1.176453%,46.665955%);fill-opacity:1;" d="M 112.492188 118.355469 C 112.164062 118.355469 111.894531 118.085938 111.894531 117.757812 C 111.894531 117.429688 112.164062 117.160156 112.492188 117.160156 L 129.210938 117.160156 C 129.539062 117.160156 129.804688 117.429688 129.804688 117.757812 C 129.804688 118.085938 129.539062 118.355469 129.210938 118.355469 Z M 112.492188 118.355469 "/>
<path style=" stroke:none;fill-rule:nonzero;fill:rgb(7.058716%,1.176453%,46.665955%);fill-opacity:1;" d="M 76.304688 117.910156 C 76.109375 117.644531 76.167969 117.273438 76.433594 117.078125 C 76.699219 116.882812 77.070312 116.9375 77.265625 117.203125 L 81.222656 122.570312 C 81.417969 122.835938 81.363281 123.210938 81.097656 123.40625 C 80.832031 123.601562 80.460938 123.542969 80.265625 123.28125 Z M 76.304688 117.910156 "/>
<path style=" stroke:none;fill-rule:nonzero;fill:rgb(7.058716%,1.176453%,46.665955%);fill-opacity:1;" d="M 81.253906 123.234375 C 81.085938 123.515625 80.71875 123.605469 80.4375 123.4375 C 80.152344 123.265625 80.0625 122.898438 80.234375 122.617188 L 86.460938 112.28125 C 86.632812 112 86.996094 111.910156 87.28125 112.078125 C 87.5625 112.25 87.652344 112.617188 87.484375 112.898438 Z M 81.253906 123.234375 "/>
<path style=" stroke:none;fill-rule:nonzero;fill:rgb(7.058716%,1.176453%,46.665955%);fill-opacity:1;" d="M 86.492188 112.945312 C 86.296875 112.679688 86.351562 112.304688 86.617188 112.109375 C 86.882812 111.914062 87.257812 111.972656 87.453125 112.238281 L 95.070312 122.570312 C 95.265625 122.835938 95.210938 123.210938 94.945312 123.40625 C 94.679688 123.601562 94.304688 123.542969 94.109375 123.28125 Z M 86.492188 112.945312 "/>
<path style=" stroke:none;fill-rule:nonzero;fill:rgb(7.058716%,1.176453%,46.665955%);fill-opacity:1;" d="M 95.101562 123.234375 C 94.933594 123.515625 94.566406 123.605469 94.285156 123.4375 C 94 123.265625 93.910156 122.898438 94.082031 122.617188 L 100.308594 112.28125 C 100.476562 112 100.84375 111.910156 101.125 112.078125 C 101.410156 112.25 101.5 112.617188 101.328125 112.898438 Z M 95.101562 123.234375 "/>
<path style=" stroke:none;fill-rule:nonzero;fill:rgb(7.058716%,1.176453%,46.665955%);fill-opacity:1;" d="M 100.339844 112.945312 C 100.144531 112.679688 100.199219 112.304688 100.464844 112.109375 C 100.730469 111.914062 101.101562 111.972656 101.300781 112.238281 L 108.917969 122.570312 C 109.113281 122.835938 109.058594 123.210938 108.792969 123.40625 C 108.527344 123.601562 108.152344 123.542969 107.957031 123.28125 Z M 100.339844 112.945312 "/>
<path style=" stroke:none;fill-rule:nonzero;fill:rgb(7.058716%,1.176453%,46.665955%);fill-opacity:1;" d="M 108.90625 123.292969 C 108.703125 123.554688 108.328125 123.597656 108.070312 123.394531 C 107.8125 123.191406 107.765625 122.816406 107.96875 122.558594 L 112.023438 117.390625 C 112.226562 117.132812 112.601562 117.085938 112.859375 117.289062 C 113.117188 117.492188 113.164062 117.867188 112.960938 118.125 Z M 108.90625 123.292969 "/>
<path style=" stroke:none;fill-rule:nonzero;fill:rgb(7.058716%,1.176453%,46.665955%);fill-opacity:1;" d="M 148.941406 66.71875 C 148.609375 66.71875 148.34375 66.449219 148.34375 66.121094 C 148.34375 65.792969 148.609375 65.523438 148.941406 65.523438 L 178.464844 65.523438 C 178.796875 65.523438 179.0625 65.792969 179.0625 66.121094 C 179.0625 66.449219 178.796875 66.71875 178.464844 66.71875 Z M 148.941406 66.71875 "/>
<path style=" stroke:none;fill-rule:nonzero;fill:rgb(7.058716%,1.176453%,46.665955%);fill-opacity:1;" d="M 185.695312 66.71875 C 185.363281 66.71875 185.097656 66.449219 185.097656 66.121094 C 185.097656 65.792969 185.363281 65.523438 185.695312 65.523438 L 217.132812 65.523438 C 217.464844 65.523438 217.730469 65.792969 217.730469 66.121094 C 217.730469 66.449219 217.464844 66.71875 217.132812 66.71875 Z M 185.695312 66.71875 "/>
<path style=" stroke:none;fill-rule:nonzero;fill:rgb(7.058716%,1.176453%,46.665955%);fill-opacity:1;" d="M 179.0625 79.710938 C 179.0625 80.042969 178.796875 80.308594 178.464844 80.308594 C 178.136719 80.308594 177.871094 80.042969 177.871094 79.710938 L 177.871094 52.523438 C 177.871094 52.195312 178.136719 51.925781 178.464844 51.925781 C 178.796875 51.925781 179.0625 52.195312 179.0625 52.523438 Z M 179.0625 79.710938 "/>
<path style=" stroke:none;fill-rule:nonzero;fill:rgb(7.058716%,1.176453%,46.665955%);fill-opacity:1;" d="M 186.289062 79.714844 C 186.289062 80.046875 186.023438 80.3125 185.695312 80.3125 C 185.363281 80.3125 185.097656 80.046875 185.097656 79.714844 L 185.097656 52.527344 C 185.097656 52.199219 185.363281 51.929688 185.695312 51.929688 C 186.023438 51.929688 186.289062 52.199219 186.289062 52.527344 Z M 186.289062 79.714844 "/>
<path style=" stroke:none;fill-rule:nonzero;fill:rgb(7.058716%,1.176453%,46.665955%);fill-opacity:1;" d="M 149.410156 65.523438 C 149.742188 65.523438 150.007812 65.792969 150.007812 66.121094 C 150.007812 66.449219 149.742188 66.71875 149.410156 66.71875 L 142.042969 66.71875 C 141.710938 66.71875 141.445312 66.449219 141.445312 66.121094 C 141.445312 65.792969 141.710938 65.523438 142.042969 65.523438 Z M 149.410156 65.523438 "/>
<path style=" stroke:none;fill-rule:nonzero;fill:rgb(7.058716%,1.176453%,46.665955%);fill-opacity:1;" d="M 141.445312 66.121094 C 141.445312 65.792969 141.710938 65.523438 142.042969 65.523438 C 142.371094 65.523438 142.636719 65.792969 142.636719 66.121094 L 142.636719 117.757812 C 142.636719 118.085938 142.371094 118.355469 142.042969 118.355469 C 141.710938 118.355469 141.445312 118.085938 141.445312 117.757812 Z M 141.445312 66.121094 "/>
<path style=" stroke:none;fill-rule:nonzero;fill:rgb(7.058716%,1.176453%,46.665955%);fill-opacity:1;" d="M 252.496094 133.6875 C 252.496094 134.015625 252.226562 134.285156 251.898438 134.285156 C 251.570312 134.285156 251.300781 134.015625 251.300781 133.6875 L 251.300781 65.808594 C 251.300781 65.480469 251.570312 65.214844 251.898438 65.214844 C 252.226562 65.214844 252.496094 65.480469 252.496094 65.808594 Z M 252.496094 133.6875 "/>
<path style=" stroke:none;fill-rule:nonzero;fill:rgb(7.058716%,1.176453%,46.665955%);fill-opacity:1;" d="M 215.652344 66.71875 C 215.320312 66.71875 215.054688 66.449219 215.054688 66.121094 C 215.054688 65.792969 215.320312 65.523438 215.652344 65.523438 L 251.898438 65.523438 C 252.226562 65.523438 252.496094 65.792969 252.496094 66.121094 C 252.496094 66.449219 252.226562 66.71875 251.898438 66.71875 Z M 215.652344 66.71875 "/>
<path style=" stroke:none;fill-rule:nonzero;fill:rgb(7.058716%,1.176453%,46.665955%);fill-opacity:1;" d="M 127.617188 150.210938 C 127.617188 149.882812 127.882812 149.613281 128.210938 149.613281 C 128.539062 149.613281 128.808594 149.882812 128.808594 150.210938 L 128.808594 161.152344 C 128.808594 161.484375 128.539062 161.75 128.210938 161.75 C 127.882812 161.75 127.617188 161.484375 127.617188 161.152344 Z M 127.617188 150.210938 "/>
<path style=" stroke:none;fill-rule:nonzero;fill:rgb(7.058716%,1.176453%,46.665955%);fill-opacity:1;" d="M 119.703125 162.484375 C 119.371094 162.484375 119.105469 162.21875 119.105469 161.890625 C 119.105469 161.558594 119.371094 161.292969 119.703125 161.292969 L 136.722656 161.292969 C 137.050781 161.292969 137.316406 161.558594 137.316406 161.890625 C 137.316406 162.21875 137.050781 162.484375 136.722656 162.484375 Z M 119.703125 162.484375 "/>
<path style=" stroke:none;fill-rule:nonzero;fill:rgb(7.058716%,1.176453%,46.665955%);fill-opacity:1;" d="M 122.640625 166.386719 C 122.3125 166.386719 122.046875 166.121094 122.046875 165.792969 C 122.046875 165.464844 122.3125 165.195312 122.640625 165.195312 L 134.070312 165.195312 C 134.402344 165.195312 134.667969 165.464844 134.667969 165.792969 C 134.667969 166.121094 134.402344 166.386719 134.070312 166.386719 Z M 122.640625 166.386719 "/>
<path style=" stroke:none;fill-rule:nonzero;fill:rgb(7.058716%,1.176453%,46.665955%);fill-opacity:1;" d="M 125.914062 170.050781 C 125.585938 170.050781 125.320312 169.78125 125.320312 169.453125 C 125.320312 169.125 125.585938 168.855469 125.914062 168.855469 L 130.796875 168.855469 C 131.125 168.855469 131.394531 169.125 131.394531 169.453125 C 131.394531 169.78125 131.125 170.050781 130.796875 170.050781 Z M 125.914062 170.050781 "/>
<path style=" stroke:none;fill-rule:nonzero;fill:rgb(7.058716%,1.176453%,46.665955%);fill-opacity:1;" d="M 251.898438 134.285156 C 251.570312 134.285156 251.300781 134.015625 251.300781 133.6875 C 251.300781 133.359375 251.570312 133.089844 251.898438 133.089844 L 263.117188 133.089844 C 263.445312 133.089844 263.710938 133.359375 263.710938 133.6875 C 263.710938 134.015625 263.445312 134.285156 263.117188 134.285156 Z M 251.898438 134.285156 "/>
<path style=" stroke:none;fill-rule:nonzero;fill:rgb(7.058716%,1.176453%,46.665955%);fill-opacity:1;" d="M 161.390625 102.820312 L 161.390625 164.78125 L 220.203125 133.691406 Z M 161.070312 101.304688 L 221.757812 133.160156 C 222.183594 133.382812 222.183594 133.992188 221.761719 134.214844 L 161.070312 166.296875 C 160.675781 166.507812 160.195312 166.21875 160.195312 165.769531 L 160.195312 101.832031 C 160.195312 101.382812 160.671875 101.09375 161.070312 101.304688 "/>
<path style=" stroke:none;fill-rule:nonzero;fill:rgb(7.058716%,1.176453%,46.665955%);fill-opacity:1;" d="M 169.132812 144.871094 C 169.132812 144.542969 169.398438 144.273438 169.726562 144.273438 C 170.058594 144.273438 170.324219 144.542969 170.324219 144.871094 L 170.324219 154.75 C 170.324219 155.078125 170.058594 155.34375 169.726562 155.34375 C 169.398438 155.34375 169.132812 155.078125 169.132812 154.75 Z M 169.132812 144.871094 "/>
<path style=" stroke:none;fill-rule:nonzero;fill:rgb(7.058716%,1.176453%,46.665955%);fill-opacity:1;" d="M 164.746094 150.40625 C 164.417969 150.40625 164.152344 150.140625 164.152344 149.808594 C 164.152344 149.480469 164.417969 149.214844 164.746094 149.214844 L 174.710938 149.214844 C 175.039062 149.214844 175.304688 149.480469 175.304688 149.808594 C 175.304688 150.140625 175.039062 150.40625 174.710938 150.40625 Z M 164.746094 150.40625 "/>
<path style=" stroke:none;fill-rule:nonzero;fill:rgb(7.058716%,1.176453%,46.665955%);fill-opacity:1;" d="M 164.746094 118.164062 C 164.417969 118.164062 164.152344 117.898438 164.152344 117.566406 C 164.152344 117.238281 164.417969 116.972656 164.746094 116.972656 L 174.710938 116.972656 C 175.039062 116.972656 175.304688 117.238281 175.304688 117.566406 C 175.304688 117.898438 175.039062 118.164062 174.710938 118.164062 Z M 164.746094 118.164062 "/>
<path style=" stroke:none;fill-rule:nonzero;fill:rgb(7.058716%,1.176453%,46.665955%);fill-opacity:1;" d="M 161.070312 117.160156 C 161.402344 117.160156 161.667969 117.429688 161.667969 117.757812 C 161.667969 118.085938 161.402344 118.355469 161.070312 118.355469 L 129.210938 118.355469 C 128.878906 118.355469 128.613281 118.085938 128.613281 117.757812 C 128.613281 117.429688 128.878906 117.160156 129.210938 117.160156 Z M 161.070312 117.160156 "/>
<path style=" stroke:none;fill-rule:nonzero;fill:rgb(7.058716%,1.176453%,46.665955%);fill-opacity:1;" d="M 161.070312 149.019531 C 161.402344 149.019531 161.667969 149.285156 161.667969 149.613281 C 161.667969 149.945312 161.402344 150.210938 161.070312 150.210938 L 129.210938 150.210938 C 128.878906 150.210938 128.613281 149.945312 128.613281 149.613281 C 128.613281 149.285156 128.878906 149.019531 129.210938 149.019531 Z M 161.070312 149.019531 "/>
<path style=" stroke:none;fill-rule:nonzero;fill:rgb(7.058716%,1.176453%,46.665955%);fill-opacity:1;" d="M 221.480469 134.285156 C 221.152344 134.285156 220.886719 134.015625 220.886719 133.6875 C 220.886719 133.359375 221.152344 133.089844 221.480469 133.089844 L 253.34375 133.089844 C 253.671875 133.089844 253.9375 133.359375 253.9375 133.6875 C 253.9375 134.015625 253.671875 134.285156 253.34375 134.285156 Z M 221.480469 134.285156 "/>
<path style=" stroke:none;fill-rule:nonzero;fill:rgb(7.058716%,1.176453%,46.665955%);fill-opacity:1;" d="M 148.941406 39.085938 C 148.609375 39.085938 148.34375 38.820312 148.34375 38.488281 C 148.34375 38.160156 148.609375 37.894531 148.941406 37.894531 L 164.6875 37.894531 C 165.019531 37.894531 165.285156 38.160156 165.285156 38.488281 C 165.285156 38.820312 165.019531 39.085938 164.6875 39.085938 Z M 148.941406 39.085938 "/>
<path style=" stroke:none;fill-rule:nonzero;fill:rgb(7.058716%,1.176453%,46.665955%);fill-opacity:1;" d="M 200.394531 39.085938 C 200.066406 39.085938 199.796875 38.820312 199.796875 38.488281 C 199.796875 38.160156 200.066406 37.894531 200.394531 37.894531 L 217.113281 37.894531 C 217.441406 37.894531 217.707031 38.160156 217.707031 38.488281 C 217.707031 38.820312 217.441406 39.085938 217.113281 39.085938 Z M 200.394531 39.085938 "/>
<path style=" stroke:none;fill-rule:nonzero;fill:rgb(7.058716%,1.176453%,46.665955%);fill-opacity:1;" d="M 164.210938 38.640625 C 164.015625 38.378906 164.070312 38.003906 164.335938 37.808594 C 164.601562 37.613281 164.972656 37.667969 165.167969 37.933594 L 169.125 43.304688 C 169.324219 43.566406 169.265625 43.941406 169 44.136719 C 168.734375 44.332031 168.363281 44.277344 168.167969 44.011719 Z M 164.210938 38.640625 "/>
<path style=" stroke:none;fill-rule:nonzero;fill:rgb(7.058716%,1.176453%,46.665955%);fill-opacity:1;" d="M 169.15625 43.964844 C 168.988281 44.246094 168.621094 44.335938 168.339844 44.167969 C 168.058594 43.996094 167.964844 43.632812 168.136719 43.347656 L 174.363281 33.015625 C 174.535156 32.730469 174.902344 32.640625 175.183594 32.8125 C 175.464844 32.980469 175.554688 33.347656 175.386719 33.628906 Z M 169.15625 43.964844 "/>
<path style=" stroke:none;fill-rule:nonzero;fill:rgb(7.058716%,1.176453%,46.665955%);fill-opacity:1;" d="M 174.394531 33.675781 C 174.199219 33.410156 174.257812 33.035156 174.519531 32.839844 C 174.785156 32.644531 175.160156 32.703125 175.355469 32.96875 L 182.972656 43.304688 C 183.167969 43.566406 183.113281 43.941406 182.847656 44.136719 C 182.582031 44.332031 182.210938 44.277344 182.015625 44.011719 Z M 174.394531 33.675781 "/>
<path style=" stroke:none;fill-rule:nonzero;fill:rgb(7.058716%,1.176453%,46.665955%);fill-opacity:1;" d="M 183.003906 43.964844 C 182.835938 44.246094 182.46875 44.335938 182.1875 44.167969 C 181.902344 43.996094 181.8125 43.632812 181.984375 43.347656 L 188.210938 33.015625 C 188.382812 32.730469 188.746094 32.640625 189.03125 32.8125 C 189.3125 32.980469 189.402344 33.347656 189.234375 33.628906 Z M 183.003906 43.964844 "/>
<path style=" stroke:none;fill-rule:nonzero;fill:rgb(7.058716%,1.176453%,46.665955%);fill-opacity:1;" d="M 188.242188 33.675781 C 188.046875 33.410156 188.101562 33.035156 188.367188 32.839844 C 188.632812 32.644531 189.007812 32.703125 189.203125 32.96875 L 196.820312 43.304688 C 197.015625 43.566406 196.960938 43.941406 196.695312 44.136719 C 196.429688 44.332031 196.054688 44.277344 195.859375 44.011719 Z M 188.242188 33.675781 "/>
<path style=" stroke:none;fill-rule:nonzero;fill:rgb(7.058716%,1.176453%,46.665955%);fill-opacity:1;" d="M 196.808594 44.023438 C 196.605469 44.285156 196.230469 44.328125 195.972656 44.125 C 195.714844 43.921875 195.667969 43.546875 195.871094 43.289062 L 199.925781 38.121094 C 200.128906 37.863281 200.503906 37.816406 200.761719 38.019531 C 201.023438 38.222656 201.066406 38.597656 200.863281 38.855469 Z M 196.808594 44.023438 "/>
<path style=" stroke:none;fill-rule:nonzero;fill:rgb(7.058716%,1.176453%,46.665955%);fill-opacity:1;" d="M 61.039062 66.71875 C 60.707031 66.71875 60.441406 66.449219 60.441406 66.121094 C 60.441406 65.792969 60.707031 65.523438 61.039062 65.523438 L 90.5625 65.523438 C 90.890625 65.523438 91.160156 65.792969 91.160156 66.121094 C 91.160156 66.449219 90.890625 66.71875 90.5625 66.71875 Z M 61.039062 66.71875 "/>
<path style=" stroke:none;fill-rule:nonzero;fill:rgb(7.058716%,1.176453%,46.665955%);fill-opacity:1;" d="M 97.789062 66.71875 C 97.460938 66.71875 97.195312 66.449219 97.195312 66.121094 C 97.195312 65.792969 97.460938 65.523438 97.789062 65.523438 L 129.230469 65.523438 C 129.5625 65.523438 129.828125 65.792969 129.828125 66.121094 C 129.828125 66.449219 129.5625 66.71875 129.230469 66.71875 Z M 97.789062 66.71875 "/>
<path style=" stroke:none;fill-rule:nonzero;fill:rgb(7.058716%,1.176453%,46.665955%);fill-opacity:1;" d="M 91.160156 79.710938 C 91.160156 80.042969 90.890625 80.308594 90.5625 80.308594 C 90.234375 80.308594 89.964844 80.042969 89.964844 79.710938 L 89.964844 52.523438 C 89.964844 52.195312 90.234375 51.925781 90.5625 51.925781 C 90.890625 51.925781 91.160156 52.195312 91.160156 52.523438 Z M 91.160156 79.710938 "/>
<path style=" stroke:none;fill-rule:nonzero;fill:rgb(7.058716%,1.176453%,46.665955%);fill-opacity:1;" d="M 98.386719 79.714844 C 98.386719 80.046875 98.121094 80.3125 97.789062 80.3125 C 97.460938 80.3125 97.195312 80.046875 97.195312 79.714844 L 97.195312 52.527344 C 97.195312 52.199219 97.460938 51.929688 97.789062 51.929688 C 98.121094 51.929688 98.386719 52.199219 98.386719 52.527344 Z M 98.386719 79.714844 "/>
<path style=" stroke:none;fill-rule:nonzero;fill:rgb(7.058716%,1.176453%,46.665955%);fill-opacity:1;" d="M 142.042969 65.523438 C 142.371094 65.523438 142.636719 65.792969 142.636719 66.121094 C 142.636719 66.449219 142.371094 66.71875 142.042969 66.71875 L 129.085938 66.71875 C 128.753906 66.71875 128.488281 66.449219 128.488281 66.121094 C 128.488281 65.792969 128.753906 65.523438 129.085938 65.523438 Z M 142.042969 65.523438 "/>
<path style=" stroke:none;fill-rule:nonzero;fill:rgb(7.058716%,1.176453%,46.665955%);fill-opacity:1;" d="M 59.65625 66.121094 C 59.65625 65.792969 59.921875 65.523438 60.25 65.523438 C 60.582031 65.523438 60.847656 65.792969 60.847656 66.121094 L 60.847656 117.757812 C 60.847656 118.085938 60.582031 118.355469 60.25 118.355469 C 59.921875 118.355469 59.65625 118.085938 59.65625 117.757812 Z M 59.65625 66.121094 "/>
<path style=" stroke:none;fill-rule:nonzero;fill:rgb(7.058716%,1.176453%,46.665955%);fill-opacity:1;" d="M 216.515625 38.488281 C 216.515625 38.160156 216.785156 37.894531 217.113281 37.894531 C 217.441406 37.894531 217.707031 38.160156 217.707031 38.488281 L 217.707031 66.121094 C 217.707031 66.449219 217.441406 66.71875 217.113281 66.71875 C 216.785156 66.71875 216.515625 66.449219 216.515625 66.121094 Z M 216.515625 38.488281 "/>
<path style=" stroke:none;fill-rule:nonzero;fill:rgb(7.058716%,1.176453%,46.665955%);fill-opacity:1;" d="M 148.421875 38.488281 C 148.421875 38.160156 148.6875 37.894531 149.019531 37.894531 C 149.347656 37.894531 149.613281 38.160156 149.613281 38.488281 L 149.613281 66.121094 C 149.613281 66.449219 149.347656 66.71875 149.019531 66.71875 C 148.6875 66.71875 148.421875 66.449219 148.421875 66.121094 Z M 148.421875 38.488281 "/>
<path style=" stroke:none;fill-rule:nonzero;fill:rgb(7.058716%,1.176453%,46.665955%);fill-opacity:1;" d="M 60.351562 89.902344 C 60.679688 89.902344 60.945312 90.167969 60.945312 90.5 C 60.945312 90.828125 60.679688 91.09375 60.351562 91.09375 L 44.230469 91.09375 C 43.902344 91.09375 43.636719 90.828125 43.636719 90.5 C 43.636719 90.167969 43.902344 89.902344 44.230469 89.902344 Z M 60.351562 89.902344 "/>
<path style=" stroke:none;fill-rule:nonzero;fill:rgb(7.058716%,1.176453%,46.665955%);fill-opacity:1;" d="M 44.828125 90.5 C 44.828125 92.003906 44.015625 93.320312 42.800781 94.027344 C 42.199219 94.382812 41.496094 94.585938 40.742188 94.585938 C 39.238281 94.585938 37.921875 93.769531 37.214844 92.558594 C 36.859375 91.953125 36.65625 91.25 36.65625 90.5 C 36.65625 88.992188 37.472656 87.675781 38.683594 86.96875 C 39.289062 86.617188 39.992188 86.414062 40.742188 86.414062 C 42.25 86.414062 43.566406 87.226562 44.273438 88.441406 C 44.625 89.046875 44.828125 89.75 44.828125 90.5 M 43.636719 90.5 C 43.636719 89.96875 43.492188 89.46875 43.242188 89.042969 C 42.742188 88.183594 41.808594 87.605469 40.742188 87.605469 C 40.210938 87.605469 39.714844 87.75 39.285156 88 C 38.425781 88.5 37.851562 89.433594 37.851562 90.5 C 37.851562 91.03125 37.992188 91.527344 38.242188 91.957031 C 38.746094 92.816406 39.675781 93.390625 40.742188 93.390625 C 41.273438 93.390625 41.773438 93.25 42.199219 93 C 43.058594 92.496094 43.636719 91.566406 43.636719 90.5 "/>
<path style=" stroke:none;fill-rule:nonzero;fill:rgb(7.058716%,1.176453%,46.665955%);fill-opacity:1;" d="M 270.6875 133.582031 C 270.6875 135.085938 269.875 136.402344 268.660156 137.109375 C 268.058594 137.464844 267.355469 137.667969 266.601562 137.667969 C 265.097656 137.667969 263.78125 136.851562 263.074219 135.640625 C 262.71875 135.035156 262.519531 134.332031 262.519531 133.582031 C 262.519531 132.074219 263.332031 130.757812 264.546875 130.050781 C 265.148438 129.699219 265.851562 129.496094 266.601562 129.496094 C 268.109375 129.496094 269.425781 130.308594 270.132812 131.523438 C 270.488281 132.125 270.6875 132.828125 270.6875 133.582031 M 269.496094 133.582031 C 269.496094 133.050781 269.355469 132.550781 269.105469 132.125 C 268.601562 131.265625 267.671875 130.6875 266.601562 130.6875 C 266.070312 130.6875 265.574219 130.832031 265.148438 131.082031 C 264.289062 131.582031 263.710938 132.515625 263.710938 133.582031 C 263.710938 134.113281 263.851562 134.609375 264.101562 135.039062 C 264.605469 135.894531 265.535156 136.472656 266.601562 136.472656 C 267.132812 136.472656 267.632812 136.332031 268.058594 136.082031 C 268.917969 135.578125 269.496094 134.648438 269.496094 133.582031 "/>
<path style=" stroke:none;fill-rule:nonzero;fill:rgb(92.941284%,21.176147%,14.117432%);fill-opacity:1;" d="M 103.394531 81.699219 C 103.496094 82.011719 103.324219 82.347656 103.011719 82.449219 C 102.695312 82.550781 102.359375 82.378906 102.257812 82.066406 C 102.128906 81.660156 102.199219 81.351562 102.199219 81.054688 L 102.210938 80.753906 C 102.203125 80.71875 102.285156 80.9375 102.257812 80.886719 C 102.210938 80.800781 102.59375 81.148438 102.496094 81.105469 C 102.425781 81.074219 102.738281 81.148438 102.6875 81.148438 C 102.617188 81.148438 102.839844 81.117188 102.820312 81.125 L 101.90625 82.117188 L 101.015625 83.296875 L 100.199219 84.585938 C 99.933594 85.082031 99.796875 85.605469 99.722656 86.074219 C 99.464844 87.691406 100.355469 88.574219 101.535156 88.890625 C 102.734375 89.210938 104.113281 88.832031 104.539062 88.15625 C 104.71875 87.878906 105.085938 87.796875 105.363281 87.972656 C 105.640625 88.148438 105.722656 88.515625 105.546875 88.792969 C 104.714844 90.113281 102.828125 90.46875 101.226562 90.042969 C 100.421875 89.828125 99.652344 89.386719 99.132812 88.683594 C 98.609375 87.972656 98.371094 86.988281 98.546875 85.886719 C 98.636719 85.332031 98.800781 84.675781 99.148438 84.023438 L 100.035156 82.617188 L 100.976562 81.371094 C 101.425781 80.8125 101.773438 80.402344 102.144531 80.144531 C 102.289062 80.046875 102.453125 79.949219 102.707031 79.957031 C 102.984375 79.960938 103.324219 80.25 103.378906 80.515625 L 103.390625 81.046875 Z M 103.394531 81.699219 "/>
<path style=" stroke:none;fill-rule:nonzero;fill:rgb(92.941284%,21.176147%,14.117432%);fill-opacity:1;" d="M 107.945312 84.574219 C 108.273438 84.574219 108.539062 84.84375 108.539062 85.171875 C 108.535156 85.503906 108.269531 85.769531 107.9375 85.765625 C 107.875 85.765625 108.257812 85.675781 108.171875 85.714844 C 108.089844 85.753906 108.4375 85.480469 108.386719 85.546875 C 108.335938 85.609375 108.492188 85.320312 108.476562 85.371094 C 108.449219 85.460938 108.496094 85.167969 108.5 85.199219 L 108.496094 85.167969 L 108.679688 85.632812 C 109.023438 86.445312 109.421875 87.628906 109.699219 88.769531 L 109.980469 90.351562 L 110.023438 90.566406 L 109.96875 90.496094 C 110.019531 90.546875 109.605469 90.339844 109.714844 90.359375 C 109.820312 90.378906 109.429688 90.394531 109.476562 90.375 C 109.785156 90.257812 110.128906 90.410156 110.246094 90.71875 C 110.367188 91.023438 110.214844 91.371094 109.90625 91.488281 C 109.609375 91.605469 109.105469 91.375 108.976562 91.140625 C 108.65625 90.546875 108.753906 89.925781 108.539062 89.050781 C 108.28125 87.984375 107.890625 86.832031 107.582031 86.09375 L 107.367188 85.546875 L 107.308594 85.214844 C 107.308594 85.125 107.316406 84.988281 107.429688 84.832031 C 107.550781 84.667969 107.789062 84.574219 107.945312 84.574219 "/>
<path style=" stroke:none;fill-rule:nonzero;fill:rgb(92.941284%,21.176147%,14.117432%);fill-opacity:1;" d="M 191.25 82 C 191.085938 82.289062 190.722656 82.390625 190.433594 82.226562 C 190.148438 82.0625 190.046875 81.699219 190.210938 81.414062 L 190.464844 80.960938 L 190.527344 80.828125 L 190.515625 80.921875 C 190.515625 80.828125 190.628906 81.1875 190.59375 81.144531 C 190.558594 81.101562 190.703125 81.222656 190.679688 81.214844 L 190.761719 81.238281 L 190.027344 81.53125 L 188.992188 82.167969 C 188.472656 82.558594 187.925781 83.074219 187.484375 83.671875 C 187.128906 84.152344 186.859375 84.71875 186.714844 85.246094 C 186.5625 85.792969 186.648438 86.328125 186.878906 86.726562 C 186.996094 86.933594 187.359375 87.160156 187.8125 87.386719 L 189.113281 87.984375 C 190.472656 88.472656 191.167969 88.4375 191.984375 87.949219 C 192.265625 87.777344 192.632812 87.871094 192.800781 88.152344 C 192.96875 88.433594 192.878906 88.800781 192.597656 88.96875 C 191.507812 89.625 190.25 89.660156 188.707031 89.105469 L 187.273438 88.453125 C 186.792969 88.210938 186.195312 87.933594 185.84375 87.320312 C 185.457031 86.644531 185.328125 85.78125 185.5625 84.925781 C 185.75 84.25 186.078125 83.570312 186.523438 82.964844 C 187.046875 82.25 187.679688 81.664062 188.277344 81.214844 L 189.492188 80.464844 C 190.03125 80.195312 190.492188 79.824219 191.167969 80.125 C 191.433594 80.246094 191.703125 80.511719 191.707031 80.902344 C 191.714844 81.230469 191.589844 81.367188 191.550781 81.457031 Z M 191.25 82 "/>
<path style=" stroke:none;fill-rule:nonzero;fill:rgb(92.941284%,21.176147%,14.117432%);fill-opacity:1;" d="M 195.460938 85.625 C 195.714844 85.832031 195.753906 86.210938 195.546875 86.464844 C 195.335938 86.71875 194.960938 86.757812 194.707031 86.550781 C 194.402344 86.300781 194.152344 85.746094 194.417969 85.34375 C 194.664062 84.972656 195.015625 84.910156 195.335938 84.886719 C 195.824219 84.851562 196.363281 85 196.800781 85.371094 C 197.105469 85.632812 197.320312 86.003906 197.429688 86.425781 C 197.527344 86.808594 197.507812 87.183594 197.480469 87.554688 C 197.433594 88.125 197.265625 88.671875 197.128906 89.167969 L 196.769531 90.570312 C 196.757812 90.710938 196.636719 90.558594 196.800781 90.597656 C 197.066406 90.664062 197.546875 90.664062 198.0625 90.601562 C 198.714844 90.519531 199.421875 90.292969 200.066406 90.058594 C 200.699219 89.832031 201.210938 89.59375 201.714844 89.542969 C 202.042969 89.511719 202.335938 89.75 202.367188 90.078125 C 202.398438 90.40625 202.160156 90.699219 201.832031 90.730469 C 201.40625 90.773438 199.824219 91.585938 198.207031 91.785156 C 197.605469 91.859375 197.027344 91.882812 196.515625 91.753906 C 195.96875 91.621094 195.535156 91 195.582031 90.464844 C 195.628906 89.949219 195.820312 89.425781 195.980469 88.851562 C 196.117188 88.351562 196.257812 87.859375 196.289062 87.457031 L 196.273438 86.722656 C 196.214844 86.496094 196.128906 86.363281 196.03125 86.28125 C 195.859375 86.136719 195.589844 86.066406 195.417969 86.078125 L 195.316406 86.097656 L 195.371094 86.054688 C 195.339844 86.085938 195.484375 85.828125 195.460938 85.898438 C 195.445312 85.953125 195.46875 85.683594 195.476562 85.734375 C 195.484375 85.804688 195.421875 85.585938 195.429688 85.601562 Z M 195.460938 85.625 "/>
<path style=" stroke:none;fill-rule:nonzero;fill:rgb(7.058716%,1.176453%,46.665955%);fill-opacity:1;" d="M 144.078125 117.6875 C 144.078125 118.851562 143.128906 119.796875 141.964844 119.796875 C 140.796875 119.796875 139.851562 118.851562 139.851562 117.6875 C 139.851562 116.519531 140.796875 115.574219 141.964844 115.574219 C 143.128906 115.574219 144.078125 116.519531 144.078125 117.6875 "/>
<path style=" stroke:none;fill-rule:nonzero;fill:rgb(7.058716%,1.176453%,46.665955%);fill-opacity:1;" d="M 144.671875 117.6875 C 144.671875 118.683594 144.132812 119.554688 143.328125 120.023438 C 142.929688 120.257812 142.460938 120.394531 141.964844 120.394531 C 140.964844 120.394531 140.09375 119.855469 139.625 119.050781 C 139.390625 118.648438 139.257812 118.183594 139.257812 117.6875 C 139.257812 116.6875 139.796875 115.816406 140.601562 115.347656 C 141 115.113281 141.46875 114.976562 141.964844 114.976562 C 142.960938 114.976562 143.835938 115.519531 144.304688 116.320312 C 144.539062 116.722656 144.671875 117.1875 144.671875 117.6875 M 143.480469 117.6875 C 143.480469 117.40625 143.40625 117.148438 143.273438 116.921875 C 143.011719 116.472656 142.523438 116.171875 141.964844 116.171875 C 141.6875 116.171875 141.425781 116.246094 141.203125 116.375 C 140.75 116.640625 140.449219 117.128906 140.449219 117.6875 C 140.449219 117.964844 140.523438 118.226562 140.65625 118.449219 C 140.917969 118.898438 141.40625 119.203125 141.964844 119.203125 C 142.242188 119.203125 142.503906 119.125 142.726562 118.996094 C 143.175781 118.734375 143.480469 118.246094 143.480469 117.6875 "/>
<path style=" stroke:none;fill-rule:nonzero;fill:rgb(7.058716%,1.176453%,46.665955%);fill-opacity:1;" d="M 144.078125 65.808594 C 144.078125 66.976562 143.128906 67.921875 141.964844 67.921875 C 140.796875 67.921875 139.851562 66.976562 139.851562 65.808594 C 139.851562 64.644531 140.796875 63.699219 141.964844 63.699219 C 143.128906 63.699219 144.078125 64.644531 144.078125 65.808594 "/>
<path style=" stroke:none;fill-rule:nonzero;fill:rgb(7.058716%,1.176453%,46.665955%);fill-opacity:1;" d="M 144.671875 65.808594 C 144.671875 66.808594 144.132812 67.679688 143.328125 68.148438 C 142.929688 68.382812 142.460938 68.519531 141.964844 68.519531 C 140.964844 68.519531 140.09375 67.976562 139.625 67.175781 C 139.390625 66.773438 139.257812 66.308594 139.257812 65.808594 C 139.257812 64.8125 139.796875 63.941406 140.601562 63.46875 C 141 63.234375 141.46875 63.101562 141.964844 63.101562 C 142.960938 63.101562 143.835938 63.640625 144.304688 64.445312 C 144.539062 64.847656 144.671875 65.3125 144.671875 65.808594 M 143.480469 65.808594 C 143.480469 65.53125 143.40625 65.269531 143.273438 65.046875 C 143.011719 64.597656 142.523438 64.292969 141.964844 64.292969 C 141.6875 64.292969 141.425781 64.367188 141.203125 64.5 C 140.75 64.761719 140.449219 65.25 140.449219 65.808594 C 140.449219 66.089844 140.523438 66.347656 140.65625 66.574219 C 140.917969 67.023438 141.40625 67.324219 141.964844 67.324219 C 142.242188 67.324219 142.503906 67.25 142.726562 67.121094 C 143.175781 66.855469 143.480469 66.367188 143.480469 65.808594 "/>
<path style=" stroke:none;fill-rule:nonzero;fill:rgb(7.058716%,1.176453%,46.665955%);fill-opacity:1;" d="M 151.523438 65.808594 C 151.523438 66.976562 150.578125 67.921875 149.410156 67.921875 C 148.246094 67.921875 147.300781 66.976562 147.300781 65.808594 C 147.300781 64.644531 148.246094 63.699219 149.410156 63.699219 C 150.578125 63.699219 151.523438 64.644531 151.523438 65.808594 "/>
<path style=" stroke:none;fill-rule:nonzero;fill:rgb(7.058716%,1.176453%,46.665955%);fill-opacity:1;" d="M 152.117188 65.808594 C 152.117188 66.808594 151.578125 67.679688 150.777344 68.148438 C 150.375 68.382812 149.910156 68.519531 149.410156 68.519531 C 148.414062 68.519531 147.539062 67.976562 147.070312 67.175781 C 146.835938 66.773438 146.703125 66.308594 146.703125 65.808594 C 146.703125 64.8125 147.242188 63.941406 148.046875 63.46875 C 148.445312 63.234375 148.914062 63.101562 149.410156 63.101562 C 150.410156 63.101562 151.28125 63.640625 151.75 64.445312 C 151.984375 64.847656 152.117188 65.3125 152.117188 65.808594 M 150.925781 65.808594 C 150.925781 65.53125 150.851562 65.269531 150.722656 65.046875 C 150.457031 64.597656 149.96875 64.292969 149.410156 64.292969 C 149.132812 64.292969 148.871094 64.367188 148.648438 64.5 C 148.199219 64.761719 147.894531 65.25 147.894531 65.808594 C 147.894531 66.089844 147.96875 66.347656 148.101562 66.574219 C 148.363281 67.023438 148.851562 67.324219 149.410156 67.324219 C 149.6875 67.324219 149.949219 67.25 150.175781 67.121094 C 150.625 66.855469 150.925781 66.367188 150.925781 65.808594 "/>
<path style=" stroke:none;fill-rule:nonzero;fill:rgb(7.058716%,1.176453%,46.665955%);fill-opacity:1;" d="M 219.8125 65.613281 C 219.8125 66.777344 218.867188 67.722656 217.699219 67.722656 C 216.535156 67.722656 215.589844 66.777344 215.589844 65.613281 C 215.589844 64.445312 216.535156 63.5 217.699219 63.5 C 218.867188 63.5 219.8125 64.445312 219.8125 65.613281 "/>
<path style=" stroke:none;fill-rule:nonzero;fill:rgb(7.058716%,1.176453%,46.665955%);fill-opacity:1;" d="M 220.410156 65.613281 C 220.410156 66.609375 219.867188 67.480469 219.066406 67.953125 C 218.664062 68.183594 218.199219 68.320312 217.699219 68.320312 C 216.703125 68.320312 215.832031 67.78125 215.359375 66.976562 C 215.125 66.574219 214.992188 66.109375 214.992188 65.613281 C 214.992188 64.613281 215.53125 63.742188 216.335938 63.273438 C 216.738281 63.039062 217.203125 62.902344 217.699219 62.902344 C 218.699219 62.902344 219.570312 63.445312 220.039062 64.246094 C 220.273438 64.648438 220.410156 65.113281 220.410156 65.613281 M 219.214844 65.613281 C 219.214844 65.332031 219.140625 65.074219 219.011719 64.847656 C 218.746094 64.398438 218.257812 64.097656 217.699219 64.097656 C 217.421875 64.097656 217.160156 64.171875 216.9375 64.300781 C 216.488281 64.566406 216.183594 65.054688 216.183594 65.613281 C 216.183594 65.890625 216.261719 66.152344 216.390625 66.375 C 216.652344 66.824219 217.140625 67.128906 217.699219 67.128906 C 217.980469 67.128906 218.238281 67.050781 218.464844 66.921875 C 218.914062 66.660156 219.214844 66.171875 219.214844 65.613281 "/>
<path style=" stroke:none;fill-rule:nonzero;fill:rgb(7.058716%,1.176453%,46.665955%);fill-opacity:1;" d="M 254.070312 133.582031 C 254.070312 134.746094 253.125 135.691406 251.957031 135.691406 C 250.792969 135.691406 249.847656 134.746094 249.847656 133.582031 C 249.847656 132.414062 250.792969 131.46875 251.957031 131.46875 C 253.125 131.46875 254.070312 132.414062 254.070312 133.582031 "/>
<path style=" stroke:none;fill-rule:nonzero;fill:rgb(7.058716%,1.176453%,46.665955%);fill-opacity:1;" d="M 254.667969 133.582031 C 254.667969 134.578125 254.125 135.449219 253.324219 135.921875 C 252.921875 136.152344 252.457031 136.289062 251.957031 136.289062 C 250.960938 136.289062 250.089844 135.75 249.617188 134.945312 C 249.382812 134.542969 249.25 134.078125 249.25 133.582031 C 249.25 132.582031 249.789062 131.710938 250.59375 131.242188 C 250.996094 131.007812 251.460938 130.871094 251.957031 130.871094 C 252.957031 130.871094 253.828125 131.414062 254.296875 132.214844 C 254.53125 132.617188 254.667969 133.082031 254.667969 133.582031 M 253.472656 133.582031 C 253.472656 133.300781 253.398438 133.042969 253.269531 132.816406 C 253.003906 132.367188 252.515625 132.066406 251.957031 132.066406 C 251.679688 132.066406 251.417969 132.140625 251.195312 132.269531 C 250.746094 132.535156 250.441406 133.023438 250.441406 133.582031 C 250.441406 133.859375 250.515625 134.121094 250.648438 134.34375 C 250.910156 134.792969 251.398438 135.097656 251.957031 135.097656 C 252.234375 135.097656 252.496094 135.019531 252.722656 134.890625 C 253.171875 134.628906 253.472656 134.140625 253.472656 133.582031 "/>
<path style=" stroke:none;fill-rule:nonzero;fill:rgb(7.058716%,1.176453%,46.665955%);fill-opacity:1;" d="M 254.613281 134.121094 C 254.613281 135.289062 253.664062 136.234375 252.5 136.234375 C 251.332031 136.234375 250.386719 135.289062 250.386719 134.121094 C 250.386719 132.957031 251.332031 132.011719 252.5 132.011719 C 253.664062 132.011719 254.613281 132.957031 254.613281 134.121094 "/>
<path style=" stroke:none;fill-rule:nonzero;fill:rgb(7.058716%,1.176453%,46.665955%);fill-opacity:1;" d="M 255.207031 134.121094 C 255.207031 135.121094 254.667969 135.992188 253.863281 136.460938 C 253.464844 136.695312 252.996094 136.832031 252.5 136.832031 C 251.5 136.832031 250.628906 136.289062 250.160156 135.488281 C 249.925781 135.085938 249.792969 134.621094 249.792969 134.121094 C 249.792969 133.125 250.332031 132.253906 251.136719 131.78125 C 251.535156 131.546875 252.003906 131.414062 252.5 131.414062 C 253.496094 131.414062 254.371094 131.953125 254.839844 132.757812 C 255.074219 133.160156 255.207031 133.625 255.207031 134.121094 M 254.015625 134.121094 C 254.015625 133.84375 253.941406 133.582031 253.808594 133.359375 C 253.546875 132.910156 253.058594 132.605469 252.5 132.605469 C 252.222656 132.605469 251.960938 132.679688 251.738281 132.8125 C 251.285156 133.074219 250.984375 133.5625 250.984375 134.121094 C 250.984375 134.398438 251.058594 134.660156 251.191406 134.886719 C 251.453125 135.335938 251.941406 135.636719 252.5 135.636719 C 252.777344 135.636719 253.039062 135.5625 253.261719 135.433594 C 253.710938 135.167969 254.015625 134.679688 254.015625 134.121094 "/>
<path style=" stroke:none;fill-rule:nonzero;fill:rgb(0%,45.097351%,23.136902%);fill-opacity:1;" d="M 16.46875 78.226562 C 16.757812 78.558594 16.71875 79.058594 16.386719 79.347656 C 16.054688 79.632812 15.550781 79.597656 15.265625 79.261719 L 14.914062 78.859375 C 14.910156 78.859375 15.070312 78.980469 14.992188 78.925781 C 14.957031 78.898438 15.34375 79.074219 15.210938 79.03125 C 15.144531 79.011719 15.613281 79.058594 15.488281 79.066406 C 15.367188 79.074219 16.042969 78.816406 15.910156 78.914062 C 15.78125 79.007812 16.214844 78.484375 16.167969 78.59375 C 16.125 78.6875 16.238281 78.292969 16.230469 78.355469 C 16.21875 78.464844 16.214844 78.09375 16.222656 78.140625 C 16.234375 78.210938 16.183594 77.996094 16.191406 78.015625 C 16.210938 78.066406 16.171875 77.976562 16.183594 77.992188 L 16.566406 78.78125 L 17.335938 80.683594 L 18.605469 84.335938 L 19.394531 86.4375 L 19.992188 88.101562 L 20.070312 88.304688 L 20.082031 88.328125 C 20.085938 88.335938 19.992188 88.195312 20.03125 88.246094 C 20.070312 88.300781 19.695312 87.980469 19.808594 88.046875 C 19.867188 88.082031 19.519531 87.941406 19.597656 87.960938 C 19.761719 88 18.972656 88.050781 19.109375 87.996094 C 19.234375 87.941406 18.792969 88.226562 18.84375 88.171875 C 18.941406 88.074219 18.683594 88.414062 18.703125 88.375 C 18.734375 88.308594 18.675781 88.453125 18.675781 88.453125 L 18.863281 87.144531 L 19.339844 84.519531 L 19.984375 80.410156 L 20.261719 78.234375 L 20.46875 75.992188 L 20.492188 75.261719 L 20.515625 75.328125 L 20.570312 75.421875 C 20.546875 75.390625 20.722656 75.582031 20.671875 75.535156 C 20.628906 75.5 20.941406 75.699219 20.855469 75.65625 C 20.785156 75.625 21.253906 75.734375 21.136719 75.726562 C 21.042969 75.722656 21.542969 75.652344 21.4375 75.6875 C 21.28125 75.742188 21.890625 75.316406 21.808594 75.421875 C 21.730469 75.523438 21.960938 75.078125 21.941406 75.152344 C 21.914062 75.257812 21.960938 74.933594 21.960938 74.964844 C 21.96875 75.054688 22.058594 75.253906 22.289062 75.550781 C 22.558594 75.898438 22.496094 76.398438 22.152344 76.667969 C 21.804688 76.9375 21.304688 76.875 21.035156 76.527344 L 20.53125 75.671875 C 20.425781 75.410156 20.273438 75.242188 20.402344 74.742188 C 20.445312 74.589844 20.574219 74.332031 20.863281 74.207031 C 21.371094 73.988281 21.667969 74.28125 21.78125 74.394531 C 22.058594 74.683594 22.070312 74.914062 22.082031 75.191406 L 22.054688 76.089844 L 21.839844 78.421875 L 21.558594 80.628906 L 20.902344 84.8125 L 20.4375 87.363281 L 20.28125 88.492188 L 20.210938 88.867188 L 20.070312 89.175781 C 20 89.277344 19.847656 89.484375 19.492188 89.523438 C 19.125 89.5625 18.855469 89.328125 18.761719 89.203125 C 18.554688 88.925781 18.566406 88.820312 18.515625 88.691406 L 17.90625 87.003906 L 17.105469 84.863281 L 15.847656 81.242188 L 15.128906 79.460938 L 14.761719 78.707031 C 14.734375 78.652344 14.613281 78.808594 14.648438 78.226562 C 14.65625 78.0625 14.796875 77.664062 15.164062 77.527344 C 15.78125 77.296875 15.867188 77.59375 15.929688 77.640625 C 16.210938 77.851562 16.226562 77.941406 16.46875 78.226562 "/>
<path style=" stroke:none;fill-rule:nonzero;fill:rgb(0%,45.097351%,23.136902%);fill-opacity:1;" d="M 25.789062 84.746094 C 26.003906 85.125 25.867188 85.613281 25.488281 85.828125 C 25.105469 86.042969 24.621094 85.910156 24.402344 85.527344 L 24.339844 85.421875 C 24.335938 85.421875 24.535156 85.5625 24.445312 85.507812 C 24.40625 85.484375 24.703125 85.601562 24.625 85.582031 C 24.550781 85.5625 24.992188 85.582031 24.894531 85.59375 C 24.800781 85.609375 25.226562 85.464844 25.152344 85.507812 C 25.019531 85.585938 25.433594 85.207031 25.398438 85.269531 C 25.367188 85.320312 25.449219 85.148438 25.445312 85.167969 L 25.484375 85.847656 C 25.601562 86.734375 25.945312 87.933594 26.246094 88.882812 L 26.648438 89.929688 C 26.652344 89.933594 26.402344 89.96875 26.742188 89.765625 C 27.121094 89.542969 27.609375 89.667969 27.832031 90.046875 C 28.054688 90.425781 27.929688 90.910156 27.550781 91.136719 C 26.875 91.535156 25.90625 91.5 25.449219 90.972656 C 25.023438 90.480469 24.910156 89.921875 24.734375 89.363281 C 24.417969 88.378906 24.050781 87.140625 23.90625 86.054688 C 23.835938 85.53125 23.765625 85.128906 23.945312 84.636719 C 23.996094 84.5 24.078125 84.308594 24.324219 84.148438 C 24.722656 83.894531 25.234375 84.097656 25.421875 84.261719 Z M 25.789062 84.746094 "/>
<path style=" stroke:none;fill-rule:nonzero;fill:rgb(0%,45.097351%,23.136902%);fill-opacity:1;" d="M 27.972656 83.082031 C 28.398438 83.1875 28.65625 83.621094 28.546875 84.046875 C 28.4375 84.472656 28.007812 84.730469 27.582031 84.621094 L 27.6875 84.636719 C 27.640625 84.636719 27.933594 84.601562 27.863281 84.621094 C 27.730469 84.652344 28.328125 84.269531 28.238281 84.382812 C 28.164062 84.476562 28.378906 84.070312 28.363281 84.132812 C 28.339844 84.230469 28.375 84.007812 28.375 84.011719 L 28.5625 84.578125 L 29.207031 85.957031 L 29.542969 86.585938 L 29.5625 86.617188 L 29.5 86.566406 C 29.53125 86.585938 29.292969 86.488281 29.355469 86.503906 C 29.457031 86.535156 28.859375 86.554688 28.988281 86.511719 C 29.109375 86.472656 28.679688 86.730469 28.726562 86.675781 C 28.769531 86.632812 28.691406 86.730469 28.703125 86.703125 C 28.855469 86.34375 28.953125 85.003906 29.117188 83.792969 C 29.210938 83.097656 29.296875 82.441406 29.507812 81.875 C 29.699219 81.359375 30.097656 80.855469 30.71875 80.761719 C 31.441406 80.648438 31.871094 81.101562 32.195312 81.464844 C 32.519531 81.828125 32.789062 82.25 33.03125 82.640625 L 33.753906 83.824219 C 34.195312 84.519531 34.765625 84.976562 34.769531 84.976562 C 35.203125 85.03125 35.511719 85.429688 35.457031 85.863281 C 35.398438 86.300781 35 86.609375 34.566406 86.550781 C 33.480469 86.414062 32.933594 85.496094 32.410156 84.675781 L 31.679688 83.476562 L 31.007812 82.523438 L 30.789062 82.320312 L 30.804688 82.324219 C 30.773438 82.316406 31.027344 82.320312 30.960938 82.332031 C 30.890625 82.34375 31.078125 82.28125 31.074219 82.285156 L 31 82.429688 C 30.878906 82.75 30.78125 83.332031 30.691406 84.007812 L 30.460938 86.007812 C 30.378906 86.648438 30.394531 87.207031 29.90625 87.746094 C 29.664062 88.015625 29.089844 88.128906 28.765625 87.976562 C 28.46875 87.832031 28.332031 87.640625 28.214844 87.464844 L 27.796875 86.6875 L 27.089844 85.179688 C 26.960938 84.855469 26.839844 84.554688 26.796875 84.207031 C 26.777344 84.027344 26.738281 83.78125 26.945312 83.460938 C 27.171875 83.109375 27.703125 83.011719 27.972656 83.082031 "/>
<path style=" stroke:none;fill-rule:nonzero;fill:rgb(0%,45.097351%,23.136902%);fill-opacity:1;" d="M 268.589844 118.460938 C 268.445312 118.875 267.988281 119.089844 267.574219 118.941406 C 267.160156 118.792969 266.945312 118.339844 267.09375 117.925781 L 267.144531 117.175781 L 267.144531 116.613281 L 267.148438 116.664062 L 267.160156 116.742188 L 267.179688 116.816406 C 267.167969 116.78125 267.277344 117.023438 267.242188 116.957031 C 267.222656 116.925781 267.363281 117.125 267.324219 117.078125 C 267.28125 117.03125 267.589844 117.292969 267.503906 117.238281 C 267.417969 117.183594 267.984375 117.375 267.847656 117.359375 C 267.710938 117.34375 268.34375 117.261719 268.234375 117.308594 C 268.128906 117.351562 268.523438 117.109375 268.46875 117.160156 C 268.367188 117.25 268.664062 116.890625 268.636719 116.945312 C 268.589844 117.035156 268.710938 116.742188 268.703125 116.773438 C 268.675781 116.875 268.722656 116.636719 268.722656 116.648438 L 268.730469 116.769531 C 268.777344 117.3125 269.03125 118.542969 269.359375 119.808594 C 269.746094 121.316406 270.292969 122.710938 270.695312 123.496094 L 270.898438 123.847656 L 270.867188 123.816406 C 270.90625 123.847656 270.535156 123.695312 270.648438 123.71875 C 270.761719 123.742188 270.214844 123.785156 270.304688 123.75 C 270.394531 123.714844 270.191406 123.816406 270.199219 123.8125 C 270.398438 123.589844 270.921875 122.128906 271.265625 120.394531 C 271.582031 118.8125 271.699219 116.894531 271.914062 115.355469 C 272.019531 114.589844 272.152344 113.976562 272.3125 113.492188 C 272.429688 113.144531 272.542969 112.859375 272.777344 112.597656 C 272.964844 112.390625 273.417969 112.128906 273.863281 112.300781 C 274.484375 112.539062 274.519531 112.992188 274.589844 113.351562 L 274.6875 114.703125 C 274.683594 115.144531 274.320312 115.492188 273.882812 115.488281 C 273.445312 115.484375 273.09375 115.121094 273.097656 114.683594 L 273.015625 113.585938 L 273.019531 113.574219 C 273.003906 113.550781 273.152344 113.710938 273.105469 113.671875 C 273.058594 113.632812 273.386719 113.820312 273.300781 113.785156 C 273.21875 113.757812 273.65625 113.824219 273.566406 113.828125 C 273.484375 113.832031 273.84375 113.753906 273.785156 113.777344 C 273.679688 113.820312 273.980469 113.640625 273.957031 113.664062 C 273.917969 113.707031 273.660156 114.363281 273.488281 115.574219 C 273.285156 117.03125 273.167969 118.976562 272.824219 120.703125 C 272.617188 121.753906 272.378906 122.710938 272.101562 123.484375 C 271.839844 124.230469 271.703125 124.898438 270.898438 125.226562 C 270.441406 125.40625 269.917969 125.132812 269.714844 124.90625 L 269.28125 124.222656 C 268.804688 123.292969 268.238281 121.832031 267.816406 120.207031 C 267.476562 118.890625 267.214844 117.664062 267.148438 116.910156 L 267.136719 116.542969 L 267.152344 116.417969 C 267.164062 116.359375 266.949219 116.226562 267.53125 115.886719 C 267.816406 115.71875 268.335938 115.847656 268.503906 116.015625 C 268.914062 116.433594 268.722656 116.449219 268.726562 116.496094 L 268.734375 116.597656 L 268.734375 117.160156 C 268.738281 117.554688 268.761719 117.988281 268.589844 118.460938 "/>
<path style=" stroke:none;fill-rule:nonzero;fill:rgb(0%,45.097351%,23.136902%);fill-opacity:1;" d="M 275.632812 120.285156 C 275.710938 119.851562 276.125 119.566406 276.558594 119.648438 C 276.988281 119.726562 277.277344 120.140625 277.195312 120.570312 C 277.125 120.957031 276.976562 121.320312 276.898438 121.949219 L 276.875 123.078125 L 277.015625 123.753906 C 277.03125 123.785156 277.242188 123.929688 277.5625 123.949219 C 277.769531 123.964844 278.039062 123.894531 278.277344 123.746094 C 278.496094 123.605469 278.742188 123.226562 278.886719 122.804688 C 278.976562 122.542969 278.996094 122.296875 278.945312 122.050781 C 278.816406 121.382812 277.929688 120.4375 277.03125 119.996094 C 276.605469 119.789062 276.222656 119.730469 276.074219 119.761719 C 275.96875 119.78125 275.976562 119.714844 275.945312 120.003906 C 275.894531 120.4375 275.503906 120.753906 275.066406 120.707031 C 274.628906 120.65625 274.316406 120.265625 274.363281 119.828125 C 274.453125 119.03125 275.0625 118.339844 275.761719 118.199219 C 276.777344 117.996094 277.773438 118.480469 278.640625 119.125 C 279.515625 119.777344 280.292969 120.660156 280.507812 121.746094 C 280.613281 122.277344 280.558594 122.824219 280.390625 123.320312 C 280.175781 123.945312 279.820312 124.648438 279.125 125.089844 C 278.628906 125.402344 278.050781 125.574219 277.460938 125.539062 C 276.789062 125.496094 275.953125 125.238281 275.574219 124.425781 C 275.382812 124.015625 275.332031 123.609375 275.292969 123.242188 C 275.238281 122.71875 275.265625 122.210938 275.320312 121.757812 C 275.414062 120.964844 275.617188 120.367188 275.632812 120.285156 "/>
<path style=" stroke:none;fill-rule:nonzero;fill:rgb(0%,45.097351%,23.136902%);fill-opacity:1;" d="M 281.804688 119.183594 C 282.121094 119.492188 282.125 119.996094 281.816406 120.308594 C 281.507812 120.621094 281.003906 120.625 280.691406 120.320312 L 280.636719 120.269531 L 280.695312 120.300781 C 280.652344 120.28125 281.003906 120.347656 280.90625 120.34375 C 280.8125 120.339844 281.320312 120.226562 281.214844 120.277344 C 281.121094 120.320312 281.5 120.039062 281.445312 120.105469 C 281.351562 120.210938 281.59375 119.789062 281.582031 119.84375 C 281.566406 119.917969 281.589844 119.761719 281.59375 119.777344 L 281.617188 119.902344 C 281.679688 120.136719 281.984375 120.679688 282.332031 121.203125 C 282.71875 121.785156 283.0625 122.289062 283.34375 122.519531 L 283.601562 122.691406 C 283.667969 122.695312 283.363281 122.734375 283.414062 122.714844 C 283.5 122.683594 283.308594 122.78125 283.320312 122.769531 C 283.390625 122.679688 283.550781 122.273438 283.613281 121.851562 L 283.652344 120.980469 L 283.621094 120.550781 L 283.605469 120.460938 L 283.617188 120.5 L 283.652344 120.574219 C 283.632812 120.535156 283.859375 120.832031 283.78125 120.753906 C 283.472656 120.4375 283.480469 119.933594 283.796875 119.628906 C 284.109375 119.324219 284.613281 119.328125 284.917969 119.644531 C 285.210938 119.941406 285.148438 120.125 285.148438 120.210938 L 285.097656 120.621094 L 285.179688 120.820312 L 285.628906 121.125 C 285.847656 121.257812 286.09375 121.332031 286.347656 121.367188 L 286.878906 121.40625 L 287.226562 121.058594 C 287.691406 120.507812 287.898438 119.523438 287.628906 117.804688 C 287.558594 117.371094 287.855469 116.964844 288.289062 116.894531 C 288.722656 116.828125 289.128906 117.121094 289.199219 117.554688 C 289.507812 119.507812 289.3125 121.054688 288.441406 122.085938 C 288.238281 122.324219 287.992188 122.652344 287.527344 122.859375 C 286.949219 123.117188 286.4375 122.984375 286.136719 122.941406 C 285.710938 122.886719 285.246094 122.753906 284.804688 122.484375 C 284.5625 122.339844 284.203125 122.171875 283.902344 121.765625 C 283.644531 121.414062 283.527344 121.035156 283.511719 120.703125 L 283.550781 120.226562 L 283.5625 120.144531 C 283.5625 120.140625 283.558594 120.28125 283.558594 120.222656 C 283.558594 120.191406 283.59375 120.457031 283.578125 120.378906 C 283.566406 120.335938 283.65625 120.59375 283.628906 120.53125 C 283.597656 120.46875 283.859375 120.832031 283.78125 120.753906 L 284.921875 119.644531 C 285.207031 119.941406 285.132812 120.007812 285.152344 120.09375 L 285.242188 120.945312 L 285.1875 122.089844 C 285.117188 122.535156 285.007812 122.984375 284.796875 123.390625 C 284.589844 123.800781 284.164062 124.335938 283.464844 124.273438 C 282.992188 124.234375 282.636719 124.003906 282.328125 123.746094 C 281.769531 123.28125 281.394531 122.664062 281.007812 122.082031 C 280.632812 121.515625 280.246094 120.941406 280.078125 120.300781 C 279.992188 119.980469 279.800781 119.644531 280.207031 119.109375 C 280.441406 118.800781 280.980469 118.714844 281.253906 118.8125 C 281.507812 118.902344 281.65625 119.039062 281.804688 119.183594 "/>
<path style=" stroke:none;fill-rule:nonzero;fill:rgb(0%,45.097351%,23.136902%);fill-opacity:1;" d="M 289.078125 110.460938 C 289.164062 110.894531 288.882812 111.3125 288.453125 111.398438 C 288.023438 111.484375 287.605469 111.203125 287.519531 110.773438 L 287.453125 110.417969 L 287.4375 110.089844 C 287.445312 110.023438 287.4375 109.921875 287.570312 109.722656 C 287.726562 109.496094 288.292969 109.324219 288.5625 109.445312 C 288.972656 109.632812 288.914062 109.75 288.941406 109.804688 L 289.246094 110.671875 L 289.714844 112.195312 L 290.847656 115.703125 L 291.476562 117.53125 L 292.136719 119.285156 L 292.21875 119.421875 C 292.234375 119.4375 292.035156 119.339844 292.097656 119.359375 C 292.167969 119.382812 291.777344 119.355469 291.859375 119.34375 L 291.78125 119.375 C 291.8125 119.355469 291.640625 119.527344 291.675781 119.476562 C 291.730469 119.398438 291.601562 119.828125 291.59375 119.75 C 291.589844 119.683594 291.617188 119.824219 291.585938 119.777344 C 291.34375 119.414062 291.441406 118.921875 291.804688 118.675781 C 292.167969 118.429688 292.664062 118.527344 292.90625 118.894531 C 293.164062 119.273438 293.28125 119.816406 293.058594 120.253906 C 292.84375 120.675781 292.453125 120.859375 292.109375 120.914062 C 291.429688 121.023438 290.960938 120.492188 290.710938 119.988281 L 289.976562 118.058594 L 289.339844 116.207031 L 288.195312 112.667969 L 287.582031 110.679688 L 287.523438 110.523438 L 287.542969 110.558594 L 287.585938 110.628906 C 287.558594 110.59375 287.839844 110.871094 287.742188 110.792969 C 287.636719 110.710938 288.761719 110.851562 288.429688 110.9375 C 288.117188 111.019531 289.007812 110.375 288.953125 110.5 C 288.902344 110.605469 289.019531 110.246094 289.015625 110.289062 C 289.003906 110.363281 289.019531 110.144531 289.019531 110.164062 Z M 289.078125 110.460938 "/>
<path style=" stroke:none;fill-rule:nonzero;fill:rgb(0%,45.097351%,23.136902%);fill-opacity:1;" d="M 286.804688 115.90625 C 287.246094 115.878906 287.621094 116.214844 287.648438 116.652344 C 287.671875 117.089844 287.335938 117.464844 286.898438 117.492188 C 286.558594 117.511719 286.226562 117.457031 285.921875 117.253906 C 285.597656 117.039062 285.3125 116.449219 285.507812 115.976562 C 285.839844 115.179688 286.492188 115.050781 287.214844 114.765625 C 289.546875 113.847656 293.179688 113.101562 294.890625 112.539062 C 295.304688 112.402344 295.757812 112.628906 295.894531 113.046875 C 296.03125 113.464844 295.804688 113.914062 295.386719 114.050781 C 294.167969 114.453125 292.171875 114.914062 290.265625 115.453125 L 287.796875 116.246094 L 287.0625 116.585938 L 286.917969 116.6875 C 286.90625 116.695312 287.011719 116.496094 286.976562 116.589844 C 286.953125 116.644531 287.019531 116.300781 287.015625 116.378906 C 287.015625 116.519531 286.84375 115.949219 286.902344 116.027344 C 286.945312 116.082031 286.765625 115.90625 286.792969 115.925781 C 286.859375 115.96875 286.753906 115.90625 286.804688 115.90625 "/>
<path style=" stroke:none;fill-rule:nonzero;fill:rgb(92.941284%,21.176147%,14.117432%);fill-opacity:1;" d="M 91.113281 132.335938 C 90.871094 132.558594 90.492188 132.539062 90.269531 132.296875 C 90.046875 132.054688 90.0625 131.679688 90.304688 131.457031 C 90.746094 131.050781 91.085938 130.652344 91.304688 130.226562 L 91.574219 129.546875 C 91.578125 129.519531 91.664062 129.550781 91.390625 129.539062 C 91.058594 129.527344 90.472656 129.683594 89.800781 130.113281 C 88.164062 131.148438 85.992188 133.34375 84.746094 135.75 C 84.089844 137.011719 83.859375 138.296875 83.953125 139.269531 C 84.046875 140.28125 84.816406 140.871094 85.644531 141.105469 C 86.222656 141.265625 86.765625 141.257812 87.332031 140.976562 C 88.570312 140.359375 89.988281 138.503906 90.796875 136.972656 C 91.058594 136.476562 91.21875 136.019531 91.277344 135.679688 L 91.261719 135.386719 L 91.273438 135.394531 C 91.253906 135.375 91.460938 135.460938 91.398438 135.449219 C 91.339844 135.441406 91.574219 135.4375 91.542969 135.445312 L 91.574219 135.4375 L 91.253906 135.839844 L 91.230469 135.886719 L 91.21875 135.8125 C 91.246094 135.875 91.164062 135.738281 91.179688 135.746094 L 91.976562 135.976562 C 92.515625 136.082031 93.191406 136.015625 93.863281 136.195312 C 94.59375 136.390625 94.984375 137.082031 95.113281 137.714844 C 95.308594 138.664062 95.1875 139.710938 95.273438 140.496094 C 95.3125 140.859375 95.398438 141.121094 95.484375 141.222656 C 95.554688 141.308594 95.617188 141.363281 95.929688 141.324219 C 96.257812 141.285156 96.554688 141.519531 96.59375 141.847656 C 96.632812 142.171875 96.398438 142.46875 96.074219 142.511719 C 95.277344 142.605469 94.558594 142.148438 94.304688 141.546875 C 93.929688 140.664062 94.058594 139.625 94.023438 138.730469 C 94.007812 138.296875 93.960938 137.917969 93.867188 137.675781 C 93.785156 137.460938 93.714844 137.386719 93.554688 137.347656 C 93.167969 137.242188 92.484375 137.289062 91.753906 137.148438 L 90.925781 136.941406 C 90.644531 136.835938 90.304688 136.699219 90.125 136.292969 C 89.964844 135.921875 90.058594 135.523438 90.21875 135.242188 L 90.667969 134.652344 C 90.855469 134.460938 91.113281 134.199219 91.582031 134.269531 C 92.324219 134.386719 92.570312 135.183594 92.453125 135.878906 C 92.367188 136.386719 92.160156 136.945312 91.851562 137.527344 C 90.964844 139.210938 89.550781 141.203125 87.863281 142.042969 C 87.015625 142.464844 86.117188 142.476562 85.320312 142.253906 C 84.160156 141.925781 82.914062 140.960938 82.765625 139.386719 C 82.644531 138.144531 82.933594 136.652344 83.6875 135.199219 C 85.054688 132.5625 87.304688 130.28125 89.160156 129.105469 C 89.984375 128.582031 90.761719 128.320312 91.4375 128.347656 C 92.097656 128.371094 92.796875 128.898438 92.769531 129.59375 C 92.746094 130.078125 92.53125 130.445312 92.367188 130.769531 C 92.0625 131.367188 91.617188 131.871094 91.113281 132.335938 "/>
<path style=" stroke:none;fill-rule:nonzero;fill:rgb(92.941284%,21.176147%,14.117432%);fill-opacity:1;" d="M 100.15625 137.210938 C 99.839844 137.128906 99.644531 136.804688 99.726562 136.488281 C 99.808594 136.167969 100.132812 135.976562 100.453125 136.058594 C 100.875 136.164062 101.152344 136.53125 101.273438 136.875 C 101.699219 138.066406 101.328125 139.769531 101.175781 141.433594 C 101.101562 142.25 101.058594 143.011719 101.121094 143.574219 C 101.175781 144.09375 101.320312 144.273438 101.363281 144.289062 C 101.671875 144.398438 101.835938 144.738281 101.726562 145.050781 C 101.613281 145.359375 101.273438 145.523438 100.964844 145.414062 C 100.148438 145.125 99.957031 144.226562 99.910156 143.394531 C 99.839844 142.101562 100.085938 140.550781 100.195312 139.195312 C 100.25 138.542969 100.269531 137.964844 100.214844 137.566406 L 100.121094 137.203125 Z M 100.15625 137.210938 "/>
<path style=" stroke:none;fill-rule:nonzero;fill:rgb(92.941284%,21.176147%,14.117432%);fill-opacity:1;" d="M 179.566406 9.023438 C 179.277344 9.179688 178.917969 9.070312 178.761719 8.78125 C 178.605469 8.492188 178.710938 8.128906 179.003906 7.972656 C 179.257812 7.835938 179.488281 7.5625 179.511719 7.34375 L 179.5 6.960938 C 179.460938 6.921875 179.636719 7.039062 179.613281 7.03125 C 179.570312 7.023438 179.351562 7.066406 178.933594 7.3125 C 178.472656 7.578125 177.90625 8.015625 177.273438 8.617188 C 176.585938 9.277344 175.785156 10.054688 175.023438 11.097656 C 174.386719 11.964844 173.773438 12.96875 173.265625 14.039062 C 172.742188 15.136719 172.425781 16.367188 172.222656 17.503906 C 172.050781 18.480469 172.058594 19.347656 172.214844 20.019531 C 172.417969 20.867188 173.222656 21.359375 174.128906 21.632812 C 175.496094 22.046875 177.019531 21.964844 178.050781 21.492188 C 178.84375 21.132812 179.324219 20.492188 179.488281 19.816406 C 179.652344 19.144531 179.269531 18.164062 178.65625 17.296875 L 177.871094 16.347656 L 177.277344 15.867188 L 177.183594 15.832031 L 177.242188 15.824219 C 177.21875 15.828125 177.394531 15.753906 177.347656 15.78125 C 177.296875 15.808594 177.589844 15.515625 177.527344 15.609375 C 177.421875 15.78125 177.582031 15.03125 177.609375 15.136719 C 177.632812 15.226562 177.511719 14.929688 177.53125 14.960938 C 177.570312 15.019531 177.441406 14.855469 177.457031 14.867188 C 177.5 14.914062 177.417969 14.835938 177.433594 14.847656 L 178.566406 15.554688 C 179.875 16.332031 181.574219 17.160156 182.742188 18.132812 C 183.425781 18.703125 183.785156 19.414062 183.957031 20.078125 C 184.121094 20.726562 184.144531 21.339844 184.242188 21.863281 C 184.300781 22.1875 184.085938 22.5 183.761719 22.558594 C 183.4375 22.617188 183.128906 22.402344 183.070312 22.078125 C 182.839844 20.84375 182.90625 19.824219 181.976562 19.050781 C 180.984375 18.222656 179.3125 17.386719 177.957031 16.578125 L 177.109375 16.0625 L 176.800781 15.859375 L 176.691406 15.78125 L 176.617188 15.714844 L 176.53125 15.613281 C 176.484375 15.539062 176.304688 15.308594 176.527344 14.960938 C 176.800781 14.542969 177.070312 14.628906 177.269531 14.640625 L 177.886719 14.84375 C 178.125 14.984375 178.421875 15.203125 178.726562 15.515625 L 179.632812 16.609375 C 180.34375 17.621094 180.949219 18.867188 180.648438 20.101562 C 180.398438 21.121094 179.660156 22.070312 178.546875 22.578125 C 177.1875 23.199219 175.421875 23.269531 173.785156 22.777344 C 172.679688 22.441406 171.394531 21.71875 171.054688 20.296875 C 170.847656 19.421875 170.851562 18.398438 171.050781 17.296875 C 171.261719 16.089844 171.601562 14.761719 172.1875 13.527344 C 172.730469 12.382812 173.382812 11.320312 174.0625 10.394531 C 174.890625 9.261719 175.75 8.425781 176.449219 7.757812 C 177.226562 7.015625 177.9375 6.472656 178.566406 6.152344 C 179.167969 5.84375 179.875 5.613281 180.375 6.152344 C 180.765625 6.570312 180.738281 7.074219 180.699219 7.464844 C 180.621094 8.222656 180.085938 8.742188 179.566406 9.023438 "/>
<path style=" stroke:none;fill-rule:nonzero;fill:rgb(92.941284%,21.176147%,14.117432%);fill-opacity:1;" d="M 188.527344 19.082031 C 188.421875 19.394531 188.085938 19.566406 187.773438 19.460938 C 187.460938 19.359375 187.289062 19.023438 187.394531 18.710938 L 187.335938 17.511719 C 187.328125 17.273438 187.238281 16.96875 187.359375 16.546875 C 187.503906 16.054688 187.960938 15.871094 188.3125 15.824219 C 188.660156 15.773438 189.015625 15.816406 189.34375 15.976562 C 190.15625 16.363281 190.339844 17.332031 190.335938 18.324219 C 190.332031 19.003906 190.210938 19.800781 189.933594 20.652344 C 189.390625 22.316406 188.230469 23.875 187.449219 24.917969 L 186.746094 25.660156 L 186.449219 25.84375 C 186.382812 25.871094 186.308594 26.03125 185.914062 25.832031 C 185.679688 25.714844 185.5625 25.339844 185.597656 25.175781 L 185.703125 24.933594 C 185.953125 24.582031 186.285156 24.410156 186.636719 24.171875 C 188.082031 23.1875 190.207031 23.0625 192.1875 23.199219 C 193.167969 23.265625 194.097656 23.410156 194.890625 23.597656 C 195.65625 23.78125 196.273438 23.972656 196.707031 24.28125 C 196.976562 24.472656 197.039062 24.84375 196.851562 25.113281 C 196.660156 25.382812 196.289062 25.445312 196.019531 25.253906 C 194.9375 24.492188 189.464844 23.6875 187.308594 25.15625 L 186.671875 25.628906 L 186.714844 25.558594 C 186.699219 25.589844 186.777344 25.351562 186.765625 25.417969 C 186.75 25.488281 186.714844 25.003906 186.753906 25.125 C 186.769531 25.1875 186.617188 24.886719 186.660156 24.941406 C 186.703125 25 186.464844 24.773438 186.515625 24.804688 C 186.613281 24.871094 186.195312 24.703125 186.261719 24.710938 C 186.324219 24.71875 186.089844 24.714844 186.125 24.710938 C 186.183594 24.703125 185.988281 24.742188 186.011719 24.734375 C 186.078125 24.710938 185.957031 24.761719 185.976562 24.746094 L 186.496094 24.203125 C 187.257812 23.183594 188.34375 21.679688 188.800781 20.285156 C 189.039062 19.546875 189.140625 18.863281 189.144531 18.316406 C 189.144531 17.539062 188.882812 17.078125 188.828125 17.050781 L 188.476562 17.003906 L 188.410156 17.019531 C 188.390625 17.03125 188.527344 16.800781 188.503906 16.878906 L 188.527344 17.484375 C 188.539062 17.984375 188.71875 18.496094 188.527344 19.082031 "/>
</g>
</svg>
