<?xml version="1.0" encoding="UTF-8"?>
<svg xmlns="http://www.w3.org/2000/svg" xmlns:xlink="http://www.w3.org/1999/xlink" width="276.7199pt" height="166.6407pt" viewBox="0 0 276.7199 166.6407" version="1.2">
<g id="surface1">
<path style=" stroke:none;fill-rule:nonzero;fill:rgb(7.058716%,1.176453%,46.665955%);fill-opacity:1;" d="M 39.09375 91.628906 C 38.765625 91.628906 38.5 91.363281 38.5 91.03125 C 38.5 90.703125 38.765625 90.4375 39.09375 90.4375 L 54.847656 90.4375 C 55.175781 90.4375 55.441406 90.703125 55.441406 91.03125 C 55.441406 91.363281 55.175781 91.628906 54.847656 91.628906 Z M 39.09375 91.628906 "/>
<path style=" stroke:none;fill-rule:nonzero;fill:rgb(7.058716%,1.176453%,46.665955%);fill-opacity:1;" d="M 90.554688 91.628906 C 90.226562 91.628906 89.960938 91.363281 89.960938 91.03125 C 89.960938 90.703125 90.226562 90.4375 90.554688 90.4375 L 107.277344 90.4375 C 107.605469 90.4375 107.871094 90.703125 107.871094 91.03125 C 107.871094 91.363281 107.605469 91.628906 107.277344 91.628906 Z M 90.554688 91.628906 "/>
<path style=" stroke:none;fill-rule:nonzero;fill:rgb(7.058716%,1.176453%,46.665955%);fill-opacity:1;" d="M 54.367188 91.1875 C 54.171875 90.921875 54.226562 90.546875 54.492188 90.351562 C 54.757812 90.15625 55.128906 90.210938 55.324219 90.476562 L 59.285156 95.847656 C 59.480469 96.113281 59.421875 96.484375 59.15625 96.679688 C 58.894531 96.875 58.519531 96.820312 58.324219 96.554688 Z M 54.367188 91.1875 "/>
<path style=" stroke:none;fill-rule:nonzero;fill:rgb(7.058716%,1.176453%,46.665955%);fill-opacity:1;" d="M 59.316406 96.507812 C 59.144531 96.789062 58.777344 96.882812 58.496094 96.710938 C 58.214844 96.542969 58.125 96.175781 58.292969 95.894531 L 64.523438 85.554688 C 64.691406 85.273438 65.058594 85.183594 65.339844 85.351562 C 65.621094 85.523438 65.714844 85.890625 65.542969 86.171875 Z M 59.316406 96.507812 "/>
<path style=" stroke:none;fill-rule:nonzero;fill:rgb(7.058716%,1.176453%,46.665955%);fill-opacity:1;" d="M 64.550781 86.21875 C 64.355469 85.953125 64.414062 85.578125 64.679688 85.382812 C 64.945312 85.1875 65.316406 85.246094 65.511719 85.511719 L 73.132812 95.847656 C 73.328125 96.113281 73.273438 96.484375 73.007812 96.679688 C 72.742188 96.875 72.367188 96.820312 72.171875 96.554688 Z M 64.550781 86.21875 "/>
<path style=" stroke:none;fill-rule:nonzero;fill:rgb(7.058716%,1.176453%,46.665955%);fill-opacity:1;" d="M 73.164062 96.507812 C 72.992188 96.789062 72.628906 96.882812 72.34375 96.710938 C 72.0625 96.542969 71.972656 96.175781 72.140625 95.894531 L 78.371094 85.554688 C 78.539062 85.273438 78.90625 85.183594 79.1875 85.351562 C 79.472656 85.523438 79.5625 85.890625 79.390625 86.171875 Z M 73.164062 96.507812 "/>
<path style=" stroke:none;fill-rule:nonzero;fill:rgb(7.058716%,1.176453%,46.665955%);fill-opacity:1;" d="M 78.402344 86.21875 C 78.207031 85.953125 78.261719 85.578125 78.527344 85.382812 C 78.792969 85.1875 79.167969 85.246094 79.363281 85.511719 L 86.980469 95.847656 C 87.175781 96.113281 87.121094 96.484375 86.855469 96.679688 C 86.589844 96.875 86.21875 96.820312 86.023438 96.554688 Z M 78.402344 86.21875 "/>
<path style=" stroke:none;fill-rule:nonzero;fill:rgb(7.058716%,1.176453%,46.665955%);fill-opacity:1;" d="M 86.972656 96.570312 C 86.769531 96.828125 86.394531 96.875 86.132812 96.671875 C 85.875 96.46875 85.828125 96.09375 86.03125 95.832031 L 90.085938 90.664062 C 90.289062 90.40625 90.664062 90.359375 90.925781 90.5625 C 91.183594 90.765625 91.230469 91.140625 91.027344 91.402344 Z M 86.972656 96.570312 "/>
<path style=" stroke:none;fill-rule:nonzero;fill:rgb(7.058716%,1.176453%,46.665955%);fill-opacity:1;" d="M 127.011719 39.984375 C 126.679688 39.984375 126.414062 39.71875 126.414062 39.386719 C 126.414062 39.058594 126.679688 38.792969 127.011719 38.792969 L 156.539062 38.792969 C 156.871094 38.792969 157.136719 39.058594 157.136719 39.386719 C 157.136719 39.71875 156.871094 39.984375 156.539062 39.984375 Z M 127.011719 39.984375 "/>
<path style=" stroke:none;fill-rule:nonzero;fill:rgb(7.058716%,1.176453%,46.665955%);fill-opacity:1;" d="M 163.769531 39.984375 C 163.441406 39.984375 163.171875 39.71875 163.171875 39.386719 C 163.171875 39.058594 163.441406 38.792969 163.769531 38.792969 L 195.214844 38.792969 C 195.542969 38.792969 195.808594 39.058594 195.808594 39.386719 C 195.808594 39.71875 195.542969 39.984375 195.214844 39.984375 Z M 163.769531 39.984375 "/>
<path style=" stroke:none;fill-rule:nonzero;fill:rgb(7.058716%,1.176453%,46.665955%);fill-opacity:1;" d="M 157.136719 52.980469 C 157.136719 53.308594 156.871094 53.578125 156.539062 53.578125 C 156.210938 53.578125 155.945312 53.308594 155.945312 52.980469 L 155.945312 25.789062 C 155.945312 25.457031 156.210938 25.191406 156.539062 25.191406 C 156.871094 25.191406 157.136719 25.457031 157.136719 25.789062 Z M 157.136719 52.980469 "/>
<path style=" stroke:none;fill-rule:nonzero;fill:rgb(7.058716%,1.176453%,46.665955%);fill-opacity:1;" d="M 164.367188 52.984375 C 164.367188 53.3125 164.097656 53.582031 163.769531 53.582031 C 163.441406 53.582031 163.171875 53.3125 163.171875 52.984375 L 163.171875 25.792969 C 163.171875 25.460938 163.441406 25.195312 163.769531 25.195312 C 164.097656 25.195312 164.367188 25.460938 164.367188 25.792969 Z M 164.367188 52.984375 "/>
<path style=" stroke:none;fill-rule:nonzero;fill:rgb(7.058716%,1.176453%,46.665955%);fill-opacity:1;" d="M 127.480469 38.792969 C 127.808594 38.792969 128.078125 39.058594 128.078125 39.386719 C 128.078125 39.71875 127.808594 39.984375 127.480469 39.984375 L 120.109375 39.984375 C 119.78125 39.984375 119.515625 39.71875 119.515625 39.386719 C 119.515625 39.058594 119.78125 38.792969 120.109375 38.792969 Z M 127.480469 38.792969 "/>
<path style=" stroke:none;fill-rule:nonzero;fill:rgb(7.058716%,1.176453%,46.665955%);fill-opacity:1;" d="M 119.515625 39.386719 C 119.515625 39.058594 119.78125 38.792969 120.109375 38.792969 C 120.4375 38.792969 120.707031 39.058594 120.707031 39.386719 L 120.707031 91.03125 C 120.707031 91.363281 120.4375 91.628906 120.109375 91.628906 C 119.78125 91.628906 119.515625 91.363281 119.515625 91.03125 Z M 119.515625 39.386719 "/>
<path style=" stroke:none;fill-rule:nonzero;fill:rgb(7.058716%,1.176453%,46.665955%);fill-opacity:1;" d="M 230.578125 106.964844 C 230.578125 107.292969 230.3125 107.5625 229.984375 107.5625 C 229.652344 107.5625 229.386719 107.292969 229.386719 106.964844 L 229.386719 39.078125 C 229.386719 38.746094 229.652344 38.480469 229.984375 38.480469 C 230.3125 38.480469 230.578125 38.746094 230.578125 39.078125 Z M 230.578125 106.964844 "/>
<path style=" stroke:none;fill-rule:nonzero;fill:rgb(7.058716%,1.176453%,46.665955%);fill-opacity:1;" d="M 193.730469 39.984375 C 193.402344 39.984375 193.132812 39.71875 193.132812 39.386719 C 193.132812 39.058594 193.402344 38.792969 193.730469 38.792969 L 229.984375 38.792969 C 230.3125 38.792969 230.578125 39.058594 230.578125 39.386719 C 230.578125 39.71875 230.3125 39.984375 229.984375 39.984375 Z M 193.730469 39.984375 "/>
<path style=" stroke:none;fill-rule:nonzero;fill:rgb(7.058716%,1.176453%,46.665955%);fill-opacity:1;" d="M 105.683594 123.488281 C 105.683594 123.160156 105.949219 122.894531 106.277344 122.894531 C 106.609375 122.894531 106.875 123.160156 106.875 123.488281 L 106.875 134.433594 C 106.875 134.765625 106.609375 135.03125 106.277344 135.03125 C 105.949219 135.03125 105.683594 134.765625 105.683594 134.433594 Z M 105.683594 123.488281 "/>
<path style=" stroke:none;fill-rule:nonzero;fill:rgb(7.058716%,1.176453%,46.665955%);fill-opacity:1;" d="M 97.765625 135.765625 C 97.4375 135.765625 97.171875 135.5 97.171875 135.171875 C 97.171875 134.839844 97.4375 134.574219 97.765625 134.574219 L 114.789062 134.574219 C 115.117188 134.574219 115.386719 134.839844 115.386719 135.171875 C 115.386719 135.5 115.117188 135.765625 114.789062 135.765625 Z M 97.765625 135.765625 "/>
<path style=" stroke:none;fill-rule:nonzero;fill:rgb(7.058716%,1.176453%,46.665955%);fill-opacity:1;" d="M 100.707031 139.671875 C 100.378906 139.671875 100.113281 139.402344 100.113281 139.074219 C 100.113281 138.746094 100.378906 138.476562 100.707031 138.476562 L 112.140625 138.476562 C 112.46875 138.476562 112.734375 138.746094 112.734375 139.074219 C 112.734375 139.402344 112.46875 139.671875 112.140625 139.671875 Z M 100.707031 139.671875 "/>
<path style=" stroke:none;fill-rule:nonzero;fill:rgb(7.058716%,1.176453%,46.665955%);fill-opacity:1;" d="M 103.980469 143.332031 C 103.652344 143.332031 103.386719 143.066406 103.386719 142.734375 C 103.386719 142.40625 103.652344 142.140625 103.980469 142.140625 L 108.863281 142.140625 C 109.195312 142.140625 109.460938 142.40625 109.460938 142.734375 C 109.460938 143.066406 109.195312 143.332031 108.863281 143.332031 Z M 103.980469 143.332031 "/>
<path style=" stroke:none;fill-rule:nonzero;fill:rgb(7.058716%,1.176453%,46.665955%);fill-opacity:1;" d="M 229.984375 107.5625 C 229.652344 107.5625 229.386719 107.292969 229.386719 106.964844 C 229.386719 106.636719 229.652344 106.367188 229.984375 106.367188 L 241.203125 106.367188 C 241.53125 106.367188 241.796875 106.636719 241.796875 106.964844 C 241.796875 107.292969 241.53125 107.5625 241.203125 107.5625 Z M 229.984375 107.5625 "/>
<path style=" stroke:none;fill-rule:nonzero;fill:rgb(0%,45.097351%,23.136902%);fill-opacity:1;" d="M 25.925781 70.90625 C 26.363281 70.933594 26.695312 71.308594 26.667969 71.75 C 26.640625 72.1875 26.261719 72.519531 25.824219 72.492188 L 25.171875 72.394531 C 25.152344 72.390625 25.398438 72.34375 25.324219 72.367188 C 25.230469 72.394531 25.6875 72.09375 25.601562 72.1875 C 25.511719 72.28125 25.769531 71.828125 25.753906 71.90625 C 25.738281 71.964844 25.765625 71.753906 25.765625 71.78125 L 25.8125 71.910156 L 26.011719 72.457031 L 26.539062 73.902344 L 28.035156 77.554688 C 28.65625 78.972656 29.289062 80.234375 29.804688 81.121094 L 30.304688 81.933594 L 30.429688 82.089844 L 30.421875 82.085938 C 30.4375 82.097656 30.261719 82.019531 30.316406 82.035156 L 30.527344 82.117188 C 30.53125 82.121094 30.324219 82.085938 30.398438 82.09375 C 30.480469 82.097656 29.992188 82.1875 30.09375 82.144531 C 30.164062 82.113281 29.890625 82.285156 29.929688 82.246094 C 29.988281 82.195312 29.820312 82.382812 29.832031 82.363281 L 29.828125 82.375 L 29.890625 82.070312 L 30.015625 80.8125 C 30.132812 79.578125 30.238281 78.027344 30.25 76.382812 L 30.230469 73.460938 C 30.183594 72.484375 29.988281 71.664062 29.867188 70.960938 L 29.753906 69.980469 C 29.753906 69.609375 29.925781 69.160156 30.269531 68.929688 C 30.609375 68.703125 30.957031 68.703125 31.230469 68.742188 C 31.753906 68.820312 32.175781 69.050781 32.523438 69.324219 C 32.867188 69.597656 32.925781 70.097656 32.65625 70.441406 C 32.382812 70.785156 31.882812 70.847656 31.539062 70.574219 L 31 70.316406 C 30.972656 70.316406 31.222656 70.203125 31.15625 70.25 C 31.089844 70.292969 31.347656 69.996094 31.320312 70.058594 C 31.292969 70.117188 31.34375 69.96875 31.34375 69.980469 L 31.433594 70.6875 C 31.542969 71.324219 31.765625 72.246094 31.820312 73.386719 L 31.84375 76.394531 C 31.828125 78.101562 31.71875 79.691406 31.601562 80.960938 L 31.464844 82.304688 L 31.320312 82.917969 C 31.246094 83.128906 31.128906 83.429688 30.726562 83.601562 C 30.421875 83.734375 30.121094 83.664062 29.988281 83.613281 L 29.828125 83.550781 C 28.96875 83.273438 28.839844 82.628906 28.429688 81.917969 C 27.871094 80.960938 27.21875 79.65625 26.578125 78.1875 L 25.054688 74.472656 L 24.523438 73.011719 C 24.34375 72.527344 24.035156 72.253906 24.203125 71.539062 C 24.273438 71.253906 24.566406 70.933594 24.847656 70.847656 C 25.089844 70.769531 25.257812 70.800781 25.390625 70.816406 Z M 25.925781 70.90625 "/>
<path style=" stroke:none;fill-rule:nonzero;fill:rgb(0%,45.097351%,23.136902%);fill-opacity:1;" d="M 36.910156 76.570312 C 37.304688 76.761719 37.472656 77.238281 37.28125 77.632812 C 37.09375 78.027344 36.617188 78.195312 36.222656 78.003906 L 36.21875 77.992188 C 36.167969 77.996094 36.5 77.789062 36.4375 77.867188 C 36.363281 77.957031 36.558594 77.585938 36.546875 77.636719 L 36.554688 77.589844 L 36.632812 77.886719 L 37.152344 79.0625 L 38.292969 81.746094 L 38.625 82.808594 L 38.613281 82.78125 C 38.625 82.804688 38.453125 82.582031 38.515625 82.648438 C 38.550781 82.6875 38.332031 82.507812 38.390625 82.542969 C 38.480469 82.605469 37.886719 82.414062 38.027344 82.425781 C 38.167969 82.433594 37.574219 82.535156 37.664062 82.492188 C 37.78125 82.4375 37.421875 82.679688 37.457031 82.644531 C 37.5 82.597656 37.410156 82.703125 37.414062 82.695312 L 37.464844 82.59375 C 37.648438 82.195312 38.121094 82.023438 38.519531 82.207031 C 38.917969 82.390625 39.09375 82.863281 38.910156 83.261719 C 38.8125 83.464844 38.851562 83.691406 38.339844 83.933594 C 38.039062 84.074219 37.53125 83.925781 37.359375 83.738281 L 37.144531 83.378906 L 36.804688 82.3125 L 35.71875 79.746094 L 35.132812 78.414062 L 34.96875 77.753906 C 34.945312 77.507812 34.949219 77.171875 35.207031 76.859375 C 35.417969 76.597656 35.742188 76.445312 36.050781 76.410156 C 36.355469 76.378906 36.648438 76.445312 36.910156 76.570312 "/>
<path style=" stroke:none;fill-rule:nonzero;fill:rgb(0%,45.097351%,23.136902%);fill-opacity:1;" d="M 34.90625 84.757812 C 35.195312 84.429688 35.699219 84.398438 36.027344 84.6875 C 36.359375 84.980469 36.390625 85.480469 36.097656 85.8125 C 36.097656 85.8125 36.179688 85.636719 36.152344 85.710938 C 36.136719 85.75 36.191406 85.480469 36.1875 85.546875 C 36.183594 85.617188 36.136719 85.246094 36.160156 85.320312 C 36.183594 85.398438 36.015625 85.070312 36.054688 85.125 C 36.097656 85.175781 35.902344 84.980469 35.9375 85.007812 C 36.007812 85.058594 35.820312 84.949219 35.832031 84.953125 C 35.847656 84.957031 36.171875 84.972656 36.570312 84.878906 C 37.300781 84.707031 38.378906 84.21875 39.367188 83.621094 C 40.121094 83.171875 40.746094 82.621094 40.746094 82.617188 C 40.757812 82.601562 40.683594 82.851562 40.699219 82.765625 C 40.714844 82.671875 40.820312 83.289062 40.753906 83.148438 C 40.6875 83.007812 41.085938 83.476562 41.007812 83.429688 C 40.9375 83.390625 41.140625 83.484375 41.128906 83.480469 L 40.230469 83.601562 C 39.800781 83.691406 39.378906 83.417969 39.289062 82.988281 C 39.199219 82.558594 39.472656 82.136719 39.902344 82.042969 C 40.535156 81.910156 40.976562 81.835938 41.425781 81.917969 C 41.660156 81.960938 42.011719 82.085938 42.191406 82.472656 C 42.375 82.855469 42.242188 83.203125 42.132812 83.398438 C 41.734375 84.101562 41.015625 84.488281 40.1875 84.988281 C 39.089844 85.644531 37.933594 86.191406 36.9375 86.425781 C 36.375 86.558594 35.886719 86.621094 35.402344 86.484375 L 35 86.292969 C 34.859375 86.191406 34.710938 86.015625 34.640625 85.792969 C 34.570312 85.566406 34.597656 85.332031 34.660156 85.160156 Z M 34.90625 84.757812 "/>
<path style=" stroke:none;fill-rule:nonzero;fill:rgb(0%,45.097351%,23.136902%);fill-opacity:1;" d="M 35.050781 77.867188 C 35.429688 78.085938 35.566406 78.570312 35.347656 78.953125 C 35.132812 79.335938 34.644531 79.46875 34.265625 79.25 L 33.621094 78.871094 C 33.332031 78.671875 32.980469 78.472656 32.730469 78 C 32.640625 77.828125 32.484375 77.597656 32.511719 77.179688 C 32.527344 76.898438 32.699219 76.675781 32.824219 76.574219 L 33.113281 76.40625 L 33.53125 76.296875 L 34.300781 76.207031 C 36.246094 75.992188 39.457031 75.453125 40.371094 74.730469 C 40.714844 74.457031 41.214844 74.515625 41.488281 74.859375 C 41.757812 75.203125 41.699219 75.703125 41.355469 75.976562 C 39.6875 77.292969 36.5 77.566406 34.476562 77.785156 L 33.792969 77.867188 L 33.695312 77.886719 L 33.742188 77.863281 C 33.714844 77.878906 33.898438 77.746094 33.851562 77.789062 C 33.796875 77.832031 34.042969 77.535156 33.992188 77.621094 C 33.9375 77.710938 34.105469 77.160156 34.097656 77.285156 C 34.089844 77.375 34.085938 77.152344 34.085938 77.152344 L 34.136719 77.257812 L 34.519531 77.554688 Z M 35.050781 77.867188 "/>
<path style=" stroke:none;fill-rule:nonzero;fill:rgb(0%,45.097351%,23.136902%);fill-opacity:1;" d="M 241.652344 92.519531 C 241.867188 92.136719 242.347656 91.996094 242.734375 92.207031 C 243.117188 92.417969 243.257812 92.902344 243.046875 93.285156 C 242.953125 93.460938 242.898438 93.546875 242.875 93.8125 L 243.097656 95.207031 C 243.324219 96.160156 243.699219 97.28125 243.984375 98.199219 L 244.316406 99.328125 C 244.328125 99.351562 244.222656 99.234375 244.277344 99.285156 C 244.304688 99.3125 244.085938 99.167969 244.144531 99.195312 C 244.207031 99.222656 243.863281 99.132812 243.9375 99.136719 C 244.007812 99.144531 243.691406 99.171875 243.742188 99.15625 C 243.8125 99.136719 243.613281 99.21875 243.625 99.210938 L 243.648438 99.183594 L 244.476562 97.785156 L 245.445312 95.898438 L 247.234375 91.808594 L 248.230469 89.269531 L 248.746094 87.53125 C 248.851562 87.1875 248.90625 86.925781 249.125 86.617188 C 249.28125 86.394531 249.863281 86.152344 250.21875 86.328125 C 250.53125 86.476562 250.597656 86.652344 250.664062 86.78125 L 250.925781 87.519531 C 251.050781 88.042969 251.175781 88.535156 251.058594 89.09375 C 250.96875 89.523438 250.546875 89.800781 250.117188 89.710938 C 249.6875 89.621094 249.410156 89.199219 249.5 88.769531 L 249.378906 87.894531 L 249.265625 87.539062 L 249.304688 87.589844 L 249.375 87.660156 C 249.339844 87.632812 249.59375 87.792969 249.523438 87.757812 C 249.445312 87.722656 249.878906 87.835938 249.777344 87.828125 C 249.617188 87.8125 250.335938 87.652344 250.21875 87.722656 C 250.113281 87.789062 250.457031 87.484375 250.421875 87.535156 L 250.265625 88 L 249.722656 89.8125 L 248.707031 92.410156 L 246.878906 96.585938 L 245.894531 98.503906 C 245.519531 99.253906 245.210938 99.84375 244.808594 100.269531 C 244.609375 100.488281 244.3125 100.761719 243.816406 100.722656 C 243.558594 100.703125 243.328125 100.578125 243.175781 100.433594 L 242.871094 99.988281 C 242.675781 99.5625 242.613281 99.140625 242.46875 98.675781 C 242.1875 97.773438 241.800781 96.628906 241.550781 95.574219 C 241.382812 94.871094 241.246094 94.273438 241.289062 93.691406 C 241.335938 93.128906 241.546875 92.714844 241.652344 92.519531 "/>
<path style=" stroke:none;fill-rule:nonzero;fill:rgb(0%,45.097351%,23.136902%);fill-opacity:1;" d="M 253.242188 96.875 C 253.273438 97.3125 252.941406 97.691406 252.503906 97.722656 C 252.066406 97.753906 251.6875 97.421875 251.65625 96.984375 L 251.683594 95.933594 C 251.683594 95.90625 251.707031 96.109375 251.695312 96.054688 C 251.683594 95.996094 251.84375 96.363281 251.789062 96.277344 C 251.730469 96.1875 252.160156 96.578125 252.050781 96.519531 C 251.9375 96.457031 252.46875 96.605469 252.375 96.605469 C 252.28125 96.601562 252.613281 96.566406 252.566406 96.578125 C 252.503906 96.597656 252.675781 96.53125 252.667969 96.535156 L 252.648438 96.554688 C 252.125 97.003906 251.039062 98.285156 250.441406 99.566406 C 250.15625 100.1875 250.035156 100.839844 250.039062 101.394531 C 250.042969 101.78125 250.101562 102.050781 250.167969 102.164062 C 250.210938 102.242188 250.34375 102.34375 250.601562 102.410156 C 250.875 102.480469 251.242188 102.496094 251.605469 102.445312 C 252.554688 102.316406 253.667969 101.476562 254.542969 100.417969 C 254.988281 99.878906 255.347656 99.347656 255.488281 98.90625 C 255.589844 98.59375 255.609375 98.367188 255.5625 98.210938 C 255.53125 98.105469 255.351562 97.875 255.015625 97.65625 C 254.664062 97.425781 254.199219 97.226562 253.742188 97.078125 C 253.019531 96.839844 252.375 96.746094 252.074219 96.820312 L 251.871094 96.933594 C 251.828125 96.996094 251.761719 97.15625 251.761719 97.464844 C 251.757812 97.902344 251.398438 98.253906 250.960938 98.253906 C 250.519531 98.25 250.167969 97.890625 250.171875 97.449219 C 250.175781 96.914062 250.292969 96.414062 250.570312 96.019531 C 250.851562 95.621094 251.28125 95.371094 251.707031 95.273438 C 252.542969 95.074219 253.394531 95.289062 254.238281 95.566406 C 254.789062 95.746094 255.367188 95.988281 255.882812 96.324219 C 256.402344 96.660156 256.898438 97.105469 257.089844 97.769531 C 257.257812 98.351562 257.160156 98.917969 257.003906 99.398438 C 256.753906 100.164062 256.269531 100.824219 255.765625 101.433594 C 254.742188 102.671875 253.40625 103.804688 251.820312 104.019531 C 251.289062 104.09375 250.734375 104.085938 250.203125 103.949219 C 249.667969 103.8125 249.121094 103.519531 248.800781 102.976562 C 248.496094 102.464844 248.457031 101.917969 248.449219 101.414062 C 248.441406 100.625 248.605469 99.746094 249 98.898438 C 249.726562 97.335938 250.847656 96.003906 251.613281 95.347656 C 251.785156 95.195312 251.960938 95.003906 252.410156 95.015625 C 252.65625 95.019531 252.976562 95.1875 253.125 95.417969 C 253.261719 95.628906 253.277344 95.820312 253.273438 95.964844 Z M 253.242188 96.875 "/>
<path style=" stroke:none;fill-rule:nonzero;fill:rgb(7.058716%,1.176453%,46.665955%);fill-opacity:1;" d="M 139.460938 76.089844 L 139.460938 138.0625 L 198.28125 106.964844 Z M 139.140625 74.574219 L 199.839844 106.4375 C 200.261719 106.660156 200.265625 107.265625 199.839844 107.492188 L 139.144531 139.578125 C 138.746094 139.789062 138.269531 139.5 138.269531 139.050781 L 138.269531 75.105469 C 138.269531 74.65625 138.746094 74.367188 139.140625 74.574219 "/>
<path style=" stroke:none;fill-rule:nonzero;fill:rgb(7.058716%,1.176453%,46.665955%);fill-opacity:1;" d="M 147.203125 118.148438 C 147.203125 117.820312 147.472656 117.550781 147.800781 117.550781 C 148.128906 117.550781 148.398438 117.820312 148.398438 118.148438 L 148.398438 128.027344 C 148.398438 128.359375 148.128906 128.625 147.800781 128.625 C 147.472656 128.625 147.203125 128.359375 147.203125 128.027344 Z M 147.203125 118.148438 "/>
<path style=" stroke:none;fill-rule:nonzero;fill:rgb(7.058716%,1.176453%,46.665955%);fill-opacity:1;" d="M 142.820312 123.683594 C 142.488281 123.683594 142.222656 123.417969 142.222656 123.089844 C 142.222656 122.757812 142.488281 122.492188 142.820312 122.492188 L 152.78125 122.492188 C 153.113281 122.492188 153.378906 122.757812 153.378906 123.089844 C 153.378906 123.417969 153.113281 123.683594 152.78125 123.683594 Z M 142.820312 123.683594 "/>
<path style=" stroke:none;fill-rule:nonzero;fill:rgb(7.058716%,1.176453%,46.665955%);fill-opacity:1;" d="M 142.820312 91.4375 C 142.488281 91.4375 142.222656 91.171875 142.222656 90.84375 C 142.222656 90.511719 142.488281 90.246094 142.820312 90.246094 L 152.78125 90.246094 C 153.113281 90.246094 153.378906 90.511719 153.378906 90.84375 C 153.378906 91.171875 153.113281 91.4375 152.78125 91.4375 Z M 142.820312 91.4375 "/>
<path style=" stroke:none;fill-rule:nonzero;fill:rgb(7.058716%,1.176453%,46.665955%);fill-opacity:1;" d="M 139.144531 90.4375 C 139.472656 90.4375 139.738281 90.703125 139.738281 91.03125 C 139.738281 91.363281 139.472656 91.628906 139.144531 91.628906 L 107.277344 91.628906 C 106.945312 91.628906 106.679688 91.363281 106.679688 91.03125 C 106.679688 90.703125 106.945312 90.4375 107.277344 90.4375 Z M 139.144531 90.4375 "/>
<path style=" stroke:none;fill-rule:nonzero;fill:rgb(7.058716%,1.176453%,46.665955%);fill-opacity:1;" d="M 139.144531 122.296875 C 139.472656 122.296875 139.738281 122.5625 139.738281 122.894531 C 139.738281 123.222656 139.472656 123.488281 139.144531 123.488281 L 107.277344 123.488281 C 106.945312 123.488281 106.679688 123.222656 106.679688 122.894531 C 106.679688 122.5625 106.945312 122.296875 107.277344 122.296875 Z M 139.144531 122.296875 "/>
<path style=" stroke:none;fill-rule:nonzero;fill:rgb(7.058716%,1.176453%,46.665955%);fill-opacity:1;" d="M 199.5625 107.5625 C 199.230469 107.5625 198.964844 107.292969 198.964844 106.964844 C 198.964844 106.636719 199.230469 106.367188 199.5625 106.367188 L 231.425781 106.367188 C 231.757812 106.367188 232.023438 106.636719 232.023438 106.964844 C 232.023438 107.292969 231.757812 107.5625 231.425781 107.5625 Z M 199.5625 107.5625 "/>
</g>
</svg>
