<?xml version="1.0" encoding="UTF-8"?>
<svg xmlns="http://www.w3.org/2000/svg" xmlns:xlink="http://www.w3.org/1999/xlink" width="205.46693pt" height="160.8817pt" viewBox="0 0 205.46693 160.8817" version="1.2">
<g id="surface1">
<path style=" stroke:none;fill-rule:nonzero;fill:rgb(7.058716%,1.176453%,46.665955%);fill-opacity:1;" d="M 45.441406 10.445312 L 45.441406 111.695312 L 94.367188 83.378906 L 94.367188 29.363281 Z M 45.0625 9.019531 L 95.175781 28.398438 C 95.40625 28.488281 95.558594 28.710938 95.558594 28.957031 L 95.558594 83.722656 C 95.558594 83.933594 95.445312 84.128906 95.261719 84.238281 L 45.144531 113.242188 C 44.746094 113.472656 44.25 113.1875 44.25 112.726562 L 44.25 9.574219 C 44.25 9.15625 44.671875 8.867188 45.0625 9.019531 "/>
<path style=" stroke:none;fill-rule:nonzero;fill:rgb(7.058716%,1.176453%,46.665955%);fill-opacity:1;" d="M 94.960938 55.648438 C 94.632812 55.648438 94.367188 55.382812 94.367188 55.050781 C 94.367188 54.722656 94.632812 54.457031 94.960938 54.457031 L 152.207031 54.457031 C 152.535156 54.457031 152.804688 54.722656 152.804688 55.050781 C 152.804688 55.382812 152.535156 55.648438 152.207031 55.648438 Z M 94.960938 55.648438 "/>
<path style=" stroke:none;fill-rule:nonzero;fill:rgb(7.058716%,1.176453%,46.665955%);fill-opacity:1;" d="M 151.613281 55.648438 C 151.613281 55.320312 151.878906 55.050781 152.207031 55.050781 C 152.535156 55.050781 152.804688 55.320312 152.804688 55.648438 L 152.804688 85.164062 C 152.804688 85.496094 152.535156 85.761719 152.207031 85.761719 C 151.878906 85.761719 151.613281 85.496094 151.613281 85.164062 Z M 151.613281 55.648438 "/>
<path style=" stroke:none;fill-rule:nonzero;fill:rgb(7.058716%,1.176453%,46.665955%);fill-opacity:1;" d="M 151.613281 92.390625 C 151.613281 92.0625 151.878906 91.796875 152.207031 91.796875 C 152.535156 91.796875 152.804688 92.0625 152.804688 92.390625 L 152.804688 123.824219 C 152.804688 124.152344 152.535156 124.417969 152.207031 124.417969 C 151.878906 124.417969 151.613281 124.152344 151.613281 123.824219 Z M 151.613281 92.390625 "/>
<path style=" stroke:none;fill-rule:nonzero;fill:rgb(7.058716%,1.176453%,46.665955%);fill-opacity:1;" d="M 138.621094 85.761719 C 138.292969 85.761719 138.023438 85.496094 138.023438 85.164062 C 138.023438 84.835938 138.292969 84.570312 138.621094 84.570312 L 165.800781 84.570312 C 166.132812 84.570312 166.398438 84.835938 166.398438 85.164062 C 166.398438 85.496094 166.132812 85.761719 165.800781 85.761719 Z M 138.621094 85.761719 "/>
<path style=" stroke:none;fill-rule:nonzero;fill:rgb(7.058716%,1.176453%,46.665955%);fill-opacity:1;" d="M 138.617188 92.988281 C 138.289062 92.988281 138.019531 92.71875 138.019531 92.390625 C 138.019531 92.0625 138.289062 91.796875 138.617188 91.796875 L 165.796875 91.796875 C 166.128906 91.796875 166.394531 92.0625 166.394531 92.390625 C 166.394531 92.71875 166.128906 92.988281 165.796875 92.988281 Z M 138.617188 92.988281 "/>
<path style=" stroke:none;fill-rule:nonzero;fill:rgb(7.058716%,1.176453%,46.665955%);fill-opacity:1;" d="M 151.613281 121.527344 C 151.613281 121.199219 151.878906 120.929688 152.210938 120.929688 C 152.539062 120.929688 152.804688 121.199219 152.804688 121.527344 L 152.804688 132.46875 C 152.804688 132.796875 152.539062 133.0625 152.210938 133.0625 C 151.878906 133.0625 151.613281 132.796875 151.613281 132.46875 Z M 151.613281 121.527344 "/>
<path style=" stroke:none;fill-rule:nonzero;fill:rgb(7.058716%,1.176453%,46.665955%);fill-opacity:1;" d="M 143.703125 133.800781 C 143.375 133.800781 143.105469 133.53125 143.105469 133.203125 C 143.105469 132.875 143.375 132.605469 143.703125 132.605469 L 160.714844 132.605469 C 161.046875 132.605469 161.3125 132.875 161.3125 133.203125 C 161.3125 133.53125 161.046875 133.800781 160.714844 133.800781 Z M 143.703125 133.800781 "/>
<path style=" stroke:none;fill-rule:nonzero;fill:rgb(7.058716%,1.176453%,46.665955%);fill-opacity:1;" d="M 146.640625 137.703125 C 146.3125 137.703125 146.046875 137.433594 146.046875 137.105469 C 146.046875 136.777344 146.3125 136.507812 146.640625 136.507812 L 158.066406 136.507812 C 158.394531 136.507812 158.664062 136.777344 158.664062 137.105469 C 158.664062 137.433594 158.394531 137.703125 158.066406 137.703125 Z M 146.640625 137.703125 "/>
<path style=" stroke:none;fill-rule:nonzero;fill:rgb(7.058716%,1.176453%,46.665955%);fill-opacity:1;" d="M 149.914062 141.363281 C 149.585938 141.363281 149.316406 141.09375 149.316406 140.765625 C 149.316406 140.4375 149.585938 140.167969 149.914062 140.167969 L 154.792969 140.167969 C 155.125 140.167969 155.390625 140.4375 155.390625 140.765625 C 155.390625 141.09375 155.125 141.363281 154.792969 141.363281 Z M 149.914062 141.363281 "/>
<path style=" stroke:none;fill-rule:nonzero;fill:rgb(7.058716%,1.176453%,46.665955%);fill-opacity:1;" d="M 55.628906 30.105469 C 55.628906 29.777344 55.894531 29.511719 56.222656 29.511719 C 56.550781 29.511719 56.820312 29.777344 56.820312 30.105469 L 56.820312 39.980469 C 56.820312 40.3125 56.550781 40.578125 56.222656 40.578125 C 55.894531 40.578125 55.628906 40.3125 55.628906 39.980469 Z M 55.628906 30.105469 "/>
<path style=" stroke:none;fill-rule:nonzero;fill:rgb(7.058716%,1.176453%,46.665955%);fill-opacity:1;" d="M 51.242188 35.640625 C 50.914062 35.640625 50.648438 35.375 50.648438 35.042969 C 50.648438 34.714844 50.914062 34.449219 51.242188 34.449219 L 61.203125 34.449219 C 61.53125 34.449219 61.800781 34.714844 61.800781 35.042969 C 61.800781 35.375 61.53125 35.640625 61.203125 35.640625 Z M 51.242188 35.640625 "/>
<path style=" stroke:none;fill-rule:nonzero;fill:rgb(7.058716%,1.176453%,46.665955%);fill-opacity:1;" d="M 51.242188 89.734375 C 50.914062 89.734375 50.648438 89.46875 50.648438 89.140625 C 50.648438 88.808594 50.914062 88.542969 51.242188 88.542969 L 61.203125 88.542969 C 61.53125 88.542969 61.800781 88.808594 61.800781 89.140625 C 61.800781 89.46875 61.53125 89.734375 61.203125 89.734375 Z M 51.242188 89.734375 "/>
<path style=" stroke:none;fill-rule:nonzero;fill:rgb(7.058716%,1.176453%,46.665955%);fill-opacity:1;" d="M 21.378906 89.734375 C 21.050781 89.734375 20.78125 89.46875 20.78125 89.140625 C 20.78125 88.808594 21.050781 88.542969 21.378906 88.542969 L 44.25 88.542969 C 44.578125 88.542969 44.847656 88.808594 44.847656 89.140625 C 44.847656 89.46875 44.578125 89.734375 44.25 89.734375 Z M 21.378906 89.734375 "/>
<path style=" stroke:none;fill-rule:nonzero;fill:rgb(7.058716%,1.176453%,46.665955%);fill-opacity:1;" d="M 21.378906 35.640625 C 21.050781 35.640625 20.78125 35.375 20.78125 35.042969 C 20.78125 34.714844 21.050781 34.449219 21.378906 34.449219 L 44.25 34.449219 C 44.578125 34.449219 44.847656 34.714844 44.847656 35.042969 C 44.847656 35.375 44.578125 35.640625 44.25 35.640625 Z M 21.378906 35.640625 "/>
<path style=" stroke:none;fill-rule:nonzero;fill:rgb(92.941284%,21.176147%,14.117432%);fill-opacity:1;" d="M 178.757812 86.679688 C 178.449219 86.796875 178.105469 86.636719 177.992188 86.328125 C 177.878906 86.019531 178.039062 85.675781 178.347656 85.5625 C 178.351562 85.5625 178.441406 85.488281 178.519531 85.265625 C 178.605469 85.019531 178.65625 84.683594 178.679688 84.347656 C 178.71875 83.792969 178.757812 83.3125 178.675781 83.101562 C 178.660156 83.054688 178.703125 83.082031 178.640625 83.082031 C 178.585938 83.082031 178.46875 83.109375 178.351562 83.152344 C 177.679688 83.402344 176.78125 84.902344 175.542969 86.652344 C 174.917969 87.535156 174.402344 88.535156 173.96875 89.742188 C 173.515625 91.007812 173.203125 92.59375 173.097656 93.925781 C 173.027344 94.847656 173.171875 95.558594 173.460938 96.089844 C 173.75 96.609375 174.195312 96.996094 174.789062 97.273438 C 175.3125 97.515625 175.953125 97.503906 176.652344 97.277344 C 177.378906 97.039062 178.144531 96.582031 178.867188 96.011719 C 180.320312 94.855469 181.515625 93.308594 181.875 92.296875 C 181.984375 91.984375 182.328125 91.824219 182.636719 91.933594 C 182.945312 92.042969 183.109375 92.382812 183 92.695312 C 182.511719 94.0625 181.214844 95.667969 179.605469 96.945312 C 178.804688 97.582031 177.929688 98.113281 177.019531 98.410156 C 176.121094 98.703125 175.148438 98.753906 174.285156 98.355469 C 173.503906 97.992188 172.835938 97.425781 172.417969 96.664062 C 171.996094 95.894531 171.824219 94.929688 171.910156 93.832031 C 172.023438 92.390625 172.347656 90.734375 172.847656 89.339844 C 173.3125 88.042969 173.882812 86.9375 174.570312 85.964844 C 175.765625 84.265625 176.53125 82.558594 177.9375 82.035156 C 178.128906 81.964844 178.347656 81.898438 178.609375 81.890625 C 179.109375 81.878906 179.617188 82.210938 179.792969 82.679688 C 180.027344 83.308594 179.902344 83.917969 179.871094 84.425781 C 179.839844 84.832031 179.785156 85.257812 179.644531 85.660156 C 179.503906 86.0625 179.25 86.5 178.757812 86.679688 "/>
<path style=" stroke:none;fill-rule:nonzero;fill:rgb(92.941284%,21.176147%,14.117432%);fill-opacity:1;" d="M 108.117188 45.277344 C 107.785156 45.277344 107.519531 45.011719 107.519531 44.683594 C 107.519531 44.351562 107.785156 44.085938 108.117188 44.085938 L 130.820312 44.085938 C 131.148438 44.085938 131.417969 44.351562 131.417969 44.683594 C 131.417969 45.011719 131.148438 45.277344 130.820312 45.277344 Z M 108.117188 45.277344 "/>
<path style=" stroke:none;fill-rule:nonzero;fill:rgb(92.941284%,21.176147%,14.117432%);fill-opacity:1;" d="M 129.65625 44.882812 L 126.613281 42.3125 L 126.746094 47.457031 Z M 130.964844 45.316406 L 126.578125 49.199219 C 126.199219 49.535156 125.601562 49.273438 125.585938 48.765625 L 125.386719 41.019531 C 125.375 40.503906 125.976562 40.214844 126.367188 40.546875 L 130.953125 44.414062 C 131.230469 44.652344 131.238281 45.078125 130.964844 45.316406 "/>
<path style=" stroke:none;fill-rule:nonzero;fill:rgb(92.941284%,21.176147%,14.117432%);fill-opacity:1;" d="M 129.132812 45.425781 C 129.226562 45.742188 129.050781 46.074219 128.734375 46.167969 C 128.417969 46.265625 128.085938 46.085938 127.992188 45.773438 C 127.988281 45.769531 127.996094 45.785156 127.996094 45.78125 C 127.992188 45.777344 128.019531 45.828125 128.007812 45.808594 C 127.980469 45.765625 128.183594 45.984375 128.125 45.941406 C 128.066406 45.898438 128.507812 46.039062 128.394531 46.035156 C 128.273438 46.03125 128.730469 45.9375 128.671875 45.96875 C 128.617188 46 128.789062 45.882812 128.769531 45.898438 C 128.742188 45.925781 128.792969 45.871094 128.78125 45.886719 C 128.753906 45.929688 128.699219 46.019531 128.632812 46.125 C 128.527344 46.285156 128.398438 46.464844 128.269531 46.644531 C 128.160156 46.792969 128.050781 46.929688 127.949219 47.050781 C 127.757812 47.285156 127.570312 47.476562 127.53125 47.523438 C 127.421875 47.648438 127.402344 47.640625 127.363281 47.671875 C 127.097656 47.871094 126.726562 47.820312 126.527344 47.558594 C 126.328125 47.296875 126.378906 46.921875 126.640625 46.722656 C 126.644531 46.71875 126.691406 46.679688 126.761719 46.621094 C 126.839844 46.554688 126.933594 46.484375 127.03125 46.40625 C 127.300781 46.179688 127.601562 45.902344 127.878906 45.613281 C 127.996094 45.488281 128.113281 45.359375 128.21875 45.230469 C 128.320312 45.105469 128.410156 44.988281 128.445312 44.933594 C 128.46875 44.894531 128.488281 44.867188 128.496094 44.855469 C 128.5 44.847656 128.488281 44.867188 128.492188 44.859375 C 128.5 44.84375 128.425781 45.066406 128.449219 44.980469 L 129.605469 45.269531 C 129.507812 45.660156 129.421875 45.570312 129.398438 45.59375 C 129.335938 45.644531 129.3125 45.664062 129.285156 45.6875 C 129.199219 45.777344 129.085938 45.886719 128.964844 46.007812 C 128.804688 46.167969 128.632812 46.320312 128.46875 46.472656 C 128.261719 46.660156 128.042969 46.875 127.832031 47.066406 C 127.722656 47.167969 127.617188 47.265625 127.523438 47.347656 C 127.449219 47.414062 127.394531 47.464844 127.28125 47.523438 C 127.25 47.542969 127.210938 47.570312 127.109375 47.589844 C 127.101562 47.59375 127.097656 47.59375 127.089844 47.59375 C 126.769531 47.65625 126.457031 47.445312 126.394531 47.121094 C 126.332031 46.796875 126.546875 46.484375 126.871094 46.421875 C 126.875 46.421875 126.847656 46.425781 126.855469 46.425781 C 126.949219 46.40625 126.6875 46.492188 126.710938 46.480469 C 126.765625 46.449219 126.695312 46.488281 126.738281 46.449219 C 126.8125 46.382812 126.914062 46.292969 127.023438 46.191406 C 127.21875 46.007812 127.441406 45.796875 127.660156 45.59375 C 127.835938 45.433594 128 45.289062 128.125 45.164062 C 128.246094 45.042969 128.355469 44.933594 128.433594 44.851562 C 128.5 44.789062 128.558594 44.738281 128.597656 44.707031 C 128.613281 44.695312 128.621094 44.691406 128.625 44.6875 C 128.625 44.683594 128.570312 44.738281 128.589844 44.71875 C 128.601562 44.707031 128.519531 44.808594 128.539062 44.777344 C 128.550781 44.761719 128.480469 44.878906 128.5 44.847656 C 128.515625 44.816406 128.433594 45.039062 128.449219 44.980469 C 128.527344 44.660156 128.851562 44.464844 129.171875 44.546875 C 129.488281 44.625 129.683594 44.949219 129.605469 45.269531 C 129.527344 45.582031 129.484375 45.523438 129.449219 45.578125 C 129.367188 45.699219 129.261719 45.839844 129.136719 45.992188 C 129.015625 46.136719 128.882812 46.289062 128.742188 46.4375 C 128.429688 46.761719 128.097656 47.066406 127.789062 47.324219 C 127.675781 47.417969 127.570312 47.5 127.519531 47.542969 C 127.453125 47.59375 127.414062 47.628906 127.363281 47.671875 L 126.640625 46.722656 C 126.683594 46.6875 126.683594 46.691406 126.691406 46.6875 C 126.699219 46.679688 126.597656 46.777344 126.628906 46.746094 C 126.726562 46.632812 126.871094 46.484375 127.027344 46.292969 C 127.125 46.175781 127.222656 46.058594 127.304688 45.945312 C 127.429688 45.773438 127.546875 45.605469 127.636719 45.46875 C 127.6875 45.394531 127.738281 45.304688 127.804688 45.210938 C 127.835938 45.160156 127.875 45.105469 127.945312 45.039062 C 128.023438 44.964844 128.160156 44.832031 128.433594 44.84375 C 128.753906 44.851562 128.945312 45.046875 129.046875 45.222656 C 129.082031 45.285156 129.101562 45.335938 129.117188 45.378906 C 129.121094 45.394531 129.128906 45.414062 129.132812 45.425781 M 127.550781 47.15625 C 127.464844 47.476562 127.140625 47.664062 126.820312 47.578125 C 126.503906 47.492188 126.3125 47.167969 126.398438 46.847656 C 126.417969 46.785156 126.433594 46.746094 126.449219 46.71875 C 126.476562 46.667969 126.5 46.640625 126.515625 46.617188 C 126.632812 46.464844 126.753906 46.355469 126.898438 46.210938 C 127.183594 45.917969 127.53125 45.582031 127.824219 45.257812 C 127.933594 45.136719 128.03125 45.015625 128.117188 44.910156 C 128.203125 44.796875 128.238281 44.726562 128.242188 44.714844 C 128.25 44.695312 128.222656 44.851562 128.226562 44.808594 C 128.226562 44.765625 128.269531 45.042969 128.25 44.980469 C 128.226562 44.914062 128.417969 45.226562 128.363281 45.171875 C 128.3125 45.117188 128.589844 45.304688 128.535156 45.285156 C 128.457031 45.253906 128.738281 45.316406 128.707031 45.316406 C 128.664062 45.316406 128.75 45.308594 128.738281 45.3125 C 128.722656 45.320312 128.695312 45.332031 128.660156 45.347656 C 128.582031 45.386719 128.425781 45.515625 128.253906 45.664062 C 128.167969 45.738281 128.089844 45.800781 128.023438 45.859375 C 127.945312 45.925781 127.878906 45.988281 127.84375 46.023438 C 127.804688 46.0625 127.792969 46.070312 127.785156 46.085938 C 127.78125 46.089844 127.820312 46.027344 127.808594 46.046875 C 127.796875 46.070312 127.882812 45.839844 127.863281 45.914062 C 127.847656 45.972656 127.851562 45.542969 127.871094 45.65625 C 127.933594 45.980469 127.722656 46.292969 127.402344 46.355469 C 127.078125 46.417969 126.765625 46.207031 126.703125 45.882812 C 126.679688 45.765625 126.695312 45.675781 126.710938 45.609375 C 126.753906 45.449219 126.800781 45.40625 126.835938 45.363281 C 126.894531 45.285156 126.941406 45.238281 126.992188 45.1875 C 127.074219 45.105469 127.15625 45.035156 127.234375 44.964844 C 127.320312 44.890625 127.402344 44.824219 127.476562 44.757812 C 127.648438 44.613281 127.84375 44.425781 128.117188 44.285156 C 128.320312 44.183594 128.53125 44 128.972656 44.175781 C 129.144531 44.242188 129.316406 44.410156 129.378906 44.601562 C 129.441406 44.789062 129.417969 44.960938 129.375 45.089844 C 129.304688 45.296875 129.195312 45.457031 129.0625 45.632812 C 128.957031 45.769531 128.839844 45.914062 128.707031 46.058594 C 128.378906 46.417969 128.023438 46.765625 127.746094 47.046875 C 127.597656 47.199219 127.46875 47.332031 127.464844 47.335938 C 127.457031 47.347656 127.527344 47.234375 127.503906 47.273438 C 127.492188 47.300781 127.566406 47.09375 127.550781 47.15625 M 126.9375 46.257812 C 126.671875 46.058594 126.617188 45.6875 126.8125 45.421875 C 127.007812 45.15625 127.378906 45.101562 127.644531 45.296875 C 127.726562 45.355469 127.367188 45.183594 127.425781 45.199219 C 127.523438 45.21875 127.199219 45.199219 127.234375 45.191406 C 127.277344 45.183594 127.1875 45.207031 127.199219 45.199219 C 127.210938 45.195312 127.238281 45.179688 127.273438 45.160156 C 127.375 45.101562 127.519531 45.011719 127.671875 44.914062 C 127.832031 44.816406 128.003906 44.691406 128.171875 44.566406 C 128.367188 44.421875 128.523438 44.289062 128.601562 44.207031 C 128.640625 44.164062 128.640625 44.167969 128.648438 44.152344 C 128.65625 44.140625 128.597656 44.320312 128.613281 44.257812 C 128.617188 44.222656 128.605469 44.445312 128.601562 44.390625 C 128.597656 44.335938 128.679688 44.644531 128.652344 44.578125 C 128.601562 44.46875 128.910156 44.851562 128.84375 44.804688 C 128.785156 44.765625 129.027344 44.886719 128.988281 44.875 C 128.929688 44.855469 129.089844 44.890625 129.082031 44.890625 C 129.078125 44.890625 129.042969 44.894531 129 44.898438 C 128.925781 44.910156 128.585938 45.070312 128.292969 45.265625 C 128.152344 45.363281 128.015625 45.46875 127.894531 45.5625 C 127.820312 45.625 127.753906 45.679688 127.710938 45.714844 C 127.691406 45.730469 127.691406 45.734375 127.683594 45.738281 C 127.679688 45.742188 127.773438 45.628906 127.734375 45.679688 C 127.542969 45.945312 127.167969 46.003906 126.902344 45.8125 C 126.636719 45.617188 126.578125 45.246094 126.769531 44.980469 C 126.8125 44.921875 126.828125 44.910156 126.84375 44.894531 C 126.875 44.863281 126.898438 44.84375 126.929688 44.816406 C 126.988281 44.765625 127.066406 44.699219 127.152344 44.632812 C 127.28125 44.527344 127.445312 44.402344 127.628906 44.277344 C 127.984375 44.039062 128.355469 43.789062 128.824219 43.71875 C 128.902344 43.710938 128.988281 43.695312 129.097656 43.699219 C 129.15625 43.699219 129.222656 43.703125 129.324219 43.730469 C 129.429688 43.761719 129.621094 43.839844 129.730469 44.074219 C 129.804688 44.234375 129.800781 44.390625 129.777344 44.496094 C 129.757812 44.601562 129.722656 44.675781 129.6875 44.734375 C 129.621094 44.855469 129.546875 44.9375 129.46875 45.023438 C 129.304688 45.195312 129.109375 45.355469 128.882812 45.523438 C 128.707031 45.652344 128.511719 45.796875 128.300781 45.929688 C 128.160156 46.015625 128.011719 46.113281 127.867188 46.195312 C 127.714844 46.28125 127.617188 46.460938 127.167969 46.359375 C 127.101562 46.347656 127.019531 46.316406 126.9375 46.257812 M 127.347656 45.921875 C 127.023438 45.976562 126.71875 45.753906 126.664062 45.429688 C 126.609375 45.105469 126.832031 44.796875 127.15625 44.746094 C 127.25 44.730469 126.988281 44.800781 127.007812 44.792969 C 127.074219 44.757812 127.148438 44.683594 127.371094 44.5 C 127.523438 44.371094 127.679688 44.230469 127.808594 44.105469 C 127.898438 44.023438 127.96875 43.957031 128 43.921875 C 128.011719 43.910156 127.972656 43.964844 127.992188 43.9375 C 128.003906 43.917969 127.933594 44.078125 127.949219 44.03125 C 127.964844 43.980469 127.9375 44.347656 127.925781 44.25 C 127.898438 44.007812 127.992188 43.894531 128.011719 43.859375 C 128.019531 43.84375 127.992188 43.898438 128.003906 43.875 C 128.011719 43.859375 127.964844 43.980469 127.976562 43.945312 C 127.988281 43.910156 127.949219 44.171875 127.949219 44.105469 C 127.957031 43.773438 128.230469 43.515625 128.558594 43.519531 C 128.886719 43.527344 129.148438 43.800781 129.140625 44.128906 C 129.136719 44.402344 129.050781 44.441406 129.050781 44.441406 C 129.046875 44.449219 129.097656 44.328125 129.082031 44.375 C 129.0625 44.425781 129.097656 44.011719 129.113281 44.125 C 129.136719 44.34375 129.058594 44.476562 129.007812 44.5625 C 128.960938 44.636719 128.914062 44.6875 128.875 44.730469 C 128.792969 44.820312 128.714844 44.890625 128.632812 44.96875 C 128.484375 45.109375 128.308594 45.269531 128.132812 45.414062 C 128 45.523438 127.886719 45.617188 127.789062 45.695312 C 127.691406 45.769531 127.710938 45.863281 127.347656 45.921875 M 128.636719 43.527344 C 128.960938 43.582031 129.179688 43.890625 129.121094 44.214844 C 129.066406 44.539062 128.757812 44.757812 128.433594 44.699219 C 128.429688 44.699219 128.445312 44.703125 128.445312 44.703125 C 128.417969 44.699219 128.46875 44.707031 128.46875 44.707031 C 128.46875 44.703125 128.457031 44.703125 128.453125 44.703125 C 128.402344 44.707031 128.515625 44.695312 128.503906 44.699219 C 128.449219 44.71875 128.292969 44.800781 128.128906 44.890625 C 128.015625 44.957031 127.902344 45.023438 127.804688 45.082031 C 127.738281 45.125 127.679688 45.160156 127.632812 45.1875 C 127.609375 45.199219 127.59375 45.210938 127.5625 45.226562 C 127.558594 45.226562 127.554688 45.230469 127.546875 45.230469 C 127.253906 45.375 126.894531 45.25 126.753906 44.957031 C 126.609375 44.660156 126.734375 44.300781 127.027344 44.160156 C 127.035156 44.15625 127.019531 44.164062 127.019531 44.164062 C 127.035156 44.15625 127.019531 44.164062 127.03125 44.15625 C 127.066406 44.136719 127.121094 44.101562 127.1875 44.0625 C 127.285156 44.003906 127.410156 43.929688 127.546875 43.851562 C 127.765625 43.726562 127.953125 43.539062 128.390625 43.515625 C 128.445312 43.511719 128.488281 43.511719 128.535156 43.515625 C 128.558594 43.515625 128.582031 43.515625 128.621094 43.523438 C 128.628906 43.523438 128.632812 43.523438 128.636719 43.527344 M 127.660156 45.160156 C 127.402344 45.363281 127.027344 45.324219 126.824219 45.066406 C 126.617188 44.808594 126.65625 44.433594 126.914062 44.230469 C 127.023438 44.140625 127.097656 44.101562 127.273438 43.988281 C 127.429688 43.882812 127.621094 43.746094 127.789062 43.621094 C 127.914062 43.527344 127.960938 43.492188 127.980469 43.464844 C 128 43.4375 127.875 43.746094 127.898438 43.644531 C 127.910156 43.589844 127.898438 43.921875 127.886719 43.84375 C 127.878906 43.765625 128.019531 44.144531 127.972656 44.078125 C 127.929688 44.011719 128.167969 44.261719 128.121094 44.226562 C 128.074219 44.195312 128.269531 44.304688 128.238281 44.292969 C 128.179688 44.269531 128.367188 44.320312 128.347656 44.316406 C 128.3125 44.316406 128.234375 44.316406 128.15625 44.324219 C 128.101562 44.332031 127.953125 44.386719 127.753906 44.441406 C 127.664062 44.464844 127.578125 44.484375 127.457031 44.488281 C 127.390625 44.488281 127.308594 44.488281 127.191406 44.445312 C 127.0625 44.394531 126.871094 44.253906 126.804688 44.042969 C 126.722656 43.769531 126.820312 43.613281 126.867188 43.527344 C 126.910156 43.453125 126.945312 43.414062 126.972656 43.378906 C 127.03125 43.316406 127.074219 43.273438 127.09375 43.25 C 127.1875 43.148438 127.273438 43.050781 127.300781 43.011719 C 127.316406 42.988281 127.230469 43.183594 127.246094 43.125 C 127.265625 43.0625 127.265625 43.464844 127.242188 43.371094 C 127.21875 43.273438 127.445312 43.671875 127.382812 43.613281 C 127.324219 43.558594 127.574219 43.722656 127.535156 43.707031 C 127.496094 43.695312 127.585938 43.71875 127.578125 43.71875 C 127.53125 43.714844 127.371094 43.730469 127.183594 43.742188 C 127.042969 43.75 126.910156 43.753906 126.785156 43.75 C 126.65625 43.75 126.488281 43.84375 126.148438 43.613281 C 125.957031 43.480469 125.890625 43.28125 125.871094 43.160156 C 125.855469 43.050781 125.867188 42.976562 125.875 42.914062 C 125.890625 42.804688 125.917969 42.730469 125.929688 42.695312 C 125.96875 42.558594 126.03125 42.472656 126.050781 42.441406 C 126.054688 42.4375 126.046875 42.453125 126.050781 42.445312 C 126.054688 42.4375 125.996094 42.546875 126.015625 42.507812 C 126.152344 42.210938 126.507812 42.082031 126.808594 42.21875 C 127.105469 42.359375 127.234375 42.714844 127.09375 43.011719 C 127.054688 43.09375 127.035156 43.113281 127.03125 43.121094 C 127.027344 43.128906 127.050781 43.089844 127.039062 43.105469 C 127.03125 43.125 127.085938 42.984375 127.074219 43.023438 C 127.058594 43.070312 127.054688 43.089844 127.054688 43.097656 C 127.050781 43.109375 127.042969 42.921875 127.050781 42.992188 C 127.058594 43.03125 126.96875 42.765625 127 42.832031 C 127.035156 42.902344 126.738281 42.570312 126.820312 42.628906 C 126.882812 42.671875 126.652344 42.554688 126.679688 42.5625 C 126.742188 42.578125 126.683594 42.558594 126.796875 42.558594 C 126.886719 42.5625 127 42.558594 127.113281 42.550781 C 127.3125 42.539062 127.542969 42.445312 127.929688 42.582031 C 128.109375 42.648438 128.335938 42.824219 128.402344 43.089844 C 128.464844 43.347656 128.371094 43.566406 128.273438 43.703125 C 128.171875 43.84375 128.066406 43.949219 127.988281 44.039062 C 127.933594 44.101562 127.886719 44.144531 127.875 44.160156 C 127.871094 44.164062 127.925781 44.078125 127.902344 44.117188 C 127.890625 44.140625 127.96875 43.929688 127.953125 43.992188 C 127.945312 44.027344 127.972656 43.8125 127.96875 43.867188 C 127.96875 43.917969 127.925781 43.621094 127.945312 43.6875 C 127.972656 43.78125 127.71875 43.375 127.785156 43.4375 C 127.851562 43.496094 127.554688 43.308594 127.605469 43.328125 C 127.699219 43.359375 127.40625 43.296875 127.433594 43.296875 C 127.476562 43.292969 127.414062 43.296875 127.453125 43.289062 C 127.535156 43.265625 127.730469 43.175781 128.007812 43.140625 C 128.171875 43.121094 128.316406 43.117188 128.445312 43.128906 C 128.5 43.132812 128.570312 43.140625 128.65625 43.175781 C 128.746094 43.210938 128.875 43.277344 128.972656 43.429688 C 129.074219 43.582031 129.089844 43.785156 129.058594 43.921875 C 129.027344 44.042969 128.976562 44.121094 128.9375 44.175781 C 128.808594 44.351562 128.667969 44.453125 128.5 44.578125 C 128.320312 44.710938 128.117188 44.859375 127.933594 44.980469 C 127.75 45.101562 127.703125 45.125 127.660156 45.160156 M 126.972656 42.320312 C 127.207031 42.546875 127.210938 42.925781 126.980469 43.160156 C 126.75 43.398438 126.375 43.402344 126.136719 43.171875 C 126.070312 43.105469 126.390625 43.320312 126.335938 43.296875 C 126.253906 43.265625 126.535156 43.332031 126.5 43.332031 C 126.46875 43.332031 126.558594 43.332031 126.550781 43.332031 C 126.542969 43.332031 126.53125 43.335938 126.457031 43.339844 C 126.445312 43.339844 126.449219 43.34375 126.390625 43.347656 C 126.355469 43.351562 126.304688 43.363281 126.199219 43.34375 C 126.171875 43.339844 126.136719 43.332031 126.101562 43.320312 C 125.789062 43.210938 125.625 42.871094 125.730469 42.5625 C 125.835938 42.25 126.175781 42.085938 126.488281 42.191406 C 126.519531 42.203125 126.378906 42.164062 126.402344 42.167969 C 126.449219 42.175781 126.285156 42.160156 126.304688 42.160156 C 126.324219 42.160156 126.269531 42.164062 126.273438 42.164062 C 126.28125 42.160156 126.3125 42.15625 126.390625 42.148438 C 126.417969 42.148438 126.386719 42.148438 126.445312 42.144531 C 126.515625 42.136719 126.695312 42.050781 126.972656 42.320312 M 126.859375 42.589844 C 126.945312 42.910156 126.757812 43.234375 126.4375 43.320312 C 126.121094 43.40625 125.792969 43.21875 125.707031 42.898438 C 125.640625 42.652344 125.730469 42.496094 125.777344 42.414062 C 125.820312 42.339844 125.859375 42.296875 125.894531 42.261719 C 125.960938 42.191406 126.019531 42.144531 126.078125 42.097656 C 126.191406 42.007812 126.304688 41.925781 126.351562 41.890625 C 126.359375 41.886719 126.320312 41.925781 126.34375 41.902344 C 126.34375 41.902344 126.335938 41.910156 126.335938 41.90625 C 126.554688 41.660156 126.929688 41.632812 127.179688 41.847656 C 127.425781 42.0625 127.453125 42.4375 127.238281 42.6875 C 127.234375 42.691406 127.234375 42.695312 127.230469 42.695312 C 127.1875 42.746094 127.144531 42.78125 127.089844 42.828125 C 126.996094 42.902344 126.894531 42.972656 126.816406 43.03125 C 126.78125 43.0625 126.761719 43.078125 126.757812 43.082031 C 126.753906 43.085938 126.835938 42.964844 126.808594 43.011719 C 126.792969 43.039062 126.878906 42.816406 126.863281 42.878906 C 126.84375 42.949219 126.828125 42.472656 126.859375 42.589844 M 126.382812 41.855469 C 126.625 41.632812 127.003906 41.648438 127.226562 41.890625 C 127.449219 42.132812 127.433594 42.511719 127.191406 42.734375 C 127.183594 42.738281 127.203125 42.722656 127.199219 42.722656 C 127.140625 42.78125 127.074219 42.84375 127.003906 42.917969 C 126.957031 42.96875 126.890625 43.054688 126.824219 43.140625 C 126.765625 43.222656 126.757812 43.230469 126.75 43.253906 C 126.734375 43.308594 126.710938 42.945312 126.738281 43.023438 C 126.769531 43.101562 126.664062 42.902344 126.667969 42.910156 C 126.722656 42.957031 126.75 42.929688 126.941406 43.050781 C 127.113281 43.15625 127.246094 43.277344 127.351562 43.390625 C 127.601562 43.652344 127.6875 43.945312 127.738281 44.171875 C 127.796875 44.433594 127.78125 44.65625 127.769531 44.796875 C 127.761719 44.863281 127.757812 44.910156 127.753906 44.914062 C 127.753906 44.917969 127.738281 44.773438 127.746094 44.816406 C 127.769531 44.914062 127.605469 44.546875 127.644531 44.59375 C 127.695312 44.664062 127.507812 44.46875 127.53125 44.484375 C 127.546875 44.496094 127.503906 44.46875 127.507812 44.46875 C 127.523438 44.480469 127.601562 44.507812 127.707031 44.632812 C 127.933594 44.902344 127.878906 45.09375 127.875 45.207031 C 127.875 45.21875 127.898438 45.320312 127.902344 45.527344 C 127.902344 45.578125 127.917969 45.671875 127.910156 45.828125 C 127.90625 45.851562 127.953125 46.058594 127.789062 46.332031 C 127.542969 46.742188 127.277344 46.738281 127.210938 46.773438 C 127.195312 46.78125 127.164062 46.804688 127.101562 46.859375 C 127.058594 46.898438 127.023438 46.925781 127.011719 46.933594 C 127.011719 46.9375 127.054688 46.890625 127.035156 46.910156 C 127.023438 46.921875 127.097656 46.828125 127.078125 46.855469 C 127.058594 46.886719 127.164062 46.667969 127.144531 46.726562 C 127.035156 47.039062 126.695312 47.203125 126.386719 47.09375 C 126.074219 46.984375 125.910156 46.644531 126.019531 46.335938 C 126.175781 45.882812 126.285156 45.988281 126.320312 45.957031 C 126.367188 45.917969 126.472656 45.820312 126.632812 45.730469 C 126.730469 45.675781 126.804688 45.644531 126.84375 45.625 C 126.859375 45.617188 126.839844 45.628906 126.851562 45.621094 C 126.867188 45.609375 126.730469 45.777344 126.769531 45.71875 C 126.808594 45.648438 126.714844 45.886719 126.714844 45.871094 C 126.714844 45.863281 126.714844 45.835938 126.71875 45.761719 C 126.71875 45.753906 126.710938 45.671875 126.710938 45.539062 C 126.710938 45.5 126.671875 45.375 126.683594 45.144531 C 126.683594 45.132812 126.691406 45.199219 126.6875 45.167969 C 126.683594 45.148438 126.722656 45.292969 126.710938 45.253906 C 126.695312 45.210938 126.84375 45.457031 126.796875 45.402344 C 126.753906 45.355469 126.90625 45.5 126.890625 45.488281 C 126.875 45.476562 126.90625 45.5 126.894531 45.492188 C 126.863281 45.472656 126.675781 45.476562 126.585938 45.082031 C 126.535156 44.867188 126.578125 44.738281 126.582031 44.695312 C 126.589844 44.59375 126.589844 44.5 126.574219 44.429688 C 126.546875 44.3125 126.507812 44.234375 126.488281 44.210938 C 126.425781 44.144531 126.363281 44.089844 126.320312 44.066406 C 126.253906 44.027344 126.101562 44 125.878906 43.800781 C 125.78125 43.714844 125.679688 43.597656 125.621094 43.433594 C 125.558594 43.265625 125.5625 43.070312 125.605469 42.917969 C 125.667969 42.714844 125.765625 42.570312 125.867188 42.433594 C 125.941406 42.332031 126.027344 42.214844 126.136719 42.101562 C 126.234375 41.996094 126.324219 41.914062 126.363281 41.875 C 126.371094 41.867188 126.375 41.863281 126.382812 41.855469 M 126.671875 47.117188 C 126.347656 47.164062 126.042969 46.9375 125.996094 46.613281 C 125.953125 46.285156 126.179688 45.984375 126.503906 45.9375 C 126.527344 45.933594 126.546875 45.933594 126.5625 45.933594 C 126.597656 45.929688 126.625 45.929688 126.65625 45.929688 C 126.722656 45.933594 126.792969 45.929688 126.921875 45.972656 C 127.234375 46.074219 127.40625 46.410156 127.304688 46.722656 C 127.207031 47.035156 126.871094 47.207031 126.558594 47.109375 C 126.484375 47.085938 126.625 47.121094 126.625 47.121094 C 126.625 47.121094 126.648438 47.121094 126.636719 47.121094 C 126.628906 47.121094 126.691406 47.117188 126.671875 47.117188 M 126.175781 46.726562 C 126.078125 46.410156 126.253906 46.078125 126.566406 45.980469 C 126.882812 45.882812 127.214844 46.058594 127.3125 46.371094 C 127.328125 46.421875 127.328125 46.433594 127.328125 46.433594 C 127.332031 46.4375 127.296875 46.335938 127.3125 46.375 C 127.328125 46.414062 127.125 46.117188 127.195312 46.191406 C 127.273438 46.273438 126.921875 46.03125 126.980469 46.050781 C 127.035156 46.070312 126.847656 46.027344 126.871094 46.027344 C 126.90625 46.03125 126.832031 46.027344 126.847656 46.027344 C 126.886719 46.023438 126.796875 46.035156 126.808594 46.03125 C 126.859375 46.007812 127.003906 45.914062 127.136719 45.808594 C 127.214844 45.75 127.269531 45.699219 127.28125 45.683594 C 127.300781 45.664062 127.199219 45.882812 127.21875 45.808594 C 127.230469 45.773438 127.210938 46.042969 127.203125 45.972656 C 127.199219 45.894531 127.386719 46.34375 127.3125 46.242188 C 127.246094 46.160156 127.582031 46.441406 127.515625 46.414062 C 127.457031 46.382812 127.699219 46.464844 127.660156 46.457031 C 127.597656 46.449219 127.785156 46.460938 127.773438 46.464844 C 127.75 46.464844 127.773438 46.464844 127.746094 46.46875 C 127.699219 46.480469 127.691406 46.507812 127.65625 46.535156 C 127.398438 46.738281 127.023438 46.695312 126.820312 46.4375 C 126.617188 46.179688 126.660156 45.804688 126.917969 45.601562 C 126.964844 45.5625 127.125 45.402344 127.441406 45.316406 C 127.492188 45.304688 127.554688 45.285156 127.648438 45.277344 C 127.699219 45.273438 127.761719 45.265625 127.851562 45.28125 C 127.953125 45.296875 128.125 45.34375 128.261719 45.523438 C 128.433594 45.753906 128.410156 45.976562 128.367188 46.125 C 128.328125 46.269531 128.257812 46.386719 128.167969 46.484375 C 128.066406 46.59375 127.96875 46.671875 127.875 46.746094 C 127.65625 46.917969 127.433594 47.164062 126.964844 47.210938 C 126.910156 47.21875 126.851562 47.222656 126.765625 47.214844 C 126.667969 47.207031 126.5 47.191406 126.328125 47.011719 C 126.175781 46.847656 126.175781 46.734375 126.167969 46.699219 C 126.164062 46.683594 126.1875 46.761719 126.175781 46.726562 M 127.644531 46.542969 C 127.378906 46.738281 127.007812 46.683594 126.8125 46.417969 C 126.617188 46.152344 126.675781 45.777344 126.941406 45.582031 C 126.949219 45.578125 126.960938 45.570312 126.972656 45.558594 C 127.003906 45.539062 127.042969 45.511719 127.097656 45.476562 C 127.128906 45.457031 127.242188 45.332031 127.523438 45.285156 C 127.777344 45.246094 127.890625 45.328125 127.945312 45.351562 C 127.984375 45.371094 127.847656 45.332031 127.917969 45.347656 C 127.980469 45.363281 127.714844 45.339844 127.757812 45.335938 C 127.816406 45.332031 127.640625 45.367188 127.65625 45.363281 C 127.667969 45.355469 127.648438 45.367188 127.660156 45.359375 C 127.691406 45.339844 127.761719 45.285156 127.855469 45.222656 C 127.941406 45.167969 128.003906 45.121094 128.019531 45.109375 C 128.054688 45.074219 128.082031 45.050781 128.089844 45.042969 C 128.089844 45.042969 128.0625 45.074219 128.074219 45.058594 C 128.089844 45.042969 127.980469 45.253906 128.007812 45.179688 C 128.125 44.875 128.472656 44.722656 128.777344 44.839844 C 129.085938 44.957031 129.238281 45.304688 129.121094 45.609375 C 128.996094 45.933594 128.882812 45.933594 128.8125 45.996094 C 128.703125 46.09375 128.605469 46.15625 128.515625 46.214844 C 128.476562 46.242188 128.398438 46.304688 128.285156 46.375 C 128.167969 46.445312 127.984375 46.589844 127.636719 46.507812 C 127.511719 46.476562 127.457031 46.441406 127.445312 46.433594 C 127.441406 46.433594 127.527344 46.460938 127.492188 46.449219 C 127.449219 46.4375 127.824219 46.445312 127.714844 46.464844 C 127.667969 46.472656 127.832031 46.417969 127.820312 46.425781 C 127.8125 46.429688 127.808594 46.4375 127.738281 46.484375 C 127.699219 46.507812 127.671875 46.527344 127.65625 46.535156 C 127.648438 46.542969 127.644531 46.542969 127.644531 46.542969 M 128.660156 44.804688 C 128.984375 44.859375 129.203125 45.167969 129.148438 45.492188 C 129.09375 45.816406 128.789062 46.035156 128.460938 45.980469 C 128.433594 45.976562 128.523438 45.988281 128.515625 45.988281 C 128.492188 45.988281 128.539062 45.988281 128.535156 45.988281 C 128.527344 45.988281 128.507812 45.988281 128.480469 45.992188 C 128.425781 45.996094 128.359375 46.003906 128.332031 46.007812 C 128.261719 46.019531 128.195312 46.042969 128.042969 46.027344 C 127.960938 46.023438 127.816406 46.011719 127.652344 45.859375 C 127.480469 45.691406 127.441406 45.402344 127.476562 45.253906 C 127.605469 44.730469 127.851562 44.722656 127.976562 44.613281 C 128.066406 44.535156 128.152344 44.46875 128.238281 44.414062 C 128.265625 44.394531 128.300781 44.363281 128.398438 44.308594 L 128.992188 45.34375 C 128.941406 45.371094 129.121094 45.242188 129.097656 45.261719 C 129.058594 45.300781 129.160156 45.1875 129.152344 45.195312 C 129.144531 45.210938 129.136719 45.238281 129.058594 45.339844 C 129.035156 45.375 129.011719 45.402344 128.992188 45.421875 C 128.984375 45.433594 128.976562 45.441406 128.972656 45.449219 C 128.757812 45.699219 128.382812 45.730469 128.132812 45.519531 C 127.878906 45.304688 127.847656 44.929688 128.0625 44.679688 C 128.066406 44.675781 128.070312 44.667969 128.074219 44.660156 C 128.089844 44.644531 128.105469 44.625 128.117188 44.609375 C 128.152344 44.566406 128 44.535156 128.398438 44.308594 C 128.683594 44.144531 129.046875 44.242188 129.210938 44.527344 C 129.375 44.8125 129.277344 45.179688 128.992188 45.34375 C 128.96875 45.355469 128.964844 45.363281 128.886719 45.414062 C 128.863281 45.429688 128.8125 45.464844 128.765625 45.507812 C 128.691406 45.574219 128.625 45.628906 128.585938 45.667969 C 128.570312 45.683594 128.574219 45.675781 128.570312 45.683594 C 128.566406 45.691406 128.605469 45.625 128.59375 45.648438 C 128.582031 45.667969 128.648438 45.480469 128.636719 45.535156 C 128.621094 45.59375 128.617188 45.183594 128.636719 45.285156 C 128.660156 45.394531 128.390625 44.914062 128.472656 44.992188 C 128.546875 45.0625 128.207031 44.847656 128.261719 44.867188 C 128.316406 44.882812 128.117188 44.839844 128.144531 44.839844 C 128.191406 44.84375 128.078125 44.839844 128.082031 44.839844 C 128.082031 44.839844 128.09375 44.839844 128.113281 44.835938 C 128.21875 44.816406 128.316406 44.808594 128.40625 44.800781 C 128.449219 44.800781 128.484375 44.796875 128.523438 44.796875 C 128.542969 44.796875 128.5625 44.796875 128.59375 44.796875 C 128.609375 44.800781 128.628906 44.800781 128.660156 44.804688 M 128.0625 44.679688 C 128.277344 44.429688 128.65625 44.40625 128.902344 44.621094 C 129.152344 44.839844 129.175781 45.214844 128.960938 45.464844 C 128.933594 45.492188 129.019531 45.378906 129.011719 45.390625 C 129.003906 45.40625 129.019531 45.378906 129.011719 45.390625 C 128.859375 45.679688 128.5 45.792969 128.207031 45.644531 C 127.917969 45.492188 127.804688 45.128906 127.957031 44.839844 C 127.960938 44.832031 127.984375 44.765625 128.0625 44.679688 M 128.457031 45.707031 C 128.128906 45.683594 127.878906 45.398438 127.902344 45.070312 C 127.925781 44.742188 128.210938 44.496094 128.539062 44.515625 C 128.597656 44.519531 128.628906 44.527344 128.65625 44.535156 C 128.714844 44.550781 128.75 44.550781 128.863281 44.613281 C 129.152344 44.777344 129.253906 45.140625 129.089844 45.425781 C 128.929688 45.710938 128.566406 45.8125 128.277344 45.652344 C 128.230469 45.625 128.371094 45.691406 128.359375 45.6875 C 128.347656 45.683594 128.394531 45.699219 128.386719 45.695312 C 128.375 45.695312 128.5 45.710938 128.457031 45.707031 M 128.027344 44.890625 C 128.164062 44.589844 128.519531 44.457031 128.820312 44.59375 C 129.117188 44.730469 129.25 45.085938 129.113281 45.382812 C 129.105469 45.40625 129.097656 45.417969 129.089844 45.433594 C 129.066406 45.472656 129.050781 45.496094 129.035156 45.515625 C 129.007812 45.550781 128.980469 45.585938 128.945312 45.621094 C 128.875 45.695312 128.789062 45.777344 128.675781 45.859375 C 128.625 45.894531 128.695312 45.8125 128.652344 45.867188 C 128.636719 45.882812 128.722656 45.75 128.703125 45.789062 C 128.683594 45.828125 128.761719 45.558594 128.753906 45.625 C 128.742188 45.695312 128.710938 45.332031 128.734375 45.402344 C 128.753906 45.472656 128.613281 45.195312 128.644531 45.234375 C 128.683594 45.285156 128.53125 45.128906 128.550781 45.144531 C 128.601562 45.179688 128.527344 45.125 128.578125 45.152344 C 128.871094 45.300781 128.992188 45.660156 128.84375 45.953125 C 128.691406 46.246094 128.335938 46.363281 128.039062 46.214844 C 127.988281 46.1875 127.894531 46.203125 127.710938 45.976562 C 127.617188 45.855469 127.546875 45.652344 127.570312 45.472656 C 127.59375 45.300781 127.667969 45.191406 127.726562 45.117188 C 127.832031 44.984375 127.917969 44.9375 127.976562 44.890625 C 128.015625 44.867188 128.050781 44.832031 128.070312 44.808594 C 128.082031 44.800781 128.074219 44.808594 128.082031 44.800781 C 128.085938 44.796875 128.03125 44.882812 128.050781 44.847656 C 128.054688 44.839844 128.019531 44.910156 128.027344 44.890625 "/>
<path style=" stroke:none;fill-rule:nonzero;fill:rgb(92.941284%,21.176147%,14.117432%);fill-opacity:1;" d="M 114.722656 20.816406 C 114.695312 21.144531 114.40625 21.390625 114.078125 21.363281 C 113.75 21.335938 113.507812 21.050781 113.535156 20.722656 C 113.539062 20.640625 113.53125 20.398438 113.515625 20.195312 C 113.503906 20.105469 113.492188 20.023438 113.488281 19.992188 C 113.484375 19.988281 113.492188 20.003906 113.488281 19.996094 C 113.484375 19.984375 113.550781 20.132812 113.523438 20.078125 C 113.511719 20.0625 113.582031 20.175781 113.5625 20.148438 C 113.542969 20.117188 113.71875 20.304688 113.667969 20.257812 C 113.414062 20.046875 113.378906 19.671875 113.589844 19.417969 C 113.796875 19.167969 114.175781 19.132812 114.429688 19.339844 C 114.535156 19.429688 114.5625 19.492188 114.582031 19.535156 C 114.644531 19.65625 114.644531 19.699219 114.65625 19.753906 C 114.675781 19.855469 114.691406 19.964844 114.699219 20.089844 C 114.722656 20.332031 114.742188 20.585938 114.722656 20.816406 M 113.609375 19.390625 C 113.835938 19.152344 114.214844 19.140625 114.453125 19.367188 C 114.691406 19.597656 114.699219 19.972656 114.472656 20.210938 C 114.417969 20.269531 114.59375 20.03125 114.574219 20.066406 C 114.554688 20.101562 114.613281 19.964844 114.605469 19.984375 C 114.589844 20.039062 114.613281 19.949219 114.613281 19.980469 C 114.605469 20.105469 114.621094 20.386719 114.632812 20.710938 C 114.664062 21.550781 114.851562 22.773438 114.945312 24.183594 C 115.03125 25.457031 115 26.707031 114.996094 27.550781 C 114.996094 27.746094 114.996094 27.910156 115 28.035156 C 115.003906 28.148438 114.988281 28.105469 115.003906 28.167969 C 115.011719 28.195312 114.882812 27.941406 114.9375 28.023438 C 114.957031 28.054688 114.785156 27.863281 114.832031 27.90625 C 114.878906 27.945312 114.574219 27.773438 114.648438 27.800781 C 114.71875 27.824219 114.355469 27.769531 114.429688 27.765625 C 114.558594 27.761719 114.070312 27.902344 114.136719 27.859375 C 114.226562 27.800781 113.964844 28.035156 113.988281 28.003906 C 114.007812 27.972656 113.949219 28.070312 113.953125 28.058594 C 113.964844 28.03125 113.976562 27.992188 114.015625 27.839844 C 114.09375 27.523438 114.417969 27.328125 114.738281 27.410156 C 115.058594 27.492188 115.25 27.816406 115.167969 28.136719 C 115.125 28.316406 115.09375 28.4375 115.023438 28.582031 C 114.984375 28.667969 114.980469 28.933594 114.484375 28.957031 C 114.214844 28.972656 114.015625 28.789062 113.945312 28.6875 C 113.882812 28.59375 113.867188 28.53125 113.855469 28.484375 C 113.769531 28.175781 113.804688 27.941406 113.804688 27.546875 C 113.808594 26.6875 113.835938 25.46875 113.753906 24.261719 C 113.664062 22.90625 113.476562 21.703125 113.441406 20.753906 C 113.425781 20.339844 113.335938 20.050781 113.46875 19.632812 C 113.484375 19.582031 113.5 19.503906 113.609375 19.390625 "/>
<path style=" stroke:none;fill-rule:nonzero;fill:rgb(92.941284%,21.176147%,14.117432%);fill-opacity:1;" d="M 112.515625 29.515625 C 112.824219 29.625 112.988281 29.964844 112.878906 30.277344 C 112.769531 30.585938 112.429688 30.75 112.117188 30.640625 C 111.84375 30.542969 111.570312 30.445312 111.414062 30.082031 C 111.328125 29.886719 111.347656 29.605469 111.460938 29.425781 C 111.566406 29.253906 111.699219 29.171875 111.820312 29.113281 C 112.277344 28.898438 112.59375 29.015625 112.9375 29.019531 C 113.839844 29.03125 115.0625 28.941406 116.179688 28.742188 C 117.265625 28.546875 118.160156 28.160156 118.269531 28.007812 C 118.464844 27.742188 118.835938 27.683594 119.105469 27.878906 C 119.371094 28.070312 119.429688 28.445312 119.234375 28.710938 C 118.667969 29.492188 117.574219 29.703125 116.390625 29.914062 C 115.1875 30.132812 113.914062 30.226562 112.917969 30.210938 C 112.722656 30.207031 112.554688 30.199219 112.425781 30.199219 C 112.367188 30.203125 112.320312 30.203125 112.296875 30.207031 C 112.277344 30.210938 112.375 30.171875 112.328125 30.191406 C 112.320312 30.195312 112.402344 30.140625 112.378906 30.160156 C 112.351562 30.179688 112.507812 30 112.472656 30.050781 C 112.441406 30.109375 112.550781 29.75 112.542969 29.832031 C 112.539062 29.917969 112.480469 29.546875 112.507812 29.609375 C 112.53125 29.664062 112.414062 29.472656 112.433594 29.492188 C 112.480469 29.546875 112.414062 29.480469 112.515625 29.515625 "/>
<path style=" stroke:none;fill-rule:nonzero;fill:rgb(92.941284%,21.176147%,14.117432%);fill-opacity:1;" d="M 110.910156 19.636719 C 110.996094 19.957031 110.804688 20.28125 110.488281 20.367188 C 110.167969 20.453125 109.84375 20.265625 109.757812 19.945312 C 109.707031 19.761719 109.640625 19.5625 109.640625 19.300781 C 109.636719 19.027344 109.777344 18.683594 110.019531 18.472656 C 110.753906 17.835938 111.976562 17.710938 113.355469 17.589844 C 114.074219 17.527344 114.796875 17.527344 115.425781 17.53125 C 116.097656 17.535156 116.652344 17.535156 117.140625 17.617188 C 117.621094 17.699219 118.105469 17.90625 118.394531 18.328125 C 118.578125 18.597656 118.507812 18.96875 118.238281 19.15625 C 117.964844 19.339844 117.59375 19.273438 117.410156 19 C 117.347656 18.910156 117.246094 18.84375 116.941406 18.792969 C 116.601562 18.734375 116.085938 18.726562 115.421875 18.722656 C 114.796875 18.71875 114.113281 18.71875 113.457031 18.777344 C 112.164062 18.890625 111.011719 19.191406 110.800781 19.371094 C 110.789062 19.382812 110.832031 19.292969 110.832031 19.296875 C 110.832031 19.320312 110.859375 19.449219 110.910156 19.636719 "/>
<path style=" stroke:none;fill-rule:nonzero;fill:rgb(92.941284%,21.176147%,14.117432%);fill-opacity:1;" d="M 122.964844 26.664062 C 122.765625 26.929688 122.394531 26.984375 122.128906 26.785156 C 121.867188 26.589844 121.8125 26.214844 122.007812 25.953125 C 122.054688 25.890625 122.054688 25.894531 122.0625 25.875 C 122.066406 25.859375 122.042969 26.042969 122.046875 25.984375 C 122.046875 25.917969 122.175781 26.339844 122.117188 26.246094 C 122.058594 26.144531 122.449219 26.492188 122.359375 26.453125 C 122.28125 26.421875 122.59375 26.488281 122.550781 26.492188 C 122.476562 26.492188 122.640625 26.476562 122.636719 26.476562 C 122.59375 26.496094 122.683594 26.445312 122.679688 26.453125 C 122.636719 26.492188 122.527344 26.660156 122.433594 26.886719 C 122.304688 27.199219 122.203125 27.601562 122.179688 27.992188 C 122.160156 28.304688 122.15625 28.574219 122.199219 28.757812 C 122.238281 28.925781 122.511719 29.164062 122.859375 29.292969 C 123.15625 29.402344 123.664062 29.320312 124.105469 29.097656 C 124.53125 28.886719 124.851562 28.554688 125.042969 28.191406 C 125.230469 27.839844 125.289062 27.464844 125.230469 27.183594 C 125.203125 27.035156 125.105469 26.875 124.921875 26.714844 C 124.726562 26.546875 124.4375 26.394531 124.078125 26.289062 C 123.472656 26.109375 122.800781 26.007812 122.199219 26.121094 C 121.605469 26.230469 121.0625 26.546875 120.632812 27.261719 C 120.460938 27.542969 120.09375 27.632812 119.8125 27.464844 C 119.53125 27.296875 119.441406 26.929688 119.609375 26.648438 C 120.203125 25.660156 121.097656 25.117188 121.980469 24.949219 C 122.847656 24.785156 123.699219 24.933594 124.417969 25.144531 C 124.910156 25.292969 125.347656 25.511719 125.695312 25.808594 C 126.042969 26.109375 126.308594 26.5 126.402344 26.949219 C 126.519531 27.546875 126.398438 28.183594 126.097656 28.753906 C 125.792969 29.324219 125.292969 29.839844 124.640625 30.164062 C 124 30.484375 123.207031 30.691406 122.449219 30.414062 C 121.875 30.203125 121.222656 29.792969 121.039062 29.035156 C 120.941406 28.632812 120.96875 28.253906 120.988281 27.914062 C 121.023438 27.378906 121.152344 26.867188 121.332031 26.429688 C 121.507812 26.007812 121.65625 25.628906 122.113281 25.40625 C 122.226562 25.351562 122.351562 25.304688 122.515625 25.300781 C 122.691406 25.292969 122.984375 25.375 123.136719 25.628906 C 123.289062 25.875 123.242188 26.113281 123.1875 26.265625 C 123.136719 26.417969 123.058594 26.539062 122.964844 26.664062 "/>
<path style=" stroke:none;fill-rule:nonzero;fill:rgb(0%,45.097351%,23.136902%);fill-opacity:1;" d="M 163.367188 122.519531 C 163.757812 122.3125 164.238281 122.464844 164.441406 122.851562 C 164.644531 123.242188 164.496094 123.722656 164.105469 123.925781 C 164.105469 123.925781 164.117188 123.914062 164.105469 123.921875 C 164.101562 123.929688 164.175781 123.820312 164.152344 123.859375 C 164.125 123.90625 164.242188 123.46875 164.230469 123.605469 C 164.21875 123.757812 164.0625 123.035156 164.132812 123.15625 C 164.199219 123.277344 163.855469 122.875 163.921875 122.921875 C 163.980469 122.964844 163.742188 122.824219 163.777344 122.839844 C 163.8125 122.855469 163.6875 122.808594 163.703125 122.816406 C 163.765625 122.832031 163.652344 122.804688 163.6875 122.804688 C 163.761719 122.808594 163.902344 122.796875 164.039062 122.773438 C 164.335938 122.71875 164.785156 122.53125 165.289062 122.371094 C 165.941406 122.167969 166.511719 122.128906 166.847656 122.058594 C 167.230469 121.980469 167.316406 121.976562 167.847656 121.464844 C 168.164062 121.164062 168.667969 121.175781 168.972656 121.492188 C 169.277344 121.808594 169.265625 122.3125 168.949219 122.613281 C 168.277344 123.257812 167.660156 123.511719 167.171875 123.613281 C 166.6875 123.714844 166.21875 123.746094 165.765625 123.890625 C 165.359375 124.015625 164.878906 124.238281 164.320312 124.335938 C 164.085938 124.378906 163.863281 124.398438 163.652344 124.394531 C 163.542969 124.394531 163.441406 124.390625 163.296875 124.351562 C 163.222656 124.332031 163.125 124.304688 162.988281 124.207031 C 162.835938 124.09375 162.621094 123.800781 162.648438 123.46875 C 162.679688 123.109375 162.839844 122.949219 162.960938 122.820312 C 163.082031 122.695312 163.214844 122.597656 163.367188 122.519531 "/>
<path style=" stroke:none;fill-rule:nonzero;fill:rgb(0%,45.097351%,23.136902%);fill-opacity:1;" d="M 165.757812 55.398438 C 165.582031 55.800781 165.113281 55.984375 164.710938 55.808594 C 164.308594 55.632812 164.125 55.164062 164.300781 54.761719 C 164.347656 54.652344 164.25 54.972656 164.253906 54.949219 C 164.253906 54.90625 164.242188 54.910156 164.238281 54.90625 C 164.21875 54.855469 164.433594 55.175781 164.363281 55.097656 C 164.289062 55.019531 164.875 55.359375 164.714844 55.3125 C 164.550781 55.269531 165.292969 55.25 165.171875 55.296875 C 165.054688 55.339844 165.457031 55.101562 165.410156 55.148438 C 165.367188 55.191406 165.511719 55.023438 165.496094 55.046875 C 165.457031 55.105469 165.519531 54.996094 165.507812 55.050781 C 165.394531 55.5 165.351562 56.652344 165.308594 57.859375 C 165.265625 58.960938 165.261719 60.019531 165.320312 60.691406 C 165.332031 60.84375 165.347656 60.964844 165.363281 61.039062 C 165.371094 61.074219 165.375 61.089844 165.375 61.09375 C 165.378906 61.097656 165.261719 60.902344 165.3125 60.976562 C 165.34375 61.019531 165.082031 60.765625 165.160156 60.824219 C 165.222656 60.871094 164.820312 60.683594 164.917969 60.707031 C 165.070312 60.75 164.347656 60.773438 164.472656 60.726562 C 164.589844 60.683594 164.1875 60.914062 164.234375 60.871094 C 164.308594 60.804688 164.144531 60.980469 164.144531 60.976562 C 164.148438 60.976562 164.160156 60.949219 164.175781 60.90625 C 164.332031 60.5 164.792969 60.292969 165.203125 60.453125 C 165.613281 60.609375 165.816406 61.070312 165.660156 61.480469 C 165.589844 61.660156 165.542969 61.824219 165.320312 62.03125 C 165.191406 62.152344 164.9375 62.304688 164.621094 62.265625 C 164.304688 62.226562 164.113281 62.03125 164.019531 61.902344 C 163.710938 61.46875 163.769531 61.203125 163.734375 60.824219 C 163.667969 60.023438 163.675781 58.9375 163.71875 57.800781 C 163.765625 56.59375 163.761719 55.472656 163.964844 54.664062 C 164.023438 54.441406 164.066406 54.234375 164.320312 53.992188 C 164.464844 53.855469 164.78125 53.679688 165.140625 53.78125 C 165.484375 53.875 165.636719 54.132812 165.707031 54.292969 C 165.835938 54.601562 166.003906 54.828125 165.757812 55.398438 "/>
<path style=" stroke:none;fill-rule:nonzero;fill:rgb(0%,45.097351%,23.136902%);fill-opacity:1;" d="M 162.8125 58.21875 C 163.253906 58.199219 163.625 58.539062 163.644531 58.976562 C 163.664062 59.414062 163.324219 59.789062 162.882812 59.808594 C 162.613281 59.820312 162.480469 59.835938 162.238281 59.796875 C 162.195312 59.789062 162.152344 59.789062 162.054688 59.757812 C 161.632812 59.636719 161.386719 59.195312 161.511719 58.773438 C 161.632812 58.355469 162.070312 58.109375 162.492188 58.230469 C 162.550781 58.25 162.375 58.210938 162.390625 58.210938 C 162.421875 58.214844 162.628906 58.199219 162.921875 58.199219 C 164.046875 58.203125 165.753906 58.101562 166.65625 57.320312 C 166.988281 57.035156 167.492188 57.070312 167.777344 57.402344 C 168.066406 57.734375 168.03125 58.238281 167.699219 58.523438 C 166.199219 59.820312 164.117188 59.792969 162.917969 59.789062 C 162.660156 59.789062 162.546875 59.902344 162.054688 59.757812 L 162.496094 58.230469 C 162.550781 58.25 162.457031 58.222656 162.492188 58.226562 C 162.578125 58.242188 162.46875 58.226562 162.53125 58.226562 C 162.605469 58.226562 162.699219 58.222656 162.8125 58.21875 "/>
<path style=" stroke:none;fill-rule:nonzero;fill:rgb(0%,45.097351%,23.136902%);fill-opacity:1;" d="M 177.578125 49.761719 C 177.503906 50.195312 177.097656 50.488281 176.664062 50.417969 C 176.230469 50.34375 175.9375 49.9375 176.007812 49.503906 C 176.027344 49.390625 176.015625 49.773438 176.007812 49.726562 C 175.996094 49.65625 176.035156 49.835938 176.03125 49.828125 C 176.027344 49.816406 176.003906 49.777344 175.988281 49.757812 C 175.964844 49.726562 175.949219 49.707031 175.945312 49.703125 C 175.945312 49.703125 176.097656 49.820312 176.027344 49.773438 C 175.984375 49.742188 176.320312 49.898438 176.222656 49.867188 C 176.117188 49.835938 176.792969 49.832031 176.636719 49.875 C 176.480469 49.914062 177.070312 49.574219 176.996094 49.65625 C 176.925781 49.734375 177.136719 49.421875 177.117188 49.46875 C 177.097656 49.519531 177.148438 49.367188 177.144531 49.378906 C 177.144531 49.402344 177.1875 49.929688 177.269531 50.566406 C 177.382812 51.476562 177.585938 52.652344 177.832031 53.824219 C 177.953125 54.402344 178.089844 54.96875 178.226562 55.488281 C 178.4375 56.292969 178.660156 56.949219 178.832031 57.402344 C 178.941406 57.691406 178.996094 57.824219 179.019531 57.855469 C 179.03125 57.875 178.824219 57.683594 178.902344 57.742188 C 178.941406 57.769531 178.660156 57.621094 178.730469 57.648438 C 178.808594 57.675781 178.371094 57.605469 178.46875 57.601562 C 178.570312 57.601562 178.132812 57.6875 178.207031 57.65625 C 178.28125 57.625 178.003906 57.78125 178.042969 57.75 C 178.113281 57.695312 177.910156 57.894531 177.925781 57.875 C 177.9375 57.855469 178.125 57.304688 178.355469 56.445312 C 178.582031 55.605469 178.886719 54.597656 179.171875 53.480469 C 179.46875 52.316406 179.734375 51.046875 179.996094 49.867188 C 180.152344 49.15625 180.308594 48.503906 180.441406 47.933594 C 180.640625 47.097656 180.785156 46.480469 180.9375 45.996094 C 181.070312 45.570312 181.167969 45.179688 181.496094 44.816406 C 181.804688 44.46875 182.328125 44.191406 182.886719 44.296875 C 183.445312 44.40625 183.859375 44.832031 184.148438 45.355469 C 184.359375 45.738281 184.21875 46.222656 183.835938 46.433594 C 183.449219 46.644531 182.964844 46.503906 182.753906 46.121094 C 182.605469 45.851562 182.660156 45.875 182.585938 45.859375 C 182.542969 45.851562 182.726562 45.839844 182.703125 45.847656 C 182.6875 45.855469 182.703125 45.847656 182.675781 45.878906 C 182.671875 45.882812 182.582031 46.066406 182.453125 46.472656 C 182.328125 46.871094 182.1875 47.46875 181.992188 48.300781 C 181.855469 48.867188 181.703125 49.515625 181.546875 50.210938 C 181.289062 51.382812 181.019531 52.664062 180.710938 53.875 C 180.417969 55.027344 180.105469 56.050781 179.890625 56.855469 C 179.65625 57.730469 179.566406 58.273438 179.25 58.75 C 179.203125 58.824219 179.136719 58.910156 179.027344 59 C 178.90625 59.09375 178.714844 59.191406 178.484375 59.191406 C 178.265625 59.195312 178.070312 59.105469 177.949219 59.015625 C 177.835938 58.929688 177.773438 58.847656 177.722656 58.777344 C 177.535156 58.511719 177.464844 58.277344 177.347656 57.964844 C 177.15625 57.460938 176.917969 56.757812 176.691406 55.890625 C 176.546875 55.347656 176.40625 54.761719 176.277344 54.152344 C 176.019531 52.9375 175.816406 51.734375 175.691406 50.765625 C 175.601562 50.054688 175.339844 49.574219 175.660156 48.835938 C 175.722656 48.6875 175.882812 48.429688 176.222656 48.339844 C 176.5625 48.246094 176.820312 48.386719 176.9375 48.472656 C 177.144531 48.613281 177.183594 48.707031 177.234375 48.773438 C 177.324219 48.882812 177.394531 48.996094 177.453125 49.117188 C 177.515625 49.238281 177.652344 49.308594 177.578125 49.761719 "/>
<path style=" stroke:none;fill-rule:nonzero;fill:rgb(0%,45.097351%,23.136902%);fill-opacity:1;" d="M 186.078125 52.65625 C 186.175781 53.085938 185.902344 53.507812 185.476562 53.605469 C 185.046875 53.699219 184.621094 53.429688 184.527344 53 C 184.503906 52.90625 184.488281 52.808594 184.464844 52.722656 C 184.453125 52.679688 184.445312 52.648438 184.4375 52.628906 C 184.433594 52.617188 184.5 52.726562 184.464844 52.675781 C 184.429688 52.625 184.675781 52.875 184.613281 52.828125 C 184.546875 52.777344 184.929688 52.96875 184.84375 52.945312 C 184.757812 52.917969 185.179688 52.964844 185.101562 52.972656 C 185.023438 52.976562 185.347656 52.90625 185.296875 52.925781 C 185.195312 52.964844 185.511719 52.785156 185.480469 52.8125 C 185.453125 52.839844 185.519531 52.769531 185.519531 52.773438 C 185.492188 52.8125 185.367188 53.09375 185.25 53.484375 C 185.085938 54.03125 184.921875 54.710938 184.835938 55.398438 C 184.78125 55.832031 184.757812 56.25 184.785156 56.585938 C 184.804688 56.863281 184.890625 57.085938 184.980469 57.21875 C 185 57.246094 185.128906 57.328125 185.414062 57.316406 C 185.722656 57.300781 186.261719 57.042969 186.746094 56.601562 C 186.992188 56.375 187.230469 56.011719 187.464844 55.605469 C 187.816406 55.007812 188.046875 54.394531 188.125 53.859375 C 188.171875 53.519531 188.175781 53.214844 188.128906 52.980469 C 188.058594 52.625 187.734375 52.289062 187.332031 52.125 C 186.96875 51.972656 186.492188 52.011719 185.957031 52.363281 C 185.375 52.734375 184.765625 53.460938 184.292969 54.546875 C 184.117188 54.949219 183.648438 55.136719 183.246094 54.960938 C 182.84375 54.785156 182.660156 54.316406 182.832031 53.914062 C 183.40625 52.601562 184.1875 51.613281 185.09375 51.027344 C 185.976562 50.457031 187.035156 50.28125 187.9375 50.652344 C 188.738281 50.984375 189.496094 51.679688 189.691406 52.675781 C 189.78125 53.148438 189.765625 53.621094 189.695312 54.085938 C 189.582031 54.878906 189.273438 55.664062 188.839844 56.40625 C 188.578125 56.855469 188.273438 57.355469 187.816406 57.773438 C 187.148438 58.382812 186.363281 58.863281 185.484375 58.902344 C 184.859375 58.929688 184.105469 58.757812 183.667969 58.113281 C 183.398438 57.71875 183.242188 57.238281 183.199219 56.714844 C 183.15625 56.210938 183.195312 55.699219 183.257812 55.203125 C 183.355469 54.394531 183.542969 53.636719 183.730469 53.023438 C 183.863281 52.578125 183.976562 52.214844 184.199219 51.882812 C 184.304688 51.726562 184.433594 51.558594 184.714844 51.445312 C 184.867188 51.386719 185.082031 51.359375 185.292969 51.417969 C 185.5 51.480469 185.671875 51.625 185.765625 51.761719 C 186.074219 52.203125 186.050781 52.523438 186.078125 52.65625 "/>
<path style=" stroke:none;fill-rule:nonzero;fill:rgb(0%,45.097351%,23.136902%);fill-opacity:1;" d="M 8.683594 51.925781 C 8.949219 52.277344 8.875 52.773438 8.523438 53.039062 C 8.175781 53.300781 7.675781 53.230469 7.414062 52.878906 C 7.027344 52.363281 7.042969 51.984375 6.921875 51.425781 C 6.859375 51.136719 6.820312 50.855469 6.796875 50.589844 C 6.769531 50.257812 6.769531 49.960938 6.773438 49.785156 L 8.363281 49.8125 C 8.363281 49.878906 8.359375 49.75 8.363281 49.765625 C 8.371094 49.828125 8.40625 50.003906 8.457031 50.242188 C 8.515625 50.523438 8.691406 51.039062 8.886719 51.695312 C 9.136719 52.542969 9.460938 53.597656 9.78125 54.800781 C 10.125 56.105469 10.421875 57.492188 10.675781 58.683594 C 10.902344 59.726562 11.054688 60.566406 11.179688 61.183594 C 11.265625 61.628906 11.339844 61.941406 11.398438 62.140625 C 11.433594 62.25 11.464844 62.324219 11.476562 62.355469 C 11.484375 62.367188 11.464844 62.335938 11.472656 62.351562 C 11.488281 62.371094 11.339844 62.226562 11.386719 62.261719 C 11.410156 62.28125 11.207031 62.175781 11.265625 62.195312 C 11.324219 62.21875 10.980469 62.167969 11.054688 62.164062 C 11.128906 62.160156 10.84375 62.21875 10.882812 62.199219 C 10.921875 62.1875 10.832031 62.230469 10.832031 62.230469 C 10.972656 62.117188 11.503906 61.226562 11.902344 60.066406 C 12.105469 59.472656 12.28125 58.792969 12.429688 58.078125 C 12.613281 57.1875 12.726562 56.230469 12.789062 55.269531 C 12.839844 54.496094 12.84375 53.730469 12.824219 53.035156 C 12.800781 52.273438 12.703125 51.609375 12.625 50.960938 C 12.53125 50.144531 12.460938 49.453125 12.515625 48.90625 C 12.535156 48.710938 12.53125 48.460938 12.847656 48.179688 C 13.019531 48.023438 13.324219 47.925781 13.566406 47.964844 C 13.796875 48.003906 13.941406 48.105469 14.042969 48.195312 C 14.402344 48.507812 14.511719 48.851562 14.679688 49.335938 C 14.824219 49.75 14.605469 50.203125 14.191406 50.347656 C 13.777344 50.492188 13.324219 50.273438 13.179688 49.859375 C 13.113281 49.667969 13.050781 49.523438 13.003906 49.433594 C 12.960938 49.351562 13.066406 49.453125 12.996094 49.390625 C 12.972656 49.371094 13.148438 49.488281 13.097656 49.460938 C 13.046875 49.433594 13.410156 49.550781 13.316406 49.535156 C 13.21875 49.519531 13.75 49.480469 13.636719 49.511719 C 13.527344 49.546875 13.976562 49.296875 13.910156 49.359375 C 13.847656 49.417969 14.066406 49.15625 14.039062 49.199219 C 14.003906 49.261719 14.097656 49.054688 14.09375 49.078125 C 14.089844 49.09375 14.097656 49.058594 14.09375 49.066406 C 14.070312 49.320312 14.113281 50 14.207031 50.777344 C 14.277344 51.398438 14.386719 52.125 14.410156 52.988281 C 14.433594 53.722656 14.429688 54.539062 14.375 55.375 C 14.308594 56.390625 14.191406 57.417969 13.988281 58.398438 C 13.828125 59.167969 13.636719 59.90625 13.40625 60.582031 C 12.964844 61.867188 12.558594 62.894531 11.8125 63.480469 C 11.636719 63.617188 11.402344 63.742188 11.117188 63.753906 C 10.835938 63.765625 10.574219 63.644531 10.410156 63.519531 C 10.027344 63.21875 9.972656 62.902344 9.882812 62.609375 C 9.789062 62.3125 9.714844 61.960938 9.621094 61.496094 C 9.492188 60.859375 9.339844 60.035156 9.121094 59.015625 C 8.867188 57.824219 8.578125 56.464844 8.242188 55.210938 C 7.933594 54.039062 7.613281 53.003906 7.363281 52.144531 C 7.179688 51.523438 6.996094 51.023438 6.902344 50.570312 C 6.835938 50.25 6.769531 50.121094 6.773438 49.785156 C 6.78125 49.347656 7.144531 48.996094 7.582031 49.003906 C 8.023438 49.011719 8.371094 49.375 8.363281 49.8125 C 8.359375 49.964844 8.359375 50.214844 8.378906 50.449219 C 8.398438 50.660156 8.429688 50.871094 8.476562 51.089844 C 8.527344 51.324219 8.589844 51.5625 8.648438 51.753906 C 8.675781 51.84375 8.703125 51.921875 8.722656 51.972656 C 8.730469 51.992188 8.738281 52.007812 8.738281 52.007812 C 8.738281 52.011719 8.636719 51.859375 8.683594 51.925781 "/>
<path style=" stroke:none;fill-rule:nonzero;fill:rgb(0%,45.097351%,23.136902%);fill-opacity:1;" d="M 19.410156 56.472656 C 19.628906 56.851562 19.5 57.335938 19.121094 57.558594 C 18.742188 57.777344 18.257812 57.648438 18.035156 57.269531 C 18.03125 57.265625 18.082031 57.332031 18.0625 57.3125 C 18.042969 57.285156 18.21875 57.457031 18.167969 57.414062 C 18.109375 57.367188 18.578125 57.582031 18.445312 57.546875 C 18.308594 57.515625 19.042969 57.457031 18.902344 57.515625 C 18.757812 57.574219 19.246094 57.246094 19.1875 57.3125 C 19.136719 57.375 19.300781 57.128906 19.285156 57.164062 C 19.257812 57.226562 19.316406 57.082031 19.316406 57.082031 C 19.265625 57.332031 19.3125 58.644531 19.371094 59.957031 C 19.417969 61.03125 19.421875 62.074219 19.425781 62.832031 C 19.429688 63.117188 19.421875 63.359375 19.421875 63.523438 C 19.421875 63.597656 19.425781 63.652344 19.425781 63.660156 C 19.425781 63.660156 19.402344 63.558594 19.414062 63.605469 C 19.421875 63.628906 19.351562 63.445312 19.375 63.496094 C 19.398438 63.546875 19.15625 63.210938 19.234375 63.289062 C 19.316406 63.378906 18.679688 63.039062 18.84375 63.074219 C 18.96875 63.101562 18.394531 63.101562 18.496094 63.078125 C 18.636719 63.042969 18.15625 63.257812 18.210938 63.214844 C 18.261719 63.175781 18.097656 63.328125 18.117188 63.304688 C 18.164062 63.25 18.089844 63.34375 18.117188 63.289062 C 18.1875 63.152344 18.304688 62.882812 18.46875 62.492188 C 18.636719 62.085938 19.101562 61.894531 19.507812 62.066406 C 19.914062 62.234375 20.105469 62.699219 19.933594 63.105469 C 19.765625 63.507812 19.644531 63.796875 19.53125 64.011719 C 19.480469 64.117188 19.433594 64.210938 19.328125 64.332031 C 19.269531 64.402344 19.191406 64.507812 18.96875 64.589844 C 18.722656 64.6875 18.277344 64.589844 18.089844 64.394531 C 17.777344 64.070312 17.855469 63.925781 17.84375 63.816406 C 17.832031 63.714844 17.832031 63.621094 17.832031 63.527344 C 17.832031 63.328125 17.839844 63.097656 17.835938 62.84375 C 17.832031 62.082031 17.828125 61.0625 17.78125 60.027344 C 17.722656 58.71875 17.605469 57.550781 17.757812 56.773438 C 17.773438 56.691406 17.792969 56.601562 17.847656 56.488281 C 17.90625 56.363281 18.011719 56.15625 18.316406 56.039062 C 18.632812 55.914062 18.996094 56.042969 19.152344 56.167969 C 19.296875 56.28125 19.359375 56.382812 19.410156 56.472656 "/>
<path style=" stroke:none;fill-rule:nonzero;fill:rgb(0%,45.097351%,23.136902%);fill-opacity:1;" d="M 18.820312 53.355469 C 19.132812 53.664062 19.132812 54.167969 18.820312 54.476562 C 18.511719 54.789062 18.007812 54.789062 17.695312 54.476562 C 16.820312 53.601562 16.394531 52.453125 16.46875 51.441406 C 16.488281 51.191406 16.542969 50.9375 16.671875 50.691406 C 16.800781 50.445312 17.019531 50.203125 17.316406 50.070312 C 17.613281 49.9375 17.949219 49.929688 18.246094 50 C 18.539062 50.074219 18.8125 50.214844 19.085938 50.402344 C 19.445312 50.652344 19.535156 51.148438 19.285156 51.507812 C 19.035156 51.867188 18.539062 51.957031 18.179688 51.707031 C 18.023438 51.601562 17.914062 51.558594 17.871094 51.546875 C 17.84375 51.539062 18.035156 51.488281 17.964844 51.519531 C 17.894531 51.550781 18.085938 51.414062 18.082031 51.421875 C 18.082031 51.425781 18.0625 51.476562 18.054688 51.5625 C 18.023438 51.988281 18.289062 52.824219 18.820312 53.355469 "/>
<path style=" stroke:none;fill-rule:nonzero;fill:rgb(92.941284%,21.176147%,14.117432%);fill-opacity:1;" d="M 61.644531 51.816406 C 61.492188 52.109375 61.132812 52.226562 60.839844 52.074219 C 60.546875 51.921875 60.433594 51.5625 60.585938 51.269531 C 60.699219 51.046875 60.703125 50.859375 60.699219 50.835938 C 60.699219 50.835938 60.730469 50.894531 60.714844 50.871094 C 60.699219 50.847656 60.855469 51 60.808594 50.96875 C 60.757812 50.9375 61.03125 51.035156 60.976562 51.03125 C 60.921875 51.023438 61.105469 51.011719 61.085938 51.019531 C 61.042969 51.035156 61.039062 51.050781 60.921875 51.179688 C 60.789062 51.324219 60.621094 51.535156 60.429688 51.792969 C 59.933594 52.457031 59.296875 53.355469 58.734375 54.441406 C 58.476562 54.933594 58.238281 55.445312 58.039062 55.949219 C 57.511719 57.308594 57.398438 58.554688 57.574219 59.628906 C 57.648438 60.089844 57.804688 60.554688 57.996094 61.03125 C 58.3125 61.820312 58.65625 62.621094 59.011719 63.25 C 59.355469 63.859375 59.664062 64.246094 59.855469 64.34375 C 59.945312 64.390625 60.074219 64.410156 60.273438 64.371094 C 60.484375 64.328125 60.75 64.214844 61.035156 64.046875 C 61.628906 63.6875 62.261719 63.109375 62.792969 62.464844 C 63.289062 61.867188 63.644531 61.160156 63.808594 60.441406 C 63.90625 60.023438 63.933594 59.605469 63.882812 59.242188 C 63.816406 58.769531 63.484375 58.351562 62.996094 58.027344 C 62.496094 57.695312 61.875 57.488281 61.359375 57.414062 C 60.898438 57.347656 60.535156 57.367188 60.417969 57.398438 C 60.359375 57.414062 60.332031 57.421875 60.328125 57.425781 C 60.320312 57.429688 60.4375 57.355469 60.394531 57.386719 C 60.375 57.402344 60.503906 57.277344 60.476562 57.3125 C 60.445312 57.347656 60.59375 57.105469 60.566406 57.167969 C 60.539062 57.226562 60.613281 56.90625 60.613281 56.96875 C 60.605469 57.0625 60.550781 56.675781 60.574219 56.734375 C 60.597656 56.789062 60.488281 56.582031 60.507812 56.609375 C 60.558594 56.679688 60.386719 56.488281 60.40625 56.503906 C 60.4375 56.527344 60.390625 56.492188 60.410156 56.503906 C 60.457031 56.527344 60.542969 56.558594 60.605469 56.574219 C 61.023438 56.679688 62.070312 56.539062 63.246094 56.347656 C 63.878906 56.246094 64.511719 56.144531 65.039062 56.101562 C 65.363281 56.074219 65.65625 55.964844 66.085938 56.148438 C 66.25 56.21875 66.382812 56.355469 66.453125 56.484375 C 66.519531 56.605469 66.542969 56.71875 66.554688 56.8125 C 66.578125 56.992188 66.566406 57.136719 66.558594 57.273438 C 66.542969 57.523438 66.558594 57.914062 66.511719 58.425781 C 66.460938 58.984375 66.371094 59.65625 66.292969 60.339844 C 66.207031 61.109375 66.144531 61.828125 66.117188 62.371094 C 66.105469 62.625 66.117188 62.84375 66.121094 63.0625 C 66.121094 63.308594 66.1875 63.472656 66.101562 63.8125 L 64.945312 63.53125 C 64.957031 63.472656 64.925781 63.699219 64.925781 63.664062 C 64.929688 63.605469 64.941406 63.796875 64.9375 63.777344 C 64.925781 63.722656 64.945312 63.800781 64.929688 63.757812 C 64.914062 63.710938 64.894531 63.644531 64.875 63.5625 C 64.804688 63.242188 65.003906 62.921875 65.324219 62.851562 C 65.648438 62.777344 65.964844 62.980469 66.039062 63.300781 C 66.046875 63.339844 66.058594 63.371094 66.070312 63.410156 C 66.082031 63.449219 66.199219 63.417969 66.101562 63.816406 C 66.023438 64.132812 65.699219 64.328125 65.382812 64.25 C 65.0625 64.171875 64.867188 63.851562 64.945312 63.53125 C 64.957031 63.476562 64.9375 63.582031 64.9375 63.5625 C 64.9375 63.484375 64.929688 63.289062 64.925781 63.066406 C 64.925781 62.886719 64.914062 62.628906 64.929688 62.316406 C 64.957031 61.734375 65.019531 60.996094 65.109375 60.207031 C 65.1875 59.511719 65.273438 58.84375 65.324219 58.320312 C 65.363281 57.875 65.351562 57.535156 65.367188 57.203125 C 65.375 57.082031 65.375 56.988281 65.375 56.972656 C 65.375 56.972656 65.4375 57.109375 65.40625 57.054688 C 65.371094 56.992188 65.710938 57.285156 65.613281 57.242188 C 65.582031 57.226562 65.664062 57.257812 65.65625 57.257812 C 65.601562 57.25 65.402344 57.269531 65.136719 57.289062 C 64.679688 57.328125 64.0625 57.421875 63.4375 57.523438 C 62.253906 57.714844 61.1875 57.953125 60.3125 57.726562 C 60.160156 57.691406 60.019531 57.636719 59.890625 57.574219 C 59.828125 57.542969 59.765625 57.511719 59.6875 57.453125 C 59.648438 57.425781 59.597656 57.386719 59.535156 57.300781 C 59.46875 57.203125 59.355469 56.96875 59.46875 56.707031 C 59.585938 56.421875 59.769531 56.367188 59.867188 56.324219 C 59.960938 56.285156 60.035156 56.269531 60.105469 56.25 C 60.503906 56.140625 60.964844 56.15625 61.523438 56.234375 C 62.214844 56.332031 62.980469 56.585938 63.65625 57.035156 C 64.335938 57.488281 64.9375 58.175781 65.066406 59.078125 C 65.140625 59.613281 65.097656 60.171875 64.972656 60.707031 C 64.761719 61.621094 64.320312 62.488281 63.710938 63.222656 C 63.109375 63.957031 62.398438 64.617188 61.648438 65.066406 C 61.28125 65.289062 60.898438 65.460938 60.507812 65.539062 C 60.113281 65.617188 59.6875 65.597656 59.308594 65.402344 C 58.710938 65.09375 58.351562 64.507812 57.972656 63.835938 C 57.570312 63.121094 57.214844 62.285156 56.890625 61.476562 C 56.683594 60.957031 56.492188 60.410156 56.394531 59.824219 C 56.183594 58.523438 56.332031 57.054688 56.929688 55.519531 C 57.144531 54.960938 57.40625 54.414062 57.675781 53.890625 C 58.285156 52.722656 58.960938 51.769531 59.472656 51.078125 C 59.875 50.542969 60.132812 50.085938 60.699219 49.890625 C 60.933594 49.8125 61.25 49.828125 61.476562 49.984375 C 61.703125 50.136719 61.8125 50.363281 61.859375 50.570312 C 61.953125 50.976562 61.859375 51.398438 61.644531 51.816406 "/>
<path style=" stroke:none;fill-rule:nonzero;fill:rgb(92.941284%,21.176147%,14.117432%);fill-opacity:1;" d="M 70.238281 55.601562 C 70.542969 55.730469 70.683594 56.082031 70.550781 56.382812 C 70.421875 56.6875 70.070312 56.828125 69.769531 56.695312 C 69.757812 56.691406 69.859375 56.703125 69.816406 56.703125 C 69.761719 56.699219 70.085938 56.605469 70.015625 56.648438 C 69.949219 56.6875 70.15625 56.496094 70.140625 56.527344 C 70.125 56.550781 70.152344 56.5 70.148438 56.515625 C 70.121094 56.621094 70.125 56.949219 70.164062 57.335938 C 70.242188 58.175781 70.277344 59.15625 70.296875 60.0625 C 70.304688 60.472656 70.296875 60.851562 70.296875 61.171875 C 70.296875 61.398438 70.296875 61.59375 70.296875 61.761719 C 70.296875 61.933594 70.269531 62.074219 70.246094 62.167969 C 70.238281 62.214844 70.226562 62.25 70.226562 62.25 C 70.226562 62.253906 70.238281 62.199219 70.234375 62.222656 C 70.167969 62.542969 69.855469 62.753906 69.53125 62.691406 C 69.210938 62.625 69 62.3125 69.0625 61.992188 C 69.066406 61.964844 69.070312 61.953125 69.074219 61.945312 C 69.082031 61.921875 69.082031 61.914062 69.085938 61.894531 C 69.09375 61.863281 69.105469 61.8125 69.105469 61.75 C 69.105469 61.601562 69.101562 61.402344 69.105469 61.164062 C 69.105469 60.835938 69.113281 60.46875 69.105469 60.085938 C 69.085938 59.195312 69.050781 58.234375 68.976562 57.449219 C 68.9375 57.027344 68.894531 56.636719 68.984375 56.246094 C 69.03125 56.046875 69.128906 55.789062 69.402344 55.625 C 69.683594 55.457031 70.011719 55.503906 70.238281 55.601562 M 70.140625 62.445312 C 69.953125 62.714844 69.582031 62.785156 69.3125 62.597656 C 69.042969 62.410156 68.972656 62.039062 69.160156 61.769531 C 69.167969 61.753906 69.140625 61.796875 69.144531 61.792969 C 69.339844 61.472656 70.140625 59.433594 70.972656 57.683594 C 71.386719 56.808594 71.808594 55.996094 72.148438 55.476562 C 72.253906 55.316406 72.191406 55.097656 72.699219 54.929688 C 72.90625 54.859375 73.167969 54.933594 73.292969 55.03125 C 73.410156 55.121094 73.457031 55.203125 73.492188 55.273438 C 73.5625 55.398438 73.589844 55.503906 73.617188 55.617188 C 73.667969 55.839844 73.699219 56.089844 73.722656 56.339844 C 73.78125 57.109375 73.757812 57.914062 73.808594 58.585938 C 73.839844 58.941406 73.894531 59.234375 73.914062 59.269531 C 73.921875 59.285156 73.761719 59.167969 73.816406 59.191406 C 73.871094 59.214844 73.648438 59.183594 73.675781 59.175781 C 73.6875 59.171875 74.160156 58.730469 74.59375 58.101562 C 75.042969 57.449219 75.5 56.679688 75.933594 56.035156 C 76.21875 55.605469 76.4375 55.226562 76.6875 54.921875 C 76.828125 54.746094 77.003906 54.589844 77.257812 54.515625 C 77.523438 54.441406 77.875 54.527344 78.074219 54.726562 C 78.570312 55.230469 78.601562 55.925781 78.675781 56.738281 C 78.757812 57.578125 78.773438 58.53125 78.789062 59.449219 C 78.804688 60.359375 78.8125 61.203125 78.863281 61.792969 C 78.882812 62.0625 78.921875 62.265625 78.9375 62.308594 C 78.941406 62.3125 78.902344 62.246094 78.921875 62.277344 C 78.9375 62.300781 78.777344 62.136719 78.828125 62.175781 C 78.867188 62.207031 78.601562 62.070312 78.667969 62.09375 C 78.769531 62.125 78.28125 62.113281 78.367188 62.089844 C 78.445312 62.066406 78.1875 62.1875 78.214844 62.167969 C 78.46875 61.960938 78.84375 61.996094 79.050781 62.253906 C 79.261719 62.507812 79.222656 62.882812 78.96875 63.089844 C 78.8125 63.21875 78.4375 63.320312 78.175781 63.167969 C 77.929688 63.03125 77.871094 62.855469 77.820312 62.722656 C 77.726562 62.46875 77.699219 62.207031 77.671875 61.890625 C 77.617188 61.226562 77.613281 60.378906 77.597656 59.46875 C 77.582031 58.554688 77.5625 57.625 77.488281 56.847656 C 77.421875 56.113281 77.230469 55.570312 77.226562 55.566406 C 77.1875 55.527344 77.472656 55.683594 77.398438 55.664062 C 77.328125 55.644531 77.632812 55.648438 77.589844 55.664062 C 77.546875 55.675781 77.652344 55.632812 77.648438 55.636719 C 77.648438 55.636719 77.632812 55.648438 77.609375 55.675781 C 77.457031 55.867188 77.226562 56.246094 76.921875 56.699219 C 76.515625 57.308594 76.054688 58.082031 75.578125 58.777344 C 75.109375 59.460938 74.738281 60.101562 74.019531 60.316406 C 73.804688 60.382812 73.5625 60.375 73.347656 60.285156 C 73.136719 60.195312 72.96875 60.027344 72.863281 59.835938 C 72.652344 59.441406 72.652344 59.054688 72.621094 58.679688 C 72.5625 57.917969 72.585938 57.117188 72.53125 56.4375 C 72.515625 56.230469 72.488281 56.023438 72.457031 55.894531 C 72.441406 55.835938 72.457031 55.867188 72.441406 55.835938 C 72.4375 55.824219 72.492188 55.90625 72.472656 55.882812 C 72.457031 55.859375 72.609375 56.011719 72.566406 55.976562 C 72.515625 55.9375 72.875 56.097656 72.78125 56.074219 C 72.683594 56.054688 73.164062 56.03125 73.078125 56.058594 C 73.019531 56.078125 73.234375 55.976562 73.203125 55.996094 C 73.15625 56.027344 73.28125 55.925781 73.277344 55.933594 C 73.269531 55.941406 73.226562 56.011719 73.148438 56.125 C 72.867188 56.558594 72.449219 57.347656 72.050781 58.195312 C 71.648438 59.035156 71.25 59.964844 70.902344 60.769531 C 70.574219 61.539062 70.355469 62.097656 70.160156 62.414062 C 70.15625 62.417969 70.152344 62.429688 70.140625 62.445312 "/>
<path style=" stroke:none;fill-rule:nonzero;fill:rgb(7.058716%,1.176453%,46.665955%);fill-opacity:1;" d="M 20.78125 89.734375 C 20.78125 89.40625 21.050781 89.140625 21.378906 89.140625 C 21.707031 89.140625 21.976562 89.40625 21.976562 89.734375 L 21.976562 100.675781 C 21.976562 101.003906 21.707031 101.273438 21.378906 101.273438 C 21.050781 101.273438 20.78125 101.003906 20.78125 100.675781 Z M 20.78125 89.734375 "/>
<path style=" stroke:none;fill-rule:nonzero;fill:rgb(7.058716%,1.176453%,46.665955%);fill-opacity:1;" d="M 12.871094 102.007812 C 12.542969 102.007812 12.273438 101.742188 12.273438 101.410156 C 12.273438 101.082031 12.542969 100.816406 12.871094 100.816406 L 29.886719 100.816406 C 30.214844 100.816406 30.480469 101.082031 30.480469 101.410156 C 30.480469 101.742188 30.214844 102.007812 29.886719 102.007812 Z M 12.871094 102.007812 "/>
<path style=" stroke:none;fill-rule:nonzero;fill:rgb(7.058716%,1.176453%,46.665955%);fill-opacity:1;" d="M 15.8125 105.910156 C 15.480469 105.910156 15.214844 105.640625 15.214844 105.3125 C 15.214844 104.984375 15.480469 104.71875 15.8125 104.71875 L 27.234375 104.71875 C 27.566406 104.71875 27.832031 104.984375 27.832031 105.3125 C 27.832031 105.640625 27.566406 105.910156 27.234375 105.910156 Z M 15.8125 105.910156 "/>
<path style=" stroke:none;fill-rule:nonzero;fill:rgb(7.058716%,1.176453%,46.665955%);fill-opacity:1;" d="M 19.082031 109.570312 C 18.753906 109.570312 18.488281 109.300781 18.488281 108.972656 C 18.488281 108.644531 18.753906 108.378906 19.082031 108.378906 L 23.964844 108.378906 C 24.292969 108.378906 24.558594 108.644531 24.558594 108.972656 C 24.558594 109.300781 24.292969 109.570312 23.964844 109.570312 Z M 19.082031 109.570312 "/>
</g>
</svg>
