<?xml version="1.0" encoding="UTF-8"?>
<svg xmlns="http://www.w3.org/2000/svg" xmlns:xlink="http://www.w3.org/1999/xlink" width="257.3441pt" height="97.2007pt" viewBox="0 0 257.3441 97.2007" version="1.2">
<g id="surface1">
<path style=" stroke:none;fill-rule:nonzero;fill:rgb(7.058716%,1.176453%,46.665955%);fill-opacity:1;" d="M 57.671875 52.128906 C 57.671875 51.769531 57.964844 51.476562 58.328125 51.476562 C 58.6875 51.476562 58.980469 51.769531 58.980469 52.128906 L 58.980469 62.980469 C 58.980469 63.34375 58.6875 63.636719 58.328125 63.636719 C 57.964844 63.636719 57.671875 63.34375 57.671875 62.980469 Z M 57.671875 52.128906 "/>
<path style=" stroke:none;fill-rule:nonzero;fill:rgb(7.058716%,1.176453%,46.665955%);fill-opacity:1;" d="M 52.855469 58.210938 C 52.492188 58.210938 52.199219 57.917969 52.199219 57.554688 C 52.199219 57.195312 52.492188 56.902344 52.855469 56.902344 L 63.796875 56.902344 C 64.160156 56.902344 64.453125 57.195312 64.453125 57.554688 C 64.453125 57.917969 64.160156 58.210938 63.796875 58.210938 Z M 52.855469 58.210938 "/>
<path style=" stroke:none;fill-rule:nonzero;fill:rgb(7.058716%,1.176453%,46.665955%);fill-opacity:1;" d="M 67.320312 57.554688 C 67.320312 60.871094 65.527344 63.769531 62.859375 65.328125 C 61.527344 66.105469 59.980469 66.550781 58.328125 66.550781 C 55.011719 66.550781 52.113281 64.757812 50.554688 62.089844 C 49.777344 60.757812 49.332031 59.207031 49.332031 57.554688 C 49.332031 54.242188 51.125 51.34375 53.792969 49.785156 C 55.125 49.007812 56.671875 48.558594 58.328125 48.558594 C 61.640625 48.558594 64.539062 50.355469 66.097656 53.023438 C 66.875 54.355469 67.320312 55.902344 67.320312 57.554688 M 66.136719 57.554688 C 66.136719 56.121094 65.75 54.777344 65.074219 53.621094 C 63.71875 51.304688 61.207031 49.746094 58.328125 49.746094 C 56.890625 49.746094 55.546875 50.132812 54.390625 50.808594 C 52.074219 52.160156 50.515625 54.675781 50.515625 57.554688 C 50.515625 58.992188 50.902344 60.335938 51.578125 61.488281 C 52.933594 63.808594 55.445312 65.367188 58.328125 65.367188 C 59.761719 65.367188 61.105469 64.980469 62.261719 64.304688 C 64.578125 62.949219 66.136719 60.433594 66.136719 57.554688 "/>
<path style=" stroke:none;fill-rule:nonzero;fill:rgb(7.058716%,1.176453%,46.665955%);fill-opacity:1;" d="M 19.164062 57.875 C 18.835938 57.875 18.570312 57.613281 18.570312 57.285156 C 18.570312 56.957031 18.835938 56.691406 19.164062 56.691406 L 49.921875 56.691406 C 50.25 56.691406 50.515625 56.957031 50.515625 57.285156 C 50.515625 57.613281 50.25 57.875 49.921875 57.875 Z M 19.164062 57.875 "/>
<path style=" stroke:none;fill-rule:nonzero;fill:rgb(7.058716%,1.176453%,46.665955%);fill-opacity:1;" d="M 68.015625 58.148438 C 67.691406 58.148438 67.425781 57.882812 67.425781 57.554688 C 67.425781 57.230469 67.691406 56.964844 68.015625 56.964844 L 88.039062 56.964844 C 88.367188 56.964844 88.632812 57.230469 88.632812 57.554688 C 88.632812 57.882812 88.367188 58.148438 88.039062 58.148438 Z M 68.015625 58.148438 "/>
<path style=" stroke:none;fill-rule:nonzero;fill:rgb(7.058716%,1.176453%,46.665955%);fill-opacity:1;" d="M 88.632812 43.304688 L 88.632812 71.929688 L 117.253906 71.929688 L 117.253906 43.304688 Z M 88.039062 42.121094 L 117.847656 42.121094 C 118.175781 42.121094 118.441406 42.386719 118.441406 42.714844 L 118.441406 72.519531 C 118.441406 72.847656 118.175781 73.113281 117.847656 73.113281 L 88.039062 73.113281 C 87.710938 73.113281 87.445312 72.847656 87.445312 72.519531 L 87.445312 42.714844 C 87.445312 42.386719 87.710938 42.121094 88.039062 42.121094 "/>
<path style=" stroke:none;fill-rule:nonzero;fill:rgb(7.058716%,1.176453%,46.665955%);fill-opacity:1;" d="M 117.847656 57.265625 C 117.519531 57.265625 117.253906 57 117.253906 56.671875 C 117.253906 56.347656 117.519531 56.082031 117.847656 56.082031 L 144.765625 56.082031 C 145.09375 56.082031 145.359375 56.347656 145.359375 56.671875 C 145.359375 57 145.09375 57.265625 144.765625 57.265625 Z M 117.847656 57.265625 "/>
<path style=" stroke:none;fill-rule:nonzero;fill:rgb(7.058716%,1.176453%,46.665955%);fill-opacity:1;" d="M 220.457031 16.5625 C 220.785156 16.5625 221.050781 16.832031 221.046875 17.160156 C 221.042969 17.484375 220.777344 17.75 220.449219 17.746094 L 57.949219 16.589844 C 57.625 16.589844 57.359375 16.320312 57.363281 15.996094 C 57.363281 15.667969 57.632812 15.402344 57.960938 15.40625 Z M 220.457031 16.5625 "/>
<path style=" stroke:none;fill-rule:nonzero;fill:rgb(7.058716%,1.176453%,46.665955%);fill-opacity:1;" d="M 57.363281 15.839844 C 57.363281 15.511719 57.628906 15.246094 57.953125 15.246094 C 58.28125 15.246094 58.546875 15.511719 58.546875 15.839844 L 58.546875 49.15625 C 58.546875 49.484375 58.28125 49.75 57.953125 49.75 C 57.628906 49.75 57.363281 49.484375 57.363281 49.15625 Z M 57.363281 15.839844 "/>
<path style=" stroke:none;fill-rule:nonzero;fill:rgb(7.058716%,1.176453%,46.665955%);fill-opacity:1;" d="M 44.410156 53.601562 C 44.410156 53.273438 44.675781 53.007812 45.003906 53.007812 C 45.332031 53.007812 45.597656 53.273438 45.597656 53.601562 L 45.597656 60.96875 C 45.597656 61.296875 45.332031 61.558594 45.003906 61.558594 C 44.675781 61.558594 44.410156 61.296875 44.410156 60.96875 Z M 44.410156 53.601562 "/>
<path style=" stroke:none;fill-rule:nonzero;fill:rgb(7.058716%,1.176453%,46.665955%);fill-opacity:1;" d="M 44.648438 54.074219 C 44.386719 53.878906 44.332031 53.507812 44.53125 53.246094 C 44.726562 52.984375 45.097656 52.929688 45.359375 53.125 L 50.277344 56.808594 C 50.539062 57.003906 50.59375 57.378906 50.398438 57.640625 C 50.203125 57.902344 49.828125 57.953125 49.566406 57.757812 Z M 44.648438 54.074219 "/>
<path style=" stroke:none;fill-rule:nonzero;fill:rgb(7.058716%,1.176453%,46.665955%);fill-opacity:1;" d="M 46.109375 54.855469 C 46.425781 54.925781 46.628906 55.242188 46.558594 55.5625 C 46.488281 55.882812 46.171875 56.085938 45.851562 56.015625 C 45.371094 55.910156 45.433594 55.734375 45.398438 55.683594 C 45.351562 55.625 45.324219 55.574219 45.308594 55.546875 C 45.296875 55.523438 45.382812 55.640625 45.335938 55.582031 C 45.128906 55.328125 45.167969 54.957031 45.421875 54.75 C 45.675781 54.542969 46.050781 54.582031 46.257812 54.835938 C 46.378906 54.988281 46.292969 54.90625 46.332031 54.953125 C 46.355469 54.988281 46.359375 54.988281 46.363281 54.996094 C 46.367188 55 46.289062 54.929688 46.316406 54.953125 C 46.335938 54.96875 46.214844 54.890625 46.246094 54.910156 C 46.28125 54.925781 46.046875 54.84375 46.109375 54.855469 M 45.246094 54.988281 C 45.371094 54.6875 45.71875 54.542969 46.023438 54.667969 C 46.324219 54.796875 46.46875 55.144531 46.339844 55.445312 C 46.339844 55.449219 46.339844 55.445312 46.332031 55.460938 C 46.339844 55.445312 46.34375 55.433594 46.34375 55.433594 C 46.34375 55.433594 46.347656 55.410156 46.347656 55.421875 C 46.34375 55.484375 46.339844 55.542969 46.339844 55.589844 C 46.335938 55.851562 46.335938 56.140625 46.339844 56.492188 C 46.339844 56.800781 46.339844 57.144531 46.339844 57.496094 C 46.339844 57.726562 46.339844 57.957031 46.339844 58.15625 C 46.339844 58.304688 46.335938 58.433594 46.339844 58.546875 C 46.339844 58.695312 46.339844 58.800781 46.351562 58.871094 C 46.351562 58.886719 46.367188 58.941406 46.390625 59.027344 C 46.410156 59.082031 46.417969 59.125 46.425781 59.140625 C 46.425781 59.148438 46.410156 59.101562 46.417969 59.121094 C 46.421875 59.136719 46.375 59.042969 46.390625 59.066406 C 46.40625 59.09375 46.261719 58.910156 46.304688 58.957031 C 46.335938 58.988281 46.054688 58.800781 46.148438 58.84375 C 46.441406 58.988281 46.566406 59.339844 46.421875 59.636719 C 46.28125 59.929688 45.925781 60.054688 45.628906 59.910156 C 45.535156 59.867188 45.492188 59.820312 45.460938 59.789062 C 45.136719 59.464844 45.273438 59.425781 45.253906 59.363281 C 45.234375 59.292969 45.195312 59.183594 45.175781 59.027344 C 45.152344 58.851562 45.152344 58.699219 45.152344 58.554688 C 45.152344 58.429688 45.152344 58.304688 45.152344 58.15625 C 45.152344 57.957031 45.152344 57.726562 45.152344 57.496094 C 45.152344 57.140625 45.15625 56.796875 45.152344 56.5 C 45.148438 56.148438 45.148438 55.847656 45.152344 55.574219 C 45.152344 55.488281 45.160156 55.414062 45.160156 55.363281 C 45.167969 55.25 45.1875 55.160156 45.210938 55.089844 C 45.21875 55.058594 45.230469 55.03125 45.238281 55.007812 C 45.25 54.976562 45.242188 55 45.246094 54.988281 M 46.058594 59.949219 C 45.742188 60.039062 45.414062 59.855469 45.324219 59.539062 C 45.238281 59.222656 45.421875 58.898438 45.734375 58.808594 C 45.800781 58.789062 45.550781 58.894531 45.585938 58.875 C 45.621094 58.851562 45.5 58.9375 45.515625 58.925781 C 45.542969 58.898438 45.382812 59.09375 45.394531 59.074219 C 45.40625 59.050781 45.375 59.113281 45.378906 59.109375 C 45.394531 59.0625 45.375 59.101562 45.394531 59.023438 C 45.472656 58.722656 45.574219 58.375 45.625 57.941406 C 45.667969 57.574219 45.648438 57.085938 45.664062 56.574219 C 45.671875 56.3125 45.691406 56.054688 45.734375 55.816406 C 45.765625 55.644531 45.816406 55.503906 45.863281 55.394531 C 45.894531 55.320312 45.933594 55.242188 46.019531 55.148438 C 46.050781 55.113281 46.089844 55.078125 46.144531 55.039062 C 46.300781 54.949219 46.453125 54.914062 46.605469 54.941406 C 46.925781 54.996094 47.140625 55.304688 47.085938 55.628906 C 47.027344 55.949219 46.71875 56.164062 46.398438 56.105469 C 46.328125 56.09375 46.667969 56.09375 46.601562 56.105469 C 46.539062 56.117188 46.8125 56.023438 46.765625 56.046875 C 46.777344 56.042969 46.910156 55.929688 46.894531 55.949219 C 46.84375 56.003906 46.949219 55.867188 46.949219 55.875 C 46.933594 55.90625 46.910156 55.964844 46.902344 56.027344 C 46.875 56.175781 46.855469 56.386719 46.847656 56.613281 C 46.835938 57.070312 46.859375 57.578125 46.804688 58.078125 C 46.742188 58.621094 46.609375 59.050781 46.546875 59.308594 C 46.535156 59.351562 46.53125 59.425781 46.476562 59.558594 C 46.457031 59.605469 46.445312 59.667969 46.324219 59.792969 C 46.253906 59.855469 46.191406 59.910156 46.058594 59.949219 M 45.996094 55.828125 C 45.828125 55.546875 45.925781 55.183594 46.207031 55.015625 C 46.488281 54.851562 46.851562 54.945312 47.019531 55.230469 C 47.066406 55.316406 47.085938 55.386719 47.09375 55.4375 C 47.109375 55.507812 47.105469 55.550781 47.105469 55.59375 C 47.105469 55.675781 47.097656 55.746094 47.085938 55.820312 C 47.078125 55.867188 47.089844 55.722656 47.089844 55.738281 C 47.089844 55.753906 47.109375 55.792969 47.128906 55.9375 C 47.144531 56.050781 47.160156 56.164062 47.167969 56.289062 C 47.179688 56.441406 47.1875 56.605469 47.195312 56.792969 C 47.210938 57.101562 47.210938 57.4375 47.214844 57.726562 C 47.21875 57.875 47.226562 58.007812 47.230469 58.132812 C 47.234375 58.230469 47.238281 58.308594 47.238281 58.3125 C 47.242188 58.347656 47.238281 58.332031 47.242188 58.351562 C 47.242188 58.359375 47.230469 58.308594 47.234375 58.324219 C 47.238281 58.34375 47.175781 58.15625 47.199219 58.21875 C 47.332031 58.515625 47.195312 58.867188 46.898438 59 C 46.597656 59.132812 46.25 58.996094 46.117188 58.695312 C 46.0625 58.578125 46.070312 58.546875 46.066406 58.519531 C 46.058594 58.464844 46.058594 58.441406 46.058594 58.421875 C 46.046875 58.324219 46.050781 58.257812 46.046875 58.183594 C 46.042969 58.070312 46.035156 57.925781 46.03125 57.753906 C 46.023438 57.449219 46.023438 57.113281 46.011719 56.84375 C 46.003906 56.660156 45.996094 56.507812 45.988281 56.386719 C 45.976562 56.277344 45.96875 56.191406 45.957031 56.101562 C 45.953125 56.089844 45.863281 55.96875 45.914062 55.640625 C 45.917969 55.609375 45.921875 55.585938 45.921875 55.582031 C 45.921875 55.578125 45.949219 55.738281 45.933594 55.667969 C 45.921875 55.609375 46.03125 55.894531 45.992188 55.820312 C 45.992188 55.820312 45.996094 55.828125 45.996094 55.828125 M 46.664062 59.054688 C 46.339844 59.054688 46.074219 58.789062 46.074219 58.460938 C 46.074219 58.132812 46.339844 57.867188 46.664062 57.867188 C 46.757812 57.867188 46.371094 57.941406 46.433594 57.917969 C 46.519531 57.878906 46.234375 58.058594 46.265625 58.027344 C 46.296875 58 46.195312 58.105469 46.207031 58.09375 C 46.285156 58.003906 46.164062 58.160156 46.171875 58.144531 C 46.179688 58.132812 46.164062 58.164062 46.164062 58.164062 C 46.175781 58.136719 46.15625 58.175781 46.167969 58.148438 C 46.1875 58.089844 46.214844 57.992188 46.257812 57.878906 C 46.351562 57.628906 46.472656 57.386719 46.570312 57.152344 C 46.695312 56.851562 46.796875 56.566406 46.839844 56.355469 C 46.851562 56.292969 46.851562 56.210938 46.855469 56.09375 C 46.855469 56 46.855469 55.910156 46.855469 55.835938 C 46.851562 55.703125 46.855469 55.59375 46.855469 55.550781 C 46.855469 55.546875 46.855469 55.542969 46.855469 55.535156 C 46.859375 55.210938 47.128906 54.949219 47.457031 54.953125 C 47.785156 54.960938 48.042969 55.230469 48.039062 55.558594 C 48.039062 55.5625 48.039062 55.546875 48.039062 55.550781 C 48.039062 55.613281 48.039062 55.707031 48.039062 55.820312 C 48.039062 55.910156 48.039062 56.003906 48.039062 56.101562 C 48.039062 56.21875 48.039062 56.386719 48.003906 56.582031 C 47.933594 56.929688 47.804688 57.273438 47.664062 57.613281 C 47.550781 57.878906 47.433594 58.121094 47.367188 58.296875 C 47.34375 58.363281 47.316406 58.445312 47.289062 58.535156 C 47.273438 58.574219 47.257812 58.621094 47.226562 58.6875 C 47.214844 58.710938 47.210938 58.75 47.117188 58.851562 C 47.109375 58.867188 47.023438 59.054688 46.664062 59.054688 M 46.855469 55.597656 C 46.828125 55.273438 47.070312 54.984375 47.394531 54.957031 C 47.722656 54.929688 48.007812 55.167969 48.039062 55.496094 C 48.039062 55.515625 48.039062 55.523438 48.039062 55.53125 C 48.042969 55.5625 48.042969 55.597656 48.042969 55.640625 C 48.042969 55.734375 48.042969 55.859375 48.039062 56.007812 C 48.019531 56.453125 47.941406 56.941406 47.886719 57.335938 C 47.871094 57.460938 47.855469 57.574219 47.84375 57.667969 C 47.835938 57.761719 47.824219 57.6875 47.832031 57.746094 C 47.84375 57.816406 47.84375 57.835938 47.84375 57.847656 C 47.84375 57.859375 47.804688 57.707031 47.824219 57.757812 C 47.84375 57.816406 47.597656 57.457031 47.679688 57.535156 C 47.75 57.601562 47.40625 57.398438 47.472656 57.414062 C 47.535156 57.433594 47.273438 57.402344 47.316406 57.398438 C 47.390625 57.394531 47.117188 57.46875 47.15625 57.445312 C 47.214844 57.410156 47.003906 57.578125 47.027344 57.550781 C 47.0625 57.511719 46.988281 57.605469 46.988281 57.601562 C 46.992188 57.597656 47.003906 57.574219 47.027344 57.535156 C 47.128906 57.375 47.238281 57.171875 47.308594 56.988281 C 47.355469 56.855469 47.40625 56.742188 47.4375 56.652344 C 47.480469 56.53125 47.507812 56.410156 47.566406 56.269531 C 47.570312 56.261719 47.523438 56.289062 47.644531 56.078125 C 47.808594 55.792969 48.171875 55.699219 48.457031 55.863281 C 48.738281 56.027344 48.835938 56.390625 48.671875 56.671875 C 48.640625 56.726562 48.714844 56.578125 48.710938 56.585938 C 48.707031 56.597656 48.699219 56.640625 48.664062 56.726562 C 48.65625 56.738281 48.613281 56.886719 48.550781 57.054688 C 48.503906 57.183594 48.457031 57.292969 48.421875 57.398438 C 48.308594 57.703125 48.160156 57.960938 48.039062 58.15625 C 48.03125 58.171875 48.050781 58.292969 47.757812 58.464844 C 47.648438 58.53125 47.53125 58.570312 47.390625 58.582031 C 47.246094 58.589844 47.035156 58.558594 46.863281 58.394531 C 46.679688 58.222656 46.671875 58.046875 46.664062 57.976562 C 46.660156 57.921875 46.664062 57.945312 46.660156 57.925781 C 46.632812 57.75 46.65625 57.644531 46.664062 57.550781 C 46.675781 57.433594 46.695312 57.304688 46.710938 57.171875 C 46.769531 56.769531 46.839844 56.300781 46.855469 55.960938 C 46.859375 55.839844 46.859375 55.734375 46.859375 55.660156 C 46.855469 55.625 46.855469 55.597656 46.855469 55.589844 C 46.855469 55.585938 46.859375 55.613281 46.855469 55.597656 M 47.589844 56.542969 C 47.5 56.226562 47.683594 55.898438 48 55.808594 C 48.3125 55.71875 48.640625 55.902344 48.730469 56.214844 C 48.742188 56.257812 48.75 56.292969 48.753906 56.324219 C 48.761719 56.382812 48.761719 56.441406 48.757812 56.507812 C 48.757812 56.507812 48.761719 56.59375 48.757812 56.703125 C 48.757812 56.796875 48.761719 56.910156 48.757812 57.039062 C 48.757812 57.078125 48.757812 57.125 48.757812 57.167969 C 48.757812 57.277344 48.753906 57.285156 48.757812 57.320312 C 48.765625 57.390625 48.761719 57.441406 48.761719 57.457031 C 48.761719 57.460938 48.757812 57.398438 48.761719 57.425781 C 48.761719 57.441406 48.734375 57.316406 48.746094 57.351562 C 48.753906 57.386719 48.644531 57.140625 48.679688 57.203125 C 48.851562 57.480469 48.765625 57.84375 48.488281 58.019531 C 48.210938 58.191406 47.84375 58.105469 47.671875 57.824219 C 47.40625 57.390625 47.578125 57.460938 47.578125 57.445312 C 47.5625 57.304688 47.574219 57.234375 47.574219 57.167969 C 47.574219 57.125 47.574219 57.082031 47.574219 57.035156 C 47.574219 56.925781 47.570312 56.804688 47.574219 56.675781 C 47.574219 56.621094 47.570312 56.554688 47.574219 56.449219 C 47.574219 56.445312 47.582031 56.507812 47.578125 56.480469 C 47.574219 56.457031 47.601562 56.574219 47.589844 56.542969 M 48.644531 57.878906 C 48.4375 58.136719 48.066406 58.175781 47.808594 57.972656 C 47.554688 57.765625 47.511719 57.394531 47.71875 57.136719 C 47.734375 57.121094 47.738281 57.113281 47.742188 57.109375 C 47.746094 57.105469 47.75 57.101562 47.761719 57.085938 C 47.785156 57.058594 47.804688 57.027344 47.8125 57.019531 C 47.882812 56.90625 47.894531 56.914062 47.921875 56.855469 C 47.9375 56.820312 47.949219 56.796875 47.949219 56.789062 C 47.953125 56.789062 47.9375 56.820312 47.945312 56.808594 C 47.949219 56.789062 47.898438 56.992188 47.910156 56.921875 C 47.964844 56.597656 48.269531 56.378906 48.59375 56.433594 C 48.914062 56.484375 49.132812 56.789062 49.082031 57.113281 C 49.039062 57.375 49.003906 57.332031 49.003906 57.339844 C 48.925781 57.511719 48.863281 57.574219 48.820312 57.644531 C 48.773438 57.71875 48.726562 57.777344 48.691406 57.824219 C 48.675781 57.839844 48.660156 57.859375 48.640625 57.882812 C 48.636719 57.890625 48.652344 57.867188 48.644531 57.878906 M 48.148438 56.539062 C 48.417969 56.351562 48.789062 56.417969 48.976562 56.6875 C 49.160156 56.957031 49.09375 57.324219 48.828125 57.511719 C 48.820312 57.515625 48.816406 57.519531 48.808594 57.523438 C 48.824219 57.515625 48.800781 57.53125 48.785156 57.539062 C 48.796875 57.53125 48.792969 57.535156 48.789062 57.539062 C 48.734375 57.59375 48.683594 57.632812 48.609375 57.679688 C 48.582031 57.699219 48.527344 57.722656 48.5 57.734375 C 48.347656 57.777344 48.203125 57.839844 47.957031 57.691406 C 47.675781 57.519531 47.585938 57.15625 47.753906 56.875 C 47.925781 56.597656 48.289062 56.507812 48.570312 56.675781 C 48.632812 56.714844 48.34375 56.59375 48.394531 56.605469 C 48.46875 56.621094 48.179688 56.597656 48.222656 56.59375 C 48.265625 56.589844 48.101562 56.617188 48.125 56.609375 C 48.066406 56.628906 47.929688 56.707031 47.972656 56.679688 C 48.039062 56.640625 47.964844 56.6875 47.96875 56.683594 C 48.023438 56.632812 48.074219 56.59375 48.105469 56.570312 C 48.140625 56.546875 48.089844 56.585938 48.113281 56.566406 C 48.171875 56.523438 48.144531 56.542969 48.148438 56.539062 "/>
<path style=" stroke:none;fill-rule:nonzero;fill:rgb(7.058716%,1.176453%,46.665955%);fill-opacity:1;" d="M 45.359375 61.441406 C 45.097656 61.636719 44.726562 61.585938 44.53125 61.324219 C 44.332031 61.0625 44.386719 60.6875 44.648438 60.492188 L 49.566406 56.808594 C 49.828125 56.613281 50.203125 56.667969 50.398438 56.929688 C 50.59375 57.191406 50.539062 57.5625 50.277344 57.757812 Z M 45.359375 61.441406 "/>
<path style=" stroke:none;fill-rule:nonzero;fill:rgb(7.058716%,1.176453%,46.665955%);fill-opacity:1;" d="M 62.007812 42.714844 C 62.335938 42.714844 62.601562 42.976562 62.601562 43.304688 C 62.601562 43.632812 62.335938 43.898438 62.007812 43.898438 L 54.644531 43.898438 C 54.316406 43.898438 54.050781 43.632812 54.050781 43.304688 C 54.050781 42.976562 54.316406 42.714844 54.644531 42.714844 Z M 62.007812 42.714844 "/>
<path style=" stroke:none;fill-rule:nonzero;fill:rgb(7.058716%,1.176453%,46.665955%);fill-opacity:1;" d="M 61.535156 42.949219 C 61.730469 42.6875 62.101562 42.636719 62.363281 42.832031 C 62.628906 43.027344 62.679688 43.398438 62.484375 43.660156 L 58.800781 48.582031 C 58.605469 48.84375 58.234375 48.894531 57.972656 48.699219 C 57.707031 48.503906 57.65625 48.132812 57.851562 47.871094 Z M 61.535156 42.949219 "/>
<path style=" stroke:none;fill-rule:nonzero;fill:rgb(7.058716%,1.176453%,46.665955%);fill-opacity:1;" d="M 60.753906 44.410156 C 60.683594 44.730469 60.367188 44.929688 60.046875 44.859375 C 59.726562 44.789062 59.523438 44.472656 59.597656 44.152344 C 59.703125 43.671875 59.878906 43.738281 59.925781 43.699219 C 59.984375 43.652344 60.039062 43.625 60.066406 43.609375 C 60.085938 43.597656 59.96875 43.683594 60.027344 43.640625 C 60.28125 43.433594 60.652344 43.46875 60.859375 43.722656 C 61.066406 43.976562 61.027344 44.351562 60.773438 44.558594 C 60.621094 44.683594 60.703125 44.59375 60.65625 44.632812 C 60.625 44.660156 60.621094 44.660156 60.613281 44.664062 C 60.609375 44.671875 60.679688 44.589844 60.65625 44.621094 C 60.644531 44.636719 60.71875 44.519531 60.703125 44.550781 C 60.683594 44.582031 60.765625 44.347656 60.753906 44.410156 M 60.621094 43.546875 C 60.925781 43.675781 61.066406 44.023438 60.941406 44.324219 C 60.816406 44.625 60.46875 44.769531 60.164062 44.644531 C 60.160156 44.640625 60.164062 44.640625 60.148438 44.636719 C 60.167969 44.644531 60.175781 44.644531 60.175781 44.644531 C 60.175781 44.644531 60.199219 44.648438 60.1875 44.648438 C 60.125 44.644531 60.066406 44.640625 60.019531 44.640625 C 59.757812 44.636719 59.46875 44.636719 59.121094 44.640625 C 58.808594 44.644531 58.464844 44.640625 58.113281 44.640625 C 57.882812 44.640625 57.652344 44.640625 57.453125 44.640625 C 57.304688 44.640625 57.175781 44.640625 57.066406 44.640625 C 56.917969 44.640625 56.808594 44.640625 56.742188 44.652344 C 56.722656 44.652344 56.667969 44.667969 56.585938 44.695312 C 56.53125 44.710938 56.484375 44.722656 56.46875 44.726562 C 56.464844 44.726562 56.507812 44.710938 56.488281 44.71875 C 56.476562 44.722656 56.570312 44.675781 56.542969 44.691406 C 56.515625 44.707031 56.699219 44.5625 56.652344 44.605469 C 56.621094 44.636719 56.808594 44.359375 56.765625 44.449219 C 56.625 44.742188 56.269531 44.867188 55.972656 44.722656 C 55.679688 44.582031 55.554688 44.226562 55.699219 43.933594 C 55.742188 43.839844 55.789062 43.792969 55.820312 43.761719 C 56.144531 43.441406 56.1875 43.574219 56.246094 43.558594 C 56.316406 43.535156 56.429688 43.496094 56.585938 43.476562 C 56.757812 43.453125 56.910156 43.457031 57.058594 43.453125 C 57.179688 43.453125 57.308594 43.453125 57.453125 43.453125 C 57.652344 43.453125 57.882812 43.453125 58.113281 43.453125 C 58.46875 43.453125 58.8125 43.457031 59.109375 43.453125 C 59.464844 43.453125 59.761719 43.449219 60.035156 43.453125 C 60.121094 43.457031 60.195312 43.460938 60.25 43.464844 C 60.359375 43.46875 60.449219 43.492188 60.519531 43.511719 C 60.550781 43.519531 60.578125 43.53125 60.601562 43.539062 C 60.632812 43.554688 60.613281 43.542969 60.621094 43.546875 M 55.660156 44.359375 C 55.574219 44.042969 55.757812 43.714844 56.070312 43.628906 C 56.386719 43.539062 56.714844 43.722656 56.800781 44.035156 C 56.820312 44.101562 56.714844 43.855469 56.738281 43.890625 C 56.757812 43.921875 56.671875 43.804688 56.6875 43.820312 C 56.710938 43.84375 56.515625 43.683594 56.539062 43.699219 C 56.558594 43.707031 56.496094 43.679688 56.503906 43.679688 C 56.546875 43.699219 56.507812 43.679688 56.585938 43.699219 C 56.886719 43.773438 57.234375 43.878906 57.667969 43.925781 C 58.035156 43.96875 58.527344 43.949219 59.039062 43.964844 C 59.300781 43.972656 59.554688 43.992188 59.792969 44.035156 C 59.96875 44.066406 60.105469 44.117188 60.214844 44.164062 C 60.292969 44.199219 60.367188 44.234375 60.460938 44.320312 C 60.496094 44.351562 60.535156 44.390625 60.570312 44.445312 C 60.660156 44.601562 60.699219 44.753906 60.671875 44.90625 C 60.613281 45.230469 60.304688 45.445312 59.984375 45.386719 C 59.660156 45.328125 59.445312 45.019531 59.503906 44.699219 C 59.515625 44.628906 59.515625 44.96875 59.503906 44.90625 C 59.492188 44.839844 59.589844 45.113281 59.5625 45.066406 C 59.566406 45.078125 59.679688 45.214844 59.660156 45.195312 C 59.609375 45.148438 59.742188 45.25 59.738281 45.25 C 59.703125 45.234375 59.644531 45.214844 59.582031 45.203125 C 59.433594 45.175781 59.222656 45.160156 59 45.152344 C 58.539062 45.136719 58.03125 45.160156 57.535156 45.105469 C 56.988281 45.042969 56.558594 44.914062 56.300781 44.847656 C 56.257812 44.835938 56.183594 44.832031 56.054688 44.777344 C 56.003906 44.757812 55.941406 44.75 55.820312 44.625 C 55.753906 44.554688 55.699219 44.492188 55.660156 44.359375 M 59.78125 44.296875 C 60.066406 44.132812 60.429688 44.226562 60.59375 44.507812 C 60.757812 44.792969 60.664062 45.15625 60.382812 45.320312 C 60.296875 45.367188 60.222656 45.386719 60.175781 45.394531 C 60.101562 45.414062 60.0625 45.410156 60.019531 45.410156 C 59.9375 45.40625 59.863281 45.398438 59.789062 45.386719 C 59.742188 45.382812 59.886719 45.390625 59.875 45.390625 C 59.855469 45.394531 59.816406 45.414062 59.671875 45.433594 C 59.558594 45.449219 59.449219 45.460938 59.320312 45.46875 C 59.171875 45.484375 59.003906 45.492188 58.816406 45.5 C 58.511719 45.511719 58.171875 45.511719 57.882812 45.515625 C 57.734375 45.519531 57.601562 45.527344 57.476562 45.53125 C 57.378906 45.539062 57.300781 45.539062 57.300781 45.539062 C 57.261719 45.542969 57.277344 45.539062 57.257812 45.542969 C 57.253906 45.542969 57.304688 45.535156 57.285156 45.539062 C 57.269531 45.542969 57.453125 45.476562 57.394531 45.503906 C 57.09375 45.632812 56.742188 45.5 56.613281 45.199219 C 56.480469 44.898438 56.613281 44.550781 56.914062 44.417969 C 57.035156 44.367188 57.0625 44.371094 57.089844 44.367188 C 57.144531 44.359375 57.167969 44.359375 57.191406 44.359375 C 57.285156 44.351562 57.351562 44.351562 57.425781 44.347656 C 57.539062 44.34375 57.6875 44.335938 57.855469 44.332031 C 58.160156 44.324219 58.496094 44.324219 58.769531 44.3125 C 58.949219 44.308594 59.101562 44.300781 59.222656 44.289062 C 59.332031 44.28125 59.417969 44.269531 59.511719 44.257812 C 59.519531 44.257812 59.644531 44.167969 59.96875 44.214844 C 60.003906 44.222656 60.023438 44.222656 60.027344 44.222656 C 60.035156 44.222656 59.871094 44.25 59.941406 44.234375 C 60 44.222656 59.71875 44.335938 59.789062 44.292969 C 59.789062 44.292969 59.78125 44.296875 59.78125 44.296875 M 56.554688 44.96875 C 56.554688 44.640625 56.820312 44.375 57.148438 44.375 C 57.476562 44.375 57.742188 44.640625 57.742188 44.96875 C 57.742188 45.058594 57.667969 44.675781 57.695312 44.734375 C 57.730469 44.820312 57.550781 44.535156 57.582031 44.566406 C 57.613281 44.597656 57.503906 44.5 57.519531 44.507812 C 57.609375 44.585938 57.449219 44.464844 57.464844 44.472656 C 57.480469 44.484375 57.445312 44.464844 57.445312 44.464844 C 57.472656 44.476562 57.433594 44.460938 57.460938 44.46875 C 57.519531 44.488281 57.621094 44.519531 57.734375 44.5625 C 57.980469 44.65625 58.226562 44.773438 58.457031 44.871094 C 58.757812 45 59.042969 45.097656 59.253906 45.140625 C 59.320312 45.152344 59.402344 45.15625 59.519531 45.15625 C 59.613281 45.15625 59.699219 45.15625 59.773438 45.15625 C 59.90625 45.152344 60.015625 45.15625 60.0625 45.15625 C 60.0625 45.15625 60.066406 45.15625 60.074219 45.15625 C 60.402344 45.160156 60.660156 45.429688 60.65625 45.757812 C 60.652344 46.085938 60.378906 46.347656 60.054688 46.339844 C 60.050781 46.339844 60.0625 46.339844 60.0625 46.339844 C 59.996094 46.339844 59.902344 46.339844 59.792969 46.339844 C 59.699219 46.34375 59.605469 46.34375 59.507812 46.339844 C 59.390625 46.339844 59.226562 46.34375 59.027344 46.304688 C 58.679688 46.234375 58.339844 46.109375 57.996094 45.964844 C 57.730469 45.855469 57.488281 45.734375 57.3125 45.667969 C 57.246094 45.644531 57.164062 45.621094 57.078125 45.589844 C 57.035156 45.574219 56.988281 45.5625 56.921875 45.527344 C 56.898438 45.515625 56.863281 45.511719 56.757812 45.417969 C 56.742188 45.410156 56.554688 45.328125 56.554688 44.96875 M 60.011719 45.160156 C 60.339844 45.128906 60.625 45.371094 60.652344 45.699219 C 60.683594 46.023438 60.441406 46.3125 60.113281 46.339844 C 60.09375 46.339844 60.085938 46.339844 60.078125 46.34375 C 60.046875 46.34375 60.015625 46.34375 59.972656 46.34375 C 59.875 46.347656 59.75 46.347656 59.605469 46.339844 C 59.15625 46.324219 58.667969 46.242188 58.277344 46.1875 C 58.148438 46.171875 58.035156 46.15625 57.941406 46.148438 C 57.851562 46.136719 57.921875 46.125 57.867188 46.136719 C 57.792969 46.144531 57.773438 46.144531 57.761719 46.144531 C 57.75 46.148438 57.902344 46.109375 57.851562 46.125 C 57.792969 46.144531 58.152344 45.898438 58.074219 45.980469 C 58.007812 46.054688 58.214844 45.707031 58.195312 45.773438 C 58.175781 45.835938 58.210938 45.578125 58.210938 45.617188 C 58.21875 45.691406 58.140625 45.417969 58.164062 45.457031 C 58.199219 45.515625 58.03125 45.304688 58.0625 45.332031 C 58.097656 45.363281 58.003906 45.289062 58.007812 45.292969 C 58.011719 45.296875 58.035156 45.304688 58.074219 45.332031 C 58.234375 45.429688 58.4375 45.542969 58.621094 45.609375 C 58.757812 45.660156 58.871094 45.707031 58.957031 45.738281 C 59.078125 45.78125 59.199219 45.8125 59.34375 45.871094 C 59.351562 45.875 59.320312 45.824219 59.53125 45.949219 C 59.816406 46.113281 59.914062 46.476562 59.75 46.757812 C 59.585938 47.042969 59.222656 47.136719 58.9375 46.972656 C 58.882812 46.941406 59.03125 47.015625 59.023438 47.011719 C 59.011719 47.007812 58.96875 47 58.886719 46.964844 C 58.871094 46.957031 58.722656 46.914062 58.554688 46.855469 C 58.425781 46.808594 58.316406 46.757812 58.214844 46.722656 C 57.90625 46.609375 57.648438 46.460938 57.453125 46.339844 C 57.4375 46.332031 57.316406 46.351562 57.144531 46.058594 C 57.082031 45.949219 57.039062 45.832031 57.027344 45.695312 C 57.019531 45.546875 57.050781 45.335938 57.21875 45.164062 C 57.390625 44.980469 57.5625 44.976562 57.632812 44.96875 C 57.691406 44.960938 57.667969 44.964844 57.683594 44.964844 C 57.859375 44.9375 57.964844 44.957031 58.058594 44.96875 C 58.179688 44.980469 58.304688 44.996094 58.441406 45.015625 C 58.84375 45.070312 59.308594 45.144531 59.652344 45.15625 C 59.769531 45.160156 59.875 45.160156 59.949219 45.160156 C 59.984375 45.160156 60.011719 45.160156 60.019531 45.15625 C 60.023438 45.15625 60 45.160156 60.011719 45.160156 M 59.070312 45.894531 C 59.382812 45.804688 59.710938 45.984375 59.800781 46.300781 C 59.890625 46.617188 59.710938 46.945312 59.394531 47.035156 C 59.351562 47.046875 59.316406 47.050781 59.285156 47.054688 C 59.226562 47.0625 59.167969 47.0625 59.101562 47.0625 C 59.101562 47.0625 59.015625 47.0625 58.910156 47.0625 C 58.8125 47.058594 58.699219 47.0625 58.574219 47.0625 C 58.53125 47.0625 58.488281 47.0625 58.445312 47.0625 C 58.332031 47.0625 58.324219 47.054688 58.289062 47.058594 C 58.21875 47.066406 58.167969 47.0625 58.152344 47.066406 C 58.148438 47.066406 58.214844 47.058594 58.183594 47.0625 C 58.167969 47.0625 58.292969 47.039062 58.257812 47.046875 C 58.222656 47.058594 58.46875 46.945312 58.410156 46.984375 C 58.128906 47.15625 57.765625 47.070312 57.59375 46.789062 C 57.421875 46.511719 57.507812 46.148438 57.785156 45.976562 C 58.21875 45.707031 58.148438 45.882812 58.164062 45.878906 C 58.304688 45.863281 58.375 45.875 58.445312 45.875 C 58.484375 45.875 58.53125 45.875 58.574219 45.875 C 58.683594 45.875 58.804688 45.875 58.9375 45.875 C 58.988281 45.878906 59.054688 45.871094 59.160156 45.875 C 59.167969 45.878906 59.101562 45.882812 59.132812 45.878906 C 59.152344 45.875 59.035156 45.902344 59.070312 45.894531 M 57.730469 46.945312 C 57.476562 46.738281 57.433594 46.367188 57.636719 46.113281 C 57.84375 45.855469 58.214844 45.816406 58.472656 46.019531 C 58.488281 46.035156 58.496094 46.039062 58.5 46.042969 C 58.503906 46.046875 58.507812 46.050781 58.527344 46.066406 C 58.550781 46.085938 58.582031 46.109375 58.59375 46.113281 C 58.707031 46.183594 58.699219 46.195312 58.757812 46.222656 C 58.792969 46.238281 58.8125 46.25 58.820312 46.253906 C 58.820312 46.253906 58.789062 46.238281 58.804688 46.246094 C 58.820312 46.253906 58.617188 46.203125 58.6875 46.214844 C 59.011719 46.265625 59.230469 46.570312 59.175781 46.894531 C 59.125 47.21875 58.820312 47.4375 58.496094 47.382812 C 58.238281 47.339844 58.277344 47.308594 58.273438 47.304688 C 58.097656 47.226562 58.035156 47.164062 57.96875 47.121094 C 57.890625 47.074219 57.832031 47.027344 57.789062 46.992188 C 57.769531 46.976562 57.75 46.964844 57.726562 46.941406 C 57.722656 46.9375 57.742188 46.953125 57.730469 46.945312 M 59.070312 46.453125 C 59.257812 46.71875 59.191406 47.089844 58.925781 47.277344 C 58.65625 47.464844 58.285156 47.398438 58.097656 47.128906 C 58.09375 47.125 58.089844 47.117188 58.085938 47.109375 C 58.09375 47.125 58.082031 47.105469 58.070312 47.085938 C 58.078125 47.101562 58.074219 47.09375 58.070312 47.09375 C 58.019531 47.035156 57.976562 46.988281 57.929688 46.910156 C 57.914062 46.886719 57.886719 46.828125 57.878906 46.800781 C 57.832031 46.648438 57.769531 46.503906 57.917969 46.257812 C 58.089844 45.976562 58.453125 45.886719 58.734375 46.058594 C 59.015625 46.226562 59.105469 46.589844 58.933594 46.871094 C 58.898438 46.933594 59.015625 46.644531 59.003906 46.695312 C 58.988281 46.769531 59.011719 46.480469 59.015625 46.523438 C 59.019531 46.566406 58.992188 46.402344 59 46.429688 C 58.980469 46.371094 58.902344 46.234375 58.929688 46.273438 C 58.972656 46.339844 58.921875 46.269531 58.925781 46.269531 C 58.976562 46.324219 59.019531 46.378906 59.039062 46.40625 C 59.0625 46.441406 59.023438 46.390625 59.042969 46.414062 C 59.085938 46.472656 59.070312 46.449219 59.070312 46.453125 "/>
<path style=" stroke:none;fill-rule:nonzero;fill:rgb(7.058716%,1.176453%,46.665955%);fill-opacity:1;" d="M 54.167969 43.660156 C 53.972656 43.398438 54.027344 43.027344 54.289062 42.832031 C 54.550781 42.636719 54.921875 42.6875 55.117188 42.949219 L 58.800781 47.871094 C 58.996094 48.132812 58.945312 48.503906 58.679688 48.699219 C 58.417969 48.894531 58.046875 48.84375 57.851562 48.582031 Z M 54.167969 43.660156 "/>
<path style=" stroke:none;fill-rule:nonzero;fill:rgb(92.941284%,21.176147%,14.117432%);fill-opacity:1;" d="M 95.160156 52.34375 C 95.300781 52.640625 95.175781 52.996094 94.878906 53.132812 C 94.582031 53.273438 94.230469 53.144531 94.089844 52.851562 C 94.078125 52.828125 94.222656 52.996094 94.171875 52.953125 C 94.121094 52.910156 94.546875 53.066406 94.433594 53.058594 C 94.382812 53.054688 94.644531 53.03125 94.585938 53.042969 C 94.527344 53.058594 94.800781 52.933594 94.75 52.96875 C 94.710938 52.996094 94.890625 52.816406 94.867188 52.851562 L 94.910156 52.765625 L 94.925781 52.722656 L 94.925781 52.800781 L 95.074219 53.699219 C 95.253906 54.570312 95.484375 55.734375 95.542969 56.933594 L 95.542969 58.296875 C 95.464844 59.230469 95.109375 59.929688 94.800781 60.335938 L 94.578125 60.582031 L 94.378906 60.710938 L 94.078125 60.765625 C 93.90625 60.75 93.671875 60.601562 93.585938 60.425781 C 93.4375 60.121094 93.539062 60.003906 93.566406 59.925781 L 93.648438 59.757812 L 93.878906 59.429688 C 94.082031 59.171875 94.457031 59.128906 94.714844 59.332031 C 94.96875 59.535156 95.011719 59.90625 94.8125 60.164062 L 94.671875 60.355469 L 94.679688 60.335938 C 94.671875 60.355469 94.710938 60.175781 94.703125 60.230469 L 94.707031 60.113281 C 94.710938 60.164062 94.613281 59.832031 94.652344 59.910156 C 94.691406 59.992188 94.351562 59.613281 94.445312 59.675781 C 94.527344 59.730469 94.128906 59.574219 94.203125 59.585938 C 94.265625 59.59375 94.003906 59.59375 94.046875 59.585938 C 94.117188 59.578125 93.871094 59.640625 93.902344 59.628906 L 93.820312 59.671875 L 93.796875 59.691406 L 93.855469 59.621094 C 94.03125 59.386719 94.304688 58.871094 94.359375 58.199219 L 94.359375 56.988281 C 94.308594 55.902344 94.089844 54.796875 93.914062 53.945312 L 93.742188 52.855469 L 93.800781 52.347656 L 94.050781 52.011719 C 94.195312 51.90625 94.378906 51.863281 94.53125 51.878906 L 94.941406 52.050781 Z M 95.160156 52.34375 "/>
<path style=" stroke:none;fill-rule:nonzero;fill:rgb(92.941284%,21.176147%,14.117432%);fill-opacity:1;" d="M 95.375 58.726562 C 95.164062 58.976562 94.789062 59.011719 94.539062 58.800781 C 94.289062 58.589844 94.253906 58.21875 94.464844 57.964844 C 94.964844 57.367188 95.734375 57.210938 96.441406 57.019531 C 97.136719 56.832031 97.785156 56.632812 97.914062 56.523438 C 98.164062 56.3125 98.539062 56.34375 98.75 56.59375 C 98.960938 56.847656 98.925781 57.21875 98.675781 57.429688 C 98.144531 57.878906 97.433594 57.980469 96.75 58.164062 C 96.082031 58.34375 95.492188 58.585938 95.375 58.726562 "/>
<path style=" stroke:none;fill-rule:nonzero;fill:rgb(92.941284%,21.176147%,14.117432%);fill-opacity:1;" d="M 97.429688 51.828125 C 97.683594 51.621094 98.058594 51.660156 98.265625 51.914062 C 98.472656 52.167969 98.433594 52.542969 98.179688 52.75 C 98.015625 52.882812 98.0625 52.785156 98.070312 53.039062 L 98.101562 54.011719 L 98.378906 56.074219 L 98.429688 57.972656 L 98.429688 59.585938 L 98.324219 60.996094 L 98.300781 60.929688 C 98.320312 60.96875 98.15625 60.75 98.203125 60.796875 C 98.253906 60.839844 97.976562 60.675781 98.035156 60.695312 C 98.085938 60.710938 97.890625 60.675781 97.914062 60.675781 L 98.03125 60.628906 C 98.335938 60.507812 98.679688 60.660156 98.796875 60.964844 C 98.917969 61.269531 98.765625 61.613281 98.460938 61.734375 C 98.234375 61.820312 98.015625 61.9375 97.664062 61.820312 C 97.46875 61.757812 97.300781 61.585938 97.226562 61.429688 L 97.140625 61.046875 L 97.246094 59.546875 L 97.242188 57.972656 L 97.199219 56.195312 L 96.921875 54.121094 L 96.882812 53.070312 C 96.871094 52.648438 97.0625 52.128906 97.429688 51.828125 "/>
<path style=" stroke:none;fill-rule:nonzero;fill:rgb(92.941284%,21.176147%,14.117432%);fill-opacity:1;" d="M 103.898438 53.085938 C 104.085938 53.351562 104.023438 53.722656 103.757812 53.914062 C 103.492188 54.101562 103.121094 54.039062 102.929688 53.773438 C 102.914062 53.75 103.191406 53.832031 103.125 53.84375 L 103.039062 53.960938 L 102.664062 54.941406 L 102.398438 55.976562 L 102.128906 57.847656 C 102.074219 58.4375 102.046875 58.96875 102.09375 59.367188 C 102.171875 59.996094 102.417969 60.246094 102.734375 60.371094 C 103.066406 60.507812 103.546875 60.488281 103.964844 60.367188 C 104.28125 60.277344 104.609375 60.457031 104.699219 60.769531 C 104.789062 61.085938 104.609375 61.414062 104.296875 61.507812 C 103.691406 61.683594 102.96875 61.746094 102.292969 61.472656 C 101.601562 61.195312 101.035156 60.480469 100.917969 59.507812 C 100.851562 58.953125 100.890625 58.359375 100.945312 57.738281 L 101.238281 55.734375 L 101.523438 54.617188 C 101.671875 54.089844 101.8125 53.648438 102.066406 53.285156 C 102.277344 52.976562 102.566406 52.734375 102.929688 52.675781 C 103.300781 52.613281 103.695312 52.800781 103.898438 53.085938 "/>
<path style=" stroke:none;fill-rule:nonzero;fill:rgb(92.941284%,21.176147%,14.117432%);fill-opacity:1;" d="M 108.414062 55.148438 C 108.671875 55.355469 108.710938 55.726562 108.507812 55.980469 C 108.300781 56.238281 107.929688 56.277344 107.671875 56.074219 C 107.535156 55.960938 107.511719 55.953125 107.398438 55.96875 C 107.234375 55.992188 106.90625 56.171875 106.699219 56.429688 L 106.5 56.902344 C 106.484375 57.070312 106.542969 57.265625 106.804688 57.480469 C 107.019531 57.65625 107.53125 57.8125 108.058594 57.996094 L 109.296875 58.4375 C 109.5625 58.554688 109.839844 58.652344 110.007812 59.039062 C 110.132812 59.328125 110.03125 59.621094 109.921875 59.785156 L 109.558594 60.128906 C 109.089844 60.433594 108.609375 60.40625 108.1875 60.449219 C 107.625 60.507812 107.058594 60.554688 106.542969 60.40625 C 106.277344 60.332031 105.972656 60.179688 105.808594 59.855469 C 105.640625 59.527344 105.703125 59.144531 105.84375 58.84375 C 105.984375 58.546875 106.335938 58.417969 106.632812 58.558594 C 106.929688 58.695312 107.054688 59.050781 106.917969 59.347656 L 106.890625 59.421875 L 106.863281 59.316406 L 106.804688 59.242188 L 106.863281 59.265625 C 107.078125 59.324219 107.5625 59.324219 108.070312 59.269531 L 108.914062 59.132812 L 108.9375 59.125 C 108.949219 59.105469 108.875 59.3125 108.890625 59.246094 C 108.902344 59.175781 108.957031 59.597656 108.917969 59.507812 C 108.898438 59.457031 108.992188 59.617188 108.976562 59.601562 L 108.820312 59.523438 L 107.675781 59.117188 C 107.1875 58.949219 106.566406 58.816406 106.054688 58.398438 C 105.539062 57.976562 105.265625 57.363281 105.320312 56.792969 C 105.359375 56.378906 105.53125 56.003906 105.765625 55.699219 C 106.15625 55.203125 106.675781 54.878906 107.222656 54.796875 C 107.691406 54.726562 108.132812 54.921875 108.414062 55.148438 "/>
<path style=" stroke:none;fill-rule:nonzero;fill:rgb(92.941284%,21.176147%,14.117432%);fill-opacity:1;" d="M 110.585938 51.238281 C 110.761719 51.515625 110.679688 51.882812 110.402344 52.058594 C 110.125 52.230469 109.761719 52.148438 109.585938 51.871094 L 109.429688 51.4375 C 109.410156 51.265625 109.433594 51.046875 109.59375 50.851562 C 109.71875 50.703125 109.914062 50.625 110.0625 50.617188 L 110.355469 50.652344 L 110.765625 50.859375 L 111.628906 51.628906 C 112.207031 52.253906 112.875 53.105469 113.390625 54.160156 C 113.695312 54.789062 113.945312 55.484375 114.09375 56.230469 C 114.253906 57.039062 114.238281 57.882812 114.164062 58.707031 C 114.097656 59.421875 113.949219 60.070312 113.761719 60.632812 C 113.523438 61.339844 113.199219 61.886719 112.867188 62.320312 C 112.402344 62.925781 111.964844 63.382812 111.609375 63.734375 C 111.3125 64.027344 111.144531 64.359375 110.742188 64.726562 C 110.503906 64.949219 110.128906 64.929688 109.90625 64.691406 C 109.683594 64.449219 109.703125 64.074219 109.945312 63.851562 L 110.777344 62.894531 L 111.929688 61.597656 C 112.195312 61.253906 112.445312 60.832031 112.636719 60.257812 C 112.796875 59.773438 112.925781 59.214844 112.980469 58.601562 C 113.050781 57.839844 113.058594 57.105469 112.929688 56.457031 C 112.804688 55.824219 112.589844 55.226562 112.324219 54.679688 C 111.875 53.765625 111.277344 52.996094 110.757812 52.429688 L 110.109375 51.84375 L 110.011719 51.785156 C 110.003906 51.785156 110.242188 51.789062 110.15625 51.796875 C 110.089844 51.800781 110.386719 51.722656 110.320312 51.753906 C 110.253906 51.785156 110.558594 51.550781 110.507812 51.609375 C 110.449219 51.675781 110.613281 51.371094 110.597656 51.425781 L 110.605469 51.308594 Z M 110.585938 51.238281 "/>
<path style=" stroke:none;fill-rule:nonzero;fill:rgb(7.058716%,1.176453%,46.665955%);fill-opacity:1;" d="M 62.394531 39.074219 C 62.714844 39.144531 62.917969 39.457031 62.847656 39.777344 C 62.78125 40.097656 62.464844 40.300781 62.144531 40.234375 C 61.917969 40.183594 61.746094 40.09375 61.550781 39.949219 C 61.449219 39.867188 61.304688 39.78125 61.207031 39.523438 C 61.144531 39.351562 61.164062 39.160156 61.214844 39.035156 L 61.398438 38.773438 L 61.757812 38.558594 C 62.230469 38.390625 62.679688 38.472656 63.230469 38.53125 L 65.070312 38.703125 L 66.726562 38.722656 L 67.242188 38.679688 C 67.253906 38.675781 67.132812 38.722656 67.191406 38.699219 L 67.101562 38.746094 C 67.128906 38.730469 66.953125 38.886719 66.996094 38.839844 C 67.03125 38.800781 66.855469 39.09375 66.886719 39.011719 C 66.914062 38.949219 66.847656 39.324219 66.84375 39.238281 C 66.84375 39.113281 67.003906 39.648438 66.949219 39.566406 C 66.898438 39.492188 67.136719 39.742188 67.097656 39.714844 C 67.03125 39.671875 67.265625 39.796875 67.234375 39.785156 L 67.320312 39.808594 L 67.277344 39.808594 C 66.949219 39.808594 66.683594 39.542969 66.683594 39.214844 C 66.683594 38.886719 66.949219 38.621094 67.277344 38.621094 C 67.390625 38.621094 67.378906 38.464844 67.773438 38.742188 C 67.84375 38.789062 67.953125 38.886719 68.007812 39.066406 C 68.089844 39.355469 67.917969 39.597656 67.832031 39.675781 L 67.679688 39.777344 L 67.484375 39.839844 L 66.753906 39.90625 L 65.011719 39.886719 L 62.15625 39.675781 C 62.152344 39.675781 62.257812 39.589844 62.214844 39.632812 C 62.1875 39.660156 62.34375 39.410156 62.3125 39.492188 C 62.292969 39.527344 62.355469 39.25 62.351562 39.316406 C 62.347656 39.386719 62.292969 39.039062 62.316406 39.105469 C 62.347656 39.183594 62.238281 38.976562 62.246094 38.988281 L 62.265625 39.003906 Z M 62.394531 39.074219 "/>
<path style=" stroke:none;fill-rule:nonzero;fill:rgb(7.058716%,1.176453%,46.665955%);fill-opacity:1;" d="M 70.605469 47.210938 C 70.703125 47.523438 70.53125 47.859375 70.21875 47.957031 C 69.90625 48.058594 69.574219 47.882812 69.476562 47.574219 L 69.222656 46.988281 L 69.160156 46.777344 C 69.09375 46.457031 69.304688 46.144531 69.625 46.082031 C 69.945312 46.019531 70.253906 46.222656 70.320312 46.542969 C 70.339844 46.640625 70.25 46.359375 70.261719 46.382812 L 70.222656 46.316406 L 70.582031 46.84375 L 72.171875 49.949219 L 72.894531 51.425781 L 73.109375 51.832031 C 73.132812 51.855469 72.945312 51.710938 72.996094 51.738281 C 73.050781 51.769531 72.722656 51.667969 72.796875 51.675781 C 72.867188 51.679688 72.546875 51.710938 72.601562 51.691406 C 72.65625 51.675781 72.453125 51.769531 72.480469 51.75 C 72.53125 51.714844 72.402344 51.824219 72.40625 51.816406 L 72.421875 51.789062 C 72.585938 51.425781 72.8125 50.609375 72.929688 49.679688 C 73.074219 48.558594 73.007812 47.25 73.007812 46.277344 C 73.007812 45.820312 72.917969 45.511719 73.179688 45.074219 C 73.257812 44.945312 73.457031 44.757812 73.722656 44.742188 C 73.976562 44.730469 74.136719 44.851562 74.234375 44.9375 L 74.617188 45.480469 C 74.769531 45.769531 74.660156 46.128906 74.371094 46.28125 C 74.082031 46.4375 73.722656 46.328125 73.570312 46.039062 L 73.441406 45.820312 C 73.425781 45.804688 73.582031 45.902344 73.53125 45.878906 C 73.492188 45.859375 73.773438 45.933594 73.703125 45.925781 C 73.589844 45.914062 74.132812 45.785156 74.039062 45.84375 C 73.953125 45.902344 74.21875 45.648438 74.195312 45.6875 C 74.15625 45.75 74.226562 45.617188 74.222656 45.632812 L 74.191406 46.277344 C 74.191406 47.207031 74.269531 48.5625 74.105469 49.828125 C 73.976562 50.859375 73.75 51.730469 73.503906 52.273438 C 73.433594 52.429688 73.351562 52.589844 73.148438 52.730469 C 73.035156 52.804688 72.867188 52.875 72.675781 52.851562 C 72.472656 52.832031 72.3125 52.71875 72.21875 52.613281 C 72.023438 52.390625 71.957031 52.191406 71.84375 51.976562 L 71.105469 50.464844 L 69.5625 47.453125 L 69.351562 47.128906 L 69.304688 47.066406 L 69.273438 47.027344 C 69.261719 47.011719 69.226562 47.101562 69.160156 46.785156 L 70.320312 46.546875 L 70.335938 46.582031 Z M 70.605469 47.210938 "/>
<path style=" stroke:none;fill-rule:nonzero;fill:rgb(7.058716%,1.176453%,46.665955%);fill-opacity:1;" d="M 76.875 47.171875 C 77.199219 47.21875 77.421875 47.519531 77.375 47.84375 C 77.328125 48.167969 77.027344 48.394531 76.703125 48.34375 C 76.664062 48.339844 76.96875 48.320312 76.886719 48.339844 C 76.796875 48.359375 77.25 48.097656 77.167969 48.179688 C 77.09375 48.261719 77.324219 47.871094 77.304688 47.941406 C 77.289062 48.003906 77.320312 47.757812 77.324219 47.792969 C 77.324219 47.851562 77.3125 47.710938 77.3125 47.714844 L 77.328125 47.753906 C 77.53125 48.199219 78.269531 49.058594 78.988281 49.832031 L 79.949219 50.855469 L 80.273438 51.214844 C 80.359375 51.316406 80.492188 51.230469 80.53125 51.722656 C 80.558594 52.050781 80.3125 52.335938 79.988281 52.359375 C 79.660156 52.386719 79.375 52.140625 79.351562 51.816406 C 79.34375 51.742188 79.394531 51.996094 79.382812 51.964844 C 79.339844 51.851562 76.957031 49.796875 76.25 48.246094 L 76.136719 47.835938 C 76.132812 47.726562 76.144531 47.535156 76.316406 47.355469 C 76.5 47.167969 76.75 47.152344 76.875 47.171875 "/>
<path style=" stroke:none;fill-rule:nonzero;fill:rgb(7.058716%,1.176453%,46.665955%);fill-opacity:1;" d="M 77.980469 51.085938 C 78.082031 51.394531 77.910156 51.730469 77.597656 51.832031 C 77.289062 51.933594 76.953125 51.761719 76.851562 51.453125 C 76.738281 51.101562 76.550781 50.625 76.707031 50.066406 C 76.914062 49.3125 77.523438 48.722656 78.121094 48.175781 L 79.574219 46.957031 C 79.824219 46.746094 80.199219 46.773438 80.410156 47.023438 C 80.621094 47.273438 80.59375 47.648438 80.34375 47.859375 C 79.65625 48.449219 78.03125 49.722656 77.847656 50.382812 C 77.804688 50.546875 77.859375 50.714844 77.980469 51.085938 "/>
<path style=" stroke:none;fill-rule:nonzero;fill:rgb(7.058716%,1.176453%,46.665955%);fill-opacity:1;" d="M 145.554688 56.691406 L 155.335938 68.347656 L 166.871094 68.347656 L 166.871094 45.351562 L 155.894531 45.351562 Z M 144.328125 56.273438 L 155.195312 44.359375 C 155.308594 44.234375 155.46875 44.164062 155.636719 44.164062 L 167.460938 44.164062 C 167.789062 44.164062 168.054688 44.429688 168.054688 44.757812 L 168.054688 68.941406 C 168.054688 69.269531 167.789062 69.53125 167.460938 69.53125 L 155.058594 69.53125 C 154.882812 69.53125 154.71875 69.457031 154.605469 69.320312 L 144.3125 57.054688 C 144.121094 56.828125 144.128906 56.492188 144.328125 56.273438 "/>
<path style=" stroke:none;fill-rule:nonzero;fill:rgb(7.058716%,1.176453%,46.665955%);fill-opacity:1;" d="M 204.367188 57.023438 L 196.535156 45.46875 L 186.113281 45.4375 L 186.113281 68.46875 L 196.539062 68.46875 Z M 205.574219 57.359375 L 197.339844 69.394531 C 197.230469 69.558594 197.046875 69.652344 196.851562 69.652344 L 185.519531 69.652344 C 185.195312 69.652344 184.929688 69.386719 184.929688 69.0625 L 184.929688 44.84375 C 184.929688 44.515625 185.195312 44.25 185.523438 44.25 L 196.851562 44.285156 C 197.046875 44.285156 197.230469 44.382812 197.339844 44.546875 L 205.574219 56.691406 C 205.710938 56.894531 205.710938 57.160156 205.574219 57.359375 "/>
<path style=" stroke:none;fill-rule:nonzero;fill:rgb(7.058716%,1.176453%,46.665955%);fill-opacity:1;" d="M 205.082031 57.617188 C 204.753906 57.617188 204.488281 57.351562 204.488281 57.027344 C 204.488281 56.699219 204.753906 56.433594 205.082031 56.433594 L 220.453125 56.433594 C 220.78125 56.433594 221.046875 56.699219 221.046875 57.027344 C 221.046875 57.351562 220.78125 57.617188 220.453125 57.617188 Z M 205.082031 57.617188 "/>
<path style=" stroke:none;fill-rule:nonzero;fill:rgb(7.058716%,1.176453%,46.665955%);fill-opacity:1;" d="M 221.046875 57.027344 C 221.046875 57.351562 220.78125 57.617188 220.453125 57.617188 C 220.125 57.617188 219.859375 57.351562 219.859375 57.027344 L 219.859375 17.152344 C 219.859375 16.828125 220.125 16.5625 220.453125 16.5625 C 220.78125 16.5625 221.046875 16.828125 221.046875 17.152344 Z M 221.046875 57.027344 "/>
<path style=" stroke:none;fill-rule:nonzero;fill:rgb(7.058716%,1.176453%,46.665955%);fill-opacity:1;" d="M 167.460938 56.8125 C 167.136719 56.8125 166.871094 56.546875 166.871094 56.222656 C 166.871094 55.894531 167.136719 55.628906 167.460938 55.628906 L 185.519531 55.628906 C 185.847656 55.628906 186.113281 55.894531 186.113281 56.222656 C 186.113281 56.546875 185.847656 56.8125 185.519531 56.8125 Z M 167.460938 56.8125 "/>
<path style=" stroke:none;fill-rule:nonzero;fill:rgb(92.941284%,21.176147%,14.117432%);fill-opacity:1;" d="M 153.566406 53.921875 C 153.597656 54.25 153.363281 54.539062 153.035156 54.574219 C 152.710938 54.605469 152.417969 54.371094 152.386719 54.042969 L 152.375 53.96875 L 152.386719 54.011719 C 152.382812 53.992188 152.449219 54.15625 152.425781 54.105469 C 152.410156 54.078125 152.539062 54.261719 152.5 54.214844 L 152.585938 54.296875 C 152.546875 54.269531 152.804688 54.410156 152.742188 54.386719 C 152.433594 54.269531 152.28125 53.929688 152.394531 53.621094 C 152.511719 53.316406 152.851562 53.160156 153.160156 53.277344 C 153.625 53.453125 153.507812 53.621094 153.523438 53.671875 L 153.542969 53.765625 Z M 152.695312 53.296875 C 152.992188 53.15625 153.347656 53.285156 153.484375 53.578125 C 153.625 53.875 153.496094 54.230469 153.199219 54.367188 C 153.132812 54.398438 153.394531 54.226562 153.355469 54.261719 C 153.289062 54.324219 153.492188 54.074219 153.46875 54.109375 C 153.4375 54.171875 153.523438 53.96875 153.515625 53.996094 C 153.5 54.054688 153.53125 53.925781 153.53125 53.925781 L 153.527344 53.996094 L 153.519531 54.855469 L 153.519531 57.417969 L 153.492188 57.816406 L 153.484375 57.90625 L 153.484375 57.894531 C 153.484375 57.914062 153.4375 57.675781 153.460938 57.757812 L 153.488281 58.039062 L 153.484375 58.0625 C 153.484375 58.074219 153.46875 57.855469 153.480469 57.933594 L 152.308594 58.101562 C 152.238281 57.609375 152.402344 57.621094 152.46875 57.496094 L 152.652344 57.085938 C 152.855469 56.519531 153.070312 55.667969 153.25 54.785156 L 153.523438 53.007812 L 153.578125 52.351562 C 153.59375 52.160156 153.492188 52 153.789062 51.652344 C 154 51.402344 154.375 51.375 154.625 51.589844 C 154.871094 51.800781 154.902344 52.175781 154.6875 52.425781 C 154.625 52.5 154.785156 52.25 154.773438 52.277344 L 154.699219 53.160156 L 154.410156 55.019531 C 154.222656 55.941406 154.003906 56.828125 153.765625 57.484375 L 153.527344 58.023438 L 153.464844 58.15625 L 153.46875 58.140625 L 153.480469 58.078125 C 153.476562 58.109375 153.472656 57.871094 153.480469 57.933594 C 153.527344 58.257812 153.300781 58.558594 152.976562 58.605469 C 152.652344 58.652344 152.355469 58.425781 152.308594 58.101562 L 152.308594 57.914062 L 152.304688 57.96875 L 152.324219 58.09375 C 152.230469 57.773438 152.304688 57.769531 152.316406 57.683594 L 152.335938 57.402344 L 152.335938 54.855469 L 152.34375 53.953125 L 152.351562 53.8125 L 152.363281 53.71875 C 152.375 53.671875 152.21875 53.519531 152.695312 53.296875 M 154.183594 52.628906 C 153.859375 52.597656 153.621094 52.308594 153.652344 51.980469 C 153.683594 51.65625 153.972656 51.417969 154.296875 51.449219 L 154.589844 51.554688 L 154.703125 51.65625 L 154.8125 51.785156 L 155.035156 52.121094 C 155.496094 52.929688 156.144531 54.351562 156.632812 55.679688 L 157.503906 57.785156 L 157.625 58.128906 C 157.65625 58.246094 157.765625 58.371094 157.597656 58.703125 C 157.507812 58.890625 157.222656 59.050781 157.03125 59.050781 L 156.695312 58.960938 L 156.359375 58.714844 C 156.109375 58.496094 156.085938 58.125 156.300781 57.875 C 156.515625 57.628906 156.890625 57.605469 157.136719 57.820312 L 157.25 57.914062 L 157.191406 57.886719 L 157.089844 57.867188 L 156.960938 57.871094 C 157.039062 57.859375 156.625 58.03125 156.707031 57.972656 C 156.785156 57.914062 156.503906 58.246094 156.535156 58.175781 C 156.578125 58.09375 156.480469 58.398438 156.484375 58.355469 C 156.488281 58.296875 156.488281 58.464844 156.484375 58.453125 L 156.402344 58.226562 L 155.519531 56.089844 C 155.054688 54.824219 154.410156 53.417969 154.003906 52.703125 L 153.875 52.507812 L 153.847656 52.476562 C 153.835938 52.464844 153.96875 52.566406 153.914062 52.527344 L 153.996094 52.574219 C 153.953125 52.558594 154.277344 52.636719 154.183594 52.628906 "/>
<path style=" stroke:none;fill-rule:nonzero;fill:rgb(92.941284%,21.176147%,14.117432%);fill-opacity:1;" d="M 154.613281 56.007812 C 154.875 56.207031 154.917969 56.582031 154.71875 56.839844 C 154.519531 57.097656 154.144531 57.144531 153.886719 56.945312 C 153.726562 56.820312 153.515625 56.542969 153.578125 56.207031 C 153.636719 55.882812 153.847656 55.746094 153.988281 55.664062 C 154.269531 55.5 154.566406 55.433594 154.902344 55.363281 L 156.925781 55.089844 C 157.25 55.058594 157.542969 55.300781 157.570312 55.625 C 157.601562 55.949219 157.363281 56.238281 157.039062 56.269531 L 155.144531 56.523438 L 154.589844 56.683594 L 154.632812 56.648438 L 154.6875 56.570312 C 154.667969 56.609375 154.753906 56.367188 154.742188 56.425781 C 154.730469 56.480469 154.730469 56.1875 154.742188 56.246094 C 154.757812 56.328125 154.636719 56.023438 154.664062 56.058594 Z M 154.613281 56.007812 "/>
<path style=" stroke:none;fill-rule:nonzero;fill:rgb(92.941284%,21.176147%,14.117432%);fill-opacity:1;" d="M 157.097656 53.75 C 157.238281 53.453125 157.589844 53.324219 157.886719 53.464844 C 158.183594 53.601562 158.3125 53.957031 158.175781 54.253906 C 158.136719 54.328125 158.210938 54.945312 158.441406 55.546875 L 158.839844 56.304688 L 158.960938 56.511719 L 158.96875 56.535156 L 158.90625 56.476562 C 158.941406 56.503906 158.695312 56.378906 158.761719 56.398438 C 158.835938 56.425781 158.398438 56.394531 158.492188 56.378906 C 158.589844 56.363281 158.191406 56.523438 158.253906 56.480469 C 158.300781 56.441406 158.113281 56.632812 158.136719 56.597656 C 158.167969 56.554688 158.082031 56.703125 158.089844 56.6875 C 158.15625 56.367188 158.140625 55.34375 158.316406 54.417969 C 158.417969 53.90625 158.574219 53.453125 158.859375 53.097656 C 159.132812 52.757812 159.601562 52.625 159.976562 52.703125 C 160.417969 52.796875 160.695312 53.097656 160.921875 53.417969 C 161.152344 53.738281 161.328125 54.113281 161.449219 54.511719 C 161.574219 54.917969 161.617188 55.347656 161.578125 55.765625 C 161.542969 56.1875 161.433594 56.632812 161.179688 57.039062 C 160.703125 57.800781 159.875 58.089844 159.300781 58.257812 C 159 58.347656 158.726562 58.449219 158.347656 58.320312 C 158.136719 58.246094 157.882812 57.996094 157.84375 57.726562 C 157.808594 57.472656 157.886719 57.289062 157.96875 57.125 C 158.117188 56.835938 158.472656 56.71875 158.765625 56.867188 C 159.058594 57.015625 159.171875 57.371094 159.023438 57.664062 L 159.015625 57.683594 C 159.007812 57.699219 159.007812 57.488281 159.019531 57.554688 C 159.027344 57.628906 158.839844 57.246094 158.902344 57.3125 C 158.964844 57.382812 158.6875 57.183594 158.730469 57.199219 L 158.667969 57.183594 L 158.964844 57.121094 C 159.421875 56.988281 159.984375 56.714844 160.175781 56.410156 C 160.300781 56.207031 160.371094 55.949219 160.398438 55.660156 L 160.316406 54.859375 L 159.957031 54.101562 L 159.730469 53.863281 L 159.78125 53.84375 C 159.6875 53.960938 159.554688 54.261719 159.480469 54.644531 C 159.335938 55.398438 159.378906 56.316406 159.246094 56.941406 C 159.21875 57.070312 159.214844 57.234375 158.96875 57.425781 C 158.816406 57.539062 158.554688 57.582031 158.378906 57.523438 L 158.078125 57.316406 L 157.835938 56.929688 L 157.332031 55.972656 C 157.042969 55.207031 156.765625 54.464844 157.097656 53.75 "/>
<path style=" stroke:none;fill-rule:nonzero;fill:rgb(92.941284%,21.176147%,14.117432%);fill-opacity:1;" d="M 163.859375 53.195312 C 163.867188 53.523438 163.605469 53.792969 163.277344 53.800781 C 162.949219 53.804688 162.679688 53.542969 162.675781 53.214844 L 162.648438 53.085938 L 162.683594 53.113281 L 162.816406 53.144531 C 162.761719 53.148438 162.972656 53.105469 162.941406 53.121094 L 162.976562 53.101562 L 162.910156 53.179688 L 162.589844 53.761719 C 162.375 54.242188 162.167969 54.84375 162.054688 55.410156 L 161.988281 56.28125 C 162.007812 56.578125 162.121094 56.71875 162.269531 56.804688 L 162.683594 56.832031 C 163.234375 56.84375 163.695312 56.851562 164.007812 56.703125 C 164.300781 56.5625 164.65625 56.6875 164.796875 56.980469 C 164.941406 57.277344 164.816406 57.632812 164.519531 57.773438 C 163.859375 58.089844 163.195312 58.027344 162.660156 58.015625 C 162.421875 58.011719 162.066406 58.058594 161.675781 57.832031 C 161.191406 57.550781 160.847656 57 160.804688 56.359375 L 160.890625 55.175781 C 161.027344 54.503906 161.257812 53.832031 161.511719 53.273438 L 161.957031 52.476562 C 162.128906 52.246094 162.347656 51.972656 162.785156 51.960938 C 163.132812 51.953125 163.429688 52.148438 163.601562 52.382812 C 163.773438 52.613281 163.855469 52.898438 163.859375 53.195312 "/>
<path style=" stroke:none;fill-rule:nonzero;fill:rgb(92.941284%,21.176147%,14.117432%);fill-opacity:1;" d="M 189.714844 54.457031 C 189.992188 54.628906 190.082031 54.992188 189.914062 55.273438 C 189.742188 55.550781 189.378906 55.640625 189.097656 55.472656 C 189.085938 55.464844 189.28125 55.519531 189.210938 55.507812 C 189.128906 55.496094 189.566406 55.417969 189.488281 55.460938 C 189.414062 55.5 189.664062 55.289062 189.644531 55.320312 L 189.660156 55.292969 L 189.609375 55.871094 L 189.578125 56.660156 L 189.578125 57.113281 L 189.554688 57.421875 L 189.546875 57.449219 C 189.503906 57.773438 189.203125 58 188.878906 57.953125 C 188.554688 57.90625 188.328125 57.609375 188.375 57.285156 L 188.382812 57.234375 L 188.390625 57.113281 L 188.390625 56.632812 L 188.421875 55.835938 C 188.429688 55.527344 188.433594 55.234375 188.53125 54.933594 C 188.578125 54.773438 188.664062 54.558594 188.921875 54.417969 L 189.378906 54.335938 Z M 189.527344 57.546875 C 189.425781 57.855469 189.09375 58.027344 188.78125 57.929688 C 188.46875 57.828125 188.296875 57.496094 188.398438 57.183594 C 188.511719 56.824219 188.769531 55.835938 189.167969 54.863281 L 189.660156 53.867188 C 189.898438 53.46875 190.183594 53.121094 190.570312 52.90625 C 190.929688 52.707031 191.308594 52.730469 191.605469 52.800781 C 192.292969 52.96875 192.78125 53.496094 193.132812 54.035156 C 193.359375 54.382812 193.515625 54.777344 193.550781 55.195312 C 193.601562 55.738281 193.402344 56.316406 192.988281 56.769531 C 192.414062 57.394531 191.566406 57.660156 190.890625 57.917969 L 189.734375 58.304688 L 189.339844 58.378906 L 189.109375 58.332031 C 189.015625 58.296875 188.847656 58.199219 188.769531 57.980469 C 188.652344 57.648438 188.832031 57.441406 188.898438 57.367188 L 189.023438 57.265625 L 189.203125 57.179688 C 189.503906 57.050781 189.851562 57.1875 189.980469 57.488281 C 190.109375 57.789062 189.972656 58.136719 189.671875 58.265625 C 189.632812 58.285156 189.722656 58.226562 189.667969 58.261719 C 189.636719 58.28125 189.785156 58.160156 189.742188 58.203125 L 189.804688 58.132812 C 189.78125 58.160156 189.898438 57.953125 189.875 58.007812 C 189.855469 58.058594 189.925781 57.738281 189.917969 57.816406 C 189.914062 57.882812 189.863281 57.515625 189.890625 57.589844 C 189.910156 57.65625 189.757812 57.371094 189.796875 57.417969 C 189.859375 57.5 189.554688 57.230469 189.609375 57.261719 C 189.6875 57.300781 189.402344 57.195312 189.441406 57.203125 L 189.359375 57.191406 L 189.277344 57.195312 L 189.417969 57.160156 L 190.472656 56.808594 C 191.140625 56.554688 191.84375 56.261719 192.117188 55.964844 C 192.332031 55.734375 192.390625 55.519531 192.371094 55.296875 C 192.355469 55.109375 192.277344 54.898438 192.136719 54.683594 C 191.894531 54.3125 191.523438 54.003906 191.324219 53.953125 L 191.144531 53.941406 C 191.023438 54.007812 190.847656 54.191406 190.675781 54.476562 L 190.265625 55.3125 C 189.90625 56.191406 189.660156 57.117188 189.535156 57.523438 Z M 189.527344 57.546875 "/>
<path style=" stroke:none;fill-rule:nonzero;fill:rgb(92.941284%,21.176147%,14.117432%);fill-opacity:1;" d="M 195.523438 55.640625 C 195.378906 55.9375 195.027344 56.0625 194.730469 55.917969 C 194.4375 55.777344 194.3125 55.425781 194.453125 55.128906 C 194.480469 55.066406 194.417969 55.363281 194.417969 55.308594 L 194.453125 55.441406 L 194.546875 55.550781 C 194.503906 55.519531 194.765625 55.621094 194.703125 55.613281 C 194.617188 55.601562 194.875 55.59375 194.855469 55.601562 L 194.84375 55.613281 C 194.761719 55.679688 194.425781 56.683594 194.328125 57.371094 L 194.300781 57.808594 L 194.292969 57.769531 L 194.265625 57.695312 C 194.285156 57.730469 194.117188 57.5 194.171875 57.558594 C 194.226562 57.613281 193.761719 57.367188 193.882812 57.394531 C 194.003906 57.421875 193.464844 57.457031 193.550781 57.421875 C 193.605469 57.398438 193.335938 57.574219 193.371094 57.539062 L 193.308594 57.613281 L 194.214844 55.195312 L 194.660156 53.992188 L 194.84375 53.367188 L 194.996094 53.015625 L 195.238281 52.777344 C 195.371094 52.699219 195.601562 52.660156 195.78125 52.722656 C 196.148438 52.855469 196.179688 53.0625 196.238281 53.179688 L 196.363281 53.472656 L 196.839844 54.734375 L 197.042969 55.632812 C 197.144531 56.375 197.085938 57.214844 197.09375 57.886719 L 197.128906 58.527344 L 197.15625 58.699219 C 197.164062 58.730469 197.109375 58.628906 197.140625 58.683594 C 197.164062 58.71875 196.925781 58.488281 197.007812 58.542969 C 197.050781 58.574219 196.78125 58.453125 196.84375 58.472656 C 196.910156 58.488281 196.582031 58.464844 196.644531 58.457031 C 196.710938 58.449219 196.4375 58.523438 196.484375 58.503906 C 196.546875 58.472656 196.332031 58.609375 196.355469 58.585938 L 196.320312 58.628906 L 196.464844 58.234375 C 196.558594 57.921875 196.890625 57.742188 197.203125 57.839844 C 197.515625 57.933594 197.695312 58.261719 197.601562 58.578125 C 197.507812 58.886719 197.433594 59.109375 197.285156 59.316406 C 197.207031 59.425781 197.082031 59.601562 196.78125 59.632812 C 196.464844 59.671875 196.21875 59.445312 196.136719 59.308594 C 195.855469 58.863281 195.914062 58.460938 195.910156 57.902344 C 195.898438 57.171875 195.945312 56.359375 195.867188 55.796875 L 195.695312 55.042969 L 195.269531 53.933594 L 195.171875 53.695312 L 195.226562 53.75 C 195.195312 53.722656 195.457031 53.867188 195.382812 53.839844 C 195.3125 53.816406 195.71875 53.859375 195.636719 53.867188 C 195.550781 53.878906 195.890625 53.769531 195.839844 53.800781 C 195.78125 53.832031 195.980469 53.679688 195.957031 53.707031 L 195.996094 53.652344 L 195.972656 53.730469 L 195.78125 54.382812 L 195.324219 55.609375 L 194.753906 57.195312 C 194.585938 57.652344 194.484375 57.988281 194.296875 58.265625 C 194.25 58.339844 194.179688 58.4375 194.011719 58.515625 C 193.792969 58.601562 193.460938 58.527344 193.320312 58.382812 C 193.085938 58.140625 193.128906 58.003906 193.121094 57.886719 L 193.152344 57.199219 C 193.265625 56.4375 193.316406 55.324219 194.097656 54.691406 C 194.285156 54.539062 194.519531 54.390625 194.871094 54.441406 C 195.15625 54.480469 195.378906 54.664062 195.496094 54.878906 C 195.613281 55.097656 195.648438 55.378906 195.523438 55.640625 "/>
<path style=" stroke:none;fill-rule:nonzero;fill:rgb(92.941284%,21.176147%,14.117432%);fill-opacity:1;" d="M 195.082031 56.515625 C 195.40625 56.566406 195.625 56.871094 195.570312 57.195312 C 195.519531 57.515625 195.214844 57.738281 194.890625 57.683594 C 194.796875 57.667969 194.726562 57.722656 194.484375 57.523438 C 194.320312 57.382812 194.246094 56.859375 194.402344 56.667969 L 194.667969 56.476562 L 195.214844 56.339844 L 196.921875 55.914062 C 197.234375 55.808594 197.570312 55.980469 197.671875 56.289062 C 197.773438 56.601562 197.605469 56.9375 197.296875 57.039062 C 196.582031 57.273438 195.90625 57.40625 195.453125 57.5 L 195.121094 57.574219 L 195.175781 57.546875 C 195.152344 57.558594 195.3125 57.433594 195.269531 57.472656 C 195.238281 57.503906 195.417969 57.257812 195.378906 57.328125 C 195.351562 57.382812 195.453125 57.050781 195.445312 57.128906 C 195.429688 57.246094 195.339844 56.699219 195.386719 56.789062 C 195.429688 56.875 195.207031 56.578125 195.25 56.613281 C 195.300781 56.65625 195.082031 56.515625 195.109375 56.527344 C 195.175781 56.554688 195.050781 56.507812 195.082031 56.515625 "/>
<path style=" stroke:none;fill-rule:nonzero;fill:rgb(92.941284%,21.176147%,14.117432%);fill-opacity:1;" d="M 200.933594 54.984375 C 201.121094 55.25 201.058594 55.621094 200.789062 55.808594 C 200.519531 55.996094 200.152344 55.929688 199.964844 55.664062 L 199.832031 55.597656 L 199.605469 55.609375 C 199.441406 55.660156 199.042969 56.046875 198.769531 56.5 C 198.613281 56.761719 198.527344 57.050781 198.515625 57.300781 C 198.503906 57.5 198.566406 57.679688 198.679688 57.820312 C 198.917969 58.117188 199.871094 58.21875 200.433594 58.359375 C 200.753906 58.4375 200.945312 58.761719 200.867188 59.078125 C 200.785156 59.394531 200.464844 59.589844 200.148438 59.507812 C 199.921875 59.453125 198.523438 59.519531 197.753906 58.5625 C 197.460938 58.199219 197.304688 57.726562 197.328125 57.242188 C 197.351562 56.777344 197.5 56.3125 197.753906 55.890625 C 198.105469 55.304688 198.546875 54.710938 199.230469 54.484375 C 199.527344 54.382812 199.800781 54.398438 200 54.425781 C 200.460938 54.492188 200.761719 54.738281 200.933594 54.984375 "/>
<path style=" stroke:none;fill-rule:nonzero;fill:rgb(7.058716%,1.176453%,46.665955%);fill-opacity:1;" d="M 175.785156 56.207031 C 175.785156 55.878906 176.050781 55.613281 176.378906 55.613281 C 176.707031 55.613281 176.972656 55.878906 176.972656 56.207031 L 176.972656 82.84375 C 176.972656 83.171875 176.707031 83.4375 176.378906 83.4375 C 176.050781 83.4375 175.785156 83.171875 175.785156 82.84375 Z M 175.785156 56.207031 "/>
<path style=" stroke:none;fill-rule:nonzero;fill:rgb(7.058716%,1.176453%,46.665955%);fill-opacity:1;" d="M 180.839844 72.140625 C 180.75 72.453125 180.421875 72.636719 180.109375 72.546875 C 179.792969 72.457031 179.609375 72.128906 179.699219 71.816406 C 179.714844 71.757812 179.730469 72.097656 179.707031 72.027344 C 179.683594 71.957031 179.847656 72.210938 179.808594 72.179688 L 179.886719 72.222656 L 179.898438 72.226562 L 179.90625 72.234375 L 179.679688 72.390625 L 178.46875 73.460938 L 175.425781 76.109375 L 174.339844 76.953125 L 172.875 77.949219 L 172.621094 78.144531 L 172.5625 78.199219 L 172.609375 78.128906 C 172.585938 78.171875 172.691406 77.785156 172.679688 77.898438 C 172.675781 77.960938 172.640625 77.621094 172.660156 77.691406 C 172.683594 77.765625 172.511719 77.433594 172.558594 77.492188 C 172.597656 77.542969 172.378906 77.339844 172.421875 77.367188 L 172.316406 77.3125 C 172.378906 77.335938 172.175781 77.285156 172.1875 77.285156 L 172.722656 77.101562 C 173 76.925781 173.367188 77.011719 173.539062 77.289062 C 173.714844 77.566406 173.628906 77.933594 173.351562 78.105469 L 172.710938 78.378906 C 172.484375 78.449219 172.304688 78.570312 171.902344 78.421875 L 171.628906 78.230469 C 171.535156 78.105469 171.488281 77.929688 171.5 77.796875 C 171.519531 77.558594 171.609375 77.488281 171.652344 77.4375 L 171.820312 77.269531 L 172.222656 76.960938 L 173.628906 76.003906 L 174.675781 75.195312 L 177.667969 72.589844 L 178.964844 71.445312 C 179.21875 71.25 179.460938 71.0625 179.84375 71.042969 C 180.097656 71.03125 180.355469 71.09375 180.570312 71.273438 C 180.792969 71.457031 180.929688 71.828125 180.839844 72.140625 "/>
<path style=" stroke:none;fill-rule:nonzero;fill:rgb(0%,45.097351%,23.136902%);fill-opacity:1;" d="M 183.230469 80.15625 C 183.664062 80.09375 184.0625 80.394531 184.125 80.828125 C 184.1875 81.257812 183.886719 81.660156 183.457031 81.722656 C 183.429688 81.726562 183.679688 81.617188 183.613281 81.660156 C 183.542969 81.703125 183.800781 81.441406 183.769531 81.492188 C 183.738281 81.542969 183.800781 81.417969 183.800781 81.417969 L 183.792969 81.5 L 183.792969 81.945312 L 183.976562 83.167969 L 184.273438 84.628906 L 184.296875 85.265625 L 184.207031 85.71875 C 184.160156 85.867188 184.226562 86.078125 183.726562 86.328125 C 183.339844 86.523438 182.863281 86.363281 182.667969 85.972656 C 182.472656 85.582031 182.632812 85.109375 183.023438 84.914062 C 183.148438 84.851562 182.75 85.140625 182.792969 85.09375 C 182.847656 85.027344 182.699219 85.238281 182.710938 85.21875 L 182.699219 85.242188 L 182.722656 85.117188 L 182.710938 84.871094 L 182.421875 83.464844 L 182.214844 82.058594 L 182.214844 81.445312 C 182.222656 81.234375 182.238281 80.992188 182.394531 80.714844 C 182.554688 80.425781 182.917969 80.203125 183.230469 80.15625 M 184.027344 85.175781 C 184.273438 85.539062 184.175781 86.03125 183.816406 86.273438 C 183.453125 86.519531 182.960938 86.421875 182.71875 86.0625 L 182.625 85.878906 L 182.597656 85.785156 L 182.554688 85.609375 L 182.484375 85.121094 L 182.480469 83.898438 L 182.394531 82.597656 C 182.308594 81.675781 182.125 80.601562 182.125 79.609375 C 182.125 79.066406 182.183594 78.535156 182.441406 78.054688 C 182.757812 77.472656 183.292969 77.246094 183.664062 77.109375 C 184.578125 76.773438 185.675781 76.804688 186.636719 77.382812 C 187.339844 77.808594 187.96875 78.484375 188.414062 79.371094 C 188.734375 80.011719 188.917969 80.730469 188.984375 81.460938 C 189.039062 82.078125 189.003906 82.707031 188.839844 83.292969 C 188.707031 83.777344 188.457031 84.1875 188.171875 84.539062 C 187.648438 85.183594 186.96875 85.675781 186.335938 86.109375 L 185.066406 86.941406 L 184.464844 87.238281 L 184.175781 87.335938 C 183.996094 87.382812 183.585938 87.386719 183.308594 87.144531 C 182.800781 86.703125 182.945312 86.359375 182.925781 86.179688 C 182.894531 85.820312 182.953125 85.453125 183.101562 85.09375 C 183.269531 84.691406 183.730469 84.5 184.136719 84.667969 C 184.539062 84.835938 184.730469 85.300781 184.5625 85.703125 L 184.5 86.035156 L 184.519531 86.207031 L 184.503906 86.15625 C 184.523438 86.203125 184.257812 85.875 184.351562 85.953125 C 184.453125 86.046875 183.867188 85.78125 183.984375 85.792969 C 184.09375 85.808594 183.761719 85.8125 183.785156 85.804688 L 183.9375 85.746094 L 184.28125 85.570312 L 185.441406 84.808594 C 186.035156 84.398438 186.597656 83.972656 186.945312 83.542969 C 187.132812 83.3125 187.253906 83.09375 187.316406 82.871094 C 187.417969 82.507812 187.449219 82.058594 187.410156 81.601562 C 187.359375 81.046875 187.214844 80.507812 187.003906 80.082031 C 186.679688 79.445312 186.246094 78.996094 185.820312 78.738281 C 185.253906 78.394531 184.769531 78.390625 184.210938 78.59375 L 183.832031 78.808594 C 183.769531 78.925781 183.707031 79.207031 183.707031 79.609375 C 183.707031 80.414062 183.875 81.460938 183.96875 82.445312 L 184.0625 83.890625 L 184.058594 84.996094 L 184.101562 85.285156 L 184.117188 85.359375 L 184.105469 85.328125 C 184.121094 85.363281 183.960938 85.074219 184.027344 85.175781 "/>
<path style=" stroke:none;fill-rule:nonzero;fill:rgb(0%,45.097351%,23.136902%);fill-opacity:1;" d="M 190.765625 82.722656 C 191.191406 82.816406 191.460938 83.238281 191.363281 83.667969 C 191.269531 84.09375 190.84375 84.359375 190.417969 84.265625 L 190.238281 84.222656 C 190.234375 84.21875 190.457031 84.167969 190.386719 84.195312 C 190.332031 84.21875 190.496094 84.128906 190.484375 84.140625 L 190.335938 84.386719 L 190.054688 85.246094 C 189.976562 85.679688 190.015625 86.109375 190.078125 86.234375 L 190.003906 86.140625 L 189.988281 86.125 L 190.21875 86.160156 C 190.394531 86.160156 190.699219 86.074219 190.980469 85.917969 C 191.25 85.769531 191.496094 85.480469 191.632812 85.210938 L 191.683594 84.910156 C 191.679688 84.839844 191.625 84.730469 191.46875 84.625 L 190.828125 84.472656 C 190.527344 84.445312 190.296875 84.492188 190.234375 84.527344 C 189.847656 84.738281 189.367188 84.597656 189.160156 84.214844 C 188.953125 83.828125 189.09375 83.351562 189.476562 83.140625 C 189.953125 82.882812 190.472656 82.851562 190.976562 82.898438 C 191.375 82.9375 191.871094 82.992188 192.347656 83.308594 C 192.832031 83.632812 193.226562 84.171875 193.261719 84.824219 C 193.28125 85.15625 193.234375 85.539062 193.046875 85.914062 C 192.785156 86.441406 192.359375 86.960938 191.746094 87.300781 C 191.285156 87.554688 190.765625 87.746094 190.199219 87.738281 C 189.953125 87.738281 189.691406 87.707031 189.417969 87.601562 C 189.140625 87.492188 188.828125 87.277344 188.65625 86.925781 C 188.34375 86.285156 188.386719 85.601562 188.5 84.964844 C 188.585938 84.484375 188.734375 84.039062 188.929688 83.664062 C 189.097656 83.335938 189.257812 82.953125 189.789062 82.734375 C 190.277344 82.535156 190.671875 82.699219 190.765625 82.722656 "/>
<path style=" stroke:none;fill-rule:nonzero;fill:rgb(0%,45.097351%,23.136902%);fill-opacity:1;" d="M 228.613281 48.925781 C 228.628906 49.363281 228.285156 49.730469 227.851562 49.742188 C 227.414062 49.757812 227.046875 49.417969 227.03125 48.980469 L 226.960938 48.460938 C 226.902344 48.179688 226.648438 48.058594 226.988281 47.410156 C 227.101562 47.191406 227.332031 47.03125 227.535156 46.984375 L 228.011719 47.003906 C 228.203125 47.0625 228.332031 47.164062 228.445312 47.28125 C 228.867188 47.714844 228.925781 48.15625 229.082031 48.703125 L 229.5625 50.519531 L 230 52.09375 L 230.398438 53.167969 L 230.421875 53.199219 C 230.429688 53.207031 230.296875 53.125 230.34375 53.148438 C 230.394531 53.171875 230.058594 53.097656 230.136719 53.097656 C 230.214844 53.101562 229.902344 53.15625 229.945312 53.136719 L 229.953125 53.117188 C 230.070312 52.960938 230.257812 52.558594 230.40625 52.0625 C 230.589844 51.457031 230.695312 50.660156 230.761719 49.875 L 230.816406 48.445312 L 230.832031 47.171875 L 230.832031 46.691406 L 230.882812 46.316406 L 230.964844 46.089844 C 231.011719 45.992188 231.082031 45.757812 231.496094 45.648438 C 231.863281 45.554688 232.167969 45.757812 232.277344 45.875 L 232.429688 46.097656 L 232.5 46.296875 L 232.570312 46.640625 L 232.652344 47.542969 C 232.664062 47.980469 232.320312 48.34375 231.882812 48.355469 C 231.445312 48.367188 231.082031 48.023438 231.070312 47.589844 L 231.007812 46.882812 L 230.976562 46.710938 C 230.976562 46.707031 231.027344 46.832031 231 46.777344 C 230.984375 46.738281 231.21875 47.054688 231.132812 46.960938 C 231.082031 46.910156 231.507812 47.191406 231.382812 47.136719 C 231.316406 47.109375 231.707031 47.210938 231.617188 47.199219 C 231.527344 47.191406 231.984375 47.15625 231.894531 47.179688 C 231.789062 47.207031 232.207031 47.019531 232.144531 47.0625 C 232.054688 47.125 232.355469 46.84375 232.320312 46.890625 C 232.289062 46.933594 232.394531 46.757812 232.382812 46.785156 C 232.347656 46.859375 232.421875 46.679688 232.417969 46.691406 L 232.414062 46.757812 L 232.414062 47.164062 L 232.398438 48.460938 L 232.335938 50.011719 C 232.265625 50.847656 232.15625 51.730469 231.917969 52.519531 C 231.738281 53.121094 231.53125 53.648438 231.21875 54.0625 C 231.042969 54.296875 230.820312 54.476562 230.605469 54.574219 C 230.320312 54.707031 229.921875 54.703125 229.636719 54.5625 C 229.363281 54.425781 229.191406 54.21875 229.0625 54.015625 C 228.796875 53.59375 228.65625 53.109375 228.484375 52.546875 L 228.035156 50.929688 C 227.691406 49.652344 227.40625 48.480469 227.3125 48.382812 C 227.273438 48.34375 227.679688 48.554688 227.539062 48.511719 C 227.425781 48.476562 228.019531 48.496094 227.875 48.527344 C 227.816406 48.539062 228.261719 48.328125 228.171875 48.394531 C 228.082031 48.460938 228.4375 48.046875 228.386719 48.144531 C 228.347656 48.222656 228.464844 47.914062 228.457031 47.953125 C 228.445312 48.015625 228.464844 47.867188 228.464844 47.871094 L 228.507812 48.144531 Z M 228.613281 48.925781 "/>
<path style=" stroke:none;fill-rule:nonzero;fill:rgb(0%,45.097351%,23.136902%);fill-opacity:1;" d="M 234.359375 50.628906 C 234.675781 50.328125 235.175781 50.335938 235.476562 50.652344 C 235.777344 50.96875 235.769531 51.46875 235.453125 51.769531 L 235.046875 52.140625 L 234.851562 52.476562 L 234.65625 53.183594 L 234.675781 53.382812 C 234.714844 53.421875 234.605469 53.335938 234.609375 53.335938 L 235.21875 53.347656 L 235.972656 53.183594 L 236.59375 52.851562 L 236.773438 52.617188 C 236.78125 52.582031 236.8125 52.710938 236.714844 52.613281 C 236.28125 52.179688 234.949219 51.699219 234.820312 51.707031 C 234.386719 51.734375 234.011719 51.402344 233.984375 50.964844 C 233.957031 50.53125 234.289062 50.15625 234.726562 50.128906 C 235.269531 50.097656 235.648438 50.28125 236.199219 50.507812 C 236.765625 50.738281 237.367188 51.03125 237.832031 51.496094 C 238.191406 51.851562 238.445312 52.4375 238.308594 52.996094 C 238.207031 53.410156 237.945312 53.820312 237.535156 54.121094 C 237.246094 54.335938 236.898438 54.53125 236.503906 54.675781 C 236.128906 54.804688 235.738281 54.894531 235.335938 54.925781 C 234.84375 54.960938 234.195312 55.097656 233.597656 54.539062 C 233.164062 54.132812 233.050781 53.566406 233.082031 53.082031 C 233.109375 52.621094 233.242188 52.191406 233.417969 51.8125 L 233.84375 51.113281 Z M 234.359375 50.628906 "/>
<path style=" stroke:none;fill-rule:nonzero;fill:rgb(0%,45.097351%,23.136902%);fill-opacity:1;" d="M 13.519531 46.769531 C 13.59375 47.199219 13.308594 47.609375 12.878906 47.683594 C 12.449219 47.761719 12.039062 47.472656 11.960938 47.042969 L 11.730469 46.179688 L 11.667969 46.007812 C 11.644531 45.964844 11.839844 46.199219 11.78125 46.144531 C 11.75 46.117188 11.957031 46.261719 11.90625 46.234375 C 11.847656 46.203125 12.230469 46.328125 12.132812 46.3125 C 12.011719 46.289062 12.652344 46.226562 12.511719 46.277344 C 12.367188 46.328125 12.941406 45.910156 12.863281 46.019531 C 12.804688 46.101562 13.011719 45.648438 12.992188 45.726562 C 12.976562 45.804688 13.003906 45.503906 13.007812 45.546875 C 13.011719 45.628906 12.992188 45.472656 13.007812 45.507812 C 13.175781 45.933594 14.039062 47.144531 14.996094 48.371094 L 16.152344 49.785156 L 16.972656 50.855469 L 17.308594 51.355469 L 17.320312 51.371094 C 17.328125 51.382812 17.183594 51.253906 17.238281 51.292969 C 17.300781 51.34375 16.789062 51.136719 16.9375 51.164062 C 17.089844 51.191406 16.386719 51.28125 16.5 51.226562 C 16.574219 51.1875 16.308594 51.371094 16.34375 51.335938 C 16.390625 51.289062 16.269531 51.433594 16.273438 51.421875 L 16.285156 51.398438 L 16.394531 51.050781 C 16.488281 50.722656 16.546875 50.132812 16.582031 49.441406 L 16.605469 47.191406 L 16.402344 44.46875 L 16.246094 42.941406 L 16.160156 41.734375 C 16.144531 41.425781 16.125 41.179688 16.253906 40.847656 C 16.324219 40.667969 16.5 40.40625 16.808594 40.296875 C 17.132812 40.1875 17.402344 40.28125 17.558594 40.363281 C 18.109375 40.652344 18.335938 41.078125 18.78125 41.65625 C 19.050781 42 18.988281 42.496094 18.640625 42.765625 C 18.296875 43.03125 17.800781 42.96875 17.53125 42.625 L 16.984375 41.941406 L 16.828125 41.765625 C 16.800781 41.75 17.066406 41.832031 16.988281 41.820312 C 16.902344 41.804688 17.445312 41.75 17.320312 41.792969 C 17.210938 41.832031 17.6875 41.519531 17.621094 41.59375 C 17.558594 41.664062 17.742188 41.386719 17.726562 41.421875 C 17.699219 41.488281 17.742188 41.363281 17.738281 41.40625 L 17.738281 41.664062 L 17.816406 42.789062 L 17.976562 44.320312 L 18.183594 47.144531 L 18.160156 49.523438 C 18.125 50.253906 18.078125 50.917969 17.910156 51.492188 L 17.75 51.984375 C 17.675781 52.171875 17.609375 52.441406 17.199219 52.644531 C 16.902344 52.789062 16.449219 52.683594 16.265625 52.539062 L 15.992188 52.230469 L 15.714844 51.808594 L 14.929688 50.785156 L 13.75 49.34375 L 12.234375 47.296875 C 11.832031 46.699219 11.472656 46.335938 11.429688 45.652344 C 11.421875 45.511719 11.429688 45.300781 11.585938 45.085938 C 11.773438 44.832031 12.15625 44.710938 12.40625 44.757812 C 12.816406 44.824219 12.941406 45.046875 13.042969 45.230469 L 13.222656 45.660156 Z M 13.519531 46.769531 "/>
<path style=" stroke:none;fill-rule:nonzero;fill:rgb(0%,45.097351%,23.136902%);fill-opacity:1;" d="M 21.511719 47.914062 C 21.945312 47.972656 22.246094 48.371094 22.1875 48.804688 C 22.128906 49.234375 21.730469 49.539062 21.296875 49.480469 C 21.265625 49.476562 21.511719 49.464844 21.445312 49.476562 C 21.371094 49.488281 21.769531 49.324219 21.6875 49.378906 C 21.605469 49.433594 21.921875 49.105469 21.878906 49.175781 C 21.839844 49.242188 21.953125 48.972656 21.945312 49.011719 C 21.929688 49.082031 21.949219 48.933594 21.953125 48.957031 L 21.992188 49.117188 L 22.605469 50.5 L 23.480469 51.980469 C 23.742188 52.351562 23.871094 52.421875 23.964844 52.449219 C 24.378906 52.585938 24.605469 53.035156 24.46875 53.449219 C 24.332031 53.863281 23.886719 54.089844 23.472656 53.953125 C 23.011719 53.800781 22.574219 53.4375 22.1875 52.894531 L 21.207031 51.238281 C 20.898438 50.660156 20.625 50.085938 20.472656 49.554688 C 20.398438 49.292969 20.320312 49.039062 20.398438 48.679688 C 20.441406 48.484375 20.5625 48.230469 20.804688 48.066406 C 21.046875 47.90625 21.316406 47.886719 21.511719 47.914062 "/>
<path style=" stroke:none;fill-rule:nonzero;fill:rgb(0%,45.097351%,23.136902%);fill-opacity:1;" d="M 22.394531 53.304688 C 22.828125 53.363281 23.132812 53.761719 23.074219 54.195312 C 23.015625 54.625 22.617188 54.929688 22.183594 54.871094 L 21.875 54.824219 L 21.710938 54.78125 C 21.652344 54.765625 21.386719 54.910156 21.1875 54.253906 L 21.152344 54.054688 C 21.132812 53.621094 21.46875 53.25 21.90625 53.230469 C 22.339844 53.210938 22.710938 53.546875 22.730469 53.984375 C 22.734375 54.054688 22.675781 53.726562 22.695312 53.785156 C 22.722656 53.878906 22.546875 53.511719 22.589844 53.566406 C 22.652344 53.660156 22.363281 53.351562 22.410156 53.386719 C 22.480469 53.4375 22.226562 53.289062 22.261719 53.300781 L 22.1875 53.277344 C 22.265625 53.300781 22.164062 53.269531 22.183594 53.273438 Z M 22.714844 54.175781 C 22.628906 54.601562 22.210938 54.878906 21.785156 54.792969 C 21.355469 54.707031 21.078125 54.292969 21.167969 53.863281 C 21.238281 53.507812 21.453125 53.386719 21.550781 53.328125 L 21.722656 53.253906 L 21.898438 53.21875 L 22.117188 53.199219 C 22.976562 53.144531 24.867188 52.933594 25.40625 52.28125 C 25.683594 51.941406 26.179688 51.894531 26.519531 52.171875 C 26.855469 52.449219 26.902344 52.949219 26.625 53.285156 C 25.988281 54.058594 25.039062 54.367188 24.1875 54.546875 C 23.355469 54.722656 22.601562 54.753906 22.222656 54.777344 L 22.101562 54.785156 C 22.097656 54.789062 22.261719 54.742188 22.1875 54.765625 C 22.15625 54.777344 22.417969 54.652344 22.339844 54.699219 C 22.292969 54.726562 22.582031 54.488281 22.511719 54.5625 C 22.476562 54.601562 22.664062 54.347656 22.628906 54.410156 C 22.589844 54.476562 22.734375 54.085938 22.714844 54.175781 "/>
<path style=" stroke:none;fill-rule:nonzero;fill:rgb(0%,45.097351%,23.136902%);fill-opacity:1;" d="M 19.464844 48.488281 C 19.800781 48.761719 19.855469 49.261719 19.578125 49.601562 C 19.304688 49.9375 18.804688 49.988281 18.464844 49.714844 C 18.167969 49.472656 17.902344 49.042969 18.007812 48.519531 C 18.128906 47.929688 18.542969 47.722656 18.890625 47.542969 L 20.132812 47.085938 C 21.105469 46.804688 22.292969 46.578125 23.527344 46.371094 C 23.957031 46.296875 24.363281 46.589844 24.4375 47.019531 C 24.507812 47.449219 24.21875 47.855469 23.789062 47.929688 C 22.585938 48.132812 21.441406 48.355469 20.566406 48.605469 L 19.613281 48.949219 L 19.457031 49.042969 L 19.492188 49.003906 C 19.46875 49.039062 19.574219 48.757812 19.558594 48.835938 C 19.539062 48.9375 19.507812 48.523438 19.53125 48.582031 C 19.554688 48.628906 19.441406 48.46875 19.464844 48.488281 "/>
</g>
</svg>
