<?xml version="1.0" encoding="UTF-8"?>
<svg xmlns="http://www.w3.org/2000/svg" xmlns:xlink="http://www.w3.org/1999/xlink" width="286.92554pt" height="180.3084pt" viewBox="0 0 286.92554 180.3084" version="1.2">
<g id="surface1">
<path style=" stroke:none;fill-rule:nonzero;fill:rgb(7.058716%,1.176453%,46.665955%);fill-opacity:1;" d="M 168.238281 97.113281 L 168.238281 149.402344 L 217.867188 123.164062 Z M 167.96875 95.835938 L 219.179688 122.71875 C 219.539062 122.90625 219.539062 123.417969 219.179688 123.609375 L 167.96875 150.679688 C 167.632812 150.859375 167.230469 150.613281 167.230469 150.234375 L 167.230469 96.28125 C 167.230469 95.902344 167.632812 95.660156 167.96875 95.835938 "/>
<path style=" stroke:none;fill-rule:nonzero;fill:rgb(7.058716%,1.176453%,46.665955%);fill-opacity:1;" d="M 177.460938 131.765625 C 177.460938 131.488281 177.6875 131.261719 177.964844 131.261719 C 178.242188 131.261719 178.46875 131.488281 178.46875 131.765625 L 178.46875 140.101562 C 178.46875 140.382812 178.242188 140.605469 177.964844 140.605469 C 177.6875 140.605469 177.460938 140.382812 177.460938 140.101562 Z M 177.460938 131.765625 "/>
<path style=" stroke:none;fill-rule:nonzero;fill:rgb(7.058716%,1.176453%,46.665955%);fill-opacity:1;" d="M 173.761719 136.4375 C 173.484375 136.4375 173.257812 136.214844 173.257812 135.933594 C 173.257812 135.65625 173.484375 135.433594 173.761719 135.433594 L 182.167969 135.433594 C 182.445312 135.433594 182.671875 135.65625 182.671875 135.933594 C 182.671875 136.214844 182.445312 136.4375 182.167969 136.4375 Z M 173.761719 136.4375 "/>
<path style=" stroke:none;fill-rule:nonzero;fill:rgb(7.058716%,1.176453%,46.665955%);fill-opacity:1;" d="M 173.761719 110.277344 C 173.484375 110.277344 173.257812 110.054688 173.257812 109.773438 C 173.257812 109.496094 173.484375 109.273438 173.761719 109.273438 L 182.167969 109.273438 C 182.445312 109.273438 182.671875 109.496094 182.671875 109.773438 C 182.671875 110.054688 182.445312 110.277344 182.167969 110.277344 Z M 173.761719 110.277344 "/>
<path style=" stroke:none;fill-rule:nonzero;fill:rgb(7.058716%,1.176453%,46.665955%);fill-opacity:1;" d="M 167.96875 109.21875 C 168.246094 109.21875 168.472656 109.441406 168.472656 109.722656 C 168.472656 110 168.246094 110.222656 167.96875 110.222656 L 141.082031 110.222656 C 140.804688 110.222656 140.578125 110 140.578125 109.722656 C 140.578125 109.441406 140.804688 109.21875 141.082031 109.21875 Z M 167.96875 109.21875 "/>
<path style=" stroke:none;fill-rule:nonzero;fill:rgb(7.058716%,1.176453%,46.665955%);fill-opacity:1;" d="M 167.96875 136.101562 C 168.246094 136.101562 168.472656 136.324219 168.472656 136.601562 C 168.472656 136.878906 168.246094 137.105469 167.96875 137.105469 L 141.082031 137.105469 C 140.804688 137.105469 140.578125 136.878906 140.578125 136.601562 C 140.578125 136.324219 140.804688 136.101562 141.082031 136.101562 Z M 167.96875 136.101562 "/>
<path style=" stroke:none;fill-rule:nonzero;fill:rgb(7.058716%,1.176453%,46.665955%);fill-opacity:1;" d="M 218.945312 123.667969 C 218.667969 123.667969 218.441406 123.441406 218.441406 123.164062 C 218.441406 122.886719 218.667969 122.660156 218.945312 122.660156 L 245.832031 122.660156 C 246.109375 122.660156 246.335938 122.886719 246.335938 123.164062 C 246.335938 123.441406 246.109375 123.667969 245.832031 123.667969 Z M 218.945312 123.667969 "/>
<path style=" stroke:none;fill-rule:nonzero;fill:rgb(7.058716%,1.176453%,46.665955%);fill-opacity:1;" d="M 164.683594 56.152344 C 164.40625 56.152344 164.179688 55.925781 164.179688 55.648438 C 164.179688 55.371094 164.40625 55.144531 164.683594 55.144531 L 189.597656 55.144531 C 189.875 55.144531 190.101562 55.371094 190.101562 55.648438 C 190.101562 55.925781 189.875 56.152344 189.597656 56.152344 Z M 164.683594 56.152344 "/>
<path style=" stroke:none;fill-rule:nonzero;fill:rgb(7.058716%,1.176453%,46.665955%);fill-opacity:1;" d="M 195.699219 56.152344 C 195.421875 56.152344 195.195312 55.925781 195.195312 55.648438 C 195.195312 55.371094 195.421875 55.144531 195.699219 55.144531 L 222.230469 55.144531 C 222.507812 55.144531 222.734375 55.371094 222.734375 55.648438 C 222.734375 55.925781 222.507812 56.152344 222.230469 56.152344 Z M 195.699219 56.152344 "/>
<path style=" stroke:none;fill-rule:nonzero;fill:rgb(7.058716%,1.176453%,46.665955%);fill-opacity:1;" d="M 190.101562 67.117188 C 190.101562 67.394531 189.875 67.621094 189.597656 67.621094 C 189.320312 67.621094 189.097656 67.394531 189.097656 67.117188 L 189.097656 44.171875 C 189.097656 43.894531 189.320312 43.671875 189.597656 43.671875 C 189.875 43.671875 190.101562 43.894531 190.101562 44.171875 Z M 190.101562 67.117188 "/>
<path style=" stroke:none;fill-rule:nonzero;fill:rgb(7.058716%,1.176453%,46.665955%);fill-opacity:1;" d="M 196.203125 67.121094 C 196.203125 67.398438 195.976562 67.625 195.699219 67.625 C 195.421875 67.625 195.195312 67.398438 195.195312 67.121094 L 195.195312 44.175781 C 195.195312 43.898438 195.421875 43.671875 195.699219 43.671875 C 195.976562 43.671875 196.203125 43.898438 196.203125 44.175781 Z M 196.203125 67.121094 "/>
<path style=" stroke:none;fill-rule:nonzero;fill:rgb(7.058716%,1.176453%,46.665955%);fill-opacity:1;" d="M 58.914062 108.257812 C 58.636719 108.257812 58.410156 108.035156 58.410156 107.757812 C 58.410156 107.480469 58.636719 107.253906 58.914062 107.253906 L 83.828125 107.253906 C 84.105469 107.253906 84.332031 107.480469 84.332031 107.757812 C 84.332031 108.035156 84.105469 108.257812 83.828125 108.257812 Z M 58.914062 108.257812 "/>
<path style=" stroke:none;fill-rule:nonzero;fill:rgb(7.058716%,1.176453%,46.665955%);fill-opacity:1;" d="M 89.929688 108.257812 C 89.648438 108.257812 89.425781 108.035156 89.425781 107.757812 C 89.425781 107.480469 89.648438 107.253906 89.929688 107.253906 L 116.460938 107.253906 C 116.738281 107.253906 116.960938 107.480469 116.960938 107.757812 C 116.960938 108.035156 116.738281 108.257812 116.460938 108.257812 Z M 89.929688 108.257812 "/>
<path style=" stroke:none;fill-rule:nonzero;fill:rgb(7.058716%,1.176453%,46.665955%);fill-opacity:1;" d="M 84.332031 119.226562 C 84.332031 119.503906 84.105469 119.726562 83.828125 119.726562 C 83.550781 119.726562 83.324219 119.503906 83.324219 119.226562 L 83.324219 96.28125 C 83.324219 96.003906 83.550781 95.777344 83.828125 95.777344 C 84.105469 95.777344 84.332031 96.003906 84.332031 96.28125 Z M 84.332031 119.226562 "/>
<path style=" stroke:none;fill-rule:nonzero;fill:rgb(7.058716%,1.176453%,46.665955%);fill-opacity:1;" d="M 90.429688 119.226562 C 90.429688 119.507812 90.207031 119.730469 89.929688 119.730469 C 89.648438 119.730469 89.425781 119.507812 89.425781 119.226562 L 89.425781 96.285156 C 89.425781 96.007812 89.648438 95.78125 89.929688 95.78125 C 90.207031 95.78125 90.429688 96.007812 90.429688 96.285156 Z M 90.429688 119.226562 "/>
<path style=" stroke:none;fill-rule:nonzero;fill:rgb(7.058716%,1.176453%,46.665955%);fill-opacity:1;" d="M 140.582031 137.105469 C 140.582031 136.828125 140.808594 136.601562 141.085938 136.601562 C 141.363281 136.601562 141.589844 136.828125 141.589844 137.105469 L 141.589844 146.339844 C 141.589844 146.617188 141.363281 146.84375 141.085938 146.84375 C 140.808594 146.84375 140.582031 146.617188 140.582031 146.339844 Z M 140.582031 137.105469 "/>
<path style=" stroke:none;fill-rule:nonzero;fill:rgb(7.058716%,1.176453%,46.665955%);fill-opacity:1;" d="M 133.90625 147.464844 C 133.625 147.464844 133.402344 147.238281 133.402344 146.960938 C 133.402344 146.683594 133.625 146.457031 133.90625 146.457031 L 148.265625 146.457031 C 148.542969 146.457031 148.769531 146.683594 148.769531 146.960938 C 148.769531 147.238281 148.542969 147.464844 148.265625 147.464844 Z M 133.90625 147.464844 "/>
<path style=" stroke:none;fill-rule:nonzero;fill:rgb(7.058716%,1.176453%,46.665955%);fill-opacity:1;" d="M 136.386719 150.757812 C 136.109375 150.757812 135.882812 150.53125 135.882812 150.253906 C 135.882812 149.976562 136.109375 149.753906 136.386719 149.753906 L 146.03125 149.753906 C 146.308594 149.753906 146.535156 149.976562 146.535156 150.253906 C 146.535156 150.53125 146.308594 150.757812 146.03125 150.757812 Z M 136.386719 150.757812 "/>
<path style=" stroke:none;fill-rule:nonzero;fill:rgb(7.058716%,1.176453%,46.665955%);fill-opacity:1;" d="M 139.148438 153.847656 C 138.871094 153.847656 138.644531 153.621094 138.644531 153.34375 C 138.644531 153.066406 138.871094 152.839844 139.148438 152.839844 L 143.265625 152.839844 C 143.546875 152.839844 143.769531 153.066406 143.769531 153.34375 C 143.769531 153.621094 143.546875 153.847656 143.265625 153.847656 Z M 139.148438 153.847656 "/>
<path style=" stroke:none;fill-rule:nonzero;fill:rgb(7.058716%,1.176453%,46.665955%);fill-opacity:1;" d="M 146.367188 136.101562 C 146.644531 136.101562 146.871094 136.324219 146.871094 136.601562 C 146.871094 136.878906 146.644531 137.105469 146.367188 137.105469 L 59.042969 137.105469 C 58.765625 137.105469 58.539062 136.878906 58.539062 136.601562 C 58.539062 136.324219 58.765625 136.101562 59.042969 136.101562 Z M 146.367188 136.101562 "/>
<path style=" stroke:none;fill-rule:nonzero;fill:rgb(7.058716%,1.176453%,46.665955%);fill-opacity:1;" d="M 116.605469 108.238281 C 116.339844 108.320312 116.058594 108.167969 115.976562 107.902344 C 115.898438 107.636719 116.046875 107.355469 116.3125 107.273438 L 131.167969 102.75 C 131.433594 102.667969 131.714844 102.820312 131.796875 103.085938 C 131.875 103.351562 131.726562 103.632812 131.460938 103.714844 Z M 116.605469 108.238281 "/>
<path style=" stroke:none;fill-rule:nonzero;fill:rgb(7.058716%,1.176453%,46.665955%);fill-opacity:1;" d="M 149.828125 109.722656 C 149.828125 110 149.605469 110.222656 149.328125 110.222656 C 149.050781 110.222656 148.824219 110 148.824219 109.722656 L 148.824219 55.648438 C 148.824219 55.367188 149.050781 55.144531 149.328125 55.144531 C 149.605469 55.144531 149.828125 55.367188 149.828125 55.648438 Z M 149.828125 109.722656 "/>
<path style=" stroke:none;fill-rule:nonzero;fill:rgb(7.058716%,1.176453%,46.665955%);fill-opacity:1;" d="M 168.875 55.144531 C 169.15625 55.144531 169.378906 55.371094 169.378906 55.648438 C 169.378906 55.925781 169.15625 56.152344 168.875 56.152344 L 149.328125 56.152344 C 149.050781 56.152344 148.824219 55.925781 148.824219 55.648438 C 148.824219 55.371094 149.050781 55.144531 149.328125 55.144531 Z M 168.875 55.144531 "/>
<path style=" stroke:none;fill-rule:nonzero;fill:rgb(7.058716%,1.176453%,46.665955%);fill-opacity:1;" d="M 221.082031 56.152344 C 220.804688 56.152344 220.582031 55.925781 220.582031 55.648438 C 220.582031 55.371094 220.804688 55.144531 221.082031 55.144531 L 237.265625 55.144531 C 237.542969 55.144531 237.769531 55.371094 237.769531 55.648438 C 237.769531 55.925781 237.542969 56.152344 237.265625 56.152344 Z M 221.082031 56.152344 "/>
<path style=" stroke:none;fill-rule:nonzero;fill:rgb(7.058716%,1.176453%,46.665955%);fill-opacity:1;" d="M 236.761719 55.648438 C 236.761719 55.371094 236.988281 55.144531 237.265625 55.144531 C 237.542969 55.144531 237.769531 55.371094 237.769531 55.648438 L 237.769531 123.164062 C 237.769531 123.441406 237.542969 123.667969 237.265625 123.667969 C 236.988281 123.667969 236.761719 123.441406 236.761719 123.164062 Z M 236.761719 55.648438 "/>
<path style=" stroke:none;fill-rule:nonzero;fill:rgb(7.058716%,1.176453%,46.665955%);fill-opacity:1;" d="M 169.378906 55.648438 C 169.378906 55.925781 169.15625 56.152344 168.875 56.152344 C 168.597656 56.152344 168.375 55.925781 168.375 55.648438 L 168.375 33.042969 C 168.375 32.765625 168.597656 32.539062 168.875 32.539062 C 169.15625 32.539062 169.378906 32.765625 169.378906 33.042969 Z M 169.378906 55.648438 "/>
<path style=" stroke:none;fill-rule:nonzero;fill:rgb(7.058716%,1.176453%,46.665955%);fill-opacity:1;" d="M 168.875 33.546875 C 168.597656 33.546875 168.375 33.320312 168.375 33.042969 C 168.375 32.765625 168.597656 32.539062 168.875 32.539062 L 185.921875 32.539062 C 186.199219 32.539062 186.425781 32.765625 186.425781 33.042969 C 186.425781 33.320312 186.199219 33.546875 185.921875 33.546875 Z M 168.875 33.546875 "/>
<path style=" stroke:none;fill-rule:nonzero;fill:rgb(7.058716%,1.176453%,46.665955%);fill-opacity:1;" d="M 186.171875 33.480469 C 185.929688 33.617188 185.621094 33.535156 185.484375 33.292969 C 185.347656 33.050781 185.433594 32.742188 185.675781 32.605469 L 203.238281 22.628906 C 203.480469 22.492188 203.789062 22.574219 203.925781 22.816406 C 204.0625 23.058594 203.976562 23.367188 203.734375 23.503906 Z M 186.171875 33.480469 "/>
<path style=" stroke:none;fill-rule:nonzero;fill:rgb(7.058716%,1.176453%,46.665955%);fill-opacity:1;" d="M 203.488281 34.0625 C 203.210938 34.0625 202.984375 33.839844 202.984375 33.5625 C 202.984375 33.285156 203.210938 33.058594 203.488281 33.058594 L 226.832031 33.058594 C 227.109375 33.058594 227.335938 33.285156 227.335938 33.5625 C 227.335938 33.839844 227.109375 34.0625 226.832031 34.0625 Z M 203.488281 34.0625 "/>
<path style=" stroke:none;fill-rule:nonzero;fill:rgb(7.058716%,1.176453%,46.665955%);fill-opacity:1;" d="M 226.328125 33.5625 C 226.328125 33.285156 226.554688 33.058594 226.832031 33.058594 C 227.109375 33.058594 227.335938 33.285156 227.335938 33.5625 L 227.335938 55.648438 C 227.335938 55.925781 227.109375 56.152344 226.832031 56.152344 C 226.554688 56.152344 226.328125 55.925781 226.328125 55.648438 Z M 226.328125 33.5625 "/>
<path style=" stroke:none;fill-rule:nonzero;fill:rgb(0%,45.097351%,23.136902%);fill-opacity:1;" d="M 208.054688 45.082031 C 207.96875 45.441406 207.609375 45.664062 207.25 45.578125 C 206.886719 45.492188 206.664062 45.128906 206.75 44.769531 L 207.097656 43.558594 L 207.292969 42.820312 L 207.375 42.503906 L 207.449219 42.152344 C 207.449219 42.101562 207.519531 42.171875 207.46875 42.125 C 207.390625 42.054688 207.714844 42.234375 207.675781 42.226562 L 207.238281 42.410156 C 206.828125 42.628906 206.316406 43 205.828125 43.4375 C 205.246094 43.957031 204.671875 44.601562 204.214844 45.246094 C 203.480469 46.277344 203.234375 47.425781 203.320312 48.402344 C 203.390625 49.183594 203.78125 49.792969 204.179688 50.085938 C 204.566406 50.371094 204.964844 50.402344 205.515625 50.210938 C 206.105469 50.007812 206.816406 49.53125 207.574219 48.878906 C 207.855469 48.640625 208.277344 48.671875 208.519531 48.953125 C 208.761719 49.234375 208.726562 49.65625 208.445312 49.898438 C 207.621094 50.605469 206.804688 51.1875 205.953125 51.480469 C 205.105469 51.773438 204.140625 51.722656 203.382812 51.164062 C 202.648438 50.625 202.089844 49.675781 201.984375 48.519531 C 201.867188 47.238281 202.199219 45.769531 203.117188 44.46875 C 203.640625 43.734375 204.273438 43.027344 204.929688 42.441406 C 205.488281 41.941406 206.066406 41.515625 206.609375 41.226562 C 206.875 41.085938 207.128906 40.976562 207.398438 40.917969 C 207.675781 40.863281 208.058594 40.847656 208.375 41.136719 C 208.675781 41.410156 208.78125 41.765625 208.792969 42.105469 C 208.804688 42.433594 208.714844 42.65625 208.6875 42.785156 L 208.59375 43.144531 L 208.382812 43.945312 Z M 208.054688 45.082031 "/>
<path style=" stroke:none;fill-rule:nonzero;fill:rgb(0%,45.097351%,23.136902%);fill-opacity:1;" d="M 210.746094 49.601562 C 210.554688 49.917969 210.140625 50.019531 209.824219 49.828125 C 209.507812 49.636719 209.40625 49.222656 209.597656 48.90625 C 209.707031 48.730469 209.945312 48.257812 210.265625 47.832031 C 210.4375 47.605469 210.640625 47.367188 210.953125 47.195312 L 211.265625 47.03125 C 211.425781 46.964844 211.714844 46.878906 212.023438 47.019531 C 212.261719 47.132812 212.394531 47.320312 212.46875 47.476562 L 212.585938 47.90625 L 212.566406 48.746094 C 212.410156 49.769531 211.710938 50.699219 211.152344 51.503906 L 210.371094 52.527344 L 209.984375 52.882812 L 209.84375 52.960938 C 209.507812 53.117188 209.109375 52.96875 208.953125 52.628906 C 208.800781 52.292969 208.949219 51.894531 209.285156 51.742188 L 209.238281 51.765625 L 209.34375 51.664062 L 210.046875 50.742188 C 210.59375 49.953125 211.164062 49.050781 211.238281 48.546875 L 211.257812 48.085938 L 211.25 48.046875 C 211.242188 48.027344 211.335938 48.15625 211.304688 48.121094 C 211.269531 48.082031 211.535156 48.273438 211.460938 48.238281 C 211.375 48.199219 211.777344 48.277344 211.714844 48.28125 C 211.660156 48.289062 211.792969 48.265625 211.792969 48.265625 L 211.59375 48.375 L 211.335938 48.644531 Z M 209.882812 52.941406 C 209.558594 53.117188 209.148438 52.996094 208.972656 52.667969 C 208.796875 52.34375 208.917969 51.9375 209.246094 51.761719 L 209.277344 51.742188 L 209.347656 51.714844 L 210.105469 51.503906 C 211.527344 51.210938 213.007812 51.628906 213.746094 51.445312 C 214.105469 51.355469 214.46875 51.574219 214.558594 51.933594 C 214.648438 52.292969 214.429688 52.65625 214.066406 52.746094 C 212.773438 53.066406 211.34375 52.617188 210.375 52.820312 L 209.835938 52.964844 C 209.820312 52.96875 209.972656 52.886719 209.90625 52.925781 Z M 209.882812 52.941406 "/>
<path style=" stroke:none;fill-rule:nonzero;fill:rgb(0%,45.097351%,23.136902%);fill-opacity:1;" d="M 96.589844 116.003906 C 96.527344 116.367188 96.179688 116.613281 95.816406 116.550781 C 95.449219 116.484375 95.207031 116.136719 95.269531 115.773438 C 95.332031 115.425781 95.476562 115.011719 95.644531 114.585938 L 95.878906 114.054688 L 96.078125 113.640625 L 96.117188 113.542969 C 96.121094 113.535156 96.117188 113.652344 96.113281 113.601562 C 96.113281 113.550781 96.179688 113.847656 96.152344 113.78125 C 96.125 113.714844 96.324219 114.015625 96.273438 113.964844 C 96.226562 113.917969 96.476562 114.09375 96.429688 114.074219 C 96.386719 114.054688 96.558594 114.109375 96.53125 114.105469 C 96.488281 114.097656 96.589844 114.109375 96.578125 114.109375 L 96.476562 114.136719 C 96.257812 114.210938 95.894531 114.414062 95.511719 114.746094 C 94.621094 115.519531 93.566406 116.792969 92.960938 117.898438 C 92.703125 118.371094 92.59375 118.796875 92.59375 119.109375 C 92.59375 119.429688 92.734375 119.660156 93.015625 119.875 C 93.308594 120.105469 93.738281 120.277344 94.160156 120.371094 C 95.09375 120.578125 96.140625 120.4375 97.023438 119.683594 C 97.304688 119.441406 97.730469 119.472656 97.96875 119.753906 C 98.210938 120.035156 98.179688 120.460938 97.898438 120.703125 C 96.671875 121.75 95.140625 121.964844 93.871094 121.683594 C 93.300781 121.558594 92.699219 121.332031 92.1875 120.933594 C 91.671875 120.53125 91.253906 119.878906 91.253906 119.109375 C 91.253906 118.519531 91.4375 117.886719 91.785156 117.257812 C 92.488281 115.964844 93.597656 114.632812 94.632812 113.734375 C 95.125 113.304688 95.605469 113.015625 96.046875 112.867188 C 96.261719 112.792969 96.476562 112.738281 96.75 112.78125 C 96.890625 112.804688 97.066406 112.863281 97.214844 113.011719 C 97.371094 113.164062 97.453125 113.390625 97.457031 113.578125 C 97.464844 114.125 97.214844 114.359375 97.101562 114.609375 L 96.894531 115.074219 Z M 96.589844 116.003906 "/>
<path style=" stroke:none;fill-rule:nonzero;fill:rgb(0%,45.097351%,23.136902%);fill-opacity:1;" d="M 98.570312 118.894531 C 98.605469 118.523438 98.933594 118.253906 99.300781 118.289062 C 99.667969 118.324219 99.941406 118.648438 99.90625 119.019531 C 99.851562 119.601562 100.515625 122.449219 100.765625 123.539062 C 100.851562 123.898438 100.625 124.257812 100.265625 124.34375 C 99.90625 124.425781 99.542969 124.203125 99.460938 123.84375 C 99.207031 122.753906 98.445312 120.199219 98.570312 118.894531 "/>
<path style=" stroke:none;fill-rule:nonzero;fill:rgb(7.058716%,1.176453%,46.665955%);fill-opacity:1;" d="M 58.410156 107.757812 C 58.410156 107.480469 58.636719 107.253906 58.914062 107.253906 C 59.191406 107.253906 59.417969 107.480469 59.417969 107.757812 L 59.417969 117.355469 C 59.417969 117.632812 59.191406 117.859375 58.914062 117.859375 C 58.636719 117.859375 58.410156 117.632812 58.410156 117.355469 Z M 58.410156 107.757812 "/>
<path style=" stroke:none;fill-rule:nonzero;fill:rgb(7.058716%,1.176453%,46.665955%);fill-opacity:1;" d="M 59.546875 136.601562 C 59.546875 136.878906 59.320312 137.105469 59.042969 137.105469 C 58.765625 137.105469 58.539062 136.878906 58.539062 136.601562 L 58.539062 128.730469 C 58.539062 128.449219 58.765625 128.226562 59.042969 128.226562 C 59.320312 128.226562 59.546875 128.449219 59.546875 128.730469 Z M 59.546875 136.601562 "/>
<path style=" stroke:none;fill-rule:nonzero;fill:rgb(7.058716%,1.176453%,46.665955%);fill-opacity:1;" d="M 58.601562 117.597656 C 58.46875 117.355469 58.558594 117.046875 58.800781 116.914062 C 59.042969 116.78125 59.351562 116.867188 59.484375 117.113281 L 64.839844 126.816406 C 64.972656 127.058594 64.882812 127.367188 64.640625 127.5 C 64.398438 127.632812 64.089844 127.546875 63.957031 127.300781 Z M 58.601562 117.597656 "/>
<path style=" stroke:none;fill-rule:nonzero;fill:rgb(7.058716%,1.176453%,46.665955%);fill-opacity:1;" d="M 112.53125 107.757812 C 112.53125 107.480469 112.757812 107.253906 113.035156 107.253906 C 113.3125 107.253906 113.535156 107.480469 113.535156 107.757812 L 113.535156 118.898438 C 113.535156 119.175781 113.3125 119.402344 113.035156 119.402344 C 112.757812 119.402344 112.53125 119.175781 112.53125 118.898438 Z M 112.53125 107.757812 "/>
<path style=" stroke:none;fill-rule:nonzero;fill:rgb(7.058716%,1.176453%,46.665955%);fill-opacity:1;" d="M 112.53125 129.480469 C 112.53125 129.203125 112.757812 128.980469 113.035156 128.980469 C 113.3125 128.980469 113.535156 129.203125 113.535156 129.480469 L 113.535156 136.601562 C 113.535156 136.878906 113.3125 137.105469 113.035156 137.105469 C 112.757812 137.105469 112.53125 136.878906 112.53125 136.601562 Z M 112.53125 129.480469 "/>
<path style=" stroke:none;fill-rule:nonzero;fill:rgb(7.058716%,1.176453%,46.665955%);fill-opacity:1;" d="M 112.648438 119.222656 C 112.46875 119.011719 112.496094 118.695312 112.710938 118.515625 C 112.921875 118.335938 113.238281 118.363281 113.417969 118.574219 L 120.429688 126.914062 C 120.609375 127.125 120.582031 127.441406 120.367188 127.621094 C 120.15625 127.800781 119.839844 127.773438 119.660156 127.558594 Z M 112.648438 119.222656 "/>
<path style=" stroke:none;fill-rule:nonzero;fill:rgb(7.058716%,1.176453%,46.665955%);fill-opacity:1;" d="M 47.230469 107.5625 C 47.507812 107.5625 47.734375 107.785156 47.734375 108.0625 C 47.734375 108.34375 47.507812 108.566406 47.230469 108.566406 L 31.199219 108.566406 C 30.921875 108.566406 30.699219 108.34375 30.699219 108.0625 C 30.699219 107.785156 30.921875 107.5625 31.199219 107.5625 Z M 47.230469 107.5625 "/>
<path style=" stroke:none;fill-rule:nonzero;fill:rgb(7.058716%,1.176453%,46.665955%);fill-opacity:1;" d="M 47.480469 108.5 C 47.242188 108.640625 46.933594 108.554688 46.796875 108.316406 C 46.65625 108.074219 46.738281 107.765625 46.980469 107.628906 L 57.617188 101.5 C 57.859375 101.359375 58.167969 101.445312 58.304688 101.683594 C 58.445312 101.925781 58.363281 102.234375 58.121094 102.371094 Z M 47.480469 108.5 "/>
<path style=" stroke:none;fill-rule:nonzero;fill:rgb(7.058716%,1.176453%,46.665955%);fill-opacity:1;" d="M 31.703125 107.984375 C 31.703125 109.257812 31.015625 110.367188 29.992188 110.964844 C 29.484375 111.261719 28.890625 111.433594 28.257812 111.433594 C 26.984375 111.433594 25.875 110.746094 25.277344 109.722656 C 24.980469 109.214844 24.808594 108.621094 24.808594 107.984375 C 24.808594 106.714844 25.496094 105.605469 26.519531 105.007812 C 27.03125 104.710938 27.625 104.539062 28.257812 104.539062 C 29.527344 104.539062 30.636719 105.226562 31.234375 106.25 C 31.535156 106.757812 31.703125 107.351562 31.703125 107.984375 M 30.699219 107.984375 C 30.699219 107.539062 30.578125 107.117188 30.367188 106.757812 C 29.941406 106.03125 29.15625 105.542969 28.257812 105.542969 C 27.808594 105.542969 27.386719 105.664062 27.027344 105.875 C 26.300781 106.300781 25.816406 107.085938 25.816406 107.984375 C 25.816406 108.433594 25.9375 108.855469 26.148438 109.214844 C 26.570312 109.941406 27.355469 110.425781 28.257812 110.425781 C 28.707031 110.425781 29.125 110.308594 29.484375 110.097656 C 30.210938 109.671875 30.699219 108.886719 30.699219 107.984375 "/>
<path style=" stroke:none;fill-rule:nonzero;fill:rgb(7.058716%,1.176453%,46.665955%);fill-opacity:1;" d="M 252.859375 123.417969 C 252.859375 124.6875 252.171875 125.796875 251.148438 126.398438 C 250.636719 126.695312 250.046875 126.867188 249.410156 126.867188 C 248.140625 126.867188 247.03125 126.179688 246.433594 125.15625 C 246.132812 124.644531 245.964844 124.050781 245.964844 123.417969 C 245.964844 122.148438 246.652344 121.035156 247.675781 120.4375 C 248.183594 120.140625 248.777344 119.96875 249.410156 119.96875 C 250.683594 119.96875 251.792969 120.65625 252.390625 121.679688 C 252.6875 122.191406 252.859375 122.785156 252.859375 123.417969 M 251.851562 123.417969 C 251.851562 122.96875 251.734375 122.550781 251.519531 122.1875 C 251.097656 121.464844 250.3125 120.976562 249.410156 120.976562 C 248.964844 120.976562 248.542969 121.097656 248.183594 121.308594 C 247.457031 121.730469 246.96875 122.519531 246.96875 123.417969 C 246.96875 123.867188 247.089844 124.285156 247.300781 124.648438 C 247.726562 125.371094 248.511719 125.859375 249.410156 125.859375 C 249.859375 125.859375 250.28125 125.738281 250.640625 125.527344 C 251.367188 125.105469 251.851562 124.316406 251.851562 123.417969 "/>
<path style=" stroke:none;fill-rule:nonzero;fill:rgb(7.058716%,1.176453%,46.665955%);fill-opacity:1;" d="M 142.019531 109.21875 C 142.296875 109.21875 142.523438 109.441406 142.523438 109.722656 C 142.523438 110 142.296875 110.222656 142.019531 110.222656 L 131.3125 110.222656 C 131.035156 110.222656 130.8125 110 130.8125 109.722656 C 130.8125 109.441406 131.035156 109.21875 131.3125 109.21875 Z M 142.019531 109.21875 "/>
<path style=" stroke:none;fill-rule:nonzero;fill:rgb(92.941284%,21.176147%,14.117432%);fill-opacity:1;" d="M 111.738281 123.78125 C 111.828125 124.046875 111.683594 124.332031 111.421875 124.417969 C 111.15625 124.507812 110.871094 124.363281 110.785156 124.101562 C 110.671875 123.757812 110.785156 123.347656 110.988281 123.132812 C 111.179688 122.9375 111.378906 122.847656 111.515625 122.765625 L 111.679688 122.625 L 111.972656 122.332031 L 112.046875 122.242188 L 112.097656 122.175781 L 112.1875 122.089844 L 112.339844 122.007812 C 112.601562 121.921875 112.886719 122.0625 112.976562 122.328125 C 113.066406 122.589844 112.921875 122.875 112.660156 122.964844 C 112.597656 122.984375 112.78125 122.902344 112.765625 122.914062 C 112.761719 122.917969 112.855469 122.839844 112.851562 122.84375 L 112.699219 123.027344 L 112.351562 123.371094 L 112.035156 123.628906 L 111.714844 123.832031 C 111.707031 123.839844 111.722656 123.730469 111.738281 123.78125 M 112.003906 122.539062 C 111.972656 122.265625 112.175781 122.015625 112.449219 121.988281 C 112.726562 121.957031 112.976562 122.160156 113.003906 122.433594 L 113.003906 122.554688 L 112.992188 122.625 L 112.964844 122.738281 L 112.898438 123.003906 C 112.800781 123.390625 112.785156 123.972656 112.777344 124.519531 L 112.789062 125.335938 L 112.828125 125.566406 L 112.832031 125.585938 C 112.835938 125.59375 112.730469 125.484375 112.769531 125.515625 C 112.988281 125.6875 113.023438 126.003906 112.851562 126.222656 C 112.679688 126.441406 112.363281 126.476562 112.144531 126.304688 C 111.800781 126.03125 111.8125 125.710938 111.789062 125.417969 L 111.773438 124.511719 C 111.777344 123.949219 111.777344 123.316406 111.921875 122.753906 L 111.988281 122.5 L 112.003906 122.425781 L 112.003906 122.4375 C 112.003906 122.425781 112.011719 122.613281 112.003906 122.539062 "/>
<path style=" stroke:none;fill-rule:nonzero;fill:rgb(92.941284%,21.176147%,14.117432%);fill-opacity:1;" d="M 52.78125 108.695312 C 52.785156 108.417969 53.015625 108.195312 53.296875 108.203125 C 53.574219 108.207031 53.792969 108.4375 53.785156 108.714844 L 53.789062 109.867188 C 53.777344 110.84375 53.683594 111.671875 53.742188 111.945312 C 53.804688 112.21875 53.632812 112.484375 53.359375 112.546875 C 53.089844 112.605469 52.820312 112.433594 52.761719 112.160156 C 52.621094 111.53125 52.773438 110.765625 52.78125 109.859375 Z M 52.78125 108.695312 "/>
<path style=" stroke:none;fill-rule:nonzero;fill:rgb(92.941284%,21.176147%,14.117432%);fill-opacity:1;" d="M 53.347656 109.152344 C 53.089844 109.261719 52.796875 109.144531 52.6875 108.890625 C 52.578125 108.632812 52.695312 108.339844 52.949219 108.226562 L 53.085938 108.125 L 53.167969 108.023438 L 53.160156 108.039062 L 53.144531 108.113281 C 53.148438 108.070312 53.191406 108.371094 53.164062 108.296875 C 53.136719 108.214844 53.410156 108.578125 53.332031 108.519531 C 53.285156 108.484375 53.5 108.597656 53.460938 108.585938 C 53.402344 108.566406 53.621094 108.605469 53.589844 108.605469 L 53.644531 108.601562 L 53.625 108.609375 L 53.367188 108.726562 C 53.074219 108.851562 52.714844 109.085938 52.464844 109.285156 C 52.179688 109.515625 52.15625 109.488281 52.140625 109.707031 C 52.121094 109.984375 51.882812 110.195312 51.605469 110.175781 C 51.328125 110.15625 51.117188 109.914062 51.136719 109.636719 C 51.175781 109.109375 51.53125 108.746094 51.832031 108.503906 C 52.148438 108.246094 52.554688 107.980469 52.964844 107.804688 L 53.246094 107.675781 L 53.457031 107.609375 C 53.550781 107.59375 53.71875 107.554688 53.921875 107.707031 C 54.109375 107.839844 54.160156 108.085938 54.144531 108.222656 L 54.058594 108.488281 L 53.824219 108.8125 C 53.695312 108.949219 53.539062 109.070312 53.347656 109.152344 "/>
<path style=" stroke:none;fill-rule:nonzero;fill:rgb(92.941284%,21.176147%,14.117432%);fill-opacity:1;" d="M 54.867188 122.140625 C 54.8125 122.410156 54.546875 122.589844 54.273438 122.535156 C 54 122.480469 53.824219 122.214844 53.878906 121.941406 L 53.871094 121.996094 L 53.839844 121.769531 C 53.792969 121.4375 53.90625 121.125 54.167969 120.925781 C 54.367188 120.777344 54.558594 120.78125 54.691406 120.792969 L 55.011719 120.867188 C 55.246094 120.949219 55.390625 121.128906 55.472656 121.292969 L 55.613281 121.777344 L 55.636719 122.433594 C 55.554688 123.179688 55.15625 123.953125 54.824219 124.636719 L 54.308594 125.5625 L 54.242188 125.703125 C 54.242188 125.710938 54.238281 125.515625 54.246094 125.582031 C 54.257812 125.660156 54.039062 125.265625 54.109375 125.332031 C 54.15625 125.375 53.949219 125.242188 53.984375 125.253906 C 54.03125 125.273438 53.886719 125.234375 53.898438 125.234375 L 53.90625 125.234375 L 54.144531 125.207031 C 54.714844 125.15625 55.359375 125.285156 55.980469 125.363281 C 56.582031 125.4375 57.121094 125.421875 57.199219 125.382812 C 57.445312 125.25 57.75 125.339844 57.882812 125.585938 C 58.015625 125.832031 57.921875 126.136719 57.679688 126.269531 C 57.117188 126.570312 56.492188 126.441406 55.851562 126.359375 C 55.210938 126.277344 54.582031 126.179688 54.230469 126.210938 L 53.984375 126.238281 C 53.871094 126.246094 53.683594 126.300781 53.441406 126.085938 C 53.339844 125.992188 53.269531 125.851562 53.25 125.730469 L 53.269531 125.457031 L 53.410156 125.105469 L 53.917969 124.195312 C 54.246094 123.527344 54.585938 122.78125 54.632812 122.324219 L 54.617188 121.925781 L 54.570312 121.742188 L 54.585938 121.757812 L 54.679688 121.816406 L 54.597656 121.792969 L 54.636719 121.792969 C 54.605469 121.796875 54.832031 121.6875 54.773438 121.730469 C 54.734375 121.761719 54.835938 121.648438 54.832031 121.664062 L 54.835938 121.628906 C 54.851562 121.738281 54.921875 121.851562 54.867188 122.140625 "/>
<path style=" stroke:none;fill-rule:nonzero;fill:rgb(92.941284%,21.176147%,14.117432%);fill-opacity:1;" d="M 122.019531 97.6875 C 122.226562 97.875 122.242188 98.195312 122.054688 98.398438 C 121.867188 98.605469 121.550781 98.621094 121.34375 98.433594 C 121.1875 98.292969 121.160156 98.140625 121.152344 98.03125 L 121.175781 97.746094 C 121.222656 97.566406 121.316406 97.382812 121.496094 97.234375 C 121.71875 97.050781 121.964844 97.035156 122.167969 97.058594 C 122.371094 97.085938 122.566406 97.160156 122.738281 97.320312 C 122.933594 97.503906 122.976562 97.730469 122.980469 97.910156 L 122.917969 98.410156 C 122.742188 99.082031 122.238281 99.628906 121.902344 100.089844 L 121.527344 100.617188 L 121.515625 100.621094 C 121.519531 100.667969 121.375 100.425781 121.421875 100.460938 L 121.367188 100.429688 L 122.210938 100.378906 L 123.820312 100.304688 L 124.347656 100.265625 L 124.4375 100.25 C 124.4375 100.25 124.335938 100.304688 124.375 100.28125 C 124.394531 100.269531 124.253906 100.378906 124.289062 100.34375 C 124.328125 100.308594 124.152344 100.589844 124.179688 100.511719 C 124.277344 100.253906 124.570312 100.125 124.828125 100.222656 C 125.089844 100.320312 125.21875 100.613281 125.121094 100.871094 C 124.996094 101.195312 124.8125 101.191406 124.722656 101.21875 L 124.472656 101.265625 L 123.867188 101.3125 L 122.277344 101.382812 L 121.601562 101.4375 C 121.371094 101.449219 121.109375 101.480469 120.824219 101.269531 C 120.648438 101.136719 120.53125 100.917969 120.515625 100.71875 C 120.496094 100.523438 120.542969 100.347656 120.617188 100.191406 C 120.742188 99.917969 120.925781 99.722656 121.089844 99.496094 C 121.445312 99.007812 121.863281 98.464844 121.941406 98.160156 L 121.976562 97.945312 C 121.972656 97.925781 122.09375 98.09375 122.050781 98.054688 L 122.039062 98.058594 C 122.03125 98.058594 122.179688 97.976562 122.136719 98.007812 L 122.152344 97.992188 L 122.15625 97.941406 L 122.132812 97.851562 C 122.148438 97.894531 121.960938 97.632812 122.019531 97.6875 "/>
<path style=" stroke:none;fill-rule:nonzero;fill:rgb(92.941284%,21.176147%,14.117432%);fill-opacity:1;" d="M 193.628906 18.976562 C 193.679688 19.25 193.503906 19.515625 193.230469 19.566406 C 192.957031 19.621094 192.691406 19.441406 192.640625 19.167969 C 192.542969 18.664062 192.832031 18.164062 193.160156 17.898438 L 194.628906 16.710938 L 194.996094 16.335938 L 195.132812 16.082031 L 195.148438 16.015625 L 195.148438 16.027344 C 195.148438 16.015625 195.175781 16.15625 195.164062 16.109375 C 195.148438 16.058594 195.277344 16.3125 195.242188 16.265625 C 195.1875 16.195312 195.5 16.445312 195.433594 16.417969 C 195.371094 16.390625 195.648438 16.460938 195.601562 16.457031 C 195.511719 16.449219 195.722656 16.449219 195.695312 16.453125 L 195.746094 16.441406 L 195.773438 16.433594 L 195.679688 16.515625 C 195.523438 16.707031 195.34375 17.664062 195.226562 18.511719 L 195.128906 19.566406 C 195.113281 20.003906 195.101562 20.191406 195.195312 20.308594 C 195.367188 20.53125 195.328125 20.84375 195.109375 21.015625 C 194.890625 21.1875 194.574219 21.148438 194.402344 20.929688 C 194.035156 20.460938 194.109375 19.929688 194.125 19.53125 L 194.230469 18.375 C 194.347656 17.527344 194.371094 16.535156 194.894531 15.882812 L 195.246094 15.578125 L 195.453125 15.480469 L 195.691406 15.457031 C 195.804688 15.460938 196.058594 15.59375 196.125 15.816406 C 196.203125 16.078125 196.144531 16.222656 196.085938 16.398438 L 195.785156 16.957031 L 195.300781 17.460938 L 193.792969 18.679688 C 193.5625 18.863281 193.589844 18.769531 193.628906 18.976562 "/>
<path style=" stroke:none;fill-rule:nonzero;fill:rgb(7.058716%,1.176453%,46.665955%);fill-opacity:1;" d="M 247.921875 104.367188 C 247.667969 104.480469 247.371094 104.367188 247.257812 104.113281 C 247.144531 103.859375 247.257812 103.5625 247.511719 103.449219 C 247.6875 103.371094 247.847656 103.289062 248.082031 103.269531 C 248.335938 103.25 248.6875 103.457031 248.796875 103.695312 C 249.027344 104.175781 248.957031 104.691406 249.035156 105.398438 C 249.109375 106.042969 249.277344 106.816406 249.457031 107.550781 C 249.746094 108.714844 250.203125 109.628906 250.496094 110.328125 L 250.765625 111.109375 L 250.78125 111.144531 L 250.761719 111.121094 C 250.773438 111.132812 250.652344 111.03125 250.691406 111.054688 C 250.742188 111.09375 250.390625 110.972656 250.484375 110.980469 C 250.527344 110.984375 250.289062 111 250.34375 110.988281 C 250.394531 110.976562 250.140625 111.078125 250.1875 111.050781 C 250.28125 110.996094 250.019531 111.234375 250.042969 111.191406 C 250.066406 111.15625 250.003906 111.289062 250.007812 111.273438 L 249.984375 110.859375 C 249.988281 110.203125 250.300781 109.691406 250.679688 108.84375 L 251.078125 107.902344 C 251.441406 106.996094 251.875 105.785156 252.273438 104.507812 L 252.796875 102.574219 C 253.1875 101.109375 253.53125 100.179688 253.921875 99.6875 C 253.988281 99.605469 254.078125 99.511719 254.234375 99.457031 C 254.410156 99.398438 254.632812 99.441406 254.761719 99.53125 C 254.976562 99.683594 255.007812 99.832031 255.0625 99.957031 L 255.367188 100.703125 C 255.496094 100.949219 255.402344 101.253906 255.15625 101.382812 C 254.910156 101.515625 254.605469 101.421875 254.476562 101.175781 L 254.132812 100.34375 L 254.101562 100.277344 L 254.113281 100.296875 L 254.183594 100.355469 C 254.140625 100.324219 254.421875 100.4375 254.351562 100.425781 C 254.277344 100.410156 254.613281 100.390625 254.558594 100.410156 C 254.511719 100.425781 254.703125 100.324219 254.679688 100.34375 L 254.710938 100.3125 C 254.535156 100.535156 254.144531 101.429688 253.769531 102.832031 L 253.234375 104.808594 C 252.828125 106.109375 252.386719 107.339844 252.011719 108.277344 L 251.597656 109.253906 C 251.207031 110.128906 250.992188 110.535156 250.992188 110.859375 C 250.992188 111.011719 251.070312 111.222656 250.972656 111.5625 C 250.941406 111.65625 250.898438 111.796875 250.710938 111.910156 L 250.375 111.980469 L 250.113281 111.882812 C 249.914062 111.742188 249.878906 111.609375 249.828125 111.476562 L 249.566406 110.71875 C 249.296875 110.066406 248.796875 109.074219 248.480469 107.792969 C 248.292969 107.035156 248.117188 106.234375 248.035156 105.511719 L 247.890625 104.125 L 247.914062 104.164062 C 247.886719 104.132812 248.101562 104.273438 248.046875 104.253906 C 247.996094 104.234375 248.175781 104.273438 248.160156 104.273438 Z M 247.921875 104.367188 "/>
<path style=" stroke:none;fill-rule:nonzero;fill:rgb(7.058716%,1.176453%,46.665955%);fill-opacity:1;" d="M 255.828125 108.589844 C 255.9375 108.332031 256.234375 108.214844 256.488281 108.320312 C 256.746094 108.429688 256.863281 108.726562 256.757812 108.980469 C 256.460938 109.683594 255.765625 109.789062 255.332031 110.054688 C 255.003906 110.261719 254.679688 110.730469 254.503906 111.238281 L 254.433594 111.863281 L 254.566406 112.371094 L 254.671875 112.414062 L 255.132812 112.351562 C 255.542969 112.226562 256.03125 111.945312 256.414062 111.597656 C 256.929688 111.132812 257.285156 110.472656 257.445312 109.882812 C 257.519531 109.605469 257.542969 109.367188 257.511719 109.203125 C 257.480469 109.050781 257.371094 108.910156 257.179688 108.800781 C 256.976562 108.6875 256.699219 108.625 256.414062 108.65625 C 256.121094 108.683594 255.828125 108.804688 255.578125 109.03125 C 255.320312 109.265625 255.097656 109.625 254.976562 110.152344 C 254.917969 110.425781 254.648438 110.59375 254.375 110.535156 C 254.105469 110.472656 253.933594 110.203125 253.996094 109.933594 C 254.152344 109.230469 254.476562 108.667969 254.902344 108.285156 C 255.316406 107.90625 255.820312 107.703125 256.3125 107.65625 C 256.796875 107.605469 257.273438 107.699219 257.671875 107.925781 C 258.070312 108.148438 258.402344 108.523438 258.496094 109.003906 C 258.578125 109.394531 258.515625 109.78125 258.417969 110.148438 C 258.210938 110.910156 257.773438 111.722656 257.085938 112.34375 C 256.597656 112.785156 256.011719 113.136719 255.421875 113.316406 C 255.128906 113.402344 254.832031 113.449219 254.539062 113.410156 C 254.238281 113.371094 253.917969 113.210938 253.730469 112.929688 C 253.527344 112.625 253.453125 112.277344 253.429688 111.933594 C 253.410156 111.617188 253.433594 111.265625 253.554688 110.914062 C 253.785156 110.234375 254.1875 109.578125 254.804688 109.199219 C 255.382812 108.84375 255.796875 108.671875 255.828125 108.589844 "/>
<path style=" stroke:none;fill-rule:nonzero;fill:rgb(7.058716%,1.176453%,46.665955%);fill-opacity:1;" d="M 268.300781 102.234375 C 268.054688 102.105469 267.957031 101.804688 268.085938 101.558594 C 268.214844 101.308594 268.519531 101.214844 268.765625 101.34375 L 268.980469 101.289062 L 268.945312 101.339844 L 268.945312 101.421875 L 269.003906 101.519531 L 269.003906 101.53125 L 268.800781 101.496094 L 268.011719 101.511719 L 265.757812 101.78125 L 263.457031 102.089844 L 262.863281 102.210938 C 262.859375 102.214844 262.953125 102.105469 262.921875 102.152344 C 262.894531 102.199219 262.925781 101.863281 262.949219 101.945312 C 262.964844 102.003906 262.863281 101.789062 262.886719 101.816406 C 262.914062 101.851562 262.84375 101.773438 262.84375 101.773438 L 262.894531 101.804688 L 263.246094 101.980469 C 263.519531 102.136719 263.738281 102.394531 263.863281 102.695312 C 263.988281 102.992188 264.042969 103.332031 264.070312 103.726562 L 264.074219 104.753906 L 263.78125 108.15625 L 263.59375 110.574219 L 263.613281 112.226562 L 263.671875 112.546875 L 263.773438 112.640625 L 264.1875 112.734375 C 264.609375 112.769531 265.210938 112.722656 265.921875 112.675781 L 267.988281 112.484375 L 268.992188 112.34375 C 269.222656 112.308594 269.335938 112.230469 269.648438 112.261719 L 269.882812 112.34375 C 270.003906 112.421875 270.140625 112.652344 270.117188 112.835938 C 270.089844 113.132812 269.96875 113.15625 269.914062 113.203125 L 269.570312 113.441406 C 269.332031 113.585938 269.023438 113.511719 268.878906 113.277344 C 268.730469 113.039062 268.804688 112.730469 269.042969 112.582031 L 269.253906 112.441406 L 269.214844 112.484375 L 269.167969 112.558594 C 269.1875 112.523438 269.109375 112.804688 269.117188 112.726562 C 269.128906 112.640625 269.222656 113.101562 269.171875 113.007812 C 269.136719 112.941406 269.347656 113.199219 269.300781 113.164062 C 269.238281 113.113281 269.5 113.257812 269.460938 113.246094 L 269.542969 113.265625 C 269.484375 113.257812 269.59375 113.265625 269.578125 113.265625 L 269.136719 113.339844 L 268.117188 113.484375 L 265.992188 113.679688 C 265.285156 113.726562 264.652344 113.785156 264.097656 113.734375 C 263.828125 113.710938 263.566406 113.660156 263.324219 113.542969 C 263.082031 113.417969 262.859375 113.207031 262.746094 112.9375 L 262.613281 112.347656 C 262.558594 111.882812 262.550781 111.300781 262.585938 110.527344 L 262.78125 108.058594 L 263.066406 104.710938 L 263.066406 103.800781 L 262.933594 103.082031 L 262.742188 102.847656 L 262.4375 102.699219 C 262.300781 102.628906 262.074219 102.566406 261.976562 102.210938 C 261.921875 102.015625 261.957031 101.804688 262.0625 101.632812 C 262.167969 101.457031 262.339844 101.328125 262.535156 101.261719 L 263.296875 101.09375 L 265.628906 100.78125 L 267.933594 100.507812 L 268.886719 100.496094 C 269.171875 100.519531 269.453125 100.554688 269.699219 100.796875 C 269.917969 101.003906 269.984375 101.324219 269.921875 101.582031 C 269.859375 101.835938 269.683594 102.058594 269.441406 102.183594 C 269.109375 102.355469 268.707031 102.449219 268.300781 102.234375 "/>
<path style=" stroke:none;fill-rule:nonzero;fill:rgb(7.058716%,1.176453%,46.665955%);fill-opacity:1;" d="M 269.125 106.472656 C 269.226562 106.734375 269.101562 107.023438 268.839844 107.128906 C 268.582031 107.230469 268.289062 107.101562 268.1875 106.84375 L 268.109375 106.679688 L 268.117188 106.6875 C 268.101562 106.675781 268.253906 106.761719 268.207031 106.742188 C 268.160156 106.722656 268.46875 106.761719 268.398438 106.769531 C 268.332031 106.777344 268.597656 106.6875 268.558594 106.710938 L 268.617188 106.660156 C 268.558594 106.773438 268.449219 107.222656 268.40625 107.742188 C 268.339844 108.558594 268.320312 109.460938 268.382812 110.0625 L 268.429688 110.402344 L 268.414062 110.378906 C 268.441406 110.414062 268.242188 110.273438 268.289062 110.292969 L 268.488281 110.277344 C 268.765625 110.160156 269.390625 109.269531 269.996094 108.5 L 270.71875 107.652344 L 271.007812 107.300781 L 271.164062 107.140625 C 271.242188 107.074219 271.367188 106.960938 271.609375 106.980469 C 271.902344 107.003906 272.027344 107.230469 272.066406 107.328125 L 272.113281 107.535156 L 272.113281 107.863281 L 272.046875 108.558594 C 271.980469 109.09375 271.945312 109.519531 272.070312 109.90625 C 272.175781 110.230469 272.328125 110.546875 272.5 110.730469 C 272.660156 110.898438 272.789062 110.964844 273.046875 110.902344 C 273.316406 110.839844 273.585938 111.007812 273.652344 111.277344 C 273.714844 111.546875 273.546875 111.816406 273.277344 111.882812 C 272.683594 112.023438 272.109375 111.785156 271.769531 111.421875 C 271.433594 111.066406 271.246094 110.621094 271.113281 110.21875 C 270.910156 109.59375 270.976562 108.992188 271.046875 108.433594 L 271.109375 107.8125 L 271.109375 107.632812 C 271.109375 107.628906 271.144531 107.738281 271.125 107.6875 C 271.113281 107.660156 271.269531 107.890625 271.214844 107.832031 C 271.183594 107.800781 271.394531 107.957031 271.339844 107.929688 C 271.285156 107.898438 271.597656 107.988281 271.53125 107.984375 C 271.476562 107.980469 271.707031 107.964844 271.667969 107.972656 C 271.609375 107.988281 271.808594 107.914062 271.785156 107.925781 L 271.824219 107.898438 L 271.78125 107.949219 L 271.460938 108.328125 L 270.785156 109.121094 C 270.226562 109.832031 269.742188 110.84375 268.871094 111.207031 C 268.546875 111.339844 268.214844 111.328125 267.960938 111.242188 C 267.683594 111.144531 267.523438 110.878906 267.464844 110.6875 L 267.382812 110.167969 C 267.308594 109.453125 267.332031 108.519531 267.40625 107.660156 C 267.453125 107.074219 267.519531 106.566406 267.738281 106.171875 L 268.007812 105.871094 C 268.15625 105.773438 268.402344 105.738281 268.585938 105.8125 C 268.929688 105.953125 269.015625 106.203125 269.125 106.472656 "/>
<path style=" stroke:none;fill-rule:nonzero;fill:rgb(7.058716%,1.176453%,46.665955%);fill-opacity:1;" d="M 273.929688 101.160156 C 274.207031 101.160156 274.433594 101.386719 274.433594 101.664062 C 274.433594 101.941406 274.207031 102.167969 273.929688 102.167969 L 273.484375 102.066406 C 273.34375 101.992188 273.222656 101.875 273.148438 101.730469 C 273.003906 101.445312 273.070312 101.117188 273.230469 100.894531 C 273.457031 100.574219 273.738281 100.558594 273.972656 100.523438 L 274.675781 100.464844 L 277.226562 100.464844 L 278.03125 100.488281 L 278.496094 100.492188 C 278.542969 100.488281 278.363281 100.539062 278.386719 100.523438 L 278.355469 100.546875 L 278.363281 100.539062 L 278.378906 100.515625 C 278.53125 100.285156 278.84375 100.222656 279.074219 100.378906 C 279.304688 100.535156 279.367188 100.847656 279.210938 101.078125 L 279.21875 101.066406 L 279.207031 101.089844 L 279.101562 101.222656 C 279.003906 101.332031 278.832031 101.476562 278.566406 101.496094 L 278.027344 101.496094 L 277.191406 101.46875 L 274.730469 101.46875 L 274.125 101.515625 L 273.972656 101.550781 L 273.980469 101.546875 C 273.964844 101.554688 274.082031 101.433594 274.054688 101.472656 L 274.074219 101.414062 C 274.066406 101.449219 274.023438 101.226562 274.046875 101.277344 C 274.074219 101.324219 273.914062 101.15625 273.949219 101.171875 Z M 278.300781 100.714844 C 278.34375 100.441406 278.601562 100.253906 278.875 100.296875 C 279.152344 100.34375 279.335938 100.601562 279.292969 100.875 C 279.214844 101.351562 278.976562 101.5 278.890625 101.769531 C 278.804688 102.039062 278.875 102.59375 278.984375 103.328125 L 279.394531 106.664062 C 279.546875 108.265625 279.699219 109.664062 279.941406 110.75 C 280.09375 111.425781 280.285156 112.042969 280.289062 112.667969 C 280.289062 112.996094 280.261719 113.378906 280.042969 113.730469 C 279.496094 114.609375 278.300781 114.945312 277.179688 115.210938 C 276.480469 115.378906 275.800781 115.5 275.234375 115.480469 C 274.957031 115.46875 274.683594 115.449219 274.425781 115.242188 C 274.292969 115.132812 274.179688 114.953125 274.15625 114.761719 C 274.132812 114.574219 274.179688 114.40625 274.25 114.261719 C 274.367188 114.011719 274.667969 113.90625 274.921875 114.023438 C 275.171875 114.144531 275.277344 114.445312 275.15625 114.695312 L 275.152344 114.636719 C 275.164062 114.703125 275.019531 114.425781 275.058594 114.457031 L 275.066406 114.453125 L 275.269531 114.476562 C 275.664062 114.488281 276.292969 114.390625 276.945312 114.234375 C 277.980469 113.984375 278.964844 113.554688 279.1875 113.199219 C 279.257812 113.089844 279.28125 112.929688 279.28125 112.671875 C 279.28125 112.253906 279.117188 111.675781 278.960938 110.96875 C 278.699219 109.800781 278.542969 108.371094 278.390625 106.761719 L 277.988281 103.472656 C 277.882812 102.742188 277.734375 102.09375 277.933594 101.464844 L 278.199219 100.875 L 278.296875 100.699219 L 278.3125 100.667969 Z M 278.300781 100.714844 "/>
<path style=" stroke:none;fill-rule:nonzero;fill:rgb(7.058716%,1.176453%,46.665955%);fill-opacity:1;" d="M 19.027344 84.089844 C 19.304688 84.125 19.5 84.375 19.464844 84.652344 C 19.429688 84.925781 19.179688 85.125 18.902344 85.089844 L 18.929688 85.082031 L 19.007812 85.035156 L 19.015625 85.074219 C 18.992188 85.246094 19.042969 85.589844 19.164062 85.976562 C 19.402344 86.722656 19.945312 87.578125 20.363281 88.339844 L 20.8125 89.378906 L 20.902344 89.566406 L 20.847656 89.515625 C 20.882812 89.542969 20.601562 89.425781 20.679688 89.441406 C 20.761719 89.457031 20.363281 89.492188 20.433594 89.464844 C 20.5 89.4375 20.28125 89.570312 20.304688 89.546875 C 20.339844 89.507812 20.273438 89.585938 20.289062 89.550781 L 20.542969 88.65625 L 21.238281 86.5625 L 22.535156 82.117188 L 23.238281 79.996094 L 23.59375 78.835938 L 23.636719 78.625 L 23.632812 78.636719 L 23.636719 78.691406 C 23.636719 78.667969 23.679688 78.839844 23.664062 78.792969 C 23.648438 78.753906 23.808594 79.003906 23.753906 78.945312 C 23.710938 78.894531 24.019531 79.109375 23.941406 79.074219 C 23.878906 79.050781 24.195312 79.113281 24.132812 79.113281 C 24.042969 79.113281 24.402344 79.035156 24.347656 79.0625 C 24.300781 79.085938 24.476562 78.972656 24.453125 78.992188 C 24.386719 79.046875 24.546875 78.882812 24.535156 78.898438 L 24.515625 78.960938 L 24.1875 80.375 C 24.140625 80.648438 23.882812 80.832031 23.609375 80.789062 C 23.332031 80.742188 23.148438 80.480469 23.195312 80.207031 L 23.46875 78.945312 L 23.585938 78.574219 C 23.621094 78.476562 23.570312 78.421875 23.796875 78.230469 C 23.867188 78.167969 24.109375 78.035156 24.359375 78.160156 C 24.703125 78.335938 24.632812 78.527344 24.640625 78.59375 L 24.636719 78.730469 L 24.570312 79.074219 L 24.1875 80.324219 L 23.5 82.410156 L 22.195312 86.867188 L 21.507812 88.941406 C 21.371094 89.414062 21.421875 89.855469 21.007812 90.265625 C 20.910156 90.363281 20.695312 90.472656 20.484375 90.429688 C 20.28125 90.386719 20.179688 90.273438 20.117188 90.195312 L 19.890625 89.78125 L 19.476562 88.820312 C 19.085938 88.097656 18.503906 87.210938 18.207031 86.28125 C 18.054688 85.8125 17.964844 85.367188 18.015625 84.945312 C 18.042969 84.734375 18.113281 84.507812 18.296875 84.324219 C 18.484375 84.136719 18.777344 84.058594 19.027344 84.089844 "/>
<path style=" stroke:none;fill-rule:nonzero;fill:rgb(7.058716%,1.176453%,46.665955%);fill-opacity:1;" d="M 24.65625 87.539062 C 24.933594 87.570312 25.132812 87.820312 25.101562 88.097656 C 25.070312 88.371094 24.820312 88.570312 24.546875 88.539062 C 24.519531 88.539062 24.707031 88.515625 24.660156 88.53125 C 24.609375 88.542969 24.835938 88.425781 24.796875 88.457031 C 24.761719 88.488281 24.878906 88.347656 24.867188 88.371094 L 24.882812 88.339844 L 24.890625 88.671875 L 25.199219 90.226562 L 25.554688 91.925781 L 25.578125 92 L 25.542969 91.960938 C 25.574219 91.988281 25.308594 91.839844 25.386719 91.863281 C 25.46875 91.890625 25.042969 91.882812 25.121094 91.859375 C 25.171875 91.84375 24.976562 91.933594 25.003906 91.914062 C 25.042969 91.890625 24.9375 91.980469 24.941406 91.972656 L 25.054688 91.699219 C 25.144531 91.433594 25.429688 91.292969 25.691406 91.382812 C 25.957031 91.472656 26.097656 91.757812 26.007812 92.019531 L 25.824219 92.457031 C 25.757812 92.582031 25.675781 92.746094 25.410156 92.824219 C 25.121094 92.910156 24.839844 92.703125 24.75 92.570312 L 24.59375 92.226562 C 24.445312 91.753906 24.363281 91.101562 24.21875 90.449219 L 23.890625 88.785156 C 23.863281 88.546875 23.847656 88.324219 23.90625 88.085938 C 23.9375 87.964844 23.996094 87.816406 24.140625 87.695312 C 24.28125 87.570312 24.492188 87.523438 24.65625 87.539062 "/>
<path style=" stroke:none;fill-rule:nonzero;fill:rgb(7.058716%,1.176453%,46.665955%);fill-opacity:1;" d="M 25.34375 84.339844 C 25.554688 84.523438 25.574219 84.84375 25.390625 85.050781 C 25.207031 85.261719 24.890625 85.28125 24.679688 85.097656 C 24.304688 84.769531 24.003906 84.371094 23.964844 83.878906 C 23.941406 83.628906 24.023438 83.332031 24.226562 83.128906 C 24.425781 82.921875 24.703125 82.824219 24.996094 82.789062 C 25.269531 82.753906 25.523438 82.949219 25.558594 83.222656 C 25.589844 83.5 25.394531 83.75 25.121094 83.785156 L 24.945312 83.832031 L 24.964844 83.796875 C 24.972656 83.871094 25.101562 84.128906 25.34375 84.339844 "/>
<path style=" stroke:none;fill-rule:nonzero;fill:rgb(7.058716%,1.176453%,46.665955%);fill-opacity:1;" d="M 34.222656 82.316406 C 33.953125 82.386719 33.679688 82.230469 33.605469 81.960938 C 33.535156 81.691406 33.695312 81.417969 33.960938 81.34375 L 34.011719 81.328125 L 33.992188 81.339844 C 34.007812 81.332031 33.886719 81.425781 33.917969 81.394531 C 33.953125 81.363281 33.773438 81.675781 33.800781 81.582031 C 33.820312 81.535156 33.78125 81.804688 33.777344 81.746094 C 33.777344 81.6875 33.832031 81.957031 33.8125 81.90625 C 33.777344 81.824219 33.980469 82.125 33.941406 82.089844 C 33.90625 82.0625 34.042969 82.152344 34.023438 82.144531 L 33.96875 82.140625 L 33.660156 82.113281 C 33.074219 82.089844 32.128906 82.179688 31.175781 82.367188 L 29.636719 82.785156 L 28.808594 83.15625 L 28.777344 83.179688 C 28.769531 83.1875 28.835938 83.03125 28.824219 83.085938 C 28.808594 83.140625 28.804688 82.859375 28.820312 82.910156 C 28.832031 82.957031 28.769531 82.824219 28.777344 82.832031 C 28.820312 82.878906 28.695312 82.761719 28.703125 82.765625 L 29.058594 82.917969 C 29.34375 83.082031 29.464844 83.355469 29.542969 83.597656 L 29.730469 84.371094 L 29.976562 85.632812 C 30.070312 86.363281 30.09375 87.207031 30.109375 88.046875 L 30.109375 89.976562 L 30.105469 91.21875 C 30.109375 91.25 30.046875 91.15625 30.082031 91.195312 C 30.117188 91.238281 29.894531 91.109375 29.933594 91.113281 L 30.054688 91.050781 C 30.535156 90.785156 31.191406 90.589844 32.148438 90.597656 C 33.066406 90.609375 34.257812 90.71875 35.300781 90.703125 C 35.929688 90.695312 36.464844 90.644531 36.601562 90.585938 L 36.550781 90.636719 C 36.578125 90.601562 36.472656 90.828125 36.488281 90.773438 C 36.5 90.71875 36.496094 90.960938 36.484375 90.921875 L 36.507812 90.984375 L 36.308594 90.808594 C 36.085938 90.644531 36.035156 90.332031 36.199219 90.105469 C 36.363281 89.882812 36.679688 89.832031 36.902344 89.996094 C 37.164062 90.1875 37.390625 90.355469 37.46875 90.699219 C 37.507812 90.882812 37.457031 91.117188 37.339844 91.261719 C 37.234375 91.398438 37.105469 91.46875 36.988281 91.515625 C 36.53125 91.707031 35.972656 91.703125 35.3125 91.710938 C 34.199219 91.726562 32.992188 91.613281 32.136719 91.605469 C 31.316406 91.597656 30.890625 91.738281 30.542969 91.933594 C 30.34375 92.042969 30.109375 92.15625 29.792969 92.109375 C 29.628906 92.089844 29.445312 92 29.320312 91.855469 C 29.199219 91.714844 29.136719 91.542969 29.109375 91.375 C 29.046875 90.976562 29.097656 90.550781 29.105469 89.964844 L 29.105469 88.070312 C 29.085938 87.238281 29.0625 86.417969 28.976562 85.761719 L 28.746094 84.582031 L 28.589844 83.910156 L 28.53125 83.773438 L 28.550781 83.785156 C 28.527344 83.773438 28.304688 83.828125 28.011719 83.480469 C 27.890625 83.339844 27.785156 83.082031 27.847656 82.835938 C 27.910156 82.59375 28.074219 82.441406 28.234375 82.328125 C 28.507812 82.140625 28.867188 81.984375 29.316406 81.832031 C 29.796875 81.667969 30.371094 81.496094 30.984375 81.378906 C 32 81.179688 32.984375 81.078125 33.703125 81.109375 C 34.003906 81.121094 34.210938 81.113281 34.46875 81.242188 C 34.542969 81.277344 34.664062 81.332031 34.746094 81.53125 C 34.835938 81.757812 34.71875 82.019531 34.621094 82.117188 C 34.453125 82.277344 34.347656 82.285156 34.222656 82.316406 "/>
<path style=" stroke:none;fill-rule:nonzero;fill:rgb(7.058716%,1.176453%,46.665955%);fill-opacity:1;" d="M 35.382812 84.574219 C 35.652344 84.640625 35.820312 84.910156 35.753906 85.179688 C 35.6875 85.453125 35.417969 85.617188 35.144531 85.550781 C 35.117188 85.546875 35.367188 85.523438 35.300781 85.542969 C 35.230469 85.566406 35.484375 85.40625 35.457031 85.441406 L 35.484375 85.398438 L 35.46875 85.460938 L 35.464844 86.238281 L 35.460938 87.230469 L 35.527344 87.574219 L 35.546875 87.617188 C 35.554688 87.625 35.398438 87.527344 35.457031 87.550781 C 35.539062 87.585938 35.203125 87.539062 35.25 87.527344 L 35.195312 87.546875 L 35.324219 87.4375 L 35.808594 86.886719 C 36.175781 86.453125 36.570312 85.976562 36.996094 85.613281 C 37.238281 85.410156 37.488281 85.222656 37.808594 85.144531 C 38.015625 85.089844 38.246094 85.140625 38.402344 85.234375 L 38.734375 85.5625 L 39.054688 86.246094 C 39.335938 87.042969 39.527344 87.644531 39.972656 87.867188 C 40.222656 87.992188 40.324219 88.296875 40.199219 88.542969 C 40.074219 88.792969 39.773438 88.894531 39.523438 88.769531 C 38.613281 88.3125 38.375 87.34375 38.105469 86.582031 L 37.902344 86.128906 L 37.882812 86.097656 C 37.851562 86.078125 38.105469 86.105469 38.050781 86.121094 L 37.648438 86.382812 C 37.316406 86.660156 36.945312 87.101562 36.578125 87.535156 L 36.023438 88.160156 L 35.695312 88.421875 C 35.558594 88.5 35.332031 88.589844 35.070312 88.480469 C 34.785156 88.363281 34.660156 88.128906 34.585938 87.929688 L 34.460938 87.324219 L 34.457031 86.277344 L 34.476562 85.304688 C 34.5 85.148438 34.535156 84.976562 34.679688 84.800781 C 34.832031 84.617188 35.15625 84.519531 35.382812 84.574219 "/>
<path style=" stroke:none;fill-rule:nonzero;fill:rgb(7.058716%,1.176453%,46.665955%);fill-opacity:1;" d="M 41.242188 80.53125 C 41.335938 80.792969 41.199219 81.078125 40.9375 81.171875 C 40.675781 81.265625 40.390625 81.132812 40.296875 80.871094 C 40.140625 80.441406 40.210938 79.890625 40.628906 79.523438 C 41.332031 78.90625 42.335938 79.144531 43.175781 79.113281 L 44.207031 79.027344 L 44.621094 78.996094 L 44.914062 79.039062 C 45.046875 79.085938 45.191406 79.199219 45.261719 79.332031 C 45.421875 79.621094 45.335938 79.804688 45.300781 79.933594 L 45.230469 80.203125 C 45.199219 80.375 45.445312 80.851562 45.773438 81.519531 C 46.144531 82.28125 46.402344 83.257812 46.785156 84.285156 C 47.230469 85.46875 48 86.492188 48.460938 87.285156 C 48.652344 87.617188 48.816406 87.972656 48.765625 88.382812 C 48.722656 88.683594 48.5625 88.933594 48.371094 89.125 L 47.710938 89.597656 C 47.21875 89.871094 46.648438 90.082031 46.101562 90.289062 C 44.894531 90.746094 43.636719 90.960938 43.183594 91.320312 C 42.964844 91.492188 42.648438 91.453125 42.476562 91.234375 C 42.304688 91.019531 42.339844 90.703125 42.558594 90.527344 C 43.390625 89.875 44.664062 89.757812 45.746094 89.347656 C 46.289062 89.140625 46.824219 88.9375 47.226562 88.714844 L 47.660156 88.414062 L 47.765625 88.253906 C 47.773438 88.207031 47.734375 88.035156 47.589844 87.789062 C 47.179688 87.082031 46.347656 85.988281 45.84375 84.636719 C 45.445312 83.566406 45.175781 82.59375 44.867188 81.960938 C 44.566406 81.347656 44.105469 80.773438 44.238281 80.023438 L 44.324219 79.6875 L 44.335938 79.644531 L 44.339844 79.695312 C 44.335938 79.664062 44.40625 79.867188 44.382812 79.820312 C 44.339844 79.742188 44.640625 80.007812 44.574219 79.984375 C 44.53125 79.96875 44.644531 80 44.632812 80 L 44.269531 80.03125 L 43.214844 80.121094 C 42.308594 80.152344 41.375 80.207031 41.296875 80.277344 Z M 41.242188 80.53125 "/>
</g>
</svg>
