<?xml version="1.0" encoding="UTF-8"?>
<svg xmlns="http://www.w3.org/2000/svg" xmlns:xlink="http://www.w3.org/1999/xlink" width="365.14243pt" height="240.1591pt" viewBox="0 0 365.14243 240.1591" version="1.2">
<g id="surface1">
<path style=" stroke:none;fill-rule:nonzero;fill:rgb(7.058716%,1.176453%,46.665955%);fill-opacity:1;" d="M 14.230469 123.78125 C 13.898438 123.78125 13.632812 123.515625 13.632812 123.183594 C 13.632812 122.855469 13.898438 122.589844 14.230469 122.589844 L 243.253906 122.589844 C 243.582031 122.589844 243.847656 122.855469 243.847656 123.183594 C 243.847656 123.515625 243.582031 123.78125 243.253906 123.78125 Z M 14.230469 123.78125 "/>
<path style=" stroke:none;fill-rule:nonzero;fill:rgb(7.058716%,1.176453%,46.665955%);fill-opacity:1;" d="M 245.132812 122.535156 C 245.25 122.84375 245.089844 123.1875 244.785156 123.300781 C 244.476562 123.414062 244.132812 123.257812 244.015625 122.949219 C 243.34375 121.144531 242.042969 120.253906 240.460938 119.378906 C 239.65625 118.9375 238.691406 118.511719 237.726562 118.191406 C 237.1875 118.015625 236.640625 117.867188 236.203125 117.765625 C 235.941406 117.703125 235.726562 117.628906 235.59375 117.585938 C 235.539062 117.570312 235.535156 117.566406 235.519531 117.566406 C 235.507812 117.566406 235.675781 117.550781 235.621094 117.558594 C 235.5625 117.570312 235.910156 117.394531 235.835938 117.457031 C 235.777344 117.503906 236 117.246094 235.96875 117.300781 C 235.921875 117.378906 236.042969 117.039062 236.039062 117.09375 C 236.03125 117.144531 236.035156 116.949219 236.039062 116.976562 C 236.046875 117.042969 236.023438 116.894531 236.023438 116.894531 C 236.023438 116.902344 236.050781 116.957031 236.085938 117.023438 C 236.164062 117.167969 236.277344 117.359375 236.378906 117.558594 C 236.773438 118.339844 236.972656 119.476562 237.136719 120.894531 C 237.308594 122.371094 237.410156 124.105469 237.476562 125.960938 C 237.546875 128.019531 237.496094 130.003906 237.476562 131.484375 C 237.464844 132.175781 237.429688 132.71875 237.46875 133.019531 C 237.492188 133.203125 237.539062 133.34375 237.570312 133.410156 C 237.582031 133.433594 237.558594 133.40625 237.574219 133.421875 C 237.597656 133.445312 237.351562 133.339844 237.425781 133.351562 C 237.488281 133.363281 237.199219 133.359375 237.25 133.351562 C 237.320312 133.339844 237.074219 133.417969 237.101562 133.402344 C 237.128906 133.386719 237.058594 133.433594 237.0625 133.429688 C 237.066406 133.425781 237.09375 133.398438 237.136719 133.339844 C 237.230469 133.21875 237.34375 133.03125 237.476562 132.851562 C 238.425781 131.546875 239.828125 129.894531 240.894531 128.257812 C 241.4375 127.421875 242.050781 126.554688 242.613281 125.738281 C 242.921875 125.296875 243.210938 124.917969 243.378906 124.644531 C 243.453125 124.515625 243.40625 124.378906 243.65625 124.046875 C 243.734375 123.945312 243.890625 123.8125 244.089844 123.777344 C 244.289062 123.746094 244.453125 123.804688 244.558594 123.863281 C 244.757812 123.96875 244.867188 124.09375 245.015625 124.257812 C 245.238281 124.5 245.21875 124.875 244.976562 125.097656 C 244.734375 125.320312 244.355469 125.300781 244.136719 125.058594 C 244.019531 124.933594 244.046875 124.9375 243.996094 124.910156 C 243.972656 124.898438 244.144531 124.957031 244.09375 124.949219 C 244.042969 124.933594 244.363281 124.941406 244.289062 124.953125 C 244.21875 124.964844 244.554688 124.832031 244.5 124.867188 C 244.449219 124.902344 244.625 124.742188 244.605469 124.769531 C 244.570312 124.8125 244.640625 124.710938 244.636719 124.722656 C 244.609375 124.792969 244.546875 125.015625 244.394531 125.261719 C 244.175781 125.625 243.882812 126 243.59375 126.417969 C 243.027344 127.238281 242.417969 128.097656 241.890625 128.90625 C 240.769531 130.628906 239.347656 132.300781 238.441406 133.550781 C 238.339844 133.691406 238.222656 133.878906 238.085938 134.058594 C 238.019531 134.148438 237.945312 134.238281 237.839844 134.332031 C 237.730469 134.425781 237.535156 134.582031 237.210938 134.523438 C 236.84375 134.457031 236.628906 134.1875 236.507812 133.949219 C 236.386719 133.710938 236.324219 133.453125 236.289062 133.171875 C 236.226562 132.675781 236.273438 132.128906 236.285156 131.464844 C 236.304688 129.980469 236.355469 128.015625 236.285156 126.003906 C 236.21875 124.164062 236.117188 122.460938 235.953125 121.035156 C 235.796875 119.671875 235.574219 118.605469 235.316406 118.097656 C 235.238281 117.945312 235.128906 117.761719 235.035156 117.582031 C 234.988281 117.496094 234.945312 117.414062 234.90625 117.308594 C 234.886719 117.253906 234.863281 117.195312 234.855469 117.09375 C 234.84375 116.980469 234.839844 116.734375 235.078125 116.539062 C 235.277344 116.371094 235.496094 116.367188 235.628906 116.378906 C 235.753906 116.390625 235.847656 116.417969 235.9375 116.445312 C 236.113281 116.5 236.285156 116.5625 236.476562 116.605469 C 236.945312 116.714844 237.519531 116.867188 238.101562 117.0625 C 239.136719 117.40625 240.160156 117.851562 241.039062 118.339844 C 242.6875 119.25 244.328125 120.371094 245.132812 122.535156 "/>
<path style=" stroke:none;fill-rule:nonzero;fill:rgb(7.058716%,1.176453%,46.665955%);fill-opacity:1;" d="M 121.039062 23.996094 C 121.039062 23.667969 121.308594 23.398438 121.636719 23.398438 C 121.964844 23.398438 122.230469 23.667969 122.230469 23.996094 L 122.230469 228.695312 C 122.230469 229.023438 121.964844 229.289062 121.636719 229.289062 C 121.308594 229.289062 121.039062 229.023438 121.039062 228.695312 Z M 121.039062 23.996094 "/>
<path style=" stroke:none;fill-rule:nonzero;fill:rgb(7.058716%,1.176453%,46.665955%);fill-opacity:1;" d="M 122.667969 24.976562 C 122.644531 25.304688 122.359375 25.550781 122.03125 25.527344 C 121.703125 25.503906 121.457031 25.21875 121.480469 24.890625 C 121.5 24.628906 121.429688 24.402344 121.332031 24.261719 C 121.246094 24.132812 121.167969 24.109375 121.148438 24.109375 C 121.113281 24.109375 121.175781 24.101562 121.125 24.132812 C 121.0625 24.171875 120.972656 24.25 120.871094 24.363281 C 120.652344 24.601562 120.398438 24.960938 120.117188 25.367188 C 119.796875 25.828125 119.441406 26.289062 119.183594 26.679688 C 119.046875 26.886719 118.988281 27.066406 118.984375 27.078125 C 118.984375 27.082031 118.976562 26.949219 118.984375 27 C 118.988281 27.027344 118.9375 26.847656 118.953125 26.890625 C 118.972656 26.9375 118.8125 26.6875 118.859375 26.738281 C 118.90625 26.792969 118.609375 26.582031 118.679688 26.609375 C 118.746094 26.640625 118.425781 26.566406 118.484375 26.566406 C 118.542969 26.570312 118.332031 26.585938 118.363281 26.578125 C 118.390625 26.570312 118.285156 26.609375 118.296875 26.601562 C 118.410156 26.550781 119.074219 25.777344 119.703125 25 C 120.355469 24.199219 120.972656 23.367188 121.417969 22.652344 C 121.679688 22.230469 121.84375 21.816406 122.046875 21.453125 C 122.175781 21.226562 122.324219 20.996094 122.632812 20.859375 C 122.792969 20.789062 123 20.773438 123.175781 20.816406 C 123.347656 20.859375 123.484375 20.949219 123.59375 21.042969 C 124.335938 21.691406 124.914062 22.910156 125.625 24.089844 C 126.019531 24.738281 126.507812 25.390625 126.824219 26.054688 C 126.964844 26.34375 127.199219 26.648438 127.121094 27.144531 C 127.050781 27.558594 126.753906 27.820312 126.476562 27.984375 C 126.199219 28.144531 125.898438 28.242188 125.585938 28.3125 C 124.390625 28.585938 122.964844 28.222656 121.601562 27.925781 C 120.816406 27.753906 120.050781 27.589844 119.417969 27.425781 C 118.992188 27.3125 118.648438 27.222656 118.40625 27.125 C 118.34375 27.101562 118.289062 27.085938 118.191406 27.019531 C 118.136719 26.980469 118.027344 26.9375 117.953125 26.699219 C 117.863281 26.425781 118.09375 26.058594 118.234375 25.980469 C 118.632812 25.765625 118.660156 25.894531 118.832031 25.90625 C 119.160156 25.929688 119.40625 26.21875 119.382812 26.542969 C 119.359375 26.871094 119.070312 27.117188 118.742188 27.09375 C 118.675781 27.089844 118.632812 27.085938 118.613281 27.085938 C 118.609375 27.085938 118.648438 27.082031 118.628906 27.085938 C 118.617188 27.085938 118.710938 27.070312 118.683594 27.074219 C 118.65625 27.082031 118.867188 26.996094 118.808594 27.027344 C 118.78125 27.039062 118.957031 26.914062 118.917969 26.949219 C 118.882812 26.980469 119.058594 26.761719 119.027344 26.816406 C 118.964844 26.917969 119.097656 26.332031 119.109375 26.453125 C 119.117188 26.542969 119.019531 26.1875 119.046875 26.242188 C 119.085938 26.316406 118.90625 26.066406 118.9375 26.09375 C 118.964844 26.121094 118.855469 26.03125 118.875 26.042969 C 118.9375 26.085938 118.816406 26.007812 118.839844 26.015625 C 118.960938 26.066406 119.304688 26.164062 119.722656 26.273438 C 120.3125 26.425781 121.070312 26.589844 121.855469 26.761719 C 123.207031 27.054688 124.566406 27.324219 125.320312 27.152344 C 125.550781 27.097656 125.753906 27.023438 125.875 26.953125 C 125.929688 26.921875 125.960938 26.894531 125.96875 26.886719 C 125.96875 26.882812 125.9375 26.996094 125.941406 26.953125 C 125.953125 26.90625 125.949219 27 125.921875 26.933594 C 125.890625 26.851562 125.828125 26.730469 125.753906 26.570312 C 125.503906 26.054688 125.03125 25.40625 124.605469 24.707031 C 123.875 23.5 123.203125 22.285156 122.808594 21.941406 C 122.800781 21.933594 122.945312 21.988281 122.882812 21.972656 C 122.816406 21.953125 123.167969 21.925781 123.109375 21.953125 C 123.054688 21.976562 123.171875 21.910156 123.164062 21.921875 C 123.148438 21.9375 123.121094 21.976562 123.085938 22.039062 C 122.9375 22.300781 122.75 22.765625 122.429688 23.277344 C 121.945312 24.0625 121.300781 24.921875 120.628906 25.75 C 120.015625 26.507812 119.554688 27.339844 118.792969 27.683594 C 118.707031 27.722656 118.597656 27.761719 118.449219 27.757812 C 118.292969 27.753906 118.09375 27.671875 117.976562 27.539062 C 117.746094 27.285156 117.785156 27.050781 117.808594 26.894531 C 117.855469 26.597656 117.988281 26.328125 118.1875 26.027344 C 118.480469 25.582031 118.839844 25.117188 119.136719 24.6875 C 119.425781 24.273438 119.699219 23.878906 119.992188 23.558594 C 120.285156 23.242188 120.625 22.921875 121.140625 22.917969 C 121.640625 22.914062 122.0625 23.214844 122.316406 23.589844 C 122.574219 23.972656 122.703125 24.457031 122.667969 24.976562 "/>
<path style=" stroke:none;fill-rule:nonzero;fill:rgb(7.058716%,1.176453%,46.665955%);fill-opacity:1;" d="M 118.378906 224.6875 C 118.671875 224.839844 118.78125 225.203125 118.625 225.492188 C 118.472656 225.78125 118.109375 225.894531 117.820312 225.738281 C 117.398438 225.515625 117.207031 225.492188 117.171875 225.503906 C 117.152344 225.507812 117.308594 225.417969 117.269531 225.449219 C 117.226562 225.484375 117.386719 225.265625 117.367188 225.316406 C 117.347656 225.363281 117.386719 225.191406 117.386719 225.210938 C 117.386719 225.226562 117.386719 225.195312 117.390625 225.210938 C 117.398438 225.238281 118.207031 225.941406 119.035156 226.539062 C 120.328125 227.46875 121.398438 228.371094 122.480469 228.894531 C 123.070312 229.179688 123.792969 229.371094 124.433594 229.425781 C 124.832031 229.460938 125.121094 229.328125 125.382812 229.050781 C 125.65625 228.753906 125.878906 228.28125 126.007812 227.730469 C 126.171875 227.023438 126.3125 226.292969 126.199219 225.78125 C 126.132812 225.472656 125.832031 225.15625 125.300781 224.917969 C 124.742188 224.664062 123.996094 224.519531 123.230469 224.507812 C 122.464844 224.492188 121.703125 224.609375 121.101562 224.847656 C 120.53125 225.074219 120.160156 225.398438 120.039062 225.742188 C 119.933594 226.054688 119.59375 226.21875 119.28125 226.109375 C 118.972656 226.003906 118.808594 225.664062 118.914062 225.351562 C 119.1875 224.566406 119.886719 224.046875 120.664062 223.738281 C 121.449219 223.425781 122.351562 223.300781 123.253906 223.316406 C 124.152344 223.332031 125.039062 223.492188 125.792969 223.832031 C 126.53125 224.167969 127.1875 224.726562 127.363281 225.527344 C 127.554688 226.398438 127.335938 227.269531 127.167969 228 C 127.003906 228.699219 126.722656 229.359375 126.253906 229.859375 C 125.789062 230.363281 125.089844 230.679688 124.328125 230.613281 C 123.539062 230.542969 122.703125 230.324219 121.964844 229.96875 C 120.699219 229.355469 119.59375 228.40625 118.339844 227.503906 C 117.519531 226.914062 116.566406 226.492188 116.261719 225.589844 C 116.191406 225.382812 116.160156 225.128906 116.261719 224.875 C 116.363281 224.613281 116.621094 224.414062 116.871094 224.351562 C 117.351562 224.226562 117.824219 224.390625 118.378906 224.6875 "/>
<path style=" stroke:none;fill-rule:nonzero;fill:rgb(7.058716%,1.176453%,46.665955%);fill-opacity:1;" d="M 86.550781 101.007812 C 86.757812 101.261719 86.71875 101.640625 86.464844 101.847656 C 86.207031 102.054688 85.832031 102.015625 85.625 101.757812 C 85.511719 101.621094 85.171875 101.214844 84.921875 100.710938 C 84.75 100.367188 84.773438 99.996094 84.882812 99.699219 C 84.988281 99.410156 85.171875 99.152344 85.460938 98.988281 C 85.757812 98.824219 86.050781 98.878906 86.265625 98.957031 C 86.472656 99.027344 86.65625 99.136719 86.839844 99.265625 C 87.214844 99.523438 87.597656 99.863281 87.96875 100.214844 C 89.304688 101.484375 90.496094 103.144531 91.511719 104.597656 C 92.488281 105.992188 93.316406 107.089844 93.375 107.113281 C 93.679688 107.238281 93.828125 107.585938 93.703125 107.890625 C 93.578125 108.195312 93.230469 108.339844 92.925781 108.214844 C 92.429688 108.011719 92.210938 107.625 91.847656 107.136719 C 90.644531 105.523438 88.996094 102.835938 87.148438 101.078125 C 86.800781 100.746094 86.449219 100.441406 86.167969 100.246094 C 86.035156 100.15625 85.921875 100.097656 85.867188 100.078125 C 85.847656 100.070312 85.898438 100.074219 85.871094 100.074219 C 85.839844 100.074219 86.117188 99.988281 86.042969 100.027344 C 86.023438 100.042969 86.019531 100.054688 86 100.109375 C 85.980469 100.15625 85.988281 100.175781 85.988281 100.179688 C 86.160156 100.519531 86.445312 100.878906 86.550781 101.007812 "/>
<path style=" stroke:none;fill-rule:nonzero;fill:rgb(7.058716%,1.176453%,46.665955%);fill-opacity:1;" d="M 85.3125 110.023438 C 85.445312 110.324219 85.304688 110.675781 85.003906 110.808594 C 84.703125 110.941406 84.351562 110.800781 84.222656 110.5 C 83.917969 109.804688 83.789062 108.984375 83.957031 108.117188 C 84.125 107.222656 84.59375 106.277344 85.378906 105.285156 C 87.816406 102.21875 91.9375 99.179688 92.554688 98.253906 C 92.738281 97.980469 93.105469 97.90625 93.378906 98.089844 C 93.652344 98.273438 93.726562 98.640625 93.542969 98.914062 C 93.308594 99.269531 92.917969 99.621094 92.398438 100.097656 C 90.695312 101.65625 88.007812 103.890625 86.3125 106.027344 C 85.617188 106.902344 85.25 107.679688 85.125 108.339844 C 85.003906 108.96875 85.09375 109.519531 85.3125 110.023438 "/>
<path style=" stroke:none;fill-rule:nonzero;fill:rgb(7.058716%,1.176453%,46.665955%);fill-opacity:1;" d="M 87.417969 140.800781 C 87.390625 141.128906 87.101562 141.375 86.773438 141.347656 C 86.449219 141.320312 86.203125 141.035156 86.230469 140.707031 C 86.234375 140.632812 86.230469 140.757812 86.21875 140.714844 C 86.171875 140.535156 86.015625 140.203125 85.914062 139.84375 C 85.8125 139.476562 85.976562 139.058594 86.25 138.851562 C 86.519531 138.644531 86.867188 138.589844 87.195312 138.65625 C 88.179688 138.863281 88.832031 139.792969 89.59375 140.527344 C 90.914062 141.808594 92.214844 143.109375 93.292969 144.28125 C 94.332031 145.414062 95.132812 146.332031 95.464844 147.105469 C 95.597656 147.410156 95.457031 147.757812 95.15625 147.890625 C 94.851562 148.019531 94.503906 147.878906 94.371094 147.578125 C 94.179688 147.132812 93.425781 146.1875 92.417969 145.089844 C 91.363281 143.941406 90.074219 142.652344 88.761719 141.382812 C 87.976562 140.617188 87.179688 139.871094 86.953125 139.824219 C 86.917969 139.816406 87.019531 139.761719 86.972656 139.796875 C 86.945312 139.820312 87.074219 139.628906 87.054688 139.683594 C 87.035156 139.738281 87.050781 139.484375 87.0625 139.523438 C 87.148438 139.832031 87.46875 140.167969 87.417969 140.800781 "/>
<path style=" stroke:none;fill-rule:nonzero;fill:rgb(7.058716%,1.176453%,46.665955%);fill-opacity:1;" d="M 86.378906 148.699219 C 86.605469 148.9375 86.597656 149.3125 86.359375 149.539062 C 86.125 149.769531 85.746094 149.761719 85.519531 149.523438 C 85.101562 149.085938 84.648438 148.125 84.921875 146.867188 C 85.09375 146.074219 85.644531 145.371094 86.332031 144.589844 C 87.34375 143.445312 88.761719 142.304688 90.183594 141.171875 C 91.082031 140.460938 91.992188 139.796875 92.796875 139.203125 C 93.929688 138.367188 94.796875 137.75 95.347656 137.257812 C 95.847656 136.816406 95.992188 136.539062 95.988281 136.394531 C 95.984375 136.066406 96.25 135.796875 96.578125 135.792969 C 96.90625 135.789062 97.175781 136.050781 97.179688 136.382812 C 97.1875 137.066406 96.734375 137.621094 96.136719 138.148438 C 95.507812 138.707031 94.632812 139.328125 93.503906 140.160156 C 92.695312 140.761719 91.796875 141.414062 90.925781 142.105469 C 89.511719 143.226562 88.136719 144.347656 87.222656 145.378906 C 86.582031 146.105469 86.175781 146.707031 86.085938 147.121094 C 85.90625 147.941406 86.285156 148.597656 86.378906 148.699219 "/>
<path style=" stroke:none;fill-rule:nonzero;fill:rgb(7.058716%,1.176453%,46.665955%);fill-opacity:1;" d="M 249.601562 32.640625 C 249.929688 32.625 250.207031 32.882812 250.222656 33.210938 C 250.238281 33.539062 249.984375 33.816406 249.65625 33.832031 C 249.539062 33.835938 249.320312 33.796875 249.167969 33.621094 C 249.015625 33.449219 249.011719 33.265625 249.019531 33.167969 C 249.035156 32.996094 249.074219 32.945312 249.101562 32.898438 C 249.148438 32.800781 249.199219 32.730469 249.253906 32.648438 C 249.363281 32.480469 249.492188 32.289062 249.585938 32.113281 C 249.644531 32.007812 249.679688 31.902344 249.695312 31.828125 C 249.707031 31.761719 249.738281 31.851562 249.714844 31.800781 C 249.679688 31.71875 249.902344 32 249.859375 31.972656 C 249.816406 31.945312 249.917969 32 249.917969 32 C 249.898438 31.996094 249.808594 31.988281 249.683594 32 C 249.410156 32.027344 249.011719 32.125 248.578125 32.277344 C 247.683594 32.59375 246.710938 33.117188 246.183594 33.652344 C 245.847656 33.996094 245.671875 34.445312 245.664062 34.957031 C 245.660156 35.410156 245.683594 35.824219 245.894531 36.257812 C 246.414062 37.324219 248.183594 38.488281 249.667969 39.746094 C 250.375 40.34375 251.03125 40.933594 251.550781 41.539062 C 251.90625 41.949219 252.195312 42.371094 252.386719 42.804688 C 252.578125 43.238281 252.671875 43.707031 252.5625 44.167969 C 252.460938 44.585938 252.15625 44.882812 251.835938 45.085938 C 251.511719 45.289062 251.136719 45.425781 250.734375 45.539062 C 249.910156 45.765625 248.976562 45.875 248.105469 45.949219 C 247.074219 46.035156 246.019531 46.15625 245.019531 45.996094 C 244.179688 45.863281 243.449219 45.519531 242.910156 45.035156 C 242.375 44.5625 242.015625 43.941406 241.941406 43.273438 C 241.867188 42.605469 242.105469 41.890625 242.625 41.351562 C 243.15625 40.800781 243.964844 40.410156 245 40.203125 C 245.324219 40.140625 245.636719 40.351562 245.699219 40.671875 C 245.761719 40.996094 245.554688 41.308594 245.230469 41.371094 C 244.371094 41.542969 243.800781 41.851562 243.480469 42.179688 C 243.183594 42.488281 243.089844 42.8125 243.125 43.140625 C 243.164062 43.476562 243.355469 43.839844 243.699219 44.148438 C 244.058594 44.464844 244.574219 44.71875 245.210938 44.820312 C 245.988281 44.945312 246.96875 44.847656 248.007812 44.761719 C 248.839844 44.691406 249.71875 44.582031 250.414062 44.390625 C 250.75 44.296875 251.023438 44.1875 251.203125 44.078125 C 251.363281 43.976562 251.402344 43.902344 251.402344 43.890625 C 251.433594 43.761719 251.414062 43.554688 251.296875 43.285156 C 251.171875 42.996094 250.945312 42.664062 250.648438 42.316406 C 250.195312 41.792969 249.582031 41.230469 248.898438 40.652344 C 247.492188 39.464844 245.589844 38.355469 244.820312 36.777344 C 244.496094 36.105469 244.46875 35.457031 244.472656 34.941406 C 244.480469 34.15625 244.773438 33.386719 245.332031 32.816406 C 246.070312 32.066406 247.160156 31.515625 248.179688 31.15625 C 248.679688 30.980469 249.148438 30.855469 249.570312 30.816406 C 249.777344 30.796875 249.972656 30.792969 250.179688 30.839844 C 250.390625 30.886719 250.675781 31.019531 250.808594 31.324219 C 251.03125 31.839844 250.84375 32.289062 250.636719 32.671875 C 250.503906 32.925781 250.351562 33.144531 250.246094 33.304688 C 250.199219 33.378906 250.164062 33.4375 250.164062 33.4375 C 250.164062 33.4375 250.183594 33.386719 250.175781 33.40625 C 250.167969 33.429688 250.214844 33.195312 250.207031 33.269531 C 250.203125 33.3125 250.179688 33.027344 250.195312 33.097656 C 250.207031 33.15625 250.070312 32.839844 250.117188 32.90625 C 250.179688 33.011719 249.734375 32.640625 249.835938 32.679688 C 249.933594 32.71875 249.542969 32.644531 249.601562 32.640625 "/>
<path style=" stroke:none;fill-rule:nonzero;fill:rgb(7.058716%,1.176453%,46.665955%);fill-opacity:1;" d="M 258.292969 33.847656 C 258.605469 33.949219 258.773438 34.289062 258.671875 34.601562 C 258.570312 34.914062 258.234375 35.082031 257.921875 34.980469 C 257.65625 34.894531 257.449219 34.816406 257.277344 34.730469 C 257.109375 34.648438 256.875 34.617188 256.769531 34.1875 C 256.707031 33.945312 256.839844 33.652344 256.972656 33.535156 C 257.09375 33.429688 257.195312 33.398438 257.28125 33.371094 C 257.449219 33.316406 257.605469 33.296875 257.792969 33.28125 C 258.578125 33.210938 259.769531 33.25 261.054688 33.269531 C 262.296875 33.289062 263.570312 33.261719 264.632812 33.269531 C 265.117188 33.273438 265.550781 33.253906 265.925781 33.269531 C 266.203125 33.28125 266.449219 33.277344 266.667969 33.285156 C 266.773438 33.292969 266.871094 33.289062 267.027344 33.339844 C 267.113281 33.371094 267.246094 33.414062 267.371094 33.59375 C 267.507812 33.792969 267.484375 34.101562 267.410156 34.246094 C 267.296875 34.464844 267.152344 34.527344 267.058594 34.570312 C 266.96875 34.613281 266.894531 34.632812 266.824219 34.65625 C 266.679688 34.695312 266.527344 34.734375 266.367188 34.78125 C 266.054688 34.878906 265.71875 34.703125 265.625 34.390625 C 265.527344 34.074219 265.703125 33.742188 266.015625 33.644531 C 266.214844 33.582031 266.382812 33.542969 266.488281 33.511719 C 266.535156 33.496094 266.542969 33.496094 266.554688 33.492188 C 266.5625 33.488281 266.460938 33.554688 266.492188 33.527344 C 266.53125 33.5 266.304688 33.792969 266.351562 33.699219 C 266.378906 33.644531 266.289062 34.054688 266.292969 33.945312 C 266.292969 33.835938 266.445312 34.351562 266.386719 34.265625 C 266.335938 34.191406 266.601562 34.457031 266.554688 34.425781 C 266.511719 34.402344 266.675781 34.480469 266.652344 34.472656 C 266.585938 34.449219 266.675781 34.480469 266.609375 34.476562 C 266.453125 34.46875 266.191406 34.472656 265.882812 34.460938 C 265.574219 34.449219 265.136719 34.464844 264.625 34.460938 C 263.585938 34.453125 262.304688 34.480469 261.035156 34.460938 C 259.75 34.4375 258.550781 34.410156 257.898438 34.46875 C 257.757812 34.480469 257.65625 34.5 257.640625 34.503906 C 257.644531 34.503906 257.6875 34.484375 257.667969 34.492188 C 257.65625 34.5 257.757812 34.433594 257.730469 34.453125 C 257.6875 34.488281 257.9375 34.15625 257.886719 34.261719 C 257.863281 34.3125 257.941406 34.015625 257.9375 34.078125 C 257.929688 34.144531 257.910156 33.84375 257.921875 33.898438 C 257.945312 33.988281 257.800781 33.667969 257.828125 33.707031 C 257.871094 33.753906 257.761719 33.636719 257.765625 33.640625 C 257.765625 33.640625 257.78125 33.652344 257.808594 33.664062 C 257.894531 33.707031 258.058594 33.773438 258.292969 33.847656 "/>
<path style=" stroke:none;fill-rule:nonzero;fill:rgb(7.058716%,1.176453%,46.665955%);fill-opacity:1;" d="M 260.574219 37.253906 C 260.875 37.125 261.226562 37.269531 261.355469 37.570312 C 261.480469 37.875 261.339844 38.222656 261.035156 38.351562 C 260.894531 38.410156 260.789062 38.460938 260.730469 38.496094 C 260.703125 38.511719 260.6875 38.523438 260.6875 38.527344 C 260.683594 38.527344 260.765625 38.425781 260.734375 38.46875 C 260.71875 38.492188 260.804688 38.324219 260.789062 38.367188 C 260.757812 38.449219 260.769531 37.941406 260.800781 38.054688 C 260.824219 38.136719 260.660156 37.8125 260.699219 37.859375 C 260.75 37.921875 260.558594 37.75 260.582031 37.761719 C 260.597656 37.769531 260.5625 37.753906 260.574219 37.757812 C 260.75 37.8125 261.429688 37.855469 262.261719 37.863281 C 264.035156 37.882812 266.328125 37.800781 268.042969 38.042969 C 268.371094 38.089844 268.597656 38.390625 268.550781 38.714844 C 268.503906 39.042969 268.203125 39.269531 267.878906 39.222656 C 266.332031 39.003906 264.050781 39.074219 262.246094 39.054688 C 261.394531 39.046875 260.730469 39.050781 260.226562 38.898438 C 260.097656 38.855469 259.941406 38.816406 259.785156 38.621094 C 259.605469 38.40625 259.628906 37.980469 259.753906 37.792969 C 259.980469 37.46875 260.230469 37.398438 260.574219 37.253906 "/>
<path style=" stroke:none;fill-rule:nonzero;fill:rgb(7.058716%,1.176453%,46.665955%);fill-opacity:1;" d="M 280.136719 33.234375 C 280.464844 33.273438 280.699219 33.566406 280.660156 33.894531 C 280.621094 34.222656 280.324219 34.453125 280 34.417969 C 279.238281 34.328125 278.371094 34 277.597656 34.320312 C 276.730469 34.679688 275.710938 36.292969 275.1875 37.796875 C 274.878906 38.679688 274.820312 39.523438 274.957031 40.050781 C 275.023438 40.292969 275.179688 40.449219 275.4375 40.550781 C 275.710938 40.652344 276.09375 40.667969 276.476562 40.5625 C 277.148438 40.375 277.929688 39.644531 278.5 38.828125 C 278.917969 38.226562 279.136719 37.503906 279.292969 36.828125 C 279.371094 36.484375 279.414062 36.164062 279.4375 35.914062 C 279.449219 35.796875 279.457031 35.699219 279.460938 35.621094 C 279.464844 35.585938 279.46875 35.554688 279.46875 35.527344 C 279.472656 35.496094 279.40625 35.558594 279.523438 35.292969 L 280.609375 35.785156 C 280.585938 35.839844 280.617188 35.761719 280.613281 35.820312 C 280.589844 36.046875 280.609375 36.488281 280.660156 36.945312 C 280.773438 37.960938 281.515625 39.125 282.414062 39.859375 C 282.851562 40.21875 283.308594 40.457031 283.691406 40.53125 C 284.046875 40.605469 284.300781 40.546875 284.511719 40.351562 C 284.753906 40.128906 285.128906 40.140625 285.351562 40.382812 C 285.578125 40.625 285.5625 41 285.320312 41.226562 C 284.808594 41.703125 284.09375 41.828125 283.457031 41.699219 C 282.816406 41.574219 282.210938 41.230469 281.660156 40.78125 C 280.546875 39.871094 279.632812 38.515625 279.476562 37.078125 C 279.402344 36.402344 279.269531 35.855469 279.523438 35.292969 C 279.660156 34.992188 280.011719 34.859375 280.3125 34.996094 C 280.613281 35.132812 280.746094 35.484375 280.609375 35.785156 C 280.570312 35.871094 280.65625 35.632812 280.652344 35.652344 C 280.636719 35.738281 280.628906 36.3125 280.453125 37.089844 C 280.285156 37.832031 280.035156 38.710938 279.476562 39.507812 C 278.8125 40.460938 277.921875 41.398438 276.792969 41.710938 C 276.195312 41.875 275.566406 41.875 275.011719 41.664062 C 274.457031 41.449219 273.96875 40.980469 273.804688 40.351562 C 273.582031 39.5 273.691406 38.464844 274.0625 37.40625 C 274.648438 35.722656 275.621094 33.847656 277.140625 33.222656 C 278.414062 32.695312 279.648438 33.175781 280.136719 33.234375 "/>
<path style=" stroke:none;fill-rule:nonzero;fill:rgb(7.058716%,1.176453%,46.665955%);fill-opacity:1;" d="M 296.167969 32.039062 C 296.28125 32.347656 296.121094 32.691406 295.8125 32.804688 C 295.503906 32.917969 295.160156 32.757812 295.050781 32.449219 C 295.003906 32.320312 294.960938 32.222656 294.933594 32.15625 C 294.90625 32.101562 294.945312 32.148438 294.914062 32.113281 C 294.90625 32.101562 294.992188 32.1875 294.964844 32.164062 C 294.945312 32.144531 295.09375 32.25 295.054688 32.226562 C 294.988281 32.191406 295.476562 32.296875 295.347656 32.300781 C 295.28125 32.300781 295.605469 32.234375 295.542969 32.257812 C 295.480469 32.28125 295.738281 32.132812 295.695312 32.167969 C 295.621094 32.226562 295.851562 31.96875 295.824219 32.011719 C 295.792969 32.070312 295.878906 31.871094 295.871094 31.894531 C 295.867188 31.914062 295.878906 31.867188 295.878906 31.867188 C 295.871094 31.945312 295.910156 32.4375 296 32.992188 C 296.257812 34.558594 296.636719 36.546875 297.078125 38.203125 C 297.289062 39 297.507812 39.6875 297.714844 40.128906 C 297.808594 40.328125 297.898438 40.460938 297.921875 40.484375 C 297.925781 40.488281 297.894531 40.464844 297.90625 40.472656 C 297.933594 40.492188 297.664062 40.417969 297.746094 40.421875 C 297.828125 40.429688 297.460938 40.507812 297.515625 40.472656 C 297.800781 40.308594 298.164062 40.40625 298.328125 40.691406 C 298.492188 40.976562 298.398438 41.339844 298.113281 41.503906 C 297.761719 41.707031 297.289062 41.535156 297.082031 41.328125 C 296.882812 41.132812 296.757812 40.898438 296.632812 40.628906 C 296.375 40.070312 296.148438 39.34375 295.925781 38.511719 C 295.46875 36.792969 295.085938 34.78125 294.824219 33.183594 C 294.730469 32.59375 294.652344 32.132812 294.691406 31.746094 C 294.703125 31.640625 294.648438 31.484375 294.9375 31.25 C 295.101562 31.113281 295.417969 31.089844 295.585938 31.164062 C 295.734375 31.230469 295.792969 31.304688 295.839844 31.363281 C 296.003906 31.566406 296.0625 31.75 296.167969 32.039062 "/>
<path style=" stroke:none;fill-rule:nonzero;fill:rgb(7.058716%,1.176453%,46.665955%);fill-opacity:1;" d="M 294.898438 37.121094 C 295.132812 37.347656 295.140625 37.726562 294.910156 37.960938 C 294.679688 38.199219 294.304688 38.203125 294.066406 37.976562 C 293.972656 37.882812 293.871094 37.773438 293.8125 37.582031 C 293.753906 37.382812 293.804688 37.089844 293.941406 36.925781 C 294.183594 36.625 294.425781 36.617188 294.648438 36.578125 C 295.105469 36.496094 295.679688 36.492188 296.351562 36.476562 C 297.734375 36.445312 299.371094 36.402344 300.394531 36.015625 C 300.699219 35.894531 301.042969 36.050781 301.160156 36.359375 C 301.28125 36.664062 301.125 37.007812 300.816406 37.125 C 299.480469 37.636719 297.769531 37.636719 296.375 37.667969 C 295.710938 37.679688 295.152344 37.699219 294.855469 37.75 C 294.792969 37.761719 294.75 37.773438 294.742188 37.777344 C 294.742188 37.777344 294.789062 37.75 294.769531 37.761719 C 294.746094 37.777344 294.90625 37.628906 294.867188 37.675781 C 294.824219 37.726562 294.980469 37.375 294.964844 37.460938 C 294.953125 37.527344 294.953125 37.226562 294.964844 37.28125 C 294.976562 37.355469 294.890625 37.113281 294.90625 37.136719 C 294.921875 37.15625 294.890625 37.113281 294.898438 37.121094 "/>
<path style=" stroke:none;fill-rule:nonzero;fill:rgb(7.058716%,1.176453%,46.665955%);fill-opacity:1;" d="M 309.527344 35.324219 C 309.480469 35 309.710938 34.699219 310.035156 34.652344 C 310.363281 34.609375 310.664062 34.839844 310.707031 35.164062 C 310.832031 36.097656 311.691406 38.632812 312.128906 41.28125 C 312.464844 43.339844 312.523438 45.320312 311.894531 46.816406 C 311.480469 47.796875 310.730469 48.535156 309.863281 48.765625 C 309.433594 48.882812 308.941406 48.855469 308.53125 48.609375 C 308.117188 48.363281 307.824219 47.921875 307.679688 47.386719 C 307.59375 47.070312 307.78125 46.742188 308.097656 46.65625 C 308.417969 46.570312 308.742188 46.757812 308.828125 47.074219 C 308.914062 47.382812 309.039062 47.527344 309.140625 47.585938 C 309.242188 47.648438 309.371094 47.664062 309.558594 47.617188 C 309.96875 47.507812 310.507812 47.039062 310.796875 46.355469 C 311.273438 45.222656 311.269531 43.414062 310.953125 41.472656 C 310.746094 40.210938 310.429688 38.941406 310.136719 37.832031 C 309.859375 36.761719 309.605469 35.910156 309.527344 35.324219 "/>
<path style=" stroke:none;fill-rule:nonzero;fill:rgb(7.058716%,1.176453%,46.665955%);fill-opacity:1;" d="M 310.65625 31.363281 C 310.714844 31.6875 310.496094 31.996094 310.171875 32.054688 C 309.847656 32.113281 309.539062 31.894531 309.484375 31.570312 C 309.105469 29.429688 308.890625 27.546875 309.242188 26.246094 C 309.328125 25.929688 309.453125 25.636719 309.667969 25.398438 C 309.886719 25.152344 310.226562 24.984375 310.574219 24.976562 C 311.257812 24.960938 311.878906 25.394531 312.585938 26.070312 C 312.820312 26.296875 312.832031 26.675781 312.601562 26.910156 C 312.375 27.148438 312 27.15625 311.761719 26.929688 C 311.15625 26.351562 310.710938 26.164062 310.601562 26.167969 C 310.570312 26.167969 310.585938 26.160156 310.554688 26.195312 C 310.511719 26.242188 310.445312 26.359375 310.390625 26.554688 C 310.148438 27.460938 310.292969 29.289062 310.65625 31.363281 "/>
<path style=" stroke:none;fill-rule:nonzero;fill:rgb(7.058716%,1.176453%,46.665955%);fill-opacity:1;" d="M 315.25 33.648438 C 315.480469 33.882812 315.476562 34.257812 315.242188 34.488281 C 315.007812 34.722656 314.632812 34.71875 314.402344 34.484375 C 314.375 34.457031 314.621094 34.617188 314.546875 34.585938 C 314.464844 34.546875 314.972656 34.609375 314.855469 34.625 C 314.746094 34.644531 315.183594 34.457031 315.121094 34.507812 C 315.066406 34.554688 315.242188 34.359375 315.226562 34.386719 C 315.195312 34.4375 315.253906 34.324219 315.253906 34.328125 C 315.25 34.339844 315.246094 34.371094 315.242188 34.410156 C 315.21875 34.589844 315.222656 34.914062 315.265625 35.265625 C 315.363281 36.054688 315.914062 37.097656 316.492188 37.949219 C 316.804688 38.414062 317.058594 38.785156 317.328125 38.976562 C 317.691406 39.234375 318.042969 39.359375 318.304688 39.316406 C 318.367188 39.304688 318.480469 39.246094 318.621094 39.078125 C 318.769531 38.898438 318.925781 38.621094 319.058594 38.292969 C 319.339844 37.617188 319.53125 36.777344 319.621094 36.054688 C 319.699219 35.453125 319.695312 34.925781 319.632812 34.636719 C 319.621094 34.589844 319.613281 34.578125 319.609375 34.574219 C 319.601562 34.5625 319.761719 34.640625 319.703125 34.625 C 319.644531 34.609375 319.921875 34.589844 319.882812 34.609375 C 319.847656 34.628906 319.914062 34.585938 319.894531 34.617188 C 319.710938 34.914062 319.640625 35.855469 319.683594 36.742188 C 319.71875 37.539062 320.074219 38.292969 320.671875 38.835938 C 321.273438 39.386719 322.351562 39.675781 323.421875 39.710938 C 324.269531 39.738281 325.105469 39.566406 325.753906 39.199219 C 326.417969 38.824219 326.902344 38.171875 327.207031 37.394531 C 327.511719 36.605469 327.628906 35.703125 327.582031 34.878906 C 327.535156 34.070312 327.324219 33.359375 327.042969 32.96875 C 326.917969 32.789062 326.789062 32.691406 326.683594 32.65625 C 326.582031 32.621094 326.46875 32.617188 326.289062 32.695312 C 325.988281 32.828125 325.636719 32.691406 325.503906 32.390625 C 325.371094 32.089844 325.507812 31.738281 325.804688 31.605469 C 326.21875 31.421875 326.679688 31.390625 327.074219 31.53125 C 327.46875 31.667969 327.78125 31.945312 328.015625 32.277344 C 328.488281 32.941406 328.714844 33.839844 328.773438 34.808594 C 328.828125 35.792969 328.695312 36.851562 328.316406 37.824219 C 327.9375 38.800781 327.292969 39.699219 326.339844 40.234375 C 325.460938 40.730469 324.417969 40.933594 323.386719 40.902344 C 322.132812 40.863281 320.796875 40.5625 319.867188 39.714844 C 319.042969 38.964844 318.542969 37.910156 318.492188 36.796875 C 318.449219 35.84375 318.386719 34.792969 318.875 33.996094 C 318.988281 33.8125 319.144531 33.652344 319.34375 33.550781 C 319.542969 33.445312 319.792969 33.417969 320.011719 33.476562 C 320.230469 33.535156 320.410156 33.667969 320.539062 33.828125 C 320.667969 33.988281 320.75 34.175781 320.792969 34.378906 C 320.910156 34.898438 320.890625 35.519531 320.804688 36.203125 C 320.699219 37.015625 320.496094 37.933594 320.160156 38.75 C 319.992188 39.152344 319.796875 39.527344 319.535156 39.839844 C 319.277344 40.152344 318.929688 40.421875 318.492188 40.492188 C 317.792969 40.601562 317.148438 40.3125 316.636719 39.945312 C 316.125 39.582031 315.816406 39.078125 315.503906 38.617188 C 314.875 37.683594 314.226562 36.554688 314.085938 35.410156 C 314.03125 34.980469 314.019531 34.59375 314.058594 34.273438 C 314.074219 34.113281 314.085938 33.96875 314.203125 33.773438 C 314.273438 33.664062 314.414062 33.488281 314.671875 33.449219 C 314.941406 33.40625 315.148438 33.546875 315.25 33.648438 "/>
<path style=" stroke:none;fill-rule:nonzero;fill:rgb(7.058716%,1.176453%,46.665955%);fill-opacity:1;" d="M 242.6875 142.871094 C 242.574219 143.179688 242.234375 143.339844 241.925781 143.230469 C 241.617188 143.117188 241.457031 142.773438 241.566406 142.464844 C 241.632812 142.285156 241.714844 141.945312 241.734375 141.613281 C 241.753906 141.289062 241.691406 141.015625 241.648438 140.960938 C 241.621094 140.925781 241.757812 141.050781 241.734375 141.039062 C 241.714844 141.027344 241.761719 141.046875 241.753906 141.046875 C 241.726562 141.042969 241.644531 141.039062 241.535156 141.058594 C 241.292969 141.097656 240.960938 141.21875 240.636719 141.386719 C 239.464844 142.003906 237.953125 143.964844 236.542969 146.007812 C 235.6875 147.242188 234.917969 148.457031 234.484375 149.441406 C 234.277344 149.917969 234.140625 150.332031 234.09375 150.621094 C 234.070312 150.757812 234.074219 150.855469 234.082031 150.90625 C 234.085938 150.945312 234.035156 150.871094 234.0625 150.898438 C 234.105469 150.941406 233.925781 150.820312 233.949219 150.824219 C 233.964844 150.832031 233.933594 150.824219 233.957031 150.824219 C 234.007812 150.824219 234.125 150.808594 234.265625 150.769531 C 234.570312 150.691406 234.949219 150.535156 235.316406 150.375 C 236.050781 150.050781 236.914062 149.300781 237.75 148.527344 C 238.847656 147.507812 239.785156 146.515625 240.410156 145.621094 C 240.691406 145.21875 240.890625 144.824219 241.046875 144.480469 C 241.152344 144.257812 241.226562 144.054688 241.277344 143.902344 C 241.300781 143.828125 241.320312 143.769531 241.339844 143.710938 C 241.351562 143.683594 241.359375 143.65625 241.382812 143.609375 C 241.402344 143.5625 241.351562 143.46875 241.667969 143.3125 C 241.960938 143.167969 242.320312 143.289062 242.464844 143.585938 C 242.609375 143.878906 242.488281 144.238281 242.191406 144.382812 C 242.105469 144.425781 242.394531 144.226562 242.359375 144.257812 C 242.316406 144.304688 242.449219 144.136719 242.433594 144.160156 C 242.421875 144.179688 242.460938 144.109375 242.457031 144.117188 C 242.449219 144.140625 242.46875 144.089844 242.464844 144.105469 C 242.453125 144.136719 242.433594 144.203125 242.40625 144.285156 C 242.34375 144.460938 242.257812 144.707031 242.128906 144.984375 C 241.957031 145.347656 241.730469 145.816406 241.386719 146.304688 C 240.6875 147.308594 239.695312 148.347656 238.558594 149.398438 C 237.703125 150.195312 236.792969 151.023438 235.796875 151.464844 C 235.40625 151.636719 234.984375 151.8125 234.574219 151.921875 C 234.367188 151.976562 234.164062 152.015625 233.945312 152.015625 C 233.722656 152.011719 233.445312 151.964844 233.21875 151.742188 C 232.855469 151.375 232.847656 150.878906 232.917969 150.4375 C 232.988281 149.984375 233.160156 149.5 233.394531 148.964844 C 233.882812 147.84375 234.6875 146.59375 235.5625 145.332031 C 237 143.25 238.472656 141.183594 240.082031 140.335938 C 240.496094 140.117188 240.921875 139.953125 241.335938 139.882812 C 241.542969 139.847656 241.75 139.835938 241.964844 139.875 C 242.183594 139.914062 242.4375 140.023438 242.605469 140.253906 C 242.9375 140.703125 242.953125 141.222656 242.921875 141.6875 C 242.894531 142.148438 242.800781 142.5625 242.6875 142.871094 M 241.609375 144.347656 C 241.332031 144.167969 241.253906 143.800781 241.433594 143.523438 C 241.609375 143.246094 241.980469 143.167969 242.257812 143.347656 C 242.570312 143.550781 242.535156 143.75 242.542969 143.839844 C 242.546875 143.921875 242.542969 143.976562 242.539062 144.03125 C 242.53125 144.136719 242.515625 144.242188 242.496094 144.359375 C 242.464844 144.601562 242.425781 144.882812 242.425781 145.136719 C 242.417969 146.246094 243.402344 147.71875 244.71875 148.71875 C 245.375 149.214844 246.089844 149.582031 246.757812 149.75 C 247.402344 149.910156 247.972656 149.871094 248.402344 149.625 C 248.6875 149.460938 249.050781 149.558594 249.214844 149.84375 C 249.378906 150.128906 249.28125 150.496094 248.992188 150.660156 C 248.234375 151.09375 247.324219 151.117188 246.46875 150.90625 C 245.605469 150.691406 244.761719 150.246094 244 149.667969 C 242.472656 148.511719 241.222656 146.839844 241.234375 145.128906 C 241.238281 144.773438 241.28125 144.445312 241.316406 144.195312 C 241.335938 144.078125 241.347656 143.980469 241.351562 143.933594 C 241.355469 143.914062 241.355469 143.972656 241.355469 143.941406 C 241.351562 143.917969 241.402344 144.117188 241.378906 144.058594 C 241.367188 144.023438 241.476562 144.234375 241.441406 144.183594 C 241.40625 144.128906 241.6875 144.398438 241.609375 144.347656 "/>
<path style=" stroke:none;fill-rule:nonzero;fill:rgb(7.058716%,1.176453%,46.665955%);fill-opacity:1;" d="M 138.433594 37.453125 C 138.515625 37.773438 138.324219 38.097656 138.003906 38.179688 C 137.6875 38.257812 137.359375 38.066406 137.28125 37.75 C 137.171875 37.328125 137.085938 37.015625 137.027344 36.804688 C 137 36.707031 136.976562 36.632812 136.960938 36.585938 C 136.953125 36.566406 136.949219 36.550781 136.949219 36.546875 C 136.949219 36.542969 136.957031 36.5625 136.953125 36.554688 C 136.949219 36.542969 137.058594 36.730469 137.007812 36.652344 C 136.992188 36.632812 137.15625 36.8125 137.101562 36.765625 C 136.855469 36.546875 136.835938 36.167969 137.054688 35.921875 C 137.273438 35.675781 137.648438 35.65625 137.894531 35.875 C 137.949219 35.921875 137.972656 35.957031 137.988281 35.980469 C 138.144531 36.210938 138.078125 36.167969 138.097656 36.226562 C 138.160156 36.429688 138.269531 36.816406 138.433594 37.453125 M 136.925781 36.152344 C 137.015625 35.835938 137.347656 35.65625 137.664062 35.746094 C 137.980469 35.839844 138.160156 36.167969 138.070312 36.484375 C 138.050781 36.542969 138.09375 36.335938 138.089844 36.363281 C 138.085938 36.453125 138.085938 36.226562 138.085938 36.242188 C 138.09375 36.28125 138.082031 36.214844 138.085938 36.226562 C 138.09375 36.257812 138.105469 36.308594 138.125 36.378906 C 138.167969 36.53125 138.238281 36.75 138.328125 37.023438 C 138.945312 38.882812 140.054688 42.0625 140.546875 44.589844 C 140.664062 45.191406 140.742188 45.730469 140.742188 46.207031 C 140.746094 46.667969 140.730469 47.136719 140.324219 47.484375 C 139.898438 47.851562 139.292969 47.683594 138.867188 47.402344 C 138.421875 47.105469 137.945312 46.628906 137.359375 45.941406 C 137.144531 45.691406 137.171875 45.316406 137.421875 45.101562 C 137.671875 44.890625 138.046875 44.917969 138.261719 45.167969 C 138.8125 45.808594 139.242188 46.21875 139.527344 46.410156 C 139.652344 46.492188 139.730469 46.519531 139.734375 46.519531 C 139.738281 46.519531 139.621094 46.535156 139.660156 46.523438 C 139.703125 46.515625 139.515625 46.609375 139.546875 46.582031 C 139.574219 46.558594 139.503906 46.632812 139.503906 46.628906 C 139.511719 46.617188 139.554688 46.457031 139.550781 46.214844 C 139.550781 45.859375 139.484375 45.375 139.378906 44.816406 C 138.914062 42.429688 137.816406 39.261719 137.199219 37.402344 C 137.101562 37.113281 137.03125 36.878906 136.980469 36.707031 C 136.957031 36.625 136.941406 36.5625 136.929688 36.507812 C 136.921875 36.488281 136.917969 36.472656 136.914062 36.445312 C 136.910156 36.421875 136.824219 36.496094 136.925781 36.152344 "/>
<path style=" stroke:none;fill-rule:nonzero;fill:rgb(7.058716%,1.176453%,46.665955%);fill-opacity:1;" d="M 137.492188 31.949219 C 137.386719 32.261719 137.050781 32.429688 136.738281 32.328125 C 136.425781 32.226562 136.257812 31.886719 136.359375 31.578125 C 136.414062 31.40625 136.3125 30.316406 136.273438 29.308594 C 136.253906 28.804688 136.25 28.320312 136.394531 27.875 C 136.46875 27.648438 136.589844 27.40625 136.824219 27.230469 C 137.0625 27.050781 137.398438 27 137.679688 27.054688 C 138.003906 27.117188 138.214844 27.425781 138.152344 27.75 C 138.089844 28.074219 137.777344 28.285156 137.457031 28.222656 C 137.425781 28.21875 137.582031 28.152344 137.539062 28.183594 C 137.5 28.210938 137.554688 28.160156 137.527344 28.238281 C 137.46875 28.425781 137.445312 28.816406 137.464844 29.261719 C 137.5 30.1875 137.753906 31.15625 137.492188 31.949219 "/>
<path style=" stroke:none;fill-rule:nonzero;fill:rgb(7.058716%,1.176453%,46.665955%);fill-opacity:1;" d="M 143.632812 35.871094 C 143.449219 35.59375 143.523438 35.226562 143.796875 35.042969 C 144.070312 34.859375 144.441406 34.933594 144.625 35.207031 C 145.730469 36.867188 147.050781 38.679688 148.675781 39.523438 C 149.53125 39.96875 150.4375 40.167969 150.996094 40.023438 C 151.1875 39.976562 151.359375 39.839844 151.507812 39.585938 C 151.667969 39.316406 151.78125 38.929688 151.828125 38.476562 C 151.890625 37.875 151.882812 37.226562 151.738281 36.660156 C 151.648438 36.292969 151.394531 35.929688 151.140625 35.640625 C 150.828125 35.296875 150.535156 35.101562 150.503906 35.09375 C 150.441406 35.085938 150.757812 35.082031 150.695312 35.09375 C 150.605469 35.109375 150.964844 34.96875 150.914062 35.003906 C 150.863281 35.039062 151.039062 34.882812 151.015625 34.910156 C 150.988281 34.945312 151.070312 34.828125 151.0625 34.84375 C 151.058594 34.855469 151.070312 34.824219 151.070312 34.824219 C 151.066406 34.835938 151.046875 34.90625 151.035156 35 C 151.011719 35.195312 151.011719 35.453125 151.042969 35.632812 C 151.078125 35.832031 151.398438 36.273438 151.910156 36.695312 C 152.445312 37.132812 153.117188 37.542969 153.757812 37.855469 C 154.734375 38.328125 155.816406 38.421875 156.578125 38.289062 C 156.839844 38.238281 157.015625 38.132812 157.152344 37.957031 C 157.300781 37.777344 157.414062 37.503906 157.472656 37.15625 C 157.601562 36.410156 157.484375 35.394531 157.179688 34.34375 C 156.5625 32.199219 155.199219 30.09375 154.070312 29.667969 C 153.765625 29.554688 153.609375 29.210938 153.722656 28.902344 C 153.839844 28.59375 154.183594 28.4375 154.492188 28.554688 C 156.332031 29.246094 157.640625 31.644531 158.324219 34.011719 C 158.660156 35.183594 158.820312 36.34375 158.648438 37.355469 C 158.5625 37.855469 158.386719 38.328125 158.078125 38.707031 C 157.769531 39.089844 157.3125 39.367188 156.789062 39.460938 C 155.761719 39.644531 154.460938 39.519531 153.238281 38.925781 C 152.519531 38.578125 151.78125 38.128906 151.15625 37.617188 C 150.539062 37.109375 150 36.566406 149.871094 35.847656 C 149.808594 35.5 149.816406 35.152344 149.855469 34.84375 C 149.875 34.691406 149.902344 34.554688 149.953125 34.410156 C 149.980469 34.335938 150.011719 34.257812 150.097656 34.15625 C 150.1875 34.042969 150.421875 33.871094 150.707031 33.921875 C 151.277344 34.019531 151.636719 34.414062 152.027344 34.847656 C 152.355469 35.214844 152.734375 35.71875 152.894531 36.371094 C 153.082031 37.125 153.085938 37.898438 153.011719 38.597656 C 152.953125 39.179688 152.804688 39.730469 152.535156 40.191406 C 152.261719 40.652344 151.835938 41.039062 151.292969 41.179688 C 150.277344 41.4375 149.148438 41.113281 148.125 40.582031 C 146.152344 39.554688 144.765625 37.566406 143.632812 35.871094 "/>
<path style=" stroke:none;fill-rule:nonzero;fill:rgb(7.058716%,1.176453%,46.665955%);fill-opacity:1;" d="M 118.660156 63.761719 C 118.660156 62.117188 119.992188 60.78125 121.636719 60.78125 C 123.28125 60.78125 124.613281 62.117188 124.613281 63.761719 L 124.613281 188.929688 C 124.613281 190.574219 123.28125 191.90625 121.636719 191.90625 C 119.992188 191.90625 118.660156 190.574219 118.660156 188.929688 Z M 118.660156 63.761719 "/>
</g>
</svg>
