<?xml version="1.0" encoding="UTF-8"?>
<svg xmlns="http://www.w3.org/2000/svg" xmlns:xlink="http://www.w3.org/1999/xlink" width="337.71803pt" height="204.2999pt" viewBox="0 0 337.71803 204.2999" version="1.2">
<g id="surface1">
<path style=" stroke:none;fill-rule:nonzero;fill:rgb(7.058716%,1.176453%,46.665955%);fill-opacity:1;" d="M 197.597656 104.75 L 197.597656 166.640625 L 256.34375 135.585938 Z M 197.28125 103.238281 L 257.898438 135.058594 C 258.324219 135.28125 258.324219 135.886719 257.902344 136.113281 L 197.28125 168.15625 C 196.882812 168.367188 196.40625 168.078125 196.40625 167.628906 L 196.40625 103.765625 C 196.40625 103.316406 196.882812 103.027344 197.28125 103.238281 "/>
<path style=" stroke:none;fill-rule:nonzero;fill:rgb(7.058716%,1.176453%,46.665955%);fill-opacity:1;" d="M 208.515625 145.769531 C 208.515625 145.441406 208.785156 145.171875 209.113281 145.171875 C 209.441406 145.171875 209.707031 145.441406 209.707031 145.769531 L 209.707031 155.636719 C 209.707031 155.964844 209.441406 156.230469 209.113281 156.230469 C 208.785156 156.230469 208.515625 155.964844 208.515625 155.636719 Z M 208.515625 145.769531 "/>
<path style=" stroke:none;fill-rule:nonzero;fill:rgb(7.058716%,1.176453%,46.665955%);fill-opacity:1;" d="M 204.136719 151.296875 C 203.808594 151.296875 203.542969 151.03125 203.542969 150.703125 C 203.542969 150.375 203.808594 150.105469 204.136719 150.105469 L 214.089844 150.105469 C 214.417969 150.105469 214.683594 150.375 214.683594 150.703125 C 214.683594 151.03125 214.417969 151.296875 214.089844 151.296875 Z M 204.136719 151.296875 "/>
<path style=" stroke:none;fill-rule:nonzero;fill:rgb(7.058716%,1.176453%,46.665955%);fill-opacity:1;" d="M 204.136719 120.332031 C 203.808594 120.332031 203.542969 120.066406 203.542969 119.738281 C 203.542969 119.410156 203.808594 119.140625 204.136719 119.140625 L 214.089844 119.140625 C 214.417969 119.140625 214.683594 119.410156 214.683594 119.738281 C 214.683594 120.066406 214.417969 120.332031 214.089844 120.332031 Z M 204.136719 120.332031 "/>
<path style=" stroke:none;fill-rule:nonzero;fill:rgb(7.058716%,1.176453%,46.665955%);fill-opacity:1;" d="M 197.28125 119.078125 C 197.609375 119.078125 197.875 119.34375 197.875 119.671875 C 197.875 120.003906 197.609375 120.269531 197.28125 120.269531 L 165.453125 120.269531 C 165.125 120.269531 164.859375 120.003906 164.859375 119.671875 C 164.859375 119.34375 165.125 119.078125 165.453125 119.078125 Z M 197.28125 119.078125 "/>
<path style=" stroke:none;fill-rule:nonzero;fill:rgb(7.058716%,1.176453%,46.665955%);fill-opacity:1;" d="M 197.28125 150.898438 C 197.609375 150.898438 197.875 151.164062 197.875 151.492188 C 197.875 151.820312 197.609375 152.089844 197.28125 152.089844 L 165.453125 152.089844 C 165.125 152.089844 164.859375 151.820312 164.859375 151.492188 C 164.859375 151.164062 165.125 150.898438 165.453125 150.898438 Z M 197.28125 150.898438 "/>
<path style=" stroke:none;fill-rule:nonzero;fill:rgb(7.058716%,1.176453%,46.665955%);fill-opacity:1;" d="M 257.621094 136.179688 C 257.292969 136.179688 257.027344 135.914062 257.027344 135.585938 C 257.027344 135.257812 257.292969 134.988281 257.621094 134.988281 L 289.449219 134.988281 C 289.777344 134.988281 290.042969 135.257812 290.042969 135.585938 C 290.042969 135.914062 289.777344 136.179688 289.449219 136.179688 Z M 257.621094 136.179688 "/>
<path style=" stroke:none;fill-rule:nonzero;fill:rgb(7.058716%,1.176453%,46.665955%);fill-opacity:1;" d="M 193.390625 56.265625 C 193.0625 56.265625 192.796875 55.996094 192.796875 55.667969 C 192.796875 55.339844 193.0625 55.074219 193.390625 55.074219 L 222.882812 55.074219 C 223.214844 55.074219 223.480469 55.339844 223.480469 55.667969 C 223.480469 55.996094 223.214844 56.265625 222.882812 56.265625 Z M 193.390625 56.265625 "/>
<path style=" stroke:none;fill-rule:nonzero;fill:rgb(7.058716%,1.176453%,46.665955%);fill-opacity:1;" d="M 230.105469 56.265625 C 229.777344 56.265625 229.507812 55.996094 229.507812 55.667969 C 229.507812 55.339844 229.777344 55.074219 230.105469 55.074219 L 261.507812 55.074219 C 261.839844 55.074219 262.105469 55.339844 262.105469 55.667969 C 262.105469 55.996094 261.839844 56.265625 261.507812 56.265625 Z M 230.105469 56.265625 "/>
<path style=" stroke:none;fill-rule:nonzero;fill:rgb(7.058716%,1.176453%,46.665955%);fill-opacity:1;" d="M 223.480469 69.242188 C 223.480469 69.574219 223.214844 69.839844 222.882812 69.839844 C 222.554688 69.839844 222.289062 69.574219 222.289062 69.242188 L 222.289062 42.085938 C 222.289062 41.757812 222.554688 41.488281 222.882812 41.488281 C 223.214844 41.488281 223.480469 41.757812 223.480469 42.085938 Z M 223.480469 69.242188 "/>
<path style=" stroke:none;fill-rule:nonzero;fill:rgb(7.058716%,1.176453%,46.665955%);fill-opacity:1;" d="M 230.699219 69.246094 C 230.699219 69.578125 230.433594 69.84375 230.105469 69.84375 C 229.777344 69.84375 229.507812 69.578125 229.507812 69.246094 L 229.507812 42.089844 C 229.507812 41.761719 229.777344 41.492188 230.105469 41.492188 C 230.433594 41.492188 230.699219 41.761719 230.699219 42.089844 Z M 230.699219 69.246094 "/>
<path style=" stroke:none;fill-rule:nonzero;fill:rgb(7.058716%,1.176453%,46.665955%);fill-opacity:1;" d="M 68.191406 117.945312 C 67.863281 117.945312 67.597656 117.675781 67.597656 117.347656 C 67.597656 117.019531 67.863281 116.753906 68.191406 116.753906 L 97.683594 116.753906 C 98.015625 116.753906 98.28125 117.019531 98.28125 117.347656 C 98.28125 117.675781 98.015625 117.945312 97.683594 117.945312 Z M 68.191406 117.945312 "/>
<path style=" stroke:none;fill-rule:nonzero;fill:rgb(7.058716%,1.176453%,46.665955%);fill-opacity:1;" d="M 104.90625 117.945312 C 104.574219 117.945312 104.308594 117.675781 104.308594 117.347656 C 104.308594 117.019531 104.574219 116.753906 104.90625 116.753906 L 136.308594 116.753906 C 136.640625 116.753906 136.90625 117.019531 136.90625 117.347656 C 136.90625 117.675781 136.640625 117.945312 136.308594 117.945312 Z M 104.90625 117.945312 "/>
<path style=" stroke:none;fill-rule:nonzero;fill:rgb(7.058716%,1.176453%,46.665955%);fill-opacity:1;" d="M 98.28125 130.921875 C 98.28125 131.253906 98.015625 131.519531 97.683594 131.519531 C 97.355469 131.519531 97.089844 131.253906 97.089844 130.921875 L 97.089844 103.765625 C 97.089844 103.4375 97.355469 103.167969 97.683594 103.167969 C 98.015625 103.167969 98.28125 103.4375 98.28125 103.765625 Z M 98.28125 130.921875 "/>
<path style=" stroke:none;fill-rule:nonzero;fill:rgb(7.058716%,1.176453%,46.665955%);fill-opacity:1;" d="M 105.5 130.925781 C 105.5 131.257812 105.234375 131.523438 104.90625 131.523438 C 104.574219 131.523438 104.308594 131.257812 104.308594 130.925781 L 104.308594 103.769531 C 104.308594 103.441406 104.574219 103.171875 104.90625 103.171875 C 105.234375 103.171875 105.5 103.441406 105.5 103.769531 Z M 105.5 130.925781 "/>
<path style=" stroke:none;fill-rule:nonzero;fill:rgb(7.058716%,1.176453%,46.665955%);fill-opacity:1;" d="M 164.863281 152.089844 C 164.863281 151.761719 165.128906 151.492188 165.460938 151.492188 C 165.789062 151.492188 166.054688 151.761719 166.054688 152.089844 L 166.054688 163.019531 C 166.054688 163.347656 165.789062 163.617188 165.460938 163.617188 C 165.128906 163.617188 164.863281 163.347656 164.863281 163.019531 Z M 164.863281 152.089844 "/>
<path style=" stroke:none;fill-rule:nonzero;fill:rgb(7.058716%,1.176453%,46.665955%);fill-opacity:1;" d="M 156.960938 164.351562 C 156.628906 164.351562 156.363281 164.082031 156.363281 163.753906 C 156.363281 163.425781 156.628906 163.160156 156.960938 163.160156 L 173.960938 163.160156 C 174.289062 163.160156 174.554688 163.425781 174.554688 163.753906 C 174.554688 164.082031 174.289062 164.351562 173.960938 164.351562 Z M 156.960938 164.351562 "/>
<path style=" stroke:none;fill-rule:nonzero;fill:rgb(7.058716%,1.176453%,46.665955%);fill-opacity:1;" d="M 159.894531 168.25 C 159.566406 168.25 159.300781 167.984375 159.300781 167.652344 C 159.300781 167.324219 159.566406 167.058594 159.894531 167.058594 L 171.3125 167.058594 C 171.640625 167.058594 171.90625 167.324219 171.90625 167.652344 C 171.90625 167.984375 171.640625 168.25 171.3125 168.25 Z M 159.894531 168.25 "/>
<path style=" stroke:none;fill-rule:nonzero;fill:rgb(7.058716%,1.176453%,46.665955%);fill-opacity:1;" d="M 163.167969 171.90625 C 162.835938 171.90625 162.570312 171.640625 162.570312 171.3125 C 162.570312 170.980469 162.835938 170.714844 163.167969 170.714844 L 168.042969 170.714844 C 168.371094 170.714844 168.636719 170.980469 168.636719 171.3125 C 168.636719 171.640625 168.371094 171.90625 168.042969 171.90625 Z M 163.167969 171.90625 "/>
<path style=" stroke:none;fill-rule:nonzero;fill:rgb(7.058716%,1.176453%,46.665955%);fill-opacity:1;" d="M 171.710938 150.898438 C 172.039062 150.898438 172.304688 151.164062 172.304688 151.492188 C 172.304688 151.820312 172.039062 152.089844 171.710938 152.089844 L 68.347656 152.089844 C 68.019531 152.089844 67.753906 151.820312 67.753906 151.492188 C 67.753906 151.164062 68.019531 150.898438 68.347656 150.898438 Z M 171.710938 150.898438 "/>
<path style=" stroke:none;fill-rule:nonzero;fill:rgb(7.058716%,1.176453%,46.665955%);fill-opacity:1;" d="M 136.484375 117.917969 C 136.167969 118.011719 135.835938 117.835938 135.742188 117.519531 C 135.644531 117.207031 135.820312 116.875 136.136719 116.777344 L 153.71875 111.421875 C 154.035156 111.328125 154.367188 111.503906 154.464844 111.820312 C 154.558594 112.132812 154.382812 112.464844 154.066406 112.5625 Z M 136.484375 117.917969 "/>
<path style=" stroke:none;fill-rule:nonzero;fill:rgb(7.058716%,1.176453%,46.665955%);fill-opacity:1;" d="M 175.808594 119.671875 C 175.808594 120.003906 175.542969 120.269531 175.214844 120.269531 C 174.886719 120.269531 174.617188 120.003906 174.617188 119.671875 L 174.617188 55.667969 C 174.617188 55.335938 174.886719 55.070312 175.214844 55.070312 C 175.542969 55.070312 175.808594 55.335938 175.808594 55.667969 Z M 175.808594 119.671875 "/>
<path style=" stroke:none;fill-rule:nonzero;fill:rgb(7.058716%,1.176453%,46.665955%);fill-opacity:1;" d="M 198.355469 55.074219 C 198.683594 55.074219 198.953125 55.339844 198.953125 55.667969 C 198.953125 55.996094 198.683594 56.265625 198.355469 56.265625 L 175.214844 56.265625 C 174.886719 56.265625 174.617188 55.996094 174.617188 55.667969 C 174.617188 55.339844 174.886719 55.074219 175.214844 55.074219 Z M 198.355469 55.074219 "/>
<path style=" stroke:none;fill-rule:nonzero;fill:rgb(7.058716%,1.176453%,46.665955%);fill-opacity:1;" d="M 260.152344 56.265625 C 259.824219 56.265625 259.558594 55.996094 259.558594 55.667969 C 259.558594 55.339844 259.824219 55.074219 260.152344 55.074219 L 279.308594 55.074219 C 279.636719 55.074219 279.902344 55.339844 279.902344 55.667969 C 279.902344 55.996094 279.636719 56.265625 279.308594 56.265625 Z M 260.152344 56.265625 "/>
<path style=" stroke:none;fill-rule:nonzero;fill:rgb(7.058716%,1.176453%,46.665955%);fill-opacity:1;" d="M 278.710938 55.667969 C 278.710938 55.339844 278.976562 55.074219 279.308594 55.074219 C 279.636719 55.074219 279.902344 55.339844 279.902344 55.667969 L 279.902344 135.585938 C 279.902344 135.914062 279.636719 136.179688 279.308594 136.179688 C 278.976562 136.179688 278.710938 135.914062 278.710938 135.585938 Z M 278.710938 55.667969 "/>
<path style=" stroke:none;fill-rule:nonzero;fill:rgb(0%,45.097351%,23.136902%);fill-opacity:1;" d="M 244.734375 43.160156 C 244.628906 43.585938 244.203125 43.851562 243.777344 43.746094 C 243.347656 43.644531 243.085938 43.21875 243.1875 42.789062 C 243.320312 42.234375 243.46875 41.792969 243.597656 41.359375 C 243.679688 41.089844 243.75 40.789062 243.828125 40.484375 C 243.867188 40.3125 243.90625 40.203125 243.925781 40.109375 C 243.980469 39.859375 244.015625 39.703125 244.015625 39.691406 C 244.015625 39.632812 244.09375 39.714844 244.035156 39.660156 C 243.945312 39.578125 244.328125 39.789062 244.28125 39.78125 C 244.242188 39.777344 244.3125 39.78125 244.273438 39.789062 C 244.179688 39.808594 243.988281 39.878906 243.761719 40 C 243.277344 40.257812 242.675781 40.695312 242.09375 41.214844 C 241.410156 41.832031 240.722656 42.589844 240.183594 43.355469 C 239.316406 44.578125 239.023438 45.933594 239.128906 47.089844 C 239.210938 48.015625 239.671875 48.738281 240.140625 49.082031 C 240.601562 49.421875 241.074219 49.457031 241.722656 49.234375 C 242.425781 48.992188 243.265625 48.425781 244.160156 47.65625 C 244.496094 47.371094 244.996094 47.410156 245.28125 47.742188 C 245.566406 48.074219 245.527344 48.578125 245.195312 48.863281 C 244.214844 49.699219 243.253906 50.386719 242.242188 50.734375 C 241.242188 51.078125 240.097656 51.019531 239.199219 50.363281 C 238.332031 49.722656 237.667969 48.597656 237.546875 47.230469 C 237.410156 45.710938 237.796875 43.972656 238.886719 42.4375 C 239.503906 41.5625 240.257812 40.730469 241.03125 40.035156 C 241.691406 39.441406 242.375 38.9375 243.019531 38.597656 C 243.332031 38.429688 243.632812 38.300781 243.957031 38.234375 C 244.285156 38.167969 244.730469 38.148438 245.105469 38.488281 C 245.464844 38.8125 245.589844 39.238281 245.601562 39.636719 C 245.617188 40.027344 245.511719 40.289062 245.480469 40.445312 C 245.4375 40.632812 245.390625 40.769531 245.367188 40.867188 C 245.292969 41.164062 245.21875 41.488281 245.121094 41.8125 C 244.980469 42.277344 244.847656 42.671875 244.734375 43.160156 "/>
<path style=" stroke:none;fill-rule:nonzero;fill:rgb(0%,45.097351%,23.136902%);fill-opacity:1;" d="M 247.914062 48.511719 C 247.6875 48.886719 247.199219 49.003906 246.824219 48.777344 C 246.449219 48.550781 246.332031 48.0625 246.558594 47.6875 C 246.683594 47.480469 246.964844 46.917969 247.347656 46.417969 C 247.550781 46.148438 247.792969 45.863281 248.164062 45.660156 C 248.242188 45.617188 248.355469 45.542969 248.53125 45.46875 C 248.71875 45.386719 249.0625 45.289062 249.429688 45.457031 C 249.710938 45.585938 249.867188 45.8125 249.953125 45.996094 C 250.035156 46.171875 250.070312 46.339844 250.09375 46.503906 C 250.136719 46.828125 250.121094 47.160156 250.070312 47.5 C 249.886719 48.707031 249.058594 49.808594 248.394531 50.765625 C 248.054688 51.253906 247.726562 51.667969 247.46875 51.972656 C 247.300781 52.171875 247.140625 52.308594 247.011719 52.394531 C 246.953125 52.433594 246.925781 52.460938 246.789062 52.511719 C 246.378906 52.660156 245.921875 52.449219 245.769531 52.039062 C 245.621094 51.625 245.832031 51.171875 246.246094 51.019531 C 246.3125 50.992188 246.136719 51.070312 246.152344 51.0625 C 246.164062 51.054688 246.121094 51.082031 246.125 51.078125 C 246.136719 51.070312 246.179688 51.039062 246.253906 50.949219 C 246.484375 50.679688 246.785156 50.300781 247.089844 49.859375 C 247.734375 48.929688 248.410156 47.855469 248.5 47.261719 C 248.53125 47.042969 248.535156 46.835938 248.519531 46.714844 C 248.511719 46.664062 248.527344 46.695312 248.515625 46.667969 C 248.503906 46.648438 248.613281 46.800781 248.574219 46.757812 C 248.535156 46.710938 248.847656 46.9375 248.765625 46.898438 C 248.660156 46.851562 249.136719 46.941406 249.066406 46.949219 C 249 46.957031 249.160156 46.925781 249.15625 46.929688 C 249.140625 46.9375 249.050781 46.984375 248.925781 47.054688 C 248.878906 47.082031 248.757812 47.191406 248.613281 47.378906 C 248.347656 47.726562 248.101562 48.207031 247.914062 48.511719 M 246.894531 52.464844 C 246.507812 52.671875 246.027344 52.527344 245.820312 52.140625 C 245.609375 51.753906 245.753906 51.273438 246.140625 51.066406 C 246.15625 51.058594 246.167969 51.050781 246.179688 51.046875 C 246.1875 51.042969 246.230469 51.019531 246.289062 51 C 246.492188 50.917969 246.796875 50.839844 247.15625 50.761719 C 248.839844 50.414062 250.589844 50.90625 251.464844 50.691406 C 251.890625 50.585938 252.320312 50.84375 252.429688 51.269531 C 252.535156 51.695312 252.273438 52.125 251.847656 52.230469 C 250.3125 52.613281 248.625 52.082031 247.480469 52.320312 C 247.191406 52.378906 246.914062 52.460938 246.835938 52.492188 C 246.761719 52.519531 246.875 52.472656 246.859375 52.480469 C 246.847656 52.484375 246.910156 52.457031 246.894531 52.464844 "/>
<path style=" stroke:none;fill-rule:nonzero;fill:rgb(0%,45.097351%,23.136902%);fill-opacity:1;" d="M 112.792969 127.109375 C 112.71875 127.542969 112.304688 127.832031 111.875 127.757812 C 111.441406 127.679688 111.152344 127.269531 111.226562 126.835938 C 111.300781 126.421875 111.472656 125.9375 111.667969 125.433594 C 111.765625 125.1875 111.871094 124.976562 111.949219 124.804688 C 112.039062 124.601562 112.128906 124.4375 112.183594 124.316406 C 112.210938 124.257812 112.226562 124.21875 112.230469 124.199219 C 112.234375 124.1875 112.230469 124.328125 112.226562 124.265625 C 112.226562 124.207031 112.304688 124.558594 112.273438 124.480469 C 112.238281 124.398438 112.472656 124.757812 112.414062 124.699219 C 112.355469 124.636719 112.65625 124.851562 112.597656 124.824219 C 112.546875 124.800781 112.761719 124.871094 112.730469 124.863281 C 112.667969 124.855469 112.789062 124.867188 112.773438 124.867188 C 112.753906 124.871094 112.710938 124.882812 112.65625 124.898438 C 112.398438 124.988281 111.96875 125.230469 111.515625 125.621094 C 110.460938 126.539062 109.210938 128.042969 108.496094 129.355469 C 108.191406 129.914062 108.0625 130.417969 108.0625 130.789062 C 108.0625 131.164062 108.226562 131.4375 108.558594 131.695312 C 108.90625 131.964844 109.414062 132.171875 109.917969 132.28125 C 111.015625 132.527344 112.261719 132.359375 113.304688 131.464844 C 113.636719 131.179688 114.136719 131.21875 114.425781 131.550781 C 114.710938 131.882812 114.671875 132.386719 114.335938 132.671875 C 112.886719 133.914062 111.074219 134.164062 109.574219 133.832031 C 108.898438 133.683594 108.183594 133.417969 107.578125 132.945312 C 106.964844 132.46875 106.472656 131.699219 106.472656 130.785156 C 106.472656 130.085938 106.691406 129.339844 107.101562 128.59375 C 107.9375 127.0625 109.246094 125.488281 110.472656 124.421875 C 111.058594 123.917969 111.625 123.574219 112.148438 123.394531 C 112.402344 123.308594 112.65625 123.242188 112.980469 123.296875 C 113.144531 123.320312 113.359375 123.394531 113.539062 123.574219 C 113.714844 123.75 113.8125 124.019531 113.816406 124.238281 C 113.828125 124.886719 113.53125 125.164062 113.394531 125.460938 C 113.304688 125.664062 113.214844 125.847656 113.148438 126.007812 C 112.976562 126.460938 112.820312 126.941406 112.792969 127.109375 "/>
<path style=" stroke:none;fill-rule:nonzero;fill:rgb(0%,45.097351%,23.136902%);fill-opacity:1;" d="M 115.132812 130.53125 C 115.175781 130.09375 115.5625 129.773438 116 129.8125 C 116.4375 129.855469 116.757812 130.242188 116.714844 130.679688 C 116.648438 131.371094 117.433594 134.742188 117.734375 136.027344 C 117.835938 136.457031 117.570312 136.882812 117.140625 136.980469 C 116.714844 137.082031 116.289062 136.816406 116.1875 136.390625 C 115.886719 135.097656 114.988281 132.078125 115.132812 130.53125 "/>
<path style=" stroke:none;fill-rule:nonzero;fill:rgb(7.058716%,1.176453%,46.665955%);fill-opacity:1;" d="M 67.597656 117.347656 C 67.597656 117.019531 67.863281 116.753906 68.191406 116.753906 C 68.523438 116.753906 68.789062 117.019531 68.789062 117.347656 L 68.789062 128.710938 C 68.789062 129.039062 68.523438 129.304688 68.191406 129.304688 C 67.863281 129.304688 67.597656 129.039062 67.597656 128.710938 Z M 67.597656 117.347656 "/>
<path style=" stroke:none;fill-rule:nonzero;fill:rgb(7.058716%,1.176453%,46.665955%);fill-opacity:1;" d="M 68.941406 151.492188 C 68.941406 151.820312 68.675781 152.089844 68.347656 152.089844 C 68.019531 152.089844 67.753906 151.820312 67.753906 151.492188 L 67.753906 142.171875 C 67.753906 141.84375 68.019531 141.578125 68.347656 141.578125 C 68.675781 141.578125 68.941406 141.84375 68.941406 142.171875 Z M 68.941406 151.492188 "/>
<path style=" stroke:none;fill-rule:nonzero;fill:rgb(7.058716%,1.176453%,46.665955%);fill-opacity:1;" d="M 67.824219 128.996094 C 67.667969 128.707031 67.773438 128.347656 68.058594 128.1875 C 68.347656 128.027344 68.710938 128.132812 68.871094 128.421875 L 75.207031 139.910156 C 75.363281 140.195312 75.261719 140.558594 74.972656 140.71875 C 74.683594 140.878906 74.320312 140.773438 74.164062 140.484375 Z M 67.824219 128.996094 "/>
<path style=" stroke:none;fill-rule:nonzero;fill:rgb(7.058716%,1.176453%,46.665955%);fill-opacity:1;" d="M 131.660156 117.347656 C 131.660156 117.019531 131.925781 116.753906 132.253906 116.753906 C 132.582031 116.753906 132.851562 117.019531 132.851562 117.347656 L 132.851562 130.539062 C 132.851562 130.867188 132.582031 131.132812 132.253906 131.132812 C 131.925781 131.132812 131.660156 130.867188 131.660156 130.539062 Z M 131.660156 117.347656 "/>
<path style=" stroke:none;fill-rule:nonzero;fill:rgb(7.058716%,1.176453%,46.665955%);fill-opacity:1;" d="M 131.660156 143.0625 C 131.660156 142.734375 131.925781 142.46875 132.253906 142.46875 C 132.582031 142.46875 132.851562 142.734375 132.851562 143.0625 L 132.851562 151.492188 C 132.851562 151.820312 132.582031 152.089844 132.253906 152.089844 C 131.925781 152.089844 131.660156 151.820312 131.660156 151.492188 Z M 131.660156 143.0625 "/>
<path style=" stroke:none;fill-rule:nonzero;fill:rgb(7.058716%,1.176453%,46.665955%);fill-opacity:1;" d="M 131.800781 130.921875 C 131.585938 130.667969 131.621094 130.292969 131.871094 130.082031 C 132.125 129.871094 132.5 129.902344 132.710938 130.15625 L 141.007812 140.023438 C 141.21875 140.273438 141.1875 140.648438 140.9375 140.863281 C 140.683594 141.074219 140.308594 141.039062 140.097656 140.789062 Z M 131.800781 130.921875 "/>
<path style=" stroke:none;fill-rule:nonzero;fill:rgb(7.058716%,1.176453%,46.665955%);fill-opacity:1;" d="M 54.363281 117.117188 C 54.695312 117.117188 54.960938 117.382812 54.960938 117.710938 C 54.960938 118.042969 54.695312 118.308594 54.363281 118.308594 L 35.390625 118.308594 C 35.058594 118.308594 34.792969 118.042969 34.792969 117.710938 C 34.792969 117.382812 35.058594 117.117188 35.390625 117.117188 Z M 54.363281 117.117188 "/>
<path style=" stroke:none;fill-rule:nonzero;fill:rgb(7.058716%,1.176453%,46.665955%);fill-opacity:1;" d="M 54.660156 118.226562 C 54.378906 118.394531 54.011719 118.292969 53.847656 118.007812 C 53.683594 117.726562 53.78125 117.359375 54.066406 117.195312 L 66.660156 109.941406 C 66.945312 109.777344 67.308594 109.875 67.472656 110.160156 C 67.636719 110.445312 67.539062 110.808594 67.253906 110.972656 Z M 54.660156 118.226562 "/>
<path style=" stroke:none;fill-rule:nonzero;fill:rgb(7.058716%,1.176453%,46.665955%);fill-opacity:1;" d="M 35.984375 117.621094 C 35.984375 119.125 35.171875 120.4375 33.960938 121.144531 C 33.355469 121.5 32.65625 121.699219 31.90625 121.699219 C 30.402344 121.699219 29.085938 120.886719 28.378906 119.675781 C 28.027344 119.070312 27.824219 118.371094 27.824219 117.621094 C 27.824219 116.117188 28.636719 114.800781 29.847656 114.09375 C 30.453125 113.742188 31.15625 113.539062 31.90625 113.539062 C 33.410156 113.539062 34.722656 114.351562 35.429688 115.5625 C 35.785156 116.167969 35.984375 116.871094 35.984375 117.621094 M 34.796875 117.621094 C 34.796875 117.089844 34.652344 116.589844 34.402344 116.164062 C 33.902344 115.304688 32.96875 114.730469 31.90625 114.730469 C 31.375 114.730469 30.878906 114.871094 30.449219 115.121094 C 29.589844 115.625 29.015625 116.554688 29.015625 117.621094 C 29.015625 118.148438 29.15625 118.648438 29.40625 119.074219 C 29.910156 119.933594 30.839844 120.507812 31.90625 120.507812 C 32.4375 120.507812 32.933594 120.367188 33.359375 120.117188 C 34.21875 119.617188 34.796875 118.683594 34.796875 117.621094 "/>
<path style=" stroke:none;fill-rule:nonzero;fill:rgb(7.058716%,1.176453%,46.665955%);fill-opacity:1;" d="M 297.765625 135.886719 C 297.765625 137.390625 296.953125 138.703125 295.742188 139.414062 C 295.136719 139.765625 294.433594 139.96875 293.683594 139.96875 C 292.179688 139.96875 290.867188 139.152344 290.160156 137.941406 C 289.804688 137.339844 289.601562 136.636719 289.601562 135.886719 C 289.601562 134.382812 290.417969 133.066406 291.628906 132.359375 C 292.230469 132.007812 292.933594 131.804688 293.683594 131.804688 C 295.1875 131.804688 296.503906 132.617188 297.210938 133.828125 C 297.5625 134.433594 297.765625 135.136719 297.765625 135.886719 M 296.574219 135.886719 C 296.574219 135.355469 296.429688 134.859375 296.183594 134.429688 C 295.679688 133.574219 294.75 132.996094 293.683594 132.996094 C 293.152344 132.996094 292.65625 133.140625 292.230469 133.390625 C 291.371094 133.890625 290.792969 134.820312 290.792969 135.886719 C 290.792969 136.417969 290.9375 136.914062 291.1875 137.339844 C 291.6875 138.199219 292.617188 138.777344 293.683594 138.777344 C 294.214844 138.777344 294.710938 138.632812 295.140625 138.382812 C 295.996094 137.882812 296.574219 136.953125 296.574219 135.886719 "/>
<path style=" stroke:none;fill-rule:nonzero;fill:rgb(7.058716%,1.176453%,46.665955%);fill-opacity:1;" d="M 166.566406 119.078125 C 166.894531 119.078125 167.160156 119.34375 167.160156 119.671875 C 167.160156 120.003906 166.894531 120.269531 166.566406 120.269531 L 153.894531 120.269531 C 153.566406 120.269531 153.296875 120.003906 153.296875 119.671875 C 153.296875 119.34375 153.566406 119.078125 153.894531 119.078125 Z M 166.566406 119.078125 "/>
<path style=" stroke:none;fill-rule:nonzero;fill:rgb(92.941284%,21.176147%,14.117432%);fill-opacity:1;" d="M 130.722656 136.316406 C 130.824219 136.628906 130.65625 136.964844 130.34375 137.070312 C 130.03125 137.175781 129.695312 137.007812 129.59375 136.695312 C 129.457031 136.289062 129.59375 135.800781 129.835938 135.550781 C 130.0625 135.316406 130.292969 135.214844 130.457031 135.113281 C 130.484375 135.101562 130.546875 135.042969 130.65625 134.945312 C 130.769531 134.839844 130.890625 134.714844 131 134.601562 C 131.027344 134.574219 131.050781 134.539062 131.085938 134.492188 C 131.101562 134.476562 131.117188 134.449219 131.148438 134.414062 C 131.195312 134.367188 131.179688 134.371094 131.253906 134.316406 C 131.351562 134.253906 131.355469 134.246094 131.433594 134.21875 C 131.746094 134.113281 132.082031 134.28125 132.1875 134.59375 C 132.292969 134.90625 132.121094 135.246094 131.8125 135.347656 C 131.773438 135.363281 131.894531 135.3125 131.882812 135.316406 C 131.875 135.324219 131.894531 135.3125 131.886719 135.316406 C 131.945312 135.285156 132.035156 135.207031 132.03125 135.210938 C 132.027344 135.214844 132.03125 135.214844 132.019531 135.226562 C 132.046875 135.195312 132.054688 135.1875 132.042969 135.203125 C 132.003906 135.253906 131.945312 135.335938 131.859375 135.425781 C 131.757812 135.53125 131.617188 135.683594 131.449219 135.832031 C 131.371094 135.90625 131.257812 136.023438 131.070312 136.136719 C 130.871094 136.257812 130.722656 136.347656 130.691406 136.378906 C 130.683594 136.386719 130.703125 136.257812 130.722656 136.316406 M 131.035156 134.84375 C 131.003906 134.515625 131.242188 134.226562 131.570312 134.191406 C 131.898438 134.160156 132.1875 134.398438 132.21875 134.726562 C 132.230469 134.816406 132.222656 134.839844 132.21875 134.859375 C 132.214844 134.902344 132.210938 134.921875 132.207031 134.941406 C 132.195312 134.992188 132.1875 135.035156 132.175781 135.082031 C 132.148438 135.183594 132.121094 135.296875 132.09375 135.394531 C 131.976562 135.851562 131.957031 136.542969 131.953125 137.191406 C 131.949219 137.542969 131.945312 137.890625 131.96875 138.15625 C 131.976562 138.28125 131.996094 138.378906 132.007812 138.429688 C 132.015625 138.453125 132.011719 138.441406 132.015625 138.453125 C 132.023438 138.464844 131.898438 138.332031 131.941406 138.371094 C 132.199219 138.574219 132.242188 138.949219 132.039062 139.207031 C 131.832031 139.464844 131.457031 139.507812 131.199219 139.300781 C 130.796875 138.980469 130.808594 138.597656 130.78125 138.253906 C 130.75 137.902344 130.757812 137.53125 130.761719 137.179688 C 130.765625 136.515625 130.769531 135.765625 130.941406 135.101562 C 130.96875 134.996094 130.996094 134.886719 131.015625 134.800781 C 131.027344 134.757812 131.035156 134.722656 131.039062 134.710938 C 131.039062 134.707031 131.035156 134.742188 131.035156 134.722656 C 131.035156 134.71875 131.042969 134.925781 131.035156 134.84375 "/>
<path style=" stroke:none;fill-rule:nonzero;fill:rgb(92.941284%,21.176147%,14.117432%);fill-opacity:1;" d="M 60.933594 118.457031 C 60.941406 118.128906 61.214844 117.867188 61.542969 117.875 C 61.871094 117.882812 62.132812 118.15625 62.125 118.484375 C 62.117188 118.757812 62.128906 119.296875 62.125 119.847656 C 62.113281 121.003906 62 121.980469 62.074219 122.308594 C 62.144531 122.628906 61.941406 122.945312 61.617188 123.015625 C 61.296875 123.085938 60.980469 122.882812 60.910156 122.5625 C 60.746094 121.816406 60.925781 120.914062 60.933594 119.835938 C 60.9375 119.304688 60.925781 118.78125 60.933594 118.457031 "/>
<path style=" stroke:none;fill-rule:nonzero;fill:rgb(92.941284%,21.176147%,14.117432%);fill-opacity:1;" d="M 61.605469 119.003906 C 61.300781 119.132812 60.953125 118.992188 60.820312 118.6875 C 60.691406 118.386719 60.832031 118.035156 61.136719 117.90625 C 61.171875 117.890625 61.242188 117.84375 61.296875 117.785156 C 61.347656 117.730469 61.390625 117.667969 61.394531 117.660156 C 61.390625 117.664062 61.378906 117.695312 61.382812 117.683594 C 61.390625 117.667969 61.359375 117.816406 61.363281 117.773438 C 61.371094 117.722656 61.421875 118.078125 61.390625 117.988281 C 61.355469 117.890625 61.664062 118.308594 61.578125 118.246094 C 61.539062 118.21875 61.789062 118.34375 61.742188 118.332031 C 61.675781 118.308594 61.929688 118.351562 61.894531 118.351562 C 61.863281 118.351562 61.96875 118.34375 61.957031 118.347656 C 61.933594 118.351562 61.964844 118.34375 61.9375 118.355469 C 61.863281 118.386719 61.753906 118.441406 61.625 118.496094 C 61.28125 118.644531 60.855469 118.921875 60.558594 119.160156 C 60.21875 119.433594 60.195312 119.398438 60.175781 119.65625 C 60.152344 119.984375 59.871094 120.234375 59.542969 120.210938 C 59.214844 120.1875 58.964844 119.902344 58.988281 119.574219 C 59.03125 118.949219 59.457031 118.515625 59.808594 118.230469 C 60.1875 117.929688 60.664062 117.613281 61.152344 117.402344 C 61.238281 117.367188 61.351562 117.308594 61.488281 117.253906 C 61.554688 117.222656 61.632812 117.195312 61.734375 117.175781 C 61.84375 117.15625 62.035156 117.109375 62.277344 117.28125 C 62.5 117.445312 62.566406 117.738281 62.550781 117.898438 C 62.53125 118.046875 62.488281 118.136719 62.449219 118.210938 C 62.367188 118.367188 62.269531 118.484375 62.167969 118.597656 C 62.015625 118.757812 61.835938 118.902344 61.605469 119.003906 "/>
<path style=" stroke:none;fill-rule:nonzero;fill:rgb(92.941284%,21.176147%,14.117432%);fill-opacity:1;" d="M 63.402344 134.375 C 63.335938 134.695312 63.023438 134.90625 62.699219 134.839844 C 62.378906 134.773438 62.167969 134.460938 62.234375 134.136719 C 62.242188 134.089844 62.226562 134.207031 62.226562 134.207031 C 62.226562 134.1875 62.207031 134.074219 62.1875 133.933594 C 62.128906 133.542969 62.265625 133.171875 62.578125 132.9375 C 62.8125 132.761719 63.039062 132.765625 63.195312 132.777344 C 63.351562 132.792969 63.472656 132.832031 63.574219 132.863281 C 63.847656 132.960938 64.023438 133.175781 64.121094 133.371094 C 64.214844 133.558594 64.257812 133.75 64.285156 133.945312 C 64.316406 134.132812 64.347656 134.402344 64.3125 134.71875 C 64.21875 135.601562 63.746094 136.523438 63.351562 137.328125 C 63.117188 137.816406 62.859375 138.195312 62.742188 138.425781 C 62.6875 138.527344 62.667969 138.578125 62.664062 138.589844 C 62.664062 138.601562 62.65625 138.367188 62.667969 138.449219 C 62.683594 138.539062 62.433594 138.085938 62.515625 138.160156 C 62.558594 138.199219 62.3125 138.046875 62.355469 138.058594 C 62.410156 138.082031 62.246094 138.035156 62.257812 138.039062 C 62.265625 138.039062 62.253906 138.039062 62.273438 138.035156 C 62.316406 138.03125 62.417969 138.015625 62.550781 138.003906 C 63.222656 137.945312 63.988281 138.09375 64.71875 138.1875 C 65.433594 138.277344 66.074219 138.261719 66.164062 138.210938 C 66.457031 138.054688 66.816406 138.164062 66.972656 138.453125 C 67.128906 138.742188 67.019531 139.105469 66.730469 139.261719 C 66.066406 139.617188 65.328125 139.464844 64.570312 139.371094 C 63.8125 139.273438 63.066406 139.15625 62.648438 139.191406 C 62.585938 139.195312 62.488281 139.214844 62.363281 139.222656 C 62.222656 139.234375 62.007812 139.296875 61.71875 139.046875 C 61.59375 138.929688 61.511719 138.769531 61.492188 138.625 C 61.472656 138.488281 61.488281 138.382812 61.511719 138.296875 C 61.550781 138.136719 61.613281 138.015625 61.679688 137.882812 C 61.851562 137.550781 62.085938 137.207031 62.28125 136.808594 C 62.667969 136.019531 63.070312 135.132812 63.128906 134.59375 C 63.148438 134.417969 63.132812 134.273438 63.109375 134.117188 C 63.09375 134.007812 63.066406 133.929688 63.054688 133.902344 C 63.050781 133.894531 63.089844 133.941406 63.070312 133.921875 C 63.050781 133.902344 63.230469 134.007812 63.179688 133.988281 C 63.136719 133.976562 63.09375 133.964844 63.085938 133.964844 C 63.085938 133.964844 63.160156 133.957031 63.128906 133.960938 C 63.09375 133.96875 63.359375 133.839844 63.292969 133.890625 C 63.246094 133.921875 63.367188 133.792969 63.359375 133.808594 C 63.355469 133.824219 63.363281 133.753906 63.363281 133.765625 C 63.382812 133.898438 63.46875 134.035156 63.402344 134.375 "/>
<path style=" stroke:none;fill-rule:nonzero;fill:rgb(92.941284%,21.176147%,14.117432%);fill-opacity:1;" d="M 142.894531 105.429688 C 143.136719 105.652344 143.15625 106.03125 142.933594 106.273438 C 142.710938 106.515625 142.335938 106.535156 142.09375 106.3125 C 141.910156 106.144531 141.875 105.96875 141.863281 105.835938 C 141.855469 105.710938 141.867188 105.605469 141.894531 105.496094 C 141.949219 105.285156 142.0625 105.070312 142.269531 104.894531 C 142.535156 104.679688 142.824219 104.65625 143.070312 104.6875 C 143.308594 104.71875 143.539062 104.804688 143.738281 104.992188 C 143.972656 105.210938 144.023438 105.480469 144.027344 105.695312 C 144.035156 105.902344 144.003906 106.09375 143.953125 106.285156 C 143.75 107.082031 143.148438 107.730469 142.753906 108.273438 C 142.53125 108.574219 142.351562 108.804688 142.308594 108.898438 C 142.289062 108.9375 142.289062 108.855469 142.292969 108.902344 C 142.300781 108.953125 142.125 108.667969 142.183594 108.710938 C 142.21875 108.734375 142.109375 108.671875 142.117188 108.675781 C 142.125 108.675781 142.605469 108.652344 143.117188 108.617188 C 143.789062 108.574219 144.472656 108.554688 145.019531 108.527344 C 145.28125 108.515625 145.5 108.503906 145.644531 108.484375 C 145.710938 108.476562 145.75 108.464844 145.75 108.464844 C 145.753906 108.464844 145.636719 108.523438 145.679688 108.496094 C 145.707031 108.484375 145.542969 108.609375 145.582031 108.574219 C 145.625 108.53125 145.414062 108.863281 145.449219 108.769531 C 145.570312 108.464844 145.917969 108.3125 146.222656 108.433594 C 146.527344 108.550781 146.679688 108.898438 146.558594 109.203125 C 146.410156 109.589844 146.199219 109.574219 146.089844 109.609375 C 145.988281 109.636719 145.894531 109.652344 145.792969 109.664062 C 145.59375 109.691406 145.351562 109.707031 145.078125 109.71875 C 144.511719 109.746094 143.835938 109.761719 143.195312 109.804688 C 142.945312 109.820312 142.671875 109.859375 142.398438 109.871094 C 142.121094 109.882812 141.8125 109.917969 141.472656 109.667969 C 141.265625 109.511719 141.132812 109.253906 141.109375 109.015625 C 141.085938 108.785156 141.144531 108.578125 141.230469 108.394531 C 141.378906 108.070312 141.597656 107.839844 141.789062 107.574219 C 142.210938 106.992188 142.707031 106.347656 142.800781 105.988281 C 142.828125 105.875 142.839844 105.777344 142.839844 105.734375 C 142.839844 105.714844 142.847656 105.757812 142.84375 105.734375 C 142.832031 105.710938 142.976562 105.910156 142.925781 105.859375 C 142.902344 105.839844 142.933594 105.871094 142.914062 105.867188 C 142.910156 105.867188 142.941406 105.863281 142.925781 105.867188 C 142.90625 105.871094 143.078125 105.773438 143.03125 105.8125 C 143.015625 105.824219 143.050781 105.785156 143.050781 105.792969 C 143.046875 105.796875 143.046875 105.683594 143.050781 105.730469 C 143.054688 105.757812 143.007812 105.570312 143.023438 105.621094 C 143.046875 105.671875 142.820312 105.363281 142.894531 105.429688 "/>
<path style=" stroke:none;fill-rule:nonzero;fill:rgb(7.058716%,1.176453%,46.665955%);fill-opacity:1;" d="M 291.917969 113.335938 C 291.617188 113.472656 291.265625 113.335938 291.132812 113.035156 C 291 112.734375 291.136719 112.382812 291.4375 112.25 C 291.644531 112.15625 291.832031 112.058594 292.109375 112.039062 C 292.414062 112.015625 292.824219 112.257812 292.957031 112.539062 C 293.230469 113.109375 293.148438 113.722656 293.238281 114.558594 C 293.324219 115.320312 293.523438 116.234375 293.742188 117.105469 C 294.078125 118.480469 294.621094 119.566406 294.96875 120.394531 C 295.148438 120.832031 295.234375 121.179688 295.285156 121.316406 C 295.296875 121.34375 295.300781 121.355469 295.304688 121.359375 C 295.304688 121.359375 295.269531 121.3125 295.28125 121.328125 C 295.296875 121.347656 295.152344 121.222656 295.199219 121.253906 C 295.261719 121.296875 294.839844 121.152344 294.957031 121.164062 C 294.996094 121.167969 294.738281 121.179688 294.800781 121.171875 C 294.867188 121.160156 294.539062 121.285156 294.601562 121.246094 C 294.695312 121.191406 294.402344 121.464844 294.433594 121.417969 C 294.460938 121.371094 294.382812 121.53125 294.390625 121.511719 C 294.410156 121.445312 294.363281 121.328125 294.363281 121.019531 C 294.363281 120.246094 294.738281 119.640625 295.183594 118.636719 C 295.324219 118.324219 295.480469 117.960938 295.65625 117.519531 C 296.085938 116.449219 296.597656 115.011719 297.070312 113.503906 C 297.308594 112.738281 297.496094 111.949219 297.691406 111.214844 C 298.152344 109.480469 298.5625 108.378906 299.023438 107.796875 C 299.101562 107.699219 299.203125 107.589844 299.390625 107.523438 C 299.605469 107.457031 299.867188 107.507812 300.015625 107.613281 C 300.277344 107.792969 300.308594 107.96875 300.371094 108.117188 C 300.496094 108.414062 300.59375 108.738281 300.730469 109 C 300.886719 109.289062 300.777344 109.652344 300.484375 109.804688 C 300.195312 109.960938 299.832031 109.847656 299.679688 109.558594 C 299.472656 109.167969 299.359375 108.78125 299.273438 108.574219 C 299.253906 108.53125 299.238281 108.5 299.234375 108.496094 C 299.234375 108.496094 299.265625 108.53125 299.253906 108.515625 C 299.238281 108.5 299.378906 108.621094 299.335938 108.589844 C 299.28125 108.554688 299.609375 108.683594 299.527344 108.667969 C 299.445312 108.652344 299.832031 108.632812 299.765625 108.652344 C 299.71875 108.671875 299.945312 108.550781 299.921875 108.574219 C 299.894531 108.59375 299.957031 108.535156 299.957031 108.539062 C 299.75 108.800781 299.285156 109.859375 298.84375 111.519531 C 298.652344 112.238281 298.464844 113.042969 298.207031 113.859375 C 297.726562 115.398438 297.207031 116.855469 296.761719 117.960938 C 296.578125 118.421875 296.414062 118.800781 296.273438 119.121094 C 295.8125 120.15625 295.554688 120.636719 295.554688 121.023438 C 295.554688 121.199219 295.648438 121.453125 295.53125 121.851562 C 295.496094 121.964844 295.441406 122.125 295.230469 122.257812 C 295.089844 122.347656 294.925781 122.359375 294.824219 122.347656 C 294.691406 122.335938 294.589844 122.28125 294.515625 122.230469 C 294.277344 122.066406 294.238281 121.910156 294.175781 121.75 C 294.070312 121.472656 294.011719 121.199219 293.867188 120.851562 C 293.546875 120.082031 292.957031 118.90625 292.582031 117.394531 C 292.363281 116.496094 292.152344 115.546875 292.054688 114.691406 C 291.957031 113.792969 291.90625 113.097656 291.882812 113.046875 C 291.878906 113.042969 291.933594 113.117188 291.914062 113.09375 C 291.882812 113.058594 292.132812 113.226562 292.070312 113.203125 C 292.007812 113.179688 292.222656 113.222656 292.203125 113.226562 C 292.171875 113.226562 292.105469 113.253906 291.917969 113.335938 "/>
<path style=" stroke:none;fill-rule:nonzero;fill:rgb(7.058716%,1.176453%,46.665955%);fill-opacity:1;" d="M 301.28125 118.335938 C 301.410156 118.03125 301.757812 117.890625 302.0625 118.019531 C 302.363281 118.144531 302.507812 118.496094 302.378906 118.796875 C 302.027344 119.632812 301.207031 119.753906 300.691406 120.070312 C 300.300781 120.3125 299.917969 120.867188 299.714844 121.46875 C 299.636719 121.695312 299.613281 121.964844 299.628906 122.210938 C 299.648438 122.480469 299.71875 122.703125 299.789062 122.808594 C 299.800781 122.832031 299.808594 122.847656 299.910156 122.859375 C 300.027344 122.875 300.222656 122.855469 300.453125 122.789062 C 300.941406 122.640625 301.519531 122.304688 301.972656 121.894531 C 302.582031 121.34375 303.003906 120.5625 303.195312 119.867188 C 303.285156 119.535156 303.3125 119.253906 303.269531 119.058594 C 303.234375 118.882812 303.105469 118.714844 302.878906 118.585938 C 302.640625 118.449219 302.3125 118.378906 301.972656 118.414062 C 301.628906 118.449219 301.277344 118.585938 300.984375 118.855469 C 300.675781 119.132812 300.414062 119.5625 300.273438 120.183594 C 300.199219 120.507812 299.882812 120.707031 299.558594 120.636719 C 299.238281 120.5625 299.039062 120.246094 299.109375 119.921875 C 299.296875 119.09375 299.683594 118.425781 300.183594 117.972656 C 300.671875 117.527344 301.269531 117.285156 301.851562 117.226562 C 302.425781 117.167969 302.992188 117.28125 303.464844 117.546875 C 303.933594 117.8125 304.324219 118.257812 304.4375 118.820312 C 304.53125 119.285156 304.460938 119.746094 304.34375 120.179688 C 304.097656 121.078125 303.585938 122.042969 302.769531 122.777344 C 302.191406 123.300781 301.496094 123.71875 300.800781 123.925781 C 300.453125 124.03125 300.101562 124.089844 299.75 124.042969 C 299.394531 123.992188 299.015625 123.804688 298.792969 123.46875 C 298.558594 123.113281 298.46875 122.699219 298.441406 122.292969 C 298.417969 121.917969 298.445312 121.5 298.585938 121.085938 C 298.859375 120.28125 299.339844 119.503906 300.066406 119.058594 C 300.75 118.632812 301.242188 118.429688 301.28125 118.335938 "/>
<path style=" stroke:none;fill-rule:nonzero;fill:rgb(7.058716%,1.176453%,46.665955%);fill-opacity:1;" d="M 316.042969 110.8125 C 315.75 110.660156 315.636719 110.300781 315.789062 110.011719 C 315.941406 109.71875 316.300781 109.605469 316.59375 109.757812 C 316.632812 109.777344 316.726562 109.753906 316.84375 109.691406 C 316.855469 109.6875 316.796875 109.796875 316.804688 109.753906 C 316.8125 109.730469 316.816406 109.890625 316.808594 109.851562 C 316.796875 109.808594 316.90625 109.996094 316.875 109.964844 C 316.835938 109.929688 316.914062 109.992188 316.875 109.980469 C 316.828125 109.964844 316.742188 109.949219 316.632812 109.9375 C 316.398438 109.917969 316.074219 109.925781 315.699219 109.957031 C 314.917969 110.015625 313.972656 110.15625 313.03125 110.273438 C 312.019531 110.40625 311.046875 110.519531 310.3125 110.636719 C 309.988281 110.691406 309.738281 110.742188 309.609375 110.785156 C 309.605469 110.785156 309.710938 110.660156 309.679688 110.714844 C 309.640625 110.773438 309.679688 110.371094 309.707031 110.46875 C 309.726562 110.539062 309.609375 110.285156 309.632812 110.316406 C 309.664062 110.359375 309.582031 110.265625 309.585938 110.269531 C 309.589844 110.273438 309.613281 110.285156 309.644531 110.300781 C 309.738281 110.351562 309.890625 110.410156 310.0625 110.511719 C 310.382812 110.699219 310.640625 111.003906 310.789062 111.355469 C 310.9375 111.710938 311.003906 112.109375 311.039062 112.578125 C 311.0625 112.917969 311.058594 113.300781 311.039062 113.792969 C 310.992188 114.882812 310.839844 116.339844 310.695312 117.820312 C 310.59375 118.867188 310.507812 119.855469 310.46875 120.683594 C 310.429688 121.558594 310.4375 122.195312 310.492188 122.640625 C 310.519531 122.839844 310.542969 122.964844 310.5625 123.015625 C 310.585938 123.066406 310.601562 123.089844 310.683594 123.128906 C 310.777344 123.175781 310.945312 123.21875 311.175781 123.238281 C 311.675781 123.28125 312.386719 123.226562 313.226562 123.167969 C 314.046875 123.109375 314.910156 123.046875 315.671875 122.945312 C 316.109375 122.890625 316.519531 122.824219 316.859375 122.777344 C 317.132812 122.738281 317.273438 122.644531 317.632812 122.683594 C 317.695312 122.6875 317.785156 122.695312 317.917969 122.78125 C 318.070312 122.875 318.21875 123.148438 318.195312 123.355469 C 318.160156 123.710938 318.015625 123.738281 317.953125 123.792969 C 317.839844 123.894531 317.722656 123.96875 317.546875 124.074219 C 317.265625 124.246094 316.898438 124.160156 316.726562 123.878906 C 316.554688 123.601562 316.640625 123.234375 316.921875 123.0625 C 317.078125 122.964844 317.171875 122.894531 317.171875 122.894531 C 317.175781 122.890625 317.097656 122.980469 317.125 122.945312 C 317.140625 122.925781 317.046875 123.074219 317.070312 123.035156 C 317.09375 122.988281 317 123.320312 317.011719 123.230469 C 317.019531 123.136719 317.128906 123.664062 317.070312 123.558594 C 317.03125 123.480469 317.277344 123.789062 317.222656 123.746094 C 317.148438 123.683594 317.464844 123.863281 317.414062 123.847656 C 317.371094 123.832031 317.535156 123.871094 317.515625 123.867188 C 317.449219 123.859375 317.574219 123.867188 317.554688 123.871094 C 317.472656 123.878906 317.273438 123.921875 317.03125 123.957031 C 316.695312 124.003906 316.28125 124.066406 315.828125 124.128906 C 315.019531 124.234375 314.136719 124.296875 313.3125 124.355469 C 312.472656 124.417969 311.726562 124.484375 311.070312 124.425781 C 310.746094 124.394531 310.4375 124.335938 310.15625 124.195312 C 309.863281 124.050781 309.601562 123.800781 309.46875 123.480469 C 309.363281 123.234375 309.339844 123.003906 309.3125 122.78125 C 309.242188 122.234375 309.238281 121.542969 309.28125 120.625 C 309.320312 119.765625 309.40625 118.761719 309.507812 117.707031 C 309.652344 116.222656 309.804688 114.773438 309.847656 113.742188 C 309.867188 113.277344 309.871094 112.9375 309.851562 112.667969 C 309.820312 112.269531 309.761719 111.988281 309.691406 111.816406 C 309.628906 111.664062 309.570312 111.601562 309.460938 111.539062 C 309.386719 111.496094 309.253906 111.441406 309.101562 111.363281 C 308.941406 111.28125 308.671875 111.203125 308.558594 110.785156 C 308.496094 110.550781 308.535156 110.300781 308.660156 110.097656 C 308.785156 109.890625 308.988281 109.738281 309.21875 109.660156 C 309.488281 109.566406 309.777344 109.519531 310.121094 109.460938 C 310.894531 109.335938 311.875 109.222656 312.878906 109.09375 C 313.808594 108.972656 314.765625 108.832031 315.609375 108.765625 C 316.019531 108.738281 316.394531 108.722656 316.738281 108.753906 C 317.074219 108.78125 317.410156 108.824219 317.699219 109.109375 C 317.960938 109.355469 318.039062 109.734375 317.960938 110.039062 C 317.886719 110.339844 317.679688 110.601562 317.390625 110.75 C 317 110.953125 316.523438 111.0625 316.042969 110.8125 "/>
<path style=" stroke:none;fill-rule:nonzero;fill:rgb(7.058716%,1.176453%,46.665955%);fill-opacity:1;" d="M 317.019531 115.832031 C 317.140625 116.136719 316.988281 116.484375 316.683594 116.605469 C 316.378906 116.726562 316.03125 116.574219 315.910156 116.269531 C 315.867188 116.164062 315.832031 116.097656 315.816406 116.074219 C 315.808594 116.066406 315.839844 116.09375 315.824219 116.082031 C 315.808594 116.066406 315.984375 116.171875 315.929688 116.148438 C 315.882812 116.128906 316.238281 116.171875 316.160156 116.179688 C 316.082031 116.1875 316.390625 116.085938 316.347656 116.113281 C 316.316406 116.132812 316.429688 116.039062 316.417969 116.050781 C 316.414062 116.058594 316.425781 116.042969 316.421875 116.050781 C 316.347656 116.183594 316.21875 116.71875 316.167969 117.328125 C 316.089844 118.296875 316.066406 119.363281 316.140625 120.078125 C 316.164062 120.277344 316.183594 120.425781 316.199219 120.480469 C 316.203125 120.5 316.152344 120.421875 316.179688 120.453125 C 316.207031 120.492188 315.980469 120.332031 316.035156 120.351562 C 316.085938 120.367188 316.144531 120.378906 316.265625 120.328125 C 316.59375 120.191406 317.332031 119.140625 318.046875 118.230469 C 318.351562 117.84375 318.652344 117.5 318.902344 117.222656 C 319.039062 117.074219 319.144531 116.9375 319.25 116.8125 C 319.300781 116.746094 319.355469 116.683594 319.4375 116.613281 C 319.523438 116.542969 319.667969 116.40625 319.960938 116.429688 C 320.320312 116.457031 320.457031 116.730469 320.5 116.84375 C 320.542969 116.949219 320.546875 117.023438 320.554688 117.089844 C 320.566406 117.21875 320.5625 117.339844 320.558594 117.472656 C 320.542969 117.742188 320.507812 118.039062 320.476562 118.296875 C 320.398438 118.929688 320.355469 119.433594 320.507812 119.894531 C 320.632812 120.277344 320.808594 120.652344 321.015625 120.871094 C 321.203125 121.070312 321.355469 121.144531 321.660156 121.070312 C 321.980469 120.996094 322.300781 121.195312 322.375 121.515625 C 322.453125 121.835938 322.253906 122.15625 321.933594 122.230469 C 321.230469 122.398438 320.554688 122.117188 320.148438 121.6875 C 319.75 121.265625 319.527344 120.738281 319.375 120.261719 C 319.132812 119.523438 319.210938 118.8125 319.292969 118.148438 C 319.324219 117.90625 319.355469 117.628906 319.367188 117.414062 C 319.371094 117.3125 319.371094 117.226562 319.367188 117.203125 C 319.367188 117.195312 319.414062 117.339844 319.390625 117.273438 C 319.375 117.238281 319.550781 117.503906 319.488281 117.433594 C 319.453125 117.394531 319.699219 117.582031 319.632812 117.546875 C 319.566406 117.511719 319.949219 117.625 319.867188 117.617188 C 319.800781 117.613281 320.078125 117.59375 320.03125 117.605469 C 319.964844 117.621094 320.195312 117.53125 320.167969 117.550781 C 320.144531 117.5625 320.21875 117.511719 320.210938 117.519531 C 320.199219 117.53125 320.199219 117.53125 320.160156 117.578125 C 320.078125 117.675781 319.953125 117.835938 319.785156 118.023438 C 319.546875 118.285156 319.265625 118.609375 318.984375 118.964844 C 318.324219 119.804688 317.75 121.003906 316.71875 121.429688 C 316.335938 121.589844 315.941406 121.578125 315.640625 121.476562 C 315.3125 121.359375 315.121094 121.046875 315.054688 120.816406 C 314.992188 120.597656 314.976562 120.402344 314.957031 120.203125 C 314.867188 119.355469 314.898438 118.253906 314.984375 117.230469 C 315.039062 116.539062 315.121094 115.941406 315.378906 115.472656 C 315.445312 115.355469 315.53125 115.226562 315.691406 115.117188 C 315.875 115 316.164062 114.957031 316.378906 115.042969 C 316.785156 115.214844 316.890625 115.511719 317.019531 115.832031 "/>
<path style=" stroke:none;fill-rule:nonzero;fill:rgb(7.058716%,1.176453%,46.665955%);fill-opacity:1;" d="M 322.707031 109.542969 C 323.035156 109.542969 323.300781 109.808594 323.300781 110.136719 C 323.300781 110.464844 323.035156 110.730469 322.707031 110.730469 C 322.527344 110.730469 322.34375 110.699219 322.175781 110.609375 C 322.015625 110.527344 321.867188 110.386719 321.78125 110.214844 C 321.613281 109.878906 321.691406 109.492188 321.878906 109.222656 C 322.144531 108.847656 322.476562 108.828125 322.757812 108.785156 C 323.035156 108.742188 323.324219 108.730469 323.589844 108.714844 C 324.582031 108.664062 325.667969 108.683594 326.609375 108.714844 C 326.964844 108.726562 327.28125 108.746094 327.558594 108.746094 C 327.800781 108.746094 328.003906 108.753906 328.109375 108.746094 C 328.164062 108.742188 327.957031 108.804688 327.984375 108.785156 C 328.007812 108.773438 327.941406 108.820312 327.945312 108.816406 C 327.949219 108.8125 327.949219 108.8125 327.953125 108.804688 C 327.945312 108.816406 327.949219 108.8125 327.953125 108.800781 C 327.960938 108.796875 327.964844 108.789062 327.972656 108.773438 C 328.160156 108.5 328.53125 108.433594 328.800781 108.617188 C 329.074219 108.804688 329.144531 109.171875 328.957031 109.445312 C 328.949219 109.457031 328.96875 109.425781 328.96875 109.425781 C 328.96875 109.425781 328.960938 109.4375 328.949219 109.457031 C 328.917969 109.503906 328.882812 109.558594 328.828125 109.617188 C 328.714844 109.742188 328.503906 109.914062 328.195312 109.9375 C 327.976562 109.953125 327.769531 109.9375 327.554688 109.9375 C 327.238281 109.9375 326.910156 109.917969 326.566406 109.90625 C 325.644531 109.875 324.585938 109.855469 323.652344 109.90625 C 323.382812 109.921875 323.125 109.933594 322.9375 109.960938 C 322.851562 109.976562 322.785156 109.992188 322.757812 110 C 322.75 110.003906 322.785156 109.984375 322.769531 109.996094 C 322.75 110.007812 322.886719 109.863281 322.851562 109.910156 C 322.84375 109.921875 322.882812 109.800781 322.875 109.839844 C 322.871094 109.882812 322.816406 109.621094 322.847656 109.679688 C 322.875 109.734375 322.683594 109.53125 322.722656 109.550781 C 322.765625 109.574219 322.683594 109.542969 322.707031 109.542969 M 327.878906 109.015625 C 327.929688 108.6875 328.238281 108.46875 328.5625 108.519531 C 328.886719 108.574219 329.105469 108.878906 329.054688 109.203125 C 328.964844 109.765625 328.679688 109.945312 328.578125 110.261719 C 328.476562 110.582031 328.5625 111.234375 328.6875 112.109375 C 328.851562 113.230469 329.039062 114.617188 329.171875 116.054688 C 329.351562 117.949219 329.535156 119.605469 329.824219 120.890625 C 330 121.691406 330.230469 122.421875 330.230469 123.160156 C 330.234375 123.550781 330.203125 124.003906 329.941406 124.421875 C 329.292969 125.460938 327.882812 125.855469 326.554688 126.171875 C 325.722656 126.371094 324.917969 126.515625 324.25 126.492188 C 323.921875 126.480469 323.597656 126.453125 323.292969 126.207031 C 323.136719 126.082031 323.003906 125.863281 322.972656 125.640625 C 322.945312 125.417969 323.003906 125.21875 323.085938 125.046875 C 323.226562 124.75 323.582031 124.625 323.878906 124.769531 C 324.175781 124.910156 324.300781 125.265625 324.160156 125.5625 C 324.152344 125.578125 324.15625 125.558594 324.152344 125.570312 C 324.152344 125.585938 324.152344 125.453125 324.15625 125.488281 C 324.167969 125.570312 323.992188 125.238281 324.039062 125.277344 C 324.078125 125.308594 324.011719 125.261719 324.054688 125.273438 C 324.101562 125.285156 324.183594 125.296875 324.289062 125.300781 C 324.757812 125.316406 325.503906 125.199219 326.277344 125.015625 C 327.503906 124.722656 328.667969 124.214844 328.929688 123.789062 C 329.011719 123.660156 329.042969 123.472656 329.039062 123.164062 C 329.039062 122.671875 328.847656 121.984375 328.660156 121.148438 C 328.351562 119.765625 328.167969 118.078125 327.988281 116.167969 C 327.855469 114.761719 327.671875 113.390625 327.507812 112.277344 C 327.382812 111.414062 327.207031 110.644531 327.445312 109.902344 C 327.535156 109.617188 327.660156 109.382812 327.761719 109.203125 C 327.808594 109.117188 327.851562 109.042969 327.875 108.996094 C 327.886719 108.972656 327.890625 108.957031 327.894531 108.957031 C 327.894531 108.957031 327.871094 109.058594 327.878906 109.015625 "/>
<path style=" stroke:none;fill-rule:nonzero;fill:rgb(7.058716%,1.176453%,46.665955%);fill-opacity:1;" d="M 20.976562 89.332031 C 21.304688 89.375 21.539062 89.671875 21.496094 89.996094 C 21.457031 90.324219 21.160156 90.554688 20.835938 90.515625 C 20.820312 90.515625 20.890625 90.5 20.863281 90.507812 C 20.832031 90.519531 20.980469 90.429688 20.957031 90.453125 C 20.914062 90.496094 20.976562 90.414062 20.964844 90.496094 C 20.941406 90.699219 20.996094 91.113281 21.140625 91.566406 C 21.425781 92.449219 22.066406 93.460938 22.558594 94.363281 C 22.832031 94.867188 22.972656 95.324219 23.09375 95.59375 C 23.15625 95.738281 23.179688 95.792969 23.199219 95.816406 C 23.210938 95.832031 23.097656 95.730469 23.136719 95.757812 C 23.175781 95.789062 22.859375 95.652344 22.945312 95.671875 C 23.015625 95.683594 22.566406 95.726562 22.648438 95.695312 C 22.726562 95.664062 22.460938 95.824219 22.488281 95.792969 C 22.535156 95.75 22.457031 95.839844 22.472656 95.796875 C 22.546875 95.628906 22.636719 95.210938 22.773438 94.738281 C 22.984375 94.035156 23.285156 93.242188 23.597656 92.261719 C 24.066406 90.777344 24.570312 88.84375 25.132812 86.996094 C 25.417969 86.058594 25.714844 85.203125 25.964844 84.488281 C 26.179688 83.867188 26.3125 83.40625 26.382812 83.117188 C 26.414062 82.984375 26.429688 82.890625 26.433594 82.867188 C 26.433594 82.863281 26.433594 82.894531 26.433594 82.878906 C 26.433594 82.867188 26.441406 82.976562 26.4375 82.941406 C 26.433594 82.914062 26.488281 83.121094 26.46875 83.0625 C 26.449219 83.019531 26.640625 83.316406 26.578125 83.242188 C 26.527344 83.1875 26.890625 83.4375 26.796875 83.398438 C 26.722656 83.371094 27.097656 83.441406 27.023438 83.441406 C 26.917969 83.445312 27.339844 83.351562 27.28125 83.382812 C 27.222656 83.410156 27.429688 83.277344 27.402344 83.300781 C 27.320312 83.367188 27.511719 83.167969 27.5 83.191406 C 27.464844 83.242188 27.5 83.1875 27.476562 83.261719 C 27.378906 83.542969 27.226562 84.117188 27.089844 84.9375 C 27.035156 85.261719 26.726562 85.480469 26.402344 85.425781 C 26.078125 85.371094 25.859375 85.0625 25.914062 84.738281 C 26.019531 84.113281 26.132812 83.617188 26.234375 83.242188 C 26.285156 83.066406 26.332031 82.921875 26.375 82.804688 C 26.417969 82.6875 26.355469 82.625 26.625 82.394531 C 26.710938 82.324219 26.992188 82.164062 27.289062 82.316406 C 27.699219 82.523438 27.617188 82.75 27.621094 82.828125 C 27.628906 82.902344 27.625 82.945312 27.617188 82.992188 C 27.605469 83.109375 27.582031 83.234375 27.542969 83.394531 C 27.457031 83.742188 27.3125 84.230469 27.089844 84.878906 C 26.84375 85.59375 26.550781 86.433594 26.273438 87.34375 C 25.71875 89.164062 25.214844 91.09375 24.730469 92.621094 C 24.410156 93.636719 24.105469 94.4375 23.917969 95.078125 C 23.753906 95.636719 23.8125 96.160156 23.328125 96.640625 C 23.203125 96.761719 22.953125 96.882812 22.714844 96.839844 C 22.46875 96.785156 22.34375 96.65625 22.265625 96.558594 C 22.132812 96.390625 22.074219 96.238281 22.003906 96.070312 C 21.84375 95.710938 21.722656 95.320312 21.511719 94.933594 C 21.046875 94.078125 20.359375 93.027344 20.007812 91.929688 C 19.832031 91.375 19.722656 90.84375 19.785156 90.347656 C 19.816406 90.097656 19.898438 89.828125 20.113281 89.609375 C 20.335938 89.386719 20.683594 89.296875 20.976562 89.332031 "/>
<path style=" stroke:none;fill-rule:nonzero;fill:rgb(7.058716%,1.176453%,46.665955%);fill-opacity:1;" d="M 27.644531 93.417969 C 27.96875 93.453125 28.207031 93.75 28.171875 94.074219 C 28.132812 94.402344 27.839844 94.640625 27.511719 94.601562 C 27.480469 94.597656 27.703125 94.574219 27.648438 94.589844 C 27.59375 94.605469 27.851562 94.46875 27.804688 94.507812 C 27.769531 94.539062 27.90625 94.375 27.894531 94.402344 C 27.882812 94.421875 27.910156 94.363281 27.910156 94.363281 C 27.90625 94.378906 27.894531 94.542969 27.921875 94.761719 C 27.972656 95.234375 28.128906 95.90625 28.285156 96.601562 C 28.46875 97.425781 28.585938 98.230469 28.707031 98.613281 C 28.730469 98.6875 28.71875 98.675781 28.734375 98.703125 C 28.742188 98.707031 28.671875 98.628906 28.691406 98.648438 C 28.726562 98.683594 28.417969 98.507812 28.507812 98.539062 C 28.605469 98.570312 28.105469 98.554688 28.199219 98.53125 C 28.246094 98.515625 28.023438 98.621094 28.054688 98.597656 C 28.097656 98.566406 27.972656 98.675781 27.980469 98.664062 C 27.988281 98.65625 27.980469 98.667969 27.988281 98.65625 C 28.011719 98.613281 28.058594 98.5 28.113281 98.339844 C 28.21875 98.027344 28.558594 97.859375 28.871094 97.964844 C 29.179688 98.070312 29.347656 98.410156 29.242188 98.722656 C 29.175781 98.921875 29.109375 99.085938 29.027344 99.238281 C 28.945312 99.382812 28.851562 99.574219 28.542969 99.671875 C 28.1875 99.773438 27.863281 99.53125 27.753906 99.375 C 27.65625 99.230469 27.613281 99.101562 27.570312 98.964844 C 27.394531 98.410156 27.296875 97.632812 27.125 96.859375 C 26.96875 96.167969 26.804688 95.480469 26.738281 94.894531 C 26.703125 94.609375 26.683594 94.347656 26.757812 94.066406 C 26.792969 93.921875 26.863281 93.75 27.027344 93.605469 C 27.203125 93.457031 27.449219 93.398438 27.644531 93.417969 "/>
<path style=" stroke:none;fill-rule:nonzero;fill:rgb(7.058716%,1.176453%,46.665955%);fill-opacity:1;" d="M 28.457031 89.632812 C 28.707031 89.851562 28.730469 90.226562 28.511719 90.472656 C 28.296875 90.71875 27.917969 90.746094 27.671875 90.527344 C 27.226562 90.136719 26.871094 89.667969 26.824219 89.085938 C 26.796875 88.785156 26.894531 88.4375 27.132812 88.195312 C 27.371094 87.953125 27.695312 87.835938 28.042969 87.792969 C 28.371094 87.75 28.667969 87.984375 28.710938 88.308594 C 28.75 88.636719 28.519531 88.933594 28.191406 88.972656 C 28.023438 88.996094 27.992188 89.023438 27.980469 89.03125 C 27.964844 89.046875 28.007812 88.964844 28.007812 88.988281 C 28.015625 89.078125 28.167969 89.378906 28.457031 89.632812 "/>
<path style=" stroke:none;fill-rule:nonzero;fill:rgb(7.058716%,1.176453%,46.665955%);fill-opacity:1;" d="M 38.964844 87.234375 C 38.648438 87.320312 38.320312 87.132812 38.238281 86.8125 C 38.152344 86.496094 38.339844 86.167969 38.660156 86.085938 C 38.695312 86.074219 38.71875 86.066406 38.71875 86.066406 C 38.71875 86.066406 38.675781 86.089844 38.691406 86.078125 C 38.710938 86.070312 38.566406 86.1875 38.605469 86.148438 C 38.65625 86.097656 38.433594 86.480469 38.46875 86.367188 C 38.488281 86.308594 38.445312 86.625 38.441406 86.558594 C 38.441406 86.492188 38.5 86.796875 38.476562 86.742188 C 38.441406 86.648438 38.679688 87.007812 38.636719 86.96875 C 38.59375 86.933594 38.753906 87.042969 38.730469 87.03125 C 38.664062 86.996094 38.746094 87.035156 38.667969 87.027344 C 38.578125 87.011719 38.453125 87 38.300781 86.996094 C 37.605469 86.964844 36.492188 87.074219 35.363281 87.292969 C 34.710938 87.421875 34.078125 87.609375 33.539062 87.792969 C 33.070312 87.949219 32.722656 88.113281 32.558594 88.226562 C 32.527344 88.25 32.53125 88.246094 32.523438 88.253906 C 32.511719 88.265625 32.589844 88.082031 32.574219 88.144531 C 32.558594 88.207031 32.550781 87.878906 32.570312 87.9375 C 32.585938 87.996094 32.515625 87.835938 32.523438 87.847656 C 32.570312 87.902344 32.425781 87.765625 32.429688 87.765625 C 32.441406 87.773438 32.621094 87.808594 32.855469 87.945312 C 33.195312 88.144531 33.335938 88.464844 33.429688 88.75 C 33.523438 89.035156 33.578125 89.339844 33.648438 89.667969 C 33.730469 90.046875 33.859375 90.539062 33.9375 91.15625 C 34.054688 92.027344 34.078125 93.027344 34.101562 94.019531 C 34.117188 94.839844 34.105469 95.636719 34.101562 96.300781 C 34.09375 97.03125 34.058594 97.550781 34.09375 97.773438 C 34.097656 97.8125 34.023438 97.699219 34.0625 97.746094 C 34.109375 97.796875 33.84375 97.640625 33.890625 97.648438 C 33.953125 97.65625 33.917969 97.640625 34.035156 97.574219 C 34.601562 97.261719 35.378906 97.027344 36.511719 97.039062 C 37.597656 97.050781 39.011719 97.179688 40.242188 97.164062 C 40.988281 97.152344 41.617188 97.09375 41.78125 97.023438 C 41.792969 97.019531 41.777344 97.03125 41.785156 97.023438 C 41.800781 97.015625 41.691406 97.125 41.71875 97.085938 C 41.753906 97.042969 41.632812 97.3125 41.648438 97.246094 C 41.660156 97.179688 41.65625 97.464844 41.644531 97.417969 C 41.636719 97.378906 41.675781 97.503906 41.671875 97.496094 C 41.667969 97.488281 41.601562 97.40625 41.4375 97.289062 C 41.171875 97.09375 41.113281 96.722656 41.304688 96.457031 C 41.5 96.191406 41.871094 96.132812 42.140625 96.324219 C 42.449219 96.550781 42.714844 96.75 42.808594 97.15625 C 42.855469 97.375 42.792969 97.652344 42.65625 97.824219 C 42.53125 97.988281 42.375 98.066406 42.242188 98.125 C 41.699219 98.347656 41.039062 98.34375 40.257812 98.355469 C 38.941406 98.375 37.511719 98.238281 36.496094 98.230469 C 35.527344 98.21875 35.023438 98.386719 34.613281 98.617188 C 34.375 98.75 34.097656 98.878906 33.726562 98.828125 C 33.53125 98.800781 33.3125 98.695312 33.167969 98.527344 C 33.019531 98.359375 32.949219 98.15625 32.917969 97.957031 C 32.839844 97.488281 32.902344 96.984375 32.910156 96.289062 C 32.914062 95.621094 32.925781 94.839844 32.910156 94.046875 C 32.886719 93.0625 32.859375 92.089844 32.757812 91.3125 C 32.6875 90.773438 32.570312 90.328125 32.484375 89.917969 C 32.414062 89.578125 32.355469 89.300781 32.296875 89.121094 C 32.269531 89.039062 32.242188 88.984375 32.230469 88.960938 C 32.21875 88.941406 32.285156 88.992188 32.257812 88.976562 C 32.226562 88.960938 31.960938 89.023438 31.613281 88.613281 C 31.472656 88.445312 31.347656 88.140625 31.421875 87.847656 C 31.496094 87.5625 31.6875 87.382812 31.878906 87.25 C 32.203125 87.027344 32.625 86.84375 33.15625 86.664062 C 33.730469 86.46875 34.410156 86.265625 35.132812 86.125 C 36.335938 85.890625 37.5 85.769531 38.351562 85.804688 C 38.710938 85.820312 38.949219 85.808594 39.257812 85.964844 C 39.347656 86.007812 39.488281 86.070312 39.585938 86.304688 C 39.6875 86.570312 39.554688 86.890625 39.429688 87.003906 C 39.242188 87.191406 39.113281 87.195312 38.964844 87.234375 "/>
<path style=" stroke:none;fill-rule:nonzero;fill:rgb(7.058716%,1.176453%,46.665955%);fill-opacity:1;" d="M 40.339844 89.90625 C 40.660156 89.984375 40.855469 90.304688 40.777344 90.625 C 40.703125 90.945312 40.378906 91.140625 40.058594 91.0625 C 40.027344 91.054688 40.324219 91.027344 40.242188 91.054688 C 40.160156 91.078125 40.460938 90.890625 40.425781 90.933594 C 40.398438 90.96875 40.460938 90.878906 40.460938 90.882812 C 40.457031 90.890625 40.449219 90.917969 40.445312 90.957031 C 40.414062 91.144531 40.421875 91.496094 40.433594 91.878906 C 40.453125 92.34375 40.40625 92.757812 40.433594 93.050781 C 40.449219 93.222656 40.480469 93.375 40.511719 93.460938 C 40.527344 93.496094 40.527344 93.5 40.535156 93.507812 C 40.542969 93.519531 40.359375 93.40625 40.425781 93.429688 C 40.53125 93.476562 40.125 93.417969 40.183594 93.40625 C 40.230469 93.394531 40.117188 93.425781 40.121094 93.425781 C 40.128906 93.417969 40.195312 93.371094 40.269531 93.296875 C 40.433594 93.140625 40.636719 92.894531 40.84375 92.648438 C 41.28125 92.128906 41.746094 91.566406 42.25 91.136719 C 42.535156 90.898438 42.832031 90.675781 43.210938 90.582031 C 43.453125 90.519531 43.726562 90.574219 43.917969 90.691406 C 44.09375 90.796875 44.214844 90.9375 44.308594 91.078125 C 44.492188 91.34375 44.597656 91.632812 44.6875 91.886719 C 45.019531 92.828125 45.246094 93.542969 45.773438 93.808594 C 46.070312 93.953125 46.1875 94.3125 46.039062 94.605469 C 45.894531 94.902344 45.535156 95.019531 45.242188 94.875 C 44.160156 94.332031 43.882812 93.1875 43.5625 92.28125 C 43.488281 92.066406 43.398438 91.855469 43.324219 91.746094 C 43.292969 91.703125 43.328125 91.726562 43.300781 91.710938 C 43.257812 91.683594 43.5625 91.722656 43.5 91.738281 C 43.4375 91.753906 43.238281 91.863281 43.019531 92.046875 C 42.632812 92.378906 42.1875 92.902344 41.757812 93.414062 C 41.550781 93.65625 41.335938 93.925781 41.101562 94.152344 C 40.984375 94.265625 40.867188 94.371094 40.707031 94.460938 C 40.546875 94.550781 40.277344 94.664062 39.96875 94.53125 C 39.632812 94.394531 39.484375 94.113281 39.398438 93.878906 C 39.308594 93.648438 39.269531 93.40625 39.246094 93.160156 C 39.203125 92.699219 39.257812 92.277344 39.246094 91.925781 C 39.230469 91.53125 39.207031 91.140625 39.265625 90.773438 C 39.296875 90.585938 39.335938 90.382812 39.507812 90.175781 C 39.6875 89.957031 40.070312 89.839844 40.339844 89.90625 "/>
<path style=" stroke:none;fill-rule:nonzero;fill:rgb(7.058716%,1.176453%,46.665955%);fill-opacity:1;" d="M 47.277344 85.121094 C 47.386719 85.429688 47.226562 85.769531 46.917969 85.882812 C 46.605469 85.992188 46.265625 85.832031 46.15625 85.523438 C 45.972656 85.015625 46.058594 84.363281 46.550781 83.929688 C 47.378906 83.199219 48.570312 83.480469 49.566406 83.441406 C 49.984375 83.429688 50.398438 83.363281 50.78125 83.339844 C 50.949219 83.328125 51.097656 83.304688 51.277344 83.304688 C 51.371094 83.300781 51.488281 83.304688 51.621094 83.355469 C 51.78125 83.414062 51.945312 83.542969 52.035156 83.703125 C 52.222656 84.042969 52.117188 84.261719 52.082031 84.414062 C 52.042969 84.554688 52.007812 84.671875 51.996094 84.734375 C 51.960938 84.933594 52.25 85.5 52.636719 86.292969 C 53.078125 87.195312 53.386719 88.347656 53.839844 89.5625 C 54.363281 90.96875 55.273438 92.175781 55.820312 93.113281 C 56.046875 93.507812 56.242188 93.929688 56.179688 94.417969 C 56.132812 94.773438 55.941406 95.066406 55.714844 95.292969 C 55.492188 95.515625 55.222656 95.695312 54.933594 95.851562 C 54.351562 96.175781 53.675781 96.425781 53.027344 96.667969 C 51.601562 97.210938 50.113281 97.464844 49.574219 97.890625 C 49.316406 98.09375 48.941406 98.050781 48.738281 97.792969 C 48.53125 97.535156 48.578125 97.160156 48.835938 96.957031 C 49.816406 96.179688 51.324219 96.042969 52.605469 95.554688 C 53.25 95.3125 53.882812 95.070312 54.359375 94.808594 C 54.585938 94.683594 54.765625 94.558594 54.871094 94.449219 C 54.972656 94.351562 54.996094 94.289062 54.996094 94.261719 C 55.003906 94.207031 54.957031 94.003906 54.792969 93.714844 C 54.300781 92.875 53.320312 91.582031 52.722656 89.980469 C 52.25 88.710938 51.929688 87.5625 51.566406 86.816406 C 51.210938 86.089844 50.664062 85.410156 50.824219 84.523438 C 50.855469 84.347656 50.902344 84.210938 50.925781 84.121094 C 50.9375 84.082031 50.9375 84.082031 50.9375 84.070312 C 50.9375 84.0625 50.945312 84.164062 50.941406 84.132812 C 50.933594 84.097656 51.019531 84.332031 50.992188 84.277344 C 50.941406 84.1875 51.28125 84.5 51.214844 84.472656 C 51.167969 84.457031 51.304688 84.492188 51.292969 84.492188 C 51.230469 84.496094 51.070312 84.515625 50.859375 84.527344 C 50.546875 84.546875 50.109375 84.617188 49.609375 84.632812 C 48.539062 84.675781 47.433594 84.738281 47.339844 84.824219 C 47.273438 84.878906 47.25 85.046875 47.277344 85.121094 "/>
</g>
</svg>
