<?xml version="1.0" encoding="UTF-8"?>
<svg xmlns="http://www.w3.org/2000/svg" xmlns:xlink="http://www.w3.org/1999/xlink" width="343.70434pt" height="281.557pt" viewBox="0 0 343.70434 281.557" version="1.2">
<g id="surface1">
<path style=" stroke:none;fill-rule:nonzero;fill:rgb(7.058716%,1.176453%,46.665955%);fill-opacity:1;" d="M 8.253906 150.585938 C 7.925781 150.585938 7.65625 150.320312 7.65625 149.988281 C 7.65625 149.660156 7.925781 149.394531 8.253906 149.394531 L 237.71875 149.394531 C 238.050781 149.394531 238.316406 149.660156 238.316406 149.988281 C 238.316406 150.320312 238.050781 150.585938 237.71875 150.585938 Z M 8.253906 150.585938 "/>
<path style=" stroke:none;fill-rule:nonzero;fill:rgb(7.058716%,1.176453%,46.665955%);fill-opacity:1;" d="M 239.601562 149.339844 C 239.71875 149.648438 239.5625 149.992188 239.253906 150.105469 C 238.941406 150.222656 238.597656 150.0625 238.484375 149.753906 C 237.808594 147.945312 236.503906 147.054688 234.921875 146.179688 C 234.117188 145.730469 233.148438 145.308594 232.179688 144.988281 C 231.640625 144.808594 231.09375 144.664062 230.65625 144.558594 C 230.390625 144.496094 230.179688 144.421875 230.046875 144.382812 C 229.988281 144.363281 229.988281 144.363281 229.96875 144.359375 C 229.960938 144.359375 230.125 144.34375 230.070312 144.351562 C 230.011719 144.363281 230.363281 144.1875 230.289062 144.25 C 230.230469 144.296875 230.449219 144.039062 230.417969 144.09375 C 230.371094 144.171875 230.496094 143.832031 230.488281 143.886719 C 230.480469 143.9375 230.488281 143.742188 230.492188 143.769531 C 230.496094 143.835938 230.472656 143.6875 230.476562 143.6875 C 230.476562 143.695312 230.503906 143.75 230.539062 143.816406 C 230.617188 143.960938 230.730469 144.152344 230.828125 144.351562 C 231.226562 145.132812 231.425781 146.273438 231.589844 147.695312 C 231.761719 149.175781 231.863281 150.910156 231.929688 152.773438 C 232 154.835938 231.949219 156.820312 231.929688 158.304688 C 231.921875 158.996094 231.886719 159.539062 231.925781 159.84375 C 231.949219 160.027344 231.992188 160.167969 232.023438 160.234375 C 232.039062 160.257812 232.011719 160.230469 232.03125 160.246094 C 232.050781 160.269531 231.804688 160.164062 231.878906 160.175781 C 231.941406 160.1875 231.652344 160.183594 231.703125 160.175781 C 231.777344 160.164062 231.527344 160.242188 231.558594 160.226562 C 231.582031 160.210938 231.511719 160.257812 231.515625 160.253906 C 231.519531 160.25 231.546875 160.222656 231.589844 160.164062 C 231.683594 160.042969 231.800781 159.855469 231.929688 159.675781 C 232.882812 158.367188 234.285156 156.710938 235.355469 155.070312 C 235.898438 154.234375 236.511719 153.367188 237.078125 152.546875 C 237.386719 152.105469 237.675781 151.726562 237.84375 151.453125 C 237.921875 151.324219 237.871094 151.183594 238.125 150.851562 C 238.203125 150.75 238.355469 150.621094 238.554688 150.585938 C 238.753906 150.550781 238.917969 150.609375 239.027344 150.667969 C 239.226562 150.773438 239.335938 150.898438 239.484375 151.0625 C 239.707031 151.304688 239.6875 151.683594 239.445312 151.90625 C 239.203125 152.128906 238.824219 152.109375 238.601562 151.867188 C 238.488281 151.742188 238.511719 151.746094 238.460938 151.71875 C 238.441406 151.707031 238.609375 151.765625 238.5625 151.753906 C 238.511719 151.742188 238.832031 151.75 238.757812 151.761719 C 238.6875 151.773438 239.023438 151.636719 238.96875 151.675781 C 238.914062 151.710938 239.09375 151.546875 239.074219 151.574219 C 239.039062 151.621094 239.109375 151.515625 239.105469 151.53125 C 239.074219 151.597656 239.015625 151.820312 238.863281 152.070312 C 238.644531 152.433594 238.347656 152.8125 238.0625 153.226562 C 237.492188 154.050781 236.882812 154.914062 236.355469 155.722656 C 235.230469 157.449219 233.804688 159.125 232.898438 160.375 C 232.796875 160.515625 232.679688 160.703125 232.542969 160.882812 C 232.472656 160.976562 232.402344 161.066406 232.296875 161.15625 C 232.1875 161.253906 231.992188 161.410156 231.664062 161.351562 C 231.296875 161.28125 231.082031 161.011719 230.960938 160.773438 C 230.839844 160.535156 230.777344 160.277344 230.742188 159.996094 C 230.675781 159.496094 230.726562 158.949219 230.734375 158.285156 C 230.757812 156.796875 230.808594 154.832031 230.738281 152.816406 C 230.671875 150.972656 230.570312 149.261719 230.40625 147.832031 C 230.246094 146.46875 230.023438 145.398438 229.765625 144.894531 C 229.6875 144.738281 229.578125 144.554688 229.484375 144.378906 C 229.4375 144.289062 229.394531 144.207031 229.355469 144.101562 C 229.335938 144.046875 229.3125 143.988281 229.304688 143.886719 C 229.292969 143.773438 229.289062 143.527344 229.527344 143.332031 C 229.726562 143.164062 229.945312 143.160156 230.078125 143.171875 C 230.207031 143.183594 230.300781 143.210938 230.390625 143.238281 C 230.566406 143.289062 230.738281 143.351562 230.929688 143.398438 C 231.398438 143.507812 231.972656 143.660156 232.554688 143.855469 C 233.59375 144.199219 234.621094 144.648438 235.5 145.132812 C 237.152344 146.046875 238.796875 147.171875 239.601562 149.339844 "/>
<path style=" stroke:none;fill-rule:nonzero;fill:rgb(7.058716%,1.176453%,46.665955%);fill-opacity:1;" d="M 115.269531 50.609375 C 115.269531 50.28125 115.539062 50.011719 115.867188 50.011719 C 116.199219 50.011719 116.464844 50.28125 116.464844 50.609375 L 116.464844 255.703125 C 116.464844 256.03125 116.199219 256.300781 115.867188 256.300781 C 115.539062 256.300781 115.269531 256.03125 115.269531 255.703125 Z M 115.269531 50.609375 "/>
<path style=" stroke:none;fill-rule:nonzero;fill:rgb(7.058716%,1.176453%,46.665955%);fill-opacity:1;" d="M 116.902344 51.589844 C 116.878906 51.917969 116.59375 52.167969 116.265625 52.144531 C 115.933594 52.121094 115.6875 51.835938 115.710938 51.507812 C 115.730469 51.242188 115.660156 51.015625 115.5625 50.875 C 115.476562 50.746094 115.398438 50.722656 115.378906 50.722656 C 115.34375 50.722656 115.40625 50.714844 115.355469 50.746094 C 115.292969 50.785156 115.203125 50.867188 115.101562 50.976562 C 114.882812 51.214844 114.628906 51.574219 114.34375 51.984375 C 114.023438 52.445312 113.667969 52.90625 113.410156 53.296875 C 113.273438 53.507812 113.210938 53.6875 113.210938 53.695312 C 113.210938 53.703125 113.203125 53.566406 113.210938 53.617188 C 113.214844 53.644531 113.164062 53.46875 113.179688 53.511719 C 113.199219 53.558594 113.035156 53.304688 113.085938 53.359375 C 113.132812 53.414062 112.835938 53.199219 112.90625 53.230469 C 112.972656 53.257812 112.648438 53.183594 112.707031 53.183594 C 112.769531 53.1875 112.554688 53.207031 112.585938 53.199219 C 112.617188 53.191406 112.511719 53.226562 112.523438 53.21875 C 112.636719 53.167969 113.300781 52.394531 113.933594 51.617188 C 114.585938 50.8125 115.203125 49.980469 115.648438 49.261719 C 115.910156 48.839844 116.074219 48.425781 116.28125 48.0625 C 116.410156 47.835938 116.554688 47.601562 116.867188 47.46875 C 117.027344 47.398438 117.234375 47.378906 117.410156 47.421875 C 117.582031 47.46875 117.71875 47.554688 117.828125 47.652344 C 118.570312 48.300781 119.152344 49.523438 119.867188 50.703125 C 120.257812 51.351562 120.746094 52.003906 121.066406 52.671875 C 121.207031 52.960938 121.441406 53.265625 121.363281 53.761719 C 121.292969 54.179688 120.996094 54.441406 120.714844 54.605469 C 120.441406 54.765625 120.136719 54.863281 119.824219 54.933594 C 118.628906 55.207031 117.199219 54.84375 115.835938 54.546875 C 115.046875 54.375 114.277344 54.210938 113.648438 54.042969 C 113.21875 53.933594 112.875 53.839844 112.632812 53.746094 C 112.570312 53.722656 112.515625 53.707031 112.417969 53.636719 C 112.363281 53.597656 112.253906 53.554688 112.175781 53.316406 C 112.085938 53.042969 112.320312 52.679688 112.460938 52.597656 C 112.859375 52.382812 112.886719 52.511719 113.058594 52.523438 C 113.390625 52.546875 113.636719 52.835938 113.609375 53.164062 C 113.585938 53.492188 113.296875 53.738281 112.96875 53.714844 C 112.902344 53.707031 112.855469 53.707031 112.839844 53.707031 C 112.832031 53.707031 112.875 53.703125 112.855469 53.707031 C 112.84375 53.707031 112.9375 53.6875 112.910156 53.695312 C 112.882812 53.703125 113.09375 53.613281 113.035156 53.644531 C 113.007812 53.660156 113.183594 53.53125 113.144531 53.566406 C 113.109375 53.597656 113.285156 53.382812 113.253906 53.4375 C 113.191406 53.539062 113.324219 52.949219 113.335938 53.074219 C 113.34375 53.160156 113.246094 52.804688 113.273438 52.859375 C 113.3125 52.933594 113.132812 52.683594 113.164062 52.710938 C 113.191406 52.738281 113.082031 52.648438 113.097656 52.660156 C 113.164062 52.703125 113.042969 52.625 113.066406 52.632812 C 113.1875 52.683594 113.535156 52.78125 113.949219 52.890625 C 114.542969 53.046875 115.300781 53.210938 116.089844 53.378906 C 117.441406 53.675781 118.800781 53.945312 119.558594 53.769531 C 119.789062 53.71875 119.996094 53.644531 120.117188 53.574219 C 120.171875 53.542969 120.203125 53.511719 120.207031 53.507812 C 120.210938 53.503906 120.175781 53.617188 120.183594 53.574219 C 120.191406 53.523438 120.1875 53.617188 120.160156 53.550781 C 120.132812 53.472656 120.070312 53.347656 119.992188 53.191406 C 119.742188 52.671875 119.269531 52.023438 118.84375 51.320312 C 118.113281 50.113281 117.4375 48.894531 117.042969 48.550781 C 117.035156 48.542969 117.179688 48.597656 117.117188 48.582031 C 117.050781 48.566406 117.402344 48.535156 117.34375 48.5625 C 117.289062 48.585938 117.40625 48.519531 117.398438 48.53125 C 117.382812 48.546875 117.355469 48.585938 117.320312 48.648438 C 117.171875 48.910156 116.984375 49.375 116.664062 49.890625 C 116.175781 50.675781 115.53125 51.535156 114.859375 52.367188 C 114.242188 53.125 113.78125 53.960938 113.019531 54.304688 C 112.933594 54.34375 112.820312 54.382812 112.671875 54.378906 C 112.519531 54.375 112.320312 54.292969 112.199219 54.160156 C 111.96875 53.90625 112.007812 53.671875 112.03125 53.515625 C 112.078125 53.214844 112.214844 52.945312 112.414062 52.644531 C 112.707031 52.199219 113.0625 51.734375 113.363281 51.300781 C 113.652344 50.886719 113.925781 50.492188 114.222656 50.171875 C 114.511719 49.851562 114.855469 49.535156 115.371094 49.53125 C 115.871094 49.527344 116.292969 49.824219 116.550781 50.203125 C 116.808594 50.585938 116.9375 51.074219 116.902344 51.589844 "/>
<path style=" stroke:none;fill-rule:nonzero;fill:rgb(7.058716%,1.176453%,46.665955%);fill-opacity:1;" d="M 112.605469 251.6875 C 112.894531 251.839844 113.007812 252.203125 112.851562 252.492188 C 112.699219 252.785156 112.335938 252.894531 112.046875 252.742188 C 111.621094 252.515625 111.429688 252.496094 111.394531 252.503906 C 111.375 252.511719 111.535156 252.417969 111.492188 252.453125 C 111.449219 252.484375 111.609375 252.269531 111.589844 252.316406 C 111.574219 252.363281 111.609375 252.195312 111.609375 252.214844 C 111.613281 252.230469 111.609375 252.199219 111.613281 252.210938 C 111.625 252.242188 112.429688 252.941406 113.261719 253.542969 C 114.554688 254.472656 115.628906 255.378906 116.714844 255.902344 C 117.304688 256.1875 118.03125 256.378906 118.671875 256.4375 C 119.070312 256.472656 119.359375 256.339844 119.621094 256.058594 C 119.898438 255.761719 120.117188 255.289062 120.246094 254.734375 C 120.410156 254.027344 120.554688 253.296875 120.441406 252.785156 C 120.375 252.476562 120.070312 252.160156 119.539062 251.917969 C 118.980469 251.664062 118.234375 251.519531 117.464844 251.507812 C 116.699219 251.492188 115.933594 251.609375 115.332031 251.847656 C 114.757812 252.074219 114.390625 252.398438 114.269531 252.746094 C 114.160156 253.058594 113.820312 253.222656 113.507812 253.113281 C 113.199219 253.003906 113.03125 252.664062 113.140625 252.351562 C 113.414062 251.566406 114.117188 251.046875 114.894531 250.738281 C 115.679688 250.425781 116.585938 250.296875 117.488281 250.3125 C 118.390625 250.328125 119.277344 250.492188 120.03125 250.832031 C 120.773438 251.167969 121.429688 251.726562 121.605469 252.527344 C 121.796875 253.402344 121.578125 254.273438 121.410156 255.003906 C 121.246094 255.707031 120.960938 256.367188 120.496094 256.871094 C 120.027344 257.371094 119.328125 257.691406 118.566406 257.625 C 117.773438 257.554688 116.9375 257.335938 116.195312 256.976562 C 114.929688 256.367188 113.820312 255.414062 112.5625 254.507812 C 111.746094 253.917969 110.789062 253.496094 110.484375 252.59375 C 110.410156 252.382812 110.378906 252.132812 110.480469 251.875 C 110.585938 251.613281 110.84375 251.414062 111.09375 251.347656 C 111.574219 251.222656 112.046875 251.390625 112.605469 251.6875 "/>
<path style=" stroke:none;fill-rule:nonzero;fill:rgb(7.058716%,1.176453%,46.665955%);fill-opacity:1;" d="M 237.152344 169.714844 C 237.039062 170.023438 236.699219 170.183594 236.386719 170.070312 C 236.078125 169.960938 235.917969 169.617188 236.03125 169.308594 C 236.097656 169.125 236.175781 168.785156 236.199219 168.453125 C 236.21875 168.128906 236.152344 167.855469 236.113281 167.800781 C 236.085938 167.761719 236.222656 167.886719 236.199219 167.875 C 236.175781 167.867188 236.226562 167.886719 236.214844 167.886719 C 236.1875 167.878906 236.109375 167.878906 235.996094 167.898438 C 235.753906 167.9375 235.421875 168.054688 235.097656 168.226562 C 233.925781 168.847656 232.40625 170.808594 230.992188 172.855469 C 230.140625 174.09375 229.367188 175.308594 228.933594 176.296875 C 228.722656 176.773438 228.585938 177.1875 228.542969 177.480469 C 228.519531 177.613281 228.519531 177.714844 228.527344 177.765625 C 228.535156 177.804688 228.484375 177.730469 228.511719 177.757812 C 228.554688 177.800781 228.371094 177.675781 228.394531 177.683594 C 228.414062 177.6875 228.382812 177.679688 228.402344 177.679688 C 228.457031 177.683594 228.574219 177.664062 228.714844 177.628906 C 229.019531 177.546875 229.398438 177.394531 229.769531 177.230469 C 230.5 176.90625 231.367188 176.15625 232.203125 175.378906 C 233.304688 174.359375 234.246094 173.367188 234.871094 172.46875 C 235.152344 172.066406 235.351562 171.667969 235.507812 171.324219 C 235.613281 171.101562 235.6875 170.902344 235.738281 170.746094 C 235.761719 170.675781 235.78125 170.613281 235.804688 170.554688 C 235.8125 170.527344 235.820312 170.5 235.84375 170.453125 C 235.867188 170.40625 235.8125 170.3125 236.128906 170.15625 C 236.425781 170.011719 236.785156 170.132812 236.929688 170.429688 C 237.074219 170.722656 236.953125 171.082031 236.65625 171.226562 C 236.570312 171.269531 236.855469 171.070312 236.824219 171.105469 C 236.78125 171.152344 236.914062 170.984375 236.898438 171.003906 C 236.886719 171.023438 236.925781 170.953125 236.921875 170.964844 C 236.910156 170.984375 236.933594 170.9375 236.929688 170.949219 C 236.917969 170.980469 236.898438 171.046875 236.871094 171.128906 C 236.808594 171.308594 236.722656 171.550781 236.589844 171.828125 C 236.421875 172.195312 236.191406 172.664062 235.851562 173.152344 C 235.144531 174.160156 234.152344 175.203125 233.015625 176.253906 C 232.15625 177.050781 231.246094 177.882812 230.25 178.320312 C 229.859375 178.496094 229.4375 178.671875 229.019531 178.78125 C 228.816406 178.835938 228.609375 178.875 228.394531 178.875 C 228.167969 178.871094 227.890625 178.824219 227.667969 178.601562 C 227.300781 178.234375 227.292969 177.738281 227.363281 177.292969 C 227.433594 176.839844 227.605469 176.351562 227.839844 175.820312 C 228.332031 174.695312 229.136719 173.441406 230.011719 172.175781 C 231.453125 170.09375 232.929688 168.023438 234.542969 167.171875 C 234.957031 166.953125 235.382812 166.789062 235.800781 166.71875 C 236.003906 166.683594 236.210938 166.671875 236.429688 166.710938 C 236.648438 166.75 236.902344 166.859375 237.070312 167.089844 C 237.40625 167.539062 237.417969 168.0625 237.386719 168.527344 C 237.359375 168.988281 237.265625 169.402344 237.152344 169.714844 M 236.070312 171.191406 C 235.792969 171.015625 235.714844 170.644531 235.894531 170.367188 C 236.074219 170.089844 236.445312 170.011719 236.71875 170.191406 C 237.035156 170.394531 236.996094 170.597656 237.003906 170.683594 C 237.011719 170.765625 237.007812 170.820312 237.003906 170.875 C 236.996094 170.980469 236.980469 171.085938 236.960938 171.207031 C 236.929688 171.449219 236.890625 171.726562 236.890625 171.984375 C 236.882812 173.097656 237.867188 174.570312 239.1875 175.570312 C 239.84375 176.070312 240.5625 176.4375 241.230469 176.605469 C 241.875 176.765625 242.449219 176.726562 242.878906 176.480469 C 243.164062 176.316406 243.527344 176.414062 243.691406 176.703125 C 243.855469 176.988281 243.757812 177.351562 243.472656 177.515625 C 242.707031 177.953125 241.800781 177.976562 240.941406 177.761719 C 240.078125 177.546875 239.230469 177.101562 238.46875 176.523438 C 236.9375 175.363281 235.683594 173.691406 235.695312 171.976562 C 235.699219 171.621094 235.746094 171.292969 235.78125 171.039062 C 235.796875 170.921875 235.808594 170.828125 235.8125 170.777344 C 235.816406 170.757812 235.820312 170.816406 235.816406 170.785156 C 235.816406 170.765625 235.863281 170.964844 235.839844 170.902344 C 235.828125 170.867188 235.9375 171.078125 235.902344 171.027344 C 235.867188 170.976562 236.148438 171.242188 236.070312 171.191406 "/>
<path style=" stroke:none;fill-rule:nonzero;fill:rgb(7.058716%,1.176453%,46.665955%);fill-opacity:1;" d="M 178.164062 149.988281 C 178.164062 172.847656 165.796875 192.816406 147.386719 203.574219 C 138.214844 208.933594 127.539062 212.003906 116.148438 212.003906 C 93.289062 212.003906 73.320312 199.636719 62.566406 181.226562 C 57.207031 172.054688 54.132812 161.378906 54.132812 149.988281 C 54.132812 127.132812 66.5 107.160156 84.910156 96.40625 C 94.082031 91.046875 104.757812 87.976562 116.148438 87.976562 C 139.007812 87.976562 158.976562 100.34375 169.730469 118.75 C 175.089844 127.925781 178.164062 138.597656 178.164062 149.988281 M 174.183594 149.988281 C 174.183594 139.332031 171.3125 129.339844 166.296875 120.757812 C 156.230469 103.527344 137.542969 91.953125 116.148438 91.953125 C 105.488281 91.953125 95.5 94.828125 86.914062 99.839844 C 69.6875 109.90625 58.113281 128.597656 58.113281 149.988281 C 58.113281 160.648438 60.984375 170.636719 66 179.222656 C 76.066406 196.449219 94.753906 208.027344 116.148438 208.027344 C 126.808594 208.027344 136.796875 205.152344 145.378906 200.136719 C 162.609375 190.070312 174.183594 171.382812 174.183594 149.988281 "/>
<path style=" stroke:none;fill-rule:nonzero;fill:rgb(7.058716%,1.176453%,46.665955%);fill-opacity:1;" d="M 129.640625 53.738281 C 129.695312 54.0625 129.472656 54.367188 129.148438 54.421875 C 128.820312 54.472656 128.515625 54.25 128.464844 53.925781 C 128.425781 53.695312 128.332031 53.019531 128.238281 52.359375 C 128.203125 52.089844 128.175781 51.851562 128.160156 51.675781 C 128.152344 51.597656 128.148438 51.53125 128.144531 51.5 C 128.140625 51.488281 128.152344 51.539062 128.144531 51.507812 C 128.144531 51.5 128.160156 51.570312 128.15625 51.550781 C 128.148438 51.527344 128.234375 51.722656 128.203125 51.664062 C 128.046875 51.371094 128.152344 51.011719 128.441406 50.851562 C 128.730469 50.695312 129.09375 50.804688 129.25 51.09375 C 129.316406 51.210938 129.308594 51.238281 129.3125 51.261719 C 129.324219 51.3125 129.324219 51.335938 129.328125 51.363281 C 129.335938 51.417969 129.339844 51.484375 129.347656 51.5625 C 129.363281 51.730469 129.386719 51.949219 129.421875 52.195312 C 129.511719 52.851562 129.609375 53.542969 129.640625 53.738281 M 128.1875 51.117188 C 128.332031 50.820312 128.6875 50.695312 128.984375 50.839844 C 129.28125 50.984375 129.40625 51.339844 129.261719 51.636719 C 129.253906 51.652344 129.28125 51.59375 129.277344 51.605469 C 129.261719 51.644531 129.296875 51.542969 129.296875 51.546875 C 129.257812 51.746094 129.328125 53.046875 129.320312 54.398438 C 129.3125 55.9375 129.128906 57.625 129.035156 59.066406 C 128.992188 59.703125 128.992188 60.292969 128.980469 60.882812 C 128.972656 61.402344 128.894531 61.882812 128.851562 62.253906 C 128.832031 62.425781 128.824219 62.570312 128.828125 62.652344 C 128.832031 62.6875 128.832031 62.695312 128.835938 62.699219 C 128.835938 62.710938 128.738281 62.5625 128.777344 62.609375 C 128.855469 62.695312 128.429688 62.425781 128.515625 62.445312 C 128.589844 62.464844 128.3125 62.4375 128.347656 62.433594 C 128.40625 62.425781 128.296875 62.445312 128.320312 62.4375 C 128.375 62.414062 128.496094 62.34375 128.636719 62.25 C 128.933594 62.050781 129.304688 61.773438 129.652344 61.515625 C 131.222656 60.375 133.476562 59.632812 135.292969 59.773438 C 136.238281 59.847656 136.988281 60.445312 137.398438 61.183594 C 137.8125 61.921875 137.960938 62.800781 137.910156 63.652344 C 137.859375 64.429688 137.472656 65.128906 136.925781 65.683594 C 136.371094 66.242188 135.652344 66.691406 134.855469 67.050781 C 133.230469 67.789062 131.292969 68.179688 129.511719 68.226562 C 128.636719 68.246094 127.8125 68.183594 127.089844 68.003906 C 126.382812 67.828125 125.75 67.542969 125.335938 67.035156 C 124.917969 66.519531 124.835938 65.757812 125.117188 65.0625 C 125.410156 64.347656 126.019531 63.625 126.9375 62.828125 C 127.183594 62.613281 127.5625 62.640625 127.777344 62.890625 C 127.992188 63.136719 127.964844 63.515625 127.71875 63.730469 C 126.882812 64.453125 126.40625 65.070312 126.222656 65.515625 C 126.066406 65.90625 126.113281 66.097656 126.261719 66.28125 C 126.429688 66.488281 126.820312 66.707031 127.378906 66.84375 C 127.960938 66.988281 128.691406 67.050781 129.484375 67.03125 C 131.105469 66.992188 132.917969 66.621094 134.359375 65.964844 C 135.0625 65.648438 135.660156 65.265625 136.074219 64.84375 C 136.472656 64.441406 136.691406 64.015625 136.71875 63.578125 C 136.757812 62.925781 136.632812 62.253906 136.355469 61.765625 C 136.09375 61.292969 135.722656 61.003906 135.203125 60.964844 C 133.796875 60.855469 131.664062 61.527344 130.359375 62.480469 C 130.015625 62.730469 129.640625 63.015625 129.292969 63.246094 C 129.125 63.359375 128.964844 63.457031 128.796875 63.53125 C 128.707031 63.570312 128.617188 63.605469 128.480469 63.621094 C 128.339844 63.636719 128.074219 63.613281 127.886719 63.402344 C 127.683594 63.175781 127.648438 62.925781 127.636719 62.71875 C 127.625 62.515625 127.644531 62.320312 127.667969 62.121094 C 127.710938 61.710938 127.78125 61.277344 127.789062 60.863281 C 127.796875 60.285156 127.796875 59.667969 127.84375 58.988281 C 127.941406 57.515625 128.121094 55.847656 128.128906 54.394531 C 128.132812 53.695312 128.109375 53.019531 128.097656 52.453125 C 128.082031 51.910156 127.988281 51.605469 128.171875 51.152344 C 128.175781 51.140625 128.179688 51.128906 128.1875 51.117188 "/>
<path style=" stroke:none;fill-rule:nonzero;fill:rgb(0%,45.097351%,23.136902%);fill-opacity:1;" d="M 142.035156 129.757812 C 142.105469 130.191406 141.816406 130.601562 141.382812 130.671875 C 140.949219 130.746094 140.539062 130.453125 140.464844 130.019531 C 140.359375 129.390625 140.304688 128.9375 140.375 128.515625 C 140.410156 128.296875 140.472656 127.992188 140.820312 127.761719 C 141.183594 127.523438 141.625 127.632812 141.835938 127.753906 C 142.570312 128.171875 142.898438 128.925781 143.441406 129.890625 C 144.601562 131.957031 145.660156 134.417969 146.671875 136.476562 C 147.160156 137.472656 147.621094 138.339844 148.039062 138.949219 C 148.238281 139.234375 148.417969 139.449219 148.554688 139.570312 C 148.675781 139.679688 148.566406 139.660156 148.644531 139.664062 C 149.082031 139.683594 149.421875 140.054688 149.402344 140.496094 C 149.382812 140.933594 149.011719 141.273438 148.574219 141.253906 C 148.125 141.234375 147.777344 141.011719 147.496094 140.761719 C 147.214844 140.511719 146.96875 140.203125 146.726562 139.847656 C 146.230469 139.125 145.75 138.203125 145.242188 137.179688 C 144.210938 135.074219 143.15625 132.632812 142.054688 130.667969 C 141.546875 129.765625 141.125 129.179688 141.046875 129.136719 C 141.015625 129.117188 141.378906 129.210938 141.261719 129.199219 C 141.136719 129.1875 141.832031 129.003906 141.699219 129.089844 C 141.632812 129.132812 141.886719 128.910156 141.847656 128.953125 C 141.796875 129.019531 141.945312 128.773438 141.933594 128.804688 C 141.925781 128.832031 141.945312 128.769531 141.945312 128.769531 C 141.933594 128.835938 141.941406 129.203125 142.035156 129.757812 "/>
<path style=" stroke:none;fill-rule:nonzero;fill:rgb(0%,45.097351%,23.136902%);fill-opacity:1;" d="M 142.496094 139.371094 C 142.851562 139.625 142.929688 140.125 142.675781 140.480469 C 142.417969 140.835938 141.921875 140.917969 141.5625 140.660156 C 140.851562 140.148438 140.308594 139.492188 140.230469 138.695312 C 140.15625 137.898438 140.53125 137.15625 141.078125 136.449219 C 142.523438 134.578125 145.089844 132.375 147.511719 130.269531 C 149.871094 128.214844 151.96875 126.21875 152.023438 126.050781 C 152.167969 125.636719 152.621094 125.414062 153.035156 125.558594 C 153.449219 125.699219 153.671875 126.152344 153.53125 126.566406 C 153.265625 127.339844 152.617188 127.839844 151.761719 128.632812 C 148.949219 131.25 144.308594 134.871094 142.335938 137.421875 C 141.917969 137.964844 141.796875 138.339844 141.816406 138.542969 C 141.835938 138.734375 141.988281 139.003906 142.496094 139.371094 "/>
<path style=" stroke:none;fill-rule:nonzero;fill:rgb(0%,45.097351%,23.136902%);fill-opacity:1;" d="M 143.195312 160.28125 C 143.492188 160.605469 143.472656 161.109375 143.148438 161.40625 C 142.828125 161.703125 142.324219 161.683594 142.023438 161.359375 C 141.667969 160.972656 141.324219 160.914062 141.316406 160.140625 C 141.316406 159.890625 141.535156 159.488281 141.816406 159.363281 C 142.074219 159.246094 142.242188 159.28125 142.359375 159.304688 C 142.574219 159.339844 142.710938 159.410156 142.867188 159.488281 C 143.527344 159.808594 144.421875 160.425781 145.429688 161.15625 C 147.085938 162.363281 148.796875 163.773438 150.105469 165.253906 C 150.75 165.980469 151.285156 166.714844 151.636719 167.472656 C 151.980469 168.222656 152.152344 169.042969 151.902344 169.820312 C 151.769531 170.238281 151.320312 170.46875 150.902344 170.335938 C 150.484375 170.203125 150.253906 169.753906 150.386719 169.335938 C 150.472656 169.066406 150.429688 168.660156 150.191406 168.140625 C 149.9375 167.589844 149.488281 166.957031 148.914062 166.308594 C 147.726562 164.960938 146.085938 163.605469 144.492188 162.441406 C 143.519531 161.734375 142.625 161.140625 142.167969 160.914062 C 142.074219 160.871094 142.144531 160.882812 142.078125 160.871094 C 142.058594 160.867188 142.253906 160.875 142.199219 160.878906 C 142.152344 160.878906 142.457031 160.824219 142.378906 160.847656 C 142.320312 160.867188 142.648438 160.707031 142.578125 160.753906 C 142.46875 160.824219 142.898438 160.320312 142.839844 160.441406 C 142.785156 160.5625 142.910156 160.046875 142.910156 160.128906 C 142.910156 160.222656 142.867188 159.898438 142.878906 159.9375 C 142.898438 160 142.847656 159.863281 142.851562 159.867188 C 142.875 159.902344 142.992188 160.0625 143.195312 160.28125 "/>
<path style=" stroke:none;fill-rule:nonzero;fill:rgb(0%,45.097351%,23.136902%);fill-opacity:1;" d="M 144.066406 171.042969 C 144.230469 171.449219 144.03125 171.914062 143.625 172.078125 C 143.21875 172.242188 142.753906 172.042969 142.589844 171.636719 C 142.421875 171.222656 142.191406 170.832031 142.019531 170.351562 C 141.84375 169.851562 141.769531 169.214844 141.996094 168.578125 C 142.648438 166.757812 144.726562 165.0625 147.019531 163.203125 C 149.347656 161.316406 151.855469 159.476562 153.542969 157.890625 C 153.863281 157.589844 154.367188 157.605469 154.667969 157.925781 C 154.96875 158.246094 154.953125 158.75 154.632812 159.050781 C 150.933594 162.523438 144.371094 166.667969 143.496094 169.117188 C 143.320312 169.613281 143.648438 170.011719 144.066406 171.042969 "/>
<path style=" stroke:none;fill-rule:nonzero;fill:rgb(92.941284%,21.176147%,14.117432%);fill-opacity:1;" d="M 188.011719 124.558594 C 188.113281 124.871094 187.945312 125.207031 187.632812 125.3125 C 187.316406 125.414062 186.980469 125.242188 186.878906 124.929688 C 186.792969 124.667969 186.734375 124.496094 186.703125 124.398438 C 186.6875 124.359375 186.683594 124.347656 186.671875 124.3125 C 186.578125 123.988281 186.757812 123.65625 187.074219 123.5625 C 187.390625 123.46875 187.722656 123.648438 187.816406 123.964844 C 187.816406 123.96875 187.8125 123.957031 187.8125 123.960938 C 187.820312 123.980469 187.816406 123.976562 187.832031 124.019531 C 187.867188 124.117188 187.925781 124.292969 188.011719 124.558594 M 186.691406 124.359375 C 186.566406 124.054688 186.710938 123.707031 187.015625 123.582031 C 187.324219 123.457031 187.671875 123.605469 187.796875 123.910156 C 187.8125 123.949219 187.808594 123.945312 187.816406 123.96875 C 187.867188 124.105469 187.996094 124.457031 188.183594 124.910156 C 188.902344 126.660156 190.425781 129.628906 191.996094 132.398438 C 192.769531 133.757812 193.519531 135.007812 194.164062 135.957031 C 194.46875 136.40625 194.742188 136.773438 194.960938 137.027344 C 195.0625 137.144531 195.148438 137.226562 195.203125 137.273438 C 195.230469 137.292969 195.234375 137.296875 195.238281 137.296875 C 195.246094 137.304688 195.054688 137.261719 195.128906 137.269531 C 195.457031 137.304688 195.691406 137.597656 195.65625 137.925781 C 195.621094 138.253906 195.328125 138.488281 195 138.453125 C 194.496094 138.402344 194.320312 138.109375 194.0625 137.8125 C 193.789062 137.5 193.496094 137.101562 193.175781 136.625 C 192.503906 135.632812 191.738281 134.363281 190.957031 132.984375 C 189.371094 130.1875 187.839844 127.210938 187.078125 125.363281 C 186.882812 124.890625 186.75 124.523438 186.695312 124.378906 C 186.6875 124.355469 186.703125 124.394531 186.691406 124.359375 "/>
<path style=" stroke:none;fill-rule:nonzero;fill:rgb(92.941284%,21.176147%,14.117432%);fill-opacity:1;" d="M 188.378906 134.976562 C 188.703125 135.027344 188.925781 135.332031 188.875 135.65625 C 188.824219 135.984375 188.519531 136.207031 188.195312 136.15625 C 187.714844 136.082031 187.257812 135.808594 186.890625 135.390625 C 186.519531 134.960938 186.261719 134.320312 186.402344 133.628906 C 186.578125 132.78125 187.273438 132.105469 188.136719 131.425781 C 189.035156 130.71875 190.160156 130.023438 191.382812 129.320312 C 193.875 127.886719 196.636719 126.511719 198.582031 125.226562 C 198.855469 125.042969 199.226562 125.121094 199.40625 125.394531 C 199.589844 125.667969 199.515625 126.039062 199.238281 126.222656 C 197.199219 127.566406 194.433594 128.941406 191.980469 130.355469 C 190.78125 131.042969 189.695312 131.71875 188.875 132.363281 C 188.101562 132.972656 187.636719 133.550781 187.570312 133.871094 C 187.511719 134.15625 187.605469 134.394531 187.789062 134.605469 C 187.976562 134.816406 188.253906 134.957031 188.378906 134.976562 "/>
<path style=" stroke:none;fill-rule:nonzero;fill:rgb(92.941284%,21.176147%,14.117432%);fill-opacity:1;" d="M 188.644531 168.175781 C 188.949219 168.046875 189.300781 168.1875 189.429688 168.488281 C 189.558594 168.792969 189.417969 169.144531 189.113281 169.273438 C 188.925781 169.351562 188.851562 169.449219 188.800781 169.667969 C 188.742188 169.90625 188.761719 170.289062 188.878906 170.746094 C 189.128906 171.722656 189.75 172.949219 190.558594 174.175781 C 192.195312 176.660156 194.515625 178.949219 195.628906 179.152344 C 195.953125 179.210938 196.167969 179.523438 196.109375 179.847656 C 196.050781 180.171875 195.738281 180.386719 195.414062 180.328125 C 194.4375 180.148438 193.476562 179.386719 192.472656 178.402344 C 191.441406 177.390625 190.421875 176.140625 189.5625 174.832031 C 188.707031 173.535156 188.023438 172.226562 187.722656 171.039062 C 187.574219 170.464844 187.515625 169.910156 187.636719 169.394531 C 187.757812 168.875 188.125 168.394531 188.644531 168.175781 "/>
<path style=" stroke:none;fill-rule:nonzero;fill:rgb(92.941284%,21.176147%,14.117432%);fill-opacity:1;" d="M 186.914062 178.515625 C 187.234375 178.582031 187.441406 178.902344 187.375 179.222656 C 187.304688 179.546875 186.988281 179.75 186.664062 179.683594 C 185.886719 179.519531 185.246094 179.1875 184.9375 178.609375 C 184.628906 178.039062 184.730469 177.359375 185 176.746094 C 185.554688 175.476562 186.832031 174.128906 188.453125 172.628906 C 191.855469 169.480469 196.515625 166.0625 200.226562 163.046875 C 200.484375 162.835938 200.859375 162.875 201.066406 163.132812 C 201.277344 163.386719 201.238281 163.761719 200.980469 163.972656 C 197.242188 167.011719 192.589844 170.429688 189.265625 173.503906 C 187.691406 174.960938 186.507812 176.277344 186.089844 177.226562 C 185.90625 177.644531 185.914062 177.90625 185.988281 178.046875 C 186.070312 178.191406 186.328125 178.390625 186.914062 178.515625 "/>
<path style=" stroke:none;fill-rule:nonzero;fill:rgb(0%,45.097351%,23.136902%);fill-opacity:1;" d="M 177.359375 80.683594 C 177.472656 80.875 177.410156 81.117188 177.222656 81.230469 C 177.035156 81.34375 176.789062 81.285156 176.675781 81.09375 C 176.5625 80.90625 176.457031 80.800781 176.386719 80.757812 C 176.324219 80.722656 176.296875 80.71875 176.230469 80.738281 C 176.066406 80.785156 175.742188 81.0625 175.390625 81.558594 C 175.007812 82.085938 174.59375 82.816406 174.128906 83.6875 C 173.648438 84.585938 173.128906 85.621094 172.550781 86.75 C 169.855469 92 165.746094 98.628906 161.828125 103.839844 C 160.578125 105.5 159.363281 106.941406 158.242188 108.167969 C 157.152344 109.363281 156.167969 110.339844 155.339844 111.113281 C 154.554688 111.847656 153.9375 112.375 153.546875 112.703125 C 153.371094 112.851562 153.25 112.953125 153.222656 112.980469 C 153.21875 112.980469 153.234375 112.964844 153.226562 112.972656 C 153.222656 112.980469 153.289062 112.882812 153.265625 112.921875 C 153.257812 112.9375 153.320312 112.777344 153.308594 112.828125 C 153.300781 112.851562 153.324219 112.691406 153.324219 112.730469 C 153.320312 112.773438 153.28125 112.523438 153.300781 112.582031 C 153.320312 112.636719 153.152344 112.386719 153.199219 112.425781 C 153.242188 112.46875 153.027344 112.332031 153.070312 112.34375 C 153.144531 112.375 152.871094 112.320312 152.90625 112.320312 C 152.96875 112.316406 152.789062 112.34375 152.808594 112.339844 C 152.855469 112.324219 152.769531 112.355469 152.777344 112.351562 C 152.789062 112.34375 152.808594 112.332031 152.832031 112.316406 C 153.023438 112.207031 153.265625 112.265625 153.378906 112.457031 C 153.492188 112.644531 153.429688 112.890625 153.238281 113 C 153.183594 113.035156 153.164062 113.054688 153.070312 113.089844 C 153.042969 113.101562 153.015625 113.152344 152.824219 113.101562 C 152.738281 113.078125 152.609375 112.992188 152.558594 112.867188 C 152.472656 112.660156 152.554688 112.566406 152.578125 112.523438 C 152.632812 112.421875 152.652344 112.421875 152.671875 112.402344 C 152.75 112.332031 152.859375 112.242188 153.035156 112.09375 C 153.417969 111.769531 154.023438 111.253906 154.796875 110.53125 C 155.609375 109.773438 156.582031 108.808594 157.652344 107.632812 C 158.757812 106.421875 159.957031 105 161.191406 103.359375 C 165.078125 98.195312 169.171875 91.589844 171.839844 86.386719 C 172.417969 85.257812 172.941406 84.222656 173.425781 83.3125 C 173.898438 82.429688 174.324219 81.675781 174.742188 81.09375 C 175.140625 80.539062 175.519531 80.109375 176.015625 79.972656 C 176.269531 79.902344 176.554688 79.9375 176.789062 80.070312 C 177.019531 80.207031 177.203125 80.421875 177.359375 80.683594 "/>
<path style=" stroke:none;fill-rule:nonzero;fill:rgb(0%,45.097351%,23.136902%);fill-opacity:1;" d="M 151.605469 107.515625 C 151.824219 107.550781 151.96875 107.757812 151.933594 107.972656 C 151.894531 108.191406 151.691406 108.335938 151.472656 108.300781 C 150.980469 108.214844 150.320312 108.480469 149.714844 109.089844 C 149.078125 109.734375 148.519531 110.726562 148.214844 111.96875 C 147.898438 113.292969 147.71875 114.707031 148.070312 115.734375 C 148.332031 116.5 149.0625 117.046875 150.054688 117.234375 C 151.785156 117.558594 154.453125 116.328125 156.234375 114.84375 C 157.058594 114.15625 157.578125 113.3125 157.804688 112.609375 C 157.894531 112.324219 157.964844 112.078125 157.988281 111.886719 C 158.007812 111.710938 157.988281 111.601562 157.925781 111.507812 C 157.738281 111.230469 157.128906 110.972656 156.277344 110.886719 C 155.378906 110.792969 154.289062 110.859375 153.175781 111.046875 C 150.941406 111.429688 148.757812 112.324219 148.171875 113.324219 C 148.0625 113.511719 147.816406 113.578125 147.628906 113.464844 C 147.4375 113.355469 147.375 113.109375 147.488281 112.921875 C 148.335938 111.46875 150.695312 110.664062 153.042969 110.261719 C 154.210938 110.0625 155.363281 109.992188 156.359375 110.09375 C 157.320312 110.191406 158.167969 110.4375 158.585938 111.070312 C 158.773438 111.347656 158.8125 111.679688 158.777344 111.976562 C 158.746094 112.273438 158.65625 112.558594 158.5625 112.851562 C 158.289062 113.707031 157.6875 114.667969 156.742188 115.457031 C 154.835938 117.046875 152.082031 118.425781 149.910156 118.015625 C 148.703125 117.789062 147.683594 117.066406 147.316406 115.992188 C 146.875 114.703125 147.109375 113.167969 147.441406 111.78125 C 147.773438 110.410156 148.394531 109.292969 149.148438 108.53125 C 149.878906 107.792969 150.769531 107.371094 151.605469 107.515625 "/>
<path style=" stroke:none;fill-rule:nonzero;fill:rgb(0%,45.097351%,23.136902%);fill-opacity:1;" d="M 190.394531 58.09375 C 190.214844 58.496094 189.746094 58.679688 189.34375 58.5 C 188.941406 58.324219 188.761719 57.855469 188.9375 57.453125 C 189 57.3125 188.898438 57.867188 188.886719 57.789062 C 188.878906 57.71875 188.933594 57.941406 188.925781 57.917969 C 188.910156 57.886719 188.933594 57.929688 188.90625 57.90625 C 188.84375 57.851562 188.734375 57.796875 188.636719 57.796875 C 188.585938 57.792969 188.363281 57.855469 188.105469 58.167969 C 187.695312 58.65625 187.320312 59.644531 187.242188 60.808594 C 187.164062 62.042969 187.5 63.449219 188.359375 64.546875 C 188.851562 65.179688 189.933594 65.675781 191.011719 66.179688 C 192.167969 66.722656 193.429688 66.914062 194.464844 67.21875 C 194.957031 67.359375 195.378906 67.539062 195.714844 67.855469 C 196.0625 68.175781 196.28125 68.773438 196.117188 69.273438 C 195.839844 70.136719 195.078125 70.632812 194.222656 71.152344 C 193.347656 71.6875 192.308594 72.179688 191.265625 72.636719 C 190.203125 73.101562 189.128906 73.488281 188.128906 73.757812 C 187.144531 74.023438 186.246094 74.125 185.488281 74.058594 C 184.820312 73.996094 184.179688 73.660156 183.863281 73.097656 C 183.554688 72.542969 183.570312 71.894531 183.726562 71.277344 C 184.042969 70.015625 184.96875 68.648438 186.3125 67.300781 C 186.625 66.992188 187.128906 66.992188 187.4375 67.300781 C 187.75 67.613281 187.75 68.117188 187.4375 68.425781 C 186.234375 69.632812 185.476562 70.84375 185.269531 71.667969 C 185.175781 72.035156 185.214844 72.253906 185.253906 72.324219 C 185.285156 72.378906 185.332031 72.445312 185.628906 72.472656 C 186.140625 72.519531 186.878906 72.449219 187.714844 72.222656 C 188.625 71.976562 189.632812 71.617188 190.625 71.179688 C 191.632812 70.738281 192.621094 70.265625 193.398438 69.796875 C 194.132812 69.347656 194.578125 68.867188 194.605469 68.785156 C 194.617188 68.75 194.625 69.023438 194.605469 68.960938 C 194.589844 68.90625 194.648438 69.035156 194.632812 69.019531 C 194.578125 68.96875 194.363281 68.84375 194.019531 68.742188 C 193.132812 68.484375 191.738281 68.277344 190.335938 67.621094 C 189.277344 67.125 187.957031 66.621094 187.101562 65.527344 C 185.972656 64.078125 185.554688 62.296875 185.65625 60.707031 C 185.75 59.269531 186.167969 58 186.886719 57.144531 C 187.367188 56.570312 187.992188 56.1875 188.675781 56.203125 C 189.210938 56.21875 189.652344 56.4375 189.964844 56.71875 C 190.121094 56.859375 190.25 57.011719 190.347656 57.210938 C 190.449219 57.414062 190.558594 57.714844 190.394531 58.09375 "/>
<path style=" stroke:none;fill-rule:nonzero;fill:rgb(0%,45.097351%,23.136902%);fill-opacity:1;" d="M 196.007812 37.519531 C 196.195312 37.917969 196.019531 38.390625 195.621094 38.578125 C 195.222656 38.761719 194.75 38.585938 194.566406 38.1875 C 194.511719 38.070312 194.320312 37.796875 194.171875 37.664062 C 194.109375 37.609375 194.242188 37.644531 194.152344 37.625 C 194.097656 37.613281 194.511719 37.574219 194.410156 37.609375 C 194.304688 37.644531 194.671875 37.40625 194.632812 37.453125 C 194.597656 37.5 194.671875 37.390625 194.667969 37.40625 C 194.640625 37.484375 194.601562 37.789062 194.601562 38.214844 C 194.601562 38.820312 194.648438 39.628906 194.683594 40.585938 C 194.726562 41.621094 194.664062 42.753906 194.726562 43.988281 C 194.820312 45.757812 195.179688 47.789062 195.527344 49.878906 C 195.960938 52.5 196.367188 55.039062 196.941406 56.964844 C 197.394531 58.492188 198.125 59.398438 198.746094 59.992188 C 199.394531 60.617188 199.921875 60.816406 199.988281 60.816406 C 199.988281 60.816406 199.882812 60.878906 199.886719 60.871094 C 199.894531 60.863281 199.949219 60.738281 199.960938 60.492188 C 199.976562 60.054688 200.347656 59.714844 200.789062 59.730469 C 201.226562 59.75 201.566406 60.117188 201.550781 60.558594 C 201.53125 61 201.445312 61.417969 201.195312 61.777344 C 200.945312 62.140625 200.484375 62.390625 200.042969 62.40625 C 199.183594 62.4375 198.441406 61.90625 197.644531 61.144531 C 196.882812 60.414062 195.957031 59.238281 195.414062 57.417969 C 194.796875 55.339844 194.390625 52.761719 193.957031 50.140625 C 193.613281 48.054688 193.238281 45.976562 193.140625 44.070312 C 193.070312 42.742188 193.132812 41.585938 193.09375 40.648438 C 193.058594 39.707031 193.007812 38.890625 193.011719 38.210938 C 193.011719 37.5625 192.953125 37.019531 193.378906 36.476562 C 193.632812 36.152344 194.148438 35.992188 194.503906 36.074219 C 194.835938 36.148438 195.050781 36.316406 195.234375 36.476562 C 195.589844 36.800781 195.84375 37.164062 196.007812 37.519531 "/>
<path style=" stroke:none;fill-rule:nonzero;fill:rgb(0%,45.097351%,23.136902%);fill-opacity:1;" d="M 195.1875 54.511719 C 195.597656 54.671875 195.796875 55.132812 195.636719 55.542969 C 195.480469 55.949219 195.015625 56.152344 194.609375 55.992188 C 194.3125 55.878906 194.019531 55.703125 193.824219 55.382812 C 193.625 55.058594 193.625 54.636719 193.726562 54.335938 C 193.925781 53.753906 194.355469 53.386719 194.863281 52.984375 C 195.929688 52.132812 197.488281 51.25 199.210938 50.316406 C 202.714844 48.40625 206.617188 46.464844 207.382812 45.511719 C 207.65625 45.167969 208.15625 45.113281 208.5 45.386719 C 208.84375 45.660156 208.898438 46.160156 208.625 46.503906 C 207.953125 47.347656 206.691406 48.054688 205.140625 48.925781 C 203.535156 49.824219 201.695312 50.773438 199.96875 51.710938 C 198.273438 52.636719 196.757812 53.507812 195.855469 54.226562 C 195.445312 54.554688 195.234375 54.847656 195.230469 54.851562 C 195.226562 54.863281 195.238281 54.6875 195.242188 54.746094 C 195.25 54.839844 195.097656 54.457031 195.140625 54.5 C 195.171875 54.53125 195.117188 54.484375 195.1875 54.511719 "/>
<path style=" stroke:none;fill-rule:nonzero;fill:rgb(0%,45.097351%,23.136902%);fill-opacity:1;" d="M 207.671875 46.773438 C 208.109375 46.738281 208.492188 47.066406 208.523438 47.503906 C 208.558594 47.941406 208.230469 48.324219 207.789062 48.359375 C 207.253906 48.398438 206.9375 48.5 206.757812 48.632812 C 206.582031 48.757812 206.429688 48.984375 206.285156 49.464844 C 206.136719 49.960938 206.023438 50.679688 205.921875 51.542969 C 205.808594 52.527344 205.683594 53.605469 205.65625 54.535156 C 205.636719 55.113281 205.683594 55.585938 205.769531 55.875 C 205.808594 56.003906 205.851562 56.082031 205.867188 56.105469 C 205.878906 56.117188 205.753906 56.058594 205.796875 56.070312 C 205.851562 56.085938 205.773438 56.074219 205.882812 56.03125 C 206.011719 55.976562 206.199219 55.859375 206.410156 55.6875 C 207.261719 54.984375 208.257812 53.417969 209.046875 51.960938 C 209.464844 51.191406 209.78125 50.460938 209.953125 49.925781 C 210.027344 49.691406 210.058594 49.488281 210.0625 49.363281 C 210.066406 49.308594 210.0625 49.289062 210.0625 49.28125 C 210.058594 49.273438 210.097656 49.390625 210.082031 49.347656 C 210.074219 49.324219 210.148438 49.472656 210.128906 49.4375 C 210.101562 49.398438 210.296875 49.632812 210.238281 49.578125 C 210.152344 49.488281 210.628906 49.792969 210.519531 49.753906 C 210.425781 49.71875 210.863281 49.800781 210.785156 49.800781 C 210.652344 49.796875 211.140625 49.71875 211.074219 49.742188 C 210.984375 49.78125 211.285156 49.621094 211.25 49.648438 C 211.21875 49.671875 211.328125 49.582031 211.3125 49.59375 C 211.261719 49.640625 211.351562 49.550781 211.34375 49.5625 C 211.328125 49.585938 211.285156 49.648438 211.242188 49.730469 C 211.148438 49.90625 211.058594 50.140625 211.035156 50.316406 C 211.023438 50.386719 210.980469 50.054688 211.003906 50.109375 C 211.027344 50.160156 210.914062 50.003906 210.933594 50.015625 C 210.964844 50.039062 210.894531 50 210.898438 50 C 211.035156 49.976562 211.75 49.449219 212.417969 48.511719 C 213.125 47.519531 213.820312 46.203125 214.351562 44.769531 C 214.503906 44.355469 214.960938 44.144531 215.371094 44.296875 C 215.785156 44.449219 215.996094 44.910156 215.84375 45.320312 C 215.265625 46.882812 214.515625 48.308594 213.714844 49.433594 C 212.941406 50.519531 212.199219 51.394531 211.15625 51.570312 C 210.726562 51.640625 210.300781 51.53125 209.972656 51.285156 C 209.644531 51.035156 209.390625 50.582031 209.460938 50.089844 C 209.523438 49.652344 209.679688 49.285156 209.832031 48.988281 C 209.910156 48.847656 209.980469 48.726562 210.0625 48.621094 C 210.097656 48.566406 210.136719 48.515625 210.214844 48.441406 C 210.25 48.410156 210.296875 48.359375 210.421875 48.296875 C 210.566406 48.222656 211.027344 48.113281 211.355469 48.441406 C 211.59375 48.671875 211.601562 48.847656 211.625 48.992188 C 211.652344 49.132812 211.65625 49.269531 211.652344 49.414062 C 211.644531 49.710938 211.585938 50.042969 211.46875 50.414062 C 211.253906 51.078125 210.90625 51.875 210.445312 52.71875 C 209.617188 54.25 208.625 55.925781 207.417969 56.914062 C 207.125 57.160156 206.824219 57.359375 206.5 57.496094 C 206.171875 57.632812 205.792969 57.714844 205.394531 57.609375 C 205.074219 57.527344 204.800781 57.320312 204.613281 57.085938 C 204.433594 56.855469 204.320312 56.59375 204.242188 56.324219 C 204.082031 55.785156 204.042969 55.167969 204.066406 54.488281 C 204.097656 53.460938 204.226562 52.351562 204.34375 51.359375 C 204.449219 50.453125 204.566406 49.671875 204.761719 49.011719 C 204.960938 48.332031 205.289062 47.734375 205.816406 47.347656 C 206.339844 46.964844 206.976562 46.824219 207.671875 46.773438 "/>
<path style=" stroke:none;fill-rule:nonzero;fill:rgb(0%,45.097351%,23.136902%);fill-opacity:1;" d="M 214.699219 25.175781 C 215.035156 24.890625 215.539062 24.933594 215.820312 25.269531 C 216.105469 25.605469 216.0625 26.105469 215.726562 26.390625 C 214.921875 27.074219 214.851562 27.304688 214.839844 28.238281 C 214.832031 29.144531 214.835938 30.296875 215.03125 31.6875 C 215.394531 34.304688 216.050781 37.570312 216.753906 40.054688 C 217.078125 41.207031 217.386719 42.070312 217.621094 42.328125 C 217.679688 42.394531 217.554688 42.363281 217.664062 42.332031 C 217.996094 42.238281 218.890625 41.363281 219.902344 40.417969 C 220.5625 39.800781 221.25 39.167969 221.921875 38.628906 C 222.953125 37.808594 223.988281 37.433594 224.875 37.53125 C 225.25 37.570312 225.644531 37.757812 225.894531 38.070312 C 226.144531 38.378906 226.246094 38.75 226.273438 39.117188 C 226.304688 39.542969 226.429688 40.246094 226.210938 41.058594 C 225.605469 43.296875 223.398438 45.304688 221.316406 46.570312 C 220.3125 47.183594 219.371094 47.632812 218.433594 47.570312 C 217.953125 47.539062 217.390625 47.257812 217.148438 46.75 C 216.914062 46.253906 216.960938 45.710938 217.117188 45.140625 C 217.234375 44.71875 217.671875 44.46875 218.097656 44.585938 C 218.519531 44.699219 218.769531 45.136719 218.652344 45.5625 C 218.554688 45.921875 218.574219 46.042969 218.585938 46.066406 C 218.613281 46.121094 218.449219 45.976562 218.539062 45.984375 C 218.824219 46 219.625 45.738281 220.492188 45.210938 C 222.316406 44.101562 224.269531 42.136719 224.675781 40.644531 C 224.792969 40.199219 224.726562 39.753906 224.6875 39.238281 C 224.675781 39.09375 224.671875 39.089844 224.65625 39.070312 C 224.632812 39.042969 224.738281 39.117188 224.703125 39.113281 C 224.421875 39.082031 223.691406 39.253906 222.914062 39.875 C 222.304688 40.359375 221.640625 40.972656 220.988281 41.582031 C 220.027344 42.480469 219.253906 43.53125 218.105469 43.859375 C 217.539062 44.023438 216.832031 43.828125 216.441406 43.398438 C 215.789062 42.679688 215.554688 41.667969 215.222656 40.484375 C 214.492188 37.90625 213.832031 34.601562 213.457031 31.90625 C 213.246094 30.40625 213.238281 29.152344 213.25 28.21875 C 213.261719 27.0625 213.679688 26.039062 214.699219 25.175781 "/>
<path style=" stroke:none;fill-rule:nonzero;fill:rgb(0%,45.097351%,23.136902%);fill-opacity:1;" d="M 228.453125 19.285156 C 228.890625 19.34375 229.195312 19.746094 229.136719 20.179688 C 229.082031 20.617188 228.679688 20.921875 228.246094 20.863281 C 227.746094 20.796875 227.46875 20.839844 227.441406 20.855469 C 227.441406 20.855469 227.402344 20.839844 227.359375 21.183594 C 227.183594 22.527344 228.175781 25.832031 229.304688 29.21875 C 230.550781 32.964844 231.230469 36.484375 232 37.910156 C 232.113281 38.121094 232.203125 38.195312 232.21875 38.203125 C 232.21875 38.203125 232.199219 38.214844 232.308594 38.183594 C 232.609375 38.09375 233.066406 37.835938 233.597656 37.296875 C 234.921875 35.949219 236.449219 33.554688 237.378906 31.132812 C 237.820312 29.980469 238.023438 28.785156 238.101562 27.746094 C 238.144531 27.148438 238.105469 26.632812 238.019531 26.261719 C 237.980469 26.085938 237.929688 25.953125 237.886719 25.871094 C 237.847656 25.796875 237.910156 25.84375 237.867188 25.816406 C 237.769531 25.75 238.277344 25.90625 238.183594 25.910156 C 238.101562 25.914062 238.335938 25.875 238.324219 25.882812 C 238.316406 25.882812 238.25 25.929688 238.152344 26.039062 C 237.9375 26.273438 237.683594 26.6875 237.503906 27.160156 C 237.277344 27.742188 237.203125 28.59375 237.171875 29.464844 C 237.140625 30.300781 237.109375 31.035156 237.261719 31.585938 C 237.527344 32.539062 238.496094 33.320312 239.929688 33.6875 C 241.429688 34.074219 243.34375 34.003906 245.234375 33.371094 C 245.652344 33.234375 246.105469 33.457031 246.242188 33.875 C 246.382812 34.292969 246.15625 34.742188 245.738281 34.882812 C 243.574219 35.601562 241.375 35.707031 239.53125 35.230469 C 237.730469 34.765625 236.1875 33.660156 235.730469 32.007812 C 235.480469 31.117188 235.550781 30.230469 235.582031 29.40625 C 235.617188 28.484375 235.667969 27.488281 236.019531 26.585938 C 236.265625 25.949219 236.589844 25.394531 236.972656 24.972656 C 237.160156 24.761719 237.363281 24.578125 237.632812 24.449219 C 237.914062 24.3125 238.386719 24.246094 238.761719 24.5 C 239.257812 24.835938 239.441406 25.351562 239.570312 25.902344 C 239.703125 26.46875 239.742188 27.132812 239.6875 27.863281 C 239.601562 29.019531 239.378906 30.363281 238.863281 31.703125 C 237.851562 34.335938 236.269531 36.847656 234.730469 38.414062 C 234.054688 39.101562 233.386719 39.519531 232.765625 39.707031 C 232.355469 39.832031 231.863281 39.816406 231.464844 39.601562 C 231.070312 39.390625 230.804688 39.042969 230.601562 38.667969 C 230.101562 37.746094 229.746094 36.460938 229.316406 34.925781 C 228.878906 33.34375 228.402344 31.546875 227.792969 29.71875 C 227.226562 28.007812 226.679688 26.3125 226.285156 24.78125 C 225.902344 23.292969 225.644531 22.019531 225.78125 20.976562 C 225.859375 20.359375 226.152344 19.722656 226.71875 19.4375 C 227.273438 19.15625 227.84375 19.203125 228.453125 19.285156 "/>
<path style=" stroke:none;fill-rule:nonzero;fill:rgb(92.941284%,21.176147%,14.117432%);fill-opacity:1;" d="M 232.679688 97.203125 C 232.582031 97.519531 232.246094 97.695312 231.933594 97.597656 C 231.617188 97.5 231.441406 97.164062 231.539062 96.847656 C 231.625 96.582031 231.609375 96.363281 231.585938 96.308594 C 231.582031 96.289062 231.679688 96.375 231.636719 96.347656 C 231.589844 96.320312 231.730469 96.371094 231.71875 96.375 C 231.707031 96.375 231.308594 96.667969 230.859375 97.25 C 230.378906 97.871094 229.824219 98.714844 229.203125 99.679688 C 228.503906 100.769531 227.796875 102.113281 226.925781 103.550781 C 225.769531 105.457031 224.402344 107.460938 223.015625 109.335938 C 221.613281 111.234375 220.15625 112.832031 219.09375 113.972656 C 218.648438 114.453125 218.292969 114.824219 217.996094 115.089844 C 217.851562 115.21875 217.722656 115.328125 217.578125 115.410156 C 217.429688 115.5 217.238281 115.609375 216.945312 115.546875 C 216.628906 115.480469 216.433594 115.183594 216.382812 114.992188 C 216.332031 114.808594 216.335938 114.65625 216.34375 114.488281 C 216.363281 114.148438 216.433594 113.742188 216.527344 113.226562 C 216.585938 112.902344 216.894531 112.6875 217.21875 112.746094 C 217.542969 112.804688 217.757812 113.117188 217.699219 113.441406 C 217.609375 113.941406 217.550781 114.324219 217.535156 114.554688 C 217.53125 114.652344 217.527344 114.652344 217.535156 114.683594 C 217.539062 114.703125 217.402344 114.476562 217.457031 114.542969 C 217.519531 114.613281 217.082031 114.355469 217.183594 114.378906 C 217.28125 114.398438 216.949219 114.394531 216.984375 114.382812 C 217.011719 114.375 216.953125 114.394531 216.96875 114.386719 C 217.003906 114.363281 217.089844 114.300781 217.199219 114.203125 C 217.441406 113.984375 217.78125 113.632812 218.222656 113.160156 C 219.273438 112.03125 220.699219 110.464844 222.054688 108.628906 C 223.425781 106.777344 224.769531 104.796875 225.902344 102.933594 C 226.757812 101.527344 227.460938 100.183594 228.199219 99.035156 C 228.824219 98.0625 229.390625 97.195312 229.917969 96.519531 C 230.421875 95.867188 230.820312 95.328125 231.5 95.203125 C 231.746094 95.15625 232.027344 95.191406 232.25 95.324219 C 232.476562 95.460938 232.621094 95.671875 232.703125 95.882812 C 232.859375 96.300781 232.820312 96.75 232.679688 97.203125 "/>
<path style=" stroke:none;fill-rule:nonzero;fill:rgb(92.941284%,21.176147%,14.117432%);fill-opacity:1;" d="M 219.183594 105.476562 C 219.511719 105.445312 219.804688 105.6875 219.832031 106.015625 C 219.863281 106.34375 219.625 106.632812 219.296875 106.664062 C 219.148438 106.679688 219.046875 106.71875 218.898438 106.855469 C 218.730469 107.007812 218.523438 107.28125 218.285156 107.695312 C 218.035156 108.117188 217.75 108.652344 217.417969 109.355469 C 216.863281 110.519531 216.183594 111.910156 215.570312 113.441406 C 215.070312 114.679688 214.625 115.972656 214.269531 117.15625 C 213.765625 118.851562 213.589844 120.164062 213.78125 120.589844 C 213.792969 120.621094 213.800781 120.632812 213.855469 120.65625 C 213.917969 120.6875 214.042969 120.714844 214.214844 120.714844 C 214.589844 120.714844 215.132812 120.589844 215.730469 120.351562 C 217.578125 119.613281 219.917969 117.808594 221.953125 116.03125 C 222.820312 115.269531 223.613281 114.527344 224.234375 113.859375 C 224.917969 113.121094 225.265625 112.503906 225.320312 112.21875 C 225.332031 112.160156 225.382812 112.273438 225.332031 112.246094 C 225.25 112.199219 224.984375 112.132812 224.601562 112.140625 C 222.59375 112.179688 219.273438 113.320312 218.320312 114.554688 C 218.121094 114.816406 217.746094 114.867188 217.484375 114.664062 C 217.222656 114.464844 217.175781 114.089844 217.375 113.828125 C 218.078125 112.917969 219.320312 112.28125 220.660156 111.785156 C 222.011719 111.285156 223.421875 110.96875 224.578125 110.949219 C 225.082031 110.9375 225.535156 110.984375 225.921875 111.207031 C 226.316406 111.429688 226.582031 111.96875 226.492188 112.441406 C 226.363281 113.128906 225.875 113.847656 225.105469 114.671875 C 224.445312 115.386719 223.625 116.152344 222.738281 116.929688 C 220.65625 118.75 218.285156 120.613281 216.171875 121.460938 C 215.480469 121.734375 214.820312 121.910156 214.214844 121.910156 C 213.914062 121.910156 213.617188 121.867188 213.34375 121.738281 C 213.070312 121.605469 212.820312 121.371094 212.691406 121.074219 C 212.214844 120.003906 212.601562 118.578125 213.125 116.816406 C 213.492188 115.597656 213.949219 114.269531 214.460938 112.996094 C 215.097656 111.417969 215.789062 110 216.339844 108.84375 C 216.683594 108.113281 216.988281 107.546875 217.253906 107.09375 C 217.523438 106.625 217.785156 106.253906 218.09375 105.96875 C 218.402344 105.691406 218.789062 105.511719 219.183594 105.476562 "/>
<path style=" stroke:none;fill-rule:nonzero;fill:rgb(92.941284%,21.176147%,14.117432%);fill-opacity:1;" d="M 241.304688 72.066406 C 241.621094 72.152344 241.808594 72.480469 241.722656 72.796875 C 241.632812 73.117188 241.304688 73.300781 240.988281 73.214844 C 240.785156 73.160156 240.628906 73.132812 240.539062 73.132812 C 240.46875 73.136719 240.503906 73.121094 240.492188 73.132812 C 240.480469 73.140625 240.375 73.34375 240.34375 73.921875 C 240.320312 74.375 240.300781 74.921875 240.34375 75.601562 C 240.441406 77.234375 240.789062 79.382812 241.371094 81.539062 C 241.757812 82.980469 242.316406 84.351562 242.882812 85.507812 C 243.59375 86.960938 244.453125 87.761719 245.023438 87.960938 C 245.15625 88.007812 245.25 88 245.390625 87.925781 C 245.550781 87.84375 245.75 87.65625 245.957031 87.371094 C 246.394531 86.75 246.808594 85.753906 247.160156 84.554688 C 247.519531 83.324219 247.847656 81.949219 248.03125 80.417969 C 248.179688 79.152344 248.207031 77.765625 248.179688 76.304688 C 248.132812 73.824219 247.816406 71.265625 247.386719 69.390625 C 247.1875 68.511719 246.960938 67.828125 246.78125 67.515625 C 246.742188 67.449219 246.710938 67.410156 246.703125 67.40625 C 246.703125 67.40625 246.757812 67.441406 246.734375 67.425781 C 246.710938 67.414062 246.914062 67.480469 246.859375 67.472656 C 246.800781 67.460938 247.105469 67.445312 247.046875 67.460938 C 246.960938 67.484375 247.214844 67.355469 247.195312 67.375 C 247.183594 67.386719 247.199219 67.371094 247.183594 67.40625 C 247.03125 67.699219 246.671875 67.816406 246.378906 67.664062 C 246.085938 67.515625 245.96875 67.15625 246.117188 66.863281 C 246.265625 66.578125 246.605469 66.21875 247.0625 66.296875 C 247.492188 66.371094 247.664062 66.660156 247.8125 66.917969 C 248.117188 67.441406 248.335938 68.191406 248.550781 69.125 C 249 71.101562 249.324219 73.710938 249.375 76.28125 C 249.402344 77.773438 249.375 79.214844 249.214844 80.554688 C 249.023438 82.171875 248.675781 83.613281 248.304688 84.890625 C 247.933594 86.164062 247.496094 87.261719 246.929688 88.0625 C 246.652344 88.449219 246.335938 88.777344 245.945312 88.984375 C 245.554688 89.1875 245.066406 89.238281 244.628906 89.085938 C 243.597656 88.726562 242.613281 87.671875 241.808594 86.035156 C 241.214844 84.820312 240.628906 83.382812 240.214844 81.847656 C 239.617188 79.617188 239.257812 77.40625 239.152344 75.671875 C 239.109375 74.9375 239.128906 74.332031 239.152344 73.859375 C 239.1875 73.15625 239.28125 72.574219 239.746094 72.199219 C 239.976562 72.015625 240.273438 71.941406 240.535156 71.941406 C 240.792969 71.941406 241.042969 71.992188 241.304688 72.066406 "/>
<path style=" stroke:none;fill-rule:nonzero;fill:rgb(92.941284%,21.176147%,14.117432%);fill-opacity:1;" d="M 254.273438 73.214844 C 254.582031 73.097656 254.925781 73.257812 255.039062 73.566406 C 255.152344 73.875 254.996094 74.21875 254.6875 74.332031 C 254.53125 74.390625 254.449219 74.464844 254.355469 74.664062 C 254.253906 74.890625 254.175781 75.269531 254.140625 75.792969 C 254.050781 77.082031 254.074219 78.8125 254.367188 80.253906 C 254.558594 81.207031 254.914062 81.960938 255.195312 82.21875 C 255.292969 82.308594 255.367188 82.355469 255.402344 82.367188 C 255.421875 82.375 255.394531 82.375 255.402344 82.371094 C 255.40625 82.371094 255.53125 82.277344 255.675781 82.035156 C 255.832031 81.777344 255.992188 81.410156 256.148438 80.976562 C 256.476562 80.082031 256.773438 78.980469 257.085938 77.914062 C 257.394531 76.855469 257.675781 75.824219 257.945312 74.988281 C 258.101562 74.492188 258.253906 74.09375 258.4375 73.785156 C 258.527344 73.632812 258.617188 73.476562 258.855469 73.351562 C 258.980469 73.28125 259.179688 73.234375 259.375 73.289062 C 259.570312 73.347656 259.699219 73.472656 259.773438 73.578125 C 260.261719 74.273438 259.96875 74.957031 260 75.609375 C 260.035156 76.429688 260.15625 77.378906 260.300781 78.25 C 260.433594 79.0625 260.703125 79.621094 260.988281 79.914062 C 261.25 80.179688 261.503906 80.25 261.8125 80.183594 C 262.144531 80.109375 262.570312 79.828125 262.980469 79.296875 C 263.417969 78.734375 263.828125 77.917969 264.136719 76.867188 C 264.230469 76.550781 264.558594 76.371094 264.875 76.460938 C 265.191406 76.554688 265.375 76.886719 265.28125 77.203125 C 264.9375 78.371094 264.476562 79.320312 263.925781 80.03125 C 263.390625 80.714844 262.761719 81.195312 262.070312 81.347656 C 261.382812 81.5 260.644531 81.269531 260.136719 80.746094 C 259.617188 80.214844 259.285156 79.425781 259.125 78.445312 C 258.972656 77.542969 258.847656 76.554688 258.808594 75.664062 C 258.789062 75.269531 258.808594 74.902344 258.804688 74.613281 C 258.804688 74.476562 258.800781 74.363281 258.789062 74.289062 C 258.777344 74.226562 258.832031 74.3125 258.796875 74.261719 C 258.78125 74.242188 258.917969 74.378906 258.875 74.347656 C 258.835938 74.316406 259.121094 74.457031 259.046875 74.4375 C 258.980469 74.417969 259.335938 74.441406 259.269531 74.453125 C 259.207031 74.460938 259.453125 74.382812 259.417969 74.402344 C 259.351562 74.4375 259.5 74.339844 259.5 74.34375 C 259.496094 74.34375 259.484375 74.363281 259.460938 74.398438 C 259.367188 74.558594 259.226562 74.902344 259.082031 75.351562 C 258.824219 76.148438 258.546875 77.179688 258.230469 78.25 C 257.921875 79.300781 257.621094 80.421875 257.269531 81.386719 C 257.097656 81.859375 256.917969 82.289062 256.699219 82.652344 C 256.484375 83.007812 256.230469 83.339844 255.808594 83.492188 C 255.535156 83.59375 255.226562 83.578125 254.980469 83.484375 C 254.742188 83.394531 254.550781 83.25 254.382812 83.09375 C 253.769531 82.527344 253.417969 81.589844 253.195312 80.488281 C 252.871094 78.886719 252.855469 77.085938 252.949219 75.710938 C 252.992188 75.113281 253.074219 74.601562 253.273438 74.167969 C 253.46875 73.734375 253.832031 73.375 254.273438 73.214844 "/>
<path style=" stroke:none;fill-rule:nonzero;fill:rgb(92.941284%,21.176147%,14.117432%);fill-opacity:1;" d="M 268.691406 66.542969 C 268.839844 66.835938 268.726562 67.195312 268.433594 67.347656 C 268.136719 67.496094 267.777344 67.382812 267.628906 67.089844 C 267.609375 67.050781 267.535156 66.984375 267.460938 66.964844 C 267.394531 66.945312 267.34375 66.945312 267.257812 67.015625 C 267.203125 67.054688 267.066406 67.289062 266.976562 67.652344 C 266.886719 68.042969 266.835938 68.53125 266.820312 69.046875 C 266.792969 70.054688 267.042969 71.207031 267.59375 72.148438 C 268.097656 73.011719 269.304688 73.625 270.253906 74.191406 C 270.667969 74.441406 271.023438 74.640625 271.304688 74.847656 C 271.441406 74.945312 271.570312 75.042969 271.683594 75.21875 C 271.746094 75.316406 271.8125 75.453125 271.8125 75.632812 C 271.8125 75.816406 271.726562 76.003906 271.621094 76.117188 C 271.292969 76.46875 270.933594 76.464844 270.609375 76.492188 C 270.28125 76.519531 269.941406 76.519531 269.632812 76.539062 C 268.53125 76.609375 267.238281 76.613281 266.144531 76.320312 C 265.605469 76.179688 265.097656 75.960938 264.742188 75.546875 C 264.382812 75.125 264.285156 74.46875 264.5 73.875 C 264.613281 73.566406 264.957031 73.40625 265.265625 73.519531 C 265.574219 73.632812 265.734375 73.976562 265.621094 74.285156 C 265.515625 74.574219 265.554688 74.660156 265.648438 74.769531 C 265.761719 74.902344 266.046875 75.058594 266.453125 75.167969 C 267.316406 75.398438 268.527344 75.414062 269.558594 75.347656 C 269.910156 75.328125 270.246094 75.324219 270.507812 75.300781 C 270.628906 75.292969 270.726562 75.277344 270.78125 75.261719 C 270.804688 75.253906 270.808594 75.253906 270.8125 75.253906 C 270.820312 75.25 270.71875 75.335938 270.75 75.304688 C 270.777344 75.269531 270.632812 75.503906 270.660156 75.441406 C 270.683594 75.382812 270.621094 75.703125 270.621094 75.636719 C 270.621094 75.574219 270.660156 75.832031 270.648438 75.792969 C 270.632812 75.753906 270.691406 75.882812 270.683594 75.867188 C 270.652344 75.824219 270.683594 75.871094 270.597656 75.808594 C 270.40625 75.667969 270.0625 75.46875 269.640625 75.21875 C 268.75 74.683594 267.320312 74.046875 266.5625 72.75 C 265.882812 71.585938 265.59375 70.238281 265.628906 69.011719 C 265.644531 68.4375 265.695312 67.878906 265.816406 67.375 C 265.9375 66.878906 266.105469 66.414062 266.503906 66.089844 C 266.882812 65.777344 267.382812 65.703125 267.78125 65.8125 C 268.175781 65.925781 268.503906 66.183594 268.691406 66.542969 "/>
<path style=" stroke:none;fill-rule:nonzero;fill:rgb(92.941284%,21.176147%,14.117432%);fill-opacity:1;" d="M 274.054688 50.617188 C 274.128906 50.9375 273.929688 51.257812 273.609375 51.332031 C 273.289062 51.410156 272.964844 51.207031 272.890625 50.886719 C 272.851562 50.722656 272.8125 50.613281 272.796875 50.585938 C 272.792969 50.578125 272.878906 50.671875 272.835938 50.632812 C 272.816406 50.613281 272.992188 50.726562 272.941406 50.703125 C 272.890625 50.679688 273.195312 50.753906 273.128906 50.75 C 273.0625 50.746094 273.394531 50.695312 273.335938 50.71875 C 273.28125 50.742188 273.496094 50.621094 273.464844 50.644531 C 273.40625 50.691406 273.535156 50.566406 273.535156 50.570312 C 273.53125 50.574219 273.5 50.648438 273.472656 50.765625 C 273.328125 51.417969 273.574219 53.386719 274.023438 55.886719 C 274.414062 58.074219 275.035156 60.648438 275.609375 63.28125 C 276.195312 65.984375 276.652344 68.613281 277.046875 70.585938 C 277.316406 71.945312 277.507812 72.878906 277.628906 73.214844 C 277.640625 73.246094 277.648438 73.261719 277.648438 73.261719 C 277.648438 73.265625 277.625 73.226562 277.632812 73.238281 C 277.644531 73.257812 277.535156 73.132812 277.570312 73.164062 C 277.609375 73.203125 277.273438 73.011719 277.371094 73.046875 C 277.449219 73.074219 277.003906 73.039062 277.097656 73.023438 C 277.167969 73.011719 276.859375 73.121094 276.910156 73.089844 C 276.984375 73.046875 276.726562 73.253906 276.757812 73.21875 C 276.789062 73.183594 276.695312 73.316406 276.707031 73.296875 C 276.726562 73.257812 276.6875 73.339844 276.691406 73.328125 C 276.707031 73.269531 276.734375 73.085938 276.753906 72.820312 C 276.785156 72.492188 277.074219 72.25 277.402344 72.277344 C 277.730469 72.304688 277.972656 72.59375 277.945312 72.925781 C 277.910156 73.308594 277.925781 73.539062 277.765625 73.847656 C 277.71875 73.9375 277.636719 74.09375 277.390625 74.175781 C 277.128906 74.265625 276.855469 74.132812 276.75 74.03125 C 276.566406 73.855469 276.550781 73.742188 276.503906 73.617188 C 276.316406 73.089844 276.144531 72.179688 275.875 70.820312 C 275.476562 68.824219 275.023438 66.207031 274.441406 63.53125 C 273.871094 60.914062 273.25 58.335938 272.847656 56.097656 C 272.617188 54.816406 272.433594 53.671875 272.328125 52.710938 C 272.230469 51.792969 272.183594 51.070312 272.308594 50.507812 C 272.351562 50.316406 272.402344 50.148438 272.496094 49.984375 C 272.542969 49.898438 272.601562 49.808594 272.710938 49.722656 C 272.816406 49.632812 272.996094 49.550781 273.191406 49.558594 C 273.390625 49.570312 273.546875 49.664062 273.644531 49.753906 C 273.742188 49.84375 273.800781 49.933594 273.847656 50.019531 C 273.941406 50.195312 274 50.386719 274.054688 50.617188 "/>
<path style=" stroke:none;fill-rule:nonzero;fill:rgb(92.941284%,21.176147%,14.117432%);fill-opacity:1;" d="M 274.5 63.40625 C 274.820312 63.484375 275.019531 63.804688 274.945312 64.125 C 274.867188 64.445312 274.546875 64.644531 274.226562 64.570312 C 273.984375 64.511719 273.738281 64.480469 273.59375 64.464844 C 273.570312 64.460938 273.632812 64.53125 273.375 64.402344 C 273.082031 64.253906 272.964844 63.894531 273.113281 63.601562 C 273.257812 63.304688 273.617188 63.1875 273.914062 63.335938 C 273.996094 63.378906 273.761719 63.285156 273.78125 63.289062 C 273.828125 63.300781 273.738281 63.28125 273.738281 63.28125 C 273.890625 63.296875 274.179688 63.332031 274.5 63.40625 M 273.867188 64.421875 C 273.558594 64.542969 273.214844 64.394531 273.089844 64.089844 C 272.96875 63.785156 273.117188 63.4375 273.421875 63.3125 C 273.65625 63.21875 273.609375 63.273438 273.628906 63.269531 C 273.671875 63.269531 273.707031 63.269531 273.765625 63.265625 C 273.890625 63.261719 274.078125 63.253906 274.320312 63.234375 C 274.84375 63.191406 275.5625 63.089844 276.371094 62.863281 C 278.269531 62.332031 280.488281 60.804688 282.296875 59.4375 C 283.253906 58.710938 284.003906 57.992188 284.539062 57.496094 C 284.769531 57.28125 284.925781 57.136719 285.125 57.027344 C 285.179688 56.996094 285.242188 56.960938 285.351562 56.941406 C 285.472656 56.914062 285.734375 56.914062 285.929688 57.117188 C 286.117188 57.316406 286.109375 57.519531 286.097656 57.628906 C 286.089844 57.726562 286.066406 57.785156 286.046875 57.835938 C 285.882812 58.269531 285.546875 58.742188 285.230469 59.28125 C 284.707031 60.175781 284.289062 61.214844 283.964844 62.160156 C 283.824219 62.5625 283.71875 62.964844 283.585938 63.472656 C 283.292969 64.605469 282.980469 66.105469 282.941406 67.113281 C 282.933594 67.375 282.941406 67.566406 282.957031 67.621094 C 282.960938 67.636719 282.878906 67.523438 282.917969 67.566406 C 282.960938 67.613281 282.742188 67.472656 282.773438 67.480469 C 282.972656 67.519531 283.148438 67.539062 283.390625 67.433594 C 284.023438 67.160156 284.976562 65.886719 285.84375 64.550781 C 286.414062 63.675781 286.878906 62.714844 287.226562 61.890625 C 287.445312 61.382812 287.554688 60.941406 287.621094 60.609375 C 287.644531 60.488281 287.628906 60.429688 287.628906 60.425781 C 287.628906 60.425781 287.644531 60.464844 287.640625 60.453125 C 287.632812 60.4375 287.71875 60.566406 287.6875 60.527344 C 287.671875 60.507812 287.789062 60.625 287.753906 60.597656 C 287.71875 60.566406 288.042969 60.738281 287.941406 60.703125 C 287.914062 60.695312 288.25 60.726562 288.167969 60.734375 C 288.105469 60.738281 288.433594 60.65625 288.367188 60.6875 C 288.265625 60.730469 288.65625 60.425781 288.605469 60.496094 C 288.550781 60.566406 288.710938 60.257812 288.695312 60.308594 C 288.695312 60.320312 288.679688 60.398438 288.695312 60.421875 C 288.738281 60.480469 288.539062 60.285156 288.574219 60.304688 C 288.601562 60.320312 288.527344 60.285156 288.527344 60.285156 C 288.539062 60.289062 288.59375 60.296875 288.671875 60.292969 C 288.839844 60.292969 289.070312 60.257812 289.289062 60.214844 C 289.980469 60.082031 291 59.203125 291.757812 58.0625 C 292.523438 56.914062 292.984375 55.574219 292.847656 54.6875 C 292.796875 54.363281 293.019531 54.058594 293.34375 54.007812 C 293.671875 53.957031 293.976562 54.179688 294.027344 54.503906 C 294.238281 55.878906 293.625 57.410156 292.753906 58.722656 C 291.886719 60.027344 290.777344 61.140625 289.519531 61.386719 C 289.261719 61.4375 288.976562 61.484375 288.6875 61.488281 C 288.542969 61.488281 288.398438 61.484375 288.238281 61.441406 C 288.074219 61.402344 287.863281 61.316406 287.714844 61.097656 C 287.433594 60.695312 287.460938 60.292969 287.550781 59.980469 C 287.609375 59.765625 288.0625 59.496094 288.300781 59.566406 C 288.527344 59.640625 288.574219 59.726562 288.621094 59.78125 C 288.707031 59.894531 288.742188 59.984375 288.773438 60.085938 C 288.835938 60.296875 288.847656 60.550781 288.789062 60.84375 C 288.714844 61.222656 288.585938 61.753906 288.328125 62.359375 C 287.957031 63.226562 287.46875 64.242188 286.84375 65.203125 C 285.957031 66.570312 285.074219 68.003906 283.863281 68.527344 C 283.34375 68.753906 282.851562 68.714844 282.539062 68.648438 C 282.167969 68.574219 281.875 68.207031 281.800781 67.910156 C 281.726562 67.625 281.738281 67.359375 281.75 67.070312 C 281.796875 65.882812 282.121094 64.359375 282.433594 63.171875 C 282.566406 62.660156 282.679688 62.226562 282.835938 61.773438 C 283.175781 60.78125 283.617188 59.675781 284.203125 58.679688 C 284.53125 58.113281 284.867188 57.578125 284.933594 57.410156 C 284.933594 57.410156 284.90625 57.5625 284.914062 57.5 C 284.917969 57.464844 284.9375 57.734375 284.921875 57.664062 C 284.90625 57.582031 285.15625 58.035156 285.066406 57.941406 C 285.023438 57.894531 285.28125 58.085938 285.226562 58.058594 C 285.144531 58.015625 285.511719 58.121094 285.449219 58.121094 C 285.390625 58.117188 285.621094 58.101562 285.585938 58.109375 C 285.503906 58.125 285.714844 58.0625 285.703125 58.070312 C 285.699219 58.070312 285.554688 58.179688 285.351562 58.367188 C 284.824219 58.859375 284.035156 59.613281 283.015625 60.386719 C 281.164062 61.789062 278.894531 63.394531 276.695312 64.011719 C 275.792969 64.265625 275 64.375 274.421875 64.421875 C 274.152344 64.445312 273.941406 64.453125 273.800781 64.460938 C 273.738281 64.460938 273.699219 64.460938 273.695312 64.460938 C 273.6875 64.460938 273.71875 64.460938 273.707031 64.460938 C 273.699219 64.460938 273.761719 64.453125 273.742188 64.457031 C 273.722656 64.460938 273.941406 64.390625 273.867188 64.421875 "/>
<path style=" stroke:none;fill-rule:nonzero;fill:rgb(92.941284%,21.176147%,14.117432%);fill-opacity:1;" d="M 292.867188 40.71875 C 292.828125 41.046875 292.535156 41.28125 292.207031 41.242188 C 291.878906 41.207031 291.644531 40.910156 291.679688 40.582031 C 291.726562 40.179688 291.695312 39.535156 291.648438 39.28125 C 291.648438 39.265625 291.6875 39.410156 291.671875 39.367188 C 291.664062 39.339844 291.746094 39.507812 291.722656 39.464844 C 291.691406 39.417969 291.96875 39.699219 291.882812 39.636719 C 291.855469 39.621094 292.152344 39.746094 292.082031 39.726562 C 291.957031 39.699219 292.542969 39.664062 292.445312 39.703125 C 292.371094 39.734375 292.648438 39.570312 292.609375 39.605469 C 292.554688 39.652344 292.734375 39.457031 292.714844 39.484375 C 292.695312 39.515625 292.761719 39.398438 292.753906 39.417969 C 292.722656 39.480469 292.777344 39.351562 292.777344 39.351562 C 292.777344 39.355469 292.773438 39.371094 292.769531 39.394531 C 292.75 39.511719 292.726562 39.742188 292.714844 40.058594 C 292.628906 42.148438 292.6875 45.957031 293.210938 49.335938 C 293.445312 50.867188 293.761719 52.234375 294.078125 53.203125 C 294.21875 53.644531 294.386719 53.902344 294.527344 54.027344 C 294.652344 54.136719 294.757812 54.171875 294.941406 54.164062 C 295.363281 54.144531 296.078125 53.785156 296.921875 53.269531 C 297.847656 52.710938 298.820312 52.128906 299.632812 51.695312 C 300.050781 51.472656 300.40625 51.257812 300.855469 51.207031 C 301.003906 51.191406 301.160156 51.179688 301.34375 51.210938 C 301.539062 51.242188 301.785156 51.351562 301.941406 51.570312 C 302.152344 51.863281 302.113281 52.144531 302.066406 52.359375 C 302.023438 52.570312 301.945312 52.765625 301.855469 52.96875 C 301.671875 53.382812 301.425781 53.816406 301.207031 54.214844 C 300.113281 56.210938 298.890625 58.003906 297.035156 59.101562 C 296.753906 59.269531 296.386719 59.175781 296.21875 58.890625 C 296.050781 58.609375 296.144531 58.242188 296.429688 58.074219 C 298 57.144531 299.105469 55.566406 300.160156 53.640625 C 300.382812 53.238281 300.613281 52.824219 300.765625 52.484375 C 300.835938 52.328125 300.882812 52.191406 300.898438 52.117188 C 300.90625 52.085938 300.90625 52.113281 300.902344 52.09375 C 300.902344 52.066406 301.027344 52.339844 300.972656 52.261719 C 300.941406 52.222656 301.121094 52.382812 301.082031 52.363281 C 301.046875 52.34375 301.148438 52.386719 301.144531 52.386719 C 301.144531 52.386719 301.082031 52.382812 300.984375 52.394531 C 300.90625 52.402344 300.597656 52.535156 300.191406 52.75 C 299.421875 53.160156 298.460938 53.734375 297.542969 54.289062 C 296.664062 54.824219 295.859375 55.316406 294.992188 55.355469 C 294.558594 55.375 294.085938 55.234375 293.734375 54.917969 C 293.375 54.601562 293.128906 54.140625 292.941406 53.574219 C 292.597656 52.519531 292.273438 51.105469 292.03125 49.519531 C 291.488281 46.019531 291.433594 42.179688 291.523438 40.011719 C 291.539062 39.660156 291.558594 39.398438 291.589844 39.207031 C 291.605469 39.113281 291.601562 39.054688 291.675781 38.902344 C 291.695312 38.859375 291.722656 38.789062 291.835938 38.691406 C 291.972656 38.582031 292.34375 38.515625 292.550781 38.648438 C 292.898438 38.894531 292.8125 39.011719 292.824219 39.074219 C 292.898438 39.5 292.933594 40.144531 292.867188 40.71875 "/>
<path style=" stroke:none;fill-rule:nonzero;fill:rgb(92.941284%,21.176147%,14.117432%);fill-opacity:1;" d="M 302.980469 33.855469 C 303.261719 34.027344 303.34375 34.398438 303.167969 34.675781 C 302.996094 34.957031 302.625 35.039062 302.347656 34.867188 C 302.289062 34.832031 302.257812 34.820312 302.257812 34.820312 C 302.25 34.816406 302.425781 34.789062 302.371094 34.808594 C 302.316406 34.828125 302.484375 34.730469 302.472656 34.742188 C 302.46875 34.746094 302.464844 34.757812 302.445312 34.808594 C 302.355469 35.066406 302.316406 35.71875 302.363281 36.585938 C 302.410156 37.507812 302.5 38.621094 302.675781 39.914062 C 302.972656 42.117188 303.457031 44.703125 303.871094 47.070312 C 304.136719 48.589844 304.296875 49.949219 304.488281 50.992188 C 304.660156 51.945312 304.839844 52.597656 304.992188 52.835938 C 305.046875 52.925781 304.929688 52.871094 304.984375 52.878906 C 305.03125 52.886719 304.972656 52.886719 305.101562 52.808594 C 306.589844 51.886719 309.421875 48.152344 311.589844 44.972656 C 312.433594 43.738281 313.054688 42.683594 313.351562 41.976562 C 313.449219 41.742188 313.484375 41.566406 313.484375 41.507812 C 313.484375 41.5 313.488281 41.519531 313.488281 41.507812 C 313.484375 41.496094 313.527344 41.617188 313.511719 41.582031 C 313.492188 41.542969 313.660156 41.753906 313.609375 41.710938 C 313.558594 41.667969 313.851562 41.824219 313.789062 41.808594 C 313.738281 41.792969 313.921875 41.816406 313.902344 41.820312 C 313.851562 41.824219 313.878906 41.828125 313.777344 41.898438 C 313.628906 42.003906 313.433594 42.1875 313.234375 42.425781 C 312.625 43.167969 312.152344 44.667969 311.9375 46.066406 C 311.832031 46.738281 311.78125 47.328125 311.882812 47.78125 C 311.957031 48.09375 312.179688 48.390625 312.539062 48.648438 C 312.910156 48.917969 313.417969 49.132812 313.972656 49.273438 C 316.125 49.816406 319.207031 48.964844 320.230469 47.761719 C 320.445312 47.507812 320.820312 47.480469 321.070312 47.691406 C 321.324219 47.90625 321.351562 48.28125 321.140625 48.535156 C 320.398438 49.402344 319.179688 49.984375 317.832031 50.328125 C 316.472656 50.671875 314.992188 50.761719 313.679688 50.429688 C 313.011719 50.261719 312.371094 50 311.839844 49.617188 C 311.308594 49.234375 310.875 48.707031 310.722656 48.046875 C 310.554688 47.328125 310.648438 46.597656 310.757812 45.886719 C 310.992188 44.355469 311.445312 42.726562 312.3125 41.667969 C 312.5625 41.363281 312.824219 41.109375 313.09375 40.917969 C 313.359375 40.734375 313.664062 40.539062 314.101562 40.65625 C 314.320312 40.714844 314.507812 40.894531 314.589844 41.070312 C 314.667969 41.238281 314.683594 41.394531 314.679688 41.542969 C 314.671875 41.828125 314.585938 42.113281 314.453125 42.4375 C 314.097656 43.28125 313.445312 44.371094 312.574219 45.644531 C 311.488281 47.238281 310.21875 48.976562 308.976562 50.507812 C 307.761719 52.003906 306.679688 53.234375 305.730469 53.820312 C 305.457031 53.992188 305.132812 54.117188 304.777344 54.054688 C 304.417969 53.992188 304.144531 53.738281 303.976562 53.46875 C 303.644531 52.929688 303.496094 52.199219 303.3125 51.210938 C 303.109375 50.109375 302.953125 48.761719 302.695312 47.277344 C 302.285156 44.917969 301.792969 42.320312 301.492188 40.074219 C 301.3125 38.746094 301.21875 37.59375 301.171875 36.648438 C 301.121094 35.722656 301.117188 34.996094 301.316406 34.417969 C 301.417969 34.128906 301.613281 33.808594 301.980469 33.679688 C 302.347656 33.554688 302.703125 33.679688 302.980469 33.855469 "/>
</g>
</svg>
