<?xml version="1.0" encoding="UTF-8"?>
<svg xmlns="http://www.w3.org/2000/svg" xmlns:xlink="http://www.w3.org/1999/xlink" width="352.56921pt" height="263.6386pt" viewBox="0 0 352.56921 263.6386" version="1.2">
<g id="surface1">
<path style=" stroke:none;fill-rule:nonzero;fill:rgb(7.058716%,1.176453%,46.665955%);fill-opacity:1;" d="M 13.085938 141.371094 C 12.757812 141.371094 12.488281 141.105469 12.488281 140.773438 C 12.488281 140.445312 12.757812 140.179688 13.085938 140.179688 L 242.597656 140.179688 C 242.929688 140.179688 243.195312 140.445312 243.195312 140.773438 C 243.195312 141.105469 242.929688 141.371094 242.597656 141.371094 Z M 13.085938 141.371094 "/>
<path style=" stroke:none;fill-rule:nonzero;fill:rgb(7.058716%,1.176453%,46.665955%);fill-opacity:1;" d="M 244.480469 140.125 C 244.597656 140.433594 244.441406 140.777344 244.132812 140.890625 C 243.824219 141.007812 243.480469 140.847656 243.363281 140.539062 C 242.6875 138.730469 241.382812 137.835938 239.800781 136.960938 C 238.996094 136.515625 238.027344 136.09375 237.058594 135.773438 C 236.519531 135.59375 235.972656 135.445312 235.535156 135.34375 C 235.269531 135.28125 235.058594 135.203125 234.925781 135.164062 C 234.867188 135.148438 234.863281 135.144531 234.847656 135.144531 C 234.835938 135.144531 235.003906 135.128906 234.949219 135.136719 C 234.890625 135.148438 235.238281 134.972656 235.164062 135.035156 C 235.105469 135.082031 235.328125 134.824219 235.296875 134.878906 C 235.25 134.957031 235.375 134.617188 235.367188 134.671875 C 235.359375 134.722656 235.367188 134.527344 235.367188 134.554688 C 235.375 134.621094 235.351562 134.472656 235.351562 134.472656 C 235.355469 134.476562 235.378906 134.53125 235.414062 134.601562 C 235.492188 134.746094 235.605469 134.9375 235.707031 135.136719 C 236.105469 135.917969 236.304688 137.058594 236.46875 138.480469 C 236.640625 139.960938 236.742188 141.695312 236.808594 143.558594 C 236.878906 145.621094 236.828125 147.609375 236.808594 149.089844 C 236.796875 149.785156 236.765625 150.328125 236.800781 150.628906 C 236.828125 150.8125 236.871094 150.957031 236.902344 151.019531 C 236.917969 151.046875 236.890625 151.019531 236.90625 151.035156 C 236.929688 151.054688 236.683594 150.949219 236.757812 150.964844 C 236.820312 150.976562 236.53125 150.96875 236.582031 150.960938 C 236.652344 150.949219 236.40625 151.03125 236.433594 151.011719 C 236.460938 151 236.390625 151.046875 236.394531 151.042969 C 236.398438 151.035156 236.425781 151.007812 236.46875 150.953125 C 236.5625 150.828125 236.675781 150.644531 236.808594 150.460938 C 237.757812 149.152344 239.164062 147.5 240.234375 145.855469 C 240.777344 145.023438 241.390625 144.152344 241.957031 143.335938 C 242.265625 142.890625 242.554688 142.511719 242.722656 142.238281 C 242.800781 142.109375 242.75 141.96875 243.003906 141.636719 C 243.082031 141.535156 243.234375 141.40625 243.433594 141.371094 C 243.632812 141.335938 243.800781 141.394531 243.90625 141.453125 C 244.105469 141.558594 244.214844 141.6875 244.363281 141.847656 C 244.585938 142.09375 244.570312 142.46875 244.324219 142.691406 C 244.082031 142.914062 243.703125 142.898438 243.480469 142.652344 C 243.367188 142.527344 243.390625 142.53125 243.339844 142.503906 C 243.320312 142.492188 243.488281 142.550781 243.441406 142.542969 C 243.390625 142.527344 243.710938 142.535156 243.636719 142.546875 C 243.566406 142.558594 243.902344 142.421875 243.847656 142.460938 C 243.796875 142.496094 243.972656 142.335938 243.953125 142.363281 C 243.917969 142.40625 243.988281 142.300781 243.984375 142.316406 C 243.957031 142.382812 243.894531 142.609375 243.742188 142.855469 C 243.523438 143.222656 243.226562 143.597656 242.941406 144.011719 C 242.371094 144.835938 241.761719 145.699219 241.234375 146.507812 C 240.109375 148.234375 238.683594 149.910156 237.777344 151.164062 C 237.671875 151.304688 237.554688 151.492188 237.421875 151.671875 C 237.351562 151.761719 237.28125 151.851562 237.175781 151.945312 C 237.0625 152.039062 236.867188 152.199219 236.542969 152.136719 C 236.175781 152.070312 235.960938 151.800781 235.839844 151.5625 C 235.71875 151.324219 235.65625 151.0625 235.617188 150.78125 C 235.554688 150.285156 235.605469 149.734375 235.613281 149.074219 C 235.632812 147.582031 235.683594 145.617188 235.613281 143.601562 C 235.550781 141.757812 235.449219 140.046875 235.28125 138.617188 C 235.125 137.253906 234.902344 136.183594 234.644531 135.675781 C 234.566406 135.523438 234.457031 135.339844 234.363281 135.160156 C 234.316406 135.074219 234.269531 134.988281 234.234375 134.886719 C 234.214844 134.832031 234.191406 134.773438 234.179688 134.671875 C 234.167969 134.558594 234.164062 134.3125 234.40625 134.113281 C 234.605469 133.949219 234.824219 133.945312 234.957031 133.957031 C 235.085938 133.96875 235.175781 133.996094 235.269531 134.023438 C 235.441406 134.074219 235.617188 134.136719 235.804688 134.183594 C 236.277344 134.292969 236.851562 134.445312 237.433594 134.640625 C 238.472656 134.984375 239.5 135.433594 240.378906 135.917969 C 242.03125 136.832031 243.675781 137.957031 244.480469 140.125 "/>
<path style=" stroke:none;fill-rule:nonzero;fill:rgb(7.058716%,1.176453%,46.665955%);fill-opacity:1;" d="M 120.125 41.375 C 120.125 41.046875 120.394531 40.777344 120.722656 40.777344 C 121.050781 40.777344 121.320312 41.046875 121.320312 41.375 L 121.320312 246.507812 C 121.320312 246.839844 121.050781 247.105469 120.722656 247.105469 C 120.394531 247.105469 120.125 246.839844 120.125 246.507812 Z M 120.125 41.375 "/>
<path style=" stroke:none;fill-rule:nonzero;fill:rgb(7.058716%,1.176453%,46.665955%);fill-opacity:1;" d="M 121.757812 42.355469 C 121.734375 42.683594 121.445312 42.933594 121.117188 42.910156 C 120.789062 42.886719 120.542969 42.601562 120.566406 42.273438 C 120.585938 42.007812 120.511719 41.78125 120.417969 41.640625 C 120.332031 41.511719 120.25 41.488281 120.234375 41.488281 C 120.199219 41.488281 120.257812 41.480469 120.207031 41.511719 C 120.148438 41.550781 120.058594 41.628906 119.957031 41.742188 C 119.738281 41.980469 119.480469 42.339844 119.199219 42.75 C 118.878906 43.210938 118.523438 43.671875 118.265625 44.0625 C 118.128906 44.273438 118.066406 44.453125 118.066406 44.460938 C 118.0625 44.46875 118.058594 44.335938 118.0625 44.382812 C 118.066406 44.414062 118.015625 44.234375 118.035156 44.277344 C 118.054688 44.324219 117.890625 44.070312 117.9375 44.125 C 117.988281 44.179688 117.6875 43.964844 117.757812 43.996094 C 117.828125 44.023438 117.503906 43.949219 117.5625 43.949219 C 117.625 43.953125 117.410156 43.972656 117.441406 43.964844 C 117.472656 43.957031 117.363281 43.992188 117.378906 43.984375 C 117.492188 43.933594 118.152344 43.160156 118.785156 42.378906 C 119.4375 41.578125 120.058594 40.746094 120.503906 40.027344 C 120.765625 39.605469 120.929688 39.191406 121.136719 38.828125 C 121.261719 38.601562 121.410156 38.367188 121.722656 38.234375 C 121.882812 38.164062 122.085938 38.144531 122.261719 38.1875 C 122.433594 38.230469 122.574219 38.320312 122.683594 38.417969 C 123.425781 39.066406 124.003906 40.285156 124.722656 41.46875 C 125.113281 42.117188 125.601562 42.769531 125.921875 43.4375 C 126.0625 43.726562 126.296875 44.03125 126.21875 44.527344 C 126.148438 44.945312 125.851562 45.207031 125.570312 45.371094 C 125.296875 45.53125 124.992188 45.628906 124.679688 45.699219 C 123.484375 45.972656 122.054688 45.609375 120.6875 45.3125 C 119.898438 45.140625 119.132812 44.976562 118.5 44.808594 C 118.074219 44.699219 117.726562 44.605469 117.484375 44.511719 C 117.425781 44.488281 117.371094 44.472656 117.269531 44.402344 C 117.214844 44.363281 117.109375 44.320312 117.03125 44.082031 C 116.941406 43.808594 117.171875 43.445312 117.3125 43.363281 C 117.714844 43.148438 117.742188 43.277344 117.914062 43.289062 C 118.242188 43.3125 118.488281 43.601562 118.464844 43.929688 C 118.4375 44.257812 118.152344 44.503906 117.824219 44.480469 C 117.757812 44.472656 117.710938 44.472656 117.691406 44.472656 C 117.6875 44.472656 117.730469 44.46875 117.710938 44.472656 C 117.699219 44.472656 117.789062 44.453125 117.765625 44.460938 C 117.734375 44.46875 117.945312 44.378906 117.890625 44.410156 C 117.863281 44.425781 118.039062 44.296875 118 44.332031 C 117.960938 44.367188 118.140625 44.148438 118.105469 44.203125 C 118.046875 44.304688 118.179688 43.714844 118.191406 43.839844 C 118.199219 43.925781 118.097656 43.570312 118.128906 43.625 C 118.167969 43.699219 117.988281 43.449219 118.019531 43.476562 C 118.046875 43.503906 117.9375 43.414062 117.953125 43.425781 C 118.015625 43.46875 117.894531 43.390625 117.917969 43.398438 C 118.042969 43.449219 118.386719 43.546875 118.804688 43.65625 C 119.394531 43.8125 120.152344 43.976562 120.941406 44.144531 C 122.292969 44.441406 123.65625 44.710938 124.414062 44.535156 C 124.644531 44.484375 124.851562 44.410156 124.972656 44.339844 C 125.027344 44.308594 125.058594 44.277344 125.0625 44.273438 C 125.066406 44.269531 125.03125 44.382812 125.039062 44.339844 C 125.046875 44.289062 125.042969 44.386719 125.015625 44.316406 C 124.988281 44.238281 124.921875 44.113281 124.847656 43.957031 C 124.597656 43.4375 124.125 42.789062 123.699219 42.085938 C 122.96875 40.878906 122.292969 39.660156 121.898438 39.316406 C 121.890625 39.308594 122.035156 39.363281 121.972656 39.347656 C 121.90625 39.328125 122.257812 39.300781 122.195312 39.328125 C 122.144531 39.351562 122.261719 39.285156 122.253906 39.296875 C 122.238281 39.308594 122.210938 39.351562 122.175781 39.414062 C 122.027344 39.675781 121.839844 40.140625 121.519531 40.65625 C 121.03125 41.441406 120.386719 42.300781 119.710938 43.132812 C 119.097656 43.890625 118.636719 44.726562 117.875 45.070312 C 117.785156 45.109375 117.675781 45.148438 117.527344 45.144531 C 117.371094 45.140625 117.175781 45.058594 117.054688 44.925781 C 116.820312 44.671875 116.859375 44.4375 116.886719 44.28125 C 116.933594 43.980469 117.066406 43.710938 117.265625 43.410156 C 117.558594 42.964844 117.917969 42.5 118.21875 42.066406 C 118.507812 41.652344 118.78125 41.257812 119.074219 40.9375 C 119.367188 40.617188 119.707031 40.296875 120.222656 40.292969 C 120.726562 40.292969 121.148438 40.589844 121.40625 40.96875 C 121.664062 41.351562 121.792969 41.839844 121.757812 42.355469 "/>
<path style=" stroke:none;fill-rule:nonzero;fill:rgb(7.058716%,1.176453%,46.665955%);fill-opacity:1;" d="M 117.457031 242.492188 C 117.75 242.648438 117.859375 243.007812 117.707031 243.300781 C 117.550781 243.589844 117.191406 243.703125 116.898438 243.546875 C 116.476562 243.324219 116.285156 243.300781 116.25 243.308594 C 116.226562 243.316406 116.386719 243.222656 116.347656 243.257812 C 116.304688 243.292969 116.464844 243.074219 116.445312 243.121094 C 116.425781 243.167969 116.464844 243 116.464844 243.019531 C 116.464844 243.035156 116.460938 243.003906 116.464844 243.015625 C 116.476562 243.046875 117.285156 243.75 118.113281 244.347656 C 119.410156 245.28125 120.484375 246.1875 121.570312 246.710938 C 122.160156 246.996094 122.882812 247.1875 123.527344 247.242188 C 123.925781 247.277344 124.214844 247.144531 124.476562 246.863281 C 124.753906 246.566406 124.972656 246.09375 125.101562 245.542969 C 125.265625 244.832031 125.410156 244.101562 125.296875 243.589844 C 125.230469 243.28125 124.925781 242.964844 124.394531 242.722656 C 123.832031 242.472656 123.085938 242.328125 122.320312 242.3125 C 121.554688 242.296875 120.789062 242.414062 120.1875 242.652344 C 119.613281 242.878906 119.242188 243.207031 119.121094 243.550781 C 119.015625 243.863281 118.675781 244.027344 118.363281 243.917969 C 118.050781 243.8125 117.886719 243.46875 117.996094 243.160156 C 118.269531 242.371094 118.96875 241.851562 119.746094 241.542969 C 120.535156 241.230469 121.441406 241.101562 122.34375 241.117188 C 123.246094 241.136719 124.132812 241.296875 124.886719 241.636719 C 125.628906 241.972656 126.285156 242.53125 126.460938 243.335938 C 126.652344 244.207031 126.433594 245.078125 126.265625 245.8125 C 126.101562 246.511719 125.816406 247.175781 125.351562 247.675781 C 124.882812 248.179688 124.179688 248.5 123.421875 248.433594 C 122.628906 248.363281 121.789062 248.140625 121.050781 247.785156 C 119.78125 247.171875 118.675781 246.222656 117.417969 245.316406 C 116.597656 244.726562 115.640625 244.300781 115.335938 243.398438 C 115.265625 243.1875 115.234375 242.9375 115.335938 242.683594 C 115.4375 242.421875 115.695312 242.21875 115.949219 242.15625 C 116.429688 242.03125 116.902344 242.195312 117.457031 242.492188 "/>
<path style=" stroke:none;fill-rule:nonzero;fill:rgb(7.058716%,1.176453%,46.665955%);fill-opacity:1;" d="M 242.03125 160.503906 C 241.917969 160.8125 241.578125 160.972656 241.265625 160.863281 C 240.957031 160.75 240.796875 160.40625 240.910156 160.097656 C 240.976562 159.914062 241.054688 159.574219 241.078125 159.242188 C 241.097656 158.917969 241.03125 158.644531 240.992188 158.589844 C 240.964844 158.550781 241.097656 158.675781 241.078125 158.664062 C 241.054688 158.652344 241.105469 158.675781 241.09375 158.675781 C 241.066406 158.667969 240.984375 158.667969 240.875 158.6875 C 240.632812 158.726562 240.300781 158.84375 239.976562 159.015625 C 238.804688 159.636719 237.285156 161.597656 235.871094 163.644531 C 235.015625 164.882812 234.242188 166.101562 233.8125 167.089844 C 233.601562 167.566406 233.464844 167.976562 233.417969 168.269531 C 233.398438 168.40625 233.398438 168.503906 233.40625 168.554688 C 233.414062 168.59375 233.359375 168.519531 233.386719 168.546875 C 233.433594 168.589844 233.25 168.46875 233.273438 168.476562 C 233.289062 168.480469 233.257812 168.472656 233.28125 168.472656 C 233.335938 168.472656 233.449219 168.457031 233.59375 168.417969 C 233.894531 168.339844 234.277344 168.183594 234.644531 168.019531 C 235.378906 167.699219 236.246094 166.945312 237.082031 166.171875 C 238.183594 165.152344 239.125 164.15625 239.75 163.261719 C 240.03125 162.855469 240.230469 162.457031 240.386719 162.117188 C 240.492188 161.890625 240.566406 161.691406 240.617188 161.535156 C 240.640625 161.464844 240.660156 161.402344 240.679688 161.34375 C 240.691406 161.316406 240.699219 161.289062 240.722656 161.242188 C 240.746094 161.195312 240.691406 161.101562 241.007812 160.945312 C 241.304688 160.800781 241.664062 160.921875 241.808594 161.21875 C 241.953125 161.515625 241.832031 161.871094 241.535156 162.015625 C 241.449219 162.058594 241.734375 161.859375 241.703125 161.894531 C 241.660156 161.941406 241.792969 161.773438 241.777344 161.792969 C 241.765625 161.8125 241.804688 161.742188 241.800781 161.753906 C 241.789062 161.773438 241.8125 161.726562 241.808594 161.738281 C 241.796875 161.769531 241.777344 161.835938 241.75 161.917969 C 241.6875 162.097656 241.601562 162.339844 241.46875 162.617188 C 241.300781 162.984375 241.070312 163.453125 240.730469 163.945312 C 240.023438 164.949219 239.03125 165.992188 237.894531 167.046875 C 237.035156 167.839844 236.125 168.671875 235.128906 169.113281 C 234.734375 169.285156 234.3125 169.460938 233.898438 169.574219 C 233.691406 169.628906 233.488281 169.667969 233.269531 169.667969 C 233.046875 169.664062 232.769531 169.617188 232.542969 169.390625 C 232.179688 169.027344 232.167969 168.527344 232.238281 168.085938 C 232.3125 167.632812 232.484375 167.144531 232.71875 166.609375 C 233.207031 165.484375 234.015625 164.234375 234.890625 162.96875 C 236.328125 160.882812 237.808594 158.8125 239.421875 157.960938 C 239.835938 157.742188 240.261719 157.578125 240.675781 157.507812 C 240.882812 157.472656 241.089844 157.460938 241.308594 157.5 C 241.523438 157.539062 241.78125 157.648438 241.949219 157.878906 C 242.285156 158.328125 242.296875 158.851562 242.265625 159.316406 C 242.238281 159.777344 242.144531 160.195312 242.03125 160.503906 M 240.949219 161.984375 C 240.671875 161.804688 240.59375 161.433594 240.773438 161.15625 C 240.953125 160.878906 241.320312 160.800781 241.597656 160.980469 C 241.914062 161.183594 241.875 161.386719 241.882812 161.472656 C 241.890625 161.554688 241.886719 161.609375 241.882812 161.664062 C 241.875 161.769531 241.859375 161.878906 241.839844 161.996094 C 241.808594 162.238281 241.769531 162.515625 241.769531 162.773438 C 241.761719 163.886719 242.746094 165.359375 244.070312 166.363281 C 244.726562 166.859375 245.441406 167.230469 246.109375 167.394531 C 246.753906 167.554688 247.328125 167.515625 247.757812 167.269531 C 248.042969 167.105469 248.40625 167.207031 248.570312 167.492188 C 248.734375 167.777344 248.636719 168.144531 248.351562 168.304688 C 247.589844 168.742188 246.679688 168.765625 245.820312 168.554688 C 244.957031 168.339844 244.109375 167.890625 243.347656 167.3125 C 241.816406 166.152344 240.5625 164.480469 240.574219 162.765625 C 240.578125 162.410156 240.625 162.082031 240.660156 161.832031 C 240.675781 161.710938 240.6875 161.617188 240.691406 161.566406 C 240.695312 161.546875 240.699219 161.605469 240.695312 161.574219 C 240.691406 161.554688 240.742188 161.753906 240.71875 161.691406 C 240.707031 161.65625 240.816406 161.867188 240.78125 161.816406 C 240.746094 161.765625 241.027344 162.035156 240.949219 161.984375 "/>
<path style=" stroke:none;fill-rule:nonzero;fill:rgb(7.058716%,1.176453%,46.665955%);fill-opacity:1;" d="M 183.027344 140.773438 C 183.027344 163.636719 170.660156 183.613281 152.246094 194.367188 C 143.070312 199.730469 132.394531 202.800781 121.003906 202.800781 C 98.140625 202.800781 78.164062 190.433594 67.410156 172.019531 C 62.046875 162.84375 58.976562 152.167969 58.976562 140.773438 C 58.976562 117.910156 71.34375 97.9375 89.757812 87.179688 C 98.933594 81.820312 109.609375 78.746094 121.003906 78.746094 C 143.863281 78.746094 163.839844 91.117188 174.597656 109.53125 C 179.957031 118.707031 183.027344 129.382812 183.027344 140.773438 M 179.050781 140.773438 C 179.050781 130.113281 176.175781 120.121094 171.160156 111.535156 C 161.09375 94.304688 142.398438 82.726562 121.003906 82.726562 C 110.339844 82.726562 100.351562 85.601562 91.765625 90.617188 C 74.53125 100.683594 62.953125 119.378906 62.953125 140.773438 C 62.953125 151.4375 65.828125 161.425781 70.84375 170.011719 C 80.910156 187.246094 99.605469 198.824219 121.003906 198.824219 C 131.664062 198.824219 141.652344 195.949219 150.242188 190.933594 C 167.472656 180.867188 179.050781 162.171875 179.050781 140.773438 "/>
<path style=" stroke:none;fill-rule:nonzero;fill:rgb(7.058716%,1.176453%,46.665955%);fill-opacity:1;" d="M 190.175781 93.394531 C 189.882812 93.242188 189.769531 92.882812 189.917969 92.589844 C 190.070312 92.296875 190.429688 92.179688 190.722656 92.332031 C 190.773438 92.359375 190.535156 92.28125 190.578125 92.285156 C 190.640625 92.292969 190.433594 92.292969 190.457031 92.289062 C 190.476562 92.285156 190.433594 92.292969 190.441406 92.292969 C 190.464844 92.28125 190.539062 92.238281 190.628906 92.171875 C 190.816406 92.027344 191.050781 91.808594 191.253906 91.59375 C 191.398438 91.445312 191.5 91.308594 191.53125 91.261719 C 191.535156 91.253906 191.515625 91.296875 191.523438 91.277344 C 191.527344 91.265625 191.492188 91.378906 191.5 91.34375 C 191.511719 91.304688 191.5 91.648438 191.488281 91.546875 C 191.480469 91.488281 191.589844 91.820312 191.550781 91.746094 C 191.519531 91.6875 191.734375 91.964844 191.679688 91.914062 C 191.59375 91.839844 192.042969 92.066406 191.957031 92.050781 C 191.871094 92.035156 192.207031 92.046875 192.15625 92.054688 C 192.085938 92.066406 192.328125 92 192.300781 92.011719 C 192.273438 92.023438 192.355469 91.980469 192.347656 91.984375 C 192.113281 92.136719 191.265625 93.105469 190.210938 94.398438 C 189.097656 95.761719 187.753906 97.441406 186.292969 99.160156 C 184.921875 100.769531 183.5 102.40625 182.292969 103.742188 C 181.640625 104.464844 181.070312 105.039062 180.667969 105.46875 C 180.421875 105.726562 180.253906 105.933594 180.167969 106.054688 C 180.152344 106.082031 180.140625 106.101562 180.132812 106.109375 C 180.132812 106.113281 180.164062 106.027344 180.152344 106.066406 C 180.140625 106.09375 180.179688 105.867188 180.175781 105.9375 C 180.171875 105.972656 180.15625 105.734375 180.167969 105.792969 C 180.179688 105.855469 180.023438 105.5 180.074219 105.578125 C 180.132812 105.664062 179.785156 105.347656 179.867188 105.390625 C 179.929688 105.425781 179.636719 105.320312 179.691406 105.332031 C 179.769531 105.34375 179.457031 105.335938 179.503906 105.328125 C 179.546875 105.324219 179.382812 105.363281 179.40625 105.355469 C 179.578125 105.292969 180.742188 104.238281 181.621094 103.160156 C 181.828125 102.90625 182.207031 102.867188 182.460938 103.078125 C 182.714844 103.285156 182.753906 103.660156 182.546875 103.917969 C 182.078125 104.488281 181.566406 105.046875 181.085938 105.511719 C 180.625 105.960938 180.269531 106.3125 179.8125 106.476562 C 179.757812 106.496094 179.679688 106.523438 179.546875 106.515625 C 179.402344 106.503906 179.191406 106.40625 179.082031 106.242188 C 178.878906 105.945312 178.988281 105.773438 179.019531 105.6875 C 179.070312 105.539062 179.125 105.46875 179.1875 105.375 C 179.324219 105.175781 179.527344 104.9375 179.800781 104.648438 C 180.21875 104.203125 180.773438 103.644531 181.40625 102.945312 C 182.601562 101.617188 184.019531 99.988281 185.382812 98.386719 C 186.832031 96.683594 188.167969 95.011719 189.285156 93.640625 C 189.824219 92.980469 190.300781 92.40625 190.707031 91.945312 C 191.09375 91.507812 191.378906 91.1875 191.699219 90.984375 C 191.75 90.949219 191.808594 90.902344 191.972656 90.875 C 192.074219 90.859375 192.246094 90.859375 192.410156 90.972656 C 192.582031 91.089844 192.660156 91.285156 192.671875 91.40625 C 192.71875 91.796875 192.59375 91.808594 192.542969 91.890625 C 192.441406 92.054688 192.304688 92.222656 192.121094 92.417969 C 191.882812 92.664062 191.621094 92.917969 191.34375 93.125 C 191.210938 93.226562 191.074219 93.320312 190.910156 93.390625 C 190.738281 93.460938 190.484375 93.550781 190.175781 93.394531 "/>
<path style=" stroke:none;fill-rule:nonzero;fill:rgb(7.058716%,1.176453%,46.665955%);fill-opacity:1;" d="M 184.382812 95.730469 C 184.691406 95.84375 184.851562 96.1875 184.738281 96.496094 C 184.625 96.804688 184.28125 96.964844 183.972656 96.851562 C 183.792969 96.785156 183.785156 96.796875 183.707031 96.851562 C 183.601562 96.917969 183.421875 97.128906 183.199219 97.472656 C 182.96875 97.828125 182.691406 98.25 182.359375 98.796875 C 181.3125 100.519531 179.734375 102.6875 178.722656 104.832031 C 178.167969 106.011719 177.871094 107.164062 177.777344 108.070312 C 177.730469 108.496094 177.800781 108.8125 177.933594 109.046875 C 178.0625 109.273438 178.265625 109.449219 178.554688 109.574219 C 179.160156 109.839844 180.125 109.84375 181.15625 109.539062 C 182.910156 109.015625 184.675781 107.671875 185.476562 106.402344 C 185.902344 105.734375 185.972656 105.09375 185.761719 104.5625 C 185.601562 104.160156 185.101562 103.714844 184.390625 103.375 C 183.65625 103.019531 182.753906 102.777344 181.878906 102.675781 C 181.011719 102.578125 180.199219 102.628906 179.664062 102.820312 C 179.417969 102.910156 179.25 103.023438 179.164062 103.128906 C 179.085938 103.226562 179.050781 103.316406 179.066406 103.484375 C 179.097656 103.8125 178.855469 104.101562 178.527344 104.132812 C 178.199219 104.164062 177.910156 103.921875 177.878906 103.59375 C 177.835938 103.144531 177.972656 102.699219 178.242188 102.371094 C 178.503906 102.050781 178.867188 101.839844 179.261719 101.699219 C 180.058594 101.414062 181.019531 101.378906 182.011719 101.492188 C 183.011719 101.605469 184.03125 101.871094 184.910156 102.296875 C 185.78125 102.71875 186.542969 103.296875 186.871094 104.125 C 187.234375 105.042969 187.074219 106.113281 186.488281 107.039062 C 185.484375 108.621094 183.558594 110.070312 181.496094 110.683594 C 180.269531 111.046875 179.050781 111.097656 178.074219 110.667969 C 177.589844 110.457031 177.164062 110.105469 176.894531 109.636719 C 176.625 109.160156 176.523438 108.574219 176.589844 107.945312 C 176.699219 106.894531 177.03125 105.628906 177.644531 104.324219 C 178.722656 102.039062 180.332031 99.835938 181.339844 98.175781 C 181.683594 97.609375 181.96875 97.171875 182.195312 96.824219 C 182.449219 96.433594 182.691406 96.085938 183.054688 95.851562 C 183.425781 95.609375 183.945312 95.570312 184.382812 95.730469 "/>
<path style=" stroke:none;fill-rule:nonzero;fill:rgb(7.058716%,1.176453%,46.665955%);fill-opacity:1;" d="M 204.0625 83.511719 C 204.390625 83.492188 204.671875 83.742188 204.691406 84.070312 C 204.714844 84.402344 204.460938 84.683594 204.132812 84.703125 C 203.773438 84.726562 203.472656 84.867188 203.289062 85.023438 C 203.203125 85.101562 203.148438 85.175781 203.125 85.222656 C 203.105469 85.261719 203.101562 85.171875 203.109375 85.214844 C 203.121094 85.261719 203.042969 85.070312 203.0625 85.097656 C 203.078125 85.125 203.007812 85.042969 203.015625 85.050781 C 203.03125 85.058594 203.015625 85.050781 203.054688 85.0625 C 203.148438 85.089844 203.320312 85.109375 203.503906 85.085938 C 204.433594 84.976562 206.429688 83.160156 207.886719 81.089844 C 208.613281 80.0625 209.148438 78.9375 209.414062 77.953125 C 209.632812 77.140625 209.675781 76.480469 209.550781 76.21875 C 209.535156 76.183594 209.460938 76.113281 209.246094 76.0625 C 209.011719 76.011719 208.679688 76.011719 208.332031 76.070312 C 207.265625 76.257812 205.734375 77.363281 204.253906 78.941406 C 202.726562 80.5625 201.285156 82.601562 200.253906 84.660156 C 199.328125 86.503906 198.894531 88.386719 198.890625 89.824219 C 198.886719 91.097656 199.410156 91.8125 200.28125 92.191406 C 201.203125 92.59375 202.570312 92.613281 204.0625 92.316406 C 207.160156 91.703125 210.574219 89.886719 212.292969 87.816406 C 212.503906 87.566406 212.882812 87.53125 213.132812 87.742188 C 213.386719 87.953125 213.421875 88.328125 213.210938 88.582031 C 211.238281 90.957031 207.660156 92.820312 204.292969 93.488281 C 202.652344 93.8125 201.070312 93.835938 199.804688 93.285156 C 198.558594 92.742188 197.691406 91.472656 197.695312 89.820312 C 197.703125 88.160156 198.183594 86.128906 199.1875 84.125 C 200.273438 81.953125 201.773438 79.835938 203.382812 78.121094 C 204.957031 76.449219 206.570312 75.167969 208.128906 74.894531 C 208.597656 74.8125 209.070312 74.800781 209.507812 74.898438 C 209.949219 75 210.410156 75.242188 210.628906 75.710938 C 210.992188 76.476562 210.8125 77.355469 210.566406 78.261719 C 210.257812 79.410156 209.664062 80.640625 208.863281 81.777344 C 208.089844 82.875 207.199219 83.914062 206.289062 84.738281 C 205.40625 85.542969 204.542969 86.164062 203.644531 86.273438 C 203.316406 86.3125 202.996094 86.292969 202.699219 86.203125 C 202.550781 86.15625 202.40625 86.089844 202.269531 85.980469 C 202.128906 85.867188 201.992188 85.691406 201.945312 85.46875 C 201.882812 85.191406 201.945312 84.921875 202.050781 84.703125 C 202.160156 84.480469 202.316406 84.289062 202.507812 84.125 C 202.894531 83.785156 203.4375 83.550781 204.0625 83.511719 "/>
<path style=" stroke:none;fill-rule:nonzero;fill:rgb(7.058716%,1.176453%,46.665955%);fill-opacity:1;" d="M 222.148438 61.898438 C 222.261719 62.207031 222.105469 62.550781 221.796875 62.664062 C 221.488281 62.78125 221.144531 62.621094 221.03125 62.3125 C 220.957031 62.117188 220.894531 61.980469 220.851562 61.90625 C 220.835938 61.875 220.84375 61.882812 220.832031 61.875 C 220.828125 61.867188 220.898438 61.929688 220.875 61.910156 C 220.851562 61.890625 221.050781 61.996094 220.996094 61.976562 C 220.9375 61.957031 221.296875 62 221.214844 62.007812 C 221.152344 62.011719 221.441406 61.9375 221.390625 61.960938 C 221.316406 61.992188 221.578125 61.8125 221.546875 61.847656 C 221.519531 61.878906 221.605469 61.761719 221.597656 61.777344 C 221.578125 61.808594 221.589844 61.800781 221.570312 61.910156 C 221.484375 62.429688 221.480469 63.539062 221.527344 64.890625 C 221.570312 66.167969 221.710938 67.632812 221.71875 69.105469 C 221.726562 71.371094 221.226562 73.445312 220.339844 74.597656 C 220.128906 74.871094 219.875 75.113281 219.535156 75.230469 C 219.183594 75.347656 218.742188 75.261719 218.445312 75.023438 C 217.863281 74.550781 217.597656 73.699219 217.390625 72.4375 C 217.335938 72.113281 217.554688 71.804688 217.882812 71.753906 C 218.207031 71.699219 218.515625 71.917969 218.566406 72.242188 C 218.757812 73.382812 219.070312 73.992188 219.199219 74.09375 C 219.230469 74.121094 219.148438 74.097656 219.152344 74.097656 C 219.167969 74.09375 219.273438 74.027344 219.394531 73.867188 C 219.984375 73.101562 220.535156 71.167969 220.523438 69.109375 C 220.515625 67.707031 220.378906 66.257812 220.335938 64.933594 C 220.285156 63.550781 220.269531 62.4375 220.394531 61.710938 C 220.421875 61.539062 220.453125 61.382812 220.546875 61.210938 C 220.648438 61.019531 221.054688 60.726562 221.40625 60.855469 C 221.714844 60.96875 221.800781 61.15625 221.890625 61.316406 C 221.984375 61.476562 222.0625 61.667969 222.148438 61.898438 "/>
<path style=" stroke:none;fill-rule:nonzero;fill:rgb(7.058716%,1.176453%,46.665955%);fill-opacity:1;" d="M 221.464844 56.949219 C 221.417969 57.273438 221.113281 57.5 220.785156 57.449219 C 220.460938 57.398438 220.238281 57.09375 220.285156 56.769531 C 220.453125 55.679688 220.21875 54.835938 220.203125 53.949219 C 220.1875 53.039062 220.644531 52.042969 221.84375 51.265625 C 222.121094 51.085938 222.488281 51.167969 222.667969 51.445312 C 222.847656 51.71875 222.769531 52.089844 222.492188 52.269531 C 221.515625 52.898438 221.382812 53.308594 221.394531 53.925781 C 221.40625 54.613281 221.667969 55.621094 221.464844 56.949219 "/>
<path style=" stroke:none;fill-rule:nonzero;fill:rgb(7.058716%,1.176453%,46.665955%);fill-opacity:1;" d="M 227.46875 58.726562 C 227.648438 59.003906 227.570312 59.375 227.292969 59.554688 C 227.019531 59.734375 226.648438 59.65625 226.46875 59.378906 C 226.40625 59.285156 226.453125 59.3125 226.410156 59.285156 C 226.378906 59.269531 226.667969 59.34375 226.582031 59.339844 C 226.492188 59.332031 226.902344 59.242188 226.835938 59.28125 C 226.773438 59.316406 226.953125 59.171875 226.941406 59.191406 C 226.914062 59.222656 226.914062 59.25 226.886719 59.398438 C 226.84375 59.636719 226.863281 60.078125 226.894531 60.53125 C 226.9375 61.085938 226.847656 61.503906 226.890625 61.765625 C 226.96875 62.269531 227.144531 62.65625 227.347656 62.792969 C 227.351562 62.796875 227.390625 62.816406 227.53125 62.792969 C 227.6875 62.769531 227.90625 62.691406 228.144531 62.570312 C 228.644531 62.316406 229.195312 61.902344 229.644531 61.476562 C 230.042969 61.101562 230.355469 60.660156 230.644531 60.210938 C 230.890625 59.832031 231.074219 59.414062 231.230469 59.082031 C 231.25 59.046875 231.253906 59.035156 231.253906 59.03125 C 231.257812 59.023438 231.238281 59.128906 231.242188 59.089844 C 231.246094 59.070312 231.25 59.242188 231.242188 59.191406 C 231.242188 59.164062 231.273438 59.339844 231.261719 59.296875 C 231.25 59.25 231.394531 59.539062 231.34375 59.46875 C 231.15625 59.199219 231.226562 58.828125 231.496094 58.640625 C 231.769531 58.453125 232.140625 58.519531 232.328125 58.789062 C 232.507812 59.050781 232.4375 59.144531 232.433594 59.207031 C 232.425781 59.269531 232.414062 59.3125 232.402344 59.351562 C 232.382812 59.433594 232.351562 59.511719 232.308594 59.597656 C 232.164062 59.902344 231.957031 60.378906 231.648438 60.859375 C 231.335938 61.339844 230.96875 61.867188 230.464844 62.34375 C 229.941406 62.835938 229.324219 63.308594 228.683594 63.632812 C 228.371094 63.792969 228.050781 63.917969 227.71875 63.972656 C 227.382812 64.023438 227.003906 64 226.679688 63.78125 C 226.035156 63.347656 225.8125 62.605469 225.710938 61.953125 C 225.625 61.40625 225.730469 60.972656 225.707031 60.617188 C 225.671875 60.152344 225.625 59.652344 225.714844 59.179688 C 225.773438 58.863281 225.789062 58.507812 226.234375 58.25 C 226.476562 58.105469 226.835938 58.148438 227.039062 58.273438 C 227.234375 58.394531 227.351562 58.550781 227.46875 58.726562 M 231.628906 58.566406 C 231.941406 58.457031 232.28125 58.617188 232.394531 58.925781 C 232.503906 59.238281 232.34375 59.578125 232.035156 59.691406 C 231.957031 59.71875 232.234375 59.574219 232.195312 59.601562 C 232.160156 59.628906 232.289062 59.511719 232.269531 59.53125 C 232.226562 59.582031 232.359375 59.390625 232.351562 59.410156 C 232.339844 59.4375 232.359375 59.394531 232.351562 59.421875 C 232.269531 59.785156 232.207031 60.519531 232.308594 61.023438 C 232.332031 61.140625 232.410156 61.257812 232.570312 61.375 C 232.742188 61.503906 233.003906 61.613281 233.320312 61.679688 C 233.976562 61.816406 234.808594 61.753906 235.53125 61.449219 C 236.132812 61.199219 236.65625 60.714844 237.035156 60.078125 C 237.417969 59.433594 237.652344 58.636719 237.679688 57.796875 C 237.714844 56.804688 237.332031 55.648438 236.886719 54.679688 C 236.621094 54.101562 236.292969 53.621094 236.070312 53.382812 C 236.023438 53.332031 235.984375 53.296875 235.972656 53.289062 C 235.96875 53.289062 236.027344 53.316406 236 53.304688 C 235.984375 53.296875 236.09375 53.339844 236.0625 53.328125 C 236.03125 53.320312 236.246094 53.351562 236.191406 53.351562 C 236.136719 53.347656 236.480469 53.285156 236.402344 53.3125 C 236.34375 53.335938 236.621094 53.167969 236.570312 53.210938 C 236.5 53.277344 236.742188 52.945312 236.71875 53.007812 C 236.691406 53.066406 236.757812 52.832031 236.753906 52.867188 C 236.746094 52.921875 236.75 52.777344 236.75 52.785156 C 236.75 52.785156 236.753906 52.796875 236.761719 52.820312 C 236.863281 53.132812 236.6875 53.46875 236.375 53.570312 C 236.0625 53.671875 235.726562 53.496094 235.625 53.183594 C 235.585938 53.0625 235.546875 52.945312 235.5625 52.757812 C 235.582031 52.542969 235.917969 52.148438 236.226562 52.15625 C 236.722656 52.171875 236.785156 52.398438 236.945312 52.570312 C 237.285156 52.9375 237.65625 53.492188 237.972656 54.179688 C 238.460938 55.242188 238.921875 56.535156 238.875 57.839844 C 238.839844 58.871094 238.554688 59.859375 238.058594 60.691406 C 237.570312 61.515625 236.859375 62.191406 235.988281 62.554688 C 235.03125 62.953125 233.984375 63.035156 233.078125 62.847656 C 232.628906 62.753906 232.214844 62.59375 231.867188 62.339844 C 231.519531 62.085938 231.234375 61.714844 231.140625 61.265625 C 230.980469 60.492188 231.066406 59.6875 231.1875 59.15625 C 231.207031 59.066406 231.230469 58.992188 231.269531 58.910156 C 231.289062 58.867188 231.308594 58.820312 231.371094 58.746094 C 231.421875 58.691406 231.476562 58.621094 231.628906 58.566406 "/>
<path style=" stroke:none;fill-rule:nonzero;fill:rgb(7.058716%,1.176453%,46.665955%);fill-opacity:1;" d="M 260.117188 36.558594 C 259.945312 36.277344 260.03125 35.910156 260.3125 35.738281 C 260.59375 35.566406 260.960938 35.652344 261.132812 35.933594 C 261.171875 35.992188 261.230469 36.058594 261.242188 36.257812 C 261.253906 36.5 260.902344 36.882812 260.679688 36.902344 C 260.339844 36.929688 260.3125 36.828125 260.230469 36.78125 C 260.066406 36.691406 259.902344 36.570312 259.722656 36.421875 C 259.507812 36.242188 259.320312 36.035156 259.171875 35.796875 C 259.023438 35.5625 258.882812 35.289062 258.945312 34.914062 C 258.992188 34.640625 259.183594 34.503906 259.292969 34.449219 C 259.394531 34.398438 259.464844 34.382812 259.53125 34.371094 C 259.648438 34.351562 259.753906 34.347656 259.867188 34.34375 C 260.09375 34.339844 260.339844 34.355469 260.558594 34.363281 C 261.976562 34.421875 264.03125 34.351562 265.765625 34.363281 C 266.34375 34.367188 266.894531 34.332031 267.414062 34.363281 C 267.921875 34.398438 268.449219 34.3125 268.925781 34.753906 C 269.167969 34.976562 269.214844 35.359375 269.148438 35.597656 C 269.085938 35.824219 268.972656 35.996094 268.84375 36.167969 C 268.578125 36.515625 268.203125 36.871094 267.761719 37.257812 C 266.839844 38.0625 265.671875 38.941406 264.613281 39.769531 C 263.5625 40.589844 262.679688 41.351562 262.15625 42.078125 C 261.871094 42.472656 261.699219 42.898438 261.652344 43.269531 C 261.609375 43.601562 261.6875 43.902344 261.875 44.203125 C 262.070312 44.511719 262.386719 44.820312 262.789062 45.09375 C 263.613281 45.664062 264.726562 46.074219 265.738281 46.285156 C 266.820312 46.511719 268.089844 46.539062 269.265625 46.507812 C 270.039062 46.488281 270.761719 46.414062 270.902344 46.335938 C 270.910156 46.332031 270.882812 46.355469 270.894531 46.34375 C 270.910156 46.328125 270.824219 46.457031 270.839844 46.421875 C 270.859375 46.382812 270.8125 46.574219 270.8125 46.539062 C 270.8125 46.503906 270.816406 46.59375 270.816406 46.59375 C 270.8125 46.570312 270.664062 46.339844 270.3125 46.035156 C 270.066406 45.816406 270.042969 45.4375 270.257812 45.191406 C 270.476562 44.945312 270.855469 44.917969 271.101562 45.136719 C 271.527344 45.511719 271.828125 45.824219 271.957031 46.234375 C 272.023438 46.445312 272.023438 46.710938 271.917969 46.929688 C 271.816406 47.152344 271.640625 47.292969 271.472656 47.382812 C 270.847656 47.726562 270.085938 47.679688 269.296875 47.699219 C 268.078125 47.734375 266.730469 47.714844 265.496094 47.453125 C 264.351562 47.214844 263.117188 46.769531 262.109375 46.078125 C 261.613281 45.734375 261.171875 45.328125 260.863281 44.835938 C 260.554688 44.339844 260.386719 43.738281 260.46875 43.121094 C 260.542969 42.515625 260.800781 41.917969 261.1875 41.378906 C 261.835938 40.480469 262.796875 39.671875 263.878906 38.828125 C 264.945312 37.996094 266.105469 37.121094 266.976562 36.359375 C 267.390625 35.996094 267.71875 35.671875 267.894531 35.445312 C 267.972656 35.339844 267.996094 35.296875 268 35.28125 C 268.003906 35.265625 268.011719 35.488281 268 35.417969 C 267.984375 35.339844 268.171875 35.683594 268.117188 35.632812 C 268.070312 35.589844 268.117188 35.632812 267.976562 35.613281 C 267.816406 35.585938 267.59375 35.574219 267.339844 35.554688 C 266.925781 35.527344 266.378906 35.5625 265.757812 35.558594 C 264.058594 35.542969 262.003906 35.617188 260.511719 35.558594 C 260.285156 35.546875 260.054688 35.535156 259.882812 35.539062 C 259.804688 35.539062 259.746094 35.546875 259.742188 35.546875 C 259.738281 35.546875 259.898438 35.480469 259.835938 35.511719 C 259.796875 35.53125 260.035156 35.34375 259.976562 35.40625 C 259.917969 35.46875 260.144531 34.988281 260.121094 35.113281 C 260.113281 35.167969 260.121094 35.035156 260.125 35.050781 C 260.132812 35.070312 260.152344 35.113281 260.183594 35.164062 C 260.253906 35.273438 260.367188 35.402344 260.484375 35.5 C 260.625 35.617188 260.761719 35.710938 260.8125 35.742188 C 260.824219 35.75 260.792969 35.734375 260.808594 35.742188 C 260.820312 35.746094 260.722656 35.714844 260.75 35.722656 C 260.785156 35.730469 260.496094 35.71875 260.582031 35.710938 C 260.628906 35.707031 260.339844 35.78125 260.40625 35.753906 C 260.460938 35.730469 260.195312 35.898438 260.25 35.851562 C 260.328125 35.785156 260.046875 36.191406 260.078125 36.105469 C 260.109375 36.019531 260.050781 36.382812 260.046875 36.324219 C 260.042969 36.230469 260.105469 36.539062 260.089844 36.503906 C 260.078125 36.472656 260.121094 36.566406 260.117188 36.558594 "/>
<path style=" stroke:none;fill-rule:nonzero;fill:rgb(7.058716%,1.176453%,46.665955%);fill-opacity:1;" d="M 259.1875 44.03125 C 259.359375 44.3125 259.265625 44.679688 258.984375 44.847656 C 258.703125 45.019531 258.335938 44.929688 258.164062 44.648438 C 257.828125 44.085938 257.621094 43.582031 257.566406 43.101562 C 257.515625 42.628906 257.644531 42.15625 257.925781 41.824219 C 258.476562 41.167969 259.355469 41.019531 260.234375 40.9375 C 262.8125 40.695312 265.898438 40.527344 268.242188 41.558594 C 268.542969 41.691406 268.679688 42.042969 268.546875 42.34375 C 268.414062 42.644531 268.0625 42.78125 267.757812 42.648438 C 265.808594 41.792969 262.859375 41.890625 260.347656 42.125 C 259.582031 42.199219 259.003906 42.394531 258.839844 42.59375 C 258.769531 42.675781 258.730469 42.765625 258.753906 42.972656 C 258.777344 43.207031 258.90625 43.566406 259.1875 44.03125 "/>
<path style=" stroke:none;fill-rule:nonzero;fill:rgb(7.058716%,1.176453%,46.665955%);fill-opacity:1;" d="M 275.941406 42.117188 C 276.167969 42.355469 276.160156 42.734375 275.921875 42.964844 C 275.683594 43.191406 275.308594 43.183594 275.078125 42.945312 C 274.839844 42.695312 274.65625 42.472656 274.53125 42.226562 C 274.410156 41.984375 274.332031 41.65625 274.464844 41.351562 C 274.597656 41.046875 274.859375 40.894531 275.082031 40.8125 C 275.296875 40.734375 275.515625 40.699219 275.75 40.675781 C 276.710938 40.574219 277.933594 40.640625 278.871094 40.386719 C 279.191406 40.296875 279.519531 40.484375 279.605469 40.804688 C 279.691406 41.121094 279.503906 41.449219 279.1875 41.535156 C 277.988281 41.863281 276.683594 41.777344 275.878906 41.863281 C 275.695312 41.882812 275.558594 41.910156 275.492188 41.933594 C 275.46875 41.945312 275.492188 41.925781 275.476562 41.9375 C 275.457031 41.953125 275.585938 41.769531 275.5625 41.828125 C 275.535156 41.882812 275.582031 41.644531 275.585938 41.675781 C 275.589844 41.699219 275.582031 41.65625 275.597656 41.6875 C 275.636719 41.765625 275.746094 41.917969 275.941406 42.117188 "/>
<path style=" stroke:none;fill-rule:nonzero;fill:rgb(7.058716%,1.176453%,46.665955%);fill-opacity:1;" d="M 283.589844 43.433594 C 283.671875 43.113281 284 42.921875 284.316406 43.007812 C 284.636719 43.09375 284.828125 43.417969 284.742188 43.738281 C 284.546875 44.464844 284.578125 45.464844 284.914062 46.378906 C 285.097656 46.878906 285.382812 47.367188 285.558594 47.566406 C 285.566406 47.574219 285.484375 47.503906 285.507812 47.519531 C 285.535156 47.539062 285.339844 47.441406 285.390625 47.460938 C 285.445312 47.476562 285.136719 47.4375 285.207031 47.433594 C 285.273438 47.429688 284.96875 47.503906 285.019531 47.476562 C 285.070312 47.457031 284.886719 47.570312 284.914062 47.550781 C 284.945312 47.519531 284.855469 47.617188 284.859375 47.609375 C 284.863281 47.601562 284.863281 47.605469 284.867188 47.589844 C 284.917969 47.472656 284.992188 47.136719 285.042969 46.667969 C 285.222656 44.914062 285.195312 42.0625 285.871094 39.472656 C 286.175781 38.300781 286.648438 37.226562 287.242188 36.382812 C 287.988281 35.324219 289.164062 34.902344 290.148438 34.882812 C 291.179688 34.863281 292.117188 35.460938 292.582031 36.347656 C 292.914062 36.976562 292.894531 37.691406 292.785156 38.34375 C 292.519531 39.945312 291.085938 41.207031 289.59375 42.105469 C 288.117188 42.988281 286.628906 43.625 285.488281 43.242188 C 285.175781 43.136719 285.011719 42.796875 285.117188 42.484375 C 285.222656 42.171875 285.5625 42.003906 285.875 42.109375 C 286.199219 42.21875 287.660156 41.871094 288.980469 41.082031 C 290.308594 40.28125 291.445312 39.140625 291.609375 38.148438 C 291.691406 37.644531 291.667969 37.167969 291.523438 36.898438 C 291.257812 36.390625 290.742188 36.066406 290.167969 36.078125 C 289.496094 36.089844 288.710938 36.375 288.21875 37.070312 C 287.726562 37.769531 287.300781 38.722656 287.027344 39.773438 C 286.402344 42.160156 286.421875 44.929688 286.230469 46.789062 C 286.175781 47.316406 286.109375 47.722656 285.96875 48.054688 C 285.898438 48.222656 285.816406 48.425781 285.527344 48.558594 C 285.371094 48.632812 285.160156 48.640625 285 48.585938 C 284.839844 48.53125 284.742188 48.441406 284.667969 48.359375 C 284.324219 47.976562 284.023438 47.414062 283.792969 46.789062 C 283.375 45.640625 283.324219 44.429688 283.589844 43.433594 "/>
<path style=" stroke:none;fill-rule:nonzero;fill:rgb(7.058716%,1.176453%,46.665955%);fill-opacity:1;" d="M 294.730469 28.359375 C 294.796875 28.683594 294.589844 28.996094 294.265625 29.0625 C 293.945312 29.128906 293.628906 28.921875 293.5625 28.597656 C 293.496094 28.261719 293.425781 28.039062 293.386719 27.953125 C 293.378906 27.933594 293.378906 27.9375 293.375 27.933594 C 293.371094 27.925781 293.464844 28.023438 293.429688 27.992188 C 293.386719 27.953125 293.734375 28.125 293.632812 28.097656 C 293.527344 28.070312 294.050781 28.039062 293.957031 28.078125 C 293.863281 28.113281 294.15625 27.933594 294.125 27.964844 C 294.097656 27.992188 294.167969 27.90625 294.164062 27.910156 C 294.160156 27.917969 294.152344 27.9375 294.136719 27.988281 C 294.101562 28.105469 294.058594 28.296875 294.023438 28.527344 C 293.902344 29.339844 293.8125 30.535156 293.785156 31.957031 C 293.757812 33.421875 293.792969 35.074219 293.9375 36.765625 C 294.054688 38.109375 294.3125 39.46875 294.542969 40.652344 C 294.800781 41.964844 294.929688 42.929688 295.183594 43.253906 C 295.328125 43.433594 295.503906 43.515625 295.785156 43.535156 C 296.089844 43.550781 296.5 43.472656 296.949219 43.296875 C 297.898438 42.933594 298.964844 42.21875 299.894531 41.417969 C 300.800781 40.640625 301.570312 39.789062 302.148438 39.070312 C 302.496094 38.636719 302.785156 38.300781 302.816406 38.222656 C 302.839844 38.164062 302.824219 38.527344 302.804688 38.453125 C 302.785156 38.382812 302.886719 38.59375 302.871094 38.578125 C 302.851562 38.558594 302.839844 38.558594 302.746094 38.523438 C 302.535156 38.449219 302.191406 38.414062 301.894531 38.460938 C 301.03125 38.59375 300.25 39.351562 299.546875 40.429688 C 299.089844 41.136719 298.664062 41.871094 298.539062 42.460938 C 298.464844 42.816406 298.472656 43.136719 298.523438 43.289062 C 298.527344 43.3125 298.496094 43.269531 298.558594 43.300781 C 298.636719 43.335938 298.78125 43.371094 298.972656 43.382812 C 299.378906 43.410156 299.921875 43.328125 300.433594 43.160156 C 300.984375 42.980469 301.582031 42.570312 302.160156 42.144531 C 302.539062 41.863281 302.882812 41.59375 303.191406 41.351562 C 303.664062 40.976562 304.179688 40.660156 304.796875 40.703125 C 305.519531 40.753906 305.921875 41.203125 306.25 41.296875 C 306.441406 41.355469 306.675781 41.347656 306.953125 41.289062 C 307.210938 41.230469 307.570312 40.96875 307.96875 40.734375 C 308.171875 40.613281 308.351562 40.507812 308.550781 40.433594 C 308.652344 40.398438 308.765625 40.355469 308.945312 40.367188 C 309.042969 40.371094 309.167969 40.398438 309.285156 40.476562 C 309.414062 40.5625 309.507812 40.695312 309.550781 40.816406 C 309.648438 41.109375 309.558594 41.296875 309.503906 41.421875 C 309.449219 41.539062 309.390625 41.636719 309.335938 41.722656 C 309.226562 41.898438 309.132812 42.054688 309.117188 42.097656 C 309.101562 42.15625 309.121094 42.046875 309.148438 42.097656 C 309.175781 42.152344 309.242188 42.21875 309.257812 42.226562 C 309.3125 42.261719 309.039062 42.148438 309.089844 42.160156 C 309.136719 42.167969 308.960938 42.15625 308.984375 42.152344 C 309.023438 42.148438 308.941406 42.164062 308.960938 42.15625 C 309.007812 42.136719 309.113281 42.074219 309.234375 41.992188 C 309.492188 41.8125 309.804688 41.5625 310.101562 41.339844 C 310.996094 40.671875 311.804688 40.039062 312.660156 39.859375 C 312.984375 39.789062 313.289062 39.90625 313.488281 40.023438 C 313.679688 40.132812 313.828125 40.253906 314.007812 40.367188 C 314.386719 40.605469 314.886719 40.855469 315.425781 41.011719 C 315.992188 41.175781 316.773438 41.105469 317.535156 40.902344 C 317.929688 40.800781 318.332031 40.570312 318.738281 40.316406 C 319.179688 40.03125 319.574219 39.792969 319.738281 39.628906 C 319.796875 39.570312 319.828125 39.507812 319.835938 39.476562 C 319.839844 39.464844 319.839844 39.488281 319.835938 39.472656 C 319.835938 39.453125 319.933594 39.6875 319.886719 39.613281 C 319.84375 39.542969 320.109375 39.820312 320.050781 39.78125 C 319.964844 39.726562 320.3125 39.875 320.257812 39.867188 C 320.214844 39.859375 320.375 39.871094 320.355469 39.871094 C 320.320312 39.875 320.378906 39.867188 320.34375 39.878906 C 320.261719 39.90625 320.113281 39.972656 319.949219 40.0625 C 319.601562 40.246094 319.203125 40.511719 318.925781 40.75 C 318.617188 41.019531 318.46875 41.351562 318.472656 41.574219 C 318.476562 41.796875 318.539062 41.964844 318.730469 42.128906 C 319.292969 42.601562 321.007812 42.832031 322.714844 42.769531 C 324.410156 42.703125 326.046875 42.363281 326.347656 42.171875 C 326.625 41.996094 326.992188 42.078125 327.171875 42.355469 C 327.347656 42.632812 327.265625 43 326.988281 43.179688 C 326.566406 43.449219 326.003906 43.570312 325.285156 43.699219 C 324.539062 43.832031 323.664062 43.925781 322.757812 43.960938 C 320.9375 44.03125 319.058594 43.96875 317.960938 43.039062 C 317.5 42.652344 317.289062 42.09375 317.28125 41.59375 C 317.269531 40.933594 317.617188 40.308594 318.144531 39.847656 C 318.515625 39.527344 318.964844 39.234375 319.382812 39.007812 C 319.589844 38.898438 319.777344 38.808594 319.960938 38.746094 C 320.054688 38.71875 320.144531 38.6875 320.269531 38.679688 C 320.40625 38.671875 320.703125 38.664062 320.902344 38.984375 C 321.078125 39.265625 321.054688 39.53125 320.992188 39.773438 C 320.925781 40.019531 320.792969 40.265625 320.582031 40.476562 C 320.238281 40.816406 319.804688 41.050781 319.378906 41.320312 C 318.9375 41.601562 318.433594 41.902344 317.839844 42.058594 C 316.953125 42.289062 315.984375 42.414062 315.09375 42.15625 C 314.417969 41.964844 313.828125 41.664062 313.371094 41.375 C 313.144531 41.230469 312.980469 41.109375 312.882812 41.050781 C 312.808594 41.007812 312.964844 41.015625 312.910156 41.023438 C 312.488281 41.113281 311.6875 41.648438 310.8125 42.296875 C 310.542969 42.496094 310.226562 42.757812 309.910156 42.976562 C 309.75 43.085938 309.597656 43.183594 309.417969 43.257812 C 309.328125 43.296875 309.226562 43.328125 309.097656 43.34375 C 308.960938 43.355469 308.78125 43.339844 308.609375 43.230469 C 308.390625 43.089844 308.222656 42.898438 308.09375 42.660156 C 307.960938 42.414062 307.867188 42.078125 307.988281 41.71875 C 308.082031 41.4375 308.226562 41.246094 308.324219 41.089844 C 308.371094 41.015625 308.402344 40.957031 308.410156 40.941406 C 308.414062 40.933594 308.394531 41.015625 308.402344 40.980469 C 308.40625 40.960938 308.394531 41.101562 308.394531 41.0625 C 308.394531 41.023438 308.441406 41.257812 308.421875 41.207031 C 308.390625 41.117188 308.71875 41.535156 308.625 41.46875 C 308.539062 41.414062 308.941406 41.5625 308.878906 41.558594 C 308.820312 41.554688 308.984375 41.546875 308.96875 41.550781 C 308.960938 41.554688 308.976562 41.550781 308.96875 41.554688 C 308.90625 41.574219 308.757812 41.652344 308.578125 41.761719 C 308.269531 41.941406 307.832031 42.316406 307.210938 42.453125 C 306.804688 42.542969 306.355469 42.574219 305.910156 42.441406 C 305.25 42.25 304.785156 41.898438 304.710938 41.894531 C 304.515625 41.878906 304.332031 41.96875 303.933594 42.285156 C 303.621094 42.535156 303.265625 42.8125 302.871094 43.101562 C 302.265625 43.550781 301.589844 44.039062 300.804688 44.292969 C 300.167969 44.503906 299.503906 44.613281 298.898438 44.574219 C 298.601562 44.558594 298.308594 44.503906 298.039062 44.375 C 297.769531 44.242188 297.503906 44.003906 297.390625 43.671875 C 297.230469 43.199219 297.269531 42.703125 297.371094 42.214844 C 297.558594 41.335938 298.066406 40.519531 298.546875 39.777344 C 299.332031 38.574219 300.332031 37.496094 301.710938 37.28125 C 302.214844 37.199219 302.714844 37.246094 303.140625 37.398438 C 303.355469 37.472656 303.558594 37.570312 303.738281 37.757812 C 303.921875 37.953125 304.050781 38.34375 303.925781 38.660156 C 303.738281 39.144531 303.386719 39.433594 303.078125 39.816406 C 302.464844 40.582031 301.648438 41.484375 300.675781 42.324219 C 299.667969 43.1875 298.519531 43.972656 297.378906 44.410156 C 296.820312 44.625 296.261719 44.757812 295.714844 44.726562 C 295.167969 44.691406 294.613281 44.453125 294.25 43.996094 C 293.625 43.210938 293.621094 42.136719 293.371094 40.882812 C 293.136719 39.691406 292.871094 38.292969 292.75 36.867188 C 292.601562 35.128906 292.5625 33.4375 292.59375 31.933594 C 292.621094 30.472656 292.710938 29.238281 292.84375 28.351562 C 292.882812 28.082031 292.929688 27.84375 292.996094 27.628906 C 293.03125 27.523438 293.070312 27.425781 293.128906 27.320312 C 293.191406 27.207031 293.28125 27.058594 293.515625 26.96875 C 293.757812 26.871094 294.085938 26.976562 294.230469 27.105469 C 294.363281 27.226562 294.421875 27.34375 294.472656 27.457031 C 294.578125 27.691406 294.652344 27.976562 294.730469 28.359375 "/>
<path style=" stroke:none;fill-rule:nonzero;fill:rgb(7.058716%,1.176453%,46.665955%);fill-opacity:1;" d="M 149.429688 125.226562 C 149.601562 125.507812 149.507812 125.875 149.222656 126.042969 C 148.9375 126.210938 148.574219 126.117188 148.40625 125.835938 C 148.15625 125.417969 147.972656 125.171875 147.960938 125.15625 C 147.957031 125.152344 148.011719 125.199219 147.992188 125.183594 C 147.976562 125.171875 148.113281 125.25 148.074219 125.230469 C 148.039062 125.21875 148.269531 125.285156 148.210938 125.277344 C 148.164062 125.265625 148.441406 125.273438 148.375 125.28125 C 148.277344 125.292969 148.753906 125.09375 148.671875 125.160156 C 148.589844 125.222656 148.859375 124.894531 148.832031 124.957031 C 148.789062 125.046875 148.886719 124.730469 148.882812 124.769531 C 148.878906 124.820312 148.878906 124.6875 148.882812 124.695312 C 148.882812 124.695312 148.882812 124.703125 148.886719 124.71875 C 148.953125 124.980469 149.261719 125.707031 149.667969 126.46875 C 150.390625 127.820312 151.335938 129.257812 152.296875 130.539062 C 152.757812 131.152344 153.191406 131.699219 153.667969 132.125 C 154.011719 132.429688 154.359375 132.6875 154.597656 132.8125 C 154.703125 132.867188 154.683594 132.875 154.730469 132.875 C 154.746094 132.878906 154.609375 132.890625 154.648438 132.882812 C 154.6875 132.875 154.460938 132.96875 154.511719 132.9375 C 154.5625 132.90625 154.34375 133.113281 154.378906 133.0625 C 154.410156 133.015625 154.308594 133.226562 154.316406 133.191406 C 154.402344 132.875 154.730469 132.6875 155.050781 132.773438 C 155.367188 132.859375 155.554688 133.191406 155.46875 133.507812 C 155.421875 133.667969 155.304688 133.851562 155.136719 133.953125 C 154.976562 134.054688 154.808594 134.074219 154.671875 134.070312 C 154.417969 134.054688 154.234375 133.96875 154.042969 133.871094 C 153.660156 133.671875 153.265625 133.367188 152.875 133.019531 C 152.292969 132.5 151.816406 131.886719 151.34375 131.253906 C 150.351562 129.929688 149.375 128.453125 148.613281 127.03125 C 148.179688 126.214844 147.851562 125.5 147.730469 125.007812 C 147.699219 124.890625 147.582031 124.808594 147.753906 124.445312 C 147.863281 124.214844 148.324219 124.058594 148.523438 124.128906 C 148.691406 124.1875 148.746094 124.257812 148.800781 124.308594 C 149.003906 124.507812 149.164062 124.777344 149.429688 125.226562 "/>
<path style=" stroke:none;fill-rule:nonzero;fill:rgb(7.058716%,1.176453%,46.665955%);fill-opacity:1;" d="M 148.890625 132.621094 C 149.050781 132.910156 148.941406 133.273438 148.652344 133.429688 C 148.363281 133.589844 148 133.484375 147.84375 133.191406 C 147.542969 132.640625 147.5625 131.988281 147.773438 131.425781 C 147.988281 130.855469 148.371094 130.324219 148.84375 129.800781 C 149.8125 128.71875 151.15625 127.671875 152.523438 126.640625 C 153.886719 125.617188 155.230469 124.65625 156.195312 123.8125 C 156.652344 123.414062 157.003906 123.050781 157.183594 122.773438 C 157.269531 122.648438 157.308594 122.550781 157.316406 122.507812 C 157.324219 122.476562 157.335938 122.535156 157.328125 122.519531 C 157.164062 122.234375 157.265625 121.867188 157.550781 121.703125 C 157.835938 121.542969 158.203125 121.640625 158.367188 121.925781 C 158.652344 122.429688 158.460938 123.007812 158.179688 123.433594 C 157.894531 123.863281 157.480469 124.277344 156.980469 124.710938 C 155.949219 125.617188 154.589844 126.578125 153.242188 127.59375 C 151.890625 128.609375 150.597656 129.632812 149.734375 130.597656 C 149.320312 131.054688 149.027344 131.488281 148.894531 131.84375 C 148.769531 132.175781 148.773438 132.410156 148.890625 132.621094 "/>
<path style=" stroke:none;fill-rule:nonzero;fill:rgb(7.058716%,1.176453%,46.665955%);fill-opacity:1;" d="M 149.234375 151.921875 C 149.53125 152.058594 149.660156 152.414062 149.523438 152.714844 C 149.382812 153.011719 149.027344 153.144531 148.730469 153.003906 C 148.503906 152.898438 148.402344 152.875 148.382812 152.875 C 148.371094 152.875 148.492188 152.855469 148.457031 152.863281 C 148.417969 152.875 148.644531 152.753906 148.597656 152.792969 C 148.546875 152.832031 148.746094 152.59375 148.71875 152.644531 C 148.691406 152.695312 148.765625 152.480469 148.761719 152.515625 C 148.753906 152.574219 148.761719 152.441406 148.765625 152.457031 C 148.785156 152.535156 148.902344 152.769531 149.078125 153.019531 C 150.585938 155.160156 154.667969 157.957031 155.675781 160.75 C 155.789062 161.058594 155.625 161.402344 155.316406 161.515625 C 155.007812 161.625 154.664062 161.464844 154.554688 161.15625 C 153.800781 159.066406 149.824219 156.148438 148.101562 153.707031 C 147.808594 153.289062 147.496094 152.945312 147.578125 152.355469 C 147.601562 152.1875 147.695312 151.980469 147.863281 151.847656 C 148.03125 151.71875 148.21875 151.683594 148.375 151.683594 C 148.671875 151.679688 148.925781 151.777344 149.234375 151.921875 "/>
<path style=" stroke:none;fill-rule:nonzero;fill:rgb(7.058716%,1.176453%,46.665955%);fill-opacity:1;" d="M 150.019531 159.949219 C 150.050781 160.277344 149.8125 160.570312 149.484375 160.601562 C 149.15625 160.632812 148.863281 160.390625 148.832031 160.0625 C 148.777344 159.460938 148.269531 158.171875 148.996094 156.667969 C 149.96875 154.652344 152.433594 152.621094 154.859375 150.765625 C 156.058594 149.851562 157.21875 149.027344 158.171875 148.359375 C 159.078125 147.726562 159.765625 147.257812 159.972656 147.082031 C 160.226562 146.871094 160.601562 146.902344 160.8125 147.15625 C 161.027344 147.40625 160.992188 147.785156 160.742188 147.996094 C 160.414062 148.273438 159.757812 148.707031 158.855469 149.335938 C 155.878906 151.421875 151.273438 154.695312 150.070312 157.1875 C 149.546875 158.273438 149.933594 159.035156 150.019531 159.949219 "/>
<path style=" stroke:none;fill-rule:nonzero;fill:rgb(7.058716%,1.176453%,46.665955%);fill-opacity:1;" d="M 134.5 44.503906 C 134.550781 44.828125 134.328125 45.132812 134.003906 45.1875 C 133.679688 45.238281 133.371094 45.015625 133.320312 44.691406 C 133.285156 44.460938 133.1875 43.785156 133.097656 43.125 C 133.058594 42.855469 133.035156 42.617188 133.019531 42.441406 C 133.011719 42.363281 133.003906 42.296875 133 42.265625 C 133 42.253906 133.007812 42.304688 133.003906 42.273438 C 133 42.265625 133.019531 42.335938 133.011719 42.316406 C 133.007812 42.292969 133.09375 42.488281 133.058594 42.425781 C 132.902344 42.136719 133.011719 41.777344 133.300781 41.617188 C 133.589844 41.460938 133.953125 41.570312 134.109375 41.859375 C 134.171875 41.976562 134.164062 42.003906 134.171875 42.027344 C 134.179688 42.078125 134.183594 42.101562 134.1875 42.128906 C 134.191406 42.183594 134.199219 42.25 134.207031 42.328125 C 134.222656 42.496094 134.246094 42.714844 134.277344 42.960938 C 134.371094 43.617188 134.46875 44.308594 134.5 44.503906 M 133.042969 41.882812 C 133.1875 41.585938 133.546875 41.460938 133.84375 41.605469 C 134.140625 41.75 134.261719 42.105469 134.117188 42.402344 C 134.113281 42.417969 134.136719 42.359375 134.132812 42.367188 C 134.117188 42.410156 134.152344 42.308594 134.152344 42.3125 C 134.113281 42.511719 134.183594 43.8125 134.179688 45.164062 C 134.171875 46.703125 133.988281 48.390625 133.890625 49.835938 C 133.847656 50.472656 133.847656 51.058594 133.839844 51.648438 C 133.832031 52.171875 133.75 52.648438 133.710938 53.019531 C 133.691406 53.195312 133.683594 53.335938 133.6875 53.421875 C 133.6875 53.457031 133.691406 53.464844 133.691406 53.46875 C 133.695312 53.480469 133.59375 53.332031 133.636719 53.375 C 133.710938 53.460938 133.289062 53.195312 133.371094 53.214844 C 133.449219 53.234375 133.167969 53.207031 133.203125 53.203125 C 133.265625 53.195312 133.152344 53.214844 133.175781 53.203125 C 133.230469 53.179688 133.351562 53.109375 133.492188 53.019531 C 133.792969 52.820312 134.160156 52.542969 134.511719 52.285156 C 136.078125 51.140625 138.335938 50.398438 140.152344 50.542969 C 141.097656 50.613281 141.84375 51.210938 142.257812 51.949219 C 142.671875 52.6875 142.820312 53.570312 142.765625 54.421875 C 142.71875 55.199219 142.328125 55.894531 141.78125 56.453125 C 141.230469 57.011719 140.511719 57.457031 139.710938 57.820312 C 138.085938 58.558594 136.152344 58.949219 134.371094 58.992188 C 133.496094 59.015625 132.667969 58.953125 131.945312 58.773438 C 131.238281 58.597656 130.605469 58.3125 130.191406 57.800781 C 129.777344 57.289062 129.691406 56.523438 129.976562 55.832031 C 130.265625 55.117188 130.875 54.390625 131.792969 53.597656 C 132.042969 53.378906 132.417969 53.40625 132.632812 53.65625 C 132.851562 53.90625 132.824219 54.28125 132.574219 54.5 C 131.742188 55.21875 131.261719 55.835938 131.082031 56.28125 C 130.921875 56.671875 130.96875 56.863281 131.121094 57.050781 C 131.289062 57.257812 131.679688 57.476562 132.234375 57.613281 C 132.820312 57.757812 133.546875 57.820312 134.339844 57.800781 C 135.964844 57.761719 137.773438 57.390625 139.21875 56.734375 C 139.921875 56.414062 140.519531 56.035156 140.933594 55.613281 C 141.328125 55.210938 141.546875 54.785156 141.574219 54.34375 C 141.617188 53.695312 141.488281 53.023438 141.214844 52.53125 C 140.953125 52.058594 140.582031 51.773438 140.058594 51.730469 C 138.65625 51.621094 136.523438 52.296875 135.214844 53.25 C 134.875 53.5 134.5 53.785156 134.152344 54.011719 C 133.980469 54.125 133.824219 54.222656 133.652344 54.296875 C 133.566406 54.335938 133.472656 54.375 133.339844 54.386719 C 133.195312 54.40625 132.933594 54.378906 132.746094 54.171875 C 132.539062 53.941406 132.507812 53.691406 132.496094 53.488281 C 132.484375 53.285156 132.5 53.089844 132.523438 52.886719 C 132.570312 52.480469 132.640625 52.046875 132.644531 51.628906 C 132.65625 51.050781 132.65625 50.4375 132.699219 49.753906 C 132.796875 48.28125 132.976562 46.613281 132.984375 45.160156 C 132.988281 44.460938 132.964844 43.785156 132.953125 43.21875 C 132.941406 42.675781 132.84375 42.371094 133.027344 41.917969 C 133.035156 41.90625 133.039062 41.894531 133.042969 41.882812 "/>
<path style=" stroke:none;fill-rule:nonzero;fill:rgb(7.058716%,1.176453%,46.665955%);fill-opacity:1;" d="M 250.691406 75.257812 C 251.015625 75.320312 251.226562 75.636719 251.164062 75.957031 C 251.097656 76.28125 250.785156 76.492188 250.460938 76.429688 C 249.820312 76.300781 249.375 76.289062 248.972656 75.851562 C 248.894531 75.765625 248.785156 75.589844 248.8125 75.359375 C 248.855469 75.027344 249.078125 74.921875 249.171875 74.875 C 249.253906 74.839844 249.304688 74.828125 249.351562 74.816406 C 249.472656 74.792969 249.578125 74.789062 249.707031 74.785156 C 249.96875 74.773438 250.3125 74.78125 250.71875 74.796875 C 251.5625 74.832031 252.601562 74.910156 253.597656 75.019531 C 254.480469 75.121094 255.421875 75.21875 256.261719 75.363281 C 256.683594 75.433594 257.078125 75.527344 257.457031 75.691406 C 257.773438 75.828125 258.269531 75.8125 258.742188 76.238281 C 259.097656 76.5625 259.125 76.992188 259.105469 77.335938 C 259.082031 77.675781 259 77.996094 258.90625 78.273438 C 258.488281 79.523438 257.117188 80.417969 255.632812 81.378906 C 254.121094 82.355469 252.472656 83.296875 251.289062 84.25 C 250.480469 84.902344 249.855469 85.449219 249.574219 85.890625 C 249.460938 86.066406 249.433594 86.234375 249.453125 86.371094 C 249.472656 86.507812 249.539062 86.617188 249.652344 86.703125 C 250.089844 87.03125 251.96875 86.859375 253.785156 86.753906 C 255.667969 86.648438 257.472656 86.753906 258.945312 86.753906 C 259.5625 86.753906 260.109375 86.765625 260.605469 86.753906 C 261.015625 86.746094 261.398438 86.738281 261.6875 86.71875 C 261.824219 86.707031 261.933594 86.695312 261.988281 86.683594 C 262.011719 86.679688 261.976562 86.691406 261.996094 86.683594 C 262.011719 86.675781 261.898438 86.746094 261.929688 86.722656 C 261.964844 86.699219 261.761719 86.917969 261.804688 86.851562 C 261.855469 86.777344 261.699219 87.230469 261.707031 87.132812 C 261.714844 87.046875 261.75 87.417969 261.734375 87.359375 C 261.699219 87.253906 261.875 87.597656 261.84375 87.558594 C 261.792969 87.5 261.960938 87.667969 261.941406 87.652344 C 261.894531 87.617188 261.984375 87.679688 261.96875 87.671875 C 261.9375 87.65625 261.871094 87.625 261.78125 87.589844 C 261.59375 87.511719 261.332031 87.402344 261.023438 87.28125 C 260.386719 87.023438 259.613281 86.707031 258.921875 86.382812 C 258.625 86.238281 258.496094 85.882812 258.636719 85.585938 C 258.777344 85.289062 259.132812 85.160156 259.433594 85.300781 C 260.082031 85.609375 260.839844 85.917969 261.472656 86.175781 C 261.777344 86.296875 262.042969 86.402344 262.246094 86.488281 C 262.34375 86.53125 262.421875 86.566406 262.492188 86.597656 C 262.53125 86.617188 262.5625 86.632812 262.613281 86.667969 C 262.644531 86.6875 262.679688 86.707031 262.742188 86.777344 C 262.777344 86.816406 262.828125 86.871094 262.867188 86.988281 C 262.910156 87.117188 262.90625 87.347656 262.800781 87.507812 C 262.585938 87.828125 262.386719 87.820312 262.238281 87.851562 C 262.089844 87.882812 261.941406 87.898438 261.773438 87.910156 C 261.433594 87.933594 261.039062 87.9375 260.632812 87.945312 C 260.101562 87.957031 259.546875 87.945312 258.945312 87.945312 C 257.425781 87.949219 255.652344 87.84375 253.851562 87.945312 C 252.984375 87.996094 252.066406 88.101562 251.207031 88.121094 C 250.363281 88.144531 249.558594 88.125 248.9375 87.660156 C 248.578125 87.390625 248.335938 86.984375 248.273438 86.550781 C 248.207031 86.113281 248.3125 85.648438 248.570312 85.246094 C 249.003906 84.570312 249.710938 83.988281 250.542969 83.320312 C 253.164062 81.203125 257.308594 79.28125 257.773438 77.894531 C 257.84375 77.683594 257.902344 77.445312 257.914062 77.261719 C 257.917969 77.175781 257.910156 77.113281 257.90625 77.085938 C 257.898438 77.066406 257.976562 77.15625 257.941406 77.125 C 257.914062 77.097656 257.503906 77.011719 256.980469 76.785156 C 256.726562 76.675781 256.429688 76.601562 256.058594 76.539062 C 255.277344 76.402344 254.351562 76.304688 253.464844 76.207031 C 252.5 76.097656 251.480469 76.023438 250.667969 75.992188 C 250.28125 75.976562 249.957031 75.96875 249.746094 75.976562 C 249.652344 75.980469 249.59375 75.988281 249.589844 75.988281 C 249.585938 75.988281 249.648438 75.96875 249.628906 75.976562 C 249.609375 75.984375 249.753906 75.914062 249.714844 75.9375 C 249.683594 75.957031 249.890625 75.789062 249.839844 75.839844 C 249.800781 75.878906 249.988281 75.59375 249.953125 75.667969 C 249.929688 75.726562 250.007812 75.402344 250 75.472656 C 249.996094 75.578125 249.917969 75.121094 249.953125 75.195312 C 249.984375 75.265625 249.820312 75.007812 249.851562 75.042969 C 249.882812 75.078125 249.789062 74.988281 249.792969 74.992188 C 249.824219 75.011719 250.210938 75.160156 250.691406 75.257812 "/>
<path style=" stroke:none;fill-rule:nonzero;fill:rgb(7.058716%,1.176453%,46.665955%);fill-opacity:1;" d="M 248.988281 81.710938 C 249.300781 81.8125 249.46875 82.152344 249.363281 82.464844 C 249.257812 82.777344 248.921875 82.945312 248.609375 82.839844 C 247.976562 82.628906 247.503906 82.320312 247.28125 81.855469 C 247.171875 81.621094 247.136719 81.347656 247.195312 81.105469 C 247.25 80.863281 247.386719 80.65625 247.550781 80.5 C 247.878906 80.191406 248.273438 80.128906 248.6875 80.085938 C 249.113281 80.042969 249.59375 80.050781 250.121094 80.082031 C 251.203125 80.140625 252.4375 80.289062 253.640625 80.382812 C 256.339844 80.597656 259.015625 80.59375 260.960938 80.78125 C 261.289062 80.8125 261.527344 81.105469 261.496094 81.433594 C 261.464844 81.761719 261.175781 82 260.847656 81.96875 C 258.996094 81.792969 256.300781 81.789062 253.546875 81.574219 C 252.316406 81.476562 251.082031 81.328125 250.054688 81.273438 C 249.5625 81.246094 249.128906 81.242188 248.804688 81.273438 C 248.507812 81.304688 248.394531 81.34375 248.371094 81.367188 C 248.351562 81.386719 248.359375 81.359375 248.355469 81.375 C 248.351562 81.394531 248.355469 81.332031 248.359375 81.339844 C 248.378906 81.378906 248.542969 81.558594 248.988281 81.710938 "/>
<path style=" stroke:none;fill-rule:nonzero;fill:rgb(7.058716%,1.176453%,46.665955%);fill-opacity:1;" d="M 269.046875 79.109375 C 269.339844 79.261719 269.453125 79.621094 269.304688 79.914062 C 269.152344 80.207031 268.789062 80.320312 268.5 80.167969 C 268.105469 79.964844 267.820312 79.792969 267.609375 79.519531 C 267.5 79.378906 267.398438 79.167969 267.425781 78.914062 C 267.453125 78.660156 267.613281 78.46875 267.753906 78.363281 C 268.269531 77.980469 268.867188 78.011719 269.589844 77.988281 C 271.957031 77.914062 274.953125 77.980469 276.566406 79.296875 C 276.820312 79.507812 276.859375 79.882812 276.648438 80.136719 C 276.441406 80.394531 276.0625 80.429688 275.808594 80.222656 C 274.773438 79.371094 271.882812 79.109375 269.628906 79.183594 C 268.972656 79.203125 268.503906 79.292969 268.464844 79.320312 C 268.449219 79.332031 268.570312 79.195312 268.539062 79.238281 C 268.507812 79.289062 268.621094 78.96875 268.609375 79.046875 C 268.601562 79.121094 268.574219 78.8125 268.589844 78.859375 C 268.605469 78.898438 268.550781 78.785156 268.554688 78.792969 C 268.558594 78.796875 268.726562 78.941406 269.046875 79.109375 "/>
<path style=" stroke:none;fill-rule:nonzero;fill:rgb(7.058716%,1.176453%,46.665955%);fill-opacity:1;" d="M 270.632812 85.15625 C 270.546875 85.476562 270.21875 85.664062 269.902344 85.578125 C 269.582031 85.496094 269.394531 85.167969 269.476562 84.847656 C 269.699219 84.019531 270.402344 83.472656 271.191406 83.183594 C 271.988281 82.894531 272.921875 82.792969 273.90625 82.757812 C 275.898438 82.691406 278.011719 82.925781 279.46875 82.898438 C 279.796875 82.890625 280.070312 83.152344 280.078125 83.480469 C 280.085938 83.8125 279.824219 84.085938 279.492188 84.089844 C 277.910156 84.125 275.828125 83.886719 273.945312 83.953125 C 273.03125 83.984375 272.203125 84.085938 271.597656 84.304688 C 271.035156 84.511719 270.730469 84.785156 270.632812 85.15625 "/>
<path style=" stroke:none;fill-rule:nonzero;fill:rgb(7.058716%,1.176453%,46.665955%);fill-opacity:1;" d="M 292.535156 76.363281 C 292.863281 76.328125 293.15625 76.570312 293.1875 76.898438 C 293.21875 77.226562 292.980469 77.515625 292.652344 77.550781 C 291.269531 77.683594 290.410156 77.40625 289.6875 77.542969 C 288.503906 77.765625 286.863281 79.285156 285.722656 80.9375 C 285.105469 81.835938 284.757812 82.785156 284.703125 83.378906 C 284.6875 83.585938 284.671875 83.734375 284.671875 83.792969 C 284.675781 83.832031 284.5625 83.667969 284.609375 83.707031 C 284.625 83.71875 284.804688 83.789062 285.125 83.777344 C 285.472656 83.761719 285.921875 83.675781 286.421875 83.535156 C 287.457031 83.242188 288.636719 82.746094 289.6875 82.1875 C 290.550781 81.730469 291.324219 81.140625 291.988281 80.582031 C 292.421875 80.21875 292.769531 79.886719 293.003906 79.570312 C 293.214844 79.285156 293.332031 78.953125 293.371094 78.683594 C 293.390625 78.558594 293.390625 78.453125 293.382812 78.402344 C 293.378906 78.382812 293.394531 78.421875 293.386719 78.398438 C 293.378906 78.386719 293.441406 78.492188 293.421875 78.460938 C 293.398438 78.429688 293.589844 78.613281 293.535156 78.574219 C 293.425781 78.496094 293.964844 78.675781 293.867188 78.675781 C 293.796875 78.675781 294.074219 78.636719 294.03125 78.652344 C 293.972656 78.667969 294.167969 78.582031 294.144531 78.597656 C 294.125 78.613281 294.191406 78.566406 294.183594 78.570312 C 294.167969 78.585938 294.171875 78.582031 294.136719 78.625 C 294.058594 78.71875 293.945312 78.878906 293.820312 79.070312 C 293.5625 79.464844 293.277344 79.960938 293.085938 80.386719 C 292.765625 81.09375 292.632812 81.734375 292.785156 82.421875 C 292.988281 83.339844 293.894531 84.308594 294.933594 84.734375 C 295.441406 84.945312 295.964844 85.019531 296.421875 84.929688 C 296.875 84.839844 297.285156 84.59375 297.621094 84.113281 C 297.8125 83.84375 298.183594 83.777344 298.453125 83.964844 C 298.722656 84.152344 298.789062 84.527344 298.601562 84.796875 C 298.101562 85.511719 297.390625 85.957031 296.652344 86.101562 C 295.917969 86.246094 295.164062 86.121094 294.480469 85.839844 C 293.105469 85.273438 291.929688 84.089844 291.617188 82.675781 C 291.402344 81.691406 291.609375 80.75 291.996094 79.894531 C 292.226562 79.390625 292.53125 78.859375 292.820312 78.414062 C 292.960938 78.199219 293.09375 78.015625 293.21875 77.863281 C 293.28125 77.789062 293.339844 77.722656 293.421875 77.652344 C 293.464844 77.617188 293.519531 77.570312 293.625 77.527344 C 293.742188 77.484375 293.996094 77.4375 294.21875 77.597656 C 294.523438 77.808594 294.539062 78.046875 294.566406 78.242188 C 294.59375 78.4375 294.585938 78.640625 294.554688 78.859375 C 294.488281 79.308594 294.308594 79.816406 293.960938 80.285156 C 293.640625 80.71875 293.226562 81.105469 292.753906 81.496094 C 292.058594 82.082031 291.222656 82.726562 290.246094 83.246094 C 289.128906 83.835938 287.890625 84.363281 286.746094 84.683594 C 286.1875 84.84375 285.660156 84.949219 285.175781 84.96875 C 284.699219 84.988281 284.226562 84.941406 283.84375 84.625 C 283.597656 84.417969 283.492188 84.09375 283.480469 83.859375 C 283.46875 83.632812 283.5 83.453125 283.515625 83.273438 C 283.59375 82.386719 284.019531 81.308594 284.742188 80.257812 C 285.984375 78.460938 287.660156 76.710938 289.464844 76.367188 C 290.539062 76.164062 291.367188 76.476562 292.535156 76.363281 "/>
<path style=" stroke:none;fill-rule:nonzero;fill:rgb(7.058716%,1.176453%,46.665955%);fill-opacity:1;" d="M 310.761719 75.683594 C 310.757812 76.015625 310.484375 76.277344 310.15625 76.273438 C 309.828125 76.265625 309.5625 75.996094 309.570312 75.664062 C 309.574219 75.226562 309.578125 74.941406 309.578125 74.792969 C 309.578125 74.761719 309.578125 74.738281 309.578125 74.730469 C 309.578125 74.726562 309.578125 74.746094 309.578125 74.738281 C 309.578125 74.730469 309.582031 74.78125 309.582031 74.765625 C 309.578125 74.75 309.625 74.921875 309.605469 74.863281 C 309.597656 74.839844 309.65625 74.976562 309.636719 74.941406 C 309.617188 74.902344 309.804688 75.152344 309.746094 75.089844 C 309.511719 74.855469 309.515625 74.476562 309.75 74.246094 C 309.984375 74.015625 310.363281 74.015625 310.59375 74.25 C 310.710938 74.371094 310.722656 74.441406 310.734375 74.484375 C 310.839844 74.785156 310.769531 74.707031 310.769531 74.785156 C 310.773438 74.957031 310.769531 75.242188 310.761719 75.683594 M 309.773438 74.222656 C 310.019531 74.003906 310.398438 74.027344 310.617188 74.273438 C 310.832031 74.523438 310.8125 74.898438 310.5625 75.117188 C 310.484375 75.1875 310.714844 74.914062 310.691406 74.953125 C 310.660156 75.019531 310.746094 74.816406 310.742188 74.835938 C 310.722656 74.898438 310.753906 74.769531 310.753906 74.769531 C 310.753906 74.769531 310.753906 74.777344 310.753906 74.789062 C 310.734375 74.992188 310.703125 75.589844 310.65625 76.324219 C 310.550781 77.992188 310.308594 80.042969 310.324219 81.890625 C 310.332031 82.789062 310.398438 83.609375 310.570312 84.25 C 310.730469 84.851562 310.976562 85.230469 311.242188 85.382812 C 311.53125 85.542969 311.632812 85.910156 311.46875 86.195312 C 311.308594 86.484375 310.941406 86.585938 310.65625 86.421875 C 309.988281 86.046875 309.621094 85.332031 309.414062 84.554688 C 309.203125 83.765625 309.136719 82.855469 309.128906 81.898438 C 309.113281 79.949219 309.359375 77.875 309.464844 76.246094 C 309.511719 75.519531 309.539062 74.945312 309.566406 74.679688 C 309.566406 74.65625 309.570312 74.632812 309.574219 74.605469 C 309.574219 74.589844 309.578125 74.574219 309.585938 74.542969 C 309.59375 74.507812 309.5 74.464844 309.773438 74.222656 "/>
<path style=" stroke:none;fill-rule:nonzero;fill:rgb(7.058716%,1.176453%,46.665955%);fill-opacity:1;" d="M 307.132812 80.003906 C 307.277344 80.304688 307.152344 80.660156 306.851562 80.800781 C 306.554688 80.945312 306.199219 80.816406 306.058594 80.519531 C 305.925781 80.246094 305.960938 79.78125 306.199219 79.535156 C 306.421875 79.308594 306.667969 79.246094 306.90625 79.195312 C 307.394531 79.09375 307.976562 79.09375 308.640625 79.097656 C 310.003906 79.105469 311.585938 79.179688 312.667969 78.949219 C 312.988281 78.878906 313.308594 79.085938 313.375 79.40625 C 313.445312 79.730469 313.238281 80.046875 312.917969 80.113281 C 311.589844 80.398438 309.96875 80.300781 308.632812 80.289062 C 307.992188 80.285156 307.449219 80.300781 307.148438 80.363281 C 307.085938 80.378906 307.039062 80.394531 307.015625 80.402344 C 307 80.410156 307.085938 80.335938 307.050781 80.371094 C 307.011719 80.414062 307.160156 80.0625 307.152344 80.152344 C 307.148438 80.195312 307.140625 80.019531 307.148438 80.046875 C 307.152344 80.070312 307.132812 80 307.132812 80.003906 "/>
<path style=" stroke:none;fill-rule:nonzero;fill:rgb(7.058716%,1.176453%,46.665955%);fill-opacity:1;" d="M 320.429688 78.140625 C 320.703125 77.953125 321.074219 78.023438 321.261719 78.296875 C 321.445312 78.566406 321.375 78.9375 321.105469 79.125 C 321.050781 79.160156 321.242188 78.984375 321.21875 79.015625 C 321.183594 79.0625 321.273438 78.914062 321.269531 78.929688 C 321.265625 78.941406 321.269531 78.917969 321.269531 78.929688 C 321.261719 78.96875 321.25 79.066406 321.25 79.195312 C 321.242188 79.472656 321.265625 79.878906 321.304688 80.367188 C 321.394531 81.398438 321.566406 82.734375 321.75 84.210938 C 321.957031 85.835938 322.125 87.472656 322.226562 88.960938 C 322.328125 90.414062 322.367188 91.675781 322.296875 92.625 C 322.265625 93.074219 322.21875 93.4375 322.082031 93.761719 C 322.011719 93.925781 321.90625 94.125 321.65625 94.25 C 321.390625 94.382812 321.050781 94.308594 320.863281 94.183594 C 320.515625 93.953125 320.351562 93.617188 320.128906 93.15625 C 319.898438 92.667969 319.648438 92.019531 319.367188 91.183594 C 319.261719 90.871094 319.425781 90.53125 319.738281 90.425781 C 320.050781 90.320312 320.390625 90.488281 320.496094 90.800781 C 320.769531 91.609375 321.007812 92.21875 321.207031 92.644531 C 321.390625 93.027344 321.484375 93.164062 321.527344 93.191406 C 321.550781 93.207031 321.300781 93.128906 321.378906 93.140625 C 321.441406 93.148438 321.113281 93.179688 321.179688 93.15625 C 321.273438 93.125 320.972656 93.304688 321 93.273438 C 321.019531 93.25 320.976562 93.304688 320.984375 93.292969 C 321.019531 93.207031 321.078125 92.921875 321.109375 92.539062 C 321.238281 90.765625 320.972656 87.574219 320.566406 84.363281 C 320.382812 82.882812 320.210938 81.539062 320.117188 80.46875 C 320.074219 79.957031 320.046875 79.523438 320.054688 79.167969 C 320.058594 78.996094 320.070312 78.84375 320.101562 78.691406 C 320.132812 78.535156 320.15625 78.328125 320.429688 78.140625 "/>
<path style=" stroke:none;fill-rule:nonzero;fill:rgb(7.058716%,1.176453%,46.665955%);fill-opacity:1;" d="M 320.296875 76.421875 C 320.347656 76.75 320.125 77.054688 319.796875 77.101562 C 319.472656 77.152344 319.167969 76.929688 319.117188 76.601562 C 318.96875 75.617188 318.6875 74.519531 318.71875 73.457031 C 318.738281 72.925781 318.839844 72.386719 319.128906 71.917969 C 319.417969 71.441406 319.90625 71.066406 320.523438 70.855469 C 320.835938 70.753906 321.175781 70.921875 321.28125 71.234375 C 321.386719 71.546875 321.21875 71.882812 320.90625 71.988281 C 320.507812 72.121094 320.289062 72.308594 320.144531 72.539062 C 320.003906 72.777344 319.925781 73.097656 319.914062 73.492188 C 319.886719 74.328125 320.140625 75.375 320.296875 76.421875 "/>
<path style=" stroke:none;fill-rule:nonzero;fill:rgb(7.058716%,1.176453%,46.665955%);fill-opacity:1;" d="M 327.953125 70.445312 C 327.9375 70.773438 327.65625 71.027344 327.328125 71.011719 C 327 70.996094 326.746094 70.71875 326.757812 70.390625 C 326.769531 70.164062 326.765625 70.019531 326.761719 69.992188 C 326.761719 69.988281 326.777344 70.054688 326.769531 70.027344 C 326.765625 70.011719 326.808594 70.125 326.796875 70.09375 C 326.78125 70.0625 326.921875 70.273438 326.878906 70.222656 C 326.828125 70.160156 327.214844 70.421875 327.105469 70.378906 C 327.019531 70.347656 327.460938 70.410156 327.375 70.417969 C 327.246094 70.429688 327.707031 70.273438 327.652344 70.3125 C 327.597656 70.351562 327.773438 70.195312 327.753906 70.21875 C 327.722656 70.253906 327.804688 70.136719 327.800781 70.144531 C 327.796875 70.152344 327.71875 70.398438 327.652344 70.710938 C 327.328125 72.207031 327.15625 75.425781 327.335938 77.871094 C 327.425781 79.078125 327.691406 80 328.121094 80.347656 C 328.449219 80.609375 329.15625 80.683594 330.03125 80.578125 C 330.941406 80.46875 331.949219 80.214844 332.890625 80.054688 C 333.371094 79.976562 333.84375 79.894531 334.332031 79.941406 C 334.828125 79.992188 335.351562 80.046875 335.78125 80.425781 C 335.992188 80.613281 336.085938 80.871094 336.105469 81.097656 C 336.128906 81.316406 336.09375 81.519531 336.039062 81.714844 C 335.929688 82.109375 335.722656 82.484375 335.457031 82.816406 C 334.359375 84.183594 332.023438 84.535156 330.054688 84.816406 C 329.074219 84.957031 328.136719 85.070312 327.25 84.988281 C 326.367188 84.90625 325.503906 84.585938 324.859375 83.90625 C 324.628906 83.667969 324.640625 83.289062 324.878906 83.0625 C 325.117188 82.835938 325.496094 82.84375 325.722656 83.082031 C 326.144531 83.527344 326.679688 83.734375 327.359375 83.800781 C 328.074219 83.867188 328.929688 83.773438 329.886719 83.636719 C 331.78125 83.363281 333.921875 82.820312 334.527344 82.070312 C 334.699219 81.855469 334.835938 81.59375 334.890625 81.394531 C 334.917969 81.300781 334.921875 81.234375 334.917969 81.214844 C 334.917969 81.207031 334.9375 81.257812 334.925781 81.238281 C 334.917969 81.214844 335.015625 81.34375 334.988281 81.320312 C 334.9375 81.273438 334.628906 81.171875 334.214844 81.132812 C 333.9375 81.105469 333.546875 81.15625 333.089844 81.234375 C 332.207031 81.378906 331.183594 81.640625 330.175781 81.761719 C 329.171875 81.882812 328.136719 81.894531 327.371094 81.277344 C 326.46875 80.546875 326.242188 79.28125 326.144531 77.960938 C 325.957031 75.382812 326.113281 72.179688 326.484375 70.457031 C 326.570312 70.0625 326.535156 69.828125 326.828125 69.464844 C 326.882812 69.398438 326.960938 69.296875 327.167969 69.246094 C 327.394531 69.1875 327.679688 69.320312 327.785156 69.445312 C 327.964844 69.652344 327.933594 69.753906 327.945312 69.839844 C 327.96875 70.007812 327.964844 70.1875 327.953125 70.445312 "/>
</g>
</svg>
