<?xml version="1.0" encoding="UTF-8"?>
<svg xmlns="http://www.w3.org/2000/svg" xmlns:xlink="http://www.w3.org/1999/xlink" width="135.39354pt" height="82.9475pt" viewBox="0 0 135.39354 82.9475" version="1.2">
<g id="surface1">
<path style=" stroke:none;fill-rule:nonzero;fill:rgb(7.058716%,1.176453%,46.665955%);fill-opacity:1;" d="M 53.113281 52.289062 C 53.113281 51.925781 53.410156 51.628906 53.773438 51.628906 C 54.136719 51.628906 54.429688 51.925781 54.429688 52.289062 L 54.429688 63.179688 C 54.429688 63.542969 54.136719 63.835938 53.773438 63.835938 C 53.410156 63.835938 53.113281 63.542969 53.113281 63.179688 Z M 53.113281 52.289062 "/>
<path style=" stroke:none;fill-rule:nonzero;fill:rgb(7.058716%,1.176453%,46.665955%);fill-opacity:1;" d="M 48.28125 58.390625 C 47.917969 58.390625 47.621094 58.097656 47.621094 57.734375 C 47.621094 57.371094 47.917969 57.078125 48.28125 57.078125 L 59.265625 57.078125 C 59.628906 57.078125 59.921875 57.371094 59.921875 57.734375 C 59.921875 58.097656 59.628906 58.390625 59.265625 58.390625 Z M 48.28125 58.390625 "/>
<path style=" stroke:none;fill-rule:nonzero;fill:rgb(7.058716%,1.176453%,46.665955%);fill-opacity:1;" d="M 62.800781 57.734375 C 62.800781 61.0625 61 63.96875 58.320312 65.535156 C 56.984375 66.316406 55.429688 66.761719 53.773438 66.761719 C 50.445312 66.761719 47.535156 64.964844 45.972656 62.28125 C 45.191406 60.945312 44.742188 59.394531 44.742188 57.734375 C 44.742188 54.40625 46.542969 51.5 49.222656 49.933594 C 50.558594 49.152344 52.113281 48.703125 53.773438 48.703125 C 57.101562 48.703125 60.007812 50.503906 61.574219 53.1875 C 62.355469 54.519531 62.800781 56.074219 62.800781 57.734375 M 61.613281 57.734375 C 61.613281 56.292969 61.222656 54.945312 60.546875 53.785156 C 59.1875 51.457031 56.664062 49.894531 53.773438 49.894531 C 52.332031 49.894531 50.984375 50.28125 49.824219 50.960938 C 47.496094 52.320312 45.933594 54.84375 45.933594 57.734375 C 45.933594 59.175781 46.320312 60.523438 47 61.683594 C 48.359375 64.011719 50.882812 65.574219 53.773438 65.574219 C 55.210938 65.574219 56.5625 65.1875 57.722656 64.507812 C 60.046875 63.148438 61.613281 60.625 61.613281 57.734375 "/>
<path style=" stroke:none;fill-rule:nonzero;fill:rgb(7.058716%,1.176453%,46.665955%);fill-opacity:1;" d="M 62.207031 58.492188 C 61.875 58.492188 61.609375 58.226562 61.609375 57.898438 C 61.609375 57.566406 61.875 57.300781 62.207031 57.300781 L 105.808594 57.300781 C 106.136719 57.300781 106.40625 57.566406 106.40625 57.898438 C 106.40625 58.226562 106.136719 58.492188 105.808594 58.492188 Z M 62.207031 58.492188 "/>
<path style=" stroke:none;fill-rule:nonzero;fill:rgb(7.058716%,1.176453%,46.665955%);fill-opacity:1;" d="M 104.757812 58.300781 C 104.8125 57.976562 105.117188 57.757812 105.441406 57.8125 C 105.765625 57.863281 105.988281 58.171875 105.933594 58.496094 L 105.929688 58.417969 L 105.902344 58.308594 C 105.921875 58.359375 105.71875 58.042969 105.789062 58.117188 C 105.820312 58.15625 105.597656 57.976562 105.652344 58.007812 C 105.734375 58.058594 105.28125 57.921875 105.375 57.925781 C 105.464844 57.929688 105.089844 57.984375 105.148438 57.960938 C 105.222656 57.933594 104.964844 58.070312 105 58.046875 C 105.042969 58.011719 104.902344 58.144531 104.917969 58.128906 L 104.890625 58.164062 L 104.867188 58.234375 L 104.847656 58.136719 C 104.820312 58.070312 104.980469 58.300781 104.949219 58.273438 L 104.976562 58.296875 L 104.828125 58.230469 L 104.316406 57.964844 L 102.742188 56.988281 L 102.261719 56.585938 L 102.074219 56.414062 L 102 56.351562 C 101.996094 56.347656 102.152344 56.421875 102.085938 56.394531 C 102.050781 56.378906 102.394531 56.4375 102.289062 56.4375 L 102.324219 56.4375 C 101.996094 56.453125 101.71875 56.199219 101.703125 55.871094 C 101.6875 55.542969 101.9375 55.261719 102.269531 55.246094 L 102.308594 55.246094 L 102.535156 55.292969 L 102.699219 55.386719 L 102.863281 55.523438 L 103.066406 55.707031 L 103.449219 56.027344 L 104.875 56.910156 L 105.324219 57.148438 C 105.449219 57.207031 105.738281 57.21875 105.929688 57.640625 C 106.074219 57.953125 106.140625 58.25 105.984375 58.625 L 105.898438 58.796875 C 105.855469 58.863281 105.847656 58.972656 105.566406 59.078125 C 105.398438 59.140625 105.058594 59.085938 104.90625 58.917969 C 104.769531 58.765625 104.757812 58.648438 104.75 58.574219 Z M 101.699219 55.753906 C 101.753906 55.429688 102.058594 55.210938 102.382812 55.261719 C 102.707031 55.316406 102.925781 55.625 102.875 55.949219 L 102.878906 55.828125 C 102.882812 55.898438 102.851562 55.671875 102.859375 55.695312 L 102.847656 55.664062 L 102.914062 55.796875 L 103.101562 56.203125 L 103.332031 56.910156 C 103.503906 57.636719 103.542969 58.472656 103.601562 59.140625 L 103.660156 60.019531 C 103.660156 60.019531 103.570312 59.886719 103.609375 59.9375 C 103.65625 59.992188 103.332031 59.792969 103.402344 59.808594 C 103.457031 59.820312 103.292969 59.804688 103.308594 59.804688 L 103.488281 59.726562 L 103.734375 59.550781 L 103.945312 59.335938 L 104.621094 58.46875 C 104.855469 58.144531 104.882812 57.695312 105.554688 57.519531 C 105.875 57.4375 106.199219 57.628906 106.28125 57.945312 C 106.363281 58.265625 106.171875 58.589844 105.855469 58.671875 L 105.957031 58.628906 L 105.886719 58.734375 L 105.585938 59.164062 L 104.859375 60.097656 L 104.464844 60.488281 L 104.023438 60.789062 C 103.8125 60.894531 103.582031 61.066406 103.152344 60.972656 C 102.976562 60.933594 102.800781 60.824219 102.691406 60.691406 L 102.503906 60.3125 C 102.414062 59.945312 102.449219 59.628906 102.414062 59.242188 C 102.355469 58.554688 102.308594 57.753906 102.171875 57.1875 L 102.015625 56.6875 L 101.847656 56.320312 L 101.773438 56.179688 L 101.722656 56.046875 L 101.691406 55.882812 Z M 101.699219 55.753906 "/>
<path style=" stroke:none;fill-rule:nonzero;fill:rgb(7.058716%,1.176453%,46.665955%);fill-opacity:1;" d="M 53.246094 22.359375 C 53.246094 22.03125 53.511719 21.765625 53.84375 21.765625 C 54.171875 21.765625 54.4375 22.03125 54.4375 22.359375 L 54.4375 49.300781 C 54.4375 49.628906 54.171875 49.894531 53.84375 49.894531 C 53.511719 49.894531 53.246094 49.628906 53.246094 49.300781 Z M 53.246094 22.359375 "/>
<path style=" stroke:none;fill-rule:nonzero;fill:rgb(7.058716%,1.176453%,46.665955%);fill-opacity:1;" d="M 51.898438 45.855469 C 52.226562 45.886719 52.464844 46.179688 52.433594 46.507812 C 52.402344 46.832031 52.109375 47.070312 51.785156 47.039062 L 51.378906 46.964844 L 51.265625 46.921875 L 51.1875 46.871094 C 50.921875 46.679688 50.859375 46.308594 51.050781 46.042969 C 51.238281 45.773438 51.613281 45.714844 51.878906 45.902344 L 51.808594 45.859375 L 51.742188 45.832031 Z M 51.582031 46.976562 C 51.253906 47.003906 50.96875 46.757812 50.941406 46.429688 C 50.914062 46.101562 51.160156 45.816406 51.488281 45.789062 L 51.589844 45.789062 L 51.703125 45.808594 C 52.09375 45.902344 52.246094 46.085938 52.46875 46.234375 C 52.914062 46.539062 53.183594 46.945312 53.433594 47.265625 L 53.792969 47.730469 L 54.015625 48.054688 L 53.933594 48.015625 L 53.921875 48.019531 L 53.832031 48.050781 L 53.945312 47.949219 L 54.269531 47.773438 L 54.304688 47.761719 L 54.246094 47.800781 L 54.222656 47.820312 L 54.488281 47.035156 L 54.832031 46.292969 L 55.058594 45.878906 L 55.359375 45.449219 C 55.503906 45.277344 55.628906 45.105469 55.96875 45.03125 C 56.238281 44.972656 56.457031 45.078125 56.59375 45.191406 C 56.722656 45.304688 56.832031 45.433594 56.859375 45.675781 C 56.890625 45.933594 56.777344 46.085938 56.707031 46.167969 L 56.550781 46.308594 L 56.328125 46.4375 C 56.046875 46.578125 55.765625 46.589844 55.488281 46.574219 C 54.707031 46.527344 54.066406 46.078125 53.597656 45.882812 C 53.273438 45.746094 53.035156 45.734375 52.871094 45.777344 L 52.742188 45.8125 C 52.730469 45.816406 52.835938 45.742188 52.796875 45.773438 C 52.742188 45.824219 52.90625 45.621094 52.894531 45.652344 L 52.886719 45.789062 C 52.886719 45.8125 52.953125 45.902344 52.871094 46.226562 C 52.832031 46.386719 52.734375 46.566406 52.539062 46.683594 C 52.332031 46.804688 52.035156 46.792969 51.847656 46.691406 C 51.695312 46.609375 51.609375 46.484375 51.5625 46.382812 L 51.488281 46.128906 L 51.503906 45.707031 C 51.558594 45.382812 51.863281 45.164062 52.1875 45.21875 C 52.511719 45.273438 52.730469 45.582031 52.675781 45.90625 L 52.667969 45.972656 C 52.667969 45.988281 52.609375 45.816406 52.632812 45.871094 L 52.566406 45.765625 C 52.601562 45.804688 52.355469 45.609375 52.417969 45.644531 C 52.472656 45.675781 52.101562 45.589844 52.191406 45.589844 C 52.285156 45.589844 51.855469 45.703125 51.929688 45.660156 C 52 45.617188 51.742188 45.855469 51.777344 45.804688 C 51.808594 45.757812 51.707031 45.972656 51.71875 45.933594 C 51.730469 45.882812 51.707031 46.015625 51.707031 46.011719 L 51.699219 45.699219 C 51.714844 45.539062 51.632812 45.207031 52.023438 44.871094 C 52.261719 44.667969 52.46875 44.652344 52.566406 44.628906 C 53.035156 44.503906 53.554688 44.574219 54.054688 44.785156 C 54.648438 45.03125 55.253906 45.367188 55.558594 45.386719 L 55.800781 45.371094 L 55.859375 45.339844 C 55.867188 45.335938 55.757812 45.445312 55.796875 45.398438 C 55.820312 45.375 55.691406 45.589844 55.71875 45.527344 C 55.75 45.457031 55.691406 45.9375 55.679688 45.816406 C 55.667969 45.726562 55.769531 46.046875 55.742188 46.003906 L 55.828125 46.105469 C 55.792969 46.074219 56.03125 46.203125 55.96875 46.183594 C 55.902344 46.160156 56.3125 46.175781 56.21875 46.195312 C 56.164062 46.207031 56.332031 46.152344 56.316406 46.160156 L 56.269531 46.214844 L 56.078125 46.492188 L 55.890625 46.835938 L 55.59375 47.472656 C 55.453125 47.824219 55.507812 48.3125 54.992188 48.726562 L 54.675781 48.894531 L 54.644531 48.90625 L 54.703125 48.867188 C 54.65625 48.90625 54.535156 49.101562 54.171875 49.179688 C 53.917969 49.234375 53.59375 49.230469 53.292969 49 C 53.003906 48.78125 52.933594 48.566406 52.84375 48.445312 L 52.496094 48 C 52.226562 47.65625 52.011719 47.363281 51.796875 47.21875 L 51.492188 47.015625 L 51.394531 46.960938 C 51.378906 46.949219 51.484375 46.980469 51.425781 46.96875 L 51.492188 46.976562 Z M 51.582031 46.976562 "/>
<path style=" stroke:none;fill-rule:nonzero;fill:rgb(7.058716%,1.176453%,46.665955%);fill-opacity:1;" d="M 6.929688 58.707031 C 6.601562 58.707031 6.332031 58.4375 6.332031 58.109375 C 6.332031 57.78125 6.601562 57.515625 6.929688 57.515625 L 45.351562 57.515625 C 45.679688 57.515625 45.945312 57.78125 45.945312 58.109375 C 45.945312 58.4375 45.679688 58.707031 45.351562 58.707031 Z M 6.929688 58.707031 "/>
<path style=" stroke:none;fill-rule:nonzero;fill:rgb(7.058716%,1.176453%,46.665955%);fill-opacity:1;" d="M 43.976562 57.660156 C 44.300781 57.59375 44.613281 57.800781 44.679688 58.121094 C 44.746094 58.445312 44.539062 58.757812 44.21875 58.824219 L 43.785156 58.8125 C 43.613281 58.757812 43.453125 58.625 43.371094 58.488281 C 43.214844 58.226562 43.246094 58.042969 43.253906 57.90625 L 43.253906 57.535156 C 43.253906 57.453125 43.183594 57.347656 43.042969 57.246094 L 42.855469 57.148438 L 42.636719 57.066406 L 42.566406 57.054688 L 42.621094 57.046875 C 42.589844 57.054688 42.800781 56.949219 42.753906 56.984375 C 42.664062 57.046875 42.953125 56.714844 42.925781 56.777344 C 42.898438 56.835938 42.96875 56.617188 42.964844 56.648438 L 42.96875 56.59375 L 42.996094 56.792969 C 43.070312 57.519531 42.871094 58.335938 42.835938 59.132812 L 42.859375 60.183594 L 42.875 60.230469 C 42.878906 60.238281 42.730469 60.085938 42.792969 60.136719 C 42.867188 60.195312 42.4375 60.003906 42.527344 60.019531 C 42.613281 60.03125 42.265625 60.042969 42.316406 60.027344 L 42.21875 60.066406 L 42.183594 60.085938 L 42.269531 60.007812 L 42.984375 59.394531 L 43.328125 58.890625 L 43.433594 58.667969 L 43.628906 58.132812 L 43.652344 58.0625 C 43.65625 58.046875 43.652344 58.210938 43.648438 58.15625 C 43.648438 58.125 43.699219 58.367188 43.675781 58.296875 C 43.664062 58.261719 43.773438 58.488281 43.742188 58.433594 C 43.703125 58.378906 43.996094 58.667969 43.914062 58.613281 C 43.640625 58.429688 43.566406 58.0625 43.746094 57.785156 C 43.929688 57.511719 44.296875 57.4375 44.570312 57.621094 C 44.882812 57.828125 44.835938 58.019531 44.839844 58.089844 L 44.832031 58.210938 L 44.769531 58.480469 L 44.527344 59.136719 L 44.367188 59.46875 L 43.863281 60.195312 L 43.09375 60.867188 L 42.871094 61.058594 L 42.613281 61.179688 C 42.472656 61.21875 42.21875 61.203125 42.042969 61.058594 C 41.824219 60.882812 41.789062 60.722656 41.742188 60.601562 C 41.5625 60.121094 41.625 59.636719 41.648438 59.078125 C 41.6875 58.167969 41.851562 57.316406 41.8125 56.914062 L 41.785156 56.691406 L 41.789062 56.464844 C 41.804688 56.355469 41.855469 56.164062 42.054688 56.019531 C 42.410156 55.761719 42.703125 55.859375 42.898438 55.90625 L 43.265625 56.03125 L 43.75 56.285156 C 44.0625 56.515625 44.445312 56.9375 44.445312 57.542969 L 44.441406 57.964844 L 44.441406 58.011719 L 44.433594 57.972656 L 44.394531 57.878906 C 44.441406 57.960938 44.03125 57.644531 44.132812 57.675781 L 44.019531 57.65625 Z M 44.3125 57.527344 C 44.640625 57.566406 44.871094 57.863281 44.832031 58.1875 C 44.792969 58.515625 44.496094 58.746094 44.167969 58.707031 C 44.085938 58.695312 44.445312 58.675781 44.386719 58.691406 C 44.328125 58.707031 44.558594 58.621094 44.523438 58.640625 C 44.472656 58.667969 44.660156 58.539062 44.632812 58.5625 L 44.707031 58.484375 C 44.671875 58.53125 44.742188 58.429688 44.742188 58.429688 C 44.589844 58.722656 44.230469 58.835938 43.9375 58.683594 C 43.648438 58.53125 43.535156 58.171875 43.6875 57.878906 C 43.710938 57.832031 43.609375 57.78125 43.953125 57.59375 Z M 44.3125 57.527344 "/>
<path style=" stroke:none;fill-rule:nonzero;fill:rgb(7.058716%,1.176453%,46.665955%);fill-opacity:1;" d="M 12.6875 44.765625 C 12.371094 44.679688 12.183594 44.351562 12.269531 44.035156 C 12.359375 43.71875 12.6875 43.53125 13.003906 43.621094 C 13.65625 43.800781 14.035156 44.339844 14.652344 45.003906 L 15.753906 46.238281 L 16.582031 47.246094 L 16.859375 47.570312 L 17.007812 47.738281 C 17.101562 47.847656 17.261719 48.089844 17.214844 48.398438 C 17.179688 48.628906 17.046875 48.746094 16.96875 48.808594 L 16.800781 48.90625 L 16.609375 48.972656 C 16.296875 49.074219 15.960938 48.902344 15.859375 48.589844 C 15.757812 48.277344 15.929688 47.941406 16.242188 47.839844 L 16.324219 47.8125 C 16.332031 47.808594 16.199219 47.898438 16.246094 47.863281 C 16.273438 47.839844 16.105469 48.019531 16.144531 47.96875 C 16.1875 47.910156 16.023438 48.324219 16.039062 48.21875 C 16.054688 48.132812 16.09375 48.503906 16.070312 48.453125 L 16.097656 48.503906 L 15.902344 48.277344 L 15.652344 47.992188 L 14.847656 47.007812 L 13.78125 45.816406 L 12.992188 45.015625 L 12.734375 44.804688 Z M 12.6875 44.765625 "/>
<path style=" stroke:none;fill-rule:nonzero;fill:rgb(7.058716%,1.176453%,46.665955%);fill-opacity:1;" d="M 14.234375 48.042969 C 14.296875 48.363281 14.089844 48.679688 13.765625 48.742188 C 13.445312 48.808594 13.128906 48.601562 13.066406 48.277344 C 13.019531 48.046875 12.878906 47.730469 13.03125 47.3125 C 13.367188 46.40625 14.339844 45.929688 15.125 45.195312 L 16.222656 43.992188 C 16.441406 43.6875 16.328125 43.453125 16.703125 43.015625 C 16.917969 42.765625 17.292969 42.738281 17.542969 42.953125 C 17.792969 43.167969 17.820312 43.542969 17.605469 43.789062 C 17.570312 43.832031 17.640625 43.738281 17.628906 43.769531 C 17.578125 43.898438 17.480469 44.28125 17.183594 44.6875 C 16.875 45.117188 16.441406 45.59375 15.9375 46.0625 C 15.078125 46.871094 14.199219 47.589844 14.148438 47.722656 L 14.160156 47.710938 Z M 14.234375 48.042969 "/>
<path style=" stroke:none;fill-rule:nonzero;fill:rgb(7.058716%,1.176453%,46.665955%);fill-opacity:1;" d="M 24.929688 41.277344 C 25.175781 41.496094 25.195312 41.875 24.976562 42.117188 C 24.757812 42.363281 24.382812 42.386719 24.136719 42.167969 L 23.605469 41.691406 C 23.464844 41.609375 23.199219 41.554688 22.855469 41.539062 L 22.320312 41.535156 C 22.042969 41.566406 21.660156 41.734375 21.320312 41.902344 L 20.960938 42.09375 L 20.898438 42.136719 L 20.9375 42.085938 C 20.898438 42.152344 21.015625 41.796875 21.007812 41.871094 C 21.003906 41.941406 20.984375 41.660156 20.996094 41.699219 C 21.015625 41.777344 20.957031 41.597656 20.957031 41.601562 L 21.085938 41.769531 C 21.292969 42.058594 21.347656 42.386719 21.386719 42.757812 L 21.476562 45.503906 L 21.488281 47.011719 L 21.363281 48.179688 C 21.28125 48.640625 21.117188 48.988281 21.046875 49.1875 L 20.980469 49.40625 L 20.980469 49.375 L 20.941406 49.25 C 20.972656 49.308594 20.84375 49.132812 20.859375 49.144531 L 21.066406 49.214844 C 21.289062 49.28125 21.464844 49.277344 21.882812 49.179688 L 23.695312 48.710938 L 24.804688 48.4375 L 25.132812 48.351562 L 25.191406 48.332031 L 25.164062 48.34375 C 25.183594 48.332031 25.035156 48.457031 25.074219 48.414062 C 25.308594 48.183594 25.683594 48.179688 25.917969 48.414062 C 26.152344 48.644531 26.152344 49.019531 25.921875 49.253906 C 25.566406 49.613281 25.386719 49.519531 25.089844 49.59375 L 24 49.859375 L 22.15625 50.335938 C 21.648438 50.457031 21.175781 50.492188 20.722656 50.355469 C 20.519531 50.292969 20.136719 50.285156 19.886719 49.792969 C 19.664062 49.363281 19.84375 49.03125 19.921875 48.800781 L 20.191406 47.964844 L 20.300781 46.972656 L 20.285156 45.515625 L 20.203125 42.878906 L 20.121094 42.464844 L 19.964844 42.257812 L 19.84375 41.996094 C 19.808594 41.859375 19.816406 41.640625 19.917969 41.46875 C 20.160156 41.070312 20.464844 41 20.789062 40.839844 C 21.15625 40.65625 21.632812 40.414062 22.1875 40.351562 L 22.910156 40.347656 C 23.34375 40.367188 23.796875 40.421875 24.207031 40.667969 C 24.628906 40.914062 24.894531 41.25 24.929688 41.277344 "/>
<path style=" stroke:none;fill-rule:nonzero;fill:rgb(7.058716%,1.176453%,46.665955%);fill-opacity:1;" d="M 25.824219 44.109375 C 25.863281 44.4375 25.632812 44.734375 25.304688 44.773438 C 24.976562 44.808594 24.683594 44.578125 24.644531 44.25 L 24.625 43.988281 C 24.625 43.902344 24.554688 43.792969 24.78125 43.527344 C 24.917969 43.367188 25.261719 43.28125 25.445312 43.347656 L 25.707031 43.523438 L 25.839844 43.710938 L 26.234375 44.515625 L 26.59375 45.386719 L 26.71875 45.742188 L 26.773438 45.917969 L 26.816406 45.992188 C 26.824219 46.007812 26.671875 45.851562 26.726562 45.898438 C 26.757812 45.925781 26.546875 45.800781 26.601562 45.824219 C 26.65625 45.847656 26.347656 45.777344 26.414062 45.78125 C 26.5 45.785156 26.125 45.84375 26.1875 45.820312 C 26.242188 45.796875 26.023438 45.917969 26.054688 45.894531 C 26.109375 45.851562 25.957031 45.996094 25.96875 45.980469 L 25.976562 45.960938 L 26.109375 45.652344 L 26.6875 44.492188 C 26.769531 44.339844 26.84375 44.167969 27.035156 43.992188 C 27.222656 43.816406 27.5 43.757812 27.710938 43.792969 C 27.914062 43.824219 28.078125 43.921875 28.207031 44.042969 C 28.5 44.328125 28.476562 44.558594 28.519531 44.6875 L 28.675781 45.058594 C 28.859375 45.496094 29.070312 45.886719 29.222656 46.042969 L 29.269531 46.09375 L 29.34375 46.027344 C 29.589844 45.8125 29.964844 45.835938 30.183594 46.085938 C 30.398438 46.332031 30.371094 46.707031 30.125 46.925781 C 29.867188 47.148438 29.535156 47.300781 29.195312 47.28125 C 28.855469 47.257812 28.582031 47.082031 28.386719 46.886719 C 28 46.503906 27.785156 46.003906 27.578125 45.523438 L 27.386719 45.046875 L 27.320312 44.832031 L 27.316406 44.820312 L 27.378906 44.902344 C 27.351562 44.875 27.597656 44.976562 27.519531 44.964844 C 27.476562 44.957031 27.738281 44.941406 27.675781 44.957031 C 27.617188 44.972656 27.886719 44.824219 27.84375 44.863281 L 27.726562 45.066406 L 27.195312 46.132812 L 27.050781 46.472656 L 26.929688 46.683594 L 26.78125 46.835938 C 26.699219 46.898438 26.554688 46.980469 26.363281 46.96875 C 26.046875 46.957031 25.890625 46.75 25.828125 46.660156 L 25.742188 46.507812 L 25.59375 46.132812 L 25.484375 45.808594 L 25.140625 44.988281 L 24.804688 44.296875 C 24.796875 44.28125 24.875 44.375 24.832031 44.328125 L 24.894531 44.382812 C 24.859375 44.359375 25.128906 44.496094 25.054688 44.46875 C 25.011719 44.457031 25.257812 44.503906 25.199219 44.5 C 25.113281 44.496094 25.570312 44.410156 25.480469 44.453125 C 25.390625 44.492188 25.730469 44.246094 25.683594 44.300781 C 25.625 44.367188 25.800781 44.085938 25.785156 44.128906 C 25.765625 44.1875 25.816406 43.996094 25.8125 44.015625 L 25.816406 43.992188 Z M 25.824219 44.109375 "/>
<path style=" stroke:none;fill-rule:nonzero;fill:rgb(7.058716%,1.176453%,46.665955%);fill-opacity:1;" d="M 29.78125 40.96875 C 30.050781 41.15625 30.117188 41.527344 29.929688 41.796875 C 29.742188 42.066406 29.371094 42.136719 29.101562 41.949219 C 28.917969 41.820312 28.765625 41.730469 28.636719 41.484375 C 28.5625 41.347656 28.503906 41.082031 28.621094 40.855469 C 28.730469 40.636719 28.902344 40.554688 29.015625 40.515625 C 29.410156 40.371094 29.722656 40.4375 30.152344 40.453125 L 31.304688 40.480469 L 33 40.398438 L 34.140625 40.144531 L 34.078125 40.179688 C 34.113281 40.15625 33.917969 40.375 33.960938 40.308594 C 33.984375 40.269531 33.875 40.539062 33.894531 40.464844 L 33.878906 40.554688 C 33.90625 40.226562 34.191406 39.984375 34.519531 40.011719 C 34.847656 40.035156 35.089844 40.324219 35.066406 40.652344 L 35.050781 40.75 L 34.96875 40.9375 C 34.851562 41.121094 34.6875 41.21875 34.507812 41.277344 C 34.214844 41.371094 33.734375 41.511719 33.136719 41.578125 L 31.292969 41.671875 L 30.105469 41.640625 L 29.574219 41.628906 L 29.425781 41.632812 C 29.402344 41.640625 29.570312 41.546875 29.523438 41.582031 C 29.472656 41.617188 29.726562 41.304688 29.679688 41.394531 C 29.632812 41.488281 29.726562 41.011719 29.734375 41.101562 C 29.746094 41.183594 29.664062 40.882812 29.683594 40.921875 C 29.714844 40.984375 29.636719 40.855469 29.652344 40.871094 Z M 34.140625 40.097656 C 34.414062 39.921875 34.785156 40 34.964844 40.273438 C 35.140625 40.550781 35.0625 40.917969 34.789062 41.097656 C 34.695312 41.160156 34.96875 40.914062 34.941406 40.949219 C 34.902344 41.003906 35 40.835938 34.992188 40.851562 L 34.96875 41 L 35.09375 41.390625 L 35.695312 42.359375 L 37.136719 44.527344 L 37.863281 45.839844 C 38.230469 46.546875 38.566406 47.105469 38.527344 47.773438 C 38.484375 48.445312 37.984375 48.910156 37.453125 49.195312 C 36.796875 49.550781 36.003906 49.671875 35.253906 49.671875 C 34.511719 49.671875 33.828125 49.589844 33.316406 49.210938 C 33.050781 49.015625 32.992188 48.644531 33.1875 48.378906 C 33.382812 48.113281 33.753906 48.058594 34.019531 48.25 C 34.132812 48.335938 34.664062 48.480469 35.253906 48.480469 C 35.855469 48.480469 36.492188 48.363281 36.890625 48.148438 C 37.203125 47.976562 37.335938 47.769531 37.339844 47.699219 C 37.347656 47.535156 37.164062 47.082031 36.804688 46.386719 L 36.125 45.152344 L 34.707031 43.019531 L 34.019531 41.902344 C 33.839844 41.519531 33.734375 41.167969 33.796875 40.800781 C 33.8125 40.691406 33.761719 40.558594 33.964844 40.265625 Z M 34.140625 40.097656 "/>
<path style=" stroke:none;fill-rule:nonzero;fill:rgb(7.058716%,1.176453%,46.665955%);fill-opacity:1;" d="M 99.296875 43.660156 C 99.355469 43.335938 99.667969 43.125 99.992188 43.183594 C 100.3125 43.246094 100.527344 43.554688 100.464844 43.878906 C 100.410156 44.1875 100.332031 44.375 100.421875 44.664062 C 100.527344 45 100.945312 45.519531 101.28125 45.710938 L 101.636719 45.773438 L 102.007812 45.515625 L 102.441406 44.847656 L 102.644531 44.238281 L 102.707031 43.839844 L 102.726562 43.890625 C 102.71875 43.867188 102.804688 44.03125 102.773438 43.988281 C 102.753906 43.953125 102.949219 44.164062 102.886719 44.113281 C 102.632812 43.902344 102.597656 43.527344 102.808594 43.273438 C 103.019531 43.019531 103.394531 42.988281 103.648438 43.195312 L 103.769531 43.335938 L 103.867188 43.558594 L 103.894531 43.90625 L 103.808594 44.496094 L 103.515625 45.359375 C 103.355469 45.691406 103.152344 46.027344 102.882812 46.320312 C 102.613281 46.613281 102.265625 46.882812 101.808594 46.949219 C 101.453125 47 101.054688 46.949219 100.699219 46.746094 C 100.035156 46.375 99.507812 45.730469 99.285156 45.015625 C 99.085938 44.371094 99.265625 43.820312 99.296875 43.660156 M 102.835938 43.234375 C 103.066406 43 103.441406 43 103.675781 43.230469 C 103.910156 43.460938 103.910156 43.839844 103.679688 44.074219 C 103.636719 44.117188 103.789062 43.917969 103.769531 43.953125 C 103.742188 44 103.816406 43.828125 103.8125 43.851562 L 103.816406 43.816406 L 103.816406 43.878906 L 103.835938 44.238281 L 104.078125 45.125 L 105.226562 47.835938 C 105.496094 48.515625 105.660156 49.070312 105.691406 49.542969 C 105.707031 49.753906 105.722656 50.082031 105.5 50.378906 C 105.273438 50.675781 104.96875 50.800781 104.667969 50.882812 L 103.707031 51.023438 C 102.691406 51.066406 101.664062 50.695312 100.839844 50.328125 L 100.082031 49.964844 C 99.878906 49.863281 99.683594 49.996094 99.359375 49.507812 C 99.257812 49.355469 99.226562 49.070312 99.300781 48.894531 L 99.535156 48.59375 L 99.988281 48.316406 C 100.28125 48.167969 100.640625 48.28125 100.789062 48.574219 C 100.941406 48.867188 100.824219 49.226562 100.535156 49.375 L 100.289062 49.515625 L 100.324219 49.480469 C 100.300781 49.503906 100.425781 49.289062 100.398438 49.351562 C 100.371094 49.421875 100.429688 48.996094 100.4375 49.09375 C 100.449219 49.191406 100.3125 48.792969 100.351562 48.851562 C 100.386719 48.90625 100.238281 48.726562 100.257812 48.746094 L 100.226562 48.722656 L 100.617188 48.902344 L 101.320312 49.242188 C 102.058594 49.566406 102.976562 49.863281 103.65625 49.832031 L 104.347656 49.738281 L 104.546875 49.664062 L 104.507812 49.75 L 104.503906 49.621094 C 104.488281 49.363281 104.363281 48.886719 104.121094 48.277344 L 102.960938 45.542969 C 102.789062 45.078125 102.675781 44.695312 102.648438 44.324219 L 102.625 43.886719 L 102.640625 43.652344 C 102.652344 43.5625 102.640625 43.429688 102.835938 43.234375 "/>
<path style=" stroke:none;fill-rule:nonzero;fill:rgb(7.058716%,1.176453%,46.665955%);fill-opacity:1;" d="M 113.636719 39.53125 C 113.933594 39.671875 114.058594 40.027344 113.917969 40.324219 C 113.773438 40.621094 113.417969 40.746094 113.121094 40.601562 C 112.707031 40.402344 112.679688 40.347656 112.476562 40.320312 L 112.082031 40.296875 L 110.554688 40.308594 L 109.582031 40.5 L 108.980469 40.660156 L 109.007812 40.640625 L 109.082031 40.554688 C 109.054688 40.597656 109.132812 40.347656 109.128906 40.402344 C 109.125 40.457031 109.101562 40.21875 109.113281 40.257812 C 109.132812 40.320312 109.011719 40.070312 109.039062 40.105469 C 109.082031 40.164062 108.933594 40 108.949219 40.011719 L 109.128906 40.132812 C 109.511719 40.445312 109.5 40.785156 109.550781 40.9375 L 109.722656 41.792969 L 109.785156 42.945312 L 109.785156 43.957031 C 109.757812 44.511719 109.644531 45.054688 109.558594 45.566406 L 109.265625 47.304688 L 109.140625 48.519531 L 109.140625 48.871094 L 109.152344 49.03125 L 109.132812 48.96875 C 109.148438 49.011719 108.980469 48.789062 109.03125 48.832031 C 109.097656 48.890625 108.851562 48.742188 108.878906 48.746094 L 109.171875 48.714844 L 110.703125 48.390625 C 111.457031 48.269531 112.289062 48.285156 112.988281 48.269531 C 113.8125 48.246094 114.265625 48.242188 114.484375 48.078125 C 114.75 47.882812 115.121094 47.9375 115.320312 48.199219 C 115.515625 48.460938 115.460938 48.835938 115.199219 49.03125 C 114.550781 49.515625 113.804688 49.4375 113.019531 49.457031 C 112.296875 49.476562 111.496094 49.46875 110.890625 49.566406 L 109.351562 49.890625 L 108.902344 49.9375 C 108.722656 49.9375 108.476562 49.933594 108.234375 49.714844 C 107.890625 49.410156 107.964844 49.101562 107.953125 48.976562 L 107.953125 48.46875 L 108.089844 47.117188 L 108.382812 45.367188 L 108.59375 43.902344 L 108.59375 42.957031 L 108.539062 41.914062 L 108.417969 41.300781 L 108.335938 41.027344 L 108.320312 40.992188 L 108.375 41.054688 L 108.308594 41.015625 C 108.242188 40.972656 108.070312 40.910156 107.976562 40.609375 C 107.917969 40.410156 107.933594 40.15625 108.050781 39.960938 C 108.164062 39.761719 108.339844 39.636719 108.523438 39.5625 L 109.289062 39.34375 L 110.453125 39.121094 L 112.113281 39.109375 L 112.621094 39.140625 C 113.046875 39.191406 113.292969 39.363281 113.636719 39.53125 "/>
<path style=" stroke:none;fill-rule:nonzero;fill:rgb(7.058716%,1.176453%,46.665955%);fill-opacity:1;" d="M 115.390625 43.160156 C 115.417969 43.488281 115.179688 43.777344 114.851562 43.808594 C 114.523438 43.835938 114.234375 43.59375 114.207031 43.269531 L 114.203125 43.238281 L 114.207031 43.253906 C 114.203125 43.242188 114.25 43.390625 114.230469 43.339844 L 114.25 43.386719 C 114.109375 43.089844 114.234375 42.734375 114.53125 42.59375 C 114.824219 42.453125 115.179688 42.578125 115.324219 42.875 L 115.34375 42.925781 Z M 114.230469 42.90625 C 114.355469 42.601562 114.703125 42.457031 115.007812 42.578125 C 115.3125 42.703125 115.457031 43.050781 115.332031 43.355469 L 115.351562 43.308594 L 115.371094 43.210938 L 115.363281 43.453125 L 115.363281 45.929688 L 115.359375 45.894531 C 115.363281 45.921875 115.257812 45.648438 115.300781 45.734375 C 115.328125 45.777344 115.121094 45.527344 115.179688 45.578125 C 115.242188 45.632812 114.859375 45.429688 114.949219 45.453125 C 115.035156 45.476562 114.648438 45.449219 114.710938 45.441406 C 114.773438 45.429688 114.539062 45.496094 114.570312 45.480469 L 114.496094 45.523438 L 115.367188 44.257812 L 116.128906 43.269531 L 116.5 42.820312 C 116.582031 42.738281 116.554688 42.511719 117.082031 42.421875 C 117.382812 42.371094 117.582031 42.546875 117.652344 42.636719 L 117.757812 42.804688 L 117.820312 43 L 117.886719 43.328125 L 118.191406 45.417969 L 118.375 46.371094 C 118.375 46.371094 118.257812 46.277344 118.304688 46.308594 C 118.359375 46.339844 118.101562 46.261719 118.140625 46.261719 L 118.359375 46.117188 C 118.625 45.921875 118.996094 45.976562 119.191406 46.242188 C 119.386719 46.503906 119.332031 46.878906 119.070312 47.074219 C 118.792969 47.277344 118.527344 47.4375 118.1875 47.449219 C 117.839844 47.464844 117.492188 47.21875 117.351562 46.972656 C 117.082031 46.523438 117.089844 46.058594 117.015625 45.601562 L 116.707031 43.507812 L 116.667969 43.292969 C 116.660156 43.265625 116.792969 43.460938 116.738281 43.398438 C 116.707031 43.359375 116.980469 43.574219 116.898438 43.527344 C 116.851562 43.503906 117.128906 43.605469 117.0625 43.589844 C 116.996094 43.578125 117.351562 43.582031 117.28125 43.59375 C 117.226562 43.601562 117.445312 43.535156 117.410156 43.550781 C 117.359375 43.578125 117.5 43.492188 117.492188 43.5 L 117.332031 43.667969 L 117.0625 44.007812 L 116.335938 44.949219 L 115.726562 45.855469 C 115.542969 46.128906 115.492188 46.371094 115.058594 46.566406 C 114.972656 46.605469 114.820312 46.652344 114.636719 46.601562 C 114.449219 46.550781 114.3125 46.40625 114.253906 46.300781 L 114.171875 45.96875 L 114.175781 45.679688 L 114.175781 43.441406 L 114.1875 43.101562 L 114.214844 42.957031 Z M 114.230469 42.90625 "/>
<path style=" stroke:none;fill-rule:nonzero;fill:rgb(7.058716%,1.176453%,46.665955%);fill-opacity:1;" d="M 121.425781 40.421875 C 121.675781 40.632812 121.703125 41.007812 121.492188 41.257812 C 121.277344 41.507812 120.902344 41.539062 120.652344 41.324219 C 120.339844 41.054688 120.28125 40.714844 120.355469 40.375 C 120.40625 40.148438 120.546875 40 120.664062 39.914062 L 120.984375 39.75 C 121.546875 39.570312 121.839844 39.828125 122.160156 39.921875 C 122.695312 40.085938 123.519531 40.167969 124.238281 40.207031 L 125.050781 40.207031 L 125.167969 40.171875 C 125.261719 40.128906 124.910156 40.429688 124.957031 40.359375 C 124.996094 40.292969 124.875 40.582031 124.886719 40.53125 C 124.894531 40.484375 124.890625 40.75 124.882812 40.6875 L 124.898438 40.769531 C 124.808594 40.453125 124.988281 40.121094 125.304688 40.03125 C 125.617188 39.9375 125.949219 40.117188 126.042969 40.433594 L 126.0625 40.53125 L 126.054688 40.75 C 126.027344 40.90625 125.921875 41.136719 125.671875 41.25 L 125.175781 41.390625 L 124.179688 41.394531 C 123.410156 41.355469 122.535156 41.28125 121.816406 41.0625 L 121.355469 40.917969 L 121.261719 40.898438 C 121.261719 40.898438 121.414062 40.863281 121.351562 40.882812 L 121.375 40.867188 L 121.441406 40.800781 C 121.410156 40.839844 121.53125 40.5625 121.515625 40.632812 L 121.515625 40.550781 C 121.523438 40.578125 121.355469 40.359375 121.425781 40.421875 M 125.160156 40.082031 C 125.445312 39.914062 125.808594 40.007812 125.976562 40.292969 C 126.140625 40.574219 126.046875 40.941406 125.761719 41.105469 C 125.703125 41.140625 125.90625 40.992188 125.878906 41.015625 L 125.929688 40.957031 C 125.898438 41 125.980469 40.875 125.976562 40.886719 L 125.972656 40.902344 L 125.933594 41.035156 C 125.914062 41.160156 125.957031 41.609375 126.128906 42.257812 L 126.890625 44.464844 L 127.457031 45.671875 C 127.710938 46.175781 127.960938 46.5625 128.09375 46.992188 C 128.160156 47.199219 128.207031 47.453125 128.121094 47.734375 C 127.972656 48.21875 127.613281 48.34375 127.355469 48.472656 C 126.800781 48.753906 126.058594 49.03125 125.34375 49.222656 L 124.339844 49.417969 L 123.882812 49.414062 C 123.722656 49.390625 123.527344 49.347656 123.347656 49.167969 C 123.117188 48.933594 123.117188 48.558594 123.351562 48.324219 C 123.582031 48.09375 123.960938 48.09375 124.191406 48.328125 C 124.242188 48.378906 124.042969 48.234375 124.070312 48.242188 L 124.050781 48.238281 L 124.238281 48.234375 L 125.03125 48.074219 C 125.667969 47.902344 126.363281 47.640625 126.820312 47.410156 L 127.035156 47.289062 L 126.984375 47.386719 L 126.957031 47.339844 L 126.394531 46.203125 L 125.792969 44.917969 C 125.457031 44.105469 125.167969 43.273438 124.980469 42.5625 C 124.789062 41.851562 124.675781 41.316406 124.761719 40.828125 L 124.847656 40.507812 L 124.910156 40.359375 L 124.980469 40.242188 Z M 125.160156 40.082031 "/>
<path style=" stroke:none;fill-rule:nonzero;fill:rgb(7.058716%,1.176453%,46.665955%);fill-opacity:1;" d="M 61.914062 24.851562 C 61.808594 25.160156 61.46875 25.324219 61.15625 25.21875 C 60.847656 25.109375 60.683594 24.769531 60.789062 24.460938 C 60.855469 24.277344 60.996094 24.128906 61.125 24.050781 L 61.457031 23.917969 L 61.988281 23.824219 L 63.105469 23.40625 L 63.664062 23.074219 C 63.898438 22.90625 63.980469 22.738281 63.996094 22.652344 L 63.886719 22.492188 L 63.347656 22.183594 C 63.144531 22.125 62.949219 22.101562 62.722656 22.140625 C 62.300781 22.214844 61.632812 22.644531 61.054688 23.210938 L 60.234375 24.195312 C 60.058594 24.480469 59.976562 24.75 59.960938 24.988281 L 59.96875 25.386719 C 60.042969 25.648438 60.601562 26.097656 61.253906 26.378906 C 62.65625 26.992188 64.640625 26.511719 65.410156 25.8125 C 65.652344 25.589844 66.027344 25.609375 66.25 25.851562 C 66.472656 26.09375 66.453125 26.46875 66.210938 26.691406 C 65.003906 27.789062 62.703125 28.308594 60.78125 27.472656 C 59.988281 27.128906 59.085938 26.644531 58.820312 25.710938 C 58.734375 25.394531 58.761719 25.125 58.773438 24.914062 C 58.800781 24.460938 58.957031 24 59.222656 23.566406 C 59.492188 23.136719 59.839844 22.730469 60.222656 22.359375 C 60.902344 21.695312 61.671875 21.113281 62.523438 20.96875 C 62.945312 20.894531 63.34375 20.941406 63.6875 21.042969 C 64.089844 21.164062 64.453125 21.371094 64.738281 21.660156 C 65.023438 21.953125 65.25 22.382812 65.167969 22.859375 C 65.089844 23.304688 64.800781 23.722656 64.359375 24.039062 L 63.632812 24.472656 C 63.15625 24.710938 62.671875 24.90625 62.210938 24.992188 L 61.734375 25.074219 L 61.746094 25.0625 C 61.699219 25.09375 61.949219 24.75 61.914062 24.851562 "/>
<path style=" stroke:none;fill-rule:nonzero;fill:rgb(7.058716%,1.176453%,46.665955%);fill-opacity:1;" d="M 73.867188 19.101562 C 73.878906 19.433594 73.621094 19.707031 73.292969 19.71875 C 72.964844 19.730469 72.691406 19.472656 72.679688 19.144531 L 72.683594 18.585938 L 72.683594 18.550781 L 72.75 18.628906 L 72.734375 18.632812 L 72.46875 18.609375 L 71.074219 18.605469 C 70.429688 18.660156 69.703125 18.839844 69.054688 19.023438 L 67.832031 19.449219 L 67.632812 19.550781 L 67.667969 19.511719 L 67.71875 19.429688 C 67.699219 19.46875 67.765625 19.226562 67.757812 19.285156 C 67.75 19.351562 67.730469 19.027344 67.746094 19.085938 C 67.761719 19.144531 67.664062 18.910156 67.6875 18.945312 C 67.726562 19.011719 67.574219 18.820312 67.589844 18.835938 L 67.613281 18.84375 L 67.992188 18.976562 C 68.488281 19.167969 68.851562 19.652344 69.046875 20.242188 L 69.277344 21.179688 L 69.355469 22.355469 L 69.355469 23.484375 C 69.296875 24.273438 69.027344 25.027344 68.816406 25.707031 L 68.433594 26.894531 L 68.132812 27.988281 L 68.117188 28.160156 L 68.089844 28.085938 L 67.988281 27.976562 L 68.277344 27.988281 L 69.164062 27.878906 L 71.921875 27.265625 C 72.78125 27.074219 73.488281 26.882812 74.128906 27.035156 C 74.449219 27.109375 74.644531 27.429688 74.570312 27.75 C 74.496094 28.070312 74.175781 28.265625 73.855469 28.191406 C 73.429688 28.09375 71.308594 28.695312 69.378906 29.046875 C 68.636719 29.183594 67.945312 29.394531 67.308594 28.949219 C 67.097656 28.800781 66.972656 28.546875 66.941406 28.339844 L 66.960938 27.792969 L 67.304688 26.519531 L 67.679688 25.359375 C 67.894531 24.660156 68.125 23.96875 68.167969 23.398438 L 68.167969 22.363281 L 68.097656 21.34375 L 67.917969 20.617188 C 67.765625 20.160156 67.769531 20.167969 67.570312 20.089844 L 67.128906 19.929688 L 66.855469 19.773438 L 66.675781 19.574219 C 66.609375 19.46875 66.558594 19.304688 66.578125 19.136719 C 66.617188 18.832031 66.792969 18.691406 66.925781 18.59375 L 67.347656 18.359375 L 68.726562 17.878906 C 69.410156 17.6875 70.195312 17.484375 70.976562 17.421875 L 72.53125 17.417969 C 72.824219 17.4375 73.097656 17.4375 73.394531 17.628906 C 73.726562 17.84375 73.851562 18.238281 73.871094 18.5 Z M 73.867188 19.101562 "/>
<path style=" stroke:none;fill-rule:nonzero;fill:rgb(7.058716%,1.176453%,46.665955%);fill-opacity:1;" d="M 74.019531 21.464844 C 74.1875 21.746094 74.097656 22.113281 73.820312 22.28125 C 73.539062 22.453125 73.171875 22.363281 73 22.082031 L 72.792969 21.503906 C 72.769531 21.375 72.695312 21.21875 72.910156 20.9375 C 73.035156 20.777344 73.367188 20.660156 73.578125 20.726562 C 73.773438 20.785156 73.851562 20.882812 73.90625 20.953125 C 74.222656 21.363281 74.183594 21.699219 74.273438 22.046875 L 74.574219 23.382812 L 74.667969 23.847656 L 74.679688 23.890625 C 74.683594 23.894531 74.585938 23.753906 74.628906 23.804688 C 74.652344 23.835938 74.457031 23.664062 74.511719 23.703125 C 74.570312 23.738281 74.195312 23.605469 74.285156 23.617188 C 74.371094 23.628906 73.980469 23.664062 74.046875 23.644531 C 74.105469 23.621094 73.886719 23.734375 73.914062 23.710938 L 73.945312 23.644531 L 74.625 22.304688 L 75.179688 21.460938 C 75.265625 21.351562 75.359375 21.203125 75.585938 21.078125 C 75.910156 20.898438 76.296875 20.902344 76.605469 21.089844 C 76.867188 21.246094 76.921875 21.453125 76.957031 21.574219 L 77.011719 21.824219 C 77.152344 22.488281 77.175781 23.277344 77.324219 23.828125 C 77.402344 24.109375 77.5 24.183594 77.53125 24.195312 C 77.566406 24.207031 77.714844 24.214844 78 24.035156 C 78.277344 23.859375 78.644531 23.945312 78.820312 24.222656 C 78.996094 24.5 78.910156 24.867188 78.632812 25.042969 C 78.15625 25.34375 77.613281 25.496094 77.113281 25.308594 C 76.617188 25.125 76.316406 24.652344 76.179688 24.140625 C 75.972656 23.394531 75.953125 22.574219 75.847656 22.074219 L 75.8125 21.90625 L 75.832031 21.949219 C 75.8125 21.910156 76.085938 22.164062 75.992188 22.109375 C 75.921875 22.066406 76.210938 22.09375 76.164062 22.117188 L 76.195312 22.101562 L 76.105469 22.207031 L 75.667969 22.878906 L 75.199219 23.820312 C 75.046875 24.132812 74.964844 24.414062 74.625 24.664062 C 74.523438 24.742188 74.351562 24.824219 74.140625 24.800781 C 73.929688 24.773438 73.777344 24.648438 73.699219 24.550781 C 73.5625 24.378906 73.546875 24.257812 73.515625 24.148438 L 73.410156 23.621094 L 73.121094 22.347656 L 72.992188 21.820312 L 72.945312 21.660156 C 72.933594 21.632812 73.003906 21.734375 72.964844 21.683594 L 73.039062 21.761719 C 73 21.726562 73.320312 21.890625 73.230469 21.863281 C 73.136719 21.832031 73.707031 21.816406 73.582031 21.855469 C 73.460938 21.898438 73.910156 21.589844 73.855469 21.664062 C 73.804688 21.730469 73.960938 21.441406 73.945312 21.488281 C 73.925781 21.550781 73.96875 21.316406 73.96875 21.347656 L 73.960938 21.285156 Z M 74.019531 21.464844 "/>
<path style=" stroke:none;fill-rule:nonzero;fill:rgb(7.058716%,1.176453%,46.665955%);fill-opacity:1;" d="M 79.519531 17.914062 C 79.769531 18.125 79.800781 18.5 79.585938 18.75 C 79.375 19 79 19.03125 78.75 18.816406 L 78.46875 18.5625 C 78.386719 18.480469 78.242188 18.417969 78.222656 18.0625 C 78.210938 17.859375 78.355469 17.605469 78.503906 17.507812 L 78.796875 17.394531 L 79.113281 17.386719 L 81.042969 17.402344 L 82.425781 17.402344 L 83.351562 17.375 L 83.792969 17.300781 L 83.882812 17.253906 L 83.898438 17.25 C 84.203125 17.125 84.546875 17.273438 84.671875 17.578125 C 84.796875 17.882812 84.648438 18.230469 84.34375 18.351562 L 84.355469 18.347656 L 84.414062 18.320312 L 84.386719 18.332031 L 84.058594 18.460938 L 83.421875 18.5625 L 82.445312 18.59375 L 81.027344 18.59375 L 79.066406 18.578125 L 78.972656 18.574219 L 79.03125 18.558594 C 79 18.570312 79.21875 18.457031 79.164062 18.496094 C 79.105469 18.535156 79.394531 18.199219 79.34375 18.292969 C 79.292969 18.390625 79.40625 17.914062 79.410156 18 C 79.414062 18.082031 79.351562 17.777344 79.367188 17.820312 C 79.390625 17.871094 79.3125 17.722656 79.320312 17.730469 Z M 83.535156 17.84375 C 83.515625 17.519531 83.761719 17.234375 84.089844 17.210938 C 84.417969 17.191406 84.703125 17.4375 84.722656 17.765625 C 84.746094 18.1875 84.644531 18.148438 84.632812 18.195312 L 84.640625 18.503906 L 84.675781 19.355469 L 85.152344 21.09375 L 85.527344 22.234375 C 85.804688 23.019531 86.136719 23.722656 86.492188 24.367188 L 87.710938 26.417969 C 87.910156 26.796875 88.070312 27.160156 88.023438 27.585938 C 88 27.824219 87.875 28.070312 87.699219 28.230469 C 87.527344 28.386719 87.328125 28.480469 87.121094 28.546875 C 86.398438 28.777344 85.4375 28.855469 84.480469 28.808594 C 83.527344 28.761719 82.601562 28.671875 82.015625 28.046875 C 81.792969 27.808594 81.804688 27.429688 82.046875 27.207031 C 82.285156 26.980469 82.660156 26.996094 82.886719 27.234375 C 82.988281 27.34375 83.710938 27.578125 84.539062 27.617188 C 85.378906 27.660156 86.261719 27.574219 86.753906 27.414062 L 86.894531 27.355469 L 86.839844 27.464844 L 86.65625 26.964844 L 85.449219 24.941406 C 85.066406 24.25 84.707031 23.488281 84.402344 22.632812 L 84.019531 21.457031 C 83.792969 20.753906 83.589844 20.113281 83.5 19.535156 L 83.449219 18.511719 C 83.449219 18.363281 83.40625 18.175781 83.484375 17.886719 L 83.546875 17.691406 L 83.542969 17.726562 Z M 83.535156 17.84375 "/>
</g>
</svg>
