<?xml version="1.0" encoding="UTF-8"?>
<svg xmlns="http://www.w3.org/2000/svg" xmlns:xlink="http://www.w3.org/1999/xlink" width="236.7517pt" height="222.3604pt" viewBox="0 0 236.7517 222.3604" version="1.2">
<g id="surface1">
<path style=" stroke:none;fill-rule:nonzero;fill:rgb(7.058716%,1.176453%,46.665955%);fill-opacity:1;" d="M 28.179688 24.585938 C 28.179688 24.257812 28.445312 23.988281 28.773438 23.988281 C 29.105469 23.988281 29.371094 24.257812 29.371094 24.585938 L 29.371094 186.792969 C 29.371094 187.121094 29.105469 187.390625 28.773438 187.390625 C 28.445312 187.390625 28.179688 187.121094 28.179688 186.792969 Z M 28.179688 24.585938 "/>
<path style=" stroke:none;fill-rule:nonzero;fill:rgb(7.058716%,1.176453%,46.665955%);fill-opacity:1;" d="M 29.742188 27 C 30.070312 27.042969 30.296875 27.34375 30.253906 27.671875 C 30.210938 27.996094 29.910156 28.226562 29.582031 28.179688 C 29.15625 28.125 28.789062 27.875 28.597656 27.570312 C 28.410156 27.273438 28.359375 26.960938 28.359375 26.6875 L 28.480469 26.136719 L 28.507812 26.074219 L 28.492188 26.121094 C 28.5 26.097656 28.464844 26.320312 28.46875 26.253906 C 28.492188 25.921875 28.773438 25.675781 29.101562 25.699219 C 29.429688 25.71875 29.679688 26.003906 29.65625 26.332031 L 29.613281 26.527344 L 29.570312 26.617188 L 29.550781 26.691406 L 29.601562 26.933594 Z M 28.941406 25.703125 C 29.265625 25.640625 29.578125 25.847656 29.644531 26.171875 C 29.710938 26.492188 29.5 26.808594 29.179688 26.871094 C 29.097656 26.890625 29.347656 26.808594 29.320312 26.824219 L 29.367188 26.796875 L 28.695312 27.261719 C 27.914062 27.839844 26.875 28.578125 26.027344 29.351562 L 25.007812 30.433594 L 24.941406 30.554688 L 24.933594 30.492188 L 24.882812 30.378906 C 24.910156 30.425781 24.691406 30.207031 24.75 30.242188 C 24.808594 30.28125 24.503906 30.167969 24.566406 30.175781 C 24.644531 30.183594 24.382812 30.191406 24.410156 30.183594 L 24.546875 30.074219 L 25.085938 29.570312 C 26.015625 28.671875 26.972656 27.054688 27.621094 25.773438 L 28.011719 24.992188 C 28.144531 24.761719 28.296875 24.46875 28.699219 24.355469 C 28.960938 24.285156 29.199219 24.367188 29.347656 24.453125 L 29.695312 24.730469 L 30.308594 25.382812 C 31.144531 26.25 32.546875 27.226562 33.132812 28.472656 C 33.355469 28.941406 33.515625 29.550781 33.191406 30.085938 C 32.816406 30.710938 32.121094 30.886719 31.398438 31.039062 C 30.660156 31.195312 29.835938 31.273438 29.046875 31.359375 L 27.039062 31.578125 L 26.070312 31.640625 L 25.660156 31.667969 C 25.53125 31.679688 25.453125 31.765625 25.121094 31.628906 C 24.820312 31.5 24.675781 31.152344 24.800781 30.847656 C 24.925781 30.542969 25.273438 30.398438 25.578125 30.527344 C 25.652344 30.558594 25.421875 30.488281 25.445312 30.492188 L 26.046875 30.449219 L 26.925781 30.390625 L 28.921875 30.171875 L 31.152344 29.875 C 31.761719 29.746094 32.144531 29.515625 32.171875 29.472656 C 32.195312 29.433594 32.203125 29.296875 32.054688 28.980469 C 31.683594 28.195312 30.378906 27.171875 29.449219 26.210938 L 28.859375 25.582031 L 28.753906 25.484375 L 28.824219 25.511719 C 28.777344 25.5 29.09375 25.484375 29.023438 25.503906 L 29.117188 25.460938 L 29.050781 25.578125 L 28.683594 26.3125 C 28.003906 27.65625 27.039062 29.339844 25.917969 30.425781 L 25.308594 30.996094 C 25.09375 31.167969 24.902344 31.421875 24.40625 31.355469 C 24.195312 31.328125 23.984375 31.1875 23.875 31.015625 C 23.773438 30.851562 23.746094 30.6875 23.75 30.539062 C 23.753906 30.25 23.859375 29.992188 24.03125 29.75 C 24.324219 29.332031 24.75 28.90625 25.222656 28.472656 C 26.144531 27.632812 27.214844 26.871094 27.988281 26.304688 L 28.730469 25.789062 Z M 25.308594 31.671875 C 24.980469 31.644531 24.734375 31.359375 24.757812 31.03125 C 24.785156 30.703125 25.070312 30.457031 25.398438 30.484375 C 25.472656 30.488281 25.199219 30.5 25.238281 30.492188 L 25.15625 30.515625 L 25.09375 30.542969 L 25.140625 30.515625 L 25.4375 30.351562 C 25.738281 30.210938 26.09375 30.34375 26.230469 30.640625 C 26.371094 30.9375 26.238281 31.292969 25.941406 31.433594 L 25.773438 31.527344 L 25.675781 31.585938 L 25.570312 31.632812 Z M 25.308594 31.671875 "/>
<path style=" stroke:none;fill-rule:nonzero;fill:rgb(7.058716%,1.176453%,46.665955%);fill-opacity:1;" d="M 28.773438 187.390625 C 28.445312 187.390625 28.179688 187.121094 28.179688 186.792969 C 28.179688 186.464844 28.445312 186.199219 28.773438 186.199219 L 207.566406 186.199219 C 207.894531 186.199219 208.164062 186.464844 208.164062 186.792969 C 208.164062 187.121094 207.894531 187.390625 207.566406 187.390625 Z M 28.773438 187.390625 "/>
<path style=" stroke:none;fill-rule:nonzero;fill:rgb(7.058716%,1.176453%,46.665955%);fill-opacity:1;" d="M 208.175781 185.316406 C 208.492188 185.226562 208.820312 185.410156 208.910156 185.726562 C 209 186.042969 208.816406 186.371094 208.5 186.460938 C 207.410156 186.773438 205.980469 186.273438 204.683594 185.425781 C 204.105469 185.046875 203.632812 184.578125 203.261719 184.179688 L 202.691406 183.441406 L 202.484375 183.214844 C 202.472656 183.203125 202.574219 183.257812 202.527344 183.234375 C 202.496094 183.222656 202.730469 183.273438 202.664062 183.269531 C 202.597656 183.261719 202.992188 183.191406 202.90625 183.230469 C 202.824219 183.265625 203.136719 183.042969 203.09375 183.09375 C 203.054688 183.136719 203.179688 182.953125 203.167969 182.980469 L 203.1875 182.929688 L 203.183594 183.148438 L 203.261719 183.957031 L 203.613281 185.851562 C 203.824219 187.132812 203.886719 188.644531 204.035156 189.816406 L 204.257812 191.03125 L 204.355469 191.382812 L 204.308594 191.308594 C 204.335938 191.347656 204.132812 191.160156 204.1875 191.195312 C 204.273438 191.253906 203.828125 191.101562 203.910156 191.105469 C 203.992188 191.109375 203.691406 191.140625 203.734375 191.125 C 203.804688 191.101562 203.636719 191.171875 203.640625 191.167969 L 203.757812 191.054688 L 204.203125 190.480469 L 206.34375 187.410156 L 207.269531 185.917969 C 207.4375 185.691406 207.625 185.464844 207.9375 185.328125 C 208.261719 185.1875 208.699219 185.253906 208.992188 185.460938 C 209.265625 185.648438 209.332031 186.019531 209.144531 186.289062 C 208.957031 186.558594 208.582031 186.625 208.3125 186.4375 C 208.269531 186.40625 208.445312 186.40625 208.410156 186.421875 L 208.234375 186.621094 L 207.320312 188.089844 L 205.171875 191.171875 L 204.640625 191.851562 L 204.34375 192.132812 L 204.09375 192.261719 C 203.964844 192.304688 203.730469 192.324219 203.527344 192.1875 C 203.230469 191.992188 203.222656 191.769531 203.195312 191.660156 L 203.140625 191.445312 C 202.984375 191.023438 202.925781 190.535156 202.851562 189.964844 C 202.695312 188.726562 202.632812 187.222656 202.4375 186.046875 L 202.082031 184.097656 L 201.992188 183.199219 L 202.007812 182.757812 L 202.082031 182.488281 C 202.132812 182.378906 202.234375 182.222656 202.4375 182.132812 C 202.65625 182.039062 202.871094 182.085938 203 182.140625 L 203.265625 182.316406 L 203.613281 182.6875 L 204.136719 183.367188 C 204.472656 183.730469 204.886719 184.136719 205.335938 184.429688 C 206.425781 185.140625 207.75 185.4375 208.175781 185.316406 "/>
<path style=" stroke:none;fill-rule:nonzero;fill:rgb(7.058716%,1.176453%,46.665955%);fill-opacity:1;" d="M 201.390625 195.898438 C 201.085938 196.019531 200.738281 195.871094 200.617188 195.5625 C 200.496094 195.257812 200.644531 194.910156 200.953125 194.789062 C 201.308594 194.648438 201.609375 194.550781 201.953125 194.59375 C 202.128906 194.617188 202.332031 194.699219 202.484375 194.851562 C 202.632812 195.003906 202.699219 195.199219 202.71875 195.363281 C 202.800781 195.980469 202.507812 196.507812 202.191406 197.191406 C 201.554688 198.574219 200.6875 200.542969 200.511719 202.136719 C 200.425781 202.925781 200.613281 203.46875 200.925781 203.832031 C 201.238281 204.195312 201.71875 204.421875 202.261719 204.503906 C 202.816406 204.585938 203.417969 204.515625 203.921875 204.316406 C 204.414062 204.121094 204.789062 203.8125 204.953125 203.472656 C 205.097656 203.175781 205.453125 203.054688 205.75 203.195312 C 206.046875 203.339844 206.167969 203.699219 206.027344 203.992188 C 205.691406 204.675781 205.0625 205.148438 204.359375 205.425781 C 203.652344 205.703125 202.855469 205.796875 202.085938 205.683594 C 201.316406 205.570312 200.558594 205.230469 200.023438 204.609375 C 199.480469 203.980469 199.214844 203.0625 199.328125 202.007812 C 199.535156 200.125 200.460938 198.101562 201.109375 196.695312 C 201.40625 196.050781 201.539062 195.527344 201.539062 195.515625 L 201.554688 195.574219 L 201.625 195.679688 L 201.734375 195.757812 L 201.804688 195.777344 Z M 201.390625 195.898438 "/>
<path style=" stroke:none;fill-rule:nonzero;fill:rgb(7.058716%,1.176453%,46.665955%);fill-opacity:1;" d="M 198.582031 199.847656 C 198.65625 200.167969 198.457031 200.488281 198.136719 200.5625 C 197.816406 200.640625 197.496094 200.441406 197.421875 200.121094 C 197.320312 199.683594 197.539062 199.167969 197.878906 198.9375 C 198.210938 198.707031 198.589844 198.628906 199.003906 198.582031 C 199.851562 198.476562 200.886719 198.539062 201.957031 198.605469 C 203.03125 198.675781 204.097656 198.757812 204.9375 198.738281 L 205.878906 198.632812 L 206.054688 198.5625 L 206.015625 198.625 C 206.128906 198.316406 206.472656 198.15625 206.78125 198.269531 C 207.089844 198.382812 207.25 198.726562 207.136719 199.035156 C 206.972656 199.480469 206.566406 199.679688 206.199219 199.78125 C 205.832031 199.882812 205.421875 199.917969 204.96875 199.929688 C 204.035156 199.949219 202.949219 199.863281 201.882812 199.796875 C 200.828125 199.730469 199.832031 199.679688 199.144531 199.765625 L 198.554688 199.917969 Z M 198.582031 199.847656 "/>
<path style=" stroke:none;fill-rule:nonzero;fill:rgb(7.058716%,1.176453%,46.665955%);fill-opacity:1;" d="M 9.9375 31.585938 C 10.019531 31.902344 9.832031 32.230469 9.511719 32.3125 C 9.195312 32.398438 8.867188 32.207031 8.785156 31.890625 C 8.671875 31.453125 8.503906 31.121094 8.34375 30.777344 L 8.117188 30.160156 C 8.058594 29.941406 7.925781 29.710938 7.933594 29.320312 L 9.125 29.347656 C 9.121094 29.445312 9.070312 29.113281 9.085938 29.148438 L 9.070312 29.113281 L 9.140625 29.191406 L 9.523438 29.617188 C 10.234375 30.570312 11.886719 32.390625 13.457031 34.164062 L 15.511719 36.410156 L 16.425781 37.191406 L 16.539062 37.265625 C 16.5625 37.277344 16.433594 37.226562 16.511719 37.253906 L 16.414062 37.230469 C 16.445312 37.234375 16.234375 37.222656 16.292969 37.222656 L 16.183594 37.234375 C 16.226562 37.222656 15.960938 37.332031 16.019531 37.296875 C 16.308594 37.136719 16.671875 37.238281 16.832031 37.523438 C 16.992188 37.808594 16.890625 38.175781 16.605469 38.335938 C 16.183594 38.574219 16.144531 38.390625 16.097656 38.375 L 15.75 38.171875 L 14.664062 37.253906 L 12.5625 34.953125 C 10.996094 33.183594 9.355469 31.386719 8.566406 30.328125 L 8.28125 30.015625 C 8.160156 29.890625 7.921875 29.8125 7.933594 29.320312 C 7.941406 28.992188 8.210938 28.730469 8.542969 28.738281 C 8.871094 28.746094 9.132812 29.019531 9.125 29.347656 L 9.269531 29.855469 L 9.421875 30.269531 C 9.578125 30.601562 9.789062 31.027344 9.9375 31.585938 M 16.90625 37.882812 C 16.867188 38.210938 16.570312 38.445312 16.246094 38.40625 C 15.917969 38.371094 15.683594 38.074219 15.722656 37.746094 C 15.734375 37.644531 15.757812 38.039062 15.742188 37.984375 C 15.714844 37.894531 15.839844 38.175781 15.816406 38.144531 C 15.765625 38.066406 15.914062 38.253906 15.902344 38.242188 L 15.867188 38.21875 C 15.597656 38.03125 15.535156 37.660156 15.722656 37.390625 C 15.910156 37.121094 16.285156 37.054688 16.554688 37.246094 L 16.703125 37.359375 L 16.769531 37.429688 C 16.804688 37.472656 16.949219 37.503906 16.90625 37.882812 "/>
<path style=" stroke:none;fill-rule:nonzero;fill:rgb(7.058716%,1.176453%,46.665955%);fill-opacity:1;" d="M 10.519531 37.5625 C 10.839844 37.632812 11.039062 37.953125 10.96875 38.273438 C 10.894531 38.59375 10.578125 38.796875 10.257812 38.722656 C 9.679688 38.59375 9.199219 38.246094 8.925781 37.785156 C 8.65625 37.328125 8.582031 36.785156 8.640625 36.25 C 8.671875 35.964844 8.71875 35.570312 8.917969 35.136719 C 9.628906 33.617188 11.300781 32.148438 12.535156 30.765625 C 13.34375 29.859375 13.941406 29.089844 14.289062 28.457031 C 14.605469 27.875 14.667969 27.464844 14.585938 27.207031 C 14.488281 26.894531 14.660156 26.558594 14.976562 26.460938 C 15.289062 26.359375 15.625 26.535156 15.722656 26.847656 C 15.941406 27.539062 15.734375 28.292969 15.332031 29.027344 C 14.914062 29.796875 14.265625 30.617188 13.425781 31.558594 C 12.144531 32.992188 10.53125 34.5 10 35.640625 C 9.882812 35.890625 9.855469 36.109375 9.824219 36.382812 C 9.789062 36.714844 9.84375 36.992188 9.953125 37.179688 C 10.0625 37.363281 10.226562 37.496094 10.519531 37.5625 "/>
<path style=" stroke:none;fill-rule:nonzero;fill:rgb(92.941284%,21.176147%,14.117432%);fill-opacity:1;" d="M 208.164062 186.792969 C 208.164062 187.121094 207.894531 187.390625 207.566406 187.390625 C 207.238281 187.390625 206.96875 187.121094 206.96875 186.792969 L 206.96875 23.722656 C 206.96875 23.394531 207.238281 23.128906 207.566406 23.128906 C 207.894531 23.128906 208.164062 23.394531 208.164062 23.722656 Z M 208.164062 186.792969 "/>
<path style=" stroke:none;fill-rule:nonzero;fill:rgb(92.941284%,21.176147%,14.117432%);fill-opacity:1;" d="M 207.363281 24.730469 C 207.570312 24.988281 207.527344 25.363281 207.273438 25.570312 C 207.015625 25.777344 206.640625 25.734375 206.433594 25.480469 L 206.417969 25.457031 L 206.507812 25.480469 L 206.449219 25.535156 C 206.242188 25.695312 205.929688 26.089844 205.585938 26.554688 L 204.132812 28.539062 L 203.742188 29.238281 L 203.589844 29.460938 C 203.53125 29.53125 203.488281 29.636719 203.214844 29.699219 C 203.054688 29.738281 202.730469 29.671875 202.582031 29.46875 C 202.445312 29.289062 202.457031 29.144531 202.460938 29.054688 L 202.546875 28.742188 L 203.164062 27.707031 L 204.140625 26.117188 L 204.4375 25.527344 L 204.753906 24.859375 L 204.828125 24.605469 C 204.851562 24.527344 204.878906 24.347656 205.136719 24.195312 L 205.558594 24.113281 L 205.800781 24.195312 C 206.207031 24.414062 206.308594 24.6875 206.464844 24.847656 L 207.257812 25.460938 C 207.9375 25.976562 208.453125 26.523438 209.019531 27.027344 C 209.539062 27.488281 210.167969 27.941406 210.652344 28.4375 L 211.0625 28.929688 C 211.179688 29.117188 211.300781 29.386719 211.214844 29.714844 C 211.105469 30.136719 210.773438 30.320312 210.488281 30.441406 L 209.53125 30.703125 C 208.808594 30.832031 207.976562 30.886719 207.183594 30.925781 C 206.261719 30.96875 205.292969 30.957031 204.46875 30.78125 C 204.023438 30.6875 203.644531 30.542969 203.355469 30.335938 L 203.054688 29.972656 C 202.984375 29.804688 202.984375 29.59375 203.046875 29.425781 C 203.167969 29.105469 203.417969 28.972656 203.640625 28.898438 C 204.636719 28.574219 205.890625 28.992188 206.550781 28.820312 C 206.871094 28.734375 207.195312 28.925781 207.28125 29.242188 C 207.363281 29.5625 207.175781 29.886719 206.855469 29.972656 C 205.699219 30.277344 204.289062 29.941406 204.011719 30.03125 L 204.046875 30.011719 C 204.015625 30.035156 204.195312 29.753906 204.160156 29.847656 C 204.144531 29.894531 204.1875 29.621094 204.191406 29.679688 C 204.191406 29.742188 204.136719 29.464844 204.15625 29.515625 L 204.089844 29.40625 L 204.042969 29.363281 L 204.714844 29.617188 C 205.367188 29.753906 206.265625 29.777344 207.125 29.734375 L 209.324219 29.53125 L 210.019531 29.347656 L 210.128906 29.289062 L 210.105469 29.316406 L 210.0625 29.410156 C 210.082031 29.335938 210.066406 29.601562 210.058594 29.574219 L 210.050781 29.566406 L 209.800781 29.269531 L 208.226562 27.917969 C 207.617188 27.378906 207.125 26.855469 206.539062 26.410156 C 206.285156 26.214844 205.925781 26.003906 205.609375 25.675781 L 205.304688 25.328125 L 205.238281 25.246094 C 205.21875 25.234375 205.472656 25.304688 205.386719 25.292969 C 205.339844 25.285156 205.617188 25.28125 205.554688 25.289062 C 205.488281 25.300781 205.800781 25.1875 205.742188 25.21875 C 205.6875 25.253906 205.90625 25.074219 205.875 25.109375 C 205.832031 25.160156 205.964844 24.964844 205.953125 24.992188 L 205.96875 24.953125 L 205.839844 25.351562 L 205.519531 26.027344 L 205.171875 26.714844 L 204.171875 28.339844 L 203.632812 29.230469 C 203.632812 29.238281 203.65625 29.070312 203.652344 29.128906 C 203.648438 29.160156 203.632812 28.9375 203.644531 28.996094 C 203.65625 29.058594 203.472656 28.671875 203.539062 28.761719 C 203.574219 28.808594 203.355469 28.59375 203.40625 28.632812 C 203.488281 28.691406 203.058594 28.519531 203.144531 28.53125 C 203.226562 28.539062 202.886719 28.554688 202.941406 28.542969 C 203.007812 28.523438 202.761719 28.617188 202.796875 28.597656 L 202.710938 28.660156 L 202.683594 28.6875 L 202.695312 28.660156 L 203.132812 27.890625 L 204.628906 25.839844 C 204.984375 25.367188 205.304688 24.914062 205.714844 24.59375 C 205.921875 24.433594 206.183594 24.285156 206.511719 24.289062 C 206.847656 24.289062 207.164062 24.484375 207.363281 24.730469 "/>
<path style=" stroke:none;fill-rule:nonzero;fill:rgb(92.941284%,21.176147%,14.117432%);fill-opacity:1;" d="M 206.148438 27.847656 C 206.472656 27.789062 206.785156 28.003906 206.839844 28.328125 C 206.898438 28.652344 206.683594 28.964844 206.359375 29.019531 C 206.121094 29.0625 205.867188 29.054688 205.636719 28.945312 C 205.402344 28.835938 205.230469 28.621094 205.152344 28.410156 C 205.003906 28.007812 205.089844 27.640625 205.222656 27.316406 C 205.425781 26.828125 205.804688 26.707031 205.921875 26.628906 L 205.890625 26.65625 L 205.824219 26.742188 L 205.78125 26.832031 C 205.796875 26.792969 205.75 27.050781 205.753906 26.984375 C 205.757812 26.917969 205.824219 27.304688 205.792969 27.21875 C 205.757812 27.132812 206.042969 27.519531 205.964844 27.457031 C 205.890625 27.394531 206.265625 27.585938 206.195312 27.570312 C 206.128906 27.554688 206.414062 27.578125 206.367188 27.582031 C 206.28125 27.589844 206.566406 27.523438 206.535156 27.539062 C 206.476562 27.566406 206.597656 27.496094 206.589844 27.503906 L 205.609375 28.847656 L 205.355469 29.3125 L 205.351562 29.300781 L 205.328125 29.246094 C 205.347656 29.273438 205.132812 29.097656 205.203125 29.136719 C 205.273438 29.175781 204.9375 29.070312 205 29.074219 C 205.058594 29.078125 204.828125 29.089844 204.859375 29.082031 C 204.921875 29.070312 204.769531 29.113281 204.773438 29.113281 L 204.886719 29.011719 L 205.292969 28.464844 L 205.710938 27.683594 C 205.875 27.316406 206.191406 27.167969 206.4375 27.027344 L 208.09375 26.058594 C 208.363281 25.871094 208.734375 25.9375 208.925781 26.207031 C 209.113281 26.476562 209.046875 26.847656 208.777344 27.035156 L 207.03125 28.0625 L 206.773438 28.210938 L 206.796875 28.171875 L 206.332031 29.050781 L 205.738281 29.847656 L 205.382812 30.136719 L 205.109375 30.246094 C 204.984375 30.273438 204.796875 30.277344 204.621094 30.179688 C 204.371094 30.039062 204.265625 29.832031 204.207031 29.628906 C 204.148438 29.425781 204.148438 29.199219 204.214844 28.972656 C 204.300781 28.6875 204.449219 28.460938 204.601562 28.214844 C 204.957031 27.652344 205.359375 27.058594 205.738281 26.671875 L 206.023438 26.460938 L 206.265625 26.394531 C 206.382812 26.382812 206.554688 26.398438 206.714844 26.53125 C 206.882812 26.664062 206.949219 26.886719 206.945312 27.039062 L 206.851562 27.34375 L 206.589844 27.617188 L 206.34375 27.777344 C 206.296875 27.8125 206.351562 27.710938 206.328125 27.769531 L 206.269531 27.996094 C 206.28125 28.027344 206.089844 27.839844 206.148438 27.867188 C 206.199219 27.894531 206.085938 27.859375 206.148438 27.847656 "/>
<path style=" stroke:none;fill-rule:nonzero;fill:rgb(92.941284%,21.176147%,14.117432%);fill-opacity:1;" d="M 220.125 28.597656 C 219.84375 28.765625 219.476562 28.671875 219.308594 28.390625 C 219.140625 28.105469 219.234375 27.738281 219.515625 27.574219 C 219.601562 27.519531 219.363281 27.734375 219.378906 27.707031 L 219.371094 27.722656 L 219.382812 27.5625 L 219.398438 27.65625 C 219.386719 27.613281 219.507812 27.839844 219.46875 27.792969 C 219.433594 27.742188 219.679688 27.960938 219.621094 27.925781 C 219.558594 27.890625 219.875 27.992188 219.8125 27.988281 C 219.75 27.980469 220.027344 27.960938 219.980469 27.976562 L 220.09375 27.929688 C 220.035156 27.960938 220.207031 27.8125 220.191406 27.835938 L 220.140625 28.570312 C 220.164062 29.011719 220.265625 29.515625 220.433594 29.941406 C 220.671875 30.535156 221.378906 31.042969 222.03125 31.191406 C 222.308594 31.253906 222.621094 31.148438 222.949219 30.859375 C 223.296875 30.550781 223.609375 30.074219 223.808594 29.5625 C 224.035156 28.992188 224.121094 28.347656 224.183594 27.789062 L 224.25 27.148438 L 224.253906 26.886719 L 224.253906 26.820312 C 224.253906 26.8125 224.300781 27 224.273438 26.917969 C 224.175781 26.601562 224.351562 26.269531 224.667969 26.171875 C 224.980469 26.074219 225.3125 26.246094 225.414062 26.5625 C 225.5625 27.046875 225.410156 27.285156 225.410156 27.574219 C 225.40625 28.046875 225.476562 28.722656 225.699219 29.492188 C 226.007812 30.542969 226.785156 31.808594 227.230469 33.1875 C 227.460938 33.890625 227.582031 34.589844 227.582031 35.230469 C 227.585938 35.664062 227.582031 36.125 227.367188 36.574219 C 227.070312 37.191406 226.476562 37.5625 225.859375 37.75 C 225.242188 37.941406 224.566406 37.976562 223.914062 37.910156 C 223.265625 37.839844 222.652344 37.671875 222.144531 37.378906 C 221.894531 37.230469 221.664062 37.046875 221.492188 36.804688 C 221.320312 36.5625 221.214844 36.238281 221.242188 35.910156 C 221.273438 35.582031 221.566406 35.34375 221.894531 35.375 C 222.222656 35.40625 222.460938 35.695312 222.429688 36.023438 L 222.464844 36.117188 L 222.746094 36.347656 C 223.054688 36.527344 223.527344 36.667969 224.039062 36.722656 C 224.554688 36.777344 225.085938 36.742188 225.511719 36.613281 C 225.917969 36.488281 226.183594 36.289062 226.292969 36.058594 L 226.390625 35.234375 C 226.390625 34.742188 226.292969 34.152344 226.097656 33.554688 C 225.707031 32.347656 224.929688 31.097656 224.558594 29.824219 C 224.296875 28.941406 224.210938 28.160156 224.21875 27.5625 L 224.25 27.019531 L 224.261719 26.871094 C 224.261719 26.847656 224.292969 26.984375 224.273438 26.917969 L 225.414062 26.5625 L 225.445312 26.871094 L 225.4375 27.21875 L 225.367188 27.925781 C 225.300781 28.507812 225.210938 29.253906 224.917969 30 C 224.65625 30.660156 224.261719 31.285156 223.738281 31.75 C 223.21875 32.210938 222.503906 32.519531 221.765625 32.355469 C 220.769531 32.125 219.753906 31.445312 219.328125 30.386719 C 219.097656 29.8125 218.980469 29.199219 218.949219 28.636719 C 218.917969 28.089844 218.910156 27.617188 219.195312 27.179688 L 219.472656 26.910156 C 219.597656 26.835938 219.753906 26.78125 219.9375 26.800781 C 220.121094 26.820312 220.3125 26.929688 220.425781 27.078125 C 220.535156 27.222656 220.570312 27.386719 220.574219 27.523438 L 220.527344 28.015625 C 220.480469 28.191406 220.414062 28.425781 220.125 28.597656 "/>
<path style=" stroke:none;fill-rule:nonzero;fill:rgb(7.058716%,1.176453%,46.665955%);fill-opacity:1;" d="M 31.355469 146.382812 C 31.375 146.710938 31.121094 146.992188 30.792969 147.011719 C 30.464844 147.027344 30.183594 146.777344 30.164062 146.449219 C 30.070312 144.664062 31.160156 143.074219 31.949219 141.359375 L 33.996094 136.769531 L 35.308594 134.019531 C 35.910156 132.722656 36.15625 131.742188 36.625 130.277344 C 37.214844 128.417969 38.289062 126.003906 39.367188 123.582031 C 40.449219 121.152344 41.28125 118.765625 42.296875 115.992188 C 43.292969 113.28125 44.472656 110.714844 45.503906 108.273438 C 46.550781 105.800781 47.757812 102.992188 49.367188 99.847656 L 51.753906 95.085938 C 52.851562 92.75 53.695312 90.425781 54.929688 88.023438 C 56.082031 85.773438 57.546875 83.367188 59.183594 80.945312 L 61.308594 77.972656 C 63.625 74.78125 65.21875 71.929688 67.222656 69.019531 C 69.667969 65.46875 72.453125 61.855469 75.039062 58.898438 C 76.179688 57.589844 77.167969 56.523438 78.054688 55.648438 C 78.914062 54.796875 79.691406 54.121094 80.4375 53.5625 C 82.171875 52.261719 84.308594 51.226562 86.0625 50.59375 C 88.714844 49.640625 91.527344 49.644531 94.003906 50.808594 C 96.488281 51.972656 98.492188 53.183594 100.484375 55.648438 L 101.230469 56.484375 C 102.535156 57.917969 104.074219 59.421875 105.707031 61.109375 C 107.375 62.832031 109.132812 64.738281 110.855469 66.9375 C 113.683594 70.550781 116.808594 74.996094 119.964844 79.660156 C 122.222656 82.996094 124.628906 86.390625 127.019531 90.054688 C 129.433594 93.761719 131.832031 97.765625 134.046875 102.257812 C 136.75 107.75 139.5625 112.902344 142.945312 118.449219 C 146.894531 124.921875 150.621094 130.703125 154 135.863281 L 162.710938 149.171875 C 164.367188 151.761719 165.890625 153.992188 167.335938 155.96875 C 168.75 157.898438 170.105469 159.601562 171.457031 161.183594 C 173.667969 163.773438 176.070312 166.050781 179.023438 167.820312 C 181.003906 169.007812 183.292969 168.976562 185.496094 168.484375 C 186.539062 168.253906 187.5 167.367188 188.316406 166.582031 L 189.859375 165.269531 L 190.660156 164.671875 L 191.375 164.183594 C 192.457031 163.46875 193.378906 163.199219 193.96875 162.691406 C 194.792969 161.976562 195.480469 160.707031 196.171875 159.484375 L 197.398438 157.351562 L 199.980469 153.289062 L 201.910156 150.410156 C 202.105469 150.148438 202.480469 150.09375 202.742188 150.289062 C 203.007812 150.488281 203.0625 150.859375 202.863281 151.125 L 200.980469 153.9375 L 198.414062 157.972656 L 197.210938 160.070312 C 196.523438 161.285156 195.820312 162.667969 194.75 163.59375 C 193.914062 164.3125 192.964844 164.5625 192.03125 165.175781 L 191.339844 165.648438 L 190.601562 166.203125 L 189.140625 167.445312 C 188.308594 168.238281 187.226562 169.320312 185.753906 169.648438 C 183.386719 170.175781 180.738281 170.242188 178.410156 168.84375 C 175.320312 166.992188 172.816406 164.613281 170.550781 161.957031 C 169.179688 160.351562 167.808594 158.625 166.375 156.671875 C 164.910156 154.675781 163.375 152.421875 161.707031 149.8125 L 157.699219 143.65625 L 150.425781 132.558594 C 147.753906 128.433594 144.90625 123.949219 141.929688 119.066406 C 138.527344 113.492188 135.695312 108.304688 132.976562 102.785156 C 130.789062 98.34375 128.414062 94.382812 126.019531 90.703125 C 123.648438 87.0625 121.242188 83.675781 118.976562 80.328125 C 115.832031 75.675781 112.714844 71.25 109.917969 67.671875 C 108.230469 65.519531 106.5 63.644531 104.851562 61.9375 C 103.230469 60.261719 101.6875 58.753906 100.351562 57.289062 L 99.554688 56.398438 C 97.6875 54.082031 95.921875 53.023438 93.5 51.886719 C 91.324219 50.867188 88.867188 50.851562 86.46875 51.714844 C 84.820312 52.308594 82.753906 53.316406 81.152344 54.515625 C 80.457031 55.035156 79.722656 55.675781 78.894531 56.496094 L 75.933594 59.683594 C 73.386719 62.597656 70.621094 66.179688 68.203125 69.695312 C 66.238281 72.554688 64.632812 75.421875 62.273438 78.671875 L 60.171875 81.609375 C 58.558594 84 57.113281 86.375 55.988281 88.566406 C 54.792969 90.894531 53.953125 93.199219 52.835938 95.589844 L 50.425781 100.390625 C 48.839844 103.496094 47.644531 106.269531 46.601562 108.738281 C 45.558594 111.199219 44.390625 113.742188 43.417969 116.402344 C 42.40625 119.167969 41.5625 121.582031 40.457031 124.070312 C 39.382812 126.484375 38.320312 128.886719 37.757812 130.640625 C 37.300781 132.074219 37.035156 133.132812 36.390625 134.519531 L 35.078125 137.273438 L 33.03125 141.859375 C 32.207031 143.652344 31.289062 145.128906 31.355469 146.382812 "/>
<path style=" stroke:none;fill-rule:nonzero;fill:rgb(7.058716%,1.176453%,46.665955%);fill-opacity:1;" d="M 31.191406 144.597656 C 31.292969 144.285156 31.628906 144.113281 31.941406 144.214844 C 32.253906 144.316406 32.425781 144.652344 32.324219 144.96875 C 31.824219 146.488281 31.445312 148.324219 30.296875 150.042969 C 30.113281 150.316406 29.742188 150.386719 29.46875 150.207031 C 29.195312 150.023438 29.125 149.652344 29.304688 149.378906 C 30.308594 147.878906 30.667969 146.1875 31.191406 144.597656 "/>
<path style=" stroke:none;fill-rule:nonzero;fill:rgb(7.058716%,1.176453%,46.665955%);fill-opacity:1;" d="M 30.390625 146.050781 C 30.414062 145.722656 30.699219 145.472656 31.027344 145.5 C 31.355469 145.523438 31.605469 145.808594 31.582031 146.136719 C 31.515625 147.027344 31.125 147.664062 30.703125 148.085938 L 30.289062 148.5 C 30.078125 148.683594 29.910156 148.941406 29.449219 149.042969 L 29.179688 149.066406 L 28.902344 148.988281 L 28.617188 148.675781 C 28.511719 148.429688 28.574219 148.265625 28.609375 148.15625 L 28.742188 147.875 C 28.90625 147.589844 29.269531 147.492188 29.558594 147.65625 C 29.84375 147.816406 29.941406 148.183594 29.777344 148.46875 L 29.738281 148.542969 L 29.757812 148.457031 C 29.75 148.511719 29.667969 148.101562 29.714844 148.207031 C 29.738281 148.261719 29.566406 148 29.609375 148.050781 C 29.65625 148.097656 29.421875 147.914062 29.46875 147.941406 C 29.558594 147.988281 29.21875 147.875 29.261719 147.878906 L 29.191406 147.878906 L 29.152344 147.890625 L 29.507812 147.601562 L 29.859375 147.246094 C 30.160156 146.945312 30.347656 146.671875 30.390625 146.050781 "/>
<path style=" stroke:none;fill-rule:nonzero;fill:rgb(92.941284%,21.176147%,14.117432%);fill-opacity:1;" d="M 204.773438 168.296875 C 205 168.535156 204.988281 168.914062 204.746094 169.136719 C 204.507812 169.363281 204.128906 169.351562 203.90625 169.113281 C 203.773438 168.972656 203.652344 168.84375 203.578125 168.613281 C 203.539062 168.492188 203.519531 168.320312 203.574219 168.152344 C 203.628906 167.984375 203.746094 167.855469 203.855469 167.78125 C 204.234375 167.515625 204.535156 167.566406 204.929688 167.542969 L 206.472656 167.433594 L 209.257812 167.097656 L 210.746094 166.828125 C 211.542969 166.683594 212.113281 166.546875 212.589844 166.550781 L 212.984375 166.617188 C 213.140625 166.675781 213.34375 166.828125 213.425781 167.050781 C 213.503906 167.265625 213.46875 167.453125 213.421875 167.589844 L 213.25 167.941406 C 213.070312 168.21875 212.703125 168.296875 212.425781 168.121094 C 212.148438 167.945312 212.066406 167.574219 212.246094 167.296875 L 212.292969 167.214844 L 212.28125 167.285156 C 212.285156 167.242188 212.335938 167.539062 212.308594 167.464844 C 212.28125 167.394531 212.492188 167.703125 212.4375 167.65625 C 212.386719 167.609375 212.597656 167.746094 212.566406 167.734375 C 212.515625 167.714844 212.613281 167.746094 212.578125 167.746094 L 210.960938 168.003906 L 209.429688 168.277344 L 206.582031 168.621094 L 205.003906 168.730469 L 204.566406 168.773438 L 204.484375 168.789062 C 204.476562 168.789062 204.585938 168.726562 204.539062 168.757812 L 204.628906 168.671875 C 204.597656 168.714844 204.726562 168.464844 204.710938 168.523438 C 204.691406 168.578125 204.730469 168.308594 204.730469 168.359375 L 204.714844 168.25 L 204.699219 168.207031 Z M 204.773438 168.296875 "/>
<path style=" stroke:none;fill-rule:nonzero;fill:rgb(92.941284%,21.176147%,14.117432%);fill-opacity:1;" d="M 205.285156 150.449219 C 205.449219 150.734375 205.347656 151.097656 205.0625 151.261719 C 204.777344 151.425781 204.414062 151.328125 204.25 151.042969 C 204.152344 150.867188 204.0625 150.644531 204.121094 150.371094 C 204.183594 150.09375 204.414062 149.898438 204.589844 149.820312 C 204.917969 149.671875 205.195312 149.691406 205.488281 149.691406 C 207.441406 149.703125 211.160156 149.660156 212.804688 150.074219 C 213.121094 150.15625 213.316406 150.480469 213.234375 150.796875 C 213.15625 151.117188 212.832031 151.308594 212.511719 151.230469 C 211.269531 150.917969 207.417969 150.894531 205.484375 150.882812 L 205.078125 150.90625 C 205.0625 150.914062 205.21875 150.789062 205.175781 150.835938 C 205.128906 150.882812 205.304688 150.554688 205.285156 150.632812 C 205.269531 150.707031 205.277344 150.429688 205.285156 150.464844 Z M 205.285156 150.449219 "/>
<path style=" stroke:none;fill-rule:nonzero;fill:rgb(92.941284%,21.176147%,14.117432%);fill-opacity:1;" d="M 205.066406 133.484375 C 205.363281 133.628906 205.488281 133.984375 205.347656 134.28125 C 205.207031 134.578125 204.851562 134.703125 204.554688 134.5625 C 204.109375 134.351562 203.945312 134.015625 203.796875 133.59375 C 203.714844 133.351562 203.675781 133.097656 203.726562 132.828125 C 203.761719 132.640625 203.875 132.46875 204 132.359375 L 204.359375 132.160156 L 205.023438 132.054688 L 207.648438 131.988281 L 210.730469 131.738281 L 212.179688 131.601562 L 212.84375 131.546875 C 212.9375 131.546875 213.003906 131.414062 213.355469 131.695312 C 213.464844 131.785156 213.585938 131.984375 213.582031 132.179688 C 213.578125 132.367188 213.5 132.480469 213.449219 132.546875 L 213.246094 132.722656 C 212.96875 132.898438 212.601562 132.8125 212.425781 132.535156 C 212.25 132.253906 212.335938 131.886719 212.617188 131.714844 L 212.589844 131.730469 C 212.609375 131.71875 212.46875 131.867188 212.507812 131.816406 C 212.527344 131.789062 212.414062 131.988281 212.4375 131.933594 C 212.457031 131.890625 212.386719 132.152344 212.394531 132.089844 C 212.40625 131.992188 212.484375 132.507812 212.4375 132.40625 C 212.394531 132.308594 212.660156 132.667969 212.605469 132.621094 C 212.554688 132.582031 212.761719 132.710938 212.726562 132.699219 C 212.671875 132.671875 212.867188 132.738281 212.839844 132.734375 C 212.78125 132.722656 212.894531 132.738281 212.871094 132.738281 L 212.277344 132.789062 L 210.84375 132.921875 L 207.699219 133.175781 L 205.09375 133.246094 L 204.738281 133.292969 L 204.78125 133.261719 C 204.734375 133.300781 204.914062 132.964844 204.898438 133.050781 L 204.921875 133.199219 L 205.054688 133.445312 L 205.113281 133.511719 C 205.121094 133.519531 205.011719 133.460938 205.066406 133.484375 "/>
<path style=" stroke:none;fill-rule:nonzero;fill:rgb(92.941284%,21.176147%,14.117432%);fill-opacity:1;" d="M 204.980469 114.382812 C 205.300781 114.304688 205.625 114.496094 205.703125 114.816406 C 205.785156 115.136719 205.589844 115.460938 205.273438 115.539062 L 204.875 115.617188 C 204.808594 115.621094 204.738281 115.660156 204.519531 115.558594 C 204.382812 115.496094 204.160156 115.261719 204.167969 114.996094 C 204.171875 114.753906 204.277344 114.652344 204.332031 114.59375 C 204.625 114.273438 204.761719 114.324219 205.027344 114.238281 C 206.015625 113.902344 207.488281 113.789062 208.980469 113.730469 C 210.457031 113.671875 211.792969 113.683594 212.550781 113.808594 C 212.875 113.859375 213.097656 114.164062 213.042969 114.488281 C 212.992188 114.8125 212.6875 115.035156 212.363281 114.984375 C 211.058594 114.773438 207.023438 114.824219 205.40625 115.367188 L 205.15625 115.460938 L 205.113281 115.480469 L 205.128906 115.472656 C 205.117188 115.480469 205.246094 115.359375 205.207031 115.402344 C 205.183594 115.425781 205.316406 115.238281 205.285156 115.292969 C 205.261719 115.335938 205.363281 115.03125 205.351562 115.113281 C 205.339844 115.171875 205.335938 114.828125 205.347656 114.902344 C 205.371094 115.015625 205.132812 114.535156 205.199219 114.609375 C 205.261719 114.675781 204.96875 114.457031 205.019531 114.476562 C 205.074219 114.503906 204.859375 114.429688 204.890625 114.4375 C 204.972656 114.453125 204.769531 114.429688 204.777344 114.429688 Z M 204.980469 114.382812 "/>
<path style=" stroke:none;fill-rule:nonzero;fill:rgb(92.941284%,21.176147%,14.117432%);fill-opacity:1;" d="M 205.339844 95.761719 C 205.664062 95.820312 205.882812 96.128906 205.824219 96.453125 C 205.765625 96.777344 205.457031 96.992188 205.132812 96.9375 L 204.832031 96.851562 C 204.722656 96.800781 204.554688 96.730469 204.449219 96.476562 L 204.433594 96.042969 L 204.601562 95.773438 L 204.886719 95.59375 C 205.292969 95.429688 205.648438 95.484375 206.160156 95.496094 L 208 95.550781 C 209.054688 95.566406 210.191406 95.601562 211.191406 95.527344 L 212.398438 95.335938 L 212.886719 95.226562 L 212.835938 95.265625 L 212.75 95.359375 C 212.78125 95.3125 212.667969 95.589844 212.679688 95.527344 C 212.695312 95.464844 212.679688 95.753906 212.671875 95.703125 L 212.707031 95.816406 L 212.734375 95.867188 L 212.703125 95.835938 C 212.464844 95.609375 212.449219 95.234375 212.675781 94.992188 C 212.902344 94.753906 213.277344 94.742188 213.519531 94.964844 C 213.652344 95.09375 213.808594 95.230469 213.851562 95.527344 C 213.875 95.6875 213.832031 95.882812 213.742188 96.019531 L 213.472656 96.265625 C 213.164062 96.4375 212.921875 96.441406 212.652344 96.5 L 211.28125 96.714844 C 210.191406 96.796875 209.023438 96.757812 207.980469 96.742188 L 205.324219 96.699219 L 205.355469 96.683594 L 205.4375 96.621094 C 205.398438 96.660156 205.601562 96.300781 205.570312 96.40625 C 205.550781 96.460938 205.59375 96.148438 205.59375 96.214844 C 205.597656 96.28125 205.53125 95.964844 205.554688 96.023438 C 205.597656 96.136719 205.351562 95.777344 205.398438 95.8125 C 205.4375 95.847656 205.292969 95.75 205.308594 95.757812 Z M 205.339844 95.761719 "/>
<path style=" stroke:none;fill-rule:nonzero;fill:rgb(92.941284%,21.176147%,14.117432%);fill-opacity:1;" d="M 205.089844 79.652344 C 205.101562 79.984375 204.847656 80.261719 204.515625 80.273438 C 204.1875 80.289062 203.910156 80.03125 203.898438 79.703125 C 203.875 79.210938 203.867188 78.773438 204.144531 78.378906 C 204.425781 77.976562 204.910156 77.863281 205.367188 77.839844 L 209.144531 77.835938 L 211.507812 77.828125 C 212.148438 77.855469 212.746094 77.910156 213.175781 78.359375 C 213.40625 78.597656 213.398438 78.972656 213.160156 79.203125 C 212.921875 79.429688 212.546875 79.421875 212.316406 79.1875 C 212.28125 79.148438 212 79.042969 211.460938 79.019531 L 209.140625 79.03125 L 205.425781 79.027344 L 205.121094 79.058594 Z M 205.089844 79.652344 "/>
<path style=" stroke:none;fill-rule:nonzero;fill:rgb(92.941284%,21.176147%,14.117432%);fill-opacity:1;" d="M 203.472656 60.777344 C 203.792969 60.699219 204.113281 60.894531 204.195312 61.214844 C 204.273438 61.53125 204.078125 61.855469 203.757812 61.933594 C 203.535156 61.988281 203.328125 61.917969 203.199219 61.839844 L 202.941406 61.597656 L 202.6875 61.082031 C 202.605469 60.824219 202.632812 60.546875 202.734375 60.316406 C 202.835938 60.089844 203.011719 59.902344 203.226562 59.777344 C 203.859375 59.414062 204.4375 59.644531 205.132812 59.675781 L 209.589844 59.71875 C 211.058594 59.769531 212.136719 59.609375 212.925781 60.140625 C 213.199219 60.324219 213.269531 60.695312 213.085938 60.96875 C 212.902344 61.242188 212.53125 61.3125 212.257812 61.128906 C 212.125 61.035156 211.039062 60.960938 209.550781 60.910156 L 205.078125 60.867188 L 204.117188 60.804688 L 203.820312 60.8125 L 203.824219 60.730469 L 203.890625 60.878906 C 203.894531 60.878906 203.78125 60.796875 203.832031 60.828125 C 203.859375 60.847656 203.636719 60.761719 203.699219 60.773438 C 203.761719 60.789062 203.394531 60.796875 203.472656 60.777344 "/>
<path style=" stroke:none;fill-rule:nonzero;fill:rgb(92.941284%,21.176147%,14.117432%);fill-opacity:1;" d="M 204.601562 42.785156 C 204.929688 42.820312 205.167969 43.113281 205.132812 43.441406 C 205.097656 43.769531 204.804688 44.003906 204.476562 43.972656 L 204.117188 43.972656 C 203.933594 43.96875 203.757812 43.933594 203.578125 43.808594 C 203.484375 43.742188 203.378906 43.644531 203.316406 43.46875 C 203.25 43.285156 203.289062 43.027344 203.398438 42.871094 C 203.632812 42.542969 203.847656 42.574219 203.984375 42.546875 L 204.332031 42.496094 C 204.9375 42.394531 205.65625 42.398438 206.558594 42.417969 L 210.542969 42.527344 L 212.1875 42.507812 L 212.640625 42.460938 L 212.6875 42.453125 L 212.625 42.488281 C 212.660156 42.460938 212.429688 42.738281 212.476562 42.648438 C 212.640625 42.363281 213.007812 42.265625 213.292969 42.429688 C 213.578125 42.59375 213.675781 42.957031 213.511719 43.242188 C 213.28125 43.648438 213.046875 43.597656 212.867188 43.632812 L 212.253906 43.699219 L 210.527344 43.71875 L 206.535156 43.609375 C 205.648438 43.59375 204.976562 43.59375 204.527344 43.671875 L 204.203125 43.71875 L 204.175781 43.722656 L 204.238281 43.691406 C 204.203125 43.710938 204.414062 43.5 204.371094 43.5625 C 204.324219 43.625 204.476562 43.238281 204.464844 43.328125 C 204.449219 43.417969 204.414062 43 204.4375 43.070312 C 204.464844 43.140625 204.3125 42.871094 204.347656 42.910156 L 204.261719 42.832031 C 204.308594 42.863281 204.148438 42.78125 204.167969 42.785156 L 204.148438 42.78125 Z M 204.601562 42.785156 "/>
<path style=" stroke:none;fill-rule:nonzero;fill:rgb(92.941284%,21.176147%,14.117432%);fill-opacity:1;" d="M 28.773438 151.820312 C 28.445312 151.820312 28.179688 151.554688 28.179688 151.226562 C 28.179688 150.894531 28.445312 150.628906 28.773438 150.628906 L 35.515625 150.628906 C 35.847656 150.628906 36.113281 150.894531 36.113281 151.226562 C 36.113281 151.554688 35.847656 151.820312 35.515625 151.820312 Z M 28.773438 151.820312 "/>
<path style=" stroke:none;fill-rule:nonzero;fill:rgb(92.941284%,21.176147%,14.117432%);fill-opacity:1;" d="M 36.808594 132.542969 C 37.015625 132.285156 37.390625 132.242188 37.648438 132.449219 C 37.902344 132.65625 37.945312 133.03125 37.738281 133.289062 C 37.738281 133.289062 37.617188 133.546875 37.597656 133.933594 L 37.597656 134.847656 L 37.511719 137.671875 L 37.488281 139.871094 L 37.414062 142.546875 L 37.363281 143.929688 C 37.328125 145.34375 37.417969 146.191406 37.460938 146.988281 L 37.484375 149.046875 L 37.65625 151.222656 C 37.707031 151.546875 37.484375 151.851562 37.15625 151.902344 C 36.832031 151.953125 36.527344 151.730469 36.476562 151.40625 C 36.359375 150.652344 36.371094 149.855469 36.300781 149.167969 C 36.222656 148.417969 36.3125 147.757812 36.273438 147.058594 C 36.226562 146.296875 36.136719 145.375 36.171875 143.898438 L 36.222656 142.496094 L 36.296875 139.871094 L 36.320312 137.628906 L 36.40625 134.851562 L 36.40625 133.867188 C 36.4375 133.316406 36.539062 132.878906 36.808594 132.542969 "/>
<path style=" stroke:none;fill-rule:nonzero;fill:rgb(92.941284%,21.176147%,14.117432%);fill-opacity:1;" d="M 44.527344 114.386719 C 44.773438 114.605469 44.796875 114.984375 44.578125 115.230469 C 44.359375 115.476562 43.984375 115.5 43.738281 115.28125 C 43.722656 115.265625 43.90625 115.375 43.84375 115.347656 C 43.808594 115.332031 44.035156 115.394531 43.976562 115.386719 C 43.921875 115.378906 44.25 115.367188 44.179688 115.382812 C 44.105469 115.398438 44.433594 115.257812 44.378906 115.296875 C 44.320312 115.332031 44.53125 115.140625 44.5 115.179688 C 44.445312 115.25 44.59375 114.992188 44.582031 115.023438 C 44.566406 115.078125 44.59375 114.972656 44.589844 114.996094 L 44.59375 115.113281 L 44.628906 118.015625 L 44.53125 120.023438 L 44.453125 122.1875 L 44.296875 125.550781 C 44.296875 127.152344 44.089844 128.265625 44.089844 129.105469 C 44.085938 130.574219 44.007812 131.964844 44.179688 133.148438 C 44.226562 133.472656 44.003906 133.777344 43.675781 133.824219 C 43.351562 133.871094 43.046875 133.644531 43 133.320312 C 42.804688 131.972656 42.890625 130.539062 42.894531 129.101562 C 42.898438 128.105469 43.105469 127.050781 43.105469 125.550781 L 43.269531 122.082031 L 43.339844 119.976562 L 43.4375 117.988281 L 43.402344 115.148438 L 43.441406 114.679688 L 43.558594 114.453125 C 43.628906 114.355469 43.765625 114.25 43.929688 114.214844 L 44.332031 114.261719 Z M 44.527344 114.386719 "/>
<path style=" stroke:none;fill-rule:nonzero;fill:rgb(92.941284%,21.176147%,14.117432%);fill-opacity:1;" d="M 52.210938 95.914062 C 52.394531 95.640625 52.765625 95.566406 53.039062 95.753906 C 53.3125 95.9375 53.382812 96.308594 53.199219 96.582031 C 53.109375 96.710938 53.144531 96.914062 53.242188 97.519531 C 53.34375 98.125 53.394531 98.929688 53.410156 99.875 L 53.410156 101.609375 L 53.4375 103.042969 L 53.398438 106.011719 L 53.285156 108.382812 L 53.25 109.074219 L 53.238281 110.21875 L 53.1875 112.496094 C 53.140625 113.40625 53.050781 114.308594 53.234375 114.792969 C 53.351562 115.101562 53.199219 115.445312 52.890625 115.5625 C 52.582031 115.679688 52.238281 115.527344 52.121094 115.21875 C 51.773438 114.304688 51.953125 113.296875 51.996094 112.433594 L 52.046875 110.222656 L 52.058594 109.019531 L 52.09375 108.335938 L 52.207031 105.945312 L 52.242188 103.066406 L 52.21875 101.613281 L 52.21875 99.894531 L 52.066406 97.710938 C 51.972656 97.132812 51.8125 96.5 52.210938 95.914062 "/>
<path style=" stroke:none;fill-rule:nonzero;fill:rgb(92.941284%,21.176147%,14.117432%);fill-opacity:1;" d="M 61.554688 78.4375 C 61.59375 78.109375 61.886719 77.875 62.214844 77.910156 C 62.542969 77.945312 62.777344 78.242188 62.742188 78.570312 L 62.53125 79.808594 L 62.484375 81.449219 L 62.300781 84.367188 L 62.25 86.335938 L 62.324219 88.183594 L 62.402344 89.738281 L 62.402344 95.300781 C 62.402344 95.785156 62.359375 96.105469 62.464844 96.351562 C 62.59375 96.65625 62.449219 97.003906 62.144531 97.132812 C 61.84375 97.261719 61.492188 97.117188 61.367188 96.8125 C 61.117188 96.21875 61.210938 95.683594 61.210938 95.300781 L 61.210938 89.765625 L 61.136719 88.238281 L 61.058594 86.355469 L 61.109375 84.28125 L 61.292969 81.402344 C 61.316406 80.8125 61.273438 80.28125 61.347656 79.667969 Z M 61.554688 78.4375 "/>
<path style=" stroke:none;fill-rule:nonzero;fill:rgb(92.941284%,21.176147%,14.117432%);fill-opacity:1;" d="M 74.535156 60.628906 C 74.492188 60.300781 74.71875 60 75.042969 59.953125 C 75.371094 59.90625 75.671875 60.132812 75.714844 60.460938 C 75.808594 61.121094 75.753906 62.125 75.761719 63.390625 C 75.765625 64.515625 75.722656 65.523438 75.816406 66.46875 C 75.902344 67.292969 76.015625 68.183594 75.992188 69.023438 L 75.859375 71.207031 L 75.859375 77.835938 L 75.847656 78.121094 L 75.847656 78.179688 C 75.847656 78.183594 75.816406 78.054688 75.832031 78.113281 L 75.804688 78.050781 L 75.738281 77.957031 C 75.773438 77.996094 75.503906 77.785156 75.578125 77.828125 C 75.65625 77.871094 75.207031 77.757812 75.304688 77.757812 C 75.398438 77.757812 75.011719 77.832031 75.070312 77.804688 C 75.125 77.78125 74.921875 77.902344 74.949219 77.878906 C 74.992188 77.84375 74.863281 77.964844 74.875 77.953125 L 74.914062 77.878906 C 75.074219 77.59375 75.4375 77.488281 75.726562 77.648438 C 76.011719 77.808594 76.117188 78.171875 75.957031 78.460938 C 75.882812 78.589844 75.96875 78.714844 75.550781 78.898438 C 75.417969 78.957031 75.175781 78.964844 75.011719 78.875 L 74.761719 78.628906 L 74.691406 78.449219 C 74.585938 78.097656 74.667969 77.972656 74.667969 77.835938 L 74.667969 71.246094 C 74.644531 70.550781 74.78125 69.878906 74.800781 68.992188 C 74.820312 68.277344 74.714844 67.425781 74.632812 66.585938 C 74.527344 65.535156 74.570312 64.496094 74.566406 63.394531 C 74.5625 62.109375 74.597656 61.058594 74.535156 60.628906 "/>
<path style=" stroke:none;fill-rule:nonzero;fill:rgb(92.941284%,21.176147%,14.117432%);fill-opacity:1;" d="M 104.675781 60.632812 C 104.675781 60.300781 104.941406 60.035156 105.273438 60.035156 C 105.601562 60.035156 105.867188 60.300781 105.867188 60.632812 L 105.867188 78.121094 C 105.867188 78.449219 105.601562 78.714844 105.273438 78.714844 C 104.941406 78.714844 104.675781 78.449219 104.675781 78.121094 Z M 104.675781 60.632812 "/>
<path style=" stroke:none;fill-rule:nonzero;fill:rgb(92.941284%,21.176147%,14.117432%);fill-opacity:1;" d="M 117.394531 78.480469 C 117.394531 78.148438 117.660156 77.882812 117.992188 77.882812 C 118.320312 77.882812 118.585938 78.148438 118.585938 78.480469 L 118.585938 96.117188 C 118.585938 96.445312 118.320312 96.710938 117.992188 96.710938 C 117.660156 96.710938 117.394531 96.445312 117.394531 96.117188 Z M 117.394531 78.480469 "/>
<path style=" stroke:none;fill-rule:nonzero;fill:rgb(92.941284%,21.176147%,14.117432%);fill-opacity:1;" d="M 129.71875 96.078125 C 129.71875 95.75 129.988281 95.484375 130.316406 95.484375 C 130.644531 95.484375 130.910156 95.75 130.910156 96.078125 L 130.910156 114.382812 C 130.910156 114.710938 130.644531 114.976562 130.316406 114.976562 C 129.988281 114.976562 129.71875 114.710938 129.71875 114.382812 Z M 129.71875 96.078125 "/>
<path style=" stroke:none;fill-rule:nonzero;fill:rgb(92.941284%,21.176147%,14.117432%);fill-opacity:1;" d="M 139.226562 114.65625 C 139.226562 114.324219 139.492188 114.058594 139.820312 114.058594 C 140.148438 114.058594 140.417969 114.324219 140.417969 114.65625 L 140.417969 132.503906 C 140.417969 132.832031 140.148438 133.097656 139.820312 133.097656 C 139.492188 133.097656 139.226562 132.832031 139.226562 132.503906 Z M 139.226562 114.65625 "/>
<path style=" stroke:none;fill-rule:nonzero;fill:rgb(92.941284%,21.176147%,14.117432%);fill-opacity:1;" d="M 150.738281 132.835938 C 150.738281 132.507812 151.007812 132.242188 151.335938 132.242188 C 151.664062 132.242188 151.933594 132.507812 151.933594 132.835938 L 151.933594 150.707031 C 151.933594 151.039062 151.664062 151.304688 151.335938 151.304688 C 151.007812 151.304688 150.738281 151.039062 150.738281 150.707031 Z M 150.738281 132.835938 "/>
<path style=" stroke:none;fill-rule:nonzero;fill:rgb(92.941284%,21.176147%,14.117432%);fill-opacity:1;" d="M 162.511719 150.273438 C 162.511719 149.945312 162.777344 149.679688 163.109375 149.679688 C 163.4375 149.679688 163.703125 149.945312 163.703125 150.273438 L 163.703125 168.308594 C 163.703125 168.636719 163.4375 168.902344 163.109375 168.902344 C 162.777344 168.902344 162.511719 168.636719 162.511719 168.308594 Z M 162.511719 150.273438 "/>
<path style=" stroke:none;fill-rule:nonzero;fill:rgb(92.941284%,21.176147%,14.117432%);fill-opacity:1;" d="M 178.6875 169.207031 C 178.699219 168.878906 178.976562 168.621094 179.304688 168.632812 C 179.636719 168.648438 179.890625 168.925781 179.878906 169.253906 L 179.203125 186.816406 C 179.191406 187.144531 178.914062 187.402344 178.585938 187.390625 C 178.257812 187.375 178 187.097656 178.011719 186.769531 Z M 178.6875 169.207031 "/>
<path style=" stroke:none;fill-rule:nonzero;fill:rgb(92.941284%,21.176147%,14.117432%);fill-opacity:1;" d="M 186.335938 168.589844 C 186.335938 168.261719 186.601562 167.996094 186.933594 167.996094 C 187.261719 167.996094 187.527344 168.261719 187.527344 168.589844 L 187.527344 186.792969 C 187.527344 187.121094 187.261719 187.390625 186.933594 187.390625 C 186.601562 187.390625 186.335938 187.121094 186.335938 186.792969 Z M 186.335938 168.589844 "/>
<path style=" stroke:none;fill-rule:nonzero;fill:rgb(92.941284%,21.176147%,14.117432%);fill-opacity:1;" d="M 37.8125 132.589844 C 38.050781 132.820312 38.054688 133.199219 37.828125 133.433594 C 37.597656 133.671875 37.222656 133.675781 36.984375 133.449219 L 36.707031 133.070312 L 36.609375 132.902344 L 36.535156 132.574219 C 36.542969 132.367188 36.730469 132.105469 36.898438 132.027344 C 37.246094 131.863281 37.367188 131.980469 37.460938 132.003906 L 37.644531 132.054688 C 38.042969 132.128906 38.890625 132.050781 39.667969 132.054688 L 41.4375 132.117188 L 41.832031 132.117188 L 42.265625 132.144531 L 42.699219 132.179688 L 42.949219 132.179688 L 43.480469 132.273438 C 43.808594 132.320312 44.03125 132.621094 43.984375 132.949219 C 43.9375 133.273438 43.632812 133.5 43.308594 133.453125 L 42.929688 133.371094 L 42.609375 133.367188 L 42.164062 133.332031 L 41.832031 133.308594 L 41.410156 133.308594 L 39.660156 133.246094 C 38.972656 133.242188 38.132812 133.359375 37.425781 133.226562 L 37.148438 133.15625 L 37.21875 133.152344 C 37.175781 133.15625 37.484375 133.066406 37.40625 133.105469 C 37.335938 133.136719 37.691406 132.820312 37.625 132.917969 C 37.558594 133.011719 37.730469 132.527344 37.726562 132.613281 C 37.722656 132.695312 37.691406 132.398438 37.703125 132.4375 L 37.679688 132.375 L 37.742188 132.476562 Z M 37.8125 132.589844 "/>
<path style=" stroke:none;fill-rule:nonzero;fill:rgb(92.941284%,21.176147%,14.117432%);fill-opacity:1;" d="M 44.835938 114.082031 C 45.125 114.242188 45.234375 114.605469 45.074219 114.894531 C 44.917969 115.179688 44.554688 115.289062 44.265625 115.128906 L 44.074219 115.003906 L 43.9375 114.851562 C 43.878906 114.769531 43.804688 114.609375 43.839844 114.40625 C 43.871094 114.203125 44.011719 114.058594 44.109375 113.992188 L 44.308594 113.90625 L 44.507812 113.875 L 44.878906 113.875 L 45.597656 113.804688 L 46.921875 113.679688 L 48.550781 113.640625 L 49.496094 113.652344 L 49.972656 113.652344 L 50.589844 113.746094 L 50.828125 113.765625 L 51.039062 113.765625 C 51.261719 113.757812 51.707031 113.679688 52.195312 113.84375 C 52.503906 113.949219 52.671875 114.289062 52.566406 114.601562 C 52.460938 114.910156 52.121094 115.078125 51.808594 114.972656 L 51.070312 114.957031 L 50.765625 114.957031 L 50.410156 114.921875 L 49.945312 114.847656 L 49.484375 114.847656 L 48.535156 114.832031 L 47.011719 114.867188 L 45.722656 114.992188 L 44.867188 115.066406 L 44.574219 115.066406 L 44.605469 115.058594 C 44.578125 115.066406 44.839844 114.9375 44.761719 114.988281 C 44.71875 115.019531 44.953125 114.792969 44.90625 114.855469 C 44.855469 114.921875 45.03125 114.5 45.015625 114.597656 C 44.996094 114.699219 44.976562 114.269531 44.996094 114.339844 C 45.015625 114.40625 44.902344 114.152344 44.925781 114.1875 C 44.972656 114.257812 44.8125 114.070312 44.835938 114.082031 "/>
<path style=" stroke:none;fill-rule:nonzero;fill:rgb(92.941284%,21.176147%,14.117432%);fill-opacity:1;" d="M 53.148438 96.828125 C 53.109375 97.15625 52.8125 97.390625 52.488281 97.355469 C 52.160156 97.316406 51.925781 97.019531 51.964844 96.695312 L 52.097656 96.308594 L 52.457031 96.019531 C 52.699219 95.925781 52.859375 95.957031 52.988281 95.96875 L 54.675781 95.96875 L 55.867188 95.945312 L 57.527344 95.917969 L 58.933594 95.917969 C 60.003906 95.917969 60.507812 95.859375 61.335938 96 C 61.660156 96.054688 61.878906 96.363281 61.824219 96.6875 C 61.769531 97.011719 61.460938 97.230469 61.136719 97.175781 C 60.429688 97.054688 60.042969 97.109375 58.933594 97.109375 L 57.535156 97.109375 L 55.898438 97.136719 L 54.675781 97.160156 L 52.890625 97.15625 L 52.804688 97.152344 C 52.800781 97.152344 52.949219 97.109375 52.890625 97.132812 C 52.824219 97.15625 53.140625 96.890625 53.089844 96.96875 C 53.046875 97.039062 53.148438 96.816406 53.148438 96.828125 "/>
<path style=" stroke:none;fill-rule:nonzero;fill:rgb(92.941284%,21.176147%,14.117432%);fill-opacity:1;" d="M 62.941406 78.242188 C 63.238281 78.390625 63.359375 78.746094 63.214844 79.042969 C 63.070312 79.335938 62.710938 79.457031 62.417969 79.3125 C 62.15625 79.1875 62.074219 79.035156 61.996094 78.851562 C 61.988281 78.839844 61.90625 78.773438 61.886719 78.5 C 61.871094 78.292969 61.988281 78.09375 62.085938 78.003906 L 62.289062 77.882812 L 62.464844 77.847656 L 62.660156 77.839844 L 63.039062 77.863281 L 63.625 77.859375 L 65.621094 77.859375 C 67.324219 77.851562 68.96875 77.679688 70.269531 77.613281 L 72.910156 77.589844 C 73.566406 77.589844 74.1875 77.539062 74.730469 77.753906 C 75.035156 77.875 75.1875 78.21875 75.066406 78.527344 C 74.945312 78.832031 74.601562 78.984375 74.292969 78.863281 L 72.910156 78.78125 L 70.328125 78.804688 C 69.078125 78.867188 67.398438 79.046875 65.625 79.050781 L 62.933594 79.050781 L 62.636719 79.03125 L 62.589844 79.03125 C 62.578125 79.03125 62.761719 78.980469 62.691406 79.007812 C 62.652344 79.019531 62.964844 78.820312 62.878906 78.894531 C 62.835938 78.933594 63.058594 78.625 63.019531 78.710938 C 62.976562 78.796875 63.066406 78.3125 63.074219 78.410156 L 63.054688 78.308594 L 63.089844 78.382812 L 63.0625 78.332031 C 63.074219 78.351562 62.859375 78.203125 62.941406 78.242188 "/>
<path style=" stroke:none;fill-rule:nonzero;fill:rgb(92.941284%,21.176147%,14.117432%);fill-opacity:1;" d="M 74.820312 60.457031 C 75.089844 60.265625 75.464844 60.332031 75.652344 60.601562 C 75.839844 60.871094 75.777344 61.242188 75.507812 61.433594 L 75.175781 61.554688 L 74.753906 61.445312 C 74.53125 61.292969 74.476562 61.097656 74.460938 60.945312 C 74.453125 60.871094 74.535156 61.179688 74.515625 61.132812 C 74.476562 61.054688 74.625 61.289062 74.605469 61.265625 L 74.492188 61.136719 C 74.3125 60.859375 74.390625 60.488281 74.664062 60.308594 C 74.941406 60.128906 75.308594 60.207031 75.492188 60.484375 C 75.527344 60.539062 75.40625 60.386719 75.417969 60.394531 C 75.433594 60.410156 75.597656 60.367188 75.648438 60.820312 C 75.652344 60.863281 75.574219 60.605469 75.601562 60.664062 C 75.632812 60.730469 75.328125 60.394531 75.421875 60.460938 C 75.472656 60.492188 75.191406 60.367188 75.253906 60.382812 C 75.316406 60.398438 75.007812 60.375 75.066406 60.367188 C 75.179688 60.359375 74.773438 60.492188 74.820312 60.457031 M 75.417969 61.222656 C 75.1875 61.457031 74.8125 61.460938 74.578125 61.230469 C 74.339844 61 74.335938 60.621094 74.566406 60.386719 L 74.578125 60.375 L 74.664062 60.304688 L 74.761719 60.246094 L 74.988281 60.144531 C 75.582031 59.945312 76.175781 60.109375 77.0625 60.164062 L 78.433594 60.222656 C 79.777344 60.261719 81.136719 60.175781 82.589844 60.148438 L 88.726562 60.148438 L 89.582031 60.140625 L 90.515625 60.042969 C 91.765625 59.90625 92.839844 59.921875 93.835938 59.925781 L 97.316406 59.964844 L 99.285156 59.964844 L 101.90625 59.917969 L 103.019531 59.917969 L 103.714844 59.921875 L 104.332031 60.035156 C 104.578125 60.128906 104.894531 60.40625 104.949219 60.765625 C 105 61.089844 104.777344 61.394531 104.453125 61.445312 C 104.125 61.496094 103.820312 61.273438 103.769531 60.949219 C 103.765625 60.902344 103.894531 61.148438 103.851562 61.105469 C 103.816406 61.066406 103.917969 61.15625 103.910156 61.152344 L 103.605469 61.105469 L 103.019531 61.109375 L 101.886719 61.109375 L 99.3125 61.15625 L 97.292969 61.15625 L 93.828125 61.121094 C 92.832031 61.113281 91.8125 61.097656 90.644531 61.226562 L 89.636719 61.332031 L 88.738281 61.339844 L 82.613281 61.339844 C 81.1875 61.367188 79.808594 61.453125 78.398438 61.414062 L 76.988281 61.355469 L 75.363281 61.273438 L 75.347656 61.285156 L 75.40625 61.234375 Z M 75.417969 61.222656 "/>
<path style=" stroke:none;fill-rule:nonzero;fill:rgb(92.941284%,21.176147%,14.117432%);fill-opacity:1;" d="M 105.8125 77.941406 C 106.140625 77.914062 106.425781 78.160156 106.453125 78.488281 C 106.480469 78.816406 106.234375 79.101562 105.90625 79.128906 L 105.515625 79.140625 C 105.457031 79.136719 105.402344 79.257812 105.097656 78.96875 C 104.859375 78.742188 104.847656 78.367188 105.074219 78.128906 C 105.300781 77.886719 105.679688 77.878906 105.917969 78.101562 C 105.960938 78.144531 105.769531 78 105.800781 78.019531 C 105.855469 78.046875 105.65625 77.960938 105.683594 77.96875 C 105.753906 77.988281 105.585938 77.949219 105.589844 77.949219 Z M 105.941406 78.941406 C 105.714844 79.179688 105.335938 79.1875 105.097656 78.960938 C 104.859375 78.734375 104.851562 78.359375 105.078125 78.121094 L 105.101562 78.09375 L 105.304688 77.96875 L 105.765625 77.871094 L 107.109375 77.851562 L 108.308594 77.851562 C 110.140625 77.851562 111.917969 77.882812 113.304688 77.816406 L 114.675781 77.726562 L 115.726562 77.691406 L 117.0625 77.691406 L 117.382812 77.695312 C 117.417969 77.699219 117.3125 77.660156 117.503906 77.71875 C 117.816406 77.8125 117.996094 78.144531 117.898438 78.460938 C 117.804688 78.773438 117.472656 78.953125 117.15625 78.859375 C 117.101562 78.839844 117.28125 78.882812 117.261719 78.878906 L 117.238281 78.875 L 117.0625 78.882812 L 115.738281 78.882812 L 114.746094 78.917969 L 113.359375 79.003906 C 111.914062 79.074219 110.128906 79.042969 108.308594 79.042969 L 107.097656 79.042969 L 105.925781 79.050781 L 105.746094 79.074219 L 105.800781 79.050781 C 105.773438 79.0625 105.96875 78.914062 105.917969 78.964844 Z M 116.742188 78.203125 C 116.796875 77.878906 117.101562 77.65625 117.425781 77.710938 C 117.75 77.761719 117.972656 78.066406 117.921875 78.390625 L 117.902344 78.496094 C 117.863281 78.824219 117.5625 79.054688 117.238281 79.015625 C 116.910156 78.972656 116.679688 78.675781 116.71875 78.347656 Z M 116.742188 78.203125 "/>
<path style=" stroke:none;fill-rule:nonzero;fill:rgb(92.941284%,21.176147%,14.117432%);fill-opacity:1;" d="M 118.300781 95.867188 C 118.625 95.925781 118.839844 96.234375 118.78125 96.558594 C 118.726562 96.882812 118.414062 97.097656 118.089844 97.039062 L 117.8125 96.957031 C 117.707031 96.910156 117.566406 96.832031 117.464844 96.632812 C 117.359375 96.421875 117.410156 96.132812 117.507812 95.988281 L 117.757812 95.753906 C 118.011719 95.605469 118.144531 95.632812 118.25 95.617188 L 119.585938 95.523438 L 120.496094 95.523438 L 122.421875 95.589844 L 123.71875 95.589844 L 126.398438 95.5 L 128.4375 95.339844 L 129.027344 95.265625 L 129.589844 95.265625 C 129.683594 95.269531 129.835938 95.226562 130.105469 95.320312 C 130.25 95.367188 130.421875 95.484375 130.523438 95.640625 L 130.671875 96.109375 C 130.699219 96.4375 130.457031 96.722656 130.128906 96.75 C 129.800781 96.777344 129.511719 96.535156 129.484375 96.207031 L 129.527344 96.292969 C 129.476562 96.222656 129.777344 96.46875 129.722656 96.449219 L 129.742188 96.457031 L 129.085938 96.457031 L 128.667969 96.507812 C 128.097656 96.625 127.390625 96.65625 126.445312 96.691406 L 123.730469 96.78125 L 122.390625 96.78125 L 120.480469 96.714844 L 119.589844 96.714844 L 118.417969 96.796875 L 118.289062 96.816406 L 118.363281 96.78125 L 118.414062 96.746094 C 118.390625 96.765625 118.535156 96.59375 118.5 96.644531 C 118.464844 96.699219 118.597656 96.308594 118.585938 96.410156 C 118.574219 96.515625 118.488281 96.011719 118.53125 96.101562 C 118.574219 96.183594 118.351562 95.894531 118.394531 95.925781 Z M 118.300781 95.867188 "/>
<path style=" stroke:none;fill-rule:nonzero;fill:rgb(92.941284%,21.176147%,14.117432%);fill-opacity:1;" d="M 129.753906 114.296875 C 130.054688 114.164062 130.40625 114.304688 130.539062 114.605469 C 130.667969 114.90625 130.53125 115.257812 130.230469 115.390625 C 130.074219 115.457031 129.90625 115.457031 129.78125 115.421875 L 129.503906 115.28125 L 129.226562 114.871094 C 129.167969 114.675781 129.167969 114.460938 129.285156 114.246094 C 129.386719 114.0625 129.550781 113.972656 129.664062 113.9375 L 129.933594 113.898438 L 130.320312 113.964844 L 130.398438 113.953125 L 130.851562 113.9375 L 132.242188 113.988281 L 135.003906 114.113281 L 136.308594 114.0625 L 137.757812 114.046875 L 139.183594 114.046875 L 139.535156 114.054688 L 139.75 114.085938 C 139.84375 114.105469 140 114.128906 140.15625 114.347656 C 140.347656 114.613281 140.285156 114.988281 140.019531 115.179688 C 139.75 115.371094 139.378906 115.308594 139.1875 115.042969 C 139.152344 114.992188 139.332031 115.183594 139.296875 115.15625 C 139.246094 115.117188 139.445312 115.238281 139.414062 115.226562 L 139.472656 115.242188 L 137.746094 115.242188 L 136.359375 115.253906 L 135.003906 115.304688 L 132.175781 115.179688 L 130.8125 115.128906 C 130.609375 115.121094 130.382812 115.234375 129.960938 115.101562 L 129.917969 115.089844 C 129.902344 115.089844 130.101562 115.046875 130.035156 115.070312 C 130 115.082031 130.222656 114.960938 130.171875 115 C 130.117188 115.039062 130.371094 114.746094 130.328125 114.824219 C 130.292969 114.886719 130.382812 114.601562 130.378906 114.652344 L 130.363281 114.519531 C 130.390625 114.597656 130.1875 114.300781 130.25 114.351562 C 130.285156 114.378906 130.007812 114.25 130.085938 114.269531 C 130.128906 114.28125 129.878906 114.257812 129.9375 114.253906 C 129.996094 114.25 129.695312 114.320312 129.753906 114.296875 "/>
<path style=" stroke:none;fill-rule:nonzero;fill:rgb(92.941284%,21.176147%,14.117432%);fill-opacity:1;" d="M 140.4375 132.308594 C 140.660156 132.550781 140.648438 132.925781 140.40625 133.152344 C 140.164062 133.375 139.785156 133.359375 139.5625 133.117188 L 139.4375 132.933594 L 139.394531 132.539062 L 139.613281 132.1875 L 139.8125 132.074219 L 140.195312 132.019531 L 141.148438 132.007812 L 142.503906 132.019531 L 143.984375 132.09375 L 147.535156 132.15625 L 149.230469 132.207031 L 149.886719 132.242188 L 150.300781 132.253906 L 150.496094 132.253906 L 150.761719 132.1875 L 150.816406 132.167969 L 150.796875 132.175781 C 150.808594 132.171875 150.6875 132.253906 150.730469 132.222656 C 150.988281 132.023438 151.363281 132.070312 151.5625 132.332031 C 151.765625 132.59375 151.714844 132.96875 151.453125 133.167969 L 151.339844 133.238281 L 151.167969 133.308594 L 150.609375 133.441406 L 150.3125 133.445312 L 149.835938 133.433594 L 149.164062 133.394531 L 147.539062 133.347656 L 143.921875 133.285156 L 142.472656 133.210938 L 141.140625 133.199219 L 140.222656 133.210938 L 140.152344 133.214844 C 140.144531 133.214844 140.273438 133.175781 140.214844 133.199219 C 140.179688 133.210938 140.429688 133.058594 140.367188 133.113281 C 140.332031 133.140625 140.511719 132.9375 140.476562 132.988281 C 140.441406 133.042969 140.574219 132.726562 140.558594 132.796875 C 140.546875 132.863281 140.558594 132.527344 140.566406 132.589844 C 140.578125 132.648438 140.507812 132.402344 140.523438 132.441406 C 140.558594 132.515625 140.417969 132.285156 140.4375 132.308594 M 151.019531 132.101562 C 151.347656 132.0625 151.644531 132.296875 151.683594 132.625 C 151.722656 132.949219 151.488281 133.246094 151.160156 133.285156 C 151.09375 133.292969 151.265625 133.265625 151.253906 133.265625 L 151.269531 133.261719 C 150.957031 133.371094 150.617188 133.207031 150.507812 132.898438 C 150.398438 132.585938 150.5625 132.246094 150.875 132.136719 Z M 151.019531 132.101562 "/>
<path style=" stroke:none;fill-rule:nonzero;fill:rgb(92.941284%,21.176147%,14.117432%);fill-opacity:1;" d="M 151.046875 151.5625 C 150.753906 151.710938 150.394531 151.585938 150.25 151.292969 C 150.105469 150.996094 150.226562 150.640625 150.523438 150.492188 C 150.890625 150.3125 151.28125 150.285156 151.695312 150.300781 L 152.554688 150.363281 L 155.539062 150.492188 L 158.023438 150.410156 L 160.964844 150.273438 L 161.808594 150.199219 C 162.1875 150.175781 162.707031 150.082031 163.230469 150.390625 C 163.511719 150.558594 163.605469 150.925781 163.441406 151.207031 C 163.273438 151.492188 162.90625 151.585938 162.625 151.417969 L 161.878906 151.386719 L 161.074219 151.460938 L 158.054688 151.601562 L 155.542969 151.6875 C 154.414062 151.691406 153.265625 151.628906 152.441406 151.546875 L 151.652344 151.488281 Z M 151.046875 151.5625 "/>
<path style=" stroke:none;fill-rule:nonzero;fill:rgb(92.941284%,21.176147%,14.117432%);fill-opacity:1;" d="M 163.222656 168.09375 C 163.550781 168.085938 163.824219 168.34375 163.832031 168.675781 C 163.839844 169.003906 163.578125 169.277344 163.25 169.285156 L 162.746094 169.191406 C 162.589844 169.125 162.433594 169.023438 162.324219 168.8125 C 162.210938 168.59375 162.273438 168.324219 162.351562 168.199219 L 162.542969 167.996094 L 162.835938 167.851562 C 163.265625 167.714844 163.710938 167.769531 164.347656 167.785156 L 166.664062 167.824219 L 170.925781 167.808594 L 174.011719 167.824219 L 175.273438 167.941406 C 175.960938 168.050781 176.457031 168.269531 176.898438 168.40625 L 178.324219 168.679688 C 178.851562 168.746094 179.261719 168.753906 179.722656 168.882812 C 180.039062 168.96875 180.226562 169.300781 180.136719 169.617188 C 180.046875 169.933594 179.71875 170.117188 179.402344 170.03125 L 178.171875 169.863281 C 177.679688 169.800781 177.101562 169.71875 176.539062 169.542969 C 176.03125 169.382812 175.625 169.207031 175.085938 169.121094 L 173.960938 169.015625 L 170.933594 169.003906 L 166.679688 169.015625 L 163.191406 168.988281 L 163.238281 168.960938 L 163.289062 168.917969 C 163.265625 168.941406 163.394531 168.773438 163.367188 168.820312 C 163.335938 168.871094 163.457031 168.5 163.441406 168.601562 C 163.429688 168.703125 163.332031 168.167969 163.382812 168.269531 C 163.417969 168.335938 163.25 168.113281 163.28125 168.136719 Z M 163.222656 168.09375 "/>
<path style=" stroke:none;fill-rule:nonzero;fill:rgb(92.941284%,21.176147%,14.117432%);fill-opacity:1;" d="M 200.996094 151.265625 C 200.996094 150.933594 201.261719 150.667969 201.59375 150.667969 C 201.921875 150.667969 202.1875 150.933594 202.1875 151.265625 L 202.1875 168.035156 C 202.1875 168.367188 201.921875 168.632812 201.59375 168.632812 C 201.261719 168.632812 200.996094 168.367188 200.996094 168.035156 Z M 200.996094 151.265625 "/>
<path style=" stroke:none;fill-rule:nonzero;fill:rgb(92.941284%,21.176147%,14.117432%);fill-opacity:1;" d="M 187.246094 169.078125 C 187.054688 169.34375 186.679688 169.402344 186.414062 169.207031 C 186.148438 169.011719 186.09375 168.640625 186.285156 168.375 C 186.550781 168.015625 187.007812 167.945312 187.28125 167.945312 L 189.019531 167.871094 L 190.707031 167.859375 L 193.78125 167.8125 C 195.160156 167.773438 196.355469 167.675781 197.253906 167.558594 L 198.9375 167.367188 L 199.902344 167.351562 L 200.265625 167.371094 L 200.640625 167.46875 C 200.679688 167.484375 200.800781 167.4375 201.03125 167.714844 C 201.167969 167.875 201.203125 168.191406 201.136719 168.367188 L 200.929688 168.667969 C 200.695312 168.898438 200.316406 168.898438 200.085938 168.664062 C 199.855469 168.429688 199.855469 168.050781 200.089844 167.820312 L 200.082031 167.835938 C 200.09375 167.816406 200.003906 167.996094 200.023438 167.9375 C 200.046875 167.875 200.007812 168.308594 199.996094 168.203125 C 199.980469 168.09375 200.167969 168.539062 200.113281 168.476562 C 200.066406 168.417969 200.265625 168.601562 200.238281 168.582031 L 200.277344 168.605469 L 200.203125 168.578125 L 200.113281 168.554688 L 199.882812 168.542969 L 198.976562 168.558594 L 197.414062 168.738281 C 196.460938 168.867188 195.230469 168.964844 193.816406 169.003906 L 190.703125 169.054688 L 189.046875 169.0625 L 187.289062 169.136719 L 187.15625 169.144531 Z M 187.246094 169.078125 "/>
<path style=" stroke:none;fill-rule:nonzero;fill:rgb(92.941284%,21.176147%,14.117432%);fill-opacity:1;" d="M 179.789062 186.894531 C 179.550781 187.121094 179.175781 187.113281 178.949219 186.875 C 178.71875 186.636719 178.730469 186.257812 178.96875 186.03125 L 178.910156 186.101562 C 178.933594 186.066406 178.832031 186.296875 178.847656 186.242188 C 178.863281 186.183594 178.839844 186.492188 178.832031 186.429688 C 178.824219 186.367188 178.898438 186.636719 178.878906 186.59375 C 178.835938 186.507812 179.011719 186.761719 178.988281 186.738281 L 179.019531 186.765625 L 178.910156 186.71875 L 178.796875 186.671875 L 178.648438 186.574219 L 178.578125 186.507812 C 178.367188 186.253906 178.398438 185.878906 178.652344 185.667969 C 178.902344 185.453125 179.28125 185.488281 179.492188 185.738281 L 179.425781 185.671875 L 179.34375 185.613281 L 179.3125 185.597656 L 179.332031 185.605469 L 179.59375 185.71875 C 179.695312 185.773438 179.84375 185.847656 179.957031 186.085938 C 180.015625 186.214844 180.039062 186.394531 179.996094 186.554688 Z M 179.484375 186.507812 C 179.269531 186.753906 178.894531 186.78125 178.644531 186.566406 C 178.394531 186.351562 178.367188 185.976562 178.585938 185.726562 C 178.777344 185.503906 178.933594 185.515625 179.023438 185.503906 L 179.214844 185.5 L 179.472656 185.511719 L 180.175781 185.511719 L 183.238281 185.585938 L 184.894531 185.523438 L 185.746094 185.4375 C 185.949219 185.429688 186.164062 185.386719 186.472656 185.476562 L 186.777344 185.640625 C 186.894531 185.75 186.996094 185.949219 187 186.128906 C 187.003906 186.464844 186.84375 186.617188 186.71875 186.746094 C 186.492188 186.988281 186.117188 186.996094 185.875 186.773438 C 185.636719 186.546875 185.625 186.167969 185.851562 185.929688 L 185.828125 186 C 185.839844 185.960938 185.808594 186.214844 185.804688 186.152344 C 185.804688 186.085938 185.886719 186.433594 185.855469 186.363281 C 185.824219 186.296875 186.015625 186.5625 185.976562 186.523438 C 185.933594 186.488281 186.109375 186.613281 186.082031 186.597656 L 186.140625 186.621094 L 185.792969 186.628906 L 184.992188 186.710938 L 183.226562 186.777344 L 180.15625 186.703125 L 179.457031 186.703125 L 179.171875 186.691406 L 179.160156 186.6875 L 179.253906 186.667969 L 179.351562 186.621094 C 179.308594 186.644531 179.53125 186.453125 179.484375 186.507812 "/>
</g>
</svg>
