<?xml version="1.0" encoding="UTF-8"?>
<svg xmlns="http://www.w3.org/2000/svg" xmlns:xlink="http://www.w3.org/1999/xlink" width="271.256pt" height="124.584pt" viewBox="0 0 271.256 124.584" version="1.2">
<g id="surface1">
<path style=" stroke:none;fill-rule:nonzero;fill:rgb(7.058716%,1.176453%,46.665955%);fill-opacity:1;" d="M 175.089844 50.871094 C 175.089844 50.507812 175.382812 50.210938 175.746094 50.210938 C 176.109375 50.210938 176.40625 50.507812 176.40625 50.871094 L 176.40625 61.773438 C 176.40625 62.136719 176.109375 62.433594 175.746094 62.433594 C 175.382812 62.433594 175.089844 62.136719 175.089844 61.773438 Z M 175.089844 50.871094 "/>
<path style=" stroke:none;fill-rule:nonzero;fill:rgb(7.058716%,1.176453%,46.665955%);fill-opacity:1;" d="M 170.246094 56.980469 C 169.882812 56.980469 169.589844 56.6875 169.589844 56.324219 C 169.589844 55.960938 169.882812 55.664062 170.246094 55.664062 L 181.246094 55.664062 C 181.609375 55.664062 181.902344 55.960938 181.902344 56.324219 C 181.902344 56.6875 181.609375 56.980469 181.246094 56.980469 Z M 170.246094 56.980469 "/>
<path style=" stroke:none;fill-rule:nonzero;fill:rgb(7.058716%,1.176453%,46.665955%);fill-opacity:1;" d="M 184.785156 56.324219 C 184.785156 59.65625 182.984375 62.566406 180.300781 64.132812 C 178.964844 64.914062 177.40625 65.363281 175.746094 65.363281 C 172.414062 65.363281 169.503906 63.558594 167.9375 60.875 C 167.15625 59.539062 166.707031 57.984375 166.707031 56.324219 C 166.707031 52.992188 168.507812 50.078125 171.191406 48.511719 C 172.53125 47.730469 174.085938 47.28125 175.746094 47.28125 C 179.078125 47.28125 181.988281 49.085938 183.558594 51.769531 C 184.339844 53.105469 184.785156 54.664062 184.785156 56.324219 M 183.59375 56.324219 C 183.59375 54.882812 183.207031 53.53125 182.527344 52.371094 C 181.167969 50.039062 178.640625 48.472656 175.746094 48.472656 C 174.304688 48.472656 172.953125 48.863281 171.792969 49.539062 C 169.464844 50.902344 167.898438 53.429688 167.898438 56.324219 C 167.898438 57.765625 168.285156 59.113281 168.964844 60.277344 C 170.324219 62.605469 172.851562 64.171875 175.746094 64.171875 C 177.1875 64.171875 178.539062 63.78125 179.699219 63.105469 C 182.03125 61.742188 183.59375 59.214844 183.59375 56.324219 "/>
<path style=" stroke:none;fill-rule:nonzero;fill:rgb(7.058716%,1.176453%,46.665955%);fill-opacity:1;" d="M 184.1875 57.082031 C 183.859375 57.082031 183.59375 56.8125 183.59375 56.484375 C 183.59375 56.15625 183.859375 55.890625 184.1875 55.890625 L 227.84375 55.890625 C 228.171875 55.890625 228.4375 56.15625 228.4375 56.484375 C 228.4375 56.8125 228.171875 57.082031 227.84375 57.082031 Z M 184.1875 57.082031 "/>
<path style=" stroke:none;fill-rule:nonzero;fill:rgb(7.058716%,1.176453%,46.665955%);fill-opacity:1;" d="M 226.789062 56.890625 C 226.84375 56.566406 227.148438 56.347656 227.476562 56.398438 C 227.800781 56.453125 228.019531 56.757812 227.964844 57.082031 L 227.960938 57.007812 L 227.9375 56.898438 C 227.953125 56.949219 227.757812 56.636719 227.824219 56.710938 C 227.859375 56.75 227.636719 56.566406 227.691406 56.597656 C 227.773438 56.648438 227.3125 56.511719 227.410156 56.515625 C 227.5 56.519531 227.121094 56.574219 227.179688 56.550781 C 227.25 56.523438 226.996094 56.660156 227.03125 56.636719 C 227.074219 56.601562 226.933594 56.734375 226.949219 56.714844 L 226.921875 56.753906 L 226.914062 56.761719 L 226.898438 56.824219 L 226.878906 56.722656 C 226.851562 56.660156 227.011719 56.890625 226.980469 56.863281 L 227.007812 56.886719 L 226.859375 56.820312 L 226.347656 56.550781 L 224.773438 55.574219 L 224.292969 55.175781 L 224.101562 55 L 224.03125 54.9375 L 224.046875 54.949219 L 224.117188 54.984375 L 224.183594 55.003906 C 224.148438 54.996094 224.394531 55.023438 224.328125 55.023438 L 224.367188 55.023438 C 224.039062 55.046875 223.753906 54.796875 223.730469 54.46875 C 223.710938 54.140625 223.957031 53.855469 224.285156 53.835938 L 224.328125 53.832031 L 224.5625 53.878906 L 224.726562 53.972656 L 224.894531 54.109375 L 225.097656 54.292969 L 225.480469 54.617188 L 226.90625 55.5 L 227.355469 55.738281 C 227.480469 55.792969 227.769531 55.804688 227.964844 56.226562 C 228.109375 56.542969 228.171875 56.835938 228.019531 57.214844 L 227.929688 57.386719 C 227.890625 57.453125 227.882812 57.558594 227.601562 57.664062 C 227.429688 57.730469 227.082031 57.671875 226.933594 57.503906 C 226.800781 57.351562 226.792969 57.238281 226.78125 57.167969 Z M 223.726562 54.351562 C 223.773438 54.023438 224.078125 53.800781 224.402344 53.847656 C 224.726562 53.894531 224.953125 54.199219 224.90625 54.523438 L 224.910156 54.414062 C 224.914062 54.480469 224.878906 54.25 224.886719 54.277344 L 224.878906 54.253906 L 224.945312 54.382812 L 225.132812 54.789062 L 225.363281 55.5 C 225.535156 56.226562 225.574219 57.0625 225.632812 57.730469 L 225.691406 58.613281 C 225.691406 58.613281 225.597656 58.476562 225.640625 58.527344 C 225.6875 58.585938 225.363281 58.386719 225.433594 58.402344 C 225.488281 58.414062 225.324219 58.394531 225.339844 58.394531 L 225.519531 58.316406 L 225.765625 58.140625 L 225.976562 57.925781 L 226.652344 57.058594 C 226.886719 56.730469 226.914062 56.28125 227.589844 56.109375 C 227.90625 56.027344 228.230469 56.21875 228.3125 56.535156 C 228.398438 56.855469 228.207031 57.179688 227.886719 57.261719 L 227.992188 57.21875 L 227.917969 57.324219 L 227.621094 57.753906 L 226.890625 58.6875 L 226.496094 59.082031 L 226.054688 59.378906 C 225.84375 59.484375 225.613281 59.660156 225.183594 59.566406 C 225.007812 59.527344 224.832031 59.417969 224.71875 59.28125 L 224.535156 58.90625 C 224.441406 58.535156 224.476562 58.222656 224.445312 57.835938 C 224.386719 57.144531 224.339844 56.34375 224.203125 55.773438 L 224.042969 55.277344 L 223.875 54.90625 L 223.804688 54.765625 L 223.75 54.636719 L 223.71875 54.472656 Z M 223.726562 54.351562 "/>
<path style=" stroke:none;fill-rule:nonzero;fill:rgb(7.058716%,1.176453%,46.665955%);fill-opacity:1;" d="M 175.21875 20.910156 C 175.21875 20.578125 175.488281 20.3125 175.816406 20.3125 C 176.144531 20.3125 176.410156 20.578125 176.410156 20.910156 L 176.410156 47.878906 C 176.410156 48.207031 176.144531 48.476562 175.816406 48.476562 C 175.488281 48.476562 175.21875 48.207031 175.21875 47.878906 Z M 175.21875 20.910156 "/>
<path style=" stroke:none;fill-rule:nonzero;fill:rgb(7.058716%,1.176453%,46.665955%);fill-opacity:1;" d="M 173.871094 44.429688 C 174.199219 44.464844 174.4375 44.753906 174.40625 45.082031 C 174.375 45.410156 174.082031 45.648438 173.753906 45.617188 L 173.351562 45.542969 L 173.230469 45.492188 L 173.160156 45.449219 C 172.890625 45.261719 172.828125 44.890625 173.019531 44.621094 C 173.207031 44.351562 173.578125 44.289062 173.847656 44.476562 L 173.785156 44.4375 C 173.839844 44.46875 173.722656 44.410156 173.722656 44.410156 Z M 173.550781 45.554688 C 173.222656 45.578125 172.9375 45.332031 172.910156 45.003906 C 172.886719 44.675781 173.132812 44.390625 173.460938 44.367188 L 173.539062 44.363281 L 173.679688 44.386719 C 174.066406 44.476562 174.21875 44.660156 174.441406 44.8125 C 174.886719 45.117188 175.15625 45.519531 175.40625 45.84375 L 175.765625 46.304688 L 175.988281 46.632812 L 175.910156 46.59375 L 175.898438 46.59375 L 175.808594 46.628906 L 175.917969 46.527344 L 176.246094 46.351562 L 176.28125 46.339844 L 176.21875 46.378906 L 176.195312 46.398438 L 176.460938 45.613281 L 176.808594 44.867188 L 177.03125 44.453125 L 177.335938 44.023438 C 177.480469 43.851562 177.605469 43.679688 177.945312 43.605469 C 178.210938 43.546875 178.433594 43.652344 178.570312 43.769531 C 178.703125 43.878906 178.808594 44.007812 178.835938 44.25 C 178.867188 44.507812 178.753906 44.660156 178.683594 44.742188 L 178.53125 44.882812 L 178.304688 45.015625 C 178.023438 45.152344 177.742188 45.167969 177.464844 45.152344 C 176.679688 45.105469 176.042969 44.652344 175.574219 44.457031 C 175.246094 44.324219 175.007812 44.308594 174.84375 44.351562 L 174.714844 44.386719 C 174.703125 44.390625 174.8125 44.316406 174.769531 44.351562 C 174.714844 44.398438 174.878906 44.199219 174.867188 44.226562 L 174.859375 44.367188 C 174.859375 44.390625 174.925781 44.476562 174.84375 44.804688 C 174.804688 44.960938 174.707031 45.140625 174.511719 45.257812 C 174.304688 45.378906 174.011719 45.371094 173.820312 45.265625 C 173.667969 45.183594 173.582031 45.058594 173.53125 44.960938 L 173.457031 44.703125 L 173.472656 44.28125 C 173.527344 43.957031 173.835938 43.738281 174.160156 43.792969 C 174.484375 43.847656 174.703125 44.15625 174.648438 44.480469 L 174.640625 44.546875 C 174.640625 44.5625 174.582031 44.394531 174.609375 44.449219 L 174.539062 44.339844 C 174.574219 44.378906 174.328125 44.1875 174.390625 44.222656 C 174.445312 44.25 174.070312 44.164062 174.164062 44.164062 C 174.253906 44.164062 173.832031 44.277344 173.902344 44.234375 C 173.972656 44.191406 173.714844 44.429688 173.746094 44.378906 C 173.777344 44.332031 173.679688 44.546875 173.6875 44.507812 C 173.703125 44.457031 173.675781 44.589844 173.675781 44.585938 L 173.671875 44.273438 C 173.683594 44.113281 173.601562 43.78125 173.996094 43.441406 C 174.234375 43.242188 174.441406 43.226562 174.539062 43.199219 C 175.011719 43.078125 175.527344 43.148438 176.03125 43.359375 C 176.621094 43.605469 177.226562 43.945312 177.535156 43.960938 L 177.777344 43.945312 L 177.839844 43.914062 C 177.835938 43.914062 177.734375 44.023438 177.773438 43.972656 C 177.796875 43.945312 177.667969 44.164062 177.695312 44.101562 C 177.726562 44.035156 177.667969 44.511719 177.652344 44.390625 C 177.644531 44.300781 177.742188 44.621094 177.71875 44.582031 L 177.804688 44.679688 C 177.769531 44.648438 178.007812 44.777344 177.945312 44.757812 C 177.878906 44.734375 178.292969 44.75 178.195312 44.769531 C 178.140625 44.78125 178.3125 44.726562 178.292969 44.734375 L 178.246094 44.792969 L 178.054688 45.066406 L 177.867188 45.414062 L 177.570312 46.050781 C 177.429688 46.402344 177.480469 46.886719 176.96875 47.304688 L 176.648438 47.472656 L 176.617188 47.484375 L 176.675781 47.445312 C 176.632812 47.484375 176.511719 47.683594 176.148438 47.761719 C 175.894531 47.8125 175.566406 47.808594 175.265625 47.578125 C 174.976562 47.359375 174.90625 47.144531 174.816406 47.023438 L 174.46875 46.578125 C 174.199219 46.230469 173.980469 45.941406 173.769531 45.796875 L 173.464844 45.59375 L 173.367188 45.535156 C 173.347656 45.527344 173.453125 45.554688 173.398438 45.542969 L 173.457031 45.550781 Z M 173.550781 45.554688 "/>
<path style=" stroke:none;fill-rule:nonzero;fill:rgb(7.058716%,1.176453%,46.665955%);fill-opacity:1;" d="M 128.847656 57.296875 C 128.519531 57.296875 128.253906 57.027344 128.253906 56.699219 C 128.253906 56.371094 128.519531 56.105469 128.847656 56.105469 L 167.316406 56.105469 C 167.644531 56.105469 167.910156 56.371094 167.910156 56.699219 C 167.910156 57.027344 167.644531 57.296875 167.316406 57.296875 Z M 128.847656 57.296875 "/>
<path style=" stroke:none;fill-rule:nonzero;fill:rgb(7.058716%,1.176453%,46.665955%);fill-opacity:1;" d="M 165.941406 56.25 C 166.261719 56.179688 166.578125 56.386719 166.644531 56.710938 C 166.710938 57.03125 166.503906 57.347656 166.183594 57.414062 L 165.746094 57.402344 C 165.578125 57.347656 165.414062 57.214844 165.332031 57.078125 C 165.179688 56.816406 165.210938 56.628906 165.214844 56.492188 L 165.214844 56.125 C 165.214844 56.042969 165.148438 55.9375 165.003906 55.832031 L 164.820312 55.738281 L 164.597656 55.652344 L 164.53125 55.640625 L 164.582031 55.632812 C 164.550781 55.644531 164.765625 55.535156 164.714844 55.570312 C 164.621094 55.636719 164.914062 55.300781 164.886719 55.367188 C 164.859375 55.425781 164.929688 55.203125 164.925781 55.234375 L 164.929688 55.179688 L 164.957031 55.378906 C 165.03125 56.105469 164.835938 56.921875 164.796875 57.722656 L 164.820312 58.777344 L 164.835938 58.820312 C 164.839844 58.828125 164.691406 58.675781 164.753906 58.726562 C 164.832031 58.792969 164.394531 58.597656 164.488281 58.609375 C 164.578125 58.621094 164.222656 58.632812 164.273438 58.621094 C 164.363281 58.597656 164.128906 58.6875 164.144531 58.679688 L 164.230469 58.597656 L 164.945312 57.984375 L 165.289062 57.480469 L 165.398438 57.257812 L 165.59375 56.722656 L 165.617188 56.648438 C 165.617188 56.632812 165.617188 56.796875 165.613281 56.742188 C 165.609375 56.710938 165.660156 56.953125 165.636719 56.882812 C 165.625 56.847656 165.730469 57.074219 165.699219 57.019531 C 165.664062 56.964844 165.949219 57.25 165.867188 57.195312 C 165.597656 57.007812 165.527344 56.640625 165.714844 56.367188 C 165.902344 56.097656 166.273438 56.027344 166.542969 56.214844 C 166.851562 56.425781 166.796875 56.609375 166.800781 56.679688 L 166.796875 56.800781 L 166.730469 57.070312 L 166.492188 57.726562 L 166.332031 58.058594 L 165.828125 58.789062 L 165.054688 59.457031 L 164.832031 59.652344 L 164.578125 59.773438 C 164.433594 59.808594 164.175781 59.796875 164 59.648438 C 163.785156 59.476562 163.75 59.3125 163.703125 59.195312 C 163.523438 58.710938 163.582031 58.226562 163.609375 57.667969 C 163.648438 56.757812 163.8125 55.902344 163.773438 55.503906 L 163.742188 55.277344 L 163.75 55.050781 C 163.765625 54.941406 163.8125 54.75 164.019531 54.605469 C 164.371094 54.351562 164.664062 54.449219 164.859375 54.492188 L 165.226562 54.617188 L 165.710938 54.875 C 166.023438 55.105469 166.410156 55.527344 166.40625 56.132812 L 166.40625 56.597656 L 166.398438 56.5625 L 166.355469 56.46875 C 166.40625 56.546875 165.996094 56.230469 166.097656 56.261719 L 165.980469 56.246094 Z M 166.261719 56.113281 C 166.589844 56.144531 166.828125 56.433594 166.796875 56.761719 C 166.765625 57.089844 166.472656 57.328125 166.148438 57.296875 C 166.066406 57.289062 166.417969 57.265625 166.359375 57.28125 C 166.304688 57.296875 166.527344 57.207031 166.492188 57.226562 C 166.394531 57.28125 166.671875 57.074219 166.648438 57.101562 L 166.699219 57.03125 L 166.707031 57.019531 C 166.554688 57.308594 166.195312 57.421875 165.902344 57.273438 C 165.609375 57.121094 165.496094 56.761719 165.648438 56.46875 C 165.675781 56.421875 165.582031 56.367188 165.914062 56.183594 Z M 166.261719 56.113281 "/>
<path style=" stroke:none;fill-rule:nonzero;fill:rgb(7.058716%,1.176453%,46.665955%);fill-opacity:1;" d="M 134.613281 43.339844 C 134.296875 43.253906 134.109375 42.925781 134.199219 42.609375 C 134.285156 42.289062 134.613281 42.105469 134.929688 42.191406 C 135.585938 42.371094 135.960938 42.914062 136.582031 43.578125 L 137.683594 44.8125 L 138.511719 45.820312 L 138.792969 46.148438 L 138.941406 46.316406 C 139.035156 46.425781 139.195312 46.667969 139.148438 46.976562 C 139.113281 47.207031 138.980469 47.324219 138.90625 47.382812 L 138.734375 47.484375 L 138.539062 47.550781 C 138.226562 47.652344 137.890625 47.480469 137.789062 47.167969 C 137.6875 46.855469 137.863281 46.519531 138.175781 46.417969 L 138.257812 46.390625 C 138.265625 46.386719 138.140625 46.46875 138.183594 46.4375 C 138.203125 46.421875 138.035156 46.597656 138.074219 46.546875 C 138.117188 46.488281 137.953125 46.902344 137.972656 46.796875 C 137.984375 46.707031 138.023438 47.082031 138 47.03125 L 138.03125 47.085938 L 137.832031 46.855469 L 137.585938 46.566406 L 136.777344 45.585938 L 135.710938 44.390625 L 134.921875 43.589844 L 134.664062 43.378906 Z M 134.613281 43.339844 "/>
<path style=" stroke:none;fill-rule:nonzero;fill:rgb(7.058716%,1.176453%,46.665955%);fill-opacity:1;" d="M 136.160156 46.621094 C 136.226562 46.941406 136.019531 47.257812 135.695312 47.320312 C 135.371094 47.386719 135.058594 47.179688 134.992188 46.855469 C 134.949219 46.625 134.804688 46.308594 134.960938 45.886719 C 135.292969 44.980469 136.269531 44.503906 137.054688 43.769531 L 138.152344 42.566406 C 138.371094 42.261719 138.257812 42.023438 138.636719 41.585938 C 138.851562 41.335938 139.226562 41.308594 139.476562 41.523438 C 139.726562 41.738281 139.753906 42.113281 139.539062 42.363281 C 139.503906 42.40625 139.574219 42.3125 139.5625 42.339844 C 139.511719 42.472656 139.410156 42.855469 139.117188 43.261719 C 138.808594 43.691406 138.371094 44.167969 137.871094 44.640625 C 137.007812 45.445312 136.128906 46.167969 136.078125 46.300781 L 136.089844 46.289062 Z M 136.160156 46.621094 "/>
<path style=" stroke:none;fill-rule:nonzero;fill:rgb(7.058716%,1.176453%,46.665955%);fill-opacity:1;" d="M 146.871094 39.847656 C 147.117188 40.066406 147.136719 40.445312 146.917969 40.6875 C 146.699219 40.933594 146.320312 40.957031 146.078125 40.738281 L 145.542969 40.261719 C 145.40625 40.179688 145.140625 40.125 144.796875 40.109375 L 144.257812 40.105469 C 143.980469 40.136719 143.597656 40.304688 143.257812 40.472656 L 142.898438 40.664062 L 142.835938 40.707031 L 142.875 40.65625 C 142.832031 40.726562 142.953125 40.367188 142.945312 40.441406 C 142.9375 40.511719 142.921875 40.230469 142.933594 40.273438 L 142.90625 40.191406 L 142.894531 40.171875 L 143.023438 40.339844 C 143.230469 40.628906 143.285156 40.957031 143.324219 41.332031 L 143.414062 44.078125 L 143.425781 45.585938 L 143.300781 46.757812 C 143.214844 47.21875 143.054688 47.566406 142.984375 47.765625 L 142.917969 47.984375 L 142.914062 47.953125 L 142.878906 47.828125 C 142.910156 47.890625 142.78125 47.710938 142.796875 47.722656 L 143.003906 47.792969 C 143.226562 47.863281 143.402344 47.855469 143.820312 47.757812 L 145.636719 47.289062 L 146.746094 47.015625 L 147.074219 46.929688 L 147.132812 46.910156 L 147.105469 46.921875 C 147.125 46.910156 146.976562 47.035156 147.015625 46.992188 C 147.25 46.761719 147.625 46.757812 147.859375 46.988281 C 148.09375 47.222656 148.09375 47.597656 147.863281 47.832031 C 147.507812 48.191406 147.328125 48.101562 147.03125 48.175781 L 145.9375 48.441406 L 144.09375 48.914062 C 143.585938 49.035156 143.113281 49.074219 142.65625 48.933594 C 142.453125 48.871094 142.074219 48.867188 141.820312 48.371094 C 141.597656 47.941406 141.777344 47.613281 141.859375 47.378906 L 142.128906 46.542969 L 142.234375 45.546875 L 142.222656 44.09375 L 142.136719 41.453125 L 142.054688 41.035156 L 141.898438 40.828125 L 141.777344 40.566406 C 141.746094 40.429688 141.75 40.210938 141.855469 40.039062 C 142.097656 39.640625 142.402344 39.570312 142.726562 39.410156 C 143.09375 39.222656 143.570312 38.984375 144.125 38.921875 L 144.847656 38.917969 C 145.28125 38.9375 145.734375 38.992188 146.148438 39.234375 C 146.570312 39.484375 146.835938 39.816406 146.871094 39.847656 "/>
<path style=" stroke:none;fill-rule:nonzero;fill:rgb(7.058716%,1.176453%,46.665955%);fill-opacity:1;" d="M 147.769531 42.683594 C 147.804688 43.011719 147.574219 43.308594 147.246094 43.34375 C 146.917969 43.382812 146.625 43.152344 146.585938 42.824219 L 146.566406 42.5625 C 146.566406 42.476562 146.492188 42.363281 146.722656 42.097656 C 146.859375 41.941406 147.195312 41.855469 147.382812 41.917969 L 147.648438 42.09375 L 147.785156 42.285156 L 148.175781 43.089844 L 148.539062 43.960938 L 148.660156 44.320312 L 148.71875 44.492188 L 148.757812 44.570312 C 148.769531 44.582031 148.613281 44.429688 148.671875 44.472656 C 148.703125 44.5 148.492188 44.375 148.546875 44.398438 C 148.601562 44.421875 148.296875 44.355469 148.363281 44.355469 C 148.433594 44.359375 148.070312 44.417969 148.128906 44.394531 C 148.183594 44.371094 147.96875 44.488281 148 44.464844 C 148.058594 44.421875 147.898438 44.570312 147.910156 44.554688 L 147.917969 44.535156 L 148.050781 44.226562 L 148.628906 43.066406 C 148.714844 42.914062 148.785156 42.742188 148.980469 42.566406 C 149.167969 42.390625 149.445312 42.328125 149.65625 42.363281 C 149.859375 42.398438 150.023438 42.492188 150.148438 42.617188 C 150.445312 42.902344 150.421875 43.128906 150.464844 43.261719 L 150.621094 43.632812 C 150.804688 44.070312 151.015625 44.460938 151.171875 44.617188 L 151.214844 44.667969 L 151.289062 44.601562 C 151.535156 44.386719 151.914062 44.414062 152.128906 44.660156 C 152.34375 44.90625 152.320312 45.285156 152.070312 45.5 C 151.8125 45.726562 151.480469 45.878906 151.140625 45.855469 C 150.804688 45.835938 150.527344 45.65625 150.332031 45.464844 C 149.945312 45.082031 149.726562 44.578125 149.523438 44.097656 L 149.328125 43.621094 L 149.265625 43.40625 L 149.261719 43.394531 L 149.324219 43.472656 C 149.296875 43.449219 149.542969 43.550781 149.464844 43.539062 C 149.417969 43.53125 149.679688 43.515625 149.621094 43.53125 C 149.558594 43.546875 149.835938 43.398438 149.789062 43.4375 L 149.671875 43.640625 L 149.140625 44.707031 L 148.992188 45.046875 L 148.871094 45.257812 L 148.71875 45.414062 C 148.636719 45.476562 148.5 45.550781 148.316406 45.546875 C 147.992188 45.53125 147.832031 45.324219 147.773438 45.234375 L 147.683594 45.082031 L 147.535156 44.707031 L 147.425781 44.382812 L 147.082031 43.5625 L 146.746094 42.871094 C 146.734375 42.851562 146.816406 42.949219 146.773438 42.902344 L 146.835938 42.957031 C 146.800781 42.933594 147.078125 43.074219 146.996094 43.042969 C 146.910156 43.015625 147.460938 43.023438 147.332031 43.058594 C 147.207031 43.089844 147.6875 42.804688 147.625 42.875 C 147.566406 42.945312 147.742188 42.660156 147.726562 42.703125 C 147.707031 42.761719 147.757812 42.570312 147.753906 42.589844 L 147.757812 42.566406 Z M 147.769531 42.683594 "/>
<path style=" stroke:none;fill-rule:nonzero;fill:rgb(7.058716%,1.176453%,46.665955%);fill-opacity:1;" d="M 151.726562 39.539062 C 152 39.726562 152.066406 40.097656 151.878906 40.367188 C 151.691406 40.636719 151.320312 40.707031 151.050781 40.519531 C 150.867188 40.390625 150.710938 40.300781 150.582031 40.054688 C 150.507812 39.917969 150.449219 39.652344 150.566406 39.425781 C 150.675781 39.203125 150.851562 39.125 150.964844 39.085938 C 151.359375 38.941406 151.667969 39.003906 152.101562 39.023438 L 153.253906 39.050781 L 154.949219 38.964844 L 156.09375 38.714844 L 156.03125 38.75 C 156.0625 38.726562 155.871094 38.941406 155.910156 38.875 C 155.9375 38.835938 155.824219 39.113281 155.84375 39.035156 L 155.832031 39.125 C 155.855469 38.796875 156.144531 38.550781 156.472656 38.578125 C 156.800781 38.605469 157.042969 38.890625 157.019531 39.21875 L 157 39.324219 L 156.921875 39.507812 C 156.804688 39.691406 156.640625 39.789062 156.457031 39.847656 C 156.167969 39.941406 155.6875 40.078125 155.085938 40.148438 L 153.242188 40.242188 L 152.054688 40.210938 L 151.519531 40.199219 L 151.371094 40.203125 C 151.351562 40.210938 151.515625 40.117188 151.46875 40.152344 C 151.417969 40.1875 151.671875 39.875 151.628906 39.964844 C 151.582031 40.054688 151.671875 39.582031 151.683594 39.667969 C 151.691406 39.753906 151.609375 39.453125 151.628906 39.492188 C 151.664062 39.554688 151.582031 39.425781 151.597656 39.441406 Z M 156.085938 38.671875 C 156.359375 38.488281 156.726562 38.5625 156.910156 38.835938 C 157.09375 39.109375 157.019531 39.480469 156.746094 39.660156 C 156.65625 39.722656 156.917969 39.488281 156.890625 39.523438 C 156.855469 39.574219 156.953125 39.40625 156.945312 39.417969 L 156.921875 39.570312 L 157.046875 39.960938 L 157.648438 40.929688 L 159.09375 43.097656 L 159.816406 44.414062 C 160.183594 45.125 160.523438 45.683594 160.484375 46.351562 C 160.441406 47.023438 159.941406 47.488281 159.410156 47.773438 C 158.75 48.128906 157.957031 48.25 157.207031 48.25 C 156.464844 48.25 155.78125 48.167969 155.265625 47.789062 C 155 47.59375 154.941406 47.222656 155.136719 46.957031 C 155.332031 46.691406 155.703125 46.632812 155.96875 46.828125 C 156.085938 46.914062 156.613281 47.058594 157.207031 47.058594 C 157.808594 47.058594 158.445312 46.941406 158.84375 46.726562 C 159.160156 46.554688 159.289062 46.347656 159.292969 46.277344 C 159.304688 46.113281 159.121094 45.65625 158.757812 44.960938 L 158.078125 43.726562 L 156.65625 41.589844 L 155.972656 40.472656 C 155.789062 40.089844 155.683594 39.734375 155.746094 39.371094 C 155.765625 39.257812 155.714844 39.128906 155.917969 38.835938 Z M 156.085938 38.671875 "/>
<path style=" stroke:none;fill-rule:nonzero;fill:rgb(7.058716%,1.176453%,46.665955%);fill-opacity:1;" d="M 221.320312 42.234375 C 221.382812 41.910156 221.691406 41.695312 222.015625 41.757812 C 222.339844 41.816406 222.554688 42.128906 222.492188 42.453125 C 222.433594 42.761719 222.359375 42.949219 222.449219 43.234375 C 222.554688 43.574219 222.972656 44.09375 223.3125 44.285156 L 223.664062 44.347656 L 224.035156 44.089844 L 224.472656 43.417969 L 224.675781 42.8125 L 224.738281 42.414062 L 224.753906 42.460938 C 224.746094 42.441406 224.835938 42.609375 224.804688 42.5625 C 224.777344 42.515625 224.972656 42.730469 224.917969 42.683594 C 224.664062 42.472656 224.628906 42.097656 224.839844 41.847656 C 225.050781 41.59375 225.425781 41.558594 225.679688 41.769531 L 225.804688 41.914062 L 225.898438 42.132812 L 225.925781 42.480469 L 225.839844 43.070312 L 225.546875 43.933594 C 225.386719 44.265625 225.179688 44.605469 224.914062 44.894531 C 224.640625 45.191406 224.292969 45.457031 223.839844 45.523438 C 223.480469 45.578125 223.082031 45.523438 222.726562 45.324219 C 222.0625 44.949219 221.535156 44.304688 221.3125 43.589844 C 221.109375 42.945312 221.292969 42.394531 221.320312 42.234375 M 224.867188 41.804688 C 225.097656 41.574219 225.476562 41.574219 225.707031 41.804688 C 225.941406 42.039062 225.941406 42.414062 225.707031 42.648438 C 225.664062 42.691406 225.820312 42.492188 225.800781 42.527344 C 225.773438 42.574219 225.847656 42.402344 225.839844 42.425781 L 225.847656 42.390625 L 225.847656 42.453125 L 225.867188 42.808594 L 226.109375 43.699219 L 227.257812 46.414062 C 227.527344 47.09375 227.695312 47.648438 227.726562 48.121094 C 227.738281 48.335938 227.753906 48.660156 227.53125 48.957031 C 227.308594 49.257812 227 49.382812 226.699219 49.464844 L 225.738281 49.601562 C 224.722656 49.648438 223.695312 49.273438 222.867188 48.910156 L 222.109375 48.542969 C 221.90625 48.441406 221.710938 48.578125 221.386719 48.085938 C 221.285156 47.933594 221.253906 47.652344 221.328125 47.472656 L 221.558594 47.171875 L 222.015625 46.894531 C 222.308594 46.746094 222.667969 46.859375 222.816406 47.152344 C 222.96875 47.445312 222.851562 47.804688 222.5625 47.953125 L 222.3125 48.09375 L 222.347656 48.058594 C 222.328125 48.082031 222.453125 47.867188 222.425781 47.933594 C 222.398438 48 222.457031 47.574219 222.464844 47.671875 C 222.476562 47.769531 222.34375 47.375 222.378906 47.429688 C 222.414062 47.484375 222.261719 47.304688 222.285156 47.324219 L 222.25 47.300781 L 222.644531 47.480469 L 223.347656 47.820312 C 224.089844 48.148438 225.003906 48.441406 225.6875 48.414062 L 226.378906 48.316406 L 226.578125 48.242188 L 226.539062 48.328125 L 226.535156 48.199219 C 226.519531 47.941406 226.394531 47.464844 226.152344 46.855469 L 224.992188 44.117188 C 224.820312 43.652344 224.707031 43.265625 224.679688 42.898438 L 224.65625 42.460938 L 224.667969 42.226562 C 224.679688 42.136719 224.667969 42.003906 224.867188 41.804688 "/>
<path style=" stroke:none;fill-rule:nonzero;fill:rgb(7.058716%,1.176453%,46.665955%);fill-opacity:1;" d="M 235.679688 38.097656 C 235.976562 38.238281 236.101562 38.59375 235.960938 38.890625 C 235.816406 39.1875 235.460938 39.3125 235.164062 39.171875 C 234.746094 38.96875 234.71875 38.914062 234.515625 38.890625 L 234.121094 38.867188 L 232.59375 38.875 L 231.621094 39.066406 L 231.019531 39.226562 L 231.042969 39.210938 L 231.117188 39.121094 C 231.09375 39.167969 231.171875 38.917969 231.164062 38.96875 C 231.160156 39.023438 231.140625 38.785156 231.152344 38.824219 C 231.171875 38.890625 231.050781 38.636719 231.074219 38.675781 C 231.117188 38.734375 230.96875 38.566406 230.984375 38.578125 L 231.164062 38.699219 C 231.550781 39.015625 231.539062 39.355469 231.589844 39.507812 L 231.761719 40.363281 L 231.820312 41.519531 L 231.820312 42.527344 C 231.796875 43.085938 231.679688 43.628906 231.59375 44.140625 L 231.300781 45.882812 L 231.175781 47.097656 L 231.175781 47.449219 L 231.1875 47.609375 L 231.167969 47.546875 C 231.1875 47.589844 231.019531 47.367188 231.066406 47.410156 C 231.132812 47.46875 230.890625 47.320312 230.914062 47.324219 L 230.925781 47.324219 L 231.210938 47.292969 L 232.742188 46.96875 C 233.496094 46.847656 234.332031 46.863281 235.027344 46.84375 C 235.855469 46.824219 236.308594 46.820312 236.527344 46.65625 C 236.792969 46.460938 237.167969 46.511719 237.363281 46.777344 C 237.558594 47.039062 237.503906 47.414062 237.242188 47.609375 C 236.59375 48.097656 235.847656 48.015625 235.058594 48.035156 C 234.335938 48.054688 233.535156 48.046875 232.929688 48.144531 L 231.386719 48.46875 L 230.9375 48.515625 C 230.757812 48.515625 230.515625 48.515625 230.269531 48.296875 C 229.929688 47.988281 230 47.679688 229.988281 47.554688 L 229.988281 47.046875 L 230.125 45.691406 L 230.421875 43.941406 L 230.632812 42.476562 L 230.632812 41.527344 L 230.574219 40.484375 L 230.453125 39.871094 L 230.371094 39.597656 L 230.355469 39.5625 L 230.410156 39.621094 L 230.347656 39.585938 C 230.277344 39.539062 230.105469 39.480469 230.011719 39.175781 C 229.953125 38.976562 229.96875 38.726562 230.085938 38.527344 C 230.199219 38.332031 230.375 38.203125 230.558594 38.128906 L 231.328125 37.914062 L 232.492188 37.6875 L 234.152344 37.675781 L 234.664062 37.707031 C 235.089844 37.761719 235.335938 37.933594 235.679688 38.097656 "/>
<path style=" stroke:none;fill-rule:nonzero;fill:rgb(7.058716%,1.176453%,46.665955%);fill-opacity:1;" d="M 237.433594 41.734375 C 237.464844 42.0625 237.222656 42.351562 236.894531 42.378906 C 236.566406 42.410156 236.277344 42.167969 236.246094 41.839844 L 236.246094 41.8125 L 236.246094 41.828125 C 236.246094 41.816406 236.289062 41.960938 236.273438 41.910156 L 236.292969 41.957031 C 236.148438 41.660156 236.277344 41.304688 236.574219 41.164062 C 236.871094 41.023438 237.226562 41.148438 237.367188 41.445312 L 237.390625 41.503906 Z M 236.273438 41.476562 C 236.398438 41.171875 236.746094 41.027344 237.050781 41.152344 C 237.355469 41.273438 237.5 41.621094 237.378906 41.925781 L 237.394531 41.875 L 237.414062 41.800781 L 237.414062 41.785156 L 237.410156 42.023438 L 237.410156 44.242188 L 237.40625 44.503906 L 237.402344 44.46875 C 237.40625 44.5 237.300781 44.222656 237.347656 44.308594 C 237.371094 44.355469 237.164062 44.101562 237.226562 44.15625 C 237.289062 44.210938 236.902344 44.003906 236.988281 44.027344 C 237.074219 44.050781 236.691406 44.023438 236.753906 44.015625 C 236.816406 44.003906 236.578125 44.074219 236.613281 44.058594 L 236.542969 44.097656 L 237.410156 42.832031 L 238.175781 41.839844 L 238.542969 41.390625 C 238.625 41.3125 238.601562 41.082031 239.125 40.992188 C 239.4375 40.945312 239.632812 41.121094 239.703125 41.210938 L 239.804688 41.375 L 239.867188 41.574219 L 239.933594 41.902344 L 240.238281 43.992188 L 240.421875 44.945312 C 240.421875 44.949219 240.304688 44.851562 240.355469 44.882812 C 240.40625 44.917969 240.148438 44.835938 240.1875 44.835938 L 240.40625 44.691406 C 240.671875 44.496094 241.042969 44.550781 241.242188 44.816406 C 241.4375 45.082031 241.382812 45.453125 241.117188 45.648438 C 240.839844 45.855469 240.574219 46.011719 240.234375 46.027344 C 239.882812 46.039062 239.539062 45.792969 239.394531 45.550781 C 239.128906 45.097656 239.132812 44.632812 239.0625 44.175781 L 238.753906 42.078125 L 238.710938 41.863281 L 238.710938 41.851562 L 238.730469 41.890625 L 238.789062 41.976562 C 238.753906 41.929688 239.019531 42.144531 238.9375 42.097656 C 238.894531 42.074219 239.167969 42.175781 239.101562 42.160156 C 239.035156 42.144531 239.390625 42.15625 239.316406 42.167969 C 239.273438 42.175781 239.492188 42.109375 239.457031 42.125 C 239.40625 42.148438 239.546875 42.066406 239.539062 42.074219 L 239.378906 42.238281 L 239.105469 42.582031 L 238.382812 43.523438 L 237.773438 44.429688 C 237.585938 44.703125 237.539062 44.949219 237.101562 45.144531 C 237.015625 45.183594 236.863281 45.226562 236.683594 45.179688 C 236.496094 45.128906 236.355469 44.976562 236.296875 44.871094 L 236.214844 44.542969 L 236.21875 44.257812 L 236.21875 42.011719 L 236.230469 41.675781 L 236.257812 41.527344 Z M 236.273438 41.476562 "/>
<path style=" stroke:none;fill-rule:nonzero;fill:rgb(7.058716%,1.176453%,46.665955%);fill-opacity:1;" d="M 243.476562 38.988281 C 243.726562 39.203125 243.753906 39.578125 243.542969 39.828125 C 243.328125 40.078125 242.953125 40.109375 242.703125 39.894531 C 242.386719 39.625 242.328125 39.28125 242.40625 38.945312 C 242.457031 38.714844 242.597656 38.570312 242.710938 38.484375 L 243.035156 38.320312 C 243.597656 38.136719 243.890625 38.394531 244.210938 38.492188 C 244.746094 38.652344 245.570312 38.738281 246.292969 38.773438 L 247.105469 38.777344 L 247.222656 38.742188 C 247.320312 38.695312 246.964844 38.996094 247.011719 38.929688 C 247.050781 38.863281 246.929688 39.152344 246.941406 39.101562 C 246.949219 39.054688 246.945312 39.320312 246.9375 39.257812 L 246.953125 39.339844 C 246.859375 39.023438 247.039062 38.691406 247.355469 38.597656 C 247.671875 38.503906 248.003906 38.683594 248.097656 39 L 248.117188 39.105469 L 248.113281 39.320312 C 248.082031 39.476562 247.976562 39.707031 247.726562 39.820312 L 247.230469 39.960938 L 246.234375 39.964844 C 245.464844 39.925781 244.585938 39.847656 243.867188 39.632812 L 243.40625 39.488281 L 243.3125 39.46875 C 243.3125 39.46875 243.464844 39.433594 243.402344 39.453125 L 243.425781 39.4375 L 243.492188 39.371094 C 243.464844 39.40625 243.582031 39.132812 243.566406 39.203125 L 243.566406 39.121094 C 243.574219 39.148438 243.40625 38.929688 243.476562 38.988281 M 247.214844 38.648438 C 247.5 38.480469 247.863281 38.578125 248.03125 38.859375 C 248.199219 39.144531 248.101562 39.507812 247.820312 39.675781 C 247.761719 39.710938 247.964844 39.558594 247.9375 39.582031 L 247.988281 39.527344 L 248.03125 39.457031 L 248.027344 39.46875 L 247.992188 39.605469 C 247.96875 39.730469 248.015625 40.179688 248.183594 40.828125 L 248.949219 43.039062 L 249.515625 44.246094 C 249.769531 44.753906 250.019531 45.140625 250.152344 45.566406 C 250.21875 45.773438 250.265625 46.03125 250.179688 46.3125 C 250.03125 46.796875 249.667969 46.921875 249.414062 47.050781 C 248.855469 47.332031 248.117188 47.609375 247.398438 47.804688 L 246.394531 48 L 245.933594 47.992188 C 245.773438 47.972656 245.582031 47.925781 245.402344 47.746094 C 245.171875 47.515625 245.171875 47.136719 245.402344 46.90625 C 245.636719 46.671875 246.011719 46.671875 246.246094 46.902344 C 246.292969 46.953125 246.097656 46.8125 246.125 46.820312 L 246.105469 46.816406 L 246.292969 46.8125 L 247.085938 46.652344 C 247.722656 46.480469 248.421875 46.21875 248.875 45.988281 L 249.089844 45.863281 L 249.042969 45.964844 L 249.015625 45.917969 L 248.453125 44.78125 L 247.847656 43.492188 C 247.515625 42.679688 247.222656 41.84375 247.035156 41.132812 C 246.84375 40.421875 246.730469 39.886719 246.816406 39.398438 L 246.902344 39.074219 L 246.964844 38.925781 L 247.03125 38.8125 Z M 247.214844 38.648438 "/>
<path style=" stroke:none;fill-rule:nonzero;fill:rgb(7.058716%,1.176453%,46.665955%);fill-opacity:1;" d="M 183.898438 23.402344 C 183.789062 23.710938 183.449219 23.878906 183.140625 23.769531 C 182.828125 23.660156 182.664062 23.320312 182.773438 23.011719 C 182.835938 22.828125 182.980469 22.679688 183.109375 22.597656 L 183.4375 22.46875 L 183.972656 22.375 L 185.089844 21.957031 L 185.648438 21.625 C 185.882812 21.457031 185.964844 21.289062 185.980469 21.203125 L 185.871094 21.042969 L 185.332031 20.734375 C 185.128906 20.671875 184.933594 20.648438 184.707031 20.6875 C 184.28125 20.761719 183.617188 21.191406 183.035156 21.757812 L 182.21875 22.746094 C 182.039062 23.03125 181.957031 23.300781 181.941406 23.539062 L 181.949219 23.9375 C 182.023438 24.203125 182.582031 24.648438 183.238281 24.933594 C 184.640625 25.546875 186.628906 25.066406 187.398438 24.363281 C 187.640625 24.144531 188.015625 24.160156 188.238281 24.402344 C 188.460938 24.648438 188.441406 25.023438 188.199219 25.246094 C 186.992188 26.34375 184.6875 26.863281 182.761719 26.027344 C 181.96875 25.679688 181.066406 25.199219 180.800781 24.265625 C 180.710938 23.945312 180.738281 23.675781 180.753906 23.464844 C 180.78125 23.011719 180.9375 22.550781 181.203125 22.117188 C 181.472656 21.6875 181.820312 21.28125 182.203125 20.90625 C 182.882812 20.242188 183.65625 19.660156 184.507812 19.515625 C 184.929688 19.441406 185.328125 19.488281 185.671875 19.589844 C 186.074219 19.710938 186.441406 19.917969 186.726562 20.210938 C 187.011719 20.5 187.238281 20.929688 187.15625 21.40625 C 187.074219 21.855469 186.785156 22.273438 186.347656 22.589844 L 185.617188 23.023438 C 185.140625 23.261719 184.65625 23.457031 184.191406 23.542969 L 183.71875 23.628906 L 183.730469 23.613281 C 183.683594 23.644531 183.933594 23.300781 183.898438 23.402344 "/>
<path style=" stroke:none;fill-rule:nonzero;fill:rgb(7.058716%,1.176453%,46.665955%);fill-opacity:1;" d="M 195.867188 17.648438 C 195.875 17.976562 195.617188 18.253906 195.289062 18.261719 C 194.960938 18.273438 194.6875 18.015625 194.675781 17.6875 L 194.679688 17.128906 L 194.679688 17.097656 L 194.746094 17.175781 L 194.730469 17.179688 L 194.460938 17.152344 L 193.066406 17.152344 C 192.421875 17.203125 191.695312 17.382812 191.046875 17.570312 L 189.824219 17.992188 L 189.621094 18.097656 L 189.65625 18.058594 L 189.707031 17.976562 C 189.691406 18.015625 189.757812 17.769531 189.75 17.828125 C 189.742188 17.898438 189.722656 17.570312 189.738281 17.632812 C 189.75 17.6875 189.65625 17.453125 189.675781 17.492188 C 189.71875 17.558594 189.566406 17.371094 189.582031 17.382812 L 189.605469 17.386719 L 189.984375 17.523438 C 190.480469 17.710938 190.84375 18.199219 191.039062 18.785156 L 191.265625 19.726562 L 191.347656 20.90625 L 191.347656 22.035156 C 191.289062 22.824219 191.019531 23.578125 190.808594 24.261719 L 190.425781 25.445312 L 190.125 26.542969 L 190.105469 26.714844 L 190.078125 26.640625 L 189.980469 26.53125 L 190.269531 26.542969 L 191.15625 26.433594 L 193.917969 25.820312 C 194.777344 25.628906 195.484375 25.4375 196.125 25.585938 C 196.445312 25.664062 196.644531 25.984375 196.570312 26.304688 C 196.496094 26.625 196.171875 26.820312 195.851562 26.746094 C 195.425781 26.648438 193.300781 27.25 191.371094 27.605469 C 190.628906 27.742188 189.933594 27.953125 189.296875 27.507812 C 189.085938 27.359375 188.960938 27.101562 188.929688 26.894531 L 188.949219 26.347656 L 189.292969 25.074219 L 189.667969 23.910156 C 189.882812 23.210938 190.117188 22.519531 190.15625 21.949219 L 190.15625 20.914062 L 190.085938 19.894531 L 189.910156 19.164062 C 189.757812 18.707031 189.757812 18.710938 189.5625 18.636719 L 189.117188 18.476562 L 188.847656 18.320312 L 188.664062 18.117188 C 188.597656 18.011719 188.546875 17.851562 188.566406 17.683594 C 188.605469 17.375 188.785156 17.234375 188.914062 17.140625 L 189.339844 16.902344 L 190.71875 16.425781 C 191.402344 16.230469 192.191406 16.027344 192.96875 15.964844 L 194.527344 15.960938 C 194.820312 15.980469 195.09375 15.980469 195.390625 16.171875 C 195.722656 16.386719 195.847656 16.78125 195.867188 17.046875 Z M 195.867188 17.648438 "/>
<path style=" stroke:none;fill-rule:nonzero;fill:rgb(7.058716%,1.176453%,46.665955%);fill-opacity:1;" d="M 196.015625 20.011719 C 196.1875 20.292969 196.097656 20.660156 195.816406 20.832031 C 195.535156 21 195.167969 20.910156 194.996094 20.628906 L 194.785156 20.050781 C 194.761719 19.921875 194.691406 19.765625 194.90625 19.484375 C 195.027344 19.324219 195.359375 19.207031 195.570312 19.269531 C 195.769531 19.332031 195.847656 19.429688 195.902344 19.503906 C 196.21875 19.910156 196.179688 20.25 196.269531 20.59375 L 196.574219 21.933594 L 196.664062 22.394531 L 196.679688 22.4375 C 196.679688 22.441406 196.582031 22.300781 196.625 22.355469 C 196.648438 22.386719 196.453125 22.214844 196.511719 22.25 C 196.570312 22.289062 196.191406 22.15625 196.28125 22.167969 C 196.367188 22.179688 195.976562 22.214844 196.042969 22.191406 C 196.105469 22.171875 195.878906 22.285156 195.910156 22.261719 L 195.941406 22.195312 L 196.621094 20.855469 L 197.175781 20.007812 C 197.261719 19.898438 197.359375 19.75 197.585938 19.625 C 197.90625 19.445312 198.296875 19.449219 198.605469 19.636719 C 198.867188 19.792969 198.921875 20 198.957031 20.125 L 199.011719 20.375 C 199.152344 21.039062 199.175781 21.824219 199.328125 22.378906 C 199.402344 22.660156 199.5 22.730469 199.53125 22.746094 C 199.566406 22.757812 199.714844 22.765625 200 22.585938 C 200.28125 22.410156 200.648438 22.496094 200.824219 22.773438 C 200.996094 23.050781 200.914062 23.417969 200.636719 23.59375 C 200.160156 23.894531 199.613281 24.046875 199.117188 23.859375 C 198.617188 23.675781 198.316406 23.203125 198.175781 22.691406 C 197.972656 21.941406 197.953125 21.121094 197.847656 20.621094 L 197.8125 20.453125 L 197.832031 20.496094 C 197.808594 20.457031 198.082031 20.710938 197.992188 20.65625 C 197.921875 20.613281 198.207031 20.640625 198.164062 20.664062 L 198.195312 20.648438 L 198.105469 20.753906 L 197.667969 21.425781 L 197.199219 22.371094 C 197.042969 22.683594 196.960938 22.964844 196.625 23.214844 C 196.523438 23.292969 196.347656 23.375 196.136719 23.351562 C 195.925781 23.324219 195.773438 23.199219 195.699219 23.101562 C 195.558594 22.929688 195.542969 22.808594 195.511719 22.699219 L 195.40625 22.171875 L 195.117188 20.894531 L 194.988281 20.367188 L 194.941406 20.207031 C 194.929688 20.179688 195 20.28125 194.960938 20.230469 L 195.035156 20.308594 C 194.996094 20.273438 195.304688 20.433594 195.21875 20.40625 C 195.140625 20.382812 195.707031 20.359375 195.582031 20.402344 C 195.457031 20.445312 195.914062 20.128906 195.859375 20.203125 C 195.796875 20.28125 195.957031 19.988281 195.941406 20.035156 C 195.921875 20.101562 195.964844 19.863281 195.964844 19.894531 L 195.957031 19.835938 Z M 196.015625 20.011719 "/>
<path style=" stroke:none;fill-rule:nonzero;fill:rgb(7.058716%,1.176453%,46.665955%);fill-opacity:1;" d="M 201.523438 16.453125 C 201.773438 16.667969 201.804688 17.042969 201.589844 17.292969 C 201.378906 17.546875 201 17.574219 200.75 17.363281 L 200.472656 17.105469 C 200.390625 17.023438 200.242188 16.964844 200.222656 16.605469 C 200.214844 16.402344 200.355469 16.144531 200.507812 16.046875 L 200.800781 15.9375 L 201.113281 15.929688 L 203.046875 15.945312 L 204.433594 15.945312 L 205.359375 15.917969 L 205.804688 15.84375 L 205.882812 15.800781 L 205.925781 15.785156 C 206.234375 15.671875 206.574219 15.832031 206.6875 16.140625 C 206.800781 16.449219 206.640625 16.789062 206.332031 16.902344 L 206.421875 16.863281 L 206.398438 16.875 L 206.070312 17.007812 L 205.429688 17.109375 L 204.449219 17.136719 L 203.03125 17.136719 L 201.070312 17.121094 L 200.972656 17.117188 L 201.035156 17.101562 C 201 17.113281 201.230469 16.996094 201.171875 17.035156 C 201.101562 17.082031 201.398438 16.742188 201.347656 16.835938 C 201.296875 16.933594 201.410156 16.457031 201.414062 16.542969 C 201.417969 16.625 201.355469 16.320312 201.371094 16.363281 C 201.394531 16.414062 201.3125 16.261719 201.320312 16.273438 Z M 205.542969 16.386719 C 205.523438 16.058594 205.773438 15.773438 206.101562 15.753906 C 206.429688 15.734375 206.710938 15.984375 206.734375 16.3125 C 206.757812 16.730469 206.65625 16.691406 206.640625 16.738281 L 206.648438 17.050781 L 206.683594 17.902344 L 207.160156 19.640625 L 207.535156 20.78125 C 207.816406 21.570312 208.148438 22.273438 208.503906 22.917969 L 209.726562 24.972656 C 209.921875 25.351562 210.082031 25.710938 210.039062 26.140625 C 210.011719 26.378906 209.886719 26.625 209.710938 26.785156 C 209.539062 26.941406 209.339844 27.035156 209.132812 27.101562 C 208.410156 27.335938 207.449219 27.410156 206.488281 27.363281 C 205.535156 27.316406 204.609375 27.226562 204.023438 26.601562 C 203.796875 26.363281 203.8125 25.984375 204.050781 25.761719 C 204.292969 25.535156 204.667969 25.546875 204.894531 25.789062 C 204.996094 25.898438 205.71875 26.132812 206.546875 26.171875 C 207.386719 26.214844 208.273438 26.125 208.765625 25.96875 L 208.90625 25.90625 L 208.851562 26.019531 L 208.667969 25.515625 L 207.460938 23.496094 C 207.078125 22.800781 206.714844 22.035156 206.414062 21.179688 L 206.027344 20.003906 C 205.800781 19.300781 205.597656 18.660156 205.507812 18.082031 L 205.457031 17.054688 C 205.457031 16.910156 205.414062 16.71875 205.492188 16.429688 L 205.554688 16.234375 L 205.550781 16.269531 Z M 205.542969 16.386719 "/>
<path style=" stroke:none;fill-rule:nonzero;fill:rgb(7.058716%,1.176453%,46.665955%);fill-opacity:1;" d="M 56.40625 51.246094 C 56.40625 50.882812 56.703125 50.589844 57.066406 50.589844 C 57.429688 50.589844 57.722656 50.882812 57.722656 51.246094 L 57.722656 62.152344 C 57.722656 62.515625 57.429688 62.808594 57.066406 62.808594 C 56.703125 62.808594 56.40625 62.515625 56.40625 62.152344 Z M 56.40625 51.246094 "/>
<path style=" stroke:none;fill-rule:nonzero;fill:rgb(7.058716%,1.176453%,46.665955%);fill-opacity:1;" d="M 51.566406 57.359375 C 51.203125 57.359375 50.910156 57.0625 50.910156 56.699219 C 50.910156 56.335938 51.203125 56.042969 51.566406 56.042969 L 62.5625 56.042969 C 62.929688 56.042969 63.222656 56.335938 63.222656 56.699219 C 63.222656 57.0625 62.929688 57.359375 62.5625 57.359375 Z M 51.566406 57.359375 "/>
<path style=" stroke:none;fill-rule:nonzero;fill:rgb(7.058716%,1.176453%,46.665955%);fill-opacity:1;" d="M 66.105469 56.699219 C 66.105469 60.03125 64.304688 62.941406 61.621094 64.511719 C 60.28125 65.292969 58.726562 65.738281 57.066406 65.738281 C 53.734375 65.738281 50.824219 63.9375 49.253906 61.253906 C 48.472656 59.917969 48.027344 58.359375 48.027344 56.699219 C 48.027344 53.367188 49.828125 50.457031 52.511719 48.890625 C 53.847656 48.109375 55.40625 47.660156 57.066406 47.660156 C 60.398438 47.660156 63.308594 49.460938 64.875 52.144531 C 65.65625 53.484375 66.105469 55.039062 66.105469 56.699219 M 64.914062 56.699219 C 64.914062 55.257812 64.527344 53.90625 63.847656 52.746094 C 62.488281 50.417969 59.957031 48.851562 57.066406 48.851562 C 55.625 48.851562 54.273438 49.238281 53.113281 49.917969 C 50.78125 51.277344 49.21875 53.804688 49.21875 56.699219 C 49.21875 58.140625 49.605469 59.492188 50.285156 60.652344 C 51.644531 62.980469 54.171875 64.546875 57.066406 64.546875 C 58.507812 64.546875 59.859375 64.160156 61.019531 63.480469 C 63.347656 62.121094 64.914062 59.59375 64.914062 56.699219 "/>
<path style=" stroke:none;fill-rule:nonzero;fill:rgb(7.058716%,1.176453%,46.665955%);fill-opacity:1;" d="M 128.253906 39.453125 L 93.765625 39.453125 L 93.765625 73.945312 L 128.253906 73.945312 Z M 129.445312 38.859375 L 129.445312 74.539062 C 129.445312 74.867188 129.179688 75.132812 128.847656 75.132812 L 93.167969 75.132812 C 92.839844 75.132812 92.574219 74.867188 92.574219 74.539062 L 92.574219 38.859375 C 92.574219 38.53125 92.839844 38.265625 93.167969 38.265625 L 128.847656 38.265625 C 129.179688 38.265625 129.445312 38.53125 129.445312 38.859375 "/>
<path style=" stroke:none;fill-rule:nonzero;fill:rgb(7.058716%,1.176453%,46.665955%);fill-opacity:1;" d="M 65.523438 57.441406 C 65.191406 57.449219 64.921875 57.1875 64.914062 56.859375 C 64.90625 56.53125 65.167969 56.257812 65.496094 56.25 L 93.15625 55.621094 C 93.484375 55.613281 93.757812 55.875 93.765625 56.203125 C 93.773438 56.53125 93.511719 56.804688 93.183594 56.8125 Z M 65.523438 57.441406 "/>
<path style=" stroke:none;fill-rule:nonzero;fill:rgb(7.058716%,1.176453%,46.665955%);fill-opacity:1;" d="M 92.207031 56.652344 C 92.0625 56.949219 91.703125 57.070312 91.410156 56.925781 C 91.113281 56.78125 90.992188 56.425781 91.136719 56.128906 C 91.410156 55.574219 91.773438 55.207031 91.777344 55.136719 L 91.789062 55.207031 L 91.722656 55.128906 L 91.234375 54.761719 L 89.972656 54.035156 L 89.460938 53.757812 L 89.359375 53.738281 L 89.390625 53.734375 L 89.488281 53.679688 C 89.425781 53.726562 89.65625 53.460938 89.625 53.515625 C 89.597656 53.566406 89.683594 53.339844 89.675781 53.375 C 89.664062 53.445312 89.683594 53.238281 89.683594 53.257812 L 89.699219 53.308594 L 89.847656 53.714844 C 90.164062 54.605469 90.339844 55.691406 90.40625 56.761719 L 90.40625 58.054688 L 90.34375 58.699219 L 90.230469 59.171875 C 90.230469 59.183594 90.226562 59.050781 90.230469 59.117188 C 90.234375 59.144531 90.179688 58.902344 90.203125 58.972656 C 90.304688 59.285156 90.136719 59.621094 89.824219 59.722656 C 89.511719 59.828125 89.175781 59.65625 89.070312 59.34375 L 89.042969 59.179688 L 89.046875 59.03125 L 89.167969 58.519531 L 89.214844 57.988281 L 89.214844 56.832031 C 89.15625 55.855469 88.988281 54.851562 88.726562 54.113281 L 88.5625 53.664062 L 88.5 53.371094 L 88.511719 53.128906 C 88.535156 53.019531 88.601562 52.863281 88.742188 52.75 C 88.929688 52.597656 89.136719 52.554688 89.3125 52.546875 L 89.816406 52.621094 C 90.136719 52.722656 90.332031 52.878906 90.523438 52.980469 L 91.878906 53.761719 L 92.566406 54.289062 C 92.777344 54.5 92.988281 54.804688 92.96875 55.199219 C 92.921875 56.042969 92.28125 56.496094 92.207031 56.652344 M 89.589844 59.757812 C 89.261719 59.726562 89.023438 59.4375 89.050781 59.109375 C 89.082031 58.78125 89.371094 58.539062 89.699219 58.570312 C 89.800781 58.582031 89.414062 58.613281 89.46875 58.597656 C 89.542969 58.574219 89.308594 58.675781 89.332031 58.660156 L 89.292969 58.691406 L 89.300781 58.679688 L 90.285156 57.613281 C 91.066406 56.683594 91.328125 56.007812 91.492188 54.855469 C 91.535156 54.527344 91.835938 54.300781 92.164062 54.347656 C 92.488281 54.394531 92.714844 54.695312 92.667969 55.019531 C 92.488281 56.304688 92.089844 57.316406 91.199219 58.378906 L 90.144531 59.523438 L 90.050781 59.609375 C 90.007812 59.644531 89.972656 59.792969 89.589844 59.757812 "/>
<path style=" stroke:none;fill-rule:nonzero;fill:rgb(7.058716%,1.176453%,46.665955%);fill-opacity:1;" d="M 102.59375 50.640625 C 102.488281 50.953125 102.148438 51.117188 101.839844 51.011719 C 101.527344 50.90625 101.359375 50.570312 101.464844 50.257812 L 101.632812 49.824219 L 101.832031 49.5625 C 101.929688 49.484375 102.152344 49.371094 102.398438 49.449219 C 102.640625 49.527344 102.734375 49.695312 102.773438 49.785156 C 102.898438 50.0625 102.84375 50.121094 102.84375 50.238281 L 102.824219 50.65625 C 102.75 51.90625 102.667969 54.414062 102.355469 56.847656 C 102.203125 58.03125 102.015625 59.085938 101.820312 59.886719 L 101.511719 60.875 C 101.511719 60.886719 101.511719 60.6875 101.515625 60.761719 C 101.519531 60.800781 101.445312 60.527344 101.476562 60.597656 C 101.507812 60.667969 101.21875 60.304688 101.304688 60.371094 C 101.386719 60.433594 100.933594 60.242188 101.019531 60.253906 C 101.078125 60.261719 100.832031 60.257812 100.871094 60.253906 C 100.925781 60.246094 100.734375 60.292969 100.757812 60.285156 L 100.71875 60.300781 L 101.027344 60.046875 C 101.277344 59.832031 101.652344 59.863281 101.867188 60.109375 C 102.082031 60.359375 102.054688 60.734375 101.804688 60.949219 L 101.296875 61.34375 L 101.089844 61.425781 C 100.976562 61.449219 100.761719 61.457031 100.570312 61.3125 C 100.210938 61.027344 100.324219 60.761719 100.339844 60.660156 L 100.660156 59.601562 C 100.84375 58.863281 101.027344 57.84375 101.171875 56.699219 C 101.476562 54.335938 101.5625 51.863281 101.632812 50.589844 L 101.652344 50.21875 L 101.652344 50.140625 L 101.652344 50.15625 C 101.648438 50.136719 101.71875 50.339844 101.6875 50.273438 C 101.675781 50.242188 101.835938 50.476562 101.785156 50.421875 C 101.742188 50.375 102.039062 50.59375 101.960938 50.554688 C 101.898438 50.523438 102.230469 50.617188 102.160156 50.609375 C 102.054688 50.601562 102.503906 50.546875 102.429688 50.574219 C 102.363281 50.601562 102.613281 50.464844 102.578125 50.488281 C 102.515625 50.542969 102.703125 50.351562 102.691406 50.371094 L 102.703125 50.347656 Z M 102.59375 50.640625 "/>
<path style=" stroke:none;fill-rule:nonzero;fill:rgb(7.058716%,1.176453%,46.665955%);fill-opacity:1;" d="M 101.410156 56.667969 C 101.5 56.984375 101.3125 57.3125 100.996094 57.402344 C 100.679688 57.492188 100.351562 57.304688 100.261719 56.988281 C 100.164062 56.636719 100.253906 56.222656 100.464844 55.953125 C 100.671875 55.6875 100.945312 55.527344 101.234375 55.402344 C 101.816406 55.152344 102.523438 55.027344 103.253906 54.921875 L 105.3125 54.644531 L 106.015625 54.5 L 106.191406 54.4375 C 106.214844 54.425781 106.132812 54.503906 106.171875 54.464844 C 106.386719 54.214844 106.761719 54.183594 107.011719 54.398438 C 107.261719 54.613281 107.289062 54.988281 107.074219 55.238281 C 106.652344 55.734375 106.117188 55.726562 105.496094 55.824219 L 103.425781 56.097656 C 102.734375 56.199219 102.101562 56.328125 101.707031 56.496094 L 101.402344 56.683594 Z M 101.410156 56.667969 "/>
<path style=" stroke:none;fill-rule:nonzero;fill:rgb(7.058716%,1.176453%,46.665955%);fill-opacity:1;" d="M 107.484375 49.390625 C 107.652344 49.671875 107.558594 50.039062 107.277344 50.207031 C 106.992188 50.375 106.628906 50.28125 106.460938 50 L 106.316406 49.796875 C 106.316406 49.796875 106.4375 49.859375 106.386719 49.835938 C 106.328125 49.8125 106.769531 49.839844 106.660156 49.863281 C 106.546875 49.886719 106.9375 49.691406 106.894531 49.734375 C 106.855469 49.777344 106.941406 49.671875 106.941406 49.671875 L 106.894531 49.867188 C 106.804688 50.398438 106.796875 51.441406 106.808594 52.714844 L 106.808594 57.195312 L 106.691406 58.765625 L 106.507812 59.816406 C 106.507812 59.832031 106.484375 59.671875 106.496094 59.726562 L 106.453125 59.613281 C 106.488281 59.683594 106.140625 59.324219 106.246094 59.386719 C 106.351562 59.453125 105.839844 59.308594 105.929688 59.304688 C 105.992188 59.304688 105.773438 59.335938 105.804688 59.328125 C 105.859375 59.3125 105.699219 59.375 105.710938 59.367188 L 105.800781 59.285156 C 106.039062 59.054688 106.414062 59.0625 106.644531 59.300781 C 106.871094 59.535156 106.863281 59.914062 106.628906 60.140625 C 106.476562 60.285156 106.449219 60.480469 105.976562 60.496094 C 105.691406 60.511719 105.378906 60.179688 105.335938 60 L 105.324219 59.679688 L 105.507812 58.625 L 105.621094 57.160156 L 105.621094 52.726562 C 105.605469 51.441406 105.59375 50.394531 105.71875 49.667969 L 105.863281 49.171875 C 105.9375 49.003906 106.09375 48.761719 106.421875 48.695312 C 106.742188 48.628906 106.992188 48.796875 107.136719 48.929688 Z M 107.484375 49.390625 "/>
<path style=" stroke:none;fill-rule:nonzero;fill:rgb(7.058716%,1.176453%,46.665955%);fill-opacity:1;" d="M 114.484375 51.050781 C 114.441406 51.378906 114.140625 51.605469 113.816406 51.5625 C 113.488281 51.519531 113.261719 51.21875 113.304688 50.894531 L 113.324219 50.492188 L 113.375 50.574219 C 113.34375 50.535156 113.578125 50.714844 113.515625 50.6875 C 113.457031 50.660156 113.742188 50.730469 113.691406 50.730469 L 113.789062 50.71875 C 113.75 50.730469 113.398438 51.035156 112.972656 51.597656 C 112.265625 52.523438 111.390625 53.847656 110.75 55.347656 C 110.417969 56.117188 110.183594 56.933594 110.027344 57.683594 C 109.839844 58.582031 109.886719 59.230469 110.054688 59.660156 C 110.210938 60.066406 110.472656 60.316406 110.804688 60.484375 C 111.492188 60.832031 112.488281 60.773438 113.035156 60.625 C 113.355469 60.539062 113.683594 60.726562 113.769531 61.042969 C 113.855469 61.359375 113.667969 61.6875 113.351562 61.773438 C 112.570312 61.988281 111.359375 62.097656 110.269531 61.550781 C 109.714844 61.269531 109.210938 60.777344 108.945312 60.089844 C 108.671875 59.386719 108.640625 58.496094 108.863281 57.4375 C 109.03125 56.625 109.285156 55.738281 109.652344 54.878906 C 110.351562 53.253906 111.273438 51.859375 112.023438 50.875 C 112.5 50.246094 112.847656 49.761719 113.4375 49.578125 C 113.597656 49.53125 113.824219 49.511719 114.035156 49.613281 C 114.246094 49.71875 114.378906 49.910156 114.441406 50.074219 C 114.558594 50.386719 114.535156 50.6875 114.484375 51.050781 "/>
<path style=" stroke:none;fill-rule:nonzero;fill:rgb(7.058716%,1.176453%,46.665955%);fill-opacity:1;" d="M 114.191406 53.765625 C 114.511719 53.835938 114.71875 54.152344 114.648438 54.472656 C 114.578125 54.796875 114.261719 55 113.941406 54.933594 L 113.609375 54.855469 C 113.585938 54.851562 113.605469 54.917969 113.386719 54.75 C 113.125 54.550781 113.074219 54.179688 113.273438 53.914062 C 113.472656 53.652344 113.847656 53.601562 114.109375 53.800781 C 114.175781 53.851562 113.964844 53.71875 113.988281 53.730469 C 114.039062 53.753906 113.917969 53.707031 113.921875 53.707031 Z M 113.910156 54.847656 C 113.59375 54.9375 113.261719 54.753906 113.175781 54.433594 C 113.085938 54.117188 113.269531 53.789062 113.585938 53.699219 L 113.699219 53.679688 L 113.878906 53.6875 L 114.566406 53.792969 C 115.285156 53.902344 116.191406 53.949219 117.035156 54.113281 C 117.40625 54.1875 117.8125 54.253906 118.191406 54.484375 C 118.402344 54.613281 118.589844 54.800781 118.699219 55.050781 C 118.808594 55.300781 118.820312 55.597656 118.738281 55.863281 C 118.515625 56.609375 117.875 56.890625 117.511719 57.25 L 116.992188 57.949219 L 116.976562 57.992188 L 117.050781 58.074219 C 117.199219 58.195312 117.535156 58.339844 117.9375 58.425781 C 118.765625 58.609375 119.785156 58.503906 119.917969 58.421875 C 120.195312 58.246094 120.566406 58.332031 120.738281 58.609375 C 120.914062 58.890625 120.828125 59.257812 120.550781 59.433594 C 119.789062 59.90625 118.714844 59.816406 117.683594 59.589844 C 117.167969 59.480469 116.679688 59.3125 116.289062 58.992188 C 116.09375 58.828125 115.917969 58.609375 115.832031 58.332031 C 115.75 58.050781 115.785156 57.726562 115.910156 57.457031 C 116.085938 57.066406 116.359375 56.714844 116.671875 56.40625 L 117.597656 55.523438 L 117.570312 55.5 L 116.804688 55.285156 L 114.382812 54.96875 L 113.726562 54.871094 L 113.710938 54.867188 L 113.800781 54.867188 C 113.777344 54.871094 113.964844 54.832031 113.910156 54.847656 "/>
<path style=" stroke:none;fill-rule:nonzero;fill:rgb(7.058716%,1.176453%,46.665955%);fill-opacity:1;" d="M 115.167969 56.320312 C 115.476562 56.429688 115.640625 56.769531 115.535156 57.078125 C 115.425781 57.390625 115.089844 57.554688 114.777344 57.449219 L 114.285156 57.179688 L 114.074219 56.890625 L 114.035156 56.457031 C 114.097656 56.1875 114.261719 56.050781 114.390625 55.960938 L 114.777344 55.773438 C 115.472656 55.53125 116.324219 55.636719 117.15625 55.679688 C 117.929688 55.714844 118.785156 55.625 119.636719 55.957031 C 119.941406 56.074219 120.097656 56.417969 119.976562 56.726562 C 119.859375 57.03125 119.515625 57.183594 119.207031 57.066406 C 118.683594 56.863281 117.953125 56.910156 117.097656 56.867188 C 116.269531 56.828125 115.417969 56.8125 115.167969 56.898438 L 115.070312 56.941406 L 115.113281 56.898438 C 115.085938 56.933594 115.21875 56.628906 115.199219 56.71875 C 115.179688 56.808594 115.140625 56.351562 115.175781 56.433594 C 115.207031 56.507812 115.058594 56.273438 115.078125 56.292969 Z M 115.167969 56.320312 "/>
<path style=" stroke:none;fill-rule:nonzero;fill:rgb(7.058716%,1.176453%,46.665955%);fill-opacity:1;" d="M 119.003906 50.089844 C 118.722656 49.921875 118.625 49.558594 118.792969 49.273438 C 118.957031 48.988281 119.324219 48.894531 119.609375 49.0625 C 120.433594 49.546875 122.035156 50.636719 123.148438 52.367188 C 124.050781 53.773438 124.398438 55.621094 124.050781 57.515625 C 123.710938 59.355469 122.796875 61.011719 121.847656 62.277344 C 121.386719 62.890625 120.925781 63.394531 120.503906 63.769531 C 120.101562 64.125 119.820312 64.464844 119.222656 64.414062 C 118.894531 64.386719 118.652344 64.097656 118.679688 63.769531 C 118.707031 63.441406 118.996094 63.199219 119.324219 63.226562 L 119.238281 63.230469 L 119.714844 62.878906 C 120.058594 62.570312 120.476562 62.117188 120.894531 61.5625 C 121.761719 60.410156 122.585938 58.890625 122.878906 57.300781 C 123.175781 55.683594 122.871094 54.140625 122.144531 53.011719 C 121.195312 51.53125 119.726562 50.511719 119.003906 50.089844 "/>
<path style=" stroke:none;fill-rule:nonzero;fill:rgb(7.058716%,1.176453%,46.665955%);fill-opacity:1;" d="M 23.179688 57.480469 C 22.847656 57.480469 22.582031 57.214844 22.582031 56.882812 C 22.582031 56.554688 22.847656 56.289062 23.179688 56.289062 L 48.636719 56.289062 C 48.964844 56.289062 49.230469 56.554688 49.230469 56.882812 C 49.230469 57.214844 48.964844 57.480469 48.636719 57.480469 Z M 23.179688 57.480469 "/>
<path style=" stroke:none;fill-rule:nonzero;fill:rgb(7.058716%,1.176453%,46.665955%);fill-opacity:1;" d="M 48.363281 57.300781 C 48.570312 57.558594 48.527344 57.933594 48.269531 58.136719 C 48.011719 58.34375 47.636719 58.300781 47.429688 58.042969 L 46.136719 56.257812 L 45.730469 55.867188 L 44.953125 55.332031 L 44.625 55.179688 C 44.578125 55.171875 44.898438 55.140625 44.820312 55.160156 C 44.742188 55.1875 45.085938 54.980469 45.03125 55.035156 C 44.980469 55.085938 45.144531 54.859375 45.128906 54.898438 L 45.148438 54.832031 L 45.164062 55.0625 L 45.378906 56.453125 C 45.507812 57.390625 45.515625 58.59375 45.582031 59.402344 L 45.609375 59.578125 L 45.589844 59.558594 C 45.625 59.605469 45.285156 59.382812 45.382812 59.414062 L 45.253906 59.394531 L 45.179688 59.40625 L 45.773438 58.898438 L 46.710938 58.109375 L 47.304688 57.488281 L 47.5625 57.046875 L 47.628906 56.878906 C 47.625 56.855469 47.683594 57.054688 47.660156 57 C 47.632812 56.941406 47.886719 57.242188 47.808594 57.1875 C 47.734375 57.132812 48.109375 57.289062 48.042969 57.28125 C 47.980469 57.273438 48.191406 57.269531 48.171875 57.273438 L 47.832031 57.535156 C 47.585938 57.753906 47.207031 57.734375 46.988281 57.488281 C 46.769531 57.242188 46.792969 56.867188 47.039062 56.644531 C 47.332031 56.382812 47.5625 56.199219 47.878906 56.117188 C 48.050781 56.074219 48.308594 56.074219 48.523438 56.234375 C 48.734375 56.390625 48.800781 56.621094 48.8125 56.78125 C 48.859375 57.347656 48.585938 57.765625 48.257812 58.203125 L 47.519531 58.984375 L 46.589844 59.765625 C 46.226562 60.105469 45.976562 60.417969 45.503906 60.554688 C 45.375 60.589844 45.207031 60.605469 45.03125 60.550781 C 44.855469 60.496094 44.707031 60.371094 44.617188 60.246094 C 44.445312 60.003906 44.417969 59.765625 44.394531 59.5 C 44.320312 58.625 44.3125 57.429688 44.199219 56.617188 L 43.980469 55.203125 L 43.976562 54.609375 C 44 54.492188 44.042969 54.339844 44.1875 54.195312 C 44.34375 54.039062 44.601562 53.976562 44.777344 53.996094 C 45.070312 54.035156 45.296875 54.15625 45.550781 54.304688 L 46.464844 54.929688 L 47.039062 55.476562 C 47.539062 56.054688 47.96875 56.800781 48.363281 57.300781 "/>
<path style=" stroke:none;fill-rule:nonzero;fill:rgb(7.058716%,1.176453%,46.665955%);fill-opacity:1;" d="M 13.199219 43.25 C 13.265625 43.574219 13.058594 43.886719 12.734375 43.953125 C 12.410156 44.019531 12.097656 43.808594 12.03125 43.488281 L 12.011719 43.398438 C 12 43.378906 12.210938 43.585938 12.132812 43.527344 C 12.089844 43.496094 12.355469 43.625 12.292969 43.605469 C 12.226562 43.585938 12.566406 43.617188 12.5 43.625 C 12.441406 43.632812 12.722656 43.546875 12.679688 43.570312 C 12.613281 43.605469 12.828125 43.453125 12.804688 43.476562 L 12.839844 43.433594 L 12.808594 43.515625 C 12.644531 44.042969 12.59375 45.621094 12.605469 46.949219 C 12.613281 47.980469 12.769531 48.683594 12.886719 48.796875 L 12.984375 48.792969 L 13.554688 48.511719 C 14.046875 48.167969 14.582031 47.601562 14.980469 47.023438 C 15.414062 46.382812 15.761719 45.792969 15.984375 45.152344 L 16.28125 43.984375 L 16.390625 43.382812 L 16.40625 43.203125 L 16.417969 43.261719 L 16.445312 43.328125 C 16.429688 43.296875 16.554688 43.492188 16.515625 43.445312 L 17.457031 42.714844 C 17.640625 42.953125 17.585938 43.097656 17.574219 43.175781 L 17.546875 43.304688 L 17.492188 43.457031 L 17.414062 43.6875 C 17.269531 44.253906 17.191406 45.28125 17.367188 46.390625 L 17.722656 47.703125 L 17.933594 48.453125 L 18.132812 49.265625 L 18.089844 49.203125 C 18.121094 49.238281 17.859375 49.058594 17.933594 49.09375 C 18.011719 49.128906 17.59375 49.0625 17.675781 49.054688 C 17.753906 49.042969 17.46875 49.125 17.503906 49.105469 C 17.5625 49.074219 17.445312 49.152344 17.46875 49.121094 L 17.605469 48.921875 C 17.773438 48.636719 18.136719 48.546875 18.421875 48.714844 C 18.703125 48.882812 18.796875 49.246094 18.628906 49.53125 C 18.476562 49.785156 18.367188 49.984375 18.089844 50.144531 C 17.9375 50.230469 17.667969 50.277344 17.449219 50.179688 C 17.238281 50.089844 17.148438 49.941406 17.089844 49.835938 C 16.878906 49.453125 16.878906 49.109375 16.785156 48.773438 L 16.585938 48.058594 C 16.445312 47.613281 16.277344 47.117188 16.191406 46.578125 C 15.988281 45.300781 16.066406 44.164062 16.257812 43.398438 L 16.378906 43.03125 L 16.40625 42.957031 L 16.394531 43.019531 C 16.398438 42.988281 16.398438 43.203125 16.394531 43.144531 L 16.417969 43.265625 C 16.402344 43.214844 16.558594 43.5 16.511719 43.4375 C 16.308594 43.175781 16.359375 42.800781 16.621094 42.601562 C 16.878906 42.40625 17.25 42.449219 17.449219 42.707031 C 17.714844 43.039062 17.597656 43.09375 17.597656 43.195312 L 17.574219 43.527344 L 17.453125 44.214844 L 17.109375 45.542969 C 16.839844 46.328125 16.429688 47.011719 15.960938 47.695312 C 15.492188 48.382812 14.886719 49.035156 14.234375 49.488281 C 13.914062 49.714844 13.578125 49.890625 13.210938 49.960938 C 12.835938 50.035156 12.371094 49.957031 12.058594 49.652344 C 11.40625 49.023438 11.421875 48.058594 11.414062 46.957031 C 11.402344 45.59375 11.382812 44.074219 11.671875 43.160156 L 11.828125 42.804688 C 11.90625 42.679688 12.03125 42.480469 12.359375 42.441406 C 12.539062 42.421875 12.71875 42.480469 12.835938 42.566406 L 13.050781 42.8125 Z M 13.199219 43.25 "/>
<path style=" stroke:none;fill-rule:nonzero;fill:rgb(7.058716%,1.176453%,46.665955%);fill-opacity:1;" d="M 27.433594 40.378906 C 27.445312 40.707031 27.1875 40.980469 26.859375 40.992188 C 26.53125 41.003906 26.253906 40.746094 26.242188 40.417969 L 26.292969 40.511719 L 26.035156 40.445312 C 25.6875 40.402344 25.148438 40.441406 24.566406 40.519531 L 22.886719 40.832031 L 21.730469 41.222656 C 21.460938 41.359375 21.332031 41.496094 21.289062 41.605469 L 21.238281 41.953125 L 21.335938 42.078125 L 21.746094 42.636719 C 22.453125 43.878906 22.144531 45.589844 21.777344 47.175781 C 21.574219 48.050781 21.351562 48.824219 21.269531 49.445312 L 21.226562 50 L 21.300781 50.230469 C 21.3125 50.242188 21.609375 50.339844 22.089844 50.292969 C 22.601562 50.246094 23.230469 50.09375 23.867188 49.910156 L 25.640625 49.351562 C 26.136719 49.1875 26.375 48.984375 26.910156 49.074219 C 27.234375 49.128906 27.453125 49.4375 27.398438 49.761719 C 27.34375 50.085938 27.035156 50.304688 26.710938 50.25 C 26.660156 50.242188 26.804688 50.253906 26.796875 50.253906 L 24.195312 51.054688 C 23.527344 51.25 22.84375 51.417969 22.203125 51.480469 C 21.582031 51.542969 20.9375 51.542969 20.464844 51.078125 C 20.1875 50.808594 20.113281 50.492188 20.0625 50.261719 C 19.976562 49.878906 20.050781 49.566406 20.085938 49.289062 C 20.1875 48.542969 20.421875 47.75 20.617188 46.90625 C 20.960938 45.417969 21.085938 43.882812 20.710938 43.226562 C 20.578125 42.996094 20.109375 42.75 20.050781 42.050781 C 20.027344 41.757812 20.066406 41.457031 20.175781 41.175781 C 20.363281 40.691406 20.769531 40.375 21.195312 40.160156 C 21.621094 39.941406 22.097656 39.804688 22.597656 39.675781 L 24.40625 39.339844 C 25.03125 39.253906 25.636719 39.195312 26.183594 39.261719 C 26.453125 39.296875 26.722656 39.359375 26.972656 39.53125 C 27.226562 39.707031 27.421875 40.042969 27.433594 40.378906 "/>
<path style=" stroke:none;fill-rule:nonzero;fill:rgb(7.058716%,1.176453%,46.665955%);fill-opacity:1;" d="M 25.550781 43.527344 C 25.800781 43.316406 26.179688 43.34375 26.390625 43.59375 C 26.605469 43.84375 26.574219 44.21875 26.324219 44.433594 C 26.265625 44.484375 26.464844 44.265625 26.441406 44.300781 C 26.410156 44.347656 26.5 44.171875 26.492188 44.195312 L 26.503906 44.152344 L 26.496094 44.367188 L 26.53125 45.050781 L 26.65625 45.566406 L 26.761719 46.175781 L 26.769531 46.226562 L 26.710938 46.144531 C 26.746094 46.183594 26.527344 46.03125 26.578125 46.054688 C 26.632812 46.078125 26.386719 46.019531 26.429688 46.019531 C 26.484375 46.023438 26.320312 46.035156 26.332031 46.03125 L 26.34375 46.023438 L 26.5625 45.859375 C 26.746094 45.703125 27.03125 44.992188 27.324219 44.386719 C 27.507812 44.015625 27.617188 43.636719 28.097656 43.410156 C 28.292969 43.316406 28.566406 43.339844 28.730469 43.429688 L 29.027344 43.699219 L 29.289062 44.242188 L 29.605469 45.5 C 29.683594 45.910156 29.792969 46.273438 29.921875 46.496094 L 30.109375 46.707031 C 30.4375 46.714844 30.699219 46.984375 30.691406 47.3125 C 30.6875 47.644531 30.414062 47.90625 30.085938 47.898438 C 29.535156 47.886719 29.117188 47.492188 28.886719 47.085938 C 28.65625 46.679688 28.527344 46.210938 28.433594 45.71875 L 28.164062 44.636719 L 28.058594 44.394531 L 28.078125 44.414062 L 28.167969 44.480469 C 28.117188 44.453125 28.453125 44.539062 28.367188 44.535156 C 28.285156 44.53125 28.671875 44.457031 28.605469 44.488281 L 28.660156 44.453125 L 28.394531 44.910156 C 28.148438 45.414062 27.957031 46.226562 27.347656 46.757812 L 26.917969 47.070312 C 26.738281 47.164062 26.476562 47.304688 26.117188 47.152344 C 25.90625 47.066406 25.761719 46.882812 25.691406 46.734375 L 25.585938 46.367188 L 25.507812 45.890625 L 25.347656 45.183594 L 25.304688 44.359375 L 25.320312 44.039062 L 25.34375 43.886719 C 25.359375 43.820312 25.320312 43.726562 25.550781 43.527344 "/>
<path style=" stroke:none;fill-rule:nonzero;fill:rgb(7.058716%,1.176453%,46.665955%);fill-opacity:1;" d="M 31.6875 40.972656 C 31.855469 41.253906 31.757812 41.621094 31.472656 41.785156 C 31.191406 41.953125 30.824219 41.855469 30.660156 41.570312 C 30.527344 41.34375 30.429688 41.128906 30.402344 40.882812 C 30.375 40.632812 30.460938 40.324219 30.648438 40.132812 C 31.003906 39.773438 31.398438 39.804688 31.722656 39.800781 L 33.902344 39.800781 L 35.074219 39.714844 C 35.304688 39.714844 35.539062 39.753906 35.757812 39.859375 C 35.980469 39.96875 36.183594 40.15625 36.304688 40.390625 C 36.566406 40.90625 36.390625 41.300781 36.367188 41.582031 C 36.328125 42.054688 36.417969 42.625 36.480469 43.40625 C 36.59375 44.71875 36.839844 46.628906 36.527344 48.257812 C 36.265625 49.628906 35.273438 50.535156 34.179688 50.757812 C 33.089844 50.976562 31.90625 50.640625 31.042969 49.878906 C 30.796875 49.660156 30.773438 49.285156 30.992188 49.039062 C 31.210938 48.789062 31.585938 48.765625 31.832031 48.984375 C 32.414062 49.5 33.253906 49.730469 33.941406 49.589844 C 34.617188 49.453125 35.175781 48.988281 35.359375 48.03125 C 35.617188 46.683594 35.40625 44.835938 35.296875 43.507812 C 35.234375 42.765625 35.125 42.148438 35.179688 41.484375 L 35.226562 41.011719 L 35.242188 40.929688 L 35.070312 40.90625 L 33.910156 40.992188 L 31.726562 40.992188 L 31.457031 41.011719 L 31.429688 41.019531 L 31.496094 40.96875 L 31.574219 40.839844 L 31.585938 40.75 Z M 31.6875 40.972656 "/>
<path style=" stroke:none;fill-rule:nonzero;fill:rgb(7.058716%,1.176453%,46.665955%);fill-opacity:1;" d="M 211.863281 56.484375 C 211.863281 56.15625 212.128906 55.890625 212.457031 55.890625 C 212.785156 55.890625 213.054688 56.15625 213.054688 56.484375 L 213.054688 110.433594 C 213.054688 110.761719 212.785156 111.027344 212.457031 111.027344 C 212.128906 111.027344 211.863281 110.761719 211.863281 110.433594 Z M 211.863281 56.484375 "/>
<path style=" stroke:none;fill-rule:nonzero;fill:rgb(7.058716%,1.176453%,46.665955%);fill-opacity:1;" d="M 212.457031 109.835938 C 212.785156 109.835938 213.054688 110.101562 213.054688 110.433594 C 213.054688 110.761719 212.785156 111.027344 212.457031 111.027344 L 57.140625 111.027344 C 56.8125 111.027344 56.546875 110.761719 56.546875 110.433594 C 56.546875 110.101562 56.8125 109.835938 57.140625 109.835938 Z M 212.457031 109.835938 "/>
<path style=" stroke:none;fill-rule:nonzero;fill:rgb(7.058716%,1.176453%,46.665955%);fill-opacity:1;" d="M 56.691406 65.140625 C 56.691406 64.8125 56.957031 64.546875 57.285156 64.546875 C 57.613281 64.546875 57.882812 64.8125 57.882812 65.140625 L 57.882812 110.433594 C 57.882812 110.761719 57.613281 111.027344 57.285156 111.027344 C 56.957031 111.027344 56.691406 110.761719 56.691406 110.433594 Z M 56.691406 65.140625 "/>
<path style=" stroke:none;fill-rule:nonzero;fill:rgb(7.058716%,1.176453%,46.665955%);fill-opacity:1;" d="M 56.921875 67.140625 C 56.957031 67.464844 56.71875 67.757812 56.390625 67.792969 C 56.0625 67.828125 55.769531 67.589844 55.738281 67.261719 C 55.679688 66.730469 55.820312 66.207031 56.011719 65.746094 C 56.101562 65.53125 56.1875 65.3125 56.386719 65.101562 C 56.574219 64.898438 56.90625 64.800781 57.171875 64.867188 C 57.425781 64.933594 57.605469 65.105469 57.71875 65.300781 C 58.03125 65.847656 57.859375 66.3125 57.820312 66.703125 C 57.742188 67.503906 57.492188 68.3125 57.179688 69.15625 L 56.652344 70.527344 L 56.523438 70.925781 L 56.480469 71.078125 L 56.421875 71.210938 L 56.273438 71.390625 C 56.015625 71.597656 55.640625 71.558594 55.433594 71.300781 C 55.226562 71.046875 55.265625 70.671875 55.523438 70.464844 C 55.578125 70.421875 55.398438 70.601562 55.421875 70.570312 L 55.378906 70.636719 C 55.417969 70.570312 55.347656 70.707031 55.347656 70.707031 L 55.378906 70.601562 L 55.542969 70.101562 L 56.0625 68.742188 C 56.359375 67.941406 56.574219 67.226562 56.636719 66.585938 L 56.679688 66.042969 L 56.671875 65.878906 L 56.683594 65.890625 L 56.742188 65.957031 C 56.710938 65.929688 56.933594 66.039062 56.875 66.023438 C 56.808594 66.003906 57.160156 65.996094 57.085938 66.015625 C 57.015625 66.039062 57.289062 65.878906 57.253906 65.914062 L 57.109375 66.207031 C 56.976562 66.527344 56.898438 66.914062 56.921875 67.140625 M 56.367188 70.566406 C 56.566406 70.828125 56.515625 71.203125 56.253906 71.402344 C 55.992188 71.601562 55.617188 71.550781 55.417969 71.289062 L 55.402344 71.265625 C 55.117188 70.851562 55.277344 70.6875 55.304688 70.507812 L 55.390625 70 C 55.503906 69.238281 55.636719 68.359375 55.902344 67.496094 C 56.066406 66.964844 56.304688 66.480469 56.488281 66.097656 L 56.738281 65.539062 L 56.933594 65.328125 C 57.074219 65.234375 57.367188 65.199219 57.550781 65.296875 C 57.867188 65.464844 57.835938 65.613281 57.859375 65.679688 L 57.902344 65.933594 L 57.941406 66.5 C 57.972656 67.050781 58.324219 67.792969 58.644531 68.496094 L 58.933594 69.1875 L 59.347656 69.84375 C 59.433594 69.996094 59.550781 70.1875 59.492188 70.5 C 59.460938 70.664062 59.359375 70.828125 59.234375 70.929688 L 58.890625 71.097656 C 58.433594 71.214844 58.007812 71.132812 57.613281 71.117188 C 57.136719 71.097656 56.777344 71.058594 56.574219 71.121094 C 56.394531 71.175781 56.21875 71.300781 56.015625 71.835938 C 55.898438 72.144531 55.554688 72.300781 55.246094 72.183594 C 54.9375 72.066406 54.785156 71.722656 54.898438 71.414062 C 55.1875 70.660156 55.671875 70.148438 56.230469 69.980469 C 56.765625 69.820312 57.246094 69.910156 57.664062 69.925781 L 58.59375 69.945312 C 58.605469 69.941406 58.417969 70.0625 58.480469 70.007812 C 58.550781 69.949219 58.300781 70.378906 58.320312 70.277344 L 58.316406 70.398438 L 58.328125 70.464844 L 58.3125 70.4375 L 57.855469 69.695312 L 57.558594 68.988281 C 57.246094 68.300781 56.804688 67.476562 56.75 66.566406 L 56.714844 66.050781 L 56.714844 66.023438 C 56.710938 66 56.78125 66.164062 56.753906 66.113281 L 56.824219 66.214844 C 56.789062 66.171875 57.078125 66.394531 56.996094 66.351562 C 56.910156 66.304688 57.4375 66.40625 57.320312 66.414062 C 57.234375 66.421875 57.601562 66.320312 57.542969 66.351562 C 57.457031 66.394531 57.746094 66.175781 57.710938 66.214844 L 57.773438 66.128906 L 57.5625 66.617188 L 57.042969 67.84375 C 56.808594 68.605469 56.679688 69.421875 56.570312 70.171875 L 56.480469 70.691406 L 56.464844 70.816406 L 56.460938 70.777344 L 56.445312 70.707031 C 56.457031 70.738281 56.351562 70.542969 56.382812 70.589844 Z M 56.367188 70.566406 "/>
<path style=" stroke:none;fill-rule:nonzero;fill:rgb(7.058716%,1.176453%,46.665955%);fill-opacity:1;" d="M 42.882812 71.667969 C 43.117188 71.898438 43.121094 72.277344 42.890625 72.511719 C 42.660156 72.746094 42.28125 72.75 42.046875 72.519531 C 42.003906 72.476562 42.113281 72.574219 42.109375 72.570312 L 41.726562 72.328125 C 41.53125 72.195312 41.382812 72.007812 41.3125 71.777344 C 41.242188 71.539062 41.269531 71.21875 41.472656 70.984375 C 41.796875 70.617188 42.160156 70.613281 42.535156 70.578125 L 43.84375 70.566406 L 46.921875 70.695312 L 49.78125 70.675781 L 50.183594 70.691406 L 50.363281 70.714844 C 50.433594 70.726562 50.554688 70.667969 50.773438 70.964844 C 50.902344 71.140625 50.890625 71.496094 50.789062 71.652344 C 50.554688 72.011719 50.457031 71.914062 50.363281 71.941406 L 49.921875 72.046875 C 49.597656 72.113281 49.285156 71.902344 49.21875 71.582031 C 49.15625 71.257812 49.363281 70.945312 49.6875 70.878906 L 50.015625 70.804688 C 50.035156 70.796875 49.917969 70.859375 49.976562 70.824219 L 49.90625 70.875 L 49.824219 70.957031 C 49.847656 70.925781 49.726562 71.128906 49.75 71.078125 C 49.785156 70.996094 49.710938 71.496094 49.699219 71.382812 C 49.6875 71.265625 49.863281 71.738281 49.8125 71.667969 C 49.753906 71.589844 50.007812 71.839844 49.964844 71.8125 C 49.898438 71.769531 50.121094 71.878906 50.09375 71.871094 C 50.039062 71.855469 50.132812 71.882812 50.09375 71.878906 L 49.773438 71.867188 L 46.917969 71.886719 L 43.804688 71.757812 L 42.644531 71.765625 L 42.335938 71.816406 L 42.304688 71.828125 L 42.371094 71.769531 C 42.320312 71.828125 42.472656 71.511719 42.464844 71.574219 C 42.453125 71.636719 42.445312 71.398438 42.457031 71.433594 C 42.472656 71.492188 42.390625 71.339844 42.402344 71.347656 C 42.550781 71.449219 42.625 71.417969 42.882812 71.667969 "/>
</g>
</svg>
