<?xml version="1.0" encoding="UTF-8"?>
<svg xmlns="http://www.w3.org/2000/svg" xmlns:xlink="http://www.w3.org/1999/xlink" width="217.7228pt" height="201.60743pt" viewBox="0 0 217.7228 201.60743" version="1.2">
<g id="surface1">
<path style=" stroke:none;fill-rule:nonzero;fill:rgb(7.058716%,1.176453%,46.665955%);fill-opacity:1;" d="M 107.089844 12.753906 C 107.089844 12.429688 107.351562 12.164062 107.675781 12.164062 C 108.003906 12.164062 108.265625 12.429688 108.265625 12.753906 L 108.265625 193.496094 C 108.265625 193.820312 108.003906 194.085938 107.675781 194.085938 C 107.351562 194.085938 107.089844 193.820312 107.089844 193.496094 Z M 107.089844 12.753906 "/>
<path style=" stroke:none;fill-rule:nonzero;fill:rgb(7.058716%,1.176453%,46.665955%);fill-opacity:1;" d="M 16.769531 103.210938 C 16.441406 103.210938 16.179688 102.949219 16.179688 102.625 C 16.179688 102.296875 16.441406 102.035156 16.769531 102.035156 L 197.191406 102.035156 C 197.515625 102.035156 197.78125 102.296875 197.78125 102.625 C 197.78125 102.949219 197.515625 103.210938 197.191406 103.210938 Z M 16.769531 103.210938 "/>
<path style=" stroke:none;fill-rule:nonzero;fill:rgb(7.058716%,1.176453%,46.665955%);fill-opacity:1;" d="M 197.191406 102.625 L 192.542969 106.003906 L 192.542969 99.445312 Z M 197.191406 102.625 "/>
<path style=" stroke:none;fill-rule:nonzero;fill:rgb(7.058716%,1.176453%,46.665955%);fill-opacity:1;" d="M 196.171875 102.636719 L 193.132812 100.558594 L 193.132812 104.851562 Z M 197.539062 103.097656 L 192.890625 106.480469 C 192.5 106.765625 191.957031 106.488281 191.957031 106.003906 L 191.957031 99.445312 C 191.957031 98.972656 192.484375 98.691406 192.875 98.957031 L 197.523438 102.136719 C 197.859375 102.367188 197.867188 102.859375 197.539062 103.097656 "/>
<path style=" stroke:none;fill-rule:nonzero;fill:rgb(7.058716%,1.176453%,46.665955%);fill-opacity:1;" d="M 107.675781 12.753906 L 110.492188 17.152344 L 104.972656 17.152344 Z M 107.675781 12.753906 "/>
<path style=" stroke:none;fill-rule:nonzero;fill:rgb(7.058716%,1.176453%,46.665955%);fill-opacity:1;" d="M 107.6875 13.859375 L 106.023438 16.5625 L 109.417969 16.5625 Z M 108.171875 12.4375 L 110.988281 16.835938 C 111.238281 17.226562 110.957031 17.738281 110.492188 17.738281 L 104.972656 17.738281 C 104.511719 17.738281 104.230469 17.234375 104.46875 16.84375 L 107.175781 12.445312 C 107.402344 12.078125 107.9375 12.070312 108.171875 12.4375 "/>
<path style=" stroke:none;fill-rule:nonzero;fill:rgb(7.058716%,1.176453%,46.665955%);fill-opacity:1;" d="M 159.980469 97.984375 C 159.980469 97.660156 160.246094 97.398438 160.570312 97.398438 C 160.894531 97.398438 161.15625 97.660156 161.15625 97.984375 L 161.15625 107.429688 C 161.15625 107.753906 160.894531 108.019531 160.570312 108.019531 C 160.246094 108.019531 159.980469 107.753906 159.980469 107.429688 Z M 159.980469 97.984375 "/>
<path style=" stroke:none;fill-rule:nonzero;fill:rgb(7.058716%,1.176453%,46.665955%);fill-opacity:1;" d="M 52.207031 98.402344 C 52.207031 98.078125 52.46875 97.8125 52.792969 97.8125 C 53.117188 97.8125 53.382812 98.078125 53.382812 98.402344 L 53.382812 107.847656 C 53.382812 108.171875 53.117188 108.4375 52.792969 108.4375 C 52.46875 108.4375 52.207031 108.171875 52.207031 107.847656 Z M 52.207031 98.402344 "/>
<path style=" stroke:none;fill-rule:nonzero;fill:rgb(7.058716%,1.176453%,46.665955%);fill-opacity:1;" d="M 102.949219 48.140625 C 102.625 48.140625 102.363281 47.878906 102.363281 47.554688 C 102.363281 47.226562 102.625 46.964844 102.949219 46.964844 L 112.476562 46.964844 C 112.800781 46.964844 113.066406 47.226562 113.066406 47.554688 C 113.066406 47.878906 112.800781 48.140625 112.476562 48.140625 Z M 102.949219 48.140625 "/>
<path style=" stroke:none;fill-rule:nonzero;fill:rgb(7.058716%,1.176453%,46.665955%);fill-opacity:1;" d="M 102.914062 156.851562 C 102.589844 156.851562 102.324219 156.585938 102.324219 156.261719 C 102.324219 155.9375 102.589844 155.675781 102.914062 155.675781 L 112.441406 155.675781 C 112.765625 155.675781 113.027344 155.9375 113.027344 156.261719 C 113.027344 156.585938 112.765625 156.851562 112.441406 156.851562 Z M 102.914062 156.851562 "/>
<path style=" stroke:none;fill-rule:nonzero;fill:rgb(7.058716%,1.176453%,46.665955%);fill-opacity:1;" d="M 189.585938 118.316406 C 189.585938 118.644531 189.320312 118.90625 188.996094 118.90625 C 188.671875 118.90625 188.410156 118.644531 188.410156 118.316406 C 188.410156 117.992188 188.671875 117.730469 188.996094 117.730469 C 189.320312 117.730469 189.585938 117.992188 189.585938 118.316406 M 187.769531 112.609375 C 187.503906 112.421875 187.4375 112.058594 187.621094 111.789062 C 187.804688 111.523438 188.171875 111.457031 188.441406 111.640625 C 188.664062 111.796875 188.949219 112.109375 189.078125 112.558594 C 189.171875 112.894531 189.164062 113.195312 189.207031 113.539062 C 189.296875 114.304688 189.570312 115.339844 189.675781 116.316406 C 189.726562 116.785156 189.734375 117.222656 189.707031 117.609375 C 189.691406 117.855469 189.648438 118.066406 189.617188 118.222656 C 189.601562 118.292969 189.585938 118.351562 189.578125 118.382812 C 189.578125 118.394531 189.582031 118.359375 189.578125 118.378906 C 189.578125 118.390625 189.585938 118.28125 189.582031 118.316406 C 189.582031 118.335938 189.574219 118.199219 189.578125 118.238281 C 189.585938 118.273438 189.496094 118 189.53125 118.070312 C 189.667969 118.367188 189.535156 118.714844 189.242188 118.851562 C 188.945312 118.988281 188.597656 118.855469 188.460938 118.5625 C 188.339844 118.296875 188.410156 118.257812 188.414062 118.21875 C 188.421875 118.175781 188.425781 118.148438 188.429688 118.125 C 188.441406 118.078125 188.453125 118.027344 188.46875 117.96875 C 188.496094 117.847656 188.523438 117.695312 188.535156 117.523438 C 188.554688 117.21875 188.550781 116.84375 188.507812 116.441406 C 188.414062 115.585938 188.144531 114.5625 188.039062 113.679688 C 187.988281 113.28125 187.972656 112.984375 187.945312 112.878906 C 187.890625 112.683594 187.851562 112.664062 187.769531 112.609375 "/>
<path style=" stroke:none;fill-rule:nonzero;fill:rgb(7.058716%,1.176453%,46.665955%);fill-opacity:1;" d="M 189.890625 112.535156 C 189.621094 112.355469 189.550781 111.992188 189.730469 111.71875 C 189.910156 111.449219 190.277344 111.378906 190.546875 111.558594 C 190.765625 111.707031 191.078125 111.980469 191.203125 112.367188 C 191.316406 112.730469 191.375 113.179688 191.433594 113.773438 C 191.488281 114.34375 191.523438 114.984375 191.574219 115.59375 C 191.613281 116.066406 191.65625 116.5 191.710938 116.855469 C 191.824219 117.613281 191.964844 117.699219 192.128906 117.957031 C 192.300781 118.234375 192.214844 118.597656 191.941406 118.769531 C 191.664062 118.941406 191.300781 118.859375 191.128906 118.582031 C 191.089844 118.515625 190.691406 117.988281 190.546875 117.027344 C 190.488281 116.632812 190.441406 116.175781 190.402344 115.691406 C 190.351562 115.0625 190.3125 114.421875 190.261719 113.886719 C 190.207031 113.324219 190.144531 112.925781 190.082031 112.726562 C 190.039062 112.59375 190.089844 112.667969 189.890625 112.535156 "/>
<path style=" stroke:none;fill-rule:nonzero;fill:rgb(7.058716%,1.176453%,46.665955%);fill-opacity:1;" d="M 188.328125 110.785156 C 188.644531 110.855469 188.84375 111.171875 188.773438 111.488281 C 188.699219 111.804688 188.386719 112.003906 188.070312 111.933594 C 187.757812 111.863281 187.511719 111.660156 187.363281 111.386719 C 187.207031 111.113281 187.167969 110.730469 187.308594 110.386719 C 187.570312 109.738281 188.199219 109.359375 188.914062 108.988281 C 189.367188 108.757812 189.90625 108.511719 190.550781 108.429688 C 191.238281 108.34375 191.96875 108.46875 192.640625 108.773438 C 193.117188 108.988281 193.480469 109.324219 193.792969 109.617188 C 194.21875 110.023438 194.53125 110.480469 194.742188 110.914062 C 194.964844 111.371094 195.03125 111.859375 194.917969 112.289062 C 194.800781 112.714844 194.535156 113.054688 194.230469 113.328125 C 193.507812 113.976562 192.554688 114.535156 191.726562 114.847656 C 191.265625 115.023438 190.835938 115.171875 190.355469 114.960938 C 190.09375 114.847656 189.867188 114.523438 189.855469 114.230469 C 189.839844 113.949219 189.933594 113.71875 190.0625 113.484375 C 190.21875 113.199219 190.574219 113.09375 190.859375 113.25 C 191.144531 113.40625 191.25 113.761719 191.09375 114.046875 C 191.027344 114.171875 191.027344 114.113281 191.027344 114.171875 C 191.03125 114.210938 190.925781 113.941406 190.96875 114.003906 C 191.011719 114.066406 190.789062 113.867188 190.828125 113.882812 C 190.890625 113.910156 190.800781 113.878906 190.890625 113.867188 C 190.992188 113.851562 191.136719 113.8125 191.308594 113.75 C 191.976562 113.496094 192.863281 112.976562 193.445312 112.453125 C 193.640625 112.28125 193.742188 112.121094 193.78125 111.984375 C 193.816406 111.851562 193.8125 111.6875 193.683594 111.429688 C 193.535156 111.117188 193.292969 110.769531 192.980469 110.46875 C 192.699219 110.203125 192.417969 109.964844 192.15625 109.847656 C 191.664062 109.625 191.144531 109.539062 190.699219 109.597656 C 190.265625 109.652344 189.855469 109.828125 189.453125 110.035156 C 188.847656 110.347656 188.433594 110.742188 188.398438 110.828125 C 188.386719 110.851562 188.386719 110.808594 188.390625 110.816406 C 188.394531 110.824219 188.265625 110.769531 188.328125 110.785156 "/>
<path style=" stroke:none;fill-rule:nonzero;fill:rgb(7.058716%,1.176453%,46.665955%);fill-opacity:1;" d="M 191.050781 115.730469 C 190.730469 115.695312 190.496094 115.40625 190.527344 115.085938 C 190.558594 114.761719 190.847656 114.527344 191.171875 114.558594 C 191.242188 114.566406 191.15625 114.554688 191.464844 114.390625 C 191.71875 114.253906 191.996094 114.238281 192.261719 114.261719 C 192.652344 114.296875 193.125 114.433594 193.625 114.730469 C 194.199219 115.078125 194.679688 115.597656 195.125 116.097656 C 195.488281 116.507812 195.796875 116.933594 196.050781 117.324219 C 196.402344 117.859375 196.589844 118.324219 196.71875 118.664062 C 196.835938 118.976562 196.855469 119.058594 196.886719 119.082031 C 197.140625 119.285156 197.179688 119.65625 196.972656 119.910156 C 196.769531 120.160156 196.398438 120.199219 196.144531 119.996094 C 195.488281 119.460938 195.621094 118.816406 195.066406 117.964844 C 194.839844 117.617188 194.5625 117.234375 194.246094 116.878906 C 193.824219 116.40625 193.390625 115.964844 193.019531 115.742188 C 192.671875 115.53125 192.367188 115.453125 192.15625 115.433594 C 192.023438 115.421875 192.042969 115.414062 192.015625 115.429688 C 191.941406 115.46875 191.578125 115.78125 191.050781 115.730469 "/>
<path style=" stroke:none;fill-rule:nonzero;fill:rgb(7.058716%,1.176453%,46.665955%);fill-opacity:1;" d="M 96.578125 18.085938 C 96.511719 18.40625 96.199219 18.605469 95.878906 18.539062 C 95.5625 18.472656 95.359375 18.160156 95.425781 17.84375 C 95.445312 17.75 95.46875 17.664062 95.503906 17.574219 C 95.539062 17.484375 95.570312 17.351562 95.785156 17.214844 C 96.03125 17.058594 96.460938 17.195312 96.582031 17.328125 C 96.691406 17.445312 96.71875 17.53125 96.746094 17.609375 C 96.859375 17.910156 96.90625 18.265625 96.96875 18.726562 C 97.046875 19.316406 97.125 20.019531 97.171875 20.71875 C 97.207031 21.261719 97.238281 21.800781 97.207031 22.3125 C 97.140625 23.339844 96.617188 24.117188 96.039062 24.578125 C 95.730469 24.828125 95.394531 25.050781 94.96875 25.109375 C 94.53125 25.167969 94.015625 24.914062 93.761719 24.5 C 93.589844 24.226562 93.675781 23.863281 93.953125 23.691406 C 94.226562 23.519531 94.589844 23.605469 94.761719 23.882812 C 94.832031 24 94.773438 23.949219 94.8125 23.941406 C 94.878906 23.933594 95.078125 23.839844 95.304688 23.660156 C 95.667969 23.367188 95.992188 22.910156 96.035156 22.238281 C 96.058594 21.824219 96.035156 21.328125 96 20.796875 C 95.957031 20.128906 95.878906 19.449219 95.804688 18.882812 C 95.746094 18.453125 95.675781 18.101562 95.648438 18.023438 C 95.644531 18.019531 95.660156 18.050781 95.652344 18.035156 C 95.644531 18.019531 95.753906 18.164062 95.714844 18.121094 C 95.691406 18.097656 95.847656 18.230469 95.804688 18.199219 C 95.738281 18.15625 96.21875 18.300781 96.09375 18.296875 C 95.972656 18.289062 96.492188 18.160156 96.414062 18.210938 C 96.367188 18.242188 96.546875 18.09375 96.519531 18.121094 C 96.488281 18.15625 96.59375 18.015625 96.582031 18.035156 C 96.574219 18.050781 96.601562 18 96.597656 18.003906 C 96.597656 18.007812 96.589844 18.03125 96.578125 18.085938 "/>
<path style=" stroke:none;fill-rule:nonzero;fill:rgb(7.058716%,1.176453%,46.665955%);fill-opacity:1;" d="M 95.855469 14.886719 C 95.863281 15.210938 95.605469 15.476562 95.28125 15.484375 C 94.953125 15.492188 94.6875 15.230469 94.679688 14.90625 C 94.664062 14.066406 94.421875 13.707031 93.941406 12.632812 C 93.8125 12.335938 93.945312 11.988281 94.242188 11.855469 C 94.539062 11.722656 94.886719 11.855469 95.019531 12.152344 C 95.476562 13.183594 95.835938 13.816406 95.855469 14.886719 "/>
<path style=" stroke:none;fill-rule:nonzero;fill:rgb(92.941284%,21.176147%,14.117432%);fill-opacity:1;" d="M 157.882812 100.101562 C 158.140625 99.902344 158.507812 99.945312 158.710938 100.199219 C 158.914062 100.453125 158.871094 100.824219 158.613281 101.023438 C 158.519531 101.097656 158.378906 101.167969 158.214844 101.171875 C 158.050781 101.179688 157.910156 101.117188 157.816406 101.054688 C 157.640625 100.9375 157.589844 100.820312 157.542969 100.730469 C 157.445312 100.535156 157.421875 100.398438 157.414062 100.246094 L 158.589844 100.1875 C 158.589844 100.203125 158.601562 100.304688 158.660156 100.445312 C 158.75 100.675781 159.238281 101.234375 159.835938 101.8125 C 160.238281 102.199219 160.6875 102.589844 161.101562 102.945312 C 161.476562 103.261719 161.796875 103.523438 162.0625 103.71875 C 162.1875 103.808594 162.320312 103.890625 162.449219 103.972656 C 162.636719 104.09375 162.742188 104.164062 162.855469 104.285156 C 162.878906 104.308594 162.90625 104.3125 162.972656 104.457031 C 163.105469 104.753906 162.972656 105.101562 162.675781 105.234375 C 162.378906 105.367188 162.03125 105.234375 161.898438 104.9375 C 161.863281 104.863281 161.988281 105.078125 161.972656 105.058594 C 161.957031 105.039062 162.007812 105.097656 162 105.09375 C 161.953125 105.042969 161.949219 105.050781 161.8125 104.960938 C 161.699219 104.890625 161.539062 104.792969 161.371094 104.667969 C 161.066406 104.445312 160.726562 104.167969 160.339844 103.839844 C 159.921875 103.480469 159.453125 103.078125 159.015625 102.65625 C 158.394531 102.054688 157.816406 101.519531 157.5625 100.875 C 157.457031 100.605469 157.421875 100.402344 157.414062 100.246094 C 157.398438 99.921875 157.648438 99.648438 157.972656 99.628906 C 158.296875 99.613281 158.570312 99.863281 158.589844 100.1875 C 158.589844 100.234375 158.585938 100.1875 158.59375 100.203125 C 158.59375 100.203125 158.566406 100.160156 158.578125 100.179688 C 158.59375 100.199219 158.421875 100.042969 158.480469 100.085938 C 158.511719 100.105469 158.304688 100.007812 158.355469 100.023438 C 158.410156 100.042969 158.109375 100 158.175781 100 C 158.242188 99.996094 157.949219 100.054688 158 100.035156 C 158.050781 100.015625 157.855469 100.125 157.882812 100.101562 M 162.546875 104.121094 C 162.867188 104.183594 163.074219 104.492188 163.011719 104.8125 C 162.949219 105.132812 162.640625 105.339844 162.320312 105.277344 C 162.085938 105.230469 162.117188 105.199219 162.089844 105.179688 C 162.023438 105.136719 161.96875 105.09375 161.894531 105.03125 C 161.644531 104.820312 161.609375 104.449219 161.820312 104.199219 C 162.027344 103.953125 162.398438 103.917969 162.648438 104.125 C 162.703125 104.175781 162.730469 104.191406 162.738281 104.199219 C 162.738281 104.199219 162.695312 104.171875 162.710938 104.183594 C 162.71875 104.1875 162.648438 104.152344 162.667969 104.160156 C 162.691406 104.171875 162.476562 104.109375 162.546875 104.121094 "/>
<path style=" stroke:none;fill-rule:nonzero;fill:rgb(92.941284%,21.176147%,14.117432%);fill-opacity:1;" d="M 157.828125 105.101562 C 157.8125 105.425781 157.535156 105.679688 157.210938 105.664062 C 156.886719 105.648438 156.636719 105.371094 156.652344 105.046875 C 156.667969 104.734375 156.71875 104.277344 157.035156 103.898438 C 157.210938 103.691406 157.457031 103.453125 157.851562 103.113281 C 158.222656 102.789062 158.6875 102.410156 159.203125 101.988281 C 159.890625 101.421875 160.625 100.808594 161.226562 100.296875 C 161.621094 99.960938 161.914062 99.683594 162.136719 99.464844 C 162.472656 99.136719 162.503906 99.066406 162.703125 98.808594 C 162.902344 98.554688 163.269531 98.507812 163.527344 98.707031 C 163.785156 98.90625 163.832031 99.273438 163.632812 99.53125 C 163.460938 99.75 163.335938 99.941406 162.957031 100.308594 C 162.722656 100.535156 162.40625 100.835938 161.988281 101.191406 C 161.378906 101.710938 160.640625 102.324219 159.949219 102.894531 C 159.433594 103.320312 158.972656 103.695312 158.621094 104 C 158.25 104.320312 158.046875 104.523438 157.941406 104.652344 C 157.785156 104.835938 157.84375 104.757812 157.828125 105.101562 "/>
<path style=" stroke:none;fill-rule:nonzero;fill:rgb(92.941284%,21.176147%,14.117432%);fill-opacity:1;" d="M 50.789062 101.191406 C 50.609375 101.464844 50.246094 101.535156 49.972656 101.355469 C 49.703125 101.175781 49.628906 100.8125 49.808594 100.542969 C 49.835938 100.5 49.773438 100.613281 49.773438 100.605469 C 49.773438 100.601562 49.792969 100.546875 49.808594 100.476562 C 49.824219 100.398438 49.734375 100.359375 49.898438 99.980469 C 50.03125 99.683594 50.378906 99.546875 50.675781 99.679688 C 50.972656 99.808594 51.109375 100.15625 50.976562 100.453125 C 50.953125 100.507812 51.023438 100.285156 51.015625 100.320312 C 51.007812 100.375 51.023438 100.183594 51.023438 100.207031 C 51.027344 100.261719 51.015625 100.15625 51.019531 100.171875 C 51.03125 100.207031 51.046875 100.269531 51.070312 100.339844 C 51.074219 100.355469 51.234375 100.585938 51.4375 100.867188 C 51.691406 101.214844 52.027344 101.570312 52.433594 101.933594 C 52.863281 102.316406 53.378906 102.730469 53.910156 103.054688 C 54.164062 103.214844 54.421875 103.34375 54.65625 103.445312 C 55.015625 103.59375 55.324219 103.609375 55.65625 103.730469 C 55.746094 103.761719 55.882812 103.800781 56.019531 103.984375 C 56.171875 104.1875 56.15625 104.535156 56.066406 104.699219 C 55.917969 104.976562 55.753906 105.050781 55.539062 105.199219 C 55.273438 105.386719 54.90625 105.320312 54.722656 105.050781 C 54.535156 104.785156 54.601562 104.417969 54.871094 104.234375 C 54.957031 104.171875 55.023438 104.125 55.058594 104.09375 C 55.070312 104.082031 55.074219 104.078125 55.074219 104.078125 C 55.082031 104.070312 55.011719 104.179688 55.03125 104.140625 C 55.058594 104.09375 54.976562 104.488281 54.976562 104.378906 C 54.976562 104.261719 55.140625 104.773438 55.082031 104.695312 C 55.027344 104.621094 55.25 104.835938 55.21875 104.816406 C 55.191406 104.800781 55.257812 104.835938 55.257812 104.835938 C 55.1875 104.8125 54.71875 104.746094 54.203125 104.527344 C 53.90625 104.40625 53.601562 104.246094 53.292969 104.058594 C 52.679688 103.679688 52.117188 103.230469 51.648438 102.808594 C 51.199219 102.40625 50.804688 101.996094 50.488281 101.558594 C 50.300781 101.304688 50.0625 101.078125 49.941406 100.675781 C 49.921875 100.609375 49.902344 100.542969 49.882812 100.472656 C 49.863281 100.398438 49.726562 100.375 49.898438 99.980469 L 50.976562 100.453125 C 50.953125 100.503906 51.007812 100.351562 51.007812 100.367188 C 50.996094 100.40625 51.003906 100.519531 50.957031 100.734375 C 50.925781 100.867188 50.9375 100.96875 50.789062 101.191406 "/>
<path style=" stroke:none;fill-rule:nonzero;fill:rgb(92.941284%,21.176147%,14.117432%);fill-opacity:1;" d="M 50.253906 105.039062 C 50.574219 105.007812 50.863281 105.242188 50.898438 105.5625 C 50.933594 105.886719 50.699219 106.175781 50.375 106.210938 C 49.980469 106.25 49.542969 106.144531 49.253906 105.699219 C 49.097656 105.453125 49.042969 105.0625 49.171875 104.734375 C 49.558594 103.742188 50.765625 103.097656 51.863281 102.214844 C 52.265625 101.894531 52.65625 101.585938 52.996094 101.273438 C 53.402344 100.902344 53.738281 100.480469 54.027344 100.089844 C 54.816406 99.023438 54.910156 98.195312 55.597656 97.488281 C 55.824219 97.257812 56.199219 97.253906 56.429688 97.480469 C 56.664062 97.707031 56.667969 98.078125 56.441406 98.3125 C 56.078125 98.683594 55.882812 99.558594 54.972656 100.789062 C 54.664062 101.210938 54.28125 101.691406 53.789062 102.140625 C 53.40625 102.492188 53 102.8125 52.601562 103.132812 C 51.472656 104.039062 50.355469 104.9375 50.265625 105.164062 C 50.257812 105.183594 50.226562 105.039062 50.242188 105.058594 C 50.289062 105.132812 50.21875 105.042969 50.253906 105.039062 "/>
</g>
</svg>
