<?xml version="1.0" encoding="UTF-8"?>
<svg xmlns="http://www.w3.org/2000/svg" xmlns:xlink="http://www.w3.org/1999/xlink" width="368.6032pt" height="140.615pt" viewBox="0 0 368.6032 140.615" version="1.2">
<g id="surface1">
<path style=" stroke:none;fill-rule:nonzero;fill:rgb(7.058716%,1.176453%,46.665955%);fill-opacity:1;" d="M 97.199219 47.363281 L 97.199219 100.625 L 150.460938 100.625 L 150.460938 47.363281 Z M 96.609375 46.1875 L 151.050781 46.1875 C 151.375 46.1875 151.636719 46.453125 151.636719 46.777344 L 151.636719 101.214844 C 151.636719 101.539062 151.375 101.800781 151.050781 101.800781 L 96.609375 101.800781 C 96.285156 101.800781 96.023438 101.539062 96.023438 101.214844 L 96.023438 46.777344 C 96.023438 46.453125 96.285156 46.1875 96.609375 46.1875 "/>
<path style=" stroke:none;fill-rule:nonzero;fill:rgb(7.058716%,1.176453%,46.665955%);fill-opacity:1;" d="M 113.855469 67.375 C 113.855469 67.699219 113.59375 67.960938 113.269531 67.960938 C 112.945312 67.960938 112.679688 67.695312 112.679688 67.371094 C 112.679688 67.210938 112.679688 67.089844 112.671875 67.011719 C 112.671875 66.972656 112.667969 66.949219 112.667969 66.9375 C 112.667969 66.929688 112.699219 67.039062 112.679688 66.988281 C 112.675781 66.972656 112.71875 67.078125 112.707031 67.050781 C 112.695312 67.027344 112.777344 67.164062 112.753906 67.128906 C 112.734375 67.105469 112.863281 67.25 112.832031 67.21875 C 112.777344 67.167969 113.207031 67.386719 113.089844 67.359375 C 112.96875 67.328125 113.554688 67.289062 113.453125 67.328125 C 113.351562 67.375 113.714844 67.117188 113.675781 67.164062 C 113.621094 67.230469 113.769531 67 113.757812 67.03125 C 113.746094 67.054688 113.78125 66.960938 113.777344 66.972656 C 113.765625 67.019531 113.78125 66.964844 113.777344 67.011719 C 113.765625 67.164062 113.949219 68.226562 114.125 69.613281 C 114.320312 71.15625 114.414062 73.140625 114.402344 74.980469 C 114.398438 76.234375 114.269531 77.300781 114.210938 78.050781 C 114.195312 78.285156 114.160156 78.484375 114.144531 78.625 C 114.136719 78.691406 114.132812 78.738281 114.132812 78.765625 C 114.132812 78.785156 114.113281 78.699219 114.125 78.738281 C 114.140625 78.78125 113.996094 78.546875 114.039062 78.59375 C 114.082031 78.644531 113.835938 78.460938 113.886719 78.484375 C 113.933594 78.503906 113.742188 78.453125 113.769531 78.457031 C 113.792969 78.457031 113.730469 78.457031 113.734375 78.457031 C 113.742188 78.453125 113.867188 78.414062 114.027344 78.335938 C 114.375 78.160156 114.84375 77.859375 115.332031 77.558594 C 116.421875 76.882812 117.613281 76.511719 118.691406 76.335938 C 119.742188 76.164062 120.652344 76.167969 121.316406 76.34375 C 121.628906 76.429688 121.816406 76.75 121.730469 77.0625 C 121.648438 77.378906 121.328125 77.566406 121.011719 77.480469 C 120.117188 77.242188 117.808594 77.410156 115.949219 78.558594 C 115.472656 78.855469 114.992188 79.167969 114.554688 79.386719 C 114.339844 79.492188 114.136719 79.585938 113.890625 79.621094 C 113.761719 79.636719 113.601562 79.640625 113.425781 79.566406 C 113.238281 79.484375 113.074219 79.300781 113.011719 79.117188 C 112.84375 78.621094 113.011719 78.324219 113.039062 77.960938 C 113.097656 77.175781 113.222656 76.152344 113.230469 74.976562 C 113.238281 73.179688 113.144531 71.226562 112.960938 69.757812 C 112.871094 69.074219 112.78125 68.484375 112.707031 68 C 112.640625 67.546875 112.578125 67.230469 112.605469 66.914062 C 112.613281 66.828125 112.617188 66.757812 112.648438 66.648438 C 112.667969 66.585938 112.582031 66.429688 112.988281 66.25 C 113.253906 66.140625 113.585938 66.296875 113.683594 66.414062 C 113.765625 66.511719 113.78125 66.574219 113.796875 66.617188 C 113.886719 66.886719 113.855469 67.027344 113.855469 67.375 "/>
<path style=" stroke:none;fill-rule:nonzero;fill:rgb(7.058716%,1.176453%,46.665955%);fill-opacity:1;" d="M 129.230469 71.769531 C 129.117188 72.074219 128.777344 72.230469 128.476562 72.117188 C 128.171875 72.007812 128.015625 71.667969 128.125 71.363281 C 128.1875 71.191406 128.203125 71.0625 128.195312 70.988281 C 128.191406 70.921875 128.179688 70.910156 128.175781 70.90625 C 128.171875 70.898438 128.207031 70.921875 128.207031 70.921875 C 128.203125 70.921875 128.175781 70.921875 128.125 70.945312 C 127.910156 71.054688 127.453125 71.71875 126.972656 72.703125 C 126.578125 73.515625 126.15625 74.414062 125.960938 75.320312 C 125.828125 75.925781 125.796875 76.539062 125.882812 77.066406 C 125.992188 77.746094 126.402344 78.28125 126.996094 78.652344 C 127.597656 79.03125 128.386719 79.230469 129.160156 79.21875 C 129.671875 79.210938 130.167969 79.140625 130.660156 78.9375 C 131.464844 78.601562 132.328125 77.8125 133.121094 76.972656 C 134.105469 75.925781 134.820312 74.84375 135.046875 73.886719 C 135.183594 73.308594 135.164062 72.738281 134.957031 72.175781 C 134.636719 71.296875 133.816406 70.363281 132.941406 69.582031 C 132.101562 68.828125 131.304688 68.261719 130.554688 68.078125 C 129.765625 67.886719 128.855469 68.203125 127.976562 68.972656 C 127.054688 69.777344 126.207031 71.03125 125.570312 72.53125 C 125.445312 72.832031 125.101562 72.96875 124.800781 72.84375 C 124.5 72.71875 124.363281 72.371094 124.488281 72.074219 C 125.179688 70.441406 126.105469 69.046875 127.203125 68.089844 C 128.269531 67.15625 129.574219 66.628906 130.832031 66.9375 C 131.902344 67.195312 132.824219 67.902344 133.726562 68.703125 C 134.675781 69.554688 135.625 70.582031 136.0625 71.773438 C 136.347656 72.554688 136.371094 73.378906 136.1875 74.15625 C 135.890625 75.425781 135.046875 76.640625 133.976562 77.777344 C 133.144531 78.664062 132.207031 79.566406 131.109375 80.019531 C 130.445312 80.296875 129.789062 80.382812 129.179688 80.394531 C 128.191406 80.410156 127.195312 80.164062 126.371094 79.648438 C 125.546875 79.128906 124.890625 78.296875 124.722656 77.253906 C 124.609375 76.550781 124.652344 75.800781 124.8125 75.070312 C 125.042969 73.996094 125.511719 73.015625 125.917969 72.1875 C 126.421875 71.160156 126.820312 70.289062 127.597656 69.898438 C 127.835938 69.777344 128.101562 69.722656 128.367188 69.757812 C 128.628906 69.792969 128.886719 69.929688 129.066406 70.136719 C 129.246094 70.34375 129.34375 70.613281 129.367188 70.890625 C 129.390625 71.171875 129.339844 71.46875 129.230469 71.769531 "/>
<path style=" stroke:none;fill-rule:nonzero;fill:rgb(7.058716%,1.176453%,46.665955%);fill-opacity:1;" d="M 93.753906 35.867188 C 93.425781 35.867188 93.164062 35.605469 93.164062 35.28125 C 93.164062 34.957031 93.425781 34.691406 93.753906 34.691406 L 123.121094 34.691406 C 123.449219 34.691406 123.710938 34.957031 123.710938 35.28125 C 123.710938 35.605469 123.449219 35.867188 123.121094 35.867188 Z M 93.753906 35.867188 "/>
<path style=" stroke:none;fill-rule:nonzero;fill:rgb(7.058716%,1.176453%,46.665955%);fill-opacity:1;" d="M 122.535156 35.28125 C 122.535156 34.957031 122.796875 34.691406 123.121094 34.691406 C 123.449219 34.691406 123.710938 34.957031 123.710938 35.28125 L 123.710938 46.777344 C 123.710938 47.101562 123.449219 47.363281 123.121094 47.363281 C 122.796875 47.363281 122.535156 47.101562 122.535156 46.777344 Z M 122.535156 35.28125 "/>
<path style=" stroke:none;fill-rule:nonzero;fill:rgb(7.058716%,1.176453%,46.665955%);fill-opacity:1;" d="M 120.632812 44.554688 C 120.660156 44.875 120.421875 45.160156 120.097656 45.191406 C 119.777344 45.21875 119.492188 44.980469 119.464844 44.65625 C 119.4375 44.351562 119.4375 44.089844 119.546875 43.824219 C 119.605469 43.6875 119.703125 43.542969 119.855469 43.445312 C 120.003906 43.34375 120.1875 43.304688 120.335938 43.3125 C 120.886719 43.339844 121.15625 43.675781 121.453125 43.980469 C 121.84375 44.378906 122.214844 44.855469 122.539062 45.238281 C 122.753906 45.492188 122.878906 45.683594 122.949219 45.734375 C 122.972656 45.75 122.96875 45.746094 123.09375 45.71875 C 123.234375 45.691406 123.421875 45.609375 123.597656 45.5 C 124.078125 45.191406 124.4375 44.769531 124.871094 44.367188 C 125.050781 44.203125 125.21875 44.070312 125.332031 43.964844 C 125.421875 43.878906 125.429688 43.878906 125.441406 43.859375 C 125.46875 43.808594 125.488281 43.753906 125.488281 43.734375 C 125.492188 43.726562 125.492188 43.777344 125.492188 43.753906 C 125.488281 43.730469 125.566406 43.925781 125.535156 43.875 C 125.472656 43.773438 125.800781 44.097656 125.742188 44.066406 C 125.6875 44.039062 125.871094 44.109375 125.851562 44.105469 C 125.820312 44.101562 125.867188 44.105469 125.832031 44.109375 C 125.753906 44.113281 125.625 44.136719 125.488281 44.152344 C 124.75 44.25 123.882812 44.464844 122.957031 44.585938 C 122.511719 44.640625 122.082031 44.660156 121.671875 44.671875 C 121.421875 44.679688 121.191406 44.671875 121.007812 44.664062 C 120.921875 44.660156 120.84375 44.65625 120.789062 44.65625 C 120.742188 44.65625 120.820312 44.644531 120.761719 44.652344 C 120.742188 44.65625 120.933594 44.597656 120.875 44.621094 C 120.847656 44.632812 121 44.550781 120.964844 44.574219 C 120.929688 44.597656 121.121094 44.433594 121.082031 44.480469 C 121.042969 44.519531 121.21875 44.25 121.1875 44.316406 C 121.160156 44.378906 121.238281 44.046875 121.234375 44.117188 C 121.226562 44.238281 121.136719 43.75 121.175781 43.820312 C 121.226562 43.921875 121 43.613281 121.035156 43.644531 C 121.070312 43.671875 120.945312 43.582031 120.964844 43.59375 C 121.007812 43.617188 120.914062 43.566406 120.921875 43.570312 C 120.929688 43.574219 120.953125 43.582031 120.984375 43.589844 C 121.125 43.636719 121.398438 43.710938 121.808594 43.820312 C 122.121094 43.90625 122.308594 44.226562 122.222656 44.542969 C 122.140625 44.855469 121.816406 45.039062 121.503906 44.957031 C 121.089844 44.84375 120.8125 44.769531 120.625 44.710938 C 120.539062 44.683594 120.484375 44.675781 120.359375 44.601562 C 120.324219 44.578125 120.273438 44.550781 120.203125 44.46875 C 120.144531 44.398438 120.050781 44.257812 120.0625 44.054688 C 120.078125 43.742188 120.3125 43.589844 120.410156 43.542969 C 120.496094 43.503906 120.542969 43.5 120.578125 43.492188 C 120.941406 43.433594 121.226562 43.507812 121.640625 43.496094 C 122.035156 43.484375 122.425781 43.46875 122.804688 43.417969 C 123.652344 43.308594 124.511719 43.097656 125.335938 42.988281 C 125.441406 42.972656 125.589844 42.949219 125.75 42.9375 C 125.835938 42.929688 125.925781 42.925781 126.042969 42.945312 C 126.171875 42.964844 126.390625 43.019531 126.539062 43.265625 C 126.683594 43.507812 126.679688 43.746094 126.648438 43.933594 C 126.617188 44.121094 126.550781 44.28125 126.46875 44.425781 C 126.359375 44.628906 126.226562 44.734375 126.144531 44.8125 C 125.972656 44.976562 125.804688 45.105469 125.671875 45.230469 C 125.300781 45.570312 124.878906 46.078125 124.230469 46.492188 C 123.957031 46.664062 123.65625 46.804688 123.332031 46.871094 C 123 46.9375 122.597656 46.929688 122.261719 46.6875 C 121.925781 46.445312 121.78125 46.160156 121.640625 45.992188 C 121.304688 45.597656 120.941406 45.140625 120.609375 44.796875 C 120.496094 44.683594 120.386719 44.585938 120.304688 44.527344 C 120.265625 44.5 120.238281 44.484375 120.222656 44.480469 C 120.21875 44.476562 120.328125 44.488281 120.277344 44.488281 C 120.222656 44.484375 120.582031 44.371094 120.507812 44.421875 C 120.429688 44.472656 120.644531 44.25 120.632812 44.277344 C 120.617188 44.3125 120.617188 44.351562 120.632812 44.554688 "/>
<path style=" stroke:none;fill-rule:nonzero;fill:rgb(7.058716%,1.176453%,46.665955%);fill-opacity:1;" d="M 151.050781 75.160156 C 150.726562 75.160156 150.460938 74.894531 150.460938 74.570312 C 150.460938 74.246094 150.726562 73.984375 151.050781 73.984375 L 221.042969 73.984375 C 221.367188 73.984375 221.632812 74.246094 221.632812 74.570312 C 221.632812 74.894531 221.367188 75.160156 221.042969 75.160156 Z M 151.050781 75.160156 "/>
<path style=" stroke:none;fill-rule:nonzero;fill:rgb(7.058716%,1.176453%,46.665955%);fill-opacity:1;" d="M 222.953125 48.640625 C 222.953125 48.316406 223.214844 48.054688 223.539062 48.054688 C 223.863281 48.054688 224.125 48.316406 224.125 48.640625 L 224.125 101.125 C 224.125 101.449219 223.863281 101.710938 223.539062 101.710938 C 223.214844 101.710938 222.953125 101.449219 222.953125 101.125 Z M 222.953125 48.640625 "/>
<path style=" stroke:none;fill-rule:nonzero;fill:rgb(7.058716%,1.176453%,46.665955%);fill-opacity:1;" d="M 223.871094 101.609375 C 223.601562 101.792969 223.238281 101.722656 223.054688 101.457031 C 222.871094 101.1875 222.9375 100.824219 223.207031 100.640625 L 262.050781 74.054688 C 262.316406 73.871094 262.683594 73.941406 262.867188 74.210938 C 263.050781 74.476562 262.980469 74.84375 262.714844 75.027344 Z M 223.871094 101.609375 "/>
<path style=" stroke:none;fill-rule:nonzero;fill:rgb(7.058716%,1.176453%,46.665955%);fill-opacity:1;" d="M 262.796875 74.253906 C 263.117188 74.285156 263.355469 74.574219 263.324219 74.894531 C 263.289062 75.21875 263.003906 75.457031 262.679688 75.421875 C 262.195312 75.375 261.871094 75.320312 261.601562 75.203125 C 261.535156 75.171875 261.464844 75.136719 261.382812 75.070312 C 261.296875 74.996094 261.171875 74.867188 261.148438 74.636719 C 261.125 74.398438 261.265625 74.179688 261.378906 74.085938 C 261.480469 74.003906 261.566406 73.972656 261.636719 73.949219 C 261.949219 73.855469 262.277344 74.027344 262.375 74.335938 C 262.472656 74.644531 262.296875 74.976562 261.988281 75.074219 C 261.980469 75.074219 262.054688 75.042969 262.035156 75.054688 C 262.011719 75.066406 262.164062 74.960938 262.125 74.996094 C 262.082031 75.03125 262.304688 74.742188 262.261719 74.824219 C 262.21875 74.910156 262.308594 74.414062 262.316406 74.519531 C 262.328125 74.621094 262.195312 74.21875 262.230469 74.273438 C 262.265625 74.328125 262.117188 74.148438 262.140625 74.171875 C 262.183594 74.207031 262.074219 74.125 262.074219 74.128906 C 262.113281 74.144531 262.371094 74.210938 262.796875 74.253906 "/>
<path style=" stroke:none;fill-rule:nonzero;fill:rgb(7.058716%,1.176453%,46.665955%);fill-opacity:1;" d="M 262.707031 74.050781 C 262.976562 74.230469 263.050781 74.597656 262.871094 74.867188 C 262.691406 75.136719 262.324219 75.210938 262.054688 75.03125 L 223.210938 49.132812 C 222.941406 48.949219 222.871094 48.585938 223.050781 48.316406 C 223.230469 48.046875 223.59375 47.972656 223.863281 48.152344 Z M 262.707031 74.050781 "/>
<path style=" stroke:none;fill-rule:nonzero;fill:rgb(7.058716%,1.176453%,46.665955%);fill-opacity:1;" d="M 229.890625 73.070312 C 229.84375 73.394531 229.546875 73.617188 229.226562 73.570312 C 228.90625 73.519531 228.683594 73.222656 228.730469 72.902344 C 228.753906 72.722656 228.835938 72.371094 229.25 72.273438 C 229.65625 72.179688 229.839844 72.398438 229.953125 72.511719 C 230.167969 72.734375 230.320312 73.011719 230.5 73.363281 C 230.882812 74.117188 231.289062 75.152344 231.640625 76.277344 C 232.046875 77.597656 232.289062 78.933594 232.425781 79.910156 C 232.5 80.453125 232.496094 80.894531 232.417969 81.253906 C 232.378906 81.429688 232.332031 81.605469 232.15625 81.785156 C 232.058594 81.882812 231.898438 81.988281 231.695312 82 C 231.496094 82.007812 231.320312 81.917969 231.214844 81.828125 C 230.796875 81.472656 230.808594 81.109375 230.6875 80.578125 C 230.554688 80.011719 230.425781 79.28125 230.28125 78.398438 C 230.070312 77.121094 229.816406 75.558594 229.675781 73.96875 C 229.601562 73.113281 229.601562 72.285156 229.589844 71.554688 C 229.574219 70.515625 229.496094 69.699219 229.597656 69.007812 C 229.691406 68.355469 230.054688 67.851562 230.480469 67.5625 C 231.070312 67.164062 231.820312 66.835938 232.644531 66.890625 C 233.414062 66.945312 234.03125 67.476562 234.441406 68.121094 C 234.859375 68.773438 235.105469 69.582031 235.121094 70.410156 C 235.136719 71.078125 234.996094 71.789062 234.601562 72.425781 C 233.652344 73.957031 231.628906 74.785156 230.101562 75.058594 C 229.738281 75.125 229.40625 75.15625 229.097656 75.117188 C 228.789062 75.082031 228.355469 74.953125 228.214844 74.492188 C 228.074219 74.039062 228.324219 73.695312 228.574219 73.417969 C 228.835938 73.128906 229.210938 72.835938 229.71875 72.496094 C 229.988281 72.316406 230.355469 72.390625 230.535156 72.660156 C 230.714844 72.933594 230.640625 73.296875 230.371094 73.476562 C 229.910156 73.78125 229.601562 74.035156 229.445312 74.210938 C 229.375 74.285156 229.34375 74.339844 229.339844 74.34375 C 229.339844 74.347656 229.359375 74.261719 229.355469 74.292969 C 229.347656 74.328125 229.324219 74.09375 229.339844 74.148438 C 229.355469 74.207031 229.226562 73.96875 229.257812 74.003906 C 229.304688 74.054688 229.164062 73.9375 229.171875 73.9375 C 229.171875 73.941406 229.195312 73.945312 229.234375 73.953125 C 229.367188 73.96875 229.605469 73.957031 229.894531 73.902344 C 231.152344 73.675781 232.96875 72.828125 233.601562 71.808594 C 233.859375 71.386719 233.957031 70.925781 233.949219 70.433594 C 233.9375 69.828125 233.742188 69.210938 233.453125 68.753906 C 233.171875 68.316406 232.824219 68.082031 232.5625 68.0625 C 232.113281 68.03125 231.582031 68.238281 231.136719 68.535156 C 230.914062 68.6875 230.8125 68.804688 230.761719 69.175781 C 230.691406 69.652344 230.75 70.464844 230.765625 71.535156 C 230.777344 72.277344 230.777344 73.078125 230.847656 73.867188 C 230.980469 75.402344 231.230469 76.9375 231.441406 78.207031 C 231.585938 79.082031 231.710938 79.796875 231.832031 80.316406 C 231.886719 80.558594 231.941406 80.75 231.984375 80.878906 C 232.007812 80.9375 232.023438 80.980469 232.03125 80.996094 C 232.035156 81 232.023438 80.984375 232.03125 80.992188 C 232.039062 81.003906 231.945312 80.910156 231.976562 80.933594 C 232.003906 80.960938 231.792969 80.835938 231.851562 80.859375 C 231.910156 80.882812 231.558594 80.828125 231.636719 80.824219 C 231.714844 80.820312 231.375 80.910156 231.433594 80.878906 C 231.484375 80.851562 231.289062 80.992188 231.3125 80.964844 C 231.363281 80.917969 231.253906 81.050781 231.257812 81.046875 C 231.257812 81.046875 231.261719 81.027344 231.269531 80.996094 C 231.304688 80.84375 231.320312 80.507812 231.261719 80.070312 C 231.132812 79.140625 230.898438 77.855469 230.515625 76.625 C 230.183594 75.558594 229.789062 74.5625 229.453125 73.894531 C 229.296875 73.589844 229.148438 73.371094 229.113281 73.332031 C 229.113281 73.332031 229.222656 73.402344 229.171875 73.375 C 229.144531 73.359375 229.355469 73.433594 229.296875 73.421875 C 229.238281 73.40625 229.605469 73.398438 229.523438 73.417969 C 229.441406 73.4375 229.804688 73.253906 229.746094 73.304688 C 229.664062 73.375 229.894531 73.082031 229.875 73.125 C 229.863281 73.160156 229.890625 73.070312 229.890625 73.070312 "/>
<path style=" stroke:none;fill-rule:nonzero;fill:rgb(7.058716%,1.176453%,46.665955%);fill-opacity:1;" d="M 235.1875 73.105469 C 235.257812 72.789062 235.570312 72.589844 235.886719 72.660156 C 236.203125 72.730469 236.402344 73.042969 236.332031 73.359375 C 236.316406 73.433594 236.402344 73.914062 236.542969 74.441406 C 236.632812 74.777344 236.6875 75.101562 236.742188 75.375 C 236.792969 75.609375 236.808594 75.792969 236.820312 75.835938 C 236.832031 75.890625 236.851562 75.9375 236.859375 75.949219 C 236.859375 75.953125 236.8125 75.890625 236.835938 75.917969 C 236.847656 75.933594 236.730469 75.828125 236.765625 75.855469 C 236.804688 75.882812 236.5 75.75 236.585938 75.769531 C 236.652344 75.789062 236.308594 75.761719 236.378906 75.757812 C 236.449219 75.75 236.144531 75.832031 236.195312 75.808594 C 236.292969 75.761719 235.957031 76.003906 235.996094 75.957031 C 236.066406 75.878906 235.886719 76.152344 235.902344 76.117188 C 235.921875 76.066406 235.875 76.214844 235.875 76.203125 C 235.878906 76.179688 235.875 76.199219 235.878906 76.15625 C 235.886719 76.074219 235.890625 75.945312 235.894531 75.78125 C 235.90625 75.433594 235.914062 74.960938 235.925781 74.417969 C 235.945312 73.292969 235.96875 71.964844 236.019531 70.832031 C 236.058594 70.035156 236.15625 69.328125 236.273438 68.773438 C 236.339844 68.476562 236.378906 68.226562 236.539062 67.964844 C 236.625 67.824219 236.84375 67.628906 237.121094 67.628906 C 237.382812 67.628906 237.535156 67.757812 237.628906 67.851562 C 237.796875 68.019531 237.878906 68.191406 237.972656 68.386719 C 238.167969 68.796875 238.355469 69.328125 238.546875 69.90625 C 239.179688 71.773438 240.335938 74.121094 241.273438 76.144531 C 241.710938 77.085938 241.976562 77.917969 242.210938 78.492188 C 242.324219 78.777344 242.421875 78.996094 242.488281 79.097656 C 242.503906 79.121094 242.429688 79.089844 242.476562 79.105469 C 242.492188 79.109375 242.375 79.085938 242.40625 79.089844 C 242.445312 79.09375 242.191406 79.117188 242.257812 79.101562 C 242.328125 79.082031 241.945312 79.3125 242.023438 79.234375 C 242.101562 79.15625 241.863281 79.601562 241.878906 79.507812 C 241.886719 79.453125 241.878906 79.664062 241.875 79.632812 C 241.863281 79.5625 241.890625 79.691406 241.867188 79.648438 C 241.828125 79.585938 241.753906 79.480469 241.65625 79.363281 C 241.449219 79.113281 241.15625 78.820312 240.859375 78.542969 C 240.207031 77.9375 239.300781 77.433594 238.339844 76.984375 C 238.046875 76.847656 237.921875 76.496094 238.058594 76.203125 C 238.199219 75.910156 238.546875 75.78125 238.839844 75.921875 C 239.851562 76.394531 240.859375 76.9375 241.65625 77.679688 C 241.984375 77.980469 242.300781 78.300781 242.558594 78.609375 C 242.683594 78.761719 242.796875 78.910156 242.882812 79.0625 C 242.972656 79.21875 243.09375 79.390625 243.035156 79.714844 C 242.992188 79.960938 242.742188 80.191406 242.539062 80.242188 C 242.347656 80.289062 242.203125 80.253906 242.082031 80.210938 C 241.847656 80.128906 241.652344 79.96875 241.503906 79.738281 C 241.347656 79.496094 241.242188 79.230469 241.121094 78.933594 C 240.863281 78.296875 240.613281 77.511719 240.207031 76.640625 C 239.273438 74.628906 238.105469 72.269531 237.433594 70.28125 C 237.246094 69.71875 237.0625 69.210938 236.910156 68.890625 C 236.839844 68.746094 236.828125 68.714844 236.800781 68.6875 C 236.789062 68.671875 236.929688 68.769531 236.882812 68.746094 C 236.832031 68.71875 237.222656 68.804688 237.121094 68.804688 C 237.011719 68.804688 237.492188 68.660156 237.414062 68.710938 C 237.34375 68.761719 237.5625 68.546875 237.542969 68.578125 C 237.535156 68.59375 237.480469 68.753906 237.425781 69.019531 C 237.320312 69.503906 237.226562 70.15625 237.195312 70.886719 C 237.140625 71.996094 237.121094 73.3125 237.101562 74.4375 C 237.089844 74.980469 237.082031 75.457031 237.070312 75.816406 C 237.066406 75.988281 237.058594 76.128906 237.050781 76.242188 C 237.046875 76.296875 237.042969 76.34375 237.035156 76.398438 C 237.027344 76.429688 237.027344 76.464844 237 76.53125 C 236.988281 76.570312 236.972656 76.621094 236.902344 76.710938 C 236.820312 76.808594 236.5625 76.980469 236.292969 76.910156 C 235.921875 76.8125 235.890625 76.628906 235.828125 76.511719 C 235.761719 76.390625 235.714844 76.269531 235.679688 76.128906 C 235.628906 75.921875 235.621094 75.761719 235.59375 75.609375 C 235.53125 75.3125 235.480469 75.011719 235.410156 74.746094 C 235.269531 74.21875 235.054688 73.699219 235.1875 73.105469 "/>
<path style=" stroke:none;fill-rule:nonzero;fill:rgb(7.058716%,1.176453%,46.665955%);fill-opacity:1;" d="M 235.546875 75.378906 C 235.871094 75.335938 236.164062 75.5625 236.207031 75.882812 C 236.25 76.207031 236.023438 76.5 235.703125 76.542969 C 235.480469 76.574219 235.25 76.5625 235.027344 76.453125 C 234.800781 76.339844 234.621094 76.097656 234.578125 75.855469 C 234.496094 75.402344 234.726562 75.054688 235.007812 74.792969 C 235.65625 74.191406 236.621094 74.148438 237.617188 74.066406 C 238.625 73.984375 239.660156 73.945312 240.390625 73.777344 C 240.707031 73.703125 241.023438 73.898438 241.097656 74.214844 C 241.171875 74.53125 240.972656 74.84375 240.660156 74.917969 C 239.753906 75.132812 238.691406 75.15625 237.714844 75.238281 C 236.769531 75.316406 235.976562 75.5 235.808594 75.65625 C 235.765625 75.695312 235.742188 75.734375 235.734375 75.746094 C 235.734375 75.75 235.738281 75.71875 235.738281 75.734375 C 235.734375 75.75 235.726562 75.605469 235.734375 75.648438 C 235.742188 75.691406 235.636719 75.457031 235.671875 75.503906 C 235.707031 75.550781 235.519531 75.382812 235.554688 75.402344 C 235.589844 75.417969 235.492188 75.382812 235.496094 75.382812 C 235.496094 75.382812 235.515625 75.382812 235.546875 75.378906 "/>
<path style=" stroke:none;fill-rule:nonzero;fill:rgb(7.058716%,1.176453%,46.665955%);fill-opacity:1;" d="M 262.382812 75.128906 C 262.058594 75.128906 261.792969 74.867188 261.792969 74.542969 C 261.792969 74.214844 262.058594 73.953125 262.382812 73.953125 L 294.011719 73.953125 C 294.335938 73.953125 294.597656 74.214844 294.597656 74.542969 C 294.597656 74.867188 294.335938 75.128906 294.011719 75.128906 Z M 262.382812 75.128906 "/>
<path style=" stroke:none;fill-rule:nonzero;fill:rgb(7.058716%,1.176453%,46.665955%);fill-opacity:1;" d="M 294.597656 74.542969 C 294.597656 74.867188 294.335938 75.128906 294.011719 75.128906 C 293.6875 75.128906 293.421875 74.867188 293.421875 74.542969 L 293.421875 47.683594 C 293.421875 47.359375 293.6875 47.09375 294.011719 47.09375 C 294.335938 47.09375 294.597656 47.359375 294.597656 47.683594 Z M 294.597656 74.542969 "/>
<path style=" stroke:none;fill-rule:nonzero;fill:rgb(7.058716%,1.176453%,46.665955%);fill-opacity:1;" d="M 293.261719 48.28125 C 293.234375 48.605469 292.949219 48.847656 292.628906 48.820312 C 292.304688 48.789062 292.0625 48.507812 292.089844 48.183594 C 292.15625 47.453125 292.042969 47.035156 291.703125 46.410156 C 291.074219 45.261719 289.628906 43.117188 288.125 40.78125 C 286.746094 38.632812 285.605469 36.546875 284.644531 35.082031 C 284.316406 34.574219 284.015625 34.234375 283.726562 33.960938 C 283.378906 33.628906 282.949219 33.402344 282.925781 33.398438 C 282.917969 33.398438 283.039062 33.398438 282.996094 33.402344 C 282.949219 33.402344 283.273438 33.289062 283.195312 33.335938 C 283.109375 33.386719 283.429688 33.023438 283.390625 33.113281 C 283.355469 33.195312 283.429688 32.882812 283.429688 32.921875 C 283.433594 32.988281 283.421875 32.875 283.445312 32.925781 C 283.472656 32.988281 283.527344 33.082031 283.609375 33.203125 C 283.792969 33.472656 283.722656 33.835938 283.453125 34.019531 C 283.183594 34.199219 282.816406 34.128906 282.636719 33.859375 C 282.425781 33.550781 282.269531 33.324219 282.257812 32.96875 C 282.25 32.773438 282.355469 32.46875 282.589844 32.328125 C 282.8125 32.195312 283.007812 32.21875 283.148438 32.242188 C 283.664062 32.34375 284.085938 32.679688 284.535156 33.105469 C 284.886719 33.4375 285.253906 33.859375 285.628906 34.4375 C 286.628906 35.964844 287.761719 38.035156 289.117188 40.144531 C 289.863281 41.308594 290.609375 42.445312 291.257812 43.453125 C 291.886719 44.425781 292.40625 45.246094 292.734375 45.847656 C 293.144531 46.601562 293.339844 47.363281 293.261719 48.28125 "/>
<path style=" stroke:none;fill-rule:nonzero;fill:rgb(7.058716%,1.176453%,46.665955%);fill-opacity:1;" d="M 293.855469 47.683594 C 294.066406 47.929688 294.039062 48.300781 293.796875 48.515625 C 293.550781 48.726562 293.179688 48.699219 292.964844 48.453125 C 292.792969 48.253906 292.660156 47.980469 292.671875 47.691406 C 292.683594 47.402344 292.820312 47.171875 292.964844 46.992188 C 293.25 46.648438 293.632812 46.394531 294.066406 46.066406 C 295.082031 45.304688 296.488281 44.039062 297.886719 42.5625 C 298.734375 41.675781 299.488281 40.671875 300.230469 39.78125 C 301.148438 38.675781 302 37.816406 302.914062 37.128906 C 304.105469 36.234375 305.390625 35.597656 306.164062 35.109375 C 306.378906 34.976562 306.535156 34.855469 306.632812 34.761719 C 306.675781 34.71875 306.703125 34.6875 306.710938 34.671875 C 306.714844 34.664062 306.679688 34.800781 306.691406 34.738281 C 306.699219 34.683594 306.792969 35.039062 306.738281 34.957031 C 306.714844 34.917969 306.890625 35.09375 306.847656 35.066406 C 306.800781 35.035156 307.027344 35.125 306.984375 35.117188 C 306.941406 35.113281 307.121094 35.109375 307.09375 35.117188 C 307.070312 35.121094 307.140625 35.097656 307.136719 35.101562 C 307.136719 35.101562 307.097656 35.128906 307.042969 35.207031 C 306.859375 35.472656 306.492188 35.539062 306.226562 35.351562 C 305.960938 35.167969 305.894531 34.800781 306.078125 34.535156 C 306.207031 34.347656 306.359375 34.195312 306.539062 34.089844 C 306.722656 33.980469 306.945312 33.921875 307.167969 33.957031 C 307.398438 33.996094 307.609375 34.132812 307.730469 34.324219 C 307.847656 34.511719 307.882812 34.738281 307.847656 34.941406 C 307.746094 35.539062 307.308594 35.78125 306.792969 36.105469 C 305.9375 36.640625 304.703125 37.253906 303.617188 38.070312 C 302.796875 38.683594 302.015625 39.472656 301.132812 40.535156 C 300.414062 41.394531 299.644531 42.421875 298.742188 43.371094 C 297.300781 44.894531 295.863281 46.1875 294.769531 47.007812 C 294.332031 47.335938 293.992188 47.59375 293.871094 47.738281 C 293.828125 47.796875 293.851562 47.679688 293.847656 47.734375 C 293.84375 47.796875 293.816406 47.640625 293.855469 47.683594 "/>
<path style=" stroke:none;fill-rule:nonzero;fill:rgb(92.941284%,21.176147%,14.117432%);fill-opacity:1;" d="M 83.503906 29.535156 C 83.554688 29.855469 83.339844 30.15625 83.019531 30.207031 C 82.699219 30.261719 82.394531 30.042969 82.34375 29.722656 C 82.253906 29.175781 82.359375 28.710938 82.359375 28.707031 C 82.335938 28.628906 82.585938 28.980469 82.511719 28.929688 C 82.445312 28.878906 82.707031 29.003906 82.675781 29 C 82.628906 28.992188 82.671875 29 82.582031 29.027344 C 82.367188 29.101562 82.019531 29.296875 81.628906 29.609375 C 81.191406 29.957031 80.6875 30.421875 80.152344 30.996094 C 79.429688 31.769531 78.695312 32.722656 78.109375 33.667969 C 77.667969 34.386719 77.367188 35.125 77.191406 35.757812 C 76.917969 36.738281 77.242188 37.335938 77.71875 37.726562 C 78.496094 38.359375 79.417969 38.570312 80.535156 37.910156 C 81.257812 37.480469 82.058594 36.652344 82.78125 35.625 C 83.191406 35.035156 83.585938 34.410156 83.902344 33.699219 C 84.34375 32.710938 84.636719 31.515625 84.847656 30.386719 C 84.96875 29.734375 85.019531 29.101562 85.054688 28.554688 C 85.078125 28.179688 85.070312 27.890625 85.042969 27.699219 C 85.019531 27.527344 85.046875 27.546875 85.007812 27.503906 C 84.984375 27.472656 85.238281 27.617188 85.167969 27.597656 C 85.097656 27.582031 85.34375 27.59375 85.320312 27.601562 C 85.292969 27.609375 85.269531 27.628906 85.164062 27.734375 C 84.871094 28.023438 84.511719 28.597656 84.203125 29.289062 C 83.957031 29.851562 83.726562 30.476562 83.539062 31.195312 C 83.421875 31.632812 83.308594 32.09375 83.214844 32.597656 C 83.039062 33.546875 82.9375 34.65625 82.863281 35.765625 C 82.785156 36.851562 82.773438 37.890625 82.765625 38.710938 C 82.761719 39.640625 82.796875 40.054688 82.804688 40.070312 C 82.851562 40.148438 82.773438 40.101562 82.789062 40.101562 C 82.800781 40.101562 82.988281 40.054688 83.289062 39.800781 C 83.539062 39.589844 83.910156 39.621094 84.117188 39.871094 C 84.328125 40.121094 84.292969 40.492188 84.046875 40.699219 C 83.628906 41.046875 83.230469 41.277344 82.785156 41.277344 C 82.339844 41.273438 81.96875 40.96875 81.789062 40.664062 C 81.492188 40.152344 81.585938 39.628906 81.59375 38.699219 C 81.597656 37.875 81.613281 36.8125 81.6875 35.683594 C 81.765625 34.554688 81.871094 33.410156 82.058594 32.386719 C 82.160156 31.835938 82.28125 31.34375 82.402344 30.898438 C 82.609375 30.113281 82.859375 29.425781 83.128906 28.8125 C 83.476562 28.03125 83.871094 27.359375 84.335938 26.898438 C 84.519531 26.714844 84.714844 26.554688 84.984375 26.476562 C 85.269531 26.390625 85.6875 26.492188 85.902344 26.738281 C 86.300781 27.203125 86.277344 27.792969 86.226562 28.628906 C 86.191406 29.191406 86.140625 29.875 86.003906 30.605469 C 85.78125 31.78125 85.476562 33.054688 84.976562 34.175781 C 84.617188 34.984375 84.179688 35.675781 83.742188 36.296875 C 82.957031 37.421875 82.078125 38.363281 81.132812 38.921875 C 79.632812 39.808594 78.039062 39.503906 76.976562 38.636719 C 76.207031 38.007812 75.671875 36.824219 76.058594 35.441406 C 76.261719 34.707031 76.605469 33.871094 77.109375 33.050781 C 77.738281 32.03125 78.515625 31.027344 79.296875 30.191406 C 79.863281 29.585938 80.402344 29.082031 80.894531 28.6875 C 81.367188 28.316406 81.800781 28.054688 82.203125 27.917969 C 82.398438 27.847656 82.597656 27.800781 82.828125 27.832031 C 82.949219 27.847656 83.089844 27.890625 83.214844 27.984375 C 83.34375 28.082031 83.445312 28.230469 83.488281 28.382812 C 83.652344 28.953125 83.480469 29.382812 83.503906 29.535156 "/>
<path style=" stroke:none;fill-rule:nonzero;fill:rgb(7.058716%,1.176453%,46.665955%);fill-opacity:1;" d="M 44.921875 71.71875 C 44.945312 72.039062 44.703125 72.320312 44.378906 72.34375 C 44.054688 72.367188 43.773438 72.125 43.75 71.800781 C 43.71875 71.34375 43.519531 70.769531 43.414062 70.628906 C 43.390625 70.597656 43.601562 70.773438 43.539062 70.738281 C 43.476562 70.703125 43.839844 70.789062 43.761719 70.789062 C 43.691406 70.792969 43.988281 70.722656 43.945312 70.746094 C 43.902344 70.765625 44.042969 70.667969 44.027344 70.683594 C 43.757812 70.96875 43.195312 74.582031 42.835938 77.964844 C 42.660156 79.609375 42.554688 81.285156 42.496094 82.730469 C 42.445312 83.917969 42.402344 84.984375 42.46875 85.289062 C 42.472656 85.308594 42.445312 85.246094 42.460938 85.277344 C 42.46875 85.296875 42.371094 85.160156 42.402344 85.195312 C 42.4375 85.234375 42.167969 85.042969 42.242188 85.078125 C 42.316406 85.113281 41.914062 85.039062 41.996094 85.03125 C 42.050781 85.027344 41.8125 85.078125 41.851562 85.0625 C 41.902344 85.042969 41.734375 85.132812 41.75 85.121094 C 41.765625 85.109375 41.730469 85.136719 41.734375 85.132812 C 41.792969 85.066406 42.007812 84.691406 42.277344 84.058594 C 42.402344 83.761719 42.75 83.621094 43.046875 83.75 C 43.347656 83.875 43.484375 84.222656 43.359375 84.519531 C 43.074219 85.191406 42.878906 85.617188 42.613281 85.914062 C 42.476562 86.066406 42.152344 86.328125 41.753906 86.144531 C 41.378906 85.976562 41.355469 85.710938 41.320312 85.539062 C 41.171875 84.859375 41.273438 83.863281 41.320312 82.679688 C 41.378906 81.214844 41.488281 79.515625 41.664062 77.839844 C 41.847656 76.144531 42.039062 74.417969 42.273438 72.953125 C 42.382812 72.246094 42.5 71.617188 42.636719 71.097656 C 42.765625 70.597656 42.863281 70.203125 43.171875 69.878906 C 43.292969 69.746094 43.480469 69.625 43.730469 69.617188 C 43.984375 69.609375 44.230469 69.757812 44.359375 69.933594 C 44.707031 70.40625 44.875 71.058594 44.921875 71.71875 "/>
<path style=" stroke:none;fill-rule:nonzero;fill:rgb(7.058716%,1.176453%,46.665955%);fill-opacity:1;" d="M 47.128906 67.25 C 47.316406 67.515625 47.25 67.882812 46.984375 68.070312 C 46.71875 68.253906 46.351562 68.191406 46.164062 67.921875 C 46.054688 67.765625 45.867188 67.441406 45.535156 66.996094 C 45.1875 66.527344 44.738281 66 44.25 65.617188 C 43.644531 65.136719 42.898438 64.964844 41.996094 65.101562 C 41.046875 65.246094 39.917969 65.738281 38.679688 66.554688 C 35.523438 68.628906 32.273438 72.007812 31.082031 75.503906 C 30.589844 76.945312 30.421875 78.5 30.554688 80.054688 C 30.816406 83.140625 33.015625 86.347656 35.09375 88.824219 C 36.550781 90.558594 37.972656 91.597656 39.441406 91.902344 C 40.90625 92.210938 42.601562 91.824219 44.609375 90.71875 C 47.46875 89.144531 50.34375 86.648438 51.855469 83.308594 C 52.703125 81.433594 53.089844 79.222656 52.929688 76.878906 C 52.621094 72.371094 49.992188 67.886719 46.808594 65.617188 C 45.28125 64.53125 43.648438 64.011719 42.203125 64.273438 C 40.75 64.539062 39.339844 65.632812 38.261719 67.789062 C 38.117188 68.078125 37.761719 68.195312 37.472656 68.050781 C 37.183594 67.90625 37.066406 67.554688 37.210938 67.261719 C 38.40625 64.871094 40.128906 63.457031 41.992188 63.117188 C 43.839844 62.78125 45.78125 63.445312 47.488281 64.660156 C 51.003906 67.164062 53.765625 71.902344 54.101562 76.800781 C 54.273438 79.320312 53.859375 81.730469 52.925781 83.792969 C 51.28125 87.4375 48.207031 90.082031 45.175781 91.75 C 43.015625 92.933594 41.019531 93.433594 39.199219 93.054688 C 37.382812 92.675781 35.75 91.429688 34.195312 89.578125 C 32.050781 87.027344 29.683594 83.691406 29.382812 80.152344 C 29.238281 78.449219 29.421875 76.730469 29.96875 75.125 C 31.289062 71.253906 34.695312 67.765625 38.035156 65.570312 C 39.367188 64.695312 40.632812 64.121094 41.820312 63.941406 C 42.980469 63.765625 44.105469 64.007812 44.976562 64.691406 C 46.203125 65.660156 47.003906 67.070312 47.128906 67.25 "/>
</g>
</svg>
