<?xml version="1.0" encoding="UTF-8"?>
<svg xmlns="http://www.w3.org/2000/svg" xmlns:xlink="http://www.w3.org/1999/xlink" width="332.0708pt" height="151.9403pt" viewBox="0 0 332.0708 151.9403" version="1.2">
<g id="surface1">
<path style=" stroke:none;fill-rule:nonzero;fill:rgb(7.058716%,1.176453%,46.665955%);fill-opacity:1;" d="M 84.648438 60.800781 L 84.648438 114.058594 L 137.90625 114.058594 L 137.90625 60.800781 Z M 84.058594 59.625 L 138.492188 59.625 C 138.816406 59.625 139.082031 59.886719 139.082031 60.210938 L 139.082031 114.648438 C 139.082031 114.972656 138.816406 115.234375 138.492188 115.234375 L 84.058594 115.234375 C 83.734375 115.234375 83.472656 114.972656 83.472656 114.648438 L 83.472656 60.210938 C 83.472656 59.886719 83.734375 59.625 84.058594 59.625 "/>
<path style=" stroke:none;fill-rule:nonzero;fill:rgb(7.058716%,1.176453%,46.665955%);fill-opacity:1;" d="M 101.304688 80.808594 C 101.304688 81.132812 101.039062 81.394531 100.714844 81.394531 C 100.390625 81.394531 100.128906 81.132812 100.128906 80.808594 C 100.128906 80.644531 100.125 80.523438 100.121094 80.445312 C 100.117188 80.410156 100.117188 80.382812 100.113281 80.371094 C 100.113281 80.363281 100.144531 80.472656 100.128906 80.421875 C 100.121094 80.40625 100.164062 80.511719 100.152344 80.484375 C 100.144531 80.460938 100.222656 80.597656 100.199219 80.5625 C 100.183594 80.539062 100.3125 80.683594 100.277344 80.652344 C 100.222656 80.601562 100.652344 80.820312 100.535156 80.792969 C 100.414062 80.761719 101 80.722656 100.898438 80.765625 C 100.800781 80.808594 101.160156 80.550781 101.121094 80.601562 C 101.066406 80.664062 101.21875 80.433594 101.207031 80.464844 C 101.195312 80.492188 101.226562 80.398438 101.226562 80.410156 C 101.210938 80.453125 101.226562 80.398438 101.222656 80.445312 C 101.210938 80.597656 101.398438 81.660156 101.574219 83.046875 C 101.769531 84.589844 101.859375 86.574219 101.851562 88.417969 C 101.847656 89.667969 101.714844 90.734375 101.660156 91.484375 C 101.640625 91.71875 101.609375 91.917969 101.59375 92.058594 C 101.585938 92.125 101.582031 92.171875 101.582031 92.199219 C 101.582031 92.21875 101.558594 92.132812 101.570312 92.171875 C 101.585938 92.214844 101.441406 91.980469 101.484375 92.027344 C 101.53125 92.078125 101.28125 91.898438 101.332031 91.917969 C 101.382812 91.941406 101.191406 91.886719 101.21875 91.890625 C 101.242188 91.890625 101.175781 91.890625 101.179688 91.890625 C 101.191406 91.886719 101.316406 91.847656 101.476562 91.769531 C 101.824219 91.59375 102.289062 91.292969 102.777344 90.992188 C 103.871094 90.316406 105.058594 89.945312 106.140625 89.769531 C 107.1875 89.597656 108.097656 89.601562 108.761719 89.777344 C 109.074219 89.863281 109.261719 90.183594 109.179688 90.496094 C 109.09375 90.8125 108.773438 91 108.460938 90.914062 C 107.5625 90.675781 105.253906 90.84375 103.394531 91.992188 C 102.917969 92.289062 102.441406 92.601562 102 92.820312 C 101.785156 92.925781 101.585938 93.019531 101.335938 93.054688 C 101.207031 93.070312 101.050781 93.074219 100.871094 93 C 100.683594 92.917969 100.519531 92.734375 100.460938 92.550781 C 100.289062 92.054688 100.460938 91.757812 100.484375 91.394531 C 100.546875 90.609375 100.671875 89.585938 100.675781 88.410156 C 100.683594 86.613281 100.59375 84.660156 100.40625 83.195312 C 100.320312 82.507812 100.226562 81.917969 100.15625 81.4375 C 100.089844 80.980469 100.027344 80.664062 100.050781 80.351562 C 100.058594 80.261719 100.0625 80.191406 100.09375 80.085938 C 100.113281 80.023438 100.027344 79.863281 100.4375 79.683594 C 100.699219 79.574219 101.035156 79.730469 101.128906 79.847656 C 101.214844 79.949219 101.230469 80.007812 101.242188 80.054688 C 101.332031 80.320312 101.304688 80.460938 101.304688 80.808594 "/>
<path style=" stroke:none;fill-rule:nonzero;fill:rgb(7.058716%,1.176453%,46.665955%);fill-opacity:1;" d="M 116.675781 85.203125 C 116.5625 85.507812 116.226562 85.664062 115.921875 85.550781 C 115.617188 85.441406 115.460938 85.101562 115.574219 84.796875 C 115.636719 84.625 115.648438 84.5 115.640625 84.421875 C 115.636719 84.355469 115.625 84.34375 115.625 84.339844 C 115.617188 84.335938 115.652344 84.355469 115.652344 84.355469 C 115.648438 84.355469 115.625 84.355469 115.574219 84.378906 C 115.355469 84.488281 114.898438 85.15625 114.417969 86.136719 C 114.023438 86.949219 113.601562 87.851562 113.40625 88.753906 C 113.277344 89.359375 113.246094 89.972656 113.328125 90.5 C 113.4375 91.179688 113.847656 91.714844 114.441406 92.085938 C 115.046875 92.464844 115.832031 92.664062 116.605469 92.652344 C 117.117188 92.644531 117.613281 92.574219 118.105469 92.371094 C 118.910156 92.035156 119.777344 91.246094 120.566406 90.40625 C 121.550781 89.359375 122.265625 88.277344 122.492188 87.320312 C 122.628906 86.742188 122.609375 86.171875 122.402344 85.613281 C 122.082031 84.734375 121.261719 83.796875 120.386719 83.015625 C 119.546875 82.261719 118.75 81.695312 118 81.511719 C 117.210938 81.320312 116.300781 81.640625 115.421875 82.40625 C 114.5 83.214844 113.652344 84.464844 113.015625 85.964844 C 112.890625 86.265625 112.546875 86.40625 112.246094 86.277344 C 111.949219 86.152344 111.808594 85.808594 111.933594 85.507812 C 112.625 83.875 113.554688 82.480469 114.648438 81.523438 C 115.714844 80.589844 117.019531 80.0625 118.277344 80.371094 C 119.347656 80.628906 120.273438 81.335938 121.171875 82.140625 C 122.121094 82.988281 123.070312 84.015625 123.507812 85.207031 C 123.792969 85.992188 123.820312 86.8125 123.636719 87.589844 C 123.335938 88.859375 122.492188 90.074219 121.425781 91.210938 C 120.589844 92.097656 119.652344 93 118.554688 93.453125 C 117.894531 93.730469 117.234375 93.816406 116.625 93.828125 C 115.636719 93.84375 114.640625 93.597656 113.816406 93.082031 C 112.992188 92.5625 112.335938 91.730469 112.167969 90.6875 C 112.054688 89.984375 112.101562 89.234375 112.257812 88.503906 C 112.488281 87.429688 112.957031 86.453125 113.363281 85.621094 C 113.867188 84.59375 114.265625 83.722656 115.042969 83.332031 C 115.28125 83.210938 115.546875 83.15625 115.8125 83.191406 C 116.078125 83.230469 116.332031 83.363281 116.511719 83.570312 C 116.691406 83.777344 116.792969 84.046875 116.8125 84.328125 C 116.835938 84.605469 116.785156 84.902344 116.675781 85.203125 "/>
<path style=" stroke:none;fill-rule:nonzero;fill:rgb(7.058716%,1.176453%,46.665955%);fill-opacity:1;" d="M 81.199219 49.304688 C 80.875 49.304688 80.613281 49.039062 80.613281 48.714844 C 80.613281 48.390625 80.875 48.128906 81.199219 48.128906 L 110.570312 48.128906 C 110.894531 48.128906 111.15625 48.390625 111.15625 48.714844 C 111.15625 49.039062 110.894531 49.304688 110.570312 49.304688 Z M 81.199219 49.304688 "/>
<path style=" stroke:none;fill-rule:nonzero;fill:rgb(7.058716%,1.176453%,46.665955%);fill-opacity:1;" d="M 109.980469 48.714844 C 109.980469 48.390625 110.246094 48.128906 110.570312 48.128906 C 110.894531 48.128906 111.15625 48.390625 111.15625 48.714844 L 111.15625 60.210938 C 111.15625 60.535156 110.894531 60.800781 110.570312 60.800781 C 110.246094 60.800781 109.980469 60.535156 109.980469 60.210938 Z M 109.980469 48.714844 "/>
<path style=" stroke:none;fill-rule:nonzero;fill:rgb(7.058716%,1.176453%,46.665955%);fill-opacity:1;" d="M 108.082031 57.988281 C 108.109375 58.3125 107.867188 58.597656 107.546875 58.625 C 107.222656 58.652344 106.9375 58.414062 106.910156 58.089844 C 106.882812 57.785156 106.882812 57.527344 106.992188 57.261719 C 107.050781 57.125 107.148438 56.980469 107.300781 56.878906 C 107.449219 56.777344 107.632812 56.742188 107.785156 56.75 C 108.332031 56.777344 108.601562 57.109375 108.898438 57.414062 C 109.289062 57.816406 109.664062 58.289062 109.984375 58.671875 C 110.199219 58.929688 110.324219 59.117188 110.398438 59.171875 C 110.417969 59.183594 110.414062 59.179688 110.539062 59.15625 C 110.683594 59.125 110.871094 59.046875 111.042969 58.933594 C 111.527344 58.628906 111.882812 58.207031 112.320312 57.800781 C 112.496094 57.636719 112.664062 57.507812 112.777344 57.398438 C 112.867188 57.3125 112.875 57.316406 112.886719 57.292969 C 112.914062 57.242188 112.933594 57.1875 112.9375 57.171875 C 112.9375 57.164062 112.941406 57.210938 112.9375 57.191406 C 112.933594 57.164062 113.011719 57.359375 112.980469 57.308594 C 112.917969 57.207031 113.25 57.535156 113.1875 57.503906 C 113.132812 57.476562 113.320312 57.542969 113.296875 57.539062 C 113.269531 57.535156 113.3125 57.542969 113.28125 57.542969 C 113.203125 57.550781 113.070312 57.570312 112.933594 57.589844 C 112.195312 57.6875 111.328125 57.898438 110.402344 58.019531 C 109.960938 58.078125 109.53125 58.097656 109.117188 58.105469 C 108.871094 58.113281 108.640625 58.105469 108.453125 58.101562 C 108.367188 58.097656 108.292969 58.09375 108.238281 58.09375 C 108.1875 58.089844 108.265625 58.078125 108.207031 58.089844 C 108.191406 58.09375 108.378906 58.035156 108.320312 58.058594 C 108.296875 58.066406 108.449219 57.988281 108.410156 58.011719 C 108.378906 58.03125 108.570312 57.871094 108.527344 57.914062 C 108.488281 57.957031 108.664062 57.683594 108.632812 57.753906 C 108.609375 57.8125 108.6875 57.484375 108.683594 57.554688 C 108.675781 57.671875 108.585938 57.183594 108.621094 57.257812 C 108.671875 57.355469 108.445312 57.050781 108.484375 57.082031 C 108.515625 57.109375 108.394531 57.019531 108.410156 57.027344 C 108.453125 57.054688 108.359375 57.003906 108.367188 57.003906 C 108.375 57.007812 108.398438 57.015625 108.429688 57.027344 C 108.570312 57.070312 108.84375 57.148438 109.253906 57.257812 C 109.566406 57.339844 109.753906 57.664062 109.667969 57.976562 C 109.585938 58.289062 109.261719 58.476562 108.949219 58.390625 C 108.535156 58.28125 108.257812 58.203125 108.074219 58.144531 C 107.984375 58.117188 107.929688 58.109375 107.808594 58.035156 C 107.769531 58.015625 107.71875 57.988281 107.648438 57.902344 C 107.589844 57.832031 107.5 57.695312 107.507812 57.492188 C 107.523438 57.175781 107.757812 57.023438 107.855469 56.976562 C 107.941406 56.9375 107.988281 56.933594 108.023438 56.929688 C 108.386719 56.871094 108.671875 56.941406 109.085938 56.933594 C 109.484375 56.921875 109.871094 56.90625 110.25 56.855469 C 111.097656 56.746094 111.957031 56.53125 112.78125 56.425781 C 112.890625 56.410156 113.035156 56.382812 113.199219 56.371094 C 113.28125 56.367188 113.371094 56.363281 113.492188 56.382812 C 113.617188 56.402344 113.835938 56.453125 113.988281 56.703125 C 114.128906 56.941406 114.125 57.183594 114.09375 57.371094 C 114.0625 57.554688 113.996094 57.714844 113.914062 57.863281 C 113.804688 58.0625 113.671875 58.167969 113.589844 58.25 C 113.417969 58.414062 113.25 58.542969 113.117188 58.664062 C 112.75 59.007812 112.328125 59.511719 111.675781 59.925781 C 111.402344 60.097656 111.101562 60.238281 110.777344 60.308594 C 110.445312 60.375 110.046875 60.367188 109.707031 60.121094 C 109.375 59.878906 109.226562 59.597656 109.085938 59.429688 C 108.75 59.03125 108.386719 58.578125 108.054688 58.234375 C 107.941406 58.117188 107.832031 58.019531 107.75 57.964844 C 107.710938 57.9375 107.683594 57.921875 107.671875 57.914062 C 107.664062 57.910156 107.773438 57.925781 107.726562 57.921875 C 107.667969 57.921875 108.03125 57.804688 107.953125 57.855469 C 107.875 57.90625 108.089844 57.6875 108.078125 57.714844 C 108.066406 57.746094 108.0625 57.785156 108.082031 57.988281 "/>
<path style=" stroke:none;fill-rule:nonzero;fill:rgb(7.058716%,1.176453%,46.665955%);fill-opacity:1;" d="M 138.492188 88.59375 C 138.167969 88.59375 137.90625 88.328125 137.90625 88.003906 C 137.90625 87.679688 138.167969 87.417969 138.492188 87.417969 L 208.484375 87.417969 C 208.808594 87.417969 209.070312 87.679688 209.070312 88.003906 C 209.070312 88.328125 208.808594 88.59375 208.484375 88.59375 Z M 138.492188 88.59375 "/>
<path style=" stroke:none;fill-rule:nonzero;fill:rgb(7.058716%,1.176453%,46.665955%);fill-opacity:1;" d="M 210.390625 62.078125 C 210.390625 61.753906 210.65625 61.488281 210.980469 61.488281 C 211.304688 61.488281 211.566406 61.753906 211.566406 62.078125 L 211.566406 114.558594 C 211.566406 114.882812 211.304688 115.144531 210.980469 115.144531 C 210.65625 115.144531 210.390625 114.882812 210.390625 114.558594 Z M 210.390625 62.078125 "/>
<path style=" stroke:none;fill-rule:nonzero;fill:rgb(7.058716%,1.176453%,46.665955%);fill-opacity:1;" d="M 211.3125 115.042969 C 211.042969 115.226562 210.675781 115.15625 210.496094 114.886719 C 210.3125 114.621094 210.378906 114.253906 210.648438 114.070312 L 249.488281 87.488281 C 249.753906 87.308594 250.121094 87.375 250.304688 87.644531 C 250.488281 87.910156 250.417969 88.277344 250.152344 88.460938 Z M 211.3125 115.042969 "/>
<path style=" stroke:none;fill-rule:nonzero;fill:rgb(7.058716%,1.176453%,46.665955%);fill-opacity:1;" d="M 250.234375 87.6875 C 250.554688 87.71875 250.792969 88.007812 250.761719 88.332031 C 250.730469 88.652344 250.441406 88.890625 250.117188 88.855469 C 249.632812 88.808594 249.308594 88.753906 249.039062 88.636719 C 248.972656 88.605469 248.902344 88.570312 248.820312 88.503906 C 248.734375 88.429688 248.609375 88.300781 248.585938 88.070312 C 248.5625 87.832031 248.703125 87.613281 248.816406 87.519531 C 248.917969 87.4375 249.003906 87.40625 249.074219 87.382812 C 249.386719 87.289062 249.714844 87.460938 249.8125 87.769531 C 249.910156 88.078125 249.734375 88.410156 249.425781 88.507812 C 249.417969 88.507812 249.492188 88.476562 249.472656 88.488281 C 249.449219 88.5 249.601562 88.394531 249.5625 88.429688 C 249.519531 88.464844 249.742188 88.175781 249.699219 88.257812 C 249.65625 88.34375 249.746094 87.847656 249.757812 87.953125 C 249.765625 88.054688 249.632812 87.652344 249.671875 87.710938 C 249.703125 87.761719 249.554688 87.582031 249.578125 87.605469 C 249.621094 87.640625 249.511719 87.5625 249.515625 87.5625 C 249.554688 87.578125 249.808594 87.644531 250.234375 87.6875 "/>
<path style=" stroke:none;fill-rule:nonzero;fill:rgb(7.058716%,1.176453%,46.665955%);fill-opacity:1;" d="M 250.144531 87.484375 C 250.414062 87.667969 250.488281 88.03125 250.308594 88.300781 C 250.128906 88.570312 249.761719 88.644531 249.492188 88.464844 L 210.652344 62.566406 C 210.382812 62.386719 210.308594 62.019531 210.488281 61.75 C 210.671875 61.480469 211.035156 61.410156 211.304688 61.589844 Z M 250.144531 87.484375 "/>
<path style=" stroke:none;fill-rule:nonzero;fill:rgb(7.058716%,1.176453%,46.665955%);fill-opacity:1;" d="M 217.332031 86.507812 C 217.285156 86.828125 216.988281 87.050781 216.664062 87.003906 C 216.34375 86.957031 216.121094 86.65625 216.167969 86.335938 C 216.195312 86.160156 216.277344 85.804688 216.691406 85.707031 C 217.09375 85.613281 217.28125 85.832031 217.394531 85.945312 C 217.609375 86.167969 217.761719 86.445312 217.941406 86.800781 C 218.320312 87.550781 218.730469 88.585938 219.078125 89.710938 C 219.488281 91.03125 219.730469 92.367188 219.863281 93.34375 C 219.9375 93.886719 219.9375 94.328125 219.855469 94.6875 C 219.816406 94.863281 219.773438 95.039062 219.597656 95.21875 C 219.5 95.316406 219.335938 95.421875 219.136719 95.433594 C 218.933594 95.441406 218.757812 95.351562 218.652344 95.261719 C 218.238281 94.90625 218.246094 94.542969 218.125 94.011719 C 217.996094 93.445312 217.867188 92.714844 217.722656 91.832031 C 217.511719 90.554688 217.253906 88.992188 217.117188 87.402344 C 217.042969 86.550781 217.042969 85.71875 217.03125 84.988281 C 217.015625 83.949219 216.9375 83.132812 217.035156 82.441406 C 217.128906 81.789062 217.492188 81.285156 217.921875 80.996094 C 218.511719 80.597656 219.261719 80.269531 220.082031 80.324219 C 220.851562 80.378906 221.46875 80.910156 221.882812 81.558594 C 222.296875 82.207031 222.546875 83.015625 222.5625 83.84375 C 222.574219 84.515625 222.433594 85.222656 222.039062 85.859375 C 221.09375 87.390625 219.066406 88.21875 217.542969 88.492188 C 217.179688 88.558594 216.847656 88.589844 216.539062 88.550781 C 216.226562 88.515625 215.796875 88.386719 215.65625 87.925781 C 215.515625 87.472656 215.761719 87.128906 216.015625 86.851562 C 216.277344 86.566406 216.648438 86.269531 217.160156 85.933594 C 217.429688 85.75 217.792969 85.824219 217.972656 86.09375 C 218.152344 86.367188 218.078125 86.730469 217.808594 86.910156 C 217.347656 87.214844 217.042969 87.46875 216.882812 87.644531 C 216.8125 87.71875 216.785156 87.773438 216.78125 87.777344 C 216.78125 87.78125 216.796875 87.695312 216.792969 87.726562 C 216.789062 87.761719 216.761719 87.527344 216.777344 87.582031 C 216.796875 87.640625 216.664062 87.402344 216.699219 87.4375 C 216.742188 87.488281 216.605469 87.371094 216.609375 87.375 C 216.609375 87.375 216.632812 87.378906 216.675781 87.386719 C 216.808594 87.402344 217.046875 87.390625 217.332031 87.335938 C 218.59375 87.109375 220.410156 86.261719 221.039062 85.242188 C 221.300781 84.820312 221.394531 84.363281 221.386719 83.867188 C 221.375 83.261719 221.183594 82.644531 220.890625 82.191406 C 220.613281 81.75 220.265625 81.515625 220 81.496094 C 219.554688 81.464844 219.019531 81.671875 218.578125 81.972656 C 218.355469 82.121094 218.253906 82.238281 218.199219 82.609375 C 218.132812 83.085938 218.191406 83.898438 218.207031 84.96875 C 218.21875 85.710938 218.21875 86.511719 218.285156 87.300781 C 218.421875 88.835938 218.671875 90.371094 218.878906 91.640625 C 219.023438 92.515625 219.152344 93.230469 219.269531 93.75 C 219.328125 93.992188 219.378906 94.183594 219.425781 94.3125 C 219.445312 94.371094 219.464844 94.414062 219.472656 94.429688 C 219.476562 94.433594 219.464844 94.417969 219.46875 94.425781 C 219.476562 94.4375 219.386719 94.34375 219.417969 94.367188 C 219.445312 94.394531 219.230469 94.269531 219.289062 94.292969 C 219.347656 94.316406 218.996094 94.261719 219.074219 94.257812 C 219.15625 94.253906 218.816406 94.34375 218.871094 94.3125 C 218.925781 94.285156 218.726562 94.425781 218.753906 94.398438 C 218.800781 94.351562 218.695312 94.484375 218.695312 94.480469 C 218.695312 94.480469 218.703125 94.460938 218.710938 94.429688 C 218.746094 94.277344 218.761719 93.941406 218.699219 93.503906 C 218.574219 92.574219 218.339844 91.289062 217.957031 90.058594 C 217.625 88.992188 217.230469 87.996094 216.890625 87.332031 C 216.738281 87.023438 216.589844 86.804688 216.554688 86.769531 C 216.550781 86.765625 216.660156 86.835938 216.613281 86.808594 C 216.582031 86.792969 216.796875 86.867188 216.738281 86.855469 C 216.675781 86.839844 217.046875 86.832031 216.964844 86.851562 C 216.878906 86.871094 217.242188 86.6875 217.1875 86.738281 C 217.105469 86.808594 217.332031 86.519531 217.316406 86.558594 C 217.300781 86.59375 217.332031 86.503906 217.332031 86.507812 "/>
<path style=" stroke:none;fill-rule:nonzero;fill:rgb(7.058716%,1.176453%,46.665955%);fill-opacity:1;" d="M 222.625 86.539062 C 222.695312 86.222656 223.011719 86.023438 223.328125 86.09375 C 223.644531 86.164062 223.84375 86.476562 223.773438 86.792969 C 223.757812 86.867188 223.84375 87.347656 223.984375 87.875 C 224.074219 88.210938 224.128906 88.535156 224.183594 88.808594 C 224.230469 89.042969 224.25 89.226562 224.257812 89.269531 C 224.273438 89.328125 224.292969 89.371094 224.296875 89.382812 C 224.300781 89.386719 224.25 89.324219 224.273438 89.351562 C 224.289062 89.367188 224.171875 89.265625 224.207031 89.289062 C 224.242188 89.316406 223.941406 89.183594 224.027344 89.203125 C 224.09375 89.222656 223.75 89.199219 223.820312 89.191406 C 223.886719 89.183594 223.582031 89.265625 223.636719 89.242188 C 223.734375 89.195312 223.398438 89.4375 223.4375 89.390625 C 223.503906 89.3125 223.328125 89.585938 223.339844 89.550781 C 223.359375 89.5 223.3125 89.648438 223.316406 89.636719 C 223.320312 89.613281 223.316406 89.632812 223.316406 89.589844 C 223.324219 89.507812 223.328125 89.378906 223.335938 89.214844 C 223.347656 88.867188 223.355469 88.394531 223.363281 87.851562 C 223.382812 86.726562 223.40625 85.398438 223.460938 84.265625 C 223.496094 83.46875 223.597656 82.761719 223.714844 82.210938 C 223.777344 81.910156 223.820312 81.660156 223.980469 81.398438 C 224.066406 81.257812 224.285156 81.0625 224.558594 81.0625 C 224.824219 81.0625 224.972656 81.195312 225.066406 81.285156 C 225.238281 81.453125 225.316406 81.625 225.410156 81.820312 C 225.605469 82.230469 225.792969 82.761719 225.988281 83.339844 C 226.617188 85.210938 227.773438 87.554688 228.714844 89.578125 C 229.148438 90.519531 229.417969 91.351562 229.648438 91.925781 C 229.765625 92.210938 229.859375 92.429688 229.929688 92.53125 C 229.941406 92.554688 229.867188 92.523438 229.917969 92.539062 C 229.929688 92.542969 229.8125 92.519531 229.847656 92.523438 C 229.882812 92.527344 229.632812 92.550781 229.699219 92.535156 C 229.765625 92.515625 229.382812 92.746094 229.460938 92.667969 C 229.539062 92.589844 229.300781 93.035156 229.316406 92.941406 C 229.328125 92.886719 229.316406 93.097656 229.3125 93.066406 C 229.304688 92.996094 229.328125 93.125 229.304688 93.082031 C 229.269531 93.019531 229.191406 92.914062 229.09375 92.796875 C 228.886719 92.546875 228.597656 92.253906 228.296875 91.976562 C 227.644531 91.371094 226.738281 90.867188 225.78125 90.417969 C 225.488281 90.28125 225.359375 89.929688 225.5 89.636719 C 225.636719 89.34375 225.988281 89.214844 226.28125 89.355469 C 227.289062 89.828125 228.296875 90.371094 229.097656 91.113281 C 229.421875 91.414062 229.742188 91.738281 229.996094 92.042969 C 230.125 92.195312 230.234375 92.34375 230.324219 92.496094 C 230.414062 92.652344 230.53125 92.824219 230.472656 93.148438 C 230.429688 93.394531 230.183594 93.625 229.976562 93.675781 C 229.785156 93.722656 229.640625 93.6875 229.519531 93.644531 C 229.285156 93.5625 229.089844 93.402344 228.941406 93.171875 C 228.785156 92.929688 228.679688 92.664062 228.558594 92.367188 C 228.304688 91.730469 228.050781 90.945312 227.648438 90.074219 C 226.714844 88.0625 225.542969 85.703125 224.875 83.714844 C 224.683594 83.15625 224.5 82.644531 224.347656 82.324219 C 224.28125 82.183594 224.269531 82.148438 224.238281 82.121094 C 224.226562 82.109375 224.367188 82.203125 224.320312 82.179688 C 224.269531 82.152344 224.664062 82.238281 224.558594 82.238281 C 224.449219 82.238281 224.929688 82.09375 224.855469 82.144531 C 224.785156 82.195312 225 81.980469 224.980469 82.015625 C 224.972656 82.027344 224.921875 82.1875 224.863281 82.453125 C 224.761719 82.941406 224.667969 83.589844 224.632812 84.320312 C 224.582031 85.429688 224.558594 86.746094 224.539062 87.871094 C 224.53125 88.414062 224.519531 88.890625 224.511719 89.253906 C 224.503906 89.421875 224.5 89.5625 224.492188 89.675781 C 224.488281 89.730469 224.484375 89.777344 224.472656 89.835938 C 224.46875 89.863281 224.464844 89.898438 224.441406 89.964844 C 224.425781 90.003906 224.410156 90.054688 224.339844 90.144531 C 224.257812 90.242188 224 90.414062 223.734375 90.34375 C 223.359375 90.246094 223.332031 90.0625 223.265625 89.945312 C 223.203125 89.824219 223.15625 89.703125 223.121094 89.5625 C 223.066406 89.355469 223.0625 89.195312 223.03125 89.042969 C 222.972656 88.746094 222.917969 88.445312 222.847656 88.179688 C 222.707031 87.652344 222.492188 87.132812 222.625 86.539062 "/>
<path style=" stroke:none;fill-rule:nonzero;fill:rgb(7.058716%,1.176453%,46.665955%);fill-opacity:1;" d="M 222.988281 88.8125 C 223.308594 88.769531 223.605469 88.996094 223.648438 89.316406 C 223.691406 89.640625 223.464844 89.933594 223.140625 89.976562 C 222.921875 90.007812 222.691406 89.996094 222.46875 89.886719 C 222.242188 89.773438 222.0625 89.53125 222.019531 89.289062 C 221.9375 88.835938 222.167969 88.488281 222.449219 88.230469 C 223.097656 87.625 224.058594 87.582031 225.058594 87.5 C 226.066406 87.417969 227.101562 87.378906 227.828125 87.210938 C 228.144531 87.136719 228.460938 87.332031 228.535156 87.648438 C 228.609375 87.964844 228.414062 88.28125 228.097656 88.355469 C 227.195312 88.566406 226.128906 88.589844 225.15625 88.671875 C 224.210938 88.75 223.414062 88.933594 223.246094 89.089844 C 223.207031 89.128906 223.179688 89.167969 223.175781 89.179688 C 223.171875 89.183594 223.179688 89.152344 223.175781 89.167969 C 223.175781 89.183594 223.167969 89.039062 223.175781 89.082031 C 223.183594 89.125 223.078125 88.890625 223.113281 88.9375 C 223.148438 88.984375 222.957031 88.816406 222.992188 88.835938 C 223.027344 88.851562 222.933594 88.816406 222.933594 88.816406 C 222.9375 88.816406 222.953125 88.816406 222.988281 88.8125 "/>
<path style=" stroke:none;fill-rule:nonzero;fill:rgb(7.058716%,1.176453%,46.665955%);fill-opacity:1;" d="M 249.820312 88.5625 C 249.496094 88.5625 249.230469 88.300781 249.230469 87.976562 C 249.230469 87.652344 249.496094 87.386719 249.820312 87.386719 L 281.445312 87.386719 C 281.769531 87.386719 282.035156 87.652344 282.035156 87.976562 C 282.035156 88.300781 281.769531 88.5625 281.445312 88.5625 Z M 249.820312 88.5625 "/>
<path style=" stroke:none;fill-rule:nonzero;fill:rgb(7.058716%,1.176453%,46.665955%);fill-opacity:1;" d="M 282.035156 87.976562 C 282.035156 88.300781 281.769531 88.5625 281.445312 88.5625 C 281.121094 88.5625 280.859375 88.300781 280.859375 87.976562 L 280.859375 61.117188 C 280.859375 60.792969 281.121094 60.53125 281.445312 60.53125 C 281.769531 60.53125 282.035156 60.792969 282.035156 61.117188 Z M 282.035156 87.976562 "/>
<path style=" stroke:none;fill-rule:nonzero;fill:rgb(7.058716%,1.176453%,46.665955%);fill-opacity:1;" d="M 280.699219 61.71875 C 280.671875 62.042969 280.386719 62.28125 280.0625 62.253906 C 279.738281 62.226562 279.5 61.941406 279.527344 61.617188 C 279.589844 60.886719 279.480469 60.472656 279.136719 59.84375 C 278.511719 58.695312 277.0625 56.550781 275.5625 54.214844 C 274.183594 52.070312 273.042969 49.984375 272.082031 48.515625 C 271.75 48.011719 271.453125 47.667969 271.164062 47.394531 C 270.8125 47.066406 270.386719 46.839844 270.363281 46.835938 C 270.355469 46.832031 270.472656 46.832031 270.433594 46.835938 C 270.386719 46.839844 270.710938 46.726562 270.628906 46.773438 C 270.546875 46.824219 270.867188 46.460938 270.828125 46.546875 C 270.792969 46.628906 270.867188 46.320312 270.867188 46.359375 C 270.871094 46.425781 270.855469 46.308594 270.882812 46.363281 C 270.910156 46.421875 270.964844 46.519531 271.046875 46.640625 C 271.226562 46.910156 271.15625 47.273438 270.886719 47.457031 C 270.621094 47.636719 270.253906 47.566406 270.074219 47.296875 C 269.863281 46.988281 269.707031 46.757812 269.691406 46.40625 C 269.683594 46.210938 269.789062 45.90625 270.027344 45.765625 C 270.25 45.628906 270.445312 45.652344 270.582031 45.679688 C 271.101562 45.777344 271.519531 46.117188 271.96875 46.539062 C 272.324219 46.875 272.6875 47.296875 273.066406 47.875 C 274.066406 49.402344 275.195312 51.472656 276.550781 53.582031 C 277.300781 54.746094 278.042969 55.878906 278.695312 56.886719 C 279.324219 57.863281 279.84375 58.683594 280.167969 59.28125 C 280.582031 60.035156 280.777344 60.800781 280.699219 61.71875 "/>
<path style=" stroke:none;fill-rule:nonzero;fill:rgb(7.058716%,1.176453%,46.665955%);fill-opacity:1;" d="M 281.292969 61.121094 C 281.503906 61.367188 281.476562 61.738281 281.230469 61.949219 C 280.984375 62.160156 280.613281 62.132812 280.402344 61.890625 C 280.230469 61.691406 280.097656 61.417969 280.109375 61.125 C 280.121094 60.839844 280.253906 60.605469 280.398438 60.429688 C 280.683594 60.082031 281.066406 59.828125 281.503906 59.503906 C 282.515625 58.742188 283.921875 57.476562 285.324219 56 C 286.167969 55.109375 286.925781 54.105469 287.664062 53.21875 C 288.585938 52.113281 289.433594 51.25 290.347656 50.566406 C 291.539062 49.671875 292.828125 49.03125 293.601562 48.546875 C 293.8125 48.414062 293.972656 48.289062 294.066406 48.195312 C 294.109375 48.15625 294.136719 48.121094 294.144531 48.109375 C 294.152344 48.101562 294.117188 48.234375 294.125 48.175781 C 294.136719 48.121094 294.226562 48.472656 294.175781 48.394531 C 294.148438 48.355469 294.324219 48.53125 294.28125 48.5 C 294.238281 48.472656 294.464844 48.5625 294.417969 48.554688 C 294.375 48.546875 294.558594 48.546875 294.527344 48.554688 C 294.503906 48.558594 294.578125 48.535156 294.574219 48.539062 C 294.570312 48.539062 294.535156 48.566406 294.480469 48.640625 C 294.292969 48.910156 293.929688 48.976562 293.660156 48.789062 C 293.394531 48.605469 293.328125 48.238281 293.515625 47.972656 C 293.644531 47.785156 293.792969 47.632812 293.976562 47.523438 C 294.15625 47.417969 294.378906 47.359375 294.605469 47.394531 C 294.832031 47.429688 295.042969 47.570312 295.164062 47.761719 C 295.285156 47.945312 295.320312 48.171875 295.285156 48.378906 C 295.179688 48.972656 294.742188 49.214844 294.226562 49.539062 C 293.375 50.078125 292.140625 50.691406 291.054688 51.503906 C 290.234375 52.121094 289.453125 52.910156 288.570312 53.96875 C 287.851562 54.832031 287.078125 55.859375 286.175781 56.808594 C 284.734375 58.328125 283.300781 59.625 282.207031 60.445312 C 281.765625 60.773438 281.429688 61.03125 281.308594 61.175781 C 281.261719 61.230469 281.285156 61.113281 281.285156 61.171875 C 281.28125 61.234375 281.253906 61.074219 281.292969 61.121094 "/>
<path style=" stroke:none;fill-rule:nonzero;fill:rgb(7.058716%,1.176453%,46.665955%);fill-opacity:1;" d="M 225.800781 44.800781 C 225.789062 44.476562 226.042969 44.203125 226.367188 44.191406 C 226.691406 44.179688 226.960938 44.429688 226.976562 44.757812 L 228.066406 73.054688 C 228.078125 73.378906 227.824219 73.652344 227.5 73.664062 C 227.175781 73.679688 226.902344 73.425781 226.890625 73.101562 Z M 225.800781 44.800781 "/>
<path style=" stroke:none;fill-rule:nonzero;fill:rgb(7.058716%,1.176453%,46.665955%);fill-opacity:1;" d="M 225.417969 69.90625 C 225.714844 70.03125 225.855469 70.375 225.730469 70.675781 C 225.601562 70.972656 225.257812 71.113281 224.957031 70.988281 C 224.472656 70.78125 224.492188 70.582031 224.371094 70.429688 C 224.355469 70.410156 224.464844 70.515625 224.433594 70.492188 C 224.402344 70.464844 224.660156 70.601562 224.585938 70.574219 C 224.535156 70.554688 224.785156 70.609375 224.726562 70.605469 C 224.664062 70.601562 225 70.5625 224.925781 70.582031 C 224.839844 70.605469 225.191406 70.429688 225.125 70.480469 C 225.066406 70.53125 225.300781 70.25 225.269531 70.308594 C 225.238281 70.363281 225.335938 70.101562 225.328125 70.148438 C 225.3125 70.21875 225.328125 69.945312 225.332031 69.988281 C 225.339844 70.027344 225.304688 69.867188 225.3125 69.890625 C 225.332031 69.953125 225.269531 69.800781 225.273438 69.808594 C 225.320312 69.871094 225.527344 70.050781 225.75 70.25 C 225.917969 70.402344 226.109375 70.539062 226.320312 70.691406 C 226.539062 70.847656 226.757812 71.015625 226.976562 71.195312 C 227.265625 71.433594 227.519531 71.695312 227.730469 71.949219 C 228 72.273438 228.085938 72.519531 228.109375 72.542969 C 228.148438 72.578125 227.855469 72.449219 227.925781 72.457031 C 227.992188 72.46875 227.769531 72.476562 227.789062 72.46875 C 227.8125 72.460938 227.824219 72.445312 227.898438 72.367188 C 228.214844 72.011719 228.578125 71.394531 228.835938 70.84375 C 228.984375 70.53125 229.117188 70.28125 229.128906 70.210938 C 229.132812 70.195312 229.214844 70.421875 229.179688 70.378906 C 229.152344 70.34375 229.191406 70.386719 229.117188 70.359375 C 228.933594 70.292969 228.574219 70.242188 228.167969 70.210938 C 227.730469 70.175781 227.238281 70.148438 226.8125 70.140625 C 226.636719 70.136719 226.480469 70.132812 226.34375 70.140625 C 226.191406 70.148438 226.03125 70.167969 225.886719 70.199219 C 225.792969 70.21875 225.703125 70.246094 225.632812 70.273438 C 225.570312 70.296875 225.640625 70.242188 225.585938 70.285156 C 225.566406 70.300781 225.707031 70.144531 225.667969 70.195312 C 225.648438 70.222656 225.753906 70.027344 225.730469 70.078125 C 225.710938 70.132812 225.773438 69.796875 225.769531 69.875 C 225.769531 69.960938 225.675781 69.542969 225.710938 69.621094 C 225.769531 69.738281 225.449219 69.355469 225.511719 69.398438 C 225.570312 69.433594 225.34375 69.328125 225.375 69.335938 C 225.449219 69.355469 225.296875 69.324219 225.316406 69.324219 C 225.335938 69.324219 225.382812 69.320312 225.445312 69.3125 C 225.769531 69.269531 226.0625 69.496094 226.105469 69.820312 C 226.144531 70.140625 225.917969 70.4375 225.59375 70.476562 C 225.410156 70.5 225.285156 70.53125 225.058594 70.46875 C 224.921875 70.429688 224.59375 70.238281 224.597656 69.871094 C 224.597656 69.535156 224.765625 69.4375 224.84375 69.375 C 225.101562 69.164062 225.335938 69.117188 225.640625 69.050781 C 225.847656 69.003906 226.066406 68.976562 226.285156 68.964844 C 226.484375 68.957031 226.667969 68.960938 226.832031 68.964844 C 227.296875 68.972656 227.808594 69.003906 228.257812 69.039062 C 228.699219 69.074219 229.128906 69.109375 229.523438 69.257812 C 229.722656 69.328125 229.929688 69.433594 230.09375 69.640625 C 230.265625 69.855469 230.335938 70.175781 230.28125 70.445312 C 230.203125 70.824219 230.019531 71.089844 229.898438 71.347656 C 229.605469 71.964844 229.226562 72.644531 228.773438 73.148438 C 228.625 73.316406 228.457031 73.472656 228.214844 73.566406 C 227.960938 73.664062 227.554688 73.628906 227.3125 73.40625 C 226.984375 73.101562 226.933594 72.828125 226.824219 72.699219 C 226.660156 72.5 226.453125 72.289062 226.226562 72.101562 C 226.035156 71.941406 225.839844 71.792969 225.636719 71.644531 C 225.421875 71.496094 225.195312 71.332031 224.964844 71.125 C 224.769531 70.949219 224.527344 70.777344 224.328125 70.507812 C 224.277344 70.4375 224.230469 70.359375 224.195312 70.257812 C 224.160156 70.148438 224.105469 69.988281 224.234375 69.75 C 224.304688 69.617188 224.453125 69.492188 224.613281 69.453125 C 224.75 69.410156 224.890625 69.433594 224.988281 69.46875 C 225.144531 69.523438 225.222656 69.613281 225.28125 69.6875 C 225.34375 69.761719 225.40625 69.839844 225.464844 69.902344 C 225.488281 69.933594 225.511719 69.957031 225.523438 69.964844 C 225.527344 69.96875 225.503906 69.953125 225.515625 69.960938 C 225.527344 69.96875 225.355469 69.878906 225.417969 69.90625 "/>
<path style=" stroke:none;fill-rule:nonzero;fill:rgb(92.941284%,21.176147%,14.117432%);fill-opacity:1;" d="M 66.183594 41.003906 C 66.113281 41.320312 65.796875 41.519531 65.480469 41.449219 C 65.164062 41.378906 64.964844 41.0625 65.039062 40.746094 C 65.15625 40.214844 65.292969 39.859375 65.414062 39.597656 C 65.492188 39.421875 65.554688 39.285156 65.578125 39.203125 C 65.585938 39.1875 65.585938 39.179688 65.585938 39.175781 C 65.585938 39.171875 65.605469 39.292969 65.59375 39.246094 C 65.589844 39.222656 65.660156 39.390625 65.636719 39.347656 C 65.613281 39.304688 65.8125 39.523438 65.757812 39.480469 C 65.699219 39.4375 66.023438 39.585938 65.953125 39.574219 C 65.886719 39.558594 66.167969 39.566406 66.125 39.574219 C 66.070312 39.585938 66.199219 39.554688 66.195312 39.554688 C 66.105469 39.605469 65.621094 40.136719 65.046875 40.800781 C 64.460938 41.476562 63.75 42.269531 63.066406 43.238281 C 62.34375 44.261719 61.675781 45.4375 61.257812 46.507812 C 60.941406 47.304688 60.847656 48.042969 60.886719 48.585938 C 60.90625 48.886719 60.992188 49.042969 61.113281 49.148438 C 61.238281 49.257812 61.445312 49.335938 61.742188 49.355469 C 62.386719 49.394531 63.320312 49.132812 64.226562 48.640625 C 65.5625 47.917969 66.78125 46.832031 67.757812 45.464844 C 68.40625 44.558594 68.953125 43.492188 69.207031 42.53125 C 69.386719 41.84375 69.351562 41.21875 69.199219 40.742188 C 69.054688 40.285156 68.796875 39.992188 68.621094 39.902344 C 68.566406 39.875 68.515625 39.867188 68.378906 39.929688 C 68.21875 40 68.003906 40.171875 67.78125 40.429688 C 67.300781 40.980469 66.828125 41.863281 66.484375 42.890625 C 66.207031 43.703125 66.042969 44.625 65.984375 45.558594 C 65.867188 47.320312 66.3125 49.054688 66.4375 50.75 C 66.523438 51.90625 66.359375 52.996094 66.21875 53.875 C 66.109375 54.546875 66.023438 55.050781 66.035156 55.09375 C 66.039062 55.113281 65.945312 54.933594 65.980469 54.984375 C 66.019531 55.039062 65.734375 54.804688 65.804688 54.839844 C 65.878906 54.875 65.574219 54.800781 65.617188 54.796875 C 65.660156 54.796875 65.558594 54.808594 65.558594 54.808594 C 65.585938 54.796875 65.804688 54.675781 66.109375 54.429688 C 66.359375 54.222656 66.730469 54.261719 66.933594 54.515625 C 67.140625 54.765625 67.101562 55.136719 66.847656 55.339844 C 66.496094 55.625 66.238281 55.820312 65.925781 55.921875 C 65.765625 55.976562 65.542969 56.015625 65.308594 55.90625 C 65.074219 55.792969 64.945312 55.566406 64.898438 55.398438 C 64.742188 54.8125 64.957031 54.324219 65.058594 53.6875 C 65.195312 52.828125 65.339844 51.832031 65.265625 50.835938 C 65.152344 49.273438 64.679688 47.46875 64.808594 45.480469 C 64.878906 44.460938 65.054688 43.445312 65.371094 42.511719 C 65.753906 41.371094 66.273438 40.375 66.890625 39.660156 C 67.191406 39.3125 67.515625 39.03125 67.894531 38.859375 C 68.269531 38.6875 68.746094 38.652344 69.144531 38.851562 C 69.707031 39.132812 70.101562 39.699219 70.320312 40.386719 C 70.542969 41.085938 70.578125 41.9375 70.34375 42.832031 C 70.042969 43.976562 69.433594 45.140625 68.714844 46.148438 C 67.640625 47.652344 66.289062 48.863281 64.785156 49.675781 C 63.738281 50.242188 62.648438 50.589844 61.671875 50.527344 C 61.1875 50.5 60.710938 50.355469 60.339844 50.035156 C 59.96875 49.710938 59.75 49.210938 59.710938 48.664062 C 59.664062 47.929688 59.789062 47.03125 60.164062 46.078125 C 60.628906 44.894531 61.332031 43.65625 62.105469 42.558594 C 62.832031 41.527344 63.578125 40.699219 64.160156 40.03125 C 64.484375 39.65625 64.769531 39.3125 65.03125 39.035156 C 65.285156 38.765625 65.464844 38.5 65.921875 38.417969 C 66.085938 38.390625 66.308594 38.425781 66.472656 38.546875 C 66.625 38.667969 66.699219 38.824219 66.730469 38.949219 C 66.792969 39.183594 66.757812 39.371094 66.703125 39.554688 C 66.640625 39.746094 66.5625 39.910156 66.484375 40.078125 C 66.386719 40.300781 66.289062 40.546875 66.183594 41.003906 "/>
<path style=" stroke:none;fill-rule:nonzero;fill:rgb(92.941284%,21.176147%,14.117432%);fill-opacity:1;" d="M 232.863281 37.730469 C 232.894531 38.054688 232.660156 38.339844 232.335938 38.375 C 232.011719 38.40625 231.726562 38.167969 231.695312 37.847656 C 231.671875 37.617188 231.628906 37.324219 231.59375 37.066406 C 231.574219 36.910156 231.570312 36.773438 231.570312 36.65625 C 231.574219 36.597656 231.574219 36.550781 231.585938 36.480469 C 231.59375 36.4375 231.582031 36.394531 231.671875 36.25 C 231.683594 36.234375 231.6875 36.226562 231.691406 36.21875 C 231.878906 35.953125 232.246094 35.890625 232.511719 36.078125 C 232.777344 36.269531 232.839844 36.632812 232.652344 36.898438 C 232.644531 36.90625 232.671875 36.867188 232.667969 36.875 C 232.625 36.945312 232.742188 36.703125 232.734375 36.730469 C 232.726562 36.753906 232.746094 36.667969 232.746094 36.679688 C 232.738281 36.710938 232.746094 36.660156 232.746094 36.683594 C 232.746094 36.734375 232.75 36.824219 232.761719 36.921875 C 232.792969 37.160156 232.835938 37.460938 232.863281 37.730469 M 231.714844 36.921875 C 231.515625 36.667969 231.558594 36.296875 231.8125 36.097656 C 232.066406 35.894531 232.4375 35.941406 232.636719 36.195312 C 232.660156 36.222656 232.679688 36.25 232.691406 36.273438 C 232.859375 36.574219 232.84375 36.785156 232.867188 37.09375 C 232.949219 38.09375 232.9375 39.660156 232.984375 41.144531 C 233.019531 42.1875 233.042969 43.140625 233.058594 43.871094 C 233.066406 44.25 233.042969 44.554688 233.054688 44.667969 C 233.054688 44.671875 233.015625 44.574219 233.035156 44.613281 C 233.058594 44.660156 232.785156 44.402344 232.875 44.449219 C 232.96875 44.503906 232.496094 44.417969 232.582031 44.402344 C 232.660156 44.386719 232.414062 44.480469 232.433594 44.464844 C 232.4375 44.460938 232.65625 44.101562 232.835938 43.640625 C 233.042969 43.121094 233.21875 42.457031 233.328125 41.613281 C 233.421875 40.910156 233.417969 40.050781 233.445312 39.101562 C 233.46875 38.074219 233.519531 37.003906 233.5625 36.027344 C 233.605469 35.074219 233.648438 34.226562 233.738281 33.589844 C 233.765625 33.382812 233.808594 33.195312 233.898438 33.019531 C 233.992188 32.84375 234.160156 32.644531 234.417969 32.570312 C 234.679688 32.496094 234.929688 32.578125 235.089844 32.683594 C 235.242188 32.78125 235.351562 32.90625 235.445312 33.035156 C 236 33.792969 236.652344 35.199219 237.28125 37.078125 C 237.757812 38.492188 238.128906 40.09375 238.386719 41.589844 C 238.53125 42.4375 238.582031 43.21875 238.65625 43.863281 C 238.707031 44.332031 238.789062 44.753906 238.859375 45.113281 C 238.9375 45.488281 239.007812 45.710938 239.035156 45.757812 C 239.089844 45.851562 239.140625 45.910156 239.140625 45.914062 C 239.148438 45.914062 239.089844 45.875 239.109375 45.886719 C 239.132812 45.902344 238.929688 45.820312 238.992188 45.835938 C 239.054688 45.855469 238.628906 45.863281 238.730469 45.835938 C 238.835938 45.808594 238.414062 46.058594 238.472656 45.992188 C 238.535156 45.925781 238.367188 46.195312 238.378906 46.15625 C 238.390625 46.125 238.367188 46.210938 238.367188 46.207031 C 238.367188 46.207031 238.367188 46.160156 238.355469 46.097656 C 238.332031 45.960938 238.28125 45.765625 238.210938 45.558594 C 238.097656 45.226562 237.710938 44.691406 237.167969 43.976562 C 236.972656 43.71875 237.023438 43.347656 237.28125 43.152344 C 237.539062 42.957031 237.910156 43.007812 238.105469 43.265625 C 238.652344 43.984375 239.113281 44.550781 239.328125 45.1875 C 239.40625 45.429688 239.476562 45.667969 239.515625 45.90625 C 239.535156 46.023438 239.550781 46.140625 239.542969 46.269531 C 239.535156 46.40625 239.519531 46.589844 239.347656 46.78125 C 239.191406 46.953125 238.875 47.023438 238.6875 46.972656 C 238.515625 46.925781 238.421875 46.847656 238.347656 46.777344 C 238.207031 46.648438 238.109375 46.503906 238.019531 46.34375 C 237.855469 46.066406 237.792969 45.757812 237.707031 45.34375 C 237.632812 44.972656 237.546875 44.515625 237.488281 43.996094 C 237.410156 43.316406 237.359375 42.566406 237.226562 41.789062 C 236.980469 40.34375 236.617188 38.789062 236.167969 37.449219 C 235.5625 35.648438 234.910156 34.292969 234.496094 33.726562 C 234.460938 33.675781 234.46875 33.679688 234.449219 33.667969 C 234.4375 33.660156 234.589844 33.71875 234.542969 33.707031 C 234.488281 33.695312 234.8125 33.679688 234.742188 33.699219 C 234.667969 33.71875 234.9375 33.574219 234.90625 33.605469 C 234.875 33.636719 234.949219 33.550781 234.945312 33.554688 C 234.945312 33.558594 234.917969 33.628906 234.902344 33.75 C 234.824219 34.304688 234.78125 35.132812 234.738281 36.082031 C 234.691406 37.054688 234.644531 38.121094 234.617188 39.128906 C 234.59375 40.066406 234.601562 40.953125 234.496094 41.765625 C 234.375 42.695312 234.171875 43.457031 233.929688 44.074219 C 233.734375 44.574219 233.59375 45.039062 233.171875 45.378906 C 233.074219 45.457031 232.953125 45.527344 232.796875 45.554688 C 232.640625 45.585938 232.453125 45.5625 232.300781 45.476562 C 232.003906 45.3125 231.910156 45.019531 231.886719 44.78125 C 231.855469 44.484375 231.890625 44.210938 231.882812 43.894531 C 231.867188 43.167969 231.84375 42.21875 231.808594 41.183594 C 231.742188 39.164062 231.691406 36.894531 231.664062 36.847656 C 231.65625 36.828125 231.738281 36.953125 231.714844 36.921875 "/>
<path style=" stroke:none;fill-rule:nonzero;fill:rgb(92.941284%,21.176147%,14.117432%);fill-opacity:1;" d="M 233.078125 41.6875 C 233.214844 41.980469 233.085938 42.332031 232.789062 42.464844 C 232.496094 42.601562 232.144531 42.472656 232.011719 42.179688 C 231.890625 41.921875 231.867188 41.566406 232.011719 41.289062 C 232.152344 41.019531 232.382812 40.871094 232.609375 40.769531 C 233.058594 40.566406 233.59375 40.496094 234.214844 40.453125 C 235.496094 40.359375 237.058594 40.425781 238.464844 40.453125 C 238.789062 40.457031 239.046875 40.726562 239.042969 41.050781 C 239.035156 41.375 238.769531 41.632812 238.445312 41.628906 C 237.023438 41.601562 235.480469 41.539062 234.296875 41.625 C 233.742188 41.664062 233.296875 41.746094 233.09375 41.839844 C 233.050781 41.855469 233.027344 41.875 233.023438 41.878906 C 233.019531 41.878906 233.066406 41.804688 233.050781 41.835938 C 233.03125 41.871094 233.078125 41.683594 233.078125 41.71875 C 233.082031 41.75 233.070312 41.675781 233.078125 41.6875 "/>
<path style=" stroke:none;fill-rule:nonzero;fill:rgb(7.058716%,1.176453%,46.665955%);fill-opacity:1;" d="M 26.125 91.304688 C 26.03125 91.613281 25.703125 91.789062 25.390625 91.695312 C 25.082031 91.605469 24.90625 91.277344 24.996094 90.964844 C 25.332031 89.847656 26.09375 88.390625 27.558594 88.023438 C 28.34375 87.828125 29.226562 87.96875 29.941406 88.445312 C 30.519531 88.832031 30.820312 89.492188 31.003906 90.222656 C 31.199219 90.972656 31.28125 91.847656 31.324219 92.800781 C 31.371094 93.792969 31.433594 94.929688 31.324219 96.160156 C 31.121094 98.378906 30.316406 100.683594 29.410156 102.660156 C 28.359375 104.972656 26.871094 106.617188 25.664062 107.46875 C 25.199219 107.800781 24.699219 107.984375 24.210938 107.890625 C 23.71875 107.792969 23.34375 107.359375 23.234375 106.894531 C 23.089844 106.289062 23.113281 105.582031 23.304688 104.90625 C 23.617188 103.796875 24.726562 103.273438 25.574219 102.949219 C 26.414062 102.621094 27.402344 102.460938 28.445312 102.816406 C 30.964844 103.671875 33.421875 106.660156 35.472656 108.09375 C 35.941406 108.421875 36.375 108.636719 36.746094 108.722656 C 37.097656 108.800781 37.398438 108.777344 37.683594 108.644531 C 38.289062 108.359375 38.96875 107.433594 39.542969 105.726562 C 39.644531 105.417969 39.976562 105.25 40.285156 105.355469 C 40.59375 105.457031 40.757812 105.792969 40.65625 106.097656 C 40.035156 107.953125 39.261719 109.203125 38.179688 109.710938 C 37.648438 109.957031 37.046875 109.996094 36.480469 109.867188 C 35.910156 109.734375 35.351562 109.445312 34.796875 109.058594 C 32.554688 107.488281 30.039062 104.597656 28.066406 103.929688 C 27.324219 103.675781 26.6875 103.777344 25.996094 104.042969 C 25.285156 104.320312 24.554688 104.800781 24.4375 105.226562 C 24.300781 105.710938 24.289062 106.25 24.378906 106.625 C 24.410156 106.753906 24.410156 106.730469 24.4375 106.734375 C 24.484375 106.746094 24.6875 106.722656 24.984375 106.511719 C 25.992188 105.800781 27.378906 104.289062 28.34375 102.175781 C 29.207031 100.273438 29.96875 98.070312 30.152344 96.054688 C 30.253906 94.925781 30.199219 93.847656 30.152344 92.855469 C 30.109375 91.941406 30.027344 91.136719 29.867188 90.515625 C 29.71875 89.929688 29.5 89.5625 29.289062 89.421875 C 28.867188 89.140625 28.292969 89.050781 27.84375 89.164062 C 27.042969 89.363281 26.390625 90.410156 26.125 91.304688 "/>
<path style=" stroke:none;fill-rule:nonzero;fill:rgb(7.058716%,1.176453%,46.665955%);fill-opacity:1;" d="M 30.019531 81.132812 C 30.339844 81.078125 30.640625 81.292969 30.695312 81.613281 C 30.75 81.933594 30.535156 82.238281 30.21875 82.292969 C 28.996094 82.503906 27.894531 82.214844 26.9375 82.023438 C 26.011719 81.835938 25.230469 81.753906 24.519531 82.113281 C 23.898438 82.429688 23.1875 83.285156 22.390625 84.5625 C 20.703125 87.269531 18.640625 91.40625 17.792969 95.757812 C 17.347656 98.058594 17.1875 100.351562 17.519531 102.625 C 17.917969 105.339844 19.132812 108.085938 20.589844 110.402344 C 22.003906 112.644531 23.675781 114.089844 25.402344 114.773438 C 27.09375 115.4375 28.902344 115.398438 30.648438 114.738281 C 32.289062 114.113281 33.9375 113.144531 35.644531 111.628906 C 38.601562 109.003906 41.851562 105.226562 43.191406 100.679688 C 43.675781 99.046875 43.8125 97.253906 43.738281 95.390625 C 43.617188 92.386719 42.757812 89.175781 41.53125 86.464844 C 40.507812 84.210938 39.285156 82.402344 37.929688 81.144531 C 36.617188 79.929688 35.167969 79.234375 33.683594 79.125 C 32.1875 79.011719 30.570312 79.492188 28.933594 80.617188 C 27.226562 81.796875 25.484375 83.679688 23.796875 86.269531 C 23.617188 86.539062 23.253906 86.617188 22.980469 86.4375 C 22.710938 86.261719 22.632812 85.898438 22.8125 85.625 C 24.5625 82.941406 26.394531 80.941406 28.265625 79.652344 C 30.078125 78.402344 31.972656 77.820312 33.769531 77.949219 C 35.554688 78.082031 37.261719 78.921875 38.730469 80.28125 C 40.230469 81.675781 41.527344 83.617188 42.601562 85.980469 C 43.890625 88.820312 44.78125 92.15625 44.910156 95.34375 C 44.988281 97.296875 44.847656 99.21875 44.320312 101.015625 C 42.886719 105.875 39.484375 109.789062 36.421875 112.507812 C 34.621094 114.109375 32.839844 115.164062 31.0625 115.835938 C 29.078125 116.589844 26.941406 116.640625 24.972656 115.867188 C 22.96875 115.078125 21.113281 113.4375 19.597656 111.027344 C 18.070312 108.605469 16.789062 105.730469 16.355469 102.796875 C 16 100.359375 16.175781 97.929688 16.640625 95.53125 C 17.082031 93.25 17.851562 91.035156 18.730469 89.023438 C 19.59375 87.046875 20.542969 85.308594 21.394531 83.941406 C 22.230469 82.597656 23.003906 81.5625 23.992188 81.066406 C 25.0625 80.523438 26.175781 80.671875 27.167969 80.871094 C 28.148438 81.066406 29.085938 81.292969 30.019531 81.132812 "/>
</g>
</svg>
