<?xml version="1.0" encoding="UTF-8"?>
<svg xmlns="http://www.w3.org/2000/svg" xmlns:xlink="http://www.w3.org/1999/xlink" width="225.1357pt" height="230.0044pt" viewBox="0 0 225.1357 230.0044" version="1.2">
<g id="surface1">
<path style=" stroke:none;fill-rule:nonzero;fill:rgb(7.058716%,1.176453%,46.665955%);fill-opacity:1;" d="M 111.863281 23.878906 C 111.863281 23.554688 112.128906 23.292969 112.453125 23.292969 C 112.777344 23.292969 113.039062 23.554688 113.039062 23.878906 L 113.039062 204.191406 C 113.039062 204.515625 112.777344 204.777344 112.453125 204.777344 C 112.128906 204.777344 111.863281 204.515625 111.863281 204.191406 Z M 111.863281 23.878906 "/>
<path style=" stroke:none;fill-rule:nonzero;fill:rgb(7.058716%,1.176453%,46.665955%);fill-opacity:1;" d="M 21.757812 114.121094 C 21.433594 114.121094 21.171875 113.859375 21.171875 113.535156 C 21.171875 113.210938 21.433594 112.949219 21.757812 112.949219 L 201.753906 112.949219 C 202.078125 112.949219 202.339844 113.210938 202.339844 113.535156 C 202.339844 113.859375 202.078125 114.121094 201.753906 114.121094 Z M 21.757812 114.121094 "/>
<path style=" stroke:none;fill-rule:nonzero;fill:rgb(7.058716%,1.176453%,46.665955%);fill-opacity:1;" d="M 200.367188 113.402344 L 195.730469 116.777344 L 195.730469 110.230469 Z M 200.367188 113.402344 "/>
<path style=" stroke:none;fill-rule:nonzero;fill:rgb(7.058716%,1.176453%,46.665955%);fill-opacity:1;" d="M 199.347656 113.417969 L 196.316406 111.34375 L 196.316406 115.625 Z M 200.710938 113.875 L 196.074219 117.25 C 195.6875 117.535156 195.140625 117.257812 195.140625 116.777344 L 195.140625 110.230469 C 195.140625 109.757812 195.671875 109.480469 196.058594 109.746094 L 200.695312 112.917969 C 201.03125 113.148438 201.039062 113.636719 200.710938 113.875 "/>
<path style=" stroke:none;fill-rule:nonzero;fill:rgb(7.058716%,1.176453%,46.665955%);fill-opacity:1;" d="M 112.453125 23.878906 L 115.261719 28.265625 L 109.75 28.265625 Z M 112.453125 23.878906 "/>
<path style=" stroke:none;fill-rule:nonzero;fill:rgb(7.058716%,1.176453%,46.665955%);fill-opacity:1;" d="M 112.460938 24.980469 L 110.800781 27.679688 L 114.1875 27.679688 Z M 112.945312 23.5625 L 115.753906 27.949219 C 116.003906 28.339844 115.722656 28.851562 115.261719 28.851562 L 109.75 28.851562 C 109.292969 28.851562 109.011719 28.347656 109.25 27.957031 L 111.953125 23.570312 C 112.179688 23.203125 112.710938 23.199219 112.945312 23.5625 "/>
<path style=" stroke:none;fill-rule:nonzero;fill:rgb(7.058716%,1.176453%,46.665955%);fill-opacity:1;" d="M 164.632812 108.90625 C 164.632812 108.582031 164.894531 108.320312 165.21875 108.320312 C 165.542969 108.320312 165.804688 108.582031 165.804688 108.90625 L 165.804688 118.332031 C 165.804688 118.65625 165.542969 118.917969 165.21875 118.917969 C 164.894531 118.917969 164.632812 118.65625 164.632812 118.332031 Z M 164.632812 108.90625 "/>
<path style=" stroke:none;fill-rule:nonzero;fill:rgb(7.058716%,1.176453%,46.665955%);fill-opacity:1;" d="M 57.113281 109.324219 C 57.113281 109 57.375 108.738281 57.699219 108.738281 C 58.023438 108.738281 58.285156 109 58.285156 109.324219 L 58.285156 118.746094 C 58.285156 119.070312 58.023438 119.332031 57.699219 119.332031 C 57.375 119.332031 57.113281 119.070312 57.113281 118.746094 Z M 57.113281 109.324219 "/>
<path style=" stroke:none;fill-rule:nonzero;fill:rgb(7.058716%,1.176453%,46.665955%);fill-opacity:1;" d="M 107.734375 59.179688 C 107.410156 59.179688 107.148438 58.917969 107.148438 58.59375 C 107.148438 58.269531 107.410156 58.007812 107.734375 58.007812 L 117.238281 58.007812 C 117.5625 58.007812 117.828125 58.269531 117.828125 58.59375 C 117.828125 58.917969 117.5625 59.179688 117.238281 59.179688 Z M 107.734375 59.179688 "/>
<path style=" stroke:none;fill-rule:nonzero;fill:rgb(7.058716%,1.176453%,46.665955%);fill-opacity:1;" d="M 107.699219 167.632812 C 107.375 167.632812 107.113281 167.371094 107.113281 167.046875 C 107.113281 166.722656 107.375 166.460938 107.699219 166.460938 L 117.203125 166.460938 C 117.527344 166.460938 117.789062 166.722656 117.789062 167.046875 C 117.789062 167.371094 117.527344 167.632812 117.203125 167.632812 Z M 107.699219 167.632812 "/>
<path style=" stroke:none;fill-rule:nonzero;fill:rgb(7.058716%,1.176453%,46.665955%);fill-opacity:1;" d="M 192.777344 129.058594 C 192.777344 129.382812 192.515625 129.648438 192.191406 129.648438 C 191.867188 129.648438 191.605469 129.382812 191.605469 129.058594 C 191.605469 128.734375 191.867188 128.472656 192.191406 128.472656 C 192.515625 128.472656 192.777344 128.734375 192.777344 129.058594 M 190.964844 123.363281 C 190.699219 123.179688 190.632812 122.8125 190.816406 122.546875 C 191.003906 122.28125 191.367188 122.214844 191.632812 122.398438 C 191.859375 122.554688 192.140625 122.867188 192.269531 123.3125 C 192.363281 123.648438 192.355469 123.949219 192.398438 124.292969 C 192.488281 125.054688 192.761719 126.085938 192.867188 127.0625 C 192.917969 127.53125 192.925781 127.964844 192.898438 128.351562 C 192.882812 128.601562 192.839844 128.808594 192.808594 128.964844 C 192.792969 129.035156 192.777344 129.09375 192.769531 129.125 C 192.769531 129.136719 192.773438 129.097656 192.769531 129.121094 C 192.769531 129.136719 192.777344 129.019531 192.773438 129.054688 C 192.773438 129.078125 192.765625 128.933594 192.769531 128.972656 C 192.773438 129.011719 192.683594 128.730469 192.71875 128.804688 C 192.859375 129.097656 192.734375 129.445312 192.445312 129.585938 C 192.152344 129.726562 191.800781 129.605469 191.660156 129.3125 C 191.53125 129.046875 191.601562 129 191.609375 128.957031 C 191.613281 128.914062 191.621094 128.890625 191.625 128.867188 C 191.636719 128.820312 191.648438 128.769531 191.660156 128.710938 C 191.6875 128.589844 191.714844 128.4375 191.730469 128.269531 C 191.75 127.960938 191.746094 127.589844 191.699219 127.1875 C 191.605469 126.332031 191.339844 125.3125 191.234375 124.433594 C 191.183594 124.035156 191.167969 123.738281 191.140625 123.632812 C 191.085938 123.4375 191.046875 123.421875 190.964844 123.363281 "/>
<path style=" stroke:none;fill-rule:nonzero;fill:rgb(7.058716%,1.176453%,46.665955%);fill-opacity:1;" d="M 193.082031 123.292969 C 192.8125 123.113281 192.742188 122.746094 192.921875 122.476562 C 193.101562 122.207031 193.464844 122.136719 193.734375 122.316406 C 193.957031 122.464844 194.269531 122.738281 194.390625 123.125 C 194.503906 123.484375 194.5625 123.933594 194.621094 124.523438 C 194.675781 125.09375 194.710938 125.734375 194.761719 126.34375 C 194.800781 126.8125 194.84375 127.246094 194.898438 127.597656 C 195.011719 128.355469 195.148438 128.441406 195.3125 128.703125 C 195.484375 128.976562 195.402344 129.339844 195.125 129.511719 C 194.851562 129.683594 194.488281 129.597656 194.316406 129.324219 C 194.277344 129.257812 193.878906 128.730469 193.738281 127.773438 C 193.679688 127.378906 193.632812 126.925781 193.589844 126.4375 C 193.539062 125.8125 193.503906 125.175781 193.453125 124.636719 C 193.398438 124.078125 193.335938 123.679688 193.273438 123.480469 C 193.230469 123.347656 193.28125 123.421875 193.082031 123.292969 "/>
<path style=" stroke:none;fill-rule:nonzero;fill:rgb(7.058716%,1.176453%,46.665955%);fill-opacity:1;" d="M 191.523438 121.542969 C 191.839844 121.617188 192.035156 121.929688 191.964844 122.246094 C 191.894531 122.5625 191.582031 122.761719 191.265625 122.6875 C 190.953125 122.617188 190.710938 122.417969 190.558594 122.148438 C 190.40625 121.871094 190.363281 121.488281 190.503906 121.148438 C 190.765625 120.5 191.394531 120.121094 192.109375 119.753906 C 192.558594 119.523438 193.097656 119.277344 193.742188 119.195312 C 194.425781 119.109375 195.152344 119.234375 195.824219 119.539062 C 196.300781 119.753906 196.664062 120.085938 196.972656 120.382812 C 197.398438 120.785156 197.710938 121.242188 197.921875 121.675781 C 198.144531 122.128906 198.210938 122.617188 198.09375 123.046875 C 197.980469 123.46875 197.714844 123.808594 197.410156 124.082031 C 196.6875 124.730469 195.738281 125.285156 194.914062 125.597656 C 194.453125 125.773438 194.027344 125.921875 193.542969 125.710938 C 193.285156 125.597656 193.058594 125.273438 193.046875 124.980469 C 193.03125 124.703125 193.125 124.46875 193.253906 124.238281 C 193.40625 123.953125 193.765625 123.847656 194.046875 124.003906 C 194.332031 124.160156 194.4375 124.515625 194.28125 124.800781 C 194.214844 124.921875 194.214844 124.867188 194.21875 124.921875 C 194.21875 124.960938 194.113281 124.691406 194.15625 124.753906 C 194.199219 124.816406 193.980469 124.621094 194.015625 124.636719 C 194.078125 124.664062 193.988281 124.628906 194.078125 124.617188 C 194.179688 124.605469 194.328125 124.566406 194.496094 124.5 C 195.164062 124.25 196.046875 123.730469 196.628906 123.207031 C 196.820312 123.035156 196.925781 122.878906 196.960938 122.742188 C 197 122.605469 196.992188 122.445312 196.867188 122.1875 C 196.714844 121.878906 196.476562 121.53125 196.160156 121.230469 C 195.882812 120.964844 195.601562 120.726562 195.339844 120.609375 C 194.851562 120.386719 194.332031 120.304688 193.886719 120.359375 C 193.453125 120.414062 193.042969 120.589844 192.648438 120.796875 C 192.042969 121.109375 191.628906 121.5 191.589844 121.589844 C 191.582031 121.609375 191.578125 121.570312 191.582031 121.578125 C 191.585938 121.582031 191.460938 121.53125 191.523438 121.542969 "/>
<path style=" stroke:none;fill-rule:nonzero;fill:rgb(7.058716%,1.176453%,46.665955%);fill-opacity:1;" d="M 194.242188 126.476562 C 193.917969 126.445312 193.683594 126.15625 193.714844 125.835938 C 193.75 125.511719 194.035156 125.277344 194.359375 125.308594 C 194.429688 125.316406 194.34375 125.304688 194.652344 125.140625 C 194.90625 125.007812 195.183594 124.988281 195.449219 125.011719 C 195.835938 125.046875 196.308594 125.183594 196.804688 125.480469 C 197.378906 125.828125 197.859375 126.347656 198.300781 126.84375 C 198.664062 127.253906 198.976562 127.675781 199.230469 128.066406 C 199.574219 128.601562 199.765625 129.066406 199.890625 129.40625 C 200.007812 129.714844 200.03125 129.796875 200.0625 129.820312 C 200.3125 130.027344 200.351562 130.394531 200.148438 130.648438 C 199.941406 130.898438 199.574219 130.9375 199.320312 130.734375 C 198.664062 130.199219 198.796875 129.554688 198.246094 128.707031 C 198.019531 128.359375 197.742188 127.980469 197.425781 127.625 C 197.003906 127.152344 196.574219 126.710938 196.203125 126.488281 C 195.855469 126.28125 195.550781 126.199219 195.34375 126.183594 C 195.210938 126.171875 195.226562 126.164062 195.203125 126.175781 C 195.125 126.21875 194.761719 126.53125 194.242188 126.476562 "/>
<path style=" stroke:none;fill-rule:nonzero;fill:rgb(7.058716%,1.176453%,46.665955%);fill-opacity:1;" d="M 101.378906 29.199219 C 101.308594 29.515625 101 29.71875 100.679688 29.648438 C 100.363281 29.582031 100.164062 29.269531 100.230469 28.953125 C 100.25 28.863281 100.269531 28.777344 100.304688 28.6875 C 100.34375 28.597656 100.371094 28.464844 100.589844 28.328125 C 100.832031 28.171875 101.261719 28.308594 101.382812 28.445312 C 101.492188 28.558594 101.519531 28.644531 101.546875 28.722656 C 101.660156 29.019531 101.707031 29.378906 101.769531 29.835938 C 101.847656 30.425781 101.925781 31.125 101.972656 31.824219 C 102.007812 32.367188 102.039062 32.902344 102.007812 33.414062 C 101.941406 34.4375 101.417969 35.214844 100.84375 35.671875 C 100.53125 35.921875 100.199219 36.144531 99.773438 36.203125 C 99.335938 36.261719 98.824219 36.011719 98.566406 35.597656 C 98.398438 35.320312 98.484375 34.960938 98.757812 34.789062 C 99.035156 34.617188 99.394531 34.703125 99.566406 34.980469 C 99.636719 35.097656 99.578125 35.046875 99.617188 35.042969 C 99.683594 35.03125 99.882812 34.9375 100.109375 34.757812 C 100.472656 34.46875 100.792969 34.007812 100.835938 33.339844 C 100.863281 32.925781 100.835938 32.429688 100.800781 31.902344 C 100.757812 31.238281 100.679688 30.558594 100.605469 29.992188 C 100.546875 29.5625 100.476562 29.214844 100.449219 29.136719 C 100.449219 29.132812 100.460938 29.160156 100.457031 29.148438 C 100.445312 29.132812 100.558594 29.28125 100.519531 29.234375 C 100.492188 29.210938 100.648438 29.339844 100.605469 29.3125 C 100.539062 29.265625 101.019531 29.410156 100.898438 29.40625 C 100.773438 29.402344 101.296875 29.269531 101.21875 29.320312 C 101.164062 29.351562 101.347656 29.207031 101.320312 29.230469 C 101.285156 29.269531 101.394531 29.125 101.382812 29.144531 C 101.375 29.164062 101.398438 29.113281 101.398438 29.117188 C 101.398438 29.121094 101.390625 29.144531 101.378906 29.199219 "/>
<path style=" stroke:none;fill-rule:nonzero;fill:rgb(7.058716%,1.176453%,46.665955%);fill-opacity:1;" d="M 100.660156 26.003906 C 100.664062 26.328125 100.40625 26.597656 100.082031 26.601562 C 99.757812 26.609375 99.492188 26.351562 99.484375 26.027344 C 99.46875 25.1875 99.226562 24.828125 98.75 23.757812 C 98.617188 23.460938 98.75 23.113281 99.046875 22.984375 C 99.34375 22.851562 99.691406 22.984375 99.820312 23.28125 C 100.277344 24.304688 100.640625 24.9375 100.660156 26.003906 "/>
<path style=" stroke:none;fill-rule:nonzero;fill:rgb(92.941284%,21.176147%,14.117432%);fill-opacity:1;" d="M 168.652344 167.046875 C 168.652344 168.3125 167.96875 169.417969 166.949219 170.011719 C 166.441406 170.308594 165.847656 170.480469 165.21875 170.480469 C 163.953125 170.480469 162.847656 169.796875 162.25 168.777344 C 161.953125 168.269531 161.785156 167.675781 161.785156 167.046875 C 161.785156 165.78125 162.46875 164.675781 163.488281 164.078125 C 163.996094 163.785156 164.585938 163.613281 165.21875 163.613281 C 166.484375 163.613281 167.589844 164.296875 168.183594 165.316406 C 168.480469 165.824219 168.652344 166.414062 168.652344 167.046875 M 167.085938 167.046875 C 167.085938 166.703125 166.996094 166.382812 166.832031 166.105469 C 166.507812 165.550781 165.90625 165.175781 165.21875 165.175781 C 164.875 165.175781 164.554688 165.269531 164.277344 165.429688 C 163.722656 165.753906 163.347656 166.355469 163.347656 167.046875 C 163.347656 167.390625 163.441406 167.710938 163.601562 167.988281 C 163.925781 168.542969 164.527344 168.917969 165.21875 168.917969 C 165.5625 168.917969 165.882812 168.824219 166.160156 168.664062 C 166.714844 168.339844 167.085938 167.734375 167.085938 167.046875 "/>
<path style=" stroke:none;fill-rule:nonzero;fill:rgb(92.941284%,21.176147%,14.117432%);fill-opacity:1;" d="M 168.652344 131.355469 C 168.652344 132.621094 167.96875 133.726562 166.949219 134.324219 C 166.441406 134.621094 165.847656 134.789062 165.21875 134.789062 C 163.953125 134.789062 162.847656 134.105469 162.25 133.085938 C 161.953125 132.578125 161.785156 131.988281 161.785156 131.355469 C 161.785156 130.089844 162.46875 128.984375 163.488281 128.390625 C 163.996094 128.09375 164.585938 127.921875 165.21875 127.921875 C 166.484375 127.921875 167.589844 128.605469 168.183594 129.625 C 168.480469 130.132812 168.652344 130.726562 168.652344 131.355469 M 167.085938 131.355469 C 167.085938 131.011719 166.996094 130.691406 166.832031 130.414062 C 166.507812 129.859375 165.90625 129.488281 165.21875 129.488281 C 164.875 129.488281 164.554688 129.578125 164.277344 129.742188 C 163.722656 130.066406 163.347656 130.667969 163.347656 131.355469 C 163.347656 131.699219 163.441406 132.019531 163.601562 132.296875 C 163.925781 132.851562 164.527344 133.226562 165.21875 133.226562 C 165.5625 133.226562 165.882812 133.132812 166.160156 132.972656 C 166.714844 132.648438 167.085938 132.046875 167.085938 131.355469 "/>
<path style=" stroke:none;fill-rule:nonzero;fill:rgb(92.941284%,21.176147%,14.117432%);fill-opacity:1;" d="M 133.285156 131.355469 C 133.285156 132.621094 132.597656 133.726562 131.582031 134.324219 C 131.070312 134.621094 130.480469 134.789062 129.851562 134.789062 C 128.585938 134.789062 127.480469 134.105469 126.882812 133.085938 C 126.585938 132.578125 126.417969 131.988281 126.417969 131.355469 C 126.417969 130.089844 127.101562 128.984375 128.121094 128.390625 C 128.628906 128.09375 129.21875 127.921875 129.851562 127.921875 C 131.117188 127.921875 132.222656 128.605469 132.816406 129.625 C 133.113281 130.132812 133.285156 130.726562 133.285156 131.355469 M 131.71875 131.355469 C 131.71875 131.011719 131.628906 130.691406 131.464844 130.414062 C 131.140625 129.859375 130.539062 129.488281 129.851562 129.488281 C 129.507812 129.488281 129.183594 129.578125 128.910156 129.742188 C 128.355469 130.066406 127.980469 130.667969 127.980469 131.355469 C 127.980469 131.699219 128.074219 132.019531 128.234375 132.296875 C 128.558594 132.851562 129.160156 133.226562 129.851562 133.226562 C 130.191406 133.226562 130.515625 133.132812 130.792969 132.972656 C 131.347656 132.648438 131.71875 132.046875 131.71875 131.355469 "/>
<path style=" stroke:none;fill-rule:nonzero;fill:rgb(92.941284%,21.176147%,14.117432%);fill-opacity:1;" d="M 133.285156 167.046875 C 133.285156 168.3125 132.597656 169.417969 131.582031 170.011719 C 131.070312 170.308594 130.480469 170.480469 129.851562 170.480469 C 128.585938 170.480469 127.480469 169.796875 126.882812 168.777344 C 126.585938 168.269531 126.417969 167.675781 126.417969 167.046875 C 126.417969 165.78125 127.101562 164.675781 128.121094 164.078125 C 128.628906 163.785156 129.21875 163.613281 129.851562 163.613281 C 131.117188 163.613281 132.222656 164.296875 132.816406 165.316406 C 133.113281 165.824219 133.285156 166.414062 133.285156 167.046875 M 131.71875 167.046875 C 131.71875 166.703125 131.628906 166.382812 131.464844 166.105469 C 131.140625 165.550781 130.539062 165.175781 129.851562 165.175781 C 129.507812 165.175781 129.183594 165.269531 128.910156 165.429688 C 128.355469 165.753906 127.980469 166.355469 127.980469 167.046875 C 127.980469 167.390625 128.074219 167.710938 128.234375 167.988281 C 128.558594 168.542969 129.160156 168.917969 129.851562 168.917969 C 130.191406 168.917969 130.515625 168.824219 130.792969 168.664062 C 131.347656 168.339844 131.71875 167.734375 131.71875 167.046875 "/>
<path style=" stroke:none;fill-rule:nonzero;fill:rgb(92.941284%,21.176147%,14.117432%);fill-opacity:1;" d="M 168.652344 95.550781 C 168.652344 96.816406 167.96875 97.925781 166.949219 98.519531 C 166.441406 98.816406 165.847656 98.988281 165.21875 98.988281 C 163.953125 98.988281 162.847656 98.300781 162.25 97.28125 C 161.953125 96.773438 161.785156 96.183594 161.785156 95.550781 C 161.785156 94.289062 162.46875 93.179688 163.488281 92.585938 C 163.996094 92.289062 164.585938 92.117188 165.21875 92.117188 C 166.484375 92.117188 167.589844 92.804688 168.183594 93.824219 C 168.480469 94.332031 168.652344 94.921875 168.652344 95.550781 M 167.085938 95.550781 C 167.085938 95.210938 166.996094 94.886719 166.832031 94.613281 C 166.507812 94.058594 165.90625 93.683594 165.21875 93.683594 C 164.875 93.683594 164.554688 93.777344 164.277344 93.9375 C 163.722656 94.261719 163.347656 94.863281 163.347656 95.550781 C 163.347656 95.894531 163.441406 96.21875 163.601562 96.492188 C 163.925781 97.046875 164.527344 97.421875 165.21875 97.421875 C 165.5625 97.421875 165.882812 97.328125 166.160156 97.167969 C 166.714844 96.84375 167.085938 96.242188 167.085938 95.550781 "/>
<path style=" stroke:none;fill-rule:nonzero;fill:rgb(92.941284%,21.176147%,14.117432%);fill-opacity:1;" d="M 133 95.550781 C 133 96.816406 132.316406 97.925781 131.296875 98.519531 C 130.789062 98.816406 130.195312 98.988281 129.566406 98.988281 C 128.300781 98.988281 127.195312 98.300781 126.597656 97.28125 C 126.300781 96.773438 126.132812 96.183594 126.132812 95.550781 C 126.132812 94.289062 126.816406 93.179688 127.835938 92.585938 C 128.34375 92.289062 128.933594 92.117188 129.566406 92.117188 C 130.832031 92.117188 131.9375 92.804688 132.53125 93.824219 C 132.828125 94.332031 133 94.921875 133 95.550781 M 131.433594 95.550781 C 131.433594 95.210938 131.34375 94.886719 131.179688 94.613281 C 130.855469 94.058594 130.253906 93.683594 129.566406 93.683594 C 129.222656 93.683594 128.898438 93.777344 128.625 93.9375 C 128.070312 94.261719 127.695312 94.863281 127.695312 95.550781 C 127.695312 95.894531 127.789062 96.21875 127.949219 96.492188 C 128.273438 97.046875 128.875 97.421875 129.566406 97.421875 C 129.90625 97.421875 130.230469 97.328125 130.507812 97.167969 C 131.0625 96.84375 131.433594 96.242188 131.433594 95.550781 "/>
<path style=" stroke:none;fill-rule:nonzero;fill:rgb(92.941284%,21.176147%,14.117432%);fill-opacity:1;" d="M 168.652344 59.328125 C 168.652344 60.59375 167.96875 61.699219 166.949219 62.296875 C 166.441406 62.59375 165.847656 62.761719 165.21875 62.761719 C 163.953125 62.761719 162.847656 62.078125 162.25 61.058594 C 161.953125 60.550781 161.785156 59.960938 161.785156 59.328125 C 161.785156 58.0625 162.46875 56.957031 163.488281 56.363281 C 163.996094 56.066406 164.585938 55.894531 165.21875 55.894531 C 166.484375 55.894531 167.589844 56.582031 168.183594 57.597656 C 168.480469 58.109375 168.652344 58.699219 168.652344 59.328125 M 167.085938 59.328125 C 167.085938 58.988281 166.996094 58.664062 166.832031 58.386719 C 166.507812 57.832031 165.90625 57.460938 165.21875 57.460938 C 164.875 57.460938 164.554688 57.550781 164.277344 57.714844 C 163.722656 58.039062 163.347656 58.640625 163.347656 59.328125 C 163.347656 59.671875 163.441406 59.996094 163.601562 60.269531 C 163.925781 60.824219 164.527344 61.199219 165.21875 61.199219 C 165.5625 61.199219 165.882812 61.105469 166.160156 60.945312 C 166.714844 60.621094 167.085938 60.019531 167.085938 59.328125 "/>
<path style=" stroke:none;fill-rule:nonzero;fill:rgb(92.941284%,21.176147%,14.117432%);fill-opacity:1;" d="M 133 59.328125 C 133 60.59375 132.316406 61.699219 131.296875 62.296875 C 130.789062 62.59375 130.195312 62.761719 129.566406 62.761719 C 128.300781 62.761719 127.195312 62.078125 126.597656 61.058594 C 126.300781 60.550781 126.132812 59.960938 126.132812 59.328125 C 126.132812 58.0625 126.816406 56.957031 127.835938 56.363281 C 128.34375 56.066406 128.933594 55.894531 129.566406 55.894531 C 130.832031 55.894531 131.9375 56.582031 132.53125 57.597656 C 132.828125 58.109375 133 58.699219 133 59.328125 M 131.433594 59.328125 C 131.433594 58.988281 131.34375 58.664062 131.179688 58.386719 C 130.855469 57.832031 130.253906 57.460938 129.566406 57.460938 C 129.222656 57.460938 128.898438 57.550781 128.625 57.714844 C 128.070312 58.039062 127.695312 58.640625 127.695312 59.328125 C 127.695312 59.671875 127.789062 59.996094 127.949219 60.269531 C 128.273438 60.824219 128.875 61.199219 129.566406 61.199219 C 129.90625 61.199219 130.230469 61.105469 130.507812 60.945312 C 131.0625 60.621094 131.433594 60.019531 131.433594 59.328125 "/>
<path style=" stroke:none;fill-rule:nonzero;fill:rgb(92.941284%,21.176147%,14.117432%);fill-opacity:1;" d="M 96.785156 94.816406 C 96.785156 96.082031 96.101562 97.1875 95.082031 97.785156 C 94.574219 98.082031 93.980469 98.25 93.351562 98.25 C 92.085938 98.25 90.980469 97.566406 90.382812 96.546875 C 90.085938 96.039062 89.917969 95.449219 89.917969 94.816406 C 89.917969 93.550781 90.601562 92.445312 91.621094 91.851562 C 92.128906 91.554688 92.71875 91.382812 93.351562 91.382812 C 94.617188 91.382812 95.722656 92.070312 96.316406 93.085938 C 96.613281 93.597656 96.785156 94.1875 96.785156 94.816406 M 95.21875 94.816406 C 95.21875 94.476562 95.128906 94.152344 94.96875 93.875 C 94.644531 93.320312 94.039062 92.949219 93.351562 92.949219 C 93.007812 92.949219 92.6875 93.039062 92.410156 93.203125 C 91.855469 93.527344 91.480469 94.128906 91.480469 94.816406 C 91.480469 95.160156 91.574219 95.484375 91.734375 95.757812 C 92.058594 96.3125 92.660156 96.6875 93.351562 96.6875 C 93.695312 96.6875 94.015625 96.59375 94.292969 96.433594 C 94.847656 96.109375 95.21875 95.507812 95.21875 94.816406 "/>
<path style=" stroke:none;fill-rule:nonzero;fill:rgb(92.941284%,21.176147%,14.117432%);fill-opacity:1;" d="M 61.132812 94.816406 C 61.132812 96.082031 60.449219 97.1875 59.429688 97.785156 C 58.921875 98.082031 58.328125 98.25 57.699219 98.25 C 56.433594 98.25 55.328125 97.566406 54.730469 96.546875 C 54.433594 96.039062 54.265625 95.449219 54.265625 94.816406 C 54.265625 93.550781 54.949219 92.445312 55.96875 91.851562 C 56.476562 91.554688 57.066406 91.382812 57.699219 91.382812 C 58.964844 91.382812 60.070312 92.070312 60.664062 93.085938 C 60.960938 93.597656 61.132812 94.1875 61.132812 94.816406 M 59.566406 94.816406 C 59.566406 94.476562 59.476562 94.152344 59.3125 93.875 C 58.988281 93.320312 58.386719 92.949219 57.699219 92.949219 C 57.355469 92.949219 57.035156 93.039062 56.757812 93.203125 C 56.203125 93.527344 55.828125 94.128906 55.828125 94.816406 C 55.828125 95.160156 55.921875 95.484375 56.082031 95.757812 C 56.40625 96.3125 57.007812 96.6875 57.699219 96.6875 C 58.042969 96.6875 58.363281 96.59375 58.640625 96.433594 C 59.195312 96.109375 59.566406 95.507812 59.566406 94.816406 "/>
<path style=" stroke:none;fill-rule:nonzero;fill:rgb(92.941284%,21.176147%,14.117432%);fill-opacity:1;" d="M 96.785156 58.59375 C 96.785156 59.859375 96.101562 60.964844 95.082031 61.5625 C 94.574219 61.859375 93.980469 62.027344 93.351562 62.027344 C 92.085938 62.027344 90.980469 61.34375 90.382812 60.324219 C 90.085938 59.816406 89.917969 59.226562 89.917969 58.59375 C 89.917969 57.328125 90.601562 56.222656 91.621094 55.628906 C 92.128906 55.332031 92.71875 55.160156 93.351562 55.160156 C 94.617188 55.160156 95.722656 55.84375 96.316406 56.863281 C 96.613281 57.371094 96.785156 57.964844 96.785156 58.59375 M 95.21875 58.59375 C 95.21875 58.25 95.128906 57.929688 94.96875 57.652344 C 94.644531 57.097656 94.039062 56.726562 93.351562 56.726562 C 93.007812 56.726562 92.6875 56.816406 92.410156 56.980469 C 91.855469 57.304688 91.480469 57.90625 91.480469 58.59375 C 91.480469 58.9375 91.574219 59.257812 91.734375 59.535156 C 92.058594 60.089844 92.660156 60.464844 93.351562 60.464844 C 93.695312 60.464844 94.015625 60.371094 94.292969 60.210938 C 94.847656 59.886719 95.21875 59.285156 95.21875 58.59375 "/>
<path style=" stroke:none;fill-rule:nonzero;fill:rgb(92.941284%,21.176147%,14.117432%);fill-opacity:1;" d="M 61.132812 58.59375 C 61.132812 59.859375 60.449219 60.964844 59.429688 61.5625 C 58.921875 61.859375 58.328125 62.027344 57.699219 62.027344 C 56.433594 62.027344 55.328125 61.34375 54.730469 60.324219 C 54.433594 59.816406 54.265625 59.226562 54.265625 58.59375 C 54.265625 57.328125 54.949219 56.222656 55.96875 55.628906 C 56.476562 55.332031 57.066406 55.160156 57.699219 55.160156 C 58.964844 55.160156 60.070312 55.84375 60.664062 56.863281 C 60.960938 57.371094 61.132812 57.964844 61.132812 58.59375 M 59.566406 58.59375 C 59.566406 58.25 59.476562 57.929688 59.3125 57.652344 C 58.988281 57.097656 58.386719 56.726562 57.699219 56.726562 C 57.355469 56.726562 57.035156 56.816406 56.757812 56.980469 C 56.203125 57.304688 55.828125 57.90625 55.828125 58.59375 C 55.828125 58.9375 55.921875 59.257812 56.082031 59.535156 C 56.40625 60.089844 57.007812 60.464844 57.699219 60.464844 C 58.042969 60.464844 58.363281 60.371094 58.640625 60.210938 C 59.195312 59.886719 59.566406 59.285156 59.566406 58.59375 "/>
<path style=" stroke:none;fill-rule:nonzero;fill:rgb(92.941284%,21.176147%,14.117432%);fill-opacity:1;" d="M 96.785156 167.046875 C 96.785156 168.3125 96.101562 169.417969 95.082031 170.011719 C 94.574219 170.308594 93.980469 170.480469 93.351562 170.480469 C 92.085938 170.480469 90.980469 169.796875 90.382812 168.777344 C 90.085938 168.269531 89.917969 167.675781 89.917969 167.046875 C 89.917969 165.78125 90.601562 164.675781 91.621094 164.078125 C 92.128906 163.785156 92.71875 163.613281 93.351562 163.613281 C 94.617188 163.613281 95.722656 164.296875 96.316406 165.316406 C 96.613281 165.824219 96.785156 166.414062 96.785156 167.046875 M 95.21875 167.046875 C 95.21875 166.703125 95.128906 166.382812 94.96875 166.105469 C 94.644531 165.550781 94.039062 165.175781 93.351562 165.175781 C 93.007812 165.175781 92.6875 165.269531 92.410156 165.429688 C 91.855469 165.753906 91.480469 166.355469 91.480469 167.046875 C 91.480469 167.390625 91.574219 167.710938 91.734375 167.988281 C 92.058594 168.542969 92.660156 168.917969 93.351562 168.917969 C 93.695312 168.917969 94.015625 168.824219 94.292969 168.664062 C 94.847656 168.339844 95.21875 167.734375 95.21875 167.046875 "/>
<path style=" stroke:none;fill-rule:nonzero;fill:rgb(92.941284%,21.176147%,14.117432%);fill-opacity:1;" d="M 61.132812 167.046875 C 61.132812 168.3125 60.449219 169.417969 59.429688 170.011719 C 58.921875 170.308594 58.328125 170.480469 57.699219 170.480469 C 56.433594 170.480469 55.328125 169.796875 54.730469 168.777344 C 54.433594 168.269531 54.265625 167.675781 54.265625 167.046875 C 54.265625 165.78125 54.949219 164.675781 55.96875 164.078125 C 56.476562 163.785156 57.066406 163.613281 57.699219 163.613281 C 58.964844 163.613281 60.070312 164.296875 60.664062 165.316406 C 60.960938 165.824219 61.132812 166.414062 61.132812 167.046875 M 59.566406 167.046875 C 59.566406 166.703125 59.476562 166.382812 59.3125 166.105469 C 58.988281 165.550781 58.386719 165.175781 57.699219 165.175781 C 57.355469 165.175781 57.035156 165.269531 56.757812 165.429688 C 56.203125 165.753906 55.828125 166.355469 55.828125 167.046875 C 55.828125 167.390625 55.921875 167.710938 56.082031 167.988281 C 56.40625 168.542969 57.007812 168.917969 57.699219 168.917969 C 58.042969 168.917969 58.363281 168.824219 58.640625 168.664062 C 59.195312 168.339844 59.566406 167.734375 59.566406 167.046875 "/>
<path style=" stroke:none;fill-rule:nonzero;fill:rgb(92.941284%,21.176147%,14.117432%);fill-opacity:1;" d="M 96.785156 130.824219 C 96.785156 132.089844 96.101562 133.195312 95.082031 133.789062 C 94.574219 134.085938 93.980469 134.257812 93.351562 134.257812 C 92.085938 134.257812 90.980469 133.574219 90.382812 132.554688 C 90.085938 132.046875 89.917969 131.453125 89.917969 130.824219 C 89.917969 129.558594 90.601562 128.453125 91.621094 127.855469 C 92.128906 127.558594 92.71875 127.390625 93.351562 127.390625 C 94.617188 127.390625 95.722656 128.074219 96.316406 129.09375 C 96.613281 129.601562 96.785156 130.191406 96.785156 130.824219 M 95.21875 130.824219 C 95.21875 130.480469 95.128906 130.160156 94.96875 129.882812 C 94.644531 129.328125 94.039062 128.953125 93.351562 128.953125 C 93.007812 128.953125 92.6875 129.046875 92.410156 129.207031 C 91.855469 129.53125 91.480469 130.132812 91.480469 130.824219 C 91.480469 131.167969 91.574219 131.488281 91.734375 131.765625 C 92.058594 132.320312 92.660156 132.691406 93.351562 132.691406 C 93.695312 132.691406 94.015625 132.601562 94.292969 132.4375 C 94.847656 132.113281 95.21875 131.511719 95.21875 130.824219 "/>
<path style=" stroke:none;fill-rule:nonzero;fill:rgb(92.941284%,21.176147%,14.117432%);fill-opacity:1;" d="M 61.132812 130.824219 C 61.132812 132.089844 60.449219 133.195312 59.429688 133.789062 C 58.921875 134.085938 58.328125 134.257812 57.699219 134.257812 C 56.433594 134.257812 55.328125 133.574219 54.730469 132.554688 C 54.433594 132.046875 54.265625 131.453125 54.265625 130.824219 C 54.265625 129.558594 54.949219 128.453125 55.96875 127.855469 C 56.476562 127.558594 57.066406 127.390625 57.699219 127.390625 C 58.964844 127.390625 60.070312 128.074219 60.664062 129.09375 C 60.960938 129.601562 61.132812 130.191406 61.132812 130.824219 M 59.566406 130.824219 C 59.566406 130.480469 59.476562 130.160156 59.3125 129.882812 C 58.988281 129.328125 58.386719 128.953125 57.699219 128.953125 C 57.355469 128.953125 57.035156 129.046875 56.757812 129.207031 C 56.203125 129.53125 55.828125 130.132812 55.828125 130.824219 C 55.828125 131.167969 55.921875 131.488281 56.082031 131.765625 C 56.40625 132.320312 57.007812 132.691406 57.699219 132.691406 C 58.042969 132.691406 58.363281 132.601562 58.640625 132.4375 C 59.195312 132.113281 59.566406 131.511719 59.566406 130.824219 "/>
</g>
</svg>
