<?xml version="1.0" encoding="UTF-8"?>
<svg xmlns="http://www.w3.org/2000/svg" xmlns:xlink="http://www.w3.org/1999/xlink" width="217.4718pt" height="204.4599pt" viewBox="0 0 217.4718 204.4599" version="1.2">
<defs>
<clipPath id="clip1">
  <path d="M 31 20 L 186 20 L 186 176 L 31 176 Z M 31 20 "/>
</clipPath>
<clipPath id="clip2">
  <path d="M 185.765625 97.828125 C 185.765625 126.277344 170.375 151.128906 147.464844 164.515625 C 136.046875 171.183594 122.765625 175.007812 108.589844 175.007812 C 80.140625 175.007812 55.285156 159.613281 41.902344 136.703125 C 35.230469 125.285156 31.410156 112.003906 31.410156 97.828125 C 31.410156 69.378906 46.800781 44.523438 69.710938 31.140625 C 81.128906 24.46875 94.410156 20.648438 108.589844 20.648438 C 137.035156 20.648438 161.890625 36.039062 175.273438 58.949219 C 181.945312 70.367188 185.765625 83.652344 185.765625 97.828125 M 184.589844 97.828125 C 184.589844 83.867188 180.828125 70.785156 174.261719 59.542969 C 161.078125 36.980469 136.605469 21.824219 108.589844 21.824219 C 94.628906 21.824219 81.546875 25.585938 70.304688 32.15625 C 47.742188 45.335938 32.585938 69.8125 32.585938 97.828125 C 32.585938 111.785156 36.347656 124.867188 42.914062 136.109375 C 56.097656 158.671875 80.570312 173.832031 108.589844 173.832031 C 122.546875 173.832031 135.628906 170.066406 146.871094 163.5 C 169.433594 150.316406 184.589844 125.84375 184.589844 97.828125 "/>
</clipPath>
</defs>
<g id="surface1">
<path style=" stroke:none;fill-rule:nonzero;fill:rgb(7.058716%,1.176453%,46.665955%);fill-opacity:1;" d="M 107.964844 9.257812 C 107.964844 8.933594 108.226562 8.671875 108.550781 8.671875 C 108.875 8.671875 109.140625 8.933594 109.140625 9.257812 L 109.140625 189.875 C 109.140625 190.199219 108.875 190.464844 108.550781 190.464844 C 108.226562 190.464844 107.964844 190.199219 107.964844 189.875 Z M 107.964844 9.257812 "/>
<path style=" stroke:none;fill-rule:nonzero;fill:rgb(7.058716%,1.176453%,46.665955%);fill-opacity:1;" d="M 17.707031 99.652344 C 17.378906 99.652344 17.117188 99.390625 17.117188 99.066406 C 17.117188 98.742188 17.378906 98.476562 17.707031 98.476562 L 198.003906 98.476562 C 198.328125 98.476562 198.59375 98.742188 198.59375 99.066406 C 198.59375 99.390625 198.328125 99.652344 198.003906 99.652344 Z M 17.707031 99.652344 "/>
<path style=" stroke:none;fill-rule:nonzero;fill:rgb(7.058716%,1.176453%,46.665955%);fill-opacity:1;" d="M 198.003906 99.066406 L 193.359375 102.445312 L 193.359375 95.890625 Z M 198.003906 99.066406 "/>
<path style=" stroke:none;fill-rule:nonzero;fill:rgb(7.058716%,1.176453%,46.665955%);fill-opacity:1;" d="M 196.984375 99.082031 L 193.949219 97.003906 L 193.949219 101.289062 Z M 198.351562 99.539062 L 193.707031 102.921875 C 193.316406 103.203125 192.773438 102.925781 192.773438 102.445312 L 192.773438 95.890625 C 192.773438 95.417969 193.300781 95.136719 193.691406 95.402344 L 198.335938 98.582031 C 198.671875 98.808594 198.679688 99.300781 198.351562 99.539062 "/>
<path style=" stroke:none;fill-rule:nonzero;fill:rgb(7.058716%,1.176453%,46.665955%);fill-opacity:1;" d="M 108.550781 9.257812 L 111.367188 13.652344 L 105.847656 13.652344 Z M 108.550781 9.257812 "/>
<path style=" stroke:none;fill-rule:nonzero;fill:rgb(7.058716%,1.176453%,46.665955%);fill-opacity:1;" d="M 108.5625 10.363281 L 106.898438 13.066406 L 110.292969 13.066406 Z M 109.046875 8.941406 L 111.859375 13.335938 C 112.109375 13.726562 111.828125 14.242188 111.367188 14.242188 L 105.847656 14.242188 C 105.386719 14.242188 105.105469 13.738281 105.347656 13.34375 L 108.050781 8.949219 C 108.277344 8.582031 108.8125 8.578125 109.046875 8.941406 "/>
<path style=" stroke:none;fill-rule:nonzero;fill:rgb(7.058716%,1.176453%,46.665955%);fill-opacity:1;" d="M 160.820312 94.429688 C 160.820312 94.105469 161.082031 93.84375 161.40625 93.84375 C 161.730469 93.84375 161.996094 94.105469 161.996094 94.429688 L 161.996094 103.871094 C 161.996094 104.195312 161.730469 104.457031 161.40625 104.457031 C 161.082031 104.457031 160.820312 104.195312 160.820312 103.871094 Z M 160.820312 94.429688 "/>
<path style=" stroke:none;fill-rule:nonzero;fill:rgb(7.058716%,1.176453%,46.665955%);fill-opacity:1;" d="M 53.117188 94.847656 C 53.117188 94.523438 53.382812 94.257812 53.707031 94.257812 C 54.03125 94.257812 54.292969 94.523438 54.292969 94.847656 L 54.292969 104.285156 C 54.292969 104.609375 54.03125 104.875 53.707031 104.875 C 53.382812 104.875 53.117188 104.609375 53.117188 104.285156 Z M 53.117188 94.847656 "/>
<path style=" stroke:none;fill-rule:nonzero;fill:rgb(7.058716%,1.176453%,46.665955%);fill-opacity:1;" d="M 103.828125 44.621094 C 103.503906 44.621094 103.238281 44.359375 103.238281 44.035156 C 103.238281 43.707031 103.503906 43.445312 103.828125 43.445312 L 113.347656 43.445312 C 113.671875 43.445312 113.9375 43.707031 113.9375 44.035156 C 113.9375 44.359375 113.671875 44.621094 113.347656 44.621094 Z M 103.828125 44.621094 "/>
<path style=" stroke:none;fill-rule:nonzero;fill:rgb(7.058716%,1.176453%,46.665955%);fill-opacity:1;" d="M 103.792969 153.253906 C 103.46875 153.253906 103.203125 152.992188 103.203125 152.667969 C 103.203125 152.34375 103.46875 152.078125 103.792969 152.078125 L 113.3125 152.078125 C 113.636719 152.078125 113.898438 152.34375 113.898438 152.667969 C 113.898438 152.992188 113.636719 153.253906 113.3125 153.253906 Z M 103.792969 153.253906 "/>
<path style=" stroke:none;fill-rule:nonzero;fill:rgb(7.058716%,1.176453%,46.665955%);fill-opacity:1;" d="M 190.402344 114.75 C 190.402344 115.074219 190.140625 115.335938 189.816406 115.335938 C 189.492188 115.335938 189.226562 115.074219 189.226562 114.75 C 189.226562 114.425781 189.492188 114.160156 189.816406 114.160156 C 190.140625 114.160156 190.402344 114.425781 190.402344 114.75 M 188.589844 109.042969 C 188.320312 108.859375 188.253906 108.492188 188.441406 108.226562 C 188.625 107.957031 188.992188 107.890625 189.257812 108.078125 C 189.484375 108.234375 189.769531 108.546875 189.894531 108.992188 C 189.988281 109.328125 189.980469 109.628906 190.023438 109.972656 C 190.117188 110.738281 190.386719 111.773438 190.492188 112.75 C 190.546875 113.214844 190.554688 113.652344 190.527344 114.039062 C 190.507812 114.289062 190.46875 114.5 190.433594 114.652344 C 190.417969 114.726562 190.40625 114.785156 190.398438 114.8125 C 190.394531 114.828125 190.398438 114.792969 190.398438 114.8125 C 190.394531 114.824219 190.402344 114.710938 190.402344 114.746094 C 190.402344 114.765625 190.390625 114.625 190.394531 114.664062 C 190.402344 114.703125 190.308594 114.421875 190.34375 114.496094 C 190.484375 114.789062 190.359375 115.140625 190.070312 115.277344 C 189.777344 115.417969 189.425781 115.292969 189.285156 115 C 189.15625 114.734375 189.226562 114.691406 189.234375 114.648438 C 189.238281 114.605469 189.246094 114.582031 189.25 114.558594 C 189.261719 114.507812 189.273438 114.460938 189.285156 114.402344 C 189.3125 114.28125 189.339844 114.128906 189.351562 113.957031 C 189.375 113.648438 189.371094 113.277344 189.324219 112.875 C 189.230469 112.015625 188.964844 110.996094 188.855469 110.113281 C 188.808594 109.714844 188.792969 109.417969 188.761719 109.3125 C 188.707031 109.117188 188.671875 109.101562 188.589844 109.042969 "/>
<path style=" stroke:none;fill-rule:nonzero;fill:rgb(7.058716%,1.176453%,46.665955%);fill-opacity:1;" d="M 190.710938 108.972656 C 190.441406 108.792969 190.367188 108.425781 190.546875 108.15625 C 190.730469 107.886719 191.09375 107.8125 191.363281 107.996094 C 191.582031 108.140625 191.898438 108.417969 192.019531 108.804688 C 192.136719 109.167969 192.191406 109.613281 192.25 110.207031 C 192.304688 110.777344 192.339844 111.417969 192.390625 112.027344 C 192.429688 112.496094 192.472656 112.929688 192.527344 113.285156 C 192.640625 114.046875 192.78125 114.128906 192.945312 114.390625 C 193.117188 114.664062 193.03125 115.027344 192.757812 115.199219 C 192.480469 115.371094 192.121094 115.289062 191.949219 115.011719 C 191.90625 114.945312 191.507812 114.417969 191.363281 113.460938 C 191.304688 113.066406 191.257812 112.609375 191.21875 112.125 C 191.167969 111.496094 191.128906 110.855469 191.078125 110.320312 C 191.027344 109.757812 190.964844 109.359375 190.898438 109.160156 C 190.859375 109.027344 190.90625 109.105469 190.710938 108.972656 "/>
<path style=" stroke:none;fill-rule:nonzero;fill:rgb(7.058716%,1.176453%,46.665955%);fill-opacity:1;" d="M 189.148438 107.222656 C 189.464844 107.292969 189.664062 107.609375 189.589844 107.925781 C 189.519531 108.242188 189.203125 108.441406 188.886719 108.367188 C 188.574219 108.296875 188.332031 108.097656 188.179688 107.824219 C 188.027344 107.546875 187.988281 107.167969 188.128906 106.824219 C 188.390625 106.175781 189.015625 105.796875 189.734375 105.425781 C 190.183594 105.195312 190.726562 104.949219 191.367188 104.867188 C 192.054688 104.78125 192.785156 104.910156 193.457031 105.210938 C 193.933594 105.425781 194.296875 105.761719 194.605469 106.054688 C 195.03125 106.460938 195.347656 106.917969 195.558594 107.351562 C 195.777344 107.804688 195.847656 108.292969 195.730469 108.726562 C 195.617188 109.148438 195.351562 109.492188 195.046875 109.761719 C 194.320312 110.414062 193.371094 110.96875 192.542969 111.28125 C 192.082031 111.457031 191.65625 111.605469 191.171875 111.394531 C 190.914062 111.28125 190.6875 110.957031 190.671875 110.664062 C 190.65625 110.382812 190.753906 110.152344 190.878906 109.917969 C 191.035156 109.632812 191.390625 109.53125 191.675781 109.683594 C 191.960938 109.839844 192.066406 110.199219 191.910156 110.484375 C 191.84375 110.605469 191.84375 110.546875 191.847656 110.605469 C 191.847656 110.644531 191.742188 110.375 191.785156 110.4375 C 191.828125 110.5 191.609375 110.300781 191.644531 110.320312 C 191.707031 110.34375 191.617188 110.3125 191.707031 110.300781 C 191.808594 110.285156 191.957031 110.246094 192.125 110.183594 C 192.792969 109.929688 193.675781 109.410156 194.261719 108.886719 C 194.453125 108.714844 194.558594 108.558594 194.59375 108.421875 C 194.632812 108.285156 194.625 108.125 194.5 107.867188 C 194.347656 107.554688 194.109375 107.207031 193.792969 106.90625 C 193.515625 106.640625 193.234375 106.402344 192.972656 106.285156 C 192.480469 106.0625 191.960938 105.976562 191.515625 106.035156 C 191.082031 106.089844 190.671875 106.265625 190.273438 106.472656 C 189.667969 106.785156 189.25 107.179688 189.214844 107.265625 C 189.207031 107.285156 189.203125 107.246094 189.207031 107.253906 C 189.210938 107.257812 189.085938 107.207031 189.148438 107.222656 "/>
<path style=" stroke:none;fill-rule:nonzero;fill:rgb(7.058716%,1.176453%,46.665955%);fill-opacity:1;" d="M 191.871094 112.164062 C 191.546875 112.128906 191.3125 111.839844 191.34375 111.519531 C 191.378906 111.195312 191.664062 110.960938 191.988281 110.992188 C 192.058594 111 191.972656 110.988281 192.28125 110.824219 C 192.535156 110.6875 192.8125 110.671875 193.078125 110.695312 C 193.46875 110.730469 193.941406 110.867188 194.4375 111.164062 C 195.015625 111.511719 195.492188 112.03125 195.9375 112.53125 C 196.300781 112.941406 196.613281 113.363281 196.867188 113.753906 C 197.214844 114.289062 197.402344 114.757812 197.53125 115.097656 C 197.648438 115.40625 197.667969 115.488281 197.699219 115.511719 C 197.953125 115.71875 197.992188 116.085938 197.785156 116.339844 C 197.582031 116.589844 197.210938 116.628906 196.960938 116.425781 C 196.300781 115.890625 196.433594 115.246094 195.882812 114.398438 C 195.652344 114.046875 195.375 113.667969 195.058594 113.3125 C 194.636719 112.839844 194.207031 112.398438 193.835938 112.175781 C 193.484375 111.964844 193.183594 111.886719 192.972656 111.867188 C 192.839844 111.855469 192.855469 111.847656 192.832031 111.863281 C 192.757812 111.902344 192.394531 112.214844 191.871094 112.164062 "/>
<path style=" stroke:none;fill-rule:nonzero;fill:rgb(7.058716%,1.176453%,46.665955%);fill-opacity:1;" d="M 97.460938 14.585938 C 97.390625 14.90625 97.078125 15.109375 96.761719 15.039062 C 96.445312 14.972656 96.242188 14.660156 96.308594 14.34375 C 96.328125 14.25 96.351562 14.164062 96.386719 14.078125 C 96.421875 13.984375 96.453125 13.851562 96.667969 13.714844 C 96.910156 13.558594 97.34375 13.695312 97.464844 13.832031 C 97.574219 13.949219 97.601562 14.03125 97.628906 14.109375 C 97.742188 14.410156 97.789062 14.765625 97.851562 15.226562 C 97.929688 15.816406 98.007812 16.515625 98.054688 17.21875 C 98.089844 17.761719 98.121094 18.296875 98.089844 18.808594 C 98.023438 19.835938 97.5 20.613281 96.921875 21.074219 C 96.613281 21.324219 96.277344 21.546875 95.851562 21.605469 C 95.414062 21.664062 94.902344 21.410156 94.644531 20.996094 C 94.472656 20.722656 94.558594 20.359375 94.835938 20.1875 C 95.113281 20.015625 95.472656 20.101562 95.644531 20.378906 C 95.714844 20.496094 95.65625 20.445312 95.695312 20.441406 C 95.761719 20.429688 95.960938 20.335938 96.1875 20.15625 C 96.550781 19.863281 96.875 19.40625 96.917969 18.734375 C 96.941406 18.320312 96.917969 17.824219 96.882812 17.296875 C 96.839844 16.628906 96.761719 15.949219 96.6875 15.382812 C 96.628906 14.953125 96.558594 14.601562 96.53125 14.523438 C 96.527344 14.523438 96.542969 14.550781 96.535156 14.535156 C 96.527344 14.523438 96.640625 14.667969 96.597656 14.625 C 96.574219 14.597656 96.726562 14.726562 96.6875 14.699219 C 96.621094 14.65625 97.101562 14.800781 96.980469 14.796875 C 96.855469 14.792969 97.378906 14.65625 97.300781 14.707031 C 97.246094 14.742188 97.429688 14.59375 97.402344 14.621094 C 97.367188 14.660156 97.476562 14.515625 97.464844 14.535156 C 97.457031 14.550781 97.480469 14.5 97.480469 14.503906 C 97.480469 14.507812 97.472656 14.535156 97.460938 14.585938 "/>
<path style=" stroke:none;fill-rule:nonzero;fill:rgb(7.058716%,1.176453%,46.665955%);fill-opacity:1;" d="M 96.738281 11.386719 C 96.746094 11.714844 96.488281 11.980469 96.164062 11.988281 C 95.839844 11.992188 95.570312 11.734375 95.5625 11.410156 C 95.546875 10.570312 95.304688 10.210938 94.828125 9.136719 C 94.695312 8.839844 94.828125 8.492188 95.125 8.359375 C 95.421875 8.230469 95.769531 8.363281 95.902344 8.660156 C 96.359375 9.6875 96.71875 10.320312 96.738281 11.386719 "/>
<path style=" stroke:none;fill-rule:nonzero;fill:rgb(92.941284%,21.176147%,14.117432%);fill-opacity:1;" d="M 165.640625 44.035156 C 165.640625 45.300781 164.957031 46.410156 163.933594 47.003906 C 163.425781 47.300781 162.835938 47.472656 162.203125 47.472656 C 160.933594 47.472656 159.828125 46.789062 159.230469 45.765625 C 158.933594 45.257812 158.761719 44.664062 158.761719 44.035156 C 158.761719 42.765625 159.449219 41.65625 160.46875 41.0625 C 160.976562 40.765625 161.570312 40.59375 162.203125 40.59375 C 163.46875 40.59375 164.578125 41.277344 165.171875 42.300781 C 165.472656 42.808594 165.640625 43.402344 165.640625 44.035156 M 164.074219 44.035156 C 164.074219 43.691406 163.980469 43.367188 163.820312 43.089844 C 163.496094 42.535156 162.890625 42.160156 162.203125 42.160156 C 161.859375 42.160156 161.535156 42.253906 161.257812 42.414062 C 160.703125 42.738281 160.328125 43.34375 160.328125 44.035156 C 160.328125 44.375 160.421875 44.699219 160.582031 44.976562 C 160.910156 45.53125 161.511719 45.90625 162.203125 45.90625 C 162.546875 45.90625 162.867188 45.8125 163.144531 45.652344 C 163.699219 45.328125 164.074219 44.722656 164.074219 44.035156 "/>
<path style=" stroke:none;fill-rule:nonzero;fill:rgb(92.941284%,21.176147%,14.117432%);fill-opacity:1;" d="M 164.847656 152.667969 C 164.847656 153.933594 164.160156 155.042969 163.140625 155.640625 C 162.632812 155.9375 162.039062 156.105469 161.40625 156.105469 C 160.140625 156.105469 159.03125 155.421875 158.4375 154.402344 C 158.136719 153.890625 157.96875 153.300781 157.96875 152.667969 C 157.96875 151.398438 158.652344 150.292969 159.675781 149.695312 C 160.183594 149.398438 160.773438 149.226562 161.40625 149.226562 C 162.675781 149.226562 163.78125 149.914062 164.378906 150.933594 C 164.675781 151.445312 164.847656 152.035156 164.847656 152.667969 M 163.28125 152.667969 C 163.28125 152.324219 163.1875 152 163.027344 151.726562 C 162.699219 151.167969 162.097656 150.796875 161.40625 150.796875 C 161.0625 150.796875 160.742188 150.886719 160.464844 151.050781 C 159.910156 151.375 159.535156 151.976562 159.535156 152.667969 C 159.535156 153.011719 159.628906 153.332031 159.789062 153.609375 C 160.113281 154.167969 160.714844 154.539062 161.40625 154.539062 C 161.75 154.539062 162.074219 154.449219 162.351562 154.285156 C 162.90625 153.960938 163.28125 153.359375 163.28125 152.667969 "/>
<path style=" stroke:none;fill-rule:nonzero;fill:rgb(92.941284%,21.176147%,14.117432%);fill-opacity:1;" d="M 57.144531 151.9375 C 57.144531 153.207031 56.460938 154.3125 55.441406 154.910156 C 54.929688 155.207031 54.339844 155.378906 53.707031 155.378906 C 52.4375 155.378906 51.332031 154.691406 50.734375 153.671875 C 50.4375 153.164062 50.265625 152.570312 50.265625 151.9375 C 50.265625 150.671875 50.953125 149.5625 51.972656 148.96875 C 52.480469 148.671875 53.074219 148.5 53.707031 148.5 C 54.972656 148.5 56.082031 149.183594 56.679688 150.207031 C 56.976562 150.714844 57.144531 151.308594 57.144531 151.9375 M 55.578125 151.9375 C 55.578125 151.59375 55.488281 151.273438 55.324219 150.996094 C 55 150.441406 54.398438 150.066406 53.707031 150.066406 C 53.363281 150.066406 53.039062 150.160156 52.765625 150.320312 C 52.207031 150.644531 51.835938 151.25 51.835938 151.9375 C 51.835938 152.28125 51.925781 152.605469 52.089844 152.882812 C 52.414062 153.4375 53.015625 153.8125 53.707031 153.8125 C 54.050781 153.8125 54.371094 153.71875 54.648438 153.558594 C 55.207031 153.234375 55.578125 152.628906 55.578125 151.9375 "/>
<path style=" stroke:none;fill-rule:nonzero;fill:rgb(92.941284%,21.176147%,14.117432%);fill-opacity:1;" d="M 57.144531 44.035156 C 57.144531 45.300781 56.460938 46.410156 55.441406 47.003906 C 54.929688 47.300781 54.339844 47.472656 53.707031 47.472656 C 52.4375 47.472656 51.332031 46.789062 50.734375 45.765625 C 50.4375 45.257812 50.265625 44.664062 50.265625 44.035156 C 50.265625 42.765625 50.953125 41.65625 51.972656 41.0625 C 52.480469 40.765625 53.074219 40.59375 53.707031 40.59375 C 54.972656 40.59375 56.082031 41.277344 56.679688 42.300781 C 56.976562 42.808594 57.144531 43.402344 57.144531 44.035156 M 55.578125 44.035156 C 55.578125 43.691406 55.488281 43.367188 55.324219 43.089844 C 55 42.535156 54.398438 42.160156 53.707031 42.160156 C 53.363281 42.160156 53.039062 42.253906 52.765625 42.414062 C 52.207031 42.738281 51.835938 43.34375 51.835938 44.035156 C 51.835938 44.375 51.925781 44.699219 52.089844 44.976562 C 52.414062 45.53125 53.015625 45.90625 53.707031 45.90625 C 54.050781 45.90625 54.371094 45.8125 54.648438 45.652344 C 55.207031 45.328125 55.578125 44.722656 55.578125 44.035156 "/>
<g clip-path="url(#clip1)" clip-rule="nonzero">
<g clip-path="url(#clip2)" clip-rule="nonzero">
<path style=" stroke:none;fill-rule:nonzero;fill:rgb(7.058716%,1.176453%,46.665955%);fill-opacity:1;" d="M 184.589844 97.828125 C 184.589844 98.152344 184.855469 98.414062 185.179688 98.414062 C 185.503906 98.414062 185.765625 98.152344 185.765625 97.828125 C 185.765625 97.503906 185.503906 97.238281 185.179688 97.238281 C 184.855469 97.238281 184.589844 97.503906 184.589844 97.828125 M 184.554688 100.15625 C 184.546875 100.480469 184.800781 100.753906 185.125 100.761719 C 185.449219 100.773438 185.722656 100.519531 185.730469 100.191406 C 185.742188 99.867188 185.484375 99.597656 185.160156 99.585938 C 184.835938 99.578125 184.566406 99.832031 184.554688 100.15625 M 184.449219 102.484375 C 184.429688 102.808594 184.679688 103.089844 185.003906 103.109375 C 185.328125 103.128906 185.605469 102.878906 185.625 102.554688 C 185.644531 102.230469 185.398438 101.953125 185.074219 101.933594 C 184.75 101.914062 184.46875 102.160156 184.449219 102.484375 M 184.273438 104.808594 C 184.246094 105.132812 184.484375 105.417969 184.808594 105.445312 C 185.128906 105.476562 185.417969 105.238281 185.445312 104.914062 C 185.476562 104.589844 185.238281 104.304688 184.914062 104.273438 C 184.589844 104.246094 184.304688 104.484375 184.273438 104.808594 M 184.027344 107.125 C 183.988281 107.449219 184.21875 107.742188 184.539062 107.78125 C 184.863281 107.820312 185.15625 107.589844 185.195312 107.265625 C 185.234375 106.945312 185.003906 106.652344 184.683594 106.613281 C 184.359375 106.574219 184.066406 106.800781 184.027344 107.125 M 183.710938 109.433594 C 183.660156 109.753906 183.882812 110.054688 184.203125 110.101562 C 184.523438 110.152344 184.824219 109.933594 184.871094 109.609375 C 184.871094 109.609375 184.871094 109.609375 184.875 109.609375 C 184.921875 109.289062 184.703125 108.988281 184.382812 108.941406 C 184.058594 108.890625 183.761719 109.109375 183.710938 109.433594 M 183.324219 111.730469 C 183.265625 112.050781 183.476562 112.355469 183.792969 112.414062 C 184.113281 112.472656 184.417969 112.261719 184.480469 111.945312 C 184.480469 111.941406 184.480469 111.941406 184.480469 111.941406 C 184.539062 111.625 184.328125 111.316406 184.007812 111.257812 C 183.6875 111.199219 183.382812 111.410156 183.324219 111.730469 M 182.863281 114.011719 C 182.863281 114.011719 182.863281 114.011719 182.863281 114.015625 C 182.796875 114.332031 182.996094 114.644531 183.3125 114.714844 C 183.632812 114.78125 183.945312 114.582031 184.011719 114.261719 C 184.082031 113.945312 183.878906 113.632812 183.5625 113.5625 C 183.246094 113.496094 182.933594 113.695312 182.863281 114.011719 M 182.335938 116.28125 C 182.257812 116.597656 182.449219 116.917969 182.761719 116.996094 C 183.078125 117.074219 183.398438 116.882812 183.476562 116.566406 C 183.554688 116.25 183.363281 115.933594 183.046875 115.855469 C 182.734375 115.773438 182.414062 115.96875 182.335938 116.28125 M 181.738281 118.53125 C 181.738281 118.535156 181.738281 118.535156 181.738281 118.535156 C 181.648438 118.847656 181.828125 119.171875 182.140625 119.257812 C 182.453125 119.347656 182.78125 119.167969 182.867188 118.855469 C 182.867188 118.851562 182.867188 118.851562 182.867188 118.851562 C 182.957031 118.539062 182.773438 118.214844 182.460938 118.128906 C 182.148438 118.039062 181.824219 118.222656 181.738281 118.53125 M 181.070312 120.765625 C 180.972656 121.074219 181.140625 121.40625 181.453125 121.503906 C 181.761719 121.601562 182.089844 121.429688 182.1875 121.121094 C 182.191406 121.121094 182.191406 121.121094 182.191406 121.121094 C 182.289062 120.808594 182.117188 120.480469 181.804688 120.382812 C 181.496094 120.285156 181.167969 120.457031 181.070312 120.765625 M 180.332031 122.976562 C 180.226562 123.28125 180.386719 123.617188 180.691406 123.726562 C 181 123.832031 181.335938 123.671875 181.441406 123.363281 C 181.550781 123.058594 181.386719 122.722656 181.082031 122.613281 C 180.773438 122.507812 180.441406 122.667969 180.332031 122.976562 M 179.527344 125.160156 C 179.527344 125.160156 179.527344 125.160156 179.527344 125.164062 C 179.410156 125.464844 179.5625 125.804688 179.863281 125.921875 C 180.167969 126.039062 180.507812 125.886719 180.625 125.585938 C 180.742188 125.28125 180.589844 124.941406 180.289062 124.824219 C 179.984375 124.707031 179.644531 124.859375 179.527344 125.160156 M 178.65625 127.320312 C 178.65625 127.324219 178.65625 127.324219 178.65625 127.324219 C 178.53125 127.621094 178.671875 127.964844 178.96875 128.09375 C 179.269531 128.21875 179.613281 128.078125 179.738281 127.78125 C 179.738281 127.777344 179.738281 127.777344 179.738281 127.777344 C 179.867188 127.480469 179.726562 127.132812 179.425781 127.007812 C 179.128906 126.882812 178.78125 127.023438 178.65625 127.320312 M 177.71875 129.453125 C 177.71875 129.453125 177.71875 129.453125 177.71875 129.457031 C 177.582031 129.75 177.710938 130.097656 178.007812 130.234375 C 178.300781 130.371094 178.652344 130.242188 178.785156 129.945312 C 178.785156 129.945312 178.785156 129.945312 178.789062 129.945312 C 178.921875 129.648438 178.792969 129.300781 178.496094 129.164062 C 178.203125 129.03125 177.855469 129.160156 177.71875 129.453125 M 176.714844 131.558594 C 176.570312 131.847656 176.691406 132.203125 176.980469 132.347656 C 177.269531 132.488281 177.625 132.371094 177.769531 132.082031 C 177.769531 132.078125 177.769531 132.078125 177.769531 132.078125 C 177.914062 131.789062 177.792969 131.4375 177.503906 131.292969 C 177.210938 131.148438 176.859375 131.265625 176.714844 131.558594 M 175.648438 133.628906 C 175.496094 133.914062 175.601562 134.269531 175.890625 134.425781 C 176.175781 134.578125 176.53125 134.46875 176.683594 134.183594 C 176.839844 133.894531 176.730469 133.539062 176.445312 133.386719 C 176.15625 133.234375 175.800781 133.339844 175.648438 133.628906 M 174.519531 135.664062 C 174.519531 135.664062 174.519531 135.664062 174.515625 135.667969 C 174.355469 135.949219 174.453125 136.308594 174.734375 136.46875 C 175.015625 136.628906 175.375 136.535156 175.535156 136.253906 C 175.535156 136.25 175.535156 136.25 175.535156 136.25 C 175.699219 135.96875 175.601562 135.609375 175.320312 135.449219 C 175.039062 135.285156 174.679688 135.382812 174.519531 135.664062 M 173.324219 137.667969 C 173.15625 137.945312 173.242188 138.304688 173.515625 138.476562 C 173.792969 138.648438 174.15625 138.5625 174.324219 138.285156 C 174.496094 138.007812 174.410156 137.644531 174.132812 137.476562 C 173.859375 137.304688 173.496094 137.390625 173.324219 137.667969 M 172.074219 139.628906 C 172.070312 139.632812 172.070312 139.632812 172.070312 139.632812 C 171.894531 139.902344 171.96875 140.265625 172.238281 140.445312 C 172.507812 140.625 172.875 140.550781 173.054688 140.277344 C 173.234375 140.007812 173.15625 139.640625 172.886719 139.464844 C 172.617188 139.285156 172.25 139.359375 172.074219 139.628906 M 170.757812 141.554688 C 170.570312 141.820312 170.636719 142.1875 170.902344 142.375 C 171.167969 142.5625 171.53125 142.5 171.71875 142.234375 C 171.71875 142.234375 171.71875 142.234375 171.71875 142.230469 C 171.90625 141.96875 171.84375 141.601562 171.578125 141.414062 C 171.3125 141.226562 170.945312 141.289062 170.757812 141.554688 M 169.390625 143.4375 C 169.386719 143.441406 169.386719 143.441406 169.386719 143.441406 C 169.191406 143.699219 169.246094 144.066406 169.503906 144.261719 C 169.765625 144.457031 170.132812 144.40625 170.328125 144.144531 C 170.523438 143.886719 170.472656 143.515625 170.210938 143.320312 C 169.953125 143.128906 169.582031 143.179688 169.390625 143.4375 M 167.960938 145.28125 C 167.757812 145.535156 167.796875 145.902344 168.050781 146.105469 C 168.304688 146.308594 168.675781 146.269531 168.878906 146.015625 C 169.082031 145.761719 169.039062 145.390625 168.789062 145.1875 C 168.535156 144.984375 168.164062 145.027344 167.960938 145.28125 M 166.476562 147.078125 C 166.265625 147.324219 166.296875 147.695312 166.542969 147.90625 C 166.789062 148.117188 167.160156 148.085938 167.371094 147.839844 C 167.582031 147.589844 167.554688 147.21875 167.304688 147.011719 C 167.058594 146.800781 166.6875 146.828125 166.476562 147.078125 M 164.941406 148.828125 C 164.722656 149.070312 164.738281 149.441406 164.980469 149.660156 C 165.222656 149.875 165.59375 149.859375 165.8125 149.617188 C 166.03125 149.375 166.011719 149.003906 165.769531 148.785156 C 165.53125 148.566406 165.160156 148.585938 164.941406 148.828125 M 163.351562 150.53125 C 163.351562 150.53125 163.351562 150.53125 163.347656 150.53125 C 163.125 150.765625 163.132812 151.136719 163.367188 151.363281 C 163.597656 151.585938 163.972656 151.582031 164.195312 151.347656 C 164.195312 151.347656 164.195312 151.347656 164.195312 151.34375 C 164.421875 151.113281 164.414062 150.738281 164.179688 150.515625 C 163.949219 150.289062 163.574219 150.296875 163.351562 150.53125 M 161.710938 152.183594 C 161.707031 152.183594 161.707031 152.183594 161.707031 152.183594 C 161.476562 152.410156 161.472656 152.785156 161.699219 153.015625 C 161.925781 153.246094 162.296875 153.253906 162.53125 153.023438 C 162.761719 152.796875 162.765625 152.425781 162.539062 152.195312 C 162.3125 151.960938 161.941406 151.957031 161.710938 152.183594 M 160.019531 153.785156 C 160.019531 153.789062 160.019531 153.789062 160.015625 153.789062 C 159.777344 154.007812 159.761719 154.378906 159.984375 154.617188 C 160.203125 154.855469 160.574219 154.871094 160.8125 154.652344 C 161.054688 154.433594 161.070312 154.058594 160.847656 153.820312 C 160.628906 153.582031 160.257812 153.566406 160.019531 153.785156 M 158.28125 155.335938 C 158.277344 155.335938 158.277344 155.335938 158.277344 155.339844 C 158.03125 155.550781 158.007812 155.921875 158.21875 156.167969 C 158.429688 156.414062 158.800781 156.441406 159.046875 156.226562 C 159.292969 156.015625 159.320312 155.644531 159.109375 155.398438 C 158.894531 155.152344 158.523438 155.125 158.28125 155.335938 M 156.496094 156.835938 C 156.492188 156.835938 156.492188 156.835938 156.492188 156.835938 C 156.242188 157.039062 156.203125 157.410156 156.40625 157.660156 C 156.613281 157.914062 156.984375 157.953125 157.234375 157.746094 C 157.488281 157.542969 157.527344 157.171875 157.320312 156.917969 C 157.117188 156.667969 156.746094 156.628906 156.496094 156.835938 M 154.664062 158.277344 C 154.40625 158.472656 154.355469 158.84375 154.554688 159.101562 C 154.75 159.359375 155.117188 159.410156 155.375 159.210938 C 155.378906 159.210938 155.378906 159.210938 155.378906 159.210938 C 155.636719 159.011719 155.683594 158.644531 155.488281 158.386719 C 155.292969 158.128906 154.921875 158.078125 154.664062 158.277344 M 152.792969 159.660156 C 152.789062 159.660156 152.789062 159.660156 152.789062 159.664062 C 152.527344 159.851562 152.464844 160.21875 152.65625 160.480469 C 152.84375 160.746094 153.210938 160.808594 153.472656 160.617188 C 153.476562 160.617188 153.476562 160.617188 153.476562 160.617188 C 153.738281 160.429688 153.800781 160.0625 153.609375 159.796875 C 153.421875 159.535156 153.054688 159.472656 152.792969 159.660156 M 150.875 160.988281 C 150.605469 161.171875 150.535156 161.535156 150.714844 161.804688 C 150.894531 162.074219 151.261719 162.148438 151.53125 161.964844 C 151.800781 161.785156 151.871094 161.417969 151.691406 161.148438 C 151.511719 160.878906 151.144531 160.808594 150.875 160.988281 M 148.921875 162.257812 C 148.644531 162.429688 148.5625 162.792969 148.734375 163.066406 C 148.90625 163.34375 149.269531 163.425781 149.546875 163.253906 C 149.820312 163.082031 149.90625 162.71875 149.730469 162.441406 C 149.558594 162.167969 149.195312 162.085938 148.921875 162.257812 M 146.929688 163.464844 C 146.648438 163.628906 146.554688 163.988281 146.71875 164.269531 C 146.882812 164.550781 147.242188 164.644531 147.523438 164.480469 C 147.804688 164.316406 147.898438 163.957031 147.734375 163.675781 C 147.570312 163.394531 147.210938 163.300781 146.929688 163.464844 M 144.902344 164.609375 C 144.902344 164.609375 144.902344 164.609375 144.898438 164.613281 C 144.617188 164.765625 144.511719 165.125 144.664062 165.410156 C 144.820312 165.695312 145.179688 165.796875 145.460938 165.644531 C 145.464844 165.644531 145.464844 165.644531 145.464844 165.644531 C 145.75 165.488281 145.855469 165.128906 145.699219 164.84375 C 145.542969 164.5625 145.1875 164.457031 144.902344 164.609375 M 142.839844 165.695312 C 142.839844 165.695312 142.839844 165.695312 142.835938 165.695312 C 142.546875 165.839844 142.433594 166.195312 142.578125 166.484375 C 142.726562 166.773438 143.078125 166.890625 143.367188 166.742188 C 143.367188 166.742188 143.367188 166.742188 143.371094 166.742188 C 143.660156 166.597656 143.773438 166.242188 143.628906 165.953125 C 143.480469 165.664062 143.128906 165.546875 142.839844 165.695312 M 140.742188 166.714844 C 140.449219 166.851562 140.320312 167.199219 140.460938 167.496094 C 140.597656 167.789062 140.945312 167.914062 141.242188 167.777344 C 141.535156 167.640625 141.664062 167.289062 141.523438 166.996094 C 141.386719 166.703125 141.039062 166.574219 140.742188 166.714844 M 138.617188 167.667969 C 138.320312 167.796875 138.183594 168.140625 138.308594 168.441406 C 138.4375 168.738281 138.785156 168.875 139.082031 168.746094 C 139.382812 168.617188 139.519531 168.273438 139.390625 167.976562 C 139.261719 167.675781 138.917969 167.539062 138.617188 167.667969 M 136.464844 168.554688 C 136.160156 168.675781 136.015625 169.015625 136.132812 169.316406 C 136.25 169.621094 136.59375 169.769531 136.894531 169.648438 C 137.199219 169.53125 137.347656 169.1875 137.226562 168.886719 C 137.109375 168.585938 136.765625 168.4375 136.464844 168.554688 M 134.285156 169.375 C 134.285156 169.378906 134.285156 169.378906 134.285156 169.378906 C 133.976562 169.488281 133.820312 169.824219 133.929688 170.128906 C 134.039062 170.433594 134.375 170.59375 134.679688 170.484375 C 134.683594 170.484375 134.683594 170.484375 134.683594 170.484375 C 134.988281 170.375 135.144531 170.035156 135.035156 169.730469 C 134.925781 169.425781 134.589844 169.265625 134.285156 169.375 M 132.082031 170.128906 C 132.078125 170.128906 132.078125 170.128906 132.078125 170.128906 C 131.769531 170.230469 131.601562 170.5625 131.703125 170.871094 C 131.800781 171.179688 132.132812 171.347656 132.441406 171.25 C 132.441406 171.25 132.441406 171.25 132.445312 171.25 C 132.753906 171.148438 132.921875 170.816406 132.820312 170.507812 C 132.722656 170.199219 132.390625 170.03125 132.082031 170.128906 M 129.855469 170.816406 C 129.851562 170.816406 129.851562 170.816406 129.851562 170.816406 C 129.542969 170.90625 129.363281 171.234375 129.453125 171.542969 C 129.542969 171.855469 129.871094 172.035156 130.179688 171.945312 C 130.183594 171.945312 130.183594 171.945312 130.183594 171.945312 C 130.492188 171.851562 130.671875 171.527344 130.582031 171.214844 C 130.492188 170.902344 130.164062 170.726562 129.855469 170.816406 M 127.605469 171.429688 C 127.605469 171.429688 127.605469 171.429688 127.605469 171.433594 C 127.292969 171.511719 127.101562 171.832031 127.183594 172.148438 C 127.265625 172.460938 127.585938 172.652344 127.898438 172.570312 C 127.898438 172.570312 127.898438 172.570312 127.902344 172.570312 C 128.214844 172.488281 128.402344 172.167969 128.324219 171.855469 C 128.242188 171.539062 127.921875 171.351562 127.605469 171.429688 M 125.34375 171.976562 C 125.34375 171.976562 125.34375 171.976562 125.339844 171.976562 C 125.023438 172.050781 124.824219 172.363281 124.898438 172.679688 C 124.96875 172.996094 125.28125 173.195312 125.597656 173.125 C 125.601562 173.125 125.601562 173.125 125.601562 173.125 C 125.917969 173.054688 126.117188 172.738281 126.046875 172.421875 C 125.972656 172.105469 125.660156 171.90625 125.34375 171.976562 M 123.0625 172.453125 C 122.742188 172.515625 122.535156 172.824219 122.59375 173.144531 C 122.65625 173.460938 122.964844 173.667969 123.285156 173.609375 C 123.605469 173.546875 123.8125 173.238281 123.75 172.917969 C 123.6875 172.601562 123.382812 172.390625 123.0625 172.453125 M 120.769531 172.859375 C 120.769531 172.859375 120.769531 172.859375 120.765625 172.859375 C 120.445312 172.910156 120.230469 173.214844 120.28125 173.535156 C 120.332031 173.855469 120.632812 174.070312 120.953125 174.019531 C 120.953125 174.019531 120.953125 174.019531 120.957031 174.019531 C 121.277344 173.96875 121.492188 173.667969 121.441406 173.347656 C 121.390625 173.027344 121.089844 172.808594 120.769531 172.859375 M 118.460938 173.195312 C 118.140625 173.238281 117.914062 173.53125 117.953125 173.855469 C 117.996094 174.175781 118.289062 174.402344 118.613281 174.359375 C 118.9375 174.320312 119.164062 174.023438 119.121094 173.703125 C 119.078125 173.378906 118.785156 173.152344 118.460938 173.195312 M 116.148438 173.460938 C 115.824219 173.492188 115.589844 173.777344 115.621094 174.101562 C 115.652344 174.425781 115.941406 174.660156 116.261719 174.628906 C 116.261719 174.628906 116.261719 174.628906 116.265625 174.628906 C 116.585938 174.597656 116.824219 174.308594 116.789062 173.988281 C 116.757812 173.664062 116.472656 173.425781 116.148438 173.460938 M 113.828125 173.652344 C 113.824219 173.652344 113.824219 173.652344 113.824219 173.652344 C 113.5 173.675781 113.257812 173.957031 113.277344 174.277344 C 113.300781 174.601562 113.582031 174.847656 113.90625 174.824219 C 114.230469 174.804688 114.476562 174.523438 114.453125 174.199219 C 114.429688 173.875 114.148438 173.628906 113.828125 173.652344 M 111.5 173.777344 C 111.175781 173.789062 110.921875 174.0625 110.933594 174.386719 C 110.945312 174.710938 111.21875 174.960938 111.542969 174.949219 C 111.867188 174.9375 112.121094 174.664062 112.109375 174.339844 C 112.097656 174.015625 111.824219 173.761719 111.5 173.777344 M 109.171875 173.828125 C 109.167969 173.828125 109.167969 173.828125 109.167969 173.828125 C 108.84375 173.832031 108.582031 174.097656 108.585938 174.421875 C 108.589844 174.746094 108.851562 175.007812 109.179688 175.003906 C 109.503906 175 109.765625 174.734375 109.761719 174.410156 C 109.761719 174.085938 109.496094 173.824219 109.171875 173.828125 M 106.839844 173.8125 C 106.515625 173.804688 106.246094 174.0625 106.238281 174.386719 C 106.230469 174.710938 106.488281 174.980469 106.8125 174.984375 C 107.136719 174.992188 107.40625 174.734375 107.414062 174.410156 C 107.421875 174.085938 107.164062 173.816406 106.839844 173.8125 M 104.511719 173.722656 C 104.1875 173.707031 103.910156 173.953125 103.894531 174.277344 C 103.875 174.601562 104.125 174.878906 104.449219 174.898438 C 104.773438 174.914062 105.050781 174.664062 105.066406 174.339844 C 105.085938 174.015625 104.835938 173.742188 104.511719 173.722656 M 102.1875 173.566406 C 101.863281 173.539062 101.578125 173.777344 101.550781 174.101562 C 101.523438 174.425781 101.765625 174.710938 102.089844 174.734375 C 102.414062 174.761719 102.699219 174.523438 102.722656 174.199219 C 102.75 173.875 102.511719 173.59375 102.1875 173.566406 M 99.871094 173.335938 C 99.867188 173.335938 99.867188 173.335938 99.867188 173.335938 C 99.546875 173.300781 99.253906 173.53125 99.21875 173.851562 C 99.179688 174.175781 99.414062 174.46875 99.734375 174.503906 C 100.058594 174.539062 100.351562 174.308594 100.386719 173.988281 C 100.421875 173.664062 100.191406 173.371094 99.871094 173.335938 M 97.558594 173.035156 C 97.238281 172.988281 96.9375 173.210938 96.890625 173.53125 C 96.84375 173.855469 97.066406 174.152344 97.390625 174.199219 C 97.710938 174.246094 98.007812 174.023438 98.054688 173.703125 C 98.101562 173.382812 97.878906 173.082031 97.558594 173.035156 M 95.257812 172.664062 C 94.9375 172.609375 94.632812 172.824219 94.578125 173.140625 C 94.519531 173.460938 94.734375 173.765625 95.054688 173.824219 C 95.375 173.878906 95.679688 173.667969 95.734375 173.347656 C 95.792969 173.027344 95.578125 172.722656 95.257812 172.664062 M 92.972656 172.226562 C 92.972656 172.222656 92.972656 172.222656 92.96875 172.222656 C 92.652344 172.15625 92.339844 172.363281 92.273438 172.679688 C 92.207031 172.996094 92.414062 173.308594 92.730469 173.375 C 93.050781 173.441406 93.359375 173.238281 93.425781 172.921875 C 93.492188 172.601562 93.289062 172.289062 92.972656 172.226562 M 90.699219 171.714844 C 90.382812 171.636719 90.0625 171.832031 89.988281 172.148438 C 89.914062 172.460938 90.105469 172.78125 90.421875 172.855469 C 90.738281 172.933594 91.054688 172.738281 91.132812 172.421875 C 91.207031 172.105469 91.015625 171.789062 90.699219 171.714844 M 88.441406 171.132812 C 88.128906 171.046875 87.804688 171.230469 87.71875 171.542969 C 87.632812 171.855469 87.816406 172.179688 88.128906 172.265625 C 88.132812 172.265625 88.132812 172.265625 88.132812 172.265625 C 88.445312 172.351562 88.769531 172.167969 88.855469 171.855469 C 88.941406 171.542969 88.753906 171.21875 88.441406 171.132812 M 86.207031 170.480469 C 86.207031 170.480469 86.207031 170.480469 86.203125 170.480469 C 85.894531 170.386719 85.566406 170.558594 85.46875 170.871094 C 85.375 171.179688 85.546875 171.507812 85.859375 171.605469 C 86.171875 171.699219 86.5 171.527344 86.59375 171.214844 C 86.691406 170.90625 86.515625 170.578125 86.207031 170.480469 M 83.988281 169.761719 C 83.683594 169.65625 83.347656 169.820312 83.242188 170.128906 C 83.136719 170.433594 83.300781 170.769531 83.609375 170.875 C 83.917969 170.980469 84.25 170.816406 84.355469 170.507812 C 84.460938 170.203125 84.296875 169.867188 83.988281 169.761719 M 81.796875 168.972656 C 81.492188 168.859375 81.152344 169.011719 81.039062 169.316406 C 80.925781 169.621094 81.078125 169.960938 81.382812 170.074219 C 81.6875 170.1875 82.027344 170.035156 82.140625 169.730469 C 82.253906 169.429688 82.101562 169.089844 81.796875 168.972656 M 79.628906 168.121094 C 79.328125 167.996094 78.984375 168.136719 78.863281 168.4375 C 78.738281 168.738281 78.882812 169.082031 79.179688 169.207031 C 79.183594 169.207031 79.183594 169.207031 79.183594 169.207031 C 79.484375 169.332031 79.824219 169.1875 79.949219 168.886719 C 80.074219 168.585938 79.929688 168.242188 79.628906 168.121094 M 77.492188 167.199219 C 77.492188 167.199219 77.492188 167.199219 77.488281 167.199219 C 77.195312 167.066406 76.847656 167.195312 76.714844 167.492188 C 76.578125 167.789062 76.710938 168.136719 77.007812 168.269531 C 77.304688 168.402344 77.652344 168.269531 77.785156 167.976562 C 77.917969 167.679688 77.785156 167.332031 77.492188 167.199219 M 75.378906 166.210938 C 75.085938 166.070312 74.734375 166.191406 74.59375 166.480469 C 74.453125 166.773438 74.574219 167.125 74.863281 167.269531 C 74.867188 167.269531 74.867188 167.269531 74.867188 167.269531 C 75.15625 167.410156 75.511719 167.289062 75.652344 166.996094 C 75.792969 166.707031 75.671875 166.355469 75.378906 166.210938 M 73.300781 165.160156 C 73.011719 165.007812 72.65625 165.121094 72.507812 165.40625 C 72.355469 165.695312 72.464844 166.050781 72.753906 166.199219 C 73.042969 166.351562 73.398438 166.242188 73.546875 165.953125 C 73.699219 165.667969 73.589844 165.3125 73.300781 165.160156 M 71.253906 164.046875 C 70.972656 163.886719 70.613281 163.984375 70.453125 164.265625 C 70.292969 164.550781 70.394531 164.910156 70.675781 165.066406 C 70.675781 165.070312 70.675781 165.070312 70.675781 165.070312 C 70.960938 165.230469 71.320312 165.128906 71.476562 164.847656 C 71.636719 164.5625 71.539062 164.207031 71.253906 164.046875 M 69.246094 162.867188 C 68.964844 162.699219 68.605469 162.789062 68.4375 163.066406 C 68.269531 163.34375 68.355469 163.703125 68.636719 163.875 C 68.914062 164.042969 69.273438 163.953125 69.441406 163.675781 C 69.613281 163.398438 69.523438 163.035156 69.246094 162.867188 M 67.273438 161.628906 C 67.269531 161.628906 67.269531 161.628906 67.269531 161.628906 C 67 161.453125 66.632812 161.53125 66.457031 161.804688 C 66.28125 162.074219 66.359375 162.4375 66.628906 162.617188 C 66.632812 162.617188 66.632812 162.617188 66.632812 162.617188 C 66.902344 162.792969 67.269531 162.714844 67.445312 162.445312 C 67.621094 162.171875 67.542969 161.808594 67.273438 161.628906 M 65.335938 160.332031 C 65.070312 160.148438 64.703125 160.214844 64.519531 160.480469 C 64.332031 160.746094 64.398438 161.113281 64.667969 161.296875 C 64.933594 161.484375 65.300781 161.417969 65.484375 161.152344 C 65.671875 160.882812 65.605469 160.515625 65.335938 160.332031 M 63.441406 158.976562 C 63.179688 158.78125 62.8125 158.835938 62.621094 159.097656 C 62.425781 159.359375 62.480469 159.726562 62.742188 159.921875 C 63.003906 160.113281 63.371094 160.058594 63.566406 159.796875 C 63.757812 159.535156 63.703125 159.167969 63.441406 158.976562 M 61.589844 157.5625 C 61.335938 157.359375 60.964844 157.40625 60.765625 157.660156 C 60.5625 157.914062 60.609375 158.285156 60.863281 158.484375 C 61.117188 158.6875 61.488281 158.644531 61.6875 158.386719 C 61.890625 158.132812 61.847656 157.761719 61.589844 157.5625 M 59.78125 156.09375 C 59.535156 155.882812 59.164062 155.917969 58.953125 156.164062 C 58.746094 156.414062 58.777344 156.785156 59.027344 156.992188 C 59.277344 157.203125 59.648438 157.167969 59.855469 156.921875 C 60.0625 156.671875 60.03125 156.300781 59.78125 156.09375 M 58.019531 154.570312 C 58.019531 154.570312 58.019531 154.570312 58.019531 154.566406 C 57.777344 154.351562 57.40625 154.375 57.191406 154.617188 C 56.972656 154.859375 56.996094 155.230469 57.238281 155.445312 C 57.480469 155.660156 57.851562 155.640625 58.066406 155.398438 C 58.285156 155.15625 58.261719 154.785156 58.019531 154.570312 M 56.304688 152.992188 C 56.070312 152.769531 55.699219 152.777344 55.472656 153.011719 C 55.25 153.25 55.261719 153.621094 55.496094 153.84375 C 55.734375 154.066406 56.105469 154.058594 56.328125 153.824219 C 56.550781 153.585938 56.542969 153.214844 56.304688 152.992188 M 54.640625 151.363281 C 54.410156 151.132812 54.039062 151.128906 53.808594 151.359375 C 53.578125 151.585938 53.574219 151.960938 53.804688 152.191406 C 54.035156 152.421875 54.40625 152.421875 54.636719 152.195312 C 54.867188 151.964844 54.867188 151.59375 54.640625 151.363281 M 53.023438 149.683594 C 52.800781 149.445312 52.429688 149.433594 52.191406 149.65625 C 51.957031 149.875 51.941406 150.25 52.164062 150.484375 C 52.164062 150.488281 52.164062 150.488281 52.164062 150.488281 C 52.386719 150.722656 52.757812 150.738281 52.996094 150.515625 C 53.234375 150.292969 53.246094 149.921875 53.023438 149.683594 M 51.460938 147.957031 C 51.246094 147.714844 50.875 147.6875 50.628906 147.902344 C 50.386719 148.117188 50.363281 148.488281 50.574219 148.734375 C 50.578125 148.734375 50.578125 148.734375 50.578125 148.734375 C 50.792969 148.976562 51.164062 149 51.40625 148.789062 C 51.648438 148.574219 51.675781 148.203125 51.460938 147.957031 M 49.949219 146.183594 C 49.742188 145.933594 49.371094 145.898438 49.121094 146.105469 C 48.871094 146.3125 48.835938 146.679688 49.042969 146.929688 C 49.042969 146.933594 49.042969 146.933594 49.042969 146.933594 C 49.25 147.183594 49.621094 147.21875 49.871094 147.011719 C 50.121094 146.804688 50.15625 146.433594 49.949219 146.183594 M 48.492188 144.363281 C 48.292969 144.109375 47.925781 144.0625 47.667969 144.261719 C 47.410156 144.457031 47.367188 144.828125 47.5625 145.085938 C 47.566406 145.085938 47.566406 145.085938 47.566406 145.085938 C 47.765625 145.34375 48.132812 145.386719 48.390625 145.191406 C 48.644531 144.992188 48.691406 144.621094 48.492188 144.363281 M 47.09375 142.503906 C 47.09375 142.5 47.09375 142.5 47.09375 142.5 C 46.902344 142.238281 46.535156 142.179688 46.273438 142.371094 C 46.011719 142.5625 45.953125 142.929688 46.144531 143.191406 C 46.144531 143.195312 46.144531 143.195312 46.144531 143.195312 C 46.335938 143.457031 46.703125 143.515625 46.964844 143.324219 C 47.226562 143.132812 47.285156 142.765625 47.09375 142.503906 M 45.753906 140.597656 C 45.753906 140.597656 45.753906 140.597656 45.75 140.597656 C 45.570312 140.328125 45.203125 140.257812 44.933594 140.441406 C 44.667969 140.625 44.597656 140.992188 44.78125 141.257812 C 44.78125 141.257812 44.78125 141.257812 44.78125 141.261719 C 44.964844 141.527344 45.328125 141.597656 45.597656 141.414062 C 45.867188 141.230469 45.933594 140.867188 45.753906 140.597656 M 44.46875 138.652344 C 44.292969 138.378906 43.929688 138.296875 43.65625 138.472656 C 43.382812 138.648438 43.304688 139.011719 43.476562 139.285156 C 43.652344 139.558594 44.015625 139.640625 44.289062 139.464844 C 44.5625 139.289062 44.644531 138.925781 44.46875 138.652344 M 43.246094 136.671875 C 43.246094 136.667969 43.246094 136.667969 43.246094 136.667969 C 43.078125 136.390625 42.71875 136.300781 42.441406 136.464844 C 42.160156 136.632812 42.070312 136.992188 42.234375 137.269531 C 42.234375 137.273438 42.234375 137.273438 42.238281 137.273438 C 42.402344 137.550781 42.761719 137.640625 43.042969 137.476562 C 43.320312 137.308594 43.414062 136.949219 43.246094 136.671875 M 42.085938 134.652344 C 42.085938 134.648438 42.085938 134.648438 42.085938 134.648438 C 41.925781 134.367188 41.570312 134.261719 41.285156 134.421875 C 41 134.578125 40.898438 134.9375 41.054688 135.21875 C 41.054688 135.21875 41.054688 135.21875 41.058594 135.222656 C 41.214844 135.503906 41.570312 135.605469 41.855469 135.449219 C 42.140625 135.292969 42.242188 134.933594 42.085938 134.652344 M 40.984375 132.597656 C 40.984375 132.597656 40.984375 132.597656 40.984375 132.59375 C 40.835938 132.308594 40.480469 132.195312 40.195312 132.34375 C 39.90625 132.492188 39.792969 132.84375 39.941406 133.132812 C 39.941406 133.132812 39.941406 133.132812 39.941406 133.136719 C 40.089844 133.421875 40.445312 133.535156 40.734375 133.386719 C 41.019531 133.238281 41.132812 132.886719 40.984375 132.597656 M 39.949219 130.507812 C 39.808594 130.214844 39.460938 130.089844 39.167969 130.230469 C 38.875 130.371094 38.75 130.722656 38.890625 131.015625 C 39.03125 131.308594 39.378906 131.433594 39.671875 131.292969 C 39.964844 131.152344 40.089844 130.800781 39.949219 130.507812 M 38.980469 128.390625 C 38.847656 128.09375 38.503906 127.957031 38.203125 128.089844 C 37.90625 128.21875 37.773438 128.566406 37.902344 128.863281 C 38.035156 129.160156 38.382812 129.296875 38.679688 129.167969 C 38.976562 129.035156 39.109375 128.6875 38.980469 128.390625 M 38.074219 126.246094 C 38.074219 126.246094 38.074219 126.246094 38.074219 126.242188 C 37.953125 125.941406 37.609375 125.796875 37.308594 125.917969 C 37.007812 126.039062 36.863281 126.382812 36.984375 126.683594 C 37.105469 126.984375 37.449219 127.132812 37.75 127.011719 C 38.050781 126.886719 38.195312 126.546875 38.074219 126.246094 M 37.238281 124.070312 C 37.125 123.765625 36.785156 123.609375 36.480469 123.722656 C 36.175781 123.832031 36.019531 124.171875 36.132812 124.476562 C 36.246094 124.78125 36.582031 124.9375 36.886719 124.824219 C 37.191406 124.714844 37.347656 124.375 37.238281 124.070312 M 36.464844 121.871094 C 36.363281 121.5625 36.03125 121.398438 35.722656 121.5 C 35.414062 121.601562 35.25 121.933594 35.351562 122.242188 C 35.351562 122.242188 35.351562 122.242188 35.351562 122.246094 C 35.453125 122.550781 35.785156 122.71875 36.09375 122.617188 C 36.402344 122.511719 36.570312 122.179688 36.464844 121.871094 M 35.765625 119.652344 C 35.671875 119.339844 35.34375 119.164062 35.03125 119.257812 C 34.722656 119.347656 34.542969 119.675781 34.636719 119.988281 C 34.730469 120.300781 35.058594 120.476562 35.371094 120.382812 C 35.679688 120.289062 35.855469 119.960938 35.765625 119.652344 M 35.132812 117.410156 C 35.128906 117.410156 35.128906 117.410156 35.128906 117.410156 C 35.046875 117.09375 34.726562 116.910156 34.410156 116.992188 C 34.097656 117.074219 33.910156 117.398438 33.996094 117.710938 C 34.078125 118.027344 34.398438 118.210938 34.714844 118.128906 C 35.027344 118.046875 35.214844 117.722656 35.132812 117.410156 M 34.566406 115.148438 C 34.492188 114.832031 34.175781 114.636719 33.859375 114.710938 C 33.546875 114.78125 33.347656 115.097656 33.421875 115.414062 C 33.421875 115.414062 33.421875 115.414062 33.421875 115.417969 C 33.496094 115.734375 33.8125 115.929688 34.128906 115.855469 C 34.445312 115.78125 34.640625 115.464844 34.566406 115.148438 M 34.074219 112.871094 C 34.007812 112.554688 33.699219 112.347656 33.382812 112.410156 C 33.0625 112.476562 32.855469 112.785156 32.921875 113.101562 C 32.921875 113.105469 32.921875 113.105469 32.921875 113.105469 C 32.984375 113.421875 33.292969 113.628906 33.613281 113.566406 C 33.929688 113.5 34.136719 113.191406 34.074219 112.871094 M 33.648438 110.582031 C 33.59375 110.261719 33.292969 110.046875 32.972656 110.097656 C 32.652344 110.152344 32.4375 110.457031 32.492188 110.777344 C 32.546875 111.097656 32.847656 111.3125 33.167969 111.257812 C 33.488281 111.207031 33.703125 110.902344 33.648438 110.582031 M 33.296875 108.277344 C 33.253906 107.957031 32.957031 107.730469 32.632812 107.777344 C 32.3125 107.820312 32.089844 108.117188 32.132812 108.4375 C 32.175781 108.761719 32.472656 108.984375 32.792969 108.941406 C 33.117188 108.898438 33.339844 108.601562 33.296875 108.277344 M 33.015625 105.964844 C 32.980469 105.644531 32.691406 105.410156 32.367188 105.441406 C 32.046875 105.476562 31.8125 105.765625 31.847656 106.089844 C 31.878906 106.414062 32.171875 106.648438 32.492188 106.613281 C 32.816406 106.578125 33.050781 106.289062 33.015625 105.964844 M 32.804688 103.648438 C 32.804688 103.644531 32.804688 103.644531 32.804688 103.644531 C 32.777344 103.320312 32.496094 103.078125 32.171875 103.105469 C 31.847656 103.128906 31.605469 103.410156 31.632812 103.734375 C 31.65625 104.058594 31.9375 104.300781 32.261719 104.277344 C 32.585938 104.253906 32.828125 103.96875 32.804688 103.648438 M 32.664062 101.320312 C 32.648438 100.996094 32.375 100.746094 32.050781 100.757812 C 31.726562 100.773438 31.472656 101.046875 31.488281 101.371094 C 31.488281 101.375 31.488281 101.375 31.488281 101.375 C 31.503906 101.699219 31.777344 101.949219 32.101562 101.933594 C 32.425781 101.921875 32.679688 101.644531 32.664062 101.320312 M 32.59375 98.992188 C 32.589844 98.667969 32.320312 98.40625 31.996094 98.410156 C 31.671875 98.417969 31.414062 98.683594 31.417969 99.007812 C 31.421875 99.335938 31.691406 99.59375 32.015625 99.589844 C 32.339844 99.582031 32.597656 99.316406 32.59375 98.992188 M 32.59375 96.660156 C 32.597656 96.335938 32.339844 96.070312 32.015625 96.0625 C 31.691406 96.058594 31.421875 96.320312 31.417969 96.644531 C 31.414062 96.96875 31.671875 97.234375 31.996094 97.242188 C 32.320312 97.246094 32.589844 96.988281 32.59375 96.660156 M 32.664062 94.332031 C 32.679688 94.007812 32.425781 93.734375 32.101562 93.71875 C 31.777344 93.703125 31.503906 93.953125 31.488281 94.277344 C 31.488281 94.277344 31.488281 94.277344 31.488281 94.28125 C 31.472656 94.605469 31.726562 94.878906 32.050781 94.894531 C 32.375 94.910156 32.648438 94.65625 32.664062 94.332031 M 32.804688 92.007812 C 32.828125 91.683594 32.585938 91.398438 32.261719 91.375 C 31.9375 91.351562 31.65625 91.59375 31.632812 91.917969 C 31.605469 92.242188 31.851562 92.523438 32.171875 92.550781 C 32.496094 92.574219 32.777344 92.332031 32.804688 92.007812 M 33.015625 89.6875 C 33.050781 89.363281 32.816406 89.074219 32.492188 89.039062 C 32.171875 89.003906 31.878906 89.238281 31.847656 89.5625 C 31.8125 89.886719 32.046875 90.175781 32.367188 90.210938 C 32.691406 90.242188 32.980469 90.011719 33.015625 89.6875 M 33.296875 87.375 C 33.339844 87.050781 33.117188 86.753906 32.796875 86.710938 C 32.472656 86.667969 32.175781 86.890625 32.132812 87.214844 C 32.089844 87.535156 32.3125 87.832031 32.632812 87.875 C 32.957031 87.921875 33.253906 87.695312 33.296875 87.375 M 33.648438 85.070312 C 33.703125 84.75 33.488281 84.449219 33.167969 84.394531 C 32.847656 84.339844 32.546875 84.554688 32.492188 84.875 C 32.4375 85.195312 32.652344 85.5 32.972656 85.554688 C 33.292969 85.609375 33.597656 85.390625 33.648438 85.070312 M 34.074219 82.78125 C 34.136719 82.460938 33.929688 82.152344 33.613281 82.089844 C 33.292969 82.023438 32.984375 82.230469 32.921875 82.546875 C 32.921875 82.550781 32.921875 82.550781 32.921875 82.550781 C 32.855469 82.867188 33.0625 83.175781 33.382812 83.242188 C 33.699219 83.304688 34.007812 83.097656 34.074219 82.78125 M 34.566406 80.503906 C 34.640625 80.1875 34.445312 79.871094 34.128906 79.796875 C 33.8125 79.722656 33.496094 79.921875 33.421875 80.238281 C 33.347656 80.554688 33.546875 80.871094 33.859375 80.945312 C 34.175781 81.015625 34.492188 80.820312 34.566406 80.503906 M 35.132812 78.242188 C 35.214844 77.929688 35.027344 77.605469 34.714844 77.523438 C 34.402344 77.441406 34.078125 77.628906 33.996094 77.941406 C 33.910156 78.253906 34.097656 78.578125 34.410156 78.660156 C 34.726562 78.746094 35.046875 78.558594 35.132812 78.242188 M 35.765625 76.003906 C 35.765625 76 35.765625 76 35.765625 76 C 35.859375 75.691406 35.679688 75.363281 35.371094 75.269531 C 35.058594 75.175781 34.730469 75.351562 34.636719 75.664062 C 34.546875 75.976562 34.722656 76.304688 35.03125 76.398438 C 35.34375 76.488281 35.671875 76.3125 35.765625 76.003906 M 36.464844 73.78125 C 36.464844 73.78125 36.464844 73.78125 36.46875 73.78125 C 36.570312 73.472656 36.402344 73.140625 36.09375 73.035156 C 35.789062 72.933594 35.453125 73.101562 35.351562 73.410156 C 35.25 73.71875 35.414062 74.050781 35.722656 74.152344 C 36.03125 74.253906 36.363281 74.089844 36.464844 73.78125 M 37.238281 71.582031 C 37.347656 71.277344 37.195312 70.9375 36.890625 70.828125 C 36.585938 70.714844 36.246094 70.871094 36.132812 71.175781 C 36.023438 71.480469 36.179688 71.820312 36.484375 71.929688 C 36.789062 72.042969 37.125 71.886719 37.238281 71.582031 M 38.074219 69.410156 C 38.074219 69.410156 38.074219 69.410156 38.074219 69.40625 C 38.195312 69.105469 38.050781 68.765625 37.75 68.644531 C 37.449219 68.523438 37.105469 68.667969 36.984375 68.96875 C 36.863281 69.269531 37.007812 69.613281 37.308594 69.734375 C 37.609375 69.855469 37.953125 69.710938 38.074219 69.410156 M 38.980469 67.261719 C 39.109375 66.964844 38.976562 66.617188 38.679688 66.488281 C 38.382812 66.355469 38.035156 66.492188 37.90625 66.789062 C 37.902344 66.789062 37.902344 66.789062 37.902344 66.789062 C 37.773438 67.085938 37.90625 67.433594 38.207031 67.5625 C 38.503906 67.695312 38.847656 67.558594 38.980469 67.261719 M 39.949219 65.144531 C 40.089844 64.851562 39.964844 64.5 39.671875 64.359375 C 39.378906 64.21875 39.03125 64.34375 38.890625 64.636719 C 38.75 64.929688 38.875 65.28125 39.167969 65.421875 C 39.460938 65.5625 39.8125 65.4375 39.949219 65.144531 M 40.984375 63.058594 C 40.984375 63.058594 40.984375 63.058594 40.984375 63.054688 C 41.136719 62.769531 41.023438 62.414062 40.734375 62.265625 C 40.445312 62.117188 40.089844 62.230469 39.941406 62.519531 C 39.792969 62.808594 39.90625 63.160156 40.195312 63.308594 C 40.484375 63.460938 40.835938 63.347656 40.984375 63.058594 M 42.085938 61.003906 C 42.242188 60.71875 42.140625 60.359375 41.855469 60.203125 C 41.574219 60.046875 41.214844 60.148438 41.058594 60.433594 C 40.898438 60.714844 41 61.074219 41.285156 61.230469 C 41.570312 61.390625 41.925781 61.285156 42.085938 61.003906 M 43.246094 58.984375 C 43.414062 58.703125 43.320312 58.34375 43.042969 58.175781 C 42.765625 58.011719 42.402344 58.101562 42.238281 58.382812 C 42.070312 58.660156 42.160156 59.023438 42.441406 59.1875 C 42.71875 59.355469 43.082031 59.261719 43.246094 58.984375 M 44.46875 57 C 44.644531 56.726562 44.5625 56.363281 44.289062 56.1875 C 44.015625 56.011719 43.652344 56.09375 43.480469 56.367188 C 43.480469 56.367188 43.480469 56.367188 43.476562 56.367188 C 43.304688 56.640625 43.382812 57.003906 43.65625 57.179688 C 43.929688 57.355469 44.292969 57.273438 44.46875 57 M 45.753906 55.054688 C 45.9375 54.785156 45.867188 54.421875 45.597656 54.238281 C 45.332031 54.054688 44.964844 54.125 44.78125 54.394531 C 44.597656 54.660156 44.667969 55.027344 44.933594 55.210938 C 45.203125 55.394531 45.570312 55.324219 45.753906 55.054688 M 47.09375 53.152344 C 47.285156 52.886719 47.226562 52.519531 46.964844 52.328125 C 46.703125 52.136719 46.335938 52.195312 46.144531 52.457031 C 46.144531 52.460938 46.144531 52.460938 46.144531 52.460938 C 45.953125 52.722656 46.011719 53.089844 46.273438 53.28125 C 46.535156 53.472656 46.902344 53.414062 47.09375 53.152344 M 48.492188 51.289062 C 48.492188 51.289062 48.492188 51.289062 48.496094 51.289062 C 48.695312 51.03125 48.648438 50.664062 48.390625 50.464844 C 48.132812 50.265625 47.765625 50.3125 47.566406 50.566406 C 47.566406 50.566406 47.566406 50.566406 47.566406 50.570312 C 47.367188 50.824219 47.414062 51.195312 47.667969 51.394531 C 47.925781 51.59375 48.292969 51.546875 48.492188 51.289062 M 49.949219 49.46875 C 50.15625 49.21875 50.121094 48.847656 49.871094 48.640625 C 49.621094 48.433594 49.25 48.46875 49.042969 48.71875 C 49.042969 48.722656 49.042969 48.722656 49.042969 48.722656 C 48.835938 48.972656 48.871094 49.34375 49.121094 49.550781 C 49.371094 49.753906 49.742188 49.71875 49.949219 49.46875 M 51.460938 47.695312 C 51.675781 47.453125 51.652344 47.078125 51.40625 46.867188 C 51.164062 46.652344 50.792969 46.675781 50.578125 46.917969 C 50.578125 46.921875 50.578125 46.921875 50.578125 46.921875 C 50.363281 47.164062 50.386719 47.535156 50.628906 47.75 C 50.875 47.964844 51.246094 47.941406 51.460938 47.695312 M 53.023438 45.96875 C 53.246094 45.730469 53.234375 45.359375 52.996094 45.136719 C 52.757812 44.917969 52.386719 44.929688 52.164062 45.167969 C 51.941406 45.402344 51.957031 45.777344 52.191406 45.996094 C 52.429688 46.21875 52.800781 46.207031 53.023438 45.96875 M 54.640625 44.289062 C 54.871094 44.058594 54.867188 43.6875 54.636719 43.457031 C 54.40625 43.230469 54.035156 43.230469 53.804688 43.460938 C 53.578125 43.691406 53.578125 44.066406 53.808594 44.292969 C 54.039062 44.523438 54.410156 44.519531 54.640625 44.289062 M 56.304688 42.660156 C 56.304688 42.660156 56.304688 42.660156 56.308594 42.660156 C 56.542969 42.4375 56.550781 42.066406 56.328125 41.832031 C 56.105469 41.59375 55.734375 41.585938 55.496094 41.808594 C 55.261719 42.03125 55.25 42.40625 55.476562 42.640625 C 55.699219 42.875 56.070312 42.886719 56.304688 42.660156 M 58.019531 41.085938 C 58.019531 41.085938 58.019531 41.085938 58.023438 41.085938 C 58.265625 40.867188 58.285156 40.496094 58.070312 40.253906 C 57.851562 40.011719 57.480469 39.992188 57.238281 40.207031 C 56.996094 40.425781 56.976562 40.796875 57.191406 41.039062 C 57.40625 41.28125 57.777344 41.300781 58.019531 41.085938 M 59.78125 39.5625 C 59.785156 39.5625 59.785156 39.5625 59.785156 39.558594 C 60.03125 39.351562 60.066406 38.980469 59.855469 38.730469 C 59.648438 38.484375 59.277344 38.449219 59.027344 38.660156 C 58.777344 38.867188 58.746094 39.238281 58.957031 39.488281 C 59.164062 39.738281 59.535156 39.769531 59.78125 39.5625 M 61.589844 38.089844 C 61.589844 38.089844 61.589844 38.089844 61.59375 38.089844 C 61.847656 37.890625 61.890625 37.519531 61.691406 37.265625 C 61.488281 37.011719 61.121094 36.964844 60.863281 37.167969 C 60.609375 37.367188 60.566406 37.738281 60.765625 37.992188 C 60.964844 38.25 61.335938 38.292969 61.589844 38.089844 M 63.441406 36.679688 C 63.441406 36.675781 63.441406 36.675781 63.445312 36.675781 C 63.703125 36.484375 63.761719 36.117188 63.566406 35.855469 C 63.375 35.59375 63.003906 35.539062 62.746094 35.730469 C 62.746094 35.730469 62.746094 35.730469 62.742188 35.734375 C 62.484375 35.925781 62.429688 36.292969 62.621094 36.554688 C 62.8125 36.816406 63.183594 36.871094 63.441406 36.679688 M 65.335938 35.320312 C 65.335938 35.320312 65.335938 35.320312 65.339844 35.320312 C 65.605469 35.136719 65.671875 34.769531 65.484375 34.503906 C 65.300781 34.234375 64.933594 34.167969 64.667969 34.355469 C 64.402344 34.539062 64.335938 34.90625 64.519531 35.171875 C 64.703125 35.441406 65.070312 35.507812 65.335938 35.320312 M 67.273438 34.023438 C 67.546875 33.847656 67.621094 33.480469 67.445312 33.210938 C 67.269531 32.9375 66.90625 32.859375 66.632812 33.035156 C 66.632812 33.035156 66.632812 33.035156 66.632812 33.039062 C 66.359375 33.214844 66.28125 33.578125 66.457031 33.851562 C 66.636719 34.121094 67 34.199219 67.273438 34.023438 M 69.246094 32.785156 C 69.523438 32.617188 69.613281 32.253906 69.445312 31.976562 C 69.277344 31.699219 68.914062 31.609375 68.636719 31.78125 C 68.359375 31.949219 68.269531 32.308594 68.4375 32.585938 C 68.605469 32.863281 68.96875 32.953125 69.246094 32.785156 M 71.253906 31.609375 C 71.257812 31.609375 71.257812 31.609375 71.257812 31.609375 C 71.539062 31.449219 71.640625 31.089844 71.480469 30.808594 C 71.320312 30.523438 70.960938 30.425781 70.679688 30.585938 C 70.679688 30.585938 70.679688 30.585938 70.675781 30.585938 C 70.394531 30.746094 70.296875 31.101562 70.453125 31.386719 C 70.613281 31.667969 70.972656 31.769531 71.253906 31.609375 M 73.300781 30.492188 C 73.589844 30.34375 73.699219 29.988281 73.550781 29.699219 C 73.398438 29.410156 73.042969 29.300781 72.757812 29.453125 C 72.753906 29.453125 72.753906 29.453125 72.753906 29.453125 C 72.46875 29.605469 72.355469 29.960938 72.507812 30.246094 C 72.660156 30.535156 73.015625 30.644531 73.300781 30.492188 M 75.378906 29.441406 C 75.382812 29.441406 75.382812 29.441406 75.382812 29.441406 C 75.671875 29.300781 75.792969 28.949219 75.652344 28.65625 C 75.511719 28.363281 75.160156 28.242188 74.867188 28.386719 C 74.574219 28.527344 74.453125 28.878906 74.59375 29.171875 C 74.738281 29.460938 75.089844 29.585938 75.378906 29.441406 M 77.492188 28.457031 C 77.492188 28.457031 77.492188 28.457031 77.492188 28.453125 C 77.789062 28.320312 77.921875 27.972656 77.789062 27.679688 C 77.65625 27.382812 77.304688 27.25 77.011719 27.382812 C 77.011719 27.382812 77.011719 27.382812 77.007812 27.382812 C 76.714844 27.515625 76.582031 27.863281 76.714844 28.160156 C 76.847656 28.457031 77.195312 28.589844 77.492188 28.457031 M 79.628906 27.535156 C 79.632812 27.535156 79.632812 27.535156 79.632812 27.535156 C 79.933594 27.410156 80.074219 27.066406 79.949219 26.765625 C 79.828125 26.464844 79.484375 26.324219 79.183594 26.445312 C 79.183594 26.449219 79.183594 26.449219 79.183594 26.449219 C 78.882812 26.570312 78.738281 26.914062 78.863281 27.214844 C 78.988281 27.515625 79.332031 27.65625 79.628906 27.535156 M 81.796875 26.679688 C 82.101562 26.566406 82.257812 26.226562 82.140625 25.921875 C 82.027344 25.617188 81.6875 25.464844 81.382812 25.578125 C 81.078125 25.695312 80.925781 26.03125 81.039062 26.335938 C 81.15625 26.640625 81.492188 26.792969 81.796875 26.679688 M 83.988281 25.890625 C 83.992188 25.890625 83.992188 25.890625 83.992188 25.890625 C 84.296875 25.785156 84.460938 25.453125 84.355469 25.144531 C 84.253906 24.839844 83.917969 24.675781 83.609375 24.777344 C 83.609375 24.78125 83.609375 24.78125 83.609375 24.78125 C 83.300781 24.882812 83.140625 25.21875 83.242188 25.527344 C 83.347656 25.832031 83.683594 25.996094 83.988281 25.890625 M 86.207031 25.171875 C 86.515625 25.078125 86.691406 24.746094 86.597656 24.4375 C 86.5 24.128906 86.171875 23.953125 85.859375 24.046875 C 85.859375 24.046875 85.859375 24.046875 85.859375 24.050781 C 85.550781 24.144531 85.375 24.472656 85.472656 24.785156 C 85.566406 25.09375 85.894531 25.269531 86.207031 25.171875 M 88.441406 24.523438 C 88.441406 24.523438 88.441406 24.523438 88.445312 24.523438 C 88.757812 24.4375 88.941406 24.113281 88.855469 23.800781 C 88.769531 23.484375 88.445312 23.300781 88.132812 23.386719 C 87.820312 23.472656 87.632812 23.796875 87.71875 24.109375 C 87.804688 24.421875 88.128906 24.609375 88.441406 24.523438 M 90.699219 23.941406 C 91.015625 23.863281 91.210938 23.546875 91.132812 23.230469 C 91.058594 22.914062 90.738281 22.722656 90.425781 22.796875 C 90.421875 22.796875 90.421875 22.796875 90.421875 22.796875 C 90.105469 22.875 89.914062 23.191406 89.988281 23.507812 C 90.066406 23.824219 90.382812 24.015625 90.699219 23.941406 M 92.972656 23.429688 C 93.289062 23.363281 93.492188 23.050781 93.429688 22.734375 C 93.363281 22.414062 93.050781 22.210938 92.730469 22.277344 C 92.414062 22.34375 92.210938 22.65625 92.277344 22.972656 C 92.34375 23.292969 92.652344 23.496094 92.972656 23.429688 M 95.257812 22.988281 C 95.257812 22.988281 95.257812 22.988281 95.261719 22.988281 C 95.578125 22.929688 95.792969 22.625 95.738281 22.308594 C 95.679688 21.988281 95.375 21.773438 95.054688 21.832031 C 94.734375 21.886719 94.519531 22.191406 94.578125 22.511719 C 94.632812 22.832031 94.9375 23.042969 95.257812 22.988281 M 97.558594 22.617188 C 97.882812 22.570312 98.105469 22.273438 98.058594 21.953125 C 98.011719 21.628906 97.710938 21.40625 97.390625 21.453125 C 97.070312 21.5 96.847656 21.800781 96.894531 22.121094 C 96.941406 22.441406 97.238281 22.664062 97.558594 22.617188 M 99.871094 22.316406 C 100.191406 22.28125 100.425781 21.988281 100.386719 21.667969 C 100.351562 21.34375 100.058594 21.113281 99.738281 21.148438 C 99.738281 21.148438 99.738281 21.148438 99.734375 21.148438 C 99.414062 21.1875 99.183594 21.476562 99.21875 21.800781 C 99.253906 22.125 99.546875 22.355469 99.871094 22.316406 M 102.1875 22.089844 C 102.511719 22.0625 102.753906 21.777344 102.726562 21.453125 C 102.699219 21.132812 102.414062 20.890625 102.089844 20.917969 C 101.765625 20.945312 101.527344 21.230469 101.554688 21.550781 C 101.582031 21.875 101.863281 22.117188 102.1875 22.089844 M 104.511719 21.929688 C 104.835938 21.914062 105.085938 21.636719 105.070312 21.3125 C 105.050781 20.988281 104.777344 20.738281 104.453125 20.757812 C 104.449219 20.757812 104.449219 20.757812 104.449219 20.757812 C 104.125 20.773438 103.878906 21.050781 103.894531 21.375 C 103.910156 21.699219 104.1875 21.949219 104.511719 21.929688 M 106.839844 21.84375 C 107.167969 21.835938 107.421875 21.566406 107.414062 21.242188 C 107.410156 20.917969 107.140625 20.660156 106.816406 20.667969 C 106.816406 20.667969 106.816406 20.667969 106.8125 20.667969 C 106.488281 20.675781 106.230469 20.945312 106.238281 21.269531 C 106.246094 21.59375 106.515625 21.851562 106.839844 21.84375 M 109.171875 21.824219 C 109.496094 21.828125 109.761719 21.566406 109.765625 21.242188 C 109.765625 20.917969 109.503906 20.652344 109.179688 20.648438 C 108.855469 20.648438 108.589844 20.910156 108.585938 21.234375 C 108.585938 21.558594 108.847656 21.824219 109.171875 21.824219 M 111.5 21.878906 C 111.824219 21.890625 112.097656 21.636719 112.109375 21.3125 C 112.121094 20.988281 111.871094 20.714844 111.546875 20.703125 C 111.542969 20.703125 111.542969 20.703125 111.542969 20.703125 C 111.21875 20.691406 110.945312 20.945312 110.933594 21.269531 C 110.921875 21.59375 111.175781 21.867188 111.5 21.878906 M 113.828125 22 C 114.152344 22.023438 114.433594 21.777344 114.453125 21.453125 C 114.476562 21.132812 114.230469 20.851562 113.90625 20.828125 C 113.582031 20.804688 113.300781 21.050781 113.28125 21.375 C 113.257812 21.699219 113.503906 21.980469 113.828125 22 M 116.148438 22.195312 C 116.472656 22.226562 116.761719 21.992188 116.792969 21.667969 C 116.824219 21.34375 116.585938 21.058594 116.265625 21.023438 C 115.941406 20.992188 115.652344 21.230469 115.621094 21.550781 C 115.589844 21.875 115.824219 22.164062 116.148438 22.195312 M 118.460938 22.457031 C 118.464844 22.460938 118.464844 22.460938 118.464844 22.460938 C 118.785156 22.5 119.082031 22.273438 119.121094 21.953125 C 119.164062 21.628906 118.9375 21.335938 118.613281 21.292969 C 118.292969 21.25 117.996094 21.480469 117.957031 21.800781 C 117.914062 22.121094 118.140625 22.417969 118.460938 22.457031 M 120.769531 22.792969 C 121.089844 22.847656 121.390625 22.628906 121.441406 22.308594 C 121.496094 21.988281 121.277344 21.683594 120.957031 21.632812 C 120.636719 21.582031 120.332031 21.800781 120.28125 22.121094 C 120.230469 22.441406 120.449219 22.742188 120.769531 22.792969 M 123.0625 23.199219 C 123.382812 23.261719 123.691406 23.054688 123.75 22.734375 C 123.8125 22.414062 123.605469 22.105469 123.285156 22.046875 C 122.964844 21.984375 122.65625 22.191406 122.597656 22.511719 C 122.535156 22.832031 122.742188 23.136719 123.0625 23.199219 M 125.34375 23.675781 C 125.660156 23.746094 125.976562 23.546875 126.046875 23.230469 C 126.117188 22.914062 125.917969 22.601562 125.601562 22.53125 C 125.285156 22.457031 124.96875 22.65625 124.898438 22.972656 C 124.828125 23.289062 125.027344 23.605469 125.34375 23.675781 M 127.605469 24.222656 C 127.609375 24.222656 127.609375 24.222656 127.609375 24.222656 C 127.921875 24.304688 128.242188 24.113281 128.324219 23.800781 C 128.40625 23.484375 128.214844 23.164062 127.902344 23.085938 C 127.585938 23.003906 127.265625 23.191406 127.183594 23.507812 C 127.105469 23.820312 127.292969 24.140625 127.605469 24.222656 M 129.855469 24.839844 C 130.167969 24.929688 130.492188 24.75 130.582031 24.4375 C 130.675781 24.128906 130.496094 23.800781 130.183594 23.710938 C 129.871094 23.617188 129.542969 23.796875 129.453125 24.109375 C 129.363281 24.421875 129.542969 24.746094 129.855469 24.839844 M 132.082031 25.523438 C 132.390625 25.625 132.722656 25.457031 132.820312 25.144531 C 132.921875 24.835938 132.753906 24.507812 132.445312 24.40625 C 132.136719 24.304688 131.804688 24.472656 131.703125 24.78125 C 131.601562 25.09375 131.773438 25.421875 132.082031 25.523438 M 134.285156 26.277344 C 134.589844 26.386719 134.929688 26.230469 135.039062 25.921875 C 135.148438 25.617188 134.988281 25.28125 134.683594 25.171875 C 134.375 25.0625 134.039062 25.21875 133.929688 25.523438 C 133.820312 25.832031 133.980469 26.167969 134.285156 26.277344 M 136.464844 27.097656 C 136.769531 27.21875 137.109375 27.070312 137.226562 26.769531 C 137.347656 26.464844 137.199219 26.125 136.898438 26.003906 C 136.898438 26.003906 136.898438 26.003906 136.894531 26.003906 C 136.59375 25.886719 136.253906 26.035156 136.132812 26.335938 C 136.015625 26.636719 136.164062 26.980469 136.464844 27.097656 M 138.617188 27.988281 C 138.621094 27.988281 138.621094 27.988281 138.621094 27.988281 C 138.917969 28.117188 139.261719 27.976562 139.390625 27.679688 C 139.519531 27.382812 139.382812 27.035156 139.085938 26.90625 C 139.085938 26.90625 139.085938 26.90625 139.082031 26.90625 C 138.785156 26.777344 138.441406 26.917969 138.3125 27.214844 C 138.183594 27.511719 138.320312 27.859375 138.617188 27.988281 M 140.742188 28.941406 C 140.746094 28.941406 140.746094 28.941406 140.746094 28.941406 C 141.039062 29.078125 141.390625 28.953125 141.527344 28.65625 C 141.664062 28.363281 141.535156 28.015625 141.242188 27.875 C 140.949219 27.738281 140.597656 27.867188 140.460938 28.160156 C 140.324219 28.453125 140.449219 28.804688 140.742188 28.941406 M 142.839844 29.960938 C 143.128906 30.105469 143.484375 29.992188 143.628906 29.703125 C 143.777344 29.410156 143.660156 29.058594 143.371094 28.910156 C 143.078125 28.765625 142.726562 28.878906 142.578125 29.171875 C 142.433594 29.460938 142.550781 29.8125 142.839844 29.960938 M 144.902344 31.042969 C 145.1875 31.199219 145.542969 31.09375 145.699219 30.808594 C 145.855469 30.523438 145.75 30.167969 145.464844 30.011719 C 145.179688 29.855469 144.820312 29.960938 144.667969 30.246094 C 144.511719 30.53125 144.617188 30.886719 144.902344 31.042969 M 146.929688 32.1875 C 146.929688 32.191406 146.929688 32.191406 146.929688 32.191406 C 147.210938 32.355469 147.570312 32.257812 147.734375 31.980469 C 147.898438 31.699219 147.804688 31.339844 147.523438 31.175781 C 147.242188 31.011719 146.882812 31.105469 146.71875 31.386719 C 146.554688 31.664062 146.648438 32.023438 146.929688 32.1875 M 148.921875 33.398438 C 149.199219 33.570312 149.5625 33.488281 149.734375 33.210938 C 149.90625 32.9375 149.824219 32.574219 149.546875 32.402344 C 149.273438 32.230469 148.910156 32.3125 148.738281 32.585938 C 148.5625 32.863281 148.648438 33.222656 148.921875 33.398438 M 150.875 34.664062 C 150.875 34.664062 150.875 34.664062 150.878906 34.664062 C 151.148438 34.847656 151.511719 34.773438 151.691406 34.503906 C 151.875 34.234375 151.800781 33.871094 151.53125 33.691406 C 151.53125 33.6875 151.53125 33.6875 151.53125 33.6875 C 151.261719 33.507812 150.898438 33.578125 150.714844 33.847656 C 150.535156 34.117188 150.605469 34.484375 150.875 34.664062 M 152.792969 35.992188 C 153.054688 36.183594 153.421875 36.121094 153.613281 35.855469 C 153.800781 35.59375 153.742188 35.226562 153.476562 35.039062 C 153.476562 35.035156 153.476562 35.035156 153.476562 35.035156 C 153.210938 34.847656 152.84375 34.910156 152.65625 35.171875 C 152.464844 35.4375 152.527344 35.804688 152.792969 35.992188 M 154.664062 37.378906 C 154.921875 37.574219 155.292969 37.527344 155.488281 37.269531 C 155.6875 37.011719 155.636719 36.640625 155.378906 36.445312 C 155.378906 36.445312 155.378906 36.445312 155.378906 36.441406 C 155.121094 36.246094 154.75 36.296875 154.554688 36.554688 C 154.355469 36.8125 154.40625 37.179688 154.664062 37.378906 M 156.496094 38.820312 C 156.746094 39.023438 157.117188 38.988281 157.320312 38.734375 C 157.527344 38.484375 157.488281 38.113281 157.238281 37.90625 C 157.234375 37.90625 157.234375 37.90625 157.234375 37.90625 C 156.984375 37.703125 156.613281 37.742188 156.410156 37.992188 C 156.203125 38.246094 156.242188 38.613281 156.496094 38.820312 M 158.28125 40.316406 C 158.527344 40.53125 158.898438 40.503906 159.109375 40.257812 C 159.320312 40.011719 159.296875 39.640625 159.050781 39.429688 C 159.050781 39.429688 159.050781 39.429688 159.046875 39.425781 C 158.804688 39.214844 158.433594 39.242188 158.21875 39.488281 C 158.007812 39.734375 158.035156 40.105469 158.28125 40.316406 M 160.019531 41.867188 C 160.257812 42.085938 160.628906 42.070312 160.851562 41.832031 C 161.070312 41.59375 161.054688 41.222656 160.816406 41.003906 C 160.816406 41.003906 160.816406 41.003906 160.8125 41 C 160.574219 40.78125 160.203125 40.796875 159.984375 41.035156 C 159.765625 41.277344 159.78125 41.648438 160.019531 41.867188 M 161.710938 43.46875 C 161.710938 43.46875 161.710938 43.46875 161.710938 43.472656 C 161.941406 43.699219 162.3125 43.695312 162.542969 43.460938 C 162.769531 43.230469 162.765625 42.855469 162.53125 42.628906 C 162.296875 42.402344 161.925781 42.40625 161.699219 42.640625 C 161.472656 42.871094 161.476562 43.242188 161.710938 43.46875 M 163.351562 45.125 C 163.578125 45.359375 163.949219 45.367188 164.183594 45.140625 C 164.417969 44.914062 164.421875 44.542969 164.199219 44.308594 C 164.199219 44.308594 164.199219 44.308594 164.195312 44.308594 C 163.972656 44.074219 163.601562 44.066406 163.367188 44.292969 C 163.132812 44.519531 163.125 44.890625 163.351562 45.125 M 164.941406 46.828125 C 165.160156 47.066406 165.53125 47.085938 165.769531 46.867188 C 166.011719 46.652344 166.03125 46.277344 165.8125 46.039062 C 165.59375 45.796875 165.222656 45.777344 164.980469 45.996094 C 164.742188 46.214844 164.722656 46.585938 164.941406 46.828125 M 166.476562 48.578125 C 166.6875 48.824219 167.058594 48.855469 167.308594 48.644531 C 167.554688 48.433594 167.582031 48.0625 167.375 47.816406 C 167.375 47.816406 167.375 47.816406 167.371094 47.816406 C 167.164062 47.566406 166.792969 47.539062 166.542969 47.75 C 166.296875 47.960938 166.265625 48.332031 166.476562 48.578125 M 167.960938 50.375 C 168.164062 50.628906 168.535156 50.667969 168.789062 50.464844 C 169.042969 50.261719 169.082031 49.894531 168.878906 49.640625 C 168.675781 49.386719 168.304688 49.34375 168.050781 49.546875 C 167.800781 49.75 167.757812 50.121094 167.960938 50.375 M 169.390625 52.214844 C 169.585938 52.476562 169.953125 52.527344 170.210938 52.332031 C 170.472656 52.136719 170.523438 51.769531 170.328125 51.507812 C 170.132812 51.25 169.765625 51.195312 169.503906 51.390625 C 169.246094 51.585938 169.195312 51.957031 169.390625 52.214844 M 170.757812 54.097656 C 170.761719 54.097656 170.761719 54.097656 170.761719 54.097656 C 170.949219 54.363281 171.3125 54.429688 171.578125 54.242188 C 171.84375 54.054688 171.910156 53.6875 171.722656 53.421875 C 171.722656 53.421875 171.722656 53.421875 171.71875 53.421875 C 171.535156 53.15625 171.167969 53.09375 170.902344 53.28125 C 170.636719 53.464844 170.574219 53.832031 170.757812 54.097656 M 172.074219 56.023438 C 172.25 56.296875 172.617188 56.371094 172.886719 56.191406 C 173.160156 56.011719 173.234375 55.648438 173.054688 55.378906 C 173.054688 55.375 173.054688 55.375 173.054688 55.375 C 172.875 55.105469 172.511719 55.03125 172.238281 55.210938 C 171.96875 55.386719 171.894531 55.753906 172.074219 56.023438 M 173.324219 57.988281 C 173.324219 57.988281 173.324219 57.988281 173.328125 57.988281 C 173.496094 58.265625 173.859375 58.351562 174.136719 58.179688 C 174.410156 58.007812 174.496094 57.648438 174.328125 57.371094 C 174.328125 57.371094 174.328125 57.371094 174.324219 57.371094 C 174.15625 57.09375 173.792969 57.007812 173.515625 57.179688 C 173.242188 57.347656 173.15625 57.710938 173.324219 57.988281 M 174.519531 59.988281 C 174.679688 60.269531 175.039062 60.367188 175.320312 60.207031 C 175.601562 60.042969 175.699219 59.683594 175.539062 59.402344 C 175.539062 59.402344 175.539062 59.402344 175.535156 59.402344 C 175.375 59.121094 175.015625 59.023438 174.734375 59.1875 C 174.453125 59.347656 174.355469 59.707031 174.519531 59.988281 M 175.648438 62.027344 C 175.800781 62.3125 176.15625 62.421875 176.445312 62.269531 C 176.730469 62.113281 176.839844 61.757812 176.683594 61.472656 C 176.53125 61.183594 176.175781 61.078125 175.890625 61.230469 C 175.601562 61.382812 175.496094 61.738281 175.648438 62.027344 M 176.714844 64.097656 C 176.859375 64.386719 177.214844 64.507812 177.503906 64.363281 C 177.792969 64.21875 177.914062 63.867188 177.769531 63.574219 C 177.625 63.285156 177.273438 63.164062 176.980469 63.308594 C 176.691406 63.453125 176.570312 63.804688 176.714844 64.097656 M 177.71875 66.199219 C 177.855469 66.496094 178.203125 66.625 178.5 66.488281 C 178.792969 66.355469 178.921875 66.007812 178.789062 65.710938 C 178.652344 65.414062 178.304688 65.285156 178.007812 65.421875 C 177.714844 65.554688 177.582031 65.90625 177.71875 66.199219 M 178.65625 68.332031 C 178.78125 68.632812 179.128906 68.773438 179.425781 68.644531 C 179.726562 68.519531 179.867188 68.175781 179.738281 67.875 C 179.613281 67.578125 179.269531 67.4375 178.96875 67.5625 C 178.671875 67.6875 178.53125 68.03125 178.65625 68.332031 M 179.527344 70.492188 C 179.644531 70.796875 179.984375 70.949219 180.289062 70.832031 C 180.589844 70.714844 180.742188 70.375 180.625 70.070312 C 180.507812 69.765625 180.167969 69.617188 179.863281 69.734375 C 179.5625 69.847656 179.410156 70.191406 179.527344 70.492188 M 180.332031 72.679688 C 180.441406 72.984375 180.777344 73.148438 181.082031 73.039062 C 181.386719 72.933594 181.550781 72.597656 181.441406 72.292969 C 181.441406 72.289062 181.441406 72.289062 181.441406 72.289062 C 181.335938 71.984375 181 71.824219 180.691406 71.929688 C 180.386719 72.035156 180.226562 72.371094 180.332031 72.679688 M 181.070312 74.890625 C 181.167969 75.199219 181.496094 75.371094 181.808594 75.273438 C 182.117188 75.175781 182.289062 74.84375 182.191406 74.535156 C 182.09375 74.226562 181.761719 74.054688 181.453125 74.152344 C 181.144531 74.25 180.972656 74.578125 181.070312 74.890625 M 181.738281 77.121094 C 181.824219 77.433594 182.148438 77.617188 182.460938 77.527344 C 182.773438 77.4375 182.957031 77.113281 182.867188 76.800781 C 182.78125 76.488281 182.453125 76.308594 182.144531 76.394531 C 181.832031 76.484375 181.648438 76.808594 181.738281 77.121094 M 182.335938 79.371094 C 182.335938 79.371094 182.335938 79.371094 182.335938 79.375 C 182.414062 79.6875 182.734375 79.878906 183.046875 79.800781 C 183.363281 79.722656 183.554688 79.402344 183.476562 79.089844 C 183.476562 79.089844 183.476562 79.089844 183.476562 79.085938 C 183.398438 78.773438 183.078125 78.582031 182.761719 78.660156 C 182.449219 78.738281 182.257812 79.058594 182.335938 79.371094 M 182.863281 81.640625 C 182.933594 81.960938 183.246094 82.160156 183.5625 82.089844 C 183.878906 82.023438 184.082031 81.710938 184.011719 81.394531 C 184.011719 81.390625 184.011719 81.390625 184.011719 81.390625 C 183.945312 81.074219 183.632812 80.875 183.3125 80.941406 C 182.996094 81.011719 182.796875 81.324219 182.863281 81.640625 M 183.324219 83.925781 C 183.382812 84.246094 183.6875 84.457031 184.007812 84.398438 C 184.328125 84.339844 184.539062 84.03125 184.480469 83.710938 C 184.417969 83.390625 184.113281 83.179688 183.792969 83.238281 C 183.476562 83.300781 183.265625 83.605469 183.324219 83.925781 M 183.710938 86.222656 C 183.761719 86.542969 184.058594 86.765625 184.382812 86.714844 C 184.703125 86.664062 184.921875 86.367188 184.875 86.046875 C 184.875 86.042969 184.875 86.042969 184.875 86.042969 C 184.824219 85.722656 184.523438 85.503906 184.203125 85.550781 C 183.882812 85.601562 183.660156 85.902344 183.710938 86.222656 M 184.027344 88.53125 C 184.066406 88.851562 184.359375 89.082031 184.683594 89.042969 C 185.003906 89.003906 185.234375 88.710938 185.195312 88.390625 C 185.195312 88.386719 185.195312 88.386719 185.195312 88.386719 C 185.15625 88.066406 184.863281 87.835938 184.539062 87.875 C 184.21875 87.914062 183.988281 88.207031 184.027344 88.53125 M 184.273438 90.847656 C 184.304688 91.171875 184.589844 91.410156 184.914062 91.378906 C 185.238281 91.351562 185.476562 91.0625 185.445312 90.742188 C 185.445312 90.742188 185.445312 90.742188 185.445312 90.738281 C 185.417969 90.417969 185.128906 90.179688 184.808594 90.207031 C 184.484375 90.238281 184.246094 90.523438 184.273438 90.847656 M 184.449219 93.167969 C 184.449219 93.171875 184.449219 93.171875 184.453125 93.171875 C 184.472656 93.496094 184.75 93.742188 185.074219 93.722656 C 185.398438 93.703125 185.644531 93.425781 185.625 93.101562 C 185.625 93.097656 185.625 93.097656 185.625 93.097656 C 185.605469 92.773438 185.328125 92.527344 185.003906 92.546875 C 184.679688 92.566406 184.429688 92.84375 184.449219 93.167969 M 184.554688 95.496094 C 184.554688 95.496094 184.554688 95.496094 184.554688 95.5 C 184.566406 95.824219 184.835938 96.078125 185.160156 96.066406 C 185.484375 96.058594 185.742188 95.789062 185.730469 95.464844 C 185.730469 95.460938 185.730469 95.460938 185.730469 95.460938 C 185.722656 95.136719 185.449219 94.882812 185.125 94.890625 C 184.800781 94.902344 184.546875 95.171875 184.554688 95.496094 "/>
</g>
</g>
<path style=" stroke:none;fill-rule:nonzero;fill:rgb(92.941284%,21.176147%,14.117432%);fill-opacity:1;" d="M 111.992188 20.695312 C 111.992188 21.964844 111.304688 23.070312 110.285156 23.667969 C 109.777344 23.964844 109.183594 24.136719 108.550781 24.136719 C 107.285156 24.136719 106.175781 23.449219 105.582031 22.429688 C 105.285156 21.917969 105.113281 21.328125 105.113281 20.695312 C 105.113281 19.429688 105.796875 18.320312 106.820312 17.722656 C 107.328125 17.425781 107.921875 17.257812 108.550781 17.257812 C 109.820312 17.257812 110.925781 17.941406 111.523438 18.960938 C 111.820312 19.472656 111.992188 20.0625 111.992188 20.695312 M 110.425781 20.695312 C 110.425781 20.351562 110.332031 20.03125 110.171875 19.753906 C 109.847656 19.195312 109.242188 18.824219 108.550781 18.824219 C 108.207031 18.824219 107.886719 18.914062 107.609375 19.078125 C 107.054688 19.402344 106.679688 20.003906 106.679688 20.695312 C 106.679688 21.039062 106.773438 21.363281 106.933594 21.636719 C 107.257812 22.195312 107.863281 22.566406 108.550781 22.566406 C 108.894531 22.566406 109.21875 22.476562 109.496094 22.3125 C 110.050781 21.988281 110.425781 21.386719 110.425781 20.695312 "/>
<path style=" stroke:none;fill-rule:nonzero;fill:rgb(92.941284%,21.176147%,14.117432%);fill-opacity:1;" d="M 35.511719 99.566406 C 35.511719 100.835938 34.824219 101.941406 33.804688 102.539062 C 33.296875 102.835938 32.703125 103.007812 32.070312 103.007812 C 30.804688 103.007812 29.695312 102.320312 29.097656 101.300781 C 28.800781 100.789062 28.632812 100.199219 28.632812 99.566406 C 28.632812 98.300781 29.316406 97.191406 30.335938 96.59375 C 30.847656 96.296875 31.4375 96.128906 32.070312 96.128906 C 33.339844 96.128906 34.445312 96.8125 35.042969 97.832031 C 35.339844 98.34375 35.511719 98.933594 35.511719 99.566406 M 33.941406 99.566406 C 33.941406 99.222656 33.851562 98.902344 33.6875 98.625 C 33.363281 98.066406 32.761719 97.695312 32.070312 97.695312 C 31.726562 97.695312 31.40625 97.785156 31.128906 97.949219 C 30.574219 98.273438 30.199219 98.875 30.199219 99.566406 C 30.199219 99.910156 30.289062 100.234375 30.453125 100.507812 C 30.777344 101.066406 31.378906 101.4375 32.070312 101.4375 C 32.414062 101.4375 32.738281 101.347656 33.011719 101.183594 C 33.570312 100.859375 33.941406 100.257812 33.941406 99.566406 "/>
<path style=" stroke:none;fill-rule:nonzero;fill:rgb(92.941284%,21.176147%,14.117432%);fill-opacity:1;" d="M 111.992188 173.832031 C 111.992188 175.097656 111.304688 176.207031 110.285156 176.800781 C 109.777344 177.097656 109.183594 177.269531 108.550781 177.269531 C 107.285156 177.269531 106.175781 176.585938 105.582031 175.5625 C 105.285156 175.054688 105.113281 174.460938 105.113281 173.832031 C 105.113281 172.5625 105.796875 171.457031 106.820312 170.859375 C 107.328125 170.5625 107.921875 170.390625 108.550781 170.390625 C 109.820312 170.390625 110.925781 171.078125 111.523438 172.097656 C 111.820312 172.605469 111.992188 173.199219 111.992188 173.832031 M 110.425781 173.832031 C 110.425781 173.488281 110.332031 173.164062 110.171875 172.886719 C 109.847656 172.332031 109.242188 171.957031 108.550781 171.957031 C 108.207031 171.957031 107.886719 172.050781 107.609375 172.210938 C 107.054688 172.535156 106.679688 173.140625 106.679688 173.832031 C 106.679688 174.175781 106.773438 174.496094 106.933594 174.773438 C 107.257812 175.328125 107.863281 175.703125 108.550781 175.703125 C 108.894531 175.703125 109.21875 175.609375 109.496094 175.449219 C 110.050781 175.125 110.425781 174.519531 110.425781 173.832031 "/>
<path style=" stroke:none;fill-rule:nonzero;fill:rgb(92.941284%,21.176147%,14.117432%);fill-opacity:1;" d="M 189.027344 99.105469 C 189.027344 100.375 188.339844 101.480469 187.320312 102.078125 C 186.8125 102.375 186.21875 102.546875 185.585938 102.546875 C 184.320312 102.546875 183.210938 101.859375 182.617188 100.839844 C 182.316406 100.332031 182.148438 99.738281 182.148438 99.105469 C 182.148438 97.839844 182.832031 96.730469 183.855469 96.136719 C 184.363281 95.835938 184.957031 95.667969 185.585938 95.667969 C 186.855469 95.667969 187.960938 96.351562 188.558594 97.375 C 188.855469 97.882812 189.027344 98.472656 189.027344 99.105469 M 187.460938 99.105469 C 187.460938 98.761719 187.367188 98.441406 187.207031 98.164062 C 186.878906 97.609375 186.277344 97.234375 185.585938 97.234375 C 185.242188 97.234375 184.921875 97.328125 184.644531 97.488281 C 184.089844 97.8125 183.714844 98.414062 183.714844 99.105469 C 183.714844 99.449219 183.808594 99.773438 183.96875 100.050781 C 184.292969 100.605469 184.898438 100.980469 185.585938 100.980469 C 185.929688 100.980469 186.253906 100.886719 186.53125 100.726562 C 187.085938 100.398438 187.460938 99.796875 187.460938 99.105469 "/>
</g>
</svg>
