<?xml version="1.0" encoding="UTF-8"?>
<svg xmlns="http://www.w3.org/2000/svg" xmlns:xlink="http://www.w3.org/1999/xlink" width="407.0169pt" height="211.55413pt" viewBox="0 0 407.0169 211.55413" version="1.2">
<g id="surface1">
<path style=" stroke:none;fill-rule:nonzero;fill:rgb(7.058716%,1.176453%,46.665955%);fill-opacity:1;" d="M 82.953125 24.417969 C 82.953125 24.09375 83.214844 23.832031 83.539062 23.832031 C 83.863281 23.832031 84.128906 24.09375 84.128906 24.417969 L 84.128906 60.558594 C 84.128906 60.882812 83.863281 61.144531 83.539062 61.144531 C 83.214844 61.144531 82.953125 60.882812 82.953125 60.558594 Z M 82.953125 24.417969 "/>
<path style=" stroke:none;fill-rule:nonzero;fill:rgb(7.058716%,1.176453%,46.665955%);fill-opacity:1;" d="M 83.5625 61.144531 C 83.238281 61.144531 82.976562 60.882812 82.976562 60.558594 C 82.976562 60.234375 83.238281 59.96875 83.5625 59.96875 L 119.023438 59.96875 C 119.351562 59.96875 119.613281 60.234375 119.613281 60.558594 C 119.613281 60.882812 119.351562 61.144531 119.023438 61.144531 Z M 83.5625 61.144531 "/>
<path style=" stroke:none;fill-rule:nonzero;fill:rgb(7.058716%,1.176453%,46.665955%);fill-opacity:1;" d="M 120.035156 60.96875 C 119.808594 61.199219 119.4375 61.207031 119.203125 60.980469 C 118.96875 60.753906 118.964844 60.378906 119.191406 60.148438 L 137.277344 41.535156 C 137.503906 41.304688 137.875 41.296875 138.109375 41.523438 C 138.34375 41.75 138.347656 42.121094 138.121094 42.355469 Z M 120.035156 60.96875 "/>
<path style=" stroke:none;fill-rule:nonzero;fill:rgb(7.058716%,1.176453%,46.665955%);fill-opacity:1;" d="M 119.203125 24.839844 C 118.972656 24.613281 118.964844 24.242188 119.191406 24.007812 C 119.417969 23.777344 119.789062 23.769531 120.023438 23.996094 L 138.109375 41.523438 C 138.34375 41.75 138.347656 42.121094 138.121094 42.355469 C 137.894531 42.585938 137.523438 42.59375 137.289062 42.367188 Z M 119.203125 24.839844 "/>
<path style=" stroke:none;fill-rule:nonzero;fill:rgb(7.058716%,1.176453%,46.665955%);fill-opacity:1;" d="M 83.539062 25.003906 C 83.214844 25.003906 82.953125 24.742188 82.953125 24.417969 C 82.953125 24.09375 83.214844 23.832031 83.539062 23.832031 L 119.613281 23.832031 C 119.9375 23.832031 120.199219 24.09375 120.199219 24.417969 C 120.199219 24.742188 119.9375 25.003906 119.613281 25.003906 Z M 83.539062 25.003906 "/>
<path style=" stroke:none;fill-rule:nonzero;fill:rgb(7.058716%,1.176453%,46.665955%);fill-opacity:1;" d="M 82.953125 78.359375 C 82.953125 78.03125 83.214844 77.769531 83.539062 77.769531 C 83.863281 77.769531 84.128906 78.03125 84.128906 78.359375 L 84.128906 114.496094 C 84.128906 114.820312 83.863281 115.085938 83.539062 115.085938 C 83.214844 115.085938 82.953125 114.820312 82.953125 114.496094 Z M 82.953125 78.359375 "/>
<path style=" stroke:none;fill-rule:nonzero;fill:rgb(7.058716%,1.176453%,46.665955%);fill-opacity:1;" d="M 83.5625 115.085938 C 83.238281 115.085938 82.976562 114.820312 82.976562 114.496094 C 82.976562 114.171875 83.238281 113.910156 83.5625 113.910156 L 119.023438 113.910156 C 119.351562 113.910156 119.613281 114.171875 119.613281 114.496094 C 119.613281 114.820312 119.351562 115.085938 119.023438 115.085938 Z M 83.5625 115.085938 "/>
<path style=" stroke:none;fill-rule:nonzero;fill:rgb(7.058716%,1.176453%,46.665955%);fill-opacity:1;" d="M 120.035156 114.90625 C 119.808594 115.140625 119.4375 115.144531 119.203125 114.917969 C 118.96875 114.691406 118.964844 114.320312 119.191406 114.085938 L 137.277344 95.476562 C 137.503906 95.242188 137.875 95.238281 138.109375 95.464844 C 138.34375 95.691406 138.347656 96.0625 138.121094 96.292969 Z M 120.035156 114.90625 "/>
<path style=" stroke:none;fill-rule:nonzero;fill:rgb(7.058716%,1.176453%,46.665955%);fill-opacity:1;" d="M 119.203125 78.78125 C 118.972656 78.554688 118.964844 78.179688 119.191406 77.949219 C 119.417969 77.714844 119.789062 77.710938 120.023438 77.933594 L 138.109375 95.464844 C 138.34375 95.6875 138.347656 96.0625 138.121094 96.292969 C 137.894531 96.527344 137.523438 96.53125 137.289062 96.308594 Z M 119.203125 78.78125 "/>
<path style=" stroke:none;fill-rule:nonzero;fill:rgb(7.058716%,1.176453%,46.665955%);fill-opacity:1;" d="M 83.539062 78.945312 C 83.214844 78.945312 82.953125 78.683594 82.953125 78.359375 C 82.953125 78.03125 83.214844 77.769531 83.539062 77.769531 L 119.613281 77.769531 C 119.9375 77.769531 120.199219 78.03125 120.199219 78.359375 C 120.199219 78.683594 119.9375 78.945312 119.613281 78.945312 Z M 83.539062 78.945312 "/>
<path style=" stroke:none;fill-rule:nonzero;fill:rgb(7.058716%,1.176453%,46.665955%);fill-opacity:1;" d="M 190.894531 37.105469 C 190.894531 36.75 191.183594 36.457031 191.542969 36.457031 C 191.902344 36.457031 192.191406 36.75 192.191406 37.105469 L 192.191406 47.867188 C 192.191406 48.226562 191.902344 48.519531 191.542969 48.519531 C 191.183594 48.519531 190.894531 48.226562 190.894531 47.867188 Z M 190.894531 37.105469 "/>
<path style=" stroke:none;fill-rule:nonzero;fill:rgb(7.058716%,1.176453%,46.665955%);fill-opacity:1;" d="M 186.117188 43.136719 C 185.757812 43.136719 185.464844 42.847656 185.464844 42.488281 C 185.464844 42.128906 185.757812 41.839844 186.117188 41.839844 L 196.96875 41.839844 C 197.328125 41.839844 197.617188 42.128906 197.617188 42.488281 C 197.617188 42.847656 197.328125 43.136719 196.96875 43.136719 Z M 186.117188 43.136719 "/>
<path style=" stroke:none;fill-rule:nonzero;fill:rgb(7.058716%,1.176453%,46.665955%);fill-opacity:1;" d="M 200.464844 42.488281 C 200.464844 45.777344 198.683594 48.648438 196.035156 50.195312 C 194.71875 50.96875 193.179688 51.410156 191.542969 51.410156 C 188.253906 51.410156 185.382812 49.628906 183.835938 46.980469 C 183.0625 45.664062 182.621094 44.125 182.621094 42.488281 C 182.621094 39.199219 184.398438 36.328125 187.046875 34.78125 C 188.367188 34.007812 189.902344 33.566406 191.542969 33.566406 C 194.832031 33.566406 197.703125 35.34375 199.25 37.992188 C 200.023438 39.3125 200.464844 40.847656 200.464844 42.488281 M 199.289062 42.488281 C 199.289062 41.066406 198.90625 39.730469 198.234375 38.585938 C 196.890625 36.289062 194.398438 34.742188 191.542969 34.742188 C 190.121094 34.742188 188.785156 35.125 187.640625 35.792969 C 185.34375 37.136719 183.796875 39.632812 183.796875 42.488281 C 183.796875 43.910156 184.179688 45.242188 184.847656 46.390625 C 186.191406 48.6875 188.6875 50.234375 191.542969 50.234375 C 192.964844 50.234375 194.296875 49.851562 195.445312 49.179688 C 197.742188 47.835938 199.289062 45.34375 199.289062 42.488281 "/>
<path style=" stroke:none;fill-rule:nonzero;fill:rgb(7.058716%,1.176453%,46.665955%);fill-opacity:1;" d="M 190.894531 91.046875 C 190.894531 90.6875 191.183594 90.398438 191.542969 90.398438 C 191.902344 90.398438 192.191406 90.6875 192.191406 91.046875 L 192.191406 101.808594 C 192.191406 102.167969 191.902344 102.457031 191.542969 102.457031 C 191.183594 102.457031 190.894531 102.167969 190.894531 101.808594 Z M 190.894531 91.046875 "/>
<path style=" stroke:none;fill-rule:nonzero;fill:rgb(7.058716%,1.176453%,46.665955%);fill-opacity:1;" d="M 186.117188 97.078125 C 185.757812 97.078125 185.464844 96.785156 185.464844 96.425781 C 185.464844 96.070312 185.757812 95.777344 186.117188 95.777344 L 196.96875 95.777344 C 197.328125 95.777344 197.617188 96.070312 197.617188 96.425781 C 197.617188 96.785156 197.328125 97.078125 196.96875 97.078125 Z M 186.117188 97.078125 "/>
<path style=" stroke:none;fill-rule:nonzero;fill:rgb(7.058716%,1.176453%,46.665955%);fill-opacity:1;" d="M 200.464844 96.425781 C 200.464844 99.714844 198.683594 102.589844 196.035156 104.136719 C 194.71875 104.90625 193.179688 105.347656 191.542969 105.347656 C 188.253906 105.347656 185.382812 103.570312 183.835938 100.921875 C 183.0625 99.601562 182.621094 98.066406 182.621094 96.425781 C 182.621094 93.140625 184.398438 90.265625 187.046875 88.71875 C 188.367188 87.949219 189.902344 87.507812 191.542969 87.507812 C 194.832031 87.507812 197.703125 89.285156 199.25 91.933594 C 200.023438 93.253906 200.464844 94.789062 200.464844 96.425781 M 199.289062 96.425781 C 199.289062 95.003906 198.90625 93.671875 198.234375 92.527344 C 196.890625 90.226562 194.398438 88.683594 191.542969 88.683594 C 190.121094 88.683594 188.785156 89.066406 187.640625 89.734375 C 185.34375 91.078125 183.796875 93.570312 183.796875 96.425781 C 183.796875 97.851562 184.179688 99.183594 184.847656 100.328125 C 186.191406 102.628906 188.6875 104.171875 191.542969 104.171875 C 192.964844 104.171875 194.296875 103.789062 195.445312 103.121094 C 197.742188 101.777344 199.289062 99.28125 199.289062 96.425781 "/>
<path style=" stroke:none;fill-rule:nonzero;fill:rgb(7.058716%,1.176453%,46.665955%);fill-opacity:1;" d="M 183.210938 139.304688 L 183.210938 192.585938 L 236.488281 192.585938 L 236.488281 139.304688 Z M 182.621094 138.128906 L 237.078125 138.128906 C 237.402344 138.128906 237.664062 138.390625 237.664062 138.71875 L 237.664062 193.171875 C 237.664062 193.496094 237.402344 193.761719 237.078125 193.761719 L 182.621094 193.761719 C 182.296875 193.761719 182.035156 193.496094 182.035156 193.171875 L 182.035156 138.71875 C 182.035156 138.390625 182.296875 138.128906 182.621094 138.128906 "/>
<path style=" stroke:none;fill-rule:nonzero;fill:rgb(7.058716%,1.176453%,46.665955%);fill-opacity:1;" d="M 199.871094 159.320312 C 199.871094 159.644531 199.609375 159.910156 199.285156 159.90625 C 198.960938 159.90625 198.695312 159.644531 198.695312 159.320312 C 198.695312 159.160156 198.695312 159.039062 198.6875 158.957031 C 198.6875 158.921875 198.683594 158.894531 198.683594 158.882812 C 198.683594 158.875 198.714844 158.988281 198.695312 158.933594 C 198.691406 158.917969 198.734375 159.023438 198.722656 158.996094 C 198.710938 158.976562 198.792969 159.109375 198.769531 159.078125 C 198.75 159.050781 198.878906 159.199219 198.847656 159.164062 C 198.789062 159.113281 199.222656 159.332031 199.105469 159.304688 C 198.984375 159.273438 199.570312 159.234375 199.46875 159.277344 C 199.40625 159.300781 199.644531 159.164062 199.609375 159.191406 C 199.550781 159.242188 199.746094 159.03125 199.726562 159.066406 C 199.695312 159.113281 199.789062 158.941406 199.777344 158.964844 C 199.769531 158.988281 199.796875 158.910156 199.792969 158.921875 C 199.78125 158.96875 199.796875 158.910156 199.792969 158.960938 C 199.78125 159.113281 199.964844 160.175781 200.140625 161.558594 C 200.335938 163.105469 200.429688 165.089844 200.421875 166.933594 C 200.414062 168.183594 200.285156 169.253906 200.226562 170 C 200.210938 170.238281 200.179688 170.433594 200.160156 170.574219 C 200.152344 170.640625 200.148438 170.691406 200.148438 170.714844 C 200.148438 170.738281 200.128906 170.648438 200.140625 170.691406 C 200.15625 170.730469 200.011719 170.496094 200.054688 170.546875 C 200.097656 170.59375 199.851562 170.414062 199.902344 170.4375 C 199.949219 170.457031 199.761719 170.402344 199.785156 170.40625 C 199.808594 170.40625 199.746094 170.40625 199.75 170.40625 C 199.757812 170.40625 199.882812 170.367188 200.042969 170.285156 C 200.390625 170.113281 200.859375 169.8125 201.347656 169.507812 C 202.441406 168.835938 203.628906 168.460938 204.710938 168.285156 C 205.757812 168.113281 206.671875 168.117188 207.332031 168.296875 C 207.648438 168.378906 207.835938 168.699219 207.75 169.015625 C 207.667969 169.328125 207.34375 169.515625 207.03125 169.429688 C 206.136719 169.191406 203.824219 169.359375 201.964844 170.507812 C 201.488281 170.804688 201.011719 171.117188 200.570312 171.335938 C 200.355469 171.445312 200.15625 171.539062 199.90625 171.570312 C 199.777344 171.589844 199.617188 171.59375 199.441406 171.519531 C 199.253906 171.4375 199.089844 171.25 199.027344 171.070312 C 198.859375 170.570312 199.027344 170.273438 199.054688 169.914062 C 199.113281 169.125 199.238281 168.101562 199.246094 166.925781 C 199.253906 165.128906 199.160156 163.175781 198.976562 161.707031 C 198.886719 161.023438 198.796875 160.429688 198.722656 159.949219 C 198.65625 159.492188 198.59375 159.175781 198.621094 158.863281 C 198.628906 158.773438 198.632812 158.703125 198.664062 158.597656 C 198.679688 158.535156 198.582031 158.371094 199.019531 158.191406 C 199.269531 158.085938 199.601562 158.242188 199.699219 158.359375 C 199.78125 158.460938 199.796875 158.523438 199.8125 158.566406 C 199.902344 158.832031 199.871094 158.972656 199.871094 159.320312 "/>
<path style=" stroke:none;fill-rule:nonzero;fill:rgb(7.058716%,1.176453%,46.665955%);fill-opacity:1;" d="M 215.25 163.71875 C 215.136719 164.023438 214.800781 164.179688 214.496094 164.066406 C 214.191406 163.953125 214.035156 163.617188 214.148438 163.3125 C 214.210938 163.140625 214.222656 163.011719 214.21875 162.933594 C 214.210938 162.867188 214.199219 162.859375 214.199219 162.855469 C 214.191406 162.847656 214.226562 162.871094 214.226562 162.871094 C 214.222656 162.871094 214.199219 162.867188 214.148438 162.894531 C 213.929688 163.003906 213.472656 163.667969 212.992188 164.652344 C 212.597656 165.464844 212.175781 166.367188 211.980469 167.269531 C 211.847656 167.878906 211.816406 168.488281 211.902344 169.015625 C 212.011719 169.695312 212.421875 170.230469 213.015625 170.601562 C 213.621094 170.980469 214.40625 171.183594 215.179688 171.167969 C 215.691406 171.160156 216.1875 171.089844 216.679688 170.886719 C 217.488281 170.550781 218.351562 169.765625 219.144531 168.921875 C 220.128906 167.875 220.839844 166.792969 221.066406 165.835938 C 221.203125 165.257812 221.183594 164.6875 220.980469 164.125 C 220.65625 163.246094 219.839844 162.3125 218.964844 161.527344 C 218.121094 160.777344 217.324219 160.207031 216.574219 160.023438 C 215.785156 159.832031 214.875 160.152344 213.996094 160.921875 C 213.074219 161.726562 212.226562 162.980469 211.589844 164.480469 C 211.464844 164.78125 211.117188 164.917969 210.820312 164.792969 C 210.519531 164.667969 210.382812 164.320312 210.507812 164.023438 C 211.199219 162.390625 212.125 160.996094 213.222656 160.035156 C 214.289062 159.101562 215.597656 158.578125 216.851562 158.882812 C 217.921875 159.144531 218.847656 159.847656 219.746094 160.652344 C 220.699219 161.503906 221.648438 162.53125 222.082031 163.722656 C 222.371094 164.503906 222.394531 165.328125 222.210938 166.105469 C 221.914062 167.375 221.070312 168.589844 220 169.726562 C 219.164062 170.617188 218.226562 171.519531 217.128906 171.972656 C 216.46875 172.246094 215.808594 172.335938 215.199219 172.34375 C 214.214844 172.363281 213.214844 172.117188 212.390625 171.597656 C 211.566406 171.078125 210.910156 170.246094 210.742188 169.203125 C 210.628906 168.5 210.671875 167.75 210.832031 167.019531 C 211.0625 165.945312 211.53125 164.964844 211.9375 164.136719 C 212.441406 163.105469 212.839844 162.238281 213.617188 161.84375 C 213.855469 161.726562 214.121094 161.667969 214.386719 161.707031 C 214.652344 161.742188 214.90625 161.878906 215.085938 162.085938 C 215.265625 162.292969 215.367188 162.5625 215.390625 162.839844 C 215.410156 163.121094 215.359375 163.417969 215.25 163.71875 "/>
<path style=" stroke:none;fill-rule:nonzero;fill:rgb(7.058716%,1.176453%,46.665955%);fill-opacity:1;" d="M 227.75 69.972656 C 227.425781 69.972656 227.164062 69.710938 227.164062 69.382812 C 227.164062 69.058594 227.425781 68.796875 227.75 68.796875 L 297.769531 68.796875 C 298.09375 68.796875 298.355469 69.058594 298.355469 69.382812 C 298.355469 69.710938 298.09375 69.972656 297.769531 69.972656 Z M 227.75 69.972656 "/>
<path style=" stroke:none;fill-rule:nonzero;fill:rgb(7.058716%,1.176453%,46.665955%);fill-opacity:1;" d="M 299.675781 43.449219 C 299.675781 43.121094 299.941406 42.859375 300.265625 42.859375 C 300.589844 42.859375 300.851562 43.121094 300.851562 43.449219 L 300.851562 95.945312 C 300.851562 96.269531 300.589844 96.535156 300.265625 96.535156 C 299.941406 96.535156 299.675781 96.269531 299.675781 95.945312 Z M 299.675781 43.449219 "/>
<path style=" stroke:none;fill-rule:nonzero;fill:rgb(7.058716%,1.176453%,46.665955%);fill-opacity:1;" d="M 300.597656 96.429688 C 300.328125 96.613281 299.960938 96.546875 299.78125 96.277344 C 299.597656 96.011719 299.664062 95.644531 299.933594 95.460938 L 338.789062 68.871094 C 339.054688 68.6875 339.421875 68.753906 339.605469 69.023438 C 339.789062 69.289062 339.71875 69.65625 339.453125 69.839844 Z M 300.597656 96.429688 "/>
<path style=" stroke:none;fill-rule:nonzero;fill:rgb(7.058716%,1.176453%,46.665955%);fill-opacity:1;" d="M 339.535156 69.066406 C 339.855469 69.097656 340.09375 69.386719 340.0625 69.710938 C 340.027344 70.035156 339.742188 70.269531 339.417969 70.238281 C 338.933594 70.1875 338.609375 70.132812 338.339844 70.015625 C 338.273438 69.988281 338.203125 69.953125 338.121094 69.882812 C 338.035156 69.8125 337.910156 69.679688 337.886719 69.449219 C 337.863281 69.210938 338 68.992188 338.121094 68.898438 C 338.21875 68.816406 338.304688 68.785156 338.375 68.761719 C 338.6875 68.667969 339.015625 68.839844 339.113281 69.148438 C 339.207031 69.460938 339.035156 69.789062 338.726562 69.886719 C 338.714844 69.890625 338.792969 69.855469 338.773438 69.867188 C 338.75 69.878906 338.90625 69.773438 338.867188 69.804688 C 338.816406 69.847656 339.042969 69.554688 339 69.636719 C 338.957031 69.722656 339.046875 69.226562 339.054688 69.332031 C 339.066406 69.4375 338.933594 69.03125 338.96875 69.089844 C 339.003906 69.140625 338.851562 68.960938 338.875 68.980469 C 338.925781 69.023438 338.8125 68.941406 338.8125 68.941406 C 338.851562 68.957031 339.109375 69.023438 339.535156 69.066406 "/>
<path style=" stroke:none;fill-rule:nonzero;fill:rgb(7.058716%,1.176453%,46.665955%);fill-opacity:1;" d="M 339.445312 68.867188 C 339.714844 69.046875 339.789062 69.410156 339.609375 69.679688 C 339.429688 69.949219 339.0625 70.023438 338.792969 69.84375 L 299.9375 43.9375 C 299.667969 43.757812 299.59375 43.390625 299.777344 43.121094 C 299.957031 42.851562 300.320312 42.777344 300.589844 42.957031 Z M 339.445312 68.867188 "/>
<path style=" stroke:none;fill-rule:nonzero;fill:rgb(7.058716%,1.176453%,46.665955%);fill-opacity:1;" d="M 306.621094 67.886719 C 306.574219 68.207031 306.273438 68.429688 305.953125 68.382812 C 305.632812 68.335938 305.410156 68.035156 305.457031 67.714844 C 305.484375 67.539062 305.5625 67.183594 305.980469 67.085938 C 306.382812 66.992188 306.570312 67.210938 306.683594 67.324219 C 306.898438 67.546875 307.046875 67.824219 307.230469 68.179688 C 307.609375 68.929688 308.019531 69.964844 308.367188 71.09375 C 308.777344 72.410156 309.019531 73.746094 309.152344 74.726562 C 309.226562 75.265625 309.226562 75.710938 309.144531 76.070312 C 309.105469 76.246094 309.0625 76.421875 308.882812 76.601562 C 308.789062 76.699219 308.625 76.804688 308.425781 76.8125 C 308.222656 76.824219 308.046875 76.734375 307.941406 76.644531 C 307.527344 76.289062 307.535156 75.921875 307.414062 75.390625 C 307.285156 74.828125 307.15625 74.097656 307.007812 73.214844 C 306.796875 71.9375 306.542969 70.375 306.402344 68.78125 C 306.328125 67.929688 306.328125 67.097656 306.320312 66.367188 C 306.304688 65.324219 306.226562 64.511719 306.324219 63.820312 C 306.417969 63.167969 306.78125 62.660156 307.207031 62.375 C 307.796875 61.976562 308.550781 61.644531 309.371094 61.703125 C 310.140625 61.753906 310.757812 62.289062 311.171875 62.933594 C 311.589844 63.585938 311.835938 64.394531 311.851562 65.222656 C 311.863281 65.890625 311.726562 66.601562 311.328125 67.238281 C 310.382812 68.769531 308.355469 69.597656 306.828125 69.875 C 306.464844 69.9375 306.136719 69.96875 305.824219 69.933594 C 305.515625 69.894531 305.082031 69.765625 304.941406 69.308594 C 304.804688 68.851562 305.050781 68.507812 305.300781 68.230469 C 305.5625 67.945312 305.9375 67.648438 306.445312 67.3125 C 306.71875 67.128906 307.082031 67.203125 307.261719 67.476562 C 307.441406 67.746094 307.367188 68.109375 307.097656 68.289062 C 306.636719 68.597656 306.328125 68.847656 306.171875 69.023438 C 306.101562 69.097656 306.070312 69.152344 306.070312 69.15625 C 306.066406 69.160156 306.085938 69.074219 306.082031 69.105469 C 306.078125 69.144531 306.050781 68.90625 306.066406 68.960938 C 306.085938 69.019531 305.953125 68.78125 305.984375 68.820312 C 306.03125 68.867188 305.890625 68.75 305.898438 68.753906 C 305.898438 68.753906 305.921875 68.761719 305.964844 68.765625 C 306.09375 68.78125 306.332031 68.769531 306.621094 68.714844 C 307.882812 68.488281 309.699219 67.640625 310.328125 66.621094 C 310.589844 66.199219 310.6875 65.738281 310.675781 65.246094 C 310.664062 64.640625 310.472656 64.023438 310.179688 63.566406 C 309.902344 63.128906 309.554688 62.894531 309.289062 62.875 C 308.84375 62.84375 308.308594 63.050781 307.867188 63.347656 C 307.644531 63.5 307.542969 63.617188 307.488281 63.984375 C 307.421875 64.464844 307.476562 65.277344 307.496094 66.347656 C 307.503906 67.089844 307.507812 67.890625 307.574219 68.679688 C 307.710938 70.214844 307.957031 71.75 308.167969 73.023438 C 308.3125 73.894531 308.441406 74.609375 308.558594 75.128906 C 308.617188 75.375 308.667969 75.566406 308.714844 75.695312 C 308.734375 75.753906 308.753906 75.792969 308.761719 75.8125 C 308.765625 75.816406 308.753906 75.800781 308.757812 75.808594 C 308.765625 75.820312 308.675781 75.722656 308.703125 75.75 C 308.730469 75.773438 308.523438 75.652344 308.578125 75.675781 C 308.636719 75.699219 308.285156 75.644531 308.363281 75.640625 C 308.4375 75.636719 308.105469 75.722656 308.160156 75.695312 C 308.214844 75.667969 308.015625 75.808594 308.042969 75.78125 C 308.089844 75.734375 307.984375 75.867188 307.984375 75.859375 C 307.984375 75.859375 307.992188 75.84375 308 75.8125 C 308.03125 75.660156 308.046875 75.324219 307.988281 74.886719 C 307.859375 73.957031 307.625 72.671875 307.246094 71.441406 C 306.914062 70.371094 306.519531 69.378906 306.179688 68.710938 C 306.023438 68.402344 305.875 68.183594 305.839844 68.148438 C 305.839844 68.144531 305.949219 68.214844 305.898438 68.1875 C 305.871094 68.171875 306.085938 68.246094 306.027344 68.234375 C 305.964844 68.21875 306.335938 68.210938 306.25 68.230469 C 306.164062 68.25 306.53125 68.066406 306.472656 68.117188 C 306.390625 68.1875 306.621094 67.894531 306.605469 67.9375 C 306.589844 67.972656 306.621094 67.882812 306.621094 67.886719 "/>
<path style=" stroke:none;fill-rule:nonzero;fill:rgb(7.058716%,1.176453%,46.665955%);fill-opacity:1;" d="M 311.914062 67.917969 C 311.988281 67.601562 312.300781 67.402344 312.617188 67.472656 C 312.933594 67.542969 313.132812 67.855469 313.0625 68.175781 C 313.046875 68.246094 313.132812 68.726562 313.273438 69.253906 C 313.363281 69.589844 313.417969 69.914062 313.472656 70.191406 C 313.519531 70.421875 313.539062 70.609375 313.550781 70.652344 C 313.5625 70.707031 313.582031 70.75 313.589844 70.761719 C 313.589844 70.765625 313.542969 70.703125 313.566406 70.730469 C 313.578125 70.746094 313.460938 70.644531 313.496094 70.667969 C 313.535156 70.699219 313.230469 70.5625 313.316406 70.585938 C 313.382812 70.601562 313.039062 70.578125 313.109375 70.570312 C 313.179688 70.5625 312.871094 70.644531 312.925781 70.621094 C 313.023438 70.574219 312.6875 70.816406 312.726562 70.773438 C 312.792969 70.695312 312.617188 70.964844 312.628906 70.933594 C 312.652344 70.882812 312.601562 71.027344 312.605469 71.015625 C 312.609375 70.992188 312.605469 71.011719 312.609375 70.972656 C 312.613281 70.890625 312.621094 70.757812 312.625 70.59375 C 312.636719 70.246094 312.644531 69.773438 312.65625 69.230469 C 312.675781 68.105469 312.695312 66.777344 312.75 65.644531 C 312.785156 64.84375 312.886719 64.136719 313.003906 63.585938 C 313.066406 63.289062 313.109375 63.039062 313.269531 62.777344 C 313.355469 62.636719 313.574219 62.441406 313.847656 62.441406 C 314.113281 62.441406 314.265625 62.570312 314.359375 62.664062 C 314.527344 62.832031 314.609375 63 314.703125 63.199219 C 314.898438 63.609375 315.085938 64.140625 315.277344 64.71875 C 315.910156 66.589844 317.066406 68.9375 318.003906 70.960938 C 318.441406 71.902344 318.710938 72.730469 318.941406 73.308594 C 319.058594 73.59375 319.152344 73.808594 319.222656 73.914062 C 319.234375 73.9375 319.160156 73.902344 319.207031 73.921875 C 319.222656 73.925781 319.105469 73.902344 319.140625 73.90625 C 319.175781 73.910156 318.925781 73.933594 318.988281 73.917969 C 319.058594 73.898438 318.675781 74.125 318.753906 74.050781 C 318.832031 73.972656 318.59375 74.414062 318.609375 74.324219 C 318.621094 74.269531 318.609375 74.476562 318.605469 74.449219 C 318.597656 74.375 318.621094 74.503906 318.597656 74.464844 C 318.558594 74.402344 318.484375 74.296875 318.386719 74.179688 C 318.179688 73.929688 317.890625 73.632812 317.589844 73.355469 C 316.9375 72.75 316.03125 72.25 315.070312 71.796875 C 314.777344 71.660156 314.652344 71.308594 314.789062 71.015625 C 314.925781 70.722656 315.277344 70.597656 315.570312 70.734375 C 316.582031 71.207031 317.589844 71.753906 318.386719 72.492188 C 318.714844 72.796875 319.035156 73.117188 319.289062 73.425781 C 319.417969 73.578125 319.527344 73.722656 319.617188 73.878906 C 319.707031 74.035156 319.824219 74.207031 319.765625 74.53125 C 319.722656 74.777344 319.472656 75.007812 319.269531 75.058594 C 319.078125 75.105469 318.933594 75.070312 318.8125 75.027344 C 318.578125 74.945312 318.382812 74.78125 318.234375 74.554688 C 318.078125 74.3125 317.972656 74.046875 317.851562 73.746094 C 317.597656 73.113281 317.34375 72.324219 316.9375 71.453125 C 316.003906 69.445312 314.835938 67.082031 314.164062 65.09375 C 313.976562 64.53125 313.792969 64.023438 313.640625 63.703125 C 313.570312 63.558594 313.558594 63.527344 313.53125 63.5 C 313.515625 63.484375 313.65625 63.582031 313.609375 63.554688 C 313.558594 63.527344 313.953125 63.617188 313.847656 63.617188 C 313.742188 63.617188 314.222656 63.46875 314.144531 63.523438 C 314.078125 63.574219 314.292969 63.359375 314.273438 63.390625 C 314.265625 63.402344 314.210938 63.566406 314.15625 63.832031 C 314.050781 64.316406 313.957031 64.96875 313.925781 65.699219 C 313.871094 66.808594 313.851562 68.125 313.832031 69.25 C 313.820312 69.792969 313.8125 70.269531 313.800781 70.632812 C 313.796875 70.804688 313.789062 70.945312 313.78125 71.058594 C 313.777344 71.109375 313.773438 71.15625 313.765625 71.214844 C 313.757812 71.246094 313.753906 71.277344 313.730469 71.34375 C 313.71875 71.382812 313.703125 71.4375 313.628906 71.523438 C 313.550781 71.625 313.292969 71.792969 313.023438 71.722656 C 312.648438 71.628906 312.621094 71.445312 312.554688 71.324219 C 312.492188 71.207031 312.445312 71.082031 312.410156 70.945312 C 312.355469 70.734375 312.351562 70.578125 312.320312 70.425781 C 312.261719 70.125 312.210938 69.824219 312.136719 69.558594 C 311.996094 69.03125 311.78125 68.511719 311.914062 67.917969 "/>
<path style=" stroke:none;fill-rule:nonzero;fill:rgb(7.058716%,1.176453%,46.665955%);fill-opacity:1;" d="M 312.277344 70.191406 C 312.597656 70.148438 312.894531 70.375 312.9375 70.699219 C 312.980469 71.019531 312.753906 71.316406 312.433594 71.359375 C 312.210938 71.386719 311.980469 71.378906 311.757812 71.269531 C 311.53125 71.152344 311.351562 70.910156 311.308594 70.671875 C 311.226562 70.214844 311.457031 69.871094 311.738281 69.609375 C 312.386719 69.003906 313.351562 68.960938 314.347656 68.878906 C 315.355469 68.796875 316.394531 68.761719 317.121094 68.589844 C 317.4375 68.515625 317.753906 68.710938 317.828125 69.027344 C 317.902344 69.34375 317.707031 69.660156 317.390625 69.734375 C 316.484375 69.945312 315.421875 69.96875 314.445312 70.050781 C 313.5 70.128906 312.707031 70.3125 312.539062 70.46875 C 312.496094 70.507812 312.472656 70.546875 312.464844 70.558594 C 312.460938 70.566406 312.46875 70.535156 312.46875 70.546875 C 312.464844 70.566406 312.457031 70.417969 312.464844 70.460938 C 312.472656 70.503906 312.367188 70.269531 312.402344 70.316406 C 312.4375 70.363281 312.246094 70.199219 312.285156 70.214844 C 312.316406 70.234375 312.222656 70.195312 312.226562 70.195312 C 312.226562 70.195312 312.242188 70.195312 312.277344 70.191406 "/>
<path style=" stroke:none;fill-rule:nonzero;fill:rgb(7.058716%,1.176453%,46.665955%);fill-opacity:1;" d="M 339.121094 69.941406 C 338.792969 69.941406 338.53125 69.679688 338.53125 69.355469 C 338.53125 69.03125 338.792969 68.765625 339.121094 68.765625 L 370.757812 68.765625 C 371.082031 68.765625 371.347656 69.03125 371.347656 69.355469 C 371.347656 69.679688 371.082031 69.941406 370.757812 69.941406 Z M 339.121094 69.941406 "/>
<path style=" stroke:none;fill-rule:nonzero;fill:rgb(7.058716%,1.176453%,46.665955%);fill-opacity:1;" d="M 371.347656 69.355469 C 371.347656 69.679688 371.082031 69.941406 370.757812 69.941406 C 370.433594 69.941406 370.171875 69.679688 370.171875 69.355469 L 370.171875 42.488281 C 370.171875 42.164062 370.433594 41.898438 370.757812 41.898438 C 371.082031 41.898438 371.347656 42.164062 371.347656 42.488281 Z M 371.347656 69.355469 "/>
<path style=" stroke:none;fill-rule:nonzero;fill:rgb(7.058716%,1.176453%,46.665955%);fill-opacity:1;" d="M 370.011719 43.089844 C 369.984375 43.410156 369.699219 43.652344 369.375 43.625 C 369.050781 43.597656 368.8125 43.3125 368.839844 42.988281 C 368.902344 42.257812 368.789062 41.839844 368.449219 41.214844 C 367.824219 40.066406 366.375 37.917969 364.871094 35.582031 C 363.492188 33.433594 362.351562 31.351562 361.390625 29.882812 C 361.058594 29.375 360.761719 29.035156 360.472656 28.761719 C 360.121094 28.429688 359.695312 28.203125 359.671875 28.199219 C 359.664062 28.195312 359.78125 28.199219 359.742188 28.199219 C 359.695312 28.203125 360.015625 28.089844 359.9375 28.136719 C 359.855469 28.1875 360.175781 27.824219 360.136719 27.910156 C 360.101562 27.992188 360.171875 27.683594 360.175781 27.722656 C 360.175781 27.789062 360.164062 27.671875 360.191406 27.726562 C 360.21875 27.785156 360.273438 27.882812 360.355469 28.003906 C 360.535156 28.273438 360.464844 28.636719 360.195312 28.820312 C 359.925781 29 359.5625 28.929688 359.378906 28.660156 C 359.171875 28.351562 359.015625 28.125 359 27.769531 C 358.992188 27.574219 359.097656 27.269531 359.335938 27.128906 C 359.558594 26.996094 359.75 27.015625 359.890625 27.042969 C 360.410156 27.140625 360.828125 27.480469 361.277344 27.90625 C 361.632812 28.238281 361.996094 28.660156 362.375 29.238281 C 363.375 30.765625 364.507812 32.839844 365.863281 34.949219 C 366.613281 36.113281 367.355469 37.246094 368.003906 38.253906 C 368.632812 39.230469 369.152344 40.050781 369.480469 40.652344 C 369.890625 41.40625 370.089844 42.167969 370.011719 43.089844 "/>
<path style=" stroke:none;fill-rule:nonzero;fill:rgb(7.058716%,1.176453%,46.665955%);fill-opacity:1;" d="M 370.605469 42.488281 C 370.816406 42.734375 370.789062 43.105469 370.542969 43.320312 C 370.296875 43.53125 369.925781 43.503906 369.714844 43.257812 C 369.542969 43.058594 369.410156 42.785156 369.421875 42.496094 C 369.433594 42.207031 369.566406 41.976562 369.710938 41.796875 C 369.996094 41.453125 370.378906 41.199219 370.8125 40.871094 C 371.828125 40.109375 373.234375 38.84375 374.636719 37.367188 C 375.484375 36.476562 376.238281 35.472656 376.980469 34.585938 C 377.902344 33.476562 378.75 32.617188 379.664062 31.929688 C 380.855469 31.035156 382.144531 30.398438 382.917969 29.910156 C 383.128906 29.777344 383.289062 29.65625 383.382812 29.5625 C 383.429688 29.519531 383.453125 29.488281 383.464844 29.472656 C 383.46875 29.464844 383.433594 29.601562 383.441406 29.539062 C 383.453125 29.484375 383.542969 29.839844 383.492188 29.757812 C 383.464844 29.71875 383.640625 29.894531 383.597656 29.867188 C 383.554688 29.835938 383.78125 29.925781 383.734375 29.917969 C 383.695312 29.914062 383.875 29.910156 383.847656 29.917969 C 383.820312 29.921875 383.894531 29.898438 383.890625 29.902344 C 383.890625 29.902344 383.851562 29.929688 383.796875 30.007812 C 383.613281 30.273438 383.246094 30.339844 382.980469 30.152344 C 382.710938 29.96875 382.644531 29.601562 382.832031 29.335938 C 382.960938 29.148438 383.109375 28.996094 383.292969 28.890625 C 383.472656 28.78125 383.695312 28.722656 383.921875 28.757812 C 384.148438 28.796875 384.359375 28.9375 384.480469 29.125 C 384.601562 29.3125 384.636719 29.539062 384.601562 29.742188 C 384.496094 30.339844 384.058594 30.582031 383.542969 30.90625 C 382.691406 31.445312 381.457031 32.054688 380.371094 32.871094 C 379.550781 33.488281 378.765625 34.273438 377.882812 35.335938 C 377.164062 36.199219 376.394531 37.226562 375.492188 38.175781 C 374.046875 39.695312 372.613281 40.992188 371.519531 41.8125 C 371.078125 42.140625 370.738281 42.398438 370.621094 42.542969 C 370.574219 42.601562 370.597656 42.484375 370.597656 42.539062 C 370.59375 42.601562 370.566406 42.445312 370.605469 42.488281 "/>
<path style=" stroke:none;fill-rule:nonzero;fill:rgb(7.058716%,1.176453%,46.665955%);fill-opacity:1;" d="M 191.628906 106.226562 C 191.628906 105.898438 191.894531 105.636719 192.21875 105.636719 C 192.542969 105.636719 192.804688 105.898438 192.804688 106.226562 L 192.804688 138.71875 C 192.804688 139.042969 192.542969 139.304688 192.21875 139.304688 C 191.894531 139.304688 191.628906 139.042969 191.628906 138.71875 Z M 191.628906 106.226562 "/>
<path style=" stroke:none;fill-rule:nonzero;fill:rgb(7.058716%,1.176453%,46.665955%);fill-opacity:1;" d="M 192.550781 106 C 192.875 106.027344 193.113281 106.3125 193.085938 106.636719 C 193.058594 106.960938 192.773438 107.199219 192.449219 107.171875 C 192.378906 107.164062 192.457031 107.140625 192.433594 107.167969 C 192.394531 107.214844 192.316406 107.378906 192.21875 107.601562 C 192.144531 107.773438 192.0625 107.90625 191.996094 108.039062 C 191.890625 108.234375 191.773438 108.480469 191.640625 108.746094 C 191.496094 109.03125 191.347656 109.3125 191.222656 109.546875 C 191.148438 109.683594 191.089844 109.800781 191.03125 109.898438 C 190.980469 109.984375 190.949219 110.074219 190.746094 110.179688 C 190.457031 110.328125 190.101562 110.214844 189.953125 109.925781 C 189.804688 109.636719 189.917969 109.285156 190.207031 109.132812 C 190.300781 109.085938 190.03125 109.277344 190.054688 109.25 C 190.078125 109.226562 190.011719 109.3125 190.019531 109.300781 C 190.046875 109.253906 190.109375 109.132812 190.1875 108.988281 C 190.308594 108.761719 190.457031 108.488281 190.589844 108.21875 C 190.71875 107.96875 190.832031 107.71875 190.953125 107.492188 C 191.035156 107.332031 191.105469 107.214844 191.140625 107.128906 C 191.234375 106.921875 191.320312 106.671875 191.523438 106.421875 C 191.734375 106.164062 192.148438 105.964844 192.550781 106 M 190.902344 109.265625 C 191.117188 109.511719 191.097656 109.882812 190.851562 110.097656 C 190.609375 110.3125 190.238281 110.289062 190.023438 110.046875 C 189.820312 109.816406 189.867188 109.628906 189.882812 109.539062 C 189.945312 109.175781 190.078125 109.109375 190.128906 109.019531 C 190.417969 108.5 190.765625 107.875 191.160156 107.269531 C 191.367188 106.949219 191.59375 106.628906 191.78125 106.324219 C 191.851562 106.214844 191.914062 106.105469 191.972656 106 C 192.027344 105.902344 192.078125 105.796875 192.136719 105.6875 C 192.167969 105.636719 192.191406 105.585938 192.234375 105.511719 C 192.261719 105.472656 192.285156 105.425781 192.375 105.347656 C 192.4375 105.296875 192.5 105.25 192.617188 105.21875 C 192.78125 105.183594 192.960938 105.210938 193.085938 105.285156 C 193.398438 105.46875 193.375 105.660156 193.390625 105.75 C 193.40625 105.832031 193.40625 105.890625 193.410156 105.949219 C 193.414062 106.058594 193.417969 106.152344 193.425781 106.1875 C 193.4375 106.257812 193.394531 106.097656 193.398438 106.105469 C 193.410156 106.121094 193.441406 106.164062 193.484375 106.242188 C 193.699219 106.613281 193.808594 106.988281 193.960938 107.296875 C 194.039062 107.457031 194.125 107.609375 194.214844 107.746094 C 194.292969 107.859375 194.410156 107.988281 194.53125 108.109375 C 194.578125 108.15625 194.707031 108.199219 194.878906 108.445312 C 194.980469 108.589844 195.03125 108.78125 195.019531 108.953125 C 195.007812 109.125 194.941406 109.277344 194.847656 109.398438 C 194.574219 109.746094 194.339844 109.703125 194.261719 109.726562 C 193.902344 109.839844 193.523438 109.863281 193.089844 109.855469 C 192.65625 109.847656 192.191406 109.796875 191.746094 109.777344 C 191.519531 109.769531 191.339844 109.757812 191.234375 109.773438 C 191.152344 109.785156 191.070312 109.824219 191.035156 109.851562 C 191.011719 109.871094 191.03125 109.835938 191.011719 109.867188 C 191.007812 109.875 191.046875 109.789062 191.035156 109.816406 C 191.027344 109.84375 191.066406 109.617188 191.0625 109.679688 C 191.058594 109.75 190.957031 109.308594 191.007812 109.410156 C 191.035156 109.46875 190.847656 109.214844 190.894531 109.257812 C 190.941406 109.300781 190.707031 109.136719 190.75 109.160156 C 190.820312 109.191406 190.535156 109.109375 190.582031 109.113281 C 190.644531 109.117188 190.433594 109.121094 190.457031 109.117188 C 190.472656 109.113281 190.429688 109.121094 190.433594 109.121094 C 190.441406 109.117188 190.496094 109.097656 190.5625 109.066406 C 190.640625 109.03125 190.71875 108.984375 190.757812 108.957031 C 191.015625 108.757812 191.382812 108.804688 191.582031 109.0625 C 191.78125 109.320312 191.730469 109.691406 191.472656 109.886719 C 191.328125 110 191.183594 110.074219 191.050781 110.136719 C 190.980469 110.167969 190.902344 110.203125 190.808594 110.238281 C 190.703125 110.269531 190.550781 110.367188 190.246094 110.222656 C 190.136719 110.171875 190.019531 110.0625 189.953125 109.933594 C 189.894531 109.816406 189.882812 109.699219 189.890625 109.609375 C 189.898438 109.445312 189.953125 109.351562 189.996094 109.273438 C 190.085938 109.125 190.191406 109.015625 190.324219 108.914062 C 190.519531 108.765625 190.769531 108.648438 191.074219 108.609375 C 191.351562 108.570312 191.589844 108.597656 191.789062 108.601562 C 192.285156 108.621094 192.753906 108.671875 193.113281 108.679688 C 193.480469 108.6875 193.722656 108.664062 193.917969 108.605469 C 193.988281 108.582031 194.039062 108.570312 194.054688 108.5625 C 194.058594 108.5625 194.011719 108.585938 194.03125 108.574219 C 194.054688 108.5625 193.875 108.730469 193.921875 108.675781 C 193.957031 108.625 193.839844 108.953125 193.847656 108.871094 C 193.851562 108.785156 193.960938 109.183594 193.914062 109.117188 C 193.878906 109.070312 193.941406 109.148438 193.898438 109.117188 C 193.851562 109.078125 193.777344 109.019531 193.695312 108.933594 C 193.558594 108.796875 193.390625 108.621094 193.242188 108.402344 C 193.113281 108.210938 193.003906 108.015625 192.90625 107.820312 C 192.707031 107.410156 192.585938 107.039062 192.464844 106.824219 C 192.453125 106.804688 192.316406 106.6875 192.265625 106.386719 C 192.238281 106.226562 192.238281 106.09375 192.234375 106.007812 C 192.234375 105.964844 192.234375 105.96875 192.234375 105.957031 C 192.230469 105.945312 192.28125 106.089844 192.257812 106.042969 C 192.246094 106.011719 192.355469 106.191406 192.320312 106.148438 C 192.285156 106.101562 192.5625 106.339844 192.484375 106.292969 C 192.421875 106.253906 192.757812 106.378906 192.683594 106.367188 C 192.609375 106.355469 192.949219 106.347656 192.890625 106.363281 C 192.820312 106.382812 193.164062 106.222656 193.128906 106.25 C 193.105469 106.269531 193.222656 106.152344 193.210938 106.167969 C 193.203125 106.179688 193.230469 106.140625 193.226562 106.144531 C 193.226562 106.144531 193.203125 106.1875 193.167969 106.25 C 193.132812 106.320312 193.074219 106.4375 193 106.574219 C 192.929688 106.695312 192.859375 106.816406 192.78125 106.945312 C 192.570312 107.285156 192.335938 107.613281 192.148438 107.90625 C 191.777344 108.476562 191.441406 109.078125 191.15625 109.59375 C 191.105469 109.679688 191.058594 109.75 191.03125 109.796875 C 191.019531 109.816406 191.015625 109.828125 191.015625 109.828125 C 191.011719 109.832031 191.050781 109.679688 191.039062 109.742188 C 191.035156 109.777344 191.035156 109.507812 191.042969 109.582031 C 191.050781 109.621094 190.988281 109.390625 191.011719 109.441406 C 191.03125 109.5 190.851562 109.210938 190.902344 109.265625 "/>
<path style=" stroke:none;fill-rule:nonzero;fill:rgb(7.058716%,1.176453%,46.665955%);fill-opacity:1;" d="M 191.679688 52.445312 C 191.679688 52.121094 191.945312 51.855469 192.269531 51.855469 C 192.59375 51.855469 192.855469 52.121094 192.855469 52.445312 L 192.855469 68.390625 C 192.855469 68.714844 192.59375 68.976562 192.269531 68.976562 C 191.945312 68.976562 191.679688 68.714844 191.679688 68.390625 Z M 191.679688 52.445312 "/>
<path style=" stroke:none;fill-rule:nonzero;fill:rgb(7.058716%,1.176453%,46.665955%);fill-opacity:1;" d="M 192.269531 68.976562 C 191.945312 68.976562 191.679688 68.714844 191.679688 68.390625 C 191.679688 68.066406 191.945312 67.800781 192.269531 67.800781 L 209.648438 67.800781 C 209.976562 67.800781 210.238281 68.066406 210.238281 68.390625 C 210.238281 68.714844 209.976562 68.976562 209.648438 68.976562 Z M 192.269531 68.976562 "/>
<path style=" stroke:none;fill-rule:nonzero;fill:rgb(7.058716%,1.176453%,46.665955%);fill-opacity:1;" d="M 209.0625 68.390625 C 209.0625 68.066406 209.324219 67.800781 209.648438 67.800781 C 209.976562 67.800781 210.238281 68.066406 210.238281 68.390625 L 210.238281 138.71875 C 210.238281 139.042969 209.976562 139.304688 209.648438 139.304688 C 209.324219 139.304688 209.0625 139.042969 209.0625 138.71875 Z M 209.0625 68.390625 "/>
<path style=" stroke:none;fill-rule:nonzero;fill:rgb(7.058716%,1.176453%,46.665955%);fill-opacity:1;" d="M 192.910156 52.742188 C 193.148438 52.960938 193.164062 53.335938 192.945312 53.574219 C 192.726562 53.8125 192.355469 53.828125 192.113281 53.609375 C 191.785156 53.308594 191.890625 53.144531 191.890625 53.011719 C 191.894531 52.882812 191.910156 52.757812 191.941406 52.628906 C 191.988281 52.421875 192.089844 52.28125 192.183594 52.175781 C 192.230469 52.125 192.277344 52.082031 192.347656 52.035156 C 192.371094 52.019531 192.410156 51.980469 192.542969 51.949219 C 192.535156 51.949219 192.5625 51.941406 192.597656 51.9375 C 192.917969 51.886719 193.21875 52.105469 193.269531 52.429688 C 193.320312 52.75 193.097656 53.050781 192.777344 53.097656 C 192.746094 53.105469 192.882812 53.074219 192.859375 53.082031 C 192.761719 53.105469 192.976562 53.027344 192.953125 53.042969 C 192.929688 53.054688 193.015625 53.003906 193.003906 53.011719 C 192.949219 53.046875 193.054688 52.964844 193.046875 52.972656 C 193.035156 52.988281 193.097656 52.84375 193.085938 52.898438 C 193.074219 52.941406 193.066406 52.996094 193.066406 53.023438 C 193.066406 53.03125 193.058594 52.976562 193.0625 53.003906 C 193.066406 53.023438 193.023438 52.882812 193.039062 52.925781 C 193.058594 52.96875 192.832031 52.671875 192.910156 52.742188 M 192.105469 52.574219 C 192.078125 52.253906 192.316406 51.964844 192.636719 51.9375 C 192.960938 51.90625 193.246094 52.144531 193.277344 52.464844 C 193.304688 52.753906 193.199219 52.839844 193.15625 52.90625 C 193.117188 52.964844 193.082031 53.007812 193.046875 53.050781 C 192.980469 53.128906 192.914062 53.199219 192.863281 53.265625 C 192.648438 53.546875 192.359375 53.933594 192.003906 54.363281 C 191.738281 54.675781 191.441406 55.003906 191.136719 55.332031 C 190.875 55.617188 190.605469 55.890625 190.371094 56.136719 C 190.078125 56.441406 189.839844 56.691406 189.730469 56.804688 C 189.710938 56.824219 189.691406 56.847656 189.660156 56.882812 L 188.773438 56.113281 C 188.828125 56.050781 188.882812 55.996094 188.964844 55.90625 C 189.054688 55.808594 189.175781 55.683594 189.300781 55.550781 C 189.542969 55.285156 189.773438 55.015625 189.976562 54.78125 C 190.265625 54.441406 190.460938 54.246094 190.640625 53.953125 C 190.734375 53.804688 190.832031 53.632812 190.925781 53.421875 C 191.046875 53.148438 191.160156 52.792969 191.238281 52.488281 C 191.269531 52.367188 191.285156 52.246094 191.300781 52.128906 C 191.308594 52.082031 191.3125 52.050781 191.3125 52.035156 C 191.3125 52.03125 191.3125 52.078125 191.3125 52.054688 C 191.285156 51.734375 191.527344 51.449219 191.851562 51.425781 C 192.171875 51.398438 192.457031 51.636719 192.484375 51.960938 C 192.488281 52.003906 192.488281 52.027344 192.488281 52.058594 C 192.484375 52.125 192.480469 52.203125 192.464844 52.296875 C 192.449219 52.40625 192.429688 52.582031 192.375 52.785156 C 192.285156 53.132812 192.160156 53.535156 191.996094 53.902344 C 191.878906 54.171875 191.753906 54.394531 191.640625 54.574219 C 191.390625 54.972656 191.140625 55.234375 190.867188 55.546875 C 190.667969 55.78125 190.425781 56.0625 190.164062 56.347656 C 190.03125 56.488281 189.910156 56.617188 189.828125 56.707031 C 189.738281 56.804688 189.664062 56.882812 189.660156 56.882812 C 189.449219 57.128906 189.078125 57.15625 188.832031 56.941406 C 188.585938 56.730469 188.5625 56.359375 188.773438 56.113281 C 188.785156 56.097656 188.828125 56.046875 188.882812 55.988281 C 188.984375 55.886719 189.226562 55.628906 189.523438 55.320312 C 189.761719 55.074219 190.023438 54.804688 190.273438 54.535156 C 190.574219 54.210938 190.855469 53.898438 191.101562 53.605469 C 191.433594 53.207031 191.707031 52.839844 191.933594 52.546875 C 192.019531 52.433594 192.101562 52.34375 192.152344 52.285156 C 192.171875 52.261719 192.171875 52.261719 192.179688 52.253906 C 192.1875 52.242188 192.128906 52.355469 192.144531 52.316406 C 192.15625 52.296875 192.109375 52.449219 192.117188 52.40625 C 192.125 52.363281 192.113281 52.644531 192.105469 52.574219 M 191.3125 51.9375 C 191.351562 51.617188 191.640625 51.386719 191.964844 51.421875 C 192.285156 51.460938 192.519531 51.75 192.480469 52.074219 C 192.480469 52.078125 192.480469 52.207031 192.484375 52.332031 C 192.484375 52.375 192.492188 52.347656 192.589844 52.472656 C 192.699219 52.613281 192.875 52.792969 193.0625 53.011719 C 193.332031 53.328125 193.574219 53.675781 193.804688 53.992188 C 193.949219 54.191406 194.085938 54.375 194.210938 54.539062 C 194.332031 54.699219 194.441406 54.832031 194.539062 54.9375 C 194.566406 54.964844 194.675781 55.019531 194.84375 55.191406 C 195.007812 55.359375 195.074219 55.542969 195.113281 55.671875 C 195.191406 55.925781 195.171875 56.144531 195.144531 56.324219 C 195.101562 56.597656 194.988281 56.777344 194.980469 56.796875 C 194.953125 56.863281 195.019531 56.554688 195.019531 56.609375 C 195.015625 56.691406 194.984375 56.40625 194.996094 56.441406 C 195.007812 56.472656 194.972656 56.382812 194.976562 56.390625 C 194.980469 56.398438 194.984375 56.402344 195.003906 56.453125 C 195.03125 56.515625 195.121094 56.660156 194.996094 56.933594 C 194.917969 57.109375 194.777344 57.203125 194.683594 57.246094 C 194.589844 57.285156 194.527344 57.296875 194.476562 57.300781 C 194.378906 57.3125 194.308594 57.308594 194.242188 57.304688 C 194.121094 57.296875 194.007812 57.285156 193.921875 57.277344 C 193.648438 57.261719 193.234375 57.277344 192.703125 57.277344 C 192.214844 57.277344 191.640625 57.304688 191.101562 57.277344 C 190.800781 57.265625 190.53125 57.226562 190.292969 57.179688 C 189.847656 57.089844 189.507812 56.960938 189.25 56.765625 C 189.203125 56.730469 189.152344 56.691406 189.089844 56.613281 C 189.023438 56.527344 188.914062 56.355469 188.964844 56.097656 C 189.015625 55.839844 189.226562 55.695312 189.347656 55.648438 C 189.441406 55.609375 189.511719 55.601562 189.574219 55.59375 C 189.832031 55.570312 190 55.617188 190.15625 55.632812 C 190.664062 55.679688 191.269531 55.691406 191.917969 55.65625 C 192.382812 55.632812 192.898438 55.5 193.132812 55.390625 C 193.183594 55.367188 193.210938 55.347656 193.214844 55.347656 C 193.214844 55.347656 193.132812 55.425781 193.160156 55.394531 C 193.179688 55.375 193.082031 55.507812 193.105469 55.472656 C 193.125 55.433594 193.027344 55.683594 193.042969 55.621094 C 193.0625 55.53125 193.070312 55.976562 193.046875 55.894531 C 193.027344 55.816406 193.167969 56.117188 193.136719 56.074219 C 193.078125 55.996094 193.285156 56.203125 193.257812 56.1875 C 193.222656 56.164062 193.289062 56.203125 193.273438 56.199219 C 193.246094 56.191406 193.195312 56.199219 193.039062 56.199219 C 192.894531 56.203125 192.761719 56.199219 192.648438 56.199219 C 192.550781 56.203125 192.414062 56.285156 192.070312 56.195312 C 192.058594 56.191406 191.96875 56.261719 191.703125 56.03125 C 191.457031 55.820312 191.433594 55.449219 191.644531 55.203125 C 191.855469 54.957031 192.226562 54.929688 192.472656 55.144531 C 192.53125 55.191406 192.292969 55.039062 192.328125 55.054688 C 192.375 55.074219 192.269531 55.035156 192.277344 55.039062 C 192.289062 55.039062 192.320312 55.046875 192.367188 55.058594 C 192.410156 55.070312 192.300781 55.046875 192.300781 55.046875 C 192.320312 55.046875 192.453125 55.027344 192.632812 55.023438 C 192.769531 55.023438 192.902344 55.027344 193.035156 55.023438 C 193.140625 55.023438 193.304688 54.996094 193.546875 55.054688 C 193.652344 55.078125 193.75 55.113281 193.867188 55.179688 C 193.929688 55.21875 194 55.269531 194.074219 55.367188 C 194.15625 55.472656 194.238281 55.679688 194.1875 55.890625 C 194.117188 56.179688 193.964844 56.257812 193.875 56.320312 C 193.789062 56.378906 193.714844 56.414062 193.636719 56.453125 C 193.191406 56.664062 192.597656 56.796875 191.980469 56.832031 C 191.277344 56.867188 190.621094 56.855469 190.050781 56.804688 C 189.835938 56.785156 189.710938 56.761719 189.683594 56.765625 C 189.675781 56.765625 189.867188 56.703125 189.792969 56.734375 C 189.742188 56.757812 190.019531 56.566406 189.953125 56.628906 C 189.886719 56.695312 190.140625 56.210938 190.117188 56.332031 C 190.09375 56.453125 190.066406 55.953125 190.09375 56.03125 C 190.121094 56.097656 189.996094 55.863281 190.019531 55.890625 C 190.054688 55.9375 189.953125 55.824219 189.957031 55.824219 C 189.980469 55.84375 190.222656 55.96875 190.523438 56.027344 C 190.710938 56.0625 190.917969 56.09375 191.152344 56.105469 C 191.625 56.125 192.183594 56.101562 192.703125 56.101562 C 193.207031 56.101562 193.625 56.082031 193.996094 56.105469 C 194.128906 56.113281 194.246094 56.128906 194.316406 56.132812 C 194.347656 56.132812 194.300781 56.140625 194.332031 56.136719 C 194.34375 56.132812 194.144531 56.195312 194.210938 56.167969 C 194.234375 56.15625 194.015625 56.300781 194.066406 56.257812 C 194.121094 56.214844 193.886719 56.53125 193.925781 56.453125 C 193.957031 56.382812 193.871094 56.695312 193.875 56.640625 C 193.882812 56.5625 193.898438 56.851562 193.890625 56.8125 C 193.878906 56.777344 193.914062 56.894531 193.910156 56.882812 C 193.902344 56.859375 193.921875 56.914062 193.910156 56.886719 C 193.886719 56.832031 193.769531 56.648438 193.890625 56.355469 C 193.953125 56.199219 193.980469 56.152344 193.984375 56.136719 C 193.996094 56.066406 193.988281 56.019531 193.988281 56.015625 C 193.976562 55.972656 194.035156 56.046875 194 56.011719 C 194 56.011719 193.863281 55.933594 193.6875 55.746094 C 193.539062 55.589844 193.40625 55.421875 193.273438 55.25 C 193.144531 55.078125 193.003906 54.890625 192.859375 54.691406 C 192.617188 54.363281 192.386719 54.03125 192.167969 53.773438 C 191.851562 53.402344 191.335938 53.089844 191.308594 52.375 C 191.304688 52.242188 191.292969 52.105469 191.3125 51.9375 M 192.664062 55.464844 C 192.730469 55.78125 192.527344 56.09375 192.210938 56.160156 C 191.890625 56.226562 191.578125 56.023438 191.511719 55.707031 C 191.472656 55.527344 191.511719 55.449219 191.53125 55.394531 C 191.554688 55.316406 191.578125 55.285156 191.59375 55.257812 C 191.625 55.199219 191.652344 55.164062 191.679688 55.128906 C 191.734375 55.058594 191.789062 54.988281 191.835938 54.9375 C 191.839844 54.929688 191.820312 54.964844 191.824219 54.957031 C 191.824219 54.949219 191.808594 55 191.8125 54.984375 C 191.816406 54.964844 191.792969 55.152344 191.796875 55.089844 C 191.808594 54.71875 191.988281 54.660156 192.039062 54.617188 C 192.078125 54.585938 192.074219 54.59375 192.082031 54.585938 C 192.328125 54.367188 192.699219 54.390625 192.914062 54.636719 C 193.128906 54.878906 193.105469 55.25 192.863281 55.464844 C 192.8125 55.507812 192.800781 55.515625 192.792969 55.523438 C 192.78125 55.53125 192.882812 55.421875 192.847656 55.464844 C 192.828125 55.488281 192.941406 55.304688 192.917969 55.355469 C 192.890625 55.410156 192.972656 55.042969 192.972656 55.136719 C 192.960938 55.425781 192.871094 55.53125 192.726562 55.699219 C 192.691406 55.742188 192.648438 55.796875 192.617188 55.835938 C 192.605469 55.851562 192.617188 55.832031 192.609375 55.847656 C 192.601562 55.859375 192.667969 55.703125 192.644531 55.761719 C 192.640625 55.78125 192.675781 55.621094 192.667969 55.664062 C 192.664062 55.710938 192.644531 55.375 192.664062 55.464844 "/>
<path style=" stroke:none;fill-rule:nonzero;fill:rgb(7.058716%,1.176453%,46.665955%);fill-opacity:1;" d="M 199.851562 43.691406 C 199.527344 43.691406 199.265625 43.429688 199.265625 43.101562 C 199.265625 42.777344 199.527344 42.515625 199.851562 42.515625 L 227.960938 42.515625 C 228.285156 42.515625 228.546875 42.777344 228.546875 43.101562 C 228.546875 43.429688 228.285156 43.691406 227.960938 43.691406 Z M 199.851562 43.691406 "/>
<path style=" stroke:none;fill-rule:nonzero;fill:rgb(7.058716%,1.176453%,46.665955%);fill-opacity:1;" d="M 227.371094 43.101562 C 227.371094 42.777344 227.632812 42.515625 227.960938 42.515625 C 228.285156 42.515625 228.546875 42.777344 228.546875 43.101562 L 228.546875 69.382812 C 228.546875 69.710938 228.285156 69.972656 227.960938 69.972656 C 227.632812 69.972656 227.371094 69.710938 227.371094 69.382812 Z M 227.371094 43.101562 "/>
<path style=" stroke:none;fill-rule:nonzero;fill:rgb(7.058716%,1.176453%,46.665955%);fill-opacity:1;" d="M 199.875 96.941406 C 199.550781 96.941406 199.289062 96.679688 199.289062 96.355469 C 199.289062 96.03125 199.550781 95.765625 199.875 95.765625 L 207.257812 95.765625 C 207.582031 95.765625 207.847656 96.03125 207.847656 96.355469 C 207.847656 96.679688 207.582031 96.941406 207.257812 96.941406 Z M 199.875 96.941406 "/>
<path style=" stroke:none;fill-rule:nonzero;fill:rgb(7.058716%,1.176453%,46.665955%);fill-opacity:1;" d="M 207.816406 96.546875 C 207.710938 96.851562 207.375 97.015625 207.066406 96.910156 C 206.761719 96.804688 206.597656 96.46875 206.703125 96.164062 C 209.078125 89.273438 211.824219 89.273438 213.707031 96.199219 C 213.792969 96.511719 213.609375 96.835938 213.292969 96.921875 C 212.980469 97.007812 212.660156 96.820312 212.574219 96.507812 C 211 90.726562 209.820312 90.726562 207.816406 96.546875 "/>
<path style=" stroke:none;fill-rule:nonzero;fill:rgb(7.058716%,1.176453%,46.665955%);fill-opacity:1;" d="M 213.140625 96.941406 C 212.816406 96.941406 212.550781 96.679688 212.550781 96.355469 C 212.550781 96.03125 212.816406 95.765625 213.140625 95.765625 L 228.050781 95.765625 C 228.375 95.765625 228.636719 96.03125 228.636719 96.355469 C 228.636719 96.679688 228.375 96.941406 228.050781 96.941406 Z M 213.140625 96.941406 "/>
<path style=" stroke:none;fill-rule:nonzero;fill:rgb(7.058716%,1.176453%,46.665955%);fill-opacity:1;" d="M 228.636719 96.355469 C 228.636719 96.679688 228.375 96.941406 228.050781 96.941406 C 227.722656 96.941406 227.460938 96.679688 227.460938 96.355469 L 227.460938 69.382812 C 227.460938 69.058594 227.722656 68.796875 228.050781 68.796875 C 228.375 68.796875 228.636719 69.058594 228.636719 69.382812 Z M 228.636719 96.355469 "/>
<path style=" stroke:none;fill-rule:nonzero;fill:rgb(7.058716%,1.176453%,46.665955%);fill-opacity:1;" d="M 137.691406 42.535156 C 137.367188 42.527344 137.105469 42.261719 137.113281 41.9375 C 137.117188 41.613281 137.382812 41.351562 137.710938 41.359375 L 183.222656 42.097656 C 183.546875 42.105469 183.804688 42.371094 183.800781 42.695312 C 183.792969 43.019531 183.527344 43.28125 183.203125 43.273438 Z M 137.691406 42.535156 "/>
<path style=" stroke:none;fill-rule:nonzero;fill:rgb(7.058716%,1.176453%,46.665955%);fill-opacity:1;" d="M 137.699219 96.472656 C 137.375 96.472656 137.113281 96.210938 137.113281 95.886719 C 137.113281 95.558594 137.375 95.296875 137.699219 95.296875 L 183.214844 95.296875 C 183.539062 95.296875 183.800781 95.558594 183.800781 95.886719 C 183.800781 96.210938 183.539062 96.472656 183.214844 96.472656 Z M 137.699219 96.472656 "/>
<path style=" stroke:none;fill-rule:nonzero;fill:rgb(7.058716%,1.176453%,46.665955%);fill-opacity:1;" d="M 65.335938 43.445312 C 65.007812 43.457031 64.738281 43.203125 64.722656 42.878906 C 64.710938 42.554688 64.964844 42.28125 65.289062 42.269531 L 83.53125 41.582031 C 83.855469 41.570312 84.128906 41.820312 84.140625 42.144531 C 84.152344 42.46875 83.898438 42.742188 83.574219 42.753906 Z M 65.335938 43.445312 "/>
<path style=" stroke:none;fill-rule:nonzero;fill:rgb(7.058716%,1.176453%,46.665955%);fill-opacity:1;" d="M 66.023438 97.246094 C 65.699219 97.261719 65.421875 97.011719 65.40625 96.6875 C 65.390625 96.363281 65.644531 96.089844 65.96875 96.074219 L 83.511719 95.234375 C 83.835938 95.21875 84.113281 95.46875 84.128906 95.792969 C 84.144531 96.117188 83.894531 96.394531 83.570312 96.410156 Z M 66.023438 97.246094 "/>
<path style=" stroke:none;fill-rule:nonzero;fill:rgb(92.941284%,21.176147%,14.117432%);fill-opacity:1;" d="M 102.867188 39.480469 C 102.789062 39.792969 102.46875 39.984375 102.152344 39.902344 C 101.839844 39.824219 101.648438 39.503906 101.730469 39.1875 C 101.738281 39.15625 101.734375 39 101.730469 38.796875 C 101.726562 38.625 101.734375 38.5 101.753906 38.382812 C 101.777344 38.253906 101.851562 38.101562 101.980469 38.003906 C 102.089844 37.910156 102.246094 37.871094 102.363281 37.871094 C 102.609375 37.875 102.777344 37.996094 102.882812 38.144531 C 103.132812 38.507812 103.019531 38.628906 103.015625 38.78125 C 103.015625 38.9375 103.011719 39.101562 103.023438 39.261719 C 103.074219 40.042969 103.394531 41.316406 103.535156 42.730469 C 103.574219 43.125 103.59375 43.515625 103.605469 43.894531 C 103.613281 44.25 103.625 44.609375 103.605469 44.976562 C 103.582031 45.363281 103.488281 45.6875 103.421875 45.972656 C 103.324219 46.40625 103.230469 46.84375 103.164062 47.242188 C 103.089844 47.683594 103.089844 48.070312 103.125 48.253906 C 103.128906 48.261719 103.066406 48.160156 103.09375 48.199219 C 103.125 48.238281 102.910156 48.078125 102.960938 48.097656 C 103.007812 48.113281 102.84375 48.082031 102.859375 48.082031 C 102.871094 48.082031 102.855469 48.082031 102.875 48.074219 C 102.964844 48.035156 103.132812 47.871094 103.175781 47.742188 C 103.277344 47.433594 103.609375 47.265625 103.917969 47.367188 C 104.226562 47.46875 104.390625 47.804688 104.289062 48.113281 C 104.125 48.605469 103.773438 48.96875 103.34375 49.152344 C 103.125 49.25 102.847656 49.308594 102.550781 49.199219 C 102.246094 49.085938 102.027344 48.773438 101.972656 48.472656 C 101.894531 48.078125 101.910156 47.59375 102.003906 47.046875 C 102.078125 46.613281 102.175781 46.15625 102.277344 45.710938 C 102.347656 45.402344 102.417969 45.140625 102.429688 44.90625 C 102.449219 44.609375 102.4375 44.28125 102.429688 43.921875 C 102.421875 43.566406 102.402344 43.207031 102.367188 42.847656 C 102.234375 41.535156 101.914062 40.304688 101.847656 39.339844 C 101.832031 39.109375 101.839844 38.910156 101.839844 38.769531 C 101.84375 38.703125 101.839844 38.652344 101.839844 38.636719 C 101.839844 38.628906 101.851562 38.679688 101.84375 38.65625 C 101.839844 38.628906 101.972656 38.894531 101.917969 38.816406 C 101.878906 38.761719 102.152344 39.011719 102.085938 38.972656 C 102.015625 38.929688 102.457031 39.046875 102.351562 39.046875 C 102.3125 39.046875 102.59375 39 102.53125 39.019531 C 102.46875 39.039062 102.78125 38.863281 102.722656 38.914062 C 102.648438 38.972656 102.882812 38.699219 102.847656 38.761719 C 102.816406 38.820312 102.921875 38.53125 102.914062 38.585938 C 102.914062 38.589844 102.902344 38.671875 102.90625 38.769531 C 102.910156 38.972656 102.941406 39.1875 102.867188 39.480469 "/>
<path style=" stroke:none;fill-rule:nonzero;fill:rgb(92.941284%,21.176147%,14.117432%);fill-opacity:1;" d="M 100.257812 47.765625 C 100.421875 48.046875 100.328125 48.40625 100.046875 48.570312 C 99.765625 48.734375 99.40625 48.640625 99.242188 48.359375 C 99.140625 48.183594 99.007812 48 99.101562 47.652344 C 99.148438 47.464844 99.320312 47.28125 99.488281 47.210938 C 99.632812 47.148438 99.753906 47.152344 99.851562 47.160156 C 100.285156 47.195312 100.492188 47.390625 100.746094 47.519531 C 100.886719 47.589844 101.070312 47.640625 101.34375 47.683594 C 101.644531 47.730469 102.019531 47.757812 102.445312 47.738281 C 103.101562 47.714844 103.859375 47.5625 104.46875 47.339844 C 104.761719 47.234375 105.007812 47.113281 105.167969 47.003906 C 105.238281 46.953125 105.289062 46.910156 105.308594 46.882812 C 105.328125 46.863281 105.296875 46.960938 105.304688 46.917969 C 105.367188 46.597656 105.671875 46.386719 105.992188 46.449219 C 106.3125 46.507812 106.519531 46.816406 106.460938 47.136719 C 106.382812 47.539062 106.109375 47.78125 105.835938 47.972656 C 105.554688 48.164062 105.230469 48.316406 104.867188 48.445312 C 104.136719 48.710938 103.289062 48.882812 102.488281 48.914062 C 101.988281 48.933594 101.542969 48.90625 101.160156 48.84375 C 100.824219 48.789062 100.511719 48.714844 100.222656 48.570312 C 100.078125 48.5 99.945312 48.429688 99.839844 48.378906 C 99.792969 48.355469 99.753906 48.339844 99.730469 48.328125 C 99.707031 48.324219 99.796875 48.335938 99.75 48.332031 C 99.734375 48.328125 99.84375 48.328125 99.8125 48.328125 C 99.78125 48.332031 99.996094 48.273438 99.941406 48.296875 C 99.878906 48.320312 100.179688 48.101562 100.121094 48.164062 C 100.066406 48.230469 100.253906 47.890625 100.234375 47.957031 C 100.21875 48.023438 100.246094 47.761719 100.25 47.800781 C 100.253906 47.851562 100.234375 47.71875 100.234375 47.722656 C 100.234375 47.722656 100.242188 47.742188 100.257812 47.765625 "/>
<path style=" stroke:none;fill-rule:nonzero;fill:rgb(92.941284%,21.176147%,14.117432%);fill-opacity:1;" d="M 98.324219 38.726562 C 98.257812 39.042969 97.945312 39.242188 97.625 39.175781 C 97.308594 39.105469 97.109375 38.792969 97.175781 38.476562 C 97.347656 37.691406 98.050781 37.171875 98.847656 36.851562 C 99.273438 36.683594 99.710938 36.617188 100.125 36.578125 C 101.363281 36.453125 102.484375 36.734375 103.496094 36.90625 C 104.480469 37.074219 105.351562 37.132812 106.167969 36.75 C 106.460938 36.609375 106.8125 36.738281 106.949219 37.03125 C 107.085938 37.324219 106.960938 37.675781 106.667969 37.8125 C 105.527344 38.347656 104.359375 38.246094 103.296875 38.066406 C 102.246094 37.886719 101.238281 37.648438 100.242188 37.746094 C 99.878906 37.785156 99.542969 37.839844 99.285156 37.945312 C 98.722656 38.171875 98.359375 38.574219 98.324219 38.726562 "/>
<path style=" stroke:none;fill-rule:nonzero;fill:rgb(92.941284%,21.176147%,14.117432%);fill-opacity:1;" d="M 105.625 91.945312 C 105.554688 92.261719 105.242188 92.460938 104.925781 92.390625 C 104.609375 92.320312 104.40625 92.007812 104.476562 91.691406 C 104.496094 91.605469 104.507812 91.632812 104.492188 91.59375 C 104.484375 91.570312 104.628906 91.746094 104.578125 91.707031 C 104.527344 91.667969 104.769531 91.773438 104.734375 91.769531 C 104.683594 91.765625 104.796875 91.765625 104.789062 91.769531 C 104.742188 91.785156 104.539062 91.890625 104.277344 92.082031 C 103.621094 92.550781 102.75 93.292969 102.074219 94.214844 C 101.660156 94.785156 101.347656 95.441406 101.1875 96.070312 C 101.09375 96.421875 101.085938 96.804688 101.121094 97.15625 C 101.164062 97.609375 101.371094 97.902344 101.699219 98.117188 C 102.042969 98.339844 102.53125 98.46875 103.042969 98.488281 C 103.433594 98.507812 103.800781 98.5 104.152344 98.421875 C 104.816406 98.273438 105.550781 97.84375 106.253906 97.371094 C 107.117188 96.796875 107.851562 96.191406 108.207031 95.566406 C 108.390625 95.242188 108.484375 94.902344 108.492188 94.507812 C 108.5 94.21875 108.507812 93.976562 108.457031 93.742188 C 108.355469 93.253906 108.03125 92.644531 107.628906 92.046875 C 107.375 91.667969 107.089844 91.304688 106.808594 91.007812 C 106.480469 90.664062 106.15625 90.429688 105.867188 90.308594 C 105.589844 90.195312 105.351562 90.175781 105.125 90.234375 C 104.65625 90.355469 104.09375 90.917969 103.648438 92.066406 C 103.53125 92.367188 103.191406 92.519531 102.886719 92.402344 C 102.585938 92.285156 102.433594 91.945312 102.550781 91.640625 C 103.074219 90.296875 103.839844 89.355469 104.828125 89.097656 C 105.320312 88.96875 105.84375 89.027344 106.320312 89.222656 C 106.800781 89.425781 107.246094 89.761719 107.660156 90.195312 C 108 90.554688 108.316406 90.964844 108.605469 91.390625 C 109.050781 92.050781 109.453125 92.757812 109.609375 93.5 C 109.695312 93.902344 109.675781 94.257812 109.667969 94.535156 C 109.65625 95.105469 109.507812 95.65625 109.226562 96.148438 C 108.710938 97.054688 107.832031 97.734375 106.910156 98.351562 C 106.164062 98.847656 105.332031 99.363281 104.410156 99.570312 C 103.90625 99.683594 103.425781 99.683594 102.992188 99.664062 C 102.320312 99.636719 101.632812 99.476562 101.054688 99.101562 C 100.476562 98.71875 100.023438 98.066406 99.949219 97.265625 C 99.90625 96.816406 99.914062 96.300781 100.046875 95.777344 C 100.25 94.988281 100.625 94.210938 101.125 93.523438 C 101.90625 92.453125 102.863281 91.648438 103.589844 91.125 C 103.992188 90.839844 104.296875 90.554688 104.832031 90.597656 C 105.167969 90.628906 105.484375 90.894531 105.589844 91.171875 C 105.695312 91.441406 105.679688 91.699219 105.625 91.945312 "/>
<path style=" stroke:none;fill-rule:nonzero;fill:rgb(92.941284%,21.176147%,14.117432%);fill-opacity:1;" d="M 105.972656 94.769531 C 106.121094 95.058594 106.007812 95.414062 105.71875 95.5625 C 105.429688 95.710938 105.074219 95.597656 104.925781 95.308594 C 104.921875 95.300781 104.921875 95.296875 104.921875 95.296875 C 104.921875 95.296875 104.984375 95.394531 104.949219 95.34375 C 104.765625 95.074219 104.835938 94.707031 105.101562 94.523438 C 105.371094 94.34375 105.738281 94.410156 105.921875 94.679688 C 105.980469 94.769531 105.960938 94.75 105.972656 94.769531 M 104.875 95.191406 C 104.773438 94.882812 104.945312 94.550781 105.253906 94.453125 C 105.5625 94.351562 105.894531 94.519531 105.992188 94.832031 C 106 94.851562 105.980469 94.789062 105.980469 94.796875 C 105.992188 94.820312 105.980469 94.789062 105.996094 94.824219 C 106.027344 94.894531 106.085938 95.015625 106.160156 95.175781 C 106.324219 95.515625 106.550781 96 106.800781 96.550781 C 107.0625 97.121094 107.308594 97.742188 107.554688 98.308594 C 107.738281 98.734375 107.90625 99.132812 108.066406 99.460938 C 108.40625 100.183594 108.652344 100.472656 108.902344 100.660156 C 109.164062 100.855469 109.214844 101.226562 109.019531 101.484375 C 108.820312 101.742188 108.453125 101.792969 108.195312 101.597656 C 107.78125 101.285156 107.394531 100.789062 107.003906 99.964844 C 106.832031 99.605469 106.660156 99.199219 106.476562 98.777344 C 106.21875 98.1875 105.976562 97.574219 105.730469 97.035156 C 105.484375 96.492188 105.261719 96.019531 105.101562 95.679688 C 105.023438 95.523438 104.96875 95.402344 104.933594 95.328125 C 104.914062 95.292969 104.910156 95.285156 104.890625 95.238281 C 104.882812 95.222656 104.882812 95.210938 104.875 95.191406 "/>
<path style=" stroke:none;fill-rule:nonzero;fill:rgb(7.058716%,1.176453%,46.665955%);fill-opacity:1;" d="M 21.375 64.460938 C 21.574219 64.71875 21.523438 65.089844 21.265625 65.285156 C 21.007812 65.484375 20.640625 65.433594 20.441406 65.175781 C 20.042969 64.652344 19.867188 64.027344 20.066406 63.496094 C 20.261719 62.972656 20.726562 62.648438 21.222656 62.457031 C 22.234375 62.058594 23.546875 62.066406 24.746094 62.441406 C 26.039062 62.847656 27.257812 63.734375 27.8125 64.960938 C 28.035156 65.453125 28.113281 66.058594 27.96875 66.742188 C 27.867188 67.21875 27.746094 67.871094 27.417969 68.613281 C 26.5 70.703125 24.535156 72.945312 23.273438 74.996094 C 22.761719 75.832031 22.355469 76.550781 22.203125 77.109375 C 22.117188 77.421875 22.175781 77.628906 22.367188 77.847656 C 22.574219 78.089844 22.96875 78.324219 23.507812 78.484375 C 24.804688 78.875 26.835938 78.703125 28.71875 78.800781 C 30.132812 78.871094 31.371094 79.113281 32.265625 79.53125 C 32.667969 79.71875 32.953125 80.046875 33.109375 80.390625 C 33.265625 80.730469 33.308594 81.085938 33.277344 81.414062 C 33.222656 81.964844 32.859375 82.378906 32.433594 82.722656 C 32 83.078125 31.453125 83.390625 30.835938 83.691406 C 29.566406 84.308594 28.035156 84.855469 26.570312 85.363281 C 24.828125 85.964844 23.203125 86.550781 21.910156 86.769531 C 21.292969 86.871094 20.742188 86.929688 20.242188 86.667969 C 19.984375 86.535156 19.761719 86.273438 19.679688 85.976562 C 19.601562 85.683594 19.636719 85.386719 19.726562 85.089844 C 19.816406 84.777344 20.144531 84.597656 20.453125 84.691406 C 20.765625 84.78125 20.945312 85.109375 20.851562 85.421875 C 20.804688 85.582031 20.8125 85.664062 20.816406 85.671875 C 20.816406 85.679688 20.773438 85.621094 20.785156 85.625 C 20.847656 85.65625 21.203125 85.695312 21.714844 85.609375 C 22.835938 85.421875 24.445312 84.855469 26.1875 84.253906 C 27.636719 83.75 29.136719 83.210938 30.320312 82.632812 C 30.890625 82.355469 31.367188 82.078125 31.691406 81.8125 C 31.992188 81.570312 32.101562 81.363281 32.105469 81.300781 C 32.121094 81.167969 32.097656 81.003906 32.039062 80.878906 C 31.984375 80.753906 31.902344 80.660156 31.769531 80.597656 C 31.089844 80.28125 29.960938 80.039062 28.660156 79.972656 C 26.878906 79.882812 24.8125 80.105469 23.167969 79.609375 C 22.484375 79.40625 21.886719 79.09375 21.476562 78.617188 C 21.066406 78.140625 20.890625 77.453125 21.070312 76.796875 C 21.285156 76.019531 21.746094 75.238281 22.269531 74.382812 C 23.597656 72.21875 25.539062 69.964844 26.34375 68.140625 C 26.613281 67.523438 26.714844 66.988281 26.820312 66.5 C 26.921875 66.015625 26.875 65.742188 26.742188 65.445312 C 26.371094 64.625 25.410156 63.882812 24.394531 63.5625 C 23.445312 63.265625 22.324219 63.289062 21.652344 63.550781 C 21.347656 63.671875 21.199219 63.820312 21.167969 63.910156 C 21.140625 63.988281 21.132812 64.144531 21.375 64.460938 "/>
<path style=" stroke:none;fill-rule:nonzero;fill:rgb(7.058716%,1.176453%,46.665955%);fill-opacity:1;" d="M 28.832031 56.300781 C 29.105469 56.472656 29.1875 56.835938 29.015625 57.109375 C 28.839844 57.386719 28.476562 57.464844 28.203125 57.292969 C 26.328125 56.105469 24.019531 54.660156 21.476562 55.433594 C 20.121094 55.847656 18.46875 56.976562 16.628906 58.648438 C 13.941406 61.085938 10.886719 64.871094 9.515625 69.113281 C 8.328125 72.785156 8.941406 76.511719 10.460938 80.179688 C 12.488281 85.0625 14.710938 90.121094 17.484375 92.792969 C 19.28125 94.519531 21.964844 95.101562 24.800781 94.699219 C 27.703125 94.285156 30.746094 92.890625 33.28125 90.792969 C 36.324219 88.269531 38.832031 84.769531 39.957031 80.53125 C 40.644531 77.929688 40.722656 74.984375 40.613281 72.234375 C 40.464844 68.546875 39.84375 65.675781 38.203125 63.597656 C 36.988281 62.058594 35.195312 60.757812 33.003906 59.695312 C 30.152344 58.316406 26.90625 57.34375 24.316406 57.324219 C 23.085938 57.316406 22.054688 57.542969 21.394531 58.003906 C 20.757812 58.449219 20.394531 59.144531 20.425781 60.226562 C 20.4375 60.550781 20.179688 60.824219 19.855469 60.832031 C 19.53125 60.84375 19.261719 60.589844 19.25 60.261719 C 19.210938 58.867188 19.773438 57.707031 20.71875 57.042969 C 21.671875 56.375 22.945312 56.136719 24.328125 56.148438 C 27.183594 56.171875 30.539062 57.199219 33.515625 58.636719 C 35.824219 59.757812 37.769531 61.152344 39.125 62.867188 C 40.992188 65.230469 41.632812 68.382812 41.785156 72.1875 C 41.898438 74.996094 41.832031 78.046875 41.09375 80.832031 C 39.902344 85.332031 37.242188 89.035156 34.03125 91.699219 C 31.339844 93.925781 28.113281 95.414062 24.96875 95.863281 C 21.871094 96.300781 18.785156 95.671875 16.671875 93.640625 C 13.617188 90.703125 11.414062 85.539062 9.375 80.628906 C 7.789062 76.800781 7.101562 72.75 8.398438 68.75 C 9.859375 64.226562 13.03125 60.324219 15.835938 57.777344 C 17.746094 56.042969 19.496094 54.808594 21.132812 54.308594 C 22.714844 53.828125 24.234375 54.035156 25.535156 54.515625 C 26.816406 54.992188 27.910156 55.714844 28.832031 56.300781 "/>
</g>
</svg>
