<?xml version="1.0" encoding="UTF-8"?>
<svg xmlns="http://www.w3.org/2000/svg" xmlns:xlink="http://www.w3.org/1999/xlink" width="358.19497pt" height="274.4498pt" viewBox="0 0 358.19497 274.4498" version="1.2">
<g id="surface1">
<path style=" stroke:none;fill-rule:nonzero;fill:rgb(7.058716%,1.176453%,46.665955%);fill-opacity:1;" d="M 251.863281 102.523438 C 252.1875 102.523438 252.449219 102.785156 252.449219 103.113281 C 252.449219 103.4375 252.1875 103.699219 251.863281 103.699219 L 237.703125 103.699219 C 237.378906 103.699219 237.113281 103.4375 237.113281 103.113281 C 237.113281 102.785156 237.378906 102.523438 237.703125 102.523438 Z M 251.863281 102.523438 "/>
<path style=" stroke:none;fill-rule:nonzero;fill:rgb(7.058716%,1.176453%,46.665955%);fill-opacity:1;" d="M 237.113281 103.113281 C 237.113281 102.785156 237.378906 102.523438 237.703125 102.523438 C 238.027344 102.523438 238.289062 102.785156 238.289062 103.113281 L 238.289062 127.621094 C 238.289062 127.945312 238.027344 128.210938 237.703125 128.210938 C 237.378906 128.210938 237.113281 127.945312 237.113281 127.621094 Z M 237.113281 103.113281 "/>
<path style=" stroke:none;fill-rule:nonzero;fill:rgb(7.058716%,1.176453%,46.665955%);fill-opacity:1;" d="M 237.703125 128.210938 C 237.378906 128.210938 237.113281 127.945312 237.113281 127.621094 C 237.113281 127.296875 237.378906 127.035156 237.703125 127.035156 L 251.863281 127.035156 C 252.1875 127.035156 252.449219 127.296875 252.449219 127.621094 C 252.449219 127.945312 252.1875 128.210938 251.863281 128.210938 Z M 237.703125 128.210938 "/>
<path style=" stroke:none;fill-rule:nonzero;fill:rgb(7.058716%,1.176453%,46.665955%);fill-opacity:1;" d="M 251.273438 127.621094 C 251.273438 127.296875 251.539062 127.035156 251.863281 127.035156 C 252.1875 127.035156 252.449219 127.296875 252.449219 127.621094 L 252.449219 148.695312 C 252.449219 149.019531 252.1875 149.28125 251.863281 149.28125 C 251.539062 149.28125 251.273438 149.019531 251.273438 148.695312 Z M 251.273438 127.621094 "/>
<path style=" stroke:none;fill-rule:nonzero;fill:rgb(7.058716%,1.176453%,46.665955%);fill-opacity:1;" d="M 233.316406 104.082031 C 233.316406 103.648438 233.667969 103.300781 234.101562 103.300781 C 234.53125 103.300781 234.882812 103.648438 234.882812 104.082031 L 234.882812 126.648438 C 234.882812 127.082031 234.53125 127.433594 234.101562 127.433594 C 233.667969 127.433594 233.316406 127.082031 233.316406 126.648438 Z M 233.316406 104.082031 "/>
<path style=" stroke:none;fill-rule:nonzero;fill:rgb(7.058716%,1.176453%,46.665955%);fill-opacity:1;" d="M 214.730469 115.953125 C 214.40625 115.953125 214.140625 115.691406 214.140625 115.367188 C 214.140625 115.042969 214.40625 114.777344 214.730469 114.777344 L 234.101562 114.777344 C 234.425781 114.777344 234.6875 115.042969 234.6875 115.367188 C 234.6875 115.691406 234.425781 115.953125 234.101562 115.953125 Z M 214.730469 115.953125 "/>
<path style=" stroke:none;fill-rule:nonzero;fill:rgb(7.058716%,1.176453%,46.665955%);fill-opacity:1;" d="M 251.273438 82.039062 C 251.273438 81.714844 251.539062 81.453125 251.863281 81.453125 C 252.1875 81.453125 252.449219 81.714844 252.449219 82.039062 L 252.449219 103.113281 C 252.449219 103.4375 252.1875 103.699219 251.863281 103.699219 C 251.539062 103.699219 251.273438 103.4375 251.273438 103.113281 Z M 251.273438 82.039062 "/>
<path style=" stroke:none;fill-rule:nonzero;fill:rgb(7.058716%,1.176453%,46.665955%);fill-opacity:1;" d="M 244.78125 106.765625 C 244.78125 107.089844 244.519531 107.351562 244.195312 107.351562 C 243.871094 107.351562 243.605469 107.089844 243.605469 106.765625 L 243.605469 99.457031 C 243.605469 99.132812 243.871094 98.871094 244.195312 98.871094 C 244.519531 98.871094 244.78125 99.132812 244.78125 99.457031 Z M 244.78125 106.765625 "/>
<path style=" stroke:none;fill-rule:nonzero;fill:rgb(7.058716%,1.176453%,46.665955%);fill-opacity:1;" d="M 244.546875 106.292969 C 244.804688 106.488281 244.859375 106.859375 244.664062 107.117188 C 244.46875 107.378906 244.101562 107.429688 243.839844 107.234375 L 238.960938 103.582031 C 238.703125 103.386719 238.648438 103.019531 238.84375 102.757812 C 239.039062 102.5 239.40625 102.445312 239.667969 102.640625 Z M 244.546875 106.292969 "/>
<path style=" stroke:none;fill-rule:nonzero;fill:rgb(7.058716%,1.176453%,46.665955%);fill-opacity:1;" d="M 243.097656 105.519531 C 242.78125 105.449219 242.582031 105.136719 242.652344 104.816406 C 242.722656 104.5 243.035156 104.300781 243.351562 104.371094 C 243.828125 104.476562 243.765625 104.648438 243.804688 104.699219 C 243.851562 104.757812 243.878906 104.808594 243.894531 104.835938 C 243.90625 104.859375 243.816406 104.742188 243.863281 104.796875 C 244.070312 105.050781 244.03125 105.421875 243.777344 105.625 C 243.527344 105.832031 243.15625 105.792969 242.953125 105.539062 C 242.828125 105.390625 242.914062 105.472656 242.878906 105.421875 C 242.851562 105.390625 242.851562 105.386719 242.84375 105.382812 C 242.839844 105.375 242.917969 105.445312 242.890625 105.421875 C 242.875 105.410156 242.992188 105.484375 242.960938 105.46875 C 242.925781 105.449219 243.160156 105.53125 243.097656 105.519531 M 243.953125 105.386719 C 243.828125 105.6875 243.484375 105.828125 243.183594 105.703125 C 242.882812 105.578125 242.742188 105.234375 242.867188 104.9375 C 242.871094 104.929688 242.867188 104.933594 242.875 104.917969 C 242.867188 104.9375 242.863281 104.945312 242.863281 104.945312 C 242.863281 104.945312 242.863281 104.96875 242.863281 104.957031 C 242.867188 104.894531 242.871094 104.839844 242.871094 104.789062 C 242.875 104.535156 242.871094 104.246094 242.871094 103.898438 C 242.867188 103.589844 242.871094 103.25 242.871094 102.902344 C 242.871094 102.671875 242.871094 102.445312 242.871094 102.246094 C 242.871094 102.097656 242.871094 101.972656 242.871094 101.859375 C 242.871094 101.714844 242.867188 101.609375 242.859375 101.539062 C 242.855469 101.519531 242.839844 101.46875 242.816406 101.382812 C 242.800781 101.328125 242.789062 101.285156 242.785156 101.269531 C 242.785156 101.265625 242.800781 101.308594 242.792969 101.289062 C 242.789062 101.277344 242.835938 101.367188 242.820312 101.34375 C 242.804688 101.316406 242.949219 101.496094 242.902344 101.453125 C 242.875 101.421875 243.152344 101.609375 243.058594 101.5625 C 242.769531 101.421875 242.644531 101.070312 242.785156 100.777344 C 242.929688 100.484375 243.28125 100.363281 243.570312 100.503906 C 243.664062 100.550781 243.710938 100.597656 243.742188 100.625 C 244.0625 100.949219 243.925781 100.988281 243.945312 101.050781 C 243.964844 101.117188 244.003906 101.230469 244.023438 101.382812 C 244.046875 101.558594 244.046875 101.707031 244.046875 101.851562 C 244.046875 101.972656 244.046875 102.101562 244.046875 102.246094 C 244.046875 102.445312 244.046875 102.671875 244.046875 102.902344 C 244.046875 103.253906 244.042969 103.59375 244.046875 103.890625 C 244.050781 104.238281 244.050781 104.535156 244.046875 104.808594 C 244.046875 104.894531 244.039062 104.964844 244.039062 105.019531 C 244.03125 105.128906 244.011719 105.21875 243.988281 105.285156 C 243.980469 105.316406 243.96875 105.34375 243.960938 105.367188 C 243.949219 105.402344 243.957031 105.378906 243.953125 105.386719 M 243.148438 100.46875 C 243.460938 100.378906 243.785156 100.5625 243.875 100.875 C 243.964844 101.1875 243.78125 101.511719 243.46875 101.601562 C 243.402344 101.617188 243.648438 101.515625 243.617188 101.535156 C 243.582031 101.554688 243.699219 101.472656 243.683594 101.484375 C 243.660156 101.511719 243.816406 101.316406 243.804688 101.335938 C 243.792969 101.359375 243.824219 101.296875 243.824219 101.300781 C 243.804688 101.347656 243.824219 101.308594 243.804688 101.386719 C 243.730469 101.683594 243.628906 102.027344 243.578125 102.457031 C 243.535156 102.824219 243.554688 103.308594 243.539062 103.816406 C 243.53125 104.078125 243.511719 104.332031 243.46875 104.566406 C 243.4375 104.738281 243.390625 104.878906 243.34375 104.984375 C 243.308594 105.0625 243.273438 105.136719 243.1875 105.226562 C 243.15625 105.265625 243.117188 105.300781 243.0625 105.339844 C 242.90625 105.425781 242.757812 105.464844 242.605469 105.4375 C 242.285156 105.378906 242.074219 105.074219 242.128906 104.753906 C 242.1875 104.433594 242.492188 104.222656 242.8125 104.277344 C 242.882812 104.292969 242.542969 104.292969 242.609375 104.28125 C 242.671875 104.269531 242.402344 104.363281 242.445312 104.339844 C 242.433594 104.34375 242.300781 104.453125 242.320312 104.4375 C 242.367188 104.382812 242.265625 104.515625 242.265625 104.511719 C 242.28125 104.476562 242.300781 104.417969 242.3125 104.359375 C 242.339844 104.210938 242.355469 104.003906 242.363281 103.777344 C 242.378906 103.324219 242.355469 102.816406 242.410156 102.324219 C 242.472656 101.785156 242.601562 101.359375 242.664062 101.101562 C 242.675781 101.058594 242.679688 100.988281 242.734375 100.855469 C 242.753906 100.808594 242.761719 100.746094 242.882812 100.625 C 242.957031 100.5625 243.015625 100.507812 243.148438 100.46875 M 243.210938 104.554688 C 243.375 104.835938 243.28125 105.195312 243 105.359375 C 242.71875 105.523438 242.359375 105.429688 242.195312 105.148438 C 242.148438 105.066406 242.128906 104.992188 242.121094 104.945312 C 242.105469 104.871094 242.109375 104.832031 242.109375 104.789062 C 242.109375 104.707031 242.117188 104.636719 242.128906 104.5625 C 242.136719 104.515625 242.125 104.660156 242.125 104.644531 C 242.125 104.628906 242.105469 104.589844 242.085938 104.445312 C 242.070312 104.332031 242.058594 104.222656 242.046875 104.097656 C 242.035156 103.949219 242.027344 103.785156 242.019531 103.597656 C 242.007812 103.292969 242.007812 102.957031 242 102.671875 C 241.996094 102.523438 241.988281 102.394531 241.984375 102.269531 C 241.980469 102.171875 241.980469 102.09375 241.980469 102.09375 C 241.976562 102.054688 241.976562 102.070312 241.976562 102.050781 C 241.976562 102.046875 241.984375 102.097656 241.980469 102.082031 C 241.976562 102.0625 242.042969 102.246094 242.015625 102.1875 C 241.882812 101.890625 242.019531 101.542969 242.316406 101.410156 C 242.613281 101.28125 242.960938 101.414062 243.089844 101.710938 C 243.144531 101.828125 243.136719 101.859375 243.140625 101.886719 C 243.148438 101.9375 243.148438 101.960938 243.148438 101.984375 C 243.160156 102.078125 243.15625 102.144531 243.160156 102.21875 C 243.164062 102.332031 243.171875 102.476562 243.175781 102.644531 C 243.183594 102.949219 243.183594 103.28125 243.195312 103.550781 C 243.203125 103.730469 243.207031 103.882812 243.21875 104 C 243.226562 104.109375 243.238281 104.195312 243.25 104.285156 C 243.25 104.296875 243.339844 104.417969 243.289062 104.742188 C 243.285156 104.773438 243.285156 104.792969 243.285156 104.800781 C 243.285156 104.804688 243.257812 104.644531 243.273438 104.714844 C 243.285156 104.769531 243.175781 104.492188 243.214844 104.5625 C 243.214844 104.5625 243.210938 104.554688 243.210938 104.554688 M 242.546875 101.355469 C 242.871094 101.355469 243.132812 101.617188 243.132812 101.945312 C 243.132812 102.269531 242.871094 102.53125 242.546875 102.53125 C 242.457031 102.53125 242.835938 102.457031 242.777344 102.484375 C 242.691406 102.519531 242.972656 102.34375 242.941406 102.375 C 242.914062 102.402344 243.011719 102.296875 243 102.308594 C 242.921875 102.398438 243.042969 102.242188 243.035156 102.257812 C 243.027344 102.273438 243.046875 102.238281 243.046875 102.238281 C 243.03125 102.265625 243.050781 102.226562 243.042969 102.253906 C 243.019531 102.3125 242.992188 102.410156 242.949219 102.523438 C 242.855469 102.769531 242.738281 103.011719 242.640625 103.242188 C 242.515625 103.539062 242.414062 103.820312 242.375 104.03125 C 242.363281 104.097656 242.359375 104.175781 242.359375 104.292969 C 242.359375 104.386719 242.359375 104.472656 242.359375 104.546875 C 242.359375 104.679688 242.359375 104.789062 242.359375 104.832031 C 242.359375 104.835938 242.359375 104.839844 242.359375 104.84375 C 242.355469 105.167969 242.085938 105.429688 241.761719 105.421875 C 241.4375 105.417969 241.179688 105.148438 241.183594 104.824219 C 241.183594 104.820312 241.183594 104.832031 241.183594 104.832031 C 241.183594 104.769531 241.183594 104.675781 241.183594 104.566406 C 241.183594 104.472656 241.183594 104.378906 241.183594 104.285156 C 241.183594 104.167969 241.183594 104.003906 241.21875 103.804688 C 241.289062 103.464844 241.414062 103.125 241.554688 102.785156 C 241.667969 102.523438 241.785156 102.28125 241.847656 102.105469 C 241.875 102.039062 241.898438 101.957031 241.929688 101.871094 C 241.941406 101.832031 241.957031 101.785156 241.992188 101.71875 C 242 101.695312 242.003906 101.660156 242.097656 101.558594 C 242.105469 101.542969 242.191406 101.355469 242.546875 101.355469 M 242.355469 104.785156 C 242.382812 105.109375 242.144531 105.390625 241.820312 105.421875 C 241.496094 105.449219 241.210938 105.207031 241.183594 104.886719 C 241.183594 104.863281 241.183594 104.859375 241.183594 104.851562 C 241.179688 104.820312 241.179688 104.785156 241.179688 104.742188 C 241.179688 104.648438 241.179688 104.523438 241.183594 104.378906 C 241.203125 103.933594 241.28125 103.453125 241.335938 103.0625 C 241.351562 102.9375 241.367188 102.824219 241.375 102.730469 C 241.382812 102.640625 241.398438 102.710938 241.386719 102.65625 C 241.375 102.582031 241.378906 102.5625 241.378906 102.550781 C 241.375 102.539062 241.414062 102.691406 241.398438 102.640625 C 241.378906 102.582031 241.621094 102.941406 241.539062 102.863281 C 241.46875 102.792969 241.8125 103 241.746094 102.980469 C 241.683594 102.964844 241.941406 102.996094 241.902344 103 C 241.828125 103.003906 242.097656 102.929688 242.0625 102.953125 C 242.003906 102.984375 242.210938 102.820312 242.183594 102.847656 C 242.152344 102.886719 242.226562 102.792969 242.222656 102.796875 C 242.222656 102.800781 242.210938 102.824219 242.183594 102.863281 C 242.089844 103.019531 241.976562 103.222656 241.910156 103.40625 C 241.859375 103.539062 241.8125 103.648438 241.78125 103.738281 C 241.738281 103.859375 241.710938 103.976562 241.652344 104.117188 C 241.648438 104.128906 241.695312 104.097656 241.574219 104.308594 C 241.410156 104.589844 241.050781 104.683594 240.769531 104.523438 C 240.488281 104.359375 240.394531 104 240.554688 103.71875 C 240.585938 103.664062 240.515625 103.8125 240.515625 103.804688 C 240.519531 103.792969 240.53125 103.75 240.566406 103.664062 C 240.570312 103.652344 240.617188 103.503906 240.675781 103.339844 C 240.722656 103.210938 240.769531 103.101562 240.804688 103 C 240.917969 102.695312 241.066406 102.4375 241.183594 102.246094 C 241.191406 102.230469 241.171875 102.109375 241.464844 101.9375 C 241.570312 101.875 241.6875 101.832031 241.824219 101.824219 C 241.972656 101.816406 242.179688 101.847656 242.351562 102.011719 C 242.53125 102.183594 242.539062 102.355469 242.546875 102.421875 C 242.550781 102.480469 242.546875 102.457031 242.550781 102.472656 C 242.578125 102.648438 242.554688 102.753906 242.546875 102.84375 C 242.535156 102.964844 242.515625 103.089844 242.5 103.222656 C 242.445312 103.625 242.371094 104.085938 242.359375 104.425781 C 242.355469 104.542969 242.355469 104.648438 242.355469 104.722656 C 242.355469 104.757812 242.355469 104.78125 242.355469 104.792969 C 242.355469 104.792969 242.355469 104.769531 242.355469 104.785156 M 241.628906 103.847656 C 241.714844 104.160156 241.535156 104.484375 241.222656 104.574219 C 240.910156 104.664062 240.585938 104.484375 240.496094 104.171875 C 240.484375 104.128906 240.480469 104.09375 240.476562 104.0625 C 240.46875 104.007812 240.464844 103.945312 240.46875 103.878906 C 240.46875 103.878906 240.464844 103.796875 240.46875 103.691406 C 240.472656 103.59375 240.46875 103.480469 240.46875 103.355469 C 240.46875 103.3125 240.46875 103.269531 240.46875 103.226562 C 240.46875 103.117188 240.476562 103.109375 240.472656 103.074219 C 240.464844 103.003906 240.464844 102.953125 240.464844 102.9375 C 240.464844 102.933594 240.472656 103 240.46875 102.96875 C 240.464844 102.953125 240.492188 103.078125 240.484375 103.046875 C 240.472656 103.007812 240.585938 103.253906 240.546875 103.191406 C 240.375 102.917969 240.460938 102.554688 240.738281 102.382812 C 241.011719 102.214844 241.375 102.296875 241.546875 102.574219 C 241.8125 103.003906 241.640625 102.933594 241.640625 102.953125 C 241.65625 103.089844 241.644531 103.160156 241.644531 103.226562 C 241.644531 103.269531 241.644531 103.3125 241.644531 103.359375 C 241.644531 103.464844 241.648438 103.585938 241.644531 103.71875 C 241.644531 103.769531 241.648438 103.832031 241.644531 103.941406 C 241.644531 103.945312 241.636719 103.882812 241.640625 103.910156 C 241.644531 103.933594 241.617188 103.816406 241.628906 103.847656 M 240.585938 102.519531 C 240.789062 102.265625 241.15625 102.226562 241.410156 102.429688 C 241.664062 102.632812 241.703125 103.003906 241.5 103.253906 C 241.488281 103.273438 241.480469 103.28125 241.476562 103.285156 C 241.476562 103.289062 241.472656 103.292969 241.457031 103.308594 C 241.4375 103.335938 241.414062 103.367188 241.410156 103.375 C 241.339844 103.488281 241.328125 103.480469 241.300781 103.539062 C 241.285156 103.574219 241.273438 103.59375 241.269531 103.601562 C 241.269531 103.601562 241.285156 103.570312 241.277344 103.585938 C 241.269531 103.601562 241.320312 103.402344 241.308594 103.46875 C 241.257812 103.789062 240.957031 104.007812 240.636719 103.957031 C 240.316406 103.902344 240.097656 103.601562 240.148438 103.28125 C 240.191406 103.023438 240.226562 103.0625 240.226562 103.058594 C 240.304688 102.886719 240.367188 102.824219 240.410156 102.753906 C 240.457031 102.679688 240.5 102.621094 240.539062 102.578125 C 240.550781 102.558594 240.566406 102.542969 240.585938 102.515625 C 240.59375 102.511719 240.574219 102.53125 240.585938 102.519531 M 241.074219 103.851562 C 240.808594 104.035156 240.441406 103.972656 240.253906 103.703125 C 240.070312 103.4375 240.136719 103.070312 240.402344 102.886719 C 240.40625 102.882812 240.414062 102.878906 240.421875 102.875 C 240.40625 102.878906 240.425781 102.867188 240.445312 102.855469 C 240.429688 102.867188 240.4375 102.863281 240.4375 102.859375 C 240.496094 102.804688 240.542969 102.765625 240.617188 102.71875 C 240.644531 102.699219 240.699219 102.675781 240.726562 102.667969 C 240.878906 102.621094 241.019531 102.558594 241.265625 102.707031 C 241.542969 102.875 241.632812 103.238281 241.464844 103.515625 C 241.296875 103.792969 240.9375 103.882812 240.65625 103.714844 C 240.59375 103.675781 240.882812 103.796875 240.832031 103.785156 C 240.757812 103.769531 241.042969 103.792969 241 103.796875 C 240.960938 103.800781 241.121094 103.773438 241.097656 103.78125 C 241.15625 103.761719 241.289062 103.683594 241.25 103.710938 C 241.183594 103.75 241.253906 103.703125 241.253906 103.707031 C 241.199219 103.757812 241.148438 103.796875 241.117188 103.820312 C 241.082031 103.84375 241.136719 103.804688 241.109375 103.824219 C 241.054688 103.863281 241.078125 103.847656 241.074219 103.851562 "/>
<path style=" stroke:none;fill-rule:nonzero;fill:rgb(7.058716%,1.176453%,46.665955%);fill-opacity:1;" d="M 243.839844 98.988281 C 244.101562 98.792969 244.46875 98.84375 244.664062 99.105469 C 244.859375 99.367188 244.804688 99.734375 244.546875 99.929688 L 239.667969 103.582031 C 239.40625 103.777344 239.039062 103.722656 238.84375 103.464844 C 238.648438 103.203125 238.703125 102.835938 238.960938 102.640625 Z M 243.839844 98.988281 "/>
<path style=" stroke:none;fill-rule:nonzero;fill:rgb(7.058716%,1.176453%,46.665955%);fill-opacity:1;" d="M 131.160156 84.816406 L 131.160156 145.914062 L 189.152344 115.257812 Z M 130.84375 83.324219 L 190.6875 114.734375 C 191.105469 114.953125 191.105469 115.554688 190.6875 115.773438 L 130.847656 147.410156 C 130.457031 147.617188 129.984375 147.332031 129.984375 146.890625 L 129.984375 83.84375 C 129.984375 83.402344 130.453125 83.117188 130.84375 83.324219 "/>
<path style=" stroke:none;fill-rule:nonzero;fill:rgb(7.058716%,1.176453%,46.665955%);fill-opacity:1;" d="M 139.355469 125.898438 C 139.355469 125.570312 139.617188 125.308594 139.941406 125.308594 C 140.265625 125.308594 140.53125 125.570312 140.53125 125.898438 L 140.53125 135.636719 C 140.53125 135.960938 140.265625 136.226562 139.941406 136.226562 C 139.617188 136.226562 139.355469 135.960938 139.355469 135.636719 Z M 139.355469 125.898438 "/>
<path style=" stroke:none;fill-rule:nonzero;fill:rgb(7.058716%,1.176453%,46.665955%);fill-opacity:1;" d="M 135.03125 131.355469 C 134.707031 131.355469 134.441406 131.09375 134.441406 130.765625 C 134.441406 130.441406 134.707031 130.179688 135.03125 130.179688 L 144.855469 130.179688 C 145.179688 130.179688 145.441406 130.441406 145.441406 130.765625 C 145.441406 131.09375 145.179688 131.355469 144.855469 131.355469 Z M 135.03125 131.355469 "/>
<path style=" stroke:none;fill-rule:nonzero;fill:rgb(7.058716%,1.176453%,46.665955%);fill-opacity:1;" d="M 135.03125 100.007812 C 134.707031 100.007812 134.441406 99.746094 134.441406 99.421875 C 134.441406 99.097656 134.707031 98.832031 135.03125 98.832031 L 144.855469 98.832031 C 145.179688 98.832031 145.441406 99.097656 145.441406 99.421875 C 145.441406 99.746094 145.179688 100.007812 144.855469 100.007812 Z M 135.03125 100.007812 "/>
<path style=" stroke:none;fill-rule:nonzero;fill:rgb(7.058716%,1.176453%,46.665955%);fill-opacity:1;" d="M 130.847656 98.960938 C 131.171875 98.960938 131.433594 99.222656 131.433594 99.546875 C 131.433594 99.871094 131.171875 100.136719 130.847656 100.136719 L 99.429688 100.136719 C 99.105469 100.136719 98.839844 99.871094 98.839844 99.546875 C 98.839844 99.222656 99.105469 98.960938 99.429688 98.960938 Z M 130.847656 98.960938 "/>
<path style=" stroke:none;fill-rule:nonzero;fill:rgb(7.058716%,1.176453%,46.665955%);fill-opacity:1;" d="M 130.847656 130.371094 C 131.171875 130.371094 131.433594 130.632812 131.433594 130.960938 C 131.433594 131.285156 131.171875 131.546875 130.847656 131.546875 L 99.429688 131.546875 C 99.105469 131.546875 98.839844 131.285156 98.839844 130.960938 C 98.839844 130.632812 99.105469 130.371094 99.429688 130.371094 Z M 130.847656 130.371094 "/>
<path style=" stroke:none;fill-rule:nonzero;fill:rgb(7.058716%,1.176453%,46.665955%);fill-opacity:1;" d="M 190.414062 115.84375 C 190.089844 115.84375 189.824219 115.578125 189.824219 115.253906 C 189.824219 114.929688 190.089844 114.667969 190.414062 114.667969 L 221.828125 114.667969 C 222.152344 114.667969 222.417969 114.929688 222.417969 115.253906 C 222.417969 115.578125 222.152344 115.84375 221.828125 115.84375 Z M 190.414062 115.84375 "/>
<path style=" stroke:none;fill-rule:nonzero;fill:rgb(7.058716%,1.176453%,46.665955%);fill-opacity:1;" d="M 98.839844 130.960938 C 98.839844 130.632812 99.105469 130.371094 99.429688 130.371094 C 99.753906 130.371094 100.015625 130.632812 100.015625 130.960938 L 100.015625 162.996094 C 100.015625 163.320312 99.753906 163.582031 99.429688 163.582031 C 99.105469 163.582031 98.839844 163.320312 98.839844 162.996094 Z M 98.839844 130.960938 "/>
<path style=" stroke:none;fill-rule:nonzero;fill:rgb(7.058716%,1.176453%,46.665955%);fill-opacity:1;" d="M 251.867188 162.40625 C 252.191406 162.40625 252.453125 162.671875 252.453125 162.996094 C 252.453125 163.320312 252.191406 163.582031 251.867188 163.582031 L 99.425781 163.582031 C 99.101562 163.582031 98.839844 163.320312 98.839844 162.996094 C 98.839844 162.671875 99.101562 162.40625 99.425781 162.40625 Z M 251.867188 162.40625 "/>
<path style=" stroke:none;fill-rule:nonzero;fill:rgb(7.058716%,1.176453%,46.665955%);fill-opacity:1;" d="M 251.867188 163.582031 C 251.542969 163.582031 251.277344 163.320312 251.277344 162.996094 C 251.277344 162.671875 251.542969 162.40625 251.867188 162.40625 L 286.664062 162.40625 C 286.988281 162.40625 287.25 162.671875 287.25 162.996094 C 287.25 163.320312 286.988281 163.582031 286.664062 163.582031 Z M 251.867188 163.582031 "/>
<path style=" stroke:none;fill-rule:nonzero;fill:rgb(7.058716%,1.176453%,46.665955%);fill-opacity:1;" d="M 251.273438 148.246094 C 251.273438 147.917969 251.539062 147.65625 251.863281 147.65625 C 252.1875 147.65625 252.449219 147.917969 252.449219 148.246094 L 252.449219 162.996094 C 252.449219 163.320312 252.1875 163.582031 251.863281 163.582031 C 251.539062 163.582031 251.273438 163.320312 251.273438 162.996094 Z M 251.273438 148.246094 "/>
<path style=" stroke:none;fill-rule:nonzero;fill:rgb(7.058716%,1.176453%,46.665955%);fill-opacity:1;" d="M 248.21875 83.375 C 248.503906 83.21875 248.859375 83.324219 249.015625 83.609375 C 249.171875 83.894531 249.066406 84.253906 248.78125 84.410156 C 248.667969 84.46875 248.578125 84.515625 248.507812 84.550781 C 248.4375 84.582031 248.382812 84.609375 248.359375 84.621094 C 248.347656 84.625 248.382812 84.605469 248.363281 84.617188 C 248.351562 84.621094 248.441406 84.554688 248.417969 84.578125 C 248.390625 84.601562 248.574219 84.375 248.53125 84.445312 C 248.359375 84.722656 248 84.808594 247.722656 84.640625 C 247.445312 84.46875 247.359375 84.109375 247.527344 83.832031 C 247.683594 83.574219 247.78125 83.601562 247.824219 83.582031 C 247.921875 83.539062 247.9375 83.539062 247.957031 83.527344 C 247.972656 83.519531 248.085938 83.421875 248.238281 83.300781 C 248.5 83.089844 248.824219 82.835938 249.21875 82.511719 C 249.558594 82.230469 249.957031 81.878906 250.449219 81.488281 C 250.753906 81.246094 251.082031 80.996094 251.417969 80.75 C 251.746094 80.507812 252.074219 80.273438 252.402344 80.050781 C 252.53125 79.957031 252.660156 79.875 252.777344 79.796875 C 253.078125 79.597656 253.359375 79.410156 253.621094 79.230469 C 253.960938 79 254.261719 78.773438 254.53125 78.5625 C 254.714844 78.421875 254.875 78.289062 255.027344 78.160156 C 255.398438 77.839844 255.722656 77.535156 256.015625 77.273438 C 256.183594 77.128906 256.335938 77.007812 256.464844 76.90625 C 256.605469 76.800781 256.734375 76.714844 256.847656 76.652344 C 256.875 76.636719 256.925781 76.59375 257.054688 76.539062 C 257.246094 76.460938 257.394531 76.429688 257.429688 76.414062 C 257.433594 76.414062 257.394531 76.4375 257.410156 76.425781 C 257.429688 76.414062 257.292969 76.546875 257.324219 76.503906 C 257.363281 76.457031 257.222656 76.75 257.238281 76.679688 C 257.253906 76.613281 257.238281 76.890625 257.234375 76.847656 C 257.175781 76.53125 257.386719 76.222656 257.707031 76.164062 C 258.023438 76.105469 258.332031 76.320312 258.390625 76.636719 C 258.425781 76.832031 258.367188 77.089844 258.234375 77.25 C 258.113281 77.398438 257.980469 77.460938 257.878906 77.5 C 257.695312 77.578125 257.566406 77.601562 257.5 77.628906 C 257.460938 77.644531 257.511719 77.628906 257.425781 77.675781 C 257.363281 77.710938 257.277344 77.765625 257.179688 77.839844 C 257.0625 77.929688 256.933594 78.03125 256.792969 78.15625 C 256.523438 78.394531 256.191406 78.710938 255.789062 79.054688 C 255.628906 79.195312 255.449219 79.339844 255.253906 79.492188 C 254.972656 79.707031 254.652344 79.953125 254.28125 80.207031 C 254.011719 80.386719 253.730469 80.574219 253.429688 80.777344 C 253.304688 80.859375 253.183594 80.9375 253.070312 81.015625 C 252.753906 81.238281 252.429688 81.464844 252.113281 81.699219 C 251.789062 81.9375 251.472656 82.179688 251.179688 82.410156 C 250.714844 82.78125 250.324219 83.125 249.964844 83.417969 C 249.5625 83.75 249.230469 84.011719 248.972656 84.21875 C 248.851562 84.316406 248.742188 84.429688 248.554688 84.539062 C 248.453125 84.597656 248.363281 84.632812 248.308594 84.652344 C 248.285156 84.664062 248.292969 84.660156 248.28125 84.664062 C 248.273438 84.667969 248.375 84.613281 248.339844 84.632812 C 248.320312 84.644531 248.445312 84.554688 248.414062 84.582031 C 248.382812 84.609375 248.574219 84.375 248.53125 84.445312 L 247.527344 83.832031 C 247.699219 83.546875 247.792969 83.585938 247.851562 83.558594 C 247.90625 83.53125 247.949219 83.515625 247.984375 83.496094 C 248.050781 83.464844 248.125 83.425781 248.21875 83.375 "/>
<path style=" stroke:none;fill-rule:nonzero;fill:rgb(92.941284%,21.176147%,14.117432%);fill-opacity:1;" d="M 265.953125 153.015625 C 266.050781 153.324219 265.875 153.65625 265.5625 153.75 C 265.253906 153.84375 264.925781 153.671875 264.828125 153.359375 C 264.808594 153.296875 264.898438 153.476562 264.878906 153.457031 C 264.859375 153.433594 265.09375 153.5625 265.015625 153.539062 C 264.933594 153.511719 265.296875 153.542969 265.238281 153.554688 C 265.183594 153.5625 265.367188 153.507812 265.347656 153.519531 C 265.316406 153.535156 265.363281 153.507812 265.335938 153.535156 C 265.285156 153.582031 265.1875 153.707031 265.066406 153.90625 C 264.914062 154.152344 264.746094 154.421875 264.605469 154.753906 C 264.449219 155.121094 264.308594 155.570312 264.214844 156.089844 C 264.132812 156.550781 264.109375 157.003906 264.144531 157.347656 C 264.164062 157.574219 264.238281 157.675781 264.28125 157.71875 C 264.292969 157.726562 264.363281 157.757812 264.546875 157.71875 C 264.738281 157.679688 264.960938 157.585938 265.175781 157.425781 C 265.410156 157.257812 265.636719 157.027344 265.832031 156.773438 C 266.050781 156.480469 266.207031 156.167969 266.289062 155.839844 C 266.324219 155.683594 266.34375 155.511719 266.339844 155.328125 C 266.335938 155.097656 266.285156 154.832031 266.195312 154.558594 C 266.105469 154.28125 265.976562 154.011719 265.835938 153.789062 C 265.652344 153.496094 265.449219 153.359375 265.347656 153.332031 C 265.265625 153.3125 265.265625 153.300781 265.195312 153.394531 C 265 153.652344 264.628906 153.703125 264.371094 153.503906 C 264.113281 153.308594 264.0625 152.9375 264.261719 152.679688 C 264.582031 152.261719 265.15625 152.066406 265.648438 152.195312 C 266.132812 152.324219 266.53125 152.683594 266.832031 153.164062 C 267.023438 153.46875 267.191406 153.820312 267.3125 154.195312 C 267.429688 154.550781 267.511719 154.925781 267.515625 155.3125 C 267.519531 155.585938 267.492188 155.855469 267.429688 156.117188 C 267.308594 156.621094 267.070312 157.078125 266.769531 157.476562 C 266.511719 157.820312 266.210938 158.128906 265.867188 158.378906 C 265.527344 158.625 265.160156 158.792969 264.785156 158.871094 C 264.394531 158.953125 263.882812 158.941406 263.496094 158.59375 C 263.207031 158.332031 263.015625 157.929688 262.972656 157.460938 C 262.929688 156.984375 262.957031 156.441406 263.058594 155.882812 C 263.167969 155.273438 263.332031 154.742188 263.523438 154.296875 C 263.703125 153.867188 263.910156 153.535156 264.0625 153.292969 C 264.214844 153.039062 264.359375 152.839844 264.523438 152.683594 C 264.597656 152.613281 264.679688 152.539062 264.800781 152.476562 C 264.929688 152.410156 265.132812 152.34375 265.367188 152.417969 C 265.722656 152.53125 265.871094 152.746094 265.953125 153.015625 "/>
<path style=" stroke:none;fill-rule:nonzero;fill:rgb(92.941284%,21.176147%,14.117432%);fill-opacity:1;" d="M 269.015625 157.484375 C 269.003906 157.160156 269.257812 156.890625 269.582031 156.878906 C 269.90625 156.867188 270.179688 157.121094 270.1875 157.445312 C 270.195312 157.609375 270.179688 157.761719 270.160156 157.953125 C 270.105469 158.582031 270.054688 159.605469 270.070312 159.707031 C 270.117188 160.027344 269.894531 160.328125 269.574219 160.375 C 269.253906 160.421875 268.953125 160.199219 268.90625 159.878906 C 268.832031 159.363281 268.929688 158.507812 268.988281 157.851562 C 269.007812 157.660156 269.015625 157.523438 269.015625 157.484375 "/>
<path style=" stroke:none;fill-rule:nonzero;fill:rgb(92.941284%,21.176147%,14.117432%);fill-opacity:1;" d="M 273.054688 151.867188 C 273.132812 152.183594 272.941406 152.5 272.625 152.578125 C 272.308594 152.65625 271.992188 152.460938 271.914062 152.148438 C 271.898438 152.085938 271.882812 152.011719 271.890625 151.898438 C 271.898438 151.777344 271.960938 151.5625 272.160156 151.429688 C 272.378906 151.285156 272.585938 151.316406 272.695312 151.351562 C 272.792969 151.378906 272.851562 151.417969 272.902344 151.453125 C 273.066406 151.566406 273.136719 151.667969 273.21875 151.765625 C 273.476562 152.078125 273.789062 152.550781 274.128906 153.136719 C 274.273438 153.386719 274.429688 153.65625 274.578125 153.9375 C 274.726562 154.21875 274.863281 154.5 274.984375 154.773438 C 275.105469 155.042969 275.203125 155.296875 275.285156 155.535156 C 275.394531 155.863281 275.453125 156.160156 275.492188 156.402344 C 275.535156 156.667969 275.578125 156.90625 275.550781 157.175781 C 275.523438 157.425781 275.402344 157.753906 275.144531 157.953125 C 274.863281 158.175781 274.558594 158.242188 274.277344 158.269531 C 273.992188 158.296875 273.617188 158.253906 273.324219 157.988281 C 272.972656 157.675781 272.925781 157.28125 272.910156 156.933594 C 272.902344 156.730469 272.90625 156.5 272.957031 156.253906 C 273.039062 155.835938 273.25 155.484375 273.46875 155.148438 C 273.707031 154.789062 273.996094 154.453125 274.304688 154.070312 C 274.511719 153.8125 274.726562 153.535156 274.925781 153.261719 C 275.1875 152.902344 275.417969 152.550781 275.554688 152.273438 C 275.671875 152.039062 275.65625 151.9375 275.628906 151.863281 C 275.605469 151.800781 275.535156 151.707031 275.40625 151.609375 C 275.234375 151.480469 275.027344 151.375 274.796875 151.316406 C 274.664062 151.285156 274.503906 151.269531 274.328125 151.265625 C 274.085938 151.261719 273.863281 151.28125 273.691406 151.328125 C 273.53125 151.375 273.351562 151.511719 273.214844 151.640625 C 273.144531 151.710938 273.164062 151.691406 273.15625 151.722656 C 273.097656 152.042969 272.789062 152.25 272.46875 152.191406 C 272.148438 152.128906 271.941406 151.820312 272 151.503906 C 272.046875 151.257812 272.195312 150.992188 272.398438 150.796875 C 272.597656 150.601562 272.914062 150.328125 273.375 150.199219 C 273.703125 150.105469 274.03125 150.085938 274.34375 150.089844 C 274.582031 150.09375 274.828125 150.113281 275.082031 150.175781 C 275.480469 150.277344 275.828125 150.457031 276.113281 150.671875 C 276.363281 150.859375 276.601562 151.109375 276.730469 151.449219 C 276.878906 151.847656 276.832031 152.339844 276.609375 152.792969 C 276.421875 153.171875 276.160156 153.5625 275.875 153.953125 C 275.664062 154.246094 275.4375 154.535156 275.222656 154.804688 C 274.902344 155.203125 274.628906 155.523438 274.453125 155.792969 C 274.261719 156.082031 274.144531 156.316406 274.109375 156.484375 C 274.085938 156.609375 274.078125 156.742188 274.085938 156.878906 C 274.089844 156.976562 274.105469 157.058594 274.121094 157.105469 C 274.132812 157.148438 274.074219 157.085938 274.109375 157.113281 C 274.132812 157.136719 274.074219 157.105469 274.167969 157.097656 C 274.289062 157.085938 274.414062 157.035156 274.417969 157.027344 C 274.441406 157.011719 274.375 157.117188 274.378906 157.054688 C 274.386719 157.003906 274.371094 156.835938 274.332031 156.585938 C 274.296875 156.382812 274.253906 156.15625 274.171875 155.914062 C 274.101562 155.707031 274.015625 155.488281 273.914062 155.257812 C 273.800781 155.003906 273.671875 154.742188 273.535156 154.484375 C 273.402344 154.230469 273.253906 153.972656 273.109375 153.726562 C 272.792969 153.179688 272.496094 152.738281 272.308594 152.511719 C 272.246094 152.433594 272.292969 152.457031 272.238281 152.421875 C 272.222656 152.414062 272.425781 152.496094 272.351562 152.476562 C 272.3125 152.464844 272.601562 152.496094 272.527344 152.496094 C 272.445312 152.5 272.910156 152.34375 272.8125 152.40625 C 272.734375 152.460938 273.050781 152.089844 273.015625 152.167969 C 272.984375 152.242188 273.066406 151.945312 273.0625 151.988281 C 273.058594 152.070312 273.054688 151.855469 273.054688 151.867188 "/>
<path style=" stroke:none;fill-rule:nonzero;fill:rgb(92.941284%,21.176147%,14.117432%);fill-opacity:1;" d="M 278.972656 151.261719 C 278.738281 151.035156 278.738281 150.660156 278.964844 150.429688 C 279.191406 150.199219 279.566406 150.195312 279.796875 150.421875 C 279.855469 150.480469 279.949219 150.582031 280.058594 150.730469 C 280.269531 151.015625 280.511719 151.441406 280.761719 152.003906 C 280.871094 152.257812 280.980469 152.53125 281.082031 152.8125 C 281.191406 153.121094 281.28125 153.433594 281.359375 153.726562 C 281.542969 154.417969 281.628906 155.042969 281.703125 155.480469 C 281.753906 155.796875 281.808594 155.929688 281.835938 155.976562 C 281.855469 156.011719 281.871094 156.035156 281.871094 156.039062 C 281.875 156.039062 281.777344 155.957031 281.816406 155.984375 C 281.855469 156.011719 281.527344 155.957031 281.601562 155.941406 C 281.640625 155.933594 281.53125 155.964844 281.535156 155.964844 C 281.542969 155.960938 281.644531 155.875 281.761719 155.71875 C 281.96875 155.449219 282.203125 155.027344 282.410156 154.445312 C 282.585938 153.945312 282.710938 153.269531 282.859375 152.519531 C 282.925781 152.191406 282.984375 151.839844 283.050781 151.492188 C 283.144531 151.007812 283.246094 150.558594 283.367188 150.1875 C 283.523438 149.707031 283.683594 149.339844 283.804688 149.085938 C 283.867188 148.953125 283.917969 148.859375 283.941406 148.804688 C 283.964844 148.757812 283.9375 148.882812 283.945312 148.824219 C 283.988281 148.5 284.285156 148.273438 284.605469 148.316406 C 284.925781 148.359375 285.152344 148.65625 285.113281 148.976562 C 285.074219 149.257812 284.976562 149.359375 284.867188 149.59375 C 284.761719 149.816406 284.621094 150.132812 284.484375 150.554688 C 284.390625 150.839844 284.296875 151.253906 284.207031 151.714844 C 284.140625 152.042969 284.085938 152.394531 284.011719 152.753906 C 283.863281 153.492188 283.742188 154.203125 283.519531 154.832031 C 283.277344 155.519531 282.988281 156.046875 282.699219 156.429688 C 282.472656 156.730469 282.257812 157.019531 281.8125 157.097656 C 281.570312 157.144531 281.3125 157.066406 281.144531 156.949219 C 280.945312 156.8125 280.871094 156.660156 280.8125 156.558594 C 280.691406 156.34375 280.609375 156.066406 280.542969 155.675781 C 280.464844 155.21875 280.382812 154.640625 280.222656 154.027344 C 280.148438 153.75 280.066406 153.46875 279.976562 153.210938 C 279.882812 152.953125 279.785156 152.703125 279.683594 152.480469 C 279.464844 151.976562 279.25 151.613281 279.113281 151.429688 C 279.039062 151.332031 278.992188 151.28125 278.972656 151.261719 "/>
<path style=" stroke:none;fill-rule:nonzero;fill:rgb(7.058716%,1.176453%,46.665955%);fill-opacity:1;" d="M 65.085938 31.535156 C 65.085938 31.210938 65.347656 30.949219 65.671875 30.949219 C 65.996094 30.949219 66.261719 31.210938 66.261719 31.535156 L 66.261719 47.066406 C 66.261719 47.390625 65.996094 47.652344 65.671875 47.652344 C 65.347656 47.652344 65.085938 47.390625 65.085938 47.066406 Z M 65.085938 31.535156 "/>
<path style=" stroke:none;fill-rule:nonzero;fill:rgb(7.058716%,1.176453%,46.665955%);fill-opacity:1;" d="M 65.085938 82.273438 C 65.085938 81.949219 65.347656 81.683594 65.671875 81.683594 C 65.996094 81.683594 66.261719 81.949219 66.261719 82.273438 L 66.261719 98.757812 C 66.261719 99.082031 65.996094 99.347656 65.671875 99.347656 C 65.347656 99.347656 65.085938 99.082031 65.085938 98.757812 Z M 65.085938 82.273438 "/>
<path style=" stroke:none;fill-rule:nonzero;fill:rgb(7.058716%,1.176453%,46.665955%);fill-opacity:1;" d="M 65.519531 46.59375 C 65.78125 46.398438 66.152344 46.457031 66.34375 46.71875 C 66.535156 46.980469 66.480469 47.347656 66.21875 47.539062 L 60.925781 51.441406 C 60.664062 51.632812 60.296875 51.578125 60.101562 51.316406 C 59.910156 51.054688 59.964844 50.6875 60.226562 50.496094 Z M 65.519531 46.59375 "/>
<path style=" stroke:none;fill-rule:nonzero;fill:rgb(7.058716%,1.176453%,46.665955%);fill-opacity:1;" d="M 60.273438 51.472656 C 59.996094 51.304688 59.90625 50.941406 60.074219 50.664062 C 60.242188 50.386719 60.601562 50.296875 60.878906 50.464844 L 71.070312 56.605469 C 71.351562 56.773438 71.4375 57.136719 71.273438 57.414062 C 71.105469 57.691406 70.742188 57.78125 70.464844 57.613281 Z M 60.273438 51.472656 "/>
<path style=" stroke:none;fill-rule:nonzero;fill:rgb(7.058716%,1.176453%,46.665955%);fill-opacity:1;" d="M 70.417969 56.636719 C 70.679688 56.445312 71.046875 56.5 71.242188 56.761719 C 71.433594 57.023438 71.378906 57.390625 71.117188 57.582031 L 60.925781 65.097656 C 60.664062 65.289062 60.296875 65.234375 60.101562 64.972656 C 59.910156 64.710938 59.964844 64.34375 60.226562 64.148438 Z M 70.417969 56.636719 "/>
<path style=" stroke:none;fill-rule:nonzero;fill:rgb(7.058716%,1.176453%,46.665955%);fill-opacity:1;" d="M 60.273438 65.125 C 59.996094 64.957031 59.90625 64.597656 60.074219 64.320312 C 60.242188 64.039062 60.601562 63.953125 60.878906 64.117188 L 71.070312 70.261719 C 71.351562 70.425781 71.4375 70.789062 71.273438 71.066406 C 71.105469 71.34375 70.742188 71.433594 70.464844 71.265625 Z M 60.273438 65.125 "/>
<path style=" stroke:none;fill-rule:nonzero;fill:rgb(7.058716%,1.176453%,46.665955%);fill-opacity:1;" d="M 70.417969 70.289062 C 70.679688 70.097656 71.046875 70.152344 71.242188 70.414062 C 71.433594 70.675781 71.378906 71.042969 71.117188 71.238281 L 60.925781 78.75 C 60.664062 78.941406 60.296875 78.886719 60.101562 78.625 C 59.910156 78.363281 59.964844 77.996094 60.226562 77.804688 Z M 70.417969 70.289062 "/>
<path style=" stroke:none;fill-rule:nonzero;fill:rgb(7.058716%,1.176453%,46.665955%);fill-opacity:1;" d="M 60.214844 78.738281 C 59.957031 78.539062 59.914062 78.167969 60.113281 77.914062 C 60.3125 77.65625 60.683594 77.613281 60.941406 77.8125 L 66.035156 81.8125 C 66.289062 82.011719 66.335938 82.382812 66.136719 82.636719 C 65.933594 82.890625 65.566406 82.9375 65.308594 82.734375 Z M 60.214844 78.738281 "/>
<path style=" stroke:none;fill-rule:nonzero;fill:rgb(7.058716%,1.176453%,46.665955%);fill-opacity:1;" d="M 65.085938 99.933594 C 65.085938 99.609375 65.347656 99.347656 65.671875 99.347656 C 65.996094 99.347656 66.261719 99.609375 66.261719 99.933594 L 66.261719 115.464844 C 66.261719 115.789062 65.996094 116.050781 65.671875 116.050781 C 65.347656 116.050781 65.085938 115.789062 65.085938 115.464844 Z M 65.085938 99.933594 "/>
<path style=" stroke:none;fill-rule:nonzero;fill:rgb(7.058716%,1.176453%,46.665955%);fill-opacity:1;" d="M 65.085938 150.671875 C 65.085938 150.34375 65.347656 150.082031 65.671875 150.082031 C 65.996094 150.082031 66.261719 150.34375 66.261719 150.671875 L 66.261719 167.15625 C 66.261719 167.480469 65.996094 167.742188 65.671875 167.742188 C 65.347656 167.742188 65.085938 167.480469 65.085938 167.15625 Z M 65.085938 150.671875 "/>
<path style=" stroke:none;fill-rule:nonzero;fill:rgb(7.058716%,1.176453%,46.665955%);fill-opacity:1;" d="M 65.519531 114.988281 C 65.78125 114.796875 66.152344 114.851562 66.34375 115.113281 C 66.535156 115.375 66.480469 115.742188 66.21875 115.9375 L 60.925781 119.839844 C 60.664062 120.03125 60.296875 119.976562 60.101562 119.714844 C 59.910156 119.453125 59.964844 119.085938 60.226562 118.890625 Z M 65.519531 114.988281 "/>
<path style=" stroke:none;fill-rule:nonzero;fill:rgb(7.058716%,1.176453%,46.665955%);fill-opacity:1;" d="M 60.273438 119.867188 C 59.996094 119.703125 59.90625 119.339844 60.074219 119.0625 C 60.242188 118.785156 60.601562 118.695312 60.878906 118.863281 L 71.070312 125.003906 C 71.351562 125.171875 71.4375 125.53125 71.273438 125.808594 C 71.105469 126.089844 70.742188 126.175781 70.464844 126.011719 Z M 60.273438 119.867188 "/>
<path style=" stroke:none;fill-rule:nonzero;fill:rgb(7.058716%,1.176453%,46.665955%);fill-opacity:1;" d="M 70.417969 125.03125 C 70.679688 124.839844 71.046875 124.894531 71.242188 125.15625 C 71.433594 125.417969 71.378906 125.785156 71.117188 125.980469 L 60.925781 133.492188 C 60.664062 133.683594 60.296875 133.628906 60.101562 133.367188 C 59.910156 133.105469 59.964844 132.738281 60.226562 132.546875 Z M 70.417969 125.03125 "/>
<path style=" stroke:none;fill-rule:nonzero;fill:rgb(7.058716%,1.176453%,46.665955%);fill-opacity:1;" d="M 60.273438 133.523438 C 59.996094 133.355469 59.90625 132.992188 60.074219 132.714844 C 60.242188 132.4375 60.601562 132.347656 60.878906 132.515625 L 71.070312 138.65625 C 71.351562 138.824219 71.4375 139.1875 71.273438 139.464844 C 71.105469 139.742188 70.742188 139.832031 70.464844 139.664062 Z M 60.273438 133.523438 "/>
<path style=" stroke:none;fill-rule:nonzero;fill:rgb(7.058716%,1.176453%,46.665955%);fill-opacity:1;" d="M 70.417969 138.6875 C 70.679688 138.496094 71.046875 138.550781 71.242188 138.8125 C 71.433594 139.074219 71.378906 139.441406 71.117188 139.632812 L 60.925781 147.144531 C 60.664062 147.339844 60.296875 147.285156 60.101562 147.023438 C 59.910156 146.761719 59.964844 146.394531 60.226562 146.199219 Z M 70.417969 138.6875 "/>
<path style=" stroke:none;fill-rule:nonzero;fill:rgb(7.058716%,1.176453%,46.665955%);fill-opacity:1;" d="M 60.214844 147.136719 C 59.957031 146.933594 59.914062 146.566406 60.113281 146.308594 C 60.3125 146.054688 60.683594 146.011719 60.941406 146.210938 L 66.035156 150.207031 C 66.289062 150.40625 66.335938 150.777344 66.136719 151.03125 C 65.933594 151.289062 65.566406 151.332031 65.308594 151.132812 Z M 60.214844 147.136719 "/>
<path style=" stroke:none;fill-rule:nonzero;fill:rgb(7.058716%,1.176453%,46.665955%);fill-opacity:1;" d="M 99.957031 98.960938 C 100.28125 98.960938 100.546875 99.222656 100.546875 99.546875 C 100.546875 99.871094 100.28125 100.136719 99.957031 100.136719 L 65.671875 100.136719 C 65.347656 100.136719 65.085938 99.871094 65.085938 99.546875 C 65.085938 99.222656 65.347656 98.960938 65.671875 98.960938 Z M 99.957031 98.960938 "/>
<path style=" stroke:none;fill-rule:nonzero;fill:rgb(7.058716%,1.176453%,46.665955%);fill-opacity:1;" d="M 65.671875 31.007812 C 65.996094 31.007812 66.261719 31.273438 66.261719 31.597656 C 66.261719 31.921875 65.996094 32.183594 65.671875 32.183594 L 40.25 32.183594 C 39.925781 32.183594 39.664062 31.921875 39.664062 31.597656 C 39.664062 31.273438 39.925781 31.007812 40.25 31.007812 Z M 65.671875 31.007812 "/>
<path style=" stroke:none;fill-rule:nonzero;fill:rgb(7.058716%,1.176453%,46.665955%);fill-opacity:1;" d="M 40.839844 31.953125 C 40.839844 33.421875 40.046875 34.703125 38.863281 35.394531 C 38.273438 35.738281 37.589844 35.933594 36.859375 35.933594 C 35.390625 35.933594 34.109375 35.140625 33.421875 33.960938 C 33.078125 33.371094 32.878906 32.683594 32.878906 31.953125 C 32.878906 30.488281 33.671875 29.207031 34.855469 28.515625 C 35.441406 28.171875 36.128906 27.972656 36.859375 27.972656 C 38.324219 27.972656 39.609375 28.765625 40.296875 29.949219 C 40.640625 30.539062 40.839844 31.222656 40.839844 31.953125 M 39.664062 31.953125 C 39.664062 31.4375 39.523438 30.957031 39.28125 30.542969 C 38.796875 29.710938 37.894531 29.148438 36.859375 29.148438 C 36.34375 29.148438 35.863281 29.289062 35.445312 29.53125 C 34.613281 30.015625 34.054688 30.921875 34.054688 31.953125 C 34.054688 32.46875 34.191406 32.953125 34.4375 33.367188 C 34.921875 34.199219 35.824219 34.757812 36.859375 34.757812 C 37.375 34.757812 37.855469 34.621094 38.269531 34.378906 C 39.105469 33.890625 39.664062 32.988281 39.664062 31.953125 "/>
<path style=" stroke:none;fill-rule:nonzero;fill:rgb(7.058716%,1.176453%,46.665955%);fill-opacity:1;" d="M 65.085938 166.234375 C 65.085938 165.910156 65.347656 165.648438 65.671875 165.648438 C 65.996094 165.648438 66.261719 165.910156 66.261719 166.234375 L 66.261719 177.027344 C 66.261719 177.351562 65.996094 177.613281 65.671875 177.613281 C 65.347656 177.613281 65.085938 177.351562 65.085938 177.027344 Z M 65.085938 166.234375 "/>
<path style=" stroke:none;fill-rule:nonzero;fill:rgb(7.058716%,1.176453%,46.665955%);fill-opacity:1;" d="M 57.28125 178.339844 C 56.957031 178.339844 56.695312 178.078125 56.695312 177.753906 C 56.695312 177.425781 56.957031 177.164062 57.28125 177.164062 L 74.0625 177.164062 C 74.386719 177.164062 74.652344 177.425781 74.652344 177.753906 C 74.652344 178.078125 74.386719 178.339844 74.0625 178.339844 Z M 57.28125 178.339844 "/>
<path style=" stroke:none;fill-rule:nonzero;fill:rgb(7.058716%,1.176453%,46.665955%);fill-opacity:1;" d="M 60.179688 182.1875 C 59.855469 182.1875 59.59375 181.925781 59.59375 181.601562 C 59.59375 181.277344 59.855469 181.011719 60.179688 181.011719 L 71.449219 181.011719 C 71.773438 181.011719 72.039062 181.277344 72.039062 181.601562 C 72.039062 181.925781 71.773438 182.1875 71.449219 182.1875 Z M 60.179688 182.1875 "/>
<path style=" stroke:none;fill-rule:nonzero;fill:rgb(7.058716%,1.176453%,46.665955%);fill-opacity:1;" d="M 63.410156 185.796875 C 63.082031 185.796875 62.820312 185.535156 62.820312 185.210938 C 62.820312 184.886719 63.082031 184.621094 63.410156 184.621094 L 68.222656 184.621094 C 68.546875 184.621094 68.808594 184.886719 68.808594 185.210938 C 68.808594 185.535156 68.546875 185.796875 68.222656 185.796875 Z M 63.410156 185.796875 "/>
<path style=" stroke:none;fill-rule:nonzero;fill:rgb(92.941284%,21.176147%,14.117432%);fill-opacity:1;" d="M 10.726562 20.304688 C 10.402344 20.296875 10.144531 20.027344 10.152344 19.703125 C 10.160156 19.378906 10.429688 19.121094 10.753906 19.128906 C 10.855469 19.132812 10.433594 19.21875 10.5 19.1875 C 10.5625 19.15625 10.339844 19.304688 10.367188 19.277344 C 10.417969 19.226562 10.277344 19.398438 10.285156 19.378906 C 10.300781 19.351562 10.285156 19.378906 10.296875 19.339844 C 10.324219 19.257812 10.355469 19.121094 10.382812 18.988281 C 10.410156 18.839844 10.316406 18.816406 10.480469 18.433594 C 10.609375 18.132812 10.957031 17.996094 11.253906 18.125 C 11.554688 18.253906 11.691406 18.601562 11.5625 18.898438 C 11.523438 18.984375 11.597656 18.730469 11.597656 18.75 C 11.597656 18.78125 11.679688 19.140625 11.753906 19.585938 C 11.832031 20.054688 12.027344 20.707031 12.289062 21.546875 C 12.644531 22.675781 13.164062 24.050781 13.640625 25.414062 C 14.027344 26.523438 14.347656 27.574219 14.601562 28.4375 C 14.917969 29.503906 15.066406 30.246094 15.222656 30.636719 C 15.351562 30.957031 15.347656 30.964844 15.695312 31.015625 C 16.015625 31.066406 16.234375 31.367188 16.1875 31.6875 C 16.136719 32.007812 15.835938 32.230469 15.515625 32.179688 C 14.886719 32.082031 14.355469 31.628906 14.132812 31.074219 C 13.90625 30.507812 13.777344 29.792969 13.476562 28.769531 C 13.222656 27.914062 12.910156 26.882812 12.53125 25.800781 C 12.058594 24.453125 11.539062 23.074219 11.167969 21.894531 C 10.902344 21.046875 10.691406 20.367188 10.59375 19.78125 C 10.554688 19.558594 10.507812 19.339844 10.472656 19.144531 C 10.433594 18.949219 10.308594 18.832031 10.480469 18.433594 L 11.5625 18.898438 C 11.535156 18.957031 11.59375 18.792969 11.589844 18.804688 C 11.585938 18.832031 11.578125 18.992188 11.535156 19.21875 C 11.503906 19.367188 11.46875 19.527344 11.421875 19.6875 C 11.398438 19.769531 11.371094 19.847656 11.316406 19.945312 C 11.289062 19.996094 11.25 20.058594 11.175781 20.128906 C 11.097656 20.203125 10.945312 20.3125 10.726562 20.304688 "/>
<path style=" stroke:none;fill-rule:nonzero;fill:rgb(92.941284%,21.176147%,14.117432%);fill-opacity:1;" d="M 18.890625 29.433594 C 18.585938 29.542969 18.246094 29.386719 18.136719 29.082031 C 18.023438 28.777344 18.179688 28.441406 18.484375 28.328125 C 18.816406 28.207031 19.210938 28.292969 19.460938 28.472656 C 19.707031 28.648438 19.871094 28.878906 20.019531 29.125 C 20.324219 29.636719 20.566406 30.269531 20.835938 30.941406 C 21.179688 31.800781 21.484375 32.679688 21.734375 33.207031 C 21.792969 33.324219 21.84375 33.414062 21.875 33.460938 C 21.890625 33.480469 21.878906 33.472656 21.886719 33.480469 C 21.902344 33.492188 21.671875 33.371094 21.757812 33.402344 C 21.800781 33.417969 21.519531 33.375 21.585938 33.375 C 21.6875 33.371094 21.242188 33.507812 21.308594 33.460938 C 21.375 33.417969 21.183594 33.597656 21.199219 33.570312 C 21.230469 33.523438 21.199219 33.570312 21.21875 33.457031 C 21.28125 33.136719 21.589844 32.929688 21.910156 32.988281 C 22.226562 33.050781 22.4375 33.359375 22.375 33.679688 C 22.339844 33.867188 22.300781 34.035156 22.183594 34.210938 C 22.058594 34.40625 21.648438 34.613281 21.355469 34.507812 C 20.855469 34.328125 20.820312 34.015625 20.675781 33.714844 C 20.371094 33.082031 20.074219 32.207031 19.742188 31.378906 C 19.472656 30.707031 19.234375 30.105469 19.011719 29.730469 C 18.90625 29.558594 18.8125 29.453125 18.78125 29.429688 C 18.765625 29.417969 18.917969 29.421875 18.890625 29.433594 "/>
<path style=" stroke:none;fill-rule:nonzero;fill:rgb(92.941284%,21.176147%,14.117432%);fill-opacity:1;" d="M 19.03125 20.679688 C 19.269531 20.902344 19.277344 21.273438 19.054688 21.511719 C 18.832031 21.746094 18.460938 21.757812 18.226562 21.535156 C 18.015625 21.335938 17.84375 21.0625 17.691406 20.667969 C 17.53125 20.257812 17.433594 19.722656 17.605469 19.171875 C 17.742188 18.738281 18.054688 18.394531 18.429688 18.152344 C 18.804688 17.910156 19.257812 17.757812 19.742188 17.710938 C 20.484375 17.640625 21.328125 17.839844 22.097656 18.363281 C 23.140625 19.074219 23.976562 20.351562 24.375 21.949219 C 24.75 23.457031 24.558594 25.171875 24.1875 26.703125 C 23.945312 27.710938 23.472656 28.566406 23.078125 29.238281 C 22.722656 29.839844 22.359375 30.269531 21.960938 30.523438 C 21.761719 30.648438 21.46875 30.707031 21.21875 30.621094 C 20.96875 30.535156 20.816406 30.351562 20.722656 30.183594 C 20.539062 29.851562 20.511719 29.480469 20.574219 29.097656 C 20.6875 28.402344 21.15625 27.890625 21.539062 27.445312 C 22.339844 26.515625 23.421875 26.179688 24.410156 26.203125 C 25.386719 26.226562 26.308594 26.523438 27.109375 26.742188 C 27.878906 26.953125 28.492188 27.035156 28.742188 26.925781 C 28.851562 26.875 28.941406 26.800781 29.027344 26.582031 C 29.128906 26.335938 29.195312 25.921875 29.191406 25.335938 C 29.1875 25.011719 29.449219 24.746094 29.773438 24.742188 C 30.097656 24.738281 30.363281 25 30.367188 25.324219 C 30.375 26.007812 30.304688 26.566406 30.121094 27.023438 C 29.9375 27.46875 29.609375 27.828125 29.214844 28.003906 C 28.4375 28.34375 27.613281 28.101562 26.800781 27.878906 C 25.980469 27.65625 25.144531 27.398438 24.382812 27.378906 C 23.644531 27.363281 22.996094 27.554688 22.429688 28.210938 C 22.078125 28.625 21.769531 29.070312 21.734375 29.285156 C 21.707031 29.457031 21.746094 29.605469 21.753906 29.617188 C 21.753906 29.621094 21.703125 29.5625 21.722656 29.582031 C 21.746094 29.605469 21.546875 29.492188 21.605469 29.511719 C 21.660156 29.53125 21.375 29.503906 21.429688 29.496094 C 21.480469 29.488281 21.316406 29.539062 21.332031 29.527344 C 21.480469 29.433594 21.773438 29.132812 22.0625 28.640625 C 22.441406 28 22.847656 27.246094 23.042969 26.429688 C 23.386719 25.015625 23.535156 23.449219 23.234375 22.234375 C 22.894531 20.878906 22.183594 19.84375 21.4375 19.335938 C 20.882812 18.957031 20.3125 18.839844 19.851562 18.882812 C 19.550781 18.910156 19.273438 19.007812 19.066406 19.140625 C 18.871094 19.265625 18.761719 19.414062 18.726562 19.523438 C 18.589844 19.957031 18.992188 20.640625 19.03125 20.679688 "/>
<path style=" stroke:none;fill-rule:nonzero;fill:rgb(92.941284%,21.176147%,14.117432%);fill-opacity:1;" d="M 27.085938 17.972656 C 27.214844 18.269531 27.078125 18.613281 26.777344 18.742188 C 26.480469 18.871094 26.132812 18.734375 26.003906 18.4375 C 25.929688 18.257812 25.878906 18.082031 25.878906 17.878906 C 25.882812 17.777344 25.898438 17.660156 25.953125 17.539062 C 26.011719 17.410156 26.117188 17.277344 26.269531 17.195312 C 26.585938 17.027344 26.835938 17.15625 26.96875 17.230469 C 27.089844 17.300781 27.183594 17.382812 27.277344 17.46875 C 27.46875 17.652344 27.667969 17.878906 27.890625 18.144531 C 28.347656 18.691406 28.878906 19.363281 29.417969 19.976562 C 30.074219 20.71875 30.808594 21.351562 31.425781 21.757812 C 31.796875 22.003906 32.128906 22.101562 32.230469 22.09375 C 32.269531 22.089844 32.160156 22.144531 32.210938 22.054688 C 32.273438 21.9375 32.347656 21.699219 32.398438 21.386719 C 32.507812 20.714844 32.535156 19.769531 32.546875 18.726562 C 32.566406 17.34375 32.492188 15.800781 32.246094 14.519531 C 32.085938 13.671875 31.847656 12.953125 31.671875 12.640625 C 31.636719 12.578125 31.652344 12.589844 31.628906 12.570312 C 31.613281 12.554688 31.835938 12.671875 31.757812 12.644531 C 31.714844 12.628906 31.976562 12.675781 31.914062 12.671875 C 31.851562 12.671875 32.167969 12.617188 32.105469 12.640625 C 32.050781 12.664062 32.292969 12.519531 32.253906 12.550781 C 32.203125 12.597656 32.363281 12.414062 32.347656 12.441406 C 32.335938 12.464844 32.363281 12.40625 32.363281 12.410156 C 32.359375 12.421875 32.34375 12.5 32.335938 12.625 C 32.320312 12.949219 32.042969 13.195312 31.71875 13.179688 C 31.394531 13.160156 31.144531 12.882812 31.164062 12.558594 C 31.171875 12.375 31.191406 12.21875 31.242188 12.058594 C 31.289062 11.898438 31.378906 11.660156 31.6875 11.542969 C 32.015625 11.417969 32.300781 11.589844 32.429688 11.707031 C 32.550781 11.820312 32.625 11.9375 32.699219 12.0625 C 32.988281 12.585938 33.226562 13.367188 33.402344 14.296875 C 33.671875 15.699219 33.742188 17.304688 33.722656 18.742188 C 33.707031 19.796875 33.691406 20.773438 33.558594 21.578125 C 33.496094 21.964844 33.410156 22.316406 33.238281 22.625 C 33.066406 22.933594 32.730469 23.238281 32.3125 23.265625 C 31.773438 23.304688 31.273438 23.066406 30.777344 22.742188 C 30.054688 22.265625 29.257812 21.574219 28.539062 20.753906 C 27.96875 20.109375 27.433594 19.425781 26.988281 18.898438 C 26.777344 18.648438 26.597656 18.445312 26.46875 18.324219 C 26.414062 18.273438 26.390625 18.253906 26.382812 18.25 C 26.371094 18.242188 26.550781 18.300781 26.484375 18.285156 C 26.449219 18.277344 26.683594 18.289062 26.628906 18.292969 C 26.566406 18.296875 26.882812 18.203125 26.820312 18.234375 C 26.722656 18.285156 27.054688 17.953125 27.023438 18.023438 C 26.996094 18.082031 27.054688 17.871094 27.054688 17.890625 C 27.054688 17.921875 27.058594 17.902344 27.085938 17.972656 "/>
<path style=" stroke:none;fill-rule:nonzero;fill:rgb(7.058716%,1.176453%,46.665955%);fill-opacity:1;" d="M 286.074219 163.582031 C 286.074219 163.257812 286.339844 162.996094 286.664062 162.996094 C 286.988281 162.996094 287.25 163.257812 287.25 163.582031 L 287.25 179.113281 C 287.25 179.4375 286.988281 179.699219 286.664062 179.699219 C 286.339844 179.699219 286.074219 179.4375 286.074219 179.113281 Z M 286.074219 163.582031 "/>
<path style=" stroke:none;fill-rule:nonzero;fill:rgb(7.058716%,1.176453%,46.665955%);fill-opacity:1;" d="M 286.074219 214.320312 C 286.074219 213.996094 286.339844 213.730469 286.664062 213.730469 C 286.988281 213.730469 287.25 213.996094 287.25 214.320312 L 287.25 230.804688 C 287.25 231.128906 286.988281 231.390625 286.664062 231.390625 C 286.339844 231.390625 286.074219 231.128906 286.074219 230.804688 Z M 286.074219 214.320312 "/>
<path style=" stroke:none;fill-rule:nonzero;fill:rgb(7.058716%,1.176453%,46.665955%);fill-opacity:1;" d="M 286.511719 178.636719 C 286.773438 178.445312 287.140625 178.5 287.335938 178.761719 C 287.527344 179.023438 287.472656 179.390625 287.210938 179.585938 L 281.917969 183.488281 C 281.65625 183.679688 281.285156 183.625 281.09375 183.363281 C 280.902344 183.101562 280.957031 182.734375 281.21875 182.542969 Z M 286.511719 178.636719 "/>
<path style=" stroke:none;fill-rule:nonzero;fill:rgb(7.058716%,1.176453%,46.665955%);fill-opacity:1;" d="M 281.265625 183.519531 C 280.984375 183.351562 280.894531 182.988281 281.0625 182.710938 C 281.230469 182.433594 281.59375 182.34375 281.871094 182.511719 L 292.0625 188.652344 C 292.339844 188.820312 292.429688 189.179688 292.261719 189.457031 C 292.09375 189.738281 291.734375 189.828125 291.457031 189.660156 Z M 281.265625 183.519531 "/>
<path style=" stroke:none;fill-rule:nonzero;fill:rgb(7.058716%,1.176453%,46.665955%);fill-opacity:1;" d="M 291.410156 188.683594 C 291.671875 188.488281 292.039062 188.546875 292.230469 188.804688 C 292.425781 189.066406 292.371094 189.4375 292.109375 189.628906 L 281.917969 197.140625 C 281.65625 197.335938 281.285156 197.277344 281.09375 197.015625 C 280.902344 196.753906 280.957031 196.386719 281.21875 196.195312 Z M 291.410156 188.683594 "/>
<path style=" stroke:none;fill-rule:nonzero;fill:rgb(7.058716%,1.176453%,46.665955%);fill-opacity:1;" d="M 281.265625 197.171875 C 280.984375 197.003906 280.894531 196.644531 281.0625 196.363281 C 281.230469 196.085938 281.59375 195.996094 281.871094 196.164062 L 292.0625 202.304688 C 292.339844 202.472656 292.429688 202.835938 292.261719 203.113281 C 292.09375 203.390625 291.734375 203.480469 291.457031 203.3125 Z M 281.265625 197.171875 "/>
<path style=" stroke:none;fill-rule:nonzero;fill:rgb(7.058716%,1.176453%,46.665955%);fill-opacity:1;" d="M 291.410156 202.335938 C 291.671875 202.144531 292.039062 202.199219 292.230469 202.460938 C 292.425781 202.722656 292.371094 203.089844 292.109375 203.28125 L 281.917969 210.796875 C 281.65625 210.988281 281.285156 210.933594 281.09375 210.671875 C 280.902344 210.410156 280.957031 210.042969 281.21875 209.847656 Z M 291.410156 202.335938 "/>
<path style=" stroke:none;fill-rule:nonzero;fill:rgb(7.058716%,1.176453%,46.665955%);fill-opacity:1;" d="M 281.203125 210.785156 C 280.949219 210.585938 280.90625 210.214844 281.105469 209.960938 C 281.304688 209.703125 281.675781 209.660156 281.929688 209.859375 L 287.027344 213.855469 C 287.28125 214.058594 287.328125 214.425781 287.125 214.683594 C 286.925781 214.9375 286.554688 214.980469 286.300781 214.78125 Z M 281.203125 210.785156 "/>
<path style=" stroke:none;fill-rule:nonzero;fill:rgb(0%,43.528748%,100%);fill-opacity:1;" d="M 269.238281 207.03125 C 269.5625 207.019531 269.835938 207.273438 269.847656 207.597656 C 269.859375 207.925781 269.605469 208.195312 269.28125 208.207031 C 269.203125 208.210938 269.3125 208.207031 269.269531 208.214844 C 269.226562 208.226562 269.167969 208.238281 269.113281 208.253906 C 269.089844 208.257812 269.050781 208.269531 269.007812 208.289062 C 268.984375 208.296875 268.964844 208.304688 268.914062 208.316406 C 268.875 208.324219 268.855469 208.332031 268.808594 208.335938 C 268.484375 208.367188 268.199219 208.128906 268.167969 207.804688 C 268.136719 207.484375 268.375 207.195312 268.695312 207.164062 C 268.738281 207.160156 268.628906 207.175781 268.636719 207.175781 C 268.636719 207.171875 268.601562 207.183594 268.621094 207.175781 C 268.660156 207.164062 268.734375 207.136719 268.832031 207.109375 C 268.949219 207.082031 269.019531 207.039062 269.238281 207.03125 M 269.316406 207.894531 C 269.234375 208.207031 268.914062 208.398438 268.601562 208.316406 C 268.285156 208.234375 268.097656 207.914062 268.179688 207.601562 C 268.25 207.316406 268.394531 207.257812 268.460938 207.214844 C 268.527344 207.171875 268.574219 207.152344 268.617188 207.132812 C 268.695312 207.09375 268.757812 207.0625 268.792969 207.042969 C 268.863281 207 268.960938 206.929688 269.078125 206.84375 C 269.230469 206.734375 269.398438 206.585938 269.617188 206.394531 C 270.054688 206.003906 270.640625 205.464844 271.371094 204.828125 C 271.8125 204.445312 272.300781 204.054688 272.804688 203.640625 C 273.429688 203.132812 274.09375 202.582031 274.816406 201.992188 C 275.246094 201.636719 275.695312 201.257812 276.175781 200.867188 C 276.515625 200.589844 276.867188 200.3125 277.21875 200.035156 C 277.894531 199.5 278.601562 198.949219 279.339844 198.371094 C 279.554688 198.203125 279.769531 198.03125 279.988281 197.859375 C 281.171875 196.925781 282.410156 195.96875 283.667969 195.015625 C 284.710938 194.226562 285.75 193.4375 286.820312 192.65625 C 287.050781 192.492188 287.285156 192.308594 287.527344 192.125 C 288.402344 191.472656 289.296875 190.890625 290.152344 190.328125 C 290.820312 189.894531 291.480469 189.414062 292.160156 188.9375 C 293.296875 188.140625 294.480469 187.410156 295.652344 186.714844 C 296.539062 186.191406 297.371094 185.664062 298.171875 185.164062 C 298.8125 184.761719 299.441406 184.363281 300.0625 183.984375 C 300.683594 183.601562 301.300781 183.265625 301.871094 182.9375 C 302.445312 182.609375 302.996094 182.265625 303.535156 181.945312 C 304.058594 181.632812 304.554688 181.335938 305.019531 181.054688 C 305.484375 180.773438 305.921875 180.503906 306.320312 180.25 C 307.070312 179.777344 307.675781 179.382812 308.171875 179.058594 C 308.648438 178.742188 309.011719 178.488281 309.253906 178.296875 C 309.386719 178.195312 309.453125 178.140625 309.464844 178.128906 C 309.464844 178.128906 309.40625 178.25 309.429688 178.195312 C 309.441406 178.164062 309.394531 178.398438 309.398438 178.335938 C 309.402344 178.269531 309.488281 178.675781 309.445312 178.585938 C 309.410156 178.511719 309.625 178.804688 309.578125 178.761719 C 309.535156 178.722656 309.722656 178.855469 309.691406 178.839844 C 309.640625 178.816406 309.859375 178.890625 309.832031 178.886719 C 309.789062 178.878906 309.855469 178.886719 309.832031 178.886719 C 309.769531 178.890625 309.660156 178.90625 309.542969 178.917969 C 308.949219 178.984375 308.148438 179.058594 307.320312 178.914062 C 306.722656 178.808594 306.199219 178.546875 305.71875 178.289062 C 305.480469 178.160156 305.25 178.03125 305.035156 177.910156 C 304.910156 177.839844 304.78125 177.769531 304.652344 177.699219 C 304.535156 177.632812 304.449219 177.570312 304.398438 177.535156 C 304.375 177.519531 304.375 177.519531 304.367188 177.515625 C 304.359375 177.507812 304.5625 177.566406 304.488281 177.554688 C 304.449219 177.546875 304.667969 177.539062 304.621094 177.550781 C 304.570312 177.5625 304.839844 177.421875 304.785156 177.46875 C 304.722656 177.515625 304.953125 177.246094 304.921875 177.300781 C 304.894531 177.355469 304.980469 177.125 304.972656 177.164062 C 304.960938 177.230469 304.980469 177.003906 304.984375 177.027344 C 304.988281 177.0625 304.980469 177.007812 304.988281 177.035156 C 305.007812 177.101562 305.054688 177.214844 305.105469 177.335938 C 305.421875 178.09375 305.996094 179.296875 306.5625 180.480469 C 306.785156 180.9375 306.988281 181.363281 307.175781 181.703125 C 307.433594 182.175781 307.628906 182.371094 307.710938 182.410156 C 307.785156 182.445312 307.925781 182.441406 308.160156 182.28125 C 308.414062 182.109375 308.699219 181.785156 308.925781 181.367188 C 309.621094 180.089844 309.992188 177.789062 310.015625 177.25 C 310.027344 176.925781 310.304688 176.671875 310.628906 176.6875 C 310.953125 176.699219 311.203125 176.976562 311.1875 177.300781 C 311.171875 177.671875 311.0625 178.378906 310.867188 179.253906 C 310.664062 180.15625 310.390625 181.140625 309.960938 181.929688 C 309.660156 182.480469 309.277344 182.945312 308.820312 183.253906 C 308.371094 183.5625 307.769531 183.726562 307.230469 183.484375 C 306.742188 183.265625 306.449219 182.820312 306.144531 182.269531 C 305.933594 181.886719 305.726562 181.445312 305.503906 180.988281 C 304.933594 179.804688 304.359375 178.597656 304.019531 177.785156 C 303.96875 177.664062 303.914062 177.535156 303.867188 177.390625 C 303.84375 177.320312 303.824219 177.246094 303.8125 177.140625 C 303.808594 177.082031 303.804688 177.011719 303.824219 176.917969 C 303.847656 176.8125 303.902344 176.667969 304.042969 176.554688 C 304.238281 176.394531 304.472656 176.359375 304.6875 176.394531 C 305.117188 176.46875 305.140625 176.625 305.222656 176.671875 C 305.332031 176.734375 305.46875 176.804688 305.613281 176.886719 C 305.828125 177.007812 306.050781 177.132812 306.277344 177.253906 C 306.71875 177.492188 307.140625 177.6875 307.519531 177.753906 C 308.15625 177.863281 308.855469 177.808594 309.414062 177.75 C 309.515625 177.738281 309.636719 177.722656 309.769531 177.714844 C 309.835938 177.710938 309.910156 177.707031 310.007812 177.722656 C 310.0625 177.730469 310.128906 177.746094 310.210938 177.785156 C 310.304688 177.832031 310.433594 177.917969 310.511719 178.082031 C 310.613281 178.304688 310.570312 178.503906 310.519531 178.632812 C 310.472656 178.753906 310.410156 178.835938 310.34375 178.914062 C 310.214844 179.054688 310.101562 179.128906 309.976562 179.226562 C 309.695312 179.445312 309.3125 179.710938 308.816406 180.039062 C 308.320312 180.367188 307.707031 180.765625 306.945312 181.246094 C 306.542969 181.5 306.101562 181.773438 305.628906 182.0625 C 305.160156 182.347656 304.660156 182.640625 304.140625 182.953125 C 303.609375 183.269531 303.050781 183.617188 302.457031 183.957031 C 301.871094 184.296875 301.265625 184.621094 300.679688 184.984375 C 300.066406 185.363281 299.433594 185.757812 298.796875 186.15625 C 298 186.660156 297.152344 187.191406 296.253906 187.726562 C 295.09375 188.414062 293.9375 189.128906 292.832031 189.902344 C 292.164062 190.371094 291.492188 190.859375 290.796875 191.3125 C 289.941406 191.871094 289.070312 192.441406 288.230469 193.070312 C 288 193.242188 287.765625 193.425781 287.515625 193.609375 C 286.453125 194.378906 285.417969 195.164062 284.378906 195.953125 C 283.128906 196.902344 281.894531 197.855469 280.714844 198.78125 C 280.5 198.953125 280.28125 199.125 280.066406 199.296875 C 279.324219 199.875 278.621094 200.421875 277.949219 200.957031 C 277.59375 201.238281 277.246094 201.507812 276.921875 201.777344 C 276.449219 202.160156 276 202.539062 275.5625 202.902344 C 274.839844 203.492188 274.175781 204.039062 273.550781 204.550781 C 273.039062 204.964844 272.5625 205.351562 272.140625 205.714844 C 271.425781 206.335938 270.851562 206.871094 270.398438 207.273438 C 270.171875 207.472656 269.976562 207.644531 269.769531 207.796875 C 269.65625 207.878906 269.539062 207.964844 269.402344 208.050781 C 269.285156 208.121094 269.183594 208.164062 269.125 208.191406 C 269.101562 208.203125 269.125 208.1875 269.105469 208.199219 C 269.101562 208.203125 269.214844 208.101562 269.179688 208.140625 C 269.160156 208.160156 269.269531 208.015625 269.246094 208.054688 C 269.21875 208.09375 269.335938 207.824219 269.316406 207.894531 "/>
<path style=" stroke:none;fill-rule:nonzero;fill:rgb(7.058716%,1.176453%,46.665955%);fill-opacity:1;" d="M 286.074219 230.699219 C 286.074219 230.375 286.339844 230.113281 286.664062 230.113281 C 286.988281 230.113281 287.25 230.375 287.25 230.699219 L 287.25 241.492188 C 287.25 241.816406 286.988281 242.078125 286.664062 242.078125 C 286.339844 242.078125 286.074219 241.816406 286.074219 241.492188 Z M 286.074219 230.699219 "/>
<path style=" stroke:none;fill-rule:nonzero;fill:rgb(7.058716%,1.176453%,46.665955%);fill-opacity:1;" d="M 278.273438 242.804688 C 277.949219 242.804688 277.683594 242.542969 277.683594 242.214844 C 277.683594 241.890625 277.949219 241.628906 278.273438 241.628906 L 295.054688 241.628906 C 295.378906 241.628906 295.640625 241.890625 295.640625 242.214844 C 295.640625 242.542969 295.378906 242.804688 295.054688 242.804688 Z M 278.273438 242.804688 "/>
<path style=" stroke:none;fill-rule:nonzero;fill:rgb(7.058716%,1.176453%,46.665955%);fill-opacity:1;" d="M 281.171875 246.652344 C 280.847656 246.652344 280.582031 246.390625 280.582031 246.066406 C 280.582031 245.742188 280.847656 245.476562 281.171875 245.476562 L 292.441406 245.476562 C 292.765625 245.476562 293.027344 245.742188 293.027344 246.066406 C 293.027344 246.390625 292.765625 246.652344 292.441406 246.652344 Z M 281.171875 246.652344 "/>
<path style=" stroke:none;fill-rule:nonzero;fill:rgb(7.058716%,1.176453%,46.665955%);fill-opacity:1;" d="M 284.398438 250.261719 C 284.074219 250.261719 283.8125 250 283.8125 249.675781 C 283.8125 249.351562 284.074219 249.085938 284.398438 249.085938 L 289.214844 249.085938 C 289.539062 249.085938 289.800781 249.351562 289.800781 249.675781 C 289.800781 250 289.539062 250.261719 289.214844 250.261719 Z M 284.398438 250.261719 "/>
<path style=" stroke:none;fill-rule:nonzero;fill:rgb(0%,43.528748%,100%);fill-opacity:1;" d="M 315.4375 191.042969 C 315.179688 190.84375 315.132812 190.476562 315.328125 190.21875 C 315.527344 189.960938 315.894531 189.910156 316.152344 190.109375 C 316.492188 190.371094 316.535156 190.730469 316.558594 191.046875 C 316.578125 191.371094 316.558594 191.738281 316.535156 192.183594 C 316.476562 193.199219 316.394531 194.621094 316.226562 196.089844 C 316.140625 196.855469 316.019531 197.582031 315.925781 198.210938 C 315.667969 199.96875 315.667969 200.777344 315.660156 201.488281 C 315.65625 201.8125 315.386719 202.074219 315.0625 202.070312 C 314.738281 202.066406 314.476562 201.800781 314.484375 201.476562 C 314.492188 200.769531 314.496094 199.851562 314.761719 198.039062 C 314.859375 197.398438 314.976562 196.6875 315.058594 195.960938 C 315.21875 194.53125 315.300781 193.128906 315.359375 192.117188 C 315.386719 191.683594 315.398438 191.34375 315.382812 191.128906 C 315.378906 191.03125 315.363281 190.96875 315.359375 190.949219 C 315.355469 190.945312 315.378906 190.984375 315.371094 190.96875 C 315.355469 190.949219 315.46875 191.066406 315.4375 191.042969 "/>
<path style=" stroke:none;fill-rule:nonzero;fill:rgb(0%,43.528748%,100%);fill-opacity:1;" d="M 312.808594 202.304688 C 312.945312 202.601562 312.816406 202.949219 312.519531 203.085938 C 312.226562 203.222656 311.875 203.09375 311.742188 202.800781 C 311.667969 202.644531 311.609375 202.464844 311.628906 202.253906 C 311.648438 202.035156 311.769531 201.824219 311.90625 201.699219 C 312.160156 201.46875 312.402344 201.421875 312.640625 201.347656 C 313.355469 201.113281 314.535156 200.433594 315.800781 199.933594 C 316.582031 199.625 317.3125 199.414062 317.863281 199.253906 C 318.121094 199.179688 318.332031 199.121094 318.457031 199.078125 C 318.511719 199.058594 318.507812 199.0625 318.527344 199.050781 C 318.53125 199.046875 318.472656 199.089844 318.488281 199.074219 C 318.515625 199.054688 318.308594 199.304688 318.359375 199.21875 C 318.390625 199.171875 318.273438 199.480469 318.289062 199.40625 C 318.304688 199.324219 318.320312 199.738281 318.300781 199.65625 C 318.214844 199.34375 318.402344 199.019531 318.714844 198.9375 C 319.027344 198.851562 319.351562 199.039062 319.433594 199.351562 C 319.5 199.589844 319.390625 199.816406 319.300781 199.914062 C 319.226562 200.003906 319.164062 200.042969 319.109375 200.070312 C 319.011719 200.125 318.933594 200.15625 318.84375 200.1875 C 318.664062 200.25 318.445312 200.3125 318.1875 200.386719 C 317.640625 200.542969 316.953125 200.742188 316.234375 201.027344 C 315.066406 201.488281 313.929688 202.160156 313.007812 202.464844 C 312.78125 202.539062 312.742188 202.53125 312.695312 202.570312 C 312.660156 202.605469 312.808594 202.269531 312.800781 202.355469 C 312.796875 202.394531 312.792969 202.273438 312.796875 202.28125 C 312.796875 202.285156 312.796875 202.285156 312.808594 202.304688 "/>
<path style=" stroke:none;fill-rule:nonzero;fill:rgb(0%,43.528748%,100%);fill-opacity:1;" d="M 312.316406 189.9375 C 312.445312 190.234375 312.308594 190.582031 312.011719 190.710938 C 311.710938 190.839844 311.367188 190.703125 311.238281 190.40625 C 311.070312 190.019531 311.082031 189.566406 311.253906 189.214844 C 311.429688 188.867188 311.714844 188.613281 312.035156 188.40625 C 312.683594 187.992188 313.523438 187.738281 314.402344 187.558594 C 315.289062 187.382812 316.191406 187.296875 316.96875 187.300781 C 317.347656 187.304688 317.691406 187.328125 317.992188 187.386719 C 318.289062 187.445312 318.578125 187.496094 318.828125 187.804688 C 319.03125 188.058594 318.992188 188.429688 318.738281 188.632812 C 318.484375 188.835938 318.113281 188.796875 317.910156 188.542969 C 317.882812 188.507812 317.980469 188.605469 317.96875 188.597656 C 317.957031 188.589844 317.902344 188.566406 317.765625 188.542969 C 317.570312 188.503906 317.289062 188.480469 316.960938 188.476562 C 316.277344 188.472656 315.4375 188.550781 314.636719 188.710938 C 313.839844 188.871094 313.109375 189.113281 312.667969 189.394531 C 312.464844 189.527344 312.347656 189.65625 312.308594 189.734375 C 312.277344 189.800781 312.269531 189.828125 312.316406 189.9375 "/>
<path style=" stroke:none;fill-rule:nonzero;fill:rgb(0%,43.528748%,100%);fill-opacity:1;" d="M 321.96875 195.917969 C 322.019531 196.238281 321.796875 196.535156 321.476562 196.585938 C 321.15625 196.632812 320.855469 196.414062 320.808594 196.09375 C 320.792969 196.007812 320.785156 195.949219 320.777344 195.925781 C 320.777344 195.917969 320.792969 195.960938 320.785156 195.941406 C 320.777344 195.929688 320.828125 196.03125 320.8125 196 C 320.792969 195.96875 320.980469 196.1875 320.917969 196.132812 C 320.882812 196.101562 321.105469 196.25 321.046875 196.222656 C 320.996094 196.195312 321.304688 196.285156 321.234375 196.277344 C 321.109375 196.261719 321.664062 196.167969 321.574219 196.214844 C 321.511719 196.246094 321.746094 196.078125 321.714844 196.109375 C 321.667969 196.15625 321.8125 195.972656 321.796875 196 C 321.78125 196.027344 321.828125 195.933594 321.824219 195.945312 C 321.804688 195.996094 321.832031 195.921875 321.824219 195.960938 C 321.785156 196.167969 321.734375 196.640625 321.648438 197.214844 C 321.550781 197.886719 321.390625 198.660156 321.1875 199.472656 C 320.964844 200.339844 320.667969 201.167969 320.449219 201.820312 C 320.335938 202.152344 320.21875 202.421875 320.148438 202.601562 C 320.117188 202.683594 320.101562 202.742188 320.101562 202.746094 C 320.101562 202.75 320.097656 202.636719 320.101562 202.679688 C 320.109375 202.730469 319.976562 202.398438 320.027344 202.476562 C 320.074219 202.542969 319.816406 202.289062 319.871094 202.324219 C 319.925781 202.359375 319.6875 202.25 319.726562 202.261719 C 319.804688 202.28125 319.59375 202.246094 319.613281 202.246094 C 319.628906 202.246094 319.617188 202.246094 319.660156 202.234375 C 319.765625 202.207031 319.921875 202.148438 320.078125 202.097656 C 320.773438 201.867188 321.714844 201.605469 322.644531 201.53125 C 323.105469 201.496094 323.554688 201.5 323.980469 201.628906 C 324.402344 201.753906 324.835938 202.0625 324.996094 202.546875 C 325.097656 202.855469 324.929688 203.1875 324.617188 203.289062 C 324.308594 203.390625 323.976562 203.222656 323.878906 202.914062 C 323.859375 202.851562 323.824219 202.808594 323.640625 202.753906 C 323.4375 202.691406 323.109375 202.671875 322.738281 202.703125 C 321.964844 202.765625 321.082031 203.003906 320.453125 203.210938 C 320.308594 203.261719 320.140625 203.324219 319.964844 203.371094 C 319.875 203.394531 319.785156 203.414062 319.664062 203.421875 C 319.597656 203.421875 319.519531 203.421875 319.417969 203.394531 C 319.308594 203.367188 319.15625 203.285156 319.050781 203.132812 C 318.902344 202.910156 318.917969 202.691406 318.945312 202.546875 C 318.96875 202.410156 319.007812 202.300781 319.046875 202.191406 C 319.132812 201.964844 319.238281 201.722656 319.332031 201.445312 C 319.558594 200.78125 319.84375 199.980469 320.046875 199.183594 C 320.242188 198.40625 320.394531 197.667969 320.484375 197.042969 C 320.566406 196.488281 320.613281 196.042969 320.671875 195.738281 C 320.683594 195.664062 320.695312 195.601562 320.738281 195.496094 C 320.761719 195.441406 320.78125 195.351562 320.9375 195.230469 C 321.117188 195.089844 321.5625 195.125 321.710938 195.261719 C 321.949219 195.476562 321.898438 195.566406 321.917969 195.648438 C 321.941406 195.726562 321.953125 195.8125 321.96875 195.917969 "/>
<path style=" stroke:none;fill-rule:nonzero;fill:rgb(0%,43.528748%,100%);fill-opacity:1;" d="M 327.445312 197.425781 C 327.765625 197.488281 327.972656 197.796875 327.910156 198.117188 C 327.847656 198.433594 327.539062 198.640625 327.21875 198.582031 C 327.152344 198.566406 327.460938 198.566406 327.410156 198.578125 C 327.359375 198.589844 327.539062 198.519531 327.515625 198.535156 C 327.476562 198.558594 327.554688 198.503906 327.539062 198.523438 C 327.503906 198.566406 327.429688 198.683594 327.355469 198.839844 C 327.195312 199.175781 327.039062 199.640625 326.929688 200.117188 C 326.8125 200.617188 326.765625 201.105469 326.8125 201.414062 C 326.835938 201.5625 326.859375 201.574219 326.988281 201.605469 C 327.1875 201.648438 327.585938 201.589844 327.972656 201.402344 C 328.292969 201.246094 328.648438 200.835938 328.945312 200.414062 C 329.226562 200.019531 329.328125 199.632812 329.316406 199.355469 C 329.308594 199.230469 329.253906 199.109375 329.132812 198.976562 C 329.007812 198.839844 328.8125 198.707031 328.589844 198.605469 C 328.144531 198.40625 327.613281 198.398438 327.566406 198.421875 C 327.265625 198.546875 326.921875 198.410156 326.792969 198.113281 C 326.664062 197.8125 326.800781 197.46875 327.101562 197.339844 C 327.722656 197.074219 328.414062 197.234375 329.078125 197.535156 C 329.414062 197.6875 329.734375 197.894531 330 198.179688 C 330.261719 198.46875 330.46875 198.855469 330.488281 199.296875 C 330.519531 199.882812 330.316406 200.511719 329.910156 201.089844 C 329.570312 201.570312 329.140625 202.140625 328.484375 202.460938 C 327.921875 202.734375 327.3125 202.882812 326.730469 202.75 C 326.207031 202.632812 325.742188 202.167969 325.652344 201.59375 C 325.566406 201.042969 325.644531 200.445312 325.785156 199.847656 C 325.910156 199.300781 326.085938 198.773438 326.292969 198.335938 C 326.394531 198.125 326.5 197.933594 326.640625 197.765625 C 326.710938 197.683594 326.792969 197.597656 326.914062 197.523438 C 327.042969 197.449219 327.238281 197.386719 327.445312 197.425781 "/>
<path style=" stroke:none;fill-rule:nonzero;fill:rgb(0%,43.528748%,100%);fill-opacity:1;" d="M 331.277344 197.734375 C 331.203125 197.421875 331.398438 197.101562 331.714844 197.027344 C 332.03125 196.953125 332.347656 197.148438 332.421875 197.464844 C 332.578125 198.117188 332.519531 199.265625 332.515625 200.480469 C 332.511719 201.027344 332.5 201.535156 332.511719 201.914062 C 332.519531 202.113281 332.539062 202.222656 332.546875 202.242188 C 332.550781 202.253906 332.449219 202.097656 332.488281 202.148438 C 332.511719 202.175781 332.335938 202.015625 332.386719 202.050781 C 332.4375 202.085938 332.109375 201.945312 332.1875 201.960938 C 332.253906 201.976562 331.875 201.980469 331.945312 201.964844 C 332.015625 201.945312 331.742188 202.058594 331.78125 202.035156 C 331.84375 201.992188 331.65625 202.152344 331.671875 202.136719 C 331.863281 201.859375 332.277344 200.074219 332.734375 198.421875 C 332.976562 197.535156 333.222656 196.675781 333.503906 195.980469 C 333.648438 195.621094 333.816406 195.316406 334.015625 195.078125 C 334.113281 194.957031 334.222656 194.851562 334.367188 194.761719 C 334.519531 194.671875 334.742188 194.59375 334.996094 194.660156 C 335.28125 194.734375 335.40625 194.933594 335.472656 195.066406 C 335.535156 195.191406 335.5625 195.304688 335.585938 195.417969 C 335.632812 195.640625 335.648438 195.863281 335.660156 196.066406 C 335.6875 196.550781 335.691406 197.097656 335.707031 197.609375 C 335.734375 198.375 336.132812 199.113281 336.429688 200.023438 C 336.613281 200.59375 336.761719 201.1875 336.828125 201.738281 C 336.859375 202.007812 336.875 202.261719 336.847656 202.507812 C 336.824219 202.753906 336.769531 203.019531 336.550781 203.253906 C 336.328125 203.492188 335.957031 203.503906 335.71875 203.28125 C 335.484375 203.0625 335.46875 202.6875 335.691406 202.453125 C 335.722656 202.417969 335.65625 202.503906 335.660156 202.496094 C 335.664062 202.480469 335.671875 202.445312 335.679688 202.390625 C 335.691406 202.269531 335.6875 202.089844 335.660156 201.878906 C 335.605469 201.4375 335.476562 200.898438 335.308594 200.386719 C 335.054688 199.601562 334.566406 198.742188 334.53125 197.648438 C 334.515625 197.121094 334.511719 196.578125 334.484375 196.132812 C 334.476562 195.957031 334.460938 195.777344 334.433594 195.660156 C 334.425781 195.605469 334.425781 195.605469 334.417969 195.589844 C 334.410156 195.578125 334.511719 195.707031 334.472656 195.667969 C 334.433594 195.625 334.796875 195.824219 334.691406 195.792969 C 334.621094 195.777344 334.941406 195.789062 334.894531 195.800781 C 334.847656 195.808594 334.988281 195.761719 334.976562 195.769531 C 334.957031 195.777344 334.960938 195.777344 334.921875 195.828125 C 334.828125 195.9375 334.707031 196.148438 334.59375 196.421875 C 334.347656 197.027344 334.105469 197.863281 333.867188 198.730469 C 333.648438 199.535156 333.445312 200.375 333.25 201.113281 C 333.058594 201.824219 332.929688 202.394531 332.628906 202.816406 C 332.585938 202.878906 332.527344 202.949219 332.429688 203.015625 C 332.3125 203.089844 332.128906 203.148438 331.945312 203.113281 C 331.753906 203.070312 331.628906 202.960938 331.5625 202.871094 C 331.5 202.792969 331.46875 202.722656 331.445312 202.660156 C 331.355469 202.425781 331.347656 202.214844 331.339844 201.949219 C 331.324219 201.527344 331.335938 201.011719 331.339844 200.476562 C 331.34375 199.261719 331.335938 197.984375 331.277344 197.734375 "/>
<path style=" stroke:none;fill-rule:nonzero;fill:rgb(0%,43.528748%,100%);fill-opacity:1;" d="M 332.847656 199.609375 C 332.527344 199.566406 332.300781 199.269531 332.34375 198.949219 C 332.386719 198.628906 332.679688 198.402344 333.003906 198.445312 C 333.402344 198.496094 335.050781 198.320312 336.621094 198.390625 C 336.945312 198.40625 337.195312 198.679688 337.183594 199.003906 C 337.167969 199.328125 336.894531 199.582031 336.566406 199.566406 C 335.117188 199.5 333.648438 199.714844 332.847656 199.609375 "/>
<path style=" stroke:none;fill-rule:nonzero;fill:rgb(0%,43.528748%,100%);fill-opacity:1;" d="M 338.054688 197.683594 C 338.039062 197.359375 338.289062 197.082031 338.613281 197.066406 C 338.9375 197.050781 339.214844 197.300781 339.230469 197.625 C 339.25 198.003906 339.355469 198.570312 339.40625 199.285156 C 339.433594 199.703125 339.410156 200.117188 339.40625 200.488281 C 339.402344 200.863281 339.40625 201.214844 339.40625 201.503906 C 339.40625 201.664062 339.402344 201.796875 339.398438 201.882812 C 339.398438 201.921875 339.394531 201.917969 339.398438 201.933594 C 339.398438 201.941406 339.390625 201.882812 339.394531 201.902344 C 339.398438 201.921875 339.335938 201.703125 339.363281 201.777344 C 339.476562 202.082031 339.320312 202.417969 339.019531 202.53125 C 338.714844 202.644531 338.375 202.492188 338.261719 202.1875 C 338.207031 202.046875 338.222656 202.019531 338.222656 201.988281 C 338.21875 201.933594 338.222656 201.898438 338.222656 201.851562 C 338.226562 201.757812 338.230469 201.640625 338.230469 201.5 C 338.230469 201.230469 338.222656 200.867188 338.230469 200.46875 C 338.234375 200.078125 338.253906 199.691406 338.230469 199.367188 C 338.1875 198.722656 338.078125 198.1875 338.054688 197.683594 M 339.285156 202.335938 C 339.09375 202.59375 338.722656 202.648438 338.464844 202.453125 C 338.203125 202.257812 338.152344 201.890625 338.347656 201.628906 C 338.371094 201.59375 338.285156 201.726562 338.296875 201.707031 C 338.308594 201.683594 338.527344 200.332031 338.992188 199.074219 C 339.394531 197.988281 340 196.972656 340.785156 196.308594 C 341.273438 195.886719 341.867188 195.714844 342.390625 195.714844 C 342.769531 195.71875 343.179688 195.824219 343.511719 196.097656 C 344.140625 196.617188 344.246094 197.433594 344.324219 198.136719 C 344.394531 198.800781 344.390625 199.527344 344.105469 200.207031 C 343.558594 201.515625 342.191406 202.273438 340.964844 202.699219 C 340.367188 202.910156 339.804688 203.03125 339.328125 203.0625 C 339.09375 203.074219 338.882812 203.074219 338.664062 203.007812 C 338.429688 202.9375 338.050781 202.648438 338.078125 202.242188 C 338.101562 201.917969 338.382812 201.671875 338.707031 201.691406 C 339.03125 201.714844 339.273438 201.996094 339.253906 202.320312 C 339.25 202.378906 339.195312 202.050781 339.222656 202.117188 C 339.261719 202.214844 339.019531 201.882812 339.066406 201.917969 C 339.109375 201.945312 338.992188 201.878906 338.996094 201.878906 C 339 201.882812 339.105469 201.894531 339.253906 201.886719 C 339.585938 201.867188 340.066406 201.769531 340.578125 201.589844 C 341.625 201.226562 342.691406 200.542969 343.019531 199.753906 C 343.191406 199.339844 343.214844 198.820312 343.152344 198.265625 C 343.085938 197.664062 342.898438 197.117188 342.761719 197.003906 C 342.671875 196.929688 342.5625 196.894531 342.382812 196.894531 C 342.121094 196.890625 341.804688 196.984375 341.546875 197.203125 C 340.988281 197.675781 340.441406 198.550781 340.09375 199.484375 C 339.890625 200.035156 339.75 200.609375 339.640625 201.105469 C 339.535156 201.582031 339.523438 201.90625 339.335938 202.253906 C 339.328125 202.273438 339.3125 202.300781 339.285156 202.335938 "/>
<path style=" stroke:none;fill-rule:nonzero;fill:rgb(92.941284%,21.176147%,14.117432%);fill-opacity:1;" d="M 264.191406 68.304688 C 264.191406 68.734375 263.847656 69.078125 263.421875 69.078125 C 262.996094 69.078125 262.648438 68.734375 262.648438 68.304688 C 262.648438 68.253906 262.648438 68.011719 262.648438 67.769531 C 262.648438 67.574219 262.648438 67.414062 262.648438 67.390625 C 262.648438 66.964844 262.996094 66.621094 263.421875 66.621094 C 263.847656 66.621094 264.191406 66.964844 264.191406 67.390625 C 264.191406 67.414062 264.191406 67.574219 264.191406 67.769531 C 264.191406 68.011719 264.191406 68.253906 264.191406 68.304688 M 262.648438 67.390625 C 262.648438 66.964844 262.996094 66.621094 263.421875 66.621094 C 263.847656 66.621094 264.191406 66.964844 264.191406 67.390625 C 264.191406 67.472656 264.191406 67.675781 264.191406 67.949219 C 264.191406 68.449219 264.152344 69.042969 264.191406 69.703125 C 264.226562 70.269531 264.339844 70.933594 264.488281 71.5625 C 264.652344 72.261719 264.832031 72.867188 265.003906 73.277344 C 265.082031 73.464844 265.160156 73.597656 265.195312 73.640625 C 265.203125 73.65625 265.109375 73.582031 265.15625 73.613281 C 265.179688 73.628906 264.984375 73.539062 265.035156 73.554688 C 265.09375 73.574219 264.761719 73.53125 264.835938 73.527344 C 265.261719 73.511719 265.621094 73.84375 265.636719 74.269531 C 265.652344 74.695312 265.320312 75.054688 264.894531 75.070312 C 264.421875 75.089844 264.140625 74.800781 263.972656 74.582031 C 263.808594 74.371094 263.691406 74.136719 263.582031 73.875 C 263.355469 73.335938 263.164062 72.667969 262.984375 71.914062 C 262.824219 71.222656 262.695312 70.488281 262.652344 69.800781 C 262.605469 69.027344 262.648438 68.367188 262.648438 67.949219 C 262.648438 67.675781 262.648438 67.472656 262.648438 67.390625 "/>
<path style=" stroke:none;fill-rule:nonzero;fill:rgb(92.941284%,21.176147%,14.117432%);fill-opacity:1;" d="M 265.96875 73.363281 C 266.046875 72.945312 266.449219 72.667969 266.867188 72.742188 C 267.285156 72.820312 267.5625 73.222656 267.488281 73.640625 C 267.464844 73.765625 267.535156 74.378906 267.800781 74.601562 C 268.125 74.875 268.167969 75.363281 267.894531 75.6875 C 267.621094 76.015625 267.132812 76.058594 266.808594 75.785156 C 265.921875 75.039062 265.851562 74 265.96875 73.363281 "/>
<path style=" stroke:none;fill-rule:nonzero;fill:rgb(92.941284%,21.176147%,14.117432%);fill-opacity:1;" d="M 270.382812 66.164062 C 270.535156 66.5625 270.335938 67.007812 269.9375 67.160156 C 269.539062 67.3125 269.09375 67.113281 268.941406 66.714844 C 268.941406 66.710938 268.964844 66.761719 268.953125 66.738281 C 268.945312 66.722656 269.003906 66.820312 268.988281 66.796875 C 268.96875 66.765625 269.140625 66.960938 269.085938 66.910156 C 269.03125 66.859375 269.535156 67.128906 269.382812 67.082031 C 269.300781 67.058594 269.765625 67.105469 269.664062 67.113281 C 269.558594 67.121094 270.042969 66.988281 269.957031 67.03125 C 269.914062 67.058594 270.203125 66.832031 270.160156 66.878906 C 270.097656 66.945312 270.304688 66.65625 270.28125 66.703125 C 270.257812 66.75 270.335938 66.566406 270.328125 66.59375 C 270.304688 66.664062 270.351562 66.46875 270.351562 66.484375 C 270.347656 66.515625 270.351562 66.507812 270.355469 66.574219 C 270.363281 66.765625 270.429688 67.160156 270.488281 67.582031 C 270.558594 68.109375 270.558594 68.566406 270.617188 68.835938 C 270.65625 69.011719 270.722656 69.148438 270.753906 69.183594 C 270.785156 69.21875 270.628906 69.09375 270.65625 69.105469 C 270.679688 69.117188 270.632812 69.097656 270.65625 69.101562 C 270.71875 69.109375 270.867188 69.113281 271.066406 69.101562 C 271.589844 69.070312 272.292969 68.972656 272.953125 68.921875 C 273.398438 68.890625 273.855469 68.816406 274.371094 69.042969 C 274.699219 69.1875 274.921875 69.464844 275.03125 69.730469 C 275.136719 69.988281 275.160156 70.242188 275.152344 70.480469 C 275.109375 71.496094 274.402344 72.21875 273.765625 72.789062 C 273.414062 73.105469 273.046875 73.382812 272.601562 73.53125 C 272.148438 73.683594 271.574219 73.644531 271.132812 73.363281 C 270.773438 73.136719 270.667969 72.660156 270.894531 72.300781 C 271.125 71.941406 271.601562 71.832031 271.960938 72.0625 C 272.027344 72.105469 272.007812 72.101562 272.109375 72.070312 C 272.238281 72.027344 272.464844 71.882812 272.734375 71.640625 C 273.199219 71.222656 273.601562 70.550781 273.609375 70.417969 C 273.613281 70.351562 273.605469 70.328125 273.601562 70.320312 C 273.59375 70.296875 273.839844 70.496094 273.753906 70.457031 C 273.746094 70.457031 273.472656 70.433594 273.066406 70.460938 C 272.472656 70.503906 271.773438 70.605469 271.15625 70.640625 C 270.925781 70.65625 270.6875 70.667969 270.421875 70.628906 C 270.148438 70.585938 269.800781 70.457031 269.5625 70.167969 C 269.3125 69.867188 269.183594 69.519531 269.109375 69.164062 C 268.996094 68.652344 269.011719 68.183594 268.957031 67.792969 C 268.902344 67.394531 268.832031 67.007812 268.8125 66.660156 C 268.804688 66.511719 268.757812 66.433594 268.855469 66.132812 C 268.882812 66.035156 268.925781 65.84375 269.214844 65.675781 C 269.605469 65.472656 270.019531 65.671875 270.148438 65.789062 C 270.359375 65.992188 270.351562 66.078125 270.382812 66.164062 "/>
<path style=" stroke:none;fill-rule:nonzero;fill:rgb(92.941284%,21.176147%,14.117432%);fill-opacity:1;" d="M 271.199219 66.226562 C 271.265625 66.644531 270.976562 67.039062 270.554688 67.105469 C 270.132812 67.167969 269.738281 66.878906 269.675781 66.457031 C 269.601562 65.980469 269.757812 65.535156 269.976562 65.183594 C 270.195312 64.832031 270.484375 64.539062 270.800781 64.273438 C 271.429688 63.746094 272.171875 63.335938 272.820312 63.050781 C 273.210938 62.882812 273.667969 63.058594 273.839844 63.449219 C 274.007812 63.839844 273.832031 64.296875 273.441406 64.464844 C 272.902344 64.699219 272.265625 65.0625 271.789062 65.457031 C 271.558594 65.648438 271.382812 65.84375 271.285156 65.996094 C 271.199219 66.136719 271.199219 66.207031 271.199219 66.226562 "/>
<path style=" stroke:none;fill-rule:nonzero;fill:rgb(92.941284%,21.176147%,14.117432%);fill-opacity:1;" d="M 277.394531 61.675781 C 277.820312 61.675781 278.164062 62.023438 278.164062 62.449219 C 278.164062 62.875 277.820312 63.21875 277.394531 63.21875 C 277.308594 63.21875 277.824219 63.089844 277.707031 63.148438 C 277.617188 63.191406 278.015625 62.886719 277.949219 62.960938 C 277.855469 63.074219 278.125 62.558594 278.109375 62.648438 C 278.089844 62.726562 278.121094 62.425781 278.121094 62.46875 C 278.125 62.53125 278.105469 62.359375 278.109375 62.367188 C 278.109375 62.375 278.109375 62.375 278.117188 62.394531 C 278.15625 62.484375 278.253906 62.675781 278.386719 62.910156 C 278.671875 63.40625 279.082031 64.042969 279.488281 64.671875 C 279.847656 65.234375 280.160156 65.769531 280.414062 66.152344 C 280.582031 66.40625 280.722656 66.578125 280.777344 66.632812 C 280.832031 66.6875 280.71875 66.613281 280.789062 66.65625 C 280.839844 66.6875 280.398438 66.566406 280.527344 66.578125 C 280.664062 66.585938 280.050781 66.710938 280.148438 66.65625 C 280.214844 66.621094 279.960938 66.8125 279.992188 66.777344 C 280.046875 66.722656 279.917969 66.886719 279.921875 66.875 C 279.921875 66.875 279.96875 66.734375 280.035156 66.550781 C 280.242188 65.992188 280.574219 65.496094 280.789062 64.917969 C 281.089844 64.109375 281.273438 62.980469 281.488281 61.863281 C 281.59375 61.308594 281.691406 60.769531 281.8125 60.277344 C 281.929688 59.8125 282.085938 59.425781 282.257812 59.105469 C 282.449219 58.75 282.703125 58.472656 283.058594 58.101562 C 283.355469 57.796875 283.84375 57.785156 284.152344 58.082031 C 284.457031 58.378906 284.46875 58.867188 284.171875 59.171875 C 283.832031 59.527344 283.710938 59.664062 283.617188 59.835938 C 283.503906 60.046875 283.398438 60.308594 283.308594 60.65625 C 283.207031 61.070312 283.113281 61.589844 283.003906 62.15625 C 282.792969 63.246094 282.617188 64.433594 282.234375 65.457031 C 281.957031 66.207031 281.59375 66.78125 281.484375 67.082031 C 281.414062 67.269531 281.582031 67.621094 280.902344 68.003906 C 280.625 68.160156 280.195312 68.097656 280.007812 67.988281 C 279.847656 67.894531 279.777344 67.8125 279.710938 67.75 C 279.5 67.546875 279.328125 67.304688 279.128906 67.007812 C 278.835938 66.566406 278.53125 66.039062 278.1875 65.507812 C 277.78125 64.871094 277.363281 64.222656 277.050781 63.679688 C 276.898438 63.417969 276.777344 63.195312 276.6875 62.972656 C 276.640625 62.863281 276.59375 62.757812 276.582031 62.554688 C 276.574219 62.4375 276.570312 62.261719 276.714844 62.042969 C 276.867188 61.8125 277.1875 61.675781 277.394531 61.675781 "/>
</g>
</svg>
