<?xml version="1.0" encoding="UTF-8"?>
<svg xmlns="http://www.w3.org/2000/svg" xmlns:xlink="http://www.w3.org/1999/xlink" width="350.4844pt" height="280.7325pt" viewBox="0 0 350.4844 280.7325" version="1.2">
<g id="surface1">
<path style=" stroke:none;fill-rule:nonzero;fill:rgb(7.058716%,1.176453%,46.665955%);fill-opacity:1;" d="M 96.046875 141.230469 C 96.046875 140.90625 96.308594 140.644531 96.632812 140.644531 C 96.957031 140.644531 97.222656 140.90625 97.222656 141.230469 L 97.222656 173.292969 C 97.222656 173.617188 96.957031 173.878906 96.632812 173.878906 C 96.308594 173.878906 96.046875 173.617188 96.046875 173.292969 Z M 96.046875 141.230469 "/>
<path style=" stroke:none;fill-rule:nonzero;fill:rgb(7.058716%,1.176453%,46.665955%);fill-opacity:1;" d="M 249.1875 172.703125 C 249.515625 172.703125 249.777344 172.96875 249.777344 173.292969 C 249.777344 173.617188 249.515625 173.878906 249.1875 173.878906 L 96.632812 173.878906 C 96.304688 173.878906 96.042969 173.617188 96.042969 173.292969 C 96.042969 172.96875 96.304688 172.703125 96.632812 172.703125 Z M 249.1875 172.703125 "/>
<path style=" stroke:none;fill-rule:nonzero;fill:rgb(7.058716%,1.176453%,46.665955%);fill-opacity:1;" d="M 249.1875 173.878906 C 248.863281 173.878906 248.601562 173.617188 248.601562 173.292969 C 248.601562 172.96875 248.863281 172.703125 249.1875 172.703125 L 284.011719 172.703125 C 284.339844 172.703125 284.601562 172.96875 284.601562 173.292969 C 284.601562 173.617188 284.339844 173.878906 284.011719 173.878906 Z M 249.1875 173.878906 "/>
<path style=" stroke:none;fill-rule:nonzero;fill:rgb(7.058716%,1.176453%,46.665955%);fill-opacity:1;" d="M 248.597656 158.53125 C 248.597656 158.207031 248.859375 157.941406 249.183594 157.941406 C 249.511719 157.941406 249.773438 158.207031 249.773438 158.53125 L 249.773438 173.292969 C 249.773438 173.617188 249.511719 173.878906 249.183594 173.878906 C 248.859375 173.878906 248.597656 173.617188 248.597656 173.292969 Z M 248.597656 158.53125 "/>
<path style=" stroke:none;fill-rule:nonzero;fill:rgb(7.058716%,1.176453%,46.665955%);fill-opacity:1;" d="M 245.539062 93.613281 C 245.824219 93.457031 246.179688 93.5625 246.335938 93.847656 C 246.492188 94.132812 246.386719 94.488281 246.101562 94.644531 C 245.988281 94.707031 245.898438 94.753906 245.828125 94.785156 C 245.757812 94.820312 245.703125 94.84375 245.679688 94.855469 C 245.667969 94.863281 245.703125 94.839844 245.683594 94.851562 C 245.675781 94.859375 245.761719 94.792969 245.738281 94.8125 C 245.710938 94.835938 245.894531 94.609375 245.851562 94.683594 C 245.679688 94.957031 245.320312 95.046875 245.042969 94.875 C 244.765625 94.707031 244.675781 94.347656 244.847656 94.070312 C 245.003906 93.808594 245.101562 93.835938 245.144531 93.816406 C 245.242188 93.777344 245.257812 93.773438 245.277344 93.761719 C 245.292969 93.753906 245.40625 93.660156 245.558594 93.539062 C 245.820312 93.328125 246.144531 93.070312 246.539062 92.746094 C 246.878906 92.464844 247.28125 92.113281 247.769531 91.722656 C 248.078125 91.480469 248.40625 91.230469 248.738281 90.984375 C 249.066406 90.742188 249.398438 90.507812 249.722656 90.28125 C 249.855469 90.191406 249.984375 90.109375 250.101562 90.03125 C 250.402344 89.828125 250.683594 89.640625 250.945312 89.464844 C 251.285156 89.234375 251.585938 89.003906 251.859375 88.792969 C 252.039062 88.652344 252.199219 88.519531 252.351562 88.390625 C 252.726562 88.074219 253.046875 87.765625 253.34375 87.503906 C 253.507812 87.359375 253.664062 87.238281 253.792969 87.136719 C 253.933594 87.03125 254.0625 86.945312 254.175781 86.882812 C 254.199219 86.867188 254.25 86.824219 254.382812 86.769531 C 254.574219 86.691406 254.722656 86.660156 254.757812 86.644531 C 254.761719 86.644531 254.722656 86.667969 254.738281 86.65625 C 254.757812 86.644531 254.617188 86.777344 254.652344 86.734375 C 254.691406 86.6875 254.550781 86.980469 254.566406 86.910156 C 254.582031 86.84375 254.566406 87.121094 254.558594 87.082031 C 254.5 86.761719 254.714844 86.453125 255.03125 86.394531 C 255.351562 86.335938 255.660156 86.546875 255.71875 86.867188 C 255.753906 87.0625 255.695312 87.320312 255.5625 87.480469 C 255.441406 87.628906 255.308594 87.691406 255.207031 87.734375 C 255.023438 87.808594 254.894531 87.832031 254.828125 87.859375 C 254.789062 87.875 254.835938 87.859375 254.753906 87.90625 C 254.6875 87.945312 254.605469 87.996094 254.507812 88.074219 C 254.390625 88.160156 254.261719 88.265625 254.121094 88.386719 C 253.851562 88.625 253.515625 88.945312 253.117188 89.285156 C 252.953125 89.425781 252.777344 89.570312 252.578125 89.726562 C 252.300781 89.941406 251.976562 90.1875 251.605469 90.4375 C 251.339844 90.621094 251.054688 90.808594 250.753906 91.011719 C 250.628906 91.09375 250.507812 91.171875 250.394531 91.25 C 250.078125 91.46875 249.753906 91.699219 249.4375 91.933594 C 249.113281 92.171875 248.796875 92.414062 248.503906 92.644531 C 248.035156 93.015625 247.644531 93.359375 247.289062 93.652344 C 246.882812 93.988281 246.550781 94.25 246.292969 94.457031 C 246.171875 94.550781 246.0625 94.664062 245.875 94.777344 C 245.773438 94.835938 245.6875 94.871094 245.628906 94.890625 C 245.605469 94.898438 245.613281 94.894531 245.601562 94.902344 C 245.59375 94.90625 245.695312 94.851562 245.660156 94.871094 C 245.640625 94.882812 245.765625 94.789062 245.734375 94.816406 C 245.703125 94.847656 245.894531 94.609375 245.851562 94.679688 L 244.847656 94.066406 C 245.019531 93.785156 245.113281 93.820312 245.171875 93.792969 C 245.226562 93.769531 245.269531 93.75 245.304688 93.734375 C 245.371094 93.699219 245.445312 93.664062 245.539062 93.613281 "/>
<path style=" stroke:none;fill-rule:nonzero;fill:rgb(92.941284%,21.176147%,14.117432%);fill-opacity:1;" d="M 263.289062 163.304688 C 263.382812 163.617188 263.207031 163.945312 262.898438 164.039062 C 262.585938 164.136719 262.257812 163.960938 262.164062 163.648438 C 262.144531 163.585938 262.230469 163.765625 262.214844 163.746094 C 262.195312 163.726562 262.429688 163.855469 262.347656 163.828125 C 262.265625 163.804688 262.632812 163.835938 262.574219 163.84375 C 262.519531 163.855469 262.699219 163.796875 262.679688 163.808594 C 262.652344 163.824219 262.695312 163.796875 262.667969 163.824219 C 262.617188 163.875 262.519531 163.996094 262.398438 164.195312 C 262.246094 164.441406 262.078125 164.710938 261.9375 165.046875 C 261.78125 165.414062 261.640625 165.859375 261.546875 166.382812 C 261.464844 166.84375 261.445312 167.296875 261.476562 167.640625 C 261.496094 167.867188 261.570312 167.972656 261.617188 168.011719 C 261.625 168.023438 261.699219 168.050781 261.878906 168.015625 C 262.074219 167.972656 262.292969 167.878906 262.507812 167.722656 C 262.742188 167.550781 262.972656 167.320312 263.164062 167.0625 C 263.382812 166.773438 263.542969 166.457031 263.621094 166.128906 C 263.660156 165.976562 263.675781 165.804688 263.675781 165.621094 C 263.671875 165.390625 263.617188 165.121094 263.53125 164.847656 C 263.441406 164.574219 263.308594 164.300781 263.171875 164.078125 C 262.988281 163.785156 262.785156 163.648438 262.679688 163.621094 C 262.597656 163.601562 262.597656 163.59375 262.527344 163.683594 C 262.332031 163.941406 261.960938 163.992188 261.703125 163.792969 C 261.445312 163.597656 261.398438 163.226562 261.59375 162.96875 C 261.914062 162.550781 262.492188 162.355469 262.980469 162.484375 C 263.464844 162.613281 263.867188 162.972656 264.167969 163.453125 C 264.359375 163.757812 264.527344 164.109375 264.648438 164.484375 C 264.765625 164.839844 264.847656 165.214844 264.851562 165.605469 C 264.855469 165.875 264.828125 166.144531 264.765625 166.40625 C 264.644531 166.914062 264.40625 167.371094 264.105469 167.769531 C 263.847656 168.113281 263.542969 168.421875 263.203125 168.671875 C 262.863281 168.921875 262.492188 169.089844 262.121094 169.167969 C 261.726562 169.246094 261.214844 169.234375 260.828125 168.886719 C 260.539062 168.628906 260.347656 168.222656 260.304688 167.753906 C 260.257812 167.277344 260.289062 166.734375 260.390625 166.175781 C 260.5 165.5625 260.664062 165.035156 260.855469 164.589844 C 261.035156 164.160156 261.242188 163.828125 261.394531 163.582031 C 261.546875 163.328125 261.691406 163.128906 261.855469 162.976562 C 261.929688 162.902344 262.015625 162.828125 262.132812 162.765625 C 262.261719 162.699219 262.464844 162.632812 262.699219 162.707031 C 263.058594 162.820312 263.207031 163.035156 263.289062 163.304688 "/>
<path style=" stroke:none;fill-rule:nonzero;fill:rgb(92.941284%,21.176147%,14.117432%);fill-opacity:1;" d="M 266.351562 167.777344 C 266.339844 167.453125 266.59375 167.183594 266.917969 167.171875 C 267.242188 167.160156 267.515625 167.414062 267.527344 167.738281 C 267.53125 167.902344 267.515625 168.054688 267.496094 168.25 C 267.441406 168.875 267.390625 169.898438 267.40625 170 C 267.457031 170.324219 267.234375 170.621094 266.910156 170.667969 C 266.589844 170.71875 266.292969 170.496094 266.242188 170.171875 C 266.167969 169.65625 266.265625 168.800781 266.324219 168.144531 C 266.34375 167.953125 266.351562 167.816406 266.351562 167.777344 "/>
<path style=" stroke:none;fill-rule:nonzero;fill:rgb(92.941284%,21.176147%,14.117432%);fill-opacity:1;" d="M 270.394531 162.15625 C 270.472656 162.472656 270.28125 162.789062 269.964844 162.867188 C 269.648438 162.945312 269.328125 162.75 269.253906 162.4375 C 269.238281 162.375 269.222656 162.300781 269.230469 162.1875 C 269.238281 162.066406 269.300781 161.855469 269.496094 161.71875 C 269.714844 161.574219 269.921875 161.605469 270.03125 161.636719 C 270.132812 161.667969 270.191406 161.707031 270.242188 161.742188 C 270.40625 161.855469 270.476562 161.953125 270.558594 162.054688 C 270.816406 162.367188 271.128906 162.839844 271.46875 163.425781 C 271.613281 163.675781 271.769531 163.945312 271.917969 164.226562 C 272.066406 164.507812 272.203125 164.792969 272.328125 165.066406 C 272.445312 165.332031 272.546875 165.589844 272.625 165.828125 C 272.738281 166.15625 272.796875 166.453125 272.835938 166.695312 C 272.875 166.960938 272.921875 167.199219 272.890625 167.46875 C 272.863281 167.71875 272.742188 168.046875 272.484375 168.25 C 272.203125 168.46875 271.898438 168.535156 271.617188 168.5625 C 271.332031 168.589844 270.957031 168.546875 270.664062 168.285156 C 270.3125 167.96875 270.265625 167.574219 270.25 167.226562 C 270.242188 167.023438 270.246094 166.792969 270.296875 166.546875 C 270.378906 166.128906 270.589844 165.777344 270.808594 165.441406 C 271.046875 165.078125 271.335938 164.742188 271.644531 164.359375 C 271.851562 164.101562 272.066406 163.824219 272.269531 163.550781 C 272.53125 163.191406 272.757812 162.839844 272.898438 162.5625 C 273.011719 162.328125 273 162.226562 272.96875 162.152344 C 272.945312 162.089844 272.875 161.996094 272.746094 161.898438 C 272.574219 161.769531 272.371094 161.664062 272.136719 161.605469 C 272.003906 161.574219 271.84375 161.558594 271.667969 161.554688 C 271.425781 161.550781 271.203125 161.570312 271.03125 161.617188 C 270.871094 161.664062 270.691406 161.800781 270.554688 161.929688 C 270.484375 161.996094 270.503906 161.980469 270.496094 162.011719 C 270.433594 162.332031 270.128906 162.539062 269.808594 162.480469 C 269.488281 162.417969 269.28125 162.109375 269.339844 161.792969 C 269.386719 161.546875 269.535156 161.28125 269.738281 161.085938 C 269.9375 160.890625 270.253906 160.613281 270.714844 160.484375 C 271.042969 160.394531 271.375 160.371094 271.683594 160.378906 C 271.921875 160.382812 272.171875 160.402344 272.421875 160.464844 C 272.820312 160.5625 273.167969 160.742188 273.453125 160.957031 C 273.703125 161.144531 273.945312 161.398438 274.070312 161.738281 C 274.222656 162.136719 274.175781 162.628906 273.953125 163.082031 C 273.765625 163.460938 273.503906 163.855469 273.21875 164.246094 C 273.003906 164.539062 272.78125 164.828125 272.5625 165.097656 C 272.246094 165.492188 271.972656 165.8125 271.792969 166.085938 C 271.605469 166.375 271.484375 166.609375 271.449219 166.777344 C 271.425781 166.902344 271.417969 167.035156 271.425781 167.171875 C 271.429688 167.269531 271.445312 167.351562 271.460938 167.398438 C 271.472656 167.441406 271.414062 167.378906 271.449219 167.40625 C 271.476562 167.429688 271.414062 167.398438 271.507812 167.390625 C 271.628906 167.378906 271.753906 167.328125 271.757812 167.320312 C 271.785156 167.304688 271.714844 167.410156 271.722656 167.347656 C 271.726562 167.296875 271.710938 167.128906 271.671875 166.878906 C 271.640625 166.675781 271.59375 166.449219 271.511719 166.203125 C 271.441406 166 271.355469 165.777344 271.253906 165.546875 C 271.140625 165.296875 271.011719 165.035156 270.875 164.777344 C 270.742188 164.519531 270.59375 164.265625 270.449219 164.015625 C 270.132812 163.472656 269.835938 163.027344 269.648438 162.800781 C 269.582031 162.722656 269.628906 162.75 269.578125 162.710938 C 269.5625 162.699219 269.765625 162.785156 269.691406 162.765625 C 269.652344 162.753906 269.941406 162.785156 269.863281 162.785156 C 269.78125 162.789062 270.25 162.632812 270.152344 162.695312 C 270.074219 162.75 270.390625 162.378906 270.355469 162.457031 C 270.324219 162.53125 270.40625 162.234375 270.402344 162.277344 C 270.394531 162.359375 270.394531 162.144531 270.394531 162.15625 "/>
<path style=" stroke:none;fill-rule:nonzero;fill:rgb(92.941284%,21.176147%,14.117432%);fill-opacity:1;" d="M 276.316406 161.550781 C 276.085938 161.320312 276.082031 160.949219 276.308594 160.71875 C 276.535156 160.484375 276.910156 160.484375 277.140625 160.710938 C 277.199219 160.769531 277.292969 160.867188 277.402344 161.015625 C 277.617188 161.304688 277.855469 161.726562 278.105469 162.292969 C 278.21875 162.546875 278.324219 162.820312 278.425781 163.101562 C 278.539062 163.410156 278.625 163.722656 278.703125 164.015625 C 278.886719 164.707031 278.972656 165.335938 279.046875 165.769531 C 279.101562 166.085938 279.15625 166.21875 279.179688 166.265625 C 279.203125 166.304688 279.21875 166.328125 279.21875 166.328125 C 279.21875 166.332031 279.121094 166.25 279.164062 166.277344 C 279.199219 166.304688 278.871094 166.25 278.945312 166.234375 C 278.988281 166.226562 278.878906 166.257812 278.882812 166.253906 C 278.886719 166.253906 278.988281 166.167969 279.109375 166.011719 C 279.316406 165.738281 279.550781 165.320312 279.757812 164.734375 C 279.933594 164.234375 280.054688 163.558594 280.207031 162.808594 C 280.273438 162.480469 280.332031 162.128906 280.398438 161.78125 C 280.492188 161.292969 280.59375 160.84375 280.714844 160.472656 C 280.871094 159.996094 281.03125 159.628906 281.152344 159.375 C 281.214844 159.242188 281.265625 159.148438 281.289062 159.089844 C 281.3125 159.046875 281.285156 159.171875 281.292969 159.109375 C 281.335938 158.789062 281.632812 158.5625 281.953125 158.605469 C 282.277344 158.644531 282.503906 158.941406 282.460938 159.265625 C 282.421875 159.542969 282.328125 159.644531 282.214844 159.878906 C 282.109375 160.101562 281.972656 160.417969 281.832031 160.839844 C 281.738281 161.125 281.644531 161.542969 281.554688 162.003906 C 281.488281 162.332031 281.433594 162.683594 281.359375 163.042969 C 281.210938 163.78125 281.089844 164.496094 280.867188 165.125 C 280.625 165.8125 280.335938 166.339844 280.046875 166.722656 C 279.820312 167.023438 279.605469 167.3125 279.160156 167.390625 C 278.914062 167.4375 278.65625 167.359375 278.488281 167.242188 C 278.292969 167.105469 278.21875 166.953125 278.160156 166.851562 C 278.035156 166.632812 277.953125 166.359375 277.886719 165.964844 C 277.808594 165.507812 277.730469 164.929688 277.566406 164.320312 C 277.492188 164.042969 277.414062 163.761719 277.320312 163.5 C 277.226562 163.242188 277.128906 162.992188 277.03125 162.769531 C 276.808594 162.265625 276.59375 161.902344 276.457031 161.71875 C 276.382812 161.621094 276.335938 161.570312 276.316406 161.550781 "/>
<path style=" stroke:none;fill-rule:nonzero;fill:rgb(7.058716%,1.176453%,46.665955%);fill-opacity:1;" d="M 62.261719 41.734375 C 62.261719 41.40625 62.527344 41.144531 62.851562 41.144531 C 63.175781 41.144531 63.441406 41.40625 63.441406 41.734375 L 63.441406 57.273438 C 63.441406 57.597656 63.175781 57.863281 62.851562 57.863281 C 62.527344 57.863281 62.261719 57.597656 62.261719 57.273438 Z M 62.261719 41.734375 "/>
<path style=" stroke:none;fill-rule:nonzero;fill:rgb(7.058716%,1.176453%,46.665955%);fill-opacity:1;" d="M 62.261719 92.507812 C 62.261719 92.183594 62.527344 91.921875 62.851562 91.921875 C 63.175781 91.921875 63.441406 92.183594 63.441406 92.507812 L 63.441406 109.003906 C 63.441406 109.332031 63.175781 109.59375 62.851562 109.59375 C 62.527344 109.59375 62.261719 109.332031 62.261719 109.003906 Z M 62.261719 92.507812 "/>
<path style=" stroke:none;fill-rule:nonzero;fill:rgb(7.058716%,1.176453%,46.665955%);fill-opacity:1;" d="M 62.699219 56.800781 C 62.960938 56.609375 63.328125 56.664062 63.523438 56.925781 C 63.714844 57.1875 63.660156 57.554688 63.398438 57.746094 L 58.101562 61.652344 C 57.839844 61.847656 57.46875 61.789062 57.277344 61.527344 C 57.085938 61.265625 57.140625 60.898438 57.402344 60.707031 Z M 62.699219 56.800781 "/>
<path style=" stroke:none;fill-rule:nonzero;fill:rgb(7.058716%,1.176453%,46.665955%);fill-opacity:1;" d="M 57.449219 61.683594 C 57.167969 61.515625 57.078125 61.152344 57.246094 60.875 C 57.414062 60.597656 57.777344 60.507812 58.054688 60.675781 L 68.253906 66.820312 C 68.53125 66.988281 68.621094 67.351562 68.453125 67.628906 C 68.285156 67.90625 67.925781 67.996094 67.648438 67.828125 Z M 57.449219 61.683594 "/>
<path style=" stroke:none;fill-rule:nonzero;fill:rgb(7.058716%,1.176453%,46.665955%);fill-opacity:1;" d="M 67.601562 66.851562 C 67.863281 66.660156 68.230469 66.714844 68.425781 66.976562 C 68.617188 67.238281 68.5625 67.605469 68.300781 67.796875 L 58.101562 75.316406 C 57.839844 75.511719 57.46875 75.453125 57.277344 75.191406 C 57.085938 74.929688 57.140625 74.5625 57.402344 74.371094 Z M 67.601562 66.851562 "/>
<path style=" stroke:none;fill-rule:nonzero;fill:rgb(7.058716%,1.176453%,46.665955%);fill-opacity:1;" d="M 57.449219 75.347656 C 57.167969 75.179688 57.078125 74.820312 57.246094 74.539062 C 57.414062 74.261719 57.777344 74.171875 58.054688 74.339844 L 68.253906 80.484375 C 68.53125 80.652344 68.621094 81.015625 68.453125 81.292969 C 68.285156 81.570312 67.925781 81.660156 67.648438 81.492188 Z M 57.449219 75.347656 "/>
<path style=" stroke:none;fill-rule:nonzero;fill:rgb(7.058716%,1.176453%,46.665955%);fill-opacity:1;" d="M 67.601562 80.515625 C 67.863281 80.324219 68.230469 80.378906 68.425781 80.640625 C 68.617188 80.902344 68.5625 81.269531 68.300781 81.464844 L 58.101562 88.980469 C 57.839844 89.175781 57.46875 89.117188 57.277344 88.855469 C 57.085938 88.597656 57.140625 88.226562 57.402344 88.035156 Z M 67.601562 80.515625 "/>
<path style=" stroke:none;fill-rule:nonzero;fill:rgb(7.058716%,1.176453%,46.665955%);fill-opacity:1;" d="M 57.386719 88.972656 C 57.132812 88.769531 57.089844 88.402344 57.289062 88.144531 C 57.488281 87.890625 57.859375 87.84375 58.113281 88.046875 L 63.214844 92.046875 C 63.46875 92.246094 63.515625 92.617188 63.3125 92.871094 C 63.113281 93.128906 62.742188 93.171875 62.488281 92.972656 Z M 57.386719 88.972656 "/>
<path style=" stroke:none;fill-rule:nonzero;fill:rgb(7.058716%,1.176453%,46.665955%);fill-opacity:1;" d="M 62.261719 110.183594 C 62.261719 109.859375 62.527344 109.59375 62.851562 109.59375 C 63.175781 109.59375 63.441406 109.859375 63.441406 110.183594 L 63.441406 125.722656 C 63.441406 126.046875 63.175781 126.3125 62.851562 126.3125 C 62.527344 126.3125 62.261719 126.046875 62.261719 125.722656 Z M 62.261719 110.183594 "/>
<path style=" stroke:none;fill-rule:nonzero;fill:rgb(7.058716%,1.176453%,46.665955%);fill-opacity:1;" d="M 62.261719 160.957031 C 62.261719 160.632812 62.527344 160.371094 62.851562 160.371094 C 63.175781 160.371094 63.441406 160.632812 63.441406 160.957031 L 63.441406 177.457031 C 63.441406 177.78125 63.175781 178.042969 62.851562 178.042969 C 62.527344 178.042969 62.261719 177.78125 62.261719 177.457031 Z M 62.261719 160.957031 "/>
<path style=" stroke:none;fill-rule:nonzero;fill:rgb(7.058716%,1.176453%,46.665955%);fill-opacity:1;" d="M 62.699219 125.25 C 62.960938 125.058594 63.328125 125.113281 63.523438 125.375 C 63.714844 125.636719 63.660156 126.003906 63.398438 126.199219 L 58.101562 130.101562 C 57.839844 130.296875 57.46875 130.238281 57.277344 129.976562 C 57.085938 129.714844 57.140625 129.347656 57.402344 129.15625 Z M 62.699219 125.25 "/>
<path style=" stroke:none;fill-rule:nonzero;fill:rgb(7.058716%,1.176453%,46.665955%);fill-opacity:1;" d="M 57.449219 130.132812 C 57.167969 129.964844 57.078125 129.605469 57.246094 129.324219 C 57.414062 129.046875 57.777344 128.957031 58.054688 129.125 L 68.253906 135.269531 C 68.53125 135.4375 68.621094 135.800781 68.453125 136.078125 C 68.285156 136.355469 67.925781 136.445312 67.648438 136.277344 Z M 57.449219 130.132812 "/>
<path style=" stroke:none;fill-rule:nonzero;fill:rgb(7.058716%,1.176453%,46.665955%);fill-opacity:1;" d="M 67.601562 135.300781 C 67.863281 135.109375 68.230469 135.164062 68.425781 135.425781 C 68.617188 135.6875 68.5625 136.054688 68.300781 136.25 L 58.101562 143.765625 C 57.839844 143.960938 57.46875 143.90625 57.277344 143.644531 C 57.085938 143.382812 57.140625 143.011719 57.402344 142.820312 Z M 67.601562 135.300781 "/>
<path style=" stroke:none;fill-rule:nonzero;fill:rgb(7.058716%,1.176453%,46.665955%);fill-opacity:1;" d="M 57.449219 143.796875 C 57.167969 143.628906 57.078125 143.269531 57.246094 142.988281 C 57.414062 142.710938 57.777344 142.621094 58.054688 142.789062 L 68.253906 148.933594 C 68.53125 149.101562 68.621094 149.464844 68.453125 149.742188 C 68.285156 150.019531 67.925781 150.109375 67.648438 149.941406 Z M 57.449219 143.796875 "/>
<path style=" stroke:none;fill-rule:nonzero;fill:rgb(7.058716%,1.176453%,46.665955%);fill-opacity:1;" d="M 67.601562 148.964844 C 67.863281 148.773438 68.230469 148.828125 68.425781 149.089844 C 68.617188 149.351562 68.5625 149.71875 68.300781 149.914062 L 58.101562 157.433594 C 57.839844 157.625 57.46875 157.570312 57.277344 157.308594 C 57.085938 157.046875 57.140625 156.675781 57.402344 156.484375 Z M 67.601562 148.964844 "/>
<path style=" stroke:none;fill-rule:nonzero;fill:rgb(7.058716%,1.176453%,46.665955%);fill-opacity:1;" d="M 57.386719 157.421875 C 57.132812 157.21875 57.089844 156.851562 57.289062 156.59375 C 57.488281 156.339844 57.859375 156.292969 58.113281 156.496094 L 63.214844 160.496094 C 63.46875 160.695312 63.515625 161.066406 63.3125 161.320312 C 63.113281 161.578125 62.742188 161.621094 62.488281 161.421875 Z M 57.386719 157.421875 "/>
<path style=" stroke:none;fill-rule:nonzero;fill:rgb(7.058716%,1.176453%,46.665955%);fill-opacity:1;" d="M 97.164062 109.207031 C 97.488281 109.207031 97.75 109.472656 97.75 109.796875 C 97.75 110.121094 97.488281 110.382812 97.164062 110.382812 L 62.851562 110.382812 C 62.527344 110.382812 62.261719 110.121094 62.261719 109.796875 C 62.261719 109.472656 62.527344 109.207031 62.851562 109.207031 Z M 97.164062 109.207031 "/>
<path style=" stroke:none;fill-rule:nonzero;fill:rgb(7.058716%,1.176453%,46.665955%);fill-opacity:1;" d="M 62.851562 41.203125 C 63.175781 41.203125 63.441406 41.46875 63.441406 41.792969 C 63.441406 42.117188 63.175781 42.382812 62.851562 42.382812 L 37.410156 42.382812 C 37.085938 42.382812 36.820312 42.117188 36.820312 41.792969 C 36.820312 41.46875 37.085938 41.203125 37.410156 41.203125 Z M 62.851562 41.203125 "/>
<path style=" stroke:none;fill-rule:nonzero;fill:rgb(7.058716%,1.176453%,46.665955%);fill-opacity:1;" d="M 38 42.148438 C 38 43.617188 37.203125 44.902344 36.023438 45.589844 C 35.433594 45.9375 34.746094 46.132812 34.015625 46.132812 C 32.546875 46.132812 31.265625 45.339844 30.574219 44.15625 C 30.230469 43.566406 30.03125 42.882812 30.03125 42.148438 C 30.03125 40.683594 30.828125 39.398438 32.007812 38.707031 C 32.597656 38.363281 33.285156 38.167969 34.015625 38.167969 C 35.484375 38.167969 36.765625 38.960938 37.457031 40.144531 C 37.800781 40.734375 38 41.417969 38 42.148438 M 36.820312 42.148438 C 36.820312 41.636719 36.683594 41.152344 36.441406 40.738281 C 35.953125 39.902344 35.050781 39.34375 34.015625 39.34375 C 33.5 39.34375 33.015625 39.480469 32.601562 39.726562 C 31.769531 40.210938 31.210938 41.117188 31.210938 42.148438 C 31.210938 42.664062 31.347656 43.148438 31.589844 43.5625 C 32.078125 44.394531 32.980469 44.957031 34.015625 44.957031 C 34.53125 44.957031 35.011719 44.816406 35.429688 44.574219 C 36.261719 44.089844 36.820312 43.183594 36.820312 42.148438 "/>
<path style=" stroke:none;fill-rule:nonzero;fill:rgb(7.058716%,1.176453%,46.665955%);fill-opacity:1;" d="M 62.261719 176.535156 C 62.261719 176.210938 62.527344 175.949219 62.851562 175.949219 C 63.175781 175.949219 63.441406 176.210938 63.441406 176.535156 L 63.441406 187.335938 C 63.441406 187.660156 63.175781 187.921875 62.851562 187.921875 C 62.527344 187.921875 62.261719 187.660156 62.261719 187.335938 Z M 62.261719 176.535156 "/>
<path style=" stroke:none;fill-rule:nonzero;fill:rgb(7.058716%,1.176453%,46.665955%);fill-opacity:1;" d="M 54.453125 188.648438 C 54.128906 188.648438 53.867188 188.386719 53.867188 188.0625 C 53.867188 187.734375 54.128906 187.472656 54.453125 187.472656 L 71.25 187.472656 C 71.574219 187.472656 71.835938 187.734375 71.835938 188.0625 C 71.835938 188.386719 71.574219 188.648438 71.25 188.648438 Z M 54.453125 188.648438 "/>
<path style=" stroke:none;fill-rule:nonzero;fill:rgb(7.058716%,1.176453%,46.665955%);fill-opacity:1;" d="M 57.355469 192.5 C 57.03125 192.5 56.765625 192.238281 56.765625 191.914062 C 56.765625 191.585938 57.03125 191.324219 57.355469 191.324219 L 68.632812 191.324219 C 68.957031 191.324219 69.222656 191.585938 69.222656 191.914062 C 69.222656 192.238281 68.957031 192.5 68.632812 192.5 Z M 57.355469 192.5 "/>
<path style=" stroke:none;fill-rule:nonzero;fill:rgb(7.058716%,1.176453%,46.665955%);fill-opacity:1;" d="M 60.585938 196.113281 C 60.261719 196.113281 59.996094 195.851562 59.996094 195.527344 C 59.996094 195.199219 60.261719 194.9375 60.585938 194.9375 L 65.402344 194.9375 C 65.726562 194.9375 65.992188 195.199219 65.992188 195.527344 C 65.992188 195.851562 65.726562 196.113281 65.402344 196.113281 Z M 60.585938 196.113281 "/>
<path style=" stroke:none;fill-rule:nonzero;fill:rgb(92.941284%,21.176147%,14.117432%);fill-opacity:1;" d="M 7.863281 30.492188 C 7.539062 30.484375 7.28125 30.214844 7.289062 29.890625 C 7.296875 29.566406 7.566406 29.308594 7.890625 29.316406 C 7.992188 29.316406 7.566406 29.402344 7.632812 29.371094 C 7.695312 29.339844 7.472656 29.492188 7.503906 29.464844 C 7.554688 29.414062 7.410156 29.582031 7.421875 29.566406 C 7.4375 29.539062 7.421875 29.566406 7.433594 29.527344 C 7.460938 29.441406 7.488281 29.304688 7.515625 29.171875 C 7.546875 29.027344 7.453125 29.003906 7.617188 28.617188 C 7.746094 28.320312 8.09375 28.183594 8.390625 28.3125 C 8.691406 28.441406 8.828125 28.789062 8.699219 29.085938 C 8.660156 29.171875 8.738281 28.914062 8.734375 28.9375 C 8.734375 28.96875 8.816406 29.324219 8.890625 29.773438 C 8.96875 30.242188 9.164062 30.890625 9.425781 31.734375 C 9.78125 32.863281 10.300781 34.238281 10.777344 35.605469 C 11.167969 36.714844 11.484375 37.765625 11.742188 38.628906 C 12.058594 39.699219 12.207031 40.441406 12.363281 40.832031 C 12.492188 41.152344 12.488281 41.160156 12.835938 41.210938 C 13.15625 41.261719 13.375 41.5625 13.328125 41.882812 C 13.277344 42.203125 12.976562 42.425781 12.65625 42.375 C 12.023438 42.277344 11.492188 41.824219 11.269531 41.269531 C 11.042969 40.703125 10.917969 39.988281 10.613281 38.964844 C 10.359375 38.105469 10.046875 37.078125 9.667969 35.992188 C 9.195312 34.644531 8.675781 33.265625 8.304688 32.085938 C 8.039062 31.234375 7.828125 30.554688 7.730469 29.96875 C 7.691406 29.742188 7.644531 29.527344 7.609375 29.328125 C 7.570312 29.136719 7.445312 29.015625 7.617188 28.617188 L 8.699219 29.085938 C 8.671875 29.144531 8.730469 28.980469 8.726562 28.992188 C 8.722656 29.015625 8.714844 29.179688 8.671875 29.40625 C 8.640625 29.550781 8.605469 29.714844 8.558594 29.875 C 8.535156 29.953125 8.507812 30.035156 8.453125 30.132812 C 8.425781 30.183594 8.386719 30.246094 8.3125 30.316406 C 8.234375 30.390625 8.082031 30.496094 7.863281 30.492188 "/>
<path style=" stroke:none;fill-rule:nonzero;fill:rgb(92.941284%,21.176147%,14.117432%);fill-opacity:1;" d="M 16.03125 39.625 C 15.726562 39.738281 15.390625 39.582031 15.277344 39.277344 C 15.164062 38.972656 15.320312 38.632812 15.628906 38.523438 C 15.957031 38.402344 16.351562 38.484375 16.605469 38.664062 C 16.851562 38.839844 17.015625 39.070312 17.164062 39.320312 C 17.464844 39.828125 17.710938 40.464844 17.980469 41.136719 C 18.324219 41.996094 18.628906 42.875 18.878906 43.402344 C 18.9375 43.523438 18.988281 43.613281 19.019531 43.660156 C 19.035156 43.679688 19.023438 43.667969 19.03125 43.675781 C 19.046875 43.691406 18.816406 43.566406 18.902344 43.597656 C 18.945312 43.617188 18.664062 43.570312 18.730469 43.570312 C 18.832031 43.570312 18.386719 43.703125 18.453125 43.65625 C 18.519531 43.613281 18.328125 43.792969 18.34375 43.769531 C 18.375 43.71875 18.34375 43.765625 18.363281 43.65625 C 18.425781 43.335938 18.734375 43.125 19.054688 43.1875 C 19.371094 43.246094 19.582031 43.554688 19.519531 43.875 C 19.484375 44.066406 19.445312 44.230469 19.328125 44.410156 C 19.203125 44.605469 18.792969 44.8125 18.5 44.707031 C 18 44.523438 17.964844 44.214844 17.820312 43.914062 C 17.515625 43.277344 17.21875 42.402344 16.886719 41.574219 C 16.617188 40.902344 16.378906 40.300781 16.152344 39.921875 C 16.050781 39.75 15.957031 39.648438 15.921875 39.625 C 15.90625 39.613281 16.0625 39.617188 16.03125 39.625 "/>
<path style=" stroke:none;fill-rule:nonzero;fill:rgb(92.941284%,21.176147%,14.117432%);fill-opacity:1;" d="M 16.175781 30.867188 C 16.410156 31.089844 16.421875 31.460938 16.199219 31.699219 C 15.976562 31.933594 15.601562 31.945312 15.367188 31.722656 C 15.160156 31.523438 14.984375 31.25 14.832031 30.855469 C 14.675781 30.445312 14.574219 29.910156 14.746094 29.359375 C 14.882812 28.921875 15.195312 28.582031 15.570312 28.339844 C 15.949219 28.09375 16.402344 27.941406 16.886719 27.894531 C 17.625 27.824219 18.472656 28.023438 19.242188 28.550781 C 20.289062 29.261719 21.121094 30.539062 21.519531 32.136719 C 21.898438 33.644531 21.703125 35.363281 21.335938 36.894531 C 21.09375 37.902344 20.617188 38.757812 20.222656 39.433594 C 19.867188 40.035156 19.503906 40.464844 19.105469 40.71875 C 18.90625 40.84375 18.613281 40.902344 18.363281 40.816406 C 18.113281 40.730469 17.960938 40.546875 17.867188 40.378906 C 17.683594 40.046875 17.65625 39.675781 17.71875 39.292969 C 17.828125 38.59375 18.300781 38.085938 18.683594 37.636719 C 19.484375 36.707031 20.566406 36.371094 21.558594 36.394531 C 22.535156 36.417969 23.457031 36.71875 24.257812 36.9375 C 25.027344 37.144531 25.640625 37.226562 25.890625 37.117188 C 26.003906 37.070312 26.089844 36.992188 26.179688 36.773438 C 26.277344 36.527344 26.347656 36.113281 26.339844 35.527344 C 26.339844 35.203125 26.597656 34.9375 26.925781 34.933594 C 27.25 34.929688 27.515625 35.191406 27.519531 35.515625 C 27.523438 36.199219 27.457031 36.757812 27.269531 37.214844 C 27.089844 37.664062 26.761719 38.019531 26.363281 38.195312 C 25.589844 38.535156 24.765625 38.292969 23.949219 38.070312 C 23.128906 37.847656 22.289062 37.589844 21.527344 37.574219 C 20.789062 37.554688 20.140625 37.75 19.578125 38.40625 C 19.222656 38.816406 18.914062 39.265625 18.878906 39.480469 C 18.851562 39.648438 18.890625 39.800781 18.898438 39.8125 C 18.898438 39.8125 18.847656 39.753906 18.867188 39.777344 C 18.890625 39.796875 18.691406 39.683594 18.75 39.703125 C 18.804688 39.722656 18.519531 39.695312 18.574219 39.6875 C 18.625 39.679688 18.460938 39.730469 18.476562 39.722656 C 18.625 39.628906 18.917969 39.324219 19.207031 38.835938 C 19.585938 38.195312 19.992188 37.4375 20.191406 36.621094 C 20.53125 35.207031 20.683594 33.636719 20.378906 32.421875 C 20.039062 31.0625 19.328125 30.03125 18.582031 29.523438 C 18.023438 29.144531 17.457031 29.023438 16.996094 29.066406 C 16.691406 29.097656 16.414062 29.195312 16.210938 29.328125 C 16.015625 29.453125 15.902344 29.601562 15.871094 29.710938 C 15.734375 30.144531 16.132812 30.828125 16.175781 30.867188 "/>
<path style=" stroke:none;fill-rule:nonzero;fill:rgb(92.941284%,21.176147%,14.117432%);fill-opacity:1;" d="M 24.234375 28.15625 C 24.363281 28.453125 24.226562 28.800781 23.925781 28.929688 C 23.628906 29.058594 23.28125 28.917969 23.152344 28.621094 C 23.078125 28.445312 23.027344 28.265625 23.027344 28.066406 C 23.03125 27.960938 23.046875 27.84375 23.101562 27.722656 C 23.160156 27.59375 23.265625 27.460938 23.417969 27.382812 C 23.734375 27.214844 23.984375 27.339844 24.117188 27.414062 C 24.242188 27.484375 24.332031 27.566406 24.425781 27.65625 C 24.617188 27.835938 24.816406 28.0625 25.039062 28.328125 C 25.5 28.875 26.027344 29.550781 26.570312 30.164062 C 27.222656 30.90625 27.957031 31.539062 28.574219 31.949219 C 28.949219 32.191406 29.28125 32.289062 29.382812 32.28125 C 29.421875 32.277344 29.3125 32.332031 29.363281 32.242188 C 29.429688 32.125 29.5 31.890625 29.550781 31.574219 C 29.664062 30.898438 29.6875 29.957031 29.699219 28.910156 C 29.71875 27.53125 29.644531 25.984375 29.402344 24.703125 C 29.238281 23.855469 29 23.132812 28.824219 22.820312 C 28.789062 22.757812 28.804688 22.769531 28.78125 22.75 C 28.765625 22.734375 28.988281 22.851562 28.910156 22.824219 C 28.867188 22.808594 29.128906 22.855469 29.066406 22.855469 C 29.003906 22.851562 29.320312 22.796875 29.257812 22.820312 C 29.203125 22.84375 29.445312 22.703125 29.410156 22.734375 C 29.355469 22.777344 29.515625 22.59375 29.5 22.621094 C 29.488281 22.644531 29.515625 22.589844 29.515625 22.589844 C 29.511719 22.601562 29.496094 22.679688 29.488281 22.804688 C 29.472656 23.128906 29.195312 23.378906 28.871094 23.359375 C 28.542969 23.339844 28.296875 23.0625 28.316406 22.738281 C 28.324219 22.554688 28.34375 22.398438 28.390625 22.238281 C 28.441406 22.078125 28.53125 21.839844 28.839844 21.722656 C 29.167969 21.597656 29.457031 21.769531 29.585938 21.890625 C 29.707031 22 29.78125 22.117188 29.851562 22.246094 C 30.144531 22.765625 30.378906 23.546875 30.558594 24.480469 C 30.824219 25.882812 30.898438 27.488281 30.878906 28.925781 C 30.863281 29.984375 30.84375 30.960938 30.714844 31.765625 C 30.652344 32.152344 30.5625 32.503906 30.394531 32.8125 C 30.21875 33.125 29.882812 33.425781 29.464844 33.457031 C 28.925781 33.492188 28.425781 33.257812 27.929688 32.929688 C 27.203125 32.453125 26.410156 31.761719 25.6875 30.941406 C 25.117188 30.296875 24.582031 29.613281 24.136719 29.085938 C 23.925781 28.835938 23.746094 28.628906 23.617188 28.511719 C 23.5625 28.457031 23.539062 28.441406 23.53125 28.433594 C 23.519531 28.429688 23.699219 28.484375 23.632812 28.472656 C 23.597656 28.464844 23.832031 28.472656 23.777344 28.476562 C 23.714844 28.484375 24.03125 28.386719 23.96875 28.421875 C 23.871094 28.472656 24.203125 28.136719 24.171875 28.207031 C 24.144531 28.269531 24.207031 28.058594 24.207031 28.078125 C 24.203125 28.105469 24.207031 28.089844 24.234375 28.15625 "/>
<path style=" stroke:none;fill-rule:nonzero;fill:rgb(7.058716%,1.176453%,46.665955%);fill-opacity:1;" d="M 283.425781 173.878906 C 283.425781 173.554688 283.6875 173.292969 284.011719 173.292969 C 284.339844 173.292969 284.601562 173.554688 284.601562 173.878906 L 284.601562 189.421875 C 284.601562 189.746094 284.339844 190.011719 284.011719 190.011719 C 283.6875 190.011719 283.425781 189.746094 283.425781 189.421875 Z M 283.425781 173.878906 "/>
<path style=" stroke:none;fill-rule:nonzero;fill:rgb(7.058716%,1.176453%,46.665955%);fill-opacity:1;" d="M 283.425781 224.65625 C 283.425781 224.332031 283.6875 224.066406 284.011719 224.066406 C 284.339844 224.066406 284.601562 224.332031 284.601562 224.65625 L 284.601562 241.152344 C 284.601562 241.480469 284.339844 241.742188 284.011719 241.742188 C 283.6875 241.742188 283.425781 241.480469 283.425781 241.152344 Z M 283.425781 224.65625 "/>
<path style=" stroke:none;fill-rule:nonzero;fill:rgb(7.058716%,1.176453%,46.665955%);fill-opacity:1;" d="M 283.863281 188.949219 C 284.125 188.753906 284.492188 188.8125 284.683594 189.074219 C 284.878906 189.335938 284.824219 189.703125 284.5625 189.894531 L 279.261719 193.800781 C 279 193.992188 278.632812 193.9375 278.441406 193.675781 C 278.246094 193.414062 278.304688 193.046875 278.566406 192.855469 Z M 283.863281 188.949219 "/>
<path style=" stroke:none;fill-rule:nonzero;fill:rgb(7.058716%,1.176453%,46.665955%);fill-opacity:1;" d="M 278.609375 193.832031 C 278.332031 193.664062 278.242188 193.300781 278.410156 193.023438 C 278.578125 192.746094 278.9375 192.65625 279.21875 192.824219 L 289.417969 198.96875 C 289.695312 199.136719 289.785156 199.5 289.617188 199.777344 C 289.449219 200.054688 289.085938 200.144531 288.808594 199.976562 Z M 278.609375 193.832031 "/>
<path style=" stroke:none;fill-rule:nonzero;fill:rgb(7.058716%,1.176453%,46.665955%);fill-opacity:1;" d="M 288.765625 199 C 289.027344 198.804688 289.394531 198.863281 289.585938 199.125 C 289.78125 199.386719 289.722656 199.753906 289.460938 199.945312 L 279.261719 207.464844 C 279 207.65625 278.632812 207.601562 278.441406 207.339844 C 278.246094 207.078125 278.304688 206.710938 278.566406 206.519531 Z M 288.765625 199 "/>
<path style=" stroke:none;fill-rule:nonzero;fill:rgb(7.058716%,1.176453%,46.665955%);fill-opacity:1;" d="M 278.609375 207.496094 C 278.332031 207.328125 278.242188 206.964844 278.410156 206.6875 C 278.578125 206.410156 278.9375 206.320312 279.21875 206.488281 L 289.417969 212.632812 C 289.695312 212.800781 289.785156 213.164062 289.617188 213.441406 C 289.449219 213.71875 289.085938 213.808594 288.808594 213.640625 Z M 278.609375 207.496094 "/>
<path style=" stroke:none;fill-rule:nonzero;fill:rgb(7.058716%,1.176453%,46.665955%);fill-opacity:1;" d="M 288.765625 212.664062 C 289.027344 212.472656 289.394531 212.527344 289.585938 212.789062 C 289.78125 213.050781 289.722656 213.417969 289.460938 213.609375 L 279.261719 221.128906 C 279 221.324219 278.632812 221.265625 278.441406 221.003906 C 278.246094 220.742188 278.304688 220.375 278.566406 220.183594 Z M 288.765625 212.664062 "/>
<path style=" stroke:none;fill-rule:nonzero;fill:rgb(7.058716%,1.176453%,46.665955%);fill-opacity:1;" d="M 278.550781 221.121094 C 278.292969 220.917969 278.25 220.546875 278.449219 220.292969 C 278.652344 220.039062 279.019531 219.992188 279.277344 220.191406 L 284.375 224.195312 C 284.632812 224.394531 284.675781 224.765625 284.476562 225.019531 C 284.277344 225.273438 283.90625 225.320312 283.648438 225.121094 Z M 278.550781 221.121094 "/>
<path style=" stroke:none;fill-rule:nonzero;fill:rgb(0%,43.528748%,100%);fill-opacity:1;" d="M 266.574219 217.363281 C 266.898438 217.351562 267.171875 217.605469 267.183594 217.929688 C 267.195312 218.257812 266.941406 218.527344 266.617188 218.539062 C 266.542969 218.542969 266.648438 218.539062 266.605469 218.546875 C 266.5625 218.558594 266.507812 218.570312 266.449219 218.585938 C 266.425781 218.589844 266.390625 218.605469 266.34375 218.621094 C 266.320312 218.628906 266.300781 218.636719 266.25 218.648438 C 266.210938 218.65625 266.191406 218.664062 266.144531 218.667969 C 265.820312 218.699219 265.535156 218.460938 265.503906 218.136719 C 265.472656 217.816406 265.710938 217.527344 266.03125 217.496094 C 266.074219 217.492188 265.964844 217.507812 265.972656 217.507812 C 265.972656 217.503906 265.9375 217.515625 265.957031 217.507812 C 265.996094 217.496094 266.070312 217.464844 266.167969 217.441406 C 266.285156 217.414062 266.355469 217.371094 266.574219 217.363281 M 266.652344 218.222656 C 266.574219 218.539062 266.253906 218.730469 265.9375 218.648438 C 265.625 218.570312 265.433594 218.25 265.511719 217.933594 C 265.585938 217.648438 265.730469 217.589844 265.796875 217.546875 C 265.863281 217.503906 265.910156 217.480469 265.953125 217.460938 C 266.03125 217.425781 266.097656 217.394531 266.128906 217.375 C 266.199219 217.332031 266.296875 217.261719 266.414062 217.175781 C 266.566406 217.066406 266.734375 216.917969 266.953125 216.722656 C 267.394531 216.335938 267.976562 215.792969 268.707031 215.15625 C 269.152344 214.773438 269.640625 214.382812 270.144531 213.96875 C 270.769531 213.460938 271.433594 212.910156 272.15625 212.320312 C 272.589844 211.964844 273.039062 211.585938 273.519531 211.191406 C 273.855469 210.914062 274.207031 210.640625 274.5625 210.359375 C 275.238281 209.824219 275.945312 209.273438 276.6875 208.695312 C 276.898438 208.527344 277.113281 208.355469 277.335938 208.183594 C 278.519531 207.25 279.757812 206.292969 281.015625 205.339844 C 282.058594 204.546875 283.101562 203.757812 284.171875 202.976562 C 284.402344 202.8125 284.632812 202.628906 284.878906 202.445312 C 285.753906 201.789062 286.648438 201.207031 287.507812 200.648438 C 288.171875 200.210938 288.832031 199.734375 289.511719 199.257812 C 290.652344 198.457031 291.835938 197.726562 293.007812 197.03125 C 293.894531 196.507812 294.730469 195.980469 295.53125 195.476562 C 296.171875 195.074219 296.804688 194.679688 297.421875 194.296875 C 298.046875 193.914062 298.660156 193.582031 299.234375 193.25 C 299.808594 192.921875 300.359375 192.578125 300.898438 192.257812 C 301.421875 191.941406 301.921875 191.648438 302.382812 191.367188 C 302.847656 191.085938 303.285156 190.8125 303.6875 190.5625 C 304.4375 190.089844 305.042969 189.691406 305.535156 189.367188 C 306.015625 189.050781 306.378906 188.796875 306.625 188.605469 C 306.753906 188.503906 306.820312 188.449219 306.832031 188.441406 C 306.832031 188.4375 306.773438 188.5625 306.796875 188.507812 C 306.808594 188.472656 306.761719 188.710938 306.765625 188.644531 C 306.769531 188.578125 306.855469 188.984375 306.8125 188.894531 C 306.78125 188.824219 306.992188 189.113281 306.945312 189.070312 C 306.902344 189.03125 307.09375 189.164062 307.0625 189.148438 C 307.007812 189.125 307.226562 189.199219 307.199219 189.195312 C 307.160156 189.1875 307.222656 189.195312 307.199219 189.199219 C 307.136719 189.203125 307.027344 189.214844 306.910156 189.230469 C 306.316406 189.292969 305.515625 189.367188 304.6875 189.222656 C 304.089844 189.121094 303.5625 188.855469 303.085938 188.597656 C 302.84375 188.46875 302.613281 188.339844 302.398438 188.21875 C 302.273438 188.148438 302.144531 188.078125 302.015625 188.007812 C 301.898438 187.945312 301.8125 187.878906 301.761719 187.84375 C 301.738281 187.828125 301.738281 187.828125 301.734375 187.824219 C 301.722656 187.816406 301.929688 187.875 301.851562 187.863281 C 301.8125 187.855469 302.03125 187.847656 301.984375 187.859375 C 301.933594 187.871094 302.203125 187.730469 302.148438 187.777344 C 302.089844 187.824219 302.316406 187.554688 302.285156 187.609375 C 302.257812 187.664062 302.347656 187.429688 302.339844 187.46875 C 302.324219 187.542969 302.34375 187.316406 302.347656 187.335938 C 302.351562 187.371094 302.34375 187.316406 302.351562 187.34375 C 302.375 187.410156 302.421875 187.523438 302.472656 187.644531 C 302.785156 188.40625 303.359375 189.609375 303.929688 190.789062 C 304.148438 191.246094 304.355469 191.675781 304.542969 192.015625 C 304.800781 192.488281 304.992188 192.683594 305.078125 192.722656 C 305.152344 192.757812 305.292969 192.753906 305.527344 192.59375 C 305.78125 192.421875 306.066406 192.097656 306.292969 191.679688 C 306.988281 190.398438 307.359375 188.097656 307.382812 187.558594 C 307.398438 187.230469 307.671875 186.980469 307.996094 186.996094 C 308.320312 187.007812 308.570312 187.285156 308.558594 187.609375 C 308.542969 187.980469 308.433594 188.6875 308.234375 189.566406 C 308.03125 190.46875 307.757812 191.449219 307.328125 192.242188 C 307.027344 192.792969 306.644531 193.257812 306.1875 193.570312 C 305.738281 193.875 305.136719 194.039062 304.59375 193.796875 C 304.109375 193.578125 303.8125 193.132812 303.507812 192.582031 C 303.300781 192.199219 303.089844 191.757812 302.871094 191.300781 C 302.296875 190.113281 301.722656 188.910156 301.382812 188.09375 C 301.332031 187.972656 301.277344 187.84375 301.230469 187.699219 C 301.207031 187.628906 301.1875 187.554688 301.175781 187.449219 C 301.171875 187.390625 301.167969 187.320312 301.1875 187.226562 C 301.210938 187.121094 301.265625 186.976562 301.40625 186.863281 C 301.601562 186.703125 301.835938 186.664062 302.050781 186.703125 C 302.480469 186.777344 302.507812 186.933594 302.585938 186.980469 C 302.699219 187.039062 302.832031 187.109375 302.980469 187.195312 C 303.191406 187.316406 303.414062 187.441406 303.640625 187.5625 C 304.085938 187.800781 304.507812 187.996094 304.886719 188.0625 C 305.523438 188.175781 306.222656 188.121094 306.785156 188.058594 C 306.886719 188.046875 307.003906 188.03125 307.136719 188.023438 C 307.203125 188.019531 307.277344 188.015625 307.378906 188.03125 C 307.429688 188.039062 307.496094 188.054688 307.582031 188.09375 C 307.675781 188.140625 307.800781 188.230469 307.878906 188.390625 C 307.984375 188.613281 307.941406 188.816406 307.886719 188.945312 C 307.839844 189.0625 307.777344 189.148438 307.710938 189.222656 C 307.582031 189.367188 307.46875 189.4375 307.34375 189.535156 C 307.0625 189.753906 306.679688 190.023438 306.183594 190.351562 C 305.6875 190.675781 305.074219 191.078125 304.3125 191.558594 C 303.910156 191.8125 303.46875 192.085938 302.992188 192.375 C 302.523438 192.660156 302.023438 192.953125 301.503906 193.265625 C 300.972656 193.585938 300.414062 193.929688 299.820312 194.269531 C 299.230469 194.609375 298.628906 194.9375 298.039062 195.300781 C 297.425781 195.675781 296.796875 196.070312 296.15625 196.472656 C 295.355469 196.976562 294.511719 197.507812 293.609375 198.042969 C 292.449219 198.730469 291.292969 199.445312 290.1875 200.21875 C 289.515625 200.691406 288.847656 201.175781 288.148438 201.632812 C 287.292969 202.191406 286.421875 202.761719 285.582031 203.390625 C 285.351562 203.5625 285.113281 203.746094 284.863281 203.929688 C 283.804688 204.703125 282.769531 205.484375 281.726562 206.277344 C 280.476562 207.226562 279.242188 208.179688 278.0625 209.109375 C 277.84375 209.277344 277.628906 209.453125 277.410156 209.621094 C 276.667969 210.203125 275.964844 210.75 275.292969 211.285156 C 274.9375 211.566406 274.589844 211.835938 274.261719 212.105469 C 273.792969 212.488281 273.34375 212.867188 272.902344 213.230469 C 272.179688 213.820312 271.515625 214.367188 270.890625 214.878906 C 270.378906 215.296875 269.898438 215.683594 269.480469 216.046875 C 268.765625 216.667969 268.191406 217.203125 267.734375 217.605469 C 267.511719 217.804688 267.316406 217.976562 267.105469 218.128906 C 266.992188 218.210938 266.875 218.296875 266.738281 218.382812 C 266.621094 218.453125 266.519531 218.496094 266.460938 218.523438 C 266.4375 218.535156 266.460938 218.519531 266.441406 218.53125 C 266.4375 218.535156 266.550781 218.4375 266.515625 218.472656 C 266.496094 218.492188 266.609375 218.347656 266.582031 218.386719 C 266.558594 218.425781 266.671875 218.15625 266.652344 218.222656 "/>
<path style=" stroke:none;fill-rule:nonzero;fill:rgb(7.058716%,1.176453%,46.665955%);fill-opacity:1;" d="M 283.425781 241.050781 C 283.425781 240.726562 283.6875 240.460938 284.011719 240.460938 C 284.339844 240.460938 284.601562 240.726562 284.601562 241.050781 L 284.601562 251.851562 C 284.601562 252.175781 284.339844 252.4375 284.011719 252.4375 C 283.6875 252.4375 283.425781 252.175781 283.425781 251.851562 Z M 283.425781 241.050781 "/>
<path style=" stroke:none;fill-rule:nonzero;fill:rgb(7.058716%,1.176453%,46.665955%);fill-opacity:1;" d="M 275.617188 253.164062 C 275.292969 253.164062 275.027344 252.902344 275.027344 252.574219 C 275.027344 252.25 275.292969 251.988281 275.617188 251.988281 L 292.410156 251.988281 C 292.734375 251.988281 293 252.25 293 252.574219 C 293 252.902344 292.734375 253.164062 292.410156 253.164062 Z M 275.617188 253.164062 "/>
<path style=" stroke:none;fill-rule:nonzero;fill:rgb(7.058716%,1.176453%,46.665955%);fill-opacity:1;" d="M 278.515625 257.015625 C 278.191406 257.015625 277.929688 256.75 277.929688 256.425781 C 277.929688 256.101562 278.191406 255.839844 278.515625 255.839844 L 289.796875 255.839844 C 290.121094 255.839844 290.382812 256.101562 290.382812 256.425781 C 290.382812 256.75 290.121094 257.015625 289.796875 257.015625 Z M 278.515625 257.015625 "/>
<path style=" stroke:none;fill-rule:nonzero;fill:rgb(7.058716%,1.176453%,46.665955%);fill-opacity:1;" d="M 281.746094 260.628906 C 281.421875 260.628906 281.160156 260.363281 281.160156 260.039062 C 281.160156 259.714844 281.421875 259.453125 281.746094 259.453125 L 286.566406 259.453125 C 286.890625 259.453125 287.152344 259.714844 287.152344 260.039062 C 287.152344 260.363281 286.890625 260.628906 286.566406 260.628906 Z M 281.746094 260.628906 "/>
<path style=" stroke:none;fill-rule:nonzero;fill:rgb(0%,43.528748%,100%);fill-opacity:1;" d="M 312.808594 201.359375 C 312.550781 201.164062 312.503906 200.792969 312.703125 200.535156 C 312.898438 200.277344 313.269531 200.230469 313.527344 200.425781 C 313.867188 200.6875 313.910156 201.050781 313.929688 201.367188 C 313.953125 201.691406 313.933594 202.058594 313.90625 202.503906 C 313.847656 203.519531 313.765625 204.945312 313.601562 206.414062 C 313.515625 207.179688 313.390625 207.90625 313.300781 208.535156 C 313.042969 210.292969 313.039062 211.105469 313.03125 211.816406 C 313.027344 212.140625 312.761719 212.402344 312.433594 212.398438 C 312.109375 212.394531 311.851562 212.128906 311.855469 211.800781 C 311.863281 211.097656 311.871094 210.175781 312.136719 208.363281 C 312.230469 207.722656 312.351562 207.011719 312.433594 206.28125 C 312.59375 204.851562 312.671875 203.449219 312.734375 202.4375 C 312.757812 202.003906 312.773438 201.664062 312.757812 201.445312 C 312.75 201.347656 312.738281 201.285156 312.730469 201.269531 C 312.730469 201.265625 312.753906 201.304688 312.742188 201.289062 C 312.730469 201.269531 312.84375 201.386719 312.808594 201.359375 "/>
<path style=" stroke:none;fill-rule:nonzero;fill:rgb(0%,43.528748%,100%);fill-opacity:1;" d="M 310.175781 212.632812 C 310.3125 212.929688 310.1875 213.277344 309.890625 213.414062 C 309.597656 213.550781 309.246094 213.421875 309.109375 213.128906 C 309.039062 212.972656 308.980469 212.792969 309 212.582031 C 309.015625 212.363281 309.140625 212.152344 309.277344 212.027344 C 309.53125 211.796875 309.773438 211.75 310.011719 211.671875 C 310.726562 211.4375 311.90625 210.761719 313.175781 210.257812 C 313.957031 209.949219 314.683594 209.738281 315.234375 209.582031 C 315.496094 209.507812 315.707031 209.445312 315.832031 209.402344 C 315.886719 209.382812 315.882812 209.386719 315.902344 209.375 C 315.90625 209.375 315.847656 209.414062 315.863281 209.402344 C 315.890625 209.378906 315.683594 209.628906 315.734375 209.542969 C 315.765625 209.5 315.648438 209.808594 315.664062 209.730469 C 315.679688 209.652344 315.695312 210.0625 315.675781 209.980469 C 315.589844 209.667969 315.777344 209.34375 316.089844 209.261719 C 316.402344 209.175781 316.726562 209.363281 316.8125 209.675781 C 316.875 209.914062 316.765625 210.144531 316.679688 210.242188 C 316.601562 210.332031 316.539062 210.367188 316.484375 210.398438 C 316.386719 210.453125 316.308594 210.480469 316.21875 210.511719 C 316.039062 210.574219 315.820312 210.636719 315.558594 210.710938 C 315.015625 210.867188 314.328125 211.066406 313.609375 211.351562 C 312.4375 211.816406 311.300781 212.488281 310.378906 212.792969 C 310.152344 212.867188 310.113281 212.859375 310.066406 212.898438 C 310.03125 212.933594 310.179688 212.597656 310.171875 212.683594 C 310.167969 212.722656 310.164062 212.601562 310.167969 212.609375 C 310.167969 212.613281 310.167969 212.613281 310.175781 212.632812 "/>
<path style=" stroke:none;fill-rule:nonzero;fill:rgb(0%,43.528748%,100%);fill-opacity:1;" d="M 309.683594 200.257812 C 309.816406 200.554688 309.679688 200.902344 309.378906 201.03125 C 309.082031 201.160156 308.734375 201.023438 308.605469 200.726562 C 308.4375 200.339844 308.449219 199.882812 308.625 199.53125 C 308.796875 199.183594 309.082031 198.929688 309.402344 198.722656 C 310.054688 198.308594 310.894531 198.054688 311.777344 197.875 C 312.660156 197.699219 313.5625 197.613281 314.34375 197.617188 C 314.722656 197.621094 315.0625 197.644531 315.367188 197.703125 C 315.660156 197.761719 315.953125 197.8125 316.203125 198.121094 C 316.40625 198.375 316.367188 198.746094 316.113281 198.949219 C 315.859375 199.152344 315.488281 199.113281 315.285156 198.859375 C 315.257812 198.824219 315.355469 198.921875 315.34375 198.914062 C 315.332031 198.90625 315.277344 198.886719 315.140625 198.859375 C 314.945312 198.820312 314.660156 198.796875 314.332031 198.792969 C 313.648438 198.789062 312.8125 198.867188 312.007812 199.03125 C 311.210938 199.191406 310.480469 199.429688 310.039062 199.714844 C 309.835938 199.84375 309.71875 199.972656 309.679688 200.054688 C 309.644531 200.121094 309.636719 200.148438 309.683594 200.257812 "/>
<path style=" stroke:none;fill-rule:nonzero;fill:rgb(0%,43.528748%,100%);fill-opacity:1;" d="M 319.347656 206.238281 C 319.394531 206.5625 319.175781 206.859375 318.855469 206.910156 C 318.53125 206.957031 318.234375 206.738281 318.183594 206.414062 C 318.171875 206.332031 318.160156 206.273438 318.152344 206.25 C 318.152344 206.242188 318.167969 206.285156 318.160156 206.265625 C 318.15625 206.25 318.207031 206.351562 318.1875 206.324219 C 318.171875 206.292969 318.355469 206.511719 318.296875 206.457031 C 318.261719 206.425781 318.484375 206.574219 318.425781 206.542969 C 318.375 206.519531 318.679688 206.609375 318.609375 206.597656 C 318.488281 206.585938 319.039062 206.492188 318.949219 206.539062 C 318.886719 206.570312 319.121094 206.402344 319.089844 206.433594 C 319.046875 206.480469 319.191406 206.296875 319.175781 206.324219 C 319.160156 206.351562 319.207031 206.257812 319.203125 206.269531 C 319.179688 206.320312 319.210938 206.242188 319.203125 206.28125 C 319.164062 206.488281 319.109375 206.960938 319.023438 207.539062 C 318.925781 208.210938 318.769531 208.988281 318.5625 209.796875 C 318.34375 210.664062 318.042969 211.496094 317.824219 212.148438 C 317.710938 212.480469 317.59375 212.75 317.523438 212.933594 C 317.496094 213.011719 317.480469 213.070312 317.476562 213.074219 C 317.476562 213.078125 317.472656 212.964844 317.480469 213.007812 C 317.484375 213.058594 317.351562 212.726562 317.402344 212.804688 C 317.449219 212.871094 317.191406 212.617188 317.246094 212.652344 C 317.300781 212.6875 317.0625 212.578125 317.101562 212.589844 C 317.179688 212.609375 316.96875 212.574219 316.988281 212.574219 C 317.003906 212.574219 316.992188 212.574219 317.039062 212.5625 C 317.140625 212.535156 317.296875 212.476562 317.457031 212.425781 C 318.148438 212.195312 319.09375 211.933594 320.023438 211.859375 C 320.484375 211.820312 320.933594 211.828125 321.359375 211.953125 C 321.78125 212.082031 322.21875 212.390625 322.375 212.875 C 322.476562 213.183594 322.308594 213.515625 322 213.617188 C 321.691406 213.71875 321.359375 213.550781 321.257812 213.242188 C 321.238281 213.179688 321.203125 213.136719 321.019531 213.082031 C 320.816406 213.019531 320.488281 213.003906 320.117188 213.03125 C 319.34375 213.09375 318.460938 213.332031 317.828125 213.542969 C 317.683594 213.589844 317.515625 213.652344 317.339844 213.699219 C 317.25 213.722656 317.160156 213.742188 317.042969 213.75 C 316.972656 213.753906 316.894531 213.753906 316.792969 213.722656 C 316.683594 213.695312 316.53125 213.613281 316.425781 213.460938 C 316.277344 213.238281 316.292969 213.019531 316.320312 212.875 C 316.34375 212.738281 316.382812 212.628906 316.421875 212.519531 C 316.507812 212.292969 316.613281 212.050781 316.710938 211.769531 C 316.933594 211.105469 317.21875 210.308594 317.421875 209.507812 C 317.617188 208.734375 317.769531 207.992188 317.859375 207.367188 C 317.941406 206.8125 317.988281 206.363281 318.046875 206.058594 C 318.0625 205.988281 318.070312 205.921875 318.113281 205.820312 C 318.136719 205.761719 318.15625 205.675781 318.3125 205.554688 C 318.496094 205.414062 318.9375 205.449219 319.085938 205.585938 C 319.324219 205.800781 319.277344 205.886719 319.296875 205.96875 C 319.316406 206.050781 319.332031 206.136719 319.347656 206.238281 "/>
<path style=" stroke:none;fill-rule:nonzero;fill:rgb(0%,43.528748%,100%);fill-opacity:1;" d="M 324.828125 207.75 C 325.144531 207.8125 325.355469 208.121094 325.292969 208.441406 C 325.230469 208.757812 324.921875 208.96875 324.601562 208.90625 C 324.535156 208.890625 324.84375 208.890625 324.789062 208.902344 C 324.738281 208.914062 324.921875 208.847656 324.898438 208.859375 C 324.859375 208.882812 324.9375 208.832031 324.921875 208.847656 C 324.882812 208.894531 324.8125 209.007812 324.738281 209.167969 C 324.578125 209.5 324.421875 209.96875 324.308594 210.441406 C 324.191406 210.945312 324.148438 211.433594 324.195312 211.738281 C 324.21875 211.890625 324.242188 211.902344 324.371094 211.929688 C 324.570312 211.976562 324.96875 211.917969 325.351562 211.730469 C 325.675781 211.574219 326.03125 211.164062 326.328125 210.742188 C 326.609375 210.34375 326.710938 209.960938 326.699219 209.679688 C 326.691406 209.554688 326.636719 209.433594 326.515625 209.300781 C 326.390625 209.164062 326.195312 209.03125 325.972656 208.933594 C 325.527344 208.730469 324.996094 208.722656 324.945312 208.746094 C 324.648438 208.875 324.300781 208.734375 324.175781 208.4375 C 324.046875 208.136719 324.183594 207.792969 324.484375 207.664062 C 325.105469 207.394531 325.796875 207.558594 326.460938 207.859375 C 326.796875 208.011719 327.121094 208.21875 327.382812 208.503906 C 327.648438 208.792969 327.851562 209.183594 327.875 209.621094 C 327.902344 210.210938 327.699219 210.839844 327.292969 211.417969 C 326.953125 211.898438 326.523438 212.46875 325.867188 212.789062 C 325.304688 213.0625 324.691406 213.210938 324.109375 213.078125 C 323.589844 212.960938 323.121094 212.496094 323.03125 211.917969 C 322.949219 211.371094 323.023438 210.773438 323.164062 210.171875 C 323.292969 209.628906 323.464844 209.097656 323.671875 208.664062 C 323.773438 208.449219 323.878906 208.257812 324.019531 208.089844 C 324.089844 208.007812 324.175781 207.921875 324.296875 207.847656 C 324.425781 207.773438 324.617188 207.710938 324.828125 207.75 "/>
<path style=" stroke:none;fill-rule:nonzero;fill:rgb(0%,43.528748%,100%);fill-opacity:1;" d="M 328.664062 208.0625 C 328.589844 207.746094 328.785156 207.425781 329.101562 207.351562 C 329.414062 207.277344 329.734375 207.472656 329.808594 207.789062 C 329.960938 208.441406 329.90625 209.589844 329.898438 210.808594 C 329.898438 211.355469 329.886719 211.863281 329.898438 212.242188 C 329.90625 212.441406 329.921875 212.550781 329.929688 212.570312 C 329.933594 212.582031 329.835938 212.425781 329.875 212.476562 C 329.898438 212.503906 329.722656 212.34375 329.773438 212.378906 C 329.824219 212.414062 329.492188 212.273438 329.574219 212.289062 C 329.640625 212.300781 329.257812 212.308594 329.332031 212.292969 C 329.398438 212.273438 329.125 212.386719 329.167969 212.359375 C 329.226562 212.320312 329.042969 212.480469 329.054688 212.464844 C 329.25 212.1875 329.664062 210.402344 330.121094 208.746094 C 330.363281 207.859375 330.609375 207 330.890625 206.304688 C 331.035156 205.945312 331.203125 205.640625 331.402344 205.398438 C 331.5 205.28125 331.609375 205.171875 331.753906 205.082031 C 331.90625 204.992188 332.132812 204.914062 332.382812 204.980469 C 332.667969 205.058594 332.792969 205.253906 332.859375 205.390625 C 332.921875 205.515625 332.949219 205.628906 332.972656 205.742188 C 333.019531 205.960938 333.039062 206.1875 333.046875 206.390625 C 333.074219 206.875 333.082031 207.421875 333.097656 207.933594 C 333.121094 208.699219 333.523438 209.4375 333.816406 210.351562 C 334.003906 210.921875 334.152344 211.515625 334.21875 212.066406 C 334.25 212.335938 334.261719 212.589844 334.238281 212.835938 C 334.210938 213.082031 334.15625 213.347656 333.941406 213.582031 C 333.71875 213.820312 333.347656 213.832031 333.109375 213.613281 C 332.871094 213.390625 332.859375 213.019531 333.078125 212.78125 C 333.109375 212.746094 333.042969 212.832031 333.046875 212.824219 C 333.050781 212.808594 333.0625 212.773438 333.066406 212.71875 C 333.078125 212.597656 333.074219 212.417969 333.046875 212.207031 C 332.996094 211.765625 332.863281 211.226562 332.699219 210.714844 C 332.441406 209.925781 331.957031 209.066406 331.921875 207.972656 C 331.902344 207.441406 331.898438 206.902344 331.875 206.457031 C 331.863281 206.28125 331.847656 206.101562 331.820312 205.980469 C 331.8125 205.929688 331.8125 205.925781 331.804688 205.914062 C 331.796875 205.898438 331.898438 206.027344 331.859375 205.988281 C 331.820312 205.945312 332.183594 206.144531 332.082031 206.117188 C 332.007812 206.097656 332.328125 206.113281 332.28125 206.125 C 332.234375 206.132812 332.375 206.085938 332.363281 206.09375 C 332.347656 206.101562 332.347656 206.101562 332.308594 206.148438 C 332.21875 206.261719 332.09375 206.472656 331.980469 206.746094 C 331.738281 207.351562 331.496094 208.1875 331.253906 209.058594 C 331.03125 209.859375 330.832031 210.699219 330.636719 211.4375 C 330.445312 212.152344 330.316406 212.722656 330.015625 213.144531 C 329.96875 213.207031 329.914062 213.277344 329.816406 213.34375 C 329.699219 213.417969 329.515625 213.476562 329.332031 213.441406 C 329.136719 213.398438 329.015625 213.289062 328.949219 213.199219 C 328.886719 213.121094 328.855469 213.050781 328.832031 212.988281 C 328.742188 212.753906 328.730469 212.542969 328.722656 212.277344 C 328.710938 211.851562 328.71875 211.339844 328.722656 210.800781 C 328.730469 209.585938 328.722656 208.3125 328.664062 208.0625 "/>
<path style=" stroke:none;fill-rule:nonzero;fill:rgb(0%,43.528748%,100%);fill-opacity:1;" d="M 330.234375 209.933594 C 329.914062 209.890625 329.6875 209.597656 329.730469 209.273438 C 329.769531 208.953125 330.066406 208.726562 330.390625 208.769531 C 330.789062 208.820312 332.4375 208.644531 334.011719 208.714844 C 334.335938 208.730469 334.585938 209.003906 334.570312 209.332031 C 334.558594 209.65625 334.28125 209.90625 333.957031 209.890625 C 332.503906 209.824219 331.035156 210.042969 330.234375 209.933594 "/>
<path style=" stroke:none;fill-rule:nonzero;fill:rgb(0%,43.528748%,100%);fill-opacity:1;" d="M 335.445312 208.007812 C 335.429688 207.683594 335.679688 207.40625 336.003906 207.390625 C 336.328125 207.375 336.605469 207.625 336.621094 207.949219 C 336.640625 208.328125 336.746094 208.894531 336.796875 209.613281 C 336.824219 210.03125 336.800781 210.441406 336.796875 210.8125 C 336.792969 211.1875 336.796875 211.542969 336.796875 211.832031 C 336.796875 211.992188 336.792969 212.125 336.789062 212.210938 C 336.789062 212.25 336.789062 212.246094 336.789062 212.261719 C 336.789062 212.269531 336.78125 212.210938 336.785156 212.230469 C 336.789062 212.25 336.730469 212.039062 336.757812 212.109375 C 336.867188 212.414062 336.710938 212.75 336.402344 212.863281 C 336.097656 212.972656 335.761719 212.816406 335.648438 212.511719 C 335.601562 212.371094 335.613281 212.347656 335.613281 212.316406 C 335.609375 212.261719 335.613281 212.226562 335.613281 212.179688 C 335.617188 212.085938 335.621094 211.96875 335.621094 211.828125 C 335.621094 211.558594 335.613281 211.191406 335.621094 210.796875 C 335.625 210.402344 335.644531 210.019531 335.621094 209.691406 C 335.578125 209.046875 335.46875 208.511719 335.445312 208.007812 M 336.679688 212.660156 C 336.484375 212.921875 336.117188 212.976562 335.855469 212.78125 C 335.59375 212.589844 335.539062 212.21875 335.734375 211.960938 C 335.761719 211.925781 335.675781 212.058594 335.683594 212.039062 C 335.699219 212.011719 335.917969 210.660156 336.382812 209.398438 C 336.785156 208.3125 337.394531 207.296875 338.175781 206.628906 C 338.667969 206.210938 339.257812 206.039062 339.785156 206.039062 C 340.160156 206.042969 340.574219 206.148438 340.90625 206.421875 C 341.535156 206.941406 341.640625 207.757812 341.71875 208.460938 C 341.792969 209.125 341.785156 209.851562 341.5 210.535156 C 340.953125 211.84375 339.585938 212.601562 338.355469 213.027344 C 337.757812 213.238281 337.195312 213.359375 336.71875 213.390625 C 336.484375 213.402344 336.273438 213.402344 336.054688 213.335938 C 335.820312 213.265625 335.441406 212.976562 335.46875 212.570312 C 335.492188 212.246094 335.773438 212 336.097656 212.019531 C 336.421875 212.042969 336.664062 212.324219 336.644531 212.648438 C 336.640625 212.707031 336.585938 212.378906 336.613281 212.445312 C 336.652344 212.542969 336.410156 212.210938 336.457031 212.246094 C 336.5 212.273438 336.382812 212.207031 336.386719 212.207031 C 336.390625 212.207031 336.496094 212.222656 336.644531 212.214844 C 336.976562 212.195312 337.457031 212.09375 337.96875 211.917969 C 339.019531 211.550781 340.082031 210.871094 340.414062 210.082031 C 340.585938 209.667969 340.609375 209.144531 340.546875 208.589844 C 340.480469 207.988281 340.292969 207.441406 340.15625 207.328125 C 340.066406 207.253906 339.957031 207.21875 339.777344 207.214844 C 339.515625 207.214844 339.195312 207.308594 338.9375 207.527344 C 338.378906 208 337.832031 208.875 337.484375 209.808594 C 337.28125 210.359375 337.140625 210.9375 337.03125 211.433594 C 336.925781 211.910156 336.914062 212.234375 336.730469 212.582031 C 336.722656 212.597656 336.707031 212.625 336.679688 212.660156 "/>
<path style=" stroke:none;fill-rule:nonzero;fill:rgb(7.058716%,1.176453%,46.665955%);fill-opacity:1;" d="M 128.976562 95.054688 L 128.976562 156.199219 L 187.015625 125.519531 Z M 128.664062 93.558594 L 188.550781 124.996094 C 188.96875 125.214844 188.96875 125.816406 188.550781 126.035156 L 128.664062 157.695312 C 128.273438 157.902344 127.800781 157.617188 127.800781 157.175781 L 127.800781 94.078125 C 127.800781 93.636719 128.269531 93.351562 128.664062 93.558594 "/>
<path style=" stroke:none;fill-rule:nonzero;fill:rgb(7.058716%,1.176453%,46.665955%);fill-opacity:1;" d="M 137.808594 105.144531 C 137.808594 104.820312 138.074219 104.558594 138.398438 104.558594 C 138.722656 104.558594 138.984375 104.820312 138.984375 105.144531 L 138.984375 114.894531 C 138.984375 115.21875 138.722656 115.484375 138.398438 115.484375 C 138.074219 115.484375 137.808594 115.21875 137.808594 114.894531 Z M 137.808594 105.144531 "/>
<path style=" stroke:none;fill-rule:nonzero;fill:rgb(7.058716%,1.176453%,46.665955%);fill-opacity:1;" d="M 133.480469 110.609375 C 133.15625 110.609375 132.894531 110.34375 132.894531 110.019531 C 132.894531 109.695312 133.15625 109.433594 133.480469 109.433594 L 143.3125 109.433594 C 143.636719 109.433594 143.902344 109.695312 143.902344 110.019531 C 143.902344 110.34375 143.636719 110.609375 143.3125 110.609375 Z M 133.480469 110.609375 "/>
<path style=" stroke:none;fill-rule:nonzero;fill:rgb(7.058716%,1.176453%,46.665955%);fill-opacity:1;" d="M 133.480469 141.699219 C 133.15625 141.699219 132.894531 141.433594 132.894531 141.109375 C 132.894531 140.785156 133.15625 140.519531 133.480469 140.519531 L 143.3125 140.519531 C 143.636719 140.519531 143.902344 140.785156 143.902344 141.109375 C 143.902344 141.433594 143.636719 141.699219 143.3125 141.699219 Z M 133.480469 141.699219 "/>
<path style=" stroke:none;fill-rule:nonzero;fill:rgb(7.058716%,1.176453%,46.665955%);fill-opacity:1;" d="M 128.664062 109.207031 C 128.988281 109.207031 129.253906 109.472656 129.253906 109.796875 C 129.253906 110.121094 128.988281 110.382812 128.664062 110.382812 L 97.222656 110.382812 C 96.898438 110.382812 96.632812 110.121094 96.632812 109.796875 C 96.632812 109.472656 96.898438 109.207031 97.222656 109.207031 Z M 128.664062 109.207031 "/>
<path style=" stroke:none;fill-rule:nonzero;fill:rgb(7.058716%,1.176453%,46.665955%);fill-opacity:1;" d="M 128.664062 140.644531 C 128.988281 140.644531 129.253906 140.90625 129.253906 141.230469 C 129.253906 141.558594 128.988281 141.820312 128.664062 141.820312 L 97.222656 141.820312 C 96.898438 141.820312 96.632812 141.558594 96.632812 141.230469 C 96.632812 140.90625 96.898438 140.644531 97.222656 140.644531 Z M 128.664062 140.644531 "/>
<path style=" stroke:none;fill-rule:nonzero;fill:rgb(7.058716%,1.176453%,46.665955%);fill-opacity:1;" d="M 188.277344 126.105469 C 187.953125 126.105469 187.6875 125.839844 187.6875 125.515625 C 187.6875 125.191406 187.953125 124.925781 188.277344 124.925781 L 219.71875 124.925781 C 220.042969 124.925781 220.304688 125.191406 220.304688 125.515625 C 220.304688 125.839844 220.042969 126.105469 219.71875 126.105469 Z M 188.277344 126.105469 "/>
<path style=" stroke:none;fill-rule:nonzero;fill:rgb(7.058716%,1.176453%,46.665955%);fill-opacity:1;" d="M 249.183594 112.773438 C 249.511719 112.773438 249.773438 113.039062 249.773438 113.363281 C 249.773438 113.6875 249.511719 113.949219 249.183594 113.949219 L 235.015625 113.949219 C 234.6875 113.949219 234.425781 113.6875 234.425781 113.363281 C 234.425781 113.039062 234.6875 112.773438 235.015625 112.773438 Z M 249.183594 112.773438 "/>
<path style=" stroke:none;fill-rule:nonzero;fill:rgb(7.058716%,1.176453%,46.665955%);fill-opacity:1;" d="M 234.425781 113.363281 C 234.425781 113.039062 234.6875 112.773438 235.015625 112.773438 C 235.339844 112.773438 235.601562 113.039062 235.601562 113.363281 L 235.601562 137.890625 C 235.601562 138.214844 235.339844 138.480469 235.015625 138.480469 C 234.6875 138.480469 234.425781 138.214844 234.425781 137.890625 Z M 234.425781 113.363281 "/>
<path style=" stroke:none;fill-rule:nonzero;fill:rgb(7.058716%,1.176453%,46.665955%);fill-opacity:1;" d="M 235.015625 138.480469 C 234.6875 138.480469 234.425781 138.214844 234.425781 137.890625 C 234.425781 137.566406 234.6875 137.304688 235.015625 137.304688 L 249.183594 137.304688 C 249.511719 137.304688 249.773438 137.566406 249.773438 137.890625 C 249.773438 138.214844 249.511719 138.480469 249.183594 138.480469 Z M 235.015625 138.480469 "/>
<path style=" stroke:none;fill-rule:nonzero;fill:rgb(7.058716%,1.176453%,46.665955%);fill-opacity:1;" d="M 248.597656 137.890625 C 248.597656 137.566406 248.859375 137.304688 249.183594 137.304688 C 249.511719 137.304688 249.773438 137.566406 249.773438 137.890625 L 249.773438 158.980469 C 249.773438 159.304688 249.511719 159.570312 249.183594 159.570312 C 248.859375 159.570312 248.597656 159.304688 248.597656 158.980469 Z M 248.597656 137.890625 "/>
<path style=" stroke:none;fill-rule:nonzero;fill:rgb(7.058716%,1.176453%,46.665955%);fill-opacity:1;" d="M 230.820312 114.335938 C 230.820312 114.011719 231.085938 113.746094 231.410156 113.746094 C 231.734375 113.746094 231.996094 114.011719 231.996094 114.335938 L 231.996094 136.917969 C 231.996094 137.246094 231.734375 137.507812 231.410156 137.507812 C 231.085938 137.507812 230.820312 137.246094 230.820312 136.917969 Z M 230.820312 114.335938 "/>
<path style=" stroke:none;fill-rule:nonzero;fill:rgb(7.058716%,1.176453%,46.665955%);fill-opacity:1;" d="M 212.023438 126.214844 C 211.699219 126.214844 211.4375 125.953125 211.4375 125.628906 C 211.4375 125.300781 211.699219 125.039062 212.023438 125.039062 L 231.410156 125.039062 C 231.734375 125.039062 231.996094 125.300781 231.996094 125.628906 C 231.996094 125.953125 231.734375 126.214844 231.410156 126.214844 Z M 212.023438 126.214844 "/>
<path style=" stroke:none;fill-rule:nonzero;fill:rgb(7.058716%,1.176453%,46.665955%);fill-opacity:1;" d="M 248.597656 92.273438 C 248.597656 91.949219 248.859375 91.6875 249.183594 91.6875 C 249.511719 91.6875 249.773438 91.949219 249.773438 92.273438 L 249.773438 113.363281 C 249.773438 113.6875 249.511719 113.949219 249.183594 113.949219 C 248.859375 113.949219 248.597656 113.6875 248.597656 113.363281 Z M 248.597656 92.273438 "/>
<path style=" stroke:none;fill-rule:nonzero;fill:rgb(7.058716%,1.176453%,46.665955%);fill-opacity:1;" d="M 243.714844 134.234375 C 243.714844 133.910156 243.976562 133.648438 244.300781 133.648438 C 244.628906 133.648438 244.890625 133.910156 244.890625 134.234375 L 244.890625 141.546875 C 244.890625 141.871094 244.628906 142.136719 244.300781 142.136719 C 243.976562 142.136719 243.714844 141.871094 243.714844 141.546875 Z M 243.714844 134.234375 "/>
<path style=" stroke:none;fill-rule:nonzero;fill:rgb(7.058716%,1.176453%,46.665955%);fill-opacity:1;" d="M 243.949219 134.707031 C 243.691406 134.511719 243.636719 134.144531 243.832031 133.882812 C 244.027344 133.621094 244.394531 133.570312 244.65625 133.765625 L 249.539062 137.421875 C 249.796875 137.617188 249.851562 137.984375 249.65625 138.246094 C 249.460938 138.503906 249.09375 138.558594 248.832031 138.363281 Z M 243.949219 134.707031 "/>
<path style=" stroke:none;fill-rule:nonzero;fill:rgb(7.058716%,1.176453%,46.665955%);fill-opacity:1;" d="M 244.65625 142.019531 C 244.394531 142.214844 244.027344 142.160156 243.832031 141.902344 C 243.636719 141.640625 243.691406 141.273438 243.949219 141.078125 L 248.832031 137.421875 C 249.09375 137.226562 249.460938 137.277344 249.65625 137.539062 C 249.851562 137.800781 249.796875 138.167969 249.539062 138.363281 Z M 244.65625 142.019531 "/>
<path style=" stroke:none;fill-rule:nonzero;fill:rgb(7.058716%,1.176453%,46.665955%);fill-opacity:1;" d="M 245.386719 135.480469 C 245.703125 135.542969 245.910156 135.851562 245.847656 136.171875 C 245.785156 136.492188 245.472656 136.695312 245.15625 136.632812 C 244.660156 136.535156 244.730469 136.351562 244.695312 136.304688 C 244.644531 136.242188 244.617188 136.191406 244.601562 136.164062 C 244.597656 136.152344 244.601562 136.160156 244.597656 136.152344 C 244.59375 136.148438 244.667969 136.246094 244.640625 136.210938 C 244.429688 135.964844 244.460938 135.59375 244.710938 135.382812 C 244.957031 135.171875 245.328125 135.203125 245.539062 135.453125 C 245.675781 135.613281 245.585938 135.535156 245.621094 135.582031 C 245.644531 135.609375 245.648438 135.613281 245.652344 135.621094 C 245.65625 135.625 245.574219 135.554688 245.605469 135.578125 C 245.621094 135.589844 245.5 135.515625 245.53125 135.53125 C 245.566406 135.550781 245.324219 135.464844 245.386719 135.480469 M 244.542969 135.609375 C 244.671875 135.308594 245.019531 135.171875 245.316406 135.296875 C 245.617188 135.425781 245.753906 135.769531 245.628906 136.070312 C 245.625 136.074219 245.632812 136.0625 245.628906 136.0625 C 245.628906 136.070312 245.632812 136.054688 245.632812 136.054688 C 245.632812 136.058594 245.636719 136.035156 245.632812 136.042969 C 245.632812 136.105469 245.628906 136.164062 245.628906 136.210938 C 245.625 136.46875 245.625 136.757812 245.628906 137.105469 C 245.628906 137.410156 245.628906 137.753906 245.628906 138.101562 C 245.628906 138.332031 245.628906 138.558594 245.628906 138.757812 C 245.628906 138.90625 245.625 139.03125 245.628906 139.144531 C 245.628906 139.289062 245.628906 139.398438 245.636719 139.464844 C 245.640625 139.484375 245.65625 139.539062 245.679688 139.617188 C 245.695312 139.675781 245.707031 139.71875 245.710938 139.738281 C 245.714844 139.742188 245.695312 139.695312 245.707031 139.71875 C 245.710938 139.730469 245.664062 139.636719 245.679688 139.664062 C 245.695312 139.691406 245.550781 139.507812 245.59375 139.554688 C 245.628906 139.589844 245.378906 139.410156 245.445312 139.445312 C 245.734375 139.589844 245.851562 139.941406 245.707031 140.234375 C 245.5625 140.523438 245.207031 140.640625 244.917969 140.496094 C 244.847656 140.460938 244.796875 140.421875 244.757812 140.382812 C 244.433594 140.054688 244.570312 140.015625 244.550781 139.953125 C 244.53125 139.886719 244.492188 139.777344 244.472656 139.621094 C 244.449219 139.445312 244.453125 139.296875 244.449219 139.152344 C 244.449219 139.03125 244.449219 138.902344 244.449219 138.757812 C 244.449219 138.558594 244.449219 138.332031 244.449219 138.101562 C 244.449219 137.75 244.453125 137.410156 244.449219 137.113281 C 244.449219 136.761719 244.445312 136.464844 244.449219 136.195312 C 244.453125 136.109375 244.457031 136.035156 244.460938 135.984375 C 244.464844 135.871094 244.484375 135.785156 244.507812 135.714844 C 244.515625 135.683594 244.527344 135.652344 244.535156 135.628906 C 244.539062 135.625 244.542969 135.617188 244.542969 135.609375 M 245.355469 140.535156 C 245.042969 140.628906 244.714844 140.449219 244.625 140.136719 C 244.53125 139.828125 244.707031 139.5 245.019531 139.40625 C 245.082031 139.386719 244.828125 139.503906 244.867188 139.480469 C 244.902344 139.453125 244.757812 139.574219 244.777344 139.550781 C 244.828125 139.5 244.679688 139.6875 244.695312 139.660156 C 244.707031 139.640625 244.671875 139.710938 244.671875 139.703125 C 244.6875 139.667969 244.671875 139.695312 244.691406 139.617188 C 244.765625 139.320312 244.871094 138.976562 244.917969 138.542969 C 244.960938 138.179688 244.941406 137.691406 244.957031 137.1875 C 244.964844 136.925781 244.984375 136.671875 245.027344 136.433594 C 245.058594 136.261719 245.109375 136.125 245.152344 136.019531 C 245.191406 135.9375 245.230469 135.859375 245.304688 135.78125 C 245.339844 135.738281 245.386719 135.6875 245.46875 135.640625 C 245.558594 135.589844 245.703125 135.527344 245.90625 135.566406 C 246.222656 135.632812 246.429688 135.941406 246.363281 136.261719 C 246.300781 136.578125 245.988281 136.785156 245.671875 136.71875 C 245.578125 136.699219 245.988281 136.699219 245.921875 136.714844 C 245.855469 136.730469 246.101562 136.632812 246.066406 136.65625 C 246 136.695312 246.207031 136.535156 246.183594 136.558594 C 246.148438 136.601562 246.234375 136.484375 246.230469 136.492188 C 246.214844 136.527344 246.195312 136.582031 246.183594 136.644531 C 246.160156 136.792969 246.140625 137 246.132812 137.226562 C 246.117188 137.679688 246.144531 138.183594 246.089844 138.675781 C 246.027344 139.21875 245.898438 139.644531 245.832031 139.902344 C 245.824219 139.945312 245.816406 140.019531 245.765625 140.144531 C 245.742188 140.199219 245.726562 140.269531 245.613281 140.378906 C 245.5625 140.429688 245.484375 140.496094 245.355469 140.535156 M 245.285156 136.445312 C 245.121094 136.167969 245.214844 135.804688 245.496094 135.640625 C 245.777344 135.476562 246.136719 135.570312 246.300781 135.851562 C 246.304688 135.855469 246.304688 135.859375 246.308594 135.863281 C 246.355469 135.945312 246.367188 136.003906 246.375 136.046875 C 246.390625 136.125 246.390625 136.167969 246.390625 136.210938 C 246.390625 136.292969 246.382812 136.363281 246.371094 136.441406 C 246.363281 136.484375 246.371094 136.34375 246.371094 136.355469 C 246.375 136.375 246.394531 136.414062 246.414062 136.554688 C 246.429688 136.667969 246.441406 136.777344 246.453125 136.90625 C 246.464844 137.054688 246.472656 137.21875 246.480469 137.40625 C 246.492188 137.710938 246.492188 138.046875 246.496094 138.332031 C 246.5 138.476562 246.507812 138.609375 246.511719 138.734375 C 246.519531 138.832031 246.519531 138.910156 246.519531 138.914062 C 246.523438 138.949219 246.519531 138.933594 246.523438 138.953125 C 246.523438 138.960938 246.511719 138.898438 246.515625 138.914062 C 246.519531 138.9375 246.464844 138.773438 246.484375 138.820312 C 246.613281 139.117188 246.476562 139.464844 246.179688 139.59375 C 245.882812 139.722656 245.535156 139.589844 245.40625 139.289062 C 245.363281 139.195312 245.363281 139.152344 245.359375 139.117188 C 245.351562 139.066406 245.351562 139.042969 245.347656 139.019531 C 245.339844 138.925781 245.339844 138.859375 245.335938 138.785156 C 245.332031 138.671875 245.324219 138.527344 245.320312 138.355469 C 245.316406 138.054688 245.3125 137.722656 245.304688 137.453125 C 245.296875 137.273438 245.289062 137.121094 245.277344 137.003906 C 245.269531 136.890625 245.261719 136.808594 245.246094 136.714844 C 245.246094 136.707031 245.15625 136.582031 245.207031 136.261719 C 245.210938 136.226562 245.214844 136.207031 245.214844 136.203125 C 245.214844 136.195312 245.234375 136.335938 245.222656 136.277344 C 245.214844 136.246094 245.324219 136.511719 245.28125 136.4375 C 245.277344 136.433594 245.289062 136.449219 245.285156 136.445312 M 246.042969 139.640625 C 245.71875 139.691406 245.417969 139.472656 245.371094 139.148438 C 245.320312 138.828125 245.539062 138.527344 245.863281 138.480469 C 245.980469 138.460938 245.546875 138.628906 245.605469 138.585938 C 245.65625 138.550781 245.480469 138.714844 245.503906 138.6875 C 245.539062 138.640625 245.445312 138.785156 245.449219 138.769531 C 245.457031 138.753906 245.449219 138.773438 245.457031 138.75 C 245.476562 138.691406 245.507812 138.59375 245.546875 138.480469 C 245.640625 138.234375 245.761719 137.992188 245.855469 137.761719 C 245.984375 137.460938 246.082031 137.179688 246.125 136.96875 C 246.136719 136.90625 246.136719 136.824219 246.140625 136.707031 C 246.140625 136.617188 246.140625 136.527344 246.140625 136.453125 C 246.136719 136.324219 246.140625 136.210938 246.140625 136.167969 C 246.140625 136.164062 246.140625 136.160156 246.140625 136.15625 C 246.144531 135.832031 246.414062 135.574219 246.738281 135.578125 C 247.0625 135.585938 247.320312 135.851562 247.316406 136.175781 C 247.316406 136.179688 247.316406 136.167969 247.316406 136.167969 C 247.316406 136.230469 247.3125 136.324219 247.316406 136.4375 C 247.316406 136.527344 247.316406 136.621094 247.316406 136.71875 C 247.316406 136.835938 247.316406 137 247.277344 137.195312 C 247.210938 137.539062 247.085938 137.878906 246.941406 138.21875 C 246.832031 138.480469 246.714844 138.722656 246.648438 138.898438 C 246.625 138.964844 246.597656 139.046875 246.570312 139.132812 C 246.554688 139.175781 246.539062 139.21875 246.511719 139.28125 C 246.492188 139.3125 246.472656 139.355469 246.429688 139.414062 C 246.375 139.480469 246.28125 139.605469 246.042969 139.640625 M 246.140625 136.21875 C 246.113281 135.894531 246.351562 135.609375 246.675781 135.582031 C 247 135.554688 247.285156 135.792969 247.3125 136.117188 C 247.316406 136.136719 247.316406 136.144531 247.316406 136.15625 C 247.316406 136.183594 247.320312 136.214844 247.320312 136.261719 C 247.320312 136.351562 247.320312 136.476562 247.316406 136.625 C 247.296875 137.066406 247.21875 137.550781 247.164062 137.941406 C 247.148438 138.066406 247.132812 138.179688 247.121094 138.273438 C 247.113281 138.363281 247.101562 138.292969 247.109375 138.347656 C 247.121094 138.421875 247.121094 138.441406 247.121094 138.453125 C 247.121094 138.464844 247.085938 138.3125 247.101562 138.363281 C 247.121094 138.421875 246.871094 138.058594 246.957031 138.136719 C 247.023438 138.199219 246.6875 138.003906 246.753906 138.023438 C 246.8125 138.039062 246.558594 138.007812 246.597656 138.003906 C 246.675781 138 246.394531 138.074219 246.4375 138.050781 C 246.496094 138.015625 246.289062 138.183594 246.3125 138.15625 C 246.34375 138.117188 246.273438 138.210938 246.273438 138.207031 C 246.277344 138.203125 246.289062 138.179688 246.3125 138.140625 C 246.410156 137.984375 246.519531 137.78125 246.589844 137.597656 C 246.636719 137.464844 246.683594 137.351562 246.714844 137.265625 C 246.761719 137.144531 246.789062 137.023438 246.847656 136.882812 C 246.851562 136.875 246.796875 136.910156 246.929688 136.6875 C 247.097656 136.40625 247.457031 136.316406 247.738281 136.484375 C 248.015625 136.652344 248.105469 137.011719 247.9375 137.292969 C 247.902344 137.351562 247.984375 137.191406 247.980469 137.199219 C 247.976562 137.210938 247.96875 137.253906 247.933594 137.335938 C 247.929688 137.351562 247.882812 137.496094 247.824219 137.664062 C 247.777344 137.792969 247.730469 137.902344 247.695312 138.003906 C 247.582031 138.304688 247.433594 138.5625 247.316406 138.757812 C 247.304688 138.773438 247.328125 138.894531 247.035156 139.066406 C 246.929688 139.128906 246.8125 139.171875 246.671875 139.179688 C 246.523438 139.1875 246.324219 139.15625 246.15625 139 C 245.964844 138.824219 245.960938 138.648438 245.953125 138.582031 C 245.945312 138.523438 245.949219 138.546875 245.949219 138.527344 C 245.921875 138.355469 245.941406 138.25 245.953125 138.15625 C 245.964844 138.039062 245.980469 137.910156 246 137.777344 C 246.054688 137.378906 246.125 136.914062 246.140625 136.578125 C 246.144531 136.457031 246.144531 136.351562 246.144531 136.277344 C 246.140625 136.246094 246.140625 136.21875 246.140625 136.210938 C 246.140625 136.207031 246.144531 136.230469 246.140625 136.21875 M 246.875 137.164062 C 246.777344 136.855469 246.953125 136.523438 247.265625 136.429688 C 247.578125 136.335938 247.90625 136.511719 248 136.820312 C 248.015625 136.875 248.019531 136.902344 248.023438 136.933594 C 248.03125 136.996094 248.035156 137.054688 248.03125 137.121094 C 248.03125 137.125 248.03125 137.207031 248.03125 137.3125 C 248.027344 137.410156 248.03125 137.519531 248.03125 137.648438 C 248.03125 137.6875 248.03125 137.730469 248.03125 137.773438 C 248.03125 137.882812 248.023438 137.898438 248.027344 137.929688 C 248.035156 138 248.035156 138.050781 248.035156 138.0625 C 248.035156 138.066406 248.027344 138 248.03125 138.03125 C 248.03125 138.050781 248.007812 137.917969 248.015625 137.953125 C 248.027344 137.992188 247.910156 137.742188 247.949219 137.804688 C 248.121094 138.078125 248.042969 138.441406 247.769531 138.617188 C 247.492188 138.789062 247.128906 138.710938 246.957031 138.433594 C 246.675781 137.996094 246.859375 138.066406 246.855469 138.050781 C 246.84375 137.914062 246.855469 137.84375 246.855469 137.773438 C 246.855469 137.734375 246.855469 137.6875 246.855469 137.644531 C 246.855469 137.535156 246.851562 137.417969 246.855469 137.285156 C 246.855469 137.234375 246.847656 137.167969 246.855469 137.0625 C 246.855469 137.058594 246.859375 137.113281 246.855469 137.089844 C 246.855469 137.074219 246.886719 137.207031 246.875 137.164062 M 247.894531 138.507812 C 247.675781 138.75 247.304688 138.769531 247.0625 138.554688 C 246.820312 138.335938 246.800781 137.964844 247.015625 137.722656 C 247.023438 137.714844 247.03125 137.707031 247.039062 137.695312 C 247.058594 137.667969 247.082031 137.636719 247.089844 137.625 C 247.160156 137.515625 247.171875 137.519531 247.199219 137.464844 C 247.214844 137.429688 247.226562 137.40625 247.226562 137.402344 C 247.226562 137.402344 247.210938 137.4375 247.21875 137.421875 C 247.226562 137.402344 247.175781 137.605469 247.1875 137.539062 C 247.238281 137.21875 247.535156 136.996094 247.859375 137.046875 C 248.179688 137.09375 248.398438 137.394531 248.351562 137.714844 C 248.3125 137.972656 248.273438 137.941406 248.273438 137.945312 C 248.195312 138.117188 248.132812 138.179688 248.089844 138.25 C 248.042969 138.324219 248 138.378906 247.960938 138.425781 C 247.945312 138.449219 247.929688 138.46875 247.914062 138.484375 C 247.910156 138.492188 247.902344 138.496094 247.894531 138.507812 M 247.414062 137.160156 C 247.675781 136.96875 248.042969 137.023438 248.234375 137.285156 C 248.429688 137.546875 248.371094 137.914062 248.109375 138.109375 C 248.085938 138.125 248.082031 138.128906 248.078125 138.132812 C 248.066406 138.136719 248.0625 138.140625 248.058594 138.144531 C 248.007812 138.199219 247.953125 138.238281 247.886719 138.28125 C 247.851562 138.300781 247.808594 138.324219 247.738281 138.347656 C 247.660156 138.375 247.5 138.464844 247.222656 138.289062 C 246.949219 138.117188 246.867188 137.753906 247.039062 137.476562 C 247.214844 137.203125 247.578125 137.121094 247.851562 137.292969 C 247.921875 137.339844 247.59375 137.203125 247.652344 137.214844 C 247.734375 137.230469 247.417969 137.214844 247.464844 137.210938 C 247.503906 137.203125 247.347656 137.238281 247.367188 137.230469 C 247.425781 137.214844 247.261719 137.28125 247.277344 137.273438 C 247.300781 137.257812 247.230469 137.308594 247.238281 137.300781 C 247.296875 137.246094 247.351562 137.203125 247.390625 137.175781 C 247.40625 137.164062 247.414062 137.160156 247.414062 137.160156 "/>
<path style=" stroke:none;fill-rule:nonzero;fill:rgb(92.941284%,21.176147%,14.117432%);fill-opacity:1;" d="M 263.535156 74.769531 C 263.6875 75.164062 263.492188 75.613281 263.09375 75.765625 C 262.695312 75.921875 262.246094 75.722656 262.09375 75.324219 C 262.046875 75.203125 262.007812 75.128906 261.992188 75.105469 C 261.988281 75.097656 262.03125 75.144531 262.011719 75.125 C 261.984375 75.097656 262.277344 75.28125 262.179688 75.238281 C 262.136719 75.21875 262.457031 75.296875 262.378906 75.289062 C 262.296875 75.28125 262.730469 75.238281 262.640625 75.265625 C 262.542969 75.292969 262.921875 75.109375 262.859375 75.15625 C 262.800781 75.199219 263.023438 74.984375 262.992188 75.023438 C 262.933594 75.101562 263.089844 74.820312 263.082031 74.855469 C 263.074219 74.882812 263.089844 74.8125 263.089844 74.816406 C 263.085938 74.851562 263.300781 75.753906 263.527344 76.910156 C 263.835938 78.503906 264.117188 80.601562 264.28125 82.5 C 264.398438 83.886719 264.335938 85.015625 264.367188 85.628906 C 264.375 85.761719 264.386719 85.855469 264.394531 85.882812 C 264.394531 85.886719 264.351562 85.789062 264.371094 85.832031 C 264.398438 85.878906 264.082031 85.554688 264.1875 85.628906 C 264.296875 85.703125 263.695312 85.519531 263.808594 85.515625 C 263.917969 85.511719 263.582031 85.574219 263.609375 85.5625 C 263.648438 85.542969 263.628906 85.550781 263.71875 85.464844 C 264.027344 85.167969 264.515625 85.179688 264.8125 85.484375 C 265.105469 85.792969 265.097656 86.28125 264.789062 86.578125 C 264.636719 86.726562 264.492188 86.851562 264.28125 86.953125 C 264.058594 87.0625 263.636719 87.121094 263.316406 86.902344 C 263.007812 86.695312 262.9375 86.433594 262.890625 86.242188 C 262.847656 86.0625 262.835938 85.890625 262.824219 85.707031 C 262.789062 84.945312 262.851562 83.90625 262.742188 82.632812 C 262.582031 80.789062 262.304688 78.722656 262.007812 77.203125 C 261.800781 76.121094 261.484375 75.433594 261.550781 74.679688 C 261.566406 74.511719 261.585938 74.324219 261.757812 74.09375 C 261.851562 73.972656 262.003906 73.835938 262.21875 73.777344 C 262.425781 73.71875 262.644531 73.753906 262.789062 73.816406 C 263.324219 74.050781 263.390625 74.390625 263.535156 74.769531 "/>
<path style=" stroke:none;fill-rule:nonzero;fill:rgb(92.941284%,21.176147%,14.117432%);fill-opacity:1;" d="M 267.722656 82.722656 C 267.84375 82.3125 268.273438 82.078125 268.683594 82.199219 C 269.089844 82.320312 269.328125 82.746094 269.207031 83.15625 C 269.03125 83.761719 269.023438 85.015625 269.039062 85.980469 C 269.046875 86.40625 268.707031 86.757812 268.28125 86.765625 C 267.855469 86.773438 267.503906 86.433594 267.496094 86.007812 C 267.476562 85.015625 267.429688 83.730469 267.722656 82.722656 "/>
<path style=" stroke:none;fill-rule:nonzero;fill:rgb(92.941284%,21.176147%,14.117432%);fill-opacity:1;" d="M 270.8125 75.351562 C 271.234375 75.292969 271.625 75.585938 271.6875 76.007812 C 271.746094 76.429688 271.449219 76.820312 271.027344 76.878906 C 270.929688 76.894531 271.375 76.707031 271.304688 76.761719 C 271.234375 76.816406 271.449219 76.585938 271.429688 76.621094 C 271.398438 76.679688 271.445312 76.578125 271.4375 76.632812 C 271.421875 76.761719 271.421875 77.003906 271.441406 77.246094 C 271.480469 77.734375 271.542969 77.996094 271.683594 78.152344 C 271.777344 78.25 272.085938 78.40625 272.59375 78.589844 C 273.253906 78.828125 274.1875 79.042969 275.03125 79.507812 C 275.472656 79.746094 275.855469 80.066406 276.132812 80.46875 C 276.410156 80.871094 276.574219 81.371094 276.546875 81.886719 C 276.523438 82.359375 276.359375 82.800781 276.125 83.207031 C 275.59375 84.125 274.699219 84.742188 274.015625 85.179688 C 273.671875 85.402344 273.371094 85.710938 272.742188 85.667969 C 272.398438 85.640625 272.046875 85.390625 271.886719 85.121094 C 271.734375 84.859375 271.679688 84.597656 271.640625 84.308594 C 271.585938 83.882812 271.882812 83.496094 272.308594 83.441406 C 272.730469 83.386719 273.117188 83.683594 273.171875 84.105469 C 273.199219 84.285156 273.199219 84.304688 273.21875 84.335938 C 273.234375 84.359375 273.023438 84.160156 273.09375 84.210938 C 273.167969 84.257812 272.78125 84.121094 272.851562 84.125 C 272.917969 84.128906 272.738281 84.136719 272.746094 84.132812 C 272.757812 84.128906 272.941406 84.035156 273.179688 83.882812 C 273.777344 83.5 274.496094 82.933594 274.789062 82.429688 C 274.929688 82.1875 274.996094 81.964844 275.003906 81.8125 C 275.011719 81.652344 274.96875 81.503906 274.859375 81.34375 C 274.746094 81.179688 274.550781 81.003906 274.289062 80.863281 C 273.6875 80.53125 272.835938 80.320312 272.070312 80.042969 C 271.511719 79.84375 270.972656 79.65625 270.550781 79.199219 C 270.035156 78.640625 269.945312 77.941406 269.902344 77.367188 C 269.878906 77.066406 269.863281 76.746094 269.910156 76.414062 C 269.933594 76.246094 269.96875 76.0625 270.082031 75.863281 C 270.203125 75.652344 270.472656 75.398438 270.8125 75.351562 "/>
<path style=" stroke:none;fill-rule:nonzero;fill:rgb(92.941284%,21.176147%,14.117432%);fill-opacity:1;" d="M 272.472656 75.398438 C 272.605469 75.804688 272.386719 76.242188 271.980469 76.375 C 271.578125 76.507812 271.140625 76.289062 271.007812 75.882812 C 270.929688 75.65625 270.746094 75.234375 270.894531 74.660156 C 270.964844 74.375 271.144531 74.15625 271.324219 74.011719 C 271.496094 73.875 271.675781 73.789062 271.855469 73.722656 C 272.214844 73.585938 272.59375 73.507812 272.984375 73.441406 C 273.761719 73.304688 274.558594 73.199219 274.898438 73.050781 C 275.289062 72.882812 275.746094 73.058594 275.914062 73.449219 C 276.085938 73.84375 275.90625 74.296875 275.515625 74.46875 C 274.804688 74.777344 273.976562 74.835938 273.25 74.964844 C 272.898438 75.023438 272.59375 75.09375 272.410156 75.164062 C 272.328125 75.195312 272.289062 75.21875 272.285156 75.222656 C 272.28125 75.226562 272.347656 75.144531 272.328125 75.175781 C 272.304688 75.207031 272.402344 74.984375 272.390625 75.039062 C 272.382812 75.070312 272.414062 75.222656 272.472656 75.398438 "/>
<path style=" stroke:none;fill-rule:nonzero;fill:rgb(92.941284%,21.176147%,14.117432%);fill-opacity:1;" d="M 276.242188 73.332031 C 276.613281 73.121094 277.082031 73.25 277.292969 73.621094 C 277.503906 73.992188 277.375 74.464844 277.007812 74.675781 C 276.925781 74.722656 277.21875 74.488281 277.179688 74.53125 C 277.128906 74.59375 277.289062 74.363281 277.273438 74.394531 C 277.261719 74.421875 277.300781 74.328125 277.296875 74.335938 C 277.289062 74.355469 277.292969 74.347656 277.292969 74.402344 C 277.292969 74.523438 277.320312 74.726562 277.414062 74.972656 C 277.558594 75.34375 278.105469 75.957031 278.722656 76.558594 C 279.285156 77.109375 279.949219 77.582031 280.527344 77.949219 C 280.90625 78.1875 281.203125 78.375 281.402344 78.46875 C 281.492188 78.507812 281.550781 78.527344 281.5625 78.527344 C 281.5625 78.527344 281.34375 78.582031 281.421875 78.550781 C 281.492188 78.523438 281.34375 78.605469 281.375 78.558594 C 281.417969 78.5 281.476562 78.375 281.539062 78.203125 C 281.667969 77.832031 281.785156 77.292969 281.910156 76.660156 C 282.066406 75.882812 282.199219 74.972656 282.296875 74.050781 C 282.34375 73.597656 282.351562 73.117188 282.394531 72.648438 C 282.464844 71.832031 282.585938 71.179688 283 70.667969 C 283.207031 70.410156 283.53125 70.203125 283.878906 70.148438 C 284.21875 70.097656 284.542969 70.171875 284.828125 70.292969 C 285.21875 70.457031 285.40625 70.910156 285.238281 71.304688 C 285.074219 71.695312 284.621094 71.882812 284.226562 71.714844 C 284.125 71.671875 284.148438 71.671875 284.117188 71.675781 C 284.078125 71.683594 284.207031 71.628906 284.199219 71.640625 C 284.144531 71.710938 283.992188 72.105469 283.933594 72.785156 C 283.898438 73.183594 283.886719 73.679688 283.832031 74.210938 C 283.730469 75.175781 283.59375 76.128906 283.425781 76.964844 C 283.296875 77.613281 283.175781 78.203125 282.996094 78.714844 C 282.820312 79.214844 282.59375 79.753906 281.976562 79.992188 C 281.503906 80.175781 281.082031 80.023438 280.746094 79.863281 C 280.414062 79.707031 280.082031 79.496094 279.699219 79.253906 C 279.070312 78.851562 278.320312 78.328125 277.640625 77.664062 C 276.992188 77.027344 276.300781 76.375 275.972656 75.527344 C 275.8125 75.109375 275.746094 74.726562 275.75 74.390625 C 275.75 74.230469 275.765625 74.078125 275.808594 73.921875 C 275.851562 73.761719 275.882812 73.539062 276.242188 73.332031 "/>
</g>
</svg>
