<?xml version="1.0" encoding="UTF-8"?>
<svg xmlns="http://www.w3.org/2000/svg" xmlns:xlink="http://www.w3.org/1999/xlink" width="275.644pt" height="217.651pt" viewBox="0 0 275.644 217.651" version="1.2">
<g id="surface1">
<path style=" stroke:none;fill-rule:nonzero;fill:rgb(7.058716%,1.176453%,46.665955%);fill-opacity:1;" d="M 83.121094 128.632812 C 83.445312 128.632812 83.710938 128.894531 83.710938 129.21875 C 83.710938 129.542969 83.445312 129.808594 83.121094 129.808594 L 68.953125 129.808594 C 68.628906 129.808594 68.363281 129.542969 68.363281 129.21875 C 68.363281 128.894531 68.628906 128.632812 68.953125 128.632812 Z M 83.121094 128.632812 "/>
<path style=" stroke:none;fill-rule:nonzero;fill:rgb(7.058716%,1.176453%,46.665955%);fill-opacity:1;" d="M 68.363281 129.21875 C 68.363281 128.894531 68.628906 128.632812 68.953125 128.632812 C 69.277344 128.632812 69.539062 128.894531 69.539062 129.21875 L 69.539062 153.746094 C 69.539062 154.070312 69.277344 154.332031 68.953125 154.332031 C 68.628906 154.332031 68.363281 154.070312 68.363281 153.746094 Z M 68.363281 129.21875 "/>
<path style=" stroke:none;fill-rule:nonzero;fill:rgb(7.058716%,1.176453%,46.665955%);fill-opacity:1;" d="M 68.953125 154.332031 C 68.628906 154.332031 68.363281 154.070312 68.363281 153.746094 C 68.363281 153.421875 68.628906 153.15625 68.953125 153.15625 L 83.121094 153.15625 C 83.445312 153.15625 83.710938 153.421875 83.710938 153.746094 C 83.710938 154.070312 83.445312 154.332031 83.121094 154.332031 Z M 68.953125 154.332031 "/>
<path style=" stroke:none;fill-rule:nonzero;fill:rgb(7.058716%,1.176453%,46.665955%);fill-opacity:1;" d="M 82.535156 153.746094 C 82.535156 153.421875 82.796875 153.15625 83.121094 153.15625 C 83.445312 153.15625 83.710938 153.421875 83.710938 153.746094 L 83.710938 174.832031 C 83.710938 175.15625 83.445312 175.417969 83.121094 175.417969 C 82.796875 175.417969 82.535156 175.15625 82.535156 174.832031 Z M 82.535156 153.746094 "/>
<path style=" stroke:none;fill-rule:nonzero;fill:rgb(7.058716%,1.176453%,46.665955%);fill-opacity:1;" d="M 64.757812 130.191406 C 64.757812 129.867188 65.023438 129.605469 65.347656 129.605469 C 65.671875 129.605469 65.9375 129.867188 65.9375 130.191406 L 65.9375 152.773438 C 65.9375 153.097656 65.671875 153.363281 65.347656 153.363281 C 65.023438 153.363281 64.757812 153.097656 64.757812 152.773438 Z M 64.757812 130.191406 "/>
<path style=" stroke:none;fill-rule:nonzero;fill:rgb(7.058716%,1.176453%,46.665955%);fill-opacity:1;" d="M 45.964844 142.070312 C 45.640625 142.070312 45.375 141.808594 45.375 141.484375 C 45.375 141.15625 45.640625 140.894531 45.964844 140.894531 L 65.347656 140.894531 C 65.671875 140.894531 65.9375 141.15625 65.9375 141.484375 C 65.9375 141.808594 65.671875 142.070312 65.347656 142.070312 Z M 45.964844 142.070312 "/>
<path style=" stroke:none;fill-rule:nonzero;fill:rgb(7.058716%,1.176453%,46.665955%);fill-opacity:1;" d="M 82.535156 108.132812 C 82.535156 107.808594 82.796875 107.546875 83.121094 107.546875 C 83.445312 107.546875 83.710938 107.808594 83.710938 108.132812 L 83.710938 129.21875 C 83.710938 129.542969 83.445312 129.808594 83.121094 129.808594 C 82.796875 129.808594 82.535156 129.542969 82.535156 129.21875 Z M 82.535156 108.132812 "/>
<path style=" stroke:none;fill-rule:nonzero;fill:rgb(7.058716%,1.176453%,46.665955%);fill-opacity:1;" d="M 77.652344 150.089844 C 77.652344 149.765625 77.914062 149.5 78.238281 149.5 C 78.5625 149.5 78.828125 149.765625 78.828125 150.089844 L 78.828125 157.402344 C 78.828125 157.726562 78.5625 157.988281 78.238281 157.988281 C 77.914062 157.988281 77.652344 157.726562 77.652344 157.402344 Z M 77.652344 150.089844 "/>
<path style=" stroke:none;fill-rule:nonzero;fill:rgb(7.058716%,1.176453%,46.665955%);fill-opacity:1;" d="M 77.886719 150.558594 C 77.625 150.367188 77.574219 149.996094 77.769531 149.738281 C 77.964844 149.476562 78.332031 149.421875 78.59375 149.617188 L 83.472656 153.273438 C 83.734375 153.46875 83.789062 153.835938 83.59375 154.097656 C 83.398438 154.359375 83.027344 154.410156 82.769531 154.214844 Z M 77.886719 150.558594 "/>
<path style=" stroke:none;fill-rule:nonzero;fill:rgb(7.058716%,1.176453%,46.665955%);fill-opacity:1;" d="M 78.59375 157.871094 C 78.332031 158.066406 77.964844 158.015625 77.769531 157.753906 C 77.574219 157.492188 77.625 157.125 77.886719 156.929688 L 82.769531 153.273438 C 83.027344 153.078125 83.398438 153.132812 83.59375 153.394531 C 83.789062 153.652344 83.734375 154.023438 83.472656 154.214844 Z M 78.59375 157.871094 "/>
<path style=" stroke:none;fill-rule:nonzero;fill:rgb(7.058716%,1.176453%,46.665955%);fill-opacity:1;" d="M 79.324219 151.332031 C 79.640625 151.398438 79.847656 151.707031 79.785156 152.027344 C 79.722656 152.34375 79.410156 152.550781 79.09375 152.488281 C 78.59375 152.386719 78.667969 152.203125 78.632812 152.160156 C 78.582031 152.097656 78.554688 152.046875 78.539062 152.019531 C 78.535156 152.007812 78.539062 152.011719 78.535156 152.007812 C 78.53125 152 78.605469 152.101562 78.578125 152.066406 C 78.367188 151.820312 78.398438 151.449219 78.644531 151.238281 C 78.894531 151.027344 79.265625 151.058594 79.476562 151.308594 C 79.609375 151.46875 79.523438 151.386719 79.558594 151.433594 C 79.582031 151.464844 79.582031 151.46875 79.589844 151.472656 C 79.59375 151.480469 79.511719 151.410156 79.542969 151.433594 C 79.558594 151.445312 79.4375 151.367188 79.46875 151.386719 C 79.503906 151.402344 79.257812 151.320312 79.324219 151.332031 M 78.480469 151.464844 C 78.609375 151.164062 78.953125 151.023438 79.253906 151.152344 C 79.550781 151.28125 79.691406 151.625 79.5625 151.925781 C 79.5625 151.925781 79.566406 151.914062 79.566406 151.917969 C 79.566406 151.921875 79.570312 151.910156 79.570312 151.910156 C 79.570312 151.910156 79.570312 151.886719 79.570312 151.898438 C 79.566406 151.960938 79.5625 152.015625 79.5625 152.066406 C 79.558594 152.324219 79.5625 152.609375 79.5625 152.957031 C 79.566406 153.265625 79.5625 153.609375 79.5625 153.957031 C 79.5625 154.1875 79.5625 154.414062 79.5625 154.613281 C 79.5625 154.761719 79.5625 154.886719 79.5625 154.996094 C 79.566406 155.144531 79.566406 155.25 79.574219 155.320312 C 79.578125 155.335938 79.59375 155.390625 79.617188 155.472656 C 79.632812 155.53125 79.644531 155.574219 79.648438 155.589844 C 79.652344 155.59375 79.632812 155.550781 79.640625 155.570312 C 79.648438 155.582031 79.601562 155.492188 79.613281 155.515625 C 79.628906 155.542969 79.484375 155.363281 79.53125 155.40625 C 79.566406 155.441406 79.316406 155.265625 79.378906 155.296875 C 79.671875 155.441406 79.789062 155.796875 79.644531 156.085938 C 79.496094 156.378906 79.144531 156.496094 78.855469 156.351562 C 78.785156 156.316406 78.734375 156.273438 78.695312 156.234375 C 78.371094 155.910156 78.507812 155.867188 78.488281 155.808594 C 78.46875 155.742188 78.429688 155.628906 78.410156 155.472656 C 78.386719 155.300781 78.386719 155.148438 78.386719 155.003906 C 78.386719 154.882812 78.386719 154.757812 78.386719 154.613281 C 78.386719 154.414062 78.386719 154.1875 78.386719 153.957031 C 78.386719 153.601562 78.390625 153.261719 78.386719 152.96875 C 78.382812 152.617188 78.382812 152.320312 78.386719 152.046875 C 78.386719 151.964844 78.394531 151.890625 78.394531 151.835938 C 78.402344 151.726562 78.421875 151.636719 78.445312 151.570312 C 78.453125 151.535156 78.464844 151.507812 78.472656 151.484375 C 78.476562 151.476562 78.480469 151.46875 78.480469 151.464844 M 79.292969 156.386719 C 78.980469 156.480469 78.652344 156.304688 78.558594 155.992188 C 78.46875 155.679688 78.644531 155.351562 78.957031 155.261719 C 79.019531 155.242188 78.761719 155.359375 78.804688 155.332031 C 78.839844 155.308594 78.691406 155.425781 78.714844 155.40625 C 78.765625 155.351562 78.617188 155.539062 78.628906 155.515625 C 78.644531 155.492188 78.605469 155.566406 78.609375 155.558594 C 78.625 155.519531 78.609375 155.550781 78.628906 155.472656 C 78.703125 155.175781 78.804688 154.828125 78.855469 154.398438 C 78.898438 154.035156 78.878906 153.546875 78.894531 153.039062 C 78.902344 152.78125 78.921875 152.527344 78.964844 152.289062 C 78.996094 152.117188 79.042969 151.976562 79.089844 151.871094 C 79.125 151.792969 79.167969 151.714844 79.238281 151.632812 C 79.277344 151.589844 79.324219 151.542969 79.40625 151.496094 C 79.492188 151.445312 79.640625 151.378906 79.839844 151.421875 C 80.160156 151.484375 80.367188 151.796875 80.300781 152.113281 C 80.238281 152.433594 79.925781 152.636719 79.609375 152.574219 C 79.511719 152.554688 79.925781 152.550781 79.859375 152.570312 C 79.792969 152.585938 80.039062 152.488281 80.003906 152.507812 C 79.9375 152.546875 80.144531 152.390625 80.121094 152.414062 C 80.085938 152.457031 80.171875 152.335938 80.167969 152.34375 C 80.152344 152.378906 80.132812 152.4375 80.121094 152.496094 C 80.09375 152.644531 80.078125 152.855469 80.070312 153.078125 C 80.054688 153.535156 80.082031 154.039062 80.023438 154.53125 C 79.960938 155.074219 79.835938 155.5 79.769531 155.753906 C 79.757812 155.800781 79.753906 155.871094 79.699219 156 C 79.679688 156.054688 79.660156 156.121094 79.550781 156.234375 C 79.5 156.285156 79.421875 156.347656 79.292969 156.386719 M 79.222656 152.300781 C 79.058594 152.019531 79.152344 151.660156 79.433594 151.496094 C 79.714844 151.332031 80.074219 151.425781 80.238281 151.703125 C 80.238281 151.707031 80.242188 151.710938 80.246094 151.714844 C 80.292969 151.800781 80.304688 151.855469 80.3125 151.898438 C 80.328125 151.976562 80.328125 152.023438 80.328125 152.066406 C 80.324219 152.148438 80.316406 152.21875 80.304688 152.292969 C 80.300781 152.339844 80.308594 152.199219 80.308594 152.210938 C 80.3125 152.226562 80.332031 152.265625 80.351562 152.410156 C 80.367188 152.523438 80.378906 152.632812 80.386719 152.757812 C 80.398438 152.90625 80.40625 153.074219 80.414062 153.257812 C 80.429688 153.5625 80.429688 153.898438 80.433594 154.1875 C 80.4375 154.332031 80.445312 154.464844 80.449219 154.585938 C 80.453125 154.6875 80.457031 154.761719 80.457031 154.765625 C 80.460938 154.800781 80.457031 154.785156 80.460938 154.808594 C 80.460938 154.8125 80.449219 154.75 80.453125 154.769531 C 80.457031 154.789062 80.398438 154.628906 80.421875 154.671875 C 80.550781 154.972656 80.414062 155.316406 80.117188 155.449219 C 79.820312 155.578125 79.472656 155.441406 79.34375 155.144531 C 79.300781 155.046875 79.300781 155.003906 79.292969 154.972656 C 79.285156 154.917969 79.285156 154.894531 79.285156 154.875 C 79.277344 154.777344 79.277344 154.710938 79.273438 154.636719 C 79.269531 154.523438 79.261719 154.378906 79.257812 154.210938 C 79.25 153.910156 79.25 153.578125 79.238281 153.304688 C 79.234375 153.125 79.226562 152.976562 79.214844 152.855469 C 79.207031 152.746094 79.195312 152.660156 79.183594 152.570312 C 79.183594 152.5625 79.09375 152.4375 79.144531 152.117188 C 79.148438 152.082031 79.148438 152.058594 79.148438 152.054688 C 79.148438 152.050781 79.167969 152.1875 79.160156 152.132812 C 79.152344 152.101562 79.261719 152.367188 79.21875 152.289062 C 79.214844 152.285156 79.226562 152.304688 79.222656 152.300781 M 79.976562 155.496094 C 79.65625 155.546875 79.355469 155.324219 79.308594 155.003906 C 79.257812 154.683594 79.476562 154.382812 79.800781 154.332031 C 79.917969 154.316406 79.484375 154.484375 79.539062 154.441406 C 79.59375 154.402344 79.417969 154.566406 79.4375 154.539062 C 79.476562 154.492188 79.378906 154.636719 79.386719 154.625 C 79.394531 154.605469 79.382812 154.628906 79.394531 154.601562 C 79.414062 154.542969 79.441406 154.445312 79.484375 154.335938 C 79.578125 154.089844 79.699219 153.84375 79.792969 153.617188 C 79.917969 153.316406 80.019531 153.035156 80.058594 152.824219 C 80.074219 152.761719 80.074219 152.679688 80.074219 152.5625 C 80.074219 152.46875 80.078125 152.382812 80.074219 152.308594 C 80.074219 152.175781 80.074219 152.066406 80.074219 152.023438 C 80.074219 152.019531 80.074219 152.015625 80.074219 152.011719 C 80.082031 151.6875 80.347656 151.425781 80.675781 151.433594 C 81 151.4375 81.257812 151.707031 81.25 152.03125 C 81.25 152.035156 81.253906 152.023438 81.253906 152.023438 C 81.253906 152.085938 81.25 152.179688 81.253906 152.289062 C 81.253906 152.382812 81.253906 152.476562 81.253906 152.570312 C 81.25 152.6875 81.253906 152.851562 81.214844 153.050781 C 81.148438 153.394531 81.019531 153.734375 80.878906 154.070312 C 80.769531 154.335938 80.652344 154.578125 80.585938 154.75 C 80.558594 154.820312 80.535156 154.898438 80.507812 154.984375 C 80.492188 155.027344 80.476562 155.070312 80.445312 155.132812 C 80.429688 155.167969 80.410156 155.207031 80.363281 155.269531 C 80.3125 155.332031 80.214844 155.460938 79.976562 155.496094 M 80.078125 152.070312 C 80.050781 151.746094 80.289062 151.460938 80.613281 151.433594 C 80.9375 151.40625 81.222656 151.648438 81.25 151.96875 C 81.253906 151.988281 81.253906 151.996094 81.253906 152.007812 C 81.253906 152.035156 81.253906 152.070312 81.257812 152.113281 C 81.257812 152.207031 81.257812 152.332031 81.25 152.476562 C 81.234375 152.921875 81.15625 153.40625 81.101562 153.792969 C 81.082031 153.921875 81.070312 154.035156 81.058594 154.128906 C 81.050781 154.21875 81.039062 154.148438 81.046875 154.203125 C 81.058594 154.277344 81.058594 154.296875 81.058594 154.308594 C 81.058594 154.316406 81.019531 154.164062 81.039062 154.214844 C 81.058594 154.273438 80.808594 153.914062 80.894531 153.992188 C 80.957031 154.054688 80.625 153.859375 80.6875 153.875 C 80.75 153.894531 80.496094 153.859375 80.535156 153.859375 C 80.613281 153.855469 80.332031 153.929688 80.371094 153.90625 C 80.433594 153.871094 80.226562 154.039062 80.25 154.007812 C 80.28125 153.972656 80.210938 154.0625 80.210938 154.0625 C 80.214844 154.054688 80.226562 154.03125 80.25 153.992188 C 80.347656 153.835938 80.457031 153.636719 80.523438 153.453125 C 80.574219 153.316406 80.621094 153.207031 80.652344 153.121094 C 80.695312 152.996094 80.726562 152.878906 80.785156 152.734375 C 80.789062 152.730469 80.730469 152.765625 80.867188 152.539062 C 81.035156 152.261719 81.394531 152.171875 81.671875 152.339844 C 81.953125 152.503906 82.042969 152.867188 81.875 153.144531 C 81.839844 153.203125 81.921875 153.042969 81.917969 153.054688 C 81.914062 153.066406 81.90625 153.105469 81.871094 153.191406 C 81.863281 153.203125 81.820312 153.351562 81.761719 153.515625 C 81.714844 153.644531 81.667969 153.757812 81.628906 153.859375 C 81.519531 154.160156 81.371094 154.417969 81.25 154.609375 C 81.242188 154.625 81.261719 154.746094 80.972656 154.917969 C 80.867188 154.980469 80.746094 155.023438 80.605469 155.03125 C 80.460938 155.042969 80.261719 155.011719 80.089844 154.851562 C 79.902344 154.675781 79.894531 154.503906 79.886719 154.433594 C 79.882812 154.378906 79.886719 154.398438 79.882812 154.382812 C 79.855469 154.207031 79.878906 154.101562 79.886719 154.011719 C 79.898438 153.890625 79.917969 153.765625 79.933594 153.632812 C 79.992188 153.234375 80.0625 152.769531 80.074219 152.429688 C 80.082031 152.3125 80.082031 152.207031 80.078125 152.132812 C 80.078125 152.097656 80.078125 152.074219 80.078125 152.0625 C 80.078125 152.0625 80.078125 152.085938 80.078125 152.070312 M 80.808594 153.019531 C 80.714844 152.707031 80.890625 152.378906 81.203125 152.285156 C 81.511719 152.191406 81.839844 152.363281 81.9375 152.675781 C 81.953125 152.726562 81.957031 152.757812 81.960938 152.789062 C 81.96875 152.851562 81.96875 152.910156 81.964844 152.976562 C 81.964844 152.976562 81.96875 153.058594 81.964844 153.167969 C 81.964844 153.261719 81.96875 153.375 81.96875 153.5 C 81.96875 153.542969 81.96875 153.585938 81.96875 153.628906 C 81.96875 153.738281 81.960938 153.75 81.964844 153.78125 C 81.972656 153.851562 81.96875 153.902344 81.96875 153.917969 C 81.96875 153.921875 81.964844 153.855469 81.96875 153.886719 C 81.96875 153.902344 81.941406 153.773438 81.953125 153.808594 C 81.960938 153.847656 81.84375 153.59375 81.886719 153.65625 C 82.058594 153.929688 81.976562 154.292969 81.703125 154.46875 C 81.429688 154.644531 81.066406 154.5625 80.890625 154.289062 C 80.613281 153.851562 80.796875 153.921875 80.792969 153.90625 C 80.777344 153.765625 80.789062 153.695312 80.789062 153.628906 C 80.789062 153.585938 80.789062 153.542969 80.789062 153.5 C 80.789062 153.390625 80.789062 153.269531 80.789062 153.140625 C 80.792969 153.085938 80.785156 153.023438 80.789062 152.917969 C 80.792969 152.910156 80.796875 152.96875 80.792969 152.941406 C 80.792969 152.929688 80.824219 153.0625 80.808594 153.019531 M 81.832031 154.359375 C 81.613281 154.601562 81.242188 154.625 81 154.40625 C 80.757812 154.191406 80.738281 153.820312 80.953125 153.578125 C 80.957031 153.570312 80.96875 153.558594 80.976562 153.546875 C 80.996094 153.523438 81.019531 153.492188 81.027344 153.480469 C 81.097656 153.367188 81.109375 153.375 81.132812 153.316406 C 81.148438 153.285156 81.160156 153.261719 81.164062 153.257812 C 81.164062 153.253906 81.148438 153.292969 81.15625 153.277344 C 81.164062 153.257812 81.113281 153.460938 81.125 153.390625 C 81.171875 153.070312 81.472656 152.851562 81.792969 152.898438 C 82.117188 152.949219 82.335938 153.25 82.289062 153.570312 C 82.25 153.828125 82.210938 153.796875 82.207031 153.796875 C 82.132812 153.96875 82.066406 154.035156 82.023438 154.101562 C 81.980469 154.175781 81.933594 154.234375 81.898438 154.28125 C 81.878906 154.300781 81.863281 154.320312 81.851562 154.335938 C 81.84375 154.34375 81.839844 154.351562 81.832031 154.359375 M 81.347656 153.015625 C 81.609375 152.820312 81.980469 152.878906 82.171875 153.140625 C 82.363281 153.402344 82.308594 153.769531 82.046875 153.960938 C 82.023438 153.980469 82.019531 153.980469 82.011719 153.984375 C 82.003906 153.992188 82 153.996094 81.996094 154 C 81.941406 154.050781 81.890625 154.09375 81.824219 154.132812 C 81.785156 154.15625 81.746094 154.179688 81.675781 154.203125 C 81.597656 154.230469 81.4375 154.316406 81.160156 154.144531 C 80.882812 153.96875 80.800781 153.605469 80.976562 153.332031 C 81.148438 153.054688 81.511719 152.972656 81.789062 153.148438 C 81.859375 153.191406 81.53125 153.058594 81.589844 153.070312 C 81.671875 153.085938 81.355469 153.070312 81.398438 153.0625 C 81.441406 153.058594 81.28125 153.09375 81.304688 153.085938 C 81.359375 153.066406 81.199219 153.136719 81.214844 153.128906 C 81.238281 153.113281 81.167969 153.164062 81.175781 153.15625 C 81.234375 153.097656 81.289062 153.058594 81.324219 153.03125 C 81.34375 153.019531 81.347656 153.015625 81.347656 153.015625 "/>
<path style=" stroke:none;fill-rule:nonzero;fill:rgb(7.058716%,1.176453%,46.665955%);fill-opacity:1;" d="M 83.121094 60.757812 C 83.445312 60.757812 83.710938 61.019531 83.710938 61.34375 C 83.710938 61.671875 83.445312 61.933594 83.121094 61.933594 L 68.953125 61.933594 C 68.628906 61.933594 68.363281 61.671875 68.363281 61.34375 C 68.363281 61.019531 68.628906 60.757812 68.953125 60.757812 Z M 83.121094 60.757812 "/>
<path style=" stroke:none;fill-rule:nonzero;fill:rgb(7.058716%,1.176453%,46.665955%);fill-opacity:1;" d="M 68.363281 61.34375 C 68.363281 61.019531 68.628906 60.757812 68.953125 60.757812 C 69.277344 60.757812 69.539062 61.019531 69.539062 61.34375 L 69.539062 85.871094 C 69.539062 86.195312 69.277344 86.460938 68.953125 86.460938 C 68.628906 86.460938 68.363281 86.195312 68.363281 85.871094 Z M 68.363281 61.34375 "/>
<path style=" stroke:none;fill-rule:nonzero;fill:rgb(7.058716%,1.176453%,46.665955%);fill-opacity:1;" d="M 68.953125 86.460938 C 68.628906 86.460938 68.363281 86.195312 68.363281 85.871094 C 68.363281 85.546875 68.628906 85.28125 68.953125 85.28125 L 83.121094 85.28125 C 83.445312 85.28125 83.710938 85.546875 83.710938 85.871094 C 83.710938 86.195312 83.445312 86.460938 83.121094 86.460938 Z M 68.953125 86.460938 "/>
<path style=" stroke:none;fill-rule:nonzero;fill:rgb(7.058716%,1.176453%,46.665955%);fill-opacity:1;" d="M 82.535156 85.871094 C 82.535156 85.546875 82.796875 85.28125 83.121094 85.28125 C 83.445312 85.28125 83.710938 85.546875 83.710938 85.871094 L 83.710938 106.957031 C 83.710938 107.28125 83.445312 107.546875 83.121094 107.546875 C 82.796875 107.546875 82.535156 107.28125 82.535156 106.957031 Z M 82.535156 85.871094 "/>
<path style=" stroke:none;fill-rule:nonzero;fill:rgb(7.058716%,1.176453%,46.665955%);fill-opacity:1;" d="M 64.757812 62.316406 C 64.757812 61.992188 65.023438 61.730469 65.347656 61.730469 C 65.671875 61.730469 65.9375 61.992188 65.9375 62.316406 L 65.9375 84.898438 C 65.9375 85.222656 65.671875 85.488281 65.347656 85.488281 C 65.023438 85.488281 64.757812 85.222656 64.757812 84.898438 Z M 64.757812 62.316406 "/>
<path style=" stroke:none;fill-rule:nonzero;fill:rgb(7.058716%,1.176453%,46.665955%);fill-opacity:1;" d="M 45.964844 74.195312 C 45.640625 74.195312 45.375 73.933594 45.375 73.609375 C 45.375 73.285156 45.640625 73.019531 45.964844 73.019531 L 65.347656 73.019531 C 65.671875 73.019531 65.9375 73.285156 65.9375 73.609375 C 65.9375 73.933594 65.671875 74.195312 65.347656 74.195312 Z M 45.964844 74.195312 "/>
<path style=" stroke:none;fill-rule:nonzero;fill:rgb(7.058716%,1.176453%,46.665955%);fill-opacity:1;" d="M 82.535156 40.257812 C 82.535156 39.933594 82.796875 39.671875 83.121094 39.671875 C 83.445312 39.671875 83.710938 39.933594 83.710938 40.257812 L 83.710938 61.34375 C 83.710938 61.671875 83.445312 61.933594 83.121094 61.933594 C 82.796875 61.933594 82.535156 61.671875 82.535156 61.34375 Z M 82.535156 40.257812 "/>
<path style=" stroke:none;fill-rule:nonzero;fill:rgb(7.058716%,1.176453%,46.665955%);fill-opacity:1;" d="M 76.035156 65 C 76.035156 65.328125 75.773438 65.589844 75.449219 65.589844 C 75.125 65.589844 74.859375 65.328125 74.859375 65 L 74.859375 57.691406 C 74.859375 57.363281 75.125 57.101562 75.449219 57.101562 C 75.773438 57.101562 76.035156 57.363281 76.035156 57.691406 Z M 76.035156 65 "/>
<path style=" stroke:none;fill-rule:nonzero;fill:rgb(7.058716%,1.176453%,46.665955%);fill-opacity:1;" d="M 75.800781 64.53125 C 76.0625 64.726562 76.113281 65.09375 75.917969 65.355469 C 75.726562 65.613281 75.355469 65.667969 75.097656 65.472656 L 70.214844 61.816406 C 69.953125 61.621094 69.898438 61.253906 70.09375 60.992188 C 70.289062 60.734375 70.660156 60.679688 70.917969 60.875 Z M 75.800781 64.53125 "/>
<path style=" stroke:none;fill-rule:nonzero;fill:rgb(7.058716%,1.176453%,46.665955%);fill-opacity:1;" d="M 74.351562 63.753906 C 74.035156 63.683594 73.835938 63.371094 73.90625 63.054688 C 73.976562 62.734375 74.289062 62.535156 74.605469 62.605469 C 75.082031 62.710938 75.019531 62.886719 75.058594 62.933594 C 75.105469 62.992188 75.132812 63.042969 75.148438 63.070312 C 75.160156 63.09375 75.070312 62.976562 75.117188 63.03125 C 75.324219 63.285156 75.285156 63.65625 75.03125 63.859375 C 74.78125 64.066406 74.410156 64.027344 74.207031 63.777344 C 74.082031 63.625 74.167969 63.707031 74.132812 63.660156 C 74.105469 63.625 74.105469 63.621094 74.097656 63.617188 C 74.09375 63.609375 74.171875 63.679688 74.144531 63.65625 C 74.128906 63.644531 74.246094 63.71875 74.214844 63.703125 C 74.179688 63.683594 74.414062 63.769531 74.351562 63.753906 M 75.207031 63.625 C 75.082031 63.925781 74.738281 64.066406 74.4375 63.941406 C 74.136719 63.816406 73.996094 63.472656 74.121094 63.171875 C 74.125 63.164062 74.121094 63.167969 74.128906 63.15625 C 74.121094 63.171875 74.117188 63.179688 74.117188 63.179688 C 74.117188 63.179688 74.117188 63.203125 74.117188 63.191406 C 74.121094 63.128906 74.125 63.074219 74.125 63.027344 C 74.128906 62.769531 74.125 62.480469 74.125 62.132812 C 74.121094 61.824219 74.125 61.484375 74.125 61.136719 C 74.125 60.90625 74.125 60.679688 74.125 60.476562 C 74.125 60.332031 74.125 60.203125 74.125 60.09375 C 74.121094 59.945312 74.121094 59.839844 74.113281 59.769531 C 74.109375 59.753906 74.09375 59.699219 74.070312 59.617188 C 74.054688 59.5625 74.042969 59.519531 74.039062 59.5 C 74.035156 59.496094 74.054688 59.542969 74.046875 59.519531 C 74.039062 59.507812 74.085938 59.601562 74.074219 59.574219 C 74.058594 59.546875 74.203125 59.730469 74.15625 59.683594 C 74.128906 59.65625 74.40625 59.839844 74.3125 59.796875 C 74.023438 59.65625 73.898438 59.304688 74.039062 59.011719 C 74.183594 58.71875 74.535156 58.597656 74.828125 58.738281 C 74.921875 58.78125 74.964844 58.828125 74.996094 58.859375 C 75.316406 59.183594 75.179688 59.222656 75.199219 59.28125 C 75.21875 59.351562 75.257812 59.460938 75.277344 59.617188 C 75.300781 59.789062 75.300781 59.941406 75.300781 60.085938 C 75.300781 60.207031 75.300781 60.335938 75.300781 60.476562 C 75.300781 60.679688 75.300781 60.90625 75.300781 61.136719 C 75.300781 61.488281 75.296875 61.828125 75.300781 62.125 C 75.304688 62.472656 75.304688 62.769531 75.300781 63.042969 C 75.300781 63.128906 75.292969 63.199219 75.292969 63.253906 C 75.285156 63.363281 75.265625 63.453125 75.242188 63.523438 C 75.234375 63.554688 75.226562 63.582031 75.214844 63.605469 C 75.203125 63.636719 75.210938 63.613281 75.207031 63.625 M 74.402344 58.699219 C 74.714844 58.613281 75.039062 58.792969 75.128906 59.105469 C 75.21875 59.417969 75.035156 59.746094 74.722656 59.832031 C 74.65625 59.851562 74.902344 59.746094 74.871094 59.769531 C 74.835938 59.789062 74.953125 59.703125 74.9375 59.71875 C 74.914062 59.742188 75.074219 59.546875 75.058594 59.570312 C 75.046875 59.589844 75.078125 59.53125 75.078125 59.535156 C 75.058594 59.578125 75.078125 59.539062 75.058594 59.621094 C 74.984375 59.917969 74.882812 60.261719 74.832031 60.691406 C 74.789062 61.054688 74.808594 61.542969 74.792969 62.050781 C 74.785156 62.3125 74.765625 62.566406 74.722656 62.800781 C 74.691406 62.972656 74.644531 63.113281 74.59375 63.222656 C 74.5625 63.296875 74.527344 63.371094 74.441406 63.464844 C 74.410156 63.5 74.371094 63.535156 74.316406 63.574219 C 74.160156 63.664062 74.011719 63.699219 73.859375 63.671875 C 73.539062 63.613281 73.328125 63.308594 73.382812 62.988281 C 73.441406 62.667969 73.746094 62.457031 74.066406 62.511719 C 74.136719 62.527344 73.796875 62.527344 73.863281 62.515625 C 73.925781 62.503906 73.65625 62.597656 73.699219 62.574219 C 73.6875 62.578125 73.554688 62.6875 73.570312 62.671875 C 73.621094 62.617188 73.515625 62.75 73.519531 62.746094 C 73.535156 62.710938 73.554688 62.652344 73.566406 62.59375 C 73.59375 62.445312 73.609375 62.238281 73.617188 62.011719 C 73.632812 61.558594 73.605469 61.050781 73.664062 60.558594 C 73.726562 60.019531 73.851562 59.59375 73.917969 59.335938 C 73.929688 59.292969 73.933594 59.21875 73.988281 59.089844 C 74.007812 59.042969 74.015625 58.980469 74.136719 58.855469 C 74.207031 58.792969 74.269531 58.738281 74.402344 58.699219 M 74.464844 62.789062 C 74.628906 63.070312 74.535156 63.429688 74.253906 63.597656 C 73.972656 63.761719 73.613281 63.664062 73.449219 63.386719 C 73.402344 63.300781 73.382812 63.230469 73.375 63.179688 C 73.355469 63.105469 73.359375 63.066406 73.359375 63.023438 C 73.363281 62.941406 73.371094 62.871094 73.382812 62.796875 C 73.386719 62.75 73.378906 62.894531 73.378906 62.882812 C 73.375 62.863281 73.355469 62.824219 73.335938 62.679688 C 73.320312 62.570312 73.308594 62.457031 73.300781 62.332031 C 73.289062 62.183594 73.28125 62.019531 73.273438 61.832031 C 73.261719 61.527344 73.257812 61.191406 73.253906 60.90625 C 73.25 60.757812 73.242188 60.628906 73.238281 60.503906 C 73.234375 60.40625 73.230469 60.328125 73.230469 60.324219 C 73.226562 60.289062 73.230469 60.304688 73.226562 60.285156 C 73.226562 60.28125 73.238281 60.332031 73.234375 60.3125 C 73.230469 60.296875 73.292969 60.476562 73.269531 60.417969 C 73.136719 60.121094 73.273438 59.773438 73.570312 59.644531 C 73.867188 59.511719 74.214844 59.648438 74.34375 59.945312 C 74.398438 60.0625 74.390625 60.09375 74.394531 60.117188 C 74.402344 60.171875 74.402344 60.195312 74.402344 60.21875 C 74.414062 60.3125 74.410156 60.378906 74.414062 60.453125 C 74.417969 60.566406 74.425781 60.710938 74.429688 60.878906 C 74.4375 61.183594 74.4375 61.511719 74.449219 61.785156 C 74.457031 61.964844 74.460938 62.117188 74.472656 62.234375 C 74.480469 62.34375 74.492188 62.429688 74.503906 62.519531 C 74.503906 62.53125 74.59375 62.652344 74.542969 62.976562 C 74.539062 63.007812 74.539062 63.03125 74.539062 63.035156 C 74.539062 63.039062 74.511719 62.878906 74.527344 62.949219 C 74.539062 63.007812 74.429688 62.726562 74.46875 62.796875 C 74.46875 62.796875 74.464844 62.789062 74.464844 62.789062 M 73.800781 59.589844 C 74.125 59.589844 74.386719 59.851562 74.386719 60.175781 C 74.386719 60.5 74.125 60.765625 73.800781 60.765625 C 73.710938 60.765625 74.089844 60.691406 74.03125 60.71875 C 73.945312 60.753906 74.226562 60.578125 74.195312 60.609375 C 74.164062 60.636719 74.265625 60.527344 74.253906 60.542969 C 74.175781 60.632812 74.296875 60.476562 74.289062 60.492188 C 74.28125 60.503906 74.300781 60.472656 74.296875 60.472656 C 74.285156 60.496094 74.304688 60.460938 74.292969 60.488281 C 74.273438 60.546875 74.246094 60.644531 74.203125 60.757812 C 74.109375 61.003906 73.992188 61.246094 73.894531 61.476562 C 73.769531 61.773438 73.667969 62.054688 73.628906 62.265625 C 73.613281 62.332031 73.613281 62.410156 73.613281 62.527344 C 73.613281 62.621094 73.609375 62.707031 73.613281 62.78125 C 73.613281 62.914062 73.613281 63.023438 73.613281 63.066406 C 73.613281 63.070312 73.613281 63.074219 73.613281 63.078125 C 73.605469 63.40625 73.339844 63.664062 73.015625 63.65625 C 72.6875 63.652344 72.429688 63.382812 72.4375 63.058594 C 72.4375 63.054688 72.4375 63.070312 72.4375 63.066406 C 72.4375 63.003906 72.4375 62.910156 72.4375 62.800781 C 72.433594 62.710938 72.433594 62.613281 72.4375 62.519531 C 72.4375 62.402344 72.433594 62.238281 72.472656 62.039062 C 72.539062 61.699219 72.667969 61.355469 72.808594 61.019531 C 72.917969 60.753906 73.035156 60.511719 73.101562 60.339844 C 73.128906 60.273438 73.152344 60.191406 73.183594 60.105469 C 73.195312 60.0625 73.210938 60.019531 73.242188 59.949219 C 73.253906 59.929688 73.257812 59.890625 73.351562 59.789062 C 73.359375 59.773438 73.441406 59.589844 73.800781 59.589844 M 73.609375 63.019531 C 73.636719 63.34375 73.398438 63.628906 73.074219 63.65625 C 72.75 63.683594 72.464844 63.445312 72.4375 63.121094 C 72.433594 63.101562 72.433594 63.09375 72.433594 63.085938 C 72.433594 63.054688 72.433594 63.019531 72.433594 62.976562 C 72.429688 62.882812 72.429688 62.757812 72.4375 62.613281 C 72.453125 62.171875 72.53125 61.6875 72.585938 61.296875 C 72.605469 61.171875 72.621094 61.054688 72.628906 60.964844 C 72.636719 60.871094 72.648438 60.945312 72.640625 60.886719 C 72.628906 60.816406 72.632812 60.796875 72.628906 60.785156 C 72.628906 60.773438 72.667969 60.925781 72.648438 60.875 C 72.632812 60.816406 72.875 61.175781 72.792969 61.097656 C 72.722656 61.027344 73.066406 61.234375 73 61.214844 C 72.9375 61.195312 73.195312 61.230469 73.152344 61.230469 C 73.078125 61.238281 73.351562 61.164062 73.3125 61.183594 C 73.253906 61.21875 73.464844 61.054688 73.4375 61.082031 C 73.40625 61.121094 73.476562 61.027344 73.476562 61.027344 C 73.472656 61.035156 73.460938 61.058594 73.4375 61.097656 C 73.339844 61.253906 73.230469 61.457031 73.164062 61.636719 C 73.113281 61.773438 73.066406 61.882812 73.035156 61.972656 C 72.992188 62.09375 72.960938 62.210938 72.902344 62.355469 C 72.898438 62.363281 72.949219 62.332031 72.828125 62.542969 C 72.664062 62.824219 72.304688 62.921875 72.023438 62.757812 C 71.742188 62.59375 71.644531 62.234375 71.808594 61.953125 C 71.839844 61.898438 71.765625 62.046875 71.769531 62.039062 C 71.773438 62.027344 71.78125 61.984375 71.816406 61.898438 C 71.824219 61.886719 71.867188 61.738281 71.925781 61.574219 C 71.972656 61.445312 72.019531 61.335938 72.058594 61.234375 C 72.167969 60.929688 72.316406 60.671875 72.4375 60.480469 C 72.445312 60.464844 72.425781 60.34375 72.714844 60.171875 C 72.824219 60.109375 72.9375 60.066406 73.078125 60.058594 C 73.222656 60.046875 73.433594 60.078125 73.601562 60.246094 C 73.785156 60.414062 73.792969 60.585938 73.800781 60.65625 C 73.804688 60.714844 73.800781 60.691406 73.804688 60.707031 C 73.832031 60.882812 73.808594 60.988281 73.800781 61.078125 C 73.789062 61.199219 73.769531 61.324219 73.753906 61.457031 C 73.695312 61.859375 73.625 62.320312 73.613281 62.660156 C 73.605469 62.777344 73.605469 62.882812 73.609375 62.957031 C 73.609375 62.992188 73.609375 63.019531 73.609375 63.027344 C 73.609375 63.027344 73.609375 63.003906 73.609375 63.019531 M 72.878906 62.082031 C 72.96875 62.394531 72.789062 62.722656 72.476562 62.808594 C 72.164062 62.898438 71.839844 62.71875 71.75 62.40625 C 71.738281 62.363281 71.730469 62.328125 71.726562 62.296875 C 71.71875 62.242188 71.71875 62.183594 71.722656 62.113281 C 71.722656 62.113281 71.71875 62.03125 71.722656 61.925781 C 71.722656 61.828125 71.71875 61.714844 71.722656 61.589844 C 71.722656 61.546875 71.722656 61.503906 71.722656 61.460938 C 71.722656 61.351562 71.726562 61.34375 71.722656 61.308594 C 71.714844 61.238281 71.71875 61.1875 71.71875 61.171875 C 71.71875 61.167969 71.722656 61.234375 71.71875 61.203125 C 71.71875 61.1875 71.742188 61.3125 71.734375 61.28125 C 71.726562 61.242188 71.835938 61.488281 71.800781 61.425781 C 71.628906 61.152344 71.714844 60.789062 71.988281 60.617188 C 72.265625 60.445312 72.628906 60.53125 72.800781 60.808594 C 73.066406 61.238281 72.890625 61.167969 72.894531 61.1875 C 72.910156 61.324219 72.898438 61.394531 72.898438 61.460938 C 72.898438 61.503906 72.898438 61.546875 72.898438 61.59375 C 72.898438 61.699219 72.898438 61.820312 72.898438 61.953125 C 72.894531 62.003906 72.902344 62.066406 72.898438 62.175781 C 72.898438 62.179688 72.890625 62.117188 72.894531 62.144531 C 72.898438 62.167969 72.871094 62.050781 72.878906 62.082031 M 71.835938 60.753906 C 72.039062 60.5 72.410156 60.460938 72.664062 60.664062 C 72.917969 60.867188 72.957031 61.238281 72.753906 61.488281 C 72.742188 61.507812 72.734375 61.511719 72.730469 61.519531 C 72.726562 61.519531 72.722656 61.527344 72.710938 61.542969 C 72.6875 61.570312 72.667969 61.601562 72.660156 61.609375 C 72.589844 61.722656 72.578125 61.714844 72.554688 61.773438 C 72.539062 61.808594 72.527344 61.828125 72.523438 61.835938 C 72.523438 61.835938 72.535156 61.804688 72.53125 61.820312 C 72.523438 61.835938 72.574219 61.636719 72.5625 61.703125 C 72.511719 62.023438 72.207031 62.242188 71.886719 62.191406 C 71.566406 62.136719 71.347656 61.835938 71.402344 61.515625 C 71.441406 61.257812 71.476562 61.296875 71.480469 61.292969 C 71.554688 61.121094 71.621094 61.058594 71.660156 60.988281 C 71.707031 60.914062 71.753906 60.855469 71.789062 60.808594 C 71.804688 60.792969 71.816406 60.773438 71.839844 60.75 C 71.84375 60.746094 71.828125 60.765625 71.835938 60.753906 M 72.328125 62.085938 C 72.058594 62.269531 71.691406 62.207031 71.507812 61.9375 C 71.320312 61.671875 71.386719 61.304688 71.65625 61.121094 C 71.660156 61.117188 71.664062 61.113281 71.671875 61.105469 C 71.660156 61.113281 71.679688 61.101562 71.695312 61.089844 C 71.683594 61.101562 71.6875 61.09375 71.691406 61.09375 C 71.746094 61.039062 71.796875 60.996094 71.871094 60.953125 C 71.894531 60.933594 71.953125 60.910156 71.976562 60.898438 C 72.128906 60.855469 72.273438 60.792969 72.519531 60.941406 C 72.796875 61.109375 72.886719 61.472656 72.71875 61.75 C 72.550781 62.027344 72.1875 62.117188 71.910156 61.949219 C 71.847656 61.910156 72.132812 62.03125 72.082031 62.019531 C 72.011719 62.003906 72.296875 62.027344 72.253906 62.03125 C 72.214844 62.035156 72.375 62.007812 72.347656 62.015625 C 72.40625 61.996094 72.542969 61.917969 72.503906 61.945312 C 72.4375 61.984375 72.507812 61.9375 72.503906 61.941406 C 72.453125 61.992188 72.398438 62.03125 72.371094 62.054688 C 72.335938 62.078125 72.386719 62.039062 72.363281 62.058594 C 72.304688 62.097656 72.332031 62.082031 72.328125 62.085938 "/>
<path style=" stroke:none;fill-rule:nonzero;fill:rgb(7.058716%,1.176453%,46.665955%);fill-opacity:1;" d="M 75.097656 57.21875 C 75.355469 57.023438 75.726562 57.078125 75.917969 57.335938 C 76.113281 57.597656 76.0625 57.964844 75.800781 58.160156 L 70.917969 61.816406 C 70.660156 62.011719 70.289062 61.957031 70.09375 61.699219 C 69.898438 61.4375 69.953125 61.070312 70.214844 60.875 Z M 75.097656 57.21875 "/>
<path style=" stroke:none;fill-rule:nonzero;fill:rgb(7.058716%,1.176453%,46.665955%);fill-opacity:1;" d="M 11.449219 107.546875 C 11.125 107.546875 10.863281 107.28125 10.863281 106.957031 C 10.863281 106.632812 11.125 106.367188 11.449219 106.367188 L 29.300781 106.367188 C 29.628906 106.367188 29.890625 106.632812 29.890625 106.957031 C 29.890625 107.28125 29.628906 107.546875 29.300781 107.546875 Z M 11.449219 107.546875 "/>
<path style=" stroke:none;fill-rule:nonzero;fill:rgb(7.058716%,1.176453%,46.665955%);fill-opacity:1;" d="M 65.484375 107.546875 C 65.160156 107.546875 64.898438 107.28125 64.898438 106.957031 C 64.898438 106.632812 65.160156 106.367188 65.484375 106.367188 L 83.121094 106.367188 C 83.445312 106.367188 83.710938 106.632812 83.710938 106.957031 C 83.710938 107.28125 83.445312 107.546875 83.121094 107.546875 Z M 65.484375 107.546875 "/>
<path style=" stroke:none;fill-rule:nonzero;fill:rgb(7.058716%,1.176453%,46.665955%);fill-opacity:1;" d="M 29.855469 107.019531 C 29.742188 107.324219 29.40625 107.480469 29.097656 107.367188 C 28.792969 107.253906 28.636719 106.917969 28.75 106.613281 C 32.75 95.710938 37.488281 95.710938 41.933594 106.59375 C 42.058594 106.894531 41.914062 107.238281 41.613281 107.359375 C 41.3125 107.484375 40.96875 107.339844 40.84375 107.039062 C 36.800781 97.136719 33.480469 97.136719 29.855469 107.019531 "/>
<path style=" stroke:none;fill-rule:nonzero;fill:rgb(7.058716%,1.176453%,46.665955%);fill-opacity:1;" d="M 41.941406 107.019531 C 41.828125 107.324219 41.492188 107.480469 41.1875 107.367188 C 40.882812 107.253906 40.726562 106.917969 40.835938 106.613281 C 44.835938 95.710938 49.574219 95.710938 54.019531 106.59375 C 54.144531 106.894531 54 107.238281 53.699219 107.359375 C 53.398438 107.484375 53.054688 107.339844 52.929688 107.039062 C 48.886719 97.136719 45.566406 97.136719 41.941406 107.019531 "/>
<path style=" stroke:none;fill-rule:nonzero;fill:rgb(7.058716%,1.176453%,46.665955%);fill-opacity:1;" d="M 53.953125 107.160156 C 53.839844 107.464844 53.5 107.621094 53.195312 107.507812 C 52.890625 107.398438 52.734375 107.058594 52.847656 106.753906 C 56.847656 95.851562 61.585938 95.851562 66.03125 106.734375 C 66.152344 107.035156 66.007812 107.378906 65.707031 107.5 C 65.40625 107.625 65.0625 107.480469 64.941406 107.179688 C 60.894531 97.28125 57.578125 97.28125 53.953125 107.160156 "/>
<path style=" stroke:none;fill-rule:nonzero;fill:rgb(7.058716%,1.176453%,46.665955%);fill-opacity:1;" d="M 134.714844 107.839844 C 134.714844 107.515625 134.976562 107.25 135.300781 107.25 C 135.625 107.25 135.890625 107.515625 135.890625 107.839844 L 135.890625 136.972656 C 135.890625 137.296875 135.625 137.558594 135.300781 137.558594 C 134.976562 137.558594 134.714844 137.296875 134.714844 136.972656 Z M 134.714844 107.839844 "/>
<path style=" stroke:none;fill-rule:nonzero;fill:rgb(7.058716%,1.176453%,46.665955%);fill-opacity:1;" d="M 134.714844 144.105469 C 134.714844 143.777344 134.976562 143.515625 135.300781 143.515625 C 135.625 143.515625 135.890625 143.777344 135.890625 144.105469 L 135.890625 175.125 C 135.890625 175.449219 135.625 175.714844 135.300781 175.714844 C 134.976562 175.714844 134.714844 175.449219 134.714844 175.125 Z M 134.714844 144.105469 "/>
<path style=" stroke:none;fill-rule:nonzero;fill:rgb(7.058716%,1.176453%,46.665955%);fill-opacity:1;" d="M 121.890625 137.558594 C 121.566406 137.558594 121.304688 137.296875 121.304688 136.972656 C 121.304688 136.648438 121.566406 136.382812 121.890625 136.382812 L 148.71875 136.382812 C 149.042969 136.382812 149.308594 136.648438 149.308594 136.972656 C 149.308594 137.296875 149.042969 137.558594 148.71875 137.558594 Z M 121.890625 137.558594 "/>
<path style=" stroke:none;fill-rule:nonzero;fill:rgb(7.058716%,1.176453%,46.665955%);fill-opacity:1;" d="M 121.886719 144.691406 C 121.5625 144.691406 121.300781 144.429688 121.300781 144.105469 C 121.300781 143.777344 121.5625 143.515625 121.886719 143.515625 L 148.714844 143.515625 C 149.039062 143.515625 149.304688 143.777344 149.304688 144.105469 C 149.304688 144.429688 149.039062 144.691406 148.714844 144.691406 Z M 121.886719 144.691406 "/>
<path style=" stroke:none;fill-rule:nonzero;fill:rgb(7.058716%,1.176453%,46.665955%);fill-opacity:1;" d="M 134.714844 174.847656 C 134.714844 174.523438 134.980469 174.261719 135.304688 174.261719 C 135.628906 174.261719 135.890625 174.523438 135.890625 174.847656 L 135.890625 185.644531 C 135.890625 185.972656 135.628906 186.234375 135.304688 186.234375 C 134.980469 186.234375 134.714844 185.972656 134.714844 185.644531 Z M 134.714844 174.847656 "/>
<path style=" stroke:none;fill-rule:nonzero;fill:rgb(7.058716%,1.176453%,46.665955%);fill-opacity:1;" d="M 126.90625 186.960938 C 126.582031 186.960938 126.320312 186.695312 126.320312 186.371094 C 126.320312 186.046875 126.582031 185.785156 126.90625 185.785156 L 143.699219 185.785156 C 144.023438 185.785156 144.289062 186.046875 144.289062 186.371094 C 144.289062 186.695312 144.023438 186.960938 143.699219 186.960938 Z M 126.90625 186.960938 "/>
<path style=" stroke:none;fill-rule:nonzero;fill:rgb(7.058716%,1.176453%,46.665955%);fill-opacity:1;" d="M 129.808594 190.8125 C 129.484375 190.8125 129.21875 190.546875 129.21875 190.222656 C 129.21875 189.898438 129.484375 189.632812 129.808594 189.632812 L 141.085938 189.632812 C 141.410156 189.632812 141.671875 189.898438 141.671875 190.222656 C 141.671875 190.546875 141.410156 190.8125 141.085938 190.8125 Z M 129.808594 190.8125 "/>
<path style=" stroke:none;fill-rule:nonzero;fill:rgb(7.058716%,1.176453%,46.665955%);fill-opacity:1;" d="M 133.039062 194.421875 C 132.714844 194.421875 132.449219 194.160156 132.449219 193.835938 C 132.449219 193.511719 132.714844 193.246094 133.039062 193.246094 L 137.855469 193.246094 C 138.179688 193.246094 138.441406 193.511719 138.441406 193.835938 C 138.441406 194.160156 138.179688 194.421875 137.855469 194.421875 Z M 133.039062 194.421875 "/>
<path style=" stroke:none;fill-rule:nonzero;fill:rgb(7.058716%,1.176453%,46.665955%);fill-opacity:1;" d="M 82.535156 174.554688 C 82.535156 174.230469 82.796875 173.964844 83.121094 173.964844 C 83.445312 173.964844 83.710938 174.230469 83.710938 174.554688 L 83.710938 185.351562 C 83.710938 185.675781 83.445312 185.941406 83.121094 185.941406 C 82.796875 185.941406 82.535156 185.675781 82.535156 185.351562 Z M 82.535156 174.554688 "/>
<path style=" stroke:none;fill-rule:nonzero;fill:rgb(7.058716%,1.176453%,46.665955%);fill-opacity:1;" d="M 74.726562 186.667969 C 74.402344 186.667969 74.136719 186.402344 74.136719 186.078125 C 74.136719 185.753906 74.402344 185.488281 74.726562 185.488281 L 91.519531 185.488281 C 91.84375 185.488281 92.105469 185.753906 92.105469 186.078125 C 92.105469 186.402344 91.84375 186.667969 91.519531 186.667969 Z M 74.726562 186.667969 "/>
<path style=" stroke:none;fill-rule:nonzero;fill:rgb(7.058716%,1.176453%,46.665955%);fill-opacity:1;" d="M 77.625 190.515625 C 77.300781 190.515625 77.039062 190.253906 77.039062 189.929688 C 77.039062 189.605469 77.300781 189.339844 77.625 189.339844 L 88.902344 189.339844 C 89.226562 189.339844 89.492188 189.605469 89.492188 189.929688 C 89.492188 190.253906 89.226562 190.515625 88.902344 190.515625 Z M 77.625 190.515625 "/>
<path style=" stroke:none;fill-rule:nonzero;fill:rgb(7.058716%,1.176453%,46.665955%);fill-opacity:1;" d="M 80.855469 194.128906 C 80.53125 194.128906 80.269531 193.867188 80.269531 193.542969 C 80.269531 193.214844 80.53125 192.953125 80.855469 192.953125 L 85.671875 192.953125 C 85.996094 192.953125 86.261719 193.214844 86.261719 193.542969 C 86.261719 193.867188 85.996094 194.128906 85.671875 194.128906 Z M 80.855469 194.128906 "/>
<path style=" stroke:none;fill-rule:nonzero;fill:rgb(7.058716%,1.176453%,46.665955%);fill-opacity:1;" d="M 76.726562 44.253906 C 76.457031 44.4375 76.089844 44.367188 75.910156 44.097656 C 75.726562 43.828125 75.796875 43.460938 76.066406 43.28125 L 89.089844 34.464844 C 89.359375 34.285156 89.726562 34.355469 89.910156 34.625 C 90.089844 34.894531 90.019531 35.257812 89.75 35.441406 Z M 76.726562 44.253906 "/>
<path style=" stroke:none;fill-rule:nonzero;fill:rgb(92.941284%,21.176147%,14.117432%);fill-opacity:1;" d="M 38.027344 64.699219 C 38.351562 64.714844 38.601562 64.988281 38.589844 65.3125 C 38.574219 65.636719 38.300781 65.890625 37.976562 65.875 C 37.90625 65.871094 38.324219 65.707031 38.246094 65.773438 C 38.210938 65.808594 38.328125 65.664062 38.316406 65.6875 C 38.304688 65.707031 38.332031 65.652344 38.332031 65.65625 C 38.328125 65.667969 38.316406 65.808594 38.332031 66 C 38.371094 66.417969 38.507812 67.011719 38.660156 67.625 C 38.808594 68.207031 38.953125 68.765625 39.082031 69.207031 C 39.144531 69.414062 39.195312 69.582031 39.238281 69.710938 C 39.28125 69.828125 39.292969 69.867188 39.308594 69.894531 C 39.316406 69.902344 39.199219 69.765625 39.242188 69.8125 C 39.265625 69.835938 39.078125 69.695312 39.132812 69.726562 C 39.1875 69.757812 38.796875 69.648438 38.894531 69.65625 C 38.96875 69.65625 38.492188 69.769531 38.582031 69.722656 C 38.664062 69.675781 38.367188 69.921875 38.402344 69.875 C 38.441406 69.824219 38.332031 70 38.34375 69.972656 C 38.355469 69.949219 38.316406 70.039062 38.320312 70.027344 C 38.339844 69.96875 38.320312 69.757812 38.316406 69.394531 C 38.308594 68.429688 38.335938 67.082031 38.277344 65.867188 C 38.242188 65.136719 38.167969 64.53125 38.132812 64.0625 C 38.113281 63.832031 38.054688 63.644531 38.125 63.332031 C 38.171875 63.125 38.484375 62.773438 38.8125 62.792969 C 39.101562 62.804688 39.222656 62.929688 39.332031 63.023438 C 39.542969 63.207031 39.71875 63.445312 39.914062 63.734375 C 40.324219 64.339844 40.753906 65.140625 41.085938 65.949219 C 41.425781 66.769531 41.789062 67.574219 42.109375 68.171875 C 42.273438 68.46875 42.414062 68.6875 42.527344 68.8125 C 42.5625 68.851562 42.609375 68.886719 42.632812 68.898438 C 42.644531 68.90625 42.609375 68.894531 42.628906 68.898438 C 42.640625 68.902344 42.539062 68.882812 42.566406 68.886719 C 42.601562 68.890625 42.339844 68.90625 42.414062 68.890625 C 42.453125 68.882812 42.230469 68.960938 42.277344 68.9375 C 42.355469 68.898438 41.996094 69.226562 42.054688 69.132812 C 42.113281 69.042969 41.960938 69.480469 41.96875 69.402344 C 41.972656 69.304688 42.011719 69.644531 41.996094 69.605469 C 41.980469 69.566406 42.03125 69.675781 42.023438 69.667969 C 42.015625 69.652344 41.972656 69.601562 41.835938 69.484375 C 41.589844 69.269531 41.5625 68.898438 41.777344 68.652344 C 41.992188 68.40625 42.363281 68.382812 42.605469 68.59375 C 42.789062 68.753906 42.921875 68.878906 43.023438 69.046875 C 43.078125 69.132812 43.15625 69.242188 43.140625 69.46875 C 43.128906 69.722656 42.835938 70.007812 42.632812 70.046875 C 42.292969 70.113281 42.179688 69.996094 42.042969 69.917969 C 41.90625 69.839844 41.777344 69.734375 41.652344 69.601562 C 41.441406 69.363281 41.261719 69.074219 41.074219 68.730469 C 40.71875 68.070312 40.347656 67.242188 40 66.394531 C 39.699219 65.667969 39.292969 64.917969 38.941406 64.390625 C 38.773438 64.144531 38.621094 63.964844 38.5625 63.914062 C 38.550781 63.902344 38.59375 63.929688 38.574219 63.917969 C 38.558594 63.910156 38.660156 63.953125 38.632812 63.945312 C 38.601562 63.933594 38.816406 63.96875 38.761719 63.964844 C 38.699219 63.964844 39.027344 63.910156 38.957031 63.9375 C 38.847656 63.976562 39.253906 63.675781 39.203125 63.746094 C 39.160156 63.8125 39.28125 63.566406 39.273438 63.597656 C 39.261719 63.644531 39.273438 63.582031 39.28125 63.652344 C 39.285156 63.730469 39.296875 63.839844 39.304688 63.972656 C 39.339844 64.402344 39.414062 65.035156 39.453125 65.8125 C 39.511719 67.082031 39.484375 68.445312 39.492188 69.386719 C 39.496094 69.714844 39.5625 69.992188 39.449219 70.367188 C 39.429688 70.425781 39.410156 70.496094 39.332031 70.597656 C 39.25 70.703125 39.035156 70.839844 38.828125 70.828125 C 38.597656 70.8125 38.480469 70.714844 38.417969 70.648438 C 38.359375 70.589844 38.328125 70.542969 38.304688 70.503906 C 38.214844 70.359375 38.179688 70.242188 38.128906 70.101562 C 38.070312 69.9375 38.015625 69.746094 37.953125 69.535156 C 37.820312 69.070312 37.667969 68.503906 37.519531 67.914062 C 37.359375 67.28125 37.210938 66.65625 37.160156 66.109375 C 37.136719 65.839844 37.125 65.59375 37.203125 65.328125 C 37.242188 65.191406 37.3125 65.035156 37.460938 64.898438 C 37.609375 64.761719 37.835938 64.691406 38.027344 64.699219 "/>
<path style=" stroke:none;fill-rule:nonzero;fill:rgb(92.941284%,21.176147%,14.117432%);fill-opacity:1;" d="M 38.753906 68.039062 C 39.074219 68.097656 39.28125 68.40625 39.222656 68.726562 C 39.160156 69.042969 38.855469 69.253906 38.535156 69.195312 C 38.339844 69.15625 38.085938 69.082031 37.925781 68.796875 C 37.84375 68.648438 37.824219 68.472656 37.847656 68.339844 C 37.867188 68.207031 37.914062 68.109375 37.964844 68.03125 C 38.148438 67.734375 38.390625 67.582031 38.648438 67.417969 C 39.527344 66.867188 40.59375 66.628906 41.1875 66.3125 C 41.472656 66.160156 41.828125 66.269531 41.980469 66.554688 C 42.136719 66.84375 42.027344 67.199219 41.738281 67.351562 C 40.9375 67.777344 39.917969 68.011719 39.273438 68.414062 C 39.089844 68.53125 38.980469 68.625 38.964844 68.648438 C 38.957031 68.664062 39.019531 68.453125 39.007812 68.523438 C 38.996094 68.605469 38.902344 68.128906 38.957031 68.226562 C 38.980469 68.273438 38.832031 68.078125 38.863281 68.109375 C 38.90625 68.148438 38.742188 68.035156 38.761719 68.042969 C 38.777344 68.050781 38.742188 68.035156 38.753906 68.039062 "/>
<path style=" stroke:none;fill-rule:nonzero;fill:rgb(92.941284%,21.176147%,14.117432%);fill-opacity:1;" d="M 38.757812 136.382812 C 39.03125 136.558594 39.113281 136.921875 38.9375 137.195312 C 38.765625 137.46875 38.402344 137.550781 38.125 137.375 C 38.074219 137.34375 38.0625 137.335938 38.054688 137.332031 C 38.046875 137.332031 38.160156 137.355469 38.117188 137.347656 C 38.070312 137.34375 38.441406 137.296875 38.339844 137.332031 C 38.289062 137.347656 38.550781 137.210938 38.5 137.25 C 38.421875 137.308594 38.699219 136.972656 38.667969 137.042969 C 38.636719 137.109375 38.71875 136.839844 38.714844 136.878906 C 38.707031 136.929688 38.710938 136.773438 38.710938 136.789062 C 38.714844 136.800781 38.707031 136.773438 38.710938 136.777344 C 38.738281 136.871094 38.910156 137.214844 39.125 137.613281 C 39.476562 138.253906 39.847656 139.003906 40.160156 139.609375 C 40.296875 139.871094 40.402344 140.097656 40.476562 140.226562 C 40.5 140.261719 40.519531 140.289062 40.527344 140.304688 C 40.535156 140.3125 40.457031 140.246094 40.496094 140.273438 C 40.519531 140.292969 40.324219 140.191406 40.382812 140.210938 C 40.445312 140.238281 40.011719 140.195312 40.117188 140.179688 C 40.242188 140.167969 39.777344 140.359375 39.851562 140.300781 C 39.917969 140.242188 39.703125 140.492188 39.726562 140.453125 C 39.757812 140.390625 39.707031 140.507812 39.710938 140.464844 C 39.726562 140.292969 39.695312 139.902344 39.660156 139.464844 C 39.601562 138.730469 39.480469 137.878906 39.335938 137.097656 C 39.203125 136.371094 39.03125 135.738281 38.964844 135.179688 C 38.9375 134.96875 38.921875 134.753906 38.972656 134.511719 C 39.058594 134.121094 39.3125 133.820312 39.601562 133.609375 C 39.886719 133.402344 40.214844 133.261719 40.5625 133.160156 C 41.257812 132.953125 42.015625 132.898438 42.679688 133.027344 C 43.25 133.136719 43.707031 133.527344 43.945312 134.007812 C 44.101562 134.328125 44.207031 134.738281 44.128906 135.179688 C 44.058594 135.558594 43.863281 135.871094 43.625 136.175781 C 43.132812 136.804688 42.402344 137.386719 41.773438 137.921875 C 41.492188 138.15625 41.230469 138.367188 41.046875 138.53125 C 40.984375 138.589844 40.9375 138.636719 40.910156 138.667969 C 40.886719 138.691406 40.929688 138.605469 40.910156 138.652344 C 40.894531 138.6875 40.949219 138.421875 40.945312 138.5 C 40.941406 138.582031 40.828125 138.132812 40.878906 138.222656 C 40.929688 138.308594 40.652344 138.011719 40.703125 138.042969 C 40.75 138.070312 40.601562 138 40.613281 138.003906 C 40.671875 138.019531 41.476562 137.898438 42.296875 137.769531 C 42.949219 137.664062 43.621094 137.570312 44.21875 137.542969 C 44.792969 137.515625 45.34375 137.515625 45.773438 137.921875 C 45.976562 138.109375 46.078125 138.371094 46.097656 138.613281 C 46.117188 138.851562 46.074219 139.074219 45.996094 139.289062 C 45.609375 140.347656 44.460938 141.226562 43.351562 142.015625 C 42.480469 142.632812 41.648438 143.066406 40.917969 143.273438 C 40.5625 143.371094 40.222656 143.421875 39.886719 143.355469 C 39.542969 143.292969 39.164062 143.011719 39.058594 142.628906 C 38.96875 142.316406 39.152344 141.992188 39.464844 141.902344 C 39.78125 141.816406 40.105469 142 40.191406 142.3125 C 40.207031 142.367188 40.070312 142.195312 40.105469 142.199219 C 40.171875 142.214844 40.355469 142.207031 40.601562 142.136719 C 41.140625 141.988281 41.886719 141.613281 42.671875 141.054688 C 43.703125 140.320312 44.710938 139.378906 44.890625 138.886719 C 44.921875 138.792969 44.929688 138.730469 44.925781 138.710938 C 44.925781 138.703125 45.003906 138.8125 44.96875 138.78125 C 44.949219 138.757812 44.726562 138.699219 44.273438 138.71875 C 43.757812 138.742188 43.117188 138.832031 42.480469 138.929688 C 41.703125 139.054688 41.007812 139.316406 40.324219 139.144531 C 40.191406 139.109375 39.988281 139.035156 39.859375 138.808594 C 39.722656 138.574219 39.773438 138.316406 39.835938 138.171875 C 39.949219 137.921875 40.09375 137.808594 40.257812 137.660156 C 40.480469 137.460938 40.742188 137.25 41.015625 137.019531 C 41.644531 136.488281 42.335938 135.914062 42.699219 135.449219 C 42.875 135.222656 42.953125 135.054688 42.96875 134.972656 C 42.996094 134.828125 42.964844 134.679688 42.890625 134.527344 C 42.796875 134.34375 42.648438 134.21875 42.457031 134.183594 C 42.03125 134.101562 41.410156 134.136719 40.894531 134.289062 C 40.644531 134.359375 40.433594 134.460938 40.296875 134.5625 C 40.167969 134.652344 40.128906 134.726562 40.125 134.757812 C 40.117188 134.789062 40.113281 134.886719 40.132812 135.042969 C 40.183594 135.46875 40.351562 136.113281 40.492188 136.882812 C 40.644531 137.703125 40.769531 138.582031 40.832031 139.371094 C 40.878906 139.941406 41.074219 140.417969 40.769531 141 C 40.699219 141.128906 40.511719 141.320312 40.261719 141.347656 C 40.027344 141.382812 39.863281 141.273438 39.773438 141.203125 C 39.609375 141.074219 39.539062 140.953125 39.460938 140.820312 C 39.347656 140.621094 39.242188 140.394531 39.117188 140.148438 C 38.800781 139.535156 38.425781 138.792969 38.089844 138.171875 C 37.871094 137.769531 37.679688 137.445312 37.582031 137.109375 C 37.554688 137.023438 37.527344 136.925781 37.542969 136.769531 C 37.558594 136.597656 37.730469 136.289062 37.988281 136.207031 C 38.234375 136.132812 38.378906 136.195312 38.480469 136.238281 C 38.585938 136.277344 38.667969 136.328125 38.757812 136.382812 "/>
<path style=" stroke:none;fill-rule:nonzero;fill:rgb(92.941284%,21.176147%,14.117432%);fill-opacity:1;" d="M 34.992188 61.300781 C 35.316406 61.335938 35.546875 61.628906 35.507812 61.949219 C 35.472656 62.273438 35.179688 62.503906 34.859375 62.46875 C 34.851562 62.46875 34.609375 62.464844 34.402344 62.472656 C 34.3125 62.472656 34.21875 62.480469 34.144531 62.488281 C 34.105469 62.488281 34.074219 62.492188 34.03125 62.496094 C 34.023438 62.496094 34.011719 62.503906 33.914062 62.492188 C 33.941406 62.492188 33.933594 62.492188 33.925781 62.492188 C 33.601562 62.457031 33.367188 62.167969 33.402344 61.847656 C 33.433594 61.523438 33.722656 61.289062 34.046875 61.320312 C 34.054688 61.324219 34.019531 61.320312 34.027344 61.320312 C 34.113281 61.328125 33.976562 61.320312 33.984375 61.320312 C 33.992188 61.320312 33.976562 61.320312 33.976562 61.320312 C 33.988281 61.320312 34.015625 61.316406 34.054688 61.3125 C 34.132812 61.308594 34.246094 61.296875 34.371094 61.296875 C 34.589844 61.289062 34.789062 61.277344 34.992188 61.300781 M 34.269531 62.421875 C 33.984375 62.578125 33.625 62.472656 33.46875 62.1875 C 33.3125 61.902344 33.417969 61.542969 33.703125 61.386719 C 34.136719 61.152344 34.246094 61.296875 34.324219 61.285156 C 34.757812 61.222656 35.835938 60.792969 37.007812 60.375 C 37.664062 60.136719 38.324219 59.894531 38.914062 59.691406 C 39.566406 59.464844 40.09375 59.324219 40.4375 59.210938 C 40.566406 59.167969 40.675781 59.125 40.753906 59.089844 C 40.789062 59.074219 40.8125 59.0625 40.828125 59.054688 C 40.832031 59.050781 40.824219 59.054688 40.828125 59.050781 C 40.835938 59.046875 40.738281 59.128906 40.773438 59.097656 C 40.792969 59.078125 40.699219 59.183594 40.722656 59.15625 C 40.742188 59.125 40.625 59.355469 40.648438 59.289062 C 40.664062 59.246094 40.613281 59.472656 40.617188 59.417969 C 40.625 59.363281 40.648438 59.691406 40.628906 59.617188 C 40.613281 59.539062 40.769531 59.882812 40.722656 59.816406 C 40.675781 59.753906 40.945312 60.003906 40.886719 59.96875 C 40.78125 59.902344 41.191406 60.054688 41.132812 60.046875 C 41.078125 60.042969 41.269531 60.039062 41.242188 60.042969 C 41.203125 60.050781 41.292969 60.03125 41.285156 60.035156 C 41.25 60.050781 41.363281 59.992188 41.355469 59.996094 C 41.34375 60.007812 41.308594 60.042969 41.21875 60.125 C 40.984375 60.347656 40.609375 60.332031 40.390625 60.09375 C 40.167969 59.855469 40.179688 59.484375 40.417969 59.261719 C 40.503906 59.183594 40.5625 59.0625 40.832031 58.949219 C 40.902344 58.921875 40.96875 58.898438 41.054688 58.882812 C 41.148438 58.867188 41.285156 58.832031 41.503906 58.964844 C 41.628906 59.042969 41.742188 59.195312 41.777344 59.347656 C 41.8125 59.496094 41.785156 59.609375 41.75 59.699219 C 41.699219 59.84375 41.628906 59.910156 41.566406 59.964844 C 41.308594 60.203125 41.144531 60.21875 40.800781 60.332031 C 40.410156 60.457031 39.910156 60.589844 39.296875 60.800781 C 38.722656 61 38.066406 61.242188 37.40625 61.480469 C 36.253906 61.894531 35.242188 62.339844 34.492188 62.449219 C 34.351562 62.46875 34.238281 62.46875 34.167969 62.46875 C 34.136719 62.46875 34.132812 62.46875 34.128906 62.46875 C 34.121094 62.46875 34.1875 62.457031 34.167969 62.460938 C 34.144531 62.46875 34.3125 62.398438 34.269531 62.421875 "/>
<path style=" stroke:none;fill-rule:nonzero;fill:rgb(7.058716%,1.176453%,46.665955%);fill-opacity:1;" d="M 83.121094 51.914062 C 82.796875 51.914062 82.535156 51.652344 82.535156 51.328125 C 82.535156 51 82.796875 50.738281 83.121094 50.738281 L 134.976562 50.738281 C 135.300781 50.738281 135.5625 51 135.5625 51.328125 C 135.5625 51.652344 135.300781 51.914062 134.976562 51.914062 Z M 83.121094 51.914062 "/>
<path style=" stroke:none;fill-rule:nonzero;fill:rgb(7.058716%,1.176453%,46.665955%);fill-opacity:1;" d="M 134.386719 51.328125 C 134.386719 51 134.652344 50.738281 134.976562 50.738281 C 135.300781 50.738281 135.5625 51 135.5625 51.328125 L 135.5625 107.996094 C 135.5625 108.320312 135.300781 108.585938 134.976562 108.585938 C 134.652344 108.585938 134.386719 108.320312 134.386719 107.996094 Z M 134.386719 51.328125 "/>
<path style=" stroke:none;fill-rule:nonzero;fill:rgb(0%,45.097351%,23.136902%);fill-opacity:1;" d="M 169.035156 42.046875 C 169.140625 42.464844 168.886719 42.894531 168.46875 43 C 168.046875 43.109375 167.621094 42.855469 167.511719 42.433594 C 167.507812 42.421875 167.523438 42.472656 167.523438 42.464844 C 167.511719 42.429688 167.527344 42.480469 167.527344 42.476562 C 167.519531 42.464844 167.507812 42.433594 167.492188 42.390625 C 167.460938 42.308594 167.417969 42.191406 167.367188 42.070312 C 167.3125 41.929688 167.257812 41.792969 167.214844 41.695312 C 167.195312 41.648438 167.179688 41.613281 167.179688 41.613281 C 167.179688 41.613281 167.203125 41.652344 167.195312 41.640625 C 167.183594 41.625 167.308594 41.796875 167.261719 41.738281 C 167.25 41.726562 167.308594 41.789062 167.292969 41.777344 C 167 41.457031 167.019531 40.960938 167.339844 40.667969 C 167.65625 40.375 168.152344 40.394531 168.445312 40.710938 C 168.460938 40.726562 168.472656 40.738281 168.480469 40.75 C 168.574219 40.867188 168.570312 40.886719 168.585938 40.917969 C 168.613281 40.972656 168.632812 41.019531 168.65625 41.078125 C 168.710938 41.195312 168.769531 41.34375 168.828125 41.496094 C 168.878906 41.621094 168.925781 41.738281 168.960938 41.835938 C 168.976562 41.878906 168.992188 41.914062 169.003906 41.953125 C 169.011719 41.96875 169.015625 41.984375 169.027344 42.019531 C 169.027344 42.019531 169.03125 42.03125 169.035156 42.046875 M 167.082031 41.222656 C 167.097656 40.789062 167.457031 40.449219 167.890625 40.460938 C 168.324219 40.472656 168.664062 40.835938 168.652344 41.265625 C 168.648438 41.363281 168.636719 41.085938 168.640625 41.113281 C 168.644531 41.132812 168.757812 41.40625 168.886719 41.777344 C 169.015625 42.144531 169.207031 42.644531 169.40625 43.289062 C 169.742188 44.390625 170.042969 45.769531 170.324219 47.21875 C 170.566406 48.46875 170.738281 49.710938 170.886719 50.71875 C 171.015625 51.597656 171.070312 52.230469 171.160156 52.5 C 171.214844 52.65625 171.21875 52.65625 171.242188 52.671875 C 171.273438 52.695312 171.144531 52.65625 171.175781 52.648438 C 171.285156 52.617188 171.660156 52.339844 171.992188 51.785156 C 172.328125 51.222656 172.652344 50.476562 172.941406 49.550781 C 173.179688 48.792969 173.355469 47.835938 173.582031 46.722656 C 173.824219 45.5625 174.085938 44.253906 174.46875 42.921875 C 174.859375 41.550781 175.425781 40.257812 175.933594 39.121094 C 176.238281 38.4375 176.570312 37.859375 176.824219 37.367188 C 177.132812 36.78125 177.375 36.285156 177.570312 35.894531 C 177.757812 35.527344 177.785156 35.289062 178.183594 34.972656 C 178.308594 34.875 178.585938 34.710938 178.945312 34.816406 C 179.296875 34.917969 179.433594 35.183594 179.492188 35.324219 C 179.589844 35.570312 179.578125 35.714844 179.582031 35.890625 C 179.59375 36.257812 179.566406 36.75 179.53125 37.441406 C 179.503906 37.875 179.136719 38.203125 178.703125 38.179688 C 178.269531 38.15625 177.9375 37.789062 177.964844 37.355469 C 178 36.671875 178.023438 36.191406 178.015625 35.933594 C 178.015625 35.878906 178.011719 35.839844 178.007812 35.824219 C 178.007812 35.816406 178.0625 35.980469 178.035156 35.90625 C 178.015625 35.863281 178.210938 36.167969 178.144531 36.089844 C 178.09375 36.027344 178.496094 36.328125 178.386719 36.277344 C 178.304688 36.238281 178.753906 36.355469 178.660156 36.351562 C 178.523438 36.339844 179.078125 36.261719 178.996094 36.296875 C 178.921875 36.328125 179.191406 36.175781 179.15625 36.203125 C 179.085938 36.257812 179.234375 36.125 179.234375 36.128906 C 179.136719 36.261719 178.761719 37.046875 178.214844 38.09375 C 177.945312 38.613281 177.636719 39.160156 177.367188 39.761719 C 176.863281 40.882812 176.332031 42.109375 175.976562 43.351562 C 175.617188 44.609375 175.359375 45.878906 175.121094 47.042969 C 174.894531 48.136719 174.71875 49.128906 174.4375 50.019531 C 174.121094 51.039062 173.757812 51.890625 173.339844 52.589844 C 172.882812 53.359375 172.332031 53.957031 171.589844 54.160156 C 171.210938 54.261719 170.75 54.222656 170.390625 53.992188 C 170.03125 53.761719 169.808594 53.394531 169.671875 52.996094 C 169.476562 52.40625 169.457031 51.773438 169.335938 50.945312 C 169.183594 49.933594 169.015625 48.714844 168.785156 47.515625 C 168.507812 46.09375 168.214844 44.753906 167.90625 43.75 C 167.726562 43.15625 167.546875 42.695312 167.40625 42.300781 C 167.296875 41.992188 167.160156 41.757812 167.097656 41.386719 C 167.089844 41.355469 167.082031 41.320312 167.082031 41.222656 "/>
<path style=" stroke:none;fill-rule:nonzero;fill:rgb(0%,45.097351%,23.136902%);fill-opacity:1;" d="M 179.785156 48.601562 C 180.1875 48.445312 180.644531 48.644531 180.800781 49.046875 C 180.957031 49.453125 180.757812 49.90625 180.355469 50.0625 C 180.28125 50.089844 180.257812 50.089844 180.113281 50.472656 C 180.023438 50.710938 179.925781 50.992188 179.824219 51.335938 C 179.566406 52.207031 179.234375 53.25 179.082031 54.152344 C 179.011719 54.5625 179 54.921875 179.035156 55.148438 C 179.042969 55.214844 179.039062 55.199219 179.066406 55.214844 C 179.101562 55.242188 179.222656 55.289062 179.433594 55.304688 C 179.972656 55.339844 180.820312 55.160156 181.671875 54.820312 C 182.34375 54.554688 183.007812 54.148438 183.570312 53.707031 C 184.296875 53.136719 184.738281 52.457031 184.90625 51.851562 C 184.988281 51.539062 185.011719 51.296875 184.96875 51.089844 C 184.820312 50.371094 183.441406 49.226562 182.066406 48.523438 C 181.277344 48.121094 180.605469 47.925781 180.289062 47.96875 C 180.152344 47.984375 180.089844 48.015625 180.007812 48.113281 C 179.910156 48.226562 179.792969 48.464844 179.71875 48.863281 C 179.636719 49.289062 179.226562 49.566406 178.800781 49.488281 C 178.375 49.40625 178.097656 48.996094 178.175781 48.570312 C 178.289062 47.988281 178.484375 47.488281 178.8125 47.097656 C 179.140625 46.710938 179.613281 46.472656 180.082031 46.410156 C 181 46.289062 181.878906 46.667969 182.78125 47.128906 C 184.332031 47.917969 186.148438 49.027344 186.507812 50.777344 C 186.617188 51.308594 186.539062 51.816406 186.417969 52.261719 C 186.152344 53.238281 185.503906 54.1875 184.535156 54.945312 C 183.871094 55.464844 183.09375 55.945312 182.253906 56.277344 C 181.253906 56.675781 180.242188 56.929688 179.328125 56.871094 C 178.921875 56.84375 178.515625 56.746094 178.164062 56.5 C 177.808594 56.25 177.554688 55.832031 177.484375 55.390625 C 177.410156 54.914062 177.445312 54.414062 177.535156 53.890625 C 177.714844 52.832031 178.070312 51.742188 178.320312 50.890625 C 178.433594 50.507812 178.546875 50.1875 178.644531 49.921875 C 178.855469 49.371094 179.214844 48.820312 179.785156 48.601562 "/>
<path style=" stroke:none;fill-rule:nonzero;fill:rgb(0%,45.097351%,23.136902%);fill-opacity:1;" d="M 196.246094 51.847656 C 195.8125 51.839844 195.46875 51.480469 195.476562 51.046875 C 195.484375 50.613281 195.84375 50.269531 196.277344 50.28125 C 198.164062 50.316406 200.964844 50.210938 201.742188 49.898438 C 202.144531 49.738281 202.601562 49.9375 202.761719 50.339844 C 202.921875 50.742188 202.726562 51.199219 202.324219 51.359375 C 200.863281 51.9375 198.210938 51.886719 196.246094 51.847656 "/>
<path style=" stroke:none;fill-rule:nonzero;fill:rgb(0%,45.097351%,23.136902%);fill-opacity:1;" d="M 196.667969 56.449219 C 196.238281 56.519531 195.835938 56.230469 195.765625 55.804688 C 195.695312 55.375 195.984375 54.972656 196.410156 54.902344 C 196.914062 54.820312 197.359375 54.8125 197.902344 54.8125 C 199.53125 54.820312 202.183594 54.800781 203.242188 54.125 C 203.605469 53.890625 204.089844 53.996094 204.324219 54.363281 C 204.558594 54.726562 204.449219 55.210938 204.085938 55.445312 C 202.289062 56.59375 199.53125 56.390625 197.894531 56.382812 C 197.371094 56.378906 197.046875 56.386719 196.667969 56.449219 "/>
<path style=" stroke:none;fill-rule:nonzero;fill:rgb(0%,45.097351%,23.136902%);fill-opacity:1;" d="M 216.636719 37.429688 C 216.355469 37.753906 215.859375 37.789062 215.53125 37.507812 C 215.203125 37.222656 215.167969 36.726562 215.453125 36.398438 C 215.582031 36.25 215.746094 36.046875 216.140625 35.996094 C 216.34375 35.96875 216.585938 36.027344 216.75 36.136719 C 216.902344 36.238281 216.992188 36.355469 217.054688 36.457031 C 217.28125 36.824219 217.316406 37.152344 217.40625 37.601562 C 217.550781 38.324219 217.761719 39.316406 217.964844 40.417969 C 218.101562 41.144531 218.226562 41.882812 218.347656 42.5625 C 218.527344 43.546875 218.679688 44.347656 218.804688 44.90625 C 218.867188 45.203125 218.910156 45.429688 218.925781 45.492188 C 218.929688 45.5 218.902344 45.441406 218.917969 45.46875 C 218.933594 45.503906 218.695312 45.203125 218.78125 45.289062 C 218.832031 45.332031 218.503906 45.121094 218.585938 45.160156 C 218.671875 45.195312 218.222656 45.09375 218.3125 45.09375 C 218.40625 45.097656 218.011719 45.148438 218.074219 45.128906 C 218.132812 45.109375 217.90625 45.207031 217.9375 45.1875 C 218.015625 45.144531 217.855469 45.257812 217.871094 45.234375 C 217.953125 45.125 218.117188 44.769531 218.304688 44.378906 C 218.949219 43.019531 219.40625 40.707031 219.902344 38.3125 C 220.171875 36.996094 220.488281 35.761719 220.695312 34.808594 C 220.839844 34.15625 220.933594 33.65625 220.992188 33.382812 C 221.003906 33.320312 220.996094 33.300781 221.050781 33.15625 C 221.070312 33.109375 220.902344 32.945312 221.496094 32.707031 C 221.898438 32.546875 222.355469 32.746094 222.515625 33.148438 C 222.675781 33.550781 222.476562 34.007812 222.074219 34.164062 C 221.988281 34.199219 222.320312 34.011719 222.273438 34.050781 C 222.195312 34.113281 222.449219 33.855469 222.421875 33.898438 C 222.347656 34 222.527344 33.695312 222.515625 33.722656 C 222.488281 33.792969 222.535156 33.660156 222.535156 33.664062 C 222.535156 33.671875 222.53125 33.6875 222.523438 33.710938 C 222.476562 33.9375 222.378906 34.46875 222.230469 35.144531 C 222.011719 36.136719 221.699219 37.355469 221.4375 38.628906 C 220.945312 41.027344 220.511719 43.386719 219.71875 45.050781 C 219.488281 45.542969 219.449219 46.105469 218.75 46.53125 C 218.644531 46.597656 218.484375 46.671875 218.265625 46.664062 C 218.046875 46.65625 217.832031 46.546875 217.707031 46.429688 C 217.484375 46.21875 217.460938 46.058594 217.421875 45.941406 C 217.355469 45.710938 217.324219 45.5 217.269531 45.238281 C 217.140625 44.648438 216.984375 43.839844 216.804688 42.839844 C 216.679688 42.152344 216.554688 41.414062 216.421875 40.707031 C 216.222656 39.625 216.015625 38.644531 215.867188 37.910156 C 215.785156 37.496094 215.757812 37.34375 215.71875 37.28125 C 215.699219 37.25 215.996094 37.519531 215.890625 37.449219 C 215.828125 37.410156 216.179688 37.558594 216.097656 37.539062 C 216.015625 37.519531 216.414062 37.542969 216.339844 37.550781 C 216.265625 37.558594 216.5625 37.480469 216.519531 37.5 C 216.457031 37.53125 216.648438 37.417969 216.632812 37.429688 C 216.617188 37.441406 216.644531 37.417969 216.636719 37.429688 M 221.304688 34.054688 C 220.964844 33.789062 220.902344 33.296875 221.167969 32.957031 C 221.433594 32.613281 221.925781 32.550781 222.269531 32.816406 C 222.597656 33.070312 222.546875 33.222656 222.558594 33.292969 C 222.589844 33.453125 222.574219 33.46875 222.574219 33.503906 C 222.566406 33.632812 222.550781 33.789062 222.523438 34.0625 C 222.476562 34.492188 222.09375 34.804688 221.660156 34.761719 C 221.230469 34.71875 220.917969 34.332031 220.960938 33.902344 C 220.988281 33.632812 221.003906 33.457031 221.003906 33.4375 C 221.003906 33.4375 221.007812 33.515625 221.003906 33.480469 C 221.003906 33.460938 221.027344 33.644531 221.019531 33.585938 C 221.011719 33.554688 221.085938 33.796875 221.058594 33.730469 C 221.046875 33.691406 221.164062 33.914062 221.128906 33.863281 C 221.089844 33.804688 221.394531 34.125 221.304688 34.054688 "/>
<path style=" stroke:none;fill-rule:nonzero;fill:rgb(0%,45.097351%,23.136902%);fill-opacity:1;" d="M 223.746094 42.714844 C 223.625 42.300781 223.863281 41.863281 224.28125 41.746094 C 224.699219 41.625 225.132812 41.863281 225.253906 42.28125 C 225.589844 43.445312 225.53125 46.03125 225.542969 47.054688 C 225.546875 47.488281 225.199219 47.84375 224.765625 47.847656 C 224.332031 47.851562 223.976562 47.503906 223.972656 47.070312 C 223.960938 46.089844 223.882812 43.1875 223.746094 42.714844 "/>
<path style=" stroke:none;fill-rule:nonzero;fill:rgb(0%,45.097351%,23.136902%);fill-opacity:1;" d="M 226.480469 36.378906 C 226.507812 36.8125 226.179688 37.183594 225.746094 37.210938 C 225.3125 37.238281 224.941406 36.910156 224.914062 36.480469 C 224.910156 36.425781 224.867188 36.296875 224.820312 36.121094 C 224.8125 36.074219 224.800781 36.035156 224.789062 35.964844 C 224.78125 35.921875 224.769531 35.875 224.78125 35.75 C 224.789062 35.675781 224.785156 35.558594 224.917969 35.367188 C 225.070312 35.148438 225.519531 34.988281 225.769531 35.054688 C 226.164062 35.160156 226.160156 35.292969 226.203125 35.347656 C 226.238281 35.394531 226.257812 35.429688 226.277344 35.460938 C 226.3125 35.519531 226.339844 35.574219 226.378906 35.648438 C 226.570312 36.035156 226.414062 36.507812 226.027344 36.699219 C 225.640625 36.894531 225.167969 36.738281 224.976562 36.351562 C 224.949219 36.296875 224.929688 36.261719 224.925781 36.253906 C 224.925781 36.253906 224.980469 36.335938 224.957031 36.300781 C 224.941406 36.28125 225.078125 36.429688 225.035156 36.386719 C 225.011719 36.367188 225.183594 36.5 225.136719 36.46875 C 225.085938 36.4375 225.472656 36.597656 225.363281 36.570312 C 225.304688 36.554688 225.652344 36.597656 225.574219 36.597656 C 225.417969 36.597656 226.164062 36.34375 226.039062 36.4375 C 225.929688 36.519531 226.292969 36.109375 226.253906 36.1875 C 226.1875 36.3125 226.347656 35.863281 226.339844 35.921875 C 226.328125 36 226.34375 35.746094 226.34375 35.777344 C 226.347656 35.800781 226.335938 35.714844 226.339844 35.722656 C 226.34375 35.746094 226.335938 35.710938 226.34375 35.734375 C 226.375 35.863281 226.460938 36.0625 226.480469 36.378906 "/>
<path style=" stroke:none;fill-rule:nonzero;fill:rgb(0%,45.097351%,23.136902%);fill-opacity:1;" d="M 227.671875 40.324219 C 227.671875 39.890625 228.027344 39.542969 228.460938 39.546875 C 228.894531 39.550781 229.242188 39.902344 229.238281 40.335938 C 229.238281 40.515625 229.257812 40.808594 229.292969 41.269531 C 229.367188 42.285156 229.417969 43.730469 229.496094 44.972656 C 229.53125 45.582031 229.542969 46.074219 229.589844 46.339844 C 229.605469 46.429688 229.621094 46.496094 229.636719 46.53125 C 229.644531 46.558594 229.558594 46.4375 229.601562 46.492188 C 229.628906 46.523438 229.414062 46.347656 229.472656 46.386719 C 229.535156 46.421875 229.179688 46.300781 229.253906 46.308594 C 229.328125 46.316406 229.015625 46.328125 229.0625 46.316406 C 229.105469 46.308594 228.972656 46.351562 228.980469 46.347656 C 229.046875 46.3125 229.210938 46.027344 229.53125 45.582031 C 230.527344 44.199219 231.671875 42.195312 232.578125 40.839844 C 232.867188 40.410156 233.101562 40.039062 233.503906 39.761719 C 233.652344 39.660156 233.835938 39.5625 234.074219 39.527344 C 234.324219 39.492188 234.636719 39.5625 234.855469 39.730469 C 235.316406 40.082031 235.316406 40.464844 235.367188 40.78125 C 235.417969 41.101562 235.4375 41.425781 235.46875 41.730469 C 235.554688 42.589844 235.699219 43.582031 235.800781 44.472656 C 235.898438 45.3125 235.984375 45.941406 236.113281 46.339844 C 236.230469 46.691406 236.328125 46.8125 236.546875 46.925781 C 236.933594 47.121094 237.085938 47.59375 236.890625 47.980469 C 236.695312 48.363281 236.222656 48.519531 235.835938 48.324219 C 235.234375 48.015625 234.824219 47.445312 234.625 46.832031 C 234.417969 46.210938 234.339844 45.507812 234.242188 44.65625 C 234.140625 43.789062 234 42.792969 233.90625 41.890625 C 233.871094 41.554688 233.851562 41.242188 233.816406 41.023438 C 233.800781 40.921875 233.78125 40.851562 233.773438 40.828125 C 233.773438 40.820312 233.804688 40.878906 233.789062 40.855469 C 233.769531 40.824219 233.96875 41.027344 233.90625 40.976562 C 233.800781 40.898438 234.402344 41.066406 234.292969 41.082031 C 234.199219 41.09375 234.410156 41.042969 234.394531 41.054688 C 234.367188 41.070312 234.136719 41.328125 233.882812 41.710938 C 233.027344 42.996094 231.871094 45.011719 230.804688 46.5 C 230.539062 46.867188 230.359375 47.386719 229.726562 47.726562 C 229.550781 47.820312 229.320312 47.898438 229.050781 47.863281 C 228.78125 47.828125 228.542969 47.667969 228.402344 47.503906 C 228.144531 47.195312 228.097656 46.90625 228.042969 46.613281 C 227.960938 46.140625 227.964844 45.636719 227.929688 45.066406 C 227.851562 43.800781 227.796875 42.351562 227.726562 41.382812 C 227.695312 40.921875 227.667969 40.609375 227.671875 40.324219 "/>
<path style=" stroke:none;fill-rule:nonzero;fill:rgb(0%,45.097351%,23.136902%);fill-opacity:1;" d="M 214 55.058594 C 213.59375 55.210938 213.144531 55.007812 212.992188 54.601562 C 212.839844 54.195312 213.046875 53.742188 213.449219 53.589844 C 214.273438 53.28125 214.992188 53.089844 216.28125 53.183594 C 217.132812 53.246094 218.203125 53.414062 219.667969 53.492188 C 221.363281 53.585938 223.476562 53.5625 225.660156 53.515625 C 227.09375 53.488281 228.515625 53.4375 229.894531 53.363281 C 231.914062 53.253906 233.816406 53.078125 235.660156 52.90625 C 237.21875 52.757812 238.730469 52.621094 240.082031 52.5 C 240.890625 52.425781 241.644531 52.351562 242.308594 52.296875 C 243.65625 52.183594 244.515625 52.125 245.160156 52.195312 C 245.625 52.246094 245.945312 52.417969 246.046875 52.453125 C 246.09375 52.46875 245.890625 52.5 245.988281 52.4375 C 246.355469 52.207031 246.839844 52.316406 247.070312 52.683594 C 247.300781 53.046875 247.191406 53.53125 246.828125 53.765625 C 246.417969 54.023438 245.839844 54.042969 245.523438 53.929688 C 245.25 53.835938 245.160156 53.773438 244.992188 53.753906 C 244.582031 53.710938 243.757812 53.746094 242.441406 53.859375 C 241.792969 53.914062 241.039062 53.988281 240.226562 54.0625 C 238.875 54.183594 237.363281 54.320312 235.804688 54.46875 C 233.957031 54.640625 232.035156 54.816406 229.980469 54.929688 C 228.582031 55.007812 227.140625 55.054688 225.691406 55.085938 C 223.496094 55.132812 221.355469 55.15625 219.582031 55.058594 C 218.046875 54.976562 216.917969 54.804688 216.167969 54.75 C 215.023438 54.667969 214.800781 54.761719 214 55.058594 "/>
<path style=" stroke:none;fill-rule:nonzero;fill:rgb(0%,45.097351%,23.136902%);fill-opacity:1;" d="M 219.128906 63.097656 C 219.140625 63.53125 218.796875 63.890625 218.363281 63.902344 C 217.929688 63.914062 217.570312 63.574219 217.558594 63.140625 C 217.554688 63 217.550781 62.910156 217.550781 62.859375 C 217.550781 62.839844 217.554688 62.910156 217.550781 62.859375 C 217.507812 62.429688 217.824219 62.046875 218.257812 62.007812 C 218.6875 61.964844 219.070312 62.28125 219.113281 62.710938 C 219.117188 62.769531 219.117188 62.769531 219.117188 62.792969 C 219.121094 62.855469 219.125 62.953125 219.128906 63.097656 M 217.546875 62.785156 C 217.546875 62.351562 217.898438 62.003906 218.332031 62.003906 C 218.765625 62.003906 219.117188 62.355469 219.117188 62.785156 C 219.117188 62.8125 219.117188 62.769531 219.117188 62.777344 C 219.117188 62.847656 219.128906 63.0625 219.152344 63.367188 C 219.246094 64.554688 219.523438 66.824219 219.660156 68.988281 C 219.734375 70.117188 219.757812 71.140625 219.796875 71.929688 C 219.832031 72.703125 219.867188 73.226562 219.9375 73.484375 C 219.992188 73.6875 219.960938 73.636719 220.089844 73.695312 C 220.484375 73.867188 220.667969 74.328125 220.496094 74.726562 C 220.324219 75.121094 219.863281 75.304688 219.464844 75.132812 C 218.96875 74.917969 218.566406 74.417969 218.421875 73.894531 C 218.28125 73.371094 218.265625 72.785156 218.226562 72 C 218.191406 71.1875 218.167969 70.183594 218.097656 69.085938 C 217.960938 66.984375 217.6875 64.746094 217.589844 63.488281 C 217.5625 63.164062 217.550781 62.9375 217.546875 62.839844 C 217.546875 62.824219 217.546875 62.820312 217.546875 62.785156 "/>
<path style=" stroke:none;fill-rule:nonzero;fill:rgb(0%,45.097351%,23.136902%);fill-opacity:1;" d="M 225.660156 71.867188 C 225.363281 72.183594 224.867188 72.199219 224.550781 71.90625 C 224.234375 71.609375 224.214844 71.113281 224.507812 70.796875 C 225.300781 69.945312 226.429688 69.824219 227.402344 69.753906 C 228.417969 69.683594 229.292969 69.710938 230.359375 69.402344 C 230.777344 69.28125 231.210938 69.519531 231.332031 69.9375 C 231.453125 70.351562 231.214844 70.789062 230.796875 70.910156 C 229.496094 71.285156 228.4375 71.253906 227.515625 71.320312 C 226.632812 71.382812 225.976562 71.523438 225.660156 71.867188 "/>
<path style=" stroke:none;fill-rule:nonzero;fill:rgb(0%,45.097351%,23.136902%);fill-opacity:1;" d="M 233.945312 68.554688 C 234.195312 68.199219 234.683594 68.117188 235.039062 68.367188 C 235.390625 68.621094 235.472656 69.109375 235.222656 69.464844 C 235.203125 69.492188 235.082031 70.378906 235.117188 71.488281 C 235.144531 72.414062 235.195312 73.414062 235.285156 74.109375 C 235.304688 74.257812 235.320312 74.375 235.339844 74.449219 C 235.351562 74.515625 235.300781 74.414062 235.335938 74.476562 C 235.351562 74.503906 235.207031 74.328125 235.25 74.367188 C 235.292969 74.410156 234.992188 74.210938 235.070312 74.246094 C 235.144531 74.277344 234.738281 74.1875 234.820312 74.1875 C 234.902344 74.191406 234.550781 74.238281 234.609375 74.21875 C 234.710938 74.183594 234.433594 74.320312 234.449219 74.308594 C 234.457031 74.296875 234.453125 74.304688 234.472656 74.273438 C 234.699219 73.945312 235.054688 73.011719 235.425781 71.898438 C 235.847656 70.625 236.277344 69.171875 236.515625 67.59375 C 236.691406 66.441406 236.734375 65.183594 236.765625 63.996094 C 236.792969 62.859375 236.710938 61.835938 236.765625 61.027344 C 236.796875 60.578125 236.878906 60.121094 237.289062 59.78125 C 237.503906 59.605469 237.792969 59.515625 238.046875 59.523438 C 238.289062 59.527344 238.496094 59.597656 238.679688 59.6875 C 239.902344 60.28125 241.140625 61.847656 242.191406 63.761719 C 242.785156 64.839844 243.242188 65.976562 243.429688 67.125 C 243.613281 68.265625 243.476562 69.453125 242.871094 70.480469 C 242.015625 71.9375 240.4375 72.925781 239.03125 73.632812 C 238.351562 73.972656 237.722656 74.230469 237.230469 74.40625 C 236.996094 74.488281 236.796875 74.546875 236.625 74.585938 C 236.539062 74.605469 236.460938 74.625 236.335938 74.628906 C 236.269531 74.632812 236.179688 74.648438 235.988281 74.570312 C 235.761719 74.480469 235.417969 73.949219 235.515625 73.613281 C 235.632812 73.195312 236.066406 72.953125 236.484375 73.074219 C 236.902344 73.191406 237.140625 73.628906 237.023438 74.042969 C 237 74.121094 237.039062 73.652344 237.050781 73.761719 C 237.058594 73.867188 236.898438 73.355469 236.949219 73.449219 C 237 73.535156 236.714844 73.1875 236.777344 73.238281 C 236.886719 73.332031 236.433594 73.070312 236.503906 73.089844 C 236.609375 73.121094 236.265625 73.058594 236.304688 73.058594 C 236.386719 73.0625 236.238281 73.066406 236.273438 73.058594 C 236.355469 73.039062 236.515625 72.992188 236.714844 72.921875 C 237.136719 72.773438 237.710938 72.539062 238.328125 72.230469 C 239.59375 71.59375 240.9375 70.671875 241.519531 69.683594 C 241.917969 69.007812 242.019531 68.234375 241.878906 67.378906 C 241.730469 66.464844 241.34375 65.476562 240.816406 64.519531 C 239.871094 62.796875 238.558594 61.375 237.996094 61.101562 C 237.949219 61.078125 238.066406 61.09375 238.007812 61.089844 C 237.933594 61.089844 238.371094 60.921875 238.289062 60.988281 C 238.25 61.019531 238.375 60.890625 238.363281 60.910156 C 238.335938 60.949219 238.34375 60.949219 238.332031 61.136719 C 238.289062 61.753906 238.363281 62.816406 238.332031 64.035156 C 238.304688 65.238281 238.261719 66.554688 238.066406 67.828125 C 237.808594 69.539062 237.351562 71.078125 236.914062 72.390625 C 236.535156 73.535156 236.222656 74.503906 235.765625 75.164062 C 235.621094 75.371094 235.460938 75.589844 235.105469 75.707031 C 234.910156 75.773438 234.644531 75.773438 234.425781 75.675781 C 234.207031 75.578125 234.070312 75.417969 233.984375 75.273438 C 233.777344 74.921875 233.769531 74.648438 233.726562 74.308594 C 233.625 73.515625 233.578125 72.488281 233.546875 71.53125 C 233.511719 70.367188 233.355469 69.378906 233.945312 68.554688 "/>
<path style=" stroke:none;fill-rule:nonzero;fill:rgb(0%,45.097351%,23.136902%);fill-opacity:1;" d="M 243.566406 68.414062 C 243.949219 68.214844 244.421875 68.363281 244.625 68.746094 C 244.824219 69.128906 244.675781 69.605469 244.292969 69.804688 C 244.210938 69.847656 244.390625 69.722656 244.382812 69.734375 C 244.371094 69.757812 244.34375 69.816406 244.316406 69.910156 C 244.257812 70.109375 244.21875 70.410156 244.214844 70.757812 C 244.214844 71.476562 244.371094 72.316406 244.683594 72.9375 C 244.90625 73.375 245.230469 73.652344 245.515625 73.75 C 245.648438 73.796875 245.734375 73.800781 245.839844 73.777344 C 246.039062 73.730469 246.484375 73.378906 246.847656 72.882812 C 247.46875 72.027344 247.6875 70.671875 247.5 69.574219 C 247.410156 69.046875 247.230469 68.605469 247.023438 68.351562 C 246.835938 68.125 246.695312 68.058594 246.484375 68.082031 C 246.054688 68.125 245.667969 67.808594 245.625 67.378906 C 245.585938 66.945312 245.898438 66.5625 246.332031 66.519531 C 247.09375 66.445312 247.804688 66.828125 248.242188 67.363281 C 248.679688 67.902344 248.925781 68.585938 249.046875 69.3125 C 249.300781 70.789062 249.0625 72.503906 248.113281 73.804688 C 247.632812 74.46875 247.046875 75.097656 246.210938 75.300781 C 245.78125 75.40625 245.355469 75.355469 245 75.234375 C 244.269531 74.980469 243.664062 74.398438 243.285156 73.644531 C 242.820312 72.730469 242.644531 71.6875 242.648438 70.75 C 242.648438 70.289062 242.695312 69.859375 242.808594 69.46875 C 242.921875 69.078125 243.089844 68.664062 243.566406 68.414062 "/>
<path style=" stroke:none;fill-rule:nonzero;fill:rgb(0%,45.097351%,23.136902%);fill-opacity:1;" d="M 252.453125 59.558594 C 252.886719 59.539062 253.253906 59.875 253.269531 60.308594 C 253.289062 60.738281 252.953125 61.105469 252.519531 61.125 C 252.441406 61.128906 252.839844 61.035156 252.761719 61.066406 C 252.6875 61.101562 252.992188 60.902344 252.945312 60.945312 C 252.867188 61.019531 253.078125 60.753906 253.066406 60.777344 C 253.054688 60.8125 253.054688 60.824219 253.039062 60.957031 C 253.007812 61.265625 253.003906 61.789062 253.015625 62.496094 C 253.03125 63.683594 253.085938 65.226562 253.117188 66.851562 C 253.152344 68.484375 253.15625 70.105469 253.117188 71.453125 C 253.082031 72.742188 252.957031 73.65625 252.910156 74.179688 C 252.898438 74.292969 252.894531 74.382812 252.894531 74.429688 C 252.894531 74.449219 252.894531 74.445312 252.894531 74.449219 C 252.898438 74.460938 252.851562 74.308594 252.871094 74.359375 C 252.894531 74.417969 252.640625 74.050781 252.722656 74.132812 C 252.8125 74.21875 252.292969 73.929688 252.402344 73.957031 C 252.507812 73.980469 252.117188 73.953125 252.167969 73.945312 C 252.214844 73.9375 252.097656 73.964844 252.101562 73.960938 C 252.503906 73.808594 252.960938 74.007812 253.113281 74.414062 C 253.269531 74.816406 253.066406 75.269531 252.664062 75.425781 C 252.519531 75.480469 252.328125 75.550781 252.042969 75.484375 C 251.738281 75.410156 251.484375 75.125 251.402344 74.910156 C 251.261719 74.535156 251.324219 74.316406 251.347656 74.039062 C 251.398438 73.453125 251.515625 72.621094 251.550781 71.410156 C 251.585938 70.097656 251.582031 68.496094 251.550781 66.886719 C 251.515625 65.273438 251.464844 63.730469 251.445312 62.519531 C 251.433594 61.792969 251.433594 61.234375 251.480469 60.792969 C 251.503906 60.582031 251.53125 60.386719 251.621094 60.171875 C 251.667969 60.058594 251.738281 59.929688 251.863281 59.808594 C 252.007812 59.671875 252.234375 59.566406 252.453125 59.558594 "/>
<path style=" stroke:none;fill-rule:nonzero;fill:rgb(0%,45.097351%,23.136902%);fill-opacity:1;" d="M 249.332031 69.285156 C 249.023438 68.980469 249.019531 68.484375 249.324219 68.175781 C 249.628906 67.867188 250.125 67.863281 250.433594 68.167969 C 250.441406 68.175781 251.554688 68.671875 252.71875 68.875 C 253.292969 68.972656 253.875 69.019531 254.378906 68.988281 C 254.777344 68.964844 255.085938 68.933594 255.265625 68.863281 C 255.40625 68.808594 255.558594 68.660156 255.695312 68.394531 C 255.839844 68.113281 255.941406 67.746094 256.003906 67.394531 C 256.074219 67.011719 256.066406 66.636719 256.03125 66.464844 C 256.023438 66.429688 256.214844 66.746094 256.136719 66.660156 C 256.054688 66.574219 256.625 66.855469 256.488281 66.839844 C 256.351562 66.824219 256.890625 66.734375 256.816406 66.777344 C 256.742188 66.816406 256.960938 66.640625 256.941406 66.667969 C 256.894531 66.738281 256.933594 66.710938 256.917969 66.917969 C 256.898438 67.140625 256.898438 67.429688 256.890625 67.730469 C 256.871094 68.574219 256.960938 69.351562 257.148438 69.933594 C 257.328125 70.476562 257.582031 70.773438 257.789062 70.859375 C 257.945312 70.925781 258.046875 70.925781 258.144531 70.894531 C 258.257812 70.855469 258.414062 70.753906 258.597656 70.507812 C 258.867188 70.140625 259.132812 69.511719 259.382812 68.820312 C 259.535156 68.390625 259.671875 67.957031 259.78125 67.605469 C 259.832031 67.4375 259.867188 67.28125 259.890625 67.15625 C 259.902344 67.097656 259.910156 67.046875 259.917969 66.996094 C 259.925781 66.96875 259.929688 66.945312 259.945312 66.886719 C 259.957031 66.84375 259.953125 66.796875 260.058594 66.644531 C 260.308594 66.292969 260.796875 66.207031 261.152344 66.457031 C 261.507812 66.703125 261.59375 67.195312 261.34375 67.546875 C 261.289062 67.625 261.441406 67.359375 261.429688 67.390625 C 261.417969 67.421875 261.453125 67.3125 261.449219 67.328125 C 261.441406 67.359375 261.460938 67.285156 261.460938 67.292969 C 261.453125 67.316406 261.445312 67.375 261.429688 67.449219 C 261.402344 67.605469 261.355469 67.824219 261.28125 68.070312 C 261.167969 68.429688 261.023438 68.886719 260.859375 69.351562 C 260.59375 70.089844 260.308594 70.832031 259.859375 71.4375 C 259.53125 71.882812 259.117188 72.226562 258.632812 72.382812 C 258.148438 72.542969 257.628906 72.492188 257.183594 72.304688 C 256.394531 71.976562 255.925781 71.226562 255.660156 70.421875 C 255.390625 69.609375 255.296875 68.671875 255.324219 67.691406 C 255.339844 67.128906 255.175781 66.488281 255.636719 65.796875 C 255.738281 65.644531 255.871094 65.507812 256.042969 65.410156 C 256.222656 65.3125 256.445312 65.253906 256.679688 65.28125 C 256.910156 65.308594 257.140625 65.433594 257.292969 65.601562 C 257.445312 65.765625 257.527344 65.960938 257.566406 66.148438 C 257.660156 66.597656 257.648438 67.113281 257.550781 67.671875 C 257.46875 68.121094 257.339844 68.625 257.089844 69.109375 C 256.839844 69.597656 256.445312 70.085938 255.835938 70.324219 C 255.359375 70.511719 254.898438 70.53125 254.46875 70.554688 C 253.8125 70.59375 253.121094 70.535156 252.449219 70.417969 C 251.125 70.1875 250.015625 69.960938 249.332031 69.285156 M 260.058594 67.542969 C 259.8125 67.1875 259.902344 66.699219 260.257812 66.453125 C 260.613281 66.207031 261.101562 66.292969 261.347656 66.648438 C 261.640625 67.070312 261.539062 67.277344 261.535156 67.484375 C 261.53125 67.691406 261.515625 67.902344 261.515625 68.117188 C 261.515625 69.128906 261.675781 70.789062 261.792969 72.445312 C 261.839844 73.066406 261.910156 73.691406 261.945312 74.285156 C 262 75.121094 262.0625 75.847656 261.832031 76.546875 C 261.472656 77.640625 260.429688 78.195312 259.4375 78.476562 C 258.445312 78.753906 257.402344 78.828125 256.550781 78.914062 C 256.121094 78.960938 255.734375 78.644531 255.691406 78.214844 C 255.644531 77.785156 255.960938 77.398438 256.390625 77.355469 C 257.261719 77.265625 258.226562 77.1875 259.011719 76.964844 C 259.761719 76.753906 260.214844 76.445312 260.34375 76.054688 C 260.4375 75.769531 260.433594 75.195312 260.382812 74.386719 C 260.347656 73.84375 260.277344 73.21875 260.226562 72.558594 C 260.109375 70.917969 259.949219 69.265625 259.949219 68.117188 C 259.949219 67.847656 259.960938 67.613281 259.964844 67.453125 C 259.96875 67.378906 259.964844 67.328125 259.964844 67.320312 C 259.964844 67.316406 259.980469 67.394531 259.972656 67.363281 C 259.960938 67.324219 260.117188 67.625 260.058594 67.542969 "/>
</g>
</svg>
