<?xml version="1.0" encoding="UTF-8"?>
<svg xmlns="http://www.w3.org/2000/svg" xmlns:xlink="http://www.w3.org/1999/xlink" width="303.00304pt" height="142.7701pt" viewBox="0 0 303.00304 142.7701" version="1.2">
<g id="surface1">
<path style=" stroke:none;fill-rule:nonzero;fill:rgb(7.058716%,1.176453%,46.665955%);fill-opacity:1;" d="M 28.800781 82.347656 C 28.515625 82.347656 28.289062 82.117188 28.289062 81.835938 C 28.289062 81.550781 28.515625 81.320312 28.800781 81.320312 L 81.753906 81.320312 C 82.035156 81.320312 82.265625 81.550781 82.265625 81.835938 C 82.265625 82.117188 82.035156 82.347656 81.753906 82.347656 Z M 28.800781 82.347656 "/>
<path style=" stroke:none;fill-rule:nonzero;fill:rgb(7.058716%,1.176453%,46.665955%);fill-opacity:1;" d="M 28.289062 46.015625 C 28.289062 45.730469 28.515625 45.503906 28.800781 45.503906 C 29.085938 45.503906 29.316406 45.730469 29.316406 46.015625 L 29.316406 81.835938 C 29.316406 82.117188 29.085938 82.347656 28.800781 82.347656 C 28.515625 82.347656 28.289062 82.117188 28.289062 81.835938 Z M 28.289062 46.015625 "/>
<path style=" stroke:none;fill-rule:nonzero;fill:rgb(7.058716%,1.176453%,46.665955%);fill-opacity:1;" d="M 29.257812 46.253906 C 29.128906 46.503906 28.816406 46.601562 28.566406 46.472656 C 28.3125 46.34375 28.214844 46.03125 28.34375 45.78125 L 46.492188 10.679688 C 46.621094 10.429688 46.929688 10.328125 47.183594 10.460938 C 47.433594 10.589844 47.535156 10.898438 47.402344 11.152344 Z M 29.257812 46.253906 "/>
<path style=" stroke:none;fill-rule:nonzero;fill:rgb(7.058716%,1.176453%,46.665955%);fill-opacity:1;" d="M 29.253906 45.773438 C 29.386719 46.023438 29.292969 46.335938 29.042969 46.46875 C 28.792969 46.601562 28.480469 46.507812 28.347656 46.257812 L 10.300781 12.375 C 10.167969 12.125 10.261719 11.8125 10.511719 11.679688 C 10.765625 11.546875 11.074219 11.640625 11.207031 11.890625 Z M 29.253906 45.773438 "/>
<path style=" stroke:none;fill-rule:nonzero;fill:rgb(7.058716%,1.176453%,46.665955%);fill-opacity:1;" d="M 81.238281 46.722656 C 81.238281 46.4375 81.46875 46.207031 81.753906 46.207031 C 82.035156 46.207031 82.265625 46.4375 82.265625 46.722656 L 82.265625 116.949219 C 82.265625 117.230469 82.035156 117.460938 81.753906 117.460938 C 81.46875 117.460938 81.238281 117.230469 81.238281 116.949219 Z M 81.238281 46.722656 "/>
<path style=" stroke:none;fill-rule:nonzero;fill:rgb(7.058716%,1.176453%,46.665955%);fill-opacity:1;" d="M 81.476562 47.152344 C 81.238281 47 81.167969 46.683594 81.320312 46.445312 C 81.472656 46.203125 81.792969 46.136719 82.03125 46.289062 L 136.253906 81.023438 C 136.496094 81.179688 136.5625 81.496094 136.410156 81.734375 C 136.257812 81.972656 135.941406 82.042969 135.699219 81.890625 Z M 81.476562 47.152344 "/>
<path style=" stroke:none;fill-rule:nonzero;fill:rgb(7.058716%,1.176453%,46.665955%);fill-opacity:1;" d="M 82.035156 117.378906 C 81.796875 117.535156 81.476562 117.46875 81.324219 117.230469 C 81.167969 116.992188 81.234375 116.671875 81.472656 116.519531 L 135.695312 81.027344 C 135.933594 80.871094 136.253906 80.9375 136.40625 81.175781 C 136.5625 81.414062 136.496094 81.734375 136.257812 81.886719 Z M 82.035156 117.378906 "/>
<path style=" stroke:none;fill-rule:nonzero;fill:rgb(7.058716%,1.176453%,46.665955%);fill-opacity:1;" d="M 135.976562 81.972656 C 135.695312 81.972656 135.464844 81.742188 135.464844 81.457031 C 135.464844 81.175781 135.695312 80.945312 135.976562 80.945312 L 189.332031 80.945312 C 189.617188 80.945312 189.847656 81.175781 189.847656 81.457031 C 189.847656 81.742188 189.617188 81.972656 189.332031 81.972656 Z M 135.976562 81.972656 "/>
<path style=" stroke:none;fill-rule:nonzero;fill:rgb(7.058716%,1.176453%,46.665955%);fill-opacity:1;" d="M 226.742188 45.695312 C 226.949219 45.5 227.273438 45.511719 227.46875 45.71875 C 227.664062 45.925781 227.652344 46.25 227.445312 46.445312 L 189.683594 81.832031 C 189.476562 82.027344 189.152344 82.015625 188.957031 81.808594 C 188.765625 81.601562 188.773438 81.277344 188.980469 81.082031 Z M 226.742188 45.695312 "/>
<path style=" stroke:none;fill-rule:nonzero;fill:rgb(7.058716%,1.176453%,46.665955%);fill-opacity:1;" d="M 188.976562 81.824219 C 188.769531 81.628906 188.765625 81.300781 188.964844 81.097656 C 189.164062 80.894531 189.488281 80.890625 189.691406 81.089844 L 227.453125 117.878906 C 227.65625 118.078125 227.660156 118.402344 227.460938 118.605469 C 227.265625 118.808594 226.9375 118.8125 226.734375 118.613281 Z M 188.976562 81.824219 "/>
<path style=" stroke:none;fill-rule:nonzero;fill:rgb(7.058716%,1.176453%,46.665955%);fill-opacity:1;" d="M 227.09375 46.582031 C 226.808594 46.582031 226.582031 46.351562 226.582031 46.070312 C 226.582031 45.785156 226.808594 45.554688 227.09375 45.554688 L 281.15625 45.554688 C 281.4375 45.554688 281.667969 45.785156 281.667969 46.070312 C 281.667969 46.351562 281.4375 46.582031 281.15625 46.582031 Z M 227.09375 46.582031 "/>
<path style=" stroke:none;fill-rule:nonzero;fill:rgb(7.058716%,1.176453%,46.665955%);fill-opacity:1;" d="M 280.640625 46.070312 C 280.640625 45.785156 280.871094 45.554688 281.15625 45.554688 C 281.4375 45.554688 281.667969 45.785156 281.667969 46.070312 L 281.667969 117.863281 C 281.667969 118.144531 281.4375 118.375 281.15625 118.375 C 280.871094 118.375 280.640625 118.144531 280.640625 117.863281 Z M 280.640625 46.070312 "/>
<path style=" stroke:none;fill-rule:nonzero;fill:rgb(7.058716%,1.176453%,46.665955%);fill-opacity:1;" d="M 281.15625 117.347656 C 281.4375 117.347656 281.667969 117.578125 281.667969 117.863281 C 281.667969 118.144531 281.4375 118.375 281.15625 118.375 L 227.09375 118.375 C 226.808594 118.375 226.582031 118.144531 226.582031 117.863281 C 226.582031 117.578125 226.808594 117.347656 227.09375 117.347656 Z M 281.15625 117.347656 "/>
<path style=" stroke:none;fill-rule:nonzero;fill:rgb(92.941284%,21.176147%,14.117432%);fill-opacity:1;" d="M 225.957031 74.296875 C 225.9375 74.722656 225.574219 75.046875 225.148438 75.027344 C 224.722656 75.003906 224.398438 74.644531 224.417969 74.21875 C 224.429688 74.039062 224.417969 73.863281 224.398438 73.726562 C 224.390625 73.660156 224.378906 73.605469 224.371094 73.570312 C 224.363281 73.542969 224.410156 73.644531 224.382812 73.585938 C 224.375 73.578125 224.417969 73.652344 224.40625 73.636719 C 224.191406 73.269531 224.316406 72.796875 224.683594 72.578125 C 225.050781 72.363281 225.523438 72.488281 225.738281 72.855469 C 225.746094 72.871094 225.753906 72.886719 225.761719 72.898438 C 225.976562 73.332031 225.988281 73.730469 225.957031 74.296875 M 224.316406 73.085938 C 224.40625 72.667969 224.816406 72.402344 225.230469 72.492188 C 225.648438 72.578125 225.914062 72.988281 225.828125 73.40625 C 225.804688 73.511719 225.84375 73.21875 225.84375 73.242188 C 225.84375 73.3125 225.839844 73.171875 225.839844 73.175781 C 225.839844 73.175781 225.84375 73.21875 225.851562 73.273438 C 225.867188 73.367188 225.886719 73.507812 225.910156 73.679688 C 225.964844 74.050781 226.035156 74.550781 226.109375 75.140625 C 226.269531 76.371094 226.441406 77.886719 226.53125 79.351562 C 226.625 80.925781 226.582031 82.511719 226.570312 83.730469 C 226.566406 84.273438 226.585938 84.738281 226.570312 85.144531 C 226.558594 85.40625 226.53125 85.628906 226.480469 85.832031 C 226.453125 85.929688 226.429688 86.023438 226.351562 86.164062 C 226.308594 86.238281 226.253906 86.347656 226.054688 86.46875 C 225.851562 86.59375 225.367188 86.582031 225.148438 86.402344 C 224.859375 86.164062 224.839844 85.933594 224.8125 85.78125 C 224.789062 85.636719 224.789062 85.515625 224.785156 85.398438 C 224.785156 85.160156 224.796875 84.925781 224.789062 84.730469 C 224.730469 83.0625 224.699219 80.453125 224.914062 77.710938 C 225.082031 75.566406 225.046875 73.6875 225.664062 72.277344 C 226.085938 71.320312 227.050781 70.742188 228.007812 70.789062 C 228.96875 70.839844 229.917969 71.351562 230.769531 72.144531 C 231.175781 72.523438 231.582031 72.953125 231.957031 73.378906 C 234.078125 75.757812 234.679688 79.019531 234.839844 82.171875 C 234.921875 83.753906 234.945312 85.21875 235.078125 86.324219 C 235.175781 87.15625 235.375 87.941406 235.445312 88.066406 C 235.445312 88.066406 235.363281 87.964844 235.402344 88.007812 C 235.421875 88.03125 235.246094 87.886719 235.296875 87.917969 C 235.351562 87.957031 234.972656 87.796875 235.070312 87.820312 C 235.167969 87.84375 234.617188 87.851562 234.730469 87.824219 C 234.8125 87.804688 234.464844 87.953125 234.519531 87.917969 C 234.601562 87.863281 234.332031 88.105469 234.363281 88.066406 C 234.390625 88.027344 234.304688 88.160156 234.3125 88.144531 C 234.335938 88.09375 234.371094 87.898438 234.398438 87.394531 C 234.425781 86.96875 234.789062 86.644531 235.214844 86.671875 C 235.640625 86.695312 235.964844 87.058594 235.9375 87.484375 C 235.90625 88.0625 235.882812 88.429688 235.703125 88.808594 C 235.605469 89.019531 235.226562 89.4375 234.722656 89.324219 C 234.261719 89.214844 234.175781 88.957031 234.089844 88.804688 C 233.773438 88.222656 233.65625 87.433594 233.546875 86.507812 C 233.398438 85.28125 233.378906 83.804688 233.300781 82.25 C 233.148438 79.257812 232.5625 76.375 230.804688 74.402344 C 230.449219 74.003906 230.074219 73.605469 229.71875 73.277344 C 229.054688 72.660156 228.386719 72.351562 227.929688 72.328125 C 227.523438 72.308594 227.28125 72.433594 227.078125 72.898438 C 226.671875 73.816406 226.625 75.644531 226.453125 77.832031 C 226.242188 80.484375 226.273438 83.050781 226.332031 84.675781 C 226.339844 84.953125 226.328125 85.207031 226.328125 85.386719 C 226.328125 85.46875 226.332031 85.523438 226.335938 85.527344 C 226.335938 85.53125 226.292969 85.40625 226.3125 85.453125 C 226.324219 85.480469 226.226562 85.308594 226.253906 85.351562 C 226.285156 85.394531 226.066406 85.160156 226.125 85.207031 C 226.175781 85.246094 225.863281 85.0625 225.9375 85.09375 C 226.054688 85.144531 225.421875 85.0625 225.550781 85.042969 C 225.675781 85.027344 225.175781 85.195312 225.25 85.152344 C 225.359375 85.085938 225.042969 85.34375 225.082031 85.300781 C 225.113281 85.257812 225.003906 85.414062 225.015625 85.390625 C 225.0625 85.3125 224.980469 85.46875 224.984375 85.449219 C 225 85.390625 225.023438 85.253906 225.027344 85.085938 C 225.042969 84.773438 225.023438 84.296875 225.027344 83.71875 C 225.039062 82.480469 225.082031 80.929688 224.992188 79.441406 C 224.90625 78.035156 224.734375 76.546875 224.582031 75.335938 C 224.503906 74.757812 224.4375 74.261719 224.382812 73.898438 C 224.359375 73.726562 224.339844 73.589844 224.328125 73.488281 C 224.320312 73.445312 224.316406 73.410156 224.3125 73.378906 C 224.308594 73.351562 224.214844 73.570312 224.316406 73.085938 "/>
<path style=" stroke:none;fill-rule:nonzero;fill:rgb(92.941284%,21.176147%,14.117432%);fill-opacity:1;" d="M 226.503906 80.871094 C 226.617188 81.28125 226.378906 81.703125 225.96875 81.820312 C 225.558594 81.933594 225.132812 81.695312 225.019531 81.285156 C 224.878906 80.789062 225.007812 80.179688 225.363281 79.824219 C 225.707031 79.480469 226.128906 79.351562 226.550781 79.265625 C 227.402344 79.097656 228.378906 79.136719 229.320312 79.160156 C 231.261719 79.210938 232.996094 79.117188 234.421875 79.242188 C 234.847656 79.277344 235.160156 79.648438 235.125 80.074219 C 235.089844 80.5 234.714844 80.8125 234.292969 80.777344 C 233.023438 80.667969 231.28125 80.753906 229.28125 80.703125 C 228.351562 80.675781 227.433594 80.664062 226.851562 80.777344 C 226.589844 80.832031 226.449219 80.914062 226.449219 80.917969 C 226.429688 80.9375 226.476562 80.769531 226.503906 80.871094 "/>
<path style=" stroke:none;fill-rule:nonzero;fill:rgb(92.941284%,21.176147%,14.117432%);fill-opacity:1;" d="M 238.550781 78.515625 C 238.363281 78.132812 238.519531 77.671875 238.902344 77.480469 C 239.28125 77.292969 239.746094 77.449219 239.933594 77.832031 C 240.351562 78.671875 240.546875 79.707031 240.695312 80.804688 C 240.777344 81.417969 240.832031 82.042969 240.90625 82.652344 C 240.945312 83.003906 241.007812 83.363281 241.0625 83.730469 C 241.125 84.125 241.179688 84.488281 241.222656 84.738281 C 241.253906 84.902344 241.265625 85.039062 241.269531 85.136719 C 241.273438 85.183594 241.273438 85.222656 241.273438 85.242188 C 241.273438 85.25 241.273438 85.222656 241.273438 85.238281 C 241.289062 85.664062 240.957031 86.023438 240.53125 86.039062 C 240.105469 86.054688 239.75 85.722656 239.730469 85.296875 C 239.730469 85.277344 239.730469 85.273438 239.730469 85.265625 C 239.730469 85.253906 239.730469 85.238281 239.730469 85.214844 C 239.726562 85.167969 239.722656 85.09375 239.703125 85 C 239.65625 84.730469 239.601562 84.359375 239.539062 83.960938 C 239.488281 83.613281 239.421875 83.234375 239.375 82.835938 C 239.296875 82.199219 239.242188 81.578125 239.167969 81.011719 C 239.027344 79.988281 238.828125 79.078125 238.550781 78.515625 M 241.265625 85.382812 C 241.203125 85.804688 240.808594 86.09375 240.390625 86.03125 C 239.96875 85.96875 239.675781 85.578125 239.742188 85.15625 C 239.746094 85.117188 239.734375 84.714844 239.730469 84.261719 C 239.71875 82.191406 239.816406 78.273438 241.035156 74.78125 C 241.558594 73.285156 242.304688 72.082031 243.332031 71.363281 C 244.347656 70.652344 245.671875 70.492188 246.945312 70.925781 C 249.53125 71.804688 251.714844 74.441406 252.023438 77.449219 C 252.253906 79.691406 251.371094 81.734375 250.042969 83.3125 C 248.71875 84.890625 246.972656 86.0625 245.261719 86.820312 C 243.597656 87.554688 242.019531 87.941406 240.777344 87.59375 C 240.15625 87.417969 239.546875 86.890625 239.449219 86.1875 C 239.351562 85.484375 239.644531 84.78125 240.148438 84.03125 C 240.382812 83.675781 240.863281 83.582031 241.21875 83.816406 C 241.570312 84.054688 241.667969 84.53125 241.429688 84.886719 C 241.042969 85.46875 240.960938 85.863281 240.976562 85.972656 C 240.984375 86.039062 240.960938 86.042969 241.191406 86.105469 C 241.785156 86.273438 243.167969 86.058594 244.640625 85.410156 C 246.160156 84.738281 247.726562 83.675781 248.863281 82.320312 C 249.992188 80.980469 250.671875 79.367188 250.488281 77.605469 C 250.246094 75.25 248.398438 73.046875 246.445312 72.382812 C 245.5625 72.082031 244.847656 72.1875 244.21875 72.625 C 243.554688 73.089844 242.941406 73.996094 242.492188 75.289062 C 241.378906 78.46875 241.261719 82.265625 241.273438 84.253906 C 241.277344 84.65625 241.324219 85 241.265625 85.382812 "/>
<path style=" stroke:none;fill-rule:nonzero;fill:rgb(92.941284%,21.176147%,14.117432%);fill-opacity:1;" d="M 262.867188 74.890625 C 263.042969 75.277344 262.867188 75.734375 262.476562 75.90625 C 262.085938 76.078125 261.632812 75.90625 261.460938 75.515625 C 261.171875 74.871094 261.382812 74.453125 261.394531 74.148438 C 261.394531 74.148438 261.425781 74.253906 261.410156 74.214844 C 261.390625 74.171875 261.539062 74.367188 261.5 74.335938 C 261.460938 74.304688 261.585938 74.378906 261.578125 74.378906 C 261.574219 74.375 261.558594 74.375 261.515625 74.378906 C 260.363281 74.496094 257.746094 76.140625 256.511719 77.78125 C 256.097656 78.328125 255.882812 78.898438 255.851562 79.441406 C 255.824219 79.929688 255.789062 80.273438 255.851562 80.46875 C 255.976562 80.84375 256.976562 81.476562 258.046875 81.964844 C 260.769531 83.214844 263.375 83.480469 266.375 82.160156 C 266.765625 81.992188 267.222656 82.167969 267.390625 82.558594 C 267.5625 82.949219 267.386719 83.402344 266.996094 83.574219 C 263.613281 85.058594 260.402344 84.742188 257.40625 83.367188 C 256.289062 82.855469 254.839844 82.308594 254.390625 80.953125 C 254.179688 80.316406 254.289062 79.761719 254.3125 79.351562 C 254.363281 78.476562 254.707031 77.613281 255.277344 76.851562 C 256.03125 75.855469 257.09375 74.949219 258.199219 74.214844 C 259.292969 73.492188 260.367188 72.945312 261.359375 72.84375 C 261.738281 72.808594 262.144531 72.875 262.46875 73.136719 C 262.792969 73.398438 262.949219 73.832031 262.933594 74.210938 C 262.925781 74.4375 262.902344 74.636719 262.890625 74.792969 C 262.886719 74.863281 262.886719 74.917969 262.890625 74.945312 C 262.890625 74.96875 262.839844 74.824219 262.867188 74.890625 "/>
<path style=" stroke:none;fill-rule:nonzero;fill:rgb(92.941284%,21.176147%,14.117432%);fill-opacity:1;" d="M 92.160156 74.265625 C 92.046875 74.675781 91.621094 74.914062 91.210938 74.800781 C 90.800781 74.683594 90.5625 74.257812 90.675781 73.847656 C 90.746094 73.597656 90.8125 73.40625 90.910156 73.21875 C 90.960938 73.121094 91.019531 73.011719 91.167969 72.890625 C 91.332031 72.753906 91.722656 72.628906 92.023438 72.761719 C 92.316406 72.886719 92.40625 73.070312 92.460938 73.1875 C 92.515625 73.296875 92.542969 73.386719 92.5625 73.472656 C 92.601562 73.640625 92.621094 73.8125 92.636719 73.996094 C 92.699219 74.789062 92.625 75.910156 92.464844 77.253906 C 92.300781 78.640625 92.039062 80.195312 91.683594 81.738281 C 91.332031 83.261719 91.019531 84.6875 90.96875 85.605469 C 90.953125 85.859375 90.984375 86.007812 91 86.046875 C 91.011719 86.066406 90.972656 86.039062 91.027344 86.058594 C 91.542969 86.25 93.128906 85.871094 94.605469 85.183594 C 96.078125 84.492188 97.421875 83.566406 97.605469 83.328125 C 97.867188 82.992188 98.351562 82.933594 98.6875 83.191406 C 99.023438 83.453125 99.085938 83.9375 98.824219 84.273438 C 98.203125 85.078125 96.859375 85.832031 95.257812 86.578125 C 93.644531 87.332031 91.929688 88.035156 90.496094 87.507812 C 90.113281 87.363281 89.761719 87.050781 89.59375 86.675781 C 89.425781 86.304688 89.40625 85.914062 89.429688 85.515625 C 89.492188 84.382812 89.828125 82.929688 90.179688 81.390625 C 90.867188 78.421875 91.199219 75.414062 91.097656 74.117188 C 91.089844 73.980469 91.074219 73.875 91.0625 73.832031 C 91.058594 73.816406 91.101562 73.914062 91.078125 73.871094 C 91.066406 73.84375 91.203125 74.039062 91.15625 73.988281 C 91.109375 73.929688 91.546875 74.234375 91.414062 74.175781 C 91.285156 74.121094 92.007812 74.183594 91.863281 74.21875 C 91.726562 74.25 92.214844 74.023438 92.15625 74.074219 C 92.097656 74.121094 92.265625 73.953125 92.25 73.972656 C 92.234375 73.996094 92.273438 73.941406 92.269531 73.941406 C 92.265625 73.953125 92.214844 74.074219 92.160156 74.265625 "/>
<path style=" stroke:none;fill-rule:nonzero;fill:rgb(92.941284%,21.176147%,14.117432%);fill-opacity:1;" d="M 100.773438 83.140625 C 101.140625 83.359375 101.257812 83.832031 101.039062 84.199219 C 100.824219 84.5625 100.347656 84.683594 99.984375 84.464844 C 99.714844 84.304688 99.554688 83.949219 99.546875 83.710938 C 99.542969 83.488281 99.597656 83.339844 99.648438 83.210938 C 99.75 82.964844 99.886719 82.761719 100.027344 82.554688 C 100.433594 81.964844 100.917969 81.257812 101.515625 80.328125 C 102.003906 79.5625 102.519531 78.6875 102.941406 77.832031 C 103.179688 77.355469 103.351562 76.847656 103.515625 76.371094 C 103.757812 75.6875 103.839844 75.128906 103.957031 74.753906 C 104.089844 74.351562 104.523438 74.128906 104.929688 74.257812 C 105.332031 74.386719 105.558594 74.820312 105.425781 75.226562 C 105.398438 75.3125 105.441406 75.164062 105.4375 75.207031 C 105.425781 75.375 105.425781 75.730469 105.382812 76.140625 C 105.238281 77.507812 105.03125 79.699219 105.253906 81.292969 C 105.394531 82.277344 105.757812 83.230469 106.199219 83.917969 C 106.457031 84.324219 106.628906 84.515625 106.722656 84.550781 C 106.898438 84.617188 107.144531 84.621094 107.496094 84.367188 C 107.773438 84.167969 108.15625 83.527344 108.546875 82.847656 C 109.421875 81.335938 109.988281 79.671875 110.199219 78.15625 C 110.3125 77.320312 110.320312 76.503906 110.296875 75.878906 C 110.285156 75.582031 110.269531 75.34375 110.253906 75.175781 C 110.246094 75.101562 110.242188 75.042969 110.238281 75 C 110.238281 74.972656 110.175781 75.117188 110.25 74.75 C 110.335938 74.332031 110.742188 74.0625 111.160156 74.148438 C 111.578125 74.234375 111.847656 74.640625 111.761719 75.058594 C 111.746094 75.132812 111.777344 74.910156 111.777344 74.933594 C 111.773438 75.039062 111.773438 74.863281 111.777344 74.875 C 111.777344 74.902344 111.785156 74.964844 111.789062 75.050781 C 111.804688 75.230469 111.824219 75.496094 111.835938 75.820312 C 111.863281 76.507812 111.859375 77.40625 111.726562 78.367188 C 111.484375 80.097656 110.859375 81.933594 109.882812 83.621094 C 109.5 84.285156 109.128906 85.089844 108.398438 85.617188 C 107.695312 86.125 106.84375 86.25 106.171875 85.988281 C 105.503906 85.734375 105.179688 85.183594 104.902344 84.75 C 104.328125 83.855469 103.898438 82.71875 103.726562 81.507812 C 103.460938 79.621094 103.703125 77.375 103.847656 75.980469 C 103.894531 75.558594 103.792969 75.273438 103.957031 74.753906 L 105.425781 75.226562 C 105.394531 75.324219 105.253906 76.070312 104.972656 76.882812 C 104.808594 77.351562 104.617188 77.925781 104.324219 78.511719 C 103.871094 79.4375 103.328125 80.355469 102.8125 81.160156 C 102.203125 82.113281 101.703125 82.835938 101.300781 83.425781 C 101.183594 83.597656 101.097656 83.75 101.074219 83.796875 C 101.074219 83.804688 101.082031 83.769531 101.078125 83.789062 C 101.074219 83.808594 101.085938 83.605469 101.089844 83.667969 C 101.089844 83.734375 100.964844 83.296875 101.019531 83.398438 C 101.074219 83.507812 100.679688 83.085938 100.773438 83.140625 M 110.316406 75.246094 C 110.125 74.867188 110.28125 74.402344 110.664062 74.210938 C 111.042969 74.023438 111.507812 74.179688 111.695312 74.558594 C 111.808594 74.78125 111.761719 74.742188 111.765625 74.761719 C 111.847656 75.179688 111.578125 75.585938 111.160156 75.667969 C 110.746094 75.753906 110.335938 75.484375 110.253906 75.066406 C 110.253906 75.0625 110.261719 75.105469 110.257812 75.089844 C 110.257812 75.082031 110.273438 75.148438 110.269531 75.128906 C 110.261719 75.105469 110.351562 75.316406 110.316406 75.246094 "/>
<path style=" stroke:none;fill-rule:nonzero;fill:rgb(92.941284%,21.176147%,14.117432%);fill-opacity:1;" d="M 114.539062 76.015625 C 114.945312 76.144531 115.167969 76.582031 115.035156 76.984375 C 114.90625 77.390625 114.46875 77.613281 114.066406 77.484375 C 113.929688 77.4375 114.046875 77.421875 113.96875 77.441406 C 113.871094 77.464844 114.234375 77.199219 114.210938 77.246094 C 114.195312 77.285156 114.191406 77.507812 114.21875 77.914062 C 114.296875 78.957031 114.253906 80.171875 114.335938 81.261719 C 114.367188 81.648438 114.414062 82.03125 114.457031 82.417969 C 114.511719 82.921875 114.507812 83.367188 114.539062 83.566406 C 114.539062 83.566406 114.507812 83.488281 114.523438 83.519531 C 114.539062 83.550781 114.355469 83.320312 114.417969 83.375 C 114.484375 83.441406 113.964844 83.203125 114.101562 83.226562 C 114.246094 83.246094 113.558594 83.371094 113.671875 83.304688 C 113.753906 83.257812 113.527344 83.429688 113.539062 83.414062 C 113.5625 83.382812 113.589844 83.320312 113.660156 83.125 C 113.757812 82.847656 113.863281 82.445312 113.976562 81.976562 C 114.214844 80.996094 114.457031 79.78125 114.734375 78.578125 C 115.039062 77.25 115.363281 75.910156 115.679688 74.820312 C 115.808594 74.382812 115.828125 73.984375 116.058594 73.535156 C 116.207031 73.246094 116.460938 73.007812 116.769531 72.894531 C 117.078125 72.78125 117.445312 72.808594 117.738281 72.976562 C 118.234375 73.257812 118.261719 73.625 118.332031 73.886719 C 118.402344 74.144531 118.449219 74.386719 118.503906 74.570312 C 119.09375 76.539062 120.351562 78.664062 121.175781 80.835938 C 121.613281 81.996094 121.96875 83.160156 122.3125 84.0625 C 122.546875 84.679688 122.796875 85.242188 122.835938 85.292969 C 122.839844 85.296875 122.75 85.214844 122.785156 85.242188 C 122.828125 85.277344 122.449219 85.105469 122.5625 85.136719 C 122.679688 85.164062 122.011719 85.21875 122.140625 85.164062 C 122.265625 85.113281 121.855469 85.390625 121.898438 85.339844 C 121.933594 85.296875 121.84375 85.425781 121.84375 85.417969 C 121.847656 85.414062 121.890625 85.273438 121.925781 85.035156 C 121.988281 84.613281 122.378906 84.324219 122.800781 84.386719 C 123.222656 84.445312 123.515625 84.839844 123.453125 85.261719 C 123.390625 85.667969 123.375 85.972656 123.085938 86.320312 C 122.921875 86.519531 122.515625 86.714844 122.183594 86.628906 C 121.871094 86.550781 121.734375 86.382812 121.632812 86.257812 C 121.265625 85.796875 121.109375 85.234375 120.871094 84.609375 C 120.503906 83.636719 120.152344 82.484375 119.734375 81.382812 C 118.972656 79.371094 117.6875 77.230469 117.027344 75.011719 C 116.941406 74.730469 116.894531 74.472656 116.84375 74.292969 C 116.824219 74.214844 116.800781 74.15625 116.796875 74.148438 C 116.796875 74.148438 116.847656 74.21875 116.828125 74.191406 C 116.800781 74.160156 117.050781 74.359375 116.976562 74.316406 C 116.875 74.257812 117.386719 74.3125 117.292969 74.34375 C 117.207031 74.375 117.4375 74.230469 117.429688 74.242188 C 117.40625 74.289062 117.316406 74.710938 117.160156 75.25 C 116.859375 76.289062 116.539062 77.613281 116.234375 78.925781 C 115.964844 80.101562 115.722656 81.316406 115.476562 82.335938 C 115.359375 82.832031 115.242188 83.269531 115.113281 83.636719 C 114.988281 83.992188 114.957031 84.335938 114.453125 84.632812 C 114.285156 84.730469 114.0625 84.78125 113.855469 84.746094 C 113.652344 84.714844 113.484375 84.617188 113.367188 84.503906 C 113.140625 84.292969 113.050781 84.039062 113.011719 83.792969 C 112.953125 83.386719 112.96875 82.980469 112.925781 82.582031 C 112.886719 82.21875 112.832031 81.816406 112.796875 81.378906 C 112.707031 80.179688 112.75 78.945312 112.683594 78.03125 C 112.648438 77.578125 112.570312 77.125 112.8125 76.601562 C 112.9375 76.324219 113.238281 76.039062 113.582031 75.949219 C 113.921875 75.859375 114.234375 75.917969 114.539062 76.015625 "/>
<path style=" stroke:none;fill-rule:nonzero;fill:rgb(92.941284%,21.176147%,14.117432%);fill-opacity:1;" d="M 116.917969 81.128906 C 117.335938 81.199219 117.621094 81.59375 117.550781 82.015625 C 117.480469 82.433594 117.085938 82.71875 116.664062 82.648438 C 116.34375 82.59375 116.132812 82.558594 115.945312 82.503906 C 115.898438 82.488281 115.847656 82.476562 115.769531 82.4375 C 115.707031 82.40625 115.605469 82.378906 115.464844 82.183594 C 115.34375 82.015625 115.269531 81.621094 115.410156 81.359375 C 115.59375 81.015625 115.777344 81.007812 115.863281 80.980469 C 115.9375 80.957031 115.988281 80.949219 116.03125 80.941406 C 116.386719 80.886719 116.808594 80.910156 117.421875 80.910156 C 118.722656 80.910156 120.433594 80.90625 121.382812 80.691406 C 121.796875 80.597656 122.210938 80.859375 122.304688 81.273438 C 122.398438 81.6875 122.140625 82.101562 121.722656 82.195312 C 120.460938 82.480469 118.734375 82.453125 117.417969 82.453125 C 116.804688 82.453125 116.292969 82.460938 116.265625 82.464844 C 116.253906 82.46875 116.476562 82.394531 116.390625 82.429688 C 116.351562 82.445312 116.621094 82.285156 116.550781 82.339844 C 116.484375 82.390625 116.851562 81.921875 116.78125 82.066406 C 116.714844 82.199219 116.820312 81.4375 116.847656 81.59375 C 116.871094 81.726562 116.667969 81.214844 116.71875 81.285156 C 116.800781 81.402344 116.472656 81.0625 116.519531 81.09375 C 116.582031 81.132812 116.386719 81.027344 116.40625 81.035156 C 116.421875 81.039062 116.382812 81.027344 116.382812 81.027344 C 116.417969 81.035156 116.613281 81.078125 116.917969 81.128906 "/>
</g>
</svg>
