<?xml version="1.0" encoding="UTF-8"?>
<svg xmlns="http://www.w3.org/2000/svg" xmlns:xlink="http://www.w3.org/1999/xlink" width="364.66466pt" height="270.0644pt" viewBox="0 0 364.66466 270.0644" version="1.2">
<g id="surface1">
<path style=" stroke:none;fill-rule:nonzero;fill:rgb(7.058716%,1.176453%,46.665955%);fill-opacity:1;" d="M 41.941406 69.757812 C 41.9375 69.425781 42.199219 69.15625 42.527344 69.152344 C 42.855469 69.144531 43.128906 69.410156 43.132812 69.738281 C 43.324219 81.53125 43.324219 92.707031 43.132812 103.265625 C 43.125 103.59375 42.855469 103.855469 42.527344 103.851562 C 42.199219 103.84375 41.9375 103.574219 41.941406 103.246094 C 42.132812 92.699219 42.132812 81.535156 41.941406 69.757812 M 42.269531 70.28125 C 41.976562 70.132812 41.855469 69.773438 42.003906 69.480469 C 42.152344 69.1875 42.507812 69.066406 42.804688 69.214844 C 58.671875 77.152344 58.671875 77.152344 77.214844 86.429688 C 77.511719 86.578125 77.628906 86.9375 77.480469 87.230469 C 77.335938 87.523438 76.976562 87.644531 76.683594 87.496094 C 58.140625 78.21875 58.140625 78.21875 42.269531 70.28125 M 42.792969 103.792969 C 42.496094 103.933594 42.140625 103.808594 42 103.511719 C 41.859375 103.214844 41.984375 102.859375 42.28125 102.71875 C 53.753906 97.242188 65.222656 91.808594 76.695312 86.425781 C 76.992188 86.285156 77.347656 86.414062 77.488281 86.710938 C 77.628906 87.007812 77.5 87.363281 77.203125 87.503906 C 65.734375 92.886719 54.261719 98.316406 42.792969 103.792969 M 83.917969 87.617188 C 83.589844 87.617188 83.324219 87.347656 83.324219 87.019531 C 83.324219 86.691406 83.589844 86.425781 83.917969 86.425781 L 90.886719 86.425781 C 91.214844 86.425781 91.480469 86.691406 91.480469 87.019531 C 91.480469 87.347656 91.214844 87.617188 90.886719 87.617188 Z M 31.179688 87.6875 C 30.851562 87.6875 30.585938 87.421875 30.585938 87.09375 C 30.585938 86.761719 30.851562 86.496094 31.179688 86.496094 L 42.679688 86.496094 C 43.007812 86.496094 43.277344 86.761719 43.277344 87.09375 C 43.277344 87.421875 43.007812 87.6875 42.679688 87.6875 Z M 84.515625 87.074219 C 84.515625 88.578125 83.699219 89.890625 82.488281 90.597656 C 81.886719 90.953125 81.183594 91.15625 80.433594 91.15625 C 78.929688 91.15625 77.613281 90.339844 76.90625 89.128906 C 76.554688 88.527344 76.351562 87.824219 76.351562 87.074219 C 76.351562 85.570312 77.164062 84.253906 78.378906 83.546875 C 78.980469 83.195312 79.683594 82.992188 80.433594 82.992188 C 81.9375 82.992188 83.25 83.804688 83.960938 85.015625 C 84.3125 85.621094 84.515625 86.324219 84.515625 87.074219 M 83.324219 87.074219 C 83.324219 86.542969 83.179688 86.046875 82.929688 85.617188 C 82.429688 84.761719 81.5 84.183594 80.433594 84.183594 C 79.902344 84.183594 79.40625 84.328125 78.976562 84.578125 C 78.121094 85.078125 77.542969 86.007812 77.542969 87.074219 C 77.542969 87.605469 77.6875 88.101562 77.9375 88.527344 C 78.4375 89.386719 79.367188 89.964844 80.433594 89.964844 C 80.964844 89.964844 81.460938 89.820312 81.886719 89.570312 C 82.746094 89.070312 83.324219 88.140625 83.324219 87.074219 M 142.074219 141 C 142.074219 140.671875 142.34375 140.40625 142.671875 140.40625 C 143 140.40625 143.265625 140.671875 143.265625 141 L 143.265625 170.492188 C 143.265625 170.820312 143 171.089844 142.671875 171.089844 C 142.34375 171.089844 142.074219 170.820312 142.074219 170.492188 Z M 142.074219 177.710938 C 142.074219 177.382812 142.34375 177.117188 142.671875 177.117188 C 143 177.117188 143.265625 177.382812 143.265625 177.710938 L 143.265625 209.117188 C 143.265625 209.445312 143 209.710938 142.671875 209.710938 C 142.34375 209.710938 142.074219 209.445312 142.074219 209.117188 Z M 129.097656 171.089844 C 128.765625 171.089844 128.5 170.820312 128.5 170.492188 C 128.5 170.164062 128.765625 169.898438 129.097656 169.898438 L 156.253906 169.898438 C 156.582031 169.898438 156.847656 170.164062 156.847656 170.492188 C 156.847656 170.820312 156.582031 171.089844 156.253906 171.089844 Z M 129.09375 178.308594 C 128.761719 178.308594 128.496094 178.042969 128.496094 177.710938 C 128.496094 177.382812 128.761719 177.117188 129.09375 177.117188 L 156.25 177.117188 C 156.578125 177.117188 156.84375 177.382812 156.84375 177.710938 C 156.84375 178.042969 156.578125 178.308594 156.25 178.308594 Z M 224.992188 141.65625 C 224.992188 141.328125 225.261719 141.0625 225.589844 141.0625 C 225.917969 141.0625 226.183594 141.328125 226.183594 141.65625 L 226.183594 171.148438 C 226.183594 171.476562 225.917969 171.742188 225.589844 171.742188 C 225.261719 171.742188 224.992188 171.476562 224.992188 171.148438 Z M 224.992188 178.367188 C 224.992188 178.039062 225.261719 177.773438 225.589844 177.773438 C 225.917969 177.773438 226.183594 178.039062 226.183594 178.367188 L 226.183594 209.773438 C 226.183594 210.101562 225.917969 210.367188 225.589844 210.367188 C 225.261719 210.367188 224.992188 210.101562 224.992188 209.773438 Z M 212.015625 171.742188 C 211.683594 171.742188 211.417969 171.476562 211.417969 171.148438 C 211.417969 170.820312 211.683594 170.550781 212.015625 170.550781 L 239.171875 170.550781 C 239.5 170.550781 239.765625 170.820312 239.765625 171.148438 C 239.765625 171.476562 239.5 171.742188 239.171875 171.742188 Z M 212.011719 178.964844 C 211.679688 178.964844 211.414062 178.695312 211.414062 178.367188 C 211.414062 178.039062 211.679688 177.773438 212.011719 177.773438 L 239.167969 177.773438 C 239.496094 177.773438 239.761719 178.039062 239.761719 178.367188 C 239.761719 178.695312 239.496094 178.964844 239.167969 178.964844 Z M 303.695312 141.65625 C 303.695312 141.328125 303.960938 141.058594 304.292969 141.058594 C 304.621094 141.058594 304.886719 141.328125 304.886719 141.65625 L 304.886719 171.144531 C 304.886719 171.476562 304.621094 171.742188 304.292969 171.742188 C 303.960938 171.742188 303.695312 171.476562 303.695312 171.144531 Z M 303.695312 178.367188 C 303.695312 178.039062 303.960938 177.769531 304.292969 177.769531 C 304.621094 177.769531 304.886719 178.039062 304.886719 178.367188 L 304.886719 209.769531 C 304.886719 210.097656 304.621094 210.367188 304.292969 210.367188 C 303.960938 210.367188 303.695312 210.097656 303.695312 209.769531 Z M 290.714844 171.742188 C 290.386719 171.742188 290.121094 171.476562 290.121094 171.144531 C 290.121094 170.816406 290.386719 170.550781 290.714844 170.550781 L 317.875 170.550781 C 318.203125 170.550781 318.46875 170.816406 318.46875 171.144531 C 318.46875 171.476562 318.203125 171.742188 317.875 171.742188 Z M 290.714844 178.960938 C 290.382812 178.960938 290.117188 178.695312 290.117188 178.367188 C 290.117188 178.039062 290.382812 177.769531 290.714844 177.769531 L 317.871094 177.769531 C 318.199219 177.769531 318.464844 178.039062 318.464844 178.367188 C 318.464844 178.695312 318.199219 178.960938 317.871094 178.960938 Z M 142.078125 207.3125 C 142.078125 206.980469 142.34375 206.714844 142.671875 206.714844 C 143 206.714844 143.269531 206.980469 143.269531 207.3125 L 143.269531 218.242188 C 143.269531 218.570312 143 218.835938 142.671875 218.835938 C 142.34375 218.835938 142.078125 218.570312 142.078125 218.242188 Z M 134.171875 219.574219 C 133.84375 219.574219 133.578125 219.304688 133.578125 218.976562 C 133.578125 218.648438 133.84375 218.382812 134.171875 218.382812 L 151.171875 218.382812 C 151.5 218.382812 151.769531 218.648438 151.769531 218.976562 C 151.769531 219.304688 151.5 219.574219 151.171875 219.574219 Z M 137.109375 223.472656 C 136.78125 223.472656 136.515625 223.203125 136.515625 222.875 C 136.515625 222.546875 136.78125 222.28125 137.109375 222.28125 L 148.527344 222.28125 C 148.855469 222.28125 149.121094 222.546875 149.121094 222.875 C 149.121094 223.203125 148.855469 223.472656 148.527344 223.472656 Z M 140.378906 227.128906 C 140.050781 227.128906 139.785156 226.859375 139.785156 226.53125 C 139.785156 226.203125 140.050781 225.9375 140.378906 225.9375 L 145.253906 225.9375 C 145.585938 225.9375 145.851562 226.203125 145.851562 226.53125 C 145.851562 226.859375 145.585938 227.128906 145.253906 227.128906 Z M 224.996094 207.3125 C 224.996094 206.980469 225.261719 206.714844 225.589844 206.714844 C 225.921875 206.714844 226.1875 206.980469 226.1875 207.3125 L 226.1875 218.242188 C 226.1875 218.570312 225.921875 218.835938 225.589844 218.835938 C 225.261719 218.835938 224.996094 218.570312 224.996094 218.242188 Z M 217.089844 219.574219 C 216.761719 219.574219 216.496094 219.304688 216.496094 218.976562 C 216.496094 218.648438 216.761719 218.382812 217.089844 218.382812 L 234.089844 218.382812 C 234.417969 218.382812 234.6875 218.648438 234.6875 218.976562 C 234.6875 219.304688 234.417969 219.574219 234.089844 219.574219 Z M 220.027344 223.472656 C 219.699219 223.472656 219.433594 223.203125 219.433594 222.875 C 219.433594 222.546875 219.699219 222.28125 220.027344 222.28125 L 231.445312 222.28125 C 231.773438 222.28125 232.039062 222.546875 232.039062 222.875 C 232.039062 223.203125 231.773438 223.472656 231.445312 223.472656 Z M 223.296875 227.128906 C 222.96875 227.128906 222.703125 226.859375 222.703125 226.53125 C 222.703125 226.203125 222.96875 225.9375 223.296875 225.9375 L 228.175781 225.9375 C 228.503906 225.9375 228.769531 226.203125 228.769531 226.53125 C 228.769531 226.859375 228.503906 227.128906 228.175781 227.128906 Z M 303.699219 207.3125 C 303.699219 206.980469 303.964844 206.714844 304.292969 206.714844 C 304.621094 206.714844 304.890625 206.980469 304.890625 207.3125 L 304.890625 218.242188 C 304.890625 218.570312 304.621094 218.835938 304.292969 218.835938 C 303.964844 218.835938 303.699219 218.570312 303.699219 218.242188 Z M 295.792969 219.574219 C 295.464844 219.574219 295.199219 219.304688 295.199219 218.976562 C 295.199219 218.648438 295.464844 218.382812 295.792969 218.382812 L 312.792969 218.382812 C 313.121094 218.382812 313.390625 218.648438 313.390625 218.976562 C 313.390625 219.304688 313.121094 219.574219 312.792969 219.574219 Z M 298.730469 223.472656 C 298.402344 223.472656 298.136719 223.203125 298.136719 222.875 C 298.136719 222.546875 298.402344 222.28125 298.730469 222.28125 L 310.144531 222.28125 C 310.476562 222.28125 310.742188 222.546875 310.742188 222.875 C 310.742188 223.203125 310.476562 223.472656 310.144531 223.472656 Z M 302 227.128906 C 301.671875 227.128906 301.40625 226.859375 301.40625 226.53125 C 301.40625 226.203125 301.671875 225.9375 302 225.9375 L 306.875 225.9375 C 307.207031 225.9375 307.472656 226.203125 307.472656 226.53125 C 307.472656 226.859375 307.207031 227.128906 306.875 227.128906 Z M 142.671875 107.847656 C 143 107.847656 143.265625 108.113281 143.265625 108.441406 C 143.265625 108.769531 143 109.039062 142.671875 109.039062 L 128.328125 109.039062 C 127.996094 109.039062 127.730469 108.769531 127.730469 108.441406 C 127.730469 108.113281 127.996094 107.847656 128.328125 107.847656 Z M 127.730469 108.441406 C 127.730469 108.113281 127.996094 107.847656 128.328125 107.847656 C 128.65625 107.847656 128.921875 108.113281 128.921875 108.441406 L 128.921875 133.269531 C 128.921875 133.597656 128.65625 133.867188 128.328125 133.867188 C 127.996094 133.867188 127.730469 133.597656 127.730469 133.269531 Z M 128.328125 133.867188 C 127.996094 133.867188 127.730469 133.597656 127.730469 133.269531 C 127.730469 132.941406 127.996094 132.675781 128.328125 132.675781 L 142.671875 132.675781 C 143 132.675781 143.265625 132.941406 143.265625 133.269531 C 143.265625 133.597656 143 133.867188 142.671875 133.867188 Z M 142.074219 133.269531 C 142.074219 132.941406 142.34375 132.675781 142.671875 132.675781 C 143 132.675781 143.265625 132.941406 143.265625 133.269531 L 143.265625 154.617188 C 143.265625 154.945312 143 155.210938 142.671875 155.210938 C 142.34375 155.210938 142.074219 154.945312 142.074219 154.617188 Z M 124.082031 109.425781 C 124.082031 109.097656 124.347656 108.832031 124.679688 108.832031 C 125.007812 108.832031 125.273438 109.097656 125.273438 109.425781 L 125.273438 132.285156 C 125.273438 132.613281 125.007812 132.882812 124.679688 132.882812 C 124.347656 132.882812 124.082031 132.613281 124.082031 132.285156 Z M 105.054688 121.453125 C 104.726562 121.453125 104.460938 121.183594 104.460938 120.855469 C 104.460938 120.527344 104.726562 120.261719 105.054688 120.261719 L 124.679688 120.261719 C 125.007812 120.261719 125.273438 120.527344 125.273438 120.855469 C 125.273438 121.183594 125.007812 121.453125 124.679688 121.453125 Z M 142.074219 87.097656 C 142.074219 86.769531 142.34375 86.5 142.671875 86.5 C 143 86.5 143.265625 86.769531 143.265625 87.097656 L 143.265625 108.441406 C 143.265625 108.769531 143 109.039062 142.671875 109.039062 C 142.34375 109.039062 142.074219 108.769531 142.074219 108.441406 Z M 137.132812 129.570312 C 137.132812 129.242188 137.398438 128.972656 137.726562 128.972656 C 138.058594 128.972656 138.324219 129.242188 138.324219 129.570312 L 138.324219 136.972656 C 138.324219 137.300781 138.058594 137.566406 137.726562 137.566406 C 137.398438 137.566406 137.132812 137.300781 137.132812 136.972656 Z M 137.371094 130.046875 C 137.109375 129.847656 137.054688 129.476562 137.25 129.210938 C 137.449219 128.949219 137.820312 128.894531 138.085938 129.09375 L 143.027344 132.792969 C 143.292969 132.992188 143.34375 133.363281 143.148438 133.628906 C 142.949219 133.890625 142.578125 133.945312 142.3125 133.746094 Z M 138.085938 137.449219 C 137.820312 137.644531 137.449219 137.589844 137.25 137.328125 C 137.054688 137.066406 137.109375 136.691406 137.371094 136.496094 L 142.3125 132.792969 C 142.578125 132.597656 142.949219 132.648438 143.148438 132.914062 C 143.34375 133.175781 143.292969 133.550781 143.027344 133.746094 Z M 225.589844 107.847656 C 225.917969 107.847656 226.183594 108.113281 226.183594 108.441406 C 226.183594 108.769531 225.917969 109.039062 225.589844 109.039062 L 211.246094 109.039062 C 210.914062 109.039062 210.648438 108.769531 210.648438 108.441406 C 210.648438 108.113281 210.914062 107.847656 211.246094 107.847656 Z M 210.648438 108.441406 C 210.648438 108.113281 210.914062 107.847656 211.246094 107.847656 C 211.574219 107.847656 211.839844 108.113281 211.839844 108.441406 L 211.839844 133.269531 C 211.839844 133.597656 211.574219 133.867188 211.246094 133.867188 C 210.914062 133.867188 210.648438 133.597656 210.648438 133.269531 Z M 211.246094 133.867188 C 210.914062 133.867188 210.648438 133.597656 210.648438 133.269531 C 210.648438 132.941406 210.914062 132.675781 211.246094 132.675781 L 225.589844 132.675781 C 225.917969 132.675781 226.183594 132.941406 226.183594 133.269531 C 226.183594 133.597656 225.917969 133.867188 225.589844 133.867188 Z M 224.992188 133.269531 C 224.992188 132.941406 225.261719 132.675781 225.589844 132.675781 C 225.917969 132.675781 226.183594 132.941406 226.183594 133.269531 L 226.183594 154.617188 C 226.183594 154.945312 225.917969 155.210938 225.589844 155.210938 C 225.261719 155.210938 224.992188 154.945312 224.992188 154.617188 Z M 207 109.425781 C 207 109.097656 207.269531 108.832031 207.597656 108.832031 C 207.925781 108.832031 208.191406 109.097656 208.191406 109.425781 L 208.191406 132.285156 C 208.191406 132.613281 207.925781 132.882812 207.597656 132.882812 C 207.269531 132.882812 207 132.613281 207 132.285156 Z M 187.976562 121.453125 C 187.644531 121.453125 187.378906 121.183594 187.378906 120.855469 C 187.378906 120.527344 187.644531 120.261719 187.976562 120.261719 L 207.597656 120.261719 C 207.925781 120.261719 208.191406 120.527344 208.191406 120.855469 C 208.191406 121.183594 207.925781 121.453125 207.597656 121.453125 Z M 224.992188 87.097656 C 224.992188 86.769531 225.261719 86.5 225.589844 86.5 C 225.917969 86.5 226.183594 86.769531 226.183594 87.097656 L 226.183594 108.441406 C 226.183594 108.769531 225.917969 109.039062 225.589844 109.039062 C 225.261719 109.039062 224.992188 108.769531 224.992188 108.441406 Z M 220.050781 129.570312 C 220.050781 129.242188 220.316406 128.972656 220.648438 128.972656 C 220.976562 128.972656 221.242188 129.242188 221.242188 129.570312 L 221.242188 136.972656 C 221.242188 137.300781 220.976562 137.566406 220.648438 137.566406 C 220.316406 137.566406 220.050781 137.300781 220.050781 136.972656 Z M 220.289062 130.046875 C 220.027344 129.847656 219.972656 129.476562 220.167969 129.210938 C 220.367188 128.949219 220.738281 128.894531 221.003906 129.09375 L 225.945312 132.792969 C 226.210938 132.992188 226.261719 133.363281 226.066406 133.628906 C 225.867188 133.890625 225.496094 133.945312 225.230469 133.746094 Z M 221.003906 137.449219 C 220.738281 137.644531 220.367188 137.589844 220.167969 137.328125 C 219.972656 137.066406 220.027344 136.691406 220.289062 136.496094 L 225.230469 132.792969 C 225.496094 132.597656 225.867188 132.648438 226.066406 132.914062 C 226.261719 133.175781 226.210938 133.550781 225.945312 133.746094 Z M 304.292969 107.847656 C 304.621094 107.847656 304.886719 108.113281 304.886719 108.441406 C 304.886719 108.769531 304.621094 109.039062 304.292969 109.039062 L 289.949219 109.039062 C 289.617188 109.039062 289.351562 108.769531 289.351562 108.441406 C 289.351562 108.113281 289.617188 107.847656 289.949219 107.847656 Z M 289.351562 108.441406 C 289.351562 108.113281 289.617188 107.847656 289.949219 107.847656 C 290.277344 107.847656 290.542969 108.113281 290.542969 108.441406 L 290.542969 133.269531 C 290.542969 133.597656 290.277344 133.867188 289.949219 133.867188 C 289.617188 133.867188 289.351562 133.597656 289.351562 133.269531 Z M 289.949219 133.867188 C 289.617188 133.867188 289.351562 133.597656 289.351562 133.269531 C 289.351562 132.941406 289.617188 132.675781 289.949219 132.675781 L 304.292969 132.675781 C 304.621094 132.675781 304.886719 132.941406 304.886719 133.269531 C 304.886719 133.597656 304.621094 133.867188 304.292969 133.867188 Z M 303.695312 133.269531 C 303.695312 132.941406 303.960938 132.675781 304.292969 132.675781 C 304.621094 132.675781 304.886719 132.941406 304.886719 133.269531 L 304.886719 154.617188 C 304.886719 154.945312 304.621094 155.210938 304.292969 155.210938 C 303.960938 155.210938 303.695312 154.945312 303.695312 154.617188 Z M 285.703125 109.425781 C 285.703125 109.097656 285.96875 108.832031 286.300781 108.832031 C 286.628906 108.832031 286.894531 109.097656 286.894531 109.425781 L 286.894531 132.285156 C 286.894531 132.613281 286.628906 132.882812 286.300781 132.882812 C 285.96875 132.882812 285.703125 132.613281 285.703125 132.285156 Z M 266.675781 121.453125 C 266.347656 121.453125 266.082031 121.183594 266.082031 120.855469 C 266.082031 120.527344 266.347656 120.261719 266.675781 120.261719 L 286.300781 120.261719 C 286.628906 120.261719 286.894531 120.527344 286.894531 120.855469 C 286.894531 121.183594 286.628906 121.453125 286.300781 121.453125 Z M 303.695312 87.097656 C 303.695312 86.769531 303.960938 86.5 304.292969 86.5 C 304.621094 86.5 304.886719 86.769531 304.886719 87.097656 L 304.886719 108.441406 C 304.886719 108.769531 304.621094 109.039062 304.292969 109.039062 C 303.960938 109.039062 303.695312 108.769531 303.695312 108.441406 Z M 298.753906 129.570312 C 298.753906 129.242188 299.019531 128.972656 299.347656 128.972656 C 299.679688 128.972656 299.945312 129.242188 299.945312 129.570312 L 299.945312 136.972656 C 299.945312 137.300781 299.679688 137.566406 299.347656 137.566406 C 299.019531 137.566406 298.753906 137.300781 298.753906 136.972656 Z M 298.992188 130.046875 C 298.730469 129.847656 298.675781 129.476562 298.871094 129.210938 C 299.070312 128.949219 299.441406 128.894531 299.707031 129.09375 L 304.648438 132.792969 C 304.910156 132.992188 304.964844 133.363281 304.769531 133.628906 C 304.570312 133.890625 304.199219 133.945312 303.933594 133.746094 Z M 299.707031 137.449219 C 299.441406 137.644531 299.070312 137.589844 298.871094 137.328125 C 298.675781 137.066406 298.730469 136.691406 298.992188 136.496094 L 303.933594 132.792969 C 304.199219 132.597656 304.570312 132.648438 304.769531 132.914062 C 304.964844 133.175781 304.910156 133.550781 304.648438 133.746094 Z M 299.707031 137.449219 "/>
<path style=" stroke:none;fill-rule:nonzero;fill:rgb(7.058716%,1.176453%,46.665955%);fill-opacity:1;" d="M 138.824219 130.828125 C 139.148438 130.894531 139.359375 131.207031 139.292969 131.53125 C 139.230469 131.851562 138.914062 132.0625 138.59375 131.996094 C 138.089844 131.894531 138.160156 131.710938 138.125 131.664062 C 138.074219 131.601562 138.046875 131.550781 138.035156 131.523438 C 138.027344 131.511719 138.03125 131.515625 138.027344 131.511719 C 138.023438 131.503906 138.097656 131.605469 138.070312 131.570312 C 137.859375 131.320312 137.890625 130.945312 138.140625 130.730469 C 138.390625 130.519531 138.765625 130.550781 138.980469 130.800781 C 139.117188 130.964844 139.027344 130.882812 139.0625 130.929688 C 139.085938 130.960938 139.089844 130.964844 139.09375 130.972656 C 139.101562 130.976562 139.015625 130.90625 139.046875 130.929688 C 139.066406 130.941406 138.941406 130.863281 138.972656 130.882812 C 139.007812 130.898438 138.761719 130.816406 138.824219 130.828125 M 137.972656 130.960938 C 138.101562 130.65625 138.453125 130.515625 138.753906 130.644531 C 139.058594 130.773438 139.199219 131.125 139.070312 131.425781 C 139.070312 131.429688 139.074219 131.417969 139.074219 131.417969 C 139.070312 131.425781 139.074219 131.410156 139.074219 131.414062 C 139.074219 131.414062 139.078125 131.390625 139.078125 131.402344 C 139.074219 131.464844 139.070312 131.519531 139.070312 131.570312 C 139.066406 131.832031 139.066406 132.121094 139.070312 132.472656 C 139.070312 132.785156 139.070312 133.132812 139.070312 133.484375 C 139.070312 133.714844 139.070312 133.945312 139.070312 134.148438 C 139.070312 134.296875 139.070312 134.425781 139.070312 134.539062 C 139.070312 134.6875 139.070312 134.792969 139.082031 134.863281 C 139.082031 134.882812 139.097656 134.9375 139.121094 135.019531 C 139.140625 135.074219 139.152344 135.121094 139.15625 135.136719 C 139.15625 135.144531 139.140625 135.097656 139.148438 135.117188 C 139.152344 135.128906 139.105469 135.035156 139.121094 135.0625 C 139.136719 135.089844 138.992188 134.90625 139.035156 134.953125 C 139.074219 134.988281 138.816406 134.808594 138.882812 134.839844 C 139.175781 134.988281 139.296875 135.347656 139.148438 135.640625 C 139.003906 135.933594 138.644531 136.054688 138.351562 135.90625 C 138.28125 135.871094 138.230469 135.828125 138.191406 135.789062 C 137.863281 135.460938 138 135.421875 137.980469 135.355469 C 137.960938 135.289062 137.921875 135.175781 137.898438 135.019531 C 137.875 134.84375 137.878906 134.691406 137.878906 134.546875 C 137.878906 134.421875 137.878906 134.292969 137.878906 134.148438 C 137.878906 133.945312 137.878906 133.714844 137.878906 133.484375 C 137.878906 133.125 137.878906 132.78125 137.878906 132.484375 C 137.875 132.128906 137.875 131.828125 137.878906 131.550781 C 137.878906 131.464844 137.882812 131.390625 137.886719 131.339844 C 137.894531 131.226562 137.914062 131.136719 137.933594 131.066406 C 137.945312 131.035156 137.957031 131.003906 137.964844 130.980469 C 137.96875 130.972656 137.972656 130.96875 137.972656 130.960938 M 138.792969 135.945312 C 138.480469 136.039062 138.148438 135.859375 138.054688 135.542969 C 137.960938 135.230469 138.140625 134.898438 138.457031 134.804688 C 138.519531 134.785156 138.257812 134.902344 138.300781 134.875 C 138.335938 134.851562 138.1875 134.972656 138.210938 134.949219 C 138.261719 134.898438 138.109375 135.085938 138.125 135.0625 C 138.136719 135.039062 138.101562 135.113281 138.105469 135.105469 C 138.121094 135.066406 138.101562 135.097656 138.121094 135.015625 C 138.199219 134.714844 138.300781 134.367188 138.351562 133.929688 C 138.394531 133.5625 138.375 133.070312 138.390625 132.554688 C 138.402344 132.292969 138.417969 132.035156 138.460938 131.796875 C 138.492188 131.621094 138.542969 131.480469 138.589844 131.375 C 138.625 131.292969 138.667969 131.214844 138.742188 131.132812 C 138.78125 131.089844 138.828125 131.039062 138.910156 130.992188 C 139 130.941406 139.148438 130.875 139.351562 130.917969 C 139.671875 130.980469 139.882812 131.296875 139.816406 131.617188 C 139.75 131.941406 139.4375 132.148438 139.113281 132.085938 C 139.019531 132.066406 139.433594 132.0625 139.367188 132.078125 C 139.300781 132.09375 139.550781 131.996094 139.515625 132.019531 C 139.449219 132.058594 139.65625 131.898438 139.632812 131.921875 C 139.597656 131.964844 139.683594 131.84375 139.683594 131.851562 C 139.667969 131.886719 139.644531 131.945312 139.632812 132.007812 C 139.605469 132.15625 139.589844 132.367188 139.582031 132.59375 C 139.566406 133.054688 139.59375 133.566406 139.535156 134.066406 C 139.472656 134.613281 139.34375 135.042969 139.277344 135.304688 C 139.269531 135.347656 139.261719 135.421875 139.207031 135.550781 C 139.1875 135.605469 139.167969 135.675781 139.054688 135.789062 C 139.003906 135.839844 138.925781 135.90625 138.792969 135.945312 M 138.726562 131.808594 C 138.558594 131.523438 138.652344 131.160156 138.9375 130.992188 C 139.21875 130.824219 139.585938 130.921875 139.753906 131.203125 C 139.753906 131.207031 139.757812 131.210938 139.757812 131.214844 C 139.804688 131.300781 139.816406 131.359375 139.828125 131.402344 C 139.84375 131.480469 139.84375 131.527344 139.839844 131.570312 C 139.839844 131.652344 139.832031 131.726562 139.820312 131.800781 C 139.8125 131.847656 139.824219 131.703125 139.824219 131.714844 C 139.824219 131.734375 139.84375 131.773438 139.867188 131.917969 C 139.882812 132.03125 139.894531 132.144531 139.902344 132.269531 C 139.917969 132.421875 139.925781 132.589844 139.933594 132.777344 C 139.945312 133.085938 139.945312 133.425781 139.949219 133.714844 C 139.953125 133.863281 139.960938 133.996094 139.964844 134.121094 C 139.972656 134.222656 139.972656 134.300781 139.972656 134.304688 C 139.976562 134.339844 139.972656 134.324219 139.976562 134.34375 C 139.976562 134.351562 139.964844 134.289062 139.96875 134.308594 C 139.972656 134.328125 139.917969 134.164062 139.9375 134.210938 C 140.066406 134.511719 139.929688 134.863281 139.628906 134.992188 C 139.328125 135.125 138.976562 134.988281 138.84375 134.6875 C 138.800781 134.589844 138.800781 134.542969 138.796875 134.511719 C 138.789062 134.457031 138.789062 134.433594 138.785156 134.414062 C 138.777344 134.316406 138.78125 134.25 138.777344 134.175781 C 138.769531 134.058594 138.761719 133.914062 138.757812 133.742188 C 138.753906 133.433594 138.753906 133.101562 138.742188 132.824219 C 138.734375 132.644531 138.726562 132.492188 138.714844 132.371094 C 138.707031 132.257812 138.699219 132.171875 138.683594 132.082031 C 138.683594 132.070312 138.59375 131.945312 138.644531 131.621094 C 138.648438 131.585938 138.652344 131.5625 138.652344 131.558594 C 138.652344 131.554688 138.671875 131.695312 138.660156 131.636719 C 138.652344 131.605469 138.761719 131.875 138.71875 131.796875 C 138.71875 131.792969 138.726562 131.8125 138.726562 131.808594 M 139.488281 135.042969 C 139.164062 135.09375 138.859375 134.871094 138.808594 134.542969 C 138.757812 134.21875 138.980469 133.914062 139.308594 133.863281 C 139.425781 133.847656 138.988281 134.015625 139.046875 133.976562 C 139.097656 133.933594 138.921875 134.101562 138.945312 134.074219 C 138.980469 134.027344 138.882812 134.171875 138.890625 134.160156 C 138.898438 134.140625 138.886719 134.164062 138.894531 134.136719 C 138.917969 134.078125 138.945312 133.980469 138.988281 133.867188 C 139.082031 133.617188 139.203125 133.371094 139.300781 133.136719 C 139.429688 132.835938 139.53125 132.550781 139.570312 132.335938 C 139.585938 132.273438 139.585938 132.191406 139.585938 132.074219 C 139.589844 131.980469 139.589844 131.890625 139.585938 131.8125 C 139.585938 131.683594 139.585938 131.570312 139.585938 131.527344 C 139.585938 131.523438 139.585938 131.519531 139.585938 131.515625 C 139.59375 131.183594 139.863281 130.921875 140.191406 130.929688 C 140.523438 130.933594 140.785156 131.207031 140.777344 131.535156 C 140.777344 131.539062 140.777344 131.527344 140.777344 131.527344 C 140.777344 131.589844 140.777344 131.6875 140.777344 131.796875 C 140.78125 131.890625 140.777344 131.984375 140.777344 132.082031 C 140.777344 132.199219 140.78125 132.367188 140.742188 132.566406 C 140.671875 132.914062 140.542969 133.257812 140.402344 133.601562 C 140.289062 133.867188 140.171875 134.113281 140.105469 134.289062 C 140.078125 134.355469 140.050781 134.4375 140.023438 134.523438 C 140.007812 134.570312 139.992188 134.613281 139.964844 134.675781 C 139.945312 134.710938 139.925781 134.75 139.878906 134.8125 C 139.828125 134.878906 139.730469 135.003906 139.488281 135.042969 M 139.589844 131.574219 C 139.5625 131.25 139.804688 130.960938 140.132812 130.929688 C 140.460938 130.902344 140.75 131.144531 140.777344 131.472656 C 140.777344 131.492188 140.777344 131.5 140.777344 131.511719 C 140.78125 131.539062 140.78125 131.574219 140.78125 131.617188 C 140.785156 131.710938 140.785156 131.839844 140.777344 131.988281 C 140.761719 132.4375 140.679688 132.925781 140.625 133.320312 C 140.609375 133.449219 140.59375 133.5625 140.582031 133.65625 C 140.574219 133.75 140.5625 133.675781 140.570312 133.734375 C 140.582031 133.808594 140.582031 133.828125 140.582031 133.839844 C 140.582031 133.847656 140.542969 133.695312 140.5625 133.746094 C 140.582031 133.804688 140.328125 133.441406 140.414062 133.519531 C 140.480469 133.582031 140.144531 133.382812 140.207031 133.402344 C 140.269531 133.417969 140.011719 133.386719 140.054688 133.382812 C 140.132812 133.378906 139.847656 133.457031 139.886719 133.433594 C 139.949219 133.398438 139.738281 133.566406 139.761719 133.539062 C 139.796875 133.5 139.722656 133.59375 139.722656 133.589844 C 139.726562 133.585938 139.738281 133.5625 139.761719 133.519531 C 139.863281 133.363281 139.972656 133.160156 140.042969 132.972656 C 140.09375 132.835938 140.140625 132.726562 140.171875 132.636719 C 140.214844 132.511719 140.246094 132.390625 140.304688 132.246094 C 140.308594 132.242188 140.25 132.277344 140.386719 132.050781 C 140.558594 131.769531 140.921875 131.675781 141.203125 131.847656 C 141.488281 132.015625 141.578125 132.382812 141.410156 132.664062 C 141.371094 132.722656 141.457031 132.558594 141.453125 132.570312 C 141.449219 132.582031 141.441406 132.621094 141.40625 132.707031 C 141.398438 132.722656 141.351562 132.871094 141.292969 133.039062 C 141.246094 133.167969 141.199219 133.28125 141.160156 133.382812 C 141.046875 133.691406 140.898438 133.949219 140.777344 134.148438 C 140.769531 134.164062 140.789062 134.285156 140.496094 134.457031 C 140.386719 134.523438 140.269531 134.566406 140.125 134.574219 C 139.976562 134.582031 139.773438 134.550781 139.601562 134.390625 C 139.410156 134.214844 139.40625 134.039062 139.398438 133.96875 C 139.390625 133.910156 139.394531 133.933594 139.394531 133.914062 C 139.367188 133.738281 139.390625 133.632812 139.398438 133.539062 C 139.410156 133.417969 139.425781 133.289062 139.445312 133.15625 C 139.503906 132.75 139.574219 132.28125 139.585938 131.941406 C 139.59375 131.820312 139.59375 131.710938 139.589844 131.636719 C 139.589844 131.605469 139.589844 131.578125 139.589844 131.566406 C 139.589844 131.566406 139.589844 131.589844 139.589844 131.574219 M 140.332031 132.535156 C 140.234375 132.21875 140.414062 131.886719 140.726562 131.792969 C 141.042969 131.695312 141.375 131.871094 141.472656 132.1875 C 141.488281 132.238281 141.492188 132.269531 141.496094 132.300781 C 141.503906 132.363281 141.503906 132.425781 141.5 132.492188 C 141.5 132.492188 141.503906 132.578125 141.5 132.683594 C 141.5 132.78125 141.503906 132.894531 141.503906 133.023438 C 141.503906 133.066406 141.503906 133.109375 141.503906 133.152344 C 141.503906 133.261719 141.496094 133.277344 141.5 133.308594 C 141.507812 133.378906 141.503906 133.429688 141.503906 133.445312 C 141.503906 133.449219 141.5 133.382812 141.503906 133.414062 C 141.503906 133.429688 141.476562 133.296875 141.488281 133.335938 C 141.496094 133.371094 141.378906 133.117188 141.417969 133.179688 C 141.59375 133.457031 141.515625 133.828125 141.234375 134.003906 C 140.957031 134.179688 140.589844 134.097656 140.414062 133.820312 C 140.132812 133.378906 140.316406 133.449219 140.3125 133.429688 C 140.300781 133.292969 140.3125 133.21875 140.3125 133.152344 C 140.3125 133.109375 140.3125 133.066406 140.3125 133.019531 C 140.3125 132.910156 140.308594 132.789062 140.3125 132.65625 C 140.3125 132.605469 140.304688 132.539062 140.3125 132.429688 C 140.3125 132.425781 140.316406 132.484375 140.3125 132.457031 C 140.3125 132.441406 140.34375 132.578125 140.332031 132.535156 M 141.363281 133.894531 C 141.144531 134.140625 140.769531 134.160156 140.523438 133.941406 C 140.277344 133.722656 140.257812 133.34375 140.476562 133.097656 C 140.480469 133.09375 140.492188 133.082031 140.5 133.070312 C 140.519531 133.042969 140.542969 133.011719 140.550781 133 C 140.621094 132.886719 140.632812 132.894531 140.660156 132.835938 C 140.675781 132.804688 140.6875 132.78125 140.6875 132.773438 C 140.6875 132.773438 140.675781 132.8125 140.679688 132.796875 C 140.6875 132.777344 140.636719 132.980469 140.648438 132.914062 C 140.699219 132.585938 141.003906 132.363281 141.328125 132.414062 C 141.652344 132.464844 141.875 132.765625 141.828125 133.09375 C 141.785156 133.351562 141.75 133.320312 141.746094 133.324219 C 141.667969 133.5 141.605469 133.5625 141.5625 133.632812 C 141.515625 133.707031 141.46875 133.765625 141.433594 133.8125 C 141.414062 133.832031 141.398438 133.851562 141.386719 133.867188 C 141.378906 133.875 141.371094 133.882812 141.363281 133.894531 M 140.875 132.53125 C 141.140625 132.335938 141.515625 132.390625 141.710938 132.65625 C 141.902344 132.921875 141.847656 133.292969 141.582031 133.488281 C 141.558594 133.507812 141.554688 133.511719 141.546875 133.515625 C 141.539062 133.519531 141.535156 133.523438 141.53125 133.527344 C 141.476562 133.578125 141.425781 133.621094 141.355469 133.664062 C 141.320312 133.6875 141.277344 133.710938 141.207031 133.734375 C 141.125 133.761719 140.964844 133.851562 140.683594 133.671875 C 140.40625 133.496094 140.324219 133.128906 140.5 132.851562 C 140.675781 132.574219 141.042969 132.488281 141.320312 132.664062 C 141.390625 132.710938 141.058594 132.574219 141.117188 132.585938 C 141.203125 132.601562 140.882812 132.585938 140.929688 132.582031 C 140.96875 132.574219 140.808594 132.609375 140.832031 132.601562 C 140.890625 132.585938 140.722656 132.65625 140.738281 132.644531 C 140.765625 132.628906 140.695312 132.679688 140.703125 132.671875 C 140.761719 132.613281 140.816406 132.574219 140.851562 132.546875 C 140.871094 132.535156 140.875 132.53125 140.875 132.53125 M 221.742188 130.828125 C 222.066406 130.894531 222.277344 131.207031 222.210938 131.53125 C 222.148438 131.851562 221.832031 132.0625 221.511719 131.996094 C 221.007812 131.894531 221.078125 131.710938 221.042969 131.664062 C 220.992188 131.601562 220.964844 131.550781 220.953125 131.523438 C 220.945312 131.511719 220.949219 131.515625 220.945312 131.511719 C 220.941406 131.503906 221.015625 131.605469 220.988281 131.570312 C 220.777344 131.320312 220.808594 130.945312 221.058594 130.730469 C 221.308594 130.519531 221.6875 130.550781 221.898438 130.800781 C 222.035156 130.964844 221.945312 130.882812 221.980469 130.929688 C 222.003906 130.960938 222.007812 130.964844 222.011719 130.972656 C 222.019531 130.976562 221.933594 130.90625 221.964844 130.929688 C 221.984375 130.941406 221.859375 130.863281 221.890625 130.882812 C 221.925781 130.898438 221.679688 130.816406 221.742188 130.828125 M 220.890625 130.960938 C 221.019531 130.65625 221.371094 130.515625 221.671875 130.644531 C 221.976562 130.773438 222.117188 131.125 221.988281 131.425781 C 221.988281 131.429688 221.992188 131.417969 221.992188 131.417969 C 221.988281 131.425781 221.992188 131.410156 221.992188 131.414062 C 221.992188 131.414062 221.996094 131.390625 221.996094 131.402344 C 221.992188 131.464844 221.988281 131.519531 221.988281 131.570312 C 221.984375 131.832031 221.984375 132.121094 221.988281 132.472656 C 221.988281 132.785156 221.988281 133.132812 221.988281 133.484375 C 221.988281 133.714844 221.988281 133.945312 221.988281 134.148438 C 221.988281 134.296875 221.988281 134.425781 221.988281 134.539062 C 221.988281 134.6875 221.988281 134.792969 222 134.863281 C 222 134.882812 222.015625 134.9375 222.039062 135.019531 C 222.058594 135.074219 222.070312 135.121094 222.074219 135.136719 C 222.074219 135.144531 222.058594 135.097656 222.066406 135.117188 C 222.070312 135.128906 222.023438 135.035156 222.039062 135.0625 C 222.054688 135.089844 221.910156 134.90625 221.953125 134.953125 C 221.992188 134.988281 221.734375 134.808594 221.800781 134.839844 C 222.09375 134.988281 222.214844 135.347656 222.066406 135.640625 C 221.921875 135.933594 221.5625 136.054688 221.269531 135.90625 C 221.199219 135.871094 221.148438 135.828125 221.109375 135.789062 C 220.78125 135.460938 220.917969 135.421875 220.898438 135.355469 C 220.878906 135.289062 220.839844 135.175781 220.816406 135.019531 C 220.792969 134.84375 220.796875 134.691406 220.796875 134.546875 C 220.796875 134.421875 220.796875 134.292969 220.796875 134.148438 C 220.796875 133.945312 220.796875 133.714844 220.796875 133.484375 C 220.796875 133.125 220.796875 132.78125 220.796875 132.484375 C 220.792969 132.128906 220.792969 131.828125 220.796875 131.550781 C 220.796875 131.464844 220.800781 131.390625 220.804688 131.339844 C 220.8125 131.226562 220.832031 131.136719 220.851562 131.066406 C 220.863281 131.035156 220.875 131.003906 220.882812 130.980469 C 220.886719 130.972656 220.890625 130.96875 220.890625 130.960938 M 221.710938 135.945312 C 221.398438 136.039062 221.066406 135.859375 220.972656 135.542969 C 220.878906 135.230469 221.058594 134.898438 221.375 134.804688 C 221.4375 134.785156 221.175781 134.902344 221.21875 134.875 C 221.253906 134.851562 221.105469 134.972656 221.128906 134.949219 C 221.179688 134.898438 221.027344 135.085938 221.042969 135.0625 C 221.054688 135.039062 221.019531 135.113281 221.023438 135.105469 C 221.039062 135.066406 221.019531 135.097656 221.039062 135.015625 C 221.117188 134.714844 221.21875 134.367188 221.269531 133.929688 C 221.3125 133.5625 221.292969 133.070312 221.308594 132.554688 C 221.320312 132.292969 221.335938 132.035156 221.378906 131.796875 C 221.410156 131.621094 221.460938 131.480469 221.507812 131.375 C 221.542969 131.292969 221.585938 131.214844 221.660156 131.132812 C 221.699219 131.089844 221.746094 131.039062 221.828125 130.992188 C 221.917969 130.941406 222.066406 130.875 222.269531 130.917969 C 222.589844 130.980469 222.800781 131.296875 222.734375 131.617188 C 222.667969 131.941406 222.355469 132.148438 222.03125 132.085938 C 221.9375 132.066406 222.351562 132.0625 222.285156 132.078125 C 222.21875 132.09375 222.46875 131.996094 222.433594 132.019531 C 222.367188 132.058594 222.574219 131.898438 222.550781 131.921875 C 222.515625 131.964844 222.601562 131.84375 222.601562 131.851562 C 222.585938 131.886719 222.5625 131.945312 222.550781 132.007812 C 222.523438 132.15625 222.507812 132.367188 222.5 132.59375 C 222.484375 133.054688 222.511719 133.566406 222.453125 134.066406 C 222.390625 134.613281 222.261719 135.042969 222.195312 135.304688 C 222.1875 135.347656 222.179688 135.421875 222.125 135.550781 C 222.105469 135.605469 222.085938 135.675781 221.972656 135.789062 C 221.921875 135.839844 221.84375 135.90625 221.710938 135.945312 M 221.644531 131.808594 C 221.476562 131.523438 221.570312 131.160156 221.855469 130.992188 C 222.136719 130.824219 222.503906 130.921875 222.671875 131.203125 C 222.671875 131.207031 222.675781 131.210938 222.675781 131.214844 C 222.722656 131.300781 222.734375 131.359375 222.746094 131.402344 C 222.761719 131.480469 222.761719 131.527344 222.757812 131.570312 C 222.757812 131.652344 222.75 131.726562 222.738281 131.800781 C 222.730469 131.847656 222.742188 131.703125 222.742188 131.714844 C 222.746094 131.734375 222.761719 131.773438 222.785156 131.917969 C 222.800781 132.03125 222.8125 132.144531 222.820312 132.269531 C 222.835938 132.421875 222.84375 132.589844 222.851562 132.777344 C 222.863281 133.085938 222.863281 133.425781 222.867188 133.714844 C 222.871094 133.863281 222.878906 133.996094 222.882812 134.121094 C 222.890625 134.222656 222.890625 134.300781 222.890625 134.304688 C 222.894531 134.339844 222.890625 134.324219 222.894531 134.34375 C 222.894531 134.351562 222.882812 134.289062 222.886719 134.308594 C 222.890625 134.328125 222.835938 134.164062 222.855469 134.210938 C 222.984375 134.511719 222.847656 134.863281 222.546875 134.992188 C 222.246094 135.125 221.894531 134.988281 221.761719 134.6875 C 221.71875 134.589844 221.71875 134.542969 221.714844 134.511719 C 221.707031 134.457031 221.707031 134.433594 221.703125 134.414062 C 221.695312 134.316406 221.699219 134.25 221.695312 134.175781 C 221.6875 134.058594 221.679688 133.914062 221.675781 133.742188 C 221.671875 133.433594 221.671875 133.101562 221.660156 132.824219 C 221.652344 132.644531 221.644531 132.492188 221.632812 132.371094 C 221.625 132.257812 221.617188 132.171875 221.601562 132.082031 C 221.601562 132.070312 221.511719 131.945312 221.5625 131.621094 C 221.566406 131.585938 221.570312 131.5625 221.570312 131.558594 C 221.570312 131.554688 221.589844 131.695312 221.578125 131.636719 C 221.570312 131.605469 221.679688 131.875 221.636719 131.796875 C 221.636719 131.792969 221.644531 131.8125 221.644531 131.808594 M 222.40625 135.042969 C 222.082031 135.09375 221.777344 134.871094 221.726562 134.542969 C 221.675781 134.21875 221.898438 133.914062 222.226562 133.863281 C 222.34375 133.847656 221.90625 134.015625 221.964844 133.976562 C 222.015625 133.933594 221.839844 134.101562 221.863281 134.074219 C 221.898438 134.027344 221.800781 134.171875 221.808594 134.160156 C 221.816406 134.140625 221.804688 134.164062 221.816406 134.136719 C 221.835938 134.078125 221.863281 133.980469 221.90625 133.867188 C 222.003906 133.617188 222.121094 133.371094 222.21875 133.136719 C 222.347656 132.835938 222.449219 132.550781 222.488281 132.335938 C 222.503906 132.273438 222.503906 132.191406 222.503906 132.074219 C 222.507812 131.980469 222.507812 131.890625 222.503906 131.8125 C 222.503906 131.683594 222.503906 131.570312 222.503906 131.527344 C 222.503906 131.523438 222.503906 131.519531 222.503906 131.515625 C 222.511719 131.183594 222.78125 130.921875 223.109375 130.929688 C 223.441406 130.933594 223.703125 131.207031 223.695312 131.535156 C 223.695312 131.539062 223.695312 131.527344 223.695312 131.527344 C 223.695312 131.589844 223.695312 131.6875 223.695312 131.796875 C 223.699219 131.890625 223.695312 131.984375 223.695312 132.082031 C 223.695312 132.199219 223.699219 132.367188 223.660156 132.566406 C 223.589844 132.914062 223.460938 133.257812 223.320312 133.601562 C 223.207031 133.867188 223.089844 134.113281 223.023438 134.289062 C 222.996094 134.355469 222.972656 134.4375 222.941406 134.523438 C 222.925781 134.570312 222.910156 134.613281 222.882812 134.675781 C 222.863281 134.710938 222.84375 134.75 222.796875 134.8125 C 222.746094 134.878906 222.648438 135.003906 222.40625 135.042969 M 222.507812 131.574219 C 222.480469 131.25 222.722656 130.960938 223.050781 130.929688 C 223.378906 130.902344 223.667969 131.144531 223.695312 131.472656 C 223.695312 131.492188 223.695312 131.5 223.699219 131.511719 C 223.699219 131.539062 223.699219 131.574219 223.699219 131.617188 C 223.703125 131.710938 223.703125 131.839844 223.695312 131.988281 C 223.679688 132.4375 223.597656 132.925781 223.542969 133.320312 C 223.527344 133.449219 223.511719 133.5625 223.5 133.65625 C 223.492188 133.75 223.480469 133.675781 223.488281 133.734375 C 223.5 133.808594 223.5 133.828125 223.5 133.839844 C 223.5 133.847656 223.460938 133.695312 223.480469 133.746094 C 223.5 133.804688 223.246094 133.441406 223.332031 133.519531 C 223.398438 133.582031 223.0625 133.382812 223.125 133.402344 C 223.1875 133.417969 222.929688 133.386719 222.972656 133.382812 C 223.050781 133.378906 222.765625 133.457031 222.804688 133.433594 C 222.867188 133.398438 222.65625 133.566406 222.679688 133.539062 C 222.714844 133.5 222.640625 133.59375 222.640625 133.589844 C 222.644531 133.585938 222.65625 133.5625 222.683594 133.519531 C 222.78125 133.363281 222.890625 133.160156 222.960938 132.972656 C 223.011719 132.835938 223.058594 132.726562 223.089844 132.636719 C 223.132812 132.511719 223.164062 132.390625 223.222656 132.246094 C 223.226562 132.242188 223.167969 132.277344 223.304688 132.050781 C 223.476562 131.769531 223.839844 131.675781 224.121094 131.847656 C 224.40625 132.015625 224.496094 132.382812 224.328125 132.664062 C 224.292969 132.722656 224.375 132.558594 224.371094 132.570312 C 224.367188 132.582031 224.359375 132.621094 224.324219 132.707031 C 224.316406 132.722656 224.269531 132.871094 224.210938 133.039062 C 224.164062 133.167969 224.117188 133.28125 224.078125 133.382812 C 223.964844 133.691406 223.816406 133.949219 223.695312 134.148438 C 223.6875 134.164062 223.707031 134.285156 223.414062 134.457031 C 223.304688 134.523438 223.1875 134.566406 223.042969 134.574219 C 222.894531 134.582031 222.691406 134.550781 222.519531 134.390625 C 222.328125 134.214844 222.324219 134.039062 222.316406 133.96875 C 222.308594 133.910156 222.316406 133.933594 222.3125 133.914062 C 222.285156 133.738281 222.308594 133.632812 222.316406 133.539062 C 222.328125 133.417969 222.34375 133.289062 222.363281 133.15625 C 222.421875 132.75 222.492188 132.28125 222.503906 131.941406 C 222.511719 131.820312 222.511719 131.710938 222.507812 131.636719 C 222.507812 131.605469 222.507812 131.578125 222.507812 131.566406 C 222.507812 131.566406 222.507812 131.589844 222.507812 131.574219 M 223.25 132.535156 C 223.152344 132.21875 223.332031 131.886719 223.644531 131.792969 C 223.960938 131.695312 224.292969 131.871094 224.390625 132.1875 C 224.40625 132.238281 224.410156 132.269531 224.414062 132.300781 C 224.421875 132.363281 224.421875 132.425781 224.417969 132.492188 C 224.417969 132.492188 224.421875 132.578125 224.421875 132.683594 C 224.417969 132.78125 224.421875 132.894531 224.421875 133.023438 C 224.421875 133.066406 224.421875 133.109375 224.421875 133.152344 C 224.421875 133.261719 224.414062 133.277344 224.417969 133.308594 C 224.425781 133.378906 224.421875 133.429688 224.421875 133.445312 C 224.421875 133.449219 224.417969 133.382812 224.421875 133.414062 C 224.421875 133.429688 224.394531 133.296875 224.40625 133.335938 C 224.414062 133.371094 224.296875 133.117188 224.335938 133.179688 C 224.511719 133.457031 224.433594 133.828125 224.152344 134.003906 C 223.875 134.179688 223.507812 134.097656 223.332031 133.820312 C 223.050781 133.378906 223.234375 133.449219 223.230469 133.429688 C 223.21875 133.292969 223.230469 133.21875 223.230469 133.152344 C 223.230469 133.109375 223.230469 133.066406 223.230469 133.019531 C 223.230469 132.910156 223.226562 132.789062 223.230469 132.65625 C 223.230469 132.605469 223.222656 132.539062 223.230469 132.429688 C 223.230469 132.425781 223.234375 132.484375 223.230469 132.457031 C 223.230469 132.441406 223.261719 132.578125 223.25 132.535156 M 224.28125 133.894531 C 224.0625 134.140625 223.6875 134.160156 223.441406 133.941406 C 223.195312 133.722656 223.175781 133.34375 223.394531 133.097656 C 223.398438 133.09375 223.410156 133.082031 223.417969 133.070312 C 223.4375 133.042969 223.460938 133.011719 223.46875 133 C 223.539062 132.886719 223.550781 132.894531 223.578125 132.835938 C 223.59375 132.804688 223.605469 132.78125 223.605469 132.773438 C 223.605469 132.773438 223.59375 132.8125 223.597656 132.796875 C 223.605469 132.777344 223.554688 132.980469 223.566406 132.914062 C 223.617188 132.585938 223.921875 132.363281 224.246094 132.414062 C 224.570312 132.464844 224.792969 132.765625 224.746094 133.09375 C 224.703125 133.351562 224.667969 133.320312 224.664062 133.324219 C 224.585938 133.5 224.523438 133.5625 224.480469 133.632812 C 224.433594 133.707031 224.386719 133.765625 224.351562 133.8125 C 224.332031 133.832031 224.316406 133.851562 224.304688 133.867188 C 224.296875 133.875 224.289062 133.882812 224.28125 133.894531 M 223.792969 132.53125 C 224.058594 132.335938 224.433594 132.390625 224.628906 132.65625 C 224.824219 132.921875 224.765625 133.292969 224.5 133.488281 C 224.476562 133.507812 224.472656 133.511719 224.464844 133.515625 C 224.457031 133.519531 224.453125 133.523438 224.449219 133.527344 C 224.394531 133.578125 224.34375 133.621094 224.273438 133.664062 C 224.238281 133.6875 224.195312 133.710938 224.125 133.734375 C 224.042969 133.761719 223.882812 133.851562 223.601562 133.671875 C 223.324219 133.496094 223.242188 133.128906 223.417969 132.851562 C 223.59375 132.574219 223.960938 132.488281 224.238281 132.664062 C 224.308594 132.710938 223.976562 132.574219 224.035156 132.585938 C 224.121094 132.601562 223.800781 132.585938 223.847656 132.582031 C 223.886719 132.574219 223.726562 132.609375 223.75 132.601562 C 223.808594 132.585938 223.640625 132.65625 223.65625 132.644531 C 223.683594 132.628906 223.613281 132.679688 223.621094 132.671875 C 223.679688 132.613281 223.734375 132.574219 223.769531 132.546875 C 223.789062 132.535156 223.792969 132.53125 223.792969 132.53125 M 300.445312 130.828125 C 300.769531 130.894531 300.976562 131.207031 300.914062 131.53125 C 300.847656 131.851562 300.535156 132.0625 300.210938 131.996094 C 299.710938 131.894531 299.78125 131.710938 299.746094 131.664062 C 299.695312 131.601562 299.667969 131.550781 299.652344 131.523438 C 299.648438 131.511719 299.652344 131.515625 299.648438 131.511719 C 299.644531 131.503906 299.71875 131.605469 299.691406 131.570312 C 299.480469 131.320312 299.511719 130.945312 299.761719 130.730469 C 300.011719 130.519531 300.386719 130.550781 300.601562 130.800781 C 300.738281 130.964844 300.648438 130.882812 300.683594 130.929688 C 300.707031 130.960938 300.710938 130.964844 300.714844 130.972656 C 300.71875 130.976562 300.636719 130.90625 300.667969 130.929688 C 300.683594 130.941406 300.5625 130.863281 300.59375 130.882812 C 300.628906 130.898438 300.382812 130.816406 300.445312 130.828125 M 299.59375 130.960938 C 299.722656 130.65625 300.074219 130.515625 300.375 130.644531 C 300.679688 130.773438 300.820312 131.125 300.691406 131.425781 C 300.6875 131.429688 300.695312 131.417969 300.691406 131.417969 C 300.691406 131.425781 300.695312 131.410156 300.695312 131.414062 C 300.695312 131.414062 300.699219 131.390625 300.699219 131.402344 C 300.695312 131.464844 300.691406 131.519531 300.691406 131.570312 C 300.6875 131.832031 300.6875 132.121094 300.691406 132.472656 C 300.691406 132.785156 300.691406 133.132812 300.691406 133.484375 C 300.691406 133.714844 300.691406 133.945312 300.691406 134.148438 C 300.691406 134.296875 300.6875 134.425781 300.691406 134.539062 C 300.691406 134.6875 300.691406 134.792969 300.703125 134.863281 C 300.703125 134.882812 300.71875 134.9375 300.742188 135.019531 C 300.761719 135.074219 300.773438 135.121094 300.777344 135.136719 C 300.777344 135.144531 300.761719 135.097656 300.769531 135.117188 C 300.773438 135.128906 300.726562 135.035156 300.742188 135.0625 C 300.757812 135.089844 300.613281 134.90625 300.65625 134.953125 C 300.691406 134.988281 300.4375 134.808594 300.503906 134.839844 C 300.796875 134.988281 300.917969 135.347656 300.769531 135.640625 C 300.621094 135.933594 300.265625 136.054688 299.972656 135.90625 C 299.902344 135.871094 299.847656 135.828125 299.808594 135.789062 C 299.484375 135.460938 299.621094 135.421875 299.601562 135.355469 C 299.582031 135.289062 299.542969 135.175781 299.519531 135.019531 C 299.496094 134.84375 299.5 134.691406 299.5 134.546875 C 299.496094 134.421875 299.5 134.292969 299.5 134.148438 C 299.5 133.945312 299.5 133.714844 299.5 133.484375 C 299.5 133.125 299.5 132.78125 299.5 132.484375 C 299.496094 132.128906 299.496094 131.828125 299.5 131.550781 C 299.5 131.464844 299.503906 131.390625 299.507812 131.339844 C 299.515625 131.226562 299.535156 131.136719 299.554688 131.066406 C 299.566406 131.035156 299.578125 131.003906 299.585938 130.980469 C 299.589844 130.972656 299.589844 130.96875 299.59375 130.960938 M 300.414062 135.945312 C 300.097656 136.039062 299.769531 135.859375 299.675781 135.542969 C 299.582031 135.230469 299.761719 134.898438 300.074219 134.804688 C 300.140625 134.785156 299.878906 134.902344 299.917969 134.875 C 299.957031 134.851562 299.808594 134.972656 299.832031 134.949219 C 299.882812 134.898438 299.730469 135.085938 299.746094 135.0625 C 299.757812 135.039062 299.722656 135.113281 299.722656 135.105469 C 299.738281 135.066406 299.722656 135.097656 299.742188 135.015625 C 299.816406 134.714844 299.921875 134.367188 299.972656 133.929688 C 300.015625 133.5625 299.996094 133.070312 300.011719 132.554688 C 300.019531 132.292969 300.039062 132.035156 300.082031 131.796875 C 300.113281 131.621094 300.164062 131.480469 300.210938 131.375 C 300.246094 131.292969 300.289062 131.214844 300.363281 131.132812 C 300.402344 131.089844 300.449219 131.039062 300.53125 130.992188 C 300.617188 130.941406 300.769531 130.875 300.972656 130.917969 C 301.292969 130.980469 301.5 131.296875 301.4375 131.617188 C 301.371094 131.941406 301.058594 132.148438 300.734375 132.085938 C 300.636719 132.066406 301.054688 132.0625 300.988281 132.078125 C 300.921875 132.09375 301.171875 131.996094 301.136719 132.019531 C 301.066406 132.058594 301.277344 131.898438 301.253906 131.921875 C 301.21875 131.964844 301.304688 131.84375 301.300781 131.851562 C 301.285156 131.886719 301.265625 131.945312 301.253906 132.007812 C 301.226562 132.15625 301.210938 132.367188 301.203125 132.59375 C 301.1875 133.054688 301.214844 133.566406 301.15625 134.066406 C 301.09375 134.613281 300.964844 135.042969 300.898438 135.304688 C 300.886719 135.347656 300.882812 135.421875 300.828125 135.550781 C 300.804688 135.605469 300.789062 135.675781 300.675781 135.789062 C 300.625 135.839844 300.546875 135.90625 300.414062 135.945312 M 300.34375 131.808594 C 300.179688 131.523438 300.273438 131.160156 300.558594 130.992188 C 300.839844 130.824219 301.207031 130.921875 301.371094 131.203125 C 301.375 131.207031 301.375 131.210938 301.378906 131.214844 C 301.425781 131.300781 301.4375 131.359375 301.449219 131.402344 C 301.464844 131.480469 301.460938 131.527344 301.460938 131.570312 C 301.460938 131.652344 301.453125 131.726562 301.441406 131.800781 C 301.433594 131.847656 301.445312 131.703125 301.445312 131.714844 C 301.445312 131.734375 301.464844 131.773438 301.484375 131.917969 C 301.5 132.03125 301.511719 132.144531 301.523438 132.269531 C 301.535156 132.421875 301.542969 132.589844 301.550781 132.777344 C 301.566406 133.085938 301.566406 133.425781 301.570312 133.714844 C 301.574219 133.863281 301.582031 133.996094 301.585938 134.121094 C 301.589844 134.222656 301.59375 134.300781 301.59375 134.304688 C 301.597656 134.339844 301.59375 134.324219 301.597656 134.34375 C 301.597656 134.351562 301.585938 134.289062 301.589844 134.308594 C 301.59375 134.328125 301.535156 134.164062 301.558594 134.210938 C 301.6875 134.511719 301.550781 134.863281 301.25 134.992188 C 300.949219 135.125 300.597656 134.988281 300.464844 134.6875 C 300.421875 134.589844 300.421875 134.542969 300.417969 134.511719 C 300.410156 134.457031 300.410156 134.433594 300.40625 134.414062 C 300.398438 134.316406 300.398438 134.25 300.398438 134.175781 C 300.390625 134.058594 300.382812 133.914062 300.378906 133.742188 C 300.375 133.433594 300.375 133.101562 300.363281 132.824219 C 300.355469 132.644531 300.347656 132.492188 300.335938 132.371094 C 300.328125 132.257812 300.320312 132.171875 300.304688 132.082031 C 300.304688 132.070312 300.214844 131.945312 300.265625 131.621094 C 300.269531 131.585938 300.269531 131.5625 300.269531 131.558594 C 300.269531 131.554688 300.292969 131.695312 300.28125 131.636719 C 300.273438 131.605469 300.382812 131.875 300.339844 131.796875 C 300.335938 131.792969 300.347656 131.8125 300.34375 131.808594 M 301.109375 135.042969 C 300.785156 135.09375 300.480469 134.871094 300.429688 134.542969 C 300.378906 134.21875 300.601562 133.914062 300.929688 133.863281 C 301.046875 133.847656 300.609375 134.015625 300.667969 133.976562 C 300.71875 133.933594 300.542969 134.101562 300.5625 134.074219 C 300.601562 134.027344 300.503906 134.171875 300.511719 134.160156 C 300.519531 134.140625 300.507812 134.164062 300.515625 134.136719 C 300.539062 134.078125 300.566406 133.980469 300.609375 133.867188 C 300.703125 133.617188 300.824219 133.371094 300.921875 133.136719 C 301.050781 132.835938 301.152344 132.550781 301.191406 132.335938 C 301.203125 132.273438 301.207031 132.191406 301.207031 132.074219 C 301.207031 131.980469 301.207031 131.890625 301.207031 131.8125 C 301.207031 131.683594 301.207031 131.570312 301.207031 131.527344 C 301.207031 131.523438 301.207031 131.519531 301.207031 131.515625 C 301.214844 131.183594 301.484375 130.921875 301.8125 130.929688 C 302.144531 130.933594 302.40625 131.207031 302.398438 131.535156 C 302.398438 131.539062 302.398438 131.527344 302.398438 131.527344 C 302.398438 131.589844 302.398438 131.6875 302.398438 131.796875 C 302.398438 131.890625 302.398438 131.984375 302.398438 132.082031 C 302.398438 132.199219 302.402344 132.367188 302.363281 132.566406 C 302.292969 132.914062 302.164062 133.257812 302.019531 133.601562 C 301.910156 133.867188 301.789062 134.113281 301.722656 134.289062 C 301.699219 134.355469 301.671875 134.4375 301.644531 134.523438 C 301.628906 134.570312 301.613281 134.613281 301.582031 134.675781 C 301.566406 134.710938 301.546875 134.75 301.5 134.8125 C 301.449219 134.878906 301.351562 135.003906 301.109375 135.042969 M 301.210938 131.574219 C 301.183594 131.25 301.425781 130.960938 301.753906 130.929688 C 302.082031 130.902344 302.367188 131.144531 302.398438 131.472656 C 302.398438 131.492188 302.398438 131.5 302.398438 131.511719 C 302.402344 131.539062 302.402344 131.574219 302.402344 131.617188 C 302.40625 131.710938 302.40625 131.839844 302.398438 131.988281 C 302.378906 132.4375 302.300781 132.925781 302.246094 133.320312 C 302.226562 133.449219 302.214844 133.5625 302.203125 133.65625 C 302.195312 133.75 302.183594 133.675781 302.191406 133.734375 C 302.203125 133.808594 302.203125 133.828125 302.203125 133.839844 C 302.203125 133.847656 302.164062 133.695312 302.183594 133.746094 C 302.203125 133.804688 301.949219 133.441406 302.035156 133.519531 C 302.101562 133.582031 301.765625 133.382812 301.828125 133.402344 C 301.890625 133.417969 301.632812 133.386719 301.675781 133.382812 C 301.75 133.378906 301.46875 133.457031 301.507812 133.433594 C 301.570312 133.398438 301.359375 133.566406 301.382812 133.539062 C 301.417969 133.5 301.34375 133.59375 301.34375 133.589844 C 301.347656 133.585938 301.359375 133.5625 301.382812 133.519531 C 301.480469 133.363281 301.59375 133.160156 301.664062 132.972656 C 301.714844 132.835938 301.761719 132.726562 301.792969 132.636719 C 301.835938 132.511719 301.867188 132.390625 301.925781 132.246094 C 301.929688 132.242188 301.871094 132.277344 302.007812 132.050781 C 302.175781 131.769531 302.542969 131.675781 302.824219 131.847656 C 303.109375 132.015625 303.199219 132.382812 303.03125 132.664062 C 302.992188 132.722656 303.078125 132.558594 303.074219 132.570312 C 303.070312 132.582031 303.0625 132.621094 303.023438 132.707031 C 303.019531 132.722656 302.972656 132.871094 302.914062 133.039062 C 302.867188 133.167969 302.820312 133.28125 302.78125 133.382812 C 302.667969 133.691406 302.519531 133.949219 302.398438 134.148438 C 302.386719 134.164062 302.410156 134.285156 302.113281 134.457031 C 302.007812 134.523438 301.890625 134.566406 301.746094 134.574219 C 301.597656 134.582031 301.394531 134.550781 301.222656 134.390625 C 301.03125 134.214844 301.027344 134.039062 301.019531 133.96875 C 301.011719 133.910156 301.015625 133.933594 301.015625 133.914062 C 300.988281 133.738281 301.007812 133.632812 301.019531 133.539062 C 301.03125 133.417969 301.046875 133.289062 301.066406 133.15625 C 301.121094 132.75 301.195312 132.28125 301.207031 131.941406 C 301.214844 131.820312 301.214844 131.710938 301.210938 131.636719 C 301.210938 131.605469 301.210938 131.578125 301.210938 131.566406 C 301.210938 131.566406 301.210938 131.589844 301.210938 131.574219 M 301.953125 132.535156 C 301.855469 132.21875 302.035156 131.886719 302.347656 131.792969 C 302.664062 131.695312 302.996094 131.871094 303.089844 132.1875 C 303.105469 132.238281 303.113281 132.269531 303.117188 132.300781 C 303.125 132.363281 303.125 132.425781 303.121094 132.492188 C 303.121094 132.492188 303.125 132.578125 303.121094 132.683594 C 303.121094 132.78125 303.121094 132.894531 303.121094 133.023438 C 303.121094 133.066406 303.121094 133.109375 303.121094 133.152344 C 303.121094 133.261719 303.117188 133.277344 303.121094 133.308594 C 303.125 133.378906 303.125 133.429688 303.125 133.445312 C 303.125 133.449219 303.121094 133.382812 303.125 133.414062 C 303.125 133.429688 303.097656 133.296875 303.109375 133.335938 C 303.117188 133.371094 303 133.117188 303.039062 133.179688 C 303.214844 133.457031 303.132812 133.828125 302.855469 134.003906 C 302.578125 134.179688 302.210938 134.097656 302.035156 133.820312 C 301.753906 133.378906 301.9375 133.449219 301.933594 133.429688 C 301.921875 133.292969 301.929688 133.21875 301.929688 133.152344 C 301.929688 133.109375 301.929688 133.066406 301.929688 133.019531 C 301.933594 132.910156 301.929688 132.789062 301.933594 132.65625 C 301.933594 132.605469 301.925781 132.539062 301.933594 132.429688 C 301.933594 132.425781 301.9375 132.484375 301.933594 132.457031 C 301.933594 132.441406 301.964844 132.578125 301.953125 132.535156 M 302.984375 133.894531 C 302.765625 134.140625 302.390625 134.160156 302.144531 133.941406 C 301.898438 133.722656 301.878906 133.34375 302.097656 133.097656 C 302.101562 133.09375 302.109375 133.082031 302.121094 133.070312 C 302.140625 133.042969 302.164062 133.011719 302.171875 133 C 302.242188 132.886719 302.253906 132.894531 302.28125 132.835938 C 302.296875 132.804688 302.308594 132.78125 302.308594 132.773438 C 302.308594 132.773438 302.292969 132.8125 302.300781 132.796875 C 302.308594 132.777344 302.257812 132.980469 302.269531 132.914062 C 302.320312 132.585938 302.621094 132.363281 302.949219 132.414062 C 303.273438 132.464844 303.496094 132.765625 303.445312 133.09375 C 303.40625 133.351562 303.367188 133.320312 303.367188 133.324219 C 303.289062 133.5 303.226562 133.5625 303.179688 133.632812 C 303.136719 133.707031 303.089844 133.765625 303.054688 133.8125 C 303.035156 133.832031 303.019531 133.851562 303.007812 133.867188 C 303 133.875 302.992188 133.882812 302.984375 133.894531 M 302.496094 132.53125 C 302.761719 132.335938 303.132812 132.390625 303.328125 132.65625 C 303.523438 132.921875 303.46875 133.292969 303.203125 133.488281 C 303.179688 133.507812 303.175781 133.511719 303.167969 133.515625 C 303.160156 133.519531 303.15625 133.523438 303.152344 133.527344 C 303.097656 133.578125 303.046875 133.621094 302.976562 133.664062 C 302.941406 133.6875 302.898438 133.710938 302.828125 133.734375 C 302.746094 133.761719 302.585938 133.851562 302.304688 133.671875 C 302.027344 133.496094 301.945312 133.128906 302.121094 132.851562 C 302.296875 132.574219 302.664062 132.488281 302.941406 132.664062 C 303.011719 132.710938 302.679688 132.574219 302.738281 132.585938 C 302.824219 132.601562 302.503906 132.585938 302.546875 132.582031 C 302.589844 132.574219 302.429688 132.609375 302.453125 132.601562 C 302.507812 132.585938 302.34375 132.65625 302.359375 132.644531 C 302.386719 132.628906 302.3125 132.679688 302.324219 132.671875 C 302.382812 132.613281 302.4375 132.574219 302.472656 132.546875 C 302.492188 132.535156 302.496094 132.53125 302.496094 132.53125 M 90.886719 87.617188 C 90.554688 87.617188 90.289062 87.347656 90.289062 87.019531 C 90.289062 86.691406 90.554688 86.425781 90.886719 86.425781 L 304.886719 86.425781 C 305.214844 86.425781 305.484375 86.691406 305.484375 87.019531 C 305.484375 87.347656 305.214844 87.617188 304.886719 87.617188 Z M 58.726562 77.550781 C 58.726562 77.878906 58.460938 78.144531 58.132812 78.144531 C 57.804688 78.144531 57.535156 77.878906 57.535156 77.550781 L 57.535156 33.878906 C 57.535156 33.550781 57.804688 33.28125 58.132812 33.28125 C 58.460938 33.28125 58.726562 33.550781 58.726562 33.878906 Z M 58.726562 77.550781 "/>
<path style=" stroke:none;fill-rule:nonzero;fill:rgb(92.941284%,21.176147%,14.117432%);fill-opacity:1;" d="M 170.089844 168.574219 C 170.027344 168.898438 169.710938 169.105469 169.390625 169.039062 C 169.066406 168.972656 168.859375 168.660156 168.925781 168.335938 L 169.339844 167.023438 L 169.453125 166.605469 L 169.449219 166.542969 C 169.445312 166.53125 169.546875 166.683594 169.507812 166.640625 C 169.472656 166.597656 169.699219 166.757812 169.648438 166.738281 L 169.75 166.757812 L 169.554688 166.855469 L 168.941406 167.292969 C 167.8125 168.199219 165.574219 170.082031 164.371094 172.003906 C 163.46875 173.445312 163.59375 174.644531 164.339844 175.632812 C 166.585938 178.59375 169.410156 178.226562 172.234375 176.378906 C 172.507812 176.199219 172.875 176.277344 173.058594 176.550781 C 173.238281 176.828125 173.160156 177.195312 172.882812 177.378906 C 171.332031 178.390625 169.6875 179.09375 168.03125 179.046875 C 166.375 179 164.722656 178.109375 163.390625 176.351562 C 162.386719 175.023438 162.25 173.140625 163.359375 171.371094 C 164.71875 169.203125 167.027344 167.300781 168.191406 166.363281 C 168.648438 166 169.03125 165.707031 169.5 165.597656 C 169.742188 165.539062 170.101562 165.558594 170.351562 165.800781 C 170.597656 166.035156 170.644531 166.335938 170.644531 166.601562 C 170.644531 166.929688 170.542969 167.164062 170.476562 167.378906 Z M 246.355469 169.214844 C 246.40625 169.539062 246.1875 169.847656 245.863281 169.898438 C 245.539062 169.953125 245.230469 169.734375 245.179688 169.410156 C 245.027344 168.503906 245.128906 167.40625 245.992188 166.867188 C 246.644531 166.460938 247.777344 166.324219 248.71875 167.039062 C 249.308594 167.492188 249.691406 168.234375 249.90625 169.117188 C 250.160156 170.175781 250.148438 171.703125 249.636719 173.265625 C 249.277344 174.359375 248.628906 175.296875 248.105469 176.050781 L 247.164062 177.253906 L 247.0625 177.382812 L 247.097656 177.320312 L 247.132812 177.21875 C 247.121094 177.265625 247.128906 176.917969 247.140625 177.007812 C 247.152344 177.097656 246.953125 176.644531 247.019531 176.730469 C 247.082031 176.808594 246.75 176.53125 246.816406 176.5625 C 246.875 176.589844 246.628906 176.507812 246.667969 176.515625 C 246.734375 176.527344 246.515625 176.507812 246.539062 176.507812 L 246.550781 176.5 L 246.761719 176.460938 C 247.722656 176.316406 248.652344 176.367188 249.425781 176.371094 C 250.160156 176.378906 250.699219 176.296875 250.839844 176.183594 C 251.097656 175.980469 251.472656 176.027344 251.675781 176.285156 C 251.878906 176.542969 251.835938 176.917969 251.578125 177.121094 C 250.972656 177.597656 250.203125 177.570312 249.417969 177.5625 C 248.617188 177.558594 247.753906 177.515625 246.9375 177.640625 L 246.773438 177.671875 L 246.570312 177.695312 L 246.289062 177.632812 C 246.160156 177.566406 246.011719 177.402344 245.972656 177.230469 C 245.851562 176.726562 246.0625 176.730469 246.105469 176.671875 L 246.238281 176.503906 L 247.125 175.371094 C 247.640625 174.632812 248.214844 173.773438 248.503906 172.894531 C 248.945312 171.558594 248.9375 170.191406 248.746094 169.398438 C 248.578125 168.699219 248.277344 168.203125 247.996094 167.988281 C 247.523438 167.628906 246.835938 167.746094 246.621094 167.878906 C 246.390625 168.023438 246.246094 168.558594 246.355469 169.214844 M 259.753906 169.671875 C 259.746094 170 259.472656 170.257812 259.144531 170.25 C 258.816406 170.242188 258.554688 169.96875 258.566406 169.636719 L 258.632812 168.476562 L 258.65625 168.53125 C 258.636719 168.496094 258.808594 168.691406 258.757812 168.652344 C 258.707031 168.613281 258.988281 168.75 258.929688 168.734375 C 258.875 168.722656 259.097656 168.742188 259.0625 168.742188 C 259.007812 168.75 259.132812 168.726562 259.121094 168.730469 C 258.917969 168.839844 258.214844 169.625 257.488281 170.730469 C 256.902344 171.621094 256.339844 172.660156 256.015625 173.59375 C 255.429688 175.296875 256.378906 175.972656 257.925781 176.257812 C 259.550781 176.558594 261.535156 176.257812 262.191406 175.921875 C 262.484375 175.769531 262.84375 175.886719 262.996094 176.179688 C 263.144531 176.472656 263.03125 176.828125 262.738281 176.980469 C 261.644531 177.542969 259.617188 177.78125 257.710938 177.429688 C 256.761719 177.253906 255.847656 176.90625 255.246094 176.195312 C 254.640625 175.480469 254.484375 174.382812 254.890625 173.203125 C 255.261719 172.136719 255.863281 171.03125 256.492188 170.074219 C 257.066406 169.207031 257.585938 168.515625 258.0625 168.058594 C 258.292969 167.839844 258.496094 167.652344 258.835938 167.574219 C 259.015625 167.535156 259.28125 167.554688 259.480469 167.703125 C 259.675781 167.851562 259.757812 168.050781 259.796875 168.21875 C 259.921875 168.78125 259.765625 169.320312 259.753906 169.671875 M 323.871094 166.039062 C 323.878906 166.367188 323.621094 166.644531 323.292969 166.652344 C 322.964844 166.664062 322.6875 166.40625 322.679688 166.078125 L 322.710938 165.386719 C 322.734375 165.183594 322.671875 165.046875 322.929688 164.734375 L 323.84375 165.496094 C 323.585938 165.808594 323.984375 165.136719 323.980469 165.164062 L 324.296875 169.617188 C 324.359375 170.59375 324.472656 171.414062 324.707031 171.820312 C 324.789062 171.964844 324.945312 172.066406 325.25 172.113281 C 326.304688 172.269531 328.214844 171.476562 329.027344 170.503906 C 329.238281 170.25 329.613281 170.214844 329.867188 170.425781 C 330.117188 170.636719 330.152344 171.011719 329.941406 171.265625 C 329.191406 172.167969 328.003906 172.820312 326.808594 173.144531 C 325.632812 173.457031 324.257812 173.445312 323.671875 172.410156 C 323.246094 171.660156 323.175781 170.714844 323.105469 169.695312 L 322.898438 166.71875 L 322.820312 165.605469 L 322.796875 165.273438 L 322.792969 165.171875 L 322.792969 165.074219 C 322.796875 165.046875 322.667969 165.046875 322.929688 164.734375 C 323.140625 164.480469 323.515625 164.449219 323.769531 164.660156 C 324.019531 164.871094 324.054688 165.246094 323.84375 165.496094 C 323.789062 165.566406 323.921875 165.363281 323.917969 165.378906 Z M 328.96875 166.78125 C 329.28125 166.671875 329.621094 166.832031 329.730469 167.140625 C 329.84375 167.453125 329.679688 167.792969 329.371094 167.902344 C 329.300781 167.929688 329.550781 167.777344 329.523438 167.804688 C 329.480469 167.851562 329.546875 167.765625 329.53125 167.824219 C 329.351562 168.441406 329.503906 170.414062 329.761719 172.292969 C 329.945312 173.65625 330.074219 174.757812 330.300781 175.472656 C 330.503906 176.109375 330.671875 176.292969 331.035156 176.316406 C 331.363281 176.335938 331.613281 176.621094 331.59375 176.949219 C 331.574219 177.277344 331.289062 177.523438 330.960938 177.503906 C 330.0625 177.445312 329.4375 176.691406 329.164062 175.832031 C 328.882812 174.9375 328.765625 173.8125 328.582031 172.453125 C 328.421875 171.28125 328.289062 170.085938 328.265625 169.078125 L 328.320312 167.785156 C 328.378906 167.425781 328.4375 166.972656 328.96875 166.78125 M 339.105469 168.644531 C 339.160156 168.96875 338.941406 169.277344 338.617188 169.332031 C 338.292969 169.386719 337.984375 169.167969 337.929688 168.84375 C 337.808594 168.121094 338.257812 167.734375 338.421875 167.433594 L 338.421875 167.445312 L 338.433594 167.546875 C 338.421875 167.511719 338.542969 167.71875 338.503906 167.675781 C 338.449219 167.609375 338.792969 167.820312 338.71875 167.804688 C 338.65625 167.789062 338.839844 167.804688 338.832031 167.804688 C 338.449219 167.917969 336.519531 169.554688 335.460938 171.234375 C 334.945312 172.054688 334.675781 172.910156 334.847656 173.558594 C 335.046875 174.324219 336.183594 174.949219 337.570312 175.269531 C 339.171875 175.644531 340.457031 175.675781 341.421875 175.558594 C 342.320312 175.445312 342.917969 175.199219 343.195312 175.03125 C 343.476562 174.859375 343.84375 174.949219 344.015625 175.230469 C 344.183594 175.511719 344.097656 175.875 343.816406 176.046875 C 343.359375 176.328125 342.617188 176.609375 341.566406 176.738281 C 340.453125 176.878906 339.027344 176.832031 337.300781 176.429688 C 335.742188 176.070312 334.089844 175.367188 333.695312 173.863281 C 333.398438 172.730469 333.839844 171.574219 334.453125 170.597656 C 335.046875 169.65625 335.828125 168.773438 336.578125 168.054688 C 337.304688 167.363281 337.886719 166.839844 338.496094 166.664062 C 338.835938 166.5625 339.335938 166.707031 339.515625 167.058594 C 339.6875 167.394531 339.613281 167.730469 339.46875 168 L 339.179688 168.515625 L 339.113281 168.675781 Z M 339.105469 168.644531 "/>
<path style=" stroke:none;fill-rule:nonzero;fill:rgb(0%,45.097351%,23.136902%);fill-opacity:1;" d="M 86.378906 111.179688 C 86.488281 111.488281 86.320312 111.828125 86.011719 111.933594 C 85.699219 112.042969 85.359375 111.878906 85.253906 111.566406 L 85.097656 111.238281 L 85.140625 111.273438 C 85.113281 111.257812 85.34375 111.363281 85.273438 111.339844 C 85.21875 111.324219 85.574219 111.347656 85.488281 111.359375 C 85.425781 111.367188 85.738281 111.269531 85.679688 111.300781 C 85.59375 111.347656 85.902344 111.082031 85.863281 111.136719 C 85.828125 111.1875 85.933594 110.988281 85.921875 111.015625 L 86.625 114.152344 L 87.027344 115.90625 L 87.230469 117.292969 L 87.289062 117.691406 L 87.300781 117.769531 C 87.300781 117.773438 87.253906 117.628906 87.28125 117.707031 L 87.257812 117.652344 C 87.269531 117.675781 87.144531 117.488281 87.1875 117.542969 C 87.230469 117.59375 86.667969 117.289062 86.871094 117.339844 C 87.066406 117.390625 86.191406 117.609375 86.300781 117.496094 C 86.472656 117.324219 86.128906 117.855469 86.140625 117.808594 C 86.152344 117.746094 86.128906 117.929688 86.128906 117.910156 L 86.128906 117.945312 C 86.066406 116.773438 85.453125 114.429688 85.277344 112.308594 C 85.113281 110.335938 85.808594 108.648438 87.042969 107.800781 C 87.601562 107.410156 88.328125 107.019531 89.101562 107.300781 C 89.734375 107.535156 90.109375 108.121094 90.480469 108.808594 C 90.863281 109.515625 91.1875 110.367188 91.410156 111.261719 C 91.796875 112.828125 91.878906 114.625 91.167969 116.113281 C 90.332031 117.867188 88.703125 118.679688 87.375 118.859375 C 86.738281 118.941406 86.171875 118.914062 85.710938 118.691406 C 85.476562 118.582031 85.210938 118.382812 85.136719 118.027344 C 85.058594 117.664062 85.25 117.335938 85.464844 117.132812 C 85.703125 116.910156 86.078125 116.921875 86.304688 117.160156 C 86.53125 117.402344 86.519531 117.777344 86.277344 118.003906 L 86.28125 117.984375 C 86.265625 118.023438 86.289062 117.714844 86.304688 117.792969 C 86.316406 117.863281 86.207031 117.605469 86.234375 117.636719 L 86.269531 117.636719 C 86.960938 117.878906 89.1875 117.5 90.09375 115.601562 C 90.625 114.480469 90.59375 112.929688 90.253906 111.546875 C 89.859375 109.953125 88.921875 108.503906 88.6875 108.421875 C 88.507812 108.351562 88.179688 108.460938 87.71875 108.78125 C 86.898438 109.34375 86.328125 110.570312 86.464844 112.210938 C 86.625 114.191406 87.242188 116.460938 87.320312 117.878906 L 87.292969 118.101562 C 87.269531 118.171875 87.238281 118.332031 86.984375 118.453125 C 86.710938 118.585938 86.410156 118.4375 86.316406 118.351562 C 86.0625 118.109375 86.160156 118.109375 86.152344 118.085938 L 86.046875 117.441406 L 85.863281 116.152344 L 85.464844 114.417969 L 84.941406 112.335938 C 84.789062 111.703125 84.609375 111.210938 84.789062 110.652344 C 84.851562 110.457031 85.175781 110.132812 85.507812 110.175781 C 85.941406 110.234375 86.015625 110.460938 86.117188 110.621094 Z M 94.441406 113.765625 C 94.761719 113.84375 94.960938 114.164062 94.882812 114.484375 C 94.808594 114.804688 94.484375 115 94.167969 114.925781 C 93.765625 114.828125 93.296875 114.886719 93.109375 115.148438 C 92.960938 115.355469 92.875 115.898438 92.953125 116.285156 C 92.980469 116.429688 93.140625 116.589844 93.535156 116.675781 C 93.957031 116.765625 94.535156 116.722656 95.074219 116.527344 C 95.476562 116.378906 95.816406 116.054688 96.042969 115.738281 L 96.195312 115.40625 L 96.234375 115.125 L 96.238281 115.144531 L 96.273438 115.246094 C 95.945312 114.683594 95.238281 114.976562 94.355469 114.875 C 94.027344 114.839844 93.792969 114.542969 93.832031 114.214844 C 93.867188 113.890625 94.164062 113.65625 94.492188 113.691406 L 95.628906 113.660156 C 96.195312 113.699219 96.90625 113.964844 97.300781 114.644531 C 97.554688 115.078125 97.386719 115.425781 97.378906 115.511719 C 97.351562 115.855469 97.203125 116.160156 97.011719 116.425781 C 96.6875 116.886719 96.1875 117.386719 95.484375 117.644531 C 94.746094 117.917969 93.96875 117.988281 93.28125 117.839844 C 92.605469 117.691406 91.925781 117.253906 91.78125 116.515625 C 91.652344 115.847656 91.695312 115.066406 92.144531 114.449219 C 92.734375 113.632812 93.757812 113.605469 94.441406 113.765625 M 176.773438 109.105469 C 176.765625 109.4375 176.492188 109.695312 176.160156 109.6875 C 175.832031 109.679688 175.574219 109.40625 175.582031 109.074219 L 175.585938 108.839844 L 175.585938 108.855469 L 175.589844 108.886719 C 175.585938 108.867188 175.644531 109.078125 175.621094 109.003906 C 175.605469 108.960938 175.871094 109.332031 175.757812 109.222656 C 175.632812 109.097656 176.691406 109.183594 176.488281 109.308594 C 176.164062 109.503906 176.761719 108.921875 176.75 108.964844 C 176.730469 109.03125 176.769531 108.867188 176.769531 108.878906 L 176.773438 109.410156 C 176.792969 109.832031 176.929688 110.363281 177.089844 110.890625 L 177.292969 111.675781 L 177.472656 112.332031 C 177.484375 112.355469 177.398438 112.238281 177.445312 112.296875 C 177.46875 112.324219 177.230469 112.132812 177.308594 112.179688 C 177.382812 112.222656 176.851562 112.113281 176.980469 112.101562 C 177.101562 112.09375 176.625 112.261719 176.691406 112.210938 C 176.75 112.167969 176.554688 112.359375 176.578125 112.328125 C 176.613281 112.277344 176.53125 112.414062 176.53125 112.410156 L 176.636719 111.421875 C 176.714844 110.1875 176.695312 108.628906 177.21875 107.28125 C 177.765625 105.863281 179.148438 105.027344 180.523438 105.128906 C 182.148438 105.246094 183.121094 106.699219 183.398438 108.0625 C 183.765625 109.871094 182.410156 111.359375 181.070312 112.367188 C 179.753906 113.359375 178.410156 114.046875 178.359375 114.125 C 178.183594 114.402344 177.8125 114.480469 177.535156 114.300781 C 177.261719 114.121094 177.179688 113.753906 177.359375 113.476562 C 177.65625 113.019531 178.058594 112.898438 178.574219 112.582031 C 180.257812 111.566406 182.5625 109.933594 182.230469 108.300781 C 182.019531 107.265625 181.394531 106.386719 180.433594 106.316406 C 179.566406 106.25 178.699219 106.75 178.328125 107.710938 C 177.921875 108.765625 177.90625 110.222656 177.828125 111.496094 L 177.703125 112.640625 L 177.625 112.882812 L 177.414062 113.160156 C 177.179688 113.339844 176.691406 113.230469 176.554688 113.085938 L 176.363281 112.761719 L 176.144531 111.984375 L 175.949219 111.230469 C 175.78125 110.679688 175.609375 110.074219 175.582031 109.460938 L 175.578125 108.804688 C 175.582031 108.773438 175.527344 108.839844 175.621094 108.59375 L 175.753906 108.382812 C 175.882812 108.25 176.332031 108.171875 176.535156 108.324219 C 176.84375 108.550781 176.753906 108.632812 176.761719 108.675781 Z M 186.109375 110.199219 C 186.285156 110.476562 186.203125 110.84375 185.925781 111.019531 C 185.644531 111.195312 185.277344 111.113281 185.101562 110.835938 L 185.035156 110.742188 L 185.089844 110.773438 C 185.050781 110.757812 185.308594 110.789062 185.25 110.792969 L 185.375 110.757812 C 185.328125 110.78125 185.433594 110.714844 185.425781 110.722656 L 185.222656 111.316406 C 185.066406 112.117188 184.976562 112.84375 185.058594 113.316406 C 185.132812 113.738281 185.234375 113.886719 185.664062 113.953125 C 185.992188 114 186.214844 114.300781 186.167969 114.628906 C 186.121094 114.953125 185.820312 115.179688 185.492188 115.128906 C 184.613281 115 184.015625 114.277344 183.886719 113.523438 C 183.753906 112.765625 183.886719 111.9375 184.054688 111.085938 C 184.140625 110.636719 184.246094 110.210938 184.59375 109.871094 C 184.78125 109.6875 185.140625 109.542969 185.460938 109.640625 C 185.773438 109.738281 185.957031 109.957031 186.109375 110.199219 M 260.464844 107.601562 C 260.5625 107.917969 260.382812 108.25 260.070312 108.34375 C 259.753906 108.441406 259.421875 108.265625 259.324219 107.949219 L 259.324219 107.933594 L 259.367188 108 C 259.339844 107.964844 259.585938 108.160156 259.511719 108.117188 C 259.4375 108.074219 259.933594 108.1875 259.816406 108.191406 C 259.703125 108.195312 260.171875 108.058594 260.101562 108.101562 C 260.039062 108.144531 260.257812 107.953125 260.230469 107.984375 C 260.183594 108.042969 260.304688 107.855469 260.296875 107.875 L 260.265625 108.433594 C 260.269531 109.164062 260.5 109.996094 260.8125 110.671875 L 261.195312 111.449219 L 261.320312 111.625 C 261.332031 111.640625 261.152344 111.546875 261.207031 111.570312 C 261.261719 111.589844 260.882812 111.539062 260.980469 111.535156 C 261.070312 111.527344 260.632812 111.671875 260.710938 111.625 C 260.777344 111.578125 260.53125 111.8125 260.5625 111.765625 C 260.613281 111.691406 260.488281 111.933594 260.496094 111.910156 L 260.46875 111.023438 C 260.429688 109.542969 260.34375 107.90625 260.472656 106.5 C 260.570312 105.390625 261.09375 104.355469 262.074219 103.851562 C 263.378906 103.179688 265.21875 103.277344 266.265625 104.441406 C 267.359375 105.65625 267.238281 107.648438 266.253906 109.335938 C 265.324219 110.921875 263.761719 112.113281 262.523438 112.710938 C 261.90625 113.007812 261.28125 113.125 260.730469 112.910156 C 260.449219 112.800781 260.175781 112.558594 260.074219 112.230469 C 259.972656 111.902344 260.042969 111.5625 260.1875 111.261719 C 260.332031 110.964844 260.6875 110.839844 260.984375 110.984375 C 261.28125 111.128906 261.402344 111.484375 261.257812 111.78125 C 261.160156 111.988281 261.136719 111.789062 261.164062 111.800781 C 261.25 111.832031 261.601562 111.832031 262.007812 111.636719 C 263.027344 111.148438 264.464844 110.03125 265.222656 108.738281 C 266.027344 107.359375 266.011719 105.9375 265.382812 105.238281 C 264.800781 104.59375 263.46875 104.472656 262.617188 104.910156 C 262.054688 105.203125 261.730469 105.78125 261.65625 106.609375 C 261.542969 107.890625 261.621094 109.5 261.660156 110.992188 C 261.671875 111.441406 261.734375 111.777344 261.660156 112.148438 C 261.640625 112.253906 261.625 112.421875 261.398438 112.59375 C 261.214844 112.734375 260.921875 112.738281 260.769531 112.675781 C 260.386719 112.523438 260.351562 112.335938 260.199219 112.105469 L 259.726562 111.167969 C 259.359375 110.367188 259.078125 109.402344 259.074219 108.441406 L 259.15625 107.535156 L 259.28125 107.269531 C 259.347656 107.171875 259.5 107.019531 259.75 107.003906 C 260.128906 106.976562 260.285156 107.222656 260.351562 107.332031 Z M 268.265625 109.542969 C 268.328125 109.867188 268.117188 110.179688 267.796875 110.242188 C 267.472656 110.308594 267.160156 110.097656 267.097656 109.777344 C 266.890625 108.746094 267.578125 107.808594 268.445312 107.679688 C 268.804688 107.621094 269.300781 107.5625 269.746094 107.898438 C 270.460938 108.433594 270.394531 109.363281 270.164062 110.21875 C 269.964844 110.96875 269.453125 111.472656 269.203125 111.863281 L 268.808594 112.46875 L 268.78125 112.503906 C 268.777344 112.558594 268.644531 112.179688 268.703125 112.25 C 268.773438 112.335938 269.5625 112.464844 270.527344 112.34375 C 271.523438 112.21875 272.542969 111.96875 273.3125 111.921875 C 273.640625 111.902344 273.925781 112.152344 273.945312 112.480469 C 273.964844 112.808594 273.714844 113.089844 273.386719 113.113281 C 272.800781 113.148438 271.746094 113.390625 270.675781 113.523438 C 269.613281 113.660156 268.472656 113.824219 267.792969 113.019531 C 267.480469 112.648438 267.621094 112.152344 267.761719 111.898438 L 268.199219 111.222656 C 268.53125 110.707031 268.917969 110.273438 269.015625 109.910156 L 269.085938 109.105469 L 269.03125 108.871094 L 269.03125 108.851562 L 268.625 108.855469 C 268.3125 108.902344 268.160156 109.011719 268.265625 109.542969 "/>
</g>
</svg>
