<?xml version="1.0" encoding="UTF-8"?>
<svg xmlns="http://www.w3.org/2000/svg" xmlns:xlink="http://www.w3.org/1999/xlink" width="284.78515pt" height="125.1593pt" viewBox="0 0 284.78515 125.1593" version="1.2">
<g id="surface1">
<path style=" stroke:none;fill-rule:nonzero;fill:rgb(7.058716%,1.176453%,46.665955%);fill-opacity:1;" d="M 32.972656 42.007812 C 32.96875 41.679688 33.230469 41.410156 33.558594 41.40625 C 33.886719 41.398438 34.15625 41.660156 34.160156 41.988281 C 34.351562 53.746094 34.351562 64.882812 34.160156 75.410156 C 34.152344 75.738281 33.882812 75.996094 33.554688 75.992188 C 33.226562 75.984375 32.96875 75.714844 32.972656 75.386719 C 33.164062 64.878906 33.164062 53.75 32.972656 42.007812 M 33.300781 42.53125 C 33.007812 42.382812 32.890625 42.027344 33.035156 41.734375 C 33.183594 41.441406 33.539062 41.320312 33.832031 41.46875 C 49.648438 49.382812 49.648438 49.382812 68.132812 58.628906 C 68.425781 58.777344 68.546875 59.132812 68.398438 59.425781 C 68.25 59.71875 67.894531 59.839844 67.601562 59.691406 C 49.117188 50.445312 49.117188 50.445312 33.300781 42.53125 M 33.824219 75.933594 C 33.527344 76.074219 33.171875 75.949219 33.03125 75.652344 C 32.890625 75.359375 33.015625 75.003906 33.3125 74.863281 C 44.746094 69.402344 56.179688 63.992188 67.617188 58.621094 C 67.914062 58.484375 68.265625 58.609375 68.40625 58.90625 C 68.542969 59.203125 68.417969 59.558594 68.121094 59.699219 C 56.6875 65.0625 45.253906 70.476562 33.824219 75.933594 M 74.8125 59.808594 C 74.484375 59.808594 74.21875 59.542969 74.21875 59.214844 C 74.21875 58.886719 74.484375 58.621094 74.8125 58.621094 L 81.757812 58.621094 C 82.085938 58.621094 82.351562 58.886719 82.351562 59.214844 C 82.351562 59.542969 82.085938 59.808594 81.757812 59.808594 Z M 22.246094 59.882812 C 21.917969 59.882812 21.652344 59.617188 21.652344 59.289062 C 21.652344 58.960938 21.917969 58.695312 22.246094 58.695312 L 33.707031 58.695312 C 34.035156 58.695312 34.300781 58.960938 34.300781 59.289062 C 34.300781 59.617188 34.035156 59.882812 33.707031 59.882812 Z M 75.40625 59.269531 C 75.40625 60.769531 74.597656 62.078125 73.390625 62.785156 C 72.789062 63.136719 72.085938 63.335938 71.339844 63.335938 C 69.839844 63.335938 68.53125 62.527344 67.824219 61.320312 C 67.472656 60.71875 67.273438 60.015625 67.273438 59.269531 C 67.273438 57.769531 68.082031 56.460938 69.289062 55.753906 C 69.890625 55.402344 70.59375 55.203125 71.339844 55.203125 C 72.839844 55.203125 74.148438 56.011719 74.855469 57.21875 C 75.207031 57.820312 75.40625 58.523438 75.40625 59.269531 M 74.21875 59.269531 C 74.21875 58.742188 74.078125 58.246094 73.828125 57.820312 C 73.328125 56.964844 72.402344 56.390625 71.339844 56.390625 C 70.8125 56.390625 70.316406 56.53125 69.890625 56.78125 C 69.035156 57.28125 68.460938 58.207031 68.460938 59.269531 C 68.460938 59.796875 68.601562 60.292969 68.851562 60.71875 C 69.351562 61.574219 70.277344 62.148438 71.339844 62.148438 C 71.867188 62.148438 72.363281 62.007812 72.789062 61.757812 C 73.644531 61.257812 74.21875 60.332031 74.21875 59.269531 M 93.671875 42.007812 C 93.667969 41.679688 93.929688 41.410156 94.257812 41.40625 C 94.582031 41.398438 94.855469 41.660156 94.859375 41.988281 C 95.050781 53.746094 95.050781 64.882812 94.859375 75.410156 C 94.851562 75.738281 94.582031 75.996094 94.253906 75.992188 C 93.925781 75.984375 93.667969 75.714844 93.671875 75.386719 C 93.863281 64.878906 93.863281 53.75 93.671875 42.007812 M 94 42.53125 C 93.707031 42.382812 93.589844 42.027344 93.734375 41.734375 C 93.882812 41.441406 94.238281 41.320312 94.53125 41.46875 C 110.347656 49.382812 110.347656 49.382812 128.832031 58.628906 C 129.125 58.777344 129.246094 59.132812 129.097656 59.425781 C 128.949219 59.71875 128.59375 59.839844 128.300781 59.691406 C 109.816406 50.445312 109.816406 50.445312 94 42.53125 M 94.519531 75.933594 C 94.226562 76.074219 93.871094 75.949219 93.730469 75.652344 C 93.589844 75.359375 93.714844 75.003906 94.011719 74.863281 C 105.445312 69.402344 116.878906 63.992188 128.3125 58.621094 C 128.609375 58.484375 128.964844 58.609375 129.105469 58.90625 C 129.242188 59.203125 129.117188 59.558594 128.820312 59.699219 C 117.386719 65.0625 105.953125 70.476562 94.519531 75.933594 M 135.511719 59.808594 C 135.183594 59.808594 134.917969 59.542969 134.917969 59.214844 C 134.917969 58.886719 135.183594 58.621094 135.511719 58.621094 L 142.457031 58.621094 C 142.785156 58.621094 143.050781 58.886719 143.050781 59.214844 C 143.050781 59.542969 142.785156 59.808594 142.457031 59.808594 Z M 82.945312 59.882812 C 82.617188 59.882812 82.351562 59.617188 82.351562 59.289062 C 82.351562 58.960938 82.617188 58.695312 82.945312 58.695312 L 94.40625 58.695312 C 94.734375 58.695312 95 58.960938 95 59.289062 C 95 59.617188 94.734375 59.882812 94.40625 59.882812 Z M 136.105469 59.269531 C 136.105469 60.769531 135.296875 62.078125 134.089844 62.785156 C 133.488281 63.136719 132.785156 63.335938 132.039062 63.335938 C 130.539062 63.335938 129.230469 62.527344 128.523438 61.320312 C 128.171875 60.71875 127.972656 60.015625 127.972656 59.269531 C 127.972656 57.769531 128.78125 56.460938 129.988281 55.753906 C 130.589844 55.402344 131.292969 55.203125 132.039062 55.203125 C 133.539062 55.203125 134.847656 56.011719 135.554688 57.21875 C 135.90625 57.820312 136.105469 58.523438 136.105469 59.269531 M 134.917969 59.269531 C 134.917969 58.742188 134.777344 58.246094 134.527344 57.820312 C 134.027344 56.964844 133.101562 56.390625 132.039062 56.390625 C 131.511719 56.390625 131.015625 56.53125 130.589844 56.78125 C 129.734375 57.28125 129.160156 58.207031 129.160156 59.269531 C 129.160156 59.796875 129.300781 60.292969 129.550781 60.71875 C 130.050781 61.574219 130.976562 62.148438 132.039062 62.148438 C 132.566406 62.148438 133.0625 62.007812 133.488281 61.757812 C 134.34375 61.257812 134.917969 60.332031 134.917969 59.269531 M 154.371094 42.007812 C 154.367188 41.679688 154.628906 41.410156 154.953125 41.40625 C 155.28125 41.398438 155.554688 41.660156 155.558594 41.988281 C 155.75 53.746094 155.75 64.882812 155.558594 75.410156 C 155.550781 75.738281 155.28125 75.996094 154.953125 75.992188 C 154.625 75.984375 154.363281 75.714844 154.371094 75.386719 C 154.5625 64.878906 154.5625 53.75 154.371094 42.007812 M 154.699219 42.53125 C 154.40625 42.382812 154.285156 42.027344 154.433594 41.734375 C 154.582031 41.441406 154.9375 41.320312 155.230469 41.46875 C 171.046875 49.382812 171.046875 49.382812 189.53125 58.628906 C 189.824219 58.777344 189.941406 59.132812 189.796875 59.425781 C 189.648438 59.71875 189.292969 59.839844 189 59.691406 C 170.515625 50.445312 170.515625 50.445312 154.699219 42.53125 M 155.21875 75.933594 C 154.925781 76.074219 154.570312 75.949219 154.429688 75.652344 C 154.289062 75.359375 154.414062 75.003906 154.707031 74.863281 C 166.144531 69.402344 177.578125 63.992188 189.011719 58.621094 C 189.308594 58.484375 189.664062 58.609375 189.804688 58.90625 C 189.941406 59.203125 189.816406 59.558594 189.519531 59.699219 C 178.085938 65.0625 166.652344 70.476562 155.21875 75.933594 M 196.210938 59.808594 C 195.882812 59.808594 195.617188 59.542969 195.617188 59.214844 C 195.617188 58.886719 195.882812 58.621094 196.210938 58.621094 L 203.15625 58.621094 C 203.484375 58.621094 203.75 58.886719 203.75 59.214844 C 203.75 59.542969 203.484375 59.808594 203.15625 59.808594 Z M 143.644531 59.882812 C 143.316406 59.882812 143.050781 59.617188 143.050781 59.289062 C 143.050781 58.960938 143.316406 58.695312 143.644531 58.695312 L 155.105469 58.695312 C 155.433594 58.695312 155.699219 58.960938 155.699219 59.289062 C 155.699219 59.617188 155.433594 59.882812 155.105469 59.882812 Z M 196.804688 59.269531 C 196.804688 60.769531 195.996094 62.078125 194.789062 62.785156 C 194.1875 63.136719 193.484375 63.335938 192.738281 63.335938 C 191.238281 63.335938 189.929688 62.527344 189.222656 61.320312 C 188.871094 60.71875 188.671875 60.015625 188.671875 59.269531 C 188.671875 57.769531 189.480469 56.460938 190.6875 55.753906 C 191.289062 55.402344 191.992188 55.203125 192.738281 55.203125 C 194.238281 55.203125 195.546875 56.011719 196.253906 57.21875 C 196.605469 57.820312 196.804688 58.523438 196.804688 59.269531 M 195.617188 59.269531 C 195.617188 58.742188 195.476562 58.246094 195.226562 57.820312 C 194.726562 56.964844 193.800781 56.390625 192.738281 56.390625 C 192.210938 56.390625 191.714844 56.53125 191.289062 56.78125 C 190.433594 57.28125 189.859375 58.207031 189.859375 59.269531 C 189.859375 59.796875 190 60.292969 190.25 60.71875 C 190.75 61.574219 191.675781 62.148438 192.738281 62.148438 C 193.265625 62.148438 193.761719 62.007812 194.1875 61.757812 C 195.042969 61.257812 195.617188 60.332031 195.617188 59.269531 M 215.070312 42.007812 C 215.066406 41.679688 215.328125 41.410156 215.652344 41.40625 C 215.980469 41.398438 216.253906 41.660156 216.257812 41.988281 C 216.449219 53.746094 216.449219 64.882812 216.257812 75.410156 C 216.25 75.738281 215.980469 75.996094 215.652344 75.992188 C 215.324219 75.984375 215.0625 75.714844 215.070312 75.386719 C 215.261719 64.878906 215.261719 53.75 215.070312 42.007812 M 215.398438 42.53125 C 215.105469 42.382812 214.984375 42.027344 215.132812 41.734375 C 215.28125 41.441406 215.636719 41.320312 215.929688 41.46875 C 231.746094 49.382812 231.746094 49.382812 250.230469 58.628906 C 250.523438 58.777344 250.640625 59.132812 250.496094 59.425781 C 250.347656 59.71875 249.992188 59.839844 249.699219 59.691406 C 231.214844 50.445312 231.214844 50.445312 215.398438 42.53125 M 215.917969 75.933594 C 215.625 76.074219 215.269531 75.949219 215.128906 75.652344 C 214.988281 75.359375 215.113281 75.003906 215.40625 74.863281 C 226.84375 69.402344 238.277344 63.992188 249.710938 58.621094 C 250.007812 58.484375 250.363281 58.609375 250.503906 58.90625 C 250.640625 59.203125 250.515625 59.558594 250.21875 59.699219 C 238.785156 65.0625 227.351562 70.476562 215.917969 75.933594 M 256.910156 59.808594 C 256.582031 59.808594 256.316406 59.542969 256.316406 59.214844 C 256.316406 58.886719 256.582031 58.621094 256.910156 58.621094 L 263.855469 58.621094 C 264.183594 58.621094 264.449219 58.886719 264.449219 59.214844 C 264.449219 59.542969 264.183594 59.808594 263.855469 59.808594 Z M 256.910156 59.808594 "/>
<path style=" stroke:none;fill-rule:nonzero;fill:rgb(92.941284%,21.176147%,14.117432%);fill-opacity:1;" d="M 165.988281 22.417969 C 165.863281 22.597656 165.617188 22.640625 165.4375 22.515625 C 165.257812 22.394531 165.210938 22.144531 165.335938 21.964844 L 165.453125 21.597656 L 165.417969 21.269531 L 165.371094 21.160156 L 165.414062 21.1875 C 165.347656 21.152344 165.6875 21.238281 165.625 21.242188 C 165.5625 21.242188 165.800781 21.195312 165.765625 21.210938 C 165.703125 21.234375 165.890625 21.125 165.871094 21.140625 L 165.910156 21.097656 L 165.367188 22.394531 L 164.878906 23.757812 C 164.601562 24.621094 164.285156 25.816406 164.09375 26.984375 C 163.914062 28.097656 163.871094 28.949219 163.925781 29.605469 C 163.976562 30.222656 164.105469 30.664062 164.269531 31.019531 C 164.480469 31.476562 164.703125 31.820312 164.921875 32.042969 L 165.242188 32.28125 C 166.378906 32.640625 169.871094 31.054688 170.0625 30.488281 C 170.128906 30.28125 170.355469 30.167969 170.5625 30.238281 C 170.769531 30.304688 170.882812 30.53125 170.8125 30.738281 C 170.675781 31.152344 170.3125 31.421875 169.882812 31.703125 C 169.207031 32.144531 168.320312 32.539062 167.421875 32.8125 C 166.535156 33.082031 165.679688 33.25 165.003906 33.035156 C 164.699219 32.9375 164.496094 32.746094 164.347656 32.59375 C 164.050781 32.28125 163.789062 31.867188 163.550781 31.347656 C 163.351562 30.917969 163.191406 30.371094 163.136719 29.667969 C 163.078125 28.933594 163.125 28.015625 163.3125 26.855469 C 163.511719 25.636719 163.835938 24.414062 164.125 23.515625 L 164.617188 22.144531 L 165.007812 21.140625 L 165.179688 20.78125 L 165.257812 20.648438 L 165.332031 20.5625 L 165.449219 20.484375 C 165.523438 20.449219 165.679688 20.425781 165.8125 20.503906 C 166.0625 20.648438 166.113281 20.839844 166.171875 21.039062 C 166.234375 21.238281 166.269531 21.464844 166.234375 21.703125 C 166.199219 21.984375 166.121094 22.222656 165.988281 22.417969 "/>
<path style=" stroke:none;fill-rule:nonzero;fill:rgb(7.058716%,1.176453%,46.665955%);fill-opacity:1;" d="M 21.652344 59.289062 C 21.652344 58.960938 21.917969 58.695312 22.246094 58.695312 C 22.574219 58.695312 22.839844 58.960938 22.839844 59.289062 L 22.839844 93.914062 C 22.839844 94.242188 22.574219 94.507812 22.246094 94.507812 C 21.917969 94.507812 21.652344 94.242188 21.652344 93.914062 Z M 22.246094 94.507812 C 21.917969 94.507812 21.652344 94.242188 21.652344 93.914062 C 21.652344 93.585938 21.917969 93.320312 22.246094 93.320312 L 203.324219 93.320312 C 203.652344 93.320312 203.917969 93.585938 203.917969 93.914062 C 203.917969 94.242188 203.652344 94.507812 203.324219 94.507812 Z M 203.917969 93.902344 C 203.925781 94.230469 203.664062 94.5 203.335938 94.507812 C 203.007812 94.515625 202.738281 94.253906 202.730469 93.925781 L 201.988281 59.230469 C 201.980469 58.902344 202.238281 58.628906 202.566406 58.621094 C 202.894531 58.617188 203.167969 58.875 203.171875 59.203125 Z M 203.917969 93.902344 "/>
<path style=" stroke:none;fill-rule:nonzero;fill:rgb(92.941284%,21.176147%,14.117432%);fill-opacity:1;" d="M 160.523438 26.730469 C 160.742188 26.714844 160.933594 26.875 160.949219 27.09375 C 160.964844 27.3125 160.804688 27.503906 160.585938 27.519531 L 160.253906 27.53125 L 160.132812 27.527344 L 160.046875 27.511719 L 159.910156 27.445312 L 159.761719 27.238281 C 159.726562 27.113281 159.769531 26.964844 159.824219 26.890625 C 159.953125 26.714844 160.203125 26.675781 160.378906 26.804688 C 160.554688 26.9375 160.59375 27.183594 160.460938 27.359375 C 160.367188 27.488281 160.207031 26.71875 160.324219 26.777344 C 160.414062 26.824219 160.167969 26.734375 160.1875 26.738281 L 163.648438 26.128906 L 165.933594 25.664062 L 166.667969 25.496094 L 166.851562 25.441406 L 166.808594 25.472656 C 166.84375 25.449219 166.640625 25.882812 166.667969 25.714844 C 166.703125 25.5 166.90625 25.351562 167.121094 25.386719 C 167.335938 25.421875 167.484375 25.628906 167.449219 25.84375 C 167.394531 26.175781 167.25 26.132812 167.207031 26.152344 C 166.9375 26.285156 166.507812 26.355469 165.847656 26.492188 L 162.246094 27.195312 L 160.773438 27.453125 L 160.332031 27.515625 L 160.183594 27.527344 L 160.066406 27.515625 L 159.855469 27.398438 C 159.734375 27.273438 159.757812 26.984375 159.824219 26.890625 L 160.460938 27.359375 C 160.4375 27.394531 160.542969 27.152344 160.53125 27.210938 C 160.515625 27.273438 160.507812 26.957031 160.523438 27.019531 C 160.539062 27.078125 160.425781 26.847656 160.453125 26.878906 C 160.5 26.941406 160.304688 26.765625 160.335938 26.78125 C 160.382812 26.804688 160.230469 26.742188 160.246094 26.746094 L 160.21875 26.738281 Z M 171.667969 30.171875 C 171.886719 30.195312 172.039062 30.394531 172.015625 30.609375 C 171.988281 30.828125 171.792969 30.980469 171.574219 30.957031 L 171.628906 30.953125 C 171.574219 30.964844 171.8125 30.820312 171.777344 30.859375 L 171.808594 30.804688 L 172.132812 32.203125 L 172.578125 33.832031 L 172.710938 34.988281 L 172.703125 35.683594 L 172.613281 35.890625 C 172.546875 35.976562 172.269531 36.078125 172.109375 35.984375 C 171.859375 35.839844 171.925781 35.765625 171.914062 35.726562 L 171.882812 34.921875 L 172.035156 33.417969 C 172.289062 31.882812 172.867188 30.109375 173.453125 28.75 C 173.863281 27.800781 174.339844 27.171875 174.957031 26.957031 C 175.5625 26.742188 176.195312 27.011719 176.703125 27.445312 C 177.238281 27.902344 177.699219 28.527344 177.929688 29.195312 C 178.203125 29.980469 177.875 30.738281 177.304688 31.144531 C 176.433594 31.765625 175.152344 31.929688 174.03125 31.972656 L 172.632812 31.945312 L 172.1875 31.871094 L 171.960938 31.753906 C 171.902344 31.707031 171.8125 31.605469 171.808594 31.449219 C 171.804688 31.289062 171.894531 31.167969 171.957031 31.113281 C 172.125 30.972656 172.375 30.992188 172.515625 31.160156 C 172.65625 31.328125 172.636719 31.578125 172.46875 31.71875 C 172.4375 31.746094 172.605469 31.480469 172.578125 31.5625 C 172.546875 31.648438 172.539062 31.214844 172.570312 31.289062 C 172.601562 31.363281 172.445312 31.128906 172.476562 31.152344 L 172.417969 31.117188 C 172.449219 31.132812 173.996094 31.28125 175.324219 31.042969 C 175.976562 30.925781 176.566406 30.726562 176.910156 30.449219 C 177.230469 30.195312 177.347656 29.925781 177.183594 29.453125 C 177.011719 28.957031 176.621094 28.414062 176.1875 28.046875 C 175.796875 27.710938 175.480469 27.609375 175.21875 27.703125 C 174.933594 27.804688 174.546875 28.214844 174.179688 29.066406 C 173.617188 30.363281 173.054688 32.105469 172.816406 33.546875 C 172.675781 34.386719 172.660156 35.082031 172.675781 35.425781 L 172.683594 35.539062 L 172.675781 35.507812 C 172.683594 35.527344 172.585938 35.355469 172.625 35.410156 C 172.644531 35.4375 172.445312 35.265625 172.511719 35.304688 C 172.648438 35.386719 171.941406 35.445312 172.027344 35.363281 C 172.089844 35.296875 171.929688 35.523438 171.9375 35.496094 L 171.921875 35.554688 L 171.921875 35.015625 L 171.804688 34.003906 L 171.375 32.433594 L 171.035156 31.117188 C 171.007812 30.929688 170.992188 30.753906 171.058594 30.554688 C 171.128906 30.34375 171.429688 30.140625 171.667969 30.171875 M 180.675781 30.558594 C 180.722656 30.773438 180.585938 30.984375 180.371094 31.027344 C 180.15625 31.074219 179.949219 30.9375 179.902344 30.722656 C 179.839844 30.425781 179.648438 30.246094 179.390625 30.234375 C 179.210938 30.222656 177.71875 31.179688 177.171875 32.105469 C 176.988281 32.414062 176.96875 32.617188 176.984375 32.667969 L 177.050781 32.714844 C 177.316406 32.816406 178.179688 32.632812 179.035156 32.042969 C 179.757812 31.542969 180.570312 30.609375 181.128906 29.546875 C 181.339844 29.148438 181.480469 28.695312 181.582031 28.183594 C 181.839844 26.855469 181.746094 25.195312 181.40625 23.890625 C 181.230469 23.222656 180.953125 22.6875 180.699219 22.355469 L 180.4375 22.09375 C 180.433594 22.09375 180.558594 22.03125 180.519531 22.101562 L 180.375 22.714844 C 180.246094 24.078125 180.957031 26.703125 181.703125 29.179688 C 182.105469 30.519531 182.535156 31.644531 182.957031 32.367188 C 183.152344 32.699219 183.34375 32.921875 183.46875 33.003906 L 183.570312 33.023438 C 183.738281 32.882812 183.988281 32.90625 184.128906 33.074219 C 184.269531 33.242188 184.246094 33.488281 184.078125 33.628906 C 183.785156 33.875 183.328125 33.859375 183.03125 33.664062 C 182.585938 33.367188 182.261719 32.816406 181.929688 32.105469 C 181.582031 31.359375 181.253906 30.441406 180.945312 29.410156 C 180.570312 28.164062 180.203125 26.867188 179.9375 25.667969 C 179.679688 24.492188 179.511719 23.449219 179.585938 22.640625 C 179.628906 22.175781 179.691406 21.742188 180.039062 21.457031 C 180.226562 21.304688 180.53125 21.269531 180.757812 21.371094 C 180.976562 21.46875 181.152344 21.644531 181.328125 21.875 C 181.65625 22.304688 181.96875 22.921875 182.171875 23.691406 C 182.542969 25.117188 182.648438 26.855469 182.359375 28.335938 C 182.246094 28.898438 182.085938 29.429688 181.828125 29.917969 C 181.214844 31.085938 180.347656 32.097656 179.488281 32.691406 C 178.613281 33.296875 177.738281 33.625 177.03125 33.523438 C 176.683594 33.472656 176.320312 33.246094 176.21875 32.875 C 176.121094 32.507812 176.246094 32.113281 176.492188 31.699219 C 176.835938 31.121094 177.371094 30.59375 177.914062 30.171875 C 178.445312 29.757812 178.910156 29.414062 179.433594 29.441406 C 180.058594 29.476562 180.550781 29.96875 180.675781 30.558594 "/>
<path style=" stroke:none;fill-rule:nonzero;fill:rgb(7.058716%,1.176453%,46.665955%);fill-opacity:1;" d="M 204.34375 59.882812 C 204.015625 59.882812 203.75 59.617188 203.75 59.289062 C 203.75 58.960938 204.015625 58.695312 204.34375 58.695312 L 215.804688 58.695312 C 216.132812 58.695312 216.398438 58.960938 216.398438 59.289062 C 216.398438 59.617188 216.132812 59.882812 215.804688 59.882812 Z M 257.503906 59.269531 C 257.503906 60.769531 256.695312 62.078125 255.488281 62.785156 C 254.886719 63.136719 254.183594 63.335938 253.4375 63.335938 C 251.9375 63.335938 250.628906 62.527344 249.921875 61.320312 C 249.570312 60.71875 249.371094 60.015625 249.371094 59.269531 C 249.371094 57.769531 250.179688 56.460938 251.386719 55.753906 C 251.988281 55.402344 252.691406 55.203125 253.4375 55.203125 C 254.9375 55.203125 256.246094 56.011719 256.953125 57.21875 C 257.304688 57.820312 257.503906 58.523438 257.503906 59.269531 M 256.316406 59.269531 C 256.316406 58.742188 256.175781 58.246094 255.925781 57.820312 C 255.425781 56.964844 254.5 56.390625 253.4375 56.390625 C 252.910156 56.390625 252.414062 56.53125 251.988281 56.78125 C 251.132812 57.28125 250.558594 58.207031 250.558594 59.269531 C 250.558594 59.796875 250.699219 60.292969 250.949219 60.71875 C 251.449219 61.574219 252.375 62.148438 253.4375 62.148438 C 253.964844 62.148438 254.460938 62.007812 254.886719 61.757812 C 255.742188 61.257812 256.316406 60.332031 256.316406 59.269531 "/>
</g>
</svg>
