<?xml version="1.0" encoding="UTF-8"?>
<svg xmlns="http://www.w3.org/2000/svg" xmlns:xlink="http://www.w3.org/1999/xlink" width="317.10808pt" height="167.9388pt" viewBox="0 0 317.10808 167.9388" version="1.2">
<g id="surface1">
<path style=" stroke:none;fill-rule:nonzero;fill:rgb(7.058716%,1.176453%,46.665955%);fill-opacity:1;" d="M 34.46875 49.445312 C 34.464844 49.117188 34.726562 48.847656 35.054688 48.839844 C 35.386719 48.835938 35.65625 49.097656 35.660156 49.429688 C 35.851562 61.230469 35.851562 72.414062 35.660156 82.976562 C 35.65625 83.308594 35.382812 83.570312 35.054688 83.5625 C 34.726562 83.558594 34.464844 83.285156 34.46875 82.957031 C 34.660156 72.40625 34.660156 61.234375 34.46875 49.445312 M 34.796875 49.96875 C 34.503906 49.824219 34.386719 49.464844 34.53125 49.171875 C 34.679688 48.875 35.039062 48.757812 35.332031 48.90625 C 51.210938 56.847656 51.210938 56.847656 69.765625 66.132812 C 70.0625 66.28125 70.179688 66.636719 70.03125 66.933594 C 69.886719 67.226562 69.527344 67.347656 69.234375 67.199219 C 50.679688 57.914062 50.679688 57.914062 34.796875 49.96875 M 35.320312 83.503906 C 35.023438 83.648438 34.667969 83.519531 34.527344 83.222656 C 34.386719 82.925781 34.511719 82.570312 34.808594 82.429688 C 46.289062 76.949219 57.765625 71.515625 69.246094 66.125 C 69.542969 65.988281 69.898438 66.113281 70.039062 66.414062 C 70.179688 66.710938 70.050781 67.066406 69.753906 67.207031 C 58.277344 72.59375 46.800781 78.027344 35.320312 83.503906 M 76.472656 67.316406 C 76.144531 67.316406 75.878906 67.050781 75.878906 66.722656 C 75.878906 66.394531 76.144531 66.125 76.472656 66.125 L 83.445312 66.125 C 83.773438 66.125 84.039062 66.394531 84.039062 66.722656 C 84.039062 67.050781 83.773438 67.316406 83.445312 67.316406 Z M 23.699219 67.390625 C 23.371094 67.390625 23.105469 67.121094 23.105469 66.792969 C 23.105469 66.464844 23.371094 66.199219 23.699219 66.199219 L 35.207031 66.199219 C 35.539062 66.199219 35.804688 66.464844 35.804688 66.792969 C 35.804688 67.121094 35.539062 67.390625 35.207031 67.390625 Z M 77.070312 66.777344 C 77.070312 68.28125 76.253906 69.59375 75.042969 70.304688 C 74.4375 70.65625 73.734375 70.859375 72.984375 70.859375 C 71.480469 70.859375 70.164062 70.046875 69.457031 68.832031 C 69.105469 68.230469 68.902344 67.527344 68.902344 66.777344 C 68.902344 65.269531 69.714844 63.957031 70.929688 63.246094 C 71.53125 62.894531 72.234375 62.691406 72.984375 62.691406 C 74.492188 62.691406 75.804688 63.507812 76.515625 64.71875 C 76.867188 65.320312 77.070312 66.023438 77.070312 66.777344 M 75.878906 66.777344 C 75.878906 66.246094 75.734375 65.746094 75.484375 65.320312 C 74.984375 64.460938 74.050781 63.882812 72.984375 63.882812 C 72.453125 63.882812 71.957031 64.027344 71.53125 64.277344 C 70.671875 64.777344 70.09375 65.710938 70.09375 66.777344 C 70.09375 67.304688 70.238281 67.804688 70.488281 68.230469 C 70.988281 69.089844 71.917969 69.667969 72.984375 69.667969 C 73.515625 69.667969 74.015625 69.523438 74.441406 69.273438 C 75.300781 68.773438 75.878906 67.839844 75.878906 66.777344 M 117.441406 49.445312 C 117.4375 49.117188 117.699219 48.847656 118.027344 48.839844 C 118.355469 48.835938 118.628906 49.097656 118.632812 49.429688 C 118.824219 61.230469 118.824219 72.414062 118.632812 82.976562 C 118.628906 83.308594 118.355469 83.570312 118.027344 83.5625 C 117.699219 83.558594 117.433594 83.285156 117.441406 82.957031 C 117.632812 72.40625 117.632812 61.234375 117.441406 49.445312 M 117.769531 49.96875 C 117.476562 49.824219 117.355469 49.464844 117.503906 49.171875 C 117.652344 48.875 118.007812 48.757812 118.304688 48.90625 C 134.183594 56.847656 134.183594 56.847656 152.738281 66.132812 C 153.03125 66.28125 153.152344 66.636719 153.003906 66.933594 C 152.859375 67.226562 152.5 67.347656 152.207031 67.199219 C 133.648438 57.914062 133.648438 57.914062 117.769531 49.96875 M 118.292969 83.503906 C 117.996094 83.648438 117.640625 83.519531 117.5 83.222656 C 117.359375 82.925781 117.484375 82.570312 117.78125 82.429688 C 129.261719 76.949219 140.738281 71.515625 152.21875 66.125 C 152.515625 65.988281 152.871094 66.113281 153.011719 66.414062 C 153.152344 66.710938 153.023438 67.066406 152.726562 67.207031 C 141.25 72.59375 129.769531 78.027344 118.292969 83.503906 M 159.445312 67.316406 C 159.117188 67.316406 158.847656 67.050781 158.847656 66.722656 C 158.847656 66.394531 159.117188 66.125 159.445312 66.125 L 166.417969 66.125 C 166.746094 66.125 167.011719 66.394531 167.011719 66.722656 C 167.011719 67.050781 166.746094 67.316406 166.417969 67.316406 Z M 106.671875 67.390625 C 106.34375 67.390625 106.078125 67.121094 106.078125 66.792969 C 106.078125 66.464844 106.34375 66.199219 106.671875 66.199219 L 118.179688 66.199219 C 118.507812 66.199219 118.777344 66.464844 118.777344 66.792969 C 118.777344 67.121094 118.507812 67.390625 118.179688 67.390625 Z M 160.042969 66.777344 C 160.042969 68.28125 159.226562 69.59375 158.015625 70.304688 C 157.410156 70.65625 156.707031 70.859375 155.957031 70.859375 C 154.453125 70.859375 153.136719 70.046875 152.429688 68.832031 C 152.078125 68.230469 151.875 67.527344 151.875 66.777344 C 151.875 65.269531 152.6875 63.957031 153.902344 63.246094 C 154.503906 62.894531 155.207031 62.691406 155.957031 62.691406 C 157.460938 62.691406 158.777344 63.507812 159.484375 64.71875 C 159.839844 65.320312 160.042969 66.023438 160.042969 66.777344 M 158.847656 66.777344 C 158.847656 66.246094 158.707031 65.746094 158.457031 65.320312 C 157.957031 64.460938 157.023438 63.882812 155.957031 63.882812 C 155.425781 63.882812 154.929688 64.027344 154.5 64.277344 C 153.644531 64.777344 153.066406 65.710938 153.066406 66.777344 C 153.066406 67.304688 153.210938 67.804688 153.457031 68.230469 C 153.960938 69.089844 154.890625 69.667969 155.957031 69.667969 C 156.488281 69.667969 156.988281 69.523438 157.414062 69.273438 C 158.273438 68.773438 158.847656 67.839844 158.847656 66.777344 M 196.53125 49.445312 C 196.523438 49.117188 196.789062 48.847656 197.117188 48.839844 C 197.445312 48.835938 197.71875 49.097656 197.722656 49.429688 C 197.914062 61.230469 197.914062 72.414062 197.722656 82.976562 C 197.714844 83.308594 197.445312 83.570312 197.117188 83.5625 C 196.785156 83.558594 196.523438 83.285156 196.53125 82.957031 C 196.722656 72.40625 196.722656 61.234375 196.53125 49.445312 M 196.859375 49.96875 C 196.566406 49.824219 196.445312 49.464844 196.59375 49.171875 C 196.742188 48.875 197.097656 48.757812 197.394531 48.90625 C 213.273438 56.847656 213.273438 56.847656 231.828125 66.132812 C 232.121094 66.28125 232.242188 66.636719 232.09375 66.933594 C 231.945312 67.226562 231.589844 67.347656 231.292969 67.199219 C 212.738281 57.914062 212.738281 57.914062 196.859375 49.96875 M 197.382812 83.503906 C 197.085938 83.648438 196.730469 83.519531 196.589844 83.222656 C 196.445312 82.925781 196.574219 82.570312 196.871094 82.429688 C 208.347656 76.949219 219.828125 71.515625 231.308594 66.125 C 231.605469 65.988281 231.960938 66.113281 232.101562 66.414062 C 232.242188 66.710938 232.113281 67.066406 231.8125 67.207031 C 220.335938 72.59375 208.859375 78.027344 197.382812 83.503906 M 238.535156 67.316406 C 238.207031 67.316406 237.9375 67.050781 237.9375 66.722656 C 237.9375 66.394531 238.207031 66.125 238.535156 66.125 L 245.503906 66.125 C 245.835938 66.125 246.101562 66.394531 246.101562 66.722656 C 246.101562 67.050781 245.835938 67.316406 245.503906 67.316406 Z M 185.761719 67.390625 C 185.433594 67.390625 185.167969 67.121094 185.167969 66.792969 C 185.167969 66.464844 185.433594 66.199219 185.761719 66.199219 L 197.269531 66.199219 C 197.597656 66.199219 197.867188 66.464844 197.867188 66.792969 C 197.867188 67.121094 197.597656 67.390625 197.269531 67.390625 Z M 239.128906 66.777344 C 239.128906 68.28125 238.316406 69.59375 237.105469 70.304688 C 236.5 70.65625 235.796875 70.859375 235.046875 70.859375 C 233.542969 70.859375 232.226562 70.046875 231.519531 68.832031 C 231.164062 68.230469 230.964844 67.527344 230.964844 66.777344 C 230.964844 65.269531 231.777344 63.957031 232.988281 63.246094 C 233.59375 62.894531 234.296875 62.691406 235.046875 62.691406 C 236.550781 62.691406 237.867188 63.507812 238.574219 64.71875 C 238.929688 65.320312 239.128906 66.023438 239.128906 66.777344 M 237.9375 66.777344 C 237.9375 66.246094 237.796875 65.746094 237.546875 65.320312 C 237.042969 64.460938 236.113281 63.882812 235.046875 63.882812 C 234.515625 63.882812 234.019531 64.027344 233.589844 64.277344 C 232.730469 64.777344 232.15625 65.710938 232.15625 66.777344 C 232.15625 67.304688 232.296875 67.804688 232.546875 68.230469 C 233.050781 69.089844 233.980469 69.667969 235.046875 69.667969 C 235.578125 69.667969 236.074219 69.523438 236.503906 69.273438 C 237.363281 68.773438 237.9375 67.839844 237.9375 66.777344 M 83.445312 66.3125 C 83.445312 65.984375 83.710938 65.71875 84.039062 65.71875 C 84.371094 65.71875 84.636719 65.984375 84.636719 66.3125 L 84.636719 95.824219 C 84.636719 96.152344 84.371094 96.421875 84.039062 96.421875 C 83.710938 96.421875 83.445312 96.152344 83.445312 95.824219 Z M 83.445312 103.046875 C 83.445312 102.71875 83.710938 102.453125 84.039062 102.453125 C 84.371094 102.453125 84.636719 102.71875 84.636719 103.046875 L 84.636719 134.472656 C 84.636719 134.800781 84.371094 135.070312 84.039062 135.070312 C 83.710938 135.070312 83.445312 134.800781 83.445312 134.472656 Z M 70.457031 96.421875 C 70.128906 96.421875 69.859375 96.152344 69.859375 95.824219 C 69.859375 95.496094 70.128906 95.226562 70.457031 95.226562 L 97.632812 95.226562 C 97.960938 95.226562 98.226562 95.496094 98.226562 95.824219 C 98.226562 96.152344 97.960938 96.421875 97.632812 96.421875 Z M 70.453125 103.644531 C 70.125 103.644531 69.855469 103.378906 69.855469 103.046875 C 69.855469 102.71875 70.125 102.453125 70.453125 102.453125 L 97.628906 102.453125 C 97.957031 102.453125 98.222656 102.71875 98.222656 103.046875 C 98.222656 103.378906 97.957031 103.644531 97.628906 103.644531 Z M 166.417969 66.96875 C 166.417969 66.640625 166.683594 66.375 167.011719 66.375 C 167.339844 66.375 167.609375 66.640625 167.609375 66.96875 L 167.609375 96.480469 C 167.609375 96.808594 167.339844 97.074219 167.011719 97.074219 C 166.683594 97.074219 166.417969 96.808594 166.417969 96.480469 Z M 166.417969 103.703125 C 166.417969 103.375 166.683594 103.109375 167.011719 103.109375 C 167.339844 103.109375 167.609375 103.375 167.609375 103.703125 L 167.609375 135.128906 C 167.609375 135.457031 167.339844 135.726562 167.011719 135.726562 C 166.683594 135.726562 166.417969 135.457031 166.417969 135.128906 Z M 153.429688 97.074219 C 153.097656 97.074219 152.832031 96.808594 152.832031 96.480469 C 152.832031 96.152344 153.097656 95.882812 153.429688 95.882812 L 180.605469 95.882812 C 180.933594 95.882812 181.199219 96.152344 181.199219 96.480469 C 181.199219 96.808594 180.933594 97.074219 180.605469 97.074219 Z M 153.425781 104.300781 C 153.09375 104.300781 152.828125 104.035156 152.828125 103.703125 C 152.828125 103.375 153.09375 103.109375 153.425781 103.109375 L 180.601562 103.109375 C 180.929688 103.109375 181.195312 103.375 181.195312 103.703125 C 181.195312 104.035156 180.929688 104.300781 180.601562 104.300781 Z M 245.171875 66.96875 C 245.171875 66.640625 245.4375 66.371094 245.765625 66.371094 C 246.09375 66.371094 246.363281 66.640625 246.363281 66.96875 L 246.363281 96.476562 C 246.363281 96.808594 246.09375 97.074219 245.765625 97.074219 C 245.4375 97.074219 245.171875 96.808594 245.171875 96.476562 Z M 245.171875 103.703125 C 245.171875 103.375 245.4375 103.105469 245.765625 103.105469 C 246.09375 103.105469 246.363281 103.375 246.363281 103.703125 L 246.363281 135.128906 C 246.363281 135.457031 246.09375 135.722656 245.765625 135.722656 C 245.4375 135.722656 245.171875 135.457031 245.171875 135.128906 Z M 232.183594 97.074219 C 231.851562 97.074219 231.585938 96.808594 231.585938 96.476562 C 231.585938 96.148438 231.851562 95.882812 232.183594 95.882812 L 259.359375 95.882812 C 259.6875 95.882812 259.953125 96.148438 259.953125 96.476562 C 259.953125 96.808594 259.6875 97.074219 259.359375 97.074219 Z M 232.179688 104.296875 C 231.847656 104.296875 231.582031 104.03125 231.582031 103.703125 C 231.582031 103.375 231.847656 103.105469 232.179688 103.105469 L 259.355469 103.105469 C 259.683594 103.105469 259.949219 103.375 259.949219 103.703125 C 259.949219 104.03125 259.683594 104.296875 259.355469 104.296875 Z M 257.464844 49.445312 C 257.460938 49.117188 257.722656 48.847656 258.050781 48.839844 C 258.382812 48.835938 258.652344 49.097656 258.65625 49.429688 C 258.847656 61.230469 258.847656 72.414062 258.65625 82.976562 C 258.652344 83.308594 258.378906 83.570312 258.050781 83.5625 C 257.722656 83.558594 257.460938 83.285156 257.464844 82.957031 C 257.65625 72.40625 257.65625 61.234375 257.464844 49.445312 M 257.796875 49.96875 C 257.5 49.824219 257.382812 49.464844 257.527344 49.171875 C 257.675781 48.875 258.035156 48.757812 258.328125 48.90625 C 274.207031 56.847656 274.207031 56.847656 292.761719 66.132812 C 293.058594 66.28125 293.175781 66.636719 293.03125 66.933594 C 292.882812 67.226562 292.523438 67.347656 292.230469 67.199219 C 273.675781 57.914062 273.675781 57.914062 257.796875 49.96875 M 258.320312 83.503906 C 258.023438 83.648438 257.664062 83.519531 257.523438 83.222656 C 257.382812 82.925781 257.507812 82.570312 257.804688 82.429688 C 269.285156 76.949219 280.765625 71.515625 292.242188 66.125 C 292.542969 65.988281 292.894531 66.113281 293.035156 66.414062 C 293.175781 66.710938 293.046875 67.066406 292.75 67.207031 C 281.273438 72.59375 269.796875 78.027344 258.320312 83.503906 M 299.46875 67.316406 C 299.140625 67.316406 298.875 67.050781 298.875 66.722656 C 298.875 66.394531 299.140625 66.125 299.46875 66.125 L 306.441406 66.125 C 306.769531 66.125 307.035156 66.394531 307.035156 66.722656 C 307.035156 67.050781 306.769531 67.316406 306.441406 67.316406 Z M 246.699219 67.390625 C 246.367188 67.390625 246.101562 67.121094 246.101562 66.792969 C 246.101562 66.464844 246.367188 66.199219 246.699219 66.199219 L 258.203125 66.199219 C 258.535156 66.199219 258.800781 66.464844 258.800781 66.792969 C 258.800781 67.121094 258.535156 67.390625 258.203125 67.390625 Z M 300.066406 66.777344 C 300.066406 68.28125 299.253906 69.59375 298.039062 70.304688 C 297.4375 70.65625 296.734375 70.859375 295.980469 70.859375 C 294.476562 70.859375 293.164062 70.046875 292.453125 68.832031 C 292.101562 68.230469 291.898438 67.527344 291.898438 66.777344 C 291.898438 65.269531 292.710938 63.957031 293.925781 63.246094 C 294.527344 62.894531 295.230469 62.691406 295.980469 62.691406 C 297.488281 62.691406 298.800781 63.507812 299.511719 64.71875 C 299.863281 65.320312 300.066406 66.023438 300.066406 66.777344 M 298.875 66.777344 C 298.875 66.246094 298.730469 65.746094 298.480469 65.320312 C 297.980469 64.460938 297.046875 63.882812 295.980469 63.882812 C 295.453125 63.882812 294.953125 64.027344 294.527344 64.277344 C 293.667969 64.777344 293.089844 65.710938 293.089844 66.777344 C 293.089844 67.304688 293.234375 67.804688 293.484375 68.230469 C 293.984375 69.089844 294.917969 69.667969 295.980469 69.667969 C 296.511719 69.667969 297.011719 69.523438 297.4375 69.273438 C 298.296875 68.773438 298.875 67.839844 298.875 66.777344 M 83.445312 132.667969 C 83.445312 132.335938 83.714844 132.070312 84.042969 132.070312 C 84.371094 132.070312 84.636719 132.335938 84.636719 132.667969 L 84.636719 143.605469 C 84.636719 143.933594 84.371094 144.199219 84.042969 144.199219 C 83.714844 144.199219 83.445312 143.933594 83.445312 143.605469 Z M 75.539062 144.9375 C 75.207031 144.9375 74.941406 144.667969 74.941406 144.339844 C 74.941406 144.011719 75.207031 143.742188 75.539062 143.742188 L 92.546875 143.742188 C 92.875 143.742188 93.144531 144.011719 93.144531 144.339844 C 93.144531 144.667969 92.875 144.9375 92.546875 144.9375 Z M 78.476562 148.835938 C 78.148438 148.835938 77.878906 148.570312 77.878906 148.242188 C 77.878906 147.910156 78.148438 147.644531 78.476562 147.644531 L 89.898438 147.644531 C 90.226562 147.644531 90.496094 147.910156 90.496094 148.242188 C 90.496094 148.570312 90.226562 148.835938 89.898438 148.835938 Z M 81.746094 152.496094 C 81.417969 152.496094 81.152344 152.230469 81.152344 151.898438 C 81.152344 151.570312 81.417969 151.304688 81.746094 151.304688 L 86.625 151.304688 C 86.957031 151.304688 87.222656 151.570312 87.222656 151.898438 C 87.222656 152.230469 86.957031 152.496094 86.625 152.496094 Z M 166.417969 132.667969 C 166.417969 132.335938 166.683594 132.070312 167.015625 132.070312 C 167.34375 132.070312 167.609375 132.335938 167.609375 132.667969 L 167.609375 143.605469 C 167.609375 143.933594 167.34375 144.199219 167.015625 144.199219 C 166.683594 144.199219 166.417969 143.933594 166.417969 143.605469 Z M 158.507812 144.9375 C 158.179688 144.9375 157.914062 144.667969 157.914062 144.339844 C 157.914062 144.011719 158.179688 143.742188 158.507812 143.742188 L 175.519531 143.742188 C 175.847656 143.742188 176.117188 144.011719 176.117188 144.339844 C 176.117188 144.667969 175.847656 144.9375 175.519531 144.9375 Z M 161.449219 148.835938 C 161.117188 148.835938 160.851562 148.570312 160.851562 148.242188 C 160.851562 147.910156 161.117188 147.644531 161.449219 147.644531 L 172.871094 147.644531 C 173.199219 147.644531 173.464844 147.910156 173.464844 148.242188 C 173.464844 148.570312 173.199219 148.835938 172.871094 148.835938 Z M 164.71875 152.496094 C 164.390625 152.496094 164.125 152.230469 164.125 151.898438 C 164.125 151.570312 164.390625 151.304688 164.71875 151.304688 L 169.597656 151.304688 C 169.929688 151.304688 170.195312 151.570312 170.195312 151.898438 C 170.195312 152.230469 169.929688 152.496094 169.597656 152.496094 Z M 245.171875 132.667969 C 245.171875 132.335938 245.4375 132.070312 245.769531 132.070312 C 246.097656 132.070312 246.363281 132.335938 246.363281 132.667969 L 246.363281 143.605469 C 246.363281 143.933594 246.097656 144.199219 245.769531 144.199219 C 245.4375 144.199219 245.171875 143.933594 245.171875 143.605469 Z M 237.261719 144.9375 C 236.933594 144.9375 236.667969 144.667969 236.667969 144.339844 C 236.667969 144.011719 236.933594 143.742188 237.261719 143.742188 L 254.273438 143.742188 C 254.601562 143.742188 254.867188 144.011719 254.867188 144.339844 C 254.867188 144.667969 254.601562 144.9375 254.273438 144.9375 Z M 240.203125 148.835938 C 239.871094 148.835938 239.605469 148.570312 239.605469 148.242188 C 239.605469 147.910156 239.871094 147.644531 240.203125 147.644531 L 251.625 147.644531 C 251.953125 147.644531 252.21875 147.910156 252.21875 148.242188 C 252.21875 148.570312 251.953125 148.835938 251.625 148.835938 Z M 243.472656 152.496094 C 243.144531 152.496094 242.878906 152.230469 242.878906 151.898438 C 242.878906 151.570312 243.144531 151.304688 243.472656 151.304688 L 248.351562 151.304688 C 248.679688 151.304688 248.949219 151.570312 248.949219 151.898438 C 248.949219 152.230469 248.679688 152.496094 248.351562 152.496094 Z M 243.472656 152.496094 "/>
<path style=" stroke:none;fill-rule:nonzero;fill:rgb(7.058716%,1.176453%,46.665955%);fill-opacity:1;" d="M 82.480469 67.316406 C 82.152344 67.316406 81.886719 67.050781 81.886719 66.722656 C 81.886719 66.394531 82.152344 66.125 82.480469 66.125 L 106.671875 66.125 C 107.003906 66.125 107.269531 66.394531 107.269531 66.722656 C 107.269531 67.050781 107.003906 67.316406 106.671875 67.316406 Z M 165.894531 67.316406 C 165.566406 67.316406 165.296875 67.050781 165.296875 66.722656 C 165.296875 66.394531 165.566406 66.125 165.894531 66.125 L 187.488281 66.125 C 187.816406 66.125 188.085938 66.394531 188.085938 66.722656 C 188.085938 67.050781 187.816406 67.316406 187.488281 67.316406 Z M 246.363281 67.605469 C 246.363281 67.9375 246.09375 68.203125 245.765625 68.203125 C 245.4375 68.203125 245.171875 67.9375 245.171875 67.605469 L 245.171875 26.40625 C 245.171875 26.074219 245.4375 25.808594 245.765625 25.808594 C 246.09375 25.808594 246.363281 26.074219 246.363281 26.40625 Z M 245.777344 25.808594 C 246.105469 25.816406 246.367188 26.085938 246.363281 26.414062 C 246.355469 26.746094 246.085938 27.007812 245.753906 27 L 23.9375 23.007812 C 23.605469 23.003906 23.34375 22.730469 23.351562 22.402344 C 23.355469 22.074219 23.628906 21.808594 23.957031 21.816406 Z M 23.351562 22.414062 C 23.351562 22.082031 23.617188 21.816406 23.945312 21.816406 C 24.277344 21.816406 24.542969 22.082031 24.542969 22.414062 L 24.542969 66.792969 C 24.542969 67.121094 24.277344 67.390625 23.945312 67.390625 C 23.617188 67.390625 23.351562 67.121094 23.351562 66.792969 Z M 23.351562 22.414062 "/>
<path style=" stroke:none;fill-rule:nonzero;fill:rgb(92.941284%,21.176147%,14.117432%);fill-opacity:1;" d="M 115.820312 93.292969 C 115.601562 93.308594 115.410156 93.144531 115.394531 92.925781 C 115.378906 92.707031 115.542969 92.515625 115.761719 92.5 L 115.96875 92.476562 L 115.957031 92.480469 L 115.914062 92.507812 L 115.828125 92.589844 C 115.863281 92.542969 115.75 92.855469 115.757812 92.777344 C 115.765625 92.699219 115.828125 93.042969 115.796875 92.988281 C 115.773438 92.9375 115.902344 93.113281 115.878906 93.089844 C 115.835938 93.054688 115.972656 93.152344 115.957031 93.144531 C 115.953125 93.140625 115.117188 93.0625 114.207031 93.285156 C 113.539062 93.445312 112.292969 94.148438 111.011719 95.109375 C 109.707031 96.089844 108.433594 97.289062 107.671875 98.472656 C 106.878906 99.703125 106.9375 100.585938 107.46875 101.21875 C 108.328125 102.25 110.507812 102.800781 112.800781 102.925781 C 115.105469 103.054688 117.398438 102.792969 118.589844 102.285156 C 118.792969 102.199219 119.027344 102.292969 119.113281 102.496094 C 119.199219 102.699219 119.101562 102.929688 118.902344 103.015625 C 117.980469 103.40625 116.636719 103.632812 115.125 103.71875 C 112.800781 103.851562 110.230469 103.65625 108.367188 102.804688 C 107.464844 102.398438 106.71875 101.800781 106.417969 100.972656 C 106.113281 100.140625 106.316406 99.113281 107.003906 98.042969 C 107.84375 96.734375 109.179688 95.496094 110.535156 94.476562 C 111.863281 93.476562 113.121094 92.726562 114.023438 92.511719 C 114.808594 92.320312 115.488281 92.292969 115.925781 92.339844 L 116.207031 92.390625 C 116.273438 92.410156 116.371094 92.40625 116.488281 92.597656 C 116.59375 92.765625 116.484375 93.066406 116.386719 93.144531 C 116.160156 93.320312 116.039062 93.277344 115.820312 93.292969 M 198.082031 95.496094 C 198.257812 95.628906 198.296875 95.875 198.164062 96.054688 C 198.035156 96.230469 197.789062 96.269531 197.609375 96.136719 C 197.171875 95.816406 196.699219 95.457031 195.933594 95.351562 C 195.023438 95.222656 193.488281 95.714844 192.328125 97.160156 C 191.683594 97.964844 191.183594 98.933594 191.035156 99.847656 C 190.9375 100.417969 190.902344 100.910156 191.058594 101.304688 C 191.472656 102.371094 192.984375 103 194.886719 103.277344 C 196.855469 103.566406 199.105469 103.523438 201.039062 103.492188 C 201.257812 103.488281 201.4375 103.664062 201.441406 103.882812 C 201.445312 104.101562 201.269531 104.285156 201.050781 104.285156 C 199.113281 104.316406 196.832031 104.367188 194.773438 104.066406 C 192.761719 103.769531 190.910156 103.113281 190.316406 101.597656 C 190.074219 100.976562 190.148438 100.328125 190.25 99.714844 C 190.429688 98.625 190.996094 97.554688 191.707031 96.664062 C 193.027344 95.019531 194.789062 94.390625 196.042969 94.5625 C 197.011719 94.699219 197.644531 95.175781 198.082031 95.496094 M 268.851562 96.054688 C 268.644531 96.117188 268.421875 96 268.355469 95.792969 C 268.289062 95.582031 268.40625 95.359375 268.617188 95.292969 C 269.042969 95.164062 269.582031 94.945312 270.03125 94.632812 L 270.695312 94.023438 L 270.761719 93.886719 L 270.792969 93.949219 C 270.714844 93.894531 270.085938 93.835938 269.304688 94.007812 C 268.480469 94.1875 267.523438 94.53125 266.632812 95.019531 C 265.492188 95.640625 264.46875 96.46875 263.859375 97.335938 C 263.175781 98.308594 263.273438 99.039062 263.808594 99.65625 C 264.6875 100.664062 266.703125 101.34375 268.597656 101.707031 C 269.527344 101.882812 270.398438 101.980469 271.070312 102.007812 L 271.828125 101.996094 L 271.984375 101.96875 L 271.957031 101.980469 L 271.90625 102.027344 L 271.84375 102.128906 C 271.925781 101.925781 272.152344 101.824219 272.359375 101.902344 C 272.5625 101.980469 272.664062 102.210938 272.585938 102.417969 C 272.472656 102.710938 272.273438 102.71875 272.132812 102.75 C 271.601562 102.871094 270.726562 102.820312 269.628906 102.675781 C 267.898438 102.449219 265.84375 101.980469 264.320312 101.070312 C 263.582031 100.628906 262.964844 100.066406 262.707031 99.335938 C 262.449219 98.605469 262.613281 97.726562 263.207031 96.878906 C 263.917969 95.871094 265.023438 94.992188 266.253906 94.320312 C 267.507812 93.636719 268.847656 93.210938 269.902344 93.105469 C 270.402344 93.054688 270.835938 93.054688 271.191406 93.261719 C 271.371094 93.371094 271.53125 93.578125 271.554688 93.816406 C 271.574219 94.050781 271.488281 94.261719 271.359375 94.457031 C 271.15625 94.773438 270.835938 95.039062 270.484375 95.28125 C 269.9375 95.664062 269.332031 95.90625 268.851562 96.054688 "/>
</g>
</svg>
