<?xml version="1.0" encoding="UTF-8"?>
<svg xmlns="http://www.w3.org/2000/svg" xmlns:xlink="http://www.w3.org/1999/xlink" width="352.317pt" height="160.65889pt" viewBox="0 0 352.317 160.65889" version="1.2">
<g id="surface1">
<path style=" stroke:none;fill-rule:nonzero;fill:rgb(7.058716%,1.176453%,46.665955%);fill-opacity:1;" d="M 21.882812 55.570312 C 21.554688 55.570312 21.289062 55.300781 21.289062 54.972656 C 21.289062 54.644531 21.554688 54.375 21.882812 54.375 L 51.027344 54.375 C 51.355469 54.375 51.625 54.644531 51.625 54.972656 C 51.625 55.300781 51.355469 55.570312 51.027344 55.570312 Z M 21.882812 100.792969 C 21.554688 100.792969 21.289062 100.527344 21.289062 100.195312 C 21.289062 99.867188 21.554688 99.601562 21.882812 99.601562 L 51.027344 99.601562 C 51.355469 99.601562 51.625 99.867188 51.625 100.195312 C 51.625 100.527344 51.355469 100.792969 51.027344 100.792969 Z M 88.171875 55.570312 C 87.84375 55.570312 87.578125 55.300781 87.578125 54.972656 C 87.578125 54.644531 87.84375 54.375 88.171875 54.375 L 117.316406 54.375 C 117.648438 54.375 117.914062 54.644531 117.914062 54.972656 C 117.914062 55.300781 117.648438 55.570312 117.316406 55.570312 Z M 88.171875 100.792969 C 87.84375 100.792969 87.578125 100.527344 87.578125 100.195312 C 87.578125 99.867188 87.84375 99.601562 88.171875 99.601562 L 117.316406 99.601562 C 117.648438 99.601562 117.914062 99.867188 117.914062 100.195312 C 117.914062 100.527344 117.648438 100.792969 117.316406 100.792969 Z M 51.316406 42.253906 C 50.988281 42.253906 50.71875 41.988281 50.71875 41.65625 C 50.71875 41.328125 50.988281 41.0625 51.316406 41.0625 L 76.601562 41.0625 C 76.929688 41.0625 77.195312 41.328125 77.195312 41.65625 C 77.195312 41.988281 76.929688 42.253906 76.601562 42.253906 Z M 76.179688 42.078125 C 75.945312 41.847656 75.945312 41.46875 76.179688 41.238281 C 76.410156 41.003906 76.789062 41.003906 77.023438 41.238281 L 87.226562 51.441406 C 87.460938 51.675781 87.460938 52.050781 87.226562 52.285156 C 86.996094 52.515625 86.617188 52.515625 86.382812 52.285156 Z M 86.210938 51.863281 C 86.210938 51.535156 86.476562 51.265625 86.804688 51.265625 C 87.136719 51.265625 87.402344 51.535156 87.402344 51.863281 L 87.402344 103.574219 C 87.402344 103.902344 87.136719 104.167969 86.804688 104.167969 C 86.476562 104.167969 86.210938 103.902344 86.210938 103.574219 Z M 86.382812 103.152344 C 86.617188 102.917969 86.996094 102.917969 87.226562 103.152344 C 87.460938 103.382812 87.460938 103.761719 87.226562 103.996094 L 78.152344 113.070312 C 77.917969 113.304688 77.539062 113.304688 77.308594 113.070312 C 77.074219 112.839844 77.074219 112.460938 77.308594 112.226562 Z M 77.730469 112.054688 C 78.058594 112.054688 78.324219 112.320312 78.324219 112.648438 C 78.324219 112.980469 78.058594 113.246094 77.730469 113.246094 L 51.4375 113.246094 C 51.109375 113.246094 50.84375 112.980469 50.84375 112.648438 C 50.84375 112.320312 51.109375 112.054688 51.4375 112.054688 Z M 52.035156 112.648438 C 52.035156 112.980469 51.769531 113.246094 51.4375 113.246094 C 51.109375 113.246094 50.84375 112.980469 50.84375 112.648438 L 50.84375 41.65625 C 50.84375 41.328125 51.109375 41.0625 51.4375 41.0625 C 51.769531 41.0625 52.035156 41.328125 52.035156 41.65625 Z M 141.871094 55.570312 C 141.542969 55.570312 141.277344 55.300781 141.277344 54.972656 C 141.277344 54.644531 141.542969 54.375 141.871094 54.375 L 171.015625 54.375 C 171.34375 54.375 171.613281 54.644531 171.613281 54.972656 C 171.613281 55.300781 171.34375 55.570312 171.015625 55.570312 Z M 141.871094 100.792969 C 141.542969 100.792969 141.277344 100.527344 141.277344 100.195312 C 141.277344 99.867188 141.542969 99.601562 141.871094 99.601562 L 171.015625 99.601562 C 171.34375 99.601562 171.613281 99.867188 171.613281 100.195312 C 171.613281 100.527344 171.34375 100.792969 171.015625 100.792969 Z M 208.160156 55.570312 C 207.832031 55.570312 207.566406 55.300781 207.566406 54.972656 C 207.566406 54.644531 207.832031 54.375 208.160156 54.375 L 237.304688 54.375 C 237.636719 54.375 237.902344 54.644531 237.902344 54.972656 C 237.902344 55.300781 237.636719 55.570312 237.304688 55.570312 Z M 208.160156 100.792969 C 207.832031 100.792969 207.566406 100.527344 207.566406 100.195312 C 207.566406 99.867188 207.832031 99.601562 208.160156 99.601562 L 237.304688 99.601562 C 237.636719 99.601562 237.902344 99.867188 237.902344 100.195312 C 237.902344 100.527344 237.636719 100.792969 237.304688 100.792969 Z M 171.304688 42.253906 C 170.976562 42.253906 170.707031 41.988281 170.707031 41.65625 C 170.707031 41.328125 170.976562 41.0625 171.304688 41.0625 L 196.589844 41.0625 C 196.917969 41.0625 197.1875 41.328125 197.1875 41.65625 C 197.1875 41.988281 196.917969 42.253906 196.589844 42.253906 Z M 196.167969 42.078125 C 195.933594 41.847656 195.933594 41.46875 196.167969 41.238281 C 196.402344 41.003906 196.777344 41.003906 197.011719 41.238281 L 207.214844 51.441406 C 207.449219 51.675781 207.449219 52.050781 207.214844 52.285156 C 206.984375 52.515625 206.605469 52.515625 206.371094 52.285156 Z M 206.199219 51.863281 C 206.199219 51.535156 206.464844 51.265625 206.792969 51.265625 C 207.125 51.265625 207.390625 51.535156 207.390625 51.863281 L 207.390625 103.574219 C 207.390625 103.902344 207.125 104.167969 206.792969 104.167969 C 206.464844 104.167969 206.199219 103.902344 206.199219 103.574219 Z M 206.371094 103.152344 C 206.605469 102.917969 206.984375 102.917969 207.214844 103.152344 C 207.449219 103.382812 207.449219 103.761719 207.214844 103.996094 L 198.140625 113.070312 C 197.90625 113.304688 197.527344 113.304688 197.296875 113.070312 C 197.0625 112.839844 197.0625 112.460938 197.296875 112.226562 Z M 197.71875 112.054688 C 198.046875 112.054688 198.3125 112.320312 198.3125 112.648438 C 198.3125 112.980469 198.046875 113.246094 197.71875 113.246094 L 171.425781 113.246094 C 171.097656 113.246094 170.832031 112.980469 170.832031 112.648438 C 170.832031 112.320312 171.097656 112.054688 171.425781 112.054688 Z M 172.023438 112.648438 C 172.023438 112.980469 171.757812 113.246094 171.425781 113.246094 C 171.097656 113.246094 170.832031 112.980469 170.832031 112.648438 L 170.832031 41.65625 C 170.832031 41.328125 171.097656 41.0625 171.425781 41.0625 C 171.757812 41.0625 172.023438 41.328125 172.023438 41.65625 Z M 22.910156 54.972656 C 22.910156 55.300781 22.640625 55.570312 22.3125 55.570312 C 21.984375 55.570312 21.714844 55.300781 21.714844 54.972656 L 21.714844 30.636719 C 21.714844 30.308594 21.984375 30.039062 22.3125 30.039062 C 22.640625 30.039062 22.910156 30.308594 22.910156 30.636719 Z M 22.3125 31.234375 C 21.984375 31.234375 21.714844 30.964844 21.714844 30.636719 C 21.714844 30.308594 21.984375 30.039062 22.3125 30.039062 L 237.304688 30.039062 C 237.636719 30.039062 237.902344 30.308594 237.902344 30.636719 C 237.902344 30.964844 237.636719 31.234375 237.304688 31.234375 Z M 237.902344 54.972656 C 237.902344 55.300781 237.636719 55.570312 237.304688 55.570312 C 236.976562 55.570312 236.710938 55.300781 236.710938 54.972656 L 236.710938 30.644531 C 236.710938 30.316406 236.976562 30.050781 237.304688 30.050781 C 237.636719 30.050781 237.902344 30.316406 237.902344 30.644531 Z M 21.289062 133.363281 C 20.957031 133.363281 20.691406 133.09375 20.691406 132.765625 C 20.691406 132.4375 20.957031 132.167969 21.289062 132.167969 L 236.28125 132.167969 C 236.609375 132.167969 236.875 132.4375 236.875 132.765625 C 236.875 133.09375 236.609375 133.363281 236.28125 133.363281 Z M 20.691406 100.195312 C 20.691406 99.867188 20.957031 99.601562 21.289062 99.601562 C 21.617188 99.601562 21.882812 99.867188 21.882812 100.195312 L 21.882812 132.765625 C 21.882812 133.09375 21.617188 133.363281 21.289062 133.363281 C 20.957031 133.363281 20.691406 133.09375 20.691406 132.765625 Z M 236.710938 100.195312 C 236.710938 99.867188 236.976562 99.601562 237.304688 99.601562 C 237.636719 99.601562 237.902344 99.867188 237.902344 100.195312 L 237.902344 132.589844 C 237.902344 132.917969 237.636719 133.183594 237.304688 133.183594 C 236.976562 133.183594 236.710938 132.917969 236.710938 132.589844 Z M 236.710938 100.195312 "/>
<path style=" stroke:none;fill-rule:nonzero;fill:rgb(7.058716%,1.176453%,46.665955%);fill-opacity:1;" d="M 58.410156 49.351562 C 58.410156 49.023438 58.675781 48.753906 59.003906 48.753906 C 59.335938 48.753906 59.601562 49.023438 59.601562 49.351562 L 59.601562 59.234375 C 59.601562 59.5625 59.335938 59.828125 59.003906 59.828125 C 58.675781 59.828125 58.410156 59.5625 58.410156 59.234375 Z M 54.023438 54.886719 C 53.695312 54.886719 53.425781 54.621094 53.425781 54.292969 C 53.425781 53.960938 53.695312 53.695312 54.023438 53.695312 L 63.988281 53.695312 C 64.316406 53.695312 64.582031 53.960938 64.582031 54.292969 C 64.582031 54.621094 64.316406 54.886719 63.988281 54.886719 Z M 78.121094 49.949219 C 78.121094 49.617188 78.386719 49.351562 78.714844 49.351562 C 79.046875 49.351562 79.3125 49.617188 79.3125 49.949219 L 79.3125 59.828125 C 79.3125 60.160156 79.046875 60.425781 78.714844 60.425781 C 78.386719 60.425781 78.121094 60.160156 78.121094 59.828125 Z M 73.734375 55.484375 C 73.40625 55.484375 73.136719 55.21875 73.136719 54.886719 C 73.136719 54.558594 73.40625 54.292969 73.734375 54.292969 L 83.699219 54.292969 C 84.027344 54.292969 84.292969 54.558594 84.292969 54.886719 C 84.292969 55.21875 84.027344 55.484375 83.699219 55.484375 Z M 54.621094 100.792969 C 54.289062 100.792969 54.023438 100.527344 54.023438 100.195312 C 54.023438 99.867188 54.289062 99.601562 54.621094 99.601562 L 64.582031 99.601562 C 64.914062 99.601562 65.179688 99.867188 65.179688 100.195312 C 65.179688 100.527344 64.914062 100.792969 64.582031 100.792969 Z M 73.734375 100.792969 C 73.40625 100.792969 73.136719 100.527344 73.136719 100.195312 C 73.136719 99.867188 73.40625 99.601562 73.734375 99.601562 L 83.699219 99.601562 C 84.027344 99.601562 84.292969 99.867188 84.292969 100.195312 C 84.292969 100.527344 84.027344 100.792969 83.699219 100.792969 Z M 178.398438 49.351562 C 178.398438 49.023438 178.664062 48.753906 178.992188 48.753906 C 179.324219 48.753906 179.589844 49.023438 179.589844 49.351562 L 179.589844 59.234375 C 179.589844 59.5625 179.324219 59.828125 178.992188 59.828125 C 178.664062 59.828125 178.398438 59.5625 178.398438 59.234375 Z M 174.011719 54.886719 C 173.683594 54.886719 173.414062 54.621094 173.414062 54.292969 C 173.414062 53.960938 173.683594 53.695312 174.011719 53.695312 L 183.976562 53.695312 C 184.304688 53.695312 184.574219 53.960938 184.574219 54.292969 C 184.574219 54.621094 184.304688 54.886719 183.976562 54.886719 Z M 198.109375 49.949219 C 198.109375 49.617188 198.375 49.351562 198.703125 49.351562 C 199.035156 49.351562 199.300781 49.617188 199.300781 49.949219 L 199.300781 59.828125 C 199.300781 60.160156 199.035156 60.425781 198.703125 60.425781 C 198.375 60.425781 198.109375 60.160156 198.109375 59.828125 Z M 193.722656 55.484375 C 193.394531 55.484375 193.125 55.21875 193.125 54.886719 C 193.125 54.558594 193.394531 54.292969 193.722656 54.292969 L 203.6875 54.292969 C 204.015625 54.292969 204.28125 54.558594 204.28125 54.886719 C 204.28125 55.21875 204.015625 55.484375 203.6875 55.484375 Z M 174.609375 100.792969 C 174.277344 100.792969 174.011719 100.527344 174.011719 100.195312 C 174.011719 99.867188 174.277344 99.601562 174.609375 99.601562 L 184.574219 99.601562 C 184.902344 99.601562 185.167969 99.867188 185.167969 100.195312 C 185.167969 100.527344 184.902344 100.792969 184.574219 100.792969 Z M 193.722656 100.792969 C 193.394531 100.792969 193.125 100.527344 193.125 100.195312 C 193.125 99.867188 193.394531 99.601562 193.722656 99.601562 L 203.6875 99.601562 C 204.015625 99.601562 204.28125 99.867188 204.28125 100.195312 C 204.28125 100.527344 204.015625 100.792969 203.6875 100.792969 Z M 193.722656 100.792969 "/>
<path style=" stroke:none;fill-rule:nonzero;fill:rgb(7.058716%,1.176453%,46.665955%);fill-opacity:1;" d="M 141.707031 54.683594 C 141.863281 54.394531 142.226562 54.292969 142.515625 54.449219 C 142.804688 54.609375 142.910156 54.972656 142.75 55.261719 L 117.839844 100.484375 C 117.679688 100.773438 117.316406 100.878906 117.03125 100.71875 C 116.742188 100.5625 116.636719 100.199219 116.792969 99.910156 Z M 116.644531 55.257812 C 116.484375 54.96875 116.59375 54.605469 116.882812 54.449219 C 117.171875 54.292969 117.53125 54.398438 117.691406 54.6875 L 142.394531 99.910156 C 142.554688 100.199219 142.445312 100.5625 142.15625 100.71875 C 141.867188 100.878906 141.507812 100.773438 141.347656 100.484375 Z M 236.875 55.570312 C 236.546875 55.570312 236.28125 55.300781 236.28125 54.972656 C 236.28125 54.644531 236.546875 54.375 236.875 54.375 L 266.019531 54.375 C 266.347656 54.375 266.617188 54.644531 266.617188 54.972656 C 266.617188 55.300781 266.347656 55.570312 266.019531 55.570312 Z M 236.875 100.792969 C 236.546875 100.792969 236.28125 100.527344 236.28125 100.195312 C 236.28125 99.867188 236.546875 99.601562 236.875 99.601562 L 266.019531 99.601562 C 266.347656 99.601562 266.617188 99.867188 266.617188 100.195312 C 266.617188 100.527344 266.347656 100.792969 266.019531 100.792969 Z M 303.167969 55.570312 C 302.835938 55.570312 302.570312 55.300781 302.570312 54.972656 C 302.570312 54.644531 302.835938 54.375 303.167969 54.375 L 332.308594 54.375 C 332.640625 54.375 332.90625 54.644531 332.90625 54.972656 C 332.90625 55.300781 332.640625 55.570312 332.308594 55.570312 Z M 303.167969 100.792969 C 302.835938 100.792969 302.570312 100.527344 302.570312 100.195312 C 302.570312 99.867188 302.835938 99.601562 303.167969 99.601562 L 332.308594 99.601562 C 332.640625 99.601562 332.90625 99.867188 332.90625 100.195312 C 332.90625 100.527344 332.640625 100.792969 332.308594 100.792969 Z M 266.308594 42.253906 C 265.980469 42.253906 265.714844 41.988281 265.714844 41.65625 C 265.714844 41.328125 265.980469 41.0625 266.308594 41.0625 L 291.59375 41.0625 C 291.921875 41.0625 292.191406 41.328125 292.191406 41.65625 C 292.191406 41.988281 291.921875 42.253906 291.59375 42.253906 Z M 291.171875 42.078125 C 290.9375 41.847656 290.9375 41.46875 291.171875 41.238281 C 291.40625 41.003906 291.78125 41.003906 292.015625 41.238281 L 302.21875 51.441406 C 302.453125 51.675781 302.453125 52.050781 302.21875 52.285156 C 301.988281 52.515625 301.609375 52.515625 301.375 52.285156 Z M 301.203125 51.863281 C 301.203125 51.535156 301.46875 51.265625 301.796875 51.265625 C 302.128906 51.265625 302.394531 51.535156 302.394531 51.863281 L 302.394531 103.574219 C 302.394531 103.902344 302.128906 104.167969 301.796875 104.167969 C 301.46875 104.167969 301.203125 103.902344 301.203125 103.574219 Z M 301.375 103.152344 C 301.609375 102.917969 301.988281 102.917969 302.21875 103.152344 C 302.453125 103.382812 302.453125 103.761719 302.21875 103.996094 L 293.144531 113.070312 C 292.910156 113.304688 292.53125 113.304688 292.300781 113.070312 C 292.066406 112.839844 292.066406 112.460938 292.300781 112.226562 Z M 292.722656 112.054688 C 293.050781 112.054688 293.316406 112.320312 293.316406 112.648438 C 293.316406 112.980469 293.050781 113.246094 292.722656 113.246094 L 266.433594 113.246094 C 266.101562 113.246094 265.835938 112.980469 265.835938 112.648438 C 265.835938 112.320312 266.101562 112.054688 266.433594 112.054688 Z M 267.027344 112.648438 C 267.027344 112.980469 266.761719 113.246094 266.433594 113.246094 C 266.101562 113.246094 265.835938 112.980469 265.835938 112.648438 L 265.835938 41.65625 C 265.835938 41.328125 266.101562 41.0625 266.433594 41.0625 C 266.761719 41.0625 267.027344 41.328125 267.027344 41.65625 Z M 267.027344 112.648438 "/>
<path style=" stroke:none;fill-rule:nonzero;fill:rgb(7.058716%,1.176453%,46.665955%);fill-opacity:1;" d="M 273.402344 49.351562 C 273.402344 49.023438 273.667969 48.753906 274 48.753906 C 274.328125 48.753906 274.59375 49.023438 274.59375 49.351562 L 274.59375 59.234375 C 274.59375 59.5625 274.328125 59.828125 274 59.828125 C 273.667969 59.828125 273.402344 59.5625 273.402344 59.234375 Z M 269.015625 54.886719 C 268.6875 54.886719 268.417969 54.621094 268.417969 54.292969 C 268.417969 53.960938 268.6875 53.695312 269.015625 53.695312 L 278.980469 53.695312 C 279.308594 53.695312 279.578125 53.960938 279.578125 54.292969 C 279.578125 54.621094 279.308594 54.886719 278.980469 54.886719 Z M 293.113281 49.949219 C 293.113281 49.617188 293.378906 49.351562 293.707031 49.351562 C 294.039062 49.351562 294.304688 49.617188 294.304688 49.949219 L 294.304688 59.828125 C 294.304688 60.160156 294.039062 60.425781 293.707031 60.425781 C 293.378906 60.425781 293.113281 60.160156 293.113281 59.828125 Z M 288.726562 55.484375 C 288.398438 55.484375 288.128906 55.21875 288.128906 54.886719 C 288.128906 54.558594 288.398438 54.292969 288.726562 54.292969 L 298.691406 54.292969 C 299.019531 54.292969 299.289062 54.558594 299.289062 54.886719 C 299.289062 55.21875 299.019531 55.484375 298.691406 55.484375 Z M 269.613281 100.792969 C 269.28125 100.792969 269.015625 100.527344 269.015625 100.195312 C 269.015625 99.867188 269.28125 99.601562 269.613281 99.601562 L 279.578125 99.601562 C 279.90625 99.601562 280.171875 99.867188 280.171875 100.195312 C 280.171875 100.527344 279.90625 100.792969 279.578125 100.792969 Z M 288.726562 100.792969 C 288.398438 100.792969 288.128906 100.527344 288.128906 100.195312 C 288.128906 99.867188 288.398438 99.601562 288.726562 99.601562 L 298.691406 99.601562 C 299.019531 99.601562 299.289062 99.867188 299.289062 100.195312 C 299.289062 100.527344 299.019531 100.792969 298.691406 100.792969 Z M 288.726562 100.792969 "/>
</g>
</svg>
