<?xml version="1.0" encoding="UTF-8"?>
<svg xmlns="http://www.w3.org/2000/svg" xmlns:xlink="http://www.w3.org/1999/xlink" width="299.1384pt" height="259.2711pt" viewBox="0 0 299.1384 259.2711" version="1.2">
<g id="surface1">
<path style=" stroke:none;fill-rule:nonzero;fill:rgb(7.058716%,1.176453%,46.665955%);fill-opacity:1;" d="M 233.332031 27.464844 C 233.332031 27.136719 233.597656 26.871094 233.929688 26.871094 C 234.257812 26.871094 234.523438 27.136719 234.523438 27.464844 L 234.523438 56.972656 C 234.523438 57.304688 234.257812 57.570312 233.929688 57.570312 C 233.597656 57.570312 233.332031 57.304688 233.332031 56.972656 Z M 233.332031 27.464844 "/>
<path style=" stroke:none;fill-rule:nonzero;fill:rgb(7.058716%,1.176453%,46.665955%);fill-opacity:1;" d="M 233.332031 64.199219 C 233.332031 63.867188 233.597656 63.601562 233.929688 63.601562 C 234.257812 63.601562 234.523438 63.867188 234.523438 64.199219 L 234.523438 95.621094 C 234.523438 95.949219 234.257812 96.214844 233.929688 96.214844 C 233.597656 96.214844 233.332031 95.949219 233.332031 95.621094 Z M 233.332031 64.199219 "/>
<path style=" stroke:none;fill-rule:nonzero;fill:rgb(7.058716%,1.176453%,46.665955%);fill-opacity:1;" d="M 220.34375 57.570312 C 220.015625 57.570312 219.75 57.304688 219.75 56.972656 C 219.75 56.644531 220.015625 56.378906 220.34375 56.378906 L 247.519531 56.378906 C 247.847656 56.378906 248.113281 56.644531 248.113281 56.972656 C 248.113281 57.304688 247.847656 57.570312 247.519531 57.570312 Z M 220.34375 57.570312 "/>
<path style=" stroke:none;fill-rule:nonzero;fill:rgb(7.058716%,1.176453%,46.665955%);fill-opacity:1;" d="M 220.339844 64.792969 C 220.011719 64.792969 219.746094 64.527344 219.746094 64.199219 C 219.746094 63.867188 220.011719 63.601562 220.339844 63.601562 L 247.515625 63.601562 C 247.84375 63.601562 248.109375 63.867188 248.109375 64.199219 C 248.109375 64.527344 247.84375 64.792969 247.515625 64.792969 Z M 220.339844 64.792969 "/>
<path style=" stroke:none;fill-rule:nonzero;fill:rgb(7.058716%,1.176453%,46.665955%);fill-opacity:1;" d="M 233.335938 90.96875 C 233.335938 90.640625 233.601562 90.375 233.929688 90.375 C 234.257812 90.375 234.527344 90.640625 234.527344 90.96875 L 234.527344 101.90625 C 234.527344 102.234375 234.257812 102.503906 233.929688 102.503906 C 233.601562 102.503906 233.335938 102.234375 233.335938 101.90625 Z M 233.335938 90.96875 "/>
<path style=" stroke:none;fill-rule:nonzero;fill:rgb(7.058716%,1.176453%,46.665955%);fill-opacity:1;" d="M 225.425781 103.238281 C 225.097656 103.238281 224.828125 102.96875 224.828125 102.640625 C 224.828125 102.3125 225.097656 102.046875 225.425781 102.046875 L 242.433594 102.046875 C 242.765625 102.046875 243.03125 102.3125 243.03125 102.640625 C 243.03125 102.96875 242.765625 103.238281 242.433594 103.238281 Z M 225.425781 103.238281 "/>
<path style=" stroke:none;fill-rule:nonzero;fill:rgb(7.058716%,1.176453%,46.665955%);fill-opacity:1;" d="M 228.363281 107.136719 C 228.035156 107.136719 227.769531 106.871094 227.769531 106.542969 C 227.769531 106.214844 228.035156 105.945312 228.363281 105.945312 L 239.785156 105.945312 C 240.117188 105.945312 240.382812 106.214844 240.382812 106.542969 C 240.382812 106.871094 240.117188 107.136719 239.785156 107.136719 Z M 228.363281 107.136719 "/>
<path style=" stroke:none;fill-rule:nonzero;fill:rgb(7.058716%,1.176453%,46.665955%);fill-opacity:1;" d="M 231.636719 110.796875 C 231.308594 110.796875 231.039062 110.53125 231.039062 110.199219 C 231.039062 109.871094 231.308594 109.605469 231.636719 109.605469 L 236.515625 109.605469 C 236.84375 109.605469 237.109375 109.871094 237.109375 110.199219 C 237.109375 110.53125 236.84375 110.796875 236.515625 110.796875 Z M 231.636719 110.796875 "/>
<path style=" stroke:none;fill-rule:nonzero;fill:rgb(7.058716%,1.176453%,46.665955%);fill-opacity:1;" d="M 28.230469 10.117188 C 28.226562 9.785156 28.488281 9.515625 28.816406 9.511719 C 29.148438 9.503906 29.417969 9.765625 29.425781 10.097656 C 29.613281 21.898438 29.613281 33.078125 29.421875 43.644531 C 29.417969 43.972656 29.144531 44.234375 28.816406 44.230469 C 28.488281 44.222656 28.226562 43.953125 28.230469 43.625 C 28.421875 33.074219 28.421875 21.902344 28.230469 10.117188 "/>
<path style=" stroke:none;fill-rule:nonzero;fill:rgb(7.058716%,1.176453%,46.665955%);fill-opacity:1;" d="M 28.5625 10.640625 C 28.265625 10.492188 28.148438 10.132812 28.296875 9.839844 C 28.441406 9.546875 28.800781 9.425781 29.09375 9.574219 C 44.972656 17.519531 44.972656 17.519531 63.527344 26.800781 C 63.820312 26.949219 63.941406 27.304688 63.792969 27.601562 C 63.644531 27.894531 63.289062 28.015625 62.992188 27.867188 C 44.441406 18.582031 44.441406 18.582031 28.5625 10.640625 "/>
<path style=" stroke:none;fill-rule:nonzero;fill:rgb(7.058716%,1.176453%,46.665955%);fill-opacity:1;" d="M 29.085938 44.171875 C 28.789062 44.3125 28.433594 44.1875 28.289062 43.890625 C 28.148438 43.59375 28.273438 43.238281 28.570312 43.097656 C 40.050781 37.617188 51.527344 32.183594 63.007812 26.792969 C 63.304688 26.652344 63.660156 26.78125 63.800781 27.082031 C 63.9375 27.378906 63.8125 27.734375 63.511719 27.875 C 52.039062 33.261719 40.5625 38.691406 29.085938 44.171875 "/>
<path style=" stroke:none;fill-rule:nonzero;fill:rgb(7.058716%,1.176453%,46.665955%);fill-opacity:1;" d="M 70.234375 27.984375 C 69.902344 27.984375 69.636719 27.71875 69.636719 27.390625 C 69.636719 27.058594 69.902344 26.792969 70.234375 26.792969 L 77.203125 26.792969 C 77.53125 26.792969 77.800781 27.058594 77.800781 27.390625 C 77.800781 27.71875 77.53125 27.984375 77.203125 27.984375 Z M 70.234375 27.984375 "/>
<path style=" stroke:none;fill-rule:nonzero;fill:rgb(7.058716%,1.176453%,46.665955%);fill-opacity:1;" d="M 17.464844 28.058594 C 17.136719 28.058594 16.867188 27.789062 16.867188 27.460938 C 16.867188 27.132812 17.136719 26.867188 17.464844 26.867188 L 28.972656 26.867188 C 29.300781 26.867188 29.566406 27.132812 29.566406 27.460938 C 29.566406 27.789062 29.300781 28.058594 28.972656 28.058594 Z M 17.464844 28.058594 "/>
<path style=" stroke:none;fill-rule:nonzero;fill:rgb(7.058716%,1.176453%,46.665955%);fill-opacity:1;" d="M 70.828125 27.441406 C 70.828125 28.949219 70.015625 30.261719 68.804688 30.972656 C 68.199219 31.324219 67.496094 31.527344 66.746094 31.527344 C 65.242188 31.527344 63.925781 30.710938 63.21875 29.5 C 62.863281 28.894531 62.664062 28.191406 62.664062 27.441406 C 62.664062 25.9375 63.476562 24.625 64.6875 23.914062 C 65.292969 23.5625 65.996094 23.359375 66.746094 23.359375 C 68.25 23.359375 69.566406 24.171875 70.273438 25.386719 C 70.625 25.988281 70.828125 26.691406 70.828125 27.441406 M 69.636719 27.441406 C 69.636719 26.914062 69.496094 26.414062 69.246094 25.988281 C 68.742188 25.128906 67.8125 24.550781 66.746094 24.550781 C 66.214844 24.550781 65.71875 24.695312 65.289062 24.945312 C 64.429688 25.445312 63.855469 26.378906 63.855469 27.441406 C 63.855469 27.972656 63.996094 28.472656 64.246094 28.898438 C 64.75 29.757812 65.679688 30.335938 66.746094 30.335938 C 67.277344 30.335938 67.773438 30.191406 68.203125 29.941406 C 69.058594 29.441406 69.636719 28.507812 69.636719 27.441406 "/>
<path style=" stroke:none;fill-rule:nonzero;fill:rgb(7.058716%,1.176453%,46.665955%);fill-opacity:1;" d="M 77.179688 27.984375 C 76.847656 27.984375 76.582031 27.71875 76.582031 27.390625 C 76.582031 27.058594 76.847656 26.792969 77.179688 26.792969 L 233.929688 26.792969 C 234.257812 26.792969 234.523438 27.058594 234.523438 27.390625 C 234.523438 27.71875 234.257812 27.984375 233.929688 27.984375 Z M 77.179688 27.984375 "/>
<path style=" stroke:none;fill-rule:nonzero;fill:rgb(0%,45.097351%,23.136902%);fill-opacity:1;" d="M 39.996094 22.835938 C 40.003906 23.273438 39.652344 23.636719 39.214844 23.640625 C 38.773438 23.648438 38.414062 23.296875 38.410156 22.859375 C 38.402344 22.371094 38.488281 21.804688 38.5625 21.402344 C 38.570312 21.355469 38.566406 21.34375 38.59375 21.242188 C 38.601562 21.222656 38.605469 21.191406 38.636719 21.121094 C 38.816406 20.71875 39.289062 20.539062 39.6875 20.71875 C 40.089844 20.898438 40.269531 21.367188 40.089844 21.769531 C 40.058594 21.839844 40.132812 21.636719 40.128906 21.65625 C 40.109375 21.730469 40.132812 21.640625 40.125 21.691406 C 40.066406 22.007812 39.992188 22.578125 39.996094 22.835938 M 38.601562 21.660156 C 38.480469 21.238281 38.726562 20.800781 39.148438 20.679688 C 39.570312 20.558594 40.011719 20.804688 40.128906 21.226562 C 40.183594 21.414062 40.160156 21.410156 40.160156 21.4375 C 40.164062 21.535156 40.164062 21.648438 40.175781 21.863281 C 40.191406 22.207031 40.253906 22.722656 40.3125 23.292969 C 40.464844 24.835938 40.601562 26.863281 40.59375 28.839844 C 40.59375 29.960938 40.492188 30.9375 40.453125 31.613281 C 40.441406 31.847656 40.429688 32.046875 40.425781 32.179688 C 40.421875 32.242188 40.421875 32.285156 40.421875 32.292969 C 40.421875 32.296875 40.414062 32.21875 40.417969 32.253906 C 40.421875 32.273438 40.382812 32.121094 40.398438 32.164062 C 40.410156 32.210938 40.222656 31.855469 40.292969 31.953125 C 40.328125 32.003906 40.042969 31.71875 40.121094 31.777344 C 40.191406 31.832031 39.746094 31.621094 39.851562 31.648438 C 39.945312 31.671875 39.480469 31.636719 39.570312 31.625 C 39.722656 31.609375 39.148438 31.796875 39.226562 31.746094 C 39.332031 31.679688 39.007812 31.957031 39.039062 31.914062 C 39.070312 31.878906 38.976562 32.015625 38.984375 31.996094 C 39.015625 31.941406 38.96875 32.03125 38.984375 31.984375 C 39.023438 31.875 39.089844 31.660156 39.175781 31.351562 C 39.292969 30.929688 39.734375 30.683594 40.15625 30.804688 C 40.578125 30.921875 40.824219 31.363281 40.703125 31.785156 C 40.613281 32.105469 40.546875 32.335938 40.484375 32.511719 C 40.453125 32.597656 40.429688 32.671875 40.367188 32.78125 C 40.332031 32.84375 40.300781 32.941406 40.089844 33.078125 C 39.835938 33.246094 39.164062 33.109375 38.996094 32.871094 C 38.742188 32.511719 38.839844 32.445312 38.835938 32.363281 C 38.832031 32.28125 38.832031 32.207031 38.835938 32.125 C 38.84375 31.957031 38.855469 31.757812 38.867188 31.523438 C 38.910156 30.796875 39.003906 29.867188 39.007812 28.835938 C 39.011719 26.933594 38.878906 24.949219 38.730469 23.449219 C 38.675781 22.898438 38.609375 22.378906 38.589844 21.941406 C 38.578125 21.699219 38.574219 21.53125 38.574219 21.503906 C 38.574219 21.503906 38.578125 21.535156 38.574219 21.519531 C 38.574219 21.503906 38.628906 21.761719 38.601562 21.660156 "/>
<path style=" stroke:none;fill-rule:nonzero;fill:rgb(0%,45.097351%,23.136902%);fill-opacity:1;" d="M 268.214844 52.164062 C 267.960938 52.519531 267.464844 52.605469 267.105469 52.355469 C 266.75 52.101562 266.664062 51.605469 266.917969 51.246094 C 267.035156 51.078125 267.078125 50.957031 267.085938 50.925781 C 267.085938 50.917969 267.097656 51.019531 267.089844 50.976562 C 267.078125 50.929688 267.214844 51.207031 267.167969 51.152344 C 267.121094 51.09375 267.367188 51.289062 267.320312 51.269531 C 267.28125 51.253906 267.382812 51.285156 267.378906 51.285156 C 267.355469 51.285156 267.246094 51.296875 267.085938 51.367188 C 266.714844 51.523438 266.117188 51.976562 265.410156 52.78125 C 264.601562 53.707031 263.675781 54.945312 262.921875 56.523438 C 262.273438 57.875 261.808594 59.476562 261.503906 61.042969 C 261.148438 62.882812 261.230469 64.65625 261.5 65.886719 C 261.628906 66.484375 261.839844 66.847656 262.046875 67.042969 C 262.234375 67.226562 262.4375 67.300781 262.695312 67.308594 C 263.253906 67.320312 264.054688 66.917969 264.648438 66.296875 C 265.085938 65.835938 265.375 65.242188 265.433594 64.730469 C 265.472656 64.347656 265.460938 64.0625 265.386719 63.890625 C 265.292969 63.675781 265.058594 63.433594 264.703125 63.246094 C 264.335938 63.054688 263.867188 62.933594 263.40625 62.921875 C 262.949219 62.910156 262.507812 63.007812 262.171875 63.203125 C 261.839844 63.394531 261.585938 63.679688 261.449219 64.125 C 261.320312 64.542969 260.875 64.777344 260.453125 64.644531 C 260.035156 64.515625 259.800781 64.070312 259.933594 63.652344 C 260.1875 62.835938 260.726562 62.203125 261.375 61.828125 C 262.011719 61.457031 262.742188 61.316406 263.445312 61.332031 C 264.148438 61.351562 264.839844 61.523438 265.4375 61.839844 C 266.039062 62.152344 266.570312 62.621094 266.847656 63.261719 C 267.097656 63.84375 267.066406 64.417969 267.011719 64.90625 C 266.910156 65.824219 266.457031 66.703125 265.796875 67.394531 C 264.96875 68.261719 263.859375 68.921875 262.660156 68.894531 C 262.058594 68.882812 261.425781 68.652344 260.945312 68.191406 C 260.457031 67.722656 260.125 67.046875 259.945312 66.226562 C 259.628906 64.765625 259.542969 62.8125 259.941406 60.742188 C 260.265625 59.070312 260.761719 57.355469 261.488281 55.839844 C 262.320312 54.097656 263.335938 52.742188 264.214844 51.734375 C 265.019531 50.816406 265.75 50.207031 266.464844 49.902344 C 266.785156 49.765625 267.105469 49.6875 267.433594 49.699219 C 267.769531 49.710938 268.160156 49.84375 268.414062 50.160156 C 268.664062 50.476562 268.710938 50.890625 268.644531 51.226562 C 268.582031 51.558594 268.425781 51.863281 268.214844 52.164062 "/>
<path style=" stroke:none;fill-rule:nonzero;fill:rgb(0%,45.097351%,23.136902%);fill-opacity:1;" d="M 275.648438 53.363281 C 275.378906 53.710938 274.878906 53.773438 274.535156 53.503906 C 274.1875 53.238281 274.125 52.738281 274.390625 52.390625 C 274.453125 52.3125 274.492188 52.257812 274.574219 52.175781 C 274.597656 52.152344 274.625 52.121094 274.691406 52.074219 C 274.746094 52.035156 274.820312 51.953125 275.078125 51.929688 C 275.300781 51.90625 275.691406 52.0625 275.839844 52.308594 C 276.199219 52.902344 275.929688 52.9375 275.910156 52.996094 C 275.835938 53.214844 275.769531 53.300781 275.667969 53.496094 C 275.449219 53.921875 275.136719 54.546875 274.871094 55.253906 C 274.597656 55.976562 274.449219 56.832031 274.40625 57.574219 C 274.375 58.074219 274.347656 58.441406 274.378906 58.554688 C 274.398438 58.628906 274.464844 58.71875 274.792969 58.804688 C 275.160156 58.898438 275.722656 58.902344 276.359375 58.789062 C 277.695312 58.554688 279.238281 57.863281 280.3125 56.84375 C 280.628906 56.542969 281.132812 56.554688 281.433594 56.875 C 281.734375 57.191406 281.722656 57.695312 281.40625 57.996094 C 280.054688 59.28125 278.273438 60.066406 276.636719 60.355469 C 275.839844 60.496094 275.078125 60.515625 274.398438 60.34375 C 273.722656 60.171875 273.046875 59.710938 272.84375 58.972656 C 272.6875 58.398438 272.792969 57.914062 272.820312 57.472656 C 272.871094 56.605469 273.03125 55.617188 273.382812 54.6875 C 273.683594 53.894531 274.027344 53.210938 274.253906 52.769531 C 274.359375 52.570312 274.375 52.574219 274.40625 52.480469 C 274.414062 52.457031 274.359375 52.738281 274.371094 52.636719 C 274.375 52.59375 274.382812 52.910156 274.371094 52.820312 C 274.363281 52.742188 274.578125 53.28125 274.492188 53.152344 C 274.414062 53.027344 275.023438 53.519531 274.867188 53.457031 C 274.734375 53.40625 275.324219 53.503906 275.226562 53.511719 C 275.070312 53.523438 275.585938 53.390625 275.527344 53.421875 C 275.449219 53.464844 275.6875 53.3125 275.664062 53.332031 C 275.640625 53.347656 275.710938 53.285156 275.703125 53.292969 C 275.667969 53.328125 275.699219 53.300781 275.648438 53.363281 "/>
<path style=" stroke:none;fill-rule:nonzero;fill:rgb(0%,45.097351%,23.136902%);fill-opacity:1;" d="M 281.957031 49.511719 C 282.390625 49.585938 282.679688 49.996094 282.605469 50.429688 C 282.53125 50.863281 282.121094 51.152344 281.691406 51.078125 C 281.554688 51.058594 281.53125 51.0625 281.515625 51.066406 C 281.488281 51.074219 281.582031 51.015625 281.570312 51.035156 C 281.515625 51.125 281.410156 51.566406 281.378906 52.292969 C 281.304688 54.082031 281.40625 56.800781 281.515625 59.625 C 281.582031 61.386719 281.609375 63.105469 281.652344 64.625 C 281.699219 66.3125 281.699219 67.660156 281.761719 68.617188 C 281.789062 69.0625 281.832031 69.410156 281.886719 69.621094 C 281.910156 69.714844 281.9375 69.773438 281.945312 69.789062 C 281.949219 69.796875 281.804688 69.679688 281.867188 69.71875 C 282.238281 69.949219 282.351562 70.441406 282.117188 70.8125 C 281.886719 71.183594 281.394531 71.296875 281.023438 71.066406 C 280.605469 70.804688 280.449219 70.398438 280.347656 70.019531 C 280.25 69.640625 280.207031 69.214844 280.175781 68.71875 C 280.109375 67.675781 280.113281 66.335938 280.0625 64.671875 C 280.019531 63.136719 279.992188 61.425781 279.925781 59.683594 C 279.820312 56.855469 279.710938 54.128906 279.789062 52.226562 C 279.824219 51.410156 279.875 50.765625 280.210938 50.210938 C 280.386719 49.925781 280.671875 49.675781 281.003906 49.5625 C 281.328125 49.453125 281.652344 49.460938 281.957031 49.511719 "/>
<path style=" stroke:none;fill-rule:nonzero;fill:rgb(7.058716%,1.176453%,46.665955%);fill-opacity:1;" d="M 233.332031 166.382812 C 233.332031 166.050781 233.597656 165.785156 233.925781 165.785156 C 234.253906 165.785156 234.523438 166.050781 234.523438 166.382812 L 234.523438 195.890625 C 234.523438 196.21875 234.253906 196.484375 233.925781 196.484375 C 233.597656 196.484375 233.332031 196.21875 233.332031 195.890625 Z M 233.332031 166.382812 "/>
<path style=" stroke:none;fill-rule:nonzero;fill:rgb(7.058716%,1.176453%,46.665955%);fill-opacity:1;" d="M 233.332031 203.113281 C 233.332031 202.785156 233.597656 202.515625 233.925781 202.515625 C 234.253906 202.515625 234.523438 202.785156 234.523438 203.113281 L 234.523438 234.535156 C 234.523438 234.863281 234.253906 235.132812 233.925781 235.132812 C 233.597656 235.132812 233.332031 234.863281 233.332031 234.535156 Z M 233.332031 203.113281 "/>
<path style=" stroke:none;fill-rule:nonzero;fill:rgb(7.058716%,1.176453%,46.665955%);fill-opacity:1;" d="M 220.34375 196.484375 C 220.015625 196.484375 219.746094 196.21875 219.746094 195.890625 C 219.746094 195.558594 220.015625 195.292969 220.34375 195.292969 L 247.515625 195.292969 C 247.847656 195.292969 248.113281 195.558594 248.113281 195.890625 C 248.113281 196.21875 247.847656 196.484375 247.515625 196.484375 Z M 220.34375 196.484375 "/>
<path style=" stroke:none;fill-rule:nonzero;fill:rgb(7.058716%,1.176453%,46.665955%);fill-opacity:1;" d="M 220.339844 203.710938 C 220.011719 203.710938 219.742188 203.441406 219.742188 203.113281 C 219.742188 202.785156 220.011719 202.515625 220.339844 202.515625 L 247.511719 202.515625 C 247.84375 202.515625 248.109375 202.785156 248.109375 203.113281 C 248.109375 203.441406 247.84375 203.710938 247.511719 203.710938 Z M 220.339844 203.710938 "/>
<path style=" stroke:none;fill-rule:nonzero;fill:rgb(7.058716%,1.176453%,46.665955%);fill-opacity:1;" d="M 233.332031 229.882812 C 233.332031 229.554688 233.597656 229.289062 233.929688 229.289062 C 234.257812 229.289062 234.523438 229.554688 234.523438 229.882812 L 234.523438 240.820312 C 234.523438 241.152344 234.257812 241.417969 233.929688 241.417969 C 233.597656 241.417969 233.332031 241.152344 233.332031 240.820312 Z M 233.332031 229.882812 "/>
<path style=" stroke:none;fill-rule:nonzero;fill:rgb(7.058716%,1.176453%,46.665955%);fill-opacity:1;" d="M 225.421875 242.152344 C 225.09375 242.152344 224.828125 241.886719 224.828125 241.554688 C 224.828125 241.226562 225.09375 240.960938 225.421875 240.960938 L 242.433594 240.960938 C 242.761719 240.960938 243.027344 241.226562 243.027344 241.554688 C 243.027344 241.886719 242.761719 242.152344 242.433594 242.152344 Z M 225.421875 242.152344 "/>
<path style=" stroke:none;fill-rule:nonzero;fill:rgb(7.058716%,1.176453%,46.665955%);fill-opacity:1;" d="M 228.363281 246.054688 C 228.03125 246.054688 227.765625 245.785156 227.765625 245.457031 C 227.765625 245.128906 228.03125 244.859375 228.363281 244.859375 L 239.785156 244.859375 C 240.113281 244.859375 240.378906 245.128906 240.378906 245.457031 C 240.378906 245.785156 240.113281 246.054688 239.785156 246.054688 Z M 228.363281 246.054688 "/>
<path style=" stroke:none;fill-rule:nonzero;fill:rgb(7.058716%,1.176453%,46.665955%);fill-opacity:1;" d="M 231.632812 249.710938 C 231.304688 249.710938 231.039062 249.445312 231.039062 249.117188 C 231.039062 248.785156 231.304688 248.519531 231.632812 248.519531 L 236.511719 248.519531 C 236.839844 248.519531 237.109375 248.785156 237.109375 249.117188 C 237.109375 249.445312 236.839844 249.710938 236.511719 249.710938 Z M 231.632812 249.710938 "/>
<path style=" stroke:none;fill-rule:nonzero;fill:rgb(7.058716%,1.176453%,46.665955%);fill-opacity:1;" d="M 149.472656 148.597656 C 149.46875 148.269531 149.730469 147.996094 150.058594 147.992188 C 150.386719 147.988281 150.660156 148.25 150.664062 148.578125 C 150.855469 160.378906 150.855469 171.5625 150.664062 182.125 C 150.660156 182.457031 150.386719 182.71875 150.058594 182.710938 C 149.730469 182.707031 149.46875 182.433594 149.472656 182.105469 C 149.664062 171.554688 149.664062 160.386719 149.472656 148.597656 "/>
<path style=" stroke:none;fill-rule:nonzero;fill:rgb(7.058716%,1.176453%,46.665955%);fill-opacity:1;" d="M 149.800781 149.121094 C 149.507812 148.972656 149.386719 148.617188 149.535156 148.320312 C 149.683594 148.027344 150.042969 147.90625 150.335938 148.054688 C 166.214844 156 166.214844 156 184.765625 165.28125 C 185.0625 165.429688 185.179688 165.789062 185.035156 166.082031 C 184.886719 166.375 184.527344 166.496094 184.234375 166.347656 C 165.679688 157.066406 165.679688 157.066406 149.800781 149.121094 "/>
<path style=" stroke:none;fill-rule:nonzero;fill:rgb(7.058716%,1.176453%,46.665955%);fill-opacity:1;" d="M 150.324219 182.652344 C 150.027344 182.796875 149.671875 182.667969 149.53125 182.371094 C 149.390625 182.074219 149.515625 181.71875 149.8125 181.578125 C 161.289062 176.097656 172.769531 170.664062 184.246094 165.277344 C 184.546875 165.136719 184.902344 165.265625 185.039062 165.5625 C 185.179688 165.859375 185.050781 166.214844 184.753906 166.355469 C 173.277344 171.742188 161.800781 177.175781 150.324219 182.652344 "/>
<path style=" stroke:none;fill-rule:nonzero;fill:rgb(7.058716%,1.176453%,46.665955%);fill-opacity:1;" d="M 191.472656 166.46875 C 191.144531 166.46875 190.878906 166.199219 190.878906 165.871094 C 190.878906 165.542969 191.144531 165.277344 191.472656 165.277344 L 198.445312 165.277344 C 198.773438 165.277344 199.039062 165.542969 199.039062 165.871094 C 199.039062 166.199219 198.773438 166.46875 198.445312 166.46875 Z M 191.472656 166.46875 "/>
<path style=" stroke:none;fill-rule:nonzero;fill:rgb(7.058716%,1.176453%,46.665955%);fill-opacity:1;" d="M 138.707031 166.539062 C 138.375 166.539062 138.109375 166.273438 138.109375 165.945312 C 138.109375 165.613281 138.375 165.347656 138.707031 165.347656 L 150.210938 165.347656 C 150.539062 165.347656 150.808594 165.613281 150.808594 165.945312 C 150.808594 166.273438 150.539062 166.539062 150.210938 166.539062 Z M 138.707031 166.539062 "/>
<path style=" stroke:none;fill-rule:nonzero;fill:rgb(7.058716%,1.176453%,46.665955%);fill-opacity:1;" d="M 192.070312 165.925781 C 192.070312 167.429688 191.257812 168.746094 190.042969 169.453125 C 189.441406 169.804688 188.738281 170.007812 187.988281 170.007812 C 186.480469 170.007812 185.167969 169.195312 184.457031 167.984375 C 184.105469 167.378906 183.902344 166.675781 183.902344 165.925781 C 183.902344 164.421875 184.71875 163.105469 185.929688 162.398438 C 186.535156 162.042969 187.238281 161.839844 187.988281 161.839844 C 189.492188 161.839844 190.804688 162.65625 191.515625 163.867188 C 191.867188 164.472656 192.070312 165.175781 192.070312 165.925781 M 190.878906 165.925781 C 190.878906 165.394531 190.734375 164.898438 190.484375 164.46875 C 189.984375 163.609375 189.054688 163.035156 187.988281 163.035156 C 187.457031 163.035156 186.957031 163.175781 186.53125 163.425781 C 185.671875 163.929688 185.09375 164.859375 185.09375 165.925781 C 185.09375 166.457031 185.238281 166.953125 185.488281 167.382812 C 185.988281 168.238281 186.921875 168.816406 187.988281 168.816406 C 188.519531 168.816406 189.015625 168.671875 189.441406 168.425781 C 190.300781 167.921875 190.878906 166.992188 190.878906 165.925781 "/>
<path style=" stroke:none;fill-rule:nonzero;fill:rgb(7.058716%,1.176453%,46.665955%);fill-opacity:1;" d="M 198.445312 166.46875 C 198.117188 166.46875 197.847656 166.199219 197.847656 165.871094 C 197.847656 165.542969 198.117188 165.277344 198.445312 165.277344 L 233.925781 165.277344 C 234.253906 165.277344 234.523438 165.542969 234.523438 165.871094 C 234.523438 166.199219 234.253906 166.46875 233.925781 166.46875 Z M 198.445312 166.46875 "/>
<path style=" stroke:none;fill-rule:nonzero;fill:rgb(0%,45.097351%,23.136902%);fill-opacity:1;" d="M 268.210938 191.078125 C 267.960938 191.4375 267.464844 191.523438 267.105469 191.269531 C 266.746094 191.015625 266.660156 190.519531 266.914062 190.160156 C 267.03125 189.996094 267.074219 189.871094 267.082031 189.839844 C 267.082031 189.832031 267.09375 189.933594 267.085938 189.890625 C 267.078125 189.847656 267.214844 190.125 267.167969 190.066406 C 267.121094 190.007812 267.363281 190.203125 267.320312 190.183594 C 267.28125 190.167969 267.378906 190.203125 267.375 190.199219 C 267.355469 190.199219 267.246094 190.214844 267.085938 190.28125 C 266.710938 190.4375 266.113281 190.890625 265.410156 191.695312 C 264.597656 192.621094 263.675781 193.859375 262.917969 195.441406 C 262.273438 196.792969 261.804688 198.390625 261.5 199.960938 C 261.144531 201.800781 261.230469 203.574219 261.496094 204.800781 C 261.628906 205.398438 261.839844 205.761719 262.042969 205.960938 C 262.234375 206.140625 262.433594 206.214844 262.695312 206.222656 C 263.25 206.234375 264.054688 205.832031 264.648438 205.210938 C 265.085938 204.753906 265.371094 204.15625 265.429688 203.644531 C 265.472656 203.261719 265.460938 202.980469 265.386719 202.808594 C 265.292969 202.589844 265.054688 202.347656 264.699219 202.160156 C 264.332031 201.96875 263.867188 201.847656 263.40625 201.835938 C 262.945312 201.824219 262.507812 201.921875 262.167969 202.117188 C 261.835938 202.308594 261.585938 202.59375 261.449219 203.039062 C 261.316406 203.457031 260.871094 203.691406 260.453125 203.5625 C 260.035156 203.429688 259.800781 202.984375 259.929688 202.566406 C 260.183594 201.75 260.726562 201.117188 261.371094 200.742188 C 262.011719 200.371094 262.738281 200.230469 263.445312 200.25 C 264.148438 200.265625 264.835938 200.4375 265.4375 200.753906 C 266.035156 201.066406 266.566406 201.535156 266.84375 202.179688 C 267.09375 202.757812 267.0625 203.332031 267.007812 203.820312 C 266.90625 204.738281 266.457031 205.617188 265.796875 206.308594 C 264.96875 207.175781 263.855469 207.835938 262.660156 207.8125 C 262.054688 207.796875 261.421875 207.566406 260.941406 207.105469 C 260.457031 206.636719 260.125 205.964844 259.945312 205.140625 C 259.625 203.683594 259.539062 201.730469 259.941406 199.65625 C 260.265625 197.988281 260.757812 196.269531 261.484375 194.753906 C 262.320312 193.011719 263.332031 191.65625 264.214844 190.648438 C 265.015625 189.730469 265.746094 189.121094 266.464844 188.816406 C 266.785156 188.683594 267.101562 188.601562 267.433594 188.613281 C 267.769531 188.625 268.15625 188.757812 268.410156 189.074219 C 268.664062 189.390625 268.707031 189.804688 268.644531 190.140625 C 268.578125 190.472656 268.425781 190.777344 268.210938 191.078125 "/>
<path style=" stroke:none;fill-rule:nonzero;fill:rgb(0%,45.097351%,23.136902%);fill-opacity:1;" d="M 275.644531 192.28125 C 275.378906 192.625 274.878906 192.691406 274.53125 192.421875 C 274.183594 192.152344 274.121094 191.652344 274.390625 191.304688 C 274.453125 191.226562 274.488281 191.171875 274.570312 191.089844 C 274.59375 191.066406 274.621094 191.039062 274.6875 190.992188 C 274.742188 190.949219 274.820312 190.867188 275.078125 190.84375 C 275.300781 190.820312 275.691406 190.980469 275.839844 191.222656 C 276.195312 191.816406 275.925781 191.851562 275.90625 191.914062 C 275.832031 192.128906 275.769531 192.214844 275.667969 192.410156 C 275.449219 192.835938 275.136719 193.464844 274.867188 194.167969 C 274.59375 194.890625 274.449219 195.746094 274.402344 196.488281 C 274.371094 196.988281 274.34375 197.355469 274.375 197.46875 C 274.394531 197.542969 274.460938 197.636719 274.789062 197.71875 C 275.15625 197.8125 275.722656 197.816406 276.359375 197.703125 C 277.691406 197.46875 279.234375 196.78125 280.308594 195.757812 C 280.625 195.457031 281.128906 195.46875 281.433594 195.789062 C 281.734375 196.105469 281.722656 196.609375 281.402344 196.910156 C 280.050781 198.195312 278.269531 198.980469 276.636719 199.269531 C 275.835938 199.410156 275.074219 199.433594 274.394531 199.257812 C 273.722656 199.085938 273.046875 198.628906 272.84375 197.886719 C 272.6875 197.3125 272.789062 196.828125 272.816406 196.390625 C 272.871094 195.519531 273.03125 194.53125 273.382812 193.605469 C 273.683594 192.808594 274.027344 192.128906 274.253906 191.683594 C 274.355469 191.484375 274.371094 191.488281 274.402344 191.394531 C 274.410156 191.375 274.359375 191.652344 274.371094 191.550781 C 274.375 191.507812 274.382812 191.824219 274.371094 191.738281 C 274.359375 191.65625 274.574219 192.199219 274.492188 192.066406 C 274.410156 191.941406 275.023438 192.433594 274.867188 192.375 C 274.730469 192.320312 275.324219 192.417969 275.226562 192.425781 C 275.066406 192.4375 275.582031 192.304688 275.527344 192.335938 C 275.449219 192.378906 275.683594 192.226562 275.660156 192.246094 C 275.640625 192.265625 275.710938 192.199219 275.703125 192.207031 C 275.667969 192.242188 275.695312 192.214844 275.644531 192.28125 "/>
<path style=" stroke:none;fill-rule:nonzero;fill:rgb(0%,45.097351%,23.136902%);fill-opacity:1;" d="M 281.953125 188.429688 C 282.386719 188.5 282.679688 188.914062 282.605469 189.34375 C 282.53125 189.777344 282.121094 190.070312 281.6875 189.996094 C 281.550781 189.972656 281.53125 189.976562 281.515625 189.980469 C 281.488281 189.992188 281.582031 189.929688 281.566406 189.949219 C 281.511719 190.042969 281.40625 190.484375 281.375 191.207031 C 281.300781 192.996094 281.40625 195.714844 281.511719 198.539062 C 281.578125 200.300781 281.605469 202.019531 281.648438 203.539062 C 281.699219 205.226562 281.699219 206.574219 281.757812 207.53125 C 281.785156 207.976562 281.828125 208.324219 281.886719 208.535156 C 281.910156 208.628906 281.933594 208.6875 281.945312 208.703125 C 281.949219 208.710938 281.800781 208.59375 281.863281 208.632812 C 282.238281 208.867188 282.347656 209.355469 282.117188 209.726562 C 281.882812 210.101562 281.394531 210.214844 281.023438 209.980469 C 280.605469 209.71875 280.445312 209.3125 280.347656 208.9375 C 280.246094 208.554688 280.203125 208.128906 280.171875 207.632812 C 280.105469 206.59375 280.109375 205.25 280.0625 203.585938 C 280.019531 202.054688 279.992188 200.339844 279.925781 198.597656 C 279.816406 195.773438 279.707031 193.042969 279.789062 191.140625 C 279.824219 190.324219 279.871094 189.679688 280.210938 189.125 C 280.382812 188.839844 280.671875 188.589844 281 188.476562 C 281.324219 188.367188 281.648438 188.375 281.953125 188.429688 "/>
<path style=" stroke:none;fill-rule:nonzero;fill:rgb(7.058716%,1.176453%,46.665955%);fill-opacity:1;" d="M 88.542969 148.597656 C 88.535156 148.269531 88.796875 147.996094 89.128906 147.992188 C 89.457031 147.988281 89.726562 148.25 89.734375 148.578125 C 89.925781 160.378906 89.925781 171.5625 89.734375 182.125 C 89.726562 182.457031 89.457031 182.71875 89.125 182.710938 C 88.796875 182.707031 88.535156 182.433594 88.542969 182.105469 C 88.730469 171.554688 88.730469 160.386719 88.542969 148.597656 "/>
<path style=" stroke:none;fill-rule:nonzero;fill:rgb(7.058716%,1.176453%,46.665955%);fill-opacity:1;" d="M 88.871094 149.121094 C 88.578125 148.972656 88.457031 148.617188 88.605469 148.320312 C 88.75 148.027344 89.109375 147.90625 89.402344 148.054688 C 105.28125 156 105.28125 156 123.835938 165.28125 C 124.128906 165.429688 124.25 165.789062 124.101562 166.082031 C 123.957031 166.375 123.597656 166.496094 123.304688 166.347656 C 104.75 157.066406 104.75 157.066406 88.871094 149.121094 "/>
<path style=" stroke:none;fill-rule:nonzero;fill:rgb(7.058716%,1.176453%,46.665955%);fill-opacity:1;" d="M 89.394531 182.652344 C 89.097656 182.796875 88.742188 182.667969 88.601562 182.371094 C 88.457031 182.074219 88.582031 181.71875 88.878906 181.578125 C 100.359375 176.097656 111.835938 170.664062 123.316406 165.277344 C 123.613281 165.136719 123.96875 165.265625 124.109375 165.5625 C 124.25 165.859375 124.121094 166.214844 123.824219 166.355469 C 112.347656 171.742188 100.871094 177.175781 89.394531 182.652344 "/>
<path style=" stroke:none;fill-rule:nonzero;fill:rgb(7.058716%,1.176453%,46.665955%);fill-opacity:1;" d="M 130.542969 166.46875 C 130.214844 166.46875 129.945312 166.199219 129.945312 165.871094 C 129.945312 165.542969 130.214844 165.277344 130.542969 165.277344 L 137.511719 165.277344 C 137.84375 165.277344 138.109375 165.542969 138.109375 165.871094 C 138.109375 166.199219 137.84375 166.46875 137.511719 166.46875 Z M 130.542969 166.46875 "/>
<path style=" stroke:none;fill-rule:nonzero;fill:rgb(7.058716%,1.176453%,46.665955%);fill-opacity:1;" d="M 77.773438 166.539062 C 77.445312 166.539062 77.179688 166.273438 77.179688 165.945312 C 77.179688 165.613281 77.445312 165.347656 77.773438 165.347656 L 89.28125 165.347656 C 89.609375 165.347656 89.875 165.613281 89.875 165.945312 C 89.875 166.273438 89.609375 166.539062 89.28125 166.539062 Z M 77.773438 166.539062 "/>
<path style=" stroke:none;fill-rule:nonzero;fill:rgb(7.058716%,1.176453%,46.665955%);fill-opacity:1;" d="M 131.140625 165.925781 C 131.140625 167.429688 130.324219 168.746094 129.113281 169.453125 C 128.507812 169.804688 127.804688 170.007812 127.054688 170.007812 C 125.550781 170.007812 124.234375 169.195312 123.527344 167.984375 C 123.175781 167.378906 122.972656 166.675781 122.972656 165.925781 C 122.972656 164.421875 123.785156 163.105469 125 162.398438 C 125.601562 162.042969 126.304688 161.839844 127.054688 161.839844 C 128.558594 161.839844 129.875 162.65625 130.582031 163.867188 C 130.9375 164.472656 131.140625 165.175781 131.140625 165.925781 M 129.945312 165.925781 C 129.945312 165.394531 129.804688 164.898438 129.554688 164.46875 C 129.050781 163.609375 128.121094 163.035156 127.054688 163.035156 C 126.523438 163.035156 126.027344 163.175781 125.597656 163.425781 C 124.742188 163.929688 124.164062 164.859375 124.164062 165.925781 C 124.164062 166.457031 124.308594 166.953125 124.558594 167.382812 C 125.058594 168.238281 125.988281 168.816406 127.054688 168.816406 C 127.585938 168.816406 128.082031 168.671875 128.511719 168.425781 C 129.371094 167.921875 129.945312 166.992188 129.945312 165.925781 "/>
<path style=" stroke:none;fill-rule:nonzero;fill:rgb(7.058716%,1.176453%,46.665955%);fill-opacity:1;" d="M 27.609375 148.597656 C 27.605469 148.269531 27.867188 147.996094 28.195312 147.992188 C 28.527344 147.988281 28.796875 148.25 28.800781 148.578125 C 28.992188 160.378906 28.992188 171.5625 28.800781 182.125 C 28.796875 182.457031 28.523438 182.71875 28.195312 182.710938 C 27.867188 182.707031 27.605469 182.433594 27.609375 182.105469 C 27.800781 171.554688 27.800781 160.386719 27.609375 148.597656 "/>
<path style=" stroke:none;fill-rule:nonzero;fill:rgb(7.058716%,1.176453%,46.665955%);fill-opacity:1;" d="M 27.941406 149.121094 C 27.644531 148.972656 27.527344 148.617188 27.671875 148.320312 C 27.820312 148.027344 28.179688 147.90625 28.472656 148.054688 C 44.351562 156 44.351562 156 62.90625 165.28125 C 63.199219 165.429688 63.320312 165.789062 63.171875 166.082031 C 63.023438 166.375 62.667969 166.496094 62.371094 166.347656 C 43.816406 157.066406 43.816406 157.066406 27.941406 149.121094 "/>
<path style=" stroke:none;fill-rule:nonzero;fill:rgb(7.058716%,1.176453%,46.665955%);fill-opacity:1;" d="M 28.464844 182.652344 C 28.164062 182.796875 27.808594 182.667969 27.667969 182.371094 C 27.527344 182.074219 27.652344 181.71875 27.949219 181.578125 C 39.429688 176.097656 50.90625 170.664062 62.386719 165.277344 C 62.683594 165.136719 63.039062 165.265625 63.179688 165.5625 C 63.316406 165.859375 63.191406 166.214844 62.890625 166.355469 C 51.414062 171.742188 39.9375 177.175781 28.464844 182.652344 "/>
<path style=" stroke:none;fill-rule:nonzero;fill:rgb(7.058716%,1.176453%,46.665955%);fill-opacity:1;" d="M 69.609375 166.46875 C 69.28125 166.46875 69.015625 166.199219 69.015625 165.871094 C 69.015625 165.542969 69.28125 165.277344 69.609375 165.277344 L 76.582031 165.277344 C 76.910156 165.277344 77.179688 165.542969 77.179688 165.871094 C 77.179688 166.199219 76.910156 166.46875 76.582031 166.46875 Z M 69.609375 166.46875 "/>
<path style=" stroke:none;fill-rule:nonzero;fill:rgb(7.058716%,1.176453%,46.665955%);fill-opacity:1;" d="M 16.84375 166.539062 C 16.511719 166.539062 16.246094 166.273438 16.246094 165.945312 C 16.246094 165.613281 16.511719 165.347656 16.84375 165.347656 L 28.347656 165.347656 C 28.679688 165.347656 28.945312 165.613281 28.945312 165.945312 C 28.945312 166.273438 28.679688 166.539062 28.347656 166.539062 Z M 16.84375 166.539062 "/>
<path style=" stroke:none;fill-rule:nonzero;fill:rgb(7.058716%,1.176453%,46.665955%);fill-opacity:1;" d="M 70.207031 165.925781 C 70.207031 167.429688 69.394531 168.746094 68.179688 169.453125 C 67.578125 169.804688 66.875 170.007812 66.125 170.007812 C 64.621094 170.007812 63.304688 169.195312 62.597656 167.984375 C 62.242188 167.378906 62.039062 166.675781 62.039062 165.925781 C 62.039062 164.421875 62.855469 163.105469 64.066406 162.398438 C 64.671875 162.042969 65.375 161.839844 66.125 161.839844 C 67.628906 161.839844 68.945312 162.65625 69.652344 163.867188 C 70.003906 164.472656 70.207031 165.175781 70.207031 165.925781 M 69.015625 165.925781 C 69.015625 165.394531 68.871094 164.898438 68.625 164.46875 C 68.121094 163.609375 67.191406 163.035156 66.125 163.035156 C 65.59375 163.035156 65.097656 163.175781 64.667969 163.425781 C 63.808594 163.929688 63.234375 164.859375 63.234375 165.925781 C 63.234375 166.457031 63.375 166.953125 63.625 167.382812 C 64.125 168.238281 65.058594 168.816406 66.125 168.816406 C 66.65625 168.816406 67.152344 168.671875 67.582031 168.425781 C 68.4375 167.921875 69.015625 166.992188 69.015625 165.925781 "/>
<path style=" stroke:none;fill-rule:nonzero;fill:rgb(0%,45.097351%,23.136902%);fill-opacity:1;" d="M 36.78125 160.796875 C 36.5625 160.414062 36.695312 159.929688 37.074219 159.710938 C 37.457031 159.492188 37.941406 159.625 38.160156 160.003906 C 38.171875 160.027344 38.058594 159.867188 38.09375 159.910156 C 38.128906 159.953125 37.804688 159.6875 37.902344 159.746094 C 38.007812 159.808594 37.289062 159.644531 37.464844 159.636719 C 37.640625 159.628906 36.9375 159.863281 37.035156 159.789062 C 37.121094 159.726562 36.820312 160.039062 36.851562 159.988281 C 36.898438 159.917969 36.773438 160.164062 36.78125 160.132812 C 36.792969 160.105469 36.765625 160.191406 36.769531 160.183594 C 36.773438 160.164062 36.777344 160.101562 36.78125 159.992188 C 36.789062 159.839844 36.792969 159.6875 36.792969 159.585938 C 36.796875 159.535156 36.792969 159.503906 36.792969 159.5 C 36.792969 159.496094 36.824219 159.65625 36.808594 159.589844 C 36.800781 159.558594 36.871094 159.765625 36.847656 159.707031 C 36.832031 159.675781 36.9375 159.875 36.90625 159.828125 C 36.875 159.777344 37.144531 160.074219 37.066406 160.007812 C 36.730469 159.726562 36.6875 159.222656 36.972656 158.890625 C 37.253906 158.554688 37.753906 158.511719 38.089844 158.792969 C 38.386719 159.042969 38.34375 159.171875 38.359375 159.242188 C 38.378906 159.324219 38.378906 159.367188 38.378906 159.402344 C 38.386719 159.476562 38.382812 159.539062 38.382812 159.605469 C 38.382812 159.742188 38.375 159.898438 38.371094 160.054688 C 38.363281 160.207031 38.359375 160.34375 38.320312 160.523438 C 38.296875 160.621094 38.359375 160.777344 38 161.054688 C 37.773438 161.222656 37.3125 161.246094 37.085938 161.109375 C 36.878906 160.984375 36.824219 160.871094 36.78125 160.796875 M 37.441406 158.617188 C 37.875 158.542969 38.285156 158.832031 38.359375 159.265625 C 38.433594 159.699219 38.140625 160.109375 37.710938 160.183594 C 37.609375 160.199219 38.039062 160.050781 37.96875 160.089844 C 37.851562 160.160156 38.246094 159.828125 38.199219 159.886719 C 38.140625 159.96875 38.3125 159.675781 38.300781 159.710938 C 38.285156 159.746094 38.328125 159.625 38.324219 159.640625 C 38.3125 159.679688 38.328125 159.613281 38.324219 159.640625 C 38.316406 159.699219 38.308594 159.816406 38.300781 159.953125 C 38.285156 160.238281 38.265625 160.597656 38.226562 160.945312 C 38.054688 162.421875 37.964844 164.351562 37.851562 166.113281 C 37.792969 166.996094 37.71875 167.789062 37.675781 168.433594 C 37.65625 168.703125 37.652344 168.941406 37.644531 169.171875 C 37.636719 169.359375 37.636719 169.515625 37.632812 169.644531 C 37.628906 169.707031 37.628906 169.753906 37.617188 169.847656 C 37.613281 169.898438 37.65625 169.960938 37.480469 170.214844 C 37.464844 170.238281 37.433594 170.277344 37.394531 170.320312 C 37.085938 170.636719 36.585938 170.644531 36.269531 170.335938 C 35.957031 170.03125 35.949219 169.527344 36.253906 169.214844 C 36.292969 169.171875 36.140625 169.363281 36.160156 169.328125 C 36.21875 169.246094 36.070312 169.519531 36.085938 169.480469 C 36.125 169.375 36.039062 169.660156 36.042969 169.640625 C 36.046875 169.597656 36.042969 169.648438 36.042969 169.601562 C 36.046875 169.496094 36.046875 169.324219 36.054688 169.113281 C 36.0625 168.902344 36.066406 168.636719 36.089844 168.320312 C 36.136719 167.648438 36.210938 166.867188 36.265625 166.011719 C 36.378906 164.261719 36.464844 162.324219 36.648438 160.757812 C 36.679688 160.492188 36.695312 160.152344 36.714844 159.855469 C 36.722656 159.710938 36.730469 159.578125 36.746094 159.453125 C 36.753906 159.390625 36.761719 159.332031 36.785156 159.242188 C 36.796875 159.195312 36.8125 159.136719 36.863281 159.039062 C 36.917969 158.929688 37.046875 158.6875 37.441406 158.617188 M 37.257812 169.105469 C 37.625 169.347656 37.726562 169.839844 37.484375 170.207031 C 37.242188 170.570312 36.75 170.671875 36.382812 170.429688 C 36.21875 170.324219 36.171875 170.230469 36.136719 170.171875 C 35.835938 169.679688 35.976562 169.53125 35.960938 169.390625 C 35.953125 169.328125 35.941406 169.285156 35.9375 169.273438 C 35.933594 169.269531 36.019531 169.359375 35.984375 169.328125 C 35.652344 169.042969 35.613281 168.539062 35.898438 168.207031 C 36.1875 167.875 36.6875 167.839844 37.019531 168.125 C 37.417969 168.46875 37.503906 168.910156 37.539062 169.199219 C 37.554688 169.332031 37.558594 169.441406 37.566406 169.503906 C 37.566406 169.527344 37.566406 169.511719 37.566406 169.527344 C 37.570312 169.546875 37.433594 169.25 37.496094 169.351562 C 37.511719 169.378906 37.394531 169.214844 37.425781 169.253906 C 37.460938 169.296875 37.171875 169.050781 37.257812 169.105469 "/>
<path style=" stroke:none;fill-rule:nonzero;fill:rgb(0%,45.097351%,23.136902%);fill-opacity:1;" d="M 96.699219 162.601562 C 96.261719 162.648438 95.867188 162.335938 95.820312 161.898438 C 95.773438 161.460938 96.085938 161.070312 96.523438 161.023438 C 96.746094 161 96.773438 160.949219 96.875 160.753906 C 96.980469 160.5625 97.0625 160.394531 97.0625 160.394531 C 97.082031 160.328125 97.039062 160.699219 97.035156 160.621094 C 97.027344 160.539062 97.160156 160.960938 97.113281 160.875 C 97.0625 160.785156 97.507812 161.210938 97.371094 161.132812 C 97.304688 161.09375 97.71875 161.234375 97.621094 161.222656 C 97.523438 161.207031 98.03125 161.175781 97.929688 161.203125 C 97.785156 161.242188 98.242188 161.023438 98.195312 161.0625 C 98.15625 161.097656 98.265625 160.984375 98.257812 160.996094 C 98.25 161.007812 98.246094 161.015625 98.222656 161.066406 C 98.164062 161.179688 98.085938 161.371094 98.007812 161.597656 C 97.84375 162.074219 97.679688 162.660156 97.550781 163.179688 C 97.390625 163.839844 97.300781 164.40625 97.386719 164.785156 C 97.453125 165.082031 97.542969 165.242188 97.617188 165.300781 C 97.714844 165.378906 98.078125 165.484375 98.59375 165.460938 C 99.140625 165.433594 99.796875 165.296875 100.457031 165.082031 C 101.785156 164.648438 103.035156 163.878906 103.363281 163.382812 C 103.605469 163.015625 104.097656 162.914062 104.464844 163.15625 C 104.832031 163.398438 104.933594 163.890625 104.691406 164.257812 C 103.957031 165.367188 102.488281 166.089844 100.949219 166.589844 C 100.183594 166.84375 99.402344 167.011719 98.667969 167.046875 C 97.941406 167.082031 97.21875 167.007812 96.640625 166.554688 C 96.125 166.15625 95.9375 165.589844 95.835938 165.132812 C 95.652344 164.308594 95.832031 163.523438 96.007812 162.800781 C 96.144531 162.238281 96.320312 161.621094 96.507812 161.078125 C 96.597656 160.816406 96.691406 160.574219 96.796875 160.363281 C 96.847656 160.257812 96.902344 160.15625 96.980469 160.046875 C 97.066406 159.933594 97.167969 159.765625 97.503906 159.671875 C 97.738281 159.605469 97.988281 159.65625 98.160156 159.753906 C 98.324219 159.847656 98.429688 159.972656 98.5 160.097656 C 98.640625 160.347656 98.65625 160.636719 98.570312 160.894531 C 98.484375 161.152344 98.375 161.320312 98.28125 161.496094 C 98.027344 161.980469 97.464844 162.519531 96.699219 162.601562 "/>
<path style=" stroke:none;fill-rule:nonzero;fill:rgb(0%,45.097351%,23.136902%);fill-opacity:1;" d="M 102.398438 160.742188 C 102.515625 160.320312 102.953125 160.070312 103.378906 160.191406 C 103.800781 160.308594 104.046875 160.746094 103.929688 161.167969 C 103.636719 162.222656 102.871094 162.679688 102.699219 162.859375 C 102.675781 162.878906 102.605469 163.179688 102.574219 163.855469 C 102.511719 165.242188 102.558594 167.277344 102.578125 169.027344 C 102.585938 169.941406 102.5625 170.660156 102.605469 171.132812 C 102.640625 171.550781 102.691406 171.585938 102.699219 171.589844 C 103.078125 171.8125 103.207031 172.296875 102.988281 172.675781 C 102.765625 173.058594 102.28125 173.1875 101.902344 172.964844 C 101.277344 172.601562 101.078125 171.898438 101.023438 171.277344 C 100.964844 170.644531 100.996094 169.921875 100.988281 169.046875 C 100.96875 167.300781 100.921875 165.261719 100.988281 163.78125 C 101.019531 163.070312 100.980469 162.339844 101.5625 161.746094 C 102.027344 161.269531 102.246094 161.289062 102.398438 160.742188 "/>
<path style=" stroke:none;fill-rule:nonzero;fill:rgb(0%,45.097351%,23.136902%);fill-opacity:1;" d="M 157.617188 159.457031 C 158 159.664062 158.144531 160.148438 157.933594 160.53125 C 157.726562 160.917969 157.242188 161.0625 156.859375 160.851562 C 156.21875 160.503906 155.917969 159.949219 155.75 159.644531 C 155.722656 159.597656 155.703125 159.5625 155.699219 159.558594 C 155.699219 159.558594 155.734375 159.601562 155.71875 159.582031 C 155.699219 159.558594 155.921875 159.746094 155.847656 159.695312 C 155.804688 159.667969 156.097656 159.804688 156.019531 159.78125 C 155.9375 159.753906 156.4375 159.808594 156.320312 159.820312 C 156.214844 159.828125 156.753906 159.652344 156.660156 159.710938 C 156.570312 159.765625 156.90625 159.476562 156.863281 159.53125 C 156.78125 159.636719 156.988281 159.277344 156.976562 159.320312 C 156.964844 159.355469 156.988281 159.269531 156.988281 159.269531 C 156.882812 159.992188 157.195312 162.574219 157.375 165.003906 C 157.472656 166.300781 157.476562 167.550781 157.480469 168.515625 C 157.484375 169.039062 157.460938 169.453125 157.476562 169.65625 C 157.492188 169.808594 157.5 169.925781 157.503906 169.949219 C 157.503906 169.953125 157.417969 169.742188 157.460938 169.832031 C 157.488281 169.882812 157.238281 169.5625 157.316406 169.636719 C 157.398438 169.714844 156.851562 169.425781 156.980469 169.457031 C 157.109375 169.488281 156.582031 169.472656 156.664062 169.457031 C 156.738281 169.4375 156.484375 169.527344 156.511719 169.511719 C 156.5625 169.484375 156.46875 169.539062 156.492188 169.519531 C 156.558594 169.460938 156.691406 169.320312 156.875 169.105469 C 157.160156 168.773438 157.664062 168.734375 157.996094 169.019531 C 158.328125 169.304688 158.367188 169.804688 158.082031 170.140625 C 157.878906 170.378906 157.714844 170.554688 157.554688 170.703125 C 157.472656 170.773438 157.390625 170.84375 157.265625 170.910156 C 157.132812 170.980469 156.914062 171.074219 156.617188 171.003906 C 156.316406 170.933594 156.113281 170.691406 156.035156 170.53125 C 155.964844 170.386719 155.945312 170.28125 155.933594 170.199219 C 155.910156 170.039062 155.90625 169.914062 155.894531 169.796875 C 155.859375 169.394531 155.894531 168.992188 155.890625 168.523438 C 155.886719 167.566406 155.882812 166.351562 155.789062 165.121094 C 155.703125 163.9375 155.578125 162.699219 155.488281 161.597656 C 155.398438 160.53125 155.320312 159.683594 155.417969 159.039062 C 155.433594 158.925781 155.429688 158.785156 155.613281 158.546875 C 155.71875 158.414062 155.9375 158.257812 156.191406 158.234375 C 156.449219 158.214844 156.628906 158.304688 156.734375 158.375 C 157.082031 158.613281 157.070312 158.746094 157.140625 158.875 C 157.28125 159.132812 157.4375 159.359375 157.617188 159.457031 "/>
<path style=" stroke:none;fill-rule:nonzero;fill:rgb(0%,45.097351%,23.136902%);fill-opacity:1;" d="M 164.78125 161.953125 C 164.722656 162.390625 164.324219 162.695312 163.886719 162.636719 C 163.453125 162.578125 163.148438 162.179688 163.203125 161.746094 C 163.226562 161.59375 163.238281 161.480469 163.242188 161.414062 C 163.246094 161.382812 163.246094 161.378906 163.246094 161.375 C 163.246094 161.367188 163.25 161.449219 163.25 161.421875 C 163.246094 161.386719 163.335938 161.722656 163.292969 161.613281 C 163.269531 161.550781 163.550781 161.96875 163.453125 161.867188 C 163.410156 161.816406 163.710938 162.054688 163.636719 162.007812 C 163.5625 161.96875 163.976562 162.117188 163.886719 162.101562 C 163.714844 162.070312 164.441406 162.007812 164.332031 162.054688 C 164.238281 162.09375 164.578125 161.894531 164.53125 161.933594 C 164.457031 161.996094 164.6875 161.757812 164.664062 161.792969 C 164.601562 161.878906 164.734375 161.671875 164.730469 161.679688 C 164.730469 161.679688 164.710938 161.738281 164.683594 161.828125 C 164.554688 162.242188 164.34375 163.0625 164.074219 164.089844 C 163.777344 165.203125 163.398438 166.4375 163.152344 167.574219 C 162.96875 168.421875 162.882812 169.191406 162.894531 169.773438 C 162.898438 170.015625 162.894531 170.207031 162.90625 170.324219 C 162.914062 170.425781 162.875 170.351562 162.902344 170.390625 C 162.914062 170.410156 162.914062 170.410156 163.039062 170.449219 C 163.179688 170.496094 163.402344 170.53125 163.667969 170.535156 C 164.222656 170.542969 164.902344 170.4375 165.507812 170.269531 C 166.273438 170.058594 166.949219 169.609375 167.371094 169.195312 C 167.574219 169 167.621094 168.863281 167.625 168.863281 C 167.632812 168.789062 167.613281 168.710938 167.523438 168.617188 C 167.296875 168.382812 166.242188 168.109375 165.085938 168.203125 C 163.917969 168.296875 162.761719 168.703125 162.285156 169.183594 C 161.976562 169.496094 161.472656 169.496094 161.164062 169.1875 C 160.851562 168.878906 160.847656 168.375 161.15625 168.066406 C 162.085938 167.125 163.539062 166.734375 164.957031 166.617188 C 166.367188 166.503906 167.792969 166.601562 168.667969 167.515625 C 169.0625 167.925781 169.269531 168.5 169.199219 169.0625 C 169.132812 169.59375 168.824219 169.996094 168.480469 170.332031 C 167.878906 170.917969 167.007812 171.503906 165.933594 171.800781 C 165.203125 172.003906 164.40625 172.136719 163.640625 172.125 C 163.265625 172.117188 162.894531 172.078125 162.539062 171.960938 C 162.183594 171.84375 161.816406 171.632812 161.574219 171.265625 C 161.207031 170.707031 161.316406 170.210938 161.304688 169.808594 C 161.289062 169.054688 161.394531 168.179688 161.597656 167.242188 C 161.863281 166.015625 162.253906 164.757812 162.539062 163.679688 C 162.808594 162.660156 163.015625 161.847656 163.160156 161.363281 C 163.195312 161.253906 163.222656 161.164062 163.265625 161.066406 C 163.285156 161.011719 163.292969 160.957031 163.414062 160.8125 C 163.488281 160.726562 163.644531 160.503906 164.074219 160.527344 C 164.523438 160.550781 164.726562 160.902344 164.777344 161.042969 C 164.929688 161.433594 164.835938 161.433594 164.828125 161.542969 C 164.816406 161.65625 164.800781 161.789062 164.78125 161.953125 "/>
<path style=" stroke:none;fill-rule:nonzero;fill:rgb(7.058716%,1.176453%,46.665955%);fill-opacity:1;" d="M 16.867188 165.351562 C 16.867188 166.855469 16.054688 168.171875 14.84375 168.878906 C 14.238281 169.234375 13.535156 169.433594 12.785156 169.433594 C 11.28125 169.433594 9.964844 168.621094 9.257812 167.410156 C 8.902344 166.804688 8.703125 166.101562 8.703125 165.351562 C 8.703125 163.847656 9.515625 162.53125 10.726562 161.824219 C 11.332031 161.472656 12.035156 161.269531 12.785156 161.269531 C 14.289062 161.269531 15.605469 162.082031 16.3125 163.292969 C 16.664062 163.898438 16.867188 164.601562 16.867188 165.351562 M 15.675781 165.351562 C 15.675781 164.820312 15.535156 164.324219 15.285156 163.894531 C 14.78125 163.039062 13.851562 162.460938 12.785156 162.460938 C 12.253906 162.460938 11.757812 162.601562 11.328125 162.851562 C 10.46875 163.355469 9.894531 164.285156 9.894531 165.351562 C 9.894531 165.882812 10.035156 166.378906 10.285156 166.808594 C 10.789062 167.667969 11.71875 168.242188 12.785156 168.242188 C 13.316406 168.242188 13.8125 168.101562 14.242188 167.851562 C 15.097656 167.347656 15.675781 166.417969 15.675781 165.351562 "/>
<path style=" stroke:none;fill-rule:nonzero;fill:rgb(7.058716%,1.176453%,46.665955%);fill-opacity:1;" d="M 16.867188 26.871094 C 16.867188 28.375 16.054688 29.691406 14.84375 30.398438 C 14.238281 30.75 13.535156 30.953125 12.785156 30.953125 C 11.28125 30.953125 9.964844 30.140625 9.257812 28.925781 C 8.902344 28.324219 8.703125 27.621094 8.703125 26.871094 C 8.703125 25.363281 9.515625 24.050781 10.726562 23.34375 C 11.332031 22.988281 12.035156 22.785156 12.785156 22.785156 C 14.289062 22.785156 15.605469 23.601562 16.3125 24.8125 C 16.664062 25.417969 16.867188 26.121094 16.867188 26.871094 M 15.675781 26.871094 C 15.675781 26.339844 15.535156 25.839844 15.285156 25.414062 C 14.78125 24.554688 13.851562 23.980469 12.785156 23.980469 C 12.253906 23.980469 11.757812 24.121094 11.328125 24.371094 C 10.46875 24.871094 9.894531 25.804688 9.894531 26.871094 C 9.894531 27.402344 10.035156 27.898438 10.285156 28.324219 C 10.789062 29.183594 11.71875 29.761719 12.785156 29.761719 C 13.316406 29.761719 13.8125 29.617188 14.242188 29.367188 C 15.097656 28.867188 15.675781 27.9375 15.675781 26.871094 "/>
</g>
</svg>
