<?xml version="1.0" encoding="UTF-8"?>
<svg xmlns="http://www.w3.org/2000/svg" xmlns:xlink="http://www.w3.org/1999/xlink" width="223.1874pt" height="275.9327pt" viewBox="0 0 223.1874 275.9327" version="1.2">
<g id="surface1">
<path style=" stroke:none;fill-rule:nonzero;fill:rgb(7.058716%,1.176453%,46.665955%);fill-opacity:1;" d="M 81.570312 148.167969 C 81.566406 147.839844 81.828125 147.570312 82.15625 147.5625 C 82.484375 147.558594 82.757812 147.820312 82.761719 148.148438 C 82.953125 159.941406 82.953125 171.113281 82.761719 181.671875 C 82.753906 182 82.484375 182.261719 82.15625 182.257812 C 81.828125 182.25 81.566406 181.980469 81.570312 181.648438 C 81.761719 171.105469 81.761719 159.945312 81.570312 148.167969 "/>
<path style=" stroke:none;fill-rule:nonzero;fill:rgb(7.058716%,1.176453%,46.665955%);fill-opacity:1;" d="M 82.179688 148.753906 C 81.851562 148.761719 81.578125 148.5 81.570312 148.171875 C 81.5625 147.84375 81.824219 147.570312 82.152344 147.5625 C 103.230469 147.097656 114.976562 152.976562 117.160156 165.269531 C 117.214844 165.59375 117 165.902344 116.675781 165.960938 C 116.351562 166.015625 116.042969 165.800781 115.984375 165.476562 C 113.933594 153.898438 102.742188 148.300781 82.179688 148.753906 "/>
<path style=" stroke:none;fill-rule:nonzero;fill:rgb(7.058716%,1.176453%,46.665955%);fill-opacity:1;" d="M 82.113281 182.253906 C 81.785156 182.226562 81.542969 181.9375 81.574219 181.609375 C 81.601562 181.28125 81.890625 181.039062 82.21875 181.066406 C 101.984375 182.8125 113.160156 177.519531 115.992188 165.238281 C 116.066406 164.917969 116.386719 164.71875 116.707031 164.792969 C 117.027344 164.867188 117.226562 165.1875 117.152344 165.507812 C 114.164062 178.476562 102.402344 184.042969 82.113281 182.253906 "/>
<path style=" stroke:none;fill-rule:nonzero;fill:rgb(7.058716%,1.176453%,46.665955%);fill-opacity:1;" d="M 123.539062 165.984375 C 123.207031 165.984375 122.941406 165.714844 122.941406 165.386719 C 122.941406 165.058594 123.207031 164.792969 123.539062 164.792969 L 130.503906 164.792969 C 130.835938 164.792969 131.101562 165.058594 131.101562 165.386719 C 131.101562 165.714844 130.835938 165.984375 130.503906 165.984375 Z M 123.539062 165.984375 "/>
<path style=" stroke:none;fill-rule:nonzero;fill:rgb(7.058716%,1.176453%,46.665955%);fill-opacity:1;" d="M 70.8125 157.277344 C 70.480469 157.277344 70.214844 157.011719 70.214844 156.683594 C 70.214844 156.355469 70.480469 156.085938 70.8125 156.085938 L 82.308594 156.085938 C 82.636719 156.085938 82.90625 156.355469 82.90625 156.683594 C 82.90625 157.011719 82.636719 157.277344 82.308594 157.277344 Z M 70.8125 157.277344 "/>
<path style=" stroke:none;fill-rule:nonzero;fill:rgb(7.058716%,1.176453%,46.665955%);fill-opacity:1;" d="M 70.171875 174.597656 C 69.839844 174.597656 69.574219 174.332031 69.574219 174 C 69.574219 173.671875 69.839844 173.40625 70.171875 173.40625 L 82.269531 173.40625 C 82.597656 173.40625 82.867188 173.671875 82.867188 174 C 82.867188 174.332031 82.597656 174.597656 82.269531 174.597656 Z M 70.171875 174.597656 "/>
<path style=" stroke:none;fill-rule:nonzero;fill:rgb(7.058716%,1.176453%,46.665955%);fill-opacity:1;" d="M 124.136719 165.507812 C 124.136719 167.011719 123.320312 168.324219 122.109375 169.035156 C 121.507812 169.386719 120.804688 169.589844 120.054688 169.589844 C 118.550781 169.589844 117.238281 168.773438 116.53125 167.5625 C 116.175781 166.960938 115.972656 166.257812 115.972656 165.507812 C 115.972656 164.003906 116.789062 162.691406 118 161.984375 C 118.601562 161.628906 119.304688 161.429688 120.054688 161.429688 C 121.558594 161.429688 122.871094 162.242188 123.578125 163.453125 C 123.933594 164.054688 124.136719 164.757812 124.136719 165.507812 M 122.945312 165.507812 C 122.945312 164.976562 122.800781 164.480469 122.550781 164.054688 C 122.050781 163.195312 121.121094 162.617188 120.054688 162.617188 C 119.523438 162.617188 119.027344 162.761719 118.597656 163.011719 C 117.742188 163.511719 117.164062 164.441406 117.164062 165.507812 C 117.164062 166.039062 117.308594 166.535156 117.558594 166.964844 C 118.058594 167.820312 118.988281 168.398438 120.054688 168.398438 C 120.585938 168.398438 121.082031 168.253906 121.507812 168.003906 C 122.367188 167.503906 122.945312 166.574219 122.945312 165.507812 "/>
<path style=" stroke:none;fill-rule:nonzero;fill:rgb(7.058716%,1.176453%,46.665955%);fill-opacity:1;" d="M 81.570312 213.953125 C 81.566406 213.625 81.828125 213.351562 82.15625 213.347656 C 82.484375 213.34375 82.757812 213.605469 82.761719 213.933594 C 82.953125 225.726562 82.953125 236.898438 82.761719 247.457031 C 82.753906 247.785156 82.484375 248.046875 82.15625 248.039062 C 81.828125 248.035156 81.566406 247.761719 81.570312 247.433594 C 81.761719 236.890625 81.761719 225.730469 81.570312 213.953125 "/>
<path style=" stroke:none;fill-rule:nonzero;fill:rgb(7.058716%,1.176453%,46.665955%);fill-opacity:1;" d="M 82.179688 214.539062 C 81.851562 214.546875 81.578125 214.285156 81.570312 213.957031 C 81.5625 213.628906 81.824219 213.355469 82.152344 213.347656 C 103.230469 212.882812 114.976562 218.757812 117.160156 231.054688 C 117.214844 231.378906 117 231.6875 116.675781 231.742188 C 116.351562 231.800781 116.042969 231.585938 115.984375 231.261719 C 113.933594 219.683594 102.742188 214.085938 82.179688 214.539062 "/>
<path style=" stroke:none;fill-rule:nonzero;fill:rgb(7.058716%,1.176453%,46.665955%);fill-opacity:1;" d="M 82.113281 248.039062 C 81.785156 248.007812 81.542969 247.71875 81.574219 247.394531 C 81.601562 247.066406 81.890625 246.824219 82.21875 246.851562 C 101.984375 248.597656 113.160156 243.304688 115.992188 231.023438 C 116.066406 230.703125 116.386719 230.503906 116.707031 230.578125 C 117.027344 230.652344 117.226562 230.96875 117.152344 231.289062 C 114.164062 244.261719 102.402344 249.828125 82.113281 248.039062 "/>
<path style=" stroke:none;fill-rule:nonzero;fill:rgb(7.058716%,1.176453%,46.665955%);fill-opacity:1;" d="M 123.539062 231.765625 C 123.207031 231.765625 122.941406 231.5 122.941406 231.171875 C 122.941406 230.84375 123.207031 230.574219 123.539062 230.574219 L 130.503906 230.574219 C 130.835938 230.574219 131.101562 230.84375 131.101562 231.171875 C 131.101562 231.5 130.835938 231.765625 130.503906 231.765625 Z M 123.539062 231.765625 "/>
<path style=" stroke:none;fill-rule:nonzero;fill:rgb(7.058716%,1.176453%,46.665955%);fill-opacity:1;" d="M 70.8125 223.0625 C 70.480469 223.0625 70.214844 222.796875 70.214844 222.46875 C 70.214844 222.136719 70.480469 221.871094 70.8125 221.871094 L 82.308594 221.871094 C 82.636719 221.871094 82.90625 222.136719 82.90625 222.46875 C 82.90625 222.796875 82.636719 223.0625 82.308594 223.0625 Z M 70.8125 223.0625 "/>
<path style=" stroke:none;fill-rule:nonzero;fill:rgb(7.058716%,1.176453%,46.665955%);fill-opacity:1;" d="M 70.171875 240.382812 C 69.839844 240.382812 69.574219 240.113281 69.574219 239.785156 C 69.574219 239.457031 69.839844 239.191406 70.171875 239.191406 L 82.269531 239.191406 C 82.597656 239.191406 82.867188 239.457031 82.867188 239.785156 C 82.867188 240.113281 82.597656 240.382812 82.269531 240.382812 Z M 70.171875 240.382812 "/>
<path style=" stroke:none;fill-rule:nonzero;fill:rgb(7.058716%,1.176453%,46.665955%);fill-opacity:1;" d="M 124.136719 231.292969 C 124.136719 232.796875 123.320312 234.109375 122.109375 234.816406 C 121.507812 235.171875 120.804688 235.371094 120.054688 235.371094 C 118.550781 235.371094 117.238281 234.558594 116.53125 233.347656 C 116.175781 232.746094 115.972656 232.042969 115.972656 231.292969 C 115.972656 229.789062 116.789062 228.476562 118 227.765625 C 118.601562 227.414062 119.304688 227.210938 120.054688 227.210938 C 121.558594 227.210938 122.871094 228.027344 123.578125 229.238281 C 123.933594 229.839844 124.136719 230.542969 124.136719 231.292969 M 122.945312 231.292969 C 122.945312 230.761719 122.800781 230.265625 122.550781 229.835938 C 122.050781 228.980469 121.121094 228.402344 120.054688 228.402344 C 119.523438 228.402344 119.027344 228.546875 118.597656 228.796875 C 117.742188 229.296875 117.164062 230.226562 117.164062 231.292969 C 117.164062 231.824219 117.308594 232.320312 117.558594 232.746094 C 118.058594 233.605469 118.988281 234.183594 120.054688 234.183594 C 120.585938 234.183594 121.082031 234.039062 121.507812 233.789062 C 122.367188 233.289062 122.945312 232.359375 122.945312 231.292969 "/>
<path style=" stroke:none;fill-rule:nonzero;fill:rgb(7.058716%,1.176453%,46.665955%);fill-opacity:1;" d="M 70.8125 156.085938 C 71.140625 156.085938 71.40625 156.355469 71.40625 156.683594 C 71.40625 157.011719 71.140625 157.277344 70.8125 157.277344 L 40.722656 157.277344 C 40.394531 157.277344 40.128906 157.011719 40.128906 156.683594 C 40.128906 156.355469 40.394531 156.085938 40.722656 156.085938 Z M 70.8125 156.085938 "/>
<path style=" stroke:none;fill-rule:nonzero;fill:rgb(7.058716%,1.176453%,46.665955%);fill-opacity:1;" d="M 71.046875 239.191406 C 71.378906 239.191406 71.644531 239.457031 71.644531 239.785156 C 71.644531 240.113281 71.378906 240.382812 71.046875 240.382812 L 41.074219 240.382812 C 40.746094 240.382812 40.480469 240.113281 40.480469 239.785156 C 40.480469 239.457031 40.746094 239.191406 41.074219 239.191406 Z M 71.046875 239.191406 "/>
<path style=" stroke:none;fill-rule:nonzero;fill:rgb(7.058716%,1.176453%,46.665955%);fill-opacity:1;" d="M 130.503906 165.984375 C 130.175781 165.984375 129.910156 165.714844 129.910156 165.386719 C 129.910156 165.058594 130.175781 164.792969 130.503906 164.792969 L 180.714844 164.792969 C 181.042969 164.792969 181.308594 165.058594 181.308594 165.386719 C 181.308594 165.714844 181.042969 165.984375 180.714844 165.984375 Z M 130.503906 165.984375 "/>
<path style=" stroke:none;fill-rule:nonzero;fill:rgb(7.058716%,1.176453%,46.665955%);fill-opacity:1;" d="M 144.585938 165.386719 C 144.585938 165.058594 144.851562 164.792969 145.179688 164.792969 C 145.507812 164.792969 145.777344 165.058594 145.777344 165.386719 L 145.777344 185.324219 C 145.777344 185.652344 145.507812 185.917969 145.179688 185.917969 C 144.851562 185.917969 144.585938 185.652344 144.585938 185.324219 Z M 144.585938 165.386719 "/>
<path style=" stroke:none;fill-rule:nonzero;fill:rgb(7.058716%,1.176453%,46.665955%);fill-opacity:1;" d="M 145.042969 184.742188 C 145.363281 184.667969 145.683594 184.867188 145.757812 185.1875 C 145.835938 185.507812 145.636719 185.828125 145.316406 185.902344 L 65.148438 204.777344 C 64.828125 204.855469 64.507812 204.65625 64.433594 204.335938 C 64.355469 204.015625 64.554688 203.695312 64.875 203.621094 Z M 145.042969 184.742188 "/>
<path style=" stroke:none;fill-rule:nonzero;fill:rgb(7.058716%,1.176453%,46.665955%);fill-opacity:1;" d="M 64.417969 204.199219 C 64.417969 203.871094 64.683594 203.605469 65.011719 203.605469 C 65.339844 203.605469 65.609375 203.871094 65.609375 204.199219 L 65.609375 222.390625 C 65.609375 222.722656 65.339844 222.988281 65.011719 222.988281 C 64.683594 222.988281 64.417969 222.722656 64.417969 222.390625 Z M 64.417969 204.199219 "/>
<path style=" stroke:none;fill-rule:nonzero;fill:rgb(7.058716%,1.176453%,46.665955%);fill-opacity:1;" d="M 65.011719 222.988281 C 64.683594 222.988281 64.417969 222.722656 64.417969 222.390625 C 64.417969 222.0625 64.683594 221.796875 65.011719 221.796875 L 73.34375 221.796875 C 73.675781 221.796875 73.941406 222.0625 73.941406 222.390625 C 73.941406 222.722656 73.675781 222.988281 73.34375 222.988281 Z M 65.011719 222.988281 "/>
<path style=" stroke:none;fill-rule:nonzero;fill:rgb(7.058716%,1.176453%,46.665955%);fill-opacity:1;" d="M 69.574219 174 C 69.574219 173.671875 69.839844 173.40625 70.171875 173.40625 C 70.5 173.40625 70.765625 173.671875 70.765625 174 L 70.765625 185.765625 C 70.765625 186.09375 70.5 186.363281 70.171875 186.363281 C 69.839844 186.363281 69.574219 186.09375 69.574219 185.765625 Z M 69.574219 174 "/>
<path style=" stroke:none;fill-rule:nonzero;fill:rgb(7.058716%,1.176453%,46.665955%);fill-opacity:1;" d="M 69.933594 186.3125 C 69.632812 186.179688 69.492188 185.828125 69.625 185.527344 C 69.753906 185.226562 70.105469 185.089844 70.40625 185.21875 L 144.417969 217.453125 C 144.71875 217.585938 144.855469 217.9375 144.726562 218.238281 C 144.59375 218.539062 144.242188 218.679688 143.941406 218.546875 Z M 69.933594 186.3125 "/>
<path style=" stroke:none;fill-rule:nonzero;fill:rgb(7.058716%,1.176453%,46.665955%);fill-opacity:1;" d="M 143.585938 218 C 143.585938 217.671875 143.851562 217.40625 144.179688 217.40625 C 144.507812 217.40625 144.773438 217.671875 144.773438 218 L 144.773438 232.269531 C 144.773438 232.597656 144.507812 232.863281 144.179688 232.863281 C 143.851562 232.863281 143.585938 232.597656 143.585938 232.269531 Z M 143.585938 218 "/>
<path style=" stroke:none;fill-rule:nonzero;fill:rgb(7.058716%,1.176453%,46.665955%);fill-opacity:1;" d="M 144.222656 231.675781 C 144.550781 231.699219 144.796875 231.984375 144.773438 232.3125 C 144.75 232.640625 144.464844 232.886719 144.136719 232.863281 L 129.242188 231.765625 C 128.914062 231.742188 128.667969 231.457031 128.691406 231.128906 C 128.714844 230.800781 129 230.554688 129.328125 230.578125 Z M 144.222656 231.675781 "/>
<path style=" stroke:none;fill-rule:nonzero;fill:rgb(7.058716%,1.176453%,46.665955%);fill-opacity:1;" d="M 144.179688 232.863281 C 143.851562 232.863281 143.585938 232.597656 143.585938 232.269531 C 143.585938 231.941406 143.851562 231.671875 144.179688 231.671875 L 185.488281 231.671875 C 185.816406 231.671875 186.082031 231.941406 186.082031 232.269531 C 186.082031 232.597656 185.816406 232.863281 185.488281 232.863281 Z M 144.179688 232.863281 "/>
<path style=" stroke:none;fill-rule:nonzero;fill:rgb(92.941284%,21.176147%,14.117432%);fill-opacity:1;" d="M 194.605469 162.175781 C 194.335938 162.367188 193.964844 162.304688 193.773438 162.035156 C 193.582031 161.765625 193.648438 161.394531 193.914062 161.207031 C 194.003906 161.140625 194.085938 161.046875 194.121094 160.984375 C 194.136719 160.957031 194.132812 160.976562 194.132812 160.960938 C 194.136719 160.949219 194.136719 161.058594 194.132812 161.027344 C 194.128906 160.988281 194.199219 161.214844 194.171875 161.164062 C 194.136719 161.097656 194.371094 161.378906 194.320312 161.339844 C 194.265625 161.300781 194.488281 161.421875 194.453125 161.410156 C 194.390625 161.390625 194.539062 161.421875 194.535156 161.421875 C 194.503906 161.425781 194.390625 161.449219 194.253906 161.503906 C 193.945312 161.625 193.539062 161.851562 193.136719 162.148438 C 192.390625 162.699219 191.621094 163.601562 191.25 164.511719 C 191.074219 164.941406 191.035156 165.394531 191.097656 165.734375 C 191.144531 165.984375 191.222656 166.128906 191.335938 166.226562 C 191.699219 166.523438 192.949219 166.582031 194.246094 166.316406 C 195.15625 166.132812 196.097656 165.742188 196.925781 165.335938 C 198.359375 164.632812 199.089844 163.941406 199.253906 163.398438 C 199.335938 163.121094 199.351562 162.875 199.25 162.519531 C 198.941406 161.445312 197.882812 159.824219 196.757812 158.902344 C 196.402344 158.613281 196.042969 158.445312 195.71875 158.394531 C 195.402344 158.34375 195.105469 158.394531 194.824219 158.546875 C 194.238281 158.871094 193.667969 159.742188 193.453125 161.203125 C 193.402344 161.527344 193.101562 161.75 192.773438 161.703125 C 192.449219 161.65625 192.226562 161.351562 192.273438 161.027344 C 192.527344 159.328125 193.222656 158.070312 194.25 157.503906 C 194.757812 157.226562 195.339844 157.128906 195.902344 157.21875 C 196.46875 157.308594 197.019531 157.578125 197.511719 157.980469 C 198.863281 159.085938 199.992188 160.78125 200.394531 162.1875 C 200.558594 162.75 200.53125 163.285156 200.394531 163.746094 C 200.070312 164.8125 199.015625 165.636719 197.453125 166.40625 C 196.570312 166.839844 195.546875 167.269531 194.484375 167.484375 C 193.046875 167.777344 191.546875 167.9375 190.582031 167.144531 C 190.195312 166.828125 190.007812 166.375 189.929688 165.949219 C 189.820312 165.363281 189.886719 164.699219 190.148438 164.0625 C 190.625 162.890625 191.511719 161.871094 192.429688 161.191406 C 192.910156 160.835938 193.390625 160.566406 193.816406 160.398438 C 194.027344 160.316406 194.222656 160.253906 194.429688 160.238281 C 194.539062 160.226562 194.65625 160.226562 194.800781 160.269531 C 194.949219 160.3125 195.136719 160.429688 195.238281 160.628906 C 195.335938 160.828125 195.335938 161.019531 195.304688 161.171875 C 195.28125 161.320312 195.226562 161.449219 195.160156 161.5625 C 195.03125 161.796875 194.84375 162.007812 194.605469 162.175781 "/>
<path style=" stroke:none;fill-rule:nonzero;fill:rgb(92.941284%,21.176147%,14.117432%);fill-opacity:1;" d="M 195.265625 164.738281 C 194.972656 164.886719 194.613281 164.769531 194.464844 164.476562 C 194.316406 164.179688 194.433594 163.824219 194.726562 163.675781 C 194.941406 163.566406 195.171875 163.492188 195.421875 163.5 C 195.664062 163.507812 195.90625 163.597656 196.082031 163.734375 C 196.433594 164 196.59375 164.375 196.722656 164.75 C 197.417969 166.800781 198.957031 169.976562 200.257812 170.652344 C 200.550781 170.804688 200.664062 171.164062 200.511719 171.457031 C 200.359375 171.746094 200 171.863281 199.710938 171.710938 C 198.6875 171.179688 197.910156 170.035156 197.214844 168.785156 C 196.511719 167.527344 195.953125 166.1875 195.59375 165.132812 C 195.5 164.863281 195.390625 164.703125 195.363281 164.683594 C 195.359375 164.679688 195.398438 164.691406 195.390625 164.691406 C 195.386719 164.691406 195.351562 164.691406 195.265625 164.738281 "/>
<path style=" stroke:none;fill-rule:nonzero;fill:rgb(92.941284%,21.176147%,14.117432%);fill-opacity:1;" d="M 197.203125 224.1875 C 197.300781 224.5 197.125 224.832031 196.8125 224.933594 C 196.496094 225.03125 196.164062 224.855469 196.066406 224.542969 C 195.960938 224.203125 196.09375 224.089844 196.140625 224.015625 C 196.183594 223.953125 196.214844 223.917969 196.242188 223.890625 C 196.292969 223.835938 196.347656 223.789062 196.402344 223.742188 C 196.519531 223.644531 196.648438 223.539062 196.777344 223.433594 C 196.875 223.347656 196.964844 223.242188 196.992188 223.191406 C 197 223.183594 196.992188 223.195312 196.996094 223.1875 C 197 223.179688 196.972656 223.304688 196.980469 223.261719 C 196.984375 223.214844 197.050781 223.59375 197.011719 223.496094 C 196.972656 223.390625 197.300781 223.789062 197.21875 223.742188 C 197.203125 223.734375 197.367188 223.796875 197.34375 223.792969 C 197.28125 223.777344 197.390625 223.792969 197.335938 223.808594 C 197.25 223.824219 197.105469 223.878906 196.9375 223.957031 C 196.585938 224.121094 196.152344 224.390625 195.722656 224.710938 C 195.316406 225.015625 194.90625 225.414062 194.515625 225.902344 C 194.09375 226.429688 193.703125 227.042969 193.410156 227.722656 C 193.109375 228.40625 192.972656 229.238281 192.898438 230.042969 C 192.8125 231.042969 192.9375 231.953125 193.230469 232.523438 C 193.382812 232.816406 193.660156 233 194.074219 233.097656 C 194.511719 233.203125 195.066406 233.1875 195.628906 233.082031 C 196.171875 232.980469 196.75 232.742188 197.3125 232.453125 C 198.011719 232.089844 198.640625 231.640625 199.105469 231.160156 C 199.71875 230.535156 200.011719 229.835938 200.105469 229.121094 C 200.171875 228.589844 200.207031 228.109375 200.09375 227.660156 C 199.9375 227.042969 199.449219 226.359375 198.929688 225.761719 C 198.382812 225.136719 197.800781 224.746094 197.402344 224.640625 C 197.222656 224.59375 197.117188 224.609375 197.066406 224.628906 C 197.023438 224.648438 196.980469 224.679688 196.929688 224.824219 C 196.824219 225.132812 196.484375 225.300781 196.175781 225.195312 C 195.863281 225.085938 195.699219 224.75 195.804688 224.4375 C 195.9375 224.046875 196.214844 223.707031 196.582031 223.542969 C 196.941406 223.382812 197.339844 223.390625 197.707031 223.488281 C 198.449219 223.6875 199.167969 224.226562 199.824219 224.980469 C 200.398438 225.636719 201.011719 226.429688 201.246094 227.367188 C 201.417969 228.046875 201.359375 228.695312 201.285156 229.277344 C 201.160156 230.214844 200.75 231.179688 199.960938 231.992188 C 199.382812 232.582031 198.660156 233.09375 197.859375 233.511719 C 197.234375 233.835938 196.554688 234.117188 195.847656 234.253906 C 195.167969 234.378906 194.460938 234.414062 193.804688 234.257812 C 193.148438 234.105469 192.507812 233.71875 192.171875 233.066406 C 191.730469 232.207031 191.609375 231.097656 191.714844 229.9375 C 191.789062 229.066406 191.933594 228.117188 192.316406 227.246094 C 192.660156 226.460938 193.105469 225.761719 193.582031 225.160156 C 194.03125 224.597656 194.515625 224.128906 195.007812 223.757812 C 195.492188 223.394531 195.984375 223.089844 196.433594 222.878906 C 196.652344 222.773438 196.859375 222.691406 197.070312 222.644531 C 197.277344 222.597656 197.519531 222.550781 197.8125 222.707031 C 197.953125 222.792969 198.0625 222.914062 198.117188 223.050781 C 198.171875 223.183594 198.171875 223.304688 198.164062 223.398438 C 198.140625 223.578125 198.082031 223.691406 198.019531 223.800781 C 197.898438 224.003906 197.734375 224.179688 197.542969 224.34375 C 197.402344 224.460938 197.269531 224.566406 197.175781 224.644531 C 197.136719 224.679688 197.105469 224.710938 197.101562 224.714844 C 197.101562 224.714844 197.167969 224.617188 197.140625 224.660156 C 197.125 224.6875 197.21875 224.476562 197.199219 224.539062 C 197.1875 224.574219 197.230469 224.351562 197.226562 224.40625 C 197.222656 224.46875 197.175781 224.097656 197.203125 224.1875 "/>
<path style=" stroke:none;fill-rule:nonzero;fill:rgb(92.941284%,21.176147%,14.117432%);fill-opacity:1;" d="M 196.71875 228.417969 C 197.003906 228.257812 197.367188 228.363281 197.527344 228.652344 C 197.683594 228.941406 197.578125 229.304688 197.289062 229.460938 C 196.734375 229.769531 196.46875 229.910156 196.421875 230.03125 C 196.347656 230.210938 196.3125 230.429688 196.433594 230.78125 C 196.6875 231.550781 197.878906 232.746094 199.070312 233.734375 C 199.753906 234.300781 200.457031 234.726562 201.011719 235.152344 C 201.28125 235.363281 201.523438 235.566406 201.699219 235.859375 C 201.878906 236.167969 201.910156 236.644531 201.707031 236.988281 C 201.535156 237.269531 201.167969 237.359375 200.886719 237.1875 C 200.605469 237.019531 200.515625 236.652344 200.683594 236.371094 C 200.6875 236.367188 200.691406 236.5 200.671875 236.464844 C 200.640625 236.410156 200.5 236.265625 200.28125 236.097656 C 199.808594 235.730469 199.070312 235.277344 198.3125 234.652344 C 197.058594 233.613281 195.734375 232.445312 195.300781 231.160156 C 195.101562 230.558594 195.152344 230 195.3125 229.59375 C 195.585938 228.90625 196.214844 228.695312 196.71875 228.417969 "/>
<path style=" stroke:none;fill-rule:nonzero;fill:rgb(92.941284%,21.176147%,14.117432%);fill-opacity:1;" d="M 27.046875 150.554688 C 26.863281 150.28125 26.941406 149.910156 27.214844 149.730469 C 27.488281 149.546875 27.859375 149.625 28.039062 149.898438 C 28.089844 149.976562 28.167969 150.09375 28.160156 150.304688 C 28.148438 150.546875 27.960938 150.769531 27.796875 150.851562 C 27.582031 150.96875 27.476562 150.929688 27.371094 150.929688 C 27.152344 150.933594 26.898438 150.917969 26.558594 150.929688 C 25.832031 150.957031 24.679688 151.28125 23.410156 151.710938 C 22.582031 151.992188 21.742188 152.375 20.980469 152.765625 C 19.886719 153.328125 19.167969 153.996094 19.03125 154.386719 C 18.984375 154.523438 19 154.636719 19.210938 154.855469 C 19.875 155.539062 22.183594 156.039062 24.394531 156.511719 C 25.292969 156.703125 26.1875 156.84375 27.003906 157.015625 C 28.074219 157.238281 28.949219 157.472656 29.554688 157.824219 C 29.789062 157.960938 30.011719 158.179688 30.09375 158.472656 C 30.179688 158.769531 30.105469 159.070312 29.976562 159.292969 C 29.726562 159.730469 29.292969 160.023438 28.761719 160.296875 C 28.160156 160.605469 27.4375 160.84375 26.683594 161.070312 C 25.699219 161.371094 24.65625 161.632812 23.683594 161.800781 C 22.558594 161.996094 21.589844 162.066406 20.820312 161.941406 C 20.304688 161.855469 19.929688 161.566406 19.722656 161.273438 C 19.675781 161.207031 19.605469 161.136719 19.519531 161 C 19.46875 160.921875 19.410156 160.824219 19.386719 160.667969 C 19.363281 160.507812 19.40625 160.300781 19.492188 160.160156 C 19.78125 159.714844 20.042969 159.773438 20.25 159.691406 C 20.554688 159.566406 20.902344 159.714844 21.023438 160.019531 C 21.148438 160.324219 21 160.671875 20.695312 160.796875 C 20.566406 160.847656 20.464844 160.882812 20.410156 160.90625 C 20.386719 160.917969 20.398438 160.910156 20.390625 160.917969 C 20.371094 160.925781 20.546875 160.726562 20.496094 160.804688 C 20.449219 160.875 20.550781 160.394531 20.5625 160.488281 C 20.570312 160.53125 20.527344 160.367188 20.535156 160.386719 C 20.542969 160.402344 20.523438 160.363281 20.523438 160.363281 C 20.527344 160.367188 20.601562 160.453125 20.695312 160.585938 C 20.734375 160.644531 20.832031 160.734375 21.015625 160.765625 C 21.558594 160.855469 22.4375 160.808594 23.480469 160.628906 C 24.390625 160.472656 25.390625 160.21875 26.339844 159.933594 C 27.066406 159.710938 27.734375 159.484375 28.21875 159.238281 C 28.636719 159.023438 28.894531 158.789062 28.941406 158.699219 C 28.949219 158.6875 28.941406 158.722656 28.945312 158.707031 C 28.949219 158.683594 28.960938 158.839844 28.949219 158.800781 C 28.941406 158.765625 28.996094 158.882812 28.988281 158.875 C 28.980469 158.867188 28.984375 158.871094 28.957031 158.855469 C 28.582031 158.640625 27.777344 158.390625 26.761719 158.179688 C 25.980469 158.019531 25.082031 157.875 24.144531 157.675781 C 21.941406 157.203125 19.542969 156.910156 18.355469 155.683594 C 17.929688 155.246094 17.699219 154.585938 17.90625 153.992188 C 18.234375 153.046875 19.207031 152.339844 20.433594 151.707031 C 21.234375 151.292969 22.125 150.890625 23.023438 150.585938 C 24.335938 150.140625 25.53125 149.777344 26.515625 149.738281 C 26.90625 149.722656 27.210938 149.742188 27.359375 149.738281 C 27.386719 149.738281 27.398438 149.738281 27.402344 149.738281 C 27.40625 149.738281 27.34375 149.75 27.363281 149.746094 C 27.390625 149.738281 27.203125 149.816406 27.253906 149.789062 C 27.351562 149.742188 27.015625 150.03125 27.078125 149.945312 C 27.140625 149.859375 26.964844 150.355469 26.96875 150.25 C 26.972656 150.164062 27.019531 150.515625 27.003906 150.46875 C 26.984375 150.421875 27.058594 150.570312 27.046875 150.554688 "/>
<path style=" stroke:none;fill-rule:nonzero;fill:rgb(92.941284%,21.176147%,14.117432%);fill-opacity:1;" d="M 22.355469 235.992188 C 22.339844 235.664062 22.59375 235.386719 22.921875 235.371094 C 23.253906 235.355469 23.53125 235.609375 23.546875 235.9375 C 23.566406 236.347656 23.496094 236.601562 23.542969 237.066406 C 23.566406 237.285156 23.664062 237.632812 23.765625 238.078125 C 24.007812 239.117188 24.269531 240.425781 24.4375 241.640625 C 24.550781 242.464844 24.53125 243.195312 24.523438 243.691406 C 24.519531 243.984375 24.53125 244.152344 24.4375 244.410156 C 24.421875 244.449219 24.40625 244.5 24.34375 244.578125 C 24.277344 244.667969 24.121094 244.820312 23.863281 244.820312 C 23.570312 244.820312 23.417969 244.636719 23.359375 244.550781 C 23.308594 244.476562 23.292969 244.425781 23.28125 244.386719 C 23.230469 244.234375 23.234375 244.148438 23.226562 244.03125 C 23.175781 243.039062 23.320312 241.234375 23.769531 239.390625 C 24.019531 238.359375 24.417969 237.382812 24.917969 236.535156 C 25.6875 235.226562 26.917969 234.449219 27.992188 234.101562 C 28.570312 233.914062 29.132812 233.90625 29.609375 234.046875 C 29.949219 234.144531 30.238281 234.390625 30.402344 234.6875 C 30.558594 234.984375 30.609375 235.316406 30.589844 235.648438 C 30.554688 236.371094 30.210938 237.117188 29.746094 237.925781 C 28.847656 239.496094 27.441406 241.125 26.253906 242.355469 C 25.777344 242.847656 25.328125 243.207031 25.007812 243.460938 C 24.789062 243.632812 24.59375 243.738281 24.449219 243.800781 C 24.386719 243.832031 24.335938 243.847656 24.296875 243.859375 C 24.28125 243.863281 24.265625 243.871094 24.234375 243.875 C 23.914062 243.941406 23.597656 243.730469 23.535156 243.410156 C 23.46875 243.085938 23.675781 242.773438 24 242.707031 C 24.027344 242.703125 23.9375 242.726562 23.949219 242.722656 C 23.953125 242.71875 23.953125 242.71875 23.976562 242.710938 C 24.027344 242.6875 24.128906 242.632812 24.269531 242.523438 C 24.582031 242.277344 24.976562 241.960938 25.398438 241.527344 C 26.542969 240.34375 27.902344 238.75 28.714844 237.335938 C 29.132812 236.601562 29.382812 235.960938 29.402344 235.589844 C 29.410156 235.417969 29.378906 235.304688 29.351562 235.25 C 29.332031 235.210938 29.324219 235.203125 29.273438 235.1875 C 29.054688 235.125 28.71875 235.117188 28.355469 235.234375 C 27.53125 235.5 26.535156 236.136719 25.941406 237.140625 C 25.507812 237.878906 25.148438 238.753906 24.925781 239.671875 C 24.507812 241.390625 24.375 243.160156 24.417969 243.96875 C 24.417969 244.007812 24.421875 244.039062 24.421875 244.054688 C 24.425781 244.066406 24.398438 243.976562 24.414062 244.019531 C 24.421875 244.039062 24.300781 243.816406 24.347656 243.886719 C 24.375 243.921875 24.140625 243.691406 24.210938 243.742188 C 24.25 243.773438 24.007812 243.644531 24.066406 243.664062 C 24.128906 243.6875 23.789062 243.628906 23.863281 243.628906 C 23.988281 243.628906 23.464844 243.773438 23.542969 243.722656 C 23.597656 243.6875 23.394531 243.859375 23.421875 243.828125 C 23.460938 243.785156 23.332031 243.964844 23.347656 243.9375 C 23.359375 243.910156 23.316406 244.011719 23.320312 243.996094 C 23.347656 243.921875 23.3125 244.027344 23.316406 243.964844 C 23.324219 243.894531 23.332031 243.796875 23.332031 243.675781 C 23.339844 243.175781 23.355469 242.515625 23.257812 241.804688 C 23.097656 240.640625 22.839844 239.355469 22.605469 238.347656 C 22.507812 237.929688 22.398438 237.566406 22.359375 237.183594 C 22.296875 236.582031 22.367188 236.214844 22.355469 235.992188 M 24.203125 243.878906 C 23.878906 243.929688 23.578125 243.703125 23.527344 243.378906 C 23.480469 243.054688 23.707031 242.75 24.03125 242.703125 C 24.101562 242.691406 24.003906 242.707031 24.039062 242.699219 C 24.355469 242.636719 24.84375 242.609375 25.429688 242.558594 C 26.472656 242.460938 27.691406 242.507812 28.847656 242.636719 C 31.136719 242.898438 33.007812 243.460938 33.964844 244.816406 C 34.152344 245.085938 34.089844 245.457031 33.820312 245.648438 C 33.550781 245.835938 33.179688 245.773438 32.992188 245.503906 C 32.363281 244.613281 30.863281 244.066406 28.710938 243.820312 C 27.625 243.699219 26.464844 243.660156 25.539062 243.742188 C 24.941406 243.796875 24.414062 243.839844 24.257812 243.871094 C 24.226562 243.875 24.28125 243.867188 24.203125 243.878906 "/>
<path style=" stroke:none;fill-rule:nonzero;fill:rgb(100%,100%,100%);fill-opacity:1;" d="M 71.382812 85.292969 L 119.742188 85.292969 L 119.742188 13.300781 L 71.382812 13.300781 Z M 71.382812 85.292969 "/>
<path style=" stroke:none;fill-rule:nonzero;fill:rgb(7.058716%,1.176453%,46.665955%);fill-opacity:1;" d="M 71.976562 13.894531 L 71.976562 84.699219 L 119.144531 84.699219 L 119.144531 13.894531 Z M 71.382812 12.703125 L 119.742188 12.703125 C 120.070312 12.703125 120.335938 12.972656 120.335938 13.300781 L 120.335938 85.292969 C 120.335938 85.621094 120.070312 85.890625 119.742188 85.890625 L 71.382812 85.890625 C 71.050781 85.890625 70.785156 85.621094 70.785156 85.292969 L 70.785156 13.300781 C 70.785156 12.972656 71.050781 12.703125 71.382812 12.703125 "/>
<path style=" stroke:none;fill-rule:nonzero;fill:rgb(7.058716%,1.176453%,46.665955%);fill-opacity:1;" d="M 71.382812 23.550781 C 71.710938 23.550781 71.976562 23.816406 71.976562 24.148438 C 71.976562 24.476562 71.710938 24.742188 71.382812 24.742188 L 55.765625 24.742188 C 55.4375 24.742188 55.171875 24.476562 55.171875 24.148438 C 55.171875 23.816406 55.4375 23.550781 55.765625 23.550781 Z M 71.382812 23.550781 "/>
<path style=" stroke:none;fill-rule:nonzero;fill:rgb(7.058716%,1.176453%,46.665955%);fill-opacity:1;" d="M 135.355469 23.550781 C 135.683594 23.550781 135.949219 23.816406 135.949219 24.148438 C 135.949219 24.476562 135.683594 24.742188 135.355469 24.742188 L 119.742188 24.742188 C 119.410156 24.742188 119.144531 24.476562 119.144531 24.148438 C 119.144531 23.816406 119.410156 23.550781 119.742188 23.550781 Z M 135.355469 23.550781 "/>
<path style=" stroke:none;fill-rule:nonzero;fill:rgb(7.058716%,1.176453%,46.665955%);fill-opacity:1;" d="M 135.355469 69.140625 C 135.683594 69.140625 135.949219 69.40625 135.949219 69.734375 C 135.949219 70.0625 135.683594 70.332031 135.355469 70.332031 L 119.742188 70.332031 C 119.410156 70.332031 119.144531 70.0625 119.144531 69.734375 C 119.144531 69.40625 119.410156 69.140625 119.742188 69.140625 Z M 135.355469 69.140625 "/>
<path style=" stroke:none;fill-rule:nonzero;fill:rgb(7.058716%,1.176453%,46.665955%);fill-opacity:1;" d="M 111.289062 21.042969 C 111.335938 21.371094 111.109375 21.671875 110.785156 21.71875 C 110.460938 21.769531 110.15625 21.542969 110.109375 21.21875 C 110.0625 20.90625 110.148438 20.792969 110.160156 20.738281 C 110.164062 20.710938 110.171875 20.90625 110.160156 20.855469 C 110.148438 20.800781 110.355469 21.144531 110.28125 21.066406 C 110.234375 21.023438 110.457031 21.183594 110.414062 21.164062 C 110.355469 21.132812 110.585938 21.207031 110.554688 21.203125 C 110.527344 21.199219 110.613281 21.203125 110.605469 21.203125 C 110.59375 21.203125 110.585938 21.207031 110.5625 21.21875 C 110.507812 21.238281 110.371094 21.316406 110.183594 21.441406 C 110.023438 21.550781 109.863281 21.640625 109.703125 21.75 C 109.527344 21.867188 109.34375 21.988281 109.152344 22.136719 C 108.894531 22.339844 108.621094 22.574219 108.390625 22.828125 C 108.144531 23.097656 107.949219 23.421875 107.800781 23.761719 C 107.703125 23.984375 107.632812 24.222656 107.582031 24.453125 C 107.539062 24.652344 107.523438 24.859375 107.515625 25.078125 C 107.503906 25.363281 107.492188 25.605469 107.515625 25.816406 C 107.523438 25.925781 107.558594 26.066406 107.597656 26.238281 C 107.640625 26.425781 107.671875 26.59375 107.707031 26.738281 C 107.761719 26.9375 107.796875 27.113281 107.839844 27.230469 C 107.894531 27.378906 107.972656 27.484375 108.089844 27.578125 C 108.207031 27.671875 108.476562 27.765625 108.808594 27.847656 C 109.027344 27.902344 109.257812 27.945312 109.492188 27.988281 C 109.960938 28.078125 110.398438 28.15625 110.820312 28.179688 C 111.117188 28.199219 111.378906 28.210938 111.613281 28.183594 C 111.789062 28.164062 111.992188 28.097656 112.203125 28.011719 C 112.507812 27.890625 112.742188 27.730469 112.960938 27.5 C 113.125 27.328125 113.289062 27.105469 113.441406 26.851562 C 113.574219 26.632812 113.695312 26.414062 113.785156 26.195312 C 113.863281 26 113.914062 25.769531 113.957031 25.503906 C 114 25.230469 114.023438 24.921875 114.039062 24.613281 C 114.050781 24.320312 114.0625 24.035156 114.0625 23.761719 C 114.066406 23.472656 114.078125 23.222656 114.066406 23.015625 C 114.054688 22.851562 114.03125 22.695312 113.996094 22.554688 C 113.964844 22.441406 113.914062 22.324219 113.84375 22.203125 C 113.714844 21.972656 113.460938 21.753906 113.160156 21.542969 C 112.761719 21.265625 112.386719 21.046875 112.042969 20.921875 C 111.730469 20.804688 111.488281 20.765625 111.25 20.824219 C 110.996094 20.882812 110.671875 21.074219 110.269531 21.515625 C 110.046875 21.757812 109.667969 21.777344 109.425781 21.554688 C 109.183594 21.332031 109.164062 20.957031 109.386719 20.714844 C 109.898438 20.152344 110.425781 19.792969 110.972656 19.664062 C 111.507812 19.535156 112.019531 19.640625 112.460938 19.804688 C 112.941406 19.984375 113.394531 20.257812 113.835938 20.5625 C 114.203125 20.816406 114.609375 21.136719 114.878906 21.613281 C 114.988281 21.800781 115.085938 22.015625 115.148438 22.257812 C 115.207031 22.480469 115.238281 22.707031 115.253906 22.933594 C 115.273438 23.238281 115.257812 23.515625 115.253906 23.773438 C 115.25 24.066406 115.242188 24.363281 115.226562 24.671875 C 115.210938 25 115.1875 25.347656 115.132812 25.691406 C 115.082031 26.003906 115.015625 26.324219 114.886719 26.636719 C 114.765625 26.949219 114.609375 27.222656 114.460938 27.46875 C 114.273438 27.78125 114.0625 28.070312 113.828125 28.320312 C 113.496094 28.671875 113.097656 28.9375 112.648438 29.117188 C 112.386719 29.222656 112.089844 29.324219 111.757812 29.367188 C 111.386719 29.410156 111.050781 29.386719 110.75 29.371094 C 110.238281 29.339844 109.75 29.25 109.273438 29.160156 C 109.03125 29.117188 108.78125 29.066406 108.527344 29.003906 C 108.144531 28.914062 107.71875 28.804688 107.34375 28.507812 C 107.078125 28.292969 106.847656 27.992188 106.71875 27.628906 C 106.640625 27.410156 106.597656 27.207031 106.554688 27.035156 C 106.503906 26.839844 106.472656 26.660156 106.4375 26.507812 C 106.398438 26.339844 106.351562 26.152344 106.328125 25.933594 C 106.296875 25.605469 106.316406 25.308594 106.328125 25.03125 C 106.335938 24.78125 106.355469 24.503906 106.417969 24.203125 C 106.484375 23.90625 106.574219 23.59375 106.707031 23.289062 C 106.898438 22.847656 107.160156 22.410156 107.511719 22.023438 C 107.804688 21.703125 108.125 21.425781 108.425781 21.195312 C 108.652344 21.019531 108.863281 20.878906 109.042969 20.757812 C 109.238281 20.628906 109.40625 20.53125 109.523438 20.453125 C 109.722656 20.316406 109.90625 20.191406 110.140625 20.101562 C 110.242188 20.0625 110.355469 20.03125 110.492188 20.015625 C 110.640625 20.003906 110.882812 19.984375 111.117188 20.21875 C 111.359375 20.460938 111.375 20.75 111.328125 20.980469 C 111.3125 21.050781 111.296875 21.101562 111.292969 21.128906 C 111.289062 21.140625 111.292969 21.121094 111.289062 21.132812 C 111.289062 21.144531 111.28125 20.996094 111.289062 21.042969 "/>
<path style=" stroke:none;fill-rule:nonzero;fill:rgb(7.058716%,1.176453%,46.665955%);fill-opacity:1;" d="M 112.074219 26.359375 C 112.027344 26.683594 111.726562 26.914062 111.402344 26.867188 C 111.078125 26.824219 110.847656 26.523438 110.894531 26.199219 C 110.902344 26.136719 110.886719 26.203125 110.878906 26.09375 C 110.871094 25.917969 110.917969 25.734375 111.035156 25.585938 C 111.152344 25.429688 111.355469 25.304688 111.597656 25.304688 C 111.824219 25.308594 111.949219 25.402344 112.027344 25.46875 C 112.101562 25.527344 112.148438 25.582031 112.191406 25.628906 C 112.269531 25.726562 112.332031 25.816406 112.390625 25.894531 C 112.746094 26.371094 113.402344 27.09375 114.050781 27.820312 C 114.46875 28.292969 114.859375 28.710938 115.214844 29.035156 C 115.390625 29.191406 115.550781 29.324219 115.699219 29.429688 C 115.789062 29.496094 115.871094 29.554688 115.9375 29.589844 C 115.980469 29.617188 116.050781 29.625 116.230469 29.703125 C 116.4375 29.792969 116.730469 30.128906 116.761719 30.4375 C 116.792969 30.765625 116.554688 31.058594 116.226562 31.089844 C 115.898438 31.125 115.609375 30.882812 115.574219 30.558594 C 115.570312 30.527344 115.777344 30.804688 115.753906 30.796875 C 115.738281 30.789062 115.558594 30.75 115.335938 30.617188 C 115.21875 30.550781 115.105469 30.472656 114.996094 30.394531 C 114.8125 30.257812 114.617188 30.097656 114.417969 29.917969 C 114.003906 29.546875 113.59375 29.101562 113.160156 28.613281 C 112.515625 27.890625 111.851562 27.167969 111.433594 26.609375 C 111.363281 26.511719 111.304688 26.429688 111.273438 26.390625 C 111.261719 26.375 111.308594 26.414062 111.28125 26.394531 C 111.265625 26.382812 111.410156 26.46875 111.367188 26.449219 C 111.316406 26.425781 111.675781 26.5 111.582031 26.496094 C 111.492188 26.496094 111.894531 26.402344 111.824219 26.4375 C 111.757812 26.472656 112.015625 26.257812 111.980469 26.308594 C 111.90625 26.402344 112.066406 25.9375 112.070312 26.023438 C 112.070312 26.058594 112.101562 26.164062 112.074219 26.359375 "/>
<path style=" stroke:none;fill-rule:nonzero;fill:rgb(7.058716%,1.176453%,46.665955%);fill-opacity:1;" d="M 114.300781 66.164062 C 114.335938 66.488281 114.101562 66.785156 113.773438 66.820312 C 113.449219 66.855469 113.152344 66.621094 113.117188 66.292969 C 113.101562 66.171875 113.101562 66.054688 113.09375 65.945312 C 113.089844 65.839844 113.097656 65.777344 113.097656 65.765625 C 113.097656 65.765625 113.109375 65.84375 113.105469 65.8125 C 113.097656 65.777344 113.203125 66.019531 113.167969 65.960938 C 113.113281 65.878906 113.371094 66.144531 113.328125 66.117188 C 113.269531 66.085938 113.40625 66.152344 113.40625 66.152344 C 113.398438 66.152344 113.375 66.144531 113.335938 66.136719 C 113.28125 66.125 113.238281 66.117188 113.183594 66.113281 C 112.957031 66.101562 112.753906 66.082031 112.484375 66.148438 C 112.175781 66.230469 111.738281 66.445312 111.289062 66.730469 C 110.910156 66.972656 110.535156 67.261719 110.214844 67.574219 C 110.03125 67.75 109.871094 67.9375 109.730469 68.128906 C 109.539062 68.386719 109.402344 68.625 109.332031 68.820312 C 109.257812 69.027344 109.257812 69.226562 109.304688 69.457031 C 109.339844 69.632812 109.40625 69.820312 109.507812 70.035156 C 109.628906 70.289062 109.757812 70.542969 109.890625 70.769531 C 110.066406 71.058594 110.246094 71.3125 110.410156 71.492188 C 110.5 71.589844 110.605469 71.660156 110.746094 71.742188 C 110.949219 71.859375 111.097656 71.945312 111.246094 71.988281 C 111.429688 72.039062 111.648438 72.070312 111.914062 72.054688 C 112.117188 72.042969 112.304688 72.03125 112.488281 71.988281 C 112.789062 71.921875 113.183594 71.722656 113.621094 71.480469 C 113.820312 71.371094 114.011719 71.269531 114.179688 71.167969 C 114.410156 71.03125 114.628906 70.867188 114.832031 70.703125 C 115.089844 70.492188 115.292969 70.285156 115.429688 70.09375 C 115.539062 69.9375 115.601562 69.761719 115.644531 69.558594 C 115.699219 69.304688 115.710938 69.0625 115.671875 68.785156 C 115.644531 68.566406 115.574219 68.328125 115.476562 68.082031 C 115.355469 67.78125 115.195312 67.496094 115.023438 67.261719 C 114.691406 66.808594 114.257812 66.570312 113.84375 66.511719 C 113.4375 66.453125 113.054688 66.566406 112.796875 66.808594 C 112.558594 67.035156 112.183594 67.023438 111.957031 66.785156 C 111.730469 66.542969 111.742188 66.167969 111.984375 65.941406 C 112.523438 65.433594 113.28125 65.226562 114.011719 65.332031 C 114.746094 65.433594 115.472656 65.859375 115.984375 66.558594 C 116.222656 66.878906 116.421875 67.246094 116.582031 67.636719 C 116.707031 67.949219 116.808594 68.285156 116.855469 68.632812 C 116.90625 69.035156 116.890625 69.425781 116.8125 69.800781 C 116.746094 70.109375 116.628906 70.457031 116.398438 70.785156 C 116.179688 71.089844 115.902344 71.367188 115.585938 71.625 C 115.351562 71.816406 115.089844 72.011719 114.792969 72.191406 C 114.585938 72.316406 114.382812 72.421875 114.199219 72.523438 C 113.742188 72.777344 113.269531 73.035156 112.746094 73.152344 C 112.457031 73.21875 112.195312 73.230469 111.980469 73.242188 C 111.589844 73.265625 111.230469 73.222656 110.917969 73.132812 C 110.589844 73.039062 110.347656 72.886719 110.148438 72.769531 C 109.964844 72.664062 109.742188 72.523438 109.539062 72.300781 C 109.289062 72.035156 109.074219 71.71875 108.871094 71.382812 C 108.703125 71.101562 108.558594 70.8125 108.433594 70.546875 C 108.304688 70.273438 108.195312 69.992188 108.136719 69.6875 C 108.0625 69.308594 108.050781 68.867188 108.210938 68.421875 C 108.335938 68.066406 108.539062 67.738281 108.773438 67.421875 C 108.949219 67.183594 109.152344 66.945312 109.386719 66.71875 C 109.769531 66.347656 110.203125 66.007812 110.652344 65.726562 C 111.164062 65.402344 111.675781 65.125 112.191406 64.996094 C 112.660156 64.878906 113.046875 64.914062 113.257812 64.925781 C 113.394531 64.933594 113.511719 64.957031 113.589844 64.972656 C 113.65625 64.988281 113.894531 64.902344 114.160156 65.308594 C 114.398438 65.667969 114.285156 65.886719 114.285156 65.898438 C 114.289062 66.007812 114.292969 66.101562 114.300781 66.164062 "/>
<path style=" stroke:none;fill-rule:nonzero;fill:rgb(7.058716%,1.176453%,46.665955%);fill-opacity:1;" d="M 113.699219 69.851562 C 113.730469 70.179688 113.496094 70.472656 113.167969 70.507812 C 112.839844 70.539062 112.546875 70.304688 112.515625 69.976562 C 112.503906 69.890625 112.394531 69.773438 112.652344 69.460938 C 112.808594 69.277344 113.15625 69.21875 113.316406 69.273438 C 113.460938 69.324219 113.511719 69.378906 113.554688 69.417969 C 113.695312 69.550781 113.734375 69.636719 113.808594 69.75 C 113.9375 69.957031 114.128906 70.246094 114.332031 70.566406 C 114.636719 71.042969 114.925781 71.542969 115.199219 71.972656 C 115.34375 72.203125 115.472656 72.402344 115.585938 72.539062 C 115.675781 72.644531 115.761719 72.722656 115.820312 72.765625 C 115.855469 72.789062 115.914062 72.800781 116.082031 72.828125 C 116.175781 72.84375 116.308594 72.863281 116.472656 72.960938 C 116.644531 73.0625 116.804688 73.269531 116.855469 73.472656 C 116.941406 73.792969 116.753906 74.117188 116.433594 74.203125 C 116.117188 74.285156 115.789062 74.097656 115.707031 73.777344 C 115.691406 73.722656 115.941406 74.03125 115.871094 73.988281 C 115.8125 73.953125 115.933594 74.011719 115.882812 74.003906 C 115.75 73.980469 115.441406 73.953125 115.136719 73.738281 C 114.964844 73.621094 114.8125 73.472656 114.671875 73.296875 C 114.492188 73.085938 114.34375 72.851562 114.191406 72.605469 C 113.90625 72.15625 113.613281 71.65625 113.328125 71.203125 C 113.132812 70.894531 112.941406 70.605469 112.804688 70.390625 C 112.773438 70.34375 112.75 70.304688 112.730469 70.28125 C 112.714844 70.261719 112.78125 70.328125 112.746094 70.292969 C 112.734375 70.28125 112.824219 70.351562 112.800781 70.335938 C 112.769531 70.316406 113.003906 70.425781 112.9375 70.402344 C 112.863281 70.378906 113.371094 70.394531 113.242188 70.421875 C 113.179688 70.433594 113.488281 70.308594 113.429688 70.34375 C 113.375 70.378906 113.605469 70.179688 113.570312 70.222656 C 113.5 70.304688 113.691406 69.96875 113.679688 70.019531 C 113.65625 70.089844 113.699219 69.859375 113.699219 69.886719 C 113.699219 69.90625 113.699219 69.851562 113.699219 69.851562 "/>
<path style=" stroke:none;fill-rule:nonzero;fill:rgb(7.058716%,1.176453%,46.665955%);fill-opacity:1;" d="M 109.28125 63.3125 C 109.449219 63.59375 109.359375 63.960938 109.078125 64.128906 C 108.792969 64.296875 108.429688 64.203125 108.261719 63.921875 C 108.230469 63.871094 108.160156 63.78125 108.117188 63.59375 C 108.070312 63.378906 108.191406 62.984375 108.429688 62.828125 C 108.757812 62.617188 108.929688 62.683594 109.140625 62.671875 C 109.292969 62.664062 109.5 62.652344 109.753906 62.644531 C 110.03125 62.636719 110.351562 62.636719 110.703125 62.636719 C 111.195312 62.632812 111.742188 62.628906 112.308594 62.617188 C 112.597656 62.613281 112.898438 62.597656 113.203125 62.582031 C 113.625 62.566406 114.035156 62.542969 114.421875 62.523438 C 114.820312 62.503906 115.179688 62.5 115.480469 62.496094 C 115.914062 62.492188 116.195312 62.480469 116.488281 62.5625 C 116.648438 62.609375 116.828125 62.71875 116.933594 62.890625 C 117.039062 63.058594 117.058594 63.253906 117.019531 63.417969 C 116.929688 63.808594 116.703125 63.851562 116.605469 63.898438 C 116.304688 64.03125 115.953125 63.898438 115.816406 63.597656 C 115.679688 63.300781 115.816406 62.945312 116.113281 62.8125 C 116.128906 62.804688 115.992188 62.894531 116.035156 62.863281 C 116.058594 62.84375 115.917969 62.992188 115.949219 62.949219 C 115.984375 62.90625 115.839844 63.234375 115.859375 63.148438 C 115.871094 63.089844 115.859375 63.390625 115.851562 63.328125 C 115.84375 63.265625 115.953125 63.574219 115.917969 63.515625 C 115.882812 63.457031 116.09375 63.683594 116.046875 63.652344 C 116.003906 63.621094 116.191406 63.714844 116.164062 63.707031 C 116.160156 63.707031 115.902344 63.683594 115.492188 63.6875 C 115.195312 63.691406 114.851562 63.695312 114.476562 63.714844 C 114.097656 63.730469 113.683594 63.753906 113.253906 63.773438 C 112.957031 63.785156 112.648438 63.804688 112.332031 63.808594 C 111.753906 63.820312 111.199219 63.824219 110.710938 63.828125 C 110.355469 63.828125 110.042969 63.828125 109.78125 63.835938 C 109.550781 63.839844 109.363281 63.851562 109.203125 63.859375 C 109.101562 63.867188 109.023438 63.871094 108.980469 63.875 C 108.964844 63.878906 108.984375 63.875 108.972656 63.878906 C 108.957031 63.882812 109.132812 63.792969 109.078125 63.828125 C 109.015625 63.867188 109.300781 63.480469 109.261719 63.589844 C 109.226562 63.695312 109.269531 63.285156 109.28125 63.335938 C 109.292969 63.382812 109.257812 63.273438 109.261719 63.273438 C 109.261719 63.273438 109.269531 63.289062 109.28125 63.3125 M 116.441406 63.945312 C 116.117188 63.988281 115.816406 63.761719 115.769531 63.4375 C 115.726562 63.109375 115.953125 62.808594 116.277344 62.765625 C 116.421875 62.746094 116.132812 62.808594 116.191406 62.789062 C 116.496094 62.671875 116.839844 62.824219 116.957031 63.132812 C 117.078125 63.4375 116.921875 63.785156 116.617188 63.902344 C 116.5625 63.921875 116.511719 63.933594 116.464844 63.941406 C 116.441406 63.945312 116.421875 63.945312 116.410156 63.949219 C 116.398438 63.949219 116.5 63.9375 116.441406 63.945312 "/>
<path style=" stroke:none;fill-rule:nonzero;fill:rgb(7.058716%,1.176453%,46.665955%);fill-opacity:1;" d="M 71.382812 69.140625 C 71.710938 69.140625 71.976562 69.40625 71.976562 69.734375 C 71.976562 70.0625 71.710938 70.332031 71.382812 70.332031 L 55.765625 70.332031 C 55.4375 70.332031 55.171875 70.0625 55.171875 69.734375 C 55.171875 69.40625 55.4375 69.140625 55.765625 69.140625 Z M 71.382812 69.140625 "/>
<path style=" stroke:none;fill-rule:nonzero;fill:rgb(7.058716%,1.176453%,46.665955%);fill-opacity:1;" d="M 79.679688 21.929688 C 79.375 22.050781 79.03125 21.902344 78.910156 21.597656 C 78.785156 21.292969 78.9375 20.945312 79.242188 20.824219 C 79.433594 20.746094 79.625 20.570312 79.886719 20.328125 C 80.082031 20.152344 80.25 20.066406 80.316406 20.011719 C 80.445312 19.910156 80.558594 19.828125 80.617188 19.777344 C 80.644531 19.757812 80.609375 19.796875 80.632812 19.769531 C 80.640625 19.757812 80.558594 19.914062 80.578125 19.863281 C 80.601562 19.804688 80.554688 20.21875 80.542969 20.113281 C 80.535156 20.027344 80.664062 20.414062 80.625 20.351562 C 80.570312 20.257812 80.835938 20.542969 80.789062 20.515625 C 80.75 20.492188 80.890625 20.5625 80.875 20.558594 C 80.863281 20.554688 80.886719 20.5625 80.839844 20.558594 C 80.722656 20.546875 80.53125 20.546875 80.296875 20.5625 C 79.800781 20.589844 79.167969 20.664062 78.550781 20.769531 C 77.503906 20.941406 76.410156 21.207031 75.691406 21.484375 C 75.488281 21.5625 75.328125 21.621094 75.226562 21.667969 C 75.183594 21.691406 75.15625 21.707031 75.152344 21.710938 C 75.152344 21.710938 75.21875 21.617188 75.195312 21.65625 C 75.167969 21.703125 75.25 21.429688 75.246094 21.488281 C 75.242188 21.542969 75.226562 21.34375 75.234375 21.367188 C 75.246094 21.40625 75.226562 21.347656 75.261719 21.390625 C 75.34375 21.488281 75.539062 21.648438 75.796875 21.824219 C 76.34375 22.195312 77.101562 22.601562 77.867188 22.976562 C 78.695312 23.382812 79.53125 23.765625 80.242188 24.234375 C 81.085938 24.789062 81.589844 25.542969 81.828125 26.242188 C 81.976562 26.664062 82.003906 27.082031 81.972656 27.449219 C 81.949219 27.667969 82.050781 28.132812 81.644531 28.554688 C 81.195312 29.019531 80.570312 29.082031 79.953125 29.101562 C 79.332031 29.121094 78.683594 29.054688 78.101562 28.96875 C 77.460938 28.875 76.832031 28.75 76.332031 28.519531 C 76.082031 28.402344 75.820312 28.265625 75.664062 27.925781 C 75.582031 27.75 75.5625 27.511719 75.628906 27.316406 C 75.691406 27.125 75.804688 26.984375 75.929688 26.875 C 76.171875 26.652344 76.546875 26.667969 76.769531 26.910156 C 76.992188 27.152344 76.976562 27.53125 76.734375 27.753906 C 76.714844 27.769531 76.78125 27.621094 76.757812 27.691406 C 76.734375 27.761719 76.710938 27.355469 76.742188 27.425781 C 76.773438 27.488281 76.695312 27.355469 76.707031 27.367188 C 76.722656 27.378906 76.769531 27.40625 76.832031 27.4375 C 77.132812 27.578125 77.691406 27.707031 78.269531 27.789062 C 78.8125 27.871094 79.40625 27.929688 79.917969 27.910156 C 80.402344 27.898438 80.746094 27.769531 80.789062 27.726562 C 80.820312 27.691406 80.753906 27.796875 80.761719 27.738281 C 80.769531 27.664062 80.765625 27.523438 80.785156 27.335938 C 80.804688 27.117188 80.789062 26.871094 80.703125 26.628906 C 80.539062 26.15625 80.195312 25.628906 79.585938 25.226562 C 78.984375 24.828125 78.179688 24.457031 77.34375 24.046875 C 76.550781 23.65625 75.757812 23.234375 75.128906 22.8125 C 74.824219 22.601562 74.5625 22.402344 74.359375 22.167969 C 74.253906 22.046875 74.15625 21.910156 74.101562 21.730469 C 74.039062 21.539062 74.042969 21.269531 74.167969 21.058594 C 74.457031 20.558594 74.882812 20.519531 75.265625 20.371094 C 76.109375 20.050781 77.246094 19.777344 78.355469 19.59375 C 79.011719 19.484375 79.675781 19.402344 80.230469 19.371094 C 80.496094 19.355469 80.730469 19.351562 80.9375 19.371094 C 81.039062 19.378906 81.136719 19.390625 81.246094 19.425781 C 81.390625 19.476562 81.683594 19.589844 81.726562 19.984375 C 81.753906 20.242188 81.644531 20.40625 81.574219 20.5 C 81.503906 20.589844 81.441406 20.640625 81.382812 20.691406 C 81.265625 20.789062 81.152344 20.867188 81.058594 20.941406 C 80.878906 21.085938 80.742188 21.160156 80.691406 21.207031 C 80.445312 21.429688 80.148438 21.746094 79.679688 21.929688 "/>
<path style=" stroke:none;fill-rule:nonzero;fill:rgb(7.058716%,1.176453%,46.665955%);fill-opacity:1;" d="M 77.703125 66.140625 C 77.921875 66.386719 77.898438 66.761719 77.652344 66.980469 C 77.40625 67.199219 77.03125 67.175781 76.8125 66.925781 C 76.808594 66.925781 76.882812 66.980469 76.851562 66.957031 C 76.8125 66.933594 77.167969 67.035156 77.0625 67.027344 C 76.957031 67.019531 77.445312 66.898438 77.371094 66.949219 C 77.296875 66.996094 77.511719 66.800781 77.492188 66.828125 C 77.46875 66.867188 77.503906 66.800781 77.492188 66.855469 C 77.480469 66.917969 77.464844 67.011719 77.453125 67.121094 C 77.410156 67.609375 77.421875 68.34375 77.453125 69.082031 C 77.484375 69.792969 77.515625 70.464844 77.582031 70.917969 C 77.609375 71.117188 77.652344 71.246094 77.65625 71.25 C 77.660156 71.261719 77.574219 71.148438 77.605469 71.1875 C 77.625 71.207031 77.484375 71.085938 77.523438 71.113281 C 77.5625 71.140625 77.292969 71.019531 77.359375 71.039062 C 77.40625 71.046875 77.046875 71.039062 77.121094 71.027344 C 77.195312 71.011719 76.875 71.136719 76.925781 71.101562 C 77.007812 71.050781 76.75 71.292969 76.773438 71.253906 C 76.804688 71.203125 76.761719 71.277344 76.777344 71.195312 C 76.824219 70.890625 76.835938 70.292969 76.996094 69.636719 C 77.246094 68.613281 77.820312 67.59375 78.511719 66.699219 C 79.242188 65.757812 80.234375 65.125 81.121094 64.757812 C 81.542969 64.582031 81.953125 64.488281 82.335938 64.484375 C 82.710938 64.484375 83.09375 64.570312 83.382812 64.847656 C 83.585938 65.042969 83.699219 65.3125 83.722656 65.574219 C 83.746094 65.832031 83.699219 66.089844 83.605469 66.34375 C 83.121094 67.644531 81.582031 68.75 80.285156 69.675781 C 79.726562 70.070312 79.210938 70.398438 78.738281 70.59375 C 78.460938 70.710938 78.1875 70.746094 77.945312 70.71875 C 77.707031 70.6875 77.472656 70.660156 77.265625 70.34375 C 77.117188 70.09375 77.183594 69.824219 77.234375 69.722656 C 77.28125 69.632812 77.320312 69.589844 77.359375 69.550781 C 77.425781 69.480469 77.488281 69.433594 77.554688 69.386719 C 77.679688 69.296875 77.828125 69.214844 77.988281 69.148438 C 78.363281 68.992188 78.75 69.054688 79.085938 69.171875 C 79.429688 69.292969 79.761719 69.480469 80.105469 69.710938 C 80.808594 70.179688 81.539062 70.8125 82.265625 71.460938 C 82.996094 72.105469 83.691406 72.75 84.289062 73.234375 C 84.574219 73.464844 84.832031 73.652344 85.03125 73.773438 C 85.125 73.828125 85.203125 73.863281 85.25 73.882812 C 85.292969 73.898438 85.207031 73.898438 85.253906 73.894531 C 85.582031 73.863281 85.871094 74.105469 85.898438 74.433594 C 85.929688 74.761719 85.6875 75.050781 85.359375 75.078125 C 84.621094 75.144531 84.15625 74.660156 83.539062 74.160156 C 82.898438 73.640625 82.195312 72.988281 81.476562 72.351562 C 80.761719 71.714844 80.054688 71.109375 79.441406 70.699219 C 79.152344 70.507812 78.890625 70.367188 78.695312 70.296875 C 78.515625 70.234375 78.457031 70.242188 78.445312 70.246094 C 78.378906 70.273438 78.292969 70.324219 78.238281 70.359375 C 78.214844 70.378906 78.238281 70.355469 78.21875 70.371094 C 78.207031 70.386719 78.332031 70.195312 78.296875 70.265625 C 78.273438 70.304688 78.363281 69.964844 78.351562 70.066406 C 78.34375 70.167969 78.214844 69.613281 78.277344 69.71875 C 78.300781 69.753906 78.125 69.554688 78.152344 69.574219 C 78.191406 69.601562 78.074219 69.53125 78.085938 69.535156 C 78.09375 69.539062 78.078125 69.535156 78.085938 69.535156 C 78.113281 69.539062 78.183594 69.535156 78.28125 69.496094 C 78.605469 69.359375 79.078125 69.074219 79.59375 68.703125 C 80.832031 67.824219 82.234375 66.613281 82.488281 65.925781 C 82.53125 65.808594 82.539062 65.722656 82.535156 65.6875 C 82.535156 65.660156 82.582031 65.726562 82.558594 65.707031 C 82.539062 65.691406 82.507812 65.675781 82.339844 65.675781 C 82.148438 65.675781 81.878906 65.730469 81.578125 65.855469 C 80.851562 66.15625 80.019531 66.699219 79.453125 67.429688 C 78.839844 68.21875 78.347656 69.125 78.15625 69.917969 C 78.070312 70.257812 78.035156 70.609375 78.003906 70.929688 C 77.972656 71.246094 78.003906 71.519531 77.792969 71.867188 C 77.746094 71.949219 77.671875 72.039062 77.5625 72.109375 C 77.429688 72.191406 77.230469 72.230469 77.070312 72.191406 C 76.734375 72.101562 76.65625 71.914062 76.59375 71.796875 C 76.484375 71.578125 76.441406 71.359375 76.402344 71.089844 C 76.320312 70.535156 76.296875 69.851562 76.265625 69.132812 C 76.234375 68.375 76.210938 67.613281 76.269531 67.007812 C 76.296875 66.71875 76.308594 66.46875 76.488281 66.1875 C 76.589844 66.027344 76.84375 65.816406 77.148438 65.839844 C 77.4375 65.859375 77.59375 66.015625 77.703125 66.140625 "/>
<path style=" stroke:none;fill-rule:nonzero;fill:rgb(92.941284%,21.176147%,14.117432%);fill-opacity:1;" d="M 190.191406 152.371094 C 190.5 152.484375 190.660156 152.824219 190.550781 153.132812 C 190.4375 153.445312 190.097656 153.605469 189.789062 153.492188 C 189.484375 153.382812 189.25 153.285156 189.066406 153.179688 C 188.972656 153.128906 188.886719 153.078125 188.796875 152.988281 C 188.707031 152.902344 188.558594 152.746094 188.574219 152.453125 C 188.589844 152.148438 188.824219 151.960938 188.957031 151.894531 C 189.097656 151.832031 189.191406 151.820312 189.277344 151.808594 C 189.464844 151.789062 189.652344 151.800781 189.867188 151.824219 C 190.460938 151.886719 191.074219 152.128906 191.675781 152.261719 C 192.546875 152.453125 193.609375 152.394531 194.914062 152.390625 C 196.34375 152.382812 197.859375 152.402344 199.042969 152.390625 C 199.6875 152.382812 200.144531 152.339844 200.308594 152.261719 C 200.375 152.234375 200.378906 152.222656 200.398438 152.183594 C 200.421875 152.136719 200.453125 152.019531 200.445312 151.8125 C 200.433594 151.484375 200.691406 151.207031 201.019531 151.199219 C 201.347656 151.1875 201.625 151.445312 201.636719 151.773438 C 201.644531 152.109375 201.605469 152.425781 201.46875 152.710938 C 201.328125 152.992188 201.082031 153.214844 200.816406 153.339844 C 200.296875 153.585938 199.722656 153.574219 199.054688 153.582031 C 197.851562 153.59375 196.339844 153.574219 194.917969 153.582031 C 193.644531 153.585938 192.507812 153.664062 191.417969 153.425781 C 190.726562 153.269531 190.097656 153.046875 189.738281 153.007812 C 189.578125 152.988281 189.453125 152.988281 189.40625 152.992188 C 189.390625 152.996094 189.527344 152.945312 189.460938 152.972656 C 189.445312 152.984375 189.691406 152.78125 189.628906 152.851562 C 189.59375 152.886719 189.746094 152.648438 189.71875 152.707031 C 189.691406 152.765625 189.769531 152.453125 189.765625 152.515625 C 189.761719 152.582031 189.734375 152.296875 189.746094 152.34375 C 189.765625 152.414062 189.652344 152.15625 189.675781 152.191406 C 189.695312 152.222656 189.609375 152.117188 189.621094 152.128906 C 189.65625 152.164062 189.613281 152.121094 189.652344 152.144531 C 189.742188 152.195312 189.925781 152.277344 190.191406 152.371094 "/>
</g>
</svg>
