<?xml version="1.0" encoding="UTF-8"?>
<svg xmlns="http://www.w3.org/2000/svg" xmlns:xlink="http://www.w3.org/1999/xlink" width="226.3066pt" height="244.3304pt" viewBox="0 0 226.3066 244.3304" version="1.2">
<g id="surface1">
<path style=" stroke:none;fill-rule:nonzero;fill:rgb(7.058716%,1.176453%,46.665955%);fill-opacity:1;" d="M 81.667969 34.070312 C 81.667969 33.742188 81.933594 33.472656 82.265625 33.472656 C 82.59375 33.472656 82.859375 33.742188 82.859375 34.070312 L 82.859375 49.808594 C 82.859375 50.136719 82.59375 50.402344 82.265625 50.402344 C 81.933594 50.402344 81.667969 50.136719 81.667969 49.808594 Z M 81.667969 85.484375 C 81.667969 85.15625 81.933594 84.890625 82.265625 84.890625 C 82.59375 84.890625 82.859375 85.15625 82.859375 85.484375 L 82.859375 102.191406 C 82.859375 102.519531 82.59375 102.785156 82.265625 102.785156 C 81.933594 102.785156 81.667969 102.519531 81.667969 102.191406 Z M 82.109375 49.328125 C 82.375 49.132812 82.75 49.1875 82.945312 49.453125 C 83.140625 49.71875 83.082031 50.089844 82.816406 50.285156 L 77.453125 54.242188 C 77.1875 54.4375 76.816406 54.378906 76.621094 54.113281 C 76.425781 53.851562 76.480469 53.476562 76.746094 53.28125 Z M 76.792969 54.273438 C 76.511719 54.101562 76.421875 53.734375 76.589844 53.453125 C 76.761719 53.171875 77.125 53.082031 77.40625 53.25 L 87.734375 59.472656 C 88.015625 59.644531 88.109375 60.011719 87.9375 60.292969 C 87.769531 60.574219 87.402344 60.664062 87.121094 60.496094 Z M 87.074219 59.503906 C 87.339844 59.308594 87.710938 59.367188 87.90625 59.632812 C 88.101562 59.894531 88.046875 60.269531 87.78125 60.464844 L 77.453125 68.078125 C 77.1875 68.273438 76.816406 68.214844 76.621094 67.953125 C 76.425781 67.6875 76.480469 67.3125 76.746094 67.117188 Z M 76.792969 68.109375 C 76.511719 67.9375 76.421875 67.574219 76.589844 67.289062 C 76.761719 67.007812 77.125 66.917969 77.40625 67.085938 L 87.734375 73.3125 C 88.015625 73.480469 88.109375 73.847656 87.9375 74.128906 C 87.769531 74.410156 87.402344 74.5 87.121094 74.332031 Z M 87.074219 73.339844 C 87.339844 73.144531 87.710938 73.203125 87.90625 73.46875 C 88.101562 73.734375 88.046875 74.105469 87.78125 74.300781 L 77.453125 81.914062 C 77.1875 82.109375 76.816406 82.054688 76.621094 81.789062 C 76.425781 81.523438 76.480469 81.148438 76.746094 80.953125 Z M 76.734375 81.902344 C 76.472656 81.699219 76.429688 81.324219 76.632812 81.066406 C 76.835938 80.808594 77.210938 80.761719 77.46875 80.964844 L 82.632812 85.015625 C 82.890625 85.21875 82.9375 85.59375 82.734375 85.851562 C 82.53125 86.113281 82.15625 86.15625 81.894531 85.953125 Z M 81.667969 150.871094 C 81.667969 150.542969 81.933594 150.277344 82.265625 150.277344 C 82.59375 150.277344 82.859375 150.542969 82.859375 150.871094 L 82.859375 180.375 C 82.859375 180.703125 82.59375 180.972656 82.265625 180.972656 C 81.933594 180.972656 81.667969 180.703125 81.667969 180.375 Z M 81.667969 187.597656 C 81.667969 187.269531 81.933594 187.003906 82.265625 187.003906 C 82.59375 187.003906 82.859375 187.269531 82.859375 187.597656 L 82.859375 219.015625 C 82.859375 219.34375 82.59375 219.609375 82.265625 219.609375 C 81.933594 219.609375 81.667969 219.34375 81.667969 219.015625 Z M 68.683594 180.972656 C 68.355469 180.972656 68.089844 180.703125 68.089844 180.375 C 68.089844 180.046875 68.355469 179.78125 68.683594 179.78125 L 95.851562 179.78125 C 96.179688 179.78125 96.449219 180.046875 96.449219 180.375 C 96.449219 180.703125 96.179688 180.972656 95.851562 180.972656 Z M 68.679688 188.195312 C 68.351562 188.195312 68.085938 187.925781 68.085938 187.597656 C 68.085938 187.269531 68.351562 187.003906 68.679688 187.003906 L 95.847656 187.003906 C 96.175781 187.003906 96.445312 187.269531 96.445312 187.597656 C 96.445312 187.925781 96.175781 188.195312 95.847656 188.195312 Z M 81.667969 91.507812 C 81.667969 91.179688 81.933594 90.910156 82.265625 90.910156 C 82.59375 90.910156 82.859375 91.179688 82.859375 91.507812 L 82.859375 109.585938 C 82.859375 109.914062 82.59375 110.183594 82.265625 110.183594 C 81.933594 110.183594 81.667969 109.914062 81.667969 109.585938 Z M 81.667969 146.230469 C 81.667969 145.902344 81.933594 145.636719 82.265625 145.636719 C 82.59375 145.636719 82.859375 145.902344 82.859375 146.230469 L 82.859375 164.089844 C 82.859375 164.421875 82.59375 164.6875 82.265625 164.6875 C 81.933594 164.6875 81.667969 164.421875 81.667969 164.089844 Z M 133.984375 93.726562 C 133.984375 93.398438 134.253906 93.132812 134.582031 93.132812 C 134.910156 93.132812 135.175781 93.398438 135.175781 93.726562 L 135.175781 123.230469 C 135.175781 123.558594 134.910156 123.828125 134.582031 123.828125 C 134.253906 123.828125 133.984375 123.558594 133.984375 123.230469 Z M 133.984375 130.453125 C 133.984375 130.125 134.253906 129.859375 134.582031 129.859375 C 134.910156 129.859375 135.175781 130.125 135.175781 130.453125 L 135.175781 161.871094 C 135.175781 162.199219 134.910156 162.464844 134.582031 162.464844 C 134.253906 162.464844 133.984375 162.199219 133.984375 161.871094 Z M 121 123.828125 C 120.671875 123.828125 120.40625 123.558594 120.40625 123.230469 C 120.40625 122.902344 120.671875 122.636719 121 122.636719 L 148.167969 122.636719 C 148.5 122.636719 148.765625 122.902344 148.765625 123.230469 C 148.765625 123.558594 148.5 123.828125 148.167969 123.828125 Z M 120.996094 131.050781 C 120.667969 131.050781 120.402344 130.78125 120.402344 130.453125 C 120.402344 130.125 120.667969 129.859375 120.996094 129.859375 L 148.164062 129.859375 C 148.496094 129.859375 148.761719 130.125 148.761719 130.453125 C 148.761719 130.78125 148.496094 131.050781 148.164062 131.050781 Z M 120.996094 131.050781 "/>
<path style=" stroke:none;fill-rule:nonzero;fill:rgb(92.941284%,21.176147%,14.117432%);fill-opacity:1;" d="M 161.003906 123.894531 C 160.792969 123.953125 160.574219 123.832031 160.511719 123.621094 C 160.449219 123.414062 160.570312 123.191406 160.78125 123.128906 C 160.964844 123.078125 161.140625 122.773438 161.214844 122.398438 L 161.261719 122.066406 C 161.285156 121.53125 161.253906 121.058594 161.1875 121.003906 C 161.101562 120.929688 160.96875 120.914062 160.683594 121.066406 C 159.640625 121.621094 158.210938 123.644531 157.546875 125.558594 C 157.1875 126.59375 157.066406 127.546875 157.105469 128.3125 C 157.125 128.730469 157.203125 129.035156 157.316406 129.148438 C 157.480469 129.308594 157.765625 129.371094 158.175781 129.300781 C 159.546875 129.074219 161.441406 127.679688 162.160156 126.941406 C 162.3125 126.785156 162.566406 126.78125 162.722656 126.933594 C 162.878906 127.085938 162.882812 127.335938 162.730469 127.496094 C 162.191406 128.050781 161.164062 128.84375 160.019531 129.449219 C 159.449219 129.75 158.867188 129.992188 158.304688 130.085938 C 157.75 130.175781 157.160156 130.109375 156.757812 129.710938 C 156.386719 129.34375 156.335938 128.832031 156.3125 128.355469 C 156.269531 127.472656 156.40625 126.425781 156.796875 125.300781 C 157.273438 123.917969 158.09375 122.535156 158.984375 121.507812 C 159.417969 121.011719 159.855469 120.605469 160.308594 120.367188 C 160.753906 120.128906 161.320312 120.0625 161.707031 120.402344 C 161.980469 120.640625 162.050781 120.976562 162.070312 121.269531 L 162.054688 122.105469 L 161.992188 122.550781 C 161.890625 123.0625 161.644531 123.707031 161.003906 123.894531 M 164.144531 129.964844 C 164.132812 129.746094 164.304688 129.558594 164.523438 129.550781 C 164.742188 129.542969 164.929688 129.714844 164.9375 129.933594 C 164.957031 130.472656 164.960938 131.097656 164.847656 131.644531 L 164.582031 132.300781 L 164.417969 132.503906 C 164.34375 132.574219 164.195312 132.714844 163.941406 132.632812 C 163.675781 132.550781 163.636719 132.328125 163.625 132.226562 C 163.582031 131.894531 163.683594 131.546875 163.804688 131.050781 L 164.269531 129.269531 L 164.910156 126.914062 L 165.511719 125.527344 C 166.089844 124.46875 167.234375 123.929688 168.113281 124.367188 C 168.660156 124.640625 168.953125 125.195312 169.039062 125.75 C 169.125 126.304688 169.03125 126.886719 168.789062 127.378906 C 168.3125 128.332031 167.125 128.859375 166.03125 129.011719 C 165.492188 129.085938 164.964844 129.066406 164.523438 128.859375 C 164.085938 128.652344 163.769531 128.148438 163.835938 127.59375 C 163.863281 127.375 164.0625 127.222656 164.277344 127.246094 C 164.496094 127.273438 164.652344 127.472656 164.625 127.691406 C 164.589844 127.953125 164.664062 128.046875 164.863281 128.140625 C 165.617188 128.5 167.648438 127.890625 168.078125 127.023438 C 168.414062 126.347656 168.289062 125.34375 167.757812 125.078125 C 167.359375 124.878906 166.636719 125.125 166.210938 125.910156 L 165.660156 127.171875 L 165.035156 129.476562 L 164.527344 131.4375 L 164.417969 132.03125 L 164.414062 132.125 L 164.386719 132.050781 L 164.320312 131.960938 C 164.355469 131.992188 164.121094 131.859375 164.175781 131.875 C 164.230469 131.890625 163.980469 131.867188 164.027344 131.863281 L 163.9375 131.886719 L 163.878906 131.921875 L 163.921875 131.859375 L 164.070312 131.480469 C 164.160156 131.058594 164.164062 130.476562 164.144531 129.964844 "/>
<path style=" stroke:none;fill-rule:nonzero;fill:rgb(92.941284%,21.176147%,14.117432%);fill-opacity:1;" d="M 53.59375 182.1875 C 53.378906 182.214844 53.179688 182.0625 53.152344 181.84375 C 53.125 181.625 53.277344 181.425781 53.496094 181.398438 C 53.558594 181.390625 53.355469 181.449219 53.378906 181.4375 L 53.351562 181.453125 C 53.449219 181.359375 53.71875 180.953125 53.847656 180.601562 L 53.898438 180.371094 L 53.933594 179.949219 C 53.921875 179.910156 53.886719 179.867188 53.695312 179.859375 C 53.476562 179.851562 53.160156 179.929688 52.835938 180.109375 C 52.121094 180.5 50.917969 181.660156 49.984375 182.863281 C 49.261719 183.796875 48.9375 184.441406 48.816406 185.113281 C 48.601562 186.300781 48.761719 187.644531 49.234375 188.234375 C 49.566406 188.652344 50.617188 188.75 51.703125 188.5 C 52.792969 188.246094 53.8125 187.683594 54.046875 187.285156 C 54.160156 187.09375 54.402344 187.03125 54.589844 187.144531 C 54.78125 187.253906 54.84375 187.496094 54.734375 187.6875 C 54.261719 188.488281 53.101562 188.992188 51.882812 189.273438 C 50.660156 189.554688 49.300781 189.589844 48.613281 188.730469 C 47.886719 187.820312 47.789062 186.316406 48.035156 184.972656 C 48.179688 184.152344 48.589844 183.367188 49.355469 182.378906 C 50.34375 181.105469 51.535156 179.917969 52.453125 179.410156 C 52.882812 179.175781 53.320312 179.050781 53.726562 179.066406 C 54.125 179.082031 54.566406 179.296875 54.695312 179.71875 C 54.789062 180.03125 54.707031 180.277344 54.691406 180.449219 L 54.589844 180.878906 L 54.1875 181.664062 L 53.96875 181.957031 C 53.894531 182.039062 53.875 182.152344 53.59375 182.1875 "/>
<path style=" stroke:none;fill-rule:nonzero;fill:rgb(92.941284%,21.176147%,14.117432%);fill-opacity:1;" d="M 56.859375 185.644531 C 56.730469 185.820312 56.484375 185.859375 56.304688 185.730469 C 56.128906 185.601562 56.089844 185.355469 56.21875 185.175781 C 56.277344 185.09375 56.738281 185.003906 56.863281 185.175781 C 57.027344 185.398438 56.941406 185.398438 56.945312 185.429688 L 56.828125 186.816406 L 56.527344 190.199219 L 56.507812 191.171875 L 56.488281 191.132812 C 56.503906 191.160156 56.316406 190.964844 56.382812 191.011719 C 56.445312 191.054688 56.042969 190.949219 56.132812 190.941406 C 56.207031 190.9375 55.921875 191.027344 55.960938 191 L 55.898438 191.054688 L 55.871094 191.085938 L 55.933594 190.933594 C 56.003906 190.726562 56.230469 190.613281 56.4375 190.683594 C 56.644531 190.753906 56.757812 190.980469 56.6875 191.1875 L 56.550781 191.5 L 56.394531 191.667969 C 56.289062 191.734375 56.046875 191.75 55.914062 191.652344 C 55.699219 191.492188 55.738281 191.382812 55.722656 191.296875 C 55.675781 190.984375 55.707031 190.535156 55.746094 189.949219 L 56.015625 186.953125 L 56.125 185.800781 L 56.148438 185.488281 L 56.148438 185.449219 C 56.148438 185.441406 56.214844 185.652344 56.175781 185.5625 C 56.125 185.4375 56.933594 185.542969 56.859375 185.644531 "/>
<path style=" stroke:none;fill-rule:nonzero;fill:rgb(0%,45.097351%,23.136902%);fill-opacity:1;" d="M 183.546875 26.773438 C 183.808594 26.96875 183.863281 27.34375 183.667969 27.605469 C 183.46875 27.867188 183.09375 27.921875 182.832031 27.726562 L 182.46875 27.335938 C 182.375 27.164062 182.335938 26.847656 182.472656 26.617188 C 182.6875 26.25 182.964844 26.234375 183.191406 26.191406 C 183.890625 26.054688 184.921875 26.097656 186.222656 26.109375 L 190.980469 26.109375 L 191.878906 26.113281 C 192.347656 26.167969 192.867188 26.472656 192.984375 27.015625 C 193.113281 27.621094 192.867188 28.171875 192.585938 28.515625 L 191.921875 29.277344 C 191.65625 29.699219 191.441406 30.199219 191.140625 30.902344 C 190.785156 31.746094 190.183594 33.421875 189.855469 35.019531 C 189.617188 36.160156 189.589844 36.941406 189.582031 37.519531 L 189.582031 38.148438 L 189.597656 38.316406 L 189.578125 38.261719 C 189.589844 38.289062 189.46875 38.085938 189.511719 38.140625 C 189.542969 38.1875 189.253906 37.941406 189.339844 37.988281 C 189.40625 38.027344 188.996094 37.90625 189.089844 37.914062 C 189.160156 37.917969 188.832031 37.949219 188.890625 37.933594 C 188.976562 37.910156 188.652344 38.0625 188.699219 38.027344 L 188.609375 38.113281 L 189.175781 37.378906 C 189.449219 37.097656 189.917969 36.917969 190.417969 36.945312 C 191.085938 36.984375 192.398438 36.996094 193.703125 37.125 L 195.402344 37.3125 L 196.058594 37.414062 L 196.09375 37.417969 L 196.007812 37.460938 C 196.054688 37.429688 195.808594 37.742188 195.851562 37.644531 C 195.890625 37.5625 195.847656 38.0625 195.820312 37.960938 C 195.800781 37.875 195.929688 38.160156 195.90625 38.128906 C 195.871094 38.089844 195.9375 38.160156 195.90625 38.140625 C 195.785156 38.066406 195.503906 37.980469 195.226562 37.710938 C 194.988281 37.480469 194.980469 37.101562 195.210938 36.867188 C 195.4375 36.628906 195.816406 36.625 196.050781 36.851562 L 196.441406 37.074219 L 196.796875 37.339844 C 196.9375 37.496094 197.0625 37.878906 196.929688 38.160156 C 196.683594 38.671875 196.269531 38.632812 195.945312 38.601562 L 195.253906 38.492188 L 193.585938 38.3125 C 192.347656 38.191406 191.074219 38.175781 190.355469 38.136719 C 190.089844 38.121094 190.089844 38.144531 190.023438 38.210938 L 189.523438 38.878906 C 189.46875 38.941406 189.375 39.046875 189.179688 39.089844 C 188.996094 39.128906 188.777344 39.058594 188.660156 38.964844 C 188.335938 38.699219 188.433594 38.585938 188.417969 38.496094 L 188.390625 38.222656 L 188.390625 37.507812 C 188.398438 36.894531 188.433594 36.007812 188.6875 34.777344 C 189.042969 33.066406 189.652344 31.359375 190.046875 30.4375 C 190.347656 29.726562 190.585938 29.164062 190.914062 28.640625 C 191.171875 28.230469 191.488281 27.980469 191.664062 27.761719 C 191.820312 27.570312 191.867188 27.488281 191.820312 27.269531 L 191.851562 27.328125 L 191.734375 27.296875 L 190.980469 27.300781 L 186.210938 27.300781 L 183.597656 27.332031 L 183.351562 27.375 C 183.328125 27.382812 183.441406 27.304688 183.390625 27.347656 L 183.46875 27.265625 C 183.417969 27.335938 183.566406 26.867188 183.566406 26.972656 C 183.566406 27.050781 183.511719 26.75 183.527344 26.792969 C 183.554688 26.847656 183.484375 26.71875 183.484375 26.722656 Z M 188.199219 33.082031 C 188.496094 33.222656 188.628906 33.574219 188.492188 33.875 C 188.355469 34.171875 188 34.304688 187.703125 34.167969 C 187.496094 34.074219 187.300781 34.105469 187.113281 33.679688 C 187.027344 33.480469 187.097656 33.117188 187.25 32.96875 C 187.664062 32.566406 187.839844 32.742188 188.09375 32.738281 L 189.023438 32.746094 C 190.941406 32.785156 193.058594 32.550781 194.183594 32.640625 C 194.511719 32.667969 194.753906 32.957031 194.730469 33.285156 C 194.703125 33.613281 194.414062 33.855469 194.085938 33.832031 C 193.214844 33.761719 191.007812 33.976562 189 33.9375 L 187.886719 33.941406 L 187.960938 33.910156 C 187.921875 33.929688 188.175781 33.714844 188.117188 33.785156 C 188.058594 33.855469 188.261719 33.382812 188.246094 33.5 C 188.230469 33.601562 188.191406 33.160156 188.21875 33.234375 C 188.238281 33.289062 188.128906 33.070312 188.148438 33.101562 C 188.183594 33.152344 188.0625 33.011719 188.074219 33.023438 Z M 203.628906 34.957031 C 203.796875 35.238281 203.703125 35.605469 203.417969 35.773438 C 203.132812 35.9375 202.769531 35.84375 202.601562 35.558594 L 202.535156 35.457031 L 202.550781 35.46875 C 202.527344 35.449219 202.789062 35.5625 202.707031 35.542969 C 202.628906 35.523438 203.078125 35.503906 202.984375 35.535156 C 202.902344 35.558594 203.21875 35.382812 203.175781 35.421875 L 203.246094 35.335938 L 203.273438 35.285156 L 203.246094 35.558594 C 203.226562 36.152344 203.5 37.085938 203.832031 37.90625 L 204.308594 38.9375 L 204.480469 39.242188 L 204.519531 39.300781 L 204.507812 39.289062 C 204.519531 39.300781 204.378906 39.191406 204.429688 39.222656 C 204.703125 39.40625 204.777344 39.777344 204.59375 40.050781 C 204.410156 40.324219 204.042969 40.398438 203.769531 40.214844 C 203.382812 39.957031 203.40625 39.789062 203.253906 39.492188 C 202.738281 38.511719 202.011719 36.914062 202.054688 35.523438 C 202.0625 35.226562 201.984375 34.945312 202.332031 34.582031 C 202.535156 34.367188 203.039062 34.355469 203.246094 34.5 C 203.433594 34.632812 203.527344 34.78125 203.628906 34.957031 M 202.777344 30.71875 C 202.636719 31.015625 202.28125 31.144531 201.984375 31.003906 C 201.6875 30.867188 201.558594 30.511719 201.695312 30.210938 C 201.734375 30.132812 201.660156 30.46875 201.65625 30.417969 C 201.652344 30.347656 201.667969 30.484375 201.652344 30.441406 C 201.621094 30.359375 201.527344 30.203125 201.546875 29.925781 C 201.570312 29.621094 201.824219 29.320312 202.085938 29.199219 C 202.382812 29.058594 202.738281 29.183594 202.878906 29.480469 C 203.019531 29.777344 202.894531 30.132812 202.59375 30.273438 L 202.730469 29.925781 L 202.800781 30.113281 C 202.839844 30.234375 202.894531 30.460938 202.777344 30.71875 M 207.296875 33.738281 C 207.367188 33.414062 207.679688 33.207031 208.003906 33.273438 C 208.324219 33.34375 208.53125 33.65625 208.464844 33.980469 C 208.367188 34.460938 208.339844 35.605469 208.496094 36.59375 L 208.675781 37.417969 L 208.773438 37.605469 L 209.027344 37.609375 C 209.402344 37.511719 210.546875 36.082031 211.550781 35.199219 C 211.863281 34.925781 212.132812 34.730469 212.441406 34.632812 C 212.714844 34.542969 213.089844 34.566406 213.339844 34.761719 C 213.761719 35.089844 213.777344 35.515625 213.8125 35.894531 L 213.921875 37.507812 L 214.03125 37.847656 C 214.035156 37.851562 213.960938 37.839844 214.035156 37.828125 C 214.363281 37.785156 214.664062 38.011719 214.707031 38.339844 C 214.75 38.664062 214.523438 38.964844 214.195312 39.007812 C 213.847656 39.054688 213.464844 38.949219 213.21875 38.71875 C 212.800781 38.328125 212.746094 37.820312 212.699219 37.351562 C 212.636719 36.65625 212.652344 35.9375 212.570312 35.683594 C 212.558594 35.640625 212.625 35.722656 212.585938 35.683594 C 212.550781 35.648438 212.804688 35.773438 212.746094 35.761719 L 212.816406 35.761719 L 212.339844 36.09375 L 210.957031 37.535156 C 210.457031 38.066406 209.992188 38.59375 209.320312 38.761719 C 208.957031 38.855469 208.566406 38.839844 208.226562 38.664062 C 207.519531 38.300781 207.4375 37.53125 207.316406 36.78125 C 207.136719 35.640625 207.148438 34.46875 207.296875 33.738281 "/>
<path style=" stroke:none;fill-rule:nonzero;fill:rgb(0%,45.097351%,23.136902%);fill-opacity:1;" d="M 178.066406 34.3125 C 178.394531 34.3125 178.664062 34.578125 178.664062 34.90625 C 178.664062 35.238281 178.394531 35.503906 178.066406 35.503906 L 166.390625 35.503906 C 166.0625 35.503906 165.796875 35.238281 165.796875 34.90625 C 165.796875 34.578125 166.0625 34.3125 166.390625 34.3125 Z M 166.390625 39.648438 L 155.492188 34.90625 L 166.390625 30.167969 Z M 166.390625 39.648438 "/>
<path style=" stroke:none;fill-rule:nonzero;fill:rgb(7.058716%,1.176453%,46.665955%);fill-opacity:1;" d="M 82.203125 110.144531 C 81.894531 110.03125 81.734375 109.691406 81.847656 109.382812 C 81.960938 109.070312 82.304688 108.914062 82.613281 109.027344 C 93.652344 113.078125 93.652344 117.875 82.632812 122.378906 C 82.328125 122.503906 81.980469 122.355469 81.855469 122.050781 C 81.730469 121.746094 81.878906 121.398438 82.183594 121.277344 C 92.207031 117.179688 92.207031 113.816406 82.203125 110.144531 M 82.203125 122.386719 C 81.894531 122.273438 81.734375 121.929688 81.847656 121.621094 C 81.960938 121.3125 82.304688 121.15625 82.613281 121.269531 C 93.652344 125.320312 93.652344 130.117188 82.632812 134.621094 C 82.328125 134.742188 81.980469 134.597656 81.855469 134.292969 C 81.730469 133.988281 81.878906 133.640625 82.183594 133.515625 C 92.207031 129.421875 92.207031 126.058594 82.203125 122.386719 M 82.058594 134.550781 C 81.75 134.4375 81.589844 134.09375 81.703125 133.785156 C 81.816406 133.476562 82.160156 133.316406 82.46875 133.429688 C 93.507812 137.480469 93.507812 142.28125 82.488281 146.78125 C 82.183594 146.90625 81.835938 146.761719 81.710938 146.457031 C 81.589844 146.152344 81.734375 145.804688 82.039062 145.679688 C 92.0625 141.582031 92.0625 138.21875 82.058594 134.550781 M 82.265625 35.113281 C 81.933594 35.113281 81.667969 34.847656 81.667969 34.515625 C 81.667969 34.1875 81.933594 33.921875 82.265625 33.921875 L 146.3125 33.921875 C 146.640625 33.921875 146.90625 34.1875 146.90625 34.515625 C 146.90625 34.847656 146.640625 35.113281 146.3125 35.113281 Z M 135.175781 94.765625 C 135.175781 95.09375 134.910156 95.359375 134.582031 95.359375 C 134.253906 95.359375 133.984375 95.09375 133.984375 94.765625 L 133.984375 34.515625 C 133.984375 34.1875 134.253906 33.921875 134.582031 33.921875 C 134.910156 33.921875 135.175781 34.1875 135.175781 34.515625 Z M 135.402344 219.609375 C 135.402344 219.941406 135.136719 220.207031 134.804688 220.207031 C 134.476562 220.207031 134.210938 219.941406 134.210938 219.609375 L 134.210938 159.363281 C 134.210938 159.035156 134.476562 158.769531 134.804688 158.769531 C 135.136719 158.769531 135.402344 159.035156 135.402344 159.363281 Z M 82.265625 220.207031 C 81.933594 220.207031 81.667969 219.941406 81.667969 219.609375 C 81.667969 219.28125 81.933594 219.015625 82.265625 219.015625 L 146.3125 219.015625 C 146.640625 219.015625 146.90625 219.28125 146.90625 219.609375 C 146.90625 219.941406 146.640625 220.207031 146.3125 220.207031 Z M 82.265625 220.207031 "/>
<path style=" stroke:none;fill-rule:nonzero;fill:rgb(92.941284%,21.176147%,14.117432%);fill-opacity:1;" d="M 56.398438 185.960938 C 56.367188 186.179688 56.164062 186.332031 55.949219 186.300781 C 55.730469 186.269531 55.578125 186.070312 55.609375 185.851562 C 55.644531 185.613281 55.75 185.582031 55.804688 185.535156 C 56.015625 185.371094 56.3125 185.242188 56.707031 185.082031 C 57.324219 184.835938 58.074219 184.589844 58.75 184.492188 C 59.078125 184.445312 59.386719 184.421875 59.675781 184.515625 C 59.972656 184.609375 60.246094 184.980469 60.195312 185.332031 C 60.164062 185.546875 59.960938 185.699219 59.746094 185.667969 C 59.527344 185.632812 59.378906 185.433594 59.410156 185.214844 L 59.453125 185.28125 L 58.898438 185.273438 C 58.375 185.34375 57.714844 185.546875 57.15625 185.761719 L 56.480469 186.054688 L 56.3125 186.152344 L 56.34375 186.105469 C 56.328125 186.132812 56.40625 185.890625 56.398438 185.960938 M 56.679688 188.707031 C 56.597656 188.910156 56.367188 189.011719 56.164062 188.929688 C 55.957031 188.847656 55.859375 188.617188 55.941406 188.414062 C 56.183594 187.804688 56.835938 187.632812 57.382812 187.585938 C 57.925781 187.542969 58.46875 187.558594 58.851562 187.433594 C 59.058594 187.363281 59.285156 187.476562 59.351562 187.6875 C 59.421875 187.894531 59.308594 188.117188 59.101562 188.1875 C 58.527344 188.375 57.929688 188.339844 57.445312 188.378906 C 56.996094 188.417969 56.761719 188.5 56.679688 188.707031 M 62.589844 123.652344 C 62.691406 123.847656 62.617188 124.089844 62.421875 124.1875 C 62.226562 124.289062 61.988281 124.214844 61.886719 124.019531 C 61.761719 123.777344 61.792969 123.628906 61.785156 123.429688 L 61.78125 123.101562 L 61.828125 122.867188 L 61.925781 122.734375 C 62.058594 122.617188 62.390625 122.664062 62.480469 122.753906 C 62.691406 122.96875 62.601562 122.992188 62.613281 123.058594 L 62.636719 123.296875 C 62.65625 123.730469 62.691406 124.4375 62.59375 125.339844 C 62.535156 125.890625 62.386719 126.46875 62.21875 127.109375 L 61.425781 129.871094 L 60.714844 132.066406 L 60.460938 133.136719 L 60.40625 133.355469 L 60.410156 133.292969 L 60.382812 133.199219 L 60.3125 133.101562 C 60.359375 133.148438 60.105469 133.007812 60.152344 133.019531 L 60.058594 133.015625 C 60.441406 132.949219 60.773438 132.574219 61.417969 132.585938 L 62.28125 132.585938 C 63.03125 132.558594 64.375 132.253906 65.410156 132.019531 C 66.132812 131.855469 66.621094 131.839844 66.960938 132.128906 C 67.144531 132.28125 67.1875 132.695312 67.007812 132.878906 C 66.84375 133.050781 66.636719 133.089844 66.421875 133.089844 C 66.203125 133.09375 66.023438 132.917969 66.023438 132.699219 C 66.019531 132.476562 66.199219 132.300781 66.417969 132.296875 L 66.488281 132.289062 L 66.453125 132.3125 C 66.480469 132.289062 66.355469 132.519531 66.371094 132.449219 C 66.386719 132.386719 66.40625 132.691406 66.382812 132.636719 L 66.441406 132.726562 L 66.449219 132.738281 C 66.355469 132.707031 66.058594 132.6875 65.585938 132.792969 C 64.542969 133.027344 63.210938 133.347656 62.3125 133.378906 L 61.40625 133.378906 C 61.136719 133.375 60.839844 133.683594 60.195312 133.796875 C 60.09375 133.816406 59.945312 133.8125 59.8125 133.71875 C 59.679688 133.621094 59.628906 133.46875 59.617188 133.363281 C 59.59375 133.117188 59.664062 133.066406 59.683594 132.984375 L 59.960938 131.824219 L 60.667969 129.636719 L 61.449219 126.90625 L 61.804688 125.257812 C 61.894531 124.417969 61.863281 123.761719 61.84375 123.339844 L 61.828125 123.171875 L 61.847656 123.222656 C 61.839844 123.203125 61.957031 123.351562 61.914062 123.3125 L 62.003906 123.378906 C 61.960938 123.355469 62.214844 123.433594 62.152344 123.425781 C 62.09375 123.417969 62.382812 123.386719 62.328125 123.40625 C 62.277344 123.421875 62.476562 123.308594 62.449219 123.335938 C 62.394531 123.378906 62.554688 123.195312 62.539062 123.222656 C 62.515625 123.269531 62.574219 123.125 62.570312 123.136719 L 62.574219 123.175781 L 62.578125 123.394531 L 62.59375 123.621094 L 62.605469 123.6875 Z M 62.226562 64.742188 C 62.429688 64.660156 62.660156 64.757812 62.742188 64.964844 C 62.824219 65.167969 62.722656 65.398438 62.519531 65.480469 C 62.449219 65.507812 62.703125 65.332031 62.671875 65.371094 L 62.722656 65.285156 L 62.742188 65.230469 L 62.957031 67.492188 L 63.113281 69.65625 L 63.265625 71.132812 L 63.308594 71.394531 L 63.308594 71.40625 L 63.300781 71.378906 L 63.253906 71.308594 L 63.195312 71.246094 C 63.222656 71.269531 63.007812 71.15625 63.066406 71.175781 C 63.121094 71.191406 62.804688 71.175781 62.871094 71.164062 C 62.933594 71.152344 62.675781 71.261719 62.714844 71.230469 L 62.636719 71.304688 L 62.582031 71.398438 L 62.566406 71.457031 L 62.570312 71.222656 C 62.566406 70.449219 62.445312 69.019531 62.667969 67.308594 C 62.886719 65.617188 63.683594 64.085938 64.851562 63.285156 C 65.335938 62.949219 65.785156 62.738281 66.183594 62.65625 L 66.75 62.660156 C 66.941406 62.714844 67.144531 62.878906 67.207031 63.097656 C 67.308594 63.449219 67.164062 63.726562 67.015625 64.066406 L 66.390625 65.328125 C 65.976562 66.125 65.355469 67.40625 64.628906 68.601562 L 63.527344 70.179688 C 63.074219 70.746094 62.640625 71.09375 62.289062 71.257812 C 62.082031 71.351562 61.769531 71.21875 61.675781 71.070312 C 61.429688 70.691406 61.511719 70.292969 61.710938 69.90625 C 61.964844 69.414062 62.492188 69.148438 63.011719 69.152344 C 63.535156 69.15625 64.074219 69.390625 64.519531 69.796875 C 65.296875 70.503906 65.945312 71.25 66.523438 71.707031 C 67.050781 72.125 67.375 72.230469 67.726562 71.949219 C 67.898438 71.8125 68.148438 71.839844 68.285156 72.011719 C 68.421875 72.183594 68.394531 72.433594 68.222656 72.570312 C 67.882812 72.84375 67.457031 72.945312 67.074219 72.871094 C 65.9375 72.648438 65.089844 71.390625 63.984375 70.382812 C 63.667969 70.09375 63.300781 69.949219 63.007812 69.945312 C 62.730469 69.945312 62.53125 70.046875 62.417969 70.269531 L 62.351562 70.625 L 62.359375 70.667969 L 62.351562 70.65625 L 62.320312 70.613281 L 62.261719 70.558594 C 62.300781 70.585938 62.039062 70.503906 62.101562 70.507812 C 62.160156 70.511719 61.921875 70.550781 61.957031 70.535156 C 62.140625 70.453125 62.519531 70.171875 62.902344 69.683594 L 63.949219 68.191406 C 64.652344 67.035156 65.265625 65.773438 65.683594 64.964844 L 66.289062 63.75 L 66.421875 63.386719 L 66.441406 63.316406 L 66.496094 63.398438 L 66.53125 63.425781 C 66.488281 63.410156 65.9375 63.5 65.300781 63.9375 C 64.382812 64.570312 63.652344 65.910156 63.457031 67.410156 C 63.246094 69.03125 63.363281 70.390625 63.363281 71.21875 L 63.359375 71.472656 L 63.335938 71.652344 C 63.324219 71.691406 63.332031 71.761719 63.183594 71.875 C 63.023438 71.988281 62.722656 71.898438 62.648438 71.816406 C 62.46875 71.621094 62.539062 71.597656 62.523438 71.527344 L 62.480469 71.238281 L 62.320312 69.714844 L 62.167969 67.570312 L 61.984375 65.875 L 61.945312 65.324219 L 61.953125 65.113281 C 61.964844 65.035156 61.933594 64.855469 62.226562 64.742188 M 71.078125 69.960938 C 70.871094 70.035156 70.644531 69.925781 70.574219 69.71875 C 70.5 69.511719 70.609375 69.285156 70.816406 69.210938 L 70.777344 69.238281 L 70.761719 69.292969 C 70.765625 69.257812 70.828125 69.519531 70.792969 69.453125 C 70.765625 69.40625 70.941406 69.574219 70.90625 69.558594 L 70.957031 69.574219 C 70.90625 69.570312 70.511719 69.75 70.363281 69.941406 C 70.277344 70.054688 70.234375 70.195312 70.25 70.351562 C 70.265625 70.488281 70.75 71.089844 71.515625 71.605469 L 72.777344 72.511719 C 73.273438 72.933594 73.4375 73.570312 73.164062 73.992188 C 72.765625 74.609375 71.945312 74.847656 71.199219 75.023438 L 70.203125 75.195312 L 69.84375 75.207031 L 69.667969 75.179688 C 69.597656 75.160156 69.429688 75.136719 69.355469 74.886719 C 69.296875 74.675781 69.414062 74.457031 69.625 74.394531 C 69.835938 74.332031 70.058594 74.453125 70.117188 74.660156 C 70.140625 74.738281 69.972656 74.457031 70.011719 74.492188 L 69.925781 74.433594 L 69.867188 74.410156 C 70 74.433594 71.054688 74.3125 71.820312 74 C 72.1875 73.851562 72.449219 73.65625 72.511719 73.542969 C 72.554688 73.457031 72.574219 73.382812 72.261719 73.117188 L 71.070312 72.261719 C 70.230469 71.695312 69.535156 71.148438 69.460938 70.433594 C 69.421875 70.074219 69.53125 69.726562 69.730469 69.460938 C 69.933594 69.191406 70.214844 69 70.5 68.882812 L 70.953125 68.777344 C 71.125 68.777344 71.367188 68.851562 71.488281 69.066406 C 71.613281 69.289062 71.542969 69.503906 71.460938 69.644531 C 71.378906 69.785156 71.253906 69.898438 71.078125 69.960938 "/>
<path style=" stroke:none;fill-rule:nonzero;fill:rgb(7.058716%,1.176453%,46.665955%);fill-opacity:1;" d="M 153.878906 219.527344 C 153.878906 221.03125 153.066406 222.347656 151.851562 223.054688 C 151.25 223.40625 150.546875 223.609375 149.796875 223.609375 C 148.292969 223.609375 146.976562 222.796875 146.269531 221.582031 C 145.917969 220.980469 145.714844 220.277344 145.714844 219.527344 C 145.714844 218.023438 146.527344 216.707031 147.738281 216 C 148.34375 215.644531 149.046875 215.445312 149.796875 215.445312 C 151.300781 215.445312 152.617188 216.257812 153.324219 217.46875 C 153.675781 218.074219 153.878906 218.777344 153.878906 219.527344 M 152.6875 219.527344 C 152.6875 218.996094 152.542969 218.5 152.292969 218.070312 C 151.792969 217.210938 150.863281 216.636719 149.796875 216.636719 C 149.265625 216.636719 148.769531 216.777344 148.339844 217.027344 C 147.480469 217.53125 146.90625 218.460938 146.90625 219.527344 C 146.90625 220.058594 147.046875 220.554688 147.296875 220.980469 C 147.800781 221.839844 148.730469 222.417969 149.796875 222.417969 C 150.328125 222.417969 150.824219 222.273438 151.253906 222.023438 C 152.109375 221.523438 152.6875 220.59375 152.6875 219.527344 M 153.859375 34.90625 C 153.859375 36.414062 153.042969 37.726562 151.832031 38.433594 C 151.230469 38.789062 150.527344 38.992188 149.777344 38.992188 C 148.269531 38.992188 146.957031 38.175781 146.25 36.964844 C 145.894531 36.359375 145.691406 35.65625 145.691406 34.90625 C 145.691406 33.402344 146.507812 32.089844 147.71875 31.378906 C 148.324219 31.027344 149.027344 30.824219 149.777344 30.824219 C 151.28125 30.824219 152.59375 31.640625 153.304688 32.851562 C 153.65625 33.453125 153.859375 34.15625 153.859375 34.90625 M 152.667969 34.90625 C 152.667969 34.375 152.523438 33.878906 152.273438 33.453125 C 151.773438 32.59375 150.839844 32.015625 149.777344 32.015625 C 149.246094 32.015625 148.746094 32.160156 148.320312 32.410156 C 147.460938 32.910156 146.886719 33.839844 146.886719 34.90625 C 146.886719 35.4375 147.027344 35.9375 147.277344 36.363281 C 147.777344 37.222656 148.710938 37.796875 149.777344 37.796875 C 150.308594 37.796875 150.804688 37.65625 151.230469 37.40625 C 152.089844 36.90625 152.667969 35.972656 152.667969 34.90625 "/>
<path style=" stroke:none;fill-rule:nonzero;fill:rgb(0%,45.097351%,23.136902%);fill-opacity:1;" d="M 153.28125 220.058594 C 152.953125 220.058594 152.6875 219.792969 152.6875 219.464844 C 152.6875 219.136719 152.953125 218.867188 153.28125 218.867188 L 166.777344 218.867188 C 167.109375 218.867188 167.375 219.136719 167.375 219.464844 C 167.375 219.792969 167.109375 220.058594 166.777344 220.058594 Z M 149.320312 48.148438 C 149.320312 47.820312 149.585938 47.554688 149.914062 47.554688 C 150.242188 47.554688 150.511719 47.820312 150.511719 48.148438 L 150.511719 60.261719 C 150.511719 60.59375 150.242188 60.859375 149.914062 60.859375 C 149.585938 60.859375 149.320312 60.59375 149.320312 60.261719 Z M 154.65625 60.261719 L 149.914062 71.164062 L 145.175781 60.261719 Z M 51.355469 45.117188 C 51.355469 44.789062 51.621094 44.519531 51.949219 44.519531 C 52.28125 44.519531 52.546875 44.789062 52.546875 45.117188 L 52.546875 57.230469 C 52.546875 57.558594 52.28125 57.824219 51.949219 57.824219 C 51.621094 57.824219 51.355469 57.558594 51.355469 57.230469 Z M 56.691406 57.230469 L 51.949219 68.128906 L 47.210938 57.230469 Z M 56.691406 57.230469 "/>
<path style=" stroke:none;fill-rule:nonzero;fill:rgb(0%,45.097351%,23.136902%);fill-opacity:1;" d="M 166.699219 220.34375 C 166.675781 220.671875 166.390625 220.917969 166.0625 220.894531 C 165.734375 220.867188 165.488281 220.582031 165.511719 220.253906 L 165.605469 219.636719 C 165.640625 219.503906 165.65625 219.328125 165.945312 219.15625 C 166.191406 219.011719 166.570312 219.117188 166.707031 219.242188 C 167.03125 219.539062 166.992188 219.75 167.03125 219.996094 C 167.242188 221.246094 166.726562 223.164062 166.597656 224.882812 L 166.550781 227.171875 L 166.542969 227.96875 L 166.707031 228.394531 L 166.660156 228.355469 C 166.6875 228.371094 166.460938 228.273438 166.523438 228.292969 C 166.585938 228.308594 166.199219 228.300781 166.289062 228.28125 C 166.371094 228.269531 166.003906 228.425781 166.066406 228.378906 C 166.117188 228.339844 165.925781 228.535156 165.949219 228.5 C 165.992188 228.4375 165.882812 228.648438 165.890625 228.625 L 165.875 228.449219 C 165.84375 228.121094 166.082031 227.828125 166.410156 227.792969 C 166.738281 227.761719 167.027344 228 167.0625 228.328125 C 167.089844 228.613281 167.148438 228.828125 166.945312 229.152344 C 166.859375 229.289062 166.664062 229.445312 166.445312 229.464844 C 166.085938 229.496094 165.933594 229.3125 165.835938 229.203125 C 165.558594 228.910156 165.417969 228.550781 165.363281 228.125 L 165.359375 227.171875 L 165.410156 224.792969 C 165.546875 222.960938 165.980469 220.921875 165.855469 220.191406 L 165.8125 220.011719 L 165.824219 220.027344 C 165.8125 220.007812 165.960938 220.175781 165.910156 220.128906 L 166.011719 220.199219 C 165.96875 220.175781 166.238281 220.261719 166.175781 220.253906 C 166.054688 220.230469 166.628906 220.140625 166.53125 220.195312 C 166.453125 220.238281 166.722656 220.023438 166.691406 220.0625 C 166.640625 220.121094 166.753906 219.953125 166.75 219.964844 Z M 160.109375 229.636719 C 160.378906 229.824219 160.445312 230.199219 160.257812 230.46875 C 160.070312 230.738281 159.695312 230.804688 159.425781 230.613281 C 159.265625 230.503906 159.09375 230.359375 159.019531 230.082031 C 158.90625 229.640625 159.265625 229.292969 159.488281 229.179688 L 160.140625 228.992188 C 160.976562 228.867188 161.921875 228.976562 163.132812 228.984375 C 164.152344 228.992188 165.496094 229.042969 166.785156 228.882812 L 168.605469 228.53125 C 169.804688 228.292969 170.652344 228.273438 171.238281 228.511719 C 171.386719 228.574219 171.574219 228.652344 171.699219 228.914062 C 171.800781 229.125 171.757812 229.433594 171.644531 229.601562 C 171.339844 230.042969 170.984375 230.035156 170.53125 230.09375 C 170.207031 230.136719 169.90625 229.910156 169.863281 229.582031 C 169.820312 229.257812 170.050781 228.957031 170.375 228.914062 L 170.710938 228.84375 L 170.746094 228.839844 C 170.765625 228.824219 170.625 228.980469 170.660156 228.929688 C 170.695312 228.878906 170.570312 229.242188 170.578125 229.152344 C 170.589844 229.0625 170.644531 229.476562 170.613281 229.40625 C 170.585938 229.339844 170.734375 229.578125 170.703125 229.546875 C 170.65625 229.496094 170.792969 229.617188 170.789062 229.617188 C 170.710938 229.578125 169.9375 229.484375 168.835938 229.699219 L 166.929688 230.066406 C 165.519531 230.238281 164.121094 230.183594 163.125 230.175781 C 161.863281 230.167969 160.921875 230.078125 160.320312 230.171875 L 160.074219 230.226562 L 160.023438 230.242188 C 160.011719 230.25 160.15625 230.085938 160.113281 230.148438 C 160.078125 230.199219 160.195312 229.847656 160.1875 229.933594 C 160.183594 230 160.148438 229.707031 160.167969 229.757812 C 160.1875 229.828125 160.082031 229.613281 160.097656 229.632812 Z M 162.914062 232.304688 C 163.214844 232.441406 163.34375 232.796875 163.210938 233.09375 C 163.074219 233.394531 162.71875 233.527344 162.421875 233.390625 L 162.136719 233.183594 C 162.03125 233.054688 161.945312 232.777344 162.023438 232.5625 C 162.144531 232.21875 162.339844 232.191406 162.445312 232.144531 C 162.738281 232.023438 163.046875 231.992188 163.417969 231.945312 L 166.386719 231.652344 L 167.511719 231.503906 L 168.070312 231.40625 L 168.601562 231.324219 C 168.640625 231.324219 168.679688 231.28125 168.894531 231.382812 C 169.023438 231.445312 169.261719 231.710938 169.226562 231.996094 C 169.171875 232.457031 168.984375 232.410156 168.9375 232.441406 L 168.488281 232.621094 L 168.097656 232.785156 C 167.8125 232.957031 167.449219 232.863281 167.28125 232.582031 C 167.109375 232.296875 167.203125 231.933594 167.484375 231.765625 L 168.324219 231.410156 L 168.347656 231.40625 L 168.292969 231.4375 L 168.238281 231.480469 C 168.261719 231.460938 168.113281 231.628906 168.148438 231.582031 C 168.183594 231.53125 168.027344 231.941406 168.050781 231.824219 C 168.089844 231.578125 168.460938 232.511719 168.328125 232.433594 C 168.21875 232.367188 168.582031 232.515625 168.539062 232.507812 C 168.472656 232.5 168.65625 232.515625 168.644531 232.515625 L 168.289062 232.578125 L 167.707031 232.679688 L 166.503906 232.839844 L 163.566406 233.128906 L 162.917969 233.242188 C 162.898438 233.25 163.109375 233.0625 163.046875 233.132812 C 163.019531 233.164062 163.148438 232.964844 163.125 233.015625 C 163.078125 233.109375 163.148438 232.550781 163.167969 232.671875 C 163.1875 232.757812 163.046875 232.40625 163.082031 232.457031 C 163.132812 232.53125 162.929688 232.3125 162.957031 232.332031 Z M 165.847656 235.046875 C 165.863281 235.375 165.609375 235.652344 165.28125 235.671875 C 164.953125 235.6875 164.671875 235.433594 164.65625 235.105469 C 164.636719 234.734375 164.808594 234.28125 165.164062 234.105469 C 165.65625 233.855469 166.042969 234.03125 166.359375 234.121094 L 166.757812 234.230469 L 166.851562 234.257812 C 167.171875 234.195312 167.484375 234.40625 167.546875 234.730469 C 167.609375 235.054688 167.394531 235.367188 167.070312 235.425781 C 166.464844 235.542969 166.09375 235.269531 165.792969 235.207031 L 165.648438 235.1875 L 165.664062 235.183594 C 165.621094 235.195312 165.859375 234.980469 165.828125 235.042969 C 165.800781 235.09375 165.84375 234.984375 165.847656 235.046875 M 168.636719 52.710938 C 168.808594 52.988281 168.726562 53.355469 168.445312 53.53125 C 168.167969 53.707031 167.800781 53.621094 167.625 53.339844 C 167.3125 52.84375 167.550781 52.574219 167.601562 52.390625 L 167.605469 52.40625 L 167.644531 52.476562 L 167.746094 52.566406 L 167.820312 52.59375 C 167.78125 52.589844 167.035156 52.890625 166.273438 53.484375 C 165.472656 54.105469 164.625 54.914062 163.9375 55.71875 C 162.179688 57.769531 162.210938 59.960938 163.160156 61.121094 C 163.765625 61.863281 164.90625 62.097656 165.769531 61.636719 C 166.378906 61.3125 166.855469 60.636719 166.898438 60.007812 C 166.933594 59.558594 166.554688 58.917969 165.992188 58.542969 L 165.328125 58.253906 C 165.058594 58.175781 164.960938 58.207031 164.6875 58.011719 C 164.613281 57.960938 164.398438 57.839844 164.433594 57.464844 C 164.460938 57.105469 164.722656 56.988281 164.820312 56.953125 C 165.078125 56.851562 165.117188 56.898438 165.230469 56.898438 L 166.925781 56.886719 L 169.675781 56.738281 C 170.070312 56.726562 170.421875 56.660156 170.828125 56.75 C 171.316406 56.863281 171.652344 57.34375 171.703125 57.742188 C 171.753906 58.125 171.675781 58.472656 171.585938 58.792969 L 170.460938 62.414062 C 170.46875 62.742188 170.207031 63.015625 169.878906 63.023438 C 169.550781 63.03125 169.277344 62.769531 169.269531 62.441406 C 169.261719 62.117188 169.347656 61.988281 169.433594 61.699219 L 170.4375 58.476562 L 170.523438 57.894531 C 170.511719 57.820312 170.589844 57.917969 170.566406 57.914062 L 169.710938 57.929688 L 166.988281 58.074219 L 165.222656 58.089844 L 165.15625 58.089844 L 165.207031 58.078125 C 165.179688 58.085938 165.378906 57.996094 165.324219 58.027344 L 165.417969 57.960938 C 165.34375 58.023438 165.640625 57.46875 165.609375 57.625 C 165.582031 57.773438 165.507812 57.15625 165.554688 57.246094 C 165.59375 57.324219 165.40625 57.0625 165.441406 57.09375 C 165.496094 57.144531 165.316406 57.003906 165.335938 57.015625 L 165.375 57.023438 L 165.652344 57.105469 C 165.933594 57.1875 166.292969 57.3125 166.648438 57.550781 C 167.5 58.117188 168.164062 59.054688 168.089844 60.09375 C 168.007812 61.199219 167.285156 62.175781 166.332031 62.6875 C 164.964844 63.417969 163.207031 63.058594 162.238281 61.878906 C 160.875 60.210938 160.988281 57.328125 163.03125 54.941406 C 163.824219 54.015625 164.789062 53.105469 165.710938 52.410156 C 166.160156 52.074219 166.589844 51.796875 167.003906 51.609375 C 167.40625 51.429688 167.847656 51.261719 168.320312 51.519531 C 168.773438 51.769531 168.855469 52.285156 168.753906 52.6875 L 168.699219 52.90625 L 168.699219 52.894531 C 168.699219 52.925781 168.585938 52.628906 168.636719 52.710938 M 172.78125 62.71875 C 172.703125 62.402344 172.894531 62.078125 173.214844 61.996094 C 173.535156 61.917969 173.859375 62.109375 173.9375 62.429688 C 174.019531 62.757812 173.960938 62.902344 173.957031 63.078125 L 173.957031 63.183594 L 173.949219 63.136719 L 173.925781 63.066406 C 173.9375 63.097656 173.8125 62.886719 173.851562 62.941406 C 173.894531 62.992188 173.546875 62.722656 173.644531 62.769531 C 173.746094 62.820312 173.207031 62.726562 173.3125 62.714844 C 173.414062 62.703125 173.03125 62.828125 173.085938 62.792969 C 173.132812 62.765625 172.957031 62.898438 172.980469 62.875 C 173.023438 62.832031 172.902344 62.976562 172.914062 62.957031 L 173.289062 61.898438 C 173.710938 60.773438 174.308594 59.507812 175.246094 58.699219 C 175.738281 58.269531 176.320312 58.078125 176.835938 58.058594 C 177.355469 58.042969 177.847656 58.335938 178.089844 58.734375 C 178.328125 59.128906 178.394531 59.589844 178.378906 60.050781 C 178.328125 61.5625 177.039062 62.488281 175.847656 62.71875 C 175.261719 62.832031 174.675781 62.816406 174.164062 62.625 C 173.652344 62.4375 173.15625 61.957031 173.15625 61.328125 C 173.152344 61 173.421875 60.730469 173.75 60.730469 C 174.078125 60.730469 174.34375 60.996094 174.347656 61.324219 C 174.347656 61.382812 174.359375 61.425781 174.578125 61.507812 C 175.386719 61.808594 177.144531 61.265625 177.1875 60.011719 C 177.199219 59.707031 177.140625 59.464844 177.070312 59.351562 C 177.015625 59.257812 177.007812 59.246094 176.875 59.25 C 176.628906 59.257812 176.296875 59.363281 176.023438 59.601562 C 175.371094 60.167969 174.789062 61.292969 174.40625 62.316406 L 174.023438 63.382812 L 173.929688 63.582031 C 173.890625 63.648438 173.882812 63.808594 173.511719 63.886719 C 173.191406 63.957031 172.894531 63.675781 172.832031 63.546875 C 172.699219 63.253906 172.761719 63.195312 172.765625 63.046875 L 172.773438 62.765625 L 172.773438 62.679688 C 172.773438 62.664062 172.796875 62.777344 172.78125 62.71875 M 172.714844 63.617188 C 172.625 63.933594 172.296875 64.121094 171.980469 64.03125 C 171.660156 63.941406 171.476562 63.613281 171.566406 63.296875 C 171.667969 62.941406 171.738281 62.683594 172.027344 62.453125 C 172.109375 62.386719 172.230469 62.308594 172.417969 62.300781 C 172.722656 62.285156 172.992188 62.554688 173.058594 62.730469 L 173.101562 63.117188 C 172.984375 64.339844 172.226562 65.867188 172.140625 66.609375 C 172.105469 66.9375 171.808594 67.171875 171.484375 67.132812 C 171.15625 67.097656 170.921875 66.800781 170.957031 66.476562 C 171.085938 65.335938 171.835938 63.832031 171.914062 63.007812 L 171.917969 63.058594 C 171.910156 63.019531 172.042969 63.324219 171.988281 63.242188 C 171.960938 63.199219 172.148438 63.40625 172.097656 63.363281 C 172.050781 63.324219 172.335938 63.484375 172.273438 63.460938 C 172.148438 63.417969 172.691406 63.441406 172.605469 63.46875 C 172.535156 63.488281 172.785156 63.375 172.753906 63.398438 C 172.703125 63.433594 172.828125 63.324219 172.824219 63.332031 Z M 182.910156 56.042969 C 183.191406 56.214844 183.28125 56.582031 183.109375 56.863281 C 182.9375 57.144531 182.570312 57.230469 182.289062 57.058594 C 182.109375 56.949219 181.921875 56.890625 181.800781 56.542969 C 181.695312 56.238281 181.960938 55.816406 182.144531 55.722656 C 182.585938 55.5 182.90625 55.589844 183.332031 55.589844 L 187.699219 55.5625 C 188.027344 55.554688 188.300781 55.816406 188.304688 56.148438 C 188.3125 56.476562 188.050781 56.746094 187.71875 56.753906 L 183.332031 56.78125 L 182.632812 56.804688 L 182.683594 56.785156 C 182.65625 56.800781 182.832031 56.671875 182.789062 56.710938 C 182.746094 56.75 182.9375 56.472656 182.90625 56.546875 C 182.875 56.613281 182.957031 56.261719 182.957031 56.332031 C 182.953125 56.394531 182.917969 56.125 182.933594 56.171875 C 182.957031 56.246094 182.839844 55.996094 182.859375 56.023438 L 182.832031 55.992188 Z M 182.894531 60.0625 C 182.578125 59.964844 182.398438 59.632812 182.492188 59.320312 C 182.589844 59.003906 182.921875 58.824219 183.234375 58.917969 C 184.417969 59.273438 186.226562 58.863281 187.675781 58.652344 C 188 58.605469 188.304688 58.832031 188.351562 59.15625 C 188.398438 59.480469 188.171875 59.785156 187.847656 59.832031 C 186.46875 60.035156 184.546875 60.554688 182.894531 60.0625 M 200.273438 53.691406 C 199.972656 53.824219 199.621094 53.6875 199.488281 53.386719 C 199.351562 53.089844 199.488281 52.734375 199.789062 52.601562 L 199.980469 52.5 C 199.996094 52.480469 199.898438 52.695312 199.917969 52.625 C 199.9375 52.5625 199.9375 52.945312 199.914062 52.859375 C 199.898438 52.789062 200.039062 53.085938 200.003906 53.042969 C 199.945312 52.96875 200.15625 53.15625 200.136719 53.144531 L 199.839844 53.167969 C 199.441406 53.25 199.007812 53.507812 198.800781 53.789062 C 198.621094 54.039062 198.570312 54.257812 198.703125 54.511719 C 198.820312 54.734375 199.359375 55.09375 199.933594 55.417969 L 200.890625 55.949219 L 201.328125 56.304688 C 201.425781 56.414062 201.523438 56.558594 201.550781 56.773438 C 201.589844 57.105469 201.347656 57.398438 201.167969 57.507812 L 200.683594 57.691406 C 199.816406 57.898438 198.832031 57.871094 198.027344 57.710938 C 197.636719 57.632812 197.292969 57.542969 196.996094 57.300781 C 196.835938 57.175781 196.65625 56.945312 196.660156 56.640625 C 196.664062 56.335938 196.84375 56.109375 197.011719 55.972656 C 197.265625 55.761719 197.640625 55.796875 197.851562 56.050781 C 198.058594 56.304688 198.023438 56.683594 197.769531 56.890625 L 197.800781 56.851562 C 197.777344 56.890625 197.855469 56.589844 197.851562 56.667969 C 197.847656 56.742188 197.789062 56.417969 197.8125 56.46875 L 197.753906 56.386719 C 197.792969 56.421875 199.402344 56.769531 200.410156 56.53125 L 200.550781 56.488281 L 200.511719 56.519531 L 200.433594 56.609375 C 200.484375 56.527344 200.382812 57.027344 200.367188 56.925781 C 200.355469 56.855469 200.433594 57.09375 200.417969 57.070312 L 200.246094 56.953125 L 199.347656 56.457031 C 198.761719 56.125 198.023438 55.785156 197.648438 55.066406 C 197.285156 54.375 197.464844 53.597656 197.835938 53.089844 C 198.265625 52.503906 198.925781 52.140625 199.59375 52 C 200.058594 51.902344 200.527344 51.808594 200.925781 52.285156 C 201.148438 52.554688 201.078125 53.039062 200.902344 53.253906 C 200.738281 53.457031 200.527344 53.574219 200.273438 53.691406 M 209.714844 50.425781 C 209.609375 50.738281 209.269531 50.902344 208.957031 50.796875 C 208.648438 50.691406 208.480469 50.355469 208.585938 50.042969 C 208.609375 49.96875 208.636719 50.097656 208.613281 50.035156 C 208.59375 49.980469 208.761719 50.1875 208.722656 50.167969 L 208.613281 50.179688 L 208.054688 50.359375 C 207.363281 50.679688 205.878906 51.804688 205.175781 53.089844 C 204.234375 54.8125 205.304688 55.789062 207.039062 56.382812 C 208.835938 57 211.121094 56.867188 211.25 56.773438 C 211.519531 56.582031 211.890625 56.644531 212.082031 56.914062 C 212.273438 57.179688 212.210938 57.554688 211.941406 57.746094 C 211.375 58.148438 210.644531 58.121094 209.722656 58.078125 C 208.277344 58.011719 206.539062 57.679688 205.210938 56.835938 C 204.550781 56.417969 203.988281 55.839844 203.75 55.089844 C 203.507812 54.328125 203.636719 53.421875 204.128906 52.519531 C 205.011719 50.90625 206.566406 49.734375 207.554688 49.277344 C 208.113281 49.023438 208.621094 48.882812 209.117188 49.046875 C 209.375 49.128906 209.628906 49.34375 209.730469 49.625 C 209.832031 49.902344 209.796875 50.179688 209.714844 50.425781 M 11.316406 16.011719 C 11.289062 16.339844 11 16.582031 10.671875 16.554688 C 10.34375 16.527344 10.101562 16.238281 10.128906 15.910156 L 10.144531 15.527344 L 10.140625 15.441406 L 10.144531 15.457031 L 10.15625 15.5 C 10.148438 15.476562 10.238281 15.671875 10.203125 15.613281 C 10.042969 15.328125 10.140625 14.964844 10.429688 14.800781 C 10.714844 14.640625 11.078125 14.738281 11.242188 15.027344 C 11.445312 15.386719 11.335938 15.378906 11.335938 15.511719 Z M 10.128906 15.351562 C 10.109375 15.023438 10.363281 14.742188 10.691406 14.726562 C 11.019531 14.707031 11.300781 14.960938 11.316406 15.289062 L 11.363281 16.464844 L 11.539062 18.8125 L 11.707031 20.816406 L 11.734375 21.527344 L 11.738281 21.585938 C 11.746094 21.914062 11.484375 22.1875 11.15625 22.195312 C 10.824219 22.203125 10.554688 21.941406 10.546875 21.613281 L 10.542969 21.5625 L 10.519531 20.898438 L 10.351562 18.933594 C 10.175781 17.246094 10.136719 15.523438 10.128906 15.351562 M 11.738281 21.582031 C 11.746094 21.910156 11.488281 22.183594 11.160156 22.195312 C 10.832031 22.203125 10.554688 21.945312 10.546875 21.617188 L 10.542969 19.988281 C 10.570312 18.730469 10.625 17.167969 11.355469 15.863281 C 12.0625 14.597656 13.492188 13.984375 14.800781 13.800781 C 15.5625 13.695312 16.222656 13.675781 16.773438 13.917969 C 17.335938 14.164062 17.644531 14.921875 17.457031 15.546875 C 17.277344 16.136719 16.820312 16.6875 16.261719 17.324219 L 14.332031 19.28125 C 13.757812 19.816406 13.167969 20.300781 12.613281 20.664062 L 11.703125 21.132812 L 11.445312 21.230469 L 11.425781 21.234375 L 11.488281 21.195312 C 11.453125 21.222656 11.6875 20.929688 11.632812 21.027344 C 11.472656 21.3125 11.109375 21.417969 10.820312 21.257812 C 10.535156 21.09375 10.433594 20.734375 10.59375 20.445312 C 10.8125 20.050781 11.179688 20.011719 11.449219 19.996094 C 12.402344 19.9375 13.722656 20.34375 15.058594 20.71875 L 17.609375 21.414062 C 17.9375 21.371094 18.234375 21.601562 18.277344 21.925781 C 18.324219 22.253906 18.09375 22.550781 17.765625 22.59375 C 17.269531 22.660156 16.914062 22.484375 16.304688 22.316406 L 13.074219 21.425781 L 11.769531 21.191406 L 11.460938 21.191406 L 11.484375 21.179688 C 11.445312 21.199219 11.679688 20.945312 11.632812 21.027344 L 10.59375 20.445312 C 10.804688 20.0625 10.925781 20.152344 11.011719 20.117188 C 11.253906 20.023438 11.582031 19.921875 11.957031 19.671875 C 12.433594 19.359375 12.984375 18.90625 13.519531 18.410156 C 14.828125 17.191406 16.160156 15.710938 16.316406 15.199219 C 16.390625 14.953125 16.414062 15.0625 16.292969 15.007812 C 16.113281 14.929688 15.621094 14.890625 14.964844 14.980469 C 13.910156 15.128906 12.84375 15.644531 12.394531 16.445312 C 11.851562 17.417969 11.757812 18.800781 11.734375 20.011719 Z M 22.265625 18.433594 C 21.9375 18.476562 21.640625 18.246094 21.597656 17.917969 C 21.558594 17.59375 21.789062 17.292969 22.113281 17.253906 L 24.621094 16.847656 L 26.023438 16.761719 C 26.441406 16.78125 26.929688 16.789062 27.226562 17.296875 C 27.390625 17.582031 27.292969 17.949219 27.007812 18.113281 C 26.726562 18.277344 26.359375 18.179688 26.195312 17.894531 C 26.164062 17.84375 26.300781 18.003906 26.28125 17.992188 C 26.261719 17.980469 25.46875 17.933594 24.597656 18.054688 Z M 22.941406 20.226562 C 22.613281 20.195312 22.375 19.90625 22.40625 19.578125 C 22.433594 19.25 22.726562 19.011719 23.050781 19.039062 C 24.085938 19.136719 26.007812 19.46875 27.078125 19.382812 C 27.40625 19.355469 27.695312 19.597656 27.722656 19.925781 C 27.75 20.253906 27.503906 20.542969 27.175781 20.570312 C 25.8125 20.679688 23.886719 20.316406 22.941406 20.226562 M 36.746094 13.222656 C 37 13.015625 37.375 13.050781 37.585938 13.304688 C 37.792969 13.558594 37.757812 13.933594 37.503906 14.144531 L 37.558594 14.078125 C 37.542969 14.113281 37.476562 14.777344 37.546875 15.5625 L 37.71875 17.230469 L 37.792969 18.070312 L 37.804688 18.636719 L 37.796875 18.800781 L 37.765625 18.953125 L 37.648438 19.152344 C 37.535156 19.285156 36.976562 19.382812 36.777344 19.183594 C 36.519531 18.925781 36.613281 18.878906 36.609375 18.839844 L 36.601562 18.738281 C 36.621094 17.988281 36.847656 16.589844 37.671875 15.277344 C 38.539062 13.898438 39.824219 13.042969 40.972656 12.875 C 41.519531 12.792969 42.140625 12.917969 42.449219 13.417969 C 42.8125 14.015625 42.550781 14.570312 42.292969 15.144531 C 42.027344 15.738281 41.632812 16.363281 41.152344 16.949219 C 40.652344 17.558594 40.113281 18.011719 39.671875 18.328125 L 39.054688 18.671875 L 38.988281 18.707031 C 38.980469 18.710938 39.070312 18.644531 39.027344 18.675781 C 39.007812 18.695312 39.195312 18.488281 39.140625 18.5625 C 39.113281 18.597656 39.25 18.300781 39.226562 18.386719 C 39.203125 18.46875 39.199219 17.945312 39.230469 18.0625 C 39.261719 18.179688 39.003906 17.726562 39.070312 17.789062 C 39.128906 17.847656 38.867188 17.660156 38.910156 17.679688 C 38.988281 17.714844 38.722656 17.628906 38.753906 17.632812 L 38.679688 17.628906 L 39.132812 17.617188 C 40.257812 17.667969 41.265625 18.308594 42.113281 18.652344 C 42.511719 18.816406 42.84375 18.890625 43.015625 18.871094 C 43.160156 18.855469 43.226562 18.835938 43.34375 18.546875 C 43.46875 18.242188 43.816406 18.097656 44.121094 18.222656 C 44.425781 18.347656 44.570312 18.695312 44.445312 19 C 44.207031 19.582031 43.6875 19.996094 43.148438 20.054688 C 42.367188 20.144531 41.660156 19.769531 40.960938 19.445312 C 40.261719 19.128906 39.585938 18.832031 39.078125 18.808594 L 38.710938 18.820312 L 38.449219 18.777344 C 38.359375 18.746094 38.167969 18.652344 38.089844 18.402344 C 38.015625 18.175781 38.097656 17.984375 38.15625 17.894531 C 38.417969 17.476562 38.4375 17.648438 38.527344 17.605469 L 38.976562 17.359375 C 39.351562 17.09375 39.8125 16.699219 40.234375 16.191406 C 40.648438 15.6875 40.996094 15.132812 41.207031 14.660156 L 41.394531 14.097656 L 41.40625 13.976562 C 41.40625 13.96875 41.460938 14.089844 41.433594 14.042969 L 41.433594 14.054688 L 41.144531 14.054688 C 40.449219 14.15625 39.371094 14.8125 38.683594 15.910156 C 38.015625 16.96875 37.808594 18.234375 37.792969 18.765625 L 37.792969 18.710938 L 37.785156 18.65625 C 37.789062 18.6875 37.660156 18.363281 37.71875 18.472656 C 37.792969 18.605469 36.605469 18.4375 36.875 18.261719 C 37.089844 18.125 36.628906 18.578125 36.648438 18.535156 C 36.679688 18.464844 36.613281 18.65625 36.617188 18.640625 C 36.632812 18.5625 36.609375 18.683594 36.609375 18.660156 L 36.605469 18.152344 L 36.53125 17.335938 L 36.359375 15.664062 L 36.316406 14.335938 C 36.34375 13.945312 36.355469 13.542969 36.746094 13.222656 M 48.761719 17.441406 C 48.550781 17.695312 48.175781 17.734375 47.921875 17.523438 C 47.667969 17.316406 47.628906 16.941406 47.839844 16.683594 L 47.898438 16.601562 C 47.902344 16.585938 47.902344 16.804688 47.890625 16.734375 C 47.882812 16.675781 48.007812 16.972656 47.964844 16.914062 C 47.90625 16.832031 48.207031 17.074219 48.15625 17.058594 L 48.226562 17.070312 C 48.171875 17.074219 48.320312 17.046875 48.3125 17.046875 L 48.070312 17.25 C 47.765625 17.535156 47.714844 17.734375 47.71875 17.796875 L 47.730469 17.933594 L 49.71875 18.734375 C 50.179688 18.917969 50.566406 19.117188 50.859375 19.398438 C 51.117188 19.644531 51.214844 20.152344 51.050781 20.46875 C 50.785156 20.972656 50.3125 21.148438 49.8125 21.339844 C 49.035156 21.640625 48.125 21.835938 47.355469 21.871094 C 46.984375 21.886719 46.652344 21.902344 46.300781 21.710938 C 46.109375 21.605469 45.886719 21.351562 45.875 21.046875 C 45.863281 20.757812 46 20.554688 46.132812 20.398438 C 46.34375 20.148438 46.722656 20.117188 46.972656 20.328125 C 47.222656 20.539062 47.253906 20.917969 47.042969 21.167969 L 47.03125 21.179688 L 47.054688 21.113281 C 47.046875 21.152344 47.050781 20.890625 47.058594 20.953125 C 47.070312 21.015625 46.960938 20.734375 46.992188 20.78125 C 47.023438 20.824219 46.878906 20.667969 46.90625 20.6875 C 46.949219 20.71875 46.847656 20.652344 46.859375 20.65625 C 47.105469 20.726562 48.183594 20.617188 49.046875 20.347656 L 49.960938 19.9375 L 50.007812 19.894531 L 49.984375 19.9375 C 50.003906 19.886719 49.996094 20.21875 49.976562 20.144531 C 49.957031 20.074219 50.039062 20.261719 50.035156 20.257812 L 49.273438 19.839844 C 48.496094 19.527344 47.421875 19.4375 46.808594 18.691406 C 46.566406 18.394531 46.542969 18.050781 46.53125 17.890625 C 46.488281 17.339844 46.789062 16.816406 47.257812 16.378906 C 47.445312 16.203125 47.625 15.925781 48.121094 15.882812 C 48.417969 15.855469 48.871094 15.976562 49.03125 16.402344 C 49.183594 16.816406 48.984375 17.164062 48.761719 17.441406 M 56.261719 15.414062 C 56.589844 15.421875 56.851562 15.695312 56.839844 16.027344 C 56.832031 16.355469 56.554688 16.613281 56.226562 16.605469 C 56.128906 16.601562 56.15625 16.691406 55.835938 16.527344 C 55.742188 16.480469 55.472656 16.304688 55.507812 15.933594 C 55.539062 15.605469 55.726562 15.519531 55.796875 15.476562 C 56.125 15.28125 56.101562 15.378906 56.210938 15.363281 L 56.621094 15.316406 C 58.316406 15.128906 60.503906 15.066406 61.226562 14.910156 C 61.550781 14.839844 61.867188 15.046875 61.9375 15.367188 C 62.007812 15.6875 61.800781 16.007812 61.480469 16.074219 C 60.46875 16.296875 58.375 16.320312 56.75 16.5 L 56.269531 16.558594 C 56.257812 16.5625 56.375 16.523438 56.316406 16.542969 L 56.371094 16.519531 L 56.464844 16.460938 C 56.425781 16.492188 56.675781 16.1875 56.621094 16.28125 C 56.566406 16.378906 56.65625 15.730469 56.683594 15.878906 C 56.710938 16.015625 56.46875 15.519531 56.53125 15.578125 C 56.582031 15.632812 56.363281 15.457031 56.398438 15.476562 C 56.457031 15.511719 56.25 15.417969 56.273438 15.425781 C 56.347656 15.445312 56.195312 15.410156 56.203125 15.410156 Z M 58.917969 13.910156 C 58.765625 14.199219 58.402344 14.3125 58.113281 14.15625 C 57.824219 14.003906 57.710938 13.640625 57.867188 13.351562 L 58.066406 13.085938 C 58.175781 12.988281 58.445312 12.859375 58.710938 12.953125 C 59.140625 13.109375 59.121094 13.363281 59.148438 13.484375 C 59.234375 13.835938 59.226562 14.226562 59.234375 14.699219 C 59.257812 15.765625 59.367188 16.921875 59.515625 17.835938 L 59.730469 18.851562 L 59.773438 18.972656 L 59.726562 18.921875 L 59.636719 18.851562 C 59.703125 18.890625 59.222656 18.78125 59.339844 18.777344 C 59.460938 18.773438 58.976562 18.929688 59.042969 18.878906 C 59.308594 18.683594 59.683594 18.742188 59.875 19.007812 C 60.070312 19.273438 60.011719 19.648438 59.746094 19.839844 C 59.585938 19.957031 59.285156 19.996094 59.09375 19.910156 C 58.777344 19.765625 58.746094 19.589844 58.6875 19.457031 C 58.480469 18.992188 58.371094 18.324219 58.261719 17.488281 L 58.042969 14.726562 L 58 13.804688 L 57.996094 13.78125 L 58.019531 13.832031 L 58.082031 13.921875 C 58.050781 13.886719 58.273438 14.066406 58.210938 14.03125 C 58.160156 14 58.480469 14.113281 58.40625 14.101562 C 58.34375 14.089844 58.65625 14.089844 58.597656 14.101562 C 58.496094 14.117188 58.859375 13.976562 58.8125 14.011719 C 58.75 14.054688 58.925781 13.898438 58.917969 13.910156 M 73.28125 14.09375 C 73.390625 14.402344 73.230469 14.742188 72.917969 14.851562 C 72.609375 14.964844 72.269531 14.800781 72.15625 14.492188 C 72.039062 14.160156 72.1875 13.816406 72.332031 13.640625 L 72.742188 13.300781 L 72.945312 13.167969 C 72.960938 13.15625 72.84375 13.320312 72.875 13.265625 L 72.832031 13.363281 C 72.84375 13.324219 72.796875 13.574219 72.800781 13.515625 C 72.804688 13.457031 72.835938 13.765625 72.820312 13.703125 C 72.785156 13.578125 73.078125 14.058594 73.003906 13.996094 C 72.941406 13.941406 73.203125 14.109375 73.164062 14.089844 C 73.09375 14.0625 73.316406 14.125 73.292969 14.125 L 73.265625 14.128906 C 72.820312 14.171875 71.324219 14.714844 70.109375 15.210938 L 68.96875 15.777344 L 68.910156 15.828125 L 68.929688 15.777344 L 68.925781 15.65625 C 68.941406 15.726562 68.824219 15.453125 68.851562 15.492188 L 68.792969 15.425781 L 70.761719 15.8125 C 72.105469 16.03125 73.164062 16.328125 73.816406 16.832031 C 74.222656 17.144531 74.441406 17.839844 74.144531 18.292969 C 73.566406 19.167969 72.382812 19.421875 71.320312 19.492188 C 70.796875 19.527344 70.296875 19.503906 69.855469 19.296875 C 69.628906 19.191406 69.398438 19.019531 69.273438 18.738281 C 69.144531 18.457031 69.175781 18.125 69.289062 17.859375 C 69.417969 17.554688 69.769531 17.414062 70.070312 17.542969 C 70.375 17.671875 70.515625 18.023438 70.386719 18.324219 C 70.355469 18.394531 70.273438 18.175781 70.359375 18.214844 C 70.574219 18.316406 71.238281 18.347656 71.875 18.214844 C 72.507812 18.085938 73.050781 17.785156 73.148438 17.636719 C 73.15625 17.625 73.152344 17.855469 73.132812 17.796875 L 73.089844 17.777344 C 72.765625 17.527344 71.8125 17.191406 70.574219 16.988281 L 68.972656 16.714844 L 68.339844 16.527344 C 68.140625 16.441406 67.851562 16.328125 67.761719 15.917969 C 67.65625 15.449219 67.933594 15.0625 68.253906 14.824219 C 68.632812 14.542969 69.117188 14.328125 69.660156 14.105469 C 70.90625 13.601562 72.28125 13.023438 73.15625 12.945312 L 73.453125 12.945312 L 73.726562 13.050781 C 73.851562 13.136719 73.988281 13.347656 73.992188 13.546875 C 73.996094 13.863281 73.855469 13.945312 73.800781 14.003906 L 73.382812 14.304688 L 73.246094 14.410156 C 73.242188 14.414062 73.304688 14.265625 73.289062 14.324219 C 73.269531 14.386719 73.253906 14.019531 73.28125 14.09375 M 78.320312 10.5625 C 78.179688 10.859375 77.820312 10.984375 77.523438 10.84375 C 77.226562 10.699219 77.101562 10.34375 77.246094 10.046875 C 77.308594 9.917969 77.308594 9.628906 77.835938 9.59375 C 78.050781 9.578125 78.25 9.695312 78.339844 9.796875 C 78.601562 10.082031 78.535156 10.207031 78.554688 10.347656 L 78.59375 10.792969 C 78.628906 11.25 78.886719 12.214844 79.011719 13.5 C 79.078125 14.199219 79.109375 14.964844 79.058594 15.707031 C 79.007812 16.476562 78.796875 17.136719 78.671875 17.585938 L 78.476562 18.222656 L 78.476562 18.210938 L 78.488281 18.140625 C 78.484375 18.175781 78.457031 17.914062 78.476562 17.984375 C 78.488281 18.054688 78.265625 17.636719 78.347656 17.726562 C 78.417969 17.8125 77.972656 17.519531 78.070312 17.546875 C 78.152344 17.574219 77.804688 17.527344 77.859375 17.523438 C 77.949219 17.515625 77.652344 17.578125 77.6875 17.5625 L 77.617188 17.597656 L 78.082031 17.230469 C 78.5 16.945312 78.921875 17.003906 79.316406 17.042969 L 80.503906 17.175781 L 82.035156 17.203125 L 82.769531 17.082031 L 82.710938 17.128906 C 82.734375 17.105469 82.59375 17.300781 82.625 17.246094 C 82.652344 17.195312 82.554688 17.511719 82.5625 17.4375 C 82.570312 17.371094 82.597656 17.699219 82.582031 17.636719 C 82.550781 17.53125 82.742188 17.894531 82.703125 17.855469 C 82.652344 17.800781 82.777344 17.910156 82.773438 17.910156 L 82.675781 17.875 C 82.359375 17.785156 82.175781 17.453125 82.269531 17.136719 C 82.359375 16.820312 82.691406 16.640625 83.007812 16.730469 C 83.253906 16.800781 83.550781 16.808594 83.714844 17.277344 C 83.851562 17.671875 83.554688 18 83.398438 18.097656 C 82.984375 18.355469 82.546875 18.378906 82.078125 18.394531 L 80.433594 18.367188 L 79.199219 18.230469 L 78.816406 18.214844 L 78.753906 18.214844 L 78.28125 18.585938 L 78.167969 18.652344 C 78.101562 18.683594 77.917969 18.832031 77.582031 18.625 C 77.28125 18.4375 77.292969 18.15625 77.296875 18.0625 L 77.386719 17.722656 L 77.523438 17.273438 C 77.652344 16.796875 77.832031 16.226562 77.871094 15.628906 C 77.914062 14.96875 77.886719 14.257812 77.824219 13.617188 C 77.707031 12.425781 77.457031 11.554688 77.40625 10.882812 L 77.359375 10.429688 L 77.367188 10.453125 L 77.402344 10.519531 C 77.382812 10.492188 77.527344 10.664062 77.484375 10.625 C 77.445312 10.585938 77.726562 10.769531 77.652344 10.734375 C 77.585938 10.707031 77.953125 10.785156 77.875 10.78125 C 77.808594 10.78125 78.109375 10.734375 78.058594 10.753906 C 77.96875 10.785156 78.277344 10.617188 78.242188 10.648438 C 78.191406 10.695312 78.328125 10.546875 78.320312 10.5625 M 90.386719 11.703125 C 90.667969 11.535156 91.035156 11.628906 91.203125 11.910156 C 91.367188 12.195312 91.273438 12.558594 90.992188 12.726562 C 90.917969 12.769531 90.75 12.914062 90.421875 12.757812 C 90.117188 12.613281 90.074219 12.308594 90.074219 12.195312 C 90.082031 11.894531 90.152344 11.890625 90.191406 11.820312 L 90.335938 11.605469 L 90.6875 11.175781 C 90.9375 10.960938 91.3125 10.988281 91.527344 11.234375 C 91.742188 11.484375 91.71875 11.859375 91.46875 12.078125 L 91.425781 12.203125 C 91.082031 13.347656 91.519531 16.40625 91.667969 17.46875 C 91.714844 17.792969 91.488281 18.09375 91.160156 18.140625 C 90.835938 18.1875 90.535156 17.960938 90.488281 17.632812 C 90.410156 17.078125 90.230469 15.832031 90.148438 14.519531 L 90.148438 12.644531 C 90.195312 12.085938 90.242188 11.566406 90.6875 11.175781 L 91.46875 12.078125 L 91.28125 12.328125 L 91.226562 12.414062 L 91.234375 12.390625 L 91.257812 12.316406 C 91.25 12.351562 91.253906 12.066406 91.265625 12.152344 L 91.238281 12.027344 C 91.25 12.070312 91.136719 11.835938 91.167969 11.886719 C 91.230469 11.976562 90.785156 11.621094 90.898438 11.664062 C 90.976562 11.699219 90.609375 11.625 90.675781 11.625 C 90.765625 11.621094 90.429688 11.675781 90.476562 11.660156 Z M 89.332031 15.082031 C 89.574219 15.304688 89.589844 15.679688 89.367188 15.921875 C 89.144531 16.164062 88.769531 16.183594 88.527344 15.960938 C 88.304688 15.753906 88.109375 15.25 88.335938 14.902344 C 88.679688 14.375 89.136719 14.398438 89.628906 14.324219 C 91.203125 14.085938 93.449219 14.179688 94.171875 14.164062 C 94.5 14.15625 94.773438 14.417969 94.777344 14.746094 C 94.785156 15.074219 94.523438 15.347656 94.195312 15.355469 C 93.609375 15.367188 92.199219 15.328125 90.886719 15.402344 L 89.378906 15.59375 L 89.257812 15.636719 L 89.296875 15.601562 C 89.269531 15.628906 89.40625 15.382812 89.382812 15.453125 C 89.363281 15.507812 89.398438 15.226562 89.402344 15.28125 C 89.410156 15.363281 89.332031 15.074219 89.351562 15.105469 Z M 104.515625 10.035156 C 104.636719 10.34375 104.484375 10.6875 104.175781 10.808594 C 103.867188 10.925781 103.523438 10.773438 103.40625 10.464844 C 103.246094 10.054688 103.332031 9.566406 103.550781 9.257812 C 103.757812 8.960938 104.019531 8.769531 104.273438 8.566406 C 104.921875 8.042969 105.671875 7.035156 105.914062 6.296875 L 106.003906 5.890625 C 106.007812 5.847656 106.042969 5.953125 106.019531 5.898438 C 106 5.855469 106.265625 6.121094 106.179688 6.070312 C 106.113281 6.03125 106.449219 6.128906 106.382812 6.128906 C 106.292969 6.125 106.578125 6.078125 106.554688 6.089844 C 106.351562 6.332031 106.054688 7.984375 106.132812 9.59375 C 106.171875 10.398438 106.277344 11.171875 106.453125 11.78125 C 106.617188 12.351562 106.871094 12.675781 106.925781 12.703125 C 107.222656 12.839844 107.355469 13.191406 107.21875 13.492188 C 107.082031 13.789062 106.726562 13.921875 106.429688 13.785156 C 105.78125 13.488281 105.511719 12.820312 105.308594 12.109375 C 104.988281 11.003906 104.890625 9.632812 104.933594 8.351562 C 104.980469 7.097656 105.066406 5.992188 105.664062 5.304688 C 105.796875 5.152344 105.964844 5.019531 106.203125 4.960938 C 106.582031 4.867188 107.078125 5.222656 107.164062 5.578125 C 107.246094 5.917969 107.183594 6.261719 107.046875 6.671875 C 106.695312 7.734375 105.875 8.808594 105.023438 9.492188 L 104.523438 9.941406 Z M 100.433594 17.667969 C 100.179688 17.878906 99.804688 17.84375 99.59375 17.589844 C 99.382812 17.335938 99.421875 16.960938 99.675781 16.75 C 100.269531 16.257812 100.894531 16.46875 101.992188 16.488281 C 103.480469 16.511719 105.957031 16.445312 108.34375 16.078125 C 110.863281 15.695312 112.917969 15.320312 114.34375 15.199219 C 115.003906 15.144531 115.496094 15.082031 115.972656 15.339844 C 116.234375 15.480469 116.464844 15.902344 116.398438 16.226562 C 116.339844 16.527344 116.175781 16.722656 115.984375 16.925781 C 115.761719 17.167969 115.386719 17.183594 115.144531 16.957031 C 114.902344 16.734375 114.890625 16.359375 115.113281 16.117188 L 115.230469 15.96875 C 115.242188 15.941406 115.277344 16.269531 115.25 16.1875 C 115.21875 16.105469 115.410156 16.394531 115.371094 16.363281 L 115.421875 16.394531 C 115.285156 16.34375 114.410156 16.367188 113.230469 16.527344 L 108.523438 17.257812 C 106.039062 17.636719 103.519531 17.703125 101.976562 17.679688 L 100.6875 17.671875 L 100.402344 17.699219 C 100.363281 17.707031 100.484375 17.625 100.433594 17.667969 M 106.027344 21.722656 C 105.902344 22.023438 105.550781 22.167969 105.25 22.039062 C 104.945312 21.914062 104.800781 21.5625 104.929688 21.261719 C 105.074219 20.917969 105.273438 20.8125 105.40625 20.699219 L 105.476562 20.632812 L 105.464844 20.652344 C 105.480469 20.625 105.382812 20.914062 105.398438 20.820312 C 105.410156 20.773438 105.402344 21.050781 105.394531 20.988281 C 105.386719 20.921875 105.492188 21.246094 105.457031 21.179688 C 105.425781 21.121094 105.617188 21.371094 105.574219 21.332031 C 105.496094 21.261719 105.835938 21.464844 105.78125 21.449219 C 105.699219 21.425781 105.929688 21.46875 105.917969 21.46875 L 105.710938 21.523438 C 105.296875 21.65625 104.828125 21.988281 104.613281 22.285156 L 104.515625 22.464844 L 104.816406 22.78125 C 105.195312 23.070312 105.871094 23.355469 106.476562 23.6875 C 106.769531 23.847656 107.058594 23.96875 107.3125 24.25 C 107.457031 24.410156 107.589844 24.59375 107.628906 24.855469 C 107.683594 25.261719 107.371094 25.621094 107.121094 25.75 L 106.386719 25.972656 C 105.519531 26.121094 104.703125 26.214844 104.015625 26.144531 C 103.679688 26.109375 103.355469 26.042969 103.070312 25.835938 C 102.773438 25.625 102.582031 25.1875 102.640625 24.808594 C 102.6875 24.480469 102.992188 24.257812 103.316406 24.308594 C 103.644531 24.355469 103.867188 24.660156 103.816406 24.988281 L 103.761719 24.867188 C 103.878906 24.949219 104.972656 25.007812 106.183594 24.796875 L 106.5 24.722656 L 106.570312 24.695312 C 106.582031 24.6875 106.46875 24.824219 106.5 24.773438 C 106.527344 24.734375 106.441406 24.984375 106.445312 24.925781 C 106.457031 24.84375 106.476562 25.113281 106.46875 25.09375 L 106.429688 25.050781 L 105.902344 24.730469 C 105.378906 24.441406 104.660156 24.167969 104.089844 23.726562 C 103.746094 23.460938 103.457031 23.160156 103.359375 22.742188 C 103.257812 22.324219 103.417969 21.898438 103.652344 21.578125 C 104.054688 21.03125 104.671875 20.601562 105.351562 20.386719 C 105.585938 20.3125 105.710938 20.140625 106.179688 20.328125 C 106.328125 20.386719 106.539062 20.585938 106.574219 20.820312 C 106.625 21.144531 106.488281 21.277344 106.414062 21.367188 L 106.183594 21.601562 L 106.03125 21.742188 L 106 21.769531 Z M 114.289062 19.796875 C 114.304688 20.125 114.054688 20.40625 113.722656 20.421875 C 113.394531 20.441406 113.117188 20.1875 113.097656 19.859375 L 113.125 19.238281 C 113.121094 19.191406 113.226562 19.472656 113.1875 19.40625 C 113.148438 19.347656 113.394531 19.589844 113.339844 19.558594 C 113.289062 19.527344 113.5 19.613281 113.46875 19.609375 C 113.414062 19.597656 113.53125 19.613281 113.515625 19.613281 C 113.261719 19.660156 112.359375 20.175781 111.488281 20.917969 C 110.824219 21.480469 110.222656 22.144531 109.941406 22.675781 C 109.742188 23.054688 109.78125 23.054688 109.976562 23.199219 C 110.363281 23.484375 111.421875 23.660156 112.472656 23.710938 C 113.519531 23.761719 114.421875 23.695312 114.945312 23.765625 C 115.269531 23.808594 115.5 24.105469 115.457031 24.433594 C 115.414062 24.757812 115.117188 24.988281 114.789062 24.945312 C 114.421875 24.898438 112.792969 25 111.285156 24.808594 C 110.539062 24.710938 109.824219 24.5625 109.273438 24.160156 C 108.714844 23.75 108.5 22.855469 108.886719 22.121094 C 109.289062 21.363281 109.972656 20.640625 110.71875 20.007812 C 111.378906 19.445312 112.03125 18.988281 112.601562 18.699219 C 112.875 18.5625 113.121094 18.457031 113.40625 18.425781 C 113.554688 18.414062 113.734375 18.414062 113.933594 18.523438 C 114.136719 18.640625 114.285156 18.890625 114.308594 19.097656 Z M 117.171875 24.058594 C 117.203125 24.386719 116.964844 24.675781 116.636719 24.707031 C 116.308594 24.738281 116.019531 24.5 115.988281 24.171875 L 115.96875 23.746094 L 116.007812 23.542969 C 116.042969 23.4375 116.1875 23.117188 116.59375 23.125 C 116.925781 23.128906 117.027344 23.308594 117.078125 23.378906 C 117.320312 23.714844 117.261719 23.851562 117.3125 24.136719 C 117.457031 25.015625 117.417969 25.765625 117.40625 26.34375 C 117.398438 26.882812 117.445312 27.199219 117.542969 27.328125 C 117.742188 27.589844 117.6875 27.964844 117.425781 28.164062 C 117.164062 28.363281 116.792969 28.3125 116.59375 28.046875 C 116.195312 27.527344 116.207031 26.910156 116.214844 26.324219 C 116.226562 25.726562 116.257812 25.074219 116.136719 24.332031 L 116.078125 24.050781 L 116.066406 24 C 116.058594 23.984375 116.164062 24.144531 116.121094 24.089844 C 116.101562 24.066406 116.273438 24.234375 116.222656 24.191406 C 116.167969 24.152344 116.597656 24.328125 116.476562 24.304688 C 116.417969 24.296875 116.734375 24.300781 116.667969 24.308594 C 116.539062 24.328125 117.042969 24.101562 116.972656 24.164062 C 116.910156 24.21875 117.117188 23.976562 117.09375 24.015625 C 117.054688 24.085938 117.15625 23.84375 117.148438 23.875 L 117.15625 23.816406 Z M 116.390625 23.695312 C 116.550781 23.984375 116.449219 24.347656 116.160156 24.507812 C 115.875 24.667969 115.511719 24.566406 115.351562 24.28125 C 115.019531 23.6875 115.199219 22.890625 115.671875 22.539062 C 116.363281 22.03125 117.324219 21.96875 118.273438 21.980469 C 119.214844 21.992188 120.074219 22.089844 120.675781 22.417969 C 120.964844 22.574219 121.070312 22.9375 120.914062 23.226562 C 120.753906 23.515625 120.390625 23.621094 120.105469 23.460938 C 119.785156 23.289062 118.496094 23.097656 117.453125 23.203125 C 116.949219 23.253906 116.535156 23.382812 116.378906 23.5 C 116.269531 23.582031 116.261719 23.472656 116.390625 23.695312 M 116.019531 26.464844 C 115.695312 26.523438 115.386719 26.304688 115.328125 25.980469 C 115.273438 25.65625 115.488281 25.347656 115.8125 25.292969 C 116.234375 25.21875 117.800781 24.925781 118.964844 24.816406 C 119.292969 24.789062 119.582031 25.027344 119.613281 25.355469 C 119.644531 25.683594 119.402344 25.972656 119.074219 26.003906 C 118.007812 26.101562 116.449219 26.390625 116.019531 26.464844 M 213.746094 59.332031 C 213.417969 59.339844 213.144531 59.082031 213.136719 58.75 C 213.125 58.421875 213.386719 58.148438 213.714844 58.140625 C 214.011719 58.132812 214.328125 58.339844 214.453125 58.558594 C 214.789062 59.144531 214.625 59.695312 214.59375 60.265625 L 214.59375 61.390625 L 214.582031 61.792969 L 214.578125 61.855469 L 214.570312 61.816406 C 214.578125 61.84375 214.503906 61.644531 214.53125 61.695312 L 214.523438 61.6875 L 214.457031 61.609375 C 214.488281 61.636719 214.25 61.484375 214.316406 61.515625 C 214.417969 61.5625 213.839844 61.503906 213.957031 61.476562 C 214.0625 61.453125 213.703125 61.613281 213.742188 61.582031 C 213.835938 61.503906 214.03125 60.847656 214.078125 59.996094 C 214.125 59.117188 214.09375 58.140625 214.210938 57.304688 C 214.335938 56.421875 214.625 55.71875 215.171875 55.324219 C 215.71875 54.933594 216.421875 54.953125 217.042969 55.15625 C 217.707031 55.375 218.320312 55.746094 218.679688 56.3125 C 218.835938 56.558594 219.070312 56.964844 218.917969 57.445312 C 218.75 57.96875 218.316406 58.246094 217.878906 58.464844 C 216.527344 59.132812 214.648438 59.324219 214.042969 59.421875 C 213.71875 59.476562 213.414062 59.257812 213.359375 58.929688 C 213.308594 58.605469 213.527344 58.300781 213.851562 58.246094 C 214.257812 58.183594 215.179688 58.058594 216.117188 57.820312 L 217.347656 57.394531 C 217.652344 57.246094 217.777344 57.089844 217.78125 57.085938 L 217.773438 57.132812 L 217.671875 56.953125 C 217.53125 56.726562 217.132812 56.441406 216.671875 56.289062 C 216.261719 56.15625 216.019531 56.183594 215.867188 56.292969 C 215.699219 56.414062 215.492188 56.765625 215.394531 57.46875 C 215.296875 58.160156 215.320312 59.125 215.269531 60.0625 C 215.21875 60.988281 215.195312 61.925781 214.5 62.5 C 214.351562 62.621094 213.914062 62.683594 213.703125 62.53125 C 213.523438 62.398438 213.5 62.300781 213.46875 62.238281 C 213.207031 61.726562 213.410156 61.597656 213.402344 61.421875 L 213.40625 60.199219 L 213.429688 59.246094 L 213.421875 59.15625 C 213.40625 59.125 213.609375 59.3125 213.542969 59.273438 C 213.472656 59.234375 213.800781 59.328125 213.746094 59.332031 "/>
</g>
</svg>
