<?xml version="1.0" encoding="UTF-8"?>
<svg xmlns="http://www.w3.org/2000/svg" xmlns:xlink="http://www.w3.org/1999/xlink" width="183.5678pt" height="242.1211pt" viewBox="0 0 183.5678 242.1211" version="1.2">
<defs>
<clipPath id="clip1">
  <path d="M 5 102 L 161 102 L 161 130 L 5 130 Z M 5 102 "/>
</clipPath>
<clipPath id="clip2">
  <path d="M 6.066406 105.222656 C 6.332031 105.414062 6.394531 105.785156 6.199219 106.054688 C 6.007812 106.320312 5.636719 106.378906 5.371094 106.1875 C 5.253906 106.105469 5.121094 106.019531 5.03125 105.785156 C 4.957031 105.59375 5.003906 105.273438 5.144531 105.109375 C 5.492188 104.703125 5.730469 104.820312 5.953125 104.800781 C 7.628906 104.644531 9.824219 104.484375 12.195312 104.457031 L 17.683594 104.4375 C 19.132812 104.425781 20.84375 104.136719 22.386719 103.917969 C 25.210938 103.519531 27.859375 103.324219 30.371094 103.257812 C 32.164062 103.214844 34.011719 103.460938 35.773438 103.601562 C 37.535156 103.742188 40.183594 103.84375 42.808594 103.445312 C 46.210938 102.925781 49.054688 102.851562 51.816406 102.878906 C 54.738281 102.90625 58.132812 103 61.527344 102.96875 C 64.523438 102.9375 67.339844 103.042969 70.203125 103.277344 L 74.960938 103.566406 L 81.410156 103.984375 C 84.894531 104.246094 88.140625 105.210938 90.738281 106.179688 C 93.1875 107.097656 95.105469 108.378906 96.671875 109.816406 C 97.824219 110.875 98.949219 111.988281 99.925781 113.507812 C 100.683594 114.6875 101.621094 115.640625 102.445312 116.523438 C 103.101562 117.222656 103.511719 117.953125 103.832031 118.738281 C 104.164062 119.546875 104.714844 120.101562 105.492188 120.382812 C 106.109375 120.609375 106.777344 120.75 107.425781 121.140625 C 108.082031 121.539062 108.460938 122.097656 108.914062 122.445312 C 109.453125 122.859375 110.515625 123.046875 111.601562 123.300781 C 112.96875 123.621094 114.117188 124.203125 115.527344 124.570312 C 116.773438 124.898438 118.4375 125.050781 120.148438 125.230469 C 122.097656 125.429688 123.574219 125.8125 125.011719 126.128906 C 126.578125 126.476562 128.519531 126.660156 130.371094 126.824219 C 133.546875 127.109375 136.585938 127.730469 139.480469 127.804688 C 141.507812 127.855469 143.699219 127.996094 145.804688 128 L 149.503906 128 C 151.238281 127.972656 152.910156 127.710938 154.257812 127.75 L 157.15625 127.859375 L 159.410156 127.929688 L 160.113281 127.96875 L 160.730469 127.964844 L 161.183594 127.941406 C 161.242188 127.9375 161.148438 127.8125 161.554688 127.992188 C 161.636719 128.027344 161.816406 128.113281 161.886719 128.375 C 161.957031 128.609375 161.851562 128.820312 161.78125 128.910156 C 161.585938 129.152344 161.542969 129.089844 161.503906 129.105469 L 161.417969 129.132812 C 161.105469 129.226562 160.773438 129.046875 160.679688 128.730469 C 160.589844 128.414062 160.769531 128.082031 161.085938 127.992188 L 161.066406 128 L 161.023438 128.019531 C 161.042969 128.007812 160.886719 128.121094 160.929688 128.085938 L 160.847656 128.167969 C 160.878906 128.128906 160.726562 128.425781 160.753906 128.34375 C 160.78125 128.261719 160.75 128.757812 160.730469 128.648438 C 160.710938 128.539062 160.90625 128.976562 160.855469 128.914062 C 160.804688 128.851562 161.035156 129.066406 160.996094 129.039062 C 160.921875 128.992188 161.191406 129.117188 161.15625 129.109375 C 161.09375 129.09375 161.277344 129.128906 161.261719 129.128906 L 161.144531 129.136719 L 160.757812 129.15625 L 160.074219 129.15625 L 159.324219 129.117188 L 157.15625 129.046875 L 154.226562 128.941406 C 153.046875 128.90625 151.351562 129.160156 149.523438 129.191406 L 145.800781 129.191406 C 143.648438 129.1875 141.449219 129.042969 139.449219 128.996094 C 136.421875 128.917969 133.363281 128.289062 130.265625 128.011719 C 128.40625 127.847656 126.429688 127.660156 124.757812 127.292969 C 123.292969 126.972656 121.882812 126.605469 120.023438 126.414062 C 118.316406 126.238281 116.617188 126.089844 115.226562 125.722656 C 113.691406 125.324219 112.539062 124.746094 111.332031 124.460938 C 110.289062 124.21875 109.089844 124.082031 108.1875 123.390625 C 107.574219 122.917969 107.191406 122.390625 106.808594 122.160156 C 106.367188 121.890625 105.777344 121.753906 105.085938 121.503906 C 103.996094 121.105469 103.167969 120.265625 102.730469 119.191406 C 102.441406 118.488281 102.125 117.921875 101.578125 117.335938 C 100.761719 116.464844 99.757812 115.457031 98.921875 114.148438 C 98.027344 112.753906 96.996094 111.730469 95.867188 110.695312 C 94.394531 109.34375 92.621094 108.15625 90.320312 107.296875 C 87.792969 106.351562 84.644531 105.421875 81.324219 105.171875 L 74.875 104.753906 L 70.105469 104.464844 C 67.277344 104.234375 64.5 104.128906 61.539062 104.160156 C 58.113281 104.191406 54.710938 104.097656 51.804688 104.070312 C 49.074219 104.042969 46.308594 104.117188 42.988281 104.621094 C 40.21875 105.042969 37.496094 104.933594 35.679688 104.789062 C 33.882812 104.644531 32.070312 104.40625 30.398438 104.449219 C 27.929688 104.515625 25.332031 104.707031 22.554688 105.097656 C 21.027344 105.3125 19.28125 105.617188 17.691406 105.628906 L 12.207031 105.648438 C 9.882812 105.671875 7.714844 105.832031 6.0625 105.988281 L 5.890625 106.007812 L 5.902344 106 L 5.96875 105.960938 L 6.058594 105.871094 C 6 105.945312 6.179688 105.433594 6.175781 105.554688 C 6.171875 105.644531 6.109375 105.285156 6.132812 105.335938 C 6.164062 105.410156 6.042969 105.203125 6.066406 105.222656 "/>
</clipPath>
</defs>
<g id="surface1">
<path style=" stroke:none;fill-rule:nonzero;fill:rgb(7.058716%,1.176453%,46.665955%);fill-opacity:1;" d="M 64.011719 43.980469 C 64.007812 43.652344 64.269531 43.382812 64.597656 43.375 C 64.929688 43.371094 65.199219 43.632812 65.203125 43.960938 C 65.394531 55.753906 65.394531 66.929688 65.203125 77.484375 C 65.199219 77.8125 64.925781 78.074219 64.597656 78.070312 C 64.269531 78.0625 64.007812 77.792969 64.011719 77.464844 C 64.203125 66.921875 64.203125 55.761719 64.011719 43.980469 M 64.34375 44.503906 C 64.046875 44.355469 63.929688 44 64.078125 43.707031 C 64.222656 43.410156 64.582031 43.292969 64.875 43.4375 C 80.742188 51.378906 80.742188 51.378906 99.28125 60.652344 C 99.574219 60.800781 99.695312 61.160156 99.546875 61.453125 C 99.402344 61.746094 99.042969 61.867188 98.75 61.71875 C 80.210938 52.441406 80.210938 52.441406 64.34375 44.503906 M 64.867188 78.011719 C 64.570312 78.152344 64.214844 78.027344 64.070312 77.730469 C 63.929688 77.433594 64.054688 77.078125 64.351562 76.9375 C 75.824219 71.460938 87.292969 66.03125 98.761719 60.648438 C 99.058594 60.507812 99.414062 60.636719 99.554688 60.933594 C 99.695312 61.230469 99.566406 61.585938 99.269531 61.726562 C 87.800781 67.109375 76.332031 72.539062 64.867188 78.011719 M 105.984375 61.835938 C 105.652344 61.835938 105.386719 61.570312 105.386719 61.242188 C 105.386719 60.914062 105.652344 60.648438 105.984375 60.648438 L 112.949219 60.648438 C 113.277344 60.648438 113.542969 60.914062 113.542969 61.242188 C 113.542969 61.570312 113.277344 61.835938 112.949219 61.835938 Z M 53.253906 61.910156 C 52.925781 61.910156 52.660156 61.644531 52.660156 61.3125 C 52.660156 60.984375 52.925781 60.71875 53.253906 60.71875 L 64.75 60.71875 C 65.082031 60.71875 65.347656 60.984375 65.347656 61.3125 C 65.347656 61.644531 65.082031 61.910156 64.75 61.910156 Z M 106.578125 61.296875 C 106.578125 62.800781 105.765625 64.113281 104.554688 64.820312 C 103.949219 65.171875 103.25 65.375 102.5 65.375 C 100.996094 65.375 99.679688 64.5625 98.972656 63.351562 C 98.621094 62.746094 98.417969 62.046875 98.417969 61.296875 C 98.417969 59.792969 99.230469 58.476562 100.441406 57.769531 C 101.046875 57.417969 101.75 57.214844 102.5 57.214844 C 104.003906 57.214844 105.316406 58.027344 106.023438 59.238281 C 106.375 59.84375 106.578125 60.546875 106.578125 61.296875 M 105.386719 61.296875 C 105.386719 60.765625 105.246094 60.269531 104.996094 59.839844 C 104.496094 58.984375 103.5625 58.40625 102.5 58.40625 C 101.96875 58.40625 101.472656 58.550781 101.042969 58.796875 C 100.1875 59.300781 99.609375 60.230469 99.609375 61.296875 C 99.609375 61.828125 99.753906 62.324219 100 62.75 C 100.503906 63.609375 101.433594 64.183594 102.5 64.183594 C 103.027344 64.183594 103.527344 64.042969 103.953125 63.792969 C 104.8125 63.292969 105.386719 62.359375 105.386719 61.296875 M 140.890625 140.152344 C 140.890625 139.824219 141.15625 139.558594 141.488281 139.558594 C 141.816406 139.558594 142.082031 139.824219 142.082031 140.152344 L 142.082031 169.640625 C 142.082031 169.96875 141.816406 170.234375 141.488281 170.234375 C 141.15625 170.234375 140.890625 169.96875 140.890625 169.640625 Z M 140.890625 176.859375 C 140.890625 176.527344 141.15625 176.261719 141.488281 176.261719 C 141.816406 176.261719 142.082031 176.527344 142.082031 176.859375 L 142.082031 208.257812 C 142.082031 208.585938 141.816406 208.851562 141.488281 208.851562 C 141.15625 208.851562 140.890625 208.585938 140.890625 208.257812 Z M 127.914062 170.234375 C 127.585938 170.234375 127.320312 169.96875 127.320312 169.640625 C 127.320312 169.3125 127.585938 169.042969 127.914062 169.042969 L 155.066406 169.042969 C 155.394531 169.042969 155.664062 169.3125 155.664062 169.640625 C 155.664062 169.96875 155.394531 170.234375 155.066406 170.234375 Z M 127.910156 177.453125 C 127.582031 177.453125 127.316406 177.1875 127.316406 176.859375 C 127.316406 176.527344 127.582031 176.261719 127.910156 176.261719 L 155.0625 176.261719 C 155.390625 176.261719 155.660156 176.527344 155.660156 176.859375 C 155.660156 177.1875 155.390625 177.453125 155.0625 177.453125 Z M 24.089844 140.152344 C 24.089844 139.824219 24.355469 139.558594 24.683594 139.558594 C 25.011719 139.558594 25.28125 139.824219 25.28125 140.152344 L 25.28125 169.640625 C 25.28125 169.96875 25.011719 170.234375 24.683594 170.234375 C 24.355469 170.234375 24.089844 169.96875 24.089844 169.640625 Z M 24.089844 176.859375 C 24.089844 176.527344 24.355469 176.261719 24.683594 176.261719 C 25.011719 176.261719 25.28125 176.527344 25.28125 176.859375 L 25.28125 208.257812 C 25.28125 208.585938 25.011719 208.851562 24.683594 208.851562 C 24.355469 208.851562 24.089844 208.585938 24.089844 208.257812 Z M 11.113281 170.234375 C 10.78125 170.234375 10.515625 169.96875 10.515625 169.640625 C 10.515625 169.3125 10.78125 169.042969 11.113281 169.042969 L 38.265625 169.042969 C 38.59375 169.042969 38.859375 169.3125 38.859375 169.640625 C 38.859375 169.96875 38.59375 170.234375 38.265625 170.234375 Z M 11.109375 177.453125 C 10.777344 177.453125 10.511719 177.1875 10.511719 176.859375 C 10.511719 176.527344 10.777344 176.261719 11.109375 176.261719 L 38.261719 176.261719 C 38.589844 176.261719 38.855469 176.527344 38.855469 176.859375 C 38.855469 177.1875 38.589844 177.453125 38.261719 177.453125 Z M 50.265625 140.15625 C 49.933594 140.15625 49.667969 139.886719 49.667969 139.558594 C 49.667969 139.230469 49.933594 138.964844 50.265625 138.964844 L 79.75 138.964844 C 80.078125 138.964844 80.347656 139.230469 80.347656 139.558594 C 80.347656 139.886719 80.078125 140.15625 79.75 140.15625 Z M 86.96875 140.15625 C 86.640625 140.15625 86.375 139.886719 86.375 139.558594 C 86.375 139.230469 86.640625 138.964844 86.96875 138.964844 L 118.367188 138.964844 C 118.695312 138.964844 118.964844 139.230469 118.964844 139.558594 C 118.964844 139.886719 118.695312 140.15625 118.367188 140.15625 Z M 80.347656 153.132812 C 80.347656 153.460938 80.078125 153.726562 79.75 153.726562 C 79.421875 153.726562 79.15625 153.460938 79.15625 153.132812 L 79.15625 125.980469 C 79.15625 125.648438 79.421875 125.382812 79.75 125.382812 C 80.078125 125.382812 80.347656 125.648438 80.347656 125.980469 Z M 87.566406 153.136719 C 87.566406 153.464844 87.296875 153.730469 86.96875 153.730469 C 86.640625 153.730469 86.375 153.464844 86.375 153.136719 L 86.375 125.984375 C 86.375 125.652344 86.640625 125.386719 86.96875 125.386719 C 87.296875 125.386719 87.566406 125.652344 87.566406 125.984375 Z M 140.894531 206.144531 C 140.894531 205.8125 141.160156 205.546875 141.488281 205.546875 C 141.816406 205.546875 142.085938 205.8125 142.085938 206.144531 L 142.085938 217.070312 C 142.085938 217.402344 141.816406 217.667969 141.488281 217.667969 C 141.160156 217.667969 140.894531 217.402344 140.894531 217.070312 Z M 132.992188 218.402344 C 132.660156 218.402344 132.394531 218.136719 132.394531 217.804688 C 132.394531 217.476562 132.660156 217.210938 132.992188 217.210938 L 149.988281 217.210938 C 150.316406 217.210938 150.582031 217.476562 150.582031 217.804688 C 150.582031 218.136719 150.316406 218.402344 149.988281 218.402344 Z M 135.925781 222.300781 C 135.597656 222.300781 135.332031 222.03125 135.332031 221.703125 C 135.332031 221.375 135.597656 221.109375 135.925781 221.109375 L 147.339844 221.109375 C 147.667969 221.109375 147.9375 221.375 147.9375 221.703125 C 147.9375 222.03125 147.667969 222.300781 147.339844 222.300781 Z M 139.195312 225.957031 C 138.867188 225.957031 138.601562 225.6875 138.601562 225.359375 C 138.601562 225.03125 138.867188 224.765625 139.195312 224.765625 L 144.070312 224.765625 C 144.398438 224.765625 144.667969 225.03125 144.667969 225.359375 C 144.667969 225.6875 144.398438 225.957031 144.070312 225.957031 Z M 24.089844 206.144531 C 24.089844 205.8125 24.355469 205.546875 24.6875 205.546875 C 25.015625 205.546875 25.28125 205.8125 25.28125 206.144531 L 25.28125 217.070312 C 25.28125 217.402344 25.015625 217.667969 24.6875 217.667969 C 24.355469 217.667969 24.089844 217.402344 24.089844 217.070312 Z M 16.1875 218.402344 C 15.859375 218.402344 15.59375 218.136719 15.59375 217.804688 C 15.59375 217.476562 15.859375 217.210938 16.1875 217.210938 L 33.183594 217.210938 C 33.511719 217.210938 33.78125 217.476562 33.78125 217.804688 C 33.78125 218.136719 33.511719 218.402344 33.183594 218.402344 Z M 19.125 222.300781 C 18.796875 222.300781 18.527344 222.03125 18.527344 221.703125 C 18.527344 221.375 18.796875 221.109375 19.125 221.109375 L 30.539062 221.109375 C 30.867188 221.109375 31.132812 221.375 31.132812 221.703125 C 31.132812 222.03125 30.867188 222.300781 30.539062 222.300781 Z M 22.394531 225.957031 C 22.066406 225.957031 21.796875 225.6875 21.796875 225.359375 C 21.796875 225.03125 22.066406 224.765625 22.394531 224.765625 L 27.269531 224.765625 C 27.597656 224.765625 27.863281 225.03125 27.863281 225.359375 C 27.863281 225.6875 27.597656 225.957031 27.269531 225.957031 Z M 22.394531 225.957031 "/>
<path style=" stroke:none;fill-rule:nonzero;fill:rgb(7.058716%,1.176453%,46.665955%);fill-opacity:1;" d="M 81.695312 128.242188 L 84.507812 128.242188 L 84.507812 150.875 L 81.695312 150.875 Z M 82.289062 128.839844 L 82.289062 150.277344 L 83.914062 150.277344 L 83.914062 128.839844 Z M 81.695312 127.648438 L 84.507812 127.648438 C 84.835938 127.648438 85.105469 127.914062 85.105469 128.242188 L 85.105469 150.875 C 85.105469 151.203125 84.835938 151.46875 84.507812 151.46875 L 81.695312 151.46875 C 81.367188 151.46875 81.097656 151.203125 81.097656 150.875 L 81.097656 128.242188 C 81.097656 127.914062 81.367188 127.648438 81.695312 127.648438 M 50.25 138.964844 C 50.578125 138.957031 50.851562 139.21875 50.859375 139.546875 C 50.867188 139.875 50.605469 140.148438 50.277344 140.15625 L 24.699219 140.75 C 24.371094 140.757812 24.097656 140.496094 24.089844 140.167969 C 24.082031 139.839844 24.339844 139.566406 24.671875 139.558594 Z M 117.101562 140.15625 C 116.773438 140.148438 116.511719 139.875 116.519531 139.546875 C 116.527344 139.214844 116.800781 138.957031 117.128906 138.964844 L 141.5 139.558594 C 141.828125 139.566406 142.089844 139.839844 142.082031 140.167969 C 142.074219 140.496094 141.800781 140.757812 141.472656 140.75 Z M 25.28125 140.152344 C 25.28125 140.480469 25.011719 140.75 24.683594 140.75 C 24.355469 140.75 24.089844 140.480469 24.089844 140.152344 L 24.089844 31.964844 C 24.089844 31.636719 24.355469 31.367188 24.683594 31.367188 C 25.011719 31.367188 25.28125 31.636719 25.28125 31.964844 Z M 25.28125 140.152344 "/>
<path style=" stroke:none;fill-rule:nonzero;fill:rgb(7.058716%,1.176453%,46.665955%);fill-opacity:1;" d="M 53.253906 32.558594 C 52.925781 32.558594 52.660156 32.292969 52.660156 31.964844 C 52.660156 31.636719 52.925781 31.367188 53.253906 31.367188 L 68.980469 31.367188 C 69.3125 31.367188 69.578125 31.636719 69.578125 31.964844 C 69.578125 32.292969 69.3125 32.558594 68.980469 32.558594 Z M 104.640625 32.558594 C 104.3125 32.558594 104.042969 32.292969 104.042969 31.964844 C 104.042969 31.636719 104.3125 31.367188 104.640625 31.367188 L 121.335938 31.367188 C 121.664062 31.367188 121.929688 31.636719 121.929688 31.964844 C 121.929688 32.292969 121.664062 32.558594 121.335938 32.558594 Z M 68.503906 32.117188 C 68.308594 31.851562 68.363281 31.480469 68.628906 31.285156 C 68.894531 31.089844 69.265625 31.144531 69.460938 31.410156 L 73.414062 36.773438 C 73.609375 37.035156 73.550781 37.410156 73.289062 37.605469 C 73.023438 37.800781 72.648438 37.742188 72.453125 37.480469 Z M 73.445312 37.433594 C 73.273438 37.714844 72.910156 37.804688 72.628906 37.636719 C 72.34375 37.464844 72.253906 37.101562 72.425781 36.816406 L 78.644531 26.496094 C 78.8125 26.214844 79.179688 26.125 79.460938 26.292969 C 79.742188 26.464844 79.832031 26.828125 79.664062 27.109375 Z M 78.675781 27.15625 C 78.480469 26.890625 78.535156 26.519531 78.800781 26.324219 C 79.066406 26.128906 79.4375 26.183594 79.632812 26.449219 L 87.242188 36.773438 C 87.4375 37.035156 87.382812 37.410156 87.117188 37.605469 C 86.851562 37.800781 86.480469 37.742188 86.285156 37.480469 Z M 87.273438 37.433594 C 87.101562 37.714844 86.738281 37.804688 86.457031 37.636719 C 86.175781 37.464844 86.082031 37.101562 86.253906 36.816406 L 92.472656 26.496094 C 92.640625 26.214844 93.007812 26.125 93.289062 26.292969 C 93.570312 26.464844 93.664062 26.828125 93.492188 27.109375 Z M 92.503906 27.15625 C 92.308594 26.890625 92.363281 26.519531 92.628906 26.324219 C 92.894531 26.128906 93.265625 26.183594 93.460938 26.449219 L 101.070312 36.773438 C 101.265625 37.035156 101.210938 37.410156 100.945312 37.605469 C 100.679688 37.800781 100.308594 37.742188 100.113281 37.480469 Z M 101.058594 37.492188 C 100.855469 37.75 100.484375 37.796875 100.222656 37.59375 C 99.964844 37.390625 99.921875 37.015625 100.125 36.757812 L 104.171875 31.597656 C 104.375 31.339844 104.75 31.292969 105.007812 31.496094 C 105.265625 31.699219 105.3125 32.074219 105.109375 32.332031 Z M 139.332031 72.070312 C 139.332031 71.742188 139.601562 71.476562 139.929688 71.476562 C 140.257812 71.476562 140.523438 71.742188 140.523438 72.070312 L 140.523438 87.800781 C 140.523438 88.128906 140.257812 88.394531 139.929688 88.394531 C 139.601562 88.394531 139.332031 88.128906 139.332031 87.800781 Z M 140.890625 123.457031 C 140.890625 123.128906 141.15625 122.863281 141.488281 122.863281 C 141.816406 122.863281 142.082031 123.128906 142.082031 123.457031 L 142.082031 140.152344 C 142.082031 140.480469 141.816406 140.75 141.488281 140.75 C 141.15625 140.75 140.890625 140.480469 140.890625 140.152344 Z M 139.777344 87.320312 C 140.042969 87.125 140.414062 87.179688 140.609375 87.445312 C 140.804688 87.710938 140.746094 88.082031 140.484375 88.277344 L 135.121094 92.230469 C 134.855469 92.425781 134.484375 92.371094 134.289062 92.105469 C 134.09375 91.839844 134.148438 91.46875 134.414062 91.273438 Z M 134.460938 92.261719 C 134.179688 92.09375 134.089844 91.726562 134.257812 91.445312 C 134.429688 91.164062 134.792969 91.070312 135.074219 91.242188 L 145.398438 97.460938 C 145.679688 97.632812 145.769531 97.996094 145.601562 98.277344 C 145.429688 98.558594 145.066406 98.652344 144.78125 98.480469 Z M 144.738281 97.492188 C 145 97.296875 145.375 97.351562 145.570312 97.617188 C 145.765625 97.882812 145.707031 98.253906 145.445312 98.449219 L 135.121094 106.058594 C 134.855469 106.253906 134.484375 106.199219 134.289062 105.933594 C 134.09375 105.667969 134.148438 105.296875 134.414062 105.101562 Z M 134.460938 106.089844 C 134.179688 105.921875 134.089844 105.554688 134.257812 105.273438 C 134.429688 104.992188 134.792969 104.902344 135.074219 105.070312 L 145.398438 111.289062 C 145.679688 111.460938 145.769531 111.824219 145.601562 112.109375 C 145.429688 112.390625 145.066406 112.480469 144.78125 112.308594 Z M 144.738281 111.320312 C 145 111.125 145.375 111.183594 145.570312 111.445312 C 145.765625 111.710938 145.707031 112.085938 145.445312 112.28125 L 135.121094 119.886719 C 134.855469 120.082031 134.484375 120.027344 134.289062 119.761719 C 134.09375 119.496094 134.148438 119.125 134.414062 118.929688 Z M 134.460938 119.917969 C 134.179688 119.75 134.089844 119.382812 134.257812 119.101562 C 134.429688 118.820312 134.792969 118.730469 135.074219 118.898438 L 141.792969 122.949219 C 142.074219 123.117188 142.167969 123.484375 141.996094 123.765625 C 141.828125 124.046875 141.460938 124.136719 141.179688 123.96875 Z M 134.460938 119.917969 "/>
<path style=" stroke:none;fill-rule:nonzero;fill:rgb(7.058716%,1.176453%,46.665955%);fill-opacity:1;" d="M 53.566406 31.367188 C 53.894531 31.367188 54.160156 31.636719 54.160156 31.964844 C 54.160156 32.292969 53.894531 32.558594 53.566406 32.558594 L 24.683594 32.558594 C 24.355469 32.558594 24.089844 32.292969 24.089844 31.964844 C 24.089844 31.636719 24.355469 31.367188 24.683594 31.367188 Z M 140.523438 73.980469 C 140.523438 74.3125 140.257812 74.578125 139.929688 74.578125 C 139.601562 74.578125 139.332031 74.3125 139.332031 73.980469 L 139.332031 32.011719 C 139.332031 31.683594 139.601562 31.417969 139.929688 31.417969 C 140.257812 31.417969 140.523438 31.683594 140.523438 32.011719 Z M 121.335938 32.558594 C 121.007812 32.558594 120.738281 32.292969 120.738281 31.964844 C 120.738281 31.636719 121.007812 31.367188 121.335938 31.367188 L 139.929688 31.367188 C 140.257812 31.367188 140.523438 31.636719 140.523438 31.964844 C 140.523438 32.292969 140.257812 32.558594 139.929688 32.558594 Z M 112.949219 61.835938 C 112.621094 61.835938 112.351562 61.570312 112.351562 61.242188 C 112.351562 60.914062 112.621094 60.648438 112.949219 60.648438 L 139.929688 60.648438 C 140.257812 60.648438 140.523438 60.914062 140.523438 61.242188 C 140.523438 61.570312 140.257812 61.835938 139.929688 61.835938 Z M 53.253906 60.71875 C 53.582031 60.71875 53.847656 60.984375 53.847656 61.3125 C 53.847656 61.644531 53.582031 61.910156 53.253906 61.910156 L 24.683594 61.910156 C 24.355469 61.910156 24.089844 61.644531 24.089844 61.3125 C 24.089844 60.984375 24.355469 60.71875 24.683594 60.71875 Z M 53.253906 60.71875 "/>
<g clip-path="url(#clip1)" clip-rule="nonzero">
<g clip-path="url(#clip2)" clip-rule="nonzero">
<path style=" stroke:none;fill-rule:nonzero;fill:rgb(7.058716%,1.176453%,46.665955%);fill-opacity:1;" d="M 6.066406 105.222656 C 6.066406 105.222656 6.066406 105.222656 6.0625 105.222656 C 5.796875 105.027344 5.425781 105.089844 5.234375 105.355469 C 5.039062 105.621094 5.101562 105.996094 5.367188 106.1875 C 5.367188 106.1875 5.367188 106.1875 5.371094 106.1875 C 5.636719 106.378906 6.007812 106.320312 6.199219 106.054688 C 6.394531 105.785156 6.332031 105.414062 6.066406 105.222656 M 7.730469 105.847656 C 8.058594 105.824219 8.304688 105.539062 8.28125 105.210938 C 8.257812 104.882812 7.972656 104.636719 7.644531 104.660156 C 7.644531 104.660156 7.644531 104.660156 7.640625 104.660156 C 7.3125 104.683594 7.066406 104.96875 7.09375 105.296875 C 7.117188 105.625 7.402344 105.871094 7.730469 105.847656 M 10.089844 105.707031 C 10.09375 105.707031 10.09375 105.707031 10.09375 105.707031 C 10.421875 105.691406 10.675781 105.414062 10.660156 105.085938 C 10.648438 104.757812 10.367188 104.503906 10.039062 104.515625 C 9.710938 104.53125 9.457031 104.808594 9.46875 105.136719 C 9.484375 105.464844 9.761719 105.722656 10.089844 105.707031 M 12.453125 105.644531 C 12.78125 105.640625 13.046875 105.371094 13.042969 105.042969 C 13.039062 104.714844 12.769531 104.449219 12.441406 104.453125 C 12.113281 104.457031 11.847656 104.726562 11.851562 105.054688 C 11.855469 105.382812 12.125 105.648438 12.453125 105.644531 M 14.832031 105.636719 C 15.160156 105.636719 15.425781 105.367188 15.425781 105.039062 C 15.425781 104.710938 15.160156 104.445312 14.832031 104.445312 C 14.5 104.445312 14.234375 104.710938 14.234375 105.039062 C 14.234375 105.371094 14.503906 105.636719 14.832031 105.636719 M 17.21875 105.628906 C 17.546875 105.628906 17.8125 105.359375 17.808594 105.03125 C 17.808594 104.703125 17.539062 104.4375 17.210938 104.441406 C 16.882812 104.441406 16.617188 104.710938 16.617188 105.039062 C 16.621094 105.367188 16.886719 105.632812 17.21875 105.628906 M 19.65625 105.496094 C 19.660156 105.496094 19.660156 105.496094 19.660156 105.496094 C 19.984375 105.457031 20.222656 105.164062 20.183594 104.835938 C 20.148438 104.511719 19.851562 104.273438 19.527344 104.3125 C 19.199219 104.347656 18.964844 104.640625 19 104.96875 C 19.035156 105.296875 19.332031 105.53125 19.65625 105.496094 M 22.039062 105.171875 C 22.367188 105.125 22.589844 104.820312 22.542969 104.496094 C 22.496094 104.171875 22.195312 103.945312 21.867188 103.992188 C 21.542969 104.039062 21.316406 104.34375 21.363281 104.667969 C 21.410156 104.992188 21.714844 105.21875 22.039062 105.171875 M 24.382812 104.863281 C 24.710938 104.828125 24.945312 104.53125 24.910156 104.207031 C 24.871094 103.878906 24.578125 103.644531 24.25 103.679688 C 23.921875 103.71875 23.6875 104.011719 23.722656 104.339844 C 23.761719 104.667969 24.054688 104.902344 24.382812 104.863281 M 26.734375 104.640625 C 27.0625 104.613281 27.308594 104.328125 27.28125 104 C 27.257812 103.671875 26.96875 103.425781 26.644531 103.453125 C 26.640625 103.453125 26.640625 103.453125 26.640625 103.453125 C 26.3125 103.476562 26.070312 103.765625 26.09375 104.09375 C 26.121094 104.421875 26.40625 104.664062 26.734375 104.640625 M 29.09375 104.496094 C 29.421875 104.480469 29.675781 104.203125 29.664062 103.875 C 29.648438 103.546875 29.371094 103.292969 29.042969 103.304688 C 29.042969 103.304688 29.042969 103.304688 29.039062 103.304688 C 28.710938 103.320312 28.457031 103.597656 28.472656 103.925781 C 28.488281 104.253906 28.765625 104.511719 29.09375 104.496094 M 31.429688 104.457031 C 31.761719 104.464844 32.035156 104.207031 32.046875 103.878906 C 32.054688 103.550781 31.796875 103.277344 31.46875 103.265625 C 31.140625 103.253906 30.863281 103.511719 30.855469 103.839844 C 30.84375 104.167969 31.101562 104.445312 31.429688 104.457031 M 33.773438 104.617188 C 34.101562 104.648438 34.390625 104.40625 34.421875 104.078125 C 34.449219 103.75 34.210938 103.460938 33.882812 103.429688 C 33.882812 103.429688 33.882812 103.429688 33.878906 103.429688 C 33.554688 103.402344 33.261719 103.640625 33.234375 103.96875 C 33.203125 104.296875 33.445312 104.585938 33.773438 104.617188 M 36.160156 104.824219 C 36.488281 104.847656 36.773438 104.601562 36.796875 104.273438 C 36.816406 103.945312 36.570312 103.660156 36.242188 103.636719 C 35.914062 103.613281 35.628906 103.863281 35.605469 104.191406 C 35.582031 104.519531 35.832031 104.804688 36.160156 104.824219 M 38.578125 104.914062 C 38.910156 104.917969 39.175781 104.652344 39.179688 104.324219 C 39.179688 103.992188 38.914062 103.726562 38.585938 103.722656 C 38.253906 103.722656 37.988281 103.988281 37.984375 104.316406 C 37.984375 104.644531 38.25 104.914062 38.578125 104.914062 M 41.003906 104.839844 C 41.007812 104.839844 41.007812 104.839844 41.007812 104.839844 C 41.335938 104.816406 41.582031 104.53125 41.558594 104.203125 C 41.535156 103.875 41.25 103.628906 40.921875 103.652344 C 40.59375 103.675781 40.347656 103.960938 40.371094 104.285156 C 40.394531 104.613281 40.675781 104.863281 41.003906 104.839844 M 43.414062 104.558594 C 43.742188 104.511719 43.964844 104.210938 43.917969 103.882812 C 43.871094 103.558594 43.570312 103.332031 43.246094 103.378906 C 42.917969 103.425781 42.691406 103.726562 42.738281 104.054688 C 42.785156 104.378906 43.089844 104.605469 43.414062 104.558594 M 45.75 104.28125 C 45.75 104.28125 45.75 104.28125 45.753906 104.28125 C 46.078125 104.25 46.320312 103.960938 46.289062 103.632812 C 46.257812 103.304688 45.96875 103.066406 45.640625 103.09375 C 45.3125 103.125 45.070312 103.417969 45.101562 103.742188 C 45.132812 104.070312 45.421875 104.3125 45.75 104.28125 M 48.097656 104.121094 C 48.429688 104.105469 48.683594 103.828125 48.667969 103.5 C 48.652344 103.171875 48.375 102.917969 48.046875 102.929688 C 47.71875 102.945312 47.460938 103.222656 47.476562 103.550781 C 47.492188 103.878906 47.769531 104.136719 48.097656 104.121094 M 50.457031 104.066406 C 50.457031 104.066406 50.457031 104.066406 50.460938 104.066406 C 50.789062 104.0625 51.054688 103.796875 51.050781 103.46875 C 51.050781 103.136719 50.78125 102.875 50.453125 102.875 C 50.125 102.875 49.859375 103.144531 49.859375 103.472656 C 49.863281 103.800781 50.128906 104.066406 50.457031 104.066406 M 52.832031 104.082031 C 53.160156 104.085938 53.429688 103.824219 53.433594 103.492188 C 53.441406 103.164062 53.175781 102.894531 52.847656 102.890625 C 52.519531 102.886719 52.246094 103.148438 52.242188 103.476562 C 52.238281 103.808594 52.5 104.078125 52.832031 104.082031 M 55.210938 104.117188 C 55.214844 104.117188 55.214844 104.117188 55.214844 104.117188 C 55.542969 104.121094 55.8125 103.859375 55.820312 103.53125 C 55.824219 103.203125 55.5625 102.933594 55.230469 102.925781 C 54.902344 102.921875 54.632812 103.183594 54.625 103.511719 C 54.621094 103.839844 54.882812 104.113281 55.210938 104.117188 M 57.597656 104.152344 C 57.929688 104.15625 58.199219 103.890625 58.199219 103.5625 C 58.203125 103.234375 57.941406 102.964844 57.613281 102.960938 C 57.613281 102.960938 57.613281 102.960938 57.609375 102.960938 C 57.28125 102.957031 57.011719 103.21875 57.007812 103.546875 C 57.003906 103.878906 57.269531 104.148438 57.597656 104.152344 M 59.988281 104.164062 C 60.316406 104.164062 60.582031 103.898438 60.585938 103.570312 C 60.585938 103.242188 60.316406 102.972656 59.988281 102.972656 C 59.660156 102.972656 59.390625 103.242188 59.390625 103.570312 C 59.390625 103.898438 59.660156 104.164062 59.988281 104.164062 M 62.371094 104.152344 C 62.703125 104.152344 62.96875 103.886719 62.96875 103.558594 C 62.964844 103.226562 62.699219 102.960938 62.371094 102.960938 C 62.039062 102.964844 61.773438 103.230469 61.773438 103.558594 C 61.777344 103.886719 62.042969 104.152344 62.371094 104.152344 M 64.738281 104.179688 C 64.738281 104.179688 64.738281 104.179688 64.742188 104.179688 C 65.070312 104.1875 65.34375 103.925781 65.351562 103.597656 C 65.359375 103.269531 65.097656 102.996094 64.769531 102.988281 C 64.769531 102.988281 64.769531 102.988281 64.765625 102.988281 C 64.4375 102.980469 64.164062 103.242188 64.15625 103.570312 C 64.148438 103.898438 64.410156 104.171875 64.738281 104.179688 M 67.105469 104.265625 C 67.433594 104.28125 67.714844 104.027344 67.730469 103.699219 C 67.746094 103.371094 67.496094 103.09375 67.164062 103.078125 C 66.835938 103.058594 66.554688 103.3125 66.539062 103.640625 C 66.523438 103.96875 66.777344 104.25 67.105469 104.265625 M 69.46875 104.414062 C 69.796875 104.4375 70.082031 104.191406 70.109375 103.863281 C 70.132812 103.535156 69.886719 103.25 69.558594 103.226562 C 69.230469 103.203125 68.945312 103.445312 68.917969 103.773438 C 68.894531 104.101562 69.140625 104.390625 69.46875 104.414062 M 71.859375 104.578125 C 72.1875 104.597656 72.46875 104.347656 72.488281 104.019531 C 72.503906 103.691406 72.253906 103.410156 71.925781 103.390625 C 71.597656 103.371094 71.316406 103.625 71.296875 103.953125 C 71.277344 104.28125 71.527344 104.5625 71.859375 104.578125 M 74.234375 104.714844 C 74.5625 104.734375 74.84375 104.484375 74.867188 104.15625 C 74.886719 103.828125 74.636719 103.546875 74.308594 103.523438 C 73.980469 103.503906 73.695312 103.753906 73.675781 104.082031 C 73.65625 104.410156 73.90625 104.691406 74.234375 104.714844 M 76.613281 104.867188 C 76.941406 104.890625 77.222656 104.640625 77.242188 104.3125 C 77.265625 103.984375 77.015625 103.699219 76.6875 103.679688 C 76.6875 103.679688 76.6875 103.679688 76.683594 103.679688 C 76.355469 103.660156 76.074219 103.910156 76.054688 104.238281 C 76.035156 104.566406 76.285156 104.847656 76.613281 104.867188 M 78.988281 105.015625 C 78.992188 105.015625 78.992188 105.015625 78.992188 105.015625 C 79.320312 105.035156 79.601562 104.785156 79.621094 104.457031 C 79.644531 104.128906 79.394531 103.847656 79.066406 103.824219 C 79.066406 103.824219 79.066406 103.824219 79.0625 103.824219 C 78.734375 103.804688 78.453125 104.054688 78.433594 104.382812 C 78.414062 104.710938 78.660156 104.992188 78.988281 105.015625 M 81.359375 105.171875 C 81.359375 105.175781 81.359375 105.175781 81.359375 105.175781 C 81.6875 105.199219 81.972656 104.953125 82 104.625 C 82.023438 104.296875 81.78125 104.011719 81.453125 103.988281 C 81.449219 103.988281 81.449219 103.988281 81.449219 103.988281 C 81.121094 103.960938 80.835938 104.207031 80.8125 104.535156 C 80.785156 104.863281 81.03125 105.148438 81.359375 105.171875 M 83.671875 105.460938 C 83.996094 105.515625 84.304688 105.296875 84.355469 104.972656 C 84.410156 104.644531 84.191406 104.339844 83.867188 104.285156 C 83.542969 104.230469 83.234375 104.449219 83.179688 104.773438 C 83.128906 105.097656 83.347656 105.40625 83.671875 105.460938 M 85.957031 105.933594 C 85.960938 105.933594 85.960938 105.933594 85.960938 105.933594 C 86.277344 106.015625 86.601562 105.820312 86.679688 105.5 C 86.757812 105.179688 86.5625 104.859375 86.246094 104.777344 C 86.242188 104.777344 86.242188 104.777344 86.242188 104.777344 C 85.925781 104.699219 85.601562 104.894531 85.523438 105.214844 C 85.445312 105.535156 85.640625 105.855469 85.957031 105.933594 M 88.214844 106.570312 C 88.21875 106.570312 88.21875 106.570312 88.21875 106.570312 C 88.53125 106.671875 88.867188 106.496094 88.964844 106.183594 C 89.0625 105.867188 88.890625 105.535156 88.574219 105.433594 C 88.261719 105.335938 87.925781 105.511719 87.828125 105.824219 C 87.730469 106.136719 87.902344 106.472656 88.214844 106.570312 M 90.433594 107.339844 C 90.433594 107.339844 90.433594 107.339844 90.4375 107.339844 C 90.742188 107.457031 91.085938 107.304688 91.203125 106.996094 C 91.320312 106.6875 91.167969 106.34375 90.859375 106.226562 C 90.550781 106.109375 90.207031 106.265625 90.089844 106.570312 C 89.972656 106.878906 90.128906 107.222656 90.433594 107.339844 M 92.527344 108.296875 C 92.816406 108.457031 93.179688 108.347656 93.335938 108.058594 C 93.492188 107.769531 93.386719 107.410156 93.097656 107.25 C 93.097656 107.25 93.097656 107.25 93.09375 107.25 C 92.804688 107.09375 92.445312 107.203125 92.289062 107.492188 C 92.132812 107.78125 92.238281 108.140625 92.527344 108.296875 M 94.464844 109.535156 C 94.730469 109.730469 95.101562 109.675781 95.296875 109.410156 C 95.496094 109.148438 95.4375 108.773438 95.175781 108.578125 C 94.910156 108.382812 94.539062 108.4375 94.339844 108.699219 C 94.144531 108.964844 94.199219 109.335938 94.464844 109.535156 M 96.230469 111.03125 C 96.472656 111.253906 96.847656 111.242188 97.074219 111.003906 C 97.296875 110.761719 97.285156 110.386719 97.042969 110.160156 C 96.804688 109.9375 96.425781 109.949219 96.203125 110.1875 C 95.976562 110.429688 95.988281 110.804688 96.230469 111.03125 M 97.839844 112.691406 C 98.054688 112.941406 98.429688 112.972656 98.679688 112.761719 C 98.929688 112.546875 98.960938 112.171875 98.75 111.921875 C 98.535156 111.667969 98.160156 111.640625 97.910156 111.851562 C 97.65625 112.066406 97.628906 112.441406 97.839844 112.691406 M 99.207031 114.574219 C 99.394531 114.84375 99.765625 114.910156 100.035156 114.722656 C 100.304688 114.53125 100.371094 114.160156 100.183594 113.890625 C 100.183594 113.890625 100.183594 113.890625 100.179688 113.890625 C 99.992188 113.621094 99.621094 113.554688 99.351562 113.746094 C 99.082031 113.933594 99.015625 114.304688 99.207031 114.574219 M 100.769531 116.476562 C 100.992188 116.71875 101.367188 116.734375 101.609375 116.507812 C 101.851562 116.285156 101.867188 115.910156 101.644531 115.667969 C 101.421875 115.425781 101.042969 115.410156 100.800781 115.632812 C 100.5625 115.855469 100.546875 116.234375 100.769531 116.476562 M 102.238281 118.195312 C 102.238281 118.195312 102.238281 118.195312 102.238281 118.199219 C 102.410156 118.476562 102.777344 118.566406 103.058594 118.394531 C 103.335938 118.222656 103.425781 117.855469 103.253906 117.574219 C 103.078125 117.292969 102.714844 117.207031 102.433594 117.378906 C 102.152344 117.550781 102.066406 117.917969 102.238281 118.195312 M 103.425781 120.355469 C 103.640625 120.605469 104.015625 120.636719 104.265625 120.425781 C 104.519531 120.214844 104.550781 119.839844 104.335938 119.585938 C 104.125 119.335938 103.75 119.304688 103.496094 119.515625 C 103.246094 119.726562 103.214844 120.105469 103.425781 120.355469 M 105.722656 121.71875 C 105.726562 121.71875 105.726562 121.71875 105.726562 121.71875 C 106.039062 121.820312 106.375 121.648438 106.476562 121.335938 C 106.578125 121.019531 106.40625 120.6875 106.089844 120.585938 C 105.777344 120.484375 105.441406 120.65625 105.339844 120.96875 C 105.238281 121.28125 105.410156 121.617188 105.722656 121.71875 M 107.503906 122.765625 C 107.507812 122.769531 107.507812 122.769531 107.507812 122.769531 C 107.738281 123 108.117188 123 108.347656 122.769531 C 108.582031 122.535156 108.582031 122.160156 108.351562 121.925781 C 108.347656 121.925781 108.347656 121.925781 108.347656 121.925781 C 108.117188 121.691406 107.738281 121.691406 107.507812 121.925781 C 107.273438 122.15625 107.273438 122.535156 107.503906 122.765625 M 109.792969 124.105469 C 109.796875 124.105469 109.796875 124.105469 109.796875 124.105469 C 110.113281 124.191406 110.441406 124.003906 110.527344 123.6875 C 110.613281 123.371094 110.425781 123.042969 110.105469 122.957031 C 109.789062 122.871094 109.460938 123.058594 109.375 123.375 C 109.289062 123.691406 109.476562 124.019531 109.792969 124.105469 M 112.082031 124.671875 C 112.394531 124.769531 112.730469 124.597656 112.832031 124.285156 C 112.929688 123.972656 112.757812 123.636719 112.445312 123.535156 C 112.445312 123.535156 112.445312 123.535156 112.441406 123.535156 C 112.128906 123.4375 111.792969 123.609375 111.695312 123.921875 C 111.59375 124.238281 111.769531 124.570312 112.082031 124.671875 M 114.328125 125.460938 C 114.640625 125.5625 114.976562 125.390625 115.078125 125.078125 C 115.179688 124.765625 115.007812 124.429688 114.695312 124.328125 C 114.382812 124.226562 114.046875 124.394531 113.945312 124.707031 C 113.84375 125.019531 114.015625 125.359375 114.328125 125.460938 M 116.738281 126.027344 C 117.0625 126.078125 117.367188 125.855469 117.417969 125.53125 C 117.46875 125.207031 117.246094 124.902344 116.921875 124.851562 C 116.59375 124.800781 116.289062 125.023438 116.238281 125.347656 C 116.191406 125.671875 116.410156 125.976562 116.738281 126.027344 M 119.132812 126.320312 C 119.460938 126.355469 119.753906 126.117188 119.785156 125.792969 C 119.820312 125.464844 119.582031 125.171875 119.253906 125.136719 C 118.925781 125.101562 118.632812 125.339844 118.601562 125.667969 C 118.566406 125.996094 118.804688 126.289062 119.132812 126.320312 M 121.460938 126.605469 C 121.464844 126.605469 121.464844 126.605469 121.464844 126.605469 C 121.789062 126.65625 122.09375 126.4375 122.148438 126.113281 C 122.199219 125.789062 121.980469 125.480469 121.65625 125.429688 C 121.65625 125.429688 121.65625 125.429688 121.652344 125.429688 C 121.328125 125.375 121.023438 125.597656 120.96875 125.921875 C 120.917969 126.246094 121.136719 126.550781 121.460938 126.605469 M 123.761719 127.070312 C 124.082031 127.140625 124.402344 126.941406 124.476562 126.621094 C 124.546875 126.300781 124.347656 125.980469 124.027344 125.90625 C 123.703125 125.835938 123.386719 126.035156 123.3125 126.355469 C 123.242188 126.675781 123.441406 126.996094 123.761719 127.070312 M 126.136719 127.546875 C 126.136719 127.546875 126.136719 127.546875 126.140625 127.546875 C 126.464844 127.597656 126.769531 127.375 126.820312 127.050781 C 126.871094 126.726562 126.648438 126.421875 126.324219 126.371094 C 126.320312 126.371094 126.320312 126.371094 126.320312 126.371094 C 125.996094 126.320312 125.691406 126.542969 125.640625 126.867188 C 125.589844 127.191406 125.8125 127.496094 126.136719 127.546875 M 128.53125 127.847656 C 128.53125 127.847656 128.53125 127.847656 128.535156 127.847656 C 128.859375 127.882812 129.152344 127.644531 129.1875 127.316406 C 129.222656 126.988281 128.984375 126.699219 128.65625 126.664062 C 128.328125 126.628906 128.035156 126.867188 128 127.195312 C 127.96875 127.523438 128.207031 127.816406 128.53125 127.847656 M 130.90625 128.074219 C 131.234375 128.109375 131.527344 127.871094 131.558594 127.542969 C 131.59375 127.214844 131.355469 126.921875 131.027344 126.890625 C 130.699219 126.855469 130.40625 127.09375 130.375 127.421875 C 130.339844 127.746094 130.578125 128.039062 130.90625 128.074219 M 133.253906 128.359375 C 133.582031 128.402344 133.878906 128.171875 133.921875 127.847656 C 133.964844 127.519531 133.738281 127.222656 133.410156 127.175781 C 133.085938 127.132812 132.785156 127.363281 132.742188 127.6875 C 132.699219 128.015625 132.925781 128.316406 133.253906 128.359375 M 135.621094 128.671875 C 135.949219 128.710938 136.246094 128.480469 136.285156 128.152344 C 136.328125 127.828125 136.097656 127.53125 135.769531 127.488281 C 135.441406 127.449219 135.144531 127.679688 135.105469 128.003906 C 135.0625 128.332031 135.292969 128.628906 135.621094 128.671875 M 138.019531 128.917969 C 138.347656 128.945312 138.636719 128.699219 138.660156 128.371094 C 138.683594 128.042969 138.4375 127.757812 138.109375 127.730469 C 137.78125 127.707031 137.496094 127.953125 137.472656 128.28125 C 137.445312 128.609375 137.691406 128.894531 138.019531 128.917969 M 140.425781 129.023438 C 140.753906 129.035156 141.03125 128.78125 141.042969 128.449219 C 141.054688 128.121094 140.796875 127.847656 140.46875 127.835938 C 140.46875 127.835938 140.46875 127.835938 140.464844 127.835938 C 140.136719 127.824219 139.863281 128.078125 139.851562 128.40625 C 139.839844 128.738281 140.09375 129.011719 140.425781 129.023438 M 142.804688 129.117188 C 143.132812 129.132812 143.410156 128.875 143.421875 128.546875 C 143.4375 128.21875 143.179688 127.941406 142.851562 127.929688 C 142.519531 127.917969 142.246094 128.171875 142.230469 128.5 C 142.21875 128.828125 142.476562 129.105469 142.804688 129.117188 M 145.199219 129.1875 C 145.203125 129.1875 145.203125 129.1875 145.203125 129.1875 C 145.53125 129.191406 145.800781 128.929688 145.804688 128.601562 C 145.808594 128.269531 145.546875 128 145.21875 127.996094 C 144.886719 127.992188 144.617188 128.253906 144.613281 128.582031 C 144.609375 128.914062 144.871094 129.183594 145.199219 129.1875 M 147.589844 129.199219 C 147.917969 129.203125 148.1875 128.9375 148.1875 128.605469 C 148.1875 128.277344 147.921875 128.011719 147.59375 128.007812 C 147.265625 128.007812 146.996094 128.273438 146.996094 128.601562 C 146.996094 128.929688 147.257812 129.199219 147.589844 129.199219 M 149.996094 129.179688 C 149.996094 129.179688 149.996094 129.179688 150 129.179688 C 150.328125 129.167969 150.582031 128.890625 150.570312 128.5625 C 150.558594 128.234375 150.28125 127.976562 149.953125 127.988281 C 149.625 128 149.367188 128.277344 149.378906 128.605469 C 149.390625 128.933594 149.667969 129.191406 149.996094 129.179688 M 152.398438 129.019531 C 152.726562 128.992188 152.972656 128.707031 152.949219 128.378906 C 152.921875 128.050781 152.636719 127.804688 152.308594 127.832031 C 151.980469 127.855469 151.734375 128.144531 151.757812 128.472656 C 151.785156 128.800781 152.070312 129.042969 152.398438 129.019531 M 154.707031 128.957031 C 155.035156 128.972656 155.3125 128.71875 155.328125 128.390625 C 155.34375 128.0625 155.089844 127.785156 154.761719 127.769531 C 154.433594 127.753906 154.152344 128.007812 154.136719 128.335938 C 154.125 128.664062 154.378906 128.941406 154.707031 128.957031 M 157.113281 129.046875 C 157.441406 129.050781 157.710938 128.785156 157.710938 128.453125 C 157.710938 128.125 157.445312 127.859375 157.117188 127.859375 C 156.789062 127.855469 156.519531 128.121094 156.519531 128.453125 C 156.519531 128.78125 156.785156 129.046875 157.113281 129.046875 M 159.457031 129.125 C 159.785156 129.148438 160.070312 128.898438 160.089844 128.570312 C 160.113281 128.242188 159.863281 127.960938 159.535156 127.9375 C 159.207031 127.914062 158.921875 128.164062 158.902344 128.492188 C 158.878906 128.820312 159.128906 129.105469 159.457031 129.125 "/>
</g>
</g>
<path style=" stroke:none;fill-rule:nonzero;fill:rgb(0%,45.097351%,23.136902%);fill-opacity:1;" d="M 153.695312 81.558594 C 153.6875 81.890625 153.410156 82.148438 153.082031 82.136719 C 152.753906 82.128906 152.496094 81.851562 152.503906 81.523438 L 152.507812 81.332031 C 152.507812 81.316406 152.558594 81.492188 152.535156 81.433594 C 152.523438 81.402344 152.632812 81.613281 152.597656 81.558594 L 152.675781 81.652344 C 152.640625 81.617188 152.886719 81.792969 152.820312 81.757812 C 152.757812 81.726562 153.128906 81.828125 153.046875 81.824219 C 152.964844 81.816406 153.339844 81.777344 153.273438 81.796875 C 153.207031 81.816406 153.464844 81.695312 153.425781 81.722656 C 153.351562 81.773438 153.59375 81.554688 153.566406 81.589844 C 153.519531 81.652344 153.648438 81.441406 153.636719 81.464844 C 153.605469 81.539062 153.664062 81.390625 153.660156 81.390625 L 153.65625 81.429688 C 153.570312 82.03125 153.613281 83.320312 153.625 84.800781 L 153.625 88.6875 L 153.734375 90.074219 C 153.753906 90.375 153.757812 90.6875 153.675781 90.996094 C 153.585938 91.351562 153.503906 91.304688 153.453125 91.359375 L 153.289062 91.519531 L 153.328125 91.46875 L 153.371094 91.382812 C 153.351562 91.421875 153.414062 91.105469 153.410156 91.195312 C 153.40625 91.238281 153.386719 90.996094 153.398438 91.050781 C 153.421875 91.160156 153.128906 90.648438 153.21875 90.734375 C 153.300781 90.808594 152.914062 90.582031 152.984375 90.601562 C 153.042969 90.617188 152.804688 90.578125 152.84375 90.578125 C 152.902344 90.582031 152.6875 90.59375 152.714844 90.589844 C 152.785156 90.574219 152.640625 90.613281 152.640625 90.609375 C 152.941406 90.476562 153.292969 90.613281 153.429688 90.914062 C 153.5625 91.214844 153.425781 91.566406 153.125 91.699219 L 152.859375 91.769531 C 152.765625 91.773438 152.566406 91.78125 152.378906 91.578125 C 152.199219 91.382812 152.210938 91.128906 152.238281 91.019531 C 152.320312 90.699219 152.390625 90.738281 152.429688 90.691406 L 152.585938 90.539062 L 152.617188 90.507812 L 152.597656 90.53125 L 152.570312 90.582031 C 152.582031 90.558594 152.507812 90.753906 152.523438 90.699219 L 152.546875 90.167969 L 152.433594 88.695312 L 152.433594 84.8125 C 152.421875 83.34375 152.359375 82.082031 152.476562 81.261719 L 152.507812 81.09375 L 152.5625 80.957031 L 152.6875 80.792969 C 152.777344 80.710938 152.976562 80.597656 153.207031 80.644531 C 153.621094 80.726562 153.636719 80.96875 153.660156 81.042969 C 153.769531 81.359375 153.703125 81.363281 153.695312 81.558594 M 162.015625 82.144531 C 161.914062 82.457031 161.574219 82.625 161.265625 82.523438 C 160.953125 82.417969 160.78125 82.082031 160.886719 81.769531 L 160.902344 81.714844 C 160.902344 81.691406 160.996094 81.96875 160.953125 81.886719 C 160.910156 81.8125 161.203125 82.097656 161.136719 82.0625 C 161.082031 82.035156 161.277344 82.101562 161.253906 82.097656 C 161.207031 82.09375 160.789062 82.25 160.207031 82.582031 L 158.660156 83.574219 C 157.644531 84.355469 157.453125 85.109375 157.59375 85.746094 C 157.824219 86.761719 158.410156 87.511719 159.125 87.835938 C 159.953125 88.214844 161.59375 88.085938 162.078125 87.761719 C 162.351562 87.578125 162.722656 87.652344 162.90625 87.925781 C 163.089844 88.199219 163.015625 88.566406 162.742188 88.75 C 161.683594 89.457031 159.9375 89.515625 158.632812 88.921875 C 157.535156 88.421875 156.730469 87.332031 156.433594 86.007812 C 156.191406 84.929688 156.648438 83.621094 157.9375 82.628906 C 158.480469 82.210938 159.085938 81.851562 159.617188 81.550781 C 160.160156 81.238281 160.617188 80.992188 161.085938 80.921875 C 161.328125 80.886719 161.71875 80.90625 161.953125 81.242188 C 162.179688 81.570312 162.101562 81.890625 162.015625 82.144531 M 150.175781 92.054688 C 150.460938 91.890625 150.824219 91.988281 150.988281 92.269531 C 151.152344 92.554688 151.058594 92.917969 150.773438 93.085938 C 150.394531 93.304688 150.09375 93.234375 149.808594 93.078125 C 149.488281 92.902344 149.433594 92.488281 149.496094 92.277344 C 149.554688 92.078125 149.675781 91.933594 149.832031 91.828125 C 150.28125 91.519531 150.523438 91.6875 150.632812 91.6875 L 152.753906 91.832031 C 153.136719 91.867188 153.78125 91.816406 154.332031 91.6875 L 154.980469 91.46875 L 155.089844 91.394531 C 155.09375 91.390625 155.039062 91.558594 155.050781 91.492188 C 155.105469 91.167969 155.410156 90.949219 155.734375 91.003906 C 156.058594 91.058594 156.28125 91.363281 156.226562 91.6875 C 156.152344 92.125 155.832031 92.363281 155.546875 92.515625 C 154.6875 92.980469 153.507812 93.09375 152.648438 93.019531 L 150.644531 92.878906 L 150.375 92.871094 L 150.359375 92.871094 C 150.339844 92.875 150.578125 92.757812 150.503906 92.808594 C 150.453125 92.84375 150.667969 92.511719 150.636719 92.621094 C 150.617188 92.679688 150.609375 92.246094 150.640625 92.359375 C 150.65625 92.421875 150.503906 92.117188 150.550781 92.175781 C 150.59375 92.238281 150.320312 92 150.382812 92.035156 L 150.320312 92.011719 L 150.28125 92.015625 C 150.304688 92.011719 150.128906 92.082031 150.175781 92.054688 M 150.378906 80.699219 C 150.570312 80.964844 150.515625 81.339844 150.25 81.53125 C 149.984375 81.726562 149.609375 81.667969 149.417969 81.40625 C 149.183594 81.085938 149.078125 80.546875 149.339844 80.199219 C 149.585938 79.878906 149.894531 79.808594 150.160156 79.746094 C 150.761719 79.605469 152.035156 79.425781 153.40625 79.320312 L 155.359375 79.265625 C 155.933594 79.289062 156.425781 79.289062 156.855469 79.652344 C 157.105469 79.867188 157.136719 80.242188 156.925781 80.492188 C 156.710938 80.742188 156.335938 80.773438 156.085938 80.5625 C 156.058594 80.539062 154.804688 80.40625 153.496094 80.507812 C 152.179688 80.605469 150.894531 80.796875 150.433594 80.90625 L 150.257812 80.960938 C 150.222656 80.988281 150.351562 80.621094 150.355469 80.710938 L 150.34375 80.648438 Z M 150.804688 140.273438 C 150.890625 139.957031 151.214844 139.765625 151.535156 139.851562 C 151.851562 139.933594 152.042969 140.261719 151.957031 140.578125 C 151.914062 140.738281 151.898438 140.992188 151.96875 141.460938 C 152.066406 142.097656 152.300781 143.09375 152.335938 144.027344 L 152.335938 145.078125 L 152.296875 145.457031 L 152.269531 145.585938 L 152.234375 145.691406 C 152.214844 145.726562 152.277344 145.808594 151.972656 145.972656 C 151.773438 146.078125 151.324219 145.964844 151.203125 145.792969 L 151.097656 145.53125 C 151.058594 145.238281 151.136719 145.035156 151.171875 144.910156 L 151.199219 144.816406 L 151.199219 144.847656 L 151.214844 144.949219 C 151.113281 144.636719 151.28125 144.300781 151.59375 144.195312 C 151.902344 144.089844 152.242188 144.257812 152.34375 144.570312 C 152.457031 144.90625 152.355469 145.117188 152.316406 145.25 L 152.277344 145.367188 L 152.257812 145.277344 C 152.269531 145.316406 152.125 145.035156 152.175781 145.109375 C 152.230469 145.1875 151.695312 144.832031 151.855469 144.878906 C 152.015625 144.925781 151.332031 144.957031 151.433594 144.910156 C 151.523438 144.867188 151.226562 145.070312 151.261719 145.035156 C 151.320312 144.972656 151.152344 145.1875 151.167969 145.160156 L 151.132812 145.238281 C 151.160156 145.167969 151.121094 145.269531 151.128906 145.226562 L 151.148438 145.027344 L 151.148438 144.078125 C 151.117188 143.300781 150.898438 142.34375 150.792969 141.636719 C 150.707031 141.074219 150.710938 140.636719 150.804688 140.273438 M 151.65625 140.71875 C 151.855469 140.980469 151.804688 141.351562 151.542969 141.550781 C 151.28125 141.75 150.910156 141.703125 150.710938 141.441406 C 149.839844 140.300781 150.421875 138.714844 151.1875 137.527344 C 151.742188 136.664062 152.398438 136.042969 153.148438 135.738281 L 154.121094 135.484375 L 154.601562 135.457031 C 154.679688 135.460938 154.925781 135.402344 155.265625 135.5 C 155.597656 135.601562 155.796875 135.789062 155.953125 135.914062 C 156.671875 136.484375 157.035156 137.3125 157.117188 138.074219 C 157.183594 138.691406 156.859375 139.226562 156.464844 139.621094 C 155.867188 140.21875 155.050781 140.636719 154.28125 140.949219 C 153.539062 141.25 152.972656 141.460938 152.457031 141.4375 C 152.128906 141.417969 151.875 141.140625 151.890625 140.8125 C 151.90625 140.484375 152.1875 140.230469 152.515625 140.246094 C 152.558594 140.25 153.621094 139.992188 154.511719 139.535156 C 154.953125 139.308594 155.359375 139.042969 155.621094 138.78125 C 155.871094 138.53125 155.945312 138.335938 155.933594 138.203125 C 155.882812 137.726562 155.636719 137.179688 155.210938 136.84375 L 154.925781 136.644531 L 154.570312 136.648438 L 154.292969 136.660156 L 153.597656 136.839844 C 153.132812 137.03125 152.652344 137.453125 152.1875 138.171875 C 151.550781 139.160156 151.320312 140.28125 151.65625 140.71875 M 160.789062 138.554688 C 160.699219 138.871094 160.371094 139.054688 160.054688 138.964844 C 159.738281 138.875 159.554688 138.546875 159.644531 138.230469 C 159.667969 138.15625 159.726562 138.261719 159.683594 138.21875 L 159.777344 138.269531 L 159.800781 138.273438 C 159.761719 138.289062 158.988281 139.035156 158.375 139.925781 C 158.019531 140.441406 157.738281 141.023438 157.609375 141.574219 C 157.101562 143.796875 159.191406 144.597656 160.226562 144.3125 C 160.542969 144.226562 160.871094 144.414062 160.957031 144.730469 C 161.042969 145.050781 160.855469 145.375 160.539062 145.460938 C 159.640625 145.707031 158.511719 145.519531 157.605469 144.859375 C 156.683594 144.183594 156.09375 142.875 156.449219 141.308594 C 156.617188 140.566406 156.96875 139.867188 157.394531 139.253906 C 158.058594 138.285156 158.613281 137.457031 159.367188 137.164062 C 159.765625 137.007812 160.265625 137.09375 160.554688 137.402344 C 160.839844 137.710938 160.902344 138.15625 160.789062 138.554688 M 162.671875 140.765625 C 162.816406 140.46875 163.171875 140.34375 163.46875 140.488281 C 163.765625 140.632812 163.886719 140.988281 163.746094 141.285156 L 163.695312 141.953125 C 163.691406 142.394531 163.792969 143.152344 163.960938 143.722656 L 164.167969 144.386719 C 164.175781 144.398438 164.011719 144.246094 164.066406 144.285156 C 164.113281 144.320312 163.773438 144.179688 163.863281 144.199219 C 163.929688 144.210938 163.582031 144.210938 163.652344 144.199219 C 163.75 144.179688 163.390625 144.332031 163.433594 144.296875 L 163.363281 144.371094 L 163.367188 144.339844 L 163.539062 143.269531 L 163.847656 139.625 C 163.910156 139.125 163.972656 138.632812 164.277344 138.195312 C 164.78125 137.480469 165.632812 137.292969 166.394531 137.21875 C 167.226562 137.144531 168.132812 137.074219 168.886719 137.207031 C 169.765625 137.363281 170.300781 138.1875 170.230469 138.917969 C 170.203125 139.210938 170.105469 139.496094 169.953125 139.761719 C 169.640625 140.289062 169.128906 140.59375 168.582031 140.917969 L 167.097656 141.679688 L 166.472656 142.019531 L 166.25 142.164062 L 166.300781 142.082031 C 166.28125 142.117188 166.359375 141.878906 166.347656 141.941406 C 166.328125 142.050781 166.238281 141.488281 166.292969 141.585938 C 166.332031 141.660156 166.140625 141.414062 166.175781 141.441406 C 166.222656 141.480469 166.089844 141.382812 166.097656 141.386719 L 166.121094 141.398438 C 166.5 141.515625 167.761719 141.414062 168.929688 141.519531 C 170.019531 141.617188 170.855469 141.855469 171.417969 142.3125 C 171.972656 142.765625 172.171875 143.550781 171.929688 144.1875 C 171.535156 145.242188 170.488281 145.914062 169.375 146.378906 C 168.347656 146.808594 167.402344 147.070312 166.652344 147.054688 C 166.289062 147.050781 165.800781 146.996094 165.59375 146.480469 C 165.386719 145.96875 165.695312 145.574219 165.996094 145.253906 C 166.222656 145.015625 166.601562 145.007812 166.839844 145.234375 C 167.078125 145.460938 167.089844 145.835938 166.863281 146.074219 L 166.714844 146.265625 L 166.722656 146.226562 C 166.71875 146.257812 166.707031 146.046875 166.71875 146.097656 C 166.738281 146.199219 166.519531 145.839844 166.570312 145.871094 L 166.535156 145.851562 C 166.78125 145.910156 167.828125 145.734375 168.917969 145.277344 C 169.875 144.878906 170.609375 144.316406 170.816406 143.769531 C 170.910156 143.519531 170.894531 143.421875 170.667969 143.238281 C 170.394531 143.015625 169.773438 142.792969 168.820312 142.707031 C 167.808594 142.613281 166.640625 142.8125 165.761719 142.53125 L 165.390625 142.335938 C 165.261719 142.21875 165.132812 141.933594 165.183594 141.703125 C 165.3125 141.117188 165.59375 141.164062 165.84375 141.007812 L 166.558594 140.617188 L 167.976562 139.894531 C 168.484375 139.59375 168.816406 139.339844 168.925781 139.160156 L 169.042969 138.804688 C 169.066406 138.578125 169.027344 138.441406 168.679688 138.378906 C 168.160156 138.289062 167.304688 138.332031 166.503906 138.40625 C 165.867188 138.464844 165.441406 138.609375 165.253906 138.878906 C 165.152344 139.019531 165.085938 139.308594 165.03125 139.769531 C 164.90625 140.792969 164.882812 142.179688 164.71875 143.421875 C 164.640625 144.03125 164.699219 144.570312 164.320312 145.078125 C 164.203125 145.234375 163.792969 145.46875 163.46875 145.3125 C 163.054688 145.109375 163.078125 144.882812 163.011719 144.699219 L 162.816406 144.054688 C 162.609375 143.347656 162.5 142.546875 162.503906 141.945312 C 162.503906 141.425781 162.515625 141.089844 162.671875 140.765625 M 118.085938 104.691406 C 118.128906 104.367188 118.429688 104.136719 118.757812 104.183594 C 119.082031 104.226562 119.308594 104.527344 119.265625 104.855469 L 119.339844 106.429688 L 119.386719 108.550781 L 119.386719 109.296875 L 119.390625 109.722656 L 119.382812 109.679688 L 119.371094 109.625 C 119.375 109.652344 119.300781 109.46875 119.324219 109.519531 C 119.355469 109.574219 118.949219 109.195312 119.101562 109.285156 C 119.265625 109.378906 118.34375 109.371094 118.496094 109.28125 C 118.628906 109.207031 118.261719 109.535156 118.289062 109.484375 C 118.339844 109.40625 118.222656 109.652344 118.226562 109.628906 C 118.25 109.554688 118.210938 109.703125 118.210938 109.703125 L 118.222656 109.558594 C 118.28125 108.875 118.308594 107.757812 118.507812 106.226562 C 118.644531 105.210938 118.859375 103.910156 119.320312 102.71875 C 120.199219 100.445312 122.308594 99.441406 123.859375 100.128906 C 124.582031 100.449219 125.0625 101.144531 125.234375 101.933594 C 125.398438 102.6875 125.324219 103.691406 124.71875 104.722656 C 124.289062 105.457031 123.664062 106.15625 122.988281 106.789062 C 122.441406 107.300781 121.851562 107.730469 121.296875 108.078125 C 120.585938 108.527344 119.96875 108.769531 119.421875 108.792969 C 118.886719 108.820312 118.347656 108.5625 118.136719 108.113281 C 117.933594 107.679688 117.972656 107.21875 118.113281 106.8125 C 118.335938 106.179688 118.917969 105.675781 119.488281 105.796875 C 120.023438 105.910156 120.324219 106.292969 120.574219 106.648438 C 121.152344 107.472656 121.746094 108.382812 122.371094 109.023438 C 122.960938 109.628906 123.464844 109.875 123.894531 109.726562 C 124.203125 109.617188 124.542969 109.78125 124.652344 110.09375 C 124.761719 110.402344 124.597656 110.742188 124.285156 110.851562 C 123.246094 111.214844 122.246094 110.601562 121.515625 109.851562 C 120.777344 109.09375 120.164062 108.136719 119.601562 107.332031 L 119.242188 106.964844 L 119.375 106.933594 L 119.238281 107.207031 L 119.214844 107.605469 L 119.367188 107.605469 C 119.613281 107.59375 120.0625 107.449219 120.664062 107.070312 C 121.160156 106.757812 121.695312 106.367188 122.171875 105.917969 C 122.792969 105.339844 123.34375 104.707031 123.691406 104.117188 C 124.148438 103.339844 124.179688 102.675781 124.070312 102.1875 C 123.964844 101.695312 123.703125 101.363281 123.375 101.214844 C 122.535156 100.84375 121.132812 101.335938 120.433594 103.148438 C 120.03125 104.1875 119.816406 105.414062 119.691406 106.378906 C 119.496094 107.851562 119.472656 108.917969 119.410156 109.65625 L 119.398438 109.824219 L 119.386719 109.898438 L 119.359375 109.996094 L 119.273438 110.15625 C 119.203125 110.25 118.953125 110.453125 118.644531 110.371094 C 118.367188 110.296875 118.300781 110.132812 118.265625 110.0625 C 118.101562 109.734375 118.203125 109.820312 118.199219 109.785156 L 118.195312 109.300781 L 118.195312 108.542969 L 118.152344 106.507812 C 118.101562 105.75 118.015625 105.203125 118.085938 104.691406 M 125.429688 108.199219 C 125.53125 108.511719 125.355469 108.847656 125.042969 108.945312 C 124.730469 109.046875 124.394531 108.875 124.296875 108.558594 C 124.15625 108.117188 124.464844 107.550781 124.808594 107.390625 C 125.136719 107.238281 125.453125 107.226562 125.746094 107.21875 C 125.921875 107.214844 126.179688 107.152344 126.53125 107.234375 C 126.757812 107.289062 127.175781 107.398438 127.40625 107.804688 C 127.734375 108.382812 127.597656 109.050781 127.339844 109.605469 C 127.078125 110.160156 126.679688 110.679688 126.246094 111.15625 C 125.761719 111.691406 125.316406 112.082031 124.972656 112.355469 L 124.726562 112.546875 L 124.691406 112.566406 C 124.65625 112.617188 124.773438 112.25 124.769531 112.34375 C 124.765625 112.421875 124.710938 112.09375 124.734375 112.140625 L 124.6875 112.066406 L 125.289062 112.347656 C 126.277344 112.722656 127.476562 112.816406 127.742188 112.695312 C 128.039062 112.554688 128.394531 112.683594 128.535156 112.980469 C 128.671875 113.28125 128.542969 113.632812 128.246094 113.773438 C 127.296875 114.214844 126.03125 113.902344 124.867188 113.460938 L 124.03125 113.058594 C 123.902344 112.972656 123.765625 112.867188 123.664062 112.667969 C 123.554688 112.453125 123.570312 112.09375 123.71875 111.878906 C 123.902344 111.621094 124.074219 111.550781 124.234375 111.425781 L 125.363281 110.359375 C 125.746094 109.9375 126.078125 109.488281 126.261719 109.097656 C 126.429688 108.734375 126.429688 108.5 126.367188 108.390625 L 126.414062 108.4375 L 126.257812 108.394531 L 125.773438 108.410156 L 125.3125 108.46875 Z M 125.429688 108.199219 "/>
<path style=" stroke:none;fill-rule:nonzero;fill:rgb(92.941284%,21.176147%,14.117432%);fill-opacity:1;" d="M 16.890625 19.453125 C 17.09375 19.371094 17.324219 19.472656 17.40625 19.675781 C 17.488281 19.878906 17.386719 20.109375 17.183594 20.191406 C 16.816406 20.335938 16.351562 20.238281 16.148438 19.929688 C 15.945312 19.628906 15.941406 19.265625 16.011719 18.894531 C 16.242188 17.726562 17.261719 16.074219 17.878906 14.457031 C 18.5625 12.675781 18.859375 11.25 19.707031 10.492188 C 20.230469 10.023438 20.976562 9.953125 21.652344 10.070312 C 22.058594 10.140625 22.40625 10.351562 22.671875 10.53125 C 23.269531 10.929688 23.820312 11.484375 24.378906 12.523438 L 25.5 14.8125 C 25.835938 15.4375 26.335938 16.21875 26.738281 17.347656 L 27.3125 19.0625 C 27.683594 20.011719 28.195312 20.644531 28.652344 21.15625 C 29.46875 22.0625 30.214844 23.109375 31.023438 23.539062 C 31.96875 24.039062 33.070312 23.835938 34.085938 23.046875 C 35.15625 22.214844 35.394531 21.355469 35.363281 20.035156 L 35.347656 18.207031 L 35.457031 17.171875 L 35.578125 16.761719 C 35.628906 16.640625 35.640625 16.457031 35.953125 16.375 C 36.164062 16.320312 36.382812 16.445312 36.4375 16.65625 C 36.492188 16.871094 36.367188 17.085938 36.15625 17.144531 C 36.089844 17.160156 36.3125 17.050781 36.289062 17.074219 L 36.324219 17.035156 C 36.316406 17.046875 36.144531 17.691406 36.140625 18.210938 L 36.160156 20.015625 C 36.191406 21.460938 35.824219 22.699219 34.574219 23.671875 C 33.382812 24.597656 31.898438 24.902344 30.652344 24.238281 C 29.59375 23.675781 28.839844 22.554688 28.0625 21.683594 C 27.578125 21.148438 26.988281 20.421875 26.574219 19.351562 L 25.992188 17.617188 C 25.617188 16.566406 25.15625 15.847656 24.800781 15.1875 L 23.675781 12.898438 C 23.164062 11.941406 22.75 11.535156 22.234375 11.191406 C 22.003906 11.039062 21.722656 10.890625 21.515625 10.851562 C 20.996094 10.761719 20.507812 10.84375 20.234375 11.085938 C 19.976562 11.316406 19.738281 11.757812 19.492188 12.371094 L 18.621094 14.738281 C 17.972656 16.4375 16.964844 18.160156 16.792969 19.046875 C 16.746094 19.285156 16.785156 19.457031 16.804688 19.488281 C 16.8125 19.496094 16.753906 19.507812 16.890625 19.453125 M 130.628906 18.785156 C 130.8125 18.90625 130.863281 19.152344 130.738281 19.335938 C 130.617188 19.515625 130.371094 19.566406 130.191406 19.445312 L 130.109375 19.402344 L 130.277344 19.3125 L 130.304688 19.710938 C 130.675781 21.164062 132.253906 22.917969 133.476562 24.277344 C 134.046875 24.910156 134.523438 25.367188 135.019531 25.476562 C 135.90625 25.664062 136.933594 24.972656 137.53125 23.988281 C 138.050781 23.136719 138.207031 21.957031 138.363281 20.542969 C 138.449219 19.75 138.675781 18.972656 138.957031 18.058594 C 139.21875 17.214844 139.558594 16.066406 139.945312 15.070312 C 140.242188 14.304688 140.578125 13.773438 140.921875 13.402344 C 141.253906 13.046875 141.585938 12.832031 141.855469 12.632812 C 142.183594 12.382812 142.585938 11.949219 142.875 11.488281 L 143.265625 10.804688 L 143.585938 10.46875 C 144.113281 10.144531 144.746094 10.214844 145.246094 10.492188 C 145.75 10.769531 146.179688 11.226562 146.558594 11.734375 C 147.175781 12.566406 147.707031 13.863281 148.003906 15.277344 C 148.335938 16.898438 148.960938 17.820312 150.230469 18.699219 L 152.386719 20.074219 L 153.1875 20.667969 C 153.398438 20.863281 153.601562 21.082031 153.605469 21.410156 C 153.613281 21.628906 153.4375 21.8125 153.21875 21.816406 C 153 21.820312 152.816406 21.648438 152.8125 21.429688 L 152.800781 21.421875 C 152.542969 21.03125 151.121094 20.277344 149.78125 19.351562 C 148.386719 18.390625 147.589844 17.203125 147.222656 15.441406 C 146.953125 14.125 146.433594 12.902344 145.917969 12.207031 C 145.585938 11.753906 145.210938 11.378906 144.859375 11.1875 C 144.53125 11.003906 144.269531 10.980469 144.003906 11.144531 L 143.925781 11.246094 L 143.550781 11.910156 C 143.207031 12.457031 142.761719 12.945312 142.328125 13.269531 C 141.753906 13.699219 141.207031 14.019531 140.683594 15.359375 C 140.316406 16.308594 139.980469 17.445312 139.71875 18.292969 C 139.4375 19.199219 139.226562 19.925781 139.152344 20.625 C 138.996094 22.058594 138.847656 23.351562 138.210938 24.402344 C 137.492188 25.578125 136.203125 26.542969 134.855469 26.25 C 134.050781 26.078125 133.476562 25.464844 132.886719 24.808594 C 131.660156 23.445312 129.992188 21.6875 129.535156 19.90625 C 129.453125 19.574219 129.410156 19.25 129.574219 18.941406 C 129.664062 18.777344 129.859375 18.625 130.074219 18.609375 C 130.285156 18.59375 130.464844 18.675781 130.628906 18.785156 "/>
<path style=" stroke:none;fill-rule:nonzero;fill:rgb(0%,45.097351%,23.136902%);fill-opacity:1;" d="M 83.570312 14.152344 C 83.578125 14.480469 83.316406 14.753906 82.988281 14.761719 C 82.660156 14.769531 82.386719 14.507812 82.378906 14.179688 L 82.371094 13.761719 L 82.371094 13.648438 L 82.402344 13.5 C 82.472656 13.289062 83.527344 13.46875 83.546875 13.542969 C 83.601562 13.769531 83.5625 13.679688 83.566406 13.714844 L 83.59375 14.371094 L 83.664062 16.925781 L 83.664062 18.335938 L 83.667969 18.785156 L 83.667969 18.8125 L 83.660156 18.773438 C 83.667969 18.796875 83.578125 18.585938 83.613281 18.648438 L 83.554688 18.558594 C 83.578125 18.589844 83.410156 18.429688 83.453125 18.460938 C 83.53125 18.523438 83.003906 18.335938 83.128906 18.339844 C 83.222656 18.347656 82.820312 18.40625 82.886719 18.378906 C 82.976562 18.34375 82.660156 18.53125 82.699219 18.496094 L 82.632812 18.574219 C 82.855469 18.261719 83.085938 16.65625 83.617188 15.292969 C 84.1875 13.828125 85.339844 12.792969 86.699219 12.472656 L 87.890625 12.269531 C 88.230469 12.253906 88.71875 12.257812 88.953125 12.757812 C 89.144531 13.167969 88.992188 13.5 88.851562 13.785156 C 88.414062 14.675781 87.410156 15.707031 86.171875 16.699219 C 85.210938 17.472656 84.117188 18.152344 83.246094 18.507812 C 82.886719 18.65625 82.601562 18.730469 82.316406 18.710938 C 82.167969 18.699219 81.957031 18.6875 81.765625 18.421875 C 81.554688 18.128906 81.722656 17.695312 81.875 17.558594 C 82.21875 17.253906 82.433594 17.308594 82.664062 17.261719 C 83.847656 17.003906 84.941406 17.613281 85.929688 18.132812 C 86.898438 18.644531 87.78125 19.074219 88.4375 18.972656 C 88.761719 18.921875 89.066406 19.140625 89.117188 19.46875 C 89.167969 19.792969 88.945312 20.097656 88.621094 20.148438 C 87.429688 20.332031 86.351562 19.707031 85.371094 19.1875 C 84.410156 18.679688 83.542969 18.289062 82.914062 18.425781 L 82.632812 18.488281 L 82.578125 18.507812 C 82.578125 18.507812 82.722656 18.398438 82.664062 18.449219 L 82.742188 18.363281 C 82.714844 18.398438 82.832031 18.144531 82.816406 18.210938 C 82.796875 18.269531 82.828125 17.921875 82.835938 18 C 82.84375 18.070312 82.746094 17.738281 82.777344 17.796875 C 82.832031 17.90625 82.523438 17.546875 82.582031 17.585938 C 82.632812 17.617188 82.4375 17.523438 82.464844 17.535156 L 82.402344 17.523438 L 82.792969 17.40625 C 83.5 17.117188 84.550781 16.472656 85.425781 15.769531 C 86.195312 15.15625 86.863281 14.5 87.324219 13.933594 L 87.785156 13.261719 L 87.839844 13.113281 L 87.839844 13.140625 C 87.839844 13.117188 87.894531 13.308594 87.871094 13.257812 C 87.839844 13.191406 88.046875 13.453125 88.003906 13.417969 L 88.082031 13.460938 L 86.972656 13.632812 C 86.007812 13.859375 85.175781 14.582031 84.726562 15.726562 C 84.273438 16.890625 84.242188 18.375 83.597656 19.269531 C 83.542969 19.347656 83.414062 19.574219 83.027344 19.527344 C 82.679688 19.488281 82.570312 19.238281 82.53125 19.144531 C 82.363281 18.714844 82.476562 18.628906 82.472656 18.339844 L 82.472656 16.921875 L 82.402344 14.421875 L 82.375 13.742188 L 82.375 13.761719 L 82.386719 13.816406 C 82.378906 13.777344 84.046875 14.109375 83.066406 14.273438 C 82.214844 14.417969 83.5625 13.742188 83.554688 13.78125 C 83.546875 13.835938 83.5625 13.703125 83.5625 13.710938 Z M 90.585938 17.636719 C 90.582031 17.964844 90.3125 18.230469 89.984375 18.226562 C 89.652344 18.222656 89.390625 17.953125 89.394531 17.625 L 89.394531 17.0625 C 89.398438 17.03125 89.316406 17.027344 89.5 16.761719 C 89.558594 16.675781 89.695312 16.53125 89.933594 16.503906 C 90.167969 16.480469 90.339844 16.601562 90.414062 16.675781 C 90.636719 16.902344 90.566406 16.925781 90.574219 16.960938 L 90.699219 18.070312 C 90.828125 19.449219 90.746094 20.605469 90.773438 21.503906 C 90.78125 21.832031 90.523438 22.105469 90.195312 22.113281 C 89.867188 22.125 89.589844 21.867188 89.582031 21.539062 C 89.554688 20.558594 89.632812 19.457031 89.511719 18.179688 L 89.433594 17.390625 L 89.414062 17.226562 L 89.425781 17.273438 L 89.457031 17.359375 L 89.511719 17.445312 C 89.453125 17.367188 90.398438 17.648438 90.066406 17.6875 C 89.777344 17.726562 90.558594 17.300781 90.515625 17.382812 C 90.480469 17.449219 90.574219 17.226562 90.566406 17.253906 C 90.542969 17.335938 90.585938 17.132812 90.585938 17.144531 Z M 75.339844 79.839844 C 75.660156 79.914062 75.859375 80.234375 75.785156 80.554688 C 75.714844 80.875 75.394531 81.074219 75.074219 81 L 74.378906 80.8125 L 74.070312 80.660156 C 73.992188 80.601562 73.773438 80.460938 73.816406 80.085938 C 73.863281 79.703125 74.144531 79.605469 74.25 79.570312 C 74.765625 79.402344 75.101562 79.5625 75.515625 79.597656 C 77.242188 79.738281 79.824219 79.820312 80.484375 79.636719 C 80.800781 79.546875 81.128906 79.730469 81.21875 80.046875 C 81.304688 80.363281 81.121094 80.691406 80.804688 80.78125 C 80.222656 80.945312 79.386719 80.9375 78.386719 80.925781 L 75.417969 80.78125 L 74.796875 80.722656 L 74.601562 80.714844 C 74.566406 80.714844 74.683594 80.683594 74.617188 80.703125 C 74.582031 80.714844 74.855469 80.558594 74.78125 80.617188 C 74.742188 80.648438 74.941406 80.429688 74.902344 80.488281 C 74.863281 80.546875 75.007812 80.1875 74.992188 80.269531 C 74.976562 80.351562 74.976562 79.96875 74.992188 80.039062 C 75.003906 80.101562 74.90625 79.835938 74.929688 79.875 C 74.972656 79.953125 74.789062 79.707031 74.816406 79.734375 C 74.867188 79.777344 74.722656 79.667969 74.734375 79.671875 Z M 87.839844 77.183594 C 87.785156 77.507812 87.472656 77.722656 87.148438 77.664062 C 86.828125 77.605469 86.609375 77.296875 86.667969 76.972656 L 86.683594 76.859375 C 86.671875 76.824219 86.839844 77.007812 86.792969 76.980469 L 86.84375 77 L 86.316406 77.164062 C 85.574219 77.519531 84.082031 78.59375 83.242188 79.484375 L 82.894531 79.9375 L 82.875 79.957031 L 82.828125 79.828125 L 82.851562 79.824219 L 83.195312 79.902344 C 84.328125 80.054688 85.589844 79.78125 86.507812 79.4375 L 87.34375 79 L 87.535156 78.699219 L 87.492188 78.582031 C 87.488281 78.578125 87.621094 78.683594 87.566406 78.648438 C 87.515625 78.617188 87.859375 78.707031 87.777344 78.707031 C 87.710938 78.707031 88 78.648438 87.957031 78.667969 L 88.027344 78.621094 L 88.007812 78.699219 L 87.988281 79.027344 L 88.214844 79.996094 C 88.519531 81.238281 88.875 83.367188 88.914062 85.171875 C 88.953125 86.964844 88.40625 88.285156 87.292969 88.628906 C 86.007812 89.019531 84.84375 88.03125 84.140625 86.972656 C 83.4375 85.917969 82.910156 84.703125 83.410156 83.714844 C 83.554688 83.421875 83.914062 83.300781 84.207031 83.449219 C 84.503906 83.597656 84.621094 83.957031 84.472656 84.25 C 84.390625 84.410156 84.566406 85.464844 85.132812 86.3125 C 85.691406 87.152344 86.441406 87.640625 86.941406 87.488281 C 87.171875 87.417969 87.339844 87.28125 87.484375 86.953125 C 87.644531 86.589844 87.742188 86.003906 87.722656 85.199219 C 87.6875 83.53125 87.335938 81.421875 87.058594 80.28125 L 86.808594 79.175781 C 86.75 78.703125 86.828125 78.269531 87.070312 77.921875 C 87.195312 77.742188 87.398438 77.542969 87.722656 77.519531 C 88.054688 77.492188 88.34375 77.710938 88.484375 77.925781 C 88.636719 78.15625 88.765625 78.460938 88.71875 78.851562 C 88.652344 79.363281 88.363281 79.699219 88.113281 79.910156 C 87.789062 80.183594 87.382812 80.382812 86.921875 80.554688 C 85.871094 80.949219 84.453125 81.277344 83.035156 81.082031 C 82.53125 81.011719 81.941406 80.886719 81.734375 80.285156 C 81.527344 79.679688 81.902344 79.171875 82.375 78.667969 C 83.355469 77.628906 84.832031 76.558594 85.800781 76.089844 C 86.257812 75.871094 86.703125 75.707031 87.1875 75.859375 C 87.703125 76.023438 87.933594 76.679688 87.839844 77.183594 M 91.398438 77.28125 C 91.503906 77.59375 91.339844 77.933594 91.027344 78.039062 C 90.714844 78.144531 90.378906 77.980469 90.269531 77.667969 C 90.265625 77.65625 90.332031 77.765625 90.296875 77.714844 L 90.371094 77.800781 C 90.335938 77.769531 90.601562 77.933594 90.527344 77.902344 C 90.460938 77.875 90.851562 77.949219 90.765625 77.949219 C 90.6875 77.953125 91.042969 77.878906 90.980469 77.90625 C 90.875 77.949219 91.226562 77.707031 91.1875 77.753906 C 91.132812 77.816406 91.273438 77.605469 91.261719 77.628906 L 91.273438 77.605469 C 91.164062 78.03125 91.253906 79.28125 91.464844 80.300781 C 91.570312 80.796875 91.664062 81.199219 91.777344 81.40625 L 91.882812 81.527344 L 91.808594 81.527344 C 91.882812 81.519531 91.636719 81.59375 91.664062 81.578125 L 92.804688 79.195312 L 93.371094 77.828125 L 93.628906 77.304688 C 93.914062 76.921875 94.5625 76.847656 94.910156 77.199219 C 95.351562 77.652344 95.277344 78.191406 95.253906 78.640625 L 95.234375 79.730469 C 95.285156 80.003906 95.375 80.097656 95.5 80.140625 C 95.59375 80.171875 96.007812 80.121094 96.410156 79.855469 L 97.023438 79.332031 C 97.21875 79.074219 97.269531 78.761719 97.835938 78.636719 L 98.09375 79.800781 C 98.027344 79.8125 98.351562 79.675781 98.289062 79.714844 C 98.226562 79.757812 98.476562 79.515625 98.4375 79.570312 C 98.367188 79.667969 98.542969 79.261719 98.535156 79.320312 C 98.527344 79.375 98.535156 79.1875 98.535156 79.210938 C 98.542969 79.273438 99.472656 80.851562 100.230469 81.371094 C 100.5 81.554688 100.570312 81.925781 100.386719 82.195312 C 100.199219 82.46875 99.828125 82.539062 99.558594 82.351562 C 98.929688 81.921875 98.40625 81.25 97.992188 80.632812 L 97.507812 79.8125 L 97.375 79.460938 L 97.351562 79.179688 C 97.371094 79.023438 97.546875 78.703125 97.835938 78.636719 C 98.15625 78.566406 98.472656 78.769531 98.546875 79.089844 C 98.617188 79.410156 98.414062 79.726562 98.09375 79.800781 C 98.039062 79.8125 98.222656 79.75 98.203125 79.761719 L 98.171875 79.800781 L 97.96875 80.058594 C 97.726562 80.367188 97.414062 80.613281 97.070312 80.84375 C 96.460938 81.25 95.769531 81.492188 95.113281 81.265625 C 94.539062 81.070312 94.167969 80.519531 94.0625 79.941406 C 93.976562 79.457031 94.042969 78.984375 94.066406 78.582031 L 94.058594 78.109375 L 94.058594 78.035156 C 94.023438 77.996094 94.242188 78.140625 94.191406 78.121094 C 94.117188 78.09375 94.5 78.101562 94.425781 78.125 C 94.355469 78.148438 94.609375 77.980469 94.582031 78.019531 L 94.460938 78.308594 L 93.902344 79.664062 L 93.109375 81.4375 L 92.691406 82.171875 C 92.546875 82.382812 92.421875 82.644531 91.976562 82.707031 C 91.410156 82.785156 90.980469 82.421875 90.738281 81.980469 C 90.492188 81.539062 90.40625 81.046875 90.300781 80.542969 C 90.066406 79.417969 89.894531 78.183594 90.117188 77.308594 L 90.203125 77.089844 C 90.246094 77.011719 90.316406 76.894531 90.507812 76.8125 C 90.816406 76.675781 91.164062 76.890625 91.261719 77.015625 Z M 91.398438 77.28125 "/>
</g>
</svg>
